%TF.GenerationSoftware,KiCad,Pcbnew,9.0.6*%
%TF.CreationDate,2026-04-05T18:25:42+02:00*%
%TF.ProjectId,Buck,4275636b-2e6b-4696-9361-645f70636258,C*%
%TF.SameCoordinates,Original*%
%TF.FileFunction,Soldermask,Top*%
%TF.FilePolarity,Negative*%
%FSLAX46Y46*%
G04 Gerber Fmt 4.6, Leading zero omitted, Abs format (unit mm)*
G04 Created by KiCad (PCBNEW 9.0.6) date 2026-04-05 18:25:42*
%MOMM*%
%LPD*%
G01*
G04 APERTURE LIST*
G04 Aperture macros list*
%AMRoundRect*
0 Rectangle with rounded corners*
0 $1 Rounding radius*
0 $2 $3 $4 $5 $6 $7 $8 $9 X,Y pos of 4 corners*
0 Add a 4 corners polygon primitive as box body*
4,1,4,$2,$3,$4,$5,$6,$7,$8,$9,$2,$3,0*
0 Add four circle primitives for the rounded corners*
1,1,$1+$1,$2,$3*
1,1,$1+$1,$4,$5*
1,1,$1+$1,$6,$7*
1,1,$1+$1,$8,$9*
0 Add four rect primitives between the rounded corners*
20,1,$1+$1,$2,$3,$4,$5,0*
20,1,$1+$1,$4,$5,$6,$7,0*
20,1,$1+$1,$6,$7,$8,$9,0*
20,1,$1+$1,$8,$9,$2,$3,0*%
%AMFreePoly0*
4,1,9,0.000001,0.700000,0.000001,0.000000,0.000000,-0.000001,-0.500000,-0.000001,-0.500001,0.000000,-0.500001,0.700000,-0.500000,0.700001,0.000000,0.700001,0.000001,0.700000,0.000001,0.700000,$1*%
%AMFreePoly1*
4,1,9,0.750001,3.365000,0.750001,0.000000,0.750000,-0.000001,0.000000,-0.000001,-0.000001,0.000000,-0.000001,3.365000,0.000000,3.365001,0.750000,3.365001,0.750001,3.365000,0.750001,3.365000,$1*%
%AMFreePoly2*
4,1,9,0.500001,0.000000,0.500001,-0.700000,0.500000,-0.700001,0.000000,-0.700001,-0.000001,-0.700000,-0.000001,0.000000,0.000000,0.000001,0.500000,0.000001,0.500001,0.000000,0.500001,0.000000,$1*%
%AMFreePoly3*
4,1,9,0.000001,0.000000,0.000001,-4.700000,0.000000,-4.700001,-4.534500,-4.700001,-4.534501,-4.700000,-4.534501,0.000000,-4.534500,0.000001,0.000000,0.000001,0.000001,0.000000,0.000001,0.000000,$1*%
G04 Aperture macros list end*
%ADD10R,1.000000X1.000000*%
%ADD11RoundRect,0.200000X-0.200000X-0.275000X0.200000X-0.275000X0.200000X0.275000X-0.200000X0.275000X0*%
%ADD12FreePoly0,90.000000*%
%ADD13R,0.650000X1.250000*%
%ADD14FreePoly1,90.000000*%
%ADD15FreePoly2,90.000000*%
%ADD16FreePoly3,90.000000*%
%ADD17RoundRect,0.250000X0.650000X-0.325000X0.650000X0.325000X-0.650000X0.325000X-0.650000X-0.325000X0*%
%ADD18RoundRect,0.250001X-1.149999X1.149999X-1.149999X-1.149999X1.149999X-1.149999X1.149999X1.149999X0*%
%ADD19C,2.800000*%
%ADD20RoundRect,0.225000X0.225000X0.250000X-0.225000X0.250000X-0.225000X-0.250000X0.225000X-0.250000X0*%
%ADD21C,3.200000*%
%ADD22FreePoly0,180.000000*%
%ADD23R,1.250000X0.650000*%
%ADD24FreePoly1,180.000000*%
%ADD25FreePoly2,180.000000*%
%ADD26FreePoly3,180.000000*%
%ADD27C,2.000000*%
%ADD28RoundRect,0.250000X-0.250000X-0.475000X0.250000X-0.475000X0.250000X0.475000X-0.250000X0.475000X0*%
%ADD29RoundRect,0.225000X-0.225000X-0.250000X0.225000X-0.250000X0.225000X0.250000X-0.225000X0.250000X0*%
%ADD30RoundRect,0.250000X0.325000X1.100000X-0.325000X1.100000X-0.325000X-1.100000X0.325000X-1.100000X0*%
%ADD31RoundRect,0.250000X1.050000X0.550000X-1.050000X0.550000X-1.050000X-0.550000X1.050000X-0.550000X0*%
%ADD32RoundRect,0.200000X0.200000X0.275000X-0.200000X0.275000X-0.200000X-0.275000X0.200000X-0.275000X0*%
%ADD33RoundRect,0.225000X0.250000X-0.225000X0.250000X0.225000X-0.250000X0.225000X-0.250000X-0.225000X0*%
%ADD34RoundRect,0.200000X-0.275000X0.200000X-0.275000X-0.200000X0.275000X-0.200000X0.275000X0.200000X0*%
%ADD35R,4.000000X14.000000*%
%ADD36RoundRect,0.218750X-0.256250X0.218750X-0.256250X-0.218750X0.256250X-0.218750X0.256250X0.218750X0*%
%ADD37RoundRect,0.250001X-1.149999X-1.149999X1.149999X-1.149999X1.149999X1.149999X-1.149999X1.149999X0*%
%ADD38R,0.249999X0.599999*%
%ADD39R,0.599999X0.249999*%
%ADD40C,0.499999*%
%ADD41R,1.699999X2.700000*%
%ADD42FreePoly0,270.000000*%
%ADD43FreePoly1,270.000000*%
%ADD44FreePoly2,270.000000*%
%ADD45FreePoly3,270.000000*%
%ADD46RoundRect,0.135000X-0.135000X-0.185000X0.135000X-0.185000X0.135000X0.185000X-0.135000X0.185000X0*%
%ADD47RoundRect,0.225000X-0.250000X0.225000X-0.250000X-0.225000X0.250000X-0.225000X0.250000X0.225000X0*%
%ADD48RoundRect,0.200000X0.275000X-0.200000X0.275000X0.200000X-0.275000X0.200000X-0.275000X-0.200000X0*%
%ADD49R,4.500000X1.650000*%
%ADD50C,0.800000*%
G04 APERTURE END LIST*
D10*
%TO.C,TP10*%
X150800000Y-103900000D03*
%TD*%
%TO.C,TP8*%
X159000000Y-101500000D03*
%TD*%
%TO.C,TP6*%
X161800000Y-113900000D03*
%TD*%
%TO.C,TP5*%
X155200000Y-111700000D03*
%TD*%
%TO.C,TP4*%
X149500000Y-107000000D03*
%TD*%
D11*
%TO.C,R10*%
X176175000Y-107000000D03*
X177825000Y-107000000D03*
%TD*%
D12*
%TO.C,Q3*%
X173689600Y-103625000D03*
D13*
X173333000Y-103500000D03*
X174704200Y-103500000D03*
D14*
X176354600Y-103625000D03*
D12*
X176354600Y-103625000D03*
D13*
X176000000Y-103500000D03*
X177244200Y-103500000D03*
X177346200Y-97800000D03*
D15*
X176989600Y-97675000D03*
D13*
X176000000Y-97800000D03*
D15*
X175654600Y-97675000D03*
D13*
X174679200Y-97800000D03*
D15*
X174324600Y-97675000D03*
D13*
X173333000Y-97800000D03*
D15*
X172989600Y-97675000D03*
D16*
X172989600Y-97675000D03*
%TD*%
D17*
%TO.C,C7*%
X162500000Y-99525000D03*
X162500000Y-96575000D03*
%TD*%
D18*
%TO.C,J1*%
X142250000Y-107250000D03*
D19*
X142250000Y-112250000D03*
%TD*%
D20*
%TO.C,C13*%
X158375000Y-108150000D03*
X156825000Y-108150000D03*
%TD*%
D17*
%TO.C,C3*%
X154700000Y-99525000D03*
X154700000Y-96575000D03*
%TD*%
D21*
%TO.C,H2*%
X141000000Y-149000000D03*
%TD*%
D22*
%TO.C,Q4*%
X178300000Y-113900000D03*
D23*
X178175000Y-114256600D03*
X178175000Y-112885400D03*
D22*
X178300000Y-111235000D03*
D24*
X178300000Y-111235000D03*
D23*
X178175000Y-111589600D03*
X178175000Y-110345400D03*
X172475000Y-110243400D03*
D25*
X172350000Y-110600000D03*
D23*
X172475000Y-111589600D03*
D25*
X172350000Y-111935000D03*
D23*
X172475000Y-112910400D03*
D25*
X172350000Y-113265000D03*
D23*
X172475000Y-114256600D03*
D25*
X172350000Y-114600000D03*
D26*
X172350000Y-114600000D03*
%TD*%
D11*
%TO.C,R6*%
X162100000Y-111200000D03*
X163750000Y-111200000D03*
%TD*%
D21*
%TO.C,H3*%
X141000000Y-95000000D03*
%TD*%
D27*
%TO.C,FID3*%
X173000000Y-151000000D03*
%TD*%
D28*
%TO.C,C5*%
X157100000Y-111600000D03*
X159000000Y-111600000D03*
%TD*%
D29*
%TO.C,C11*%
X162025000Y-109500000D03*
X163575000Y-109500000D03*
%TD*%
D30*
%TO.C,C23*%
X148450000Y-135000000D03*
X145500000Y-135000000D03*
%TD*%
D29*
%TO.C,C12*%
X164225000Y-105750000D03*
X165775000Y-105750000D03*
%TD*%
D31*
%TO.C,C1*%
X146050000Y-101000000D03*
X142450000Y-101000000D03*
%TD*%
D32*
%TO.C,R15*%
X179725000Y-108500000D03*
X178075000Y-108500000D03*
%TD*%
D33*
%TO.C,C10*%
X149000000Y-103975000D03*
X149000000Y-102425000D03*
%TD*%
D34*
%TO.C,R8*%
X151600000Y-107675000D03*
X151600000Y-109325000D03*
%TD*%
D30*
%TO.C,C18*%
X148375000Y-124100000D03*
X145425000Y-124100000D03*
%TD*%
D29*
%TO.C,R20*%
X154725000Y-104500000D03*
X156275000Y-104500000D03*
%TD*%
D35*
%TO.C,L1*%
X167800000Y-121800000D03*
X151800000Y-121800000D03*
%TD*%
D12*
%TO.C,Q1*%
X167835000Y-102500000D03*
D13*
X167478400Y-102375000D03*
X168849600Y-102375000D03*
D14*
X170500000Y-102500000D03*
D12*
X170500000Y-102500000D03*
D13*
X170145400Y-102375000D03*
X171389600Y-102375000D03*
X171491600Y-96675000D03*
D15*
X171135000Y-96550000D03*
D13*
X170145400Y-96675000D03*
D15*
X169800000Y-96550000D03*
D13*
X168824600Y-96675000D03*
D15*
X168470000Y-96550000D03*
D13*
X167478400Y-96675000D03*
D15*
X167135000Y-96550000D03*
D16*
X167135000Y-96550000D03*
%TD*%
D36*
%TO.C,D1*%
X160500000Y-109612500D03*
X160500000Y-111187500D03*
%TD*%
D34*
%TO.C,R4*%
X152600000Y-103175000D03*
X152600000Y-104825000D03*
%TD*%
D17*
%TO.C,C2*%
X152200000Y-99525000D03*
X152200000Y-96575000D03*
%TD*%
D37*
%TO.C,J2*%
X156000000Y-148000000D03*
D19*
X161000000Y-148000000D03*
%TD*%
D38*
%TO.C,U1*%
X160600000Y-104099999D03*
D39*
X159700002Y-104500001D03*
X159700002Y-105000000D03*
X159700002Y-105500002D03*
X159700002Y-106000000D03*
X159700002Y-106500002D03*
X159700002Y-107000001D03*
X159700002Y-107500000D03*
X159700002Y-107999999D03*
D38*
X160600000Y-108400001D03*
X162100002Y-108400001D03*
D40*
X160750002Y-106250000D03*
X161350001Y-105150000D03*
X161350001Y-107350000D03*
X161950000Y-106250000D03*
D39*
X163000000Y-107999999D03*
X163000000Y-107500000D03*
X163000000Y-106999998D03*
X163000000Y-106500000D03*
X163000000Y-105999998D03*
X163000000Y-105499999D03*
X163000000Y-105000000D03*
X163000000Y-104499998D03*
D38*
X162100002Y-104099999D03*
D41*
X161350001Y-106250000D03*
%TD*%
D42*
%TO.C,Q2*%
X170310400Y-107500000D03*
D13*
X170667000Y-107625000D03*
X169295800Y-107625000D03*
D42*
X167645400Y-107500000D03*
D43*
X167645400Y-107500000D03*
D13*
X168000000Y-107625000D03*
X166755800Y-107625000D03*
X166653800Y-113325000D03*
D44*
X167010400Y-113450000D03*
D13*
X168000000Y-113325000D03*
D44*
X168345400Y-113450000D03*
D13*
X169320800Y-113325000D03*
D44*
X169675400Y-113450000D03*
D13*
X170667000Y-113325000D03*
D44*
X171010400Y-113450000D03*
D45*
X171010400Y-113450000D03*
%TD*%
D32*
%TO.C,R5*%
X158025000Y-109750000D03*
X156375000Y-109750000D03*
%TD*%
D46*
%TO.C,R1*%
X159290000Y-113200000D03*
X160310000Y-113200000D03*
%TD*%
D17*
%TO.C,C9*%
X165000000Y-99525000D03*
X165000000Y-96575000D03*
%TD*%
D30*
%TO.C,C19*%
X148350000Y-131300000D03*
X145400000Y-131300000D03*
%TD*%
D11*
%TO.C,R11*%
X179175000Y-107000000D03*
X180825000Y-107000000D03*
%TD*%
%TO.C,R12*%
X168375000Y-104000000D03*
X170025000Y-104000000D03*
%TD*%
%TO.C,R13*%
X177675000Y-105500000D03*
X179325000Y-105500000D03*
%TD*%
D34*
%TO.C,R9*%
X153350000Y-107675000D03*
X153350000Y-109325000D03*
%TD*%
D21*
%TO.C,H1*%
X178000000Y-149000000D03*
%TD*%
D30*
%TO.C,C22*%
X148450000Y-139250000D03*
X145500000Y-139250000D03*
%TD*%
D20*
%TO.C,C17*%
X153575000Y-106225000D03*
X152025000Y-106225000D03*
%TD*%
D30*
%TO.C,C16*%
X148375000Y-120500000D03*
X145425000Y-120500000D03*
%TD*%
D29*
%TO.C,C8*%
X154725000Y-103000000D03*
X156275000Y-103000000D03*
%TD*%
D47*
%TO.C,C24*%
X181200000Y-108500000D03*
X181200000Y-110050000D03*
%TD*%
D48*
%TO.C,R7*%
X155200000Y-107825000D03*
X155200000Y-106175000D03*
%TD*%
D27*
%TO.C,FID2*%
X144000000Y-144000000D03*
%TD*%
D30*
%TO.C,C20*%
X148350000Y-127700000D03*
X145400000Y-127700000D03*
%TD*%
D11*
%TO.C,R14*%
X167675000Y-105500000D03*
X169325000Y-105500000D03*
%TD*%
D17*
%TO.C,C4*%
X157300000Y-99525000D03*
X157300000Y-96575000D03*
%TD*%
D48*
%TO.C,R3*%
X160800000Y-104025000D03*
X160800000Y-102375000D03*
%TD*%
D17*
%TO.C,C6*%
X159900000Y-99525000D03*
X159900000Y-96575000D03*
%TD*%
D49*
%TO.C,C21*%
X153500000Y-137000000D03*
X161900000Y-137000000D03*
%TD*%
D20*
%TO.C,C14*%
X158575000Y-106600000D03*
X157025000Y-106600000D03*
%TD*%
D30*
%TO.C,C15*%
X148375000Y-117000000D03*
X145425000Y-117000000D03*
%TD*%
D48*
%TO.C,R2*%
X157800000Y-104900000D03*
X157800000Y-103250000D03*
%TD*%
D50*
X166000000Y-94000000D03*
X175000000Y-93000000D03*
X179000000Y-124000000D03*
X143000000Y-137000000D03*
X162000000Y-143000000D03*
X181000000Y-128000000D03*
X168000000Y-107500000D03*
X148500000Y-95000000D03*
X173000000Y-124000000D03*
X172000000Y-139000000D03*
X162000000Y-140000000D03*
X177000000Y-124000000D03*
X173000000Y-131000000D03*
X172000000Y-123000000D03*
X140000000Y-141000000D03*
X171000000Y-129000000D03*
X175000000Y-126000000D03*
X169000000Y-147000000D03*
X142000000Y-126000000D03*
X143000000Y-117000000D03*
X142000000Y-132000000D03*
X174000000Y-139000000D03*
X179000000Y-129000000D03*
X180000000Y-93000000D03*
X181000000Y-123000000D03*
X139000000Y-101500000D03*
X142000000Y-116000000D03*
X172000000Y-124000000D03*
X140000000Y-131000000D03*
X169000000Y-93000000D03*
X140000000Y-123000000D03*
X180000000Y-97000000D03*
X177000000Y-135000000D03*
X171000000Y-93000000D03*
X169000000Y-145000000D03*
X155500000Y-93000000D03*
X142000000Y-117000000D03*
X143000000Y-119000000D03*
X140000000Y-121000000D03*
X178000000Y-128000000D03*
X138000000Y-102500000D03*
X162500000Y-92000000D03*
X144000000Y-130000000D03*
X175000000Y-127000000D03*
X176000000Y-116000000D03*
X179000000Y-123000000D03*
X173000000Y-120000000D03*
X167000000Y-149000000D03*
X178000000Y-132000000D03*
X178000000Y-130000000D03*
X174000000Y-133000000D03*
X171000000Y-124000000D03*
X164000000Y-139000000D03*
X161000000Y-145000000D03*
X177000000Y-116000000D03*
X176000000Y-130000000D03*
X181000000Y-98000000D03*
X175000000Y-128000000D03*
X171000000Y-95000000D03*
X181000000Y-113000000D03*
X174000000Y-136000000D03*
X165000000Y-138000000D03*
X165000000Y-142000000D03*
X173000000Y-133000000D03*
X175000000Y-120000000D03*
X140000000Y-133000000D03*
X140000000Y-126000000D03*
X144000000Y-125000000D03*
X178000000Y-117000000D03*
X181000000Y-121000000D03*
X181000000Y-132000000D03*
X166000000Y-145000000D03*
X143000000Y-123000000D03*
X178000000Y-93000000D03*
X176000000Y-132000000D03*
X177000000Y-133000000D03*
X172000000Y-95000000D03*
X164000000Y-143000000D03*
X177000000Y-134000000D03*
X178000000Y-118000000D03*
X161000000Y-142000000D03*
X167000000Y-144000000D03*
X175000000Y-122000000D03*
X140000000Y-117000000D03*
X171000000Y-118000000D03*
X167000000Y-136000000D03*
X162000000Y-145000000D03*
X143000000Y-136000000D03*
X172000000Y-121000000D03*
X172000000Y-94000000D03*
X178000000Y-126000000D03*
X143000000Y-120000000D03*
X172000000Y-138000000D03*
X140000000Y-118000000D03*
X175000000Y-139000000D03*
X162000000Y-139000000D03*
X161500000Y-95000000D03*
X150500000Y-94000000D03*
X180000000Y-125000000D03*
X141000000Y-134000000D03*
X180000000Y-130000000D03*
X143000000Y-135000000D03*
X142000000Y-131000000D03*
X141000000Y-123000000D03*
X178000000Y-94000000D03*
X171000000Y-116000000D03*
X179000000Y-136000000D03*
X165000000Y-141000000D03*
X169000000Y-143000000D03*
X144000000Y-137000000D03*
X160000000Y-144000000D03*
X140000000Y-128000000D03*
X177000000Y-123000000D03*
X140000000Y-122000000D03*
X171000000Y-120000000D03*
X180000000Y-120000000D03*
X153500000Y-92000000D03*
X175000000Y-129000000D03*
X177000000Y-128000000D03*
X174000000Y-120000000D03*
X143000000Y-124000000D03*
X145000000Y-95500000D03*
X163000000Y-144000000D03*
X165000000Y-140000000D03*
X171000000Y-130000000D03*
X180000000Y-115000000D03*
X176000000Y-139000000D03*
X179000000Y-128000000D03*
X177000000Y-129000000D03*
X176000000Y-134000000D03*
X173000000Y-117000000D03*
X173000000Y-95000000D03*
X160500000Y-92000000D03*
X175000000Y-117000000D03*
X158500000Y-92000000D03*
X176000000Y-120000000D03*
X157500000Y-93000000D03*
X173000000Y-130000000D03*
X160500000Y-93000000D03*
X177000000Y-95000000D03*
X139000000Y-102500000D03*
X142000000Y-133000000D03*
X176000000Y-128000000D03*
X141000000Y-127000000D03*
X172000000Y-130000000D03*
X171000000Y-138000000D03*
X172000000Y-137000000D03*
X174000000Y-129000000D03*
X165000000Y-94000000D03*
X160500000Y-95000000D03*
X168000000Y-136000000D03*
X178000000Y-120000000D03*
X178000000Y-92000000D03*
X176000000Y-95000000D03*
X140000000Y-125000000D03*
X162000000Y-142000000D03*
X142000000Y-138000000D03*
X141000000Y-122000000D03*
X180000000Y-128000000D03*
X178000000Y-127000000D03*
X144000000Y-123000000D03*
X178000000Y-131000000D03*
X173000000Y-93000000D03*
X161500000Y-93000000D03*
X143000000Y-134000000D03*
X142000000Y-129000000D03*
X141000000Y-135000000D03*
X168000000Y-140000000D03*
X177000000Y-136000000D03*
X173000000Y-126000000D03*
X171000000Y-92000000D03*
X146000000Y-94500000D03*
X171000000Y-119000000D03*
X175000000Y-131000000D03*
X165000000Y-95000000D03*
X147000000Y-96500000D03*
X161000000Y-143000000D03*
X141000000Y-141000000D03*
X178000000Y-121000000D03*
X167000000Y-143000000D03*
X153500000Y-94000000D03*
X181000000Y-95000000D03*
X143000000Y-129000000D03*
X176000000Y-119000000D03*
X154500000Y-93000000D03*
X175000000Y-132000000D03*
X174000000Y-94000000D03*
X151500000Y-92000000D03*
X174000000Y-134000000D03*
X181000000Y-100000000D03*
X144000000Y-139000000D03*
X181000000Y-134000000D03*
X181000000Y-103000000D03*
X181000000Y-96000000D03*
X178000000Y-119000000D03*
X174000000Y-116000000D03*
X152500000Y-92000000D03*
X174000000Y-122000000D03*
X181000000Y-99000000D03*
X144000000Y-135000000D03*
X168000000Y-146000000D03*
X166000000Y-143000000D03*
X181000000Y-94000000D03*
X179000000Y-92000000D03*
X154500000Y-92000000D03*
X161500000Y-92000000D03*
X144000000Y-131000000D03*
X166000000Y-147000000D03*
X181000000Y-125000000D03*
X169000000Y-136000000D03*
X141000000Y-138000000D03*
X164000000Y-145000000D03*
X180000000Y-137000000D03*
X140000000Y-124000000D03*
X147000000Y-97500000D03*
X169000000Y-149000000D03*
X174000000Y-131000000D03*
X166000000Y-95000000D03*
X169000000Y-142000000D03*
X166000000Y-140000000D03*
X165000000Y-144000000D03*
X172000000Y-129000000D03*
X180000000Y-122000000D03*
X156500000Y-92000000D03*
X142000000Y-140000000D03*
X178000000Y-134000000D03*
X162500000Y-93000000D03*
X173000000Y-116000000D03*
X140000000Y-135000000D03*
X138000000Y-100500000D03*
X170000000Y-92000000D03*
X178000000Y-129000000D03*
X174000000Y-135000000D03*
X172000000Y-134000000D03*
X141000000Y-128000000D03*
X179000000Y-125000000D03*
X144000000Y-127000000D03*
X171000000Y-121000000D03*
X179000000Y-116000000D03*
X165000000Y-148000000D03*
X150500000Y-93000000D03*
X181000000Y-114000000D03*
X162500000Y-94000000D03*
X176000000Y-135000000D03*
X178000000Y-122000000D03*
X176000000Y-138000000D03*
X145000000Y-97500000D03*
X163000000Y-141000000D03*
X160000000Y-143000000D03*
X166000000Y-136000000D03*
X161000000Y-139000000D03*
X141000000Y-133000000D03*
X144000000Y-120000000D03*
X152500000Y-93000000D03*
X141000000Y-116000000D03*
X171000000Y-128000000D03*
X171000000Y-137000000D03*
X159500000Y-92000000D03*
X168000000Y-145000000D03*
X142000000Y-139000000D03*
X144000000Y-132000000D03*
X180000000Y-136000000D03*
X141000000Y-117000000D03*
X181000000Y-115000000D03*
X177000000Y-132000000D03*
X174000000Y-132000000D03*
X148500000Y-94000000D03*
X142000000Y-130000000D03*
X178000000Y-137000000D03*
X145000000Y-96500000D03*
X143000000Y-133000000D03*
X143000000Y-140000000D03*
X143000000Y-127000000D03*
X178000000Y-114000000D03*
X140000000Y-139000000D03*
X142000000Y-136000000D03*
X181000000Y-135000000D03*
X168000000Y-138000000D03*
X142000000Y-134000000D03*
X176000000Y-133000000D03*
X176000000Y-93000000D03*
X180000000Y-113000000D03*
X147000000Y-95500000D03*
X158500000Y-95000000D03*
X181000000Y-133000000D03*
X144000000Y-124000000D03*
X178000000Y-124000000D03*
X149500000Y-95000000D03*
X178000000Y-138000000D03*
X173000000Y-134000000D03*
X163000000Y-142000000D03*
X180000000Y-111000000D03*
X180000000Y-98000000D03*
X160000000Y-142000000D03*
X146000000Y-95500000D03*
X168000000Y-147000000D03*
X178000000Y-113000000D03*
X180000000Y-118000000D03*
X181000000Y-136000000D03*
X176000000Y-129000000D03*
X143000000Y-125000000D03*
X164000000Y-142000000D03*
X176000000Y-124000000D03*
X180000000Y-94000000D03*
X181000000Y-127000000D03*
X174000000Y-121000000D03*
X159500000Y-95000000D03*
X168000000Y-141000000D03*
X142000000Y-141000000D03*
X176000000Y-122000000D03*
X172000000Y-136000000D03*
X181000000Y-119000000D03*
X174000000Y-119000000D03*
X173000000Y-118000000D03*
X156500000Y-95000000D03*
X176000000Y-125000000D03*
X144000000Y-141000000D03*
X144000000Y-117000000D03*
X178000000Y-95000000D03*
X168000000Y-92000000D03*
X142000000Y-118000000D03*
X141000000Y-125000000D03*
X142000000Y-128000000D03*
X180000000Y-100000000D03*
X167000000Y-138000000D03*
X157500000Y-92000000D03*
X172000000Y-135000000D03*
X180000000Y-121000000D03*
X180000000Y-92000000D03*
X157500000Y-95000000D03*
X177000000Y-118000000D03*
X168000000Y-93000000D03*
X180000000Y-95000000D03*
X173000000Y-132000000D03*
X178000000Y-116000000D03*
X142000000Y-120000000D03*
X162500000Y-95000000D03*
X176000000Y-92000000D03*
X171000000Y-134000000D03*
X163000000Y-140000000D03*
X169000000Y-141000000D03*
X166000000Y-138000000D03*
X168000000Y-144000000D03*
X180000000Y-132000000D03*
X174000000Y-117000000D03*
X141000000Y-130000000D03*
X149500000Y-93000000D03*
X179000000Y-121000000D03*
X171000000Y-133000000D03*
X138000000Y-101500000D03*
X165000000Y-143000000D03*
X171000000Y-132000000D03*
X140000000Y-137000000D03*
X180000000Y-117000000D03*
X175000000Y-137000000D03*
X141000000Y-139000000D03*
X180000000Y-103000000D03*
X176000000Y-126000000D03*
X180000000Y-131000000D03*
X180000000Y-133000000D03*
X172000000Y-119000000D03*
X166000000Y-141000000D03*
X173000000Y-119000000D03*
X156500000Y-93000000D03*
X155500000Y-95000000D03*
X181000000Y-93000000D03*
X139000000Y-100500000D03*
X165000000Y-146000000D03*
X181000000Y-117000000D03*
X171000000Y-122000000D03*
X163000000Y-139000000D03*
X162000000Y-141000000D03*
X179000000Y-119000000D03*
X161000000Y-144000000D03*
X165000000Y-93000000D03*
X163500000Y-94000000D03*
X144000000Y-121000000D03*
X144000000Y-118000000D03*
X181000000Y-126000000D03*
X152500000Y-94000000D03*
X166000000Y-92000000D03*
X147000000Y-94500000D03*
X155500000Y-92000000D03*
X169000000Y-94000000D03*
X177000000Y-126000000D03*
X170000000Y-107500000D03*
X177000000Y-93000000D03*
X144000000Y-129000000D03*
X141000000Y-121000000D03*
X154500000Y-94000000D03*
X166000000Y-139000000D03*
X141000000Y-140000000D03*
X168000000Y-137000000D03*
X164000000Y-144000000D03*
X179000000Y-95000000D03*
X172000000Y-132000000D03*
X143000000Y-122000000D03*
X141000000Y-136000000D03*
X179000000Y-139000000D03*
X165000000Y-149000000D03*
X179000000Y-132000000D03*
X172000000Y-131000000D03*
X177000000Y-127000000D03*
X169000000Y-138000000D03*
X143000000Y-141000000D03*
X166000000Y-146000000D03*
X167000000Y-139000000D03*
X143000000Y-126000000D03*
X149500000Y-94000000D03*
X169000000Y-146000000D03*
X177000000Y-130000000D03*
X166000000Y-142000000D03*
X160000000Y-141000000D03*
X165000000Y-147000000D03*
X141000000Y-118000000D03*
X179000000Y-131000000D03*
X179000000Y-126000000D03*
X181000000Y-92000000D03*
X174000000Y-118000000D03*
X172000000Y-122000000D03*
X181000000Y-137000000D03*
X167000000Y-147000000D03*
X167000000Y-137000000D03*
X171000000Y-125000000D03*
X168000000Y-94000000D03*
X179000000Y-133000000D03*
X170000000Y-95000000D03*
X142000000Y-119000000D03*
X161500000Y-94000000D03*
X167000000Y-146000000D03*
X177000000Y-131000000D03*
X142000000Y-122000000D03*
X173000000Y-123000000D03*
X143000000Y-118000000D03*
X167000000Y-94000000D03*
X180000000Y-134000000D03*
X173000000Y-127000000D03*
X174000000Y-126000000D03*
X174000000Y-130000000D03*
X175000000Y-119000000D03*
X174000000Y-95000000D03*
X157500000Y-94000000D03*
X176000000Y-123000000D03*
X181000000Y-120000000D03*
X167000000Y-95000000D03*
X179000000Y-94000000D03*
X177000000Y-117000000D03*
X179000000Y-117000000D03*
X156500000Y-94000000D03*
X175000000Y-135000000D03*
X176000000Y-131000000D03*
X172000000Y-116000000D03*
X181000000Y-129000000D03*
X175000000Y-124000000D03*
X167000000Y-141000000D03*
X177000000Y-94000000D03*
X180000000Y-126000000D03*
X160000000Y-139000000D03*
X142000000Y-127000000D03*
X170000000Y-93000000D03*
X181000000Y-131000000D03*
X172000000Y-93000000D03*
X172000000Y-117000000D03*
X163000000Y-143000000D03*
X164000000Y-141000000D03*
X171000000Y-127000000D03*
X169000000Y-137000000D03*
X143000000Y-128000000D03*
X151500000Y-94000000D03*
X178000000Y-112000000D03*
X175000000Y-121000000D03*
X178000000Y-139000000D03*
X166000000Y-149000000D03*
X141000000Y-132000000D03*
X168000000Y-148000000D03*
X173000000Y-136000000D03*
X165000000Y-139000000D03*
X169000000Y-148000000D03*
X140000000Y-134000000D03*
X179000000Y-127000000D03*
X158500000Y-94000000D03*
X144000000Y-119000000D03*
X141000000Y-129000000D03*
X173000000Y-135000000D03*
X171000000Y-123000000D03*
X175000000Y-118000000D03*
X141000000Y-137000000D03*
X171000000Y-126000000D03*
X173000000Y-125000000D03*
X178000000Y-133000000D03*
X181000000Y-138000000D03*
X171000000Y-135000000D03*
X181000000Y-122000000D03*
X171000000Y-117000000D03*
X181000000Y-118000000D03*
X175000000Y-94000000D03*
X172000000Y-125000000D03*
X163000000Y-145000000D03*
X169000000Y-92000000D03*
X176000000Y-117000000D03*
X180000000Y-101000000D03*
X172000000Y-133000000D03*
X180000000Y-96000000D03*
X171000000Y-131000000D03*
X142000000Y-137000000D03*
X172000000Y-128000000D03*
X143000000Y-131000000D03*
X175000000Y-123000000D03*
X159500000Y-94000000D03*
X150500000Y-92000000D03*
X167000000Y-142000000D03*
X144000000Y-138000000D03*
X142000000Y-125000000D03*
X174000000Y-124000000D03*
X167000000Y-140000000D03*
X144000000Y-128000000D03*
X171000000Y-136000000D03*
X149500000Y-92000000D03*
X174000000Y-125000000D03*
X179000000Y-93000000D03*
X177000000Y-119000000D03*
X172000000Y-120000000D03*
X172000000Y-127000000D03*
X168000000Y-149000000D03*
X178000000Y-135000000D03*
X169000000Y-140000000D03*
X176000000Y-94000000D03*
X177000000Y-122000000D03*
X140000000Y-132000000D03*
X162000000Y-144000000D03*
X142000000Y-123000000D03*
X144000000Y-140000000D03*
X141000000Y-120000000D03*
X141000000Y-124000000D03*
X173000000Y-137000000D03*
X177000000Y-121000000D03*
X151500000Y-93000000D03*
X170000000Y-94000000D03*
X160000000Y-140000000D03*
X142000000Y-135000000D03*
X180000000Y-138000000D03*
X174000000Y-92000000D03*
X171000000Y-139000000D03*
X181000000Y-97000000D03*
X167000000Y-148000000D03*
X174000000Y-93000000D03*
X171000000Y-94000000D03*
X180000000Y-119000000D03*
X165000000Y-145000000D03*
X174000000Y-128000000D03*
X176000000Y-137000000D03*
X144000000Y-122000000D03*
X179000000Y-118000000D03*
X169000000Y-144000000D03*
X153500000Y-95000000D03*
X174000000Y-127000000D03*
X140000000Y-136000000D03*
X144000000Y-134000000D03*
X180000000Y-112000000D03*
X176000000Y-118000000D03*
X172000000Y-126000000D03*
X180000000Y-124000000D03*
X160500000Y-94000000D03*
X177000000Y-120000000D03*
X140000000Y-119000000D03*
X179000000Y-120000000D03*
X143000000Y-116000000D03*
X173000000Y-129000000D03*
X173000000Y-122000000D03*
X144000000Y-136000000D03*
X175000000Y-138000000D03*
X181000000Y-124000000D03*
X146000000Y-97500000D03*
X180000000Y-99000000D03*
X181000000Y-112000000D03*
X180000000Y-139000000D03*
X180000000Y-123000000D03*
X177000000Y-125000000D03*
X143000000Y-121000000D03*
X175000000Y-125000000D03*
X166000000Y-137000000D03*
X143000000Y-132000000D03*
X160000000Y-145000000D03*
X181000000Y-116000000D03*
X150500000Y-95000000D03*
X174000000Y-123000000D03*
X177000000Y-137000000D03*
X148500000Y-92000000D03*
X140000000Y-127000000D03*
X154500000Y-95000000D03*
X167000000Y-145000000D03*
X168000000Y-143000000D03*
X179000000Y-122000000D03*
X172000000Y-92000000D03*
X179000000Y-130000000D03*
X173000000Y-138000000D03*
X179000000Y-135000000D03*
X159500000Y-93000000D03*
X142000000Y-124000000D03*
X180000000Y-116000000D03*
X179000000Y-134000000D03*
X141000000Y-131000000D03*
X161000000Y-140000000D03*
X168000000Y-95000000D03*
X166000000Y-144000000D03*
X176000000Y-121000000D03*
X178000000Y-125000000D03*
X145000000Y-94500000D03*
X173000000Y-92000000D03*
X164000000Y-140000000D03*
X166000000Y-148000000D03*
X144000000Y-133000000D03*
X176000000Y-136000000D03*
X175000000Y-116000000D03*
X144000000Y-116000000D03*
X173000000Y-94000000D03*
X169000000Y-139000000D03*
X143000000Y-138000000D03*
X175000000Y-133000000D03*
X161000000Y-141000000D03*
X174000000Y-137000000D03*
X140000000Y-120000000D03*
X165000000Y-136000000D03*
X173000000Y-121000000D03*
X177000000Y-139000000D03*
X178000000Y-136000000D03*
X158500000Y-93000000D03*
X175000000Y-136000000D03*
X148500000Y-93000000D03*
X169000000Y-107500000D03*
X180000000Y-127000000D03*
X180000000Y-129000000D03*
X181000000Y-102000000D03*
X143000000Y-130000000D03*
X176000000Y-127000000D03*
X175000000Y-95000000D03*
X163500000Y-92000000D03*
X181000000Y-130000000D03*
X180000000Y-135000000D03*
X163500000Y-95000000D03*
X177000000Y-138000000D03*
X146000000Y-96500000D03*
X142000000Y-121000000D03*
X168000000Y-139000000D03*
X181000000Y-101000000D03*
X175000000Y-92000000D03*
X172000000Y-118000000D03*
X163500000Y-93000000D03*
X175000000Y-130000000D03*
X167000000Y-92000000D03*
X167000000Y-93000000D03*
X179000000Y-137000000D03*
X175000000Y-134000000D03*
X140000000Y-116000000D03*
X153500000Y-93000000D03*
X179000000Y-138000000D03*
X173000000Y-139000000D03*
X151500000Y-95000000D03*
X180000000Y-102000000D03*
X143000000Y-139000000D03*
X141000000Y-126000000D03*
X140000000Y-130000000D03*
X144000000Y-126000000D03*
X177000000Y-92000000D03*
X174000000Y-138000000D03*
X165000000Y-137000000D03*
X173000000Y-128000000D03*
X178000000Y-123000000D03*
X155500000Y-94000000D03*
X166000000Y-93000000D03*
X141000000Y-119000000D03*
X181000000Y-139000000D03*
X165000000Y-92000000D03*
X140000000Y-138000000D03*
X152500000Y-95000000D03*
X168000000Y-142000000D03*
X140000000Y-140000000D03*
X140000000Y-129000000D03*
X169000000Y-95000000D03*
G36*
X169443039Y-135519685D02*
G01*
X169488794Y-135572489D01*
X169500000Y-135624000D01*
X169500000Y-149376000D01*
X169480315Y-149443039D01*
X169427511Y-149488794D01*
X169376000Y-149500000D01*
X164624000Y-149500000D01*
X164556961Y-149480315D01*
X164511206Y-149427511D01*
X164500000Y-149376000D01*
X164500000Y-135624000D01*
X164519685Y-135556961D01*
X164572489Y-135511206D01*
X164624000Y-135500000D01*
X169376000Y-135500000D01*
X169443039Y-135519685D01*
G37*
G36*
X181443039Y-91519685D02*
G01*
X181488794Y-91572489D01*
X181500000Y-91624000D01*
X181500000Y-103376000D01*
X181480315Y-103443039D01*
X181427511Y-103488794D01*
X181376000Y-103500000D01*
X179624000Y-103500000D01*
X179556961Y-103480315D01*
X179511206Y-103427511D01*
X179500000Y-103376000D01*
X179500000Y-95500000D01*
X148024000Y-95500000D01*
X147956961Y-95480315D01*
X147911206Y-95427511D01*
X147900000Y-95376000D01*
X147900000Y-91624000D01*
X147919685Y-91556961D01*
X147972489Y-91511206D01*
X148024000Y-91500000D01*
X181376000Y-91500000D01*
X181443039Y-91519685D01*
G37*
G36*
X144443039Y-115519685D02*
G01*
X144488794Y-115572489D01*
X144500000Y-115624000D01*
X144500000Y-141376000D01*
X144480315Y-141443039D01*
X144427511Y-141488794D01*
X144376000Y-141500000D01*
X139624000Y-141500000D01*
X139556961Y-141480315D01*
X139511206Y-141427511D01*
X139500000Y-141376000D01*
X139500000Y-115624000D01*
X139519685Y-115556961D01*
X139572489Y-115511206D01*
X139624000Y-115500000D01*
X144376000Y-115500000D01*
X144443039Y-115519685D01*
G37*
G36*
X181443039Y-115519685D02*
G01*
X181488794Y-115572489D01*
X181500000Y-115624000D01*
X181500000Y-139876000D01*
X181480315Y-139943039D01*
X181427511Y-139988794D01*
X181376000Y-140000000D01*
X170624000Y-140000000D01*
X170556961Y-139980315D01*
X170511206Y-139927511D01*
X170500000Y-139876000D01*
X170500000Y-115624000D01*
X170519685Y-115556961D01*
X170572489Y-115511206D01*
X170624000Y-115500000D01*
X181376000Y-115500000D01*
X181443039Y-115519685D01*
G37*
M02*
