%TF.GenerationSoftware,KiCad,Pcbnew,9.0.6*%
%TF.CreationDate,2026-03-07T17:51:52+01:00*%
%TF.ProjectId,High Side OR ing,48696768-2053-4696-9465-204f5220696e,A*%
%TF.SameCoordinates,Original*%
%TF.FileFunction,Soldermask,Top*%
%TF.FilePolarity,Negative*%
%FSLAX46Y46*%
G04 Gerber Fmt 4.6, Leading zero omitted, Abs format (unit mm)*
G04 Created by KiCad (PCBNEW 9.0.6) date 2026-03-07 17:51:52*
%MOMM*%
%LPD*%
G01*
G04 APERTURE LIST*
G04 Aperture macros list*
%AMRoundRect*
0 Rectangle with rounded corners*
0 $1 Rounding radius*
0 $2 $3 $4 $5 $6 $7 $8 $9 X,Y pos of 4 corners*
0 Add a 4 corners polygon primitive as box body*
4,1,4,$2,$3,$4,$5,$6,$7,$8,$9,$2,$3,0*
0 Add four circle primitives for the rounded corners*
1,1,$1+$1,$2,$3*
1,1,$1+$1,$4,$5*
1,1,$1+$1,$6,$7*
1,1,$1+$1,$8,$9*
0 Add four rect primitives between the rounded corners*
20,1,$1+$1,$2,$3,$4,$5,0*
20,1,$1+$1,$4,$5,$6,$7,0*
20,1,$1+$1,$6,$7,$8,$9,0*
20,1,$1+$1,$8,$9,$2,$3,0*%
G04 Aperture macros list end*
%ADD10RoundRect,0.250000X0.250000X0.475000X-0.250000X0.475000X-0.250000X-0.475000X0.250000X-0.475000X0*%
%ADD11RoundRect,0.225000X0.250000X-0.225000X0.250000X0.225000X-0.250000X0.225000X-0.250000X-0.225000X0*%
%ADD12R,1.219200X0.533400*%
%ADD13R,1.700000X1.700000*%
%ADD14C,1.700000*%
%ADD15C,1.500000*%
%ADD16RoundRect,0.250001X-1.149999X1.149999X-1.149999X-1.149999X1.149999X-1.149999X1.149999X1.149999X0*%
%ADD17C,2.800000*%
%ADD18C,3.200000*%
%ADD19R,1.016000X0.457200*%
%ADD20RoundRect,0.472875X-1.103375X-1.544625X1.103375X-1.544625X1.103375X1.544625X-1.103375X1.544625X0*%
%ADD21RoundRect,0.250001X1.149999X-1.149999X1.149999X1.149999X-1.149999X1.149999X-1.149999X-1.149999X0*%
%ADD22RoundRect,0.225000X0.225000X0.250000X-0.225000X0.250000X-0.225000X-0.250000X0.225000X-0.250000X0*%
G04 APERTURE END LIST*
D10*
%TO.C,C2*%
X199050000Y-94500000D03*
X200950000Y-94500000D03*
%TD*%
D11*
%TO.C,R2*%
X199200000Y-90950000D03*
X199200000Y-92500000D03*
%TD*%
D12*
%TO.C,U2*%
X192336800Y-95950001D03*
X192336800Y-95000000D03*
X192336800Y-94049999D03*
X190000000Y-94049999D03*
X190000000Y-95000000D03*
X190000000Y-95950001D03*
%TD*%
%TO.C,U1*%
X192336800Y-84000000D03*
X192336800Y-83049999D03*
X192336800Y-82099998D03*
X190000000Y-82099998D03*
X190000000Y-83049999D03*
X190000000Y-84000000D03*
%TD*%
D13*
%TO.C,J6*%
X196500000Y-93000000D03*
D14*
X196500000Y-95540000D03*
%TD*%
D13*
%TO.C,J4*%
X195700000Y-83125000D03*
D14*
X195700000Y-85665000D03*
%TD*%
D15*
%TO.C,FID2*%
X201000000Y-69000000D03*
%TD*%
D16*
%TO.C,J1*%
X179382500Y-85000000D03*
D17*
X179382500Y-90000000D03*
%TD*%
D16*
%TO.C,J2*%
X179882500Y-73500000D03*
D17*
X179882500Y-78500000D03*
%TD*%
D15*
%TO.C,FID3*%
X176000000Y-69000000D03*
%TD*%
D18*
%TO.C,H2*%
X206000000Y-94000000D03*
%TD*%
D19*
%TO.C,Q1*%
X188000000Y-88230000D03*
X188000000Y-89500000D03*
X188000000Y-90770000D03*
X188000000Y-92040000D03*
X193892800Y-92040000D03*
D20*
X191570150Y-90117500D03*
D19*
X193892800Y-90770000D03*
X193892800Y-89500000D03*
X193892800Y-88230000D03*
%TD*%
D10*
%TO.C,C1*%
X202150000Y-76500000D03*
X200250000Y-76500000D03*
%TD*%
D15*
%TO.C,FID1*%
X176000000Y-96000000D03*
%TD*%
D21*
%TO.C,J3*%
X204617500Y-86500000D03*
D17*
X204617500Y-81500000D03*
%TD*%
D18*
%TO.C,H1*%
X206000000Y-71000000D03*
%TD*%
D22*
%TO.C,R1*%
X198550000Y-76500000D03*
X197000000Y-76500000D03*
%TD*%
D19*
%TO.C,Q2*%
X189000000Y-76460000D03*
X189000000Y-77730000D03*
X189000000Y-79000000D03*
X189000000Y-80270000D03*
X194892800Y-80270000D03*
D20*
X192570150Y-78347500D03*
D19*
X194892800Y-79000000D03*
X194892800Y-77730000D03*
X194892800Y-76460000D03*
%TD*%
M02*
