%TF.GenerationSoftware,KiCad,Pcbnew,9.0.6*%
%TF.CreationDate,2026-02-11T21:56:19+01:00*%
%TF.ProjectId,High Side OR ing,48696768-2053-4696-9465-204f5220696e,A*%
%TF.SameCoordinates,Original*%
%TF.FileFunction,Copper,L1,Top*%
%TF.FilePolarity,Positive*%
%FSLAX46Y46*%
G04 Gerber Fmt 4.6, Leading zero omitted, Abs format (unit mm)*
G04 Created by KiCad (PCBNEW 9.0.6) date 2026-02-11 21:56:19*
%MOMM*%
%LPD*%
G01*
G04 APERTURE LIST*
G04 Aperture macros list*
%AMRoundRect*
0 Rectangle with rounded corners*
0 $1 Rounding radius*
0 $2 $3 $4 $5 $6 $7 $8 $9 X,Y pos of 4 corners*
0 Add a 4 corners polygon primitive as box body*
4,1,4,$2,$3,$4,$5,$6,$7,$8,$9,$2,$3,0*
0 Add four circle primitives for the rounded corners*
1,1,$1+$1,$2,$3*
1,1,$1+$1,$4,$5*
1,1,$1+$1,$6,$7*
1,1,$1+$1,$8,$9*
0 Add four rect primitives between the rounded corners*
20,1,$1+$1,$2,$3,$4,$5,0*
20,1,$1+$1,$4,$5,$6,$7,0*
20,1,$1+$1,$6,$7,$8,$9,0*
20,1,$1+$1,$8,$9,$2,$3,0*%
G04 Aperture macros list end*
%TA.AperFunction,ComponentPad*%
%ADD10R,0.850000X0.850000*%
%TD*%
%TA.AperFunction,SMDPad,CuDef*%
%ADD11RoundRect,0.225000X0.250000X-0.225000X0.250000X0.225000X-0.250000X0.225000X-0.250000X-0.225000X0*%
%TD*%
%TA.AperFunction,SMDPad,CuDef*%
%ADD12C,0.500000*%
%TD*%
%TA.AperFunction,ComponentPad*%
%ADD13RoundRect,0.250001X-1.149999X1.149999X-1.149999X-1.149999X1.149999X-1.149999X1.149999X1.149999X0*%
%TD*%
%TA.AperFunction,ComponentPad*%
%ADD14C,2.800000*%
%TD*%
%TA.AperFunction,SMDPad,CuDef*%
%ADD15R,1.016000X0.457200*%
%TD*%
%TA.AperFunction,SMDPad,CuDef*%
%ADD16RoundRect,0.472875X-1.103375X-1.544625X1.103375X-1.544625X1.103375X1.544625X-1.103375X1.544625X0*%
%TD*%
%TA.AperFunction,SMDPad,CuDef*%
%ADD17RoundRect,0.250000X0.250000X0.475000X-0.250000X0.475000X-0.250000X-0.475000X0.250000X-0.475000X0*%
%TD*%
%TA.AperFunction,SMDPad,CuDef*%
%ADD18R,1.219200X0.533400*%
%TD*%
%TA.AperFunction,ComponentPad*%
%ADD19RoundRect,0.250001X1.149999X-1.149999X1.149999X1.149999X-1.149999X1.149999X-1.149999X-1.149999X0*%
%TD*%
%TA.AperFunction,SMDPad,CuDef*%
%ADD20RoundRect,0.225000X0.225000X0.250000X-0.225000X0.250000X-0.225000X-0.250000X0.225000X-0.250000X0*%
%TD*%
%TA.AperFunction,ViaPad*%
%ADD21C,0.800000*%
%TD*%
%TA.AperFunction,ViaPad*%
%ADD22C,0.500000*%
%TD*%
%TA.AperFunction,ViaPad*%
%ADD23C,0.600000*%
%TD*%
%TA.AperFunction,Conductor*%
%ADD24C,0.200000*%
%TD*%
G04 APERTURE END LIST*
D10*
%TO.P,J5,1,Pin_1*%
%TO.N,Net-(J5-Pin_1)*%
X195000000Y-83000000D03*
%TD*%
D11*
%TO.P,R2,1*%
%TO.N,Net-(U2-VS)*%
X197500000Y-92500000D03*
%TO.P,R2,2*%
%TO.N,/VOUT*%
X197500000Y-90950000D03*
%TD*%
D12*
%TO.P,FID2,*%
%TO.N,*%
X201000000Y-69000000D03*
%TD*%
D13*
%TO.P,J1,1,Pin_1*%
%TO.N,GND*%
X180000000Y-84500000D03*
D14*
%TO.P,J1,2,Pin_2*%
%TO.N,/VIN_1*%
X180000000Y-89500000D03*
%TD*%
D13*
%TO.P,J2,1,Pin_1*%
%TO.N,GND*%
X179882500Y-73500000D03*
D14*
%TO.P,J2,2,Pin_2*%
%TO.N,/VIN_2*%
X179882500Y-78500000D03*
%TD*%
D12*
%TO.P,FID3,*%
%TO.N,*%
X176000000Y-69000000D03*
%TD*%
D15*
%TO.P,Q1,1,S*%
%TO.N,/VIN_1*%
X189000000Y-87000000D03*
%TO.P,Q1,2,S*%
X189000000Y-88270000D03*
%TO.P,Q1,3,S*%
X189000000Y-89540000D03*
%TO.P,Q1,4,G*%
%TO.N,/GATE_1*%
X189000000Y-90810000D03*
%TO.P,Q1,5,D*%
%TO.N,/VOUT*%
X194892800Y-90810000D03*
D16*
%TO.P,Q1,6,D*%
X192570150Y-88887500D03*
D15*
X194892800Y-89540000D03*
%TO.P,Q1,7,D*%
X194892800Y-88270000D03*
%TO.P,Q1,8,D*%
X194892800Y-87000000D03*
%TD*%
D17*
%TO.P,C2,1*%
%TO.N,GND*%
X199250000Y-94500000D03*
%TO.P,C2,2*%
%TO.N,Net-(U2-VS)*%
X197350000Y-94500000D03*
%TD*%
D10*
%TO.P,J4,1,Pin_1*%
%TO.N,Net-(J4-Pin_1)*%
X195000000Y-93000000D03*
%TD*%
D18*
%TO.P,U2,1,VS*%
%TO.N,Net-(U2-VS)*%
X192336800Y-94900002D03*
%TO.P,U2,2,GND*%
%TO.N,GND*%
X192336800Y-93950001D03*
%TO.P,U2,3,OFF*%
%TO.N,Net-(J4-Pin_1)*%
X192336800Y-93000000D03*
%TO.P,U2,4,IN*%
%TO.N,/VIN_1*%
X190000000Y-93000000D03*
%TO.P,U2,5,GATE*%
%TO.N,/GATE_1*%
X190000000Y-93950001D03*
%TO.P,U2,6,OUT*%
%TO.N,/VOUT*%
X190000000Y-94900002D03*
%TD*%
D17*
%TO.P,C1,1*%
%TO.N,GND*%
X202150000Y-76500000D03*
%TO.P,C1,2*%
%TO.N,Net-(U1-VS)*%
X200250000Y-76500000D03*
%TD*%
D12*
%TO.P,FID1,*%
%TO.N,*%
X176000000Y-96000000D03*
%TD*%
D19*
%TO.P,J3,1,Pin_1*%
%TO.N,GND*%
X204117500Y-86500000D03*
D14*
%TO.P,J3,2,Pin_2*%
%TO.N,/VOUT*%
X204117500Y-81500000D03*
%TD*%
D20*
%TO.P,R1,1*%
%TO.N,Net-(U1-VS)*%
X198550000Y-76500000D03*
%TO.P,R1,2*%
%TO.N,/VOUT*%
X197000000Y-76500000D03*
%TD*%
D15*
%TO.P,Q2,1,S*%
%TO.N,/VIN_2*%
X189000000Y-76460000D03*
%TO.P,Q2,2,S*%
X189000000Y-77730000D03*
%TO.P,Q2,3,S*%
X189000000Y-79000000D03*
%TO.P,Q2,4,G*%
%TO.N,/GATE_2*%
X189000000Y-80270000D03*
%TO.P,Q2,5,D*%
%TO.N,/VOUT*%
X194892800Y-80270000D03*
D16*
%TO.P,Q2,6,D*%
X192570150Y-78347500D03*
D15*
X194892800Y-79000000D03*
%TO.P,Q2,7,D*%
X194892800Y-77730000D03*
%TO.P,Q2,8,D*%
X194892800Y-76460000D03*
%TD*%
D18*
%TO.P,U1,1,VS*%
%TO.N,Net-(U1-VS)*%
X192336800Y-84000000D03*
%TO.P,U1,2,GND*%
%TO.N,GND*%
X192336800Y-83049999D03*
%TO.P,U1,3,OFF*%
%TO.N,Net-(J5-Pin_1)*%
X192336800Y-82099998D03*
%TO.P,U1,4,IN*%
%TO.N,/VIN_2*%
X190000000Y-82099998D03*
%TO.P,U1,5,GATE*%
%TO.N,/GATE_2*%
X190000000Y-83049999D03*
%TO.P,U1,6,OUT*%
%TO.N,/VOUT*%
X190000000Y-84000000D03*
%TD*%
D21*
%TO.N,GND*%
X177500000Y-85000000D03*
X177500000Y-86000000D03*
X176500000Y-73000000D03*
X183500000Y-72000000D03*
X205500000Y-90000000D03*
X206500000Y-88000000D03*
X177500000Y-74000000D03*
X176500000Y-84000000D03*
X177500000Y-84000000D03*
X202500000Y-89000000D03*
X204500000Y-90000000D03*
X206500000Y-85000000D03*
X184000000Y-94000000D03*
X183500000Y-75000000D03*
X183500000Y-84000000D03*
X176500000Y-72000000D03*
D22*
X193500000Y-94000000D03*
D21*
X183500000Y-73000000D03*
X182500000Y-72000000D03*
X206500000Y-86000000D03*
X206500000Y-87000000D03*
X203500000Y-89000000D03*
X176500000Y-85000000D03*
X199000000Y-70000000D03*
X183500000Y-83000000D03*
X199000000Y-74000000D03*
X207500000Y-87000000D03*
X176500000Y-83000000D03*
X177500000Y-75000000D03*
X183500000Y-74000000D03*
X176500000Y-75000000D03*
X202500000Y-90000000D03*
X205500000Y-89000000D03*
D23*
X200500000Y-94500000D03*
D22*
X193500000Y-83000000D03*
D21*
X180000000Y-94000000D03*
X176500000Y-86000000D03*
X207500000Y-88000000D03*
X182500000Y-75000000D03*
X183500000Y-85000000D03*
X177500000Y-72000000D03*
X207500000Y-85000000D03*
X177500000Y-73000000D03*
X177500000Y-83000000D03*
X182500000Y-83000000D03*
X203500000Y-90000000D03*
X176500000Y-74000000D03*
X182500000Y-85000000D03*
X178000000Y-94000000D03*
X182500000Y-73000000D03*
X182500000Y-84000000D03*
X186000000Y-94000000D03*
X182500000Y-74000000D03*
X176000000Y-94000000D03*
X183500000Y-86000000D03*
X207500000Y-86000000D03*
X204500000Y-89000000D03*
X182500000Y-86000000D03*
X199000000Y-72000000D03*
X182000000Y-94000000D03*
D23*
X202250000Y-75000000D03*
%TO.N,Net-(U1-VS)*%
X198500000Y-77750000D03*
X193500000Y-84000000D03*
%TD*%
D24*
%TO.N,GND*%
X192336800Y-83049999D02*
X193450001Y-83049999D01*
X202250000Y-76400000D02*
X202150000Y-76500000D01*
X193450001Y-83049999D02*
X193500000Y-83000000D01*
X193450001Y-93950001D02*
X193500000Y-94000000D01*
X192336800Y-93950001D02*
X193450001Y-93950001D01*
X199250000Y-94500000D02*
X200500000Y-94500000D01*
X202250000Y-75000000D02*
X202250000Y-76400000D01*
%TO.N,Net-(J4-Pin_1)*%
X192336800Y-93000000D02*
X195000000Y-93000000D01*
%TO.N,Net-(J5-Pin_1)*%
X194099998Y-82099998D02*
X195000000Y-83000000D01*
X192336800Y-82099998D02*
X194099998Y-82099998D01*
%TO.N,/VIN_1*%
X190000000Y-93000000D02*
X190000000Y-90540000D01*
X190000000Y-90540000D02*
X189000000Y-89540000D01*
%TO.N,/VIN_2*%
X190000000Y-82099998D02*
X190000000Y-80000000D01*
X190000000Y-80000000D02*
X189000000Y-79000000D01*
%TO.N,/VOUT*%
X190809600Y-94900002D02*
X191426200Y-94283402D01*
X190000000Y-94900002D02*
X190809600Y-94900002D01*
X190000000Y-86317350D02*
X192570150Y-88887500D01*
X191426200Y-90031450D02*
X192570150Y-88887500D01*
X190000000Y-84000000D02*
X190000000Y-86317350D01*
X191426200Y-94283402D02*
X191426200Y-90031450D01*
%TO.N,/GATE_1*%
X189000000Y-93759601D02*
X189190400Y-93950001D01*
X189190400Y-93950001D02*
X190000000Y-93950001D01*
X189000000Y-90810000D02*
X189000000Y-93759601D01*
%TO.N,/GATE_2*%
X189190400Y-83049999D02*
X190000000Y-83049999D01*
X189000000Y-82859599D02*
X189190400Y-83049999D01*
X189000000Y-80270000D02*
X189000000Y-82859599D01*
%TO.N,Net-(U1-VS)*%
X198500000Y-76550000D02*
X198550000Y-76500000D01*
X198500000Y-77750000D02*
X198500000Y-76550000D01*
X198550000Y-76500000D02*
X200250000Y-76500000D01*
X192336800Y-84000000D02*
X193500000Y-84000000D01*
%TO.N,Net-(U2-VS)*%
X196548998Y-95301002D02*
X197350000Y-94500000D01*
X192336800Y-94900002D02*
X192737800Y-95301002D01*
X197500000Y-92500000D02*
X197500000Y-94350000D01*
X197500000Y-94350000D02*
X197350000Y-94500000D01*
X192737800Y-95301002D02*
X196548998Y-95301002D01*
%TD*%
%TA.AperFunction,Conductor*%
%TO.N,/VOUT*%
G36*
X197816665Y-75519685D02*
G01*
X197862420Y-75572489D01*
X197872364Y-75641647D01*
X197843339Y-75705203D01*
X197837307Y-75711681D01*
X197752032Y-75796955D01*
X197752029Y-75796959D01*
X197663001Y-75941294D01*
X197662996Y-75941305D01*
X197609651Y-76102290D01*
X197599500Y-76201647D01*
X197599500Y-76798337D01*
X197599501Y-76798355D01*
X197609650Y-76897707D01*
X197609651Y-76897710D01*
X197662996Y-77058694D01*
X197663001Y-77058705D01*
X197752029Y-77203040D01*
X197752032Y-77203044D01*
X197770581Y-77221593D01*
X197804066Y-77282916D01*
X197799082Y-77352608D01*
X197792267Y-77367710D01*
X197790609Y-77370812D01*
X197730264Y-77516498D01*
X197730261Y-77516510D01*
X197699500Y-77671153D01*
X197699500Y-77828846D01*
X197730261Y-77983489D01*
X197730264Y-77983501D01*
X197790602Y-78129172D01*
X197790609Y-78129185D01*
X197878210Y-78260288D01*
X197878213Y-78260292D01*
X197989707Y-78371786D01*
X197989711Y-78371789D01*
X198120814Y-78459390D01*
X198120827Y-78459397D01*
X198265885Y-78519481D01*
X198266503Y-78519737D01*
X198421153Y-78550499D01*
X198421156Y-78550500D01*
X198421158Y-78550500D01*
X198578844Y-78550500D01*
X198578845Y-78550499D01*
X198733497Y-78519737D01*
X198879179Y-78459394D01*
X199010289Y-78371789D01*
X199121789Y-78260289D01*
X199209394Y-78129179D01*
X199269737Y-77983497D01*
X199300500Y-77828842D01*
X199300500Y-77671158D01*
X199300500Y-77671155D01*
X199297243Y-77654782D01*
X199303470Y-77585190D01*
X199346333Y-77530013D01*
X199412222Y-77506768D01*
X199480219Y-77522836D01*
X199506541Y-77542909D01*
X199531344Y-77567712D01*
X199680666Y-77659814D01*
X199847203Y-77714999D01*
X199949991Y-77725500D01*
X200550008Y-77725499D01*
X200550016Y-77725498D01*
X200550019Y-77725498D01*
X200606302Y-77719748D01*
X200652797Y-77714999D01*
X200819334Y-77659814D01*
X200968656Y-77567712D01*
X201092712Y-77443656D01*
X201094461Y-77440819D01*
X201096169Y-77439283D01*
X201097193Y-77437989D01*
X201097414Y-77438163D01*
X201146406Y-77394096D01*
X201215368Y-77382872D01*
X201279451Y-77410713D01*
X201305537Y-77440817D01*
X201307288Y-77443656D01*
X201431344Y-77567712D01*
X201580666Y-77659814D01*
X201747203Y-77714999D01*
X201849991Y-77725500D01*
X202450008Y-77725499D01*
X202450016Y-77725498D01*
X202450019Y-77725498D01*
X202506302Y-77719748D01*
X202552797Y-77714999D01*
X202719334Y-77659814D01*
X202868656Y-77567712D01*
X202992712Y-77443656D01*
X203084814Y-77294334D01*
X203139999Y-77127797D01*
X203150500Y-77025009D01*
X203150499Y-75974992D01*
X203139999Y-75872203D01*
X203084814Y-75705666D01*
X203074594Y-75689096D01*
X203056154Y-75621703D01*
X203077077Y-75555040D01*
X203130720Y-75510271D01*
X203180133Y-75500000D01*
X206376000Y-75500000D01*
X206443039Y-75519685D01*
X206488794Y-75572489D01*
X206500000Y-75624000D01*
X206500000Y-83876000D01*
X206480315Y-83943039D01*
X206427511Y-83988794D01*
X206376000Y-84000000D01*
X200500000Y-84000000D01*
X200500000Y-91376000D01*
X200480315Y-91443039D01*
X200427511Y-91488794D01*
X200376000Y-91500000D01*
X190724500Y-91500000D01*
X190657461Y-91480315D01*
X190611706Y-91427511D01*
X190600500Y-91376000D01*
X190600500Y-90629060D01*
X190600501Y-90629047D01*
X190600501Y-90460944D01*
X190591284Y-90426547D01*
X190559577Y-90308216D01*
X190516612Y-90233797D01*
X190500000Y-90171798D01*
X190500000Y-83941198D01*
X190519685Y-83874159D01*
X190572489Y-83828404D01*
X190623999Y-83817198D01*
X190657472Y-83817198D01*
X190717083Y-83810790D01*
X190851931Y-83760495D01*
X190967146Y-83674245D01*
X191003434Y-83625769D01*
X191059367Y-83583900D01*
X191129059Y-83578916D01*
X191190382Y-83612401D01*
X191223866Y-83673725D01*
X191226700Y-83700082D01*
X191226700Y-84314570D01*
X191226701Y-84314576D01*
X191233108Y-84374183D01*
X191283402Y-84509028D01*
X191283406Y-84509035D01*
X191369652Y-84624244D01*
X191369655Y-84624247D01*
X191484864Y-84710493D01*
X191484871Y-84710497D01*
X191619717Y-84760791D01*
X191619716Y-84760791D01*
X191626644Y-84761535D01*
X191679327Y-84767200D01*
X192994272Y-84767199D01*
X193053883Y-84760791D01*
X193108684Y-84740350D01*
X193178376Y-84735366D01*
X193199461Y-84741967D01*
X193266503Y-84769737D01*
X193421153Y-84800499D01*
X193421156Y-84800500D01*
X193421158Y-84800500D01*
X193578844Y-84800500D01*
X193578845Y-84800499D01*
X193733497Y-84769737D01*
X193879179Y-84709394D01*
X194010289Y-84621789D01*
X194121789Y-84510289D01*
X194209394Y-84379179D01*
X194269737Y-84233497D01*
X194300500Y-84078842D01*
X194300500Y-84035391D01*
X194320185Y-83968352D01*
X194372989Y-83922597D01*
X194442147Y-83912653D01*
X194465577Y-83918633D01*
X194467516Y-83919091D01*
X194474444Y-83919835D01*
X194527127Y-83925500D01*
X195472872Y-83925499D01*
X195532483Y-83919091D01*
X195667331Y-83868796D01*
X195782546Y-83782546D01*
X195868796Y-83667331D01*
X195919091Y-83532483D01*
X195925500Y-83472873D01*
X195925499Y-82527128D01*
X195919091Y-82467517D01*
X195899343Y-82414571D01*
X195868797Y-82332671D01*
X195868793Y-82332664D01*
X195782547Y-82217455D01*
X195782544Y-82217452D01*
X195667335Y-82131206D01*
X195667328Y-82131202D01*
X195532482Y-82080908D01*
X195532483Y-82080908D01*
X195472883Y-82074501D01*
X195472881Y-82074500D01*
X195472873Y-82074500D01*
X195472865Y-82074500D01*
X194975097Y-82074500D01*
X194908058Y-82054815D01*
X194887416Y-82038181D01*
X194587588Y-81738353D01*
X194587586Y-81738350D01*
X194468715Y-81619479D01*
X194468714Y-81619478D01*
X194381902Y-81569358D01*
X194381902Y-81569357D01*
X194381898Y-81569356D01*
X194331783Y-81540421D01*
X194179055Y-81499497D01*
X194020941Y-81499497D01*
X194013345Y-81499497D01*
X194013329Y-81499498D01*
X193376939Y-81499498D01*
X193309900Y-81479813D01*
X193302628Y-81474765D01*
X193188731Y-81389502D01*
X193188728Y-81389500D01*
X193053882Y-81339206D01*
X193053883Y-81339206D01*
X192994283Y-81332799D01*
X192994281Y-81332798D01*
X192994273Y-81332798D01*
X192994264Y-81332798D01*
X191679329Y-81332798D01*
X191679323Y-81332799D01*
X191619716Y-81339206D01*
X191484871Y-81389500D01*
X191484864Y-81389504D01*
X191369655Y-81475750D01*
X191369652Y-81475753D01*
X191283406Y-81590962D01*
X191279153Y-81598752D01*
X191277191Y-81597681D01*
X191242708Y-81643743D01*
X191177243Y-81668158D01*
X191108970Y-81653305D01*
X191059566Y-81603898D01*
X191055011Y-81593926D01*
X191053393Y-81590962D01*
X190967147Y-81475753D01*
X190967144Y-81475750D01*
X190851935Y-81389504D01*
X190851928Y-81389500D01*
X190717082Y-81339206D01*
X190717084Y-81339206D01*
X190711244Y-81338579D01*
X190646693Y-81311841D01*
X190606845Y-81254448D01*
X190600500Y-81215290D01*
X190600500Y-80089060D01*
X190600501Y-80089047D01*
X190600501Y-79920944D01*
X190600501Y-79920943D01*
X190559577Y-79768216D01*
X190516612Y-79693797D01*
X190500000Y-79631798D01*
X190500000Y-75624000D01*
X190519685Y-75556961D01*
X190572489Y-75511206D01*
X190624000Y-75500000D01*
X197749626Y-75500000D01*
X197816665Y-75519685D01*
G37*
%TD.AperFunction*%
%TD*%
%TA.AperFunction,Conductor*%
%TO.N,/VIN_1*%
G36*
X181751827Y-86519685D02*
G01*
X181787891Y-86555110D01*
X181800536Y-86574035D01*
X181800538Y-86574038D01*
X181925961Y-86699461D01*
X181925965Y-86699464D01*
X182073446Y-86798009D01*
X182073459Y-86798016D01*
X182196363Y-86848923D01*
X182237334Y-86865894D01*
X182237336Y-86865894D01*
X182237341Y-86865896D01*
X182411304Y-86900499D01*
X182411307Y-86900500D01*
X182411309Y-86900500D01*
X182588693Y-86900500D01*
X182588694Y-86900499D01*
X182646682Y-86888964D01*
X182762658Y-86865896D01*
X182762661Y-86865894D01*
X182762666Y-86865894D01*
X182926547Y-86798013D01*
X182931107Y-86794965D01*
X182997783Y-86774086D01*
X183065163Y-86792569D01*
X183068867Y-86794948D01*
X183073453Y-86798013D01*
X183073455Y-86798014D01*
X183073457Y-86798015D01*
X183090164Y-86804935D01*
X183237334Y-86865894D01*
X183237336Y-86865894D01*
X183237341Y-86865896D01*
X183411304Y-86900499D01*
X183411307Y-86900500D01*
X183411309Y-86900500D01*
X183588693Y-86900500D01*
X183588694Y-86900499D01*
X183646682Y-86888964D01*
X183762658Y-86865896D01*
X183762661Y-86865894D01*
X183762666Y-86865894D01*
X183926547Y-86798013D01*
X184074035Y-86699464D01*
X184199464Y-86574035D01*
X184212109Y-86555109D01*
X184265721Y-86510305D01*
X184315212Y-86500000D01*
X189340463Y-86500000D01*
X189351978Y-86503381D01*
X189363926Y-86502240D01*
X189384883Y-86513043D01*
X189407502Y-86519685D01*
X189416912Y-86529554D01*
X189426030Y-86534254D01*
X189447848Y-86561996D01*
X189454797Y-86574031D01*
X189454799Y-86574035D01*
X189519477Y-86686062D01*
X189519481Y-86686067D01*
X189638349Y-86804935D01*
X189638355Y-86804940D01*
X189958181Y-87124766D01*
X189991666Y-87186089D01*
X189994500Y-87212447D01*
X189994500Y-90072666D01*
X189974815Y-90139705D01*
X189922011Y-90185460D01*
X189852853Y-90195404D01*
X189796189Y-90171933D01*
X189750331Y-90137604D01*
X189750328Y-90137602D01*
X189615482Y-90087308D01*
X189615483Y-90087308D01*
X189555883Y-90080901D01*
X189555881Y-90080900D01*
X189555873Y-90080900D01*
X189555864Y-90080900D01*
X188444129Y-90080900D01*
X188444123Y-90080901D01*
X188384516Y-90087308D01*
X188249671Y-90137602D01*
X188249664Y-90137606D01*
X188134455Y-90223852D01*
X188134452Y-90223855D01*
X188048206Y-90339064D01*
X188048201Y-90339073D01*
X187997908Y-90473917D01*
X187997286Y-90476552D01*
X187996200Y-90478498D01*
X187995199Y-90481183D01*
X187994788Y-90481029D01*
X187964293Y-90535705D01*
X186536319Y-91963681D01*
X186474996Y-91997166D01*
X186448638Y-92000000D01*
X177624000Y-92000000D01*
X177556961Y-91980315D01*
X177511206Y-91927511D01*
X177500000Y-91876000D01*
X177500000Y-87019906D01*
X177519685Y-86952867D01*
X177572489Y-86907112D01*
X177599809Y-86898289D01*
X177762658Y-86865896D01*
X177762661Y-86865894D01*
X177762666Y-86865894D01*
X177926547Y-86798013D01*
X178074035Y-86699464D01*
X178199464Y-86574035D01*
X178212109Y-86555109D01*
X178265721Y-86510305D01*
X178315212Y-86500000D01*
X181684788Y-86500000D01*
X181751827Y-86519685D01*
G37*
%TD.AperFunction*%
%TD*%
%TA.AperFunction,Conductor*%
%TO.N,/VIN_2*%
G36*
X181751827Y-75519685D02*
G01*
X181787891Y-75555110D01*
X181800537Y-75574037D01*
X181925961Y-75699461D01*
X181925965Y-75699464D01*
X182073446Y-75798009D01*
X182073459Y-75798016D01*
X182196363Y-75848923D01*
X182237334Y-75865894D01*
X182237336Y-75865894D01*
X182237341Y-75865896D01*
X182411304Y-75900499D01*
X182411307Y-75900500D01*
X182411309Y-75900500D01*
X182588693Y-75900500D01*
X182588694Y-75900499D01*
X182646682Y-75888964D01*
X182762658Y-75865896D01*
X182762661Y-75865894D01*
X182762666Y-75865894D01*
X182926547Y-75798013D01*
X182931107Y-75794965D01*
X182997783Y-75774086D01*
X183065163Y-75792569D01*
X183068867Y-75794948D01*
X183073453Y-75798013D01*
X183073455Y-75798014D01*
X183073457Y-75798015D01*
X183132585Y-75822506D01*
X183237334Y-75865894D01*
X183237336Y-75865894D01*
X183237341Y-75865896D01*
X183411304Y-75900499D01*
X183411307Y-75900500D01*
X183411309Y-75900500D01*
X183588693Y-75900500D01*
X183588694Y-75900499D01*
X183646682Y-75888964D01*
X183762658Y-75865896D01*
X183762661Y-75865894D01*
X183762666Y-75865894D01*
X183926547Y-75798013D01*
X184074035Y-75699464D01*
X184199464Y-75574035D01*
X184212109Y-75555109D01*
X184265721Y-75510305D01*
X184315212Y-75500000D01*
X189870500Y-75500000D01*
X189937539Y-75519685D01*
X189983294Y-75572489D01*
X189994500Y-75624000D01*
X189994500Y-79376000D01*
X189974815Y-79443039D01*
X189922011Y-79488794D01*
X189870500Y-79500000D01*
X187999999Y-79500000D01*
X186536319Y-80963681D01*
X186474996Y-80997166D01*
X186448638Y-81000000D01*
X177624000Y-81000000D01*
X177556961Y-80980315D01*
X177511206Y-80927511D01*
X177500000Y-80876000D01*
X177500000Y-76019906D01*
X177519685Y-75952867D01*
X177572489Y-75907112D01*
X177599809Y-75898289D01*
X177762658Y-75865896D01*
X177762661Y-75865894D01*
X177762666Y-75865894D01*
X177926547Y-75798013D01*
X178074035Y-75699464D01*
X178199464Y-75574035D01*
X178212109Y-75555109D01*
X178265721Y-75510305D01*
X178315212Y-75500000D01*
X181684788Y-75500000D01*
X181751827Y-75519685D01*
G37*
%TD.AperFunction*%
%TD*%
%TA.AperFunction,Conductor*%
%TO.N,GND*%
G36*
X196476819Y-92025185D02*
G01*
X196522574Y-92077989D01*
X196533138Y-92142103D01*
X196524500Y-92226647D01*
X196524500Y-92773337D01*
X196524501Y-92773355D01*
X196534650Y-92872707D01*
X196534651Y-92872710D01*
X196587996Y-93033694D01*
X196588001Y-93033705D01*
X196677029Y-93178040D01*
X196677032Y-93178044D01*
X196705961Y-93206973D01*
X196739446Y-93268296D01*
X196734462Y-93337988D01*
X196692590Y-93393921D01*
X196683378Y-93400192D01*
X196631344Y-93432287D01*
X196507289Y-93556342D01*
X196415187Y-93705663D01*
X196415185Y-93705668D01*
X196413585Y-93710496D01*
X196360001Y-93872203D01*
X196360001Y-93872204D01*
X196360000Y-93872204D01*
X196349500Y-93974983D01*
X196349500Y-94576502D01*
X196329815Y-94643541D01*
X196277011Y-94689296D01*
X196225500Y-94700502D01*
X193570599Y-94700502D01*
X193503560Y-94680817D01*
X193457805Y-94628013D01*
X193449863Y-94604766D01*
X193446899Y-94592104D01*
X193446899Y-94585430D01*
X193440491Y-94525819D01*
X193416025Y-94460224D01*
X193414229Y-94452549D01*
X193415751Y-94425223D01*
X193413799Y-94397927D01*
X193418084Y-94383330D01*
X193418115Y-94382788D01*
X193418332Y-94382488D01*
X193418784Y-94380949D01*
X193439998Y-94324073D01*
X193446399Y-94264545D01*
X193446400Y-94264528D01*
X193446400Y-94200001D01*
X193239240Y-94200001D01*
X193195906Y-94192183D01*
X193188733Y-94189507D01*
X193188731Y-94189506D01*
X193085124Y-94150863D01*
X193053881Y-94139210D01*
X192994283Y-94132803D01*
X192994281Y-94132802D01*
X192994273Y-94132802D01*
X192994265Y-94132802D01*
X192460800Y-94132802D01*
X192452114Y-94130251D01*
X192443153Y-94131540D01*
X192419112Y-94120561D01*
X192393761Y-94113117D01*
X192387833Y-94106276D01*
X192379597Y-94102515D01*
X192365307Y-94080280D01*
X192348006Y-94060313D01*
X192345718Y-94049798D01*
X192341823Y-94043737D01*
X192336800Y-94008802D01*
X192336800Y-93891199D01*
X192356485Y-93824160D01*
X192409289Y-93778405D01*
X192460800Y-93767199D01*
X192994271Y-93767199D01*
X192994272Y-93767199D01*
X193053883Y-93760791D01*
X193188731Y-93710496D01*
X193188733Y-93710494D01*
X193195906Y-93707819D01*
X193239240Y-93700001D01*
X193446400Y-93700001D01*
X193456584Y-93689816D01*
X193466085Y-93657461D01*
X193518889Y-93611706D01*
X193570400Y-93600500D01*
X194021139Y-93600500D01*
X194088178Y-93620185D01*
X194125637Y-93660418D01*
X194125888Y-93660231D01*
X194127635Y-93662565D01*
X194129973Y-93665076D01*
X194131207Y-93667336D01*
X194217452Y-93782544D01*
X194217455Y-93782547D01*
X194332664Y-93868793D01*
X194332671Y-93868797D01*
X194467517Y-93919091D01*
X194467516Y-93919091D01*
X194474444Y-93919835D01*
X194527127Y-93925500D01*
X195472872Y-93925499D01*
X195532483Y-93919091D01*
X195667331Y-93868796D01*
X195782546Y-93782546D01*
X195868796Y-93667331D01*
X195919091Y-93532483D01*
X195925500Y-93472873D01*
X195925499Y-92527128D01*
X195919091Y-92467517D01*
X195918278Y-92465338D01*
X195868797Y-92332671D01*
X195868793Y-92332664D01*
X195782547Y-92217455D01*
X195782273Y-92217181D01*
X195782087Y-92216840D01*
X195777232Y-92210355D01*
X195778164Y-92209656D01*
X195748788Y-92155858D01*
X195753772Y-92086166D01*
X195795644Y-92030233D01*
X195861108Y-92005816D01*
X195869954Y-92005500D01*
X196409780Y-92005500D01*
X196476819Y-92025185D01*
G37*
%TD.AperFunction*%
%TA.AperFunction,Conductor*%
G36*
X193866940Y-82720183D02*
G01*
X193887582Y-82736817D01*
X194038181Y-82887416D01*
X194071666Y-82948739D01*
X194074500Y-82975097D01*
X194074500Y-83189127D01*
X194054815Y-83256166D01*
X194002011Y-83301921D01*
X193932853Y-83311865D01*
X193884607Y-83293378D01*
X193884554Y-83293479D01*
X193883750Y-83293049D01*
X193881609Y-83292229D01*
X193879185Y-83290609D01*
X193879172Y-83290602D01*
X193733501Y-83230264D01*
X193733489Y-83230261D01*
X193578845Y-83199500D01*
X193578842Y-83199500D01*
X193421158Y-83199500D01*
X193421155Y-83199500D01*
X193266511Y-83230260D01*
X193266501Y-83230263D01*
X193199471Y-83258028D01*
X193178317Y-83260302D01*
X193158231Y-83267311D01*
X193139734Y-83264450D01*
X193130001Y-83265497D01*
X193122624Y-83261804D01*
X193108686Y-83259649D01*
X193053882Y-83239208D01*
X193053883Y-83239208D01*
X192994283Y-83232801D01*
X192994281Y-83232800D01*
X192994273Y-83232800D01*
X192994265Y-83232800D01*
X192460800Y-83232800D01*
X192452114Y-83230249D01*
X192443153Y-83231538D01*
X192419112Y-83220559D01*
X192393761Y-83213115D01*
X192387833Y-83206274D01*
X192379597Y-83202513D01*
X192365307Y-83180278D01*
X192348006Y-83160311D01*
X192345718Y-83149796D01*
X192341823Y-83143735D01*
X192336800Y-83108800D01*
X192336800Y-82991197D01*
X192356485Y-82924158D01*
X192409289Y-82878403D01*
X192460798Y-82867197D01*
X192994272Y-82867197D01*
X193053883Y-82860789D01*
X193188731Y-82810494D01*
X193188733Y-82810492D01*
X193195906Y-82807817D01*
X193227302Y-82802152D01*
X193233028Y-82800155D01*
X193235323Y-82800705D01*
X193239240Y-82799999D01*
X193446400Y-82799999D01*
X193454482Y-82791916D01*
X193458640Y-82782810D01*
X193466085Y-82757459D01*
X193472925Y-82751531D01*
X193476687Y-82743295D01*
X193498921Y-82729005D01*
X193518889Y-82711704D01*
X193529403Y-82709416D01*
X193535465Y-82705521D01*
X193570400Y-82700498D01*
X193799901Y-82700498D01*
X193866940Y-82720183D01*
G37*
%TD.AperFunction*%
%TA.AperFunction,Conductor*%
G36*
X209642539Y-67320185D02*
G01*
X209688294Y-67372989D01*
X209699500Y-67424500D01*
X209699500Y-97575500D01*
X209679815Y-97642539D01*
X209627011Y-97688294D01*
X209575500Y-97699500D01*
X174424500Y-97699500D01*
X174357461Y-97679815D01*
X174311706Y-97627011D01*
X174300500Y-97575500D01*
X174300500Y-95916228D01*
X175149500Y-95916228D01*
X175149500Y-96083771D01*
X175182182Y-96248074D01*
X175182184Y-96248082D01*
X175246295Y-96402860D01*
X175339373Y-96542162D01*
X175457837Y-96660626D01*
X175550494Y-96722537D01*
X175597137Y-96753703D01*
X175751918Y-96817816D01*
X175916228Y-96850499D01*
X175916232Y-96850500D01*
X175916233Y-96850500D01*
X176083768Y-96850500D01*
X176083769Y-96850499D01*
X176248082Y-96817816D01*
X176402863Y-96753703D01*
X176542162Y-96660626D01*
X176660626Y-96542162D01*
X176753703Y-96402863D01*
X176817816Y-96248082D01*
X176850500Y-96083767D01*
X176850500Y-95916233D01*
X176817816Y-95751918D01*
X176753703Y-95597137D01*
X176704999Y-95524246D01*
X176660626Y-95457837D01*
X176542162Y-95339373D01*
X176402860Y-95246295D01*
X176248082Y-95182184D01*
X176248074Y-95182182D01*
X176083771Y-95149500D01*
X176083767Y-95149500D01*
X175916233Y-95149500D01*
X175916228Y-95149500D01*
X175751925Y-95182182D01*
X175751917Y-95182184D01*
X175597139Y-95246295D01*
X175457837Y-95339373D01*
X175339373Y-95457837D01*
X175246295Y-95597139D01*
X175182184Y-95751917D01*
X175182182Y-95751925D01*
X175149500Y-95916228D01*
X174300500Y-95916228D01*
X174300500Y-76019906D01*
X176994500Y-76019906D01*
X176994500Y-80876000D01*
X176994501Y-80876009D01*
X177006052Y-80983450D01*
X177006054Y-80983462D01*
X177017260Y-81034972D01*
X177051383Y-81137497D01*
X177051386Y-81137503D01*
X177129171Y-81258537D01*
X177129179Y-81258548D01*
X177174923Y-81311340D01*
X177174926Y-81311343D01*
X177174930Y-81311347D01*
X177283664Y-81405567D01*
X177283667Y-81405568D01*
X177283668Y-81405569D01*
X177360883Y-81440833D01*
X177414541Y-81465338D01*
X177481580Y-81485023D01*
X177481584Y-81485024D01*
X177624000Y-81505500D01*
X177624003Y-81505500D01*
X186448640Y-81505500D01*
X186458786Y-81504955D01*
X186502678Y-81502603D01*
X186502686Y-81502602D01*
X186502688Y-81502602D01*
X186502689Y-81502602D01*
X186509682Y-81501849D01*
X186529036Y-81499769D01*
X186529046Y-81499767D01*
X186529049Y-81499767D01*
X186538648Y-81498211D01*
X186582448Y-81491114D01*
X186717257Y-81440832D01*
X186778580Y-81407347D01*
X186893762Y-81321123D01*
X187779822Y-80435061D01*
X187841142Y-80401578D01*
X187910833Y-80406562D01*
X187966767Y-80448433D01*
X187991184Y-80513898D01*
X187991500Y-80522739D01*
X187991500Y-80546467D01*
X187991501Y-80546476D01*
X187997908Y-80606083D01*
X188048202Y-80740928D01*
X188048206Y-80740935D01*
X188134452Y-80856144D01*
X188134455Y-80856147D01*
X188249664Y-80942393D01*
X188249673Y-80942398D01*
X188318832Y-80968192D01*
X188374766Y-81010062D01*
X188399184Y-81075526D01*
X188399500Y-81084374D01*
X188399500Y-82772929D01*
X188399499Y-82772947D01*
X188399499Y-82938653D01*
X188399498Y-82938653D01*
X188440423Y-83091385D01*
X188447520Y-83103676D01*
X188450478Y-83108800D01*
X188451324Y-83110264D01*
X188451325Y-83110269D01*
X188451326Y-83110269D01*
X188519475Y-83228308D01*
X188519481Y-83228316D01*
X188638349Y-83347184D01*
X188638355Y-83347189D01*
X188705539Y-83414373D01*
X188705549Y-83414384D01*
X188709879Y-83418714D01*
X188709880Y-83418715D01*
X188821684Y-83530519D01*
X188821686Y-83530520D01*
X188821690Y-83530523D01*
X188831673Y-83536287D01*
X188879889Y-83586853D01*
X188893113Y-83655460D01*
X188892964Y-83656926D01*
X188889900Y-83685428D01*
X188889900Y-84314570D01*
X188889901Y-84314576D01*
X188896308Y-84374183D01*
X188946602Y-84509028D01*
X188946606Y-84509035D01*
X189032852Y-84624244D01*
X189032855Y-84624247D01*
X189148064Y-84710493D01*
X189148071Y-84710497D01*
X189282917Y-84760791D01*
X189282915Y-84760791D01*
X189288756Y-84761419D01*
X189353307Y-84788157D01*
X189393155Y-84845550D01*
X189399500Y-84884708D01*
X189399500Y-85870500D01*
X189379815Y-85937539D01*
X189327011Y-85983294D01*
X189275500Y-85994500D01*
X184315212Y-85994500D01*
X184302971Y-85995760D01*
X184212179Y-86005112D01*
X184212167Y-86005114D01*
X184162679Y-86015418D01*
X184063976Y-86046808D01*
X184063967Y-86046812D01*
X183941573Y-86122416D01*
X183941564Y-86122422D01*
X183894065Y-86162117D01*
X183894059Y-86162123D01*
X183887952Y-86167227D01*
X183887935Y-86167241D01*
X183858902Y-86199563D01*
X183857955Y-86200573D01*
X183857819Y-86200652D01*
X183855240Y-86203374D01*
X183760432Y-86298180D01*
X183741643Y-86313600D01*
X183697261Y-86343255D01*
X183675822Y-86354714D01*
X183626492Y-86375147D01*
X183603237Y-86382202D01*
X183603233Y-86382203D01*
X183550880Y-86392617D01*
X183526691Y-86395000D01*
X183473310Y-86395000D01*
X183449118Y-86392617D01*
X183396756Y-86382201D01*
X183373496Y-86375145D01*
X183237587Y-86318850D01*
X183214283Y-86311778D01*
X183198890Y-86305078D01*
X183198887Y-86305077D01*
X183131507Y-86286594D01*
X183113579Y-86284342D01*
X182988749Y-86268666D01*
X182866646Y-86288456D01*
X182846723Y-86291685D01*
X182846721Y-86291685D01*
X182846718Y-86291686D01*
X182782283Y-86311862D01*
X182782237Y-86311878D01*
X182780047Y-86312564D01*
X182779976Y-86312586D01*
X182779255Y-86312931D01*
X182775610Y-86314218D01*
X182773297Y-86314342D01*
X182626492Y-86375147D01*
X182603237Y-86382202D01*
X182581315Y-86386563D01*
X182550879Y-86392617D01*
X182526691Y-86395000D01*
X182473312Y-86395000D01*
X182449119Y-86392617D01*
X182434536Y-86389716D01*
X182396754Y-86382200D01*
X182373497Y-86375145D01*
X182324180Y-86354718D01*
X182302741Y-86343259D01*
X182289059Y-86334117D01*
X182258354Y-86313600D01*
X182239569Y-86298183D01*
X182176366Y-86234980D01*
X182168546Y-86226391D01*
X182142126Y-86194489D01*
X182142113Y-86194475D01*
X182106066Y-86159067D01*
X182060176Y-86122423D01*
X182025124Y-86094433D01*
X181924546Y-86048499D01*
X181871744Y-86002744D01*
X181852060Y-85935704D01*
X181858354Y-85896701D01*
X181889505Y-85802693D01*
X181889506Y-85802689D01*
X181899999Y-85699985D01*
X181900000Y-85699972D01*
X181900000Y-84750000D01*
X180654121Y-84750000D01*
X180673099Y-84704182D01*
X180700000Y-84568944D01*
X180700000Y-84431056D01*
X180673099Y-84295818D01*
X180654121Y-84250000D01*
X181900000Y-84250000D01*
X181900000Y-83300027D01*
X181899999Y-83300014D01*
X181889506Y-83197310D01*
X181889505Y-83197303D01*
X181834358Y-83030881D01*
X181834356Y-83030876D01*
X181742315Y-82881655D01*
X181618344Y-82757684D01*
X181469123Y-82665643D01*
X181469118Y-82665641D01*
X181302696Y-82610494D01*
X181302689Y-82610493D01*
X181199985Y-82600000D01*
X180250000Y-82600000D01*
X180250000Y-83845879D01*
X180204182Y-83826901D01*
X180068944Y-83800000D01*
X179931056Y-83800000D01*
X179795818Y-83826901D01*
X179750000Y-83845879D01*
X179750000Y-82600000D01*
X178800014Y-82600000D01*
X178697310Y-82610493D01*
X178697303Y-82610494D01*
X178530881Y-82665641D01*
X178530876Y-82665643D01*
X178381655Y-82757684D01*
X178257684Y-82881655D01*
X178165643Y-83030876D01*
X178165641Y-83030881D01*
X178110494Y-83197303D01*
X178110493Y-83197310D01*
X178100000Y-83300014D01*
X178100000Y-84250000D01*
X179345879Y-84250000D01*
X179326901Y-84295818D01*
X179300000Y-84431056D01*
X179300000Y-84568944D01*
X179326901Y-84704182D01*
X179345879Y-84750000D01*
X178100000Y-84750000D01*
X178100000Y-85699985D01*
X178110493Y-85802689D01*
X178110494Y-85802696D01*
X178139761Y-85891016D01*
X178142163Y-85960845D01*
X178106431Y-86020886D01*
X178070170Y-86042049D01*
X178070896Y-86043630D01*
X178063967Y-86046812D01*
X177941573Y-86122416D01*
X177941564Y-86122422D01*
X177894065Y-86162117D01*
X177894059Y-86162123D01*
X177887952Y-86167227D01*
X177887935Y-86167241D01*
X177858902Y-86199563D01*
X177857955Y-86200573D01*
X177857819Y-86200652D01*
X177855240Y-86203374D01*
X177760432Y-86298180D01*
X177741643Y-86313600D01*
X177697257Y-86343258D01*
X177675819Y-86354717D01*
X177626499Y-86375146D01*
X177603239Y-86382202D01*
X177501175Y-86402505D01*
X177444477Y-86417246D01*
X177444460Y-86417251D01*
X177444458Y-86417252D01*
X177417138Y-86426075D01*
X177417129Y-86426078D01*
X177417118Y-86426082D01*
X177362494Y-86447293D01*
X177241462Y-86525076D01*
X177241451Y-86525085D01*
X177188659Y-86570829D01*
X177094433Y-86679570D01*
X177094430Y-86679574D01*
X177034664Y-86810440D01*
X177034662Y-86810447D01*
X177014977Y-86877486D01*
X177014976Y-86877490D01*
X176994500Y-87019906D01*
X176994500Y-91876000D01*
X176994501Y-91876009D01*
X177006052Y-91983450D01*
X177006054Y-91983462D01*
X177017260Y-92034972D01*
X177051383Y-92137497D01*
X177051386Y-92137503D01*
X177129171Y-92258537D01*
X177129179Y-92258548D01*
X177174923Y-92311340D01*
X177174926Y-92311343D01*
X177174930Y-92311347D01*
X177283664Y-92405567D01*
X177283667Y-92405568D01*
X177283668Y-92405569D01*
X177380382Y-92449738D01*
X177414541Y-92465338D01*
X177481580Y-92485023D01*
X177481584Y-92485024D01*
X177624000Y-92505500D01*
X177624003Y-92505500D01*
X186448640Y-92505500D01*
X186458786Y-92504955D01*
X186502678Y-92502603D01*
X186502686Y-92502602D01*
X186502688Y-92502602D01*
X186502689Y-92502602D01*
X186509682Y-92501849D01*
X186529036Y-92499769D01*
X186529046Y-92499767D01*
X186529049Y-92499767D01*
X186538648Y-92498211D01*
X186582448Y-92491114D01*
X186717257Y-92440832D01*
X186778580Y-92407347D01*
X186893762Y-92321123D01*
X187898104Y-91316778D01*
X187959425Y-91283295D01*
X188029116Y-91288279D01*
X188085048Y-91330148D01*
X188134454Y-91396146D01*
X188180643Y-91430723D01*
X188249664Y-91482393D01*
X188249673Y-91482398D01*
X188318832Y-91508192D01*
X188374766Y-91550062D01*
X188399184Y-91615526D01*
X188399500Y-91624374D01*
X188399500Y-93672931D01*
X188399499Y-93672949D01*
X188399499Y-93838655D01*
X188399498Y-93838655D01*
X188436039Y-93975028D01*
X188440423Y-93991386D01*
X188456644Y-94019481D01*
X188515002Y-94120561D01*
X188519479Y-94128315D01*
X188519481Y-94128318D01*
X188638349Y-94247186D01*
X188638355Y-94247191D01*
X188705539Y-94314375D01*
X188705549Y-94314386D01*
X188709879Y-94318716D01*
X188709880Y-94318717D01*
X188821684Y-94430521D01*
X188821686Y-94430522D01*
X188821690Y-94430525D01*
X188831673Y-94436289D01*
X188879889Y-94486855D01*
X188893113Y-94555462D01*
X188892964Y-94556928D01*
X188889900Y-94585430D01*
X188889900Y-95214572D01*
X188889901Y-95214578D01*
X188896308Y-95274185D01*
X188946602Y-95409030D01*
X188946606Y-95409037D01*
X189032852Y-95524246D01*
X189032855Y-95524249D01*
X189148064Y-95610495D01*
X189148071Y-95610499D01*
X189282917Y-95660793D01*
X189282916Y-95660793D01*
X189289844Y-95661537D01*
X189342527Y-95667202D01*
X190657472Y-95667201D01*
X190717083Y-95660793D01*
X190851931Y-95610498D01*
X190967146Y-95524248D01*
X190983563Y-95502316D01*
X190991690Y-95495274D01*
X190995140Y-95488955D01*
X191011921Y-95477741D01*
X191023392Y-95467801D01*
X191035615Y-95461124D01*
X191041385Y-95459579D01*
X191091504Y-95430641D01*
X191141480Y-95401788D01*
X191209377Y-95385317D01*
X191275404Y-95408170D01*
X191302741Y-95434864D01*
X191369654Y-95524248D01*
X191404403Y-95550261D01*
X191484864Y-95610495D01*
X191484871Y-95610499D01*
X191529818Y-95627263D01*
X191619717Y-95660793D01*
X191679327Y-95667202D01*
X192203401Y-95667201D01*
X192270440Y-95686885D01*
X192291082Y-95703520D01*
X192369084Y-95781522D01*
X192369086Y-95781523D01*
X192369090Y-95781526D01*
X192506009Y-95860575D01*
X192506012Y-95860577D01*
X192506016Y-95860579D01*
X192658743Y-95901503D01*
X192658745Y-95901503D01*
X192824454Y-95901503D01*
X192824470Y-95901502D01*
X196462329Y-95901502D01*
X196462345Y-95901503D01*
X196469941Y-95901503D01*
X196628052Y-95901503D01*
X196628055Y-95901503D01*
X196780783Y-95860579D01*
X196798121Y-95850568D01*
X196831882Y-95831077D01*
X196831886Y-95831073D01*
X196836057Y-95828666D01*
X196917714Y-95781522D01*
X196947246Y-95751988D01*
X196956706Y-95745504D01*
X196979454Y-95738082D01*
X197000460Y-95726612D01*
X197017558Y-95725650D01*
X197023130Y-95723833D01*
X197027863Y-95725071D01*
X197039428Y-95724421D01*
X197043538Y-95724840D01*
X197049991Y-95725500D01*
X197650008Y-95725499D01*
X197650016Y-95725498D01*
X197650019Y-95725498D01*
X197706302Y-95719748D01*
X197752797Y-95714999D01*
X197919334Y-95659814D01*
X198068656Y-95567712D01*
X198192712Y-95443656D01*
X198194752Y-95440347D01*
X198196745Y-95438555D01*
X198197193Y-95437989D01*
X198197289Y-95438065D01*
X198246694Y-95393623D01*
X198315656Y-95382395D01*
X198379740Y-95410234D01*
X198405829Y-95440339D01*
X198407681Y-95443341D01*
X198407683Y-95443344D01*
X198531654Y-95567315D01*
X198680875Y-95659356D01*
X198680880Y-95659358D01*
X198847302Y-95714505D01*
X198847309Y-95714506D01*
X198950019Y-95724999D01*
X199500000Y-95724999D01*
X199549972Y-95724999D01*
X199549986Y-95724998D01*
X199652697Y-95714505D01*
X199819119Y-95659358D01*
X199819124Y-95659356D01*
X199968345Y-95567315D01*
X200092315Y-95443345D01*
X200184356Y-95294124D01*
X200184358Y-95294119D01*
X200239505Y-95127697D01*
X200239506Y-95127690D01*
X200249999Y-95024986D01*
X200250000Y-95024973D01*
X200250000Y-94750000D01*
X199500000Y-94750000D01*
X199500000Y-95724999D01*
X198950019Y-95724999D01*
X198999999Y-95724998D01*
X199000000Y-95724998D01*
X199000000Y-94250000D01*
X199500000Y-94250000D01*
X200249999Y-94250000D01*
X200249999Y-93975028D01*
X200249998Y-93975013D01*
X200240966Y-93886599D01*
X200240966Y-93886597D01*
X200240093Y-93878048D01*
X204139500Y-93878048D01*
X204139500Y-94121951D01*
X204155989Y-94247191D01*
X204171334Y-94363744D01*
X204222704Y-94555462D01*
X204234456Y-94599320D01*
X204234459Y-94599330D01*
X204327786Y-94824640D01*
X204327791Y-94824651D01*
X204449727Y-95035848D01*
X204449738Y-95035864D01*
X204598199Y-95229343D01*
X204598205Y-95229350D01*
X204770649Y-95401794D01*
X204770656Y-95401800D01*
X204908431Y-95507518D01*
X204964144Y-95550268D01*
X204964151Y-95550272D01*
X205175348Y-95672208D01*
X205175353Y-95672210D01*
X205175356Y-95672212D01*
X205302795Y-95724999D01*
X205367780Y-95751917D01*
X205400679Y-95765544D01*
X205636256Y-95828666D01*
X205878056Y-95860500D01*
X205878063Y-95860500D01*
X206121937Y-95860500D01*
X206121944Y-95860500D01*
X206363744Y-95828666D01*
X206599321Y-95765544D01*
X206824644Y-95672212D01*
X207035856Y-95550268D01*
X207229345Y-95401799D01*
X207401799Y-95229345D01*
X207550268Y-95035856D01*
X207672212Y-94824644D01*
X207765544Y-94599321D01*
X207828666Y-94363744D01*
X207860500Y-94121944D01*
X207860500Y-93878056D01*
X207828666Y-93636256D01*
X207765544Y-93400679D01*
X207739576Y-93337988D01*
X207713486Y-93275000D01*
X207672212Y-93175356D01*
X207672210Y-93175353D01*
X207672208Y-93175348D01*
X207550272Y-92964151D01*
X207550268Y-92964144D01*
X207403871Y-92773355D01*
X207401800Y-92770656D01*
X207401794Y-92770649D01*
X207229350Y-92598205D01*
X207229343Y-92598199D01*
X207035864Y-92449738D01*
X207035862Y-92449736D01*
X207035856Y-92449732D01*
X207035851Y-92449729D01*
X207035848Y-92449727D01*
X206824651Y-92327791D01*
X206824640Y-92327786D01*
X206599330Y-92234459D01*
X206599323Y-92234457D01*
X206599321Y-92234456D01*
X206363744Y-92171334D01*
X206323333Y-92166013D01*
X206121951Y-92139500D01*
X206121944Y-92139500D01*
X205878056Y-92139500D01*
X205878048Y-92139500D01*
X205647896Y-92169801D01*
X205636256Y-92171334D01*
X205515049Y-92203811D01*
X205400679Y-92234456D01*
X205400669Y-92234459D01*
X205175359Y-92327786D01*
X205175348Y-92327791D01*
X204964151Y-92449727D01*
X204964135Y-92449738D01*
X204770656Y-92598199D01*
X204770649Y-92598205D01*
X204598205Y-92770649D01*
X204598199Y-92770656D01*
X204449738Y-92964135D01*
X204449727Y-92964151D01*
X204327791Y-93175348D01*
X204327786Y-93175359D01*
X204234459Y-93400669D01*
X204234456Y-93400679D01*
X204192662Y-93556660D01*
X204171335Y-93636253D01*
X204171333Y-93636264D01*
X204139500Y-93878048D01*
X200240093Y-93878048D01*
X200239506Y-93872303D01*
X200184358Y-93705880D01*
X200184356Y-93705875D01*
X200092315Y-93556654D01*
X199968345Y-93432684D01*
X199819124Y-93340643D01*
X199819119Y-93340641D01*
X199652697Y-93285494D01*
X199652690Y-93285493D01*
X199549986Y-93275000D01*
X199500000Y-93275000D01*
X199500000Y-94250000D01*
X199000000Y-94250000D01*
X199000000Y-93275000D01*
X198999999Y-93274999D01*
X198950029Y-93275000D01*
X198950011Y-93275001D01*
X198847302Y-93285494D01*
X198680880Y-93340641D01*
X198680875Y-93340643D01*
X198531654Y-93432684D01*
X198407683Y-93556655D01*
X198407679Y-93556660D01*
X198405826Y-93559665D01*
X198404018Y-93561290D01*
X198403202Y-93562323D01*
X198403025Y-93562183D01*
X198353874Y-93606385D01*
X198284911Y-93617601D01*
X198220831Y-93589752D01*
X198208828Y-93578286D01*
X198200911Y-93569638D01*
X198192712Y-93556344D01*
X198145793Y-93509425D01*
X198143954Y-93507416D01*
X198129733Y-93478397D01*
X198114253Y-93450047D01*
X198114455Y-93447220D01*
X198113208Y-93444675D01*
X198116931Y-93412591D01*
X198119237Y-93380355D01*
X198120936Y-93378084D01*
X198121263Y-93375271D01*
X198141747Y-93350285D01*
X198161109Y-93324422D01*
X198165278Y-93321584D01*
X198165561Y-93321239D01*
X198165987Y-93321100D01*
X198170313Y-93318156D01*
X198203044Y-93297968D01*
X198322968Y-93178044D01*
X198412003Y-93033697D01*
X198465349Y-92872708D01*
X198475500Y-92773345D01*
X198475499Y-92226656D01*
X198474531Y-92217181D01*
X198466862Y-92142101D01*
X198479632Y-92073408D01*
X198527513Y-92022524D01*
X198590220Y-92005500D01*
X200375990Y-92005500D01*
X200376000Y-92005500D01*
X200483456Y-91993947D01*
X200534967Y-91982741D01*
X200569197Y-91971347D01*
X200637497Y-91948616D01*
X200637501Y-91948613D01*
X200637504Y-91948613D01*
X200758543Y-91870825D01*
X200811347Y-91825070D01*
X200905567Y-91716336D01*
X200965338Y-91585459D01*
X200985023Y-91518420D01*
X200985024Y-91518416D01*
X201005500Y-91376000D01*
X201005500Y-84629500D01*
X201025185Y-84562461D01*
X201077989Y-84516706D01*
X201129500Y-84505500D01*
X202470773Y-84505500D01*
X202537812Y-84525185D01*
X202583567Y-84577989D01*
X202593511Y-84647147D01*
X202564486Y-84710703D01*
X202535869Y-84735039D01*
X202499157Y-84757682D01*
X202375184Y-84881655D01*
X202283143Y-85030876D01*
X202283141Y-85030881D01*
X202227994Y-85197303D01*
X202227993Y-85197310D01*
X202217500Y-85300014D01*
X202217500Y-86250000D01*
X203463379Y-86250000D01*
X203444401Y-86295818D01*
X203417500Y-86431056D01*
X203417500Y-86568944D01*
X203444401Y-86704182D01*
X203463379Y-86750000D01*
X202217500Y-86750000D01*
X202217500Y-87699985D01*
X202227993Y-87802689D01*
X202227994Y-87802696D01*
X202283141Y-87969118D01*
X202283143Y-87969123D01*
X202375184Y-88118344D01*
X202499155Y-88242315D01*
X202648376Y-88334356D01*
X202648381Y-88334358D01*
X202814803Y-88389505D01*
X202814810Y-88389506D01*
X202917514Y-88399999D01*
X202917527Y-88400000D01*
X203867500Y-88400000D01*
X203867500Y-87154120D01*
X203913318Y-87173099D01*
X204048556Y-87200000D01*
X204186444Y-87200000D01*
X204321682Y-87173099D01*
X204367500Y-87154120D01*
X204367500Y-88400000D01*
X205317473Y-88400000D01*
X205317485Y-88399999D01*
X205420189Y-88389506D01*
X205420196Y-88389505D01*
X205586618Y-88334358D01*
X205586623Y-88334356D01*
X205735844Y-88242315D01*
X205859815Y-88118344D01*
X205951856Y-87969123D01*
X205951858Y-87969118D01*
X206007005Y-87802696D01*
X206007006Y-87802689D01*
X206017499Y-87699985D01*
X206017500Y-87699972D01*
X206017500Y-86750000D01*
X204771621Y-86750000D01*
X204790599Y-86704182D01*
X204817500Y-86568944D01*
X204817500Y-86431056D01*
X204790599Y-86295818D01*
X204771621Y-86250000D01*
X206017500Y-86250000D01*
X206017500Y-85300027D01*
X206017499Y-85300014D01*
X206007006Y-85197310D01*
X206007005Y-85197303D01*
X205951858Y-85030881D01*
X205951856Y-85030876D01*
X205859815Y-84881655D01*
X205735842Y-84757682D01*
X205699131Y-84735039D01*
X205652406Y-84683091D01*
X205641183Y-84614129D01*
X205669026Y-84550047D01*
X205727095Y-84511190D01*
X205764227Y-84505500D01*
X206375990Y-84505500D01*
X206376000Y-84505500D01*
X206483456Y-84493947D01*
X206534967Y-84482741D01*
X206569197Y-84471347D01*
X206637497Y-84448616D01*
X206637501Y-84448613D01*
X206637504Y-84448613D01*
X206758543Y-84370825D01*
X206811347Y-84325070D01*
X206905567Y-84216336D01*
X206965338Y-84085459D01*
X206985023Y-84018420D01*
X206985024Y-84018416D01*
X207005500Y-83876000D01*
X207005500Y-75624000D01*
X206993947Y-75516544D01*
X206982741Y-75465033D01*
X206978407Y-75452011D01*
X206948616Y-75362502D01*
X206948613Y-75362496D01*
X206912830Y-75306818D01*
X206870825Y-75241457D01*
X206865212Y-75234979D01*
X206825076Y-75188659D01*
X206825072Y-75188656D01*
X206825070Y-75188653D01*
X206716336Y-75094433D01*
X206716333Y-75094431D01*
X206716331Y-75094430D01*
X206585465Y-75034664D01*
X206585460Y-75034662D01*
X206585459Y-75034662D01*
X206530578Y-75018547D01*
X206518417Y-75014976D01*
X206470944Y-75008150D01*
X206376000Y-74994500D01*
X203180133Y-74994500D01*
X203180117Y-74994500D01*
X203077260Y-75005078D01*
X203077244Y-75005081D01*
X203027858Y-75015346D01*
X203027832Y-75015353D01*
X202929289Y-75046637D01*
X202929281Y-75046641D01*
X202806826Y-75122169D01*
X202753177Y-75166943D01*
X202753176Y-75166943D01*
X202679221Y-75249164D01*
X202619753Y-75285843D01*
X202559785Y-75284731D01*
X202559319Y-75286911D01*
X202552701Y-75285494D01*
X202449986Y-75275000D01*
X202400000Y-75275000D01*
X202400000Y-76376000D01*
X202380315Y-76443039D01*
X202327511Y-76488794D01*
X202276000Y-76500000D01*
X202024000Y-76500000D01*
X201956961Y-76480315D01*
X201911206Y-76427511D01*
X201900000Y-76376000D01*
X201900000Y-75275000D01*
X201899999Y-75274999D01*
X201850029Y-75275000D01*
X201850011Y-75275001D01*
X201747302Y-75285494D01*
X201580880Y-75340641D01*
X201580875Y-75340643D01*
X201431654Y-75432684D01*
X201307683Y-75556655D01*
X201307679Y-75556660D01*
X201305826Y-75559665D01*
X201304018Y-75561290D01*
X201303202Y-75562323D01*
X201303025Y-75562183D01*
X201253874Y-75606385D01*
X201184911Y-75617601D01*
X201120831Y-75589752D01*
X201094753Y-75559653D01*
X201094737Y-75559628D01*
X201092712Y-75556344D01*
X200968656Y-75432288D01*
X200855508Y-75362498D01*
X200819336Y-75340187D01*
X200819331Y-75340185D01*
X200754946Y-75318850D01*
X200652797Y-75285001D01*
X200652795Y-75285000D01*
X200550010Y-75274500D01*
X199949998Y-75274500D01*
X199949980Y-75274501D01*
X199847203Y-75285000D01*
X199847200Y-75285001D01*
X199680668Y-75340185D01*
X199680663Y-75340187D01*
X199531342Y-75432289D01*
X199407287Y-75556344D01*
X199369059Y-75618322D01*
X199317111Y-75665046D01*
X199248148Y-75676267D01*
X199198425Y-75658762D01*
X199123168Y-75612343D01*
X199083701Y-75587999D01*
X199083698Y-75587997D01*
X199083697Y-75587997D01*
X199031887Y-75570829D01*
X198922709Y-75534651D01*
X198823352Y-75524500D01*
X198823345Y-75524500D01*
X198462633Y-75524500D01*
X198395594Y-75504815D01*
X198349839Y-75452011D01*
X198343656Y-75435435D01*
X198331083Y-75392617D01*
X198322239Y-75362496D01*
X198244451Y-75241457D01*
X198238838Y-75234979D01*
X198198702Y-75188659D01*
X198198698Y-75188656D01*
X198198696Y-75188653D01*
X198089962Y-75094433D01*
X198089959Y-75094431D01*
X198089957Y-75094430D01*
X197959091Y-75034664D01*
X197959086Y-75034662D01*
X197959085Y-75034662D01*
X197904204Y-75018547D01*
X197892043Y-75014976D01*
X197844570Y-75008150D01*
X197749626Y-74994500D01*
X190624000Y-74994500D01*
X190623991Y-74994500D01*
X190623990Y-74994501D01*
X190516549Y-75006052D01*
X190516537Y-75006054D01*
X190465027Y-75017260D01*
X190362499Y-75051385D01*
X190317297Y-75080434D01*
X190250257Y-75100117D01*
X190198747Y-75088911D01*
X190079965Y-75034664D01*
X190079960Y-75034662D01*
X190079959Y-75034662D01*
X190025078Y-75018547D01*
X190012917Y-75014976D01*
X189965444Y-75008150D01*
X189870500Y-74994500D01*
X184315212Y-74994500D01*
X184302971Y-74995760D01*
X184212179Y-75005112D01*
X184212167Y-75005114D01*
X184162679Y-75015418D01*
X184063976Y-75046808D01*
X184063967Y-75046812D01*
X183941573Y-75122416D01*
X183941564Y-75122422D01*
X183894065Y-75162117D01*
X183894059Y-75162123D01*
X183887952Y-75167227D01*
X183887935Y-75167241D01*
X183858902Y-75199563D01*
X183857955Y-75200573D01*
X183857819Y-75200652D01*
X183855240Y-75203374D01*
X183760432Y-75298180D01*
X183741643Y-75313600D01*
X183697261Y-75343255D01*
X183675822Y-75354714D01*
X183626492Y-75375147D01*
X183603237Y-75382202D01*
X183603233Y-75382203D01*
X183550880Y-75392617D01*
X183526691Y-75395000D01*
X183473310Y-75395000D01*
X183449118Y-75392617D01*
X183396756Y-75382201D01*
X183373496Y-75375145D01*
X183237587Y-75318850D01*
X183214283Y-75311778D01*
X183198890Y-75305078D01*
X183198887Y-75305077D01*
X183131507Y-75286594D01*
X183113579Y-75284342D01*
X182988749Y-75268666D01*
X182866646Y-75288456D01*
X182846723Y-75291685D01*
X182846721Y-75291685D01*
X182846718Y-75291686D01*
X182782283Y-75311862D01*
X182782237Y-75311878D01*
X182780047Y-75312564D01*
X182779976Y-75312586D01*
X182779255Y-75312931D01*
X182775610Y-75314218D01*
X182773297Y-75314342D01*
X182626492Y-75375147D01*
X182603237Y-75382202D01*
X182581315Y-75386563D01*
X182550879Y-75392617D01*
X182526691Y-75395000D01*
X182473312Y-75395000D01*
X182449119Y-75392617D01*
X182434536Y-75389716D01*
X182396754Y-75382200D01*
X182373497Y-75375145D01*
X182324180Y-75354718D01*
X182302741Y-75343259D01*
X182298823Y-75340641D01*
X182258354Y-75313600D01*
X182239569Y-75298183D01*
X182176365Y-75234979D01*
X182168543Y-75226388D01*
X182142123Y-75194485D01*
X182106066Y-75159067D01*
X182106060Y-75159062D01*
X182025124Y-75094433D01*
X181905749Y-75039915D01*
X181894245Y-75034661D01*
X181835931Y-75017537D01*
X181777154Y-74979761D01*
X181748131Y-74916205D01*
X181753163Y-74859556D01*
X181772005Y-74802693D01*
X181772006Y-74802689D01*
X181782499Y-74699985D01*
X181782500Y-74699972D01*
X181782500Y-73750000D01*
X180536621Y-73750000D01*
X180555599Y-73704182D01*
X180582500Y-73568944D01*
X180582500Y-73431056D01*
X180555599Y-73295818D01*
X180536621Y-73250000D01*
X181782500Y-73250000D01*
X181782500Y-72300027D01*
X181782499Y-72300014D01*
X181772006Y-72197310D01*
X181772005Y-72197303D01*
X181716858Y-72030881D01*
X181716856Y-72030876D01*
X181624815Y-71881655D01*
X181500844Y-71757684D01*
X181351623Y-71665643D01*
X181351618Y-71665641D01*
X181185196Y-71610494D01*
X181185189Y-71610493D01*
X181082485Y-71600000D01*
X180132500Y-71600000D01*
X180132500Y-72845879D01*
X180086682Y-72826901D01*
X179951444Y-72800000D01*
X179813556Y-72800000D01*
X179678318Y-72826901D01*
X179632500Y-72845879D01*
X179632500Y-71600000D01*
X178682514Y-71600000D01*
X178579810Y-71610493D01*
X178579803Y-71610494D01*
X178413381Y-71665641D01*
X178413376Y-71665643D01*
X178264155Y-71757684D01*
X178140184Y-71881655D01*
X178048143Y-72030876D01*
X178048141Y-72030881D01*
X177992994Y-72197303D01*
X177992993Y-72197310D01*
X177982500Y-72300014D01*
X177982500Y-73250000D01*
X179228379Y-73250000D01*
X179209401Y-73295818D01*
X179182500Y-73431056D01*
X179182500Y-73568944D01*
X179209401Y-73704182D01*
X179228379Y-73750000D01*
X177982500Y-73750000D01*
X177982500Y-74699985D01*
X177992993Y-74802689D01*
X177992995Y-74802699D01*
X178041381Y-74948719D01*
X178042235Y-74973568D01*
X178047255Y-74997919D01*
X178043415Y-75007878D01*
X178043783Y-75018547D01*
X178031066Y-75039915D01*
X178022124Y-75063113D01*
X178011591Y-75072639D01*
X178008051Y-75078589D01*
X177996896Y-75087795D01*
X177992957Y-75090676D01*
X177941564Y-75122423D01*
X177887952Y-75167227D01*
X177887935Y-75167241D01*
X177887207Y-75168050D01*
X177887206Y-75168052D01*
X177859810Y-75198553D01*
X177855240Y-75203374D01*
X177760432Y-75298180D01*
X177741643Y-75313600D01*
X177697257Y-75343258D01*
X177675819Y-75354717D01*
X177626499Y-75375146D01*
X177603239Y-75382202D01*
X177501175Y-75402505D01*
X177444477Y-75417246D01*
X177444460Y-75417251D01*
X177444458Y-75417252D01*
X177417138Y-75426075D01*
X177417129Y-75426078D01*
X177417118Y-75426082D01*
X177362494Y-75447293D01*
X177241462Y-75525076D01*
X177241451Y-75525085D01*
X177188659Y-75570829D01*
X177094433Y-75679570D01*
X177094430Y-75679574D01*
X177034664Y-75810440D01*
X177034662Y-75810447D01*
X177014977Y-75877486D01*
X177014976Y-75877490D01*
X176994500Y-76019906D01*
X174300500Y-76019906D01*
X174300500Y-70878048D01*
X204139500Y-70878048D01*
X204139500Y-71121951D01*
X204166013Y-71323333D01*
X204171334Y-71363744D01*
X204171335Y-71363746D01*
X204234456Y-71599320D01*
X204234459Y-71599330D01*
X204327786Y-71824640D01*
X204327791Y-71824651D01*
X204449727Y-72035848D01*
X204449738Y-72035864D01*
X204598199Y-72229343D01*
X204598205Y-72229350D01*
X204770649Y-72401794D01*
X204770655Y-72401799D01*
X204964144Y-72550268D01*
X204964151Y-72550272D01*
X205175348Y-72672208D01*
X205175353Y-72672210D01*
X205175356Y-72672212D01*
X205400679Y-72765544D01*
X205636256Y-72828666D01*
X205878056Y-72860500D01*
X205878063Y-72860500D01*
X206121937Y-72860500D01*
X206121944Y-72860500D01*
X206363744Y-72828666D01*
X206599321Y-72765544D01*
X206824644Y-72672212D01*
X207035856Y-72550268D01*
X207229345Y-72401799D01*
X207401799Y-72229345D01*
X207550268Y-72035856D01*
X207672212Y-71824644D01*
X207765544Y-71599321D01*
X207828666Y-71363744D01*
X207860500Y-71121944D01*
X207860500Y-70878056D01*
X207828666Y-70636256D01*
X207765544Y-70400679D01*
X207672212Y-70175356D01*
X207672210Y-70175353D01*
X207672208Y-70175348D01*
X207550272Y-69964151D01*
X207550268Y-69964144D01*
X207401799Y-69770655D01*
X207401794Y-69770649D01*
X207229350Y-69598205D01*
X207229343Y-69598199D01*
X207035864Y-69449738D01*
X207035862Y-69449736D01*
X207035856Y-69449732D01*
X207035851Y-69449729D01*
X207035848Y-69449727D01*
X206824651Y-69327791D01*
X206824640Y-69327786D01*
X206599330Y-69234459D01*
X206599323Y-69234457D01*
X206599321Y-69234456D01*
X206363744Y-69171334D01*
X206323333Y-69166013D01*
X206121951Y-69139500D01*
X206121944Y-69139500D01*
X205878056Y-69139500D01*
X205878048Y-69139500D01*
X205647896Y-69169801D01*
X205636256Y-69171334D01*
X205400679Y-69234456D01*
X205400669Y-69234459D01*
X205175359Y-69327786D01*
X205175348Y-69327791D01*
X204964151Y-69449727D01*
X204964135Y-69449738D01*
X204770656Y-69598199D01*
X204770649Y-69598205D01*
X204598205Y-69770649D01*
X204598199Y-69770656D01*
X204449738Y-69964135D01*
X204449727Y-69964151D01*
X204327791Y-70175348D01*
X204327786Y-70175359D01*
X204234459Y-70400669D01*
X204234456Y-70400679D01*
X204171335Y-70636253D01*
X204171333Y-70636264D01*
X204139500Y-70878048D01*
X174300500Y-70878048D01*
X174300500Y-68916228D01*
X175149500Y-68916228D01*
X175149500Y-69083771D01*
X175182182Y-69248074D01*
X175182184Y-69248082D01*
X175246295Y-69402860D01*
X175339373Y-69542162D01*
X175457837Y-69660626D01*
X175550494Y-69722537D01*
X175597137Y-69753703D01*
X175751918Y-69817816D01*
X175916228Y-69850499D01*
X175916232Y-69850500D01*
X175916233Y-69850500D01*
X176083768Y-69850500D01*
X176083769Y-69850499D01*
X176248082Y-69817816D01*
X176402863Y-69753703D01*
X176542162Y-69660626D01*
X176660626Y-69542162D01*
X176753703Y-69402863D01*
X176817816Y-69248082D01*
X176850500Y-69083767D01*
X176850500Y-68916233D01*
X176850499Y-68916228D01*
X200149500Y-68916228D01*
X200149500Y-69083771D01*
X200182182Y-69248074D01*
X200182184Y-69248082D01*
X200246295Y-69402860D01*
X200339373Y-69542162D01*
X200457837Y-69660626D01*
X200550494Y-69722537D01*
X200597137Y-69753703D01*
X200751918Y-69817816D01*
X200916228Y-69850499D01*
X200916232Y-69850500D01*
X200916233Y-69850500D01*
X201083768Y-69850500D01*
X201083769Y-69850499D01*
X201248082Y-69817816D01*
X201402863Y-69753703D01*
X201542162Y-69660626D01*
X201660626Y-69542162D01*
X201753703Y-69402863D01*
X201817816Y-69248082D01*
X201850500Y-69083767D01*
X201850500Y-68916233D01*
X201817816Y-68751918D01*
X201753703Y-68597137D01*
X201722537Y-68550494D01*
X201660626Y-68457837D01*
X201542162Y-68339373D01*
X201402860Y-68246295D01*
X201248082Y-68182184D01*
X201248074Y-68182182D01*
X201083771Y-68149500D01*
X201083767Y-68149500D01*
X200916233Y-68149500D01*
X200916228Y-68149500D01*
X200751925Y-68182182D01*
X200751917Y-68182184D01*
X200597139Y-68246295D01*
X200457837Y-68339373D01*
X200339373Y-68457837D01*
X200246295Y-68597139D01*
X200182184Y-68751917D01*
X200182182Y-68751925D01*
X200149500Y-68916228D01*
X176850499Y-68916228D01*
X176817816Y-68751918D01*
X176753703Y-68597137D01*
X176722537Y-68550494D01*
X176660626Y-68457837D01*
X176542162Y-68339373D01*
X176402860Y-68246295D01*
X176248082Y-68182184D01*
X176248074Y-68182182D01*
X176083771Y-68149500D01*
X176083767Y-68149500D01*
X175916233Y-68149500D01*
X175916228Y-68149500D01*
X175751925Y-68182182D01*
X175751917Y-68182184D01*
X175597139Y-68246295D01*
X175457837Y-68339373D01*
X175339373Y-68457837D01*
X175246295Y-68597139D01*
X175182184Y-68751917D01*
X175182182Y-68751925D01*
X175149500Y-68916228D01*
X174300500Y-68916228D01*
X174300500Y-67424500D01*
X174320185Y-67357461D01*
X174372989Y-67311706D01*
X174424500Y-67300500D01*
X209575500Y-67300500D01*
X209642539Y-67320185D01*
G37*
%TD.AperFunction*%
%TD*%
M02*
