%TF.GenerationSoftware,KiCad,Pcbnew,9.0.6*%
%TF.CreationDate,2026-02-11T21:56:19+01:00*%
%TF.ProjectId,High Side OR ing,48696768-2053-4696-9465-204f5220696e,A*%
%TF.SameCoordinates,Original*%
%TF.FileFunction,Legend,Top*%
%TF.FilePolarity,Positive*%
%FSLAX46Y46*%
G04 Gerber Fmt 4.6, Leading zero omitted, Abs format (unit mm)*
G04 Created by KiCad (PCBNEW 9.0.6) date 2026-02-11 21:56:19*
%MOMM*%
%LPD*%
G01*
G04 APERTURE LIST*
%ADD10C,0.100000*%
%ADD11C,0.150000*%
%ADD12C,0.120000*%
%ADD13C,0.152400*%
%ADD14C,0.000000*%
G04 APERTURE END LIST*
D10*
X188079961Y-71827693D02*
X188127580Y-71732455D01*
X188127580Y-71732455D02*
X188127580Y-71589598D01*
X188127580Y-71589598D02*
X188079961Y-71446741D01*
X188079961Y-71446741D02*
X187984723Y-71351503D01*
X187984723Y-71351503D02*
X187889485Y-71303884D01*
X187889485Y-71303884D02*
X187699009Y-71256265D01*
X187699009Y-71256265D02*
X187556152Y-71256265D01*
X187556152Y-71256265D02*
X187365676Y-71303884D01*
X187365676Y-71303884D02*
X187270438Y-71351503D01*
X187270438Y-71351503D02*
X187175200Y-71446741D01*
X187175200Y-71446741D02*
X187127580Y-71589598D01*
X187127580Y-71589598D02*
X187127580Y-71684836D01*
X187127580Y-71684836D02*
X187175200Y-71827693D01*
X187175200Y-71827693D02*
X187222819Y-71875312D01*
X187222819Y-71875312D02*
X187556152Y-71875312D01*
X187556152Y-71875312D02*
X187556152Y-71684836D01*
X187127580Y-72303884D02*
X188127580Y-72303884D01*
X188127580Y-72303884D02*
X187127580Y-72875312D01*
X187127580Y-72875312D02*
X188127580Y-72875312D01*
X187127580Y-73351503D02*
X188127580Y-73351503D01*
X188127580Y-73351503D02*
X188127580Y-73589598D01*
X188127580Y-73589598D02*
X188079961Y-73732455D01*
X188079961Y-73732455D02*
X187984723Y-73827693D01*
X187984723Y-73827693D02*
X187889485Y-73875312D01*
X187889485Y-73875312D02*
X187699009Y-73922931D01*
X187699009Y-73922931D02*
X187556152Y-73922931D01*
X187556152Y-73922931D02*
X187365676Y-73875312D01*
X187365676Y-73875312D02*
X187270438Y-73827693D01*
X187270438Y-73827693D02*
X187175200Y-73732455D01*
X187175200Y-73732455D02*
X187127580Y-73589598D01*
X187127580Y-73589598D02*
X187127580Y-73351503D01*
X207372419Y-77838972D02*
X208372419Y-77505639D01*
X208372419Y-77505639D02*
X207372419Y-77172306D01*
X207372419Y-76648496D02*
X207372419Y-76458020D01*
X207372419Y-76458020D02*
X207420038Y-76362782D01*
X207420038Y-76362782D02*
X207515276Y-76267544D01*
X207515276Y-76267544D02*
X207705752Y-76219925D01*
X207705752Y-76219925D02*
X208039085Y-76219925D01*
X208039085Y-76219925D02*
X208229561Y-76267544D01*
X208229561Y-76267544D02*
X208324800Y-76362782D01*
X208324800Y-76362782D02*
X208372419Y-76458020D01*
X208372419Y-76458020D02*
X208372419Y-76648496D01*
X208372419Y-76648496D02*
X208324800Y-76743734D01*
X208324800Y-76743734D02*
X208229561Y-76838972D01*
X208229561Y-76838972D02*
X208039085Y-76886591D01*
X208039085Y-76886591D02*
X207705752Y-76886591D01*
X207705752Y-76886591D02*
X207515276Y-76838972D01*
X207515276Y-76838972D02*
X207420038Y-76743734D01*
X207420038Y-76743734D02*
X207372419Y-76648496D01*
X207372419Y-75791353D02*
X208181942Y-75791353D01*
X208181942Y-75791353D02*
X208277180Y-75743734D01*
X208277180Y-75743734D02*
X208324800Y-75696115D01*
X208324800Y-75696115D02*
X208372419Y-75600877D01*
X208372419Y-75600877D02*
X208372419Y-75410401D01*
X208372419Y-75410401D02*
X208324800Y-75315163D01*
X208324800Y-75315163D02*
X208277180Y-75267544D01*
X208277180Y-75267544D02*
X208181942Y-75219925D01*
X208181942Y-75219925D02*
X207372419Y-75219925D01*
X207372419Y-74886591D02*
X207372419Y-74315163D01*
X208372419Y-74600877D02*
X207372419Y-74600877D01*
X188127580Y-77161027D02*
X187127580Y-77494360D01*
X187127580Y-77494360D02*
X188127580Y-77827693D01*
X187127580Y-78161027D02*
X188127580Y-78161027D01*
X187127580Y-78637217D02*
X188127580Y-78637217D01*
X188127580Y-78637217D02*
X187127580Y-79208645D01*
X187127580Y-79208645D02*
X188127580Y-79208645D01*
X187032342Y-79446741D02*
X187032342Y-80208645D01*
X188032342Y-80399122D02*
X188079961Y-80446741D01*
X188079961Y-80446741D02*
X188127580Y-80541979D01*
X188127580Y-80541979D02*
X188127580Y-80780074D01*
X188127580Y-80780074D02*
X188079961Y-80875312D01*
X188079961Y-80875312D02*
X188032342Y-80922931D01*
X188032342Y-80922931D02*
X187937104Y-80970550D01*
X187937104Y-80970550D02*
X187841866Y-80970550D01*
X187841866Y-80970550D02*
X187699009Y-80922931D01*
X187699009Y-80922931D02*
X187127580Y-80351503D01*
X187127580Y-80351503D02*
X187127580Y-80970550D01*
X188127580Y-88161027D02*
X187127580Y-88494360D01*
X187127580Y-88494360D02*
X188127580Y-88827693D01*
X187127580Y-89161027D02*
X188127580Y-89161027D01*
X187127580Y-89637217D02*
X188127580Y-89637217D01*
X188127580Y-89637217D02*
X187127580Y-90208645D01*
X187127580Y-90208645D02*
X188127580Y-90208645D01*
X187032342Y-90446741D02*
X187032342Y-91208645D01*
X187127580Y-91970550D02*
X187127580Y-91399122D01*
X187127580Y-91684836D02*
X188127580Y-91684836D01*
X188127580Y-91684836D02*
X187984723Y-91589598D01*
X187984723Y-91589598D02*
X187889485Y-91494360D01*
X187889485Y-91494360D02*
X187841866Y-91399122D01*
X208920038Y-90172306D02*
X208872419Y-90267544D01*
X208872419Y-90267544D02*
X208872419Y-90410401D01*
X208872419Y-90410401D02*
X208920038Y-90553258D01*
X208920038Y-90553258D02*
X209015276Y-90648496D01*
X209015276Y-90648496D02*
X209110514Y-90696115D01*
X209110514Y-90696115D02*
X209300990Y-90743734D01*
X209300990Y-90743734D02*
X209443847Y-90743734D01*
X209443847Y-90743734D02*
X209634323Y-90696115D01*
X209634323Y-90696115D02*
X209729561Y-90648496D01*
X209729561Y-90648496D02*
X209824800Y-90553258D01*
X209824800Y-90553258D02*
X209872419Y-90410401D01*
X209872419Y-90410401D02*
X209872419Y-90315163D01*
X209872419Y-90315163D02*
X209824800Y-90172306D01*
X209824800Y-90172306D02*
X209777180Y-90124687D01*
X209777180Y-90124687D02*
X209443847Y-90124687D01*
X209443847Y-90124687D02*
X209443847Y-90315163D01*
X209872419Y-89696115D02*
X208872419Y-89696115D01*
X208872419Y-89696115D02*
X209872419Y-89124687D01*
X209872419Y-89124687D02*
X208872419Y-89124687D01*
X209872419Y-88648496D02*
X208872419Y-88648496D01*
X208872419Y-88648496D02*
X208872419Y-88410401D01*
X208872419Y-88410401D02*
X208920038Y-88267544D01*
X208920038Y-88267544D02*
X209015276Y-88172306D01*
X209015276Y-88172306D02*
X209110514Y-88124687D01*
X209110514Y-88124687D02*
X209300990Y-88077068D01*
X209300990Y-88077068D02*
X209443847Y-88077068D01*
X209443847Y-88077068D02*
X209634323Y-88124687D01*
X209634323Y-88124687D02*
X209729561Y-88172306D01*
X209729561Y-88172306D02*
X209824800Y-88267544D01*
X209824800Y-88267544D02*
X209872419Y-88410401D01*
X209872419Y-88410401D02*
X209872419Y-88648496D01*
X188579961Y-83327693D02*
X188627580Y-83232455D01*
X188627580Y-83232455D02*
X188627580Y-83089598D01*
X188627580Y-83089598D02*
X188579961Y-82946741D01*
X188579961Y-82946741D02*
X188484723Y-82851503D01*
X188484723Y-82851503D02*
X188389485Y-82803884D01*
X188389485Y-82803884D02*
X188199009Y-82756265D01*
X188199009Y-82756265D02*
X188056152Y-82756265D01*
X188056152Y-82756265D02*
X187865676Y-82803884D01*
X187865676Y-82803884D02*
X187770438Y-82851503D01*
X187770438Y-82851503D02*
X187675200Y-82946741D01*
X187675200Y-82946741D02*
X187627580Y-83089598D01*
X187627580Y-83089598D02*
X187627580Y-83184836D01*
X187627580Y-83184836D02*
X187675200Y-83327693D01*
X187675200Y-83327693D02*
X187722819Y-83375312D01*
X187722819Y-83375312D02*
X188056152Y-83375312D01*
X188056152Y-83375312D02*
X188056152Y-83184836D01*
X187627580Y-83803884D02*
X188627580Y-83803884D01*
X188627580Y-83803884D02*
X187627580Y-84375312D01*
X187627580Y-84375312D02*
X188627580Y-84375312D01*
X187627580Y-84851503D02*
X188627580Y-84851503D01*
X188627580Y-84851503D02*
X188627580Y-85089598D01*
X188627580Y-85089598D02*
X188579961Y-85232455D01*
X188579961Y-85232455D02*
X188484723Y-85327693D01*
X188484723Y-85327693D02*
X188389485Y-85375312D01*
X188389485Y-85375312D02*
X188199009Y-85422931D01*
X188199009Y-85422931D02*
X188056152Y-85422931D01*
X188056152Y-85422931D02*
X187865676Y-85375312D01*
X187865676Y-85375312D02*
X187770438Y-85327693D01*
X187770438Y-85327693D02*
X187675200Y-85232455D01*
X187675200Y-85232455D02*
X187627580Y-85089598D01*
X187627580Y-85089598D02*
X187627580Y-84851503D01*
X191895238Y-72608940D02*
X191628571Y-72227987D01*
X191438095Y-72608940D02*
X191438095Y-71808940D01*
X191438095Y-71808940D02*
X191742857Y-71808940D01*
X191742857Y-71808940D02*
X191819047Y-71847035D01*
X191819047Y-71847035D02*
X191857142Y-71885130D01*
X191857142Y-71885130D02*
X191895238Y-71961321D01*
X191895238Y-71961321D02*
X191895238Y-72075606D01*
X191895238Y-72075606D02*
X191857142Y-72151797D01*
X191857142Y-72151797D02*
X191819047Y-72189892D01*
X191819047Y-72189892D02*
X191742857Y-72227987D01*
X191742857Y-72227987D02*
X191438095Y-72227987D01*
X192238095Y-72189892D02*
X192504761Y-72189892D01*
X192619047Y-72608940D02*
X192238095Y-72608940D01*
X192238095Y-72608940D02*
X192238095Y-71808940D01*
X192238095Y-71808940D02*
X192619047Y-71808940D01*
X192847619Y-71808940D02*
X193114286Y-72608940D01*
X193114286Y-72608940D02*
X193380952Y-71808940D01*
X194219047Y-72380368D02*
X194600000Y-72380368D01*
X194142857Y-72608940D02*
X194409524Y-71808940D01*
X194409524Y-71808940D02*
X194676190Y-72608940D01*
X189514284Y-73477847D02*
X189247618Y-73477847D01*
X189247618Y-73896895D02*
X189247618Y-73096895D01*
X189247618Y-73096895D02*
X189628570Y-73096895D01*
X190238094Y-73858800D02*
X190161903Y-73896895D01*
X190161903Y-73896895D02*
X190009522Y-73896895D01*
X190009522Y-73896895D02*
X189933332Y-73858800D01*
X189933332Y-73858800D02*
X189895236Y-73782609D01*
X189895236Y-73782609D02*
X189895236Y-73477847D01*
X189895236Y-73477847D02*
X189933332Y-73401657D01*
X189933332Y-73401657D02*
X190009522Y-73363561D01*
X190009522Y-73363561D02*
X190161903Y-73363561D01*
X190161903Y-73363561D02*
X190238094Y-73401657D01*
X190238094Y-73401657D02*
X190276189Y-73477847D01*
X190276189Y-73477847D02*
X190276189Y-73554038D01*
X190276189Y-73554038D02*
X189895236Y-73630228D01*
X190619046Y-73896895D02*
X190619046Y-73096895D01*
X190619046Y-73401657D02*
X190695236Y-73363561D01*
X190695236Y-73363561D02*
X190847617Y-73363561D01*
X190847617Y-73363561D02*
X190923808Y-73401657D01*
X190923808Y-73401657D02*
X190961903Y-73439752D01*
X190961903Y-73439752D02*
X190999998Y-73515942D01*
X190999998Y-73515942D02*
X190999998Y-73744514D01*
X190999998Y-73744514D02*
X190961903Y-73820704D01*
X190961903Y-73820704D02*
X190923808Y-73858800D01*
X190923808Y-73858800D02*
X190847617Y-73896895D01*
X190847617Y-73896895D02*
X190695236Y-73896895D01*
X190695236Y-73896895D02*
X190619046Y-73858800D01*
X192371427Y-73896895D02*
X191914284Y-73896895D01*
X192142856Y-73896895D02*
X192142856Y-73096895D01*
X192142856Y-73096895D02*
X192066665Y-73211180D01*
X192066665Y-73211180D02*
X191990475Y-73287371D01*
X191990475Y-73287371D02*
X191914284Y-73325466D01*
X193133332Y-73896895D02*
X192676189Y-73896895D01*
X192904761Y-73896895D02*
X192904761Y-73096895D01*
X192904761Y-73096895D02*
X192828570Y-73211180D01*
X192828570Y-73211180D02*
X192752380Y-73287371D01*
X192752380Y-73287371D02*
X192676189Y-73325466D01*
X194047618Y-73173085D02*
X194085714Y-73134990D01*
X194085714Y-73134990D02*
X194161904Y-73096895D01*
X194161904Y-73096895D02*
X194352380Y-73096895D01*
X194352380Y-73096895D02*
X194428571Y-73134990D01*
X194428571Y-73134990D02*
X194466666Y-73173085D01*
X194466666Y-73173085D02*
X194504761Y-73249276D01*
X194504761Y-73249276D02*
X194504761Y-73325466D01*
X194504761Y-73325466D02*
X194466666Y-73439752D01*
X194466666Y-73439752D02*
X194009523Y-73896895D01*
X194009523Y-73896895D02*
X194504761Y-73896895D01*
X195000000Y-73096895D02*
X195076190Y-73096895D01*
X195076190Y-73096895D02*
X195152381Y-73134990D01*
X195152381Y-73134990D02*
X195190476Y-73173085D01*
X195190476Y-73173085D02*
X195228571Y-73249276D01*
X195228571Y-73249276D02*
X195266666Y-73401657D01*
X195266666Y-73401657D02*
X195266666Y-73592133D01*
X195266666Y-73592133D02*
X195228571Y-73744514D01*
X195228571Y-73744514D02*
X195190476Y-73820704D01*
X195190476Y-73820704D02*
X195152381Y-73858800D01*
X195152381Y-73858800D02*
X195076190Y-73896895D01*
X195076190Y-73896895D02*
X195000000Y-73896895D01*
X195000000Y-73896895D02*
X194923809Y-73858800D01*
X194923809Y-73858800D02*
X194885714Y-73820704D01*
X194885714Y-73820704D02*
X194847619Y-73744514D01*
X194847619Y-73744514D02*
X194809523Y-73592133D01*
X194809523Y-73592133D02*
X194809523Y-73401657D01*
X194809523Y-73401657D02*
X194847619Y-73249276D01*
X194847619Y-73249276D02*
X194885714Y-73173085D01*
X194885714Y-73173085D02*
X194923809Y-73134990D01*
X194923809Y-73134990D02*
X195000000Y-73096895D01*
X195571428Y-73173085D02*
X195609524Y-73134990D01*
X195609524Y-73134990D02*
X195685714Y-73096895D01*
X195685714Y-73096895D02*
X195876190Y-73096895D01*
X195876190Y-73096895D02*
X195952381Y-73134990D01*
X195952381Y-73134990D02*
X195990476Y-73173085D01*
X195990476Y-73173085D02*
X196028571Y-73249276D01*
X196028571Y-73249276D02*
X196028571Y-73325466D01*
X196028571Y-73325466D02*
X195990476Y-73439752D01*
X195990476Y-73439752D02*
X195533333Y-73896895D01*
X195533333Y-73896895D02*
X196028571Y-73896895D01*
X196752381Y-73096895D02*
X196371429Y-73096895D01*
X196371429Y-73096895D02*
X196333333Y-73477847D01*
X196333333Y-73477847D02*
X196371429Y-73439752D01*
X196371429Y-73439752D02*
X196447619Y-73401657D01*
X196447619Y-73401657D02*
X196638095Y-73401657D01*
X196638095Y-73401657D02*
X196714286Y-73439752D01*
X196714286Y-73439752D02*
X196752381Y-73477847D01*
X196752381Y-73477847D02*
X196790476Y-73554038D01*
X196790476Y-73554038D02*
X196790476Y-73744514D01*
X196790476Y-73744514D02*
X196752381Y-73820704D01*
X196752381Y-73820704D02*
X196714286Y-73858800D01*
X196714286Y-73858800D02*
X196638095Y-73896895D01*
X196638095Y-73896895D02*
X196447619Y-73896895D01*
X196447619Y-73896895D02*
X196371429Y-73858800D01*
X196371429Y-73858800D02*
X196333333Y-73820704D01*
D11*
X194666666Y-80844819D02*
X194666666Y-81559104D01*
X194666666Y-81559104D02*
X194619047Y-81701961D01*
X194619047Y-81701961D02*
X194523809Y-81797200D01*
X194523809Y-81797200D02*
X194380952Y-81844819D01*
X194380952Y-81844819D02*
X194285714Y-81844819D01*
X195619047Y-80844819D02*
X195142857Y-80844819D01*
X195142857Y-80844819D02*
X195095238Y-81321009D01*
X195095238Y-81321009D02*
X195142857Y-81273390D01*
X195142857Y-81273390D02*
X195238095Y-81225771D01*
X195238095Y-81225771D02*
X195476190Y-81225771D01*
X195476190Y-81225771D02*
X195571428Y-81273390D01*
X195571428Y-81273390D02*
X195619047Y-81321009D01*
X195619047Y-81321009D02*
X195666666Y-81416247D01*
X195666666Y-81416247D02*
X195666666Y-81654342D01*
X195666666Y-81654342D02*
X195619047Y-81749580D01*
X195619047Y-81749580D02*
X195571428Y-81797200D01*
X195571428Y-81797200D02*
X195476190Y-81844819D01*
X195476190Y-81844819D02*
X195238095Y-81844819D01*
X195238095Y-81844819D02*
X195142857Y-81797200D01*
X195142857Y-81797200D02*
X195095238Y-81749580D01*
X196524819Y-91891666D02*
X196048628Y-92224999D01*
X196524819Y-92463094D02*
X195524819Y-92463094D01*
X195524819Y-92463094D02*
X195524819Y-92082142D01*
X195524819Y-92082142D02*
X195572438Y-91986904D01*
X195572438Y-91986904D02*
X195620057Y-91939285D01*
X195620057Y-91939285D02*
X195715295Y-91891666D01*
X195715295Y-91891666D02*
X195858152Y-91891666D01*
X195858152Y-91891666D02*
X195953390Y-91939285D01*
X195953390Y-91939285D02*
X196001009Y-91986904D01*
X196001009Y-91986904D02*
X196048628Y-92082142D01*
X196048628Y-92082142D02*
X196048628Y-92463094D01*
X195620057Y-91510713D02*
X195572438Y-91463094D01*
X195572438Y-91463094D02*
X195524819Y-91367856D01*
X195524819Y-91367856D02*
X195524819Y-91129761D01*
X195524819Y-91129761D02*
X195572438Y-91034523D01*
X195572438Y-91034523D02*
X195620057Y-90986904D01*
X195620057Y-90986904D02*
X195715295Y-90939285D01*
X195715295Y-90939285D02*
X195810533Y-90939285D01*
X195810533Y-90939285D02*
X195953390Y-90986904D01*
X195953390Y-90986904D02*
X196524819Y-91558332D01*
X196524819Y-91558332D02*
X196524819Y-90939285D01*
X199928571Y-70931009D02*
X199595238Y-70931009D01*
X199595238Y-71454819D02*
X199595238Y-70454819D01*
X199595238Y-70454819D02*
X200071428Y-70454819D01*
X200452381Y-71454819D02*
X200452381Y-70454819D01*
X200928571Y-71454819D02*
X200928571Y-70454819D01*
X200928571Y-70454819D02*
X201166666Y-70454819D01*
X201166666Y-70454819D02*
X201309523Y-70502438D01*
X201309523Y-70502438D02*
X201404761Y-70597676D01*
X201404761Y-70597676D02*
X201452380Y-70692914D01*
X201452380Y-70692914D02*
X201499999Y-70883390D01*
X201499999Y-70883390D02*
X201499999Y-71026247D01*
X201499999Y-71026247D02*
X201452380Y-71216723D01*
X201452380Y-71216723D02*
X201404761Y-71311961D01*
X201404761Y-71311961D02*
X201309523Y-71407200D01*
X201309523Y-71407200D02*
X201166666Y-71454819D01*
X201166666Y-71454819D02*
X200928571Y-71454819D01*
X201880952Y-70550057D02*
X201928571Y-70502438D01*
X201928571Y-70502438D02*
X202023809Y-70454819D01*
X202023809Y-70454819D02*
X202261904Y-70454819D01*
X202261904Y-70454819D02*
X202357142Y-70502438D01*
X202357142Y-70502438D02*
X202404761Y-70550057D01*
X202404761Y-70550057D02*
X202452380Y-70645295D01*
X202452380Y-70645295D02*
X202452380Y-70740533D01*
X202452380Y-70740533D02*
X202404761Y-70883390D01*
X202404761Y-70883390D02*
X201833333Y-71454819D01*
X201833333Y-71454819D02*
X202452380Y-71454819D01*
X174454819Y-89333333D02*
X175169104Y-89333333D01*
X175169104Y-89333333D02*
X175311961Y-89380952D01*
X175311961Y-89380952D02*
X175407200Y-89476190D01*
X175407200Y-89476190D02*
X175454819Y-89619047D01*
X175454819Y-89619047D02*
X175454819Y-89714285D01*
X175454819Y-88333333D02*
X175454819Y-88904761D01*
X175454819Y-88619047D02*
X174454819Y-88619047D01*
X174454819Y-88619047D02*
X174597676Y-88714285D01*
X174597676Y-88714285D02*
X174692914Y-88809523D01*
X174692914Y-88809523D02*
X174740533Y-88904761D01*
X174454819Y-79833333D02*
X175169104Y-79833333D01*
X175169104Y-79833333D02*
X175311961Y-79880952D01*
X175311961Y-79880952D02*
X175407200Y-79976190D01*
X175407200Y-79976190D02*
X175454819Y-80119047D01*
X175454819Y-80119047D02*
X175454819Y-80214285D01*
X174550057Y-79404761D02*
X174502438Y-79357142D01*
X174502438Y-79357142D02*
X174454819Y-79261904D01*
X174454819Y-79261904D02*
X174454819Y-79023809D01*
X174454819Y-79023809D02*
X174502438Y-78928571D01*
X174502438Y-78928571D02*
X174550057Y-78880952D01*
X174550057Y-78880952D02*
X174645295Y-78833333D01*
X174645295Y-78833333D02*
X174740533Y-78833333D01*
X174740533Y-78833333D02*
X174883390Y-78880952D01*
X174883390Y-78880952D02*
X175454819Y-79452380D01*
X175454819Y-79452380D02*
X175454819Y-78833333D01*
X177928571Y-68931009D02*
X177595238Y-68931009D01*
X177595238Y-69454819D02*
X177595238Y-68454819D01*
X177595238Y-68454819D02*
X178071428Y-68454819D01*
X178452381Y-69454819D02*
X178452381Y-68454819D01*
X178928571Y-69454819D02*
X178928571Y-68454819D01*
X178928571Y-68454819D02*
X179166666Y-68454819D01*
X179166666Y-68454819D02*
X179309523Y-68502438D01*
X179309523Y-68502438D02*
X179404761Y-68597676D01*
X179404761Y-68597676D02*
X179452380Y-68692914D01*
X179452380Y-68692914D02*
X179499999Y-68883390D01*
X179499999Y-68883390D02*
X179499999Y-69026247D01*
X179499999Y-69026247D02*
X179452380Y-69216723D01*
X179452380Y-69216723D02*
X179404761Y-69311961D01*
X179404761Y-69311961D02*
X179309523Y-69407200D01*
X179309523Y-69407200D02*
X179166666Y-69454819D01*
X179166666Y-69454819D02*
X178928571Y-69454819D01*
X179833333Y-68454819D02*
X180452380Y-68454819D01*
X180452380Y-68454819D02*
X180119047Y-68835771D01*
X180119047Y-68835771D02*
X180261904Y-68835771D01*
X180261904Y-68835771D02*
X180357142Y-68883390D01*
X180357142Y-68883390D02*
X180404761Y-68931009D01*
X180404761Y-68931009D02*
X180452380Y-69026247D01*
X180452380Y-69026247D02*
X180452380Y-69264342D01*
X180452380Y-69264342D02*
X180404761Y-69359580D01*
X180404761Y-69359580D02*
X180357142Y-69407200D01*
X180357142Y-69407200D02*
X180261904Y-69454819D01*
X180261904Y-69454819D02*
X179976190Y-69454819D01*
X179976190Y-69454819D02*
X179880952Y-69407200D01*
X179880952Y-69407200D02*
X179833333Y-69359580D01*
X201238095Y-97454819D02*
X201238095Y-96454819D01*
X201238095Y-96931009D02*
X201809523Y-96931009D01*
X201809523Y-97454819D02*
X201809523Y-96454819D01*
X202238095Y-96550057D02*
X202285714Y-96502438D01*
X202285714Y-96502438D02*
X202380952Y-96454819D01*
X202380952Y-96454819D02*
X202619047Y-96454819D01*
X202619047Y-96454819D02*
X202714285Y-96502438D01*
X202714285Y-96502438D02*
X202761904Y-96550057D01*
X202761904Y-96550057D02*
X202809523Y-96645295D01*
X202809523Y-96645295D02*
X202809523Y-96740533D01*
X202809523Y-96740533D02*
X202761904Y-96883390D01*
X202761904Y-96883390D02*
X202190476Y-97454819D01*
X202190476Y-97454819D02*
X202809523Y-97454819D01*
X191851161Y-89455057D02*
X191755923Y-89407438D01*
X191755923Y-89407438D02*
X191660685Y-89312200D01*
X191660685Y-89312200D02*
X191517828Y-89169342D01*
X191517828Y-89169342D02*
X191422590Y-89121723D01*
X191422590Y-89121723D02*
X191327352Y-89121723D01*
X191374971Y-89359819D02*
X191279733Y-89312200D01*
X191279733Y-89312200D02*
X191184495Y-89216961D01*
X191184495Y-89216961D02*
X191136876Y-89026485D01*
X191136876Y-89026485D02*
X191136876Y-88693152D01*
X191136876Y-88693152D02*
X191184495Y-88502676D01*
X191184495Y-88502676D02*
X191279733Y-88407438D01*
X191279733Y-88407438D02*
X191374971Y-88359819D01*
X191374971Y-88359819D02*
X191565447Y-88359819D01*
X191565447Y-88359819D02*
X191660685Y-88407438D01*
X191660685Y-88407438D02*
X191755923Y-88502676D01*
X191755923Y-88502676D02*
X191803542Y-88693152D01*
X191803542Y-88693152D02*
X191803542Y-89026485D01*
X191803542Y-89026485D02*
X191755923Y-89216961D01*
X191755923Y-89216961D02*
X191660685Y-89312200D01*
X191660685Y-89312200D02*
X191565447Y-89359819D01*
X191565447Y-89359819D02*
X191374971Y-89359819D01*
X192755923Y-89359819D02*
X192184495Y-89359819D01*
X192470209Y-89359819D02*
X192470209Y-88359819D01*
X192470209Y-88359819D02*
X192374971Y-88502676D01*
X192374971Y-88502676D02*
X192279733Y-88597914D01*
X192279733Y-88597914D02*
X192184495Y-88645533D01*
X198133333Y-96539580D02*
X198085714Y-96587200D01*
X198085714Y-96587200D02*
X197942857Y-96634819D01*
X197942857Y-96634819D02*
X197847619Y-96634819D01*
X197847619Y-96634819D02*
X197704762Y-96587200D01*
X197704762Y-96587200D02*
X197609524Y-96491961D01*
X197609524Y-96491961D02*
X197561905Y-96396723D01*
X197561905Y-96396723D02*
X197514286Y-96206247D01*
X197514286Y-96206247D02*
X197514286Y-96063390D01*
X197514286Y-96063390D02*
X197561905Y-95872914D01*
X197561905Y-95872914D02*
X197609524Y-95777676D01*
X197609524Y-95777676D02*
X197704762Y-95682438D01*
X197704762Y-95682438D02*
X197847619Y-95634819D01*
X197847619Y-95634819D02*
X197942857Y-95634819D01*
X197942857Y-95634819D02*
X198085714Y-95682438D01*
X198085714Y-95682438D02*
X198133333Y-95730057D01*
X198514286Y-95730057D02*
X198561905Y-95682438D01*
X198561905Y-95682438D02*
X198657143Y-95634819D01*
X198657143Y-95634819D02*
X198895238Y-95634819D01*
X198895238Y-95634819D02*
X198990476Y-95682438D01*
X198990476Y-95682438D02*
X199038095Y-95730057D01*
X199038095Y-95730057D02*
X199085714Y-95825295D01*
X199085714Y-95825295D02*
X199085714Y-95920533D01*
X199085714Y-95920533D02*
X199038095Y-96063390D01*
X199038095Y-96063390D02*
X198466667Y-96634819D01*
X198466667Y-96634819D02*
X199085714Y-96634819D01*
X194666666Y-90844819D02*
X194666666Y-91559104D01*
X194666666Y-91559104D02*
X194619047Y-91701961D01*
X194619047Y-91701961D02*
X194523809Y-91797200D01*
X194523809Y-91797200D02*
X194380952Y-91844819D01*
X194380952Y-91844819D02*
X194285714Y-91844819D01*
X195571428Y-91178152D02*
X195571428Y-91844819D01*
X195333333Y-90797200D02*
X195095238Y-91511485D01*
X195095238Y-91511485D02*
X195714285Y-91511485D01*
X191930304Y-94495181D02*
X191930304Y-93685658D01*
X191930304Y-93685658D02*
X191882685Y-93590420D01*
X191882685Y-93590420D02*
X191835066Y-93542801D01*
X191835066Y-93542801D02*
X191739828Y-93495181D01*
X191739828Y-93495181D02*
X191549352Y-93495181D01*
X191549352Y-93495181D02*
X191454114Y-93542801D01*
X191454114Y-93542801D02*
X191406495Y-93590420D01*
X191406495Y-93590420D02*
X191358876Y-93685658D01*
X191358876Y-93685658D02*
X191358876Y-94495181D01*
X190930304Y-94399943D02*
X190882685Y-94447562D01*
X190882685Y-94447562D02*
X190787447Y-94495181D01*
X190787447Y-94495181D02*
X190549352Y-94495181D01*
X190549352Y-94495181D02*
X190454114Y-94447562D01*
X190454114Y-94447562D02*
X190406495Y-94399943D01*
X190406495Y-94399943D02*
X190358876Y-94304705D01*
X190358876Y-94304705D02*
X190358876Y-94209467D01*
X190358876Y-94209467D02*
X190406495Y-94066610D01*
X190406495Y-94066610D02*
X190977923Y-93495181D01*
X190977923Y-93495181D02*
X190358876Y-93495181D01*
X192590799Y-96600881D02*
X192590799Y-96362786D01*
X192828894Y-96458024D02*
X192590799Y-96362786D01*
X192590799Y-96362786D02*
X192352704Y-96458024D01*
X192733656Y-96172310D02*
X192590799Y-96362786D01*
X192590799Y-96362786D02*
X192447942Y-96172310D01*
X192590800Y-95510520D02*
X192590800Y-95748615D01*
X192352705Y-95653377D02*
X192590800Y-95748615D01*
X192590800Y-95748615D02*
X192828895Y-95653377D01*
X192447943Y-95939091D02*
X192590800Y-95748615D01*
X192590800Y-95748615D02*
X192733657Y-95939091D01*
X201033333Y-78539580D02*
X200985714Y-78587200D01*
X200985714Y-78587200D02*
X200842857Y-78634819D01*
X200842857Y-78634819D02*
X200747619Y-78634819D01*
X200747619Y-78634819D02*
X200604762Y-78587200D01*
X200604762Y-78587200D02*
X200509524Y-78491961D01*
X200509524Y-78491961D02*
X200461905Y-78396723D01*
X200461905Y-78396723D02*
X200414286Y-78206247D01*
X200414286Y-78206247D02*
X200414286Y-78063390D01*
X200414286Y-78063390D02*
X200461905Y-77872914D01*
X200461905Y-77872914D02*
X200509524Y-77777676D01*
X200509524Y-77777676D02*
X200604762Y-77682438D01*
X200604762Y-77682438D02*
X200747619Y-77634819D01*
X200747619Y-77634819D02*
X200842857Y-77634819D01*
X200842857Y-77634819D02*
X200985714Y-77682438D01*
X200985714Y-77682438D02*
X201033333Y-77730057D01*
X201985714Y-78634819D02*
X201414286Y-78634819D01*
X201700000Y-78634819D02*
X201700000Y-77634819D01*
X201700000Y-77634819D02*
X201604762Y-77777676D01*
X201604762Y-77777676D02*
X201509524Y-77872914D01*
X201509524Y-77872914D02*
X201414286Y-77920533D01*
X177928571Y-95931009D02*
X177595238Y-95931009D01*
X177595238Y-96454819D02*
X177595238Y-95454819D01*
X177595238Y-95454819D02*
X178071428Y-95454819D01*
X178452381Y-96454819D02*
X178452381Y-95454819D01*
X178928571Y-96454819D02*
X178928571Y-95454819D01*
X178928571Y-95454819D02*
X179166666Y-95454819D01*
X179166666Y-95454819D02*
X179309523Y-95502438D01*
X179309523Y-95502438D02*
X179404761Y-95597676D01*
X179404761Y-95597676D02*
X179452380Y-95692914D01*
X179452380Y-95692914D02*
X179499999Y-95883390D01*
X179499999Y-95883390D02*
X179499999Y-96026247D01*
X179499999Y-96026247D02*
X179452380Y-96216723D01*
X179452380Y-96216723D02*
X179404761Y-96311961D01*
X179404761Y-96311961D02*
X179309523Y-96407200D01*
X179309523Y-96407200D02*
X179166666Y-96454819D01*
X179166666Y-96454819D02*
X178928571Y-96454819D01*
X180452380Y-96454819D02*
X179880952Y-96454819D01*
X180166666Y-96454819D02*
X180166666Y-95454819D01*
X180166666Y-95454819D02*
X180071428Y-95597676D01*
X180071428Y-95597676D02*
X179976190Y-95692914D01*
X179976190Y-95692914D02*
X179880952Y-95740533D01*
X197454819Y-77333333D02*
X198169104Y-77333333D01*
X198169104Y-77333333D02*
X198311961Y-77380952D01*
X198311961Y-77380952D02*
X198407200Y-77476190D01*
X198407200Y-77476190D02*
X198454819Y-77619047D01*
X198454819Y-77619047D02*
X198454819Y-77714285D01*
X197454819Y-76952380D02*
X197454819Y-76333333D01*
X197454819Y-76333333D02*
X197835771Y-76666666D01*
X197835771Y-76666666D02*
X197835771Y-76523809D01*
X197835771Y-76523809D02*
X197883390Y-76428571D01*
X197883390Y-76428571D02*
X197931009Y-76380952D01*
X197931009Y-76380952D02*
X198026247Y-76333333D01*
X198026247Y-76333333D02*
X198264342Y-76333333D01*
X198264342Y-76333333D02*
X198359580Y-76380952D01*
X198359580Y-76380952D02*
X198407200Y-76428571D01*
X198407200Y-76428571D02*
X198454819Y-76523809D01*
X198454819Y-76523809D02*
X198454819Y-76809523D01*
X198454819Y-76809523D02*
X198407200Y-76904761D01*
X198407200Y-76904761D02*
X198359580Y-76952380D01*
X201238095Y-73454819D02*
X201238095Y-72454819D01*
X201238095Y-72931009D02*
X201809523Y-72931009D01*
X201809523Y-73454819D02*
X201809523Y-72454819D01*
X202809523Y-73454819D02*
X202238095Y-73454819D01*
X202523809Y-73454819D02*
X202523809Y-72454819D01*
X202523809Y-72454819D02*
X202428571Y-72597676D01*
X202428571Y-72597676D02*
X202333333Y-72692914D01*
X202333333Y-72692914D02*
X202238095Y-72740533D01*
X197608333Y-78384819D02*
X197275000Y-77908628D01*
X197036905Y-78384819D02*
X197036905Y-77384819D01*
X197036905Y-77384819D02*
X197417857Y-77384819D01*
X197417857Y-77384819D02*
X197513095Y-77432438D01*
X197513095Y-77432438D02*
X197560714Y-77480057D01*
X197560714Y-77480057D02*
X197608333Y-77575295D01*
X197608333Y-77575295D02*
X197608333Y-77718152D01*
X197608333Y-77718152D02*
X197560714Y-77813390D01*
X197560714Y-77813390D02*
X197513095Y-77861009D01*
X197513095Y-77861009D02*
X197417857Y-77908628D01*
X197417857Y-77908628D02*
X197036905Y-77908628D01*
X198560714Y-78384819D02*
X197989286Y-78384819D01*
X198275000Y-78384819D02*
X198275000Y-77384819D01*
X198275000Y-77384819D02*
X198179762Y-77527676D01*
X198179762Y-77527676D02*
X198084524Y-77622914D01*
X198084524Y-77622914D02*
X197989286Y-77670533D01*
X191851161Y-78915057D02*
X191755923Y-78867438D01*
X191755923Y-78867438D02*
X191660685Y-78772200D01*
X191660685Y-78772200D02*
X191517828Y-78629342D01*
X191517828Y-78629342D02*
X191422590Y-78581723D01*
X191422590Y-78581723D02*
X191327352Y-78581723D01*
X191374971Y-78819819D02*
X191279733Y-78772200D01*
X191279733Y-78772200D02*
X191184495Y-78676961D01*
X191184495Y-78676961D02*
X191136876Y-78486485D01*
X191136876Y-78486485D02*
X191136876Y-78153152D01*
X191136876Y-78153152D02*
X191184495Y-77962676D01*
X191184495Y-77962676D02*
X191279733Y-77867438D01*
X191279733Y-77867438D02*
X191374971Y-77819819D01*
X191374971Y-77819819D02*
X191565447Y-77819819D01*
X191565447Y-77819819D02*
X191660685Y-77867438D01*
X191660685Y-77867438D02*
X191755923Y-77962676D01*
X191755923Y-77962676D02*
X191803542Y-78153152D01*
X191803542Y-78153152D02*
X191803542Y-78486485D01*
X191803542Y-78486485D02*
X191755923Y-78676961D01*
X191755923Y-78676961D02*
X191660685Y-78772200D01*
X191660685Y-78772200D02*
X191565447Y-78819819D01*
X191565447Y-78819819D02*
X191374971Y-78819819D01*
X192184495Y-77915057D02*
X192232114Y-77867438D01*
X192232114Y-77867438D02*
X192327352Y-77819819D01*
X192327352Y-77819819D02*
X192565447Y-77819819D01*
X192565447Y-77819819D02*
X192660685Y-77867438D01*
X192660685Y-77867438D02*
X192708304Y-77915057D01*
X192708304Y-77915057D02*
X192755923Y-78010295D01*
X192755923Y-78010295D02*
X192755923Y-78105533D01*
X192755923Y-78105533D02*
X192708304Y-78248390D01*
X192708304Y-78248390D02*
X192136876Y-78819819D01*
X192136876Y-78819819D02*
X192755923Y-78819819D01*
X191930304Y-83595179D02*
X191930304Y-82785656D01*
X191930304Y-82785656D02*
X191882685Y-82690418D01*
X191882685Y-82690418D02*
X191835066Y-82642799D01*
X191835066Y-82642799D02*
X191739828Y-82595179D01*
X191739828Y-82595179D02*
X191549352Y-82595179D01*
X191549352Y-82595179D02*
X191454114Y-82642799D01*
X191454114Y-82642799D02*
X191406495Y-82690418D01*
X191406495Y-82690418D02*
X191358876Y-82785656D01*
X191358876Y-82785656D02*
X191358876Y-83595179D01*
X190358876Y-82595179D02*
X190930304Y-82595179D01*
X190644590Y-82595179D02*
X190644590Y-83595179D01*
X190644590Y-83595179D02*
X190739828Y-83452322D01*
X190739828Y-83452322D02*
X190835066Y-83357084D01*
X190835066Y-83357084D02*
X190930304Y-83309465D01*
X192590799Y-85700879D02*
X192590799Y-85462784D01*
X192828894Y-85558022D02*
X192590799Y-85462784D01*
X192590799Y-85462784D02*
X192352704Y-85558022D01*
X192733656Y-85272308D02*
X192590799Y-85462784D01*
X192590799Y-85462784D02*
X192447942Y-85272308D01*
X192590800Y-84610518D02*
X192590800Y-84848613D01*
X192352705Y-84753375D02*
X192590800Y-84848613D01*
X192590800Y-84848613D02*
X192828895Y-84753375D01*
X192447943Y-85039089D02*
X192590800Y-84848613D01*
X192590800Y-84848613D02*
X192733657Y-85039089D01*
D12*
%TO.C,J5*%
X194255000Y-82265000D02*
X195000000Y-82265000D01*
X194255000Y-83000000D02*
X194255000Y-82265000D01*
X194255000Y-83735000D02*
X194255000Y-83610000D01*
X194255000Y-83735000D02*
X194314435Y-83735000D01*
X194255000Y-83735000D02*
X195745000Y-83735000D01*
X195685565Y-83735000D02*
X195745000Y-83735000D01*
X195745000Y-83735000D02*
X195745000Y-83610000D01*
%TO.C,R2*%
X196990000Y-91865580D02*
X196990000Y-91584420D01*
X198010000Y-91865580D02*
X198010000Y-91584420D01*
%TO.C,J1*%
X175880000Y-81880000D02*
X186620000Y-81880000D01*
X175880000Y-84200000D02*
X175880000Y-81880000D01*
X175880000Y-92120000D02*
X175880000Y-84800000D01*
X178000000Y-81880000D02*
X178000000Y-92120000D01*
X182000000Y-81880000D02*
X182000000Y-92120000D01*
X183000000Y-81880000D02*
X183000000Y-92120000D01*
X186620000Y-81880000D02*
X186620000Y-92120000D01*
X186620000Y-92120000D02*
X175880000Y-92120000D01*
X175880000Y-84500000D02*
X175270000Y-84940000D01*
X175270000Y-84060000D01*
X175880000Y-84500000D01*
G36*
X175880000Y-84500000D02*
G01*
X175270000Y-84940000D01*
X175270000Y-84060000D01*
X175880000Y-84500000D01*
G37*
%TO.C,J2*%
X175762500Y-70880000D02*
X186502500Y-70880000D01*
X175762500Y-73200000D02*
X175762500Y-70880000D01*
X175762500Y-81120000D02*
X175762500Y-73800000D01*
X177882500Y-70880000D02*
X177882500Y-81120000D01*
X181882500Y-70880000D02*
X181882500Y-81120000D01*
X182882500Y-70880000D02*
X182882500Y-81120000D01*
X186502500Y-70880000D02*
X186502500Y-81120000D01*
X186502500Y-81120000D02*
X175762500Y-81120000D01*
X175762500Y-73500000D02*
X175152500Y-73940000D01*
X175152500Y-73060000D01*
X175762500Y-73500000D01*
G36*
X175762500Y-73500000D02*
G01*
X175152500Y-73940000D01*
X175152500Y-73060000D01*
X175762500Y-73500000D01*
G37*
D13*
%TO.C,Q1*%
X189317500Y-91533900D02*
X194575300Y-91533900D01*
X194575300Y-86276100D02*
X189317500Y-86276100D01*
X187831600Y-87000000D02*
G75*
G02*
X187679200Y-87000000I-76200J0D01*
G01*
X187679200Y-87000000D02*
G75*
G02*
X187831600Y-87000000I76200J0D01*
G01*
D12*
%TO.C,C2*%
X198561252Y-93765000D02*
X198038748Y-93765000D01*
X198561252Y-95235000D02*
X198038748Y-95235000D01*
%TO.C,J4*%
X194255000Y-92265000D02*
X195000000Y-92265000D01*
X194255000Y-93000000D02*
X194255000Y-92265000D01*
X194255000Y-93735000D02*
X194255000Y-93610000D01*
X194255000Y-93735000D02*
X194314435Y-93735000D01*
X194255000Y-93735000D02*
X195745000Y-93735000D01*
X195685565Y-93735000D02*
X195745000Y-93735000D01*
X195745000Y-93735000D02*
X195745000Y-93610000D01*
D13*
%TO.C,U2*%
X190700794Y-95486701D02*
X191636006Y-95486701D01*
X191636006Y-92413301D02*
X190700794Y-92413301D01*
D12*
%TO.C,C1*%
X201461252Y-75765000D02*
X200938748Y-75765000D01*
X201461252Y-77235000D02*
X200938748Y-77235000D01*
%TO.C,J3*%
X197497500Y-78880000D02*
X208237500Y-78880000D01*
X197497500Y-89120000D02*
X197497500Y-78880000D01*
X201117500Y-89120000D02*
X201117500Y-78880000D01*
X202117500Y-89120000D02*
X202117500Y-78880000D01*
X206117500Y-89120000D02*
X206117500Y-78880000D01*
X208237500Y-78880000D02*
X208237500Y-86200000D01*
X208237500Y-86800000D02*
X208237500Y-89120000D01*
X208237500Y-89120000D02*
X197497500Y-89120000D01*
X208847500Y-86940000D02*
X208237500Y-86500000D01*
X208847500Y-86060000D01*
X208847500Y-86940000D01*
G36*
X208847500Y-86940000D02*
G01*
X208237500Y-86500000D01*
X208847500Y-86060000D01*
X208847500Y-86940000D01*
G37*
%TO.C,R1*%
X197915580Y-75990000D02*
X197634420Y-75990000D01*
X197915580Y-77010000D02*
X197634420Y-77010000D01*
D14*
%TO.C,G\u002A\u002A\u002A*%
G36*
X193659811Y-69014877D02*
G01*
X193658296Y-69019716D01*
X193655528Y-69028796D01*
X193651789Y-69041180D01*
X193647363Y-69055934D01*
X193642530Y-69072120D01*
X193642092Y-69073592D01*
X193637262Y-69089642D01*
X193632803Y-69104125D01*
X193628996Y-69116163D01*
X193626117Y-69124879D01*
X193624445Y-69129395D01*
X193624341Y-69129607D01*
X193623188Y-69131060D01*
X193621022Y-69132183D01*
X193617209Y-69133017D01*
X193611117Y-69133605D01*
X193602110Y-69133988D01*
X193589557Y-69134209D01*
X193572823Y-69134309D01*
X193553115Y-69134332D01*
X193534485Y-69134256D01*
X193517767Y-69134042D01*
X193503678Y-69133711D01*
X193492935Y-69133284D01*
X193486256Y-69132783D01*
X193484308Y-69132307D01*
X193485031Y-69129253D01*
X193487093Y-69121770D01*
X193490282Y-69110600D01*
X193494384Y-69096485D01*
X193499185Y-69080167D01*
X193502530Y-69068901D01*
X193520816Y-69007519D01*
X193591538Y-69007486D01*
X193662261Y-69007453D01*
X193659811Y-69014877D01*
G37*
G36*
X191180939Y-68702638D02*
G01*
X191184909Y-68709670D01*
X191189992Y-68719627D01*
X191195731Y-68731508D01*
X191201671Y-68744316D01*
X191207355Y-68757052D01*
X191212327Y-68768718D01*
X191216129Y-68778316D01*
X191218306Y-68784846D01*
X191218594Y-68787141D01*
X191215915Y-68789016D01*
X191209016Y-68792720D01*
X191198624Y-68797919D01*
X191185467Y-68804280D01*
X191170271Y-68811469D01*
X191153765Y-68819154D01*
X191136675Y-68827001D01*
X191119729Y-68834678D01*
X191103655Y-68841850D01*
X191089179Y-68848185D01*
X191077029Y-68853350D01*
X191067932Y-68857011D01*
X191062616Y-68858835D01*
X191061773Y-68858978D01*
X191057661Y-68856409D01*
X191052908Y-68849029D01*
X191050896Y-68844806D01*
X191046853Y-68835806D01*
X191041466Y-68823967D01*
X191035673Y-68811343D01*
X191033498Y-68806635D01*
X191028702Y-68795761D01*
X191024948Y-68786265D01*
X191022748Y-68779504D01*
X191022388Y-68777409D01*
X191023298Y-68775450D01*
X191026314Y-68772764D01*
X191031869Y-68769112D01*
X191040395Y-68764252D01*
X191052324Y-68757942D01*
X191068088Y-68749943D01*
X191088119Y-68740011D01*
X191098651Y-68734843D01*
X191120939Y-68724050D01*
X191140083Y-68715027D01*
X191155752Y-68707919D01*
X191167614Y-68702875D01*
X191175336Y-68700039D01*
X191178539Y-68699527D01*
X191180939Y-68702638D01*
G37*
G36*
X191259061Y-68957919D02*
G01*
X191263183Y-68960886D01*
X191265626Y-68965386D01*
X191269082Y-68973887D01*
X191273156Y-68985175D01*
X191277455Y-68998039D01*
X191281587Y-69011265D01*
X191285156Y-69023642D01*
X191287770Y-69033956D01*
X191288964Y-69040329D01*
X191290173Y-69050259D01*
X191270337Y-69056174D01*
X191236170Y-69066355D01*
X191206827Y-69075079D01*
X191181962Y-69082448D01*
X191161227Y-69088561D01*
X191144277Y-69093520D01*
X191130765Y-69097423D01*
X191120346Y-69100372D01*
X191112672Y-69102466D01*
X191107397Y-69103805D01*
X191104175Y-69104491D01*
X191102886Y-69104637D01*
X191099862Y-69103116D01*
X191096885Y-69098037D01*
X191093544Y-69088626D01*
X191092474Y-69085065D01*
X191088711Y-69072294D01*
X191084327Y-69057524D01*
X191080261Y-69043923D01*
X191080211Y-69043758D01*
X191077189Y-69033201D01*
X191074908Y-69024286D01*
X191073751Y-69018539D01*
X191073680Y-69017662D01*
X191074916Y-69015999D01*
X191078884Y-69013668D01*
X191085972Y-69010519D01*
X191096571Y-69006404D01*
X191111069Y-69001171D01*
X191129857Y-68994672D01*
X191153322Y-68986758D01*
X191159391Y-68984732D01*
X191180129Y-68977887D01*
X191199479Y-68971631D01*
X191216783Y-68966165D01*
X191231384Y-68961693D01*
X191242624Y-68958416D01*
X191249848Y-68956537D01*
X191252107Y-68956162D01*
X191259061Y-68957919D01*
G37*
G36*
X193566010Y-69164125D02*
G01*
X193584300Y-69164409D01*
X193598553Y-69164865D01*
X193608376Y-69165478D01*
X193613377Y-69166234D01*
X193613950Y-69166628D01*
X193613265Y-69169594D01*
X193611276Y-69177394D01*
X193608085Y-69189654D01*
X193603792Y-69205997D01*
X193598498Y-69226048D01*
X193592302Y-69249432D01*
X193585307Y-69275773D01*
X193577611Y-69304696D01*
X193569317Y-69335825D01*
X193560523Y-69368785D01*
X193551332Y-69403199D01*
X193541844Y-69438694D01*
X193532159Y-69474893D01*
X193522377Y-69511420D01*
X193512600Y-69547901D01*
X193502928Y-69583960D01*
X193493461Y-69619221D01*
X193484300Y-69653308D01*
X193475546Y-69685847D01*
X193467300Y-69716462D01*
X193459661Y-69744777D01*
X193452730Y-69770417D01*
X193446609Y-69793006D01*
X193441397Y-69812169D01*
X193437196Y-69827530D01*
X193434105Y-69838715D01*
X193432225Y-69845346D01*
X193431667Y-69847114D01*
X193428774Y-69847588D01*
X193421139Y-69848024D01*
X193409422Y-69848421D01*
X193394278Y-69848775D01*
X193376367Y-69849082D01*
X193356346Y-69849339D01*
X193334872Y-69849544D01*
X193312604Y-69849694D01*
X193290200Y-69849784D01*
X193268316Y-69849811D01*
X193247612Y-69849774D01*
X193228744Y-69849667D01*
X193212370Y-69849489D01*
X193199149Y-69849236D01*
X193189738Y-69848905D01*
X193184795Y-69848492D01*
X193184224Y-69848313D01*
X193184354Y-69845325D01*
X193185716Y-69838171D01*
X193188085Y-69827882D01*
X193191238Y-69815491D01*
X193191664Y-69813893D01*
X193195762Y-69798564D01*
X193200033Y-69782556D01*
X193203918Y-69767965D01*
X193206405Y-69758601D01*
X193212309Y-69736330D01*
X193266734Y-69736330D01*
X193321158Y-69736330D01*
X193396112Y-69456252D01*
X193406251Y-69418364D01*
X193416015Y-69381874D01*
X193425311Y-69347127D01*
X193434047Y-69314472D01*
X193442130Y-69284255D01*
X193449467Y-69256822D01*
X193455965Y-69232520D01*
X193461532Y-69211696D01*
X193466075Y-69194696D01*
X193469501Y-69181868D01*
X193471717Y-69173557D01*
X193472632Y-69170111D01*
X193472635Y-69170101D01*
X193474203Y-69164027D01*
X193544077Y-69164027D01*
X193566010Y-69164125D01*
G37*
G36*
X196198798Y-69020276D02*
G01*
X196196732Y-69027641D01*
X196193678Y-69038843D01*
X196190010Y-69052494D01*
X196186103Y-69067207D01*
X196185153Y-69070811D01*
X196181418Y-69084824D01*
X196177979Y-69097384D01*
X196175155Y-69107359D01*
X196173260Y-69113616D01*
X196172891Y-69114679D01*
X196170551Y-69120834D01*
X195982186Y-69120834D01*
X195793821Y-69120834D01*
X195736373Y-69334773D01*
X195727494Y-69367842D01*
X195718996Y-69399493D01*
X195710988Y-69429327D01*
X195703576Y-69456944D01*
X195696869Y-69481943D01*
X195690972Y-69503924D01*
X195685993Y-69522488D01*
X195682041Y-69537235D01*
X195679221Y-69547764D01*
X195677642Y-69553675D01*
X195677353Y-69554767D01*
X195675780Y-69560823D01*
X195864544Y-69561516D01*
X196053308Y-69562209D01*
X196039551Y-69613501D01*
X196035203Y-69629605D01*
X196031229Y-69644128D01*
X196027875Y-69656183D01*
X196025389Y-69664883D01*
X196024018Y-69669340D01*
X196023953Y-69669516D01*
X196023417Y-69670306D01*
X196022250Y-69671004D01*
X196020134Y-69671614D01*
X196016748Y-69672142D01*
X196011773Y-69672595D01*
X196004889Y-69672978D01*
X195995778Y-69673296D01*
X195984118Y-69673557D01*
X195969592Y-69673765D01*
X195951880Y-69673926D01*
X195930661Y-69674047D01*
X195905617Y-69674132D01*
X195876428Y-69674189D01*
X195842775Y-69674221D01*
X195804337Y-69674237D01*
X195764220Y-69674240D01*
X195719531Y-69674227D01*
X195679971Y-69674186D01*
X195645272Y-69674112D01*
X195615163Y-69674003D01*
X195589375Y-69673855D01*
X195567639Y-69673664D01*
X195549685Y-69673427D01*
X195535244Y-69673141D01*
X195524046Y-69672801D01*
X195515822Y-69672404D01*
X195510302Y-69671948D01*
X195507218Y-69671427D01*
X195506297Y-69670866D01*
X195506979Y-69667885D01*
X195508979Y-69660004D01*
X195512211Y-69647537D01*
X195516594Y-69630800D01*
X195522044Y-69610106D01*
X195528477Y-69585771D01*
X195535810Y-69558108D01*
X195543959Y-69527432D01*
X195552843Y-69494058D01*
X195562376Y-69458299D01*
X195572475Y-69420472D01*
X195583058Y-69380889D01*
X195594040Y-69339866D01*
X195594682Y-69337472D01*
X195683098Y-69007453D01*
X195942809Y-69007453D01*
X196202520Y-69007453D01*
X196198798Y-69020276D01*
G37*
G36*
X193180082Y-69164597D02*
G01*
X193211955Y-69164690D01*
X193239660Y-69164841D01*
X193262999Y-69165050D01*
X193281776Y-69165315D01*
X193295792Y-69165634D01*
X193304850Y-69166007D01*
X193308754Y-69166431D01*
X193308901Y-69166537D01*
X193308214Y-69169569D01*
X193306232Y-69177373D01*
X193303072Y-69189510D01*
X193298853Y-69205541D01*
X193293692Y-69225027D01*
X193287709Y-69247531D01*
X193281020Y-69272612D01*
X193273745Y-69299832D01*
X193266000Y-69328752D01*
X193257905Y-69358934D01*
X193249577Y-69389938D01*
X193241135Y-69421325D01*
X193232696Y-69452658D01*
X193224378Y-69483497D01*
X193216300Y-69513403D01*
X193208580Y-69541937D01*
X193201336Y-69568661D01*
X193194686Y-69593136D01*
X193188748Y-69614922D01*
X193183639Y-69633582D01*
X193179479Y-69648676D01*
X193176386Y-69659765D01*
X193174476Y-69666411D01*
X193173915Y-69668166D01*
X193171340Y-69674240D01*
X192925783Y-69674240D01*
X192889853Y-69674219D01*
X192855480Y-69674155D01*
X192823046Y-69674054D01*
X192792931Y-69673917D01*
X192765518Y-69673748D01*
X192741186Y-69673551D01*
X192720319Y-69673327D01*
X192703296Y-69673081D01*
X192690500Y-69672816D01*
X192682311Y-69672534D01*
X192679111Y-69672238D01*
X192679083Y-69672216D01*
X192679608Y-69669377D01*
X192681451Y-69661686D01*
X192684517Y-69649500D01*
X192688713Y-69633178D01*
X192693944Y-69613077D01*
X192700117Y-69589556D01*
X192707136Y-69562973D01*
X192707697Y-69560859D01*
X192848162Y-69560859D01*
X192955193Y-69560859D01*
X193062224Y-69560859D01*
X193099606Y-69422508D01*
X193106755Y-69396067D01*
X193113502Y-69371157D01*
X193119710Y-69348273D01*
X193125246Y-69327908D01*
X193129975Y-69310558D01*
X193133761Y-69296718D01*
X193136471Y-69286883D01*
X193137969Y-69281547D01*
X193138210Y-69280751D01*
X193137533Y-69279875D01*
X193134533Y-69279171D01*
X193128796Y-69278629D01*
X193119908Y-69278238D01*
X193107454Y-69277987D01*
X193091021Y-69277867D01*
X193070195Y-69277866D01*
X193044560Y-69277975D01*
X193032087Y-69278051D01*
X192924742Y-69278757D01*
X192886452Y-69419808D01*
X192848162Y-69560859D01*
X192707697Y-69560859D01*
X192714908Y-69533687D01*
X192723339Y-69502055D01*
X192732335Y-69468436D01*
X192741801Y-69433189D01*
X192745949Y-69417784D01*
X192813958Y-69165376D01*
X193061430Y-69164687D01*
X193104622Y-69164595D01*
X193144239Y-69164565D01*
X193180082Y-69164597D01*
G37*
G36*
X192492036Y-69170101D02*
G01*
X192490039Y-69176690D01*
X192487171Y-69186713D01*
X192483678Y-69199242D01*
X192479811Y-69213351D01*
X192475818Y-69228114D01*
X192471948Y-69242603D01*
X192468449Y-69255892D01*
X192465569Y-69267053D01*
X192463558Y-69275161D01*
X192462664Y-69279288D01*
X192462655Y-69279616D01*
X192464822Y-69278150D01*
X192470630Y-69273596D01*
X192479596Y-69266348D01*
X192491237Y-69256802D01*
X192505070Y-69245355D01*
X192520610Y-69232400D01*
X192532720Y-69222251D01*
X192602027Y-69164027D01*
X192678761Y-69164027D01*
X192698487Y-69164068D01*
X192716335Y-69164183D01*
X192731628Y-69164362D01*
X192743687Y-69164595D01*
X192751835Y-69164870D01*
X192755394Y-69165176D01*
X192755495Y-69165239D01*
X192753478Y-69167121D01*
X192747632Y-69172216D01*
X192738259Y-69180267D01*
X192725665Y-69191015D01*
X192710155Y-69204200D01*
X192692033Y-69219566D01*
X192671603Y-69236853D01*
X192649170Y-69255803D01*
X192625039Y-69276158D01*
X192599515Y-69297660D01*
X192584749Y-69310086D01*
X192414003Y-69453720D01*
X192386503Y-69553857D01*
X192380247Y-69576619D01*
X192374334Y-69598095D01*
X192368943Y-69617646D01*
X192364248Y-69634631D01*
X192360429Y-69648409D01*
X192357661Y-69658340D01*
X192356122Y-69663785D01*
X192356025Y-69664117D01*
X192353046Y-69674240D01*
X192285666Y-69674240D01*
X192264606Y-69674204D01*
X192248350Y-69674070D01*
X192236305Y-69673803D01*
X192227878Y-69673367D01*
X192222474Y-69672727D01*
X192219500Y-69671847D01*
X192218361Y-69670691D01*
X192218286Y-69670187D01*
X192218980Y-69667263D01*
X192220983Y-69659569D01*
X192224175Y-69647542D01*
X192228438Y-69631619D01*
X192233652Y-69612237D01*
X192239699Y-69589832D01*
X192246459Y-69564841D01*
X192253814Y-69537702D01*
X192261645Y-69508851D01*
X192269832Y-69478725D01*
X192278256Y-69447761D01*
X192286799Y-69416395D01*
X192295342Y-69385066D01*
X192303765Y-69354209D01*
X192311949Y-69324261D01*
X192319776Y-69295660D01*
X192327126Y-69268841D01*
X192333881Y-69244244D01*
X192339921Y-69222303D01*
X192345127Y-69203455D01*
X192349381Y-69188139D01*
X192352563Y-69176790D01*
X192354555Y-69169846D01*
X192354883Y-69168751D01*
X192355692Y-69167301D01*
X192357540Y-69166181D01*
X192361051Y-69165347D01*
X192366848Y-69164760D01*
X192375555Y-69164376D01*
X192387795Y-69164154D01*
X192404192Y-69164051D01*
X192425165Y-69164027D01*
X192494003Y-69164027D01*
X192492036Y-69170101D01*
G37*
G36*
X190929377Y-69229417D02*
G01*
X190931265Y-69231680D01*
X190933160Y-69236263D01*
X190935265Y-69243835D01*
X190937779Y-69255064D01*
X190940904Y-69270616D01*
X190942736Y-69280107D01*
X190945101Y-69292666D01*
X190946885Y-69303113D01*
X190948149Y-69312492D01*
X190948952Y-69321850D01*
X190949353Y-69332234D01*
X190949412Y-69344689D01*
X190949188Y-69360262D01*
X190948741Y-69379999D01*
X190948642Y-69384039D01*
X190947093Y-69426039D01*
X190944491Y-69471161D01*
X190940946Y-69518367D01*
X190936570Y-69566619D01*
X190931474Y-69614878D01*
X190925769Y-69662107D01*
X190919566Y-69707266D01*
X190912978Y-69749317D01*
X190906114Y-69787221D01*
X190904686Y-69794370D01*
X190900679Y-69812937D01*
X190895672Y-69834384D01*
X190890005Y-69857395D01*
X190884019Y-69880654D01*
X190878053Y-69902846D01*
X190872447Y-69922655D01*
X190867542Y-69938766D01*
X190866653Y-69941495D01*
X190859066Y-69964441D01*
X190781454Y-69965157D01*
X190761612Y-69965272D01*
X190743644Y-69965243D01*
X190728224Y-69965083D01*
X190716025Y-69964803D01*
X190707722Y-69964415D01*
X190703987Y-69963932D01*
X190703846Y-69963808D01*
X190704811Y-69960661D01*
X190707449Y-69953527D01*
X190711375Y-69943412D01*
X190716205Y-69931322D01*
X190717065Y-69929200D01*
X190729137Y-69897561D01*
X190739852Y-69865214D01*
X190749470Y-69831174D01*
X190758252Y-69794456D01*
X190766459Y-69754078D01*
X190772507Y-69720133D01*
X190780219Y-69670567D01*
X190786796Y-69620127D01*
X190792115Y-69570075D01*
X190796055Y-69521676D01*
X190798491Y-69476193D01*
X190799256Y-69445016D01*
X190799377Y-69428956D01*
X190799277Y-69417182D01*
X190798820Y-69408585D01*
X190797870Y-69402054D01*
X190796291Y-69396477D01*
X190793945Y-69390744D01*
X190792100Y-69386739D01*
X190784091Y-69372052D01*
X190774774Y-69360537D01*
X190762514Y-69350334D01*
X190756379Y-69346178D01*
X190750051Y-69341902D01*
X190745716Y-69338040D01*
X190742574Y-69333277D01*
X190739822Y-69326299D01*
X190736659Y-69315791D01*
X190735611Y-69312108D01*
X190732261Y-69299580D01*
X190730598Y-69291253D01*
X190730498Y-69286243D01*
X190731666Y-69283818D01*
X190734790Y-69282548D01*
X190742414Y-69280070D01*
X190753828Y-69276585D01*
X190768320Y-69272292D01*
X190785178Y-69267392D01*
X190803690Y-69262085D01*
X190823146Y-69256571D01*
X190842834Y-69251050D01*
X190862042Y-69245722D01*
X190880059Y-69240787D01*
X190896173Y-69236445D01*
X190909673Y-69232896D01*
X190919847Y-69230341D01*
X190925984Y-69228979D01*
X190927296Y-69228808D01*
X190929377Y-69229417D01*
G37*
G36*
X190991731Y-68794575D02*
G01*
X190995849Y-68801089D01*
X191001038Y-68810527D01*
X191006833Y-68821902D01*
X191012769Y-68834227D01*
X191018379Y-68846515D01*
X191023199Y-68857778D01*
X191026762Y-68867031D01*
X191028603Y-68873285D01*
X191028540Y-68875450D01*
X191025727Y-68876907D01*
X191018189Y-68880469D01*
X191006135Y-68886044D01*
X190989772Y-68893538D01*
X190969305Y-68902859D01*
X190944944Y-68913913D01*
X190916895Y-68926607D01*
X190885365Y-68940847D01*
X190850561Y-68956542D01*
X190812691Y-68973598D01*
X190771961Y-68991921D01*
X190728579Y-69011419D01*
X190682753Y-69031998D01*
X190634688Y-69053566D01*
X190584594Y-69076029D01*
X190532675Y-69099294D01*
X190479141Y-69123268D01*
X190424198Y-69147858D01*
X190368053Y-69172971D01*
X190310913Y-69198514D01*
X190252986Y-69224394D01*
X190194478Y-69250517D01*
X190135597Y-69276791D01*
X190109943Y-69288233D01*
X190076790Y-69303019D01*
X190044739Y-69317317D01*
X190014175Y-69330954D01*
X189985483Y-69343758D01*
X189959047Y-69355558D01*
X189935254Y-69366181D01*
X189914488Y-69375456D01*
X189897133Y-69383211D01*
X189883577Y-69389273D01*
X189874202Y-69393472D01*
X189869534Y-69395571D01*
X189857542Y-69400868D01*
X189849237Y-69404069D01*
X189843468Y-69405468D01*
X189839080Y-69405357D01*
X189835441Y-69404242D01*
X189828797Y-69398978D01*
X189824715Y-69390669D01*
X189823679Y-69381251D01*
X189826174Y-69372662D01*
X189827166Y-69371180D01*
X189830228Y-69369115D01*
X189837655Y-69364969D01*
X189848942Y-69358999D01*
X189863587Y-69351461D01*
X189881087Y-69342613D01*
X189900940Y-69332710D01*
X189922642Y-69322010D01*
X189941222Y-69312940D01*
X189955196Y-69306108D01*
X189973682Y-69297006D01*
X189996369Y-69285790D01*
X190022945Y-69272615D01*
X190053097Y-69257637D01*
X190086515Y-69241011D01*
X190122887Y-69222893D01*
X190161900Y-69203438D01*
X190203244Y-69182802D01*
X190246607Y-69161140D01*
X190291676Y-69138607D01*
X190338141Y-69115360D01*
X190385689Y-69091553D01*
X190434009Y-69067342D01*
X190482790Y-69042883D01*
X190518211Y-69025111D01*
X190565329Y-69001479D01*
X190611187Y-68978512D01*
X190655548Y-68956326D01*
X190698177Y-68935038D01*
X190738840Y-68914764D01*
X190777300Y-68895621D01*
X190813323Y-68877724D01*
X190846674Y-68861191D01*
X190877116Y-68846138D01*
X190904416Y-68832681D01*
X190928337Y-68820937D01*
X190948645Y-68811022D01*
X190965105Y-68803052D01*
X190977480Y-68797145D01*
X190985536Y-68793416D01*
X190989038Y-68791982D01*
X190989152Y-68791971D01*
X190991731Y-68794575D01*
G37*
G36*
X191973977Y-69007518D02*
G01*
X192246631Y-69007527D01*
X192264799Y-69036822D01*
X192271820Y-69048261D01*
X192277838Y-69058284D01*
X192282250Y-69065872D01*
X192284452Y-69070004D01*
X192284524Y-69070178D01*
X192284112Y-69073444D01*
X192282385Y-69081455D01*
X192279462Y-69093749D01*
X192275459Y-69109864D01*
X192270495Y-69129341D01*
X192264687Y-69151717D01*
X192258152Y-69176531D01*
X192251010Y-69203322D01*
X192243376Y-69231629D01*
X192242953Y-69233188D01*
X192235179Y-69261841D01*
X192227758Y-69289208D01*
X192220821Y-69314798D01*
X192214502Y-69338121D01*
X192208932Y-69358688D01*
X192204246Y-69376006D01*
X192200575Y-69389587D01*
X192198053Y-69398939D01*
X192196813Y-69403573D01*
X192196811Y-69403578D01*
X192195485Y-69407816D01*
X192193526Y-69411604D01*
X192190286Y-69415531D01*
X192185118Y-69420187D01*
X192177373Y-69426162D01*
X192166402Y-69434045D01*
X192153038Y-69443397D01*
X192112276Y-69471775D01*
X191915649Y-69471775D01*
X191719021Y-69471775D01*
X191715009Y-69485947D01*
X191713319Y-69492082D01*
X191710455Y-69502663D01*
X191706625Y-69516918D01*
X191702036Y-69534073D01*
X191696894Y-69553356D01*
X191691407Y-69573992D01*
X191689161Y-69582456D01*
X191683746Y-69602858D01*
X191678730Y-69621719D01*
X191674295Y-69638367D01*
X191670617Y-69652133D01*
X191667877Y-69662345D01*
X191666253Y-69668333D01*
X191665921Y-69669516D01*
X191665132Y-69670952D01*
X191663314Y-69672065D01*
X191659849Y-69672896D01*
X191654121Y-69673486D01*
X191645513Y-69673874D01*
X191633410Y-69674103D01*
X191617193Y-69674211D01*
X191596248Y-69674240D01*
X191594195Y-69674240D01*
X191523874Y-69674240D01*
X191525458Y-69668166D01*
X191526340Y-69664839D01*
X191528526Y-69656614D01*
X191531931Y-69643811D01*
X191536470Y-69626750D01*
X191542058Y-69605749D01*
X191548610Y-69581129D01*
X191556041Y-69553209D01*
X191564266Y-69522309D01*
X191573199Y-69488747D01*
X191582757Y-69452845D01*
X191592853Y-69414921D01*
X191603402Y-69375294D01*
X191607890Y-69358436D01*
X191749007Y-69358436D01*
X191910056Y-69357740D01*
X192071106Y-69357044D01*
X192093414Y-69273358D01*
X192099382Y-69250971D01*
X192105372Y-69228504D01*
X192111115Y-69206960D01*
X192116344Y-69187344D01*
X192120792Y-69170662D01*
X192124189Y-69157918D01*
X192124900Y-69155253D01*
X192134077Y-69120834D01*
X191973041Y-69120849D01*
X191812005Y-69120865D01*
X191790728Y-69201161D01*
X191784814Y-69223475D01*
X191778794Y-69246188D01*
X191772958Y-69268197D01*
X191767601Y-69288398D01*
X191763014Y-69305687D01*
X191759490Y-69318963D01*
X191759229Y-69319946D01*
X191749007Y-69358436D01*
X191607890Y-69358436D01*
X191614183Y-69334801D01*
X191701324Y-69007510D01*
X191973977Y-69007518D01*
G37*
G36*
X191039129Y-69028164D02*
G01*
X191042220Y-69033858D01*
X191046268Y-69043811D01*
X191051435Y-69058402D01*
X191054775Y-69068428D01*
X191059350Y-69082721D01*
X191063164Y-69095295D01*
X191065954Y-69105226D01*
X191067455Y-69111591D01*
X191067606Y-69113408D01*
X191064858Y-69114878D01*
X191057578Y-69117582D01*
X191046438Y-69121304D01*
X191032107Y-69125828D01*
X191015255Y-69130938D01*
X190996552Y-69136419D01*
X190993897Y-69137182D01*
X190936816Y-69153559D01*
X190884569Y-69168545D01*
X190836801Y-69182241D01*
X190793160Y-69194750D01*
X190753289Y-69206171D01*
X190716835Y-69216606D01*
X190683443Y-69226157D01*
X190652759Y-69234925D01*
X190624429Y-69243011D01*
X190598097Y-69250517D01*
X190573410Y-69257543D01*
X190550013Y-69264192D01*
X190527551Y-69270563D01*
X190505671Y-69276760D01*
X190489229Y-69281409D01*
X190458287Y-69290162D01*
X190423635Y-69299978D01*
X190386753Y-69310437D01*
X190349124Y-69321118D01*
X190312228Y-69331601D01*
X190277546Y-69341465D01*
X190246559Y-69350290D01*
X190246270Y-69350373D01*
X190219481Y-69358002D01*
X190192497Y-69365673D01*
X190166136Y-69373155D01*
X190141215Y-69380215D01*
X190118552Y-69386623D01*
X190098965Y-69392147D01*
X190083271Y-69396555D01*
X190076199Y-69398530D01*
X190060236Y-69402976D01*
X190040364Y-69408515D01*
X190017873Y-69414785D01*
X189994054Y-69421428D01*
X189970197Y-69428084D01*
X189949651Y-69433818D01*
X189929741Y-69439316D01*
X189911270Y-69444304D01*
X189894947Y-69448599D01*
X189881478Y-69452020D01*
X189871571Y-69454384D01*
X189865933Y-69455509D01*
X189865168Y-69455577D01*
X189858787Y-69453719D01*
X189852287Y-69449219D01*
X189852014Y-69448951D01*
X189846824Y-69440989D01*
X189845186Y-69432160D01*
X189847134Y-69424180D01*
X189851462Y-69419454D01*
X189855070Y-69417936D01*
X189863346Y-69414908D01*
X189875821Y-69410529D01*
X189892028Y-69404958D01*
X189911499Y-69398353D01*
X189933767Y-69390873D01*
X189958363Y-69382676D01*
X189984821Y-69373922D01*
X190011410Y-69365182D01*
X190031400Y-69358618D01*
X190056110Y-69350484D01*
X190085134Y-69340911D01*
X190118070Y-69330034D01*
X190154513Y-69317986D01*
X190194059Y-69304902D01*
X190236305Y-69290916D01*
X190280847Y-69276160D01*
X190327282Y-69260768D01*
X190375204Y-69244876D01*
X190424211Y-69228615D01*
X190473898Y-69212120D01*
X190523863Y-69195525D01*
X190573700Y-69178964D01*
X190598988Y-69170557D01*
X190645777Y-69155007D01*
X190691207Y-69139925D01*
X190735012Y-69125398D01*
X190776925Y-69111514D01*
X190816679Y-69098361D01*
X190854007Y-69086026D01*
X190888642Y-69074598D01*
X190920317Y-69064164D01*
X190948766Y-69054813D01*
X190973722Y-69046633D01*
X190994917Y-69039710D01*
X191012085Y-69034133D01*
X191024960Y-69029991D01*
X191033273Y-69027370D01*
X191036759Y-69026359D01*
X191036834Y-69026350D01*
X191039129Y-69028164D01*
G37*
G36*
X190126482Y-68959377D02*
G01*
X190165407Y-68959416D01*
X190201668Y-68959479D01*
X190234971Y-68959566D01*
X190265024Y-68959676D01*
X190291535Y-68959807D01*
X190314209Y-68959959D01*
X190332754Y-68960131D01*
X190346878Y-68960322D01*
X190356287Y-68960531D01*
X190360688Y-68960756D01*
X190360992Y-68960836D01*
X190358619Y-68962275D01*
X190351702Y-68965953D01*
X190340539Y-68971719D01*
X190325427Y-68979424D01*
X190306664Y-68988917D01*
X190284550Y-69000051D01*
X190259382Y-69012674D01*
X190231457Y-69026638D01*
X190201075Y-69041792D01*
X190168532Y-69057988D01*
X190134128Y-69075075D01*
X190098160Y-69092905D01*
X190074583Y-69104573D01*
X190029716Y-69126781D01*
X189989465Y-69146738D01*
X189953596Y-69164566D01*
X189921875Y-69180383D01*
X189894065Y-69194311D01*
X189869934Y-69206470D01*
X189849246Y-69216980D01*
X189831766Y-69225961D01*
X189817261Y-69233533D01*
X189805496Y-69239818D01*
X189796236Y-69244934D01*
X189789246Y-69249002D01*
X189784292Y-69252143D01*
X189781140Y-69254477D01*
X189779944Y-69255620D01*
X189774460Y-69263049D01*
X189768305Y-69273144D01*
X189763329Y-69282679D01*
X189759282Y-69291770D01*
X189756794Y-69299434D01*
X189755495Y-69307577D01*
X189755018Y-69318108D01*
X189754973Y-69325999D01*
X189755159Y-69338729D01*
X189755951Y-69348006D01*
X189757735Y-69355771D01*
X189760897Y-69363965D01*
X189763759Y-69370198D01*
X189769652Y-69381636D01*
X189776391Y-69393203D01*
X189782008Y-69401668D01*
X189790696Y-69417207D01*
X189796845Y-69435523D01*
X189804618Y-69458272D01*
X189815439Y-69476857D01*
X189829707Y-69491662D01*
X189847825Y-69503069D01*
X189870193Y-69511463D01*
X189878531Y-69513626D01*
X189894783Y-69516741D01*
X189907587Y-69517343D01*
X189918313Y-69515356D01*
X189927993Y-69510903D01*
X189934792Y-69507402D01*
X189939465Y-69505898D01*
X189940608Y-69506179D01*
X189940844Y-69509909D01*
X189940338Y-69517966D01*
X189939215Y-69529348D01*
X189937599Y-69543053D01*
X189935614Y-69558078D01*
X189933386Y-69573422D01*
X189931039Y-69588082D01*
X189929027Y-69599343D01*
X189921945Y-69631175D01*
X189913150Y-69660009D01*
X189902035Y-69687268D01*
X189887992Y-69714375D01*
X189870414Y-69742754D01*
X189863333Y-69753221D01*
X189843540Y-69782854D01*
X189827257Y-69809415D01*
X189814174Y-69833645D01*
X189803981Y-69856287D01*
X189796367Y-69878084D01*
X189791023Y-69899777D01*
X189787638Y-69922110D01*
X189786333Y-69937446D01*
X189784648Y-69964441D01*
X189596324Y-69965134D01*
X189407999Y-69965828D01*
X189408705Y-69517010D01*
X189409412Y-69068193D01*
X189416540Y-69052990D01*
X189423409Y-69041459D01*
X189433641Y-69028184D01*
X189446091Y-69014391D01*
X189459613Y-69001307D01*
X189473062Y-68990160D01*
X189479300Y-68985762D01*
X189490356Y-68979412D01*
X189503797Y-68972968D01*
X189516804Y-68967777D01*
X189517393Y-68967574D01*
X189538990Y-68960211D01*
X189949995Y-68959486D01*
X189996649Y-68959417D01*
X190041810Y-68959376D01*
X190085185Y-68959363D01*
X190126482Y-68959377D01*
G37*
G36*
X194610000Y-69164029D02*
G01*
X194645168Y-69164041D01*
X194675611Y-69164070D01*
X194701668Y-69164125D01*
X194723674Y-69164213D01*
X194741968Y-69164343D01*
X194756887Y-69164521D01*
X194768768Y-69164757D01*
X194777949Y-69165057D01*
X194784766Y-69165430D01*
X194789557Y-69165884D01*
X194792660Y-69166426D01*
X194794411Y-69167065D01*
X194795148Y-69167808D01*
X194795209Y-69168663D01*
X194795043Y-69169291D01*
X194793849Y-69173461D01*
X194791621Y-69181608D01*
X194788611Y-69192776D01*
X194785071Y-69206010D01*
X194781257Y-69220354D01*
X194777419Y-69234852D01*
X194773813Y-69248548D01*
X194770691Y-69260487D01*
X194768306Y-69269712D01*
X194766911Y-69275268D01*
X194766655Y-69276449D01*
X194764034Y-69276624D01*
X194756490Y-69276789D01*
X194744497Y-69276940D01*
X194728531Y-69277075D01*
X194709067Y-69277191D01*
X194686580Y-69277285D01*
X194661545Y-69277355D01*
X194634437Y-69277396D01*
X194610524Y-69277407D01*
X194454393Y-69277407D01*
X194423888Y-69391463D01*
X194417170Y-69416581D01*
X194410611Y-69441097D01*
X194404403Y-69464301D01*
X194398736Y-69485478D01*
X194393801Y-69503915D01*
X194389789Y-69518901D01*
X194386890Y-69529722D01*
X194385960Y-69533189D01*
X194378537Y-69560859D01*
X194534393Y-69560859D01*
X194690248Y-69560859D01*
X194676166Y-69613326D01*
X194671783Y-69629570D01*
X194667792Y-69644197D01*
X194664432Y-69656341D01*
X194661944Y-69665139D01*
X194660566Y-69669726D01*
X194660463Y-69670017D01*
X194659762Y-69670776D01*
X194658053Y-69671439D01*
X194655002Y-69672013D01*
X194650269Y-69672505D01*
X194643519Y-69672919D01*
X194634415Y-69673263D01*
X194622619Y-69673543D01*
X194607795Y-69673766D01*
X194589605Y-69673937D01*
X194567713Y-69674062D01*
X194541782Y-69674149D01*
X194511474Y-69674204D01*
X194476454Y-69674232D01*
X194436383Y-69674240D01*
X194434855Y-69674240D01*
X194400566Y-69674216D01*
X194367847Y-69674147D01*
X194337099Y-69674037D01*
X194308722Y-69673888D01*
X194283115Y-69673704D01*
X194260677Y-69673490D01*
X194241809Y-69673249D01*
X194226911Y-69672983D01*
X194216381Y-69672698D01*
X194210620Y-69672396D01*
X194209621Y-69672216D01*
X194210127Y-69669376D01*
X194211942Y-69661681D01*
X194214974Y-69649493D01*
X194219127Y-69633169D01*
X194224310Y-69613069D01*
X194230428Y-69589553D01*
X194237387Y-69562980D01*
X194245094Y-69533710D01*
X194253455Y-69502102D01*
X194262376Y-69468516D01*
X194271765Y-69433311D01*
X194275556Y-69419133D01*
X194285117Y-69383386D01*
X194294272Y-69349117D01*
X194302926Y-69316686D01*
X194310985Y-69286453D01*
X194318351Y-69258776D01*
X194324930Y-69234017D01*
X194330627Y-69212535D01*
X194335345Y-69194688D01*
X194338989Y-69180837D01*
X194341463Y-69171341D01*
X194342673Y-69166560D01*
X194342781Y-69166051D01*
X194345422Y-69165744D01*
X194353068Y-69165450D01*
X194365324Y-69165175D01*
X194381796Y-69164920D01*
X194402090Y-69164690D01*
X194425812Y-69164489D01*
X194452568Y-69164319D01*
X194481962Y-69164185D01*
X194513601Y-69164090D01*
X194547091Y-69164037D01*
X194569770Y-69164027D01*
X194610000Y-69164029D01*
G37*
G36*
X189205596Y-69782195D02*
G01*
X189205596Y-69995478D01*
X190164609Y-69996157D01*
X191123621Y-69996836D01*
X191124357Y-70046102D01*
X191125093Y-70095369D01*
X189953430Y-70095369D01*
X188781768Y-70095369D01*
X188781768Y-70071073D01*
X188781768Y-70046777D01*
X188752073Y-70046777D01*
X188722378Y-70046777D01*
X188722378Y-70040028D01*
X188722378Y-70033279D01*
X189887231Y-70033279D01*
X189996202Y-70033273D01*
X190099846Y-70033254D01*
X190198158Y-70033223D01*
X190291135Y-70033179D01*
X190378774Y-70033123D01*
X190461070Y-70033055D01*
X190538020Y-70032973D01*
X190609621Y-70032880D01*
X190675869Y-70032774D01*
X190736760Y-70032655D01*
X190792291Y-70032524D01*
X190842458Y-70032381D01*
X190887257Y-70032225D01*
X190926686Y-70032057D01*
X190960740Y-70031877D01*
X190989416Y-70031684D01*
X191012710Y-70031478D01*
X191030619Y-70031261D01*
X191043138Y-70031031D01*
X191050266Y-70030788D01*
X191052083Y-70030580D01*
X191049385Y-70030327D01*
X191041290Y-70030087D01*
X191027804Y-70029859D01*
X191008929Y-70029644D01*
X190984670Y-70029441D01*
X190955029Y-70029250D01*
X190920011Y-70029072D01*
X190879619Y-70028906D01*
X190833857Y-70028752D01*
X190782728Y-70028611D01*
X190726236Y-70028482D01*
X190664384Y-70028366D01*
X190597176Y-70028262D01*
X190524616Y-70028171D01*
X190446707Y-70028092D01*
X190363452Y-70028026D01*
X190274856Y-70027972D01*
X190180922Y-70027930D01*
X190081654Y-70027901D01*
X189977055Y-70027885D01*
X189887231Y-70027880D01*
X188722378Y-70027880D01*
X188722378Y-69963091D01*
X188722378Y-69898302D01*
X188961287Y-69898302D01*
X189003032Y-69898294D01*
X189039698Y-69898267D01*
X189071606Y-69898214D01*
X189099076Y-69898131D01*
X189122428Y-69898011D01*
X189141983Y-69897851D01*
X189158061Y-69897643D01*
X189170983Y-69897383D01*
X189181069Y-69897066D01*
X189188640Y-69896686D01*
X189194015Y-69896237D01*
X189197516Y-69895714D01*
X189199462Y-69895111D01*
X189200174Y-69894424D01*
X189200197Y-69894253D01*
X189199724Y-69893545D01*
X189198090Y-69892924D01*
X189194976Y-69892383D01*
X189190061Y-69891918D01*
X189183024Y-69891522D01*
X189173546Y-69891190D01*
X189161305Y-69890918D01*
X189145982Y-69890699D01*
X189127256Y-69890528D01*
X189104806Y-69890400D01*
X189078313Y-69890308D01*
X189047456Y-69890249D01*
X189011914Y-69890216D01*
X188971367Y-69890204D01*
X188961287Y-69890204D01*
X188722378Y-69890204D01*
X188722378Y-69869957D01*
X188722378Y-69849711D01*
X188961287Y-69849711D01*
X189003032Y-69849703D01*
X189039698Y-69849675D01*
X189071606Y-69849622D01*
X189099076Y-69849539D01*
X189122428Y-69849420D01*
X189141983Y-69849259D01*
X189158061Y-69849051D01*
X189170983Y-69848792D01*
X189181069Y-69848474D01*
X189188640Y-69848094D01*
X189194015Y-69847645D01*
X189197516Y-69847122D01*
X189199462Y-69846519D01*
X189200174Y-69845832D01*
X189200197Y-69845661D01*
X189199724Y-69844954D01*
X189198090Y-69844332D01*
X189194976Y-69843791D01*
X189190061Y-69843326D01*
X189183024Y-69842930D01*
X189173546Y-69842599D01*
X189161305Y-69842326D01*
X189145982Y-69842107D01*
X189127256Y-69841936D01*
X189104806Y-69841808D01*
X189078313Y-69841717D01*
X189047456Y-69841657D01*
X189011914Y-69841624D01*
X188971367Y-69841612D01*
X188961287Y-69841612D01*
X188722378Y-69841612D01*
X188722378Y-69775473D01*
X188722378Y-69709334D01*
X188816816Y-69709334D01*
X188911255Y-69709334D01*
X188911975Y-69639821D01*
X188912696Y-69570308D01*
X189059146Y-69569610D01*
X189205596Y-69568912D01*
X189205596Y-69782195D01*
G37*
G36*
X194195471Y-69191912D02*
G01*
X194202327Y-69202981D01*
X194207932Y-69212632D01*
X194211719Y-69219844D01*
X194213119Y-69223594D01*
X194213118Y-69223632D01*
X194212408Y-69226975D01*
X194210432Y-69234976D01*
X194207335Y-69247080D01*
X194203260Y-69262733D01*
X194198353Y-69281380D01*
X194192759Y-69302468D01*
X194186623Y-69325442D01*
X194182608Y-69340394D01*
X194152228Y-69453322D01*
X194117274Y-69475371D01*
X194082320Y-69497420D01*
X193939414Y-69498770D01*
X193796508Y-69500120D01*
X193790395Y-69524416D01*
X193787508Y-69535886D01*
X193784977Y-69545943D01*
X193783195Y-69553020D01*
X193782750Y-69554785D01*
X193781219Y-69560859D01*
X193963489Y-69560859D01*
X194000688Y-69560878D01*
X194032806Y-69560939D01*
X194060160Y-69561048D01*
X194083069Y-69561211D01*
X194101851Y-69561433D01*
X194116823Y-69561721D01*
X194128303Y-69562080D01*
X194136610Y-69562517D01*
X194142060Y-69563036D01*
X194144973Y-69563645D01*
X194145690Y-69564234D01*
X194144994Y-69567772D01*
X194143093Y-69575675D01*
X194140200Y-69587101D01*
X194136531Y-69601206D01*
X194132299Y-69617147D01*
X194131466Y-69620249D01*
X194117312Y-69672891D01*
X193864281Y-69673579D01*
X193822554Y-69673667D01*
X193783830Y-69673696D01*
X193748360Y-69673668D01*
X193716393Y-69673585D01*
X193688180Y-69673449D01*
X193663971Y-69673261D01*
X193644014Y-69673024D01*
X193628561Y-69672738D01*
X193617861Y-69672407D01*
X193612164Y-69672031D01*
X193611250Y-69671791D01*
X193611928Y-69668989D01*
X193613884Y-69661407D01*
X193617002Y-69649482D01*
X193621166Y-69633650D01*
X193626259Y-69614347D01*
X193632167Y-69592009D01*
X193638771Y-69567074D01*
X193645958Y-69539977D01*
X193653609Y-69511155D01*
X193661609Y-69481043D01*
X193669843Y-69450079D01*
X193678193Y-69418698D01*
X193686544Y-69387338D01*
X193687963Y-69382015D01*
X193829932Y-69382015D01*
X193831032Y-69382910D01*
X193834619Y-69383643D01*
X193841103Y-69384228D01*
X193850896Y-69384677D01*
X193864410Y-69385005D01*
X193882056Y-69385224D01*
X193904245Y-69385347D01*
X193931389Y-69385389D01*
X193933742Y-69385389D01*
X194037570Y-69385389D01*
X194040264Y-69375266D01*
X194041910Y-69369107D01*
X194044635Y-69358940D01*
X194048117Y-69345972D01*
X194052030Y-69331407D01*
X194053847Y-69324649D01*
X194057607Y-69310464D01*
X194060807Y-69298000D01*
X194063203Y-69288242D01*
X194064550Y-69282176D01*
X194064755Y-69280782D01*
X194063654Y-69279886D01*
X194060068Y-69279153D01*
X194053584Y-69278569D01*
X194043790Y-69278119D01*
X194030277Y-69277792D01*
X194012631Y-69277573D01*
X193990442Y-69277449D01*
X193963298Y-69277408D01*
X193960945Y-69277407D01*
X193857117Y-69277407D01*
X193854423Y-69287531D01*
X193852777Y-69293690D01*
X193850051Y-69303857D01*
X193846570Y-69316825D01*
X193842657Y-69331389D01*
X193840840Y-69338147D01*
X193837080Y-69352333D01*
X193833879Y-69364797D01*
X193831483Y-69374555D01*
X193830136Y-69380621D01*
X193829932Y-69382015D01*
X193687963Y-69382015D01*
X193694780Y-69356433D01*
X193702784Y-69326421D01*
X193710441Y-69297738D01*
X193717633Y-69270820D01*
X193724246Y-69246103D01*
X193730163Y-69224024D01*
X193735267Y-69205019D01*
X193739443Y-69189525D01*
X193742575Y-69177977D01*
X193744546Y-69170813D01*
X193745139Y-69168751D01*
X193745640Y-69167891D01*
X193746812Y-69167142D01*
X193749004Y-69166496D01*
X193752566Y-69165946D01*
X193757846Y-69165484D01*
X193765194Y-69165102D01*
X193774958Y-69164793D01*
X193787489Y-69164549D01*
X193803136Y-69164362D01*
X193822247Y-69164226D01*
X193845171Y-69164132D01*
X193872259Y-69164073D01*
X193903858Y-69164041D01*
X193940320Y-69164028D01*
X193962143Y-69164027D01*
X194177695Y-69164027D01*
X194195471Y-69191912D01*
G37*
G36*
X195170391Y-69007863D02*
G01*
X195179112Y-69008110D01*
X195184799Y-69008574D01*
X195188045Y-69009290D01*
X195189441Y-69010292D01*
X195189578Y-69011616D01*
X195189447Y-69012132D01*
X195187936Y-69017483D01*
X195185394Y-69026813D01*
X195182036Y-69039315D01*
X195178073Y-69054183D01*
X195173718Y-69070610D01*
X195169183Y-69087787D01*
X195164681Y-69104909D01*
X195160424Y-69121169D01*
X195156625Y-69135758D01*
X195153496Y-69147870D01*
X195151249Y-69156698D01*
X195150098Y-69161436D01*
X195149991Y-69162002D01*
X195152570Y-69162556D01*
X195159823Y-69163052D01*
X195171029Y-69163469D01*
X195185462Y-69163784D01*
X195202400Y-69163976D01*
X195217319Y-69164027D01*
X195235821Y-69164104D01*
X195252472Y-69164323D01*
X195266530Y-69164662D01*
X195277256Y-69165097D01*
X195283909Y-69165608D01*
X195285800Y-69166051D01*
X195285499Y-69169187D01*
X195283960Y-69176661D01*
X195281387Y-69187609D01*
X195277980Y-69201166D01*
X195274254Y-69215318D01*
X195270043Y-69231017D01*
X195266210Y-69245363D01*
X195263021Y-69257357D01*
X195260742Y-69265998D01*
X195259713Y-69269984D01*
X195257869Y-69277407D01*
X195187732Y-69277407D01*
X195168910Y-69277464D01*
X195151996Y-69277624D01*
X195137701Y-69277871D01*
X195126732Y-69278190D01*
X195119799Y-69278565D01*
X195117595Y-69278947D01*
X195116916Y-69281776D01*
X195114967Y-69289328D01*
X195111877Y-69301113D01*
X195107775Y-69316640D01*
X195102793Y-69335420D01*
X195097061Y-69356960D01*
X195090707Y-69380771D01*
X195083862Y-69406363D01*
X195081151Y-69416483D01*
X195074147Y-69442674D01*
X195067585Y-69467312D01*
X195061596Y-69489903D01*
X195056310Y-69509950D01*
X195051857Y-69526954D01*
X195048369Y-69540421D01*
X195045974Y-69549853D01*
X195044804Y-69554753D01*
X195044708Y-69555320D01*
X195047256Y-69556322D01*
X195054943Y-69557105D01*
X195067831Y-69557670D01*
X195085980Y-69558020D01*
X195109453Y-69558157D01*
X195113546Y-69558160D01*
X195132184Y-69558236D01*
X195148905Y-69558449D01*
X195162995Y-69558780D01*
X195173737Y-69559206D01*
X195180416Y-69559706D01*
X195182365Y-69560185D01*
X195181668Y-69563287D01*
X195179735Y-69570782D01*
X195176781Y-69581865D01*
X195173021Y-69595730D01*
X195168670Y-69611568D01*
X195167517Y-69615736D01*
X195163061Y-69631874D01*
X195159141Y-69646173D01*
X195155971Y-69657843D01*
X195153765Y-69666094D01*
X195152737Y-69670138D01*
X195152689Y-69670402D01*
X195150092Y-69670726D01*
X195142710Y-69670995D01*
X195131155Y-69671211D01*
X195116042Y-69671375D01*
X195097984Y-69671490D01*
X195077593Y-69671557D01*
X195055485Y-69671579D01*
X195032271Y-69671557D01*
X195008566Y-69671493D01*
X194984982Y-69671389D01*
X194962134Y-69671247D01*
X194940634Y-69671070D01*
X194921096Y-69670859D01*
X194904134Y-69670615D01*
X194890360Y-69670342D01*
X194880388Y-69670041D01*
X194874832Y-69669713D01*
X194873876Y-69669516D01*
X194874382Y-69666641D01*
X194876190Y-69658970D01*
X194879191Y-69646918D01*
X194883276Y-69630901D01*
X194888339Y-69611334D01*
X194894270Y-69588634D01*
X194900963Y-69563215D01*
X194908308Y-69535493D01*
X194916198Y-69505883D01*
X194923526Y-69478523D01*
X194931864Y-69447462D01*
X194939815Y-69417827D01*
X194947267Y-69390047D01*
X194954104Y-69364550D01*
X194960211Y-69341762D01*
X194965475Y-69322112D01*
X194969780Y-69306027D01*
X194973012Y-69293935D01*
X194975056Y-69286263D01*
X194975776Y-69283530D01*
X194977297Y-69277505D01*
X194914332Y-69276782D01*
X194851367Y-69276058D01*
X194865125Y-69224766D01*
X194869472Y-69208667D01*
X194873443Y-69194151D01*
X194876793Y-69182107D01*
X194879274Y-69173420D01*
X194880640Y-69168977D01*
X194880705Y-69168801D01*
X194881724Y-69167299D01*
X194883900Y-69166137D01*
X194887887Y-69165262D01*
X194894339Y-69164618D01*
X194903911Y-69164151D01*
X194917257Y-69163805D01*
X194935032Y-69163528D01*
X194945395Y-69163402D01*
X195008264Y-69162677D01*
X195028814Y-69085740D01*
X195049364Y-69008803D01*
X195120120Y-69008083D01*
X195141487Y-69007884D01*
X195158047Y-69007800D01*
X195170391Y-69007863D01*
G37*
G36*
X196784426Y-69008093D02*
G01*
X196877622Y-69008803D01*
X196663945Y-69158628D01*
X196633479Y-69179995D01*
X196604198Y-69200542D01*
X196576413Y-69220049D01*
X196550436Y-69238297D01*
X196526580Y-69255067D01*
X196505154Y-69270140D01*
X196486471Y-69283296D01*
X196470842Y-69294316D01*
X196458579Y-69302981D01*
X196449993Y-69309072D01*
X196445397Y-69312369D01*
X196444753Y-69312851D01*
X196443818Y-69313749D01*
X196443288Y-69314928D01*
X196443358Y-69316678D01*
X196444221Y-69319292D01*
X196446073Y-69323061D01*
X196449108Y-69328276D01*
X196453520Y-69335228D01*
X196459505Y-69344210D01*
X196467256Y-69355512D01*
X196476968Y-69369426D01*
X196488835Y-69386243D01*
X196503053Y-69406255D01*
X196519815Y-69429753D01*
X196539316Y-69457029D01*
X196561751Y-69488374D01*
X196563997Y-69491511D01*
X196583556Y-69518855D01*
X196602214Y-69544986D01*
X196619730Y-69569564D01*
X196635862Y-69592248D01*
X196650371Y-69612700D01*
X196663015Y-69630577D01*
X196673554Y-69645541D01*
X196681746Y-69657251D01*
X196687351Y-69665367D01*
X196690127Y-69669549D01*
X196690382Y-69670007D01*
X196690393Y-69671209D01*
X196689042Y-69672163D01*
X196685790Y-69672895D01*
X196680099Y-69673435D01*
X196671432Y-69673811D01*
X196659250Y-69674051D01*
X196643014Y-69674183D01*
X196622188Y-69674235D01*
X196609852Y-69674240D01*
X196586653Y-69674232D01*
X196568250Y-69674181D01*
X196554041Y-69674044D01*
X196543422Y-69673780D01*
X196535792Y-69673347D01*
X196530547Y-69672703D01*
X196527085Y-69671807D01*
X196524802Y-69670616D01*
X196523097Y-69669089D01*
X196522255Y-69668166D01*
X196519678Y-69664857D01*
X196514277Y-69657582D01*
X196506362Y-69646770D01*
X196496243Y-69632851D01*
X196484233Y-69616254D01*
X196470641Y-69597408D01*
X196455780Y-69576743D01*
X196439959Y-69554687D01*
X196432278Y-69543959D01*
X196416285Y-69521678D01*
X196401222Y-69500825D01*
X196387381Y-69481796D01*
X196375055Y-69464985D01*
X196364535Y-69450788D01*
X196356112Y-69439599D01*
X196350079Y-69431814D01*
X196346728Y-69427828D01*
X196346141Y-69427389D01*
X196345137Y-69430236D01*
X196342889Y-69437781D01*
X196339542Y-69449505D01*
X196335240Y-69464887D01*
X196330126Y-69483409D01*
X196324346Y-69504551D01*
X196318043Y-69527792D01*
X196311817Y-69550921D01*
X196279097Y-69672891D01*
X196210097Y-69673611D01*
X196191356Y-69673728D01*
X196174456Y-69673684D01*
X196160129Y-69673494D01*
X196149107Y-69673170D01*
X196142120Y-69672728D01*
X196139895Y-69672261D01*
X196140430Y-69669443D01*
X196142288Y-69661728D01*
X196145385Y-69649429D01*
X196149638Y-69632863D01*
X196154964Y-69612343D01*
X196161281Y-69588186D01*
X196168506Y-69560705D01*
X196176556Y-69530217D01*
X196185348Y-69497036D01*
X196194800Y-69461477D01*
X196204828Y-69423855D01*
X196215349Y-69384486D01*
X196225957Y-69344896D01*
X196236916Y-69304039D01*
X196247503Y-69264568D01*
X196257630Y-69226804D01*
X196267212Y-69191066D01*
X196276164Y-69157676D01*
X196284399Y-69126953D01*
X196291831Y-69099219D01*
X196298375Y-69074792D01*
X196303945Y-69053994D01*
X196308455Y-69037145D01*
X196311819Y-69024566D01*
X196313951Y-69016576D01*
X196314758Y-69013527D01*
X196316295Y-69007453D01*
X196386432Y-69007453D01*
X196405254Y-69007508D01*
X196422168Y-69007663D01*
X196436463Y-69007903D01*
X196447432Y-69008212D01*
X196454365Y-69008576D01*
X196456569Y-69008947D01*
X196455899Y-69011831D01*
X196454021Y-69019190D01*
X196451130Y-69030287D01*
X196447425Y-69044384D01*
X196443101Y-69060743D01*
X196438355Y-69078627D01*
X196433383Y-69097297D01*
X196428382Y-69116015D01*
X196423549Y-69134046D01*
X196419080Y-69150649D01*
X196415171Y-69165089D01*
X196412020Y-69176626D01*
X196409823Y-69184523D01*
X196409289Y-69186383D01*
X196407628Y-69193358D01*
X196407442Y-69197310D01*
X196408159Y-69197658D01*
X196410810Y-69195901D01*
X196417550Y-69191390D01*
X196427993Y-69184387D01*
X196441750Y-69175153D01*
X196458432Y-69163949D01*
X196477651Y-69151035D01*
X196499017Y-69136673D01*
X196522144Y-69121123D01*
X196546641Y-69104647D01*
X196551015Y-69101704D01*
X196691229Y-69007383D01*
X196784426Y-69008093D01*
G37*
G36*
X190649869Y-69312538D02*
G01*
X190655003Y-69314592D01*
X190658962Y-69317587D01*
X190665252Y-69326850D01*
X190669012Y-69339798D01*
X190670007Y-69355226D01*
X190668773Y-69367842D01*
X190667344Y-69376685D01*
X190666362Y-69383239D01*
X190666064Y-69385758D01*
X190668461Y-69387119D01*
X190674576Y-69388657D01*
X190678808Y-69389389D01*
X190692955Y-69392940D01*
X190705660Y-69398732D01*
X190714987Y-69405876D01*
X190715213Y-69406122D01*
X190722714Y-69418159D01*
X190726997Y-69433463D01*
X190727863Y-69450825D01*
X190725432Y-69467725D01*
X190724450Y-69474226D01*
X190723476Y-69484863D01*
X190722601Y-69498375D01*
X190721915Y-69513501D01*
X190721695Y-69520366D01*
X190720331Y-69548330D01*
X190717768Y-69580274D01*
X190714172Y-69614954D01*
X190709707Y-69651126D01*
X190704541Y-69687548D01*
X190698838Y-69722974D01*
X190692764Y-69756162D01*
X190686486Y-69785867D01*
X190686081Y-69787621D01*
X190679167Y-69814045D01*
X190670319Y-69842729D01*
X190660165Y-69871896D01*
X190649334Y-69899768D01*
X190638454Y-69924568D01*
X190635495Y-69930697D01*
X190618807Y-69964441D01*
X190553343Y-69965164D01*
X190535188Y-69965272D01*
X190518967Y-69965192D01*
X190505413Y-69964942D01*
X190495260Y-69964540D01*
X190489241Y-69964004D01*
X190487879Y-69963544D01*
X190489345Y-69960141D01*
X190493068Y-69954155D01*
X190495498Y-69950674D01*
X190517529Y-69916649D01*
X190537765Y-69878173D01*
X190555934Y-69835976D01*
X190571765Y-69790786D01*
X190584987Y-69743333D01*
X190595327Y-69694345D01*
X190598774Y-69673301D01*
X190601099Y-69657067D01*
X190602485Y-69645439D01*
X190602977Y-69637715D01*
X190602618Y-69633192D01*
X190601454Y-69631168D01*
X190601420Y-69631147D01*
X190597718Y-69630082D01*
X190590249Y-69628704D01*
X190580344Y-69627184D01*
X190569333Y-69625693D01*
X190558545Y-69624402D01*
X190549311Y-69623483D01*
X190542960Y-69623108D01*
X190540826Y-69623337D01*
X190540143Y-69626205D01*
X190538766Y-69633402D01*
X190536878Y-69643929D01*
X190534661Y-69656789D01*
X190533994Y-69660743D01*
X190522893Y-69716237D01*
X190508904Y-69767356D01*
X190491914Y-69814355D01*
X190471811Y-69857490D01*
X190448483Y-69897015D01*
X190421818Y-69933185D01*
X190406683Y-69950659D01*
X190392853Y-69965791D01*
X190308088Y-69965791D01*
X190287314Y-69965724D01*
X190268385Y-69965534D01*
X190251945Y-69965237D01*
X190238640Y-69964851D01*
X190229115Y-69964392D01*
X190224014Y-69963876D01*
X190223324Y-69963596D01*
X190225123Y-69960545D01*
X190229638Y-69955512D01*
X190231725Y-69953473D01*
X190240025Y-69944885D01*
X190250434Y-69932991D01*
X190262030Y-69918950D01*
X190273891Y-69903925D01*
X190285094Y-69889076D01*
X190294716Y-69875564D01*
X190300040Y-69867488D01*
X190325808Y-69821390D01*
X190346821Y-69772826D01*
X190363015Y-69722005D01*
X190374326Y-69669135D01*
X190380688Y-69614427D01*
X190381268Y-69605045D01*
X190381719Y-69590533D01*
X190381648Y-69574787D01*
X190381125Y-69558826D01*
X190380218Y-69543671D01*
X190378996Y-69530341D01*
X190377526Y-69519857D01*
X190375878Y-69513239D01*
X190375005Y-69511694D01*
X190371050Y-69510641D01*
X190362423Y-69510272D01*
X190349807Y-69510600D01*
X190342397Y-69511019D01*
X190312409Y-69512962D01*
X190312409Y-69565118D01*
X190311713Y-69602191D01*
X190309551Y-69635061D01*
X190305813Y-69664751D01*
X190300388Y-69692285D01*
X190297463Y-69703894D01*
X190282472Y-69749466D01*
X190262569Y-69793405D01*
X190238168Y-69834857D01*
X190225463Y-69852967D01*
X190214927Y-69866210D01*
X190201370Y-69881795D01*
X190185894Y-69898575D01*
X190169598Y-69915403D01*
X190153583Y-69931131D01*
X190138950Y-69944613D01*
X190131239Y-69951188D01*
X190113391Y-69965791D01*
X189986138Y-69965791D01*
X189858885Y-69965791D01*
X189858885Y-69944626D01*
X189859952Y-69924959D01*
X189863352Y-69905761D01*
X189869387Y-69886312D01*
X189878356Y-69865893D01*
X189879480Y-69863856D01*
X189961822Y-69863856D01*
X189975758Y-69891877D01*
X189981477Y-69902914D01*
X189986572Y-69911903D01*
X189990467Y-69917883D01*
X189992519Y-69919899D01*
X189996014Y-69918635D01*
X190002906Y-69915265D01*
X190011935Y-69910417D01*
X190015674Y-69908313D01*
X190050636Y-69885333D01*
X190082373Y-69858262D01*
X190110634Y-69827513D01*
X190135170Y-69793498D01*
X190155731Y-69756633D01*
X190172065Y-69717329D01*
X190183923Y-69676002D01*
X190191055Y-69633063D01*
X190192501Y-69615993D01*
X190192822Y-69605032D01*
X190192648Y-69592235D01*
X190192065Y-69578807D01*
X190191156Y-69565952D01*
X190190008Y-69554874D01*
X190188706Y-69546778D01*
X190187335Y-69542868D01*
X190187326Y-69542858D01*
X190184445Y-69542874D01*
X190177339Y-69543635D01*
X190167110Y-69545006D01*
X190156080Y-69546661D01*
X190125783Y-69551411D01*
X190124967Y-69590554D01*
X190122327Y-69629888D01*
X190115932Y-69666012D01*
X190105486Y-69699860D01*
X190090697Y-69732365D01*
X190071270Y-69764460D01*
X190069249Y-69767411D01*
X190056982Y-69783174D01*
X190041348Y-69800282D01*
X190023692Y-69817442D01*
X190005361Y-69833364D01*
X189987699Y-69846757D01*
X189983835Y-69849369D01*
X189961822Y-69863856D01*
X189879480Y-69863856D01*
X189890559Y-69843782D01*
X189906298Y-69819260D01*
X189918416Y-69801896D01*
X189928668Y-69787125D01*
X189938980Y-69771483D01*
X189948393Y-69756478D01*
X189955947Y-69743618D01*
X189958434Y-69739029D01*
X189972654Y-69708510D01*
X189984682Y-69675488D01*
X189994652Y-69639405D01*
X190002704Y-69599704D01*
X190008973Y-69555825D01*
X190012756Y-69517846D01*
X190013916Y-69504970D01*
X190015056Y-69494167D01*
X190016051Y-69486511D01*
X190016776Y-69483074D01*
X190016821Y-69483010D01*
X190019568Y-69482101D01*
X190027107Y-69479877D01*
X190039025Y-69476454D01*
X190054908Y-69471947D01*
X190074344Y-69466473D01*
X190096919Y-69460149D01*
X190122220Y-69453090D01*
X190149833Y-69445412D01*
X190179344Y-69437232D01*
X190206419Y-69429748D01*
X190251875Y-69417199D01*
X190292474Y-69405989D01*
X190328564Y-69396022D01*
X190360492Y-69387200D01*
X190388606Y-69379427D01*
X190413255Y-69372606D01*
X190434784Y-69366638D01*
X190453543Y-69361429D01*
X190469878Y-69356880D01*
X190484137Y-69352895D01*
X190496668Y-69349376D01*
X190507819Y-69346227D01*
X190517937Y-69343351D01*
X190527370Y-69340650D01*
X190536466Y-69338028D01*
X190545571Y-69335388D01*
X190555034Y-69332632D01*
X190565203Y-69329664D01*
X190566166Y-69329383D01*
X190589412Y-69322722D01*
X190608141Y-69317704D01*
X190622951Y-69314253D01*
X190634442Y-69312293D01*
X190643215Y-69311746D01*
X190649869Y-69312538D01*
G37*
G36*
X190139957Y-70100751D02*
G01*
X190225373Y-70100755D01*
X190305838Y-70100763D01*
X190381500Y-70100775D01*
X190452507Y-70100793D01*
X190519010Y-70100816D01*
X190581158Y-70100846D01*
X190639098Y-70100882D01*
X190692981Y-70100925D01*
X190742956Y-70100976D01*
X190789170Y-70101035D01*
X190831775Y-70101104D01*
X190870918Y-70101181D01*
X190906748Y-70101268D01*
X190939415Y-70101366D01*
X190969068Y-70101474D01*
X190995855Y-70101594D01*
X191019927Y-70101726D01*
X191041431Y-70101871D01*
X191060517Y-70102028D01*
X191077334Y-70102199D01*
X191092031Y-70102384D01*
X191104757Y-70102584D01*
X191115661Y-70102799D01*
X191124892Y-70103029D01*
X191132599Y-70103276D01*
X191138932Y-70103540D01*
X191144039Y-70103820D01*
X191148069Y-70104119D01*
X191151171Y-70104436D01*
X191153495Y-70104771D01*
X191154743Y-70105019D01*
X191171595Y-70110439D01*
X191183978Y-70118200D01*
X191192465Y-70128702D01*
X191194593Y-70133037D01*
X191196771Y-70141183D01*
X191198451Y-70153537D01*
X191199615Y-70168928D01*
X191200240Y-70186186D01*
X191200308Y-70204141D01*
X191199799Y-70221621D01*
X191198691Y-70237457D01*
X191196965Y-70250479D01*
X191196644Y-70252156D01*
X191188980Y-70279282D01*
X191177775Y-70302378D01*
X191163066Y-70321404D01*
X191144889Y-70336320D01*
X191123282Y-70347085D01*
X191105595Y-70352249D01*
X191098090Y-70353227D01*
X191085294Y-70354044D01*
X191067310Y-70354698D01*
X191044244Y-70355185D01*
X191016200Y-70355502D01*
X190987901Y-70355637D01*
X190884575Y-70355875D01*
X190881853Y-70366673D01*
X190869585Y-70404597D01*
X190852571Y-70439983D01*
X190830908Y-70472660D01*
X190805289Y-70501864D01*
X190776070Y-70527575D01*
X190744752Y-70548321D01*
X190711196Y-70564169D01*
X190675266Y-70575183D01*
X190639053Y-70581205D01*
X190627477Y-70582337D01*
X190617678Y-70583146D01*
X190611075Y-70583521D01*
X190609358Y-70583507D01*
X190603978Y-70582995D01*
X190596407Y-70582274D01*
X190595861Y-70582222D01*
X190554522Y-70576001D01*
X190515985Y-70565546D01*
X190480479Y-70550974D01*
X190448232Y-70532402D01*
X190419474Y-70509949D01*
X190394432Y-70483731D01*
X190387846Y-70475372D01*
X190366779Y-70442944D01*
X190349889Y-70407151D01*
X190337236Y-70368120D01*
X190336693Y-70365998D01*
X190333797Y-70354525D01*
X189959320Y-70354525D01*
X189584843Y-70354525D01*
X189578602Y-70376796D01*
X189565707Y-70413118D01*
X189548297Y-70446779D01*
X189526718Y-70477464D01*
X189501321Y-70504856D01*
X189472451Y-70528639D01*
X189440458Y-70548497D01*
X189405690Y-70564115D01*
X189368494Y-70575175D01*
X189357776Y-70577396D01*
X189336606Y-70580078D01*
X189312371Y-70581027D01*
X189287057Y-70580311D01*
X189262648Y-70577996D01*
X189241126Y-70574149D01*
X189237991Y-70573371D01*
X189202884Y-70561541D01*
X189168970Y-70544780D01*
X189137046Y-70523541D01*
X189110186Y-70500504D01*
X189088147Y-70476760D01*
X189070023Y-70451594D01*
X189055324Y-70424096D01*
X189043562Y-70393358D01*
X189034558Y-70359859D01*
X189033028Y-70353045D01*
X189002557Y-70355279D01*
X188986663Y-70356140D01*
X188967826Y-70356665D01*
X188946932Y-70356876D01*
X188924865Y-70356794D01*
X188902510Y-70356440D01*
X188880753Y-70355837D01*
X188860477Y-70355005D01*
X188842569Y-70353965D01*
X188827913Y-70352741D01*
X188817394Y-70351351D01*
X188814396Y-70350718D01*
X188792378Y-70343119D01*
X188773520Y-70332057D01*
X188756463Y-70316859D01*
X188746350Y-70305393D01*
X188742865Y-70300432D01*
X189192577Y-70300432D01*
X189193506Y-70322086D01*
X189198718Y-70343575D01*
X189208463Y-70364326D01*
X189222993Y-70383769D01*
X189223976Y-70384831D01*
X189242129Y-70401159D01*
X189261668Y-70412519D01*
X189283249Y-70419178D01*
X189307530Y-70421404D01*
X189313578Y-70421317D01*
X189326880Y-70420649D01*
X189336827Y-70419358D01*
X189345458Y-70417009D01*
X189354813Y-70413166D01*
X189357468Y-70411937D01*
X189378728Y-70399261D01*
X189396231Y-70383336D01*
X189409847Y-70364819D01*
X189419445Y-70344365D01*
X189424894Y-70322630D01*
X189425232Y-70316180D01*
X190493581Y-70316180D01*
X190497605Y-70338527D01*
X190506411Y-70360522D01*
X190512122Y-70370313D01*
X190527298Y-70389643D01*
X190544910Y-70404283D01*
X190565192Y-70414348D01*
X190588374Y-70419956D01*
X190613654Y-70421252D01*
X190626649Y-70420776D01*
X190636109Y-70419848D01*
X190643900Y-70418050D01*
X190651886Y-70414962D01*
X190661140Y-70410554D01*
X190682376Y-70397302D01*
X190699636Y-70380428D01*
X190713139Y-70359708D01*
X190715365Y-70355175D01*
X190722667Y-70333516D01*
X190725521Y-70310052D01*
X190723844Y-70286155D01*
X190720382Y-70271357D01*
X190710872Y-70248936D01*
X190697150Y-70229464D01*
X190679799Y-70213400D01*
X190659398Y-70201204D01*
X190636529Y-70193339D01*
X190618513Y-70190588D01*
X190594241Y-70191185D01*
X190571802Y-70196413D01*
X190551523Y-70205719D01*
X190533733Y-70218548D01*
X190518759Y-70234349D01*
X190506929Y-70252565D01*
X190498571Y-70272645D01*
X190494013Y-70294035D01*
X190493581Y-70316180D01*
X189425232Y-70316180D01*
X189426065Y-70300271D01*
X189422827Y-70277944D01*
X189415048Y-70256304D01*
X189402600Y-70236009D01*
X189394376Y-70226350D01*
X189375903Y-70209953D01*
X189356005Y-70198593D01*
X189334020Y-70191988D01*
X189309323Y-70189853D01*
X189284993Y-70192248D01*
X189262944Y-70199051D01*
X189243427Y-70209691D01*
X189226692Y-70223596D01*
X189212990Y-70240195D01*
X189202569Y-70258915D01*
X189195682Y-70279184D01*
X189192577Y-70300432D01*
X188742865Y-70300432D01*
X188738387Y-70294056D01*
X188732336Y-70282007D01*
X188727961Y-70268401D01*
X188725024Y-70252397D01*
X188723288Y-70233150D01*
X188722517Y-70209819D01*
X188722418Y-70195819D01*
X188722462Y-70177868D01*
X188722678Y-70164420D01*
X188723146Y-70154582D01*
X188723943Y-70147459D01*
X188725146Y-70142156D01*
X188726834Y-70137778D01*
X188727618Y-70136174D01*
X188736050Y-70124152D01*
X188747784Y-70113245D01*
X188760775Y-70105321D01*
X188761915Y-70104827D01*
X188763144Y-70104499D01*
X188765315Y-70104189D01*
X188768573Y-70103897D01*
X188773064Y-70103622D01*
X188778935Y-70103363D01*
X188786329Y-70103119D01*
X188795393Y-70102892D01*
X188806272Y-70102679D01*
X188819112Y-70102481D01*
X188834057Y-70102296D01*
X188851255Y-70102125D01*
X188870849Y-70101967D01*
X188892986Y-70101821D01*
X188917811Y-70101687D01*
X188945469Y-70101565D01*
X188976107Y-70101454D01*
X189009869Y-70101353D01*
X189046901Y-70101262D01*
X189087348Y-70101180D01*
X189131357Y-70101107D01*
X189179071Y-70101043D01*
X189230638Y-70100987D01*
X189286202Y-70100938D01*
X189345910Y-70100896D01*
X189409905Y-70100861D01*
X189478334Y-70100831D01*
X189551343Y-70100807D01*
X189629077Y-70100788D01*
X189711681Y-70100774D01*
X189799301Y-70100763D01*
X189892082Y-70100756D01*
X189953672Y-70100753D01*
X190049439Y-70100750D01*
X190139957Y-70100751D01*
G37*
G36*
X189865376Y-68216481D02*
G01*
X189915483Y-68216486D01*
X189934473Y-68216487D01*
X189986448Y-68216484D01*
X190033309Y-68216483D01*
X190075343Y-68216496D01*
X190112833Y-68216532D01*
X190146066Y-68216604D01*
X190175326Y-68216723D01*
X190200900Y-68216899D01*
X190223072Y-68217145D01*
X190242128Y-68217471D01*
X190258353Y-68217888D01*
X190272033Y-68218409D01*
X190283453Y-68219043D01*
X190292898Y-68219802D01*
X190300654Y-68220697D01*
X190307006Y-68221740D01*
X190312239Y-68222941D01*
X190316640Y-68224313D01*
X190320492Y-68225865D01*
X190324083Y-68227610D01*
X190327696Y-68229558D01*
X190331617Y-68231721D01*
X190332313Y-68232098D01*
X190341181Y-68237710D01*
X190351654Y-68245516D01*
X190361538Y-68253875D01*
X190361980Y-68254281D01*
X190379576Y-68273000D01*
X190392691Y-68292940D01*
X190401732Y-68315000D01*
X190407102Y-68340076D01*
X190408792Y-68357976D01*
X190410340Y-68385208D01*
X190451134Y-68385208D01*
X190467182Y-68385276D01*
X190478884Y-68385560D01*
X190487291Y-68386180D01*
X190493457Y-68387259D01*
X190498432Y-68388916D01*
X190503111Y-68391189D01*
X190515506Y-68400003D01*
X190526228Y-68411662D01*
X190533876Y-68424479D01*
X190536190Y-68431104D01*
X190537001Y-68437144D01*
X190537686Y-68447795D01*
X190538244Y-68462273D01*
X190538676Y-68479790D01*
X190538980Y-68499562D01*
X190539157Y-68520802D01*
X190539206Y-68542725D01*
X190539126Y-68564544D01*
X190538919Y-68585474D01*
X190538582Y-68604729D01*
X190538117Y-68621524D01*
X190537522Y-68635072D01*
X190536797Y-68644587D01*
X190536276Y-68648144D01*
X190529986Y-68664992D01*
X190519155Y-68679584D01*
X190504865Y-68690751D01*
X190499722Y-68693659D01*
X190495107Y-68695712D01*
X190489960Y-68697058D01*
X190483222Y-68697847D01*
X190473833Y-68698226D01*
X190460734Y-68698346D01*
X190450759Y-68698355D01*
X190409590Y-68698355D01*
X190409538Y-68719952D01*
X190408208Y-68748399D01*
X190404149Y-68772898D01*
X190397033Y-68794337D01*
X190386531Y-68813602D01*
X190372315Y-68831583D01*
X190365702Y-68838430D01*
X190355659Y-68847697D01*
X190345186Y-68856307D01*
X190335946Y-68862933D01*
X190332453Y-68865010D01*
X190328402Y-68867201D01*
X190324716Y-68869177D01*
X190321109Y-68870949D01*
X190317296Y-68872527D01*
X190312993Y-68873922D01*
X190307913Y-68875146D01*
X190301772Y-68876209D01*
X190294285Y-68877122D01*
X190285167Y-68877897D01*
X190274132Y-68878543D01*
X190260894Y-68879073D01*
X190245170Y-68879497D01*
X190226674Y-68879826D01*
X190205120Y-68880071D01*
X190180224Y-68880243D01*
X190151700Y-68880352D01*
X190119263Y-68880411D01*
X190082628Y-68880429D01*
X190041510Y-68880418D01*
X189995623Y-68880389D01*
X189944683Y-68880353D01*
X189933231Y-68880345D01*
X189878923Y-68880298D01*
X189829800Y-68880228D01*
X189785644Y-68880133D01*
X189746242Y-68880013D01*
X189711378Y-68879863D01*
X189680837Y-68879683D01*
X189654403Y-68879471D01*
X189631861Y-68879223D01*
X189612996Y-68878939D01*
X189597592Y-68878616D01*
X189585435Y-68878252D01*
X189576308Y-68877845D01*
X189569998Y-68877393D01*
X189566287Y-68876893D01*
X189565985Y-68876825D01*
X189546317Y-68869804D01*
X189526417Y-68858749D01*
X189507709Y-68844722D01*
X189491621Y-68828784D01*
X189480079Y-68812870D01*
X189472640Y-68798789D01*
X189467272Y-68785087D01*
X189463623Y-68770333D01*
X189461338Y-68753095D01*
X189460063Y-68731939D01*
X189460058Y-68731787D01*
X189458684Y-68695030D01*
X189447546Y-68697606D01*
X189440267Y-68698568D01*
X189429233Y-68699166D01*
X189416078Y-68699342D01*
X189405327Y-68699144D01*
X189390482Y-68698457D01*
X189379638Y-68697399D01*
X189371398Y-68695741D01*
X189364365Y-68693253D01*
X189361522Y-68691947D01*
X189347160Y-68682567D01*
X189337220Y-68670633D01*
X189332763Y-68659764D01*
X189331855Y-68653537D01*
X189331012Y-68642717D01*
X189330244Y-68628111D01*
X189329566Y-68610527D01*
X189328989Y-68590770D01*
X189328527Y-68569648D01*
X189328192Y-68547967D01*
X189327997Y-68526533D01*
X189327992Y-68524125D01*
X189637327Y-68524125D01*
X189637455Y-68542362D01*
X189637821Y-68559387D01*
X189638428Y-68574256D01*
X189639281Y-68586026D01*
X189640383Y-68593752D01*
X189640656Y-68594805D01*
X189646818Y-68607580D01*
X189656862Y-68619841D01*
X189669369Y-68630034D01*
X189676516Y-68634071D01*
X189684221Y-68637367D01*
X189691363Y-68639214D01*
X189699843Y-68639900D01*
X189711563Y-68639712D01*
X189713299Y-68639644D01*
X189725936Y-68638837D01*
X189735053Y-68637352D01*
X189742525Y-68634754D01*
X189748976Y-68631348D01*
X189763969Y-68619688D01*
X189774651Y-68604782D01*
X189779477Y-68592766D01*
X189780692Y-68585859D01*
X189781693Y-68574600D01*
X189782473Y-68560032D01*
X189783022Y-68543197D01*
X189783332Y-68525139D01*
X189783354Y-68518836D01*
X190086997Y-68518836D01*
X190087061Y-68541811D01*
X190087339Y-68560117D01*
X190087960Y-68574485D01*
X190089050Y-68585642D01*
X190090739Y-68594320D01*
X190093154Y-68601247D01*
X190096423Y-68607154D01*
X190100675Y-68612770D01*
X190104195Y-68616796D01*
X190118146Y-68628425D01*
X190135057Y-68636356D01*
X190153700Y-68640302D01*
X190172850Y-68639976D01*
X190187933Y-68636371D01*
X190204345Y-68628097D01*
X190217413Y-68615831D01*
X190224913Y-68604558D01*
X190232772Y-68590374D01*
X190233629Y-68525656D01*
X190233852Y-68502395D01*
X190233772Y-68483789D01*
X190233288Y-68469098D01*
X190232302Y-68457583D01*
X190230712Y-68448502D01*
X190228420Y-68441117D01*
X190225326Y-68434687D01*
X190221330Y-68428472D01*
X190220351Y-68427103D01*
X190208767Y-68414764D01*
X190194491Y-68406410D01*
X190176869Y-68401724D01*
X190165403Y-68400590D01*
X190145194Y-68401259D01*
X190128283Y-68405772D01*
X190113917Y-68414401D01*
X190105654Y-68422273D01*
X190100176Y-68428522D01*
X190095890Y-68434217D01*
X190092650Y-68440115D01*
X190090310Y-68446973D01*
X190088725Y-68455546D01*
X190087746Y-68466592D01*
X190087230Y-68480865D01*
X190087029Y-68499123D01*
X190086997Y-68518836D01*
X189783354Y-68518836D01*
X189783396Y-68506900D01*
X189783203Y-68489524D01*
X189782747Y-68474053D01*
X189782018Y-68461530D01*
X189781009Y-68452999D01*
X189780617Y-68451254D01*
X189774260Y-68436145D01*
X189764493Y-68422245D01*
X189752687Y-68411396D01*
X189749337Y-68409235D01*
X189734621Y-68403228D01*
X189717337Y-68400252D01*
X189699456Y-68400412D01*
X189682948Y-68403812D01*
X189678585Y-68405468D01*
X189665039Y-68413493D01*
X189652794Y-68424724D01*
X189643564Y-68437476D01*
X189641310Y-68442110D01*
X189640100Y-68447798D01*
X189639103Y-68457936D01*
X189638324Y-68471582D01*
X189637765Y-68487791D01*
X189637431Y-68505620D01*
X189637327Y-68524125D01*
X189327992Y-68524125D01*
X189327954Y-68506154D01*
X189328076Y-68487635D01*
X189328376Y-68471784D01*
X189328866Y-68459408D01*
X189329495Y-68451789D01*
X189333580Y-68430977D01*
X189340201Y-68414188D01*
X189349728Y-68401167D01*
X189362526Y-68391659D01*
X189378965Y-68385406D01*
X189399410Y-68382153D01*
X189424231Y-68381645D01*
X189429963Y-68381860D01*
X189458613Y-68383174D01*
X189460120Y-68355846D01*
X189463338Y-68328574D01*
X189470010Y-68304845D01*
X189480520Y-68283761D01*
X189495252Y-68264424D01*
X189502411Y-68256980D01*
X189512493Y-68248132D01*
X189524029Y-68239544D01*
X189533883Y-68233443D01*
X189538290Y-68231054D01*
X189542257Y-68228900D01*
X189546070Y-68226968D01*
X189550016Y-68225248D01*
X189554382Y-68223726D01*
X189559455Y-68222390D01*
X189565522Y-68221229D01*
X189572869Y-68220231D01*
X189581785Y-68219382D01*
X189592554Y-68218671D01*
X189605466Y-68218087D01*
X189620806Y-68217615D01*
X189638861Y-68217246D01*
X189659918Y-68216966D01*
X189684265Y-68216763D01*
X189712187Y-68216625D01*
X189743973Y-68216540D01*
X189779908Y-68216496D01*
X189820280Y-68216480D01*
X189865376Y-68216481D01*
G37*
D13*
%TO.C,Q2*%
X189317500Y-80993900D02*
X194575300Y-80993900D01*
X194575300Y-75736100D02*
X189317500Y-75736100D01*
X187831600Y-76460000D02*
G75*
G02*
X187679200Y-76460000I-76200J0D01*
G01*
X187679200Y-76460000D02*
G75*
G02*
X187831600Y-76460000I76200J0D01*
G01*
%TO.C,U1*%
X190700794Y-84586699D02*
X191636006Y-84586699D01*
X191636006Y-81513299D02*
X190700794Y-81513299D01*
%TD*%
M02*
