%TF.GenerationSoftware,KiCad,Pcbnew,9.0.6*%
%TF.CreationDate,2026-03-07T17:51:51+01:00*%
%TF.ProjectId,High Side OR ing,48696768-2053-4696-9465-204f5220696e,A*%
%TF.SameCoordinates,Original*%
%TF.FileFunction,Copper,L2,Inr*%
%TF.FilePolarity,Positive*%
%FSLAX46Y46*%
G04 Gerber Fmt 4.6, Leading zero omitted, Abs format (unit mm)*
G04 Created by KiCad (PCBNEW 9.0.6) date 2026-03-07 17:51:51*
%MOMM*%
%LPD*%
G01*
G04 APERTURE LIST*
G04 Aperture macros list*
%AMRoundRect*
0 Rectangle with rounded corners*
0 $1 Rounding radius*
0 $2 $3 $4 $5 $6 $7 $8 $9 X,Y pos of 4 corners*
0 Add a 4 corners polygon primitive as box body*
4,1,4,$2,$3,$4,$5,$6,$7,$8,$9,$2,$3,0*
0 Add four circle primitives for the rounded corners*
1,1,$1+$1,$2,$3*
1,1,$1+$1,$4,$5*
1,1,$1+$1,$6,$7*
1,1,$1+$1,$8,$9*
0 Add four rect primitives between the rounded corners*
20,1,$1+$1,$2,$3,$4,$5,0*
20,1,$1+$1,$4,$5,$6,$7,0*
20,1,$1+$1,$6,$7,$8,$9,0*
20,1,$1+$1,$8,$9,$2,$3,0*%
G04 Aperture macros list end*
%TA.AperFunction,ComponentPad*%
%ADD10R,1.700000X1.700000*%
%TD*%
%TA.AperFunction,ComponentPad*%
%ADD11C,1.700000*%
%TD*%
%TA.AperFunction,ComponentPad*%
%ADD12RoundRect,0.250001X-1.149999X1.149999X-1.149999X-1.149999X1.149999X-1.149999X1.149999X1.149999X0*%
%TD*%
%TA.AperFunction,ComponentPad*%
%ADD13C,2.800000*%
%TD*%
%TA.AperFunction,ComponentPad*%
%ADD14RoundRect,0.250001X1.149999X-1.149999X1.149999X1.149999X-1.149999X1.149999X-1.149999X-1.149999X0*%
%TD*%
%TA.AperFunction,ViaPad*%
%ADD15C,0.600000*%
%TD*%
%TA.AperFunction,ViaPad*%
%ADD16C,0.800000*%
%TD*%
%TA.AperFunction,ViaPad*%
%ADD17C,0.500000*%
%TD*%
G04 APERTURE END LIST*
D10*
%TO.N,Net-(J6-Pin_1)*%
%TO.C,J6*%
X196500000Y-93000000D03*
D11*
%TO.N,GND*%
X196500000Y-95540000D03*
%TD*%
D10*
%TO.N,Net-(J4-Pin_1)*%
%TO.C,J4*%
X195700000Y-83125000D03*
D11*
%TO.N,GND*%
X195700000Y-85665000D03*
%TD*%
D12*
%TO.N,GND*%
%TO.C,J1*%
X179382500Y-85000000D03*
D13*
%TO.N,/VIN_1*%
X179382500Y-90000000D03*
%TD*%
D12*
%TO.N,GND*%
%TO.C,J2*%
X179882500Y-73500000D03*
D13*
%TO.N,/VIN_2*%
X179882500Y-78500000D03*
%TD*%
D14*
%TO.N,GND*%
%TO.C,J3*%
X204617500Y-86500000D03*
D13*
%TO.N,/VOUT*%
X204617500Y-81500000D03*
%TD*%
D15*
%TO.N,GND*%
X202200000Y-94500000D03*
D16*
X177000000Y-85000000D03*
X177000000Y-86000000D03*
X176500000Y-73000000D03*
X183500000Y-72000000D03*
X205500000Y-90000000D03*
X207000000Y-88000000D03*
X177500000Y-74000000D03*
X176000000Y-84000000D03*
X177000000Y-84000000D03*
X202500000Y-89000000D03*
X204500000Y-90000000D03*
X207000000Y-85000000D03*
X184000000Y-95000000D03*
X183500000Y-75000000D03*
X183500000Y-84000000D03*
X176500000Y-72000000D03*
X183500000Y-73000000D03*
X182500000Y-72000000D03*
X207000000Y-86000000D03*
X207000000Y-87000000D03*
X203500000Y-89000000D03*
X176000000Y-85000000D03*
X199000000Y-70000000D03*
X183500000Y-83000000D03*
X199000000Y-74000000D03*
X208000000Y-87000000D03*
X176000000Y-83000000D03*
X177500000Y-75000000D03*
X183500000Y-74000000D03*
X176500000Y-75000000D03*
X202500000Y-90000000D03*
X205500000Y-89000000D03*
D17*
X193500000Y-83000000D03*
D16*
X180000000Y-95000000D03*
X176000000Y-86000000D03*
X208000000Y-88000000D03*
X182500000Y-75000000D03*
X183500000Y-85000000D03*
X177500000Y-72000000D03*
X208000000Y-85000000D03*
X177500000Y-73000000D03*
X177000000Y-83000000D03*
X182500000Y-83000000D03*
X203500000Y-90000000D03*
X176500000Y-74000000D03*
X182500000Y-85000000D03*
X178000000Y-95000000D03*
X182500000Y-73000000D03*
X182500000Y-84000000D03*
X186000000Y-95000000D03*
X182500000Y-74000000D03*
X183500000Y-86000000D03*
X208000000Y-86000000D03*
X204500000Y-89000000D03*
X182500000Y-86000000D03*
X199000000Y-72000000D03*
X182000000Y-95000000D03*
D15*
X202250000Y-75000000D03*
%TO.N,Net-(U1-VS)*%
X198500000Y-77750000D03*
X193500000Y-84000000D03*
%TD*%
%TA.AperFunction,Conductor*%
%TO.N,GND*%
G36*
X209642539Y-67320185D02*
G01*
X209688294Y-67372989D01*
X209699500Y-67424500D01*
X209699500Y-97575500D01*
X209679815Y-97642539D01*
X209627011Y-97688294D01*
X209575500Y-97699500D01*
X174424500Y-97699500D01*
X174357461Y-97679815D01*
X174311706Y-97627011D01*
X174300500Y-97575500D01*
X174300500Y-92130247D01*
X195449500Y-92130247D01*
X195449500Y-93869752D01*
X195461131Y-93928229D01*
X195461132Y-93928230D01*
X195505447Y-93994552D01*
X195571769Y-94038867D01*
X195571770Y-94038868D01*
X195630247Y-94050499D01*
X195630250Y-94050500D01*
X195630252Y-94050500D01*
X197369750Y-94050500D01*
X197369751Y-94050499D01*
X197384568Y-94047552D01*
X197428229Y-94038868D01*
X197428229Y-94038867D01*
X197428231Y-94038867D01*
X197494552Y-93994552D01*
X197538867Y-93928231D01*
X197538867Y-93928229D01*
X197538868Y-93928229D01*
X197548849Y-93878048D01*
X204139500Y-93878048D01*
X204139500Y-94121951D01*
X204166013Y-94323333D01*
X204171334Y-94363744D01*
X204171335Y-94363746D01*
X204234456Y-94599320D01*
X204234459Y-94599330D01*
X204327786Y-94824640D01*
X204327791Y-94824651D01*
X204449727Y-95035848D01*
X204449738Y-95035864D01*
X204598199Y-95229343D01*
X204598205Y-95229350D01*
X204770649Y-95401794D01*
X204770655Y-95401799D01*
X204964144Y-95550268D01*
X204964151Y-95550272D01*
X205175348Y-95672208D01*
X205175353Y-95672210D01*
X205175356Y-95672212D01*
X205400679Y-95765544D01*
X205636256Y-95828666D01*
X205878056Y-95860500D01*
X205878063Y-95860500D01*
X206121937Y-95860500D01*
X206121944Y-95860500D01*
X206363744Y-95828666D01*
X206599321Y-95765544D01*
X206824644Y-95672212D01*
X207035856Y-95550268D01*
X207229345Y-95401799D01*
X207401799Y-95229345D01*
X207550268Y-95035856D01*
X207672212Y-94824644D01*
X207765544Y-94599321D01*
X207828666Y-94363744D01*
X207860500Y-94121944D01*
X207860500Y-93878056D01*
X207828666Y-93636256D01*
X207765544Y-93400679D01*
X207672212Y-93175356D01*
X207672210Y-93175353D01*
X207672208Y-93175348D01*
X207550272Y-92964151D01*
X207550268Y-92964144D01*
X207401799Y-92770655D01*
X207401794Y-92770649D01*
X207229350Y-92598205D01*
X207229343Y-92598199D01*
X207035864Y-92449738D01*
X207035862Y-92449736D01*
X207035856Y-92449732D01*
X207035851Y-92449729D01*
X207035848Y-92449727D01*
X206824651Y-92327791D01*
X206824640Y-92327786D01*
X206599330Y-92234459D01*
X206599323Y-92234457D01*
X206599321Y-92234456D01*
X206363744Y-92171334D01*
X206323333Y-92166013D01*
X206121951Y-92139500D01*
X206121944Y-92139500D01*
X205878056Y-92139500D01*
X205878048Y-92139500D01*
X205647896Y-92169801D01*
X205636256Y-92171334D01*
X205400679Y-92234456D01*
X205400669Y-92234459D01*
X205175359Y-92327786D01*
X205175348Y-92327791D01*
X204964151Y-92449727D01*
X204964135Y-92449738D01*
X204770656Y-92598199D01*
X204770649Y-92598205D01*
X204598205Y-92770649D01*
X204598199Y-92770656D01*
X204449738Y-92964135D01*
X204449727Y-92964151D01*
X204327791Y-93175348D01*
X204327786Y-93175359D01*
X204234459Y-93400669D01*
X204234456Y-93400679D01*
X204171335Y-93636253D01*
X204171333Y-93636264D01*
X204139500Y-93878048D01*
X197548849Y-93878048D01*
X197550499Y-93869752D01*
X197550500Y-93869750D01*
X197550500Y-92130249D01*
X197550499Y-92130247D01*
X197538868Y-92071770D01*
X197538867Y-92071769D01*
X197494552Y-92005447D01*
X197428230Y-91961132D01*
X197428229Y-91961131D01*
X197369752Y-91949500D01*
X197369748Y-91949500D01*
X195630252Y-91949500D01*
X195630247Y-91949500D01*
X195571770Y-91961131D01*
X195571769Y-91961132D01*
X195505447Y-92005447D01*
X195461132Y-92071769D01*
X195461131Y-92071770D01*
X195449500Y-92130247D01*
X174300500Y-92130247D01*
X174300500Y-89874038D01*
X177782000Y-89874038D01*
X177782000Y-90125961D01*
X177821410Y-90374785D01*
X177899260Y-90614383D01*
X178013632Y-90838848D01*
X178161701Y-91042649D01*
X178161705Y-91042654D01*
X178339845Y-91220794D01*
X178339850Y-91220798D01*
X178517617Y-91349952D01*
X178543655Y-91368870D01*
X178686684Y-91441747D01*
X178768116Y-91483239D01*
X178768118Y-91483239D01*
X178768121Y-91483241D01*
X179007715Y-91561090D01*
X179256538Y-91600500D01*
X179256539Y-91600500D01*
X179508461Y-91600500D01*
X179508462Y-91600500D01*
X179757285Y-91561090D01*
X179996879Y-91483241D01*
X180221345Y-91368870D01*
X180425156Y-91220793D01*
X180603293Y-91042656D01*
X180751370Y-90838845D01*
X180865741Y-90614379D01*
X180943590Y-90374785D01*
X180983000Y-90125962D01*
X180983000Y-89874038D01*
X180943590Y-89625215D01*
X180865741Y-89385621D01*
X180865739Y-89385618D01*
X180865739Y-89385616D01*
X180824247Y-89304184D01*
X180751370Y-89161155D01*
X180732452Y-89135117D01*
X180603298Y-88957350D01*
X180603294Y-88957345D01*
X180425154Y-88779205D01*
X180425149Y-88779201D01*
X180221348Y-88631132D01*
X180221347Y-88631131D01*
X180221345Y-88631130D01*
X180151247Y-88595413D01*
X179996883Y-88516760D01*
X179757285Y-88438910D01*
X179508462Y-88399500D01*
X179256538Y-88399500D01*
X179132126Y-88419205D01*
X179007714Y-88438910D01*
X178768116Y-88516760D01*
X178543651Y-88631132D01*
X178339850Y-88779201D01*
X178339845Y-88779205D01*
X178161705Y-88957345D01*
X178161701Y-88957350D01*
X178013632Y-89161151D01*
X177899260Y-89385616D01*
X177821410Y-89625214D01*
X177782000Y-89874038D01*
X174300500Y-89874038D01*
X174300500Y-83934108D01*
X192999500Y-83934108D01*
X192999500Y-84065891D01*
X193033608Y-84193187D01*
X193066554Y-84250250D01*
X193099500Y-84307314D01*
X193192686Y-84400500D01*
X193306814Y-84466392D01*
X193434108Y-84500500D01*
X193434110Y-84500500D01*
X193565890Y-84500500D01*
X193565892Y-84500500D01*
X193693186Y-84466392D01*
X193807314Y-84400500D01*
X193900500Y-84307314D01*
X193966392Y-84193186D01*
X194000500Y-84065892D01*
X194000500Y-83934108D01*
X193966392Y-83806814D01*
X193900500Y-83692686D01*
X193807314Y-83599500D01*
X193750250Y-83566554D01*
X193693187Y-83533608D01*
X193629539Y-83516554D01*
X193565892Y-83499500D01*
X193434108Y-83499500D01*
X193306812Y-83533608D01*
X193192686Y-83599500D01*
X193192683Y-83599502D01*
X193099502Y-83692683D01*
X193099500Y-83692686D01*
X193033608Y-83806812D01*
X192999500Y-83934108D01*
X174300500Y-83934108D01*
X174300500Y-82255247D01*
X194649500Y-82255247D01*
X194649500Y-83994752D01*
X194661131Y-84053229D01*
X194661132Y-84053230D01*
X194705447Y-84119552D01*
X194771769Y-84163867D01*
X194771770Y-84163868D01*
X194830247Y-84175499D01*
X194830250Y-84175500D01*
X194830252Y-84175500D01*
X196569750Y-84175500D01*
X196569751Y-84175499D01*
X196584568Y-84172552D01*
X196628229Y-84163868D01*
X196628229Y-84163867D01*
X196628231Y-84163867D01*
X196694552Y-84119552D01*
X196738867Y-84053231D01*
X196738867Y-84053229D01*
X196738868Y-84053229D01*
X196750499Y-83994752D01*
X196750500Y-83994750D01*
X196750500Y-82255249D01*
X196750499Y-82255247D01*
X196738868Y-82196770D01*
X196738867Y-82196769D01*
X196694552Y-82130447D01*
X196628230Y-82086132D01*
X196628229Y-82086131D01*
X196569752Y-82074500D01*
X196569748Y-82074500D01*
X194830252Y-82074500D01*
X194830247Y-82074500D01*
X194771770Y-82086131D01*
X194771769Y-82086132D01*
X194705447Y-82130447D01*
X194661132Y-82196769D01*
X194661131Y-82196770D01*
X194649500Y-82255247D01*
X174300500Y-82255247D01*
X174300500Y-81374038D01*
X203017000Y-81374038D01*
X203017000Y-81625961D01*
X203056410Y-81874785D01*
X203134260Y-82114383D01*
X203248632Y-82338848D01*
X203396701Y-82542649D01*
X203396705Y-82542654D01*
X203574845Y-82720794D01*
X203574850Y-82720798D01*
X203752617Y-82849952D01*
X203778655Y-82868870D01*
X203921684Y-82941747D01*
X204003116Y-82983239D01*
X204003118Y-82983239D01*
X204003121Y-82983241D01*
X204242715Y-83061090D01*
X204491538Y-83100500D01*
X204491539Y-83100500D01*
X204743461Y-83100500D01*
X204743462Y-83100500D01*
X204992285Y-83061090D01*
X205231879Y-82983241D01*
X205456345Y-82868870D01*
X205660156Y-82720793D01*
X205838293Y-82542656D01*
X205986370Y-82338845D01*
X206100741Y-82114379D01*
X206178590Y-81874785D01*
X206218000Y-81625962D01*
X206218000Y-81374038D01*
X206178590Y-81125215D01*
X206100741Y-80885621D01*
X206100739Y-80885618D01*
X206100739Y-80885616D01*
X206059247Y-80804184D01*
X205986370Y-80661155D01*
X205967452Y-80635117D01*
X205838298Y-80457350D01*
X205838294Y-80457345D01*
X205660154Y-80279205D01*
X205660149Y-80279201D01*
X205456348Y-80131132D01*
X205456347Y-80131131D01*
X205456345Y-80131130D01*
X205318884Y-80061090D01*
X205231883Y-80016760D01*
X204992285Y-79938910D01*
X204743462Y-79899500D01*
X204491538Y-79899500D01*
X204367126Y-79919205D01*
X204242714Y-79938910D01*
X204003116Y-80016760D01*
X203778651Y-80131132D01*
X203574850Y-80279201D01*
X203574845Y-80279205D01*
X203396705Y-80457345D01*
X203396701Y-80457350D01*
X203248632Y-80661151D01*
X203134260Y-80885616D01*
X203056410Y-81125214D01*
X203017000Y-81374038D01*
X174300500Y-81374038D01*
X174300500Y-78374038D01*
X178282000Y-78374038D01*
X178282000Y-78625961D01*
X178321410Y-78874785D01*
X178399260Y-79114383D01*
X178513632Y-79338848D01*
X178661701Y-79542649D01*
X178661705Y-79542654D01*
X178839845Y-79720794D01*
X178839850Y-79720798D01*
X179017617Y-79849952D01*
X179043655Y-79868870D01*
X179181116Y-79938910D01*
X179268116Y-79983239D01*
X179268118Y-79983239D01*
X179268121Y-79983241D01*
X179507715Y-80061090D01*
X179756538Y-80100500D01*
X179756539Y-80100500D01*
X180008461Y-80100500D01*
X180008462Y-80100500D01*
X180257285Y-80061090D01*
X180496879Y-79983241D01*
X180721345Y-79868870D01*
X180925156Y-79720793D01*
X181103293Y-79542656D01*
X181251370Y-79338845D01*
X181365741Y-79114379D01*
X181443590Y-78874785D01*
X181483000Y-78625962D01*
X181483000Y-78374038D01*
X181443590Y-78125215D01*
X181365741Y-77885621D01*
X181365739Y-77885618D01*
X181365739Y-77885616D01*
X181287608Y-77732276D01*
X181263066Y-77684110D01*
X181263065Y-77684108D01*
X197999500Y-77684108D01*
X197999500Y-77815891D01*
X198033608Y-77943187D01*
X198066554Y-78000250D01*
X198099500Y-78057314D01*
X198192686Y-78150500D01*
X198306814Y-78216392D01*
X198434108Y-78250500D01*
X198434110Y-78250500D01*
X198565890Y-78250500D01*
X198565892Y-78250500D01*
X198693186Y-78216392D01*
X198807314Y-78150500D01*
X198900500Y-78057314D01*
X198966392Y-77943186D01*
X199000500Y-77815892D01*
X199000500Y-77684108D01*
X198966392Y-77556814D01*
X198900500Y-77442686D01*
X198807314Y-77349500D01*
X198750250Y-77316554D01*
X198693187Y-77283608D01*
X198629539Y-77266554D01*
X198565892Y-77249500D01*
X198434108Y-77249500D01*
X198306812Y-77283608D01*
X198192686Y-77349500D01*
X198192683Y-77349502D01*
X198099502Y-77442683D01*
X198099500Y-77442686D01*
X198033608Y-77556812D01*
X197999500Y-77684108D01*
X181263065Y-77684108D01*
X181251370Y-77661155D01*
X181175561Y-77556812D01*
X181103298Y-77457350D01*
X181103294Y-77457345D01*
X180925154Y-77279205D01*
X180925149Y-77279201D01*
X180721348Y-77131132D01*
X180721347Y-77131131D01*
X180721345Y-77131130D01*
X180651247Y-77095413D01*
X180496883Y-77016760D01*
X180257285Y-76938910D01*
X180008462Y-76899500D01*
X179756538Y-76899500D01*
X179632126Y-76919205D01*
X179507714Y-76938910D01*
X179268116Y-77016760D01*
X179043651Y-77131132D01*
X178839850Y-77279201D01*
X178839845Y-77279205D01*
X178661705Y-77457345D01*
X178661701Y-77457350D01*
X178513632Y-77661151D01*
X178399260Y-77885616D01*
X178321410Y-78125214D01*
X178282000Y-78374038D01*
X174300500Y-78374038D01*
X174300500Y-70878048D01*
X204139500Y-70878048D01*
X204139500Y-71121951D01*
X204166013Y-71323333D01*
X204171334Y-71363744D01*
X204171335Y-71363746D01*
X204234456Y-71599320D01*
X204234459Y-71599330D01*
X204327786Y-71824640D01*
X204327791Y-71824651D01*
X204449727Y-72035848D01*
X204449738Y-72035864D01*
X204598199Y-72229343D01*
X204598205Y-72229350D01*
X204770649Y-72401794D01*
X204770655Y-72401799D01*
X204964144Y-72550268D01*
X204964151Y-72550272D01*
X205175348Y-72672208D01*
X205175353Y-72672210D01*
X205175356Y-72672212D01*
X205400679Y-72765544D01*
X205636256Y-72828666D01*
X205878056Y-72860500D01*
X205878063Y-72860500D01*
X206121937Y-72860500D01*
X206121944Y-72860500D01*
X206363744Y-72828666D01*
X206599321Y-72765544D01*
X206824644Y-72672212D01*
X207035856Y-72550268D01*
X207229345Y-72401799D01*
X207401799Y-72229345D01*
X207550268Y-72035856D01*
X207672212Y-71824644D01*
X207765544Y-71599321D01*
X207828666Y-71363744D01*
X207860500Y-71121944D01*
X207860500Y-70878056D01*
X207828666Y-70636256D01*
X207765544Y-70400679D01*
X207672212Y-70175356D01*
X207672210Y-70175353D01*
X207672208Y-70175348D01*
X207550272Y-69964151D01*
X207550268Y-69964144D01*
X207401799Y-69770655D01*
X207401794Y-69770649D01*
X207229350Y-69598205D01*
X207229343Y-69598199D01*
X207035864Y-69449738D01*
X207035862Y-69449736D01*
X207035856Y-69449732D01*
X207035851Y-69449729D01*
X207035848Y-69449727D01*
X206824651Y-69327791D01*
X206824640Y-69327786D01*
X206599330Y-69234459D01*
X206599323Y-69234457D01*
X206599321Y-69234456D01*
X206363744Y-69171334D01*
X206323333Y-69166013D01*
X206121951Y-69139500D01*
X206121944Y-69139500D01*
X205878056Y-69139500D01*
X205878048Y-69139500D01*
X205647896Y-69169801D01*
X205636256Y-69171334D01*
X205400679Y-69234456D01*
X205400669Y-69234459D01*
X205175359Y-69327786D01*
X205175348Y-69327791D01*
X204964151Y-69449727D01*
X204964135Y-69449738D01*
X204770656Y-69598199D01*
X204770649Y-69598205D01*
X204598205Y-69770649D01*
X204598199Y-69770656D01*
X204449738Y-69964135D01*
X204449727Y-69964151D01*
X204327791Y-70175348D01*
X204327786Y-70175359D01*
X204234459Y-70400669D01*
X204234456Y-70400679D01*
X204171335Y-70636253D01*
X204171333Y-70636264D01*
X204139500Y-70878048D01*
X174300500Y-70878048D01*
X174300500Y-67424500D01*
X174320185Y-67357461D01*
X174372989Y-67311706D01*
X174424500Y-67300500D01*
X209575500Y-67300500D01*
X209642539Y-67320185D01*
G37*
%TD.AperFunction*%
%TD*%
M02*
