%TF.GenerationSoftware,KiCad,Pcbnew,9.0.6*%
%TF.CreationDate,2025-12-29T23:23:51+08:00*%
%TF.ProjectId,Microver2025,4d696372-6f76-4657-9232-3032352e6b69,rev?*%
%TF.SameCoordinates,Original*%
%TF.FileFunction,Copper,L1,Top*%
%TF.FilePolarity,Positive*%
%FSLAX46Y46*%
G04 Gerber Fmt 4.6, Leading zero omitted, Abs format (unit mm)*
G04 Created by KiCad (PCBNEW 9.0.6) date 2025-12-29 23:23:51*
%MOMM*%
%LPD*%
G01*
G04 APERTURE LIST*
G04 Aperture macros list*
%AMRoundRect*
0 Rectangle with rounded corners*
0 $1 Rounding radius*
0 $2 $3 $4 $5 $6 $7 $8 $9 X,Y pos of 4 corners*
0 Add a 4 corners polygon primitive as box body*
4,1,4,$2,$3,$4,$5,$6,$7,$8,$9,$2,$3,0*
0 Add four circle primitives for the rounded corners*
1,1,$1+$1,$2,$3*
1,1,$1+$1,$4,$5*
1,1,$1+$1,$6,$7*
1,1,$1+$1,$8,$9*
0 Add four rect primitives between the rounded corners*
20,1,$1+$1,$2,$3,$4,$5,0*
20,1,$1+$1,$4,$5,$6,$7,0*
20,1,$1+$1,$6,$7,$8,$9,0*
20,1,$1+$1,$8,$9,$2,$3,0*%
G04 Aperture macros list end*
%TA.AperFunction,ComponentPad*%
%ADD10C,1.600000*%
%TD*%
%TA.AperFunction,ComponentPad*%
%ADD11C,1.930400*%
%TD*%
%TA.AperFunction,ComponentPad*%
%ADD12RoundRect,0.250000X-0.550000X-0.550000X0.550000X-0.550000X0.550000X0.550000X-0.550000X0.550000X0*%
%TD*%
%TA.AperFunction,ComponentPad*%
%ADD13RoundRect,0.250000X0.550000X0.550000X-0.550000X0.550000X-0.550000X-0.550000X0.550000X-0.550000X0*%
%TD*%
%TA.AperFunction,ComponentPad*%
%ADD14R,1.600000X1.600000*%
%TD*%
%TA.AperFunction,ComponentPad*%
%ADD15O,1.600000X1.600000*%
%TD*%
%TA.AperFunction,ComponentPad*%
%ADD16R,1.700000X1.700000*%
%TD*%
%TA.AperFunction,ComponentPad*%
%ADD17C,1.700000*%
%TD*%
%TA.AperFunction,ComponentPad*%
%ADD18RoundRect,0.250000X-0.600000X-0.725000X0.600000X-0.725000X0.600000X0.725000X-0.600000X0.725000X0*%
%TD*%
%TA.AperFunction,ComponentPad*%
%ADD19O,1.700000X1.950000*%
%TD*%
%TA.AperFunction,ComponentPad*%
%ADD20RoundRect,0.600000X1.400000X-1.400000X1.400000X1.400000X-1.400000X1.400000X-1.400000X-1.400000X0*%
%TD*%
%TA.AperFunction,ComponentPad*%
%ADD21C,2.400000*%
%TD*%
%TA.AperFunction,ComponentPad*%
%ADD22RoundRect,0.250001X0.949999X0.949999X-0.949999X0.949999X-0.949999X-0.949999X0.949999X-0.949999X0*%
%TD*%
%TA.AperFunction,ComponentPad*%
%ADD23RoundRect,0.760000X1.140000X1.140000X-1.140000X1.140000X-1.140000X-1.140000X1.140000X-1.140000X0*%
%TD*%
%TA.AperFunction,ComponentPad*%
%ADD24C,3.800000*%
%TD*%
%TA.AperFunction,ComponentPad*%
%ADD25RoundRect,0.250000X-0.550000X0.550000X-0.550000X-0.550000X0.550000X-0.550000X0.550000X0.550000X0*%
%TD*%
%TA.AperFunction,ComponentPad*%
%ADD26RoundRect,0.250000X0.550000X-0.550000X0.550000X0.550000X-0.550000X0.550000X-0.550000X-0.550000X0*%
%TD*%
%TA.AperFunction,ComponentPad*%
%ADD27C,2.200000*%
%TD*%
%TA.AperFunction,ViaPad*%
%ADD28C,1.600000*%
%TD*%
%TA.AperFunction,ViaPad*%
%ADD29C,1.200000*%
%TD*%
%TA.AperFunction,Conductor*%
%ADD30C,2.000000*%
%TD*%
%TA.AperFunction,Conductor*%
%ADD31C,1.000000*%
%TD*%
G04 APERTURE END LIST*
D10*
%TO.P,F1,2*%
%TO.N,+18V*%
X170875000Y-199000000D03*
%TO.P,F1,1*%
X193375000Y-199000000D03*
%TD*%
D11*
%TO.P,U5,1,GND*%
%TO.N,GND*%
X185027500Y-46138895D03*
%TO.P,U5,2,IN2*%
%TO.N,/5V*%
X185027500Y-38518895D03*
%TO.P,U5,3,IN1*%
X185027500Y-41058895D03*
%TO.P,U5,4,VM*%
%TO.N,+18V*%
X185027500Y-43598895D03*
%TD*%
%TO.P,U4,1,GND*%
%TO.N,GND*%
X126928000Y-83633370D03*
%TO.P,U4,2,IN2*%
%TO.N,/5V*%
X126928000Y-91253370D03*
%TO.P,U4,3,IN1*%
X126928000Y-88713370D03*
%TO.P,U4,4,VM*%
%TO.N,+18V*%
X126928000Y-86173370D03*
%TD*%
%TO.P,U6,1,GND*%
%TO.N,GND*%
X185027500Y-67638895D03*
%TO.P,U6,2,IN2*%
%TO.N,/5V*%
X185027500Y-60018895D03*
%TO.P,U6,3,IN1*%
X185027500Y-62558895D03*
%TO.P,U6,4,VM*%
%TO.N,+18V*%
X185027500Y-65098895D03*
%TD*%
%TO.P,U8,1,GND*%
%TO.N,GND*%
X185052500Y-89088895D03*
%TO.P,U8,2,IN2*%
%TO.N,/5V*%
X185052500Y-81468895D03*
%TO.P,U8,3,IN1*%
X185052500Y-84008895D03*
%TO.P,U8,4,VM*%
%TO.N,+18V*%
X185052500Y-86548895D03*
%TD*%
%TO.P,U2,1,GND*%
%TO.N,GND*%
X127000000Y-62133370D03*
%TO.P,U2,2,IN2*%
%TO.N,/5V*%
X127000000Y-69753370D03*
%TO.P,U2,3,IN1*%
X127000000Y-67213370D03*
%TO.P,U2,4,VM*%
%TO.N,+18V*%
X127000000Y-64673370D03*
%TD*%
%TO.P,U1,1,GND*%
%TO.N,GND*%
X126852500Y-40028895D03*
%TO.P,U1,2,IN2*%
%TO.N,/5V*%
X126852500Y-47648895D03*
%TO.P,U1,3,IN1*%
X126852500Y-45108895D03*
%TO.P,U1,4,VM*%
%TO.N,+18V*%
X126852500Y-42568895D03*
%TD*%
D12*
%TO.P,C20,1*%
%TO.N,/5V*%
X123880000Y-115140000D03*
D10*
%TO.P,C20,2*%
%TO.N,GND*%
X127380000Y-115140000D03*
%TD*%
D12*
%TO.P,C24,1*%
%TO.N,/5V*%
X98477349Y-116590000D03*
D10*
%TO.P,C24,2*%
%TO.N,GND*%
X101977349Y-116590000D03*
%TD*%
D13*
%TO.P,C15,1*%
%TO.N,/5V*%
X148855000Y-115190000D03*
D10*
%TO.P,C15,2*%
%TO.N,GND*%
X145355000Y-115190000D03*
%TD*%
D14*
%TO.P,A2,1,TX1*%
%TO.N,unconnected-(A2-TX1-Pad1)*%
X179600000Y-125766630D03*
D15*
%TO.P,A2,2,RX1*%
%TO.N,unconnected-(A2-RX1-Pad2)*%
X182140000Y-125766630D03*
%TO.P,A2,3,~{RESET}*%
%TO.N,unconnected-(A2-~{RESET}-Pad3)*%
X184680000Y-125766630D03*
%TO.P,A2,4,GND*%
%TO.N,GND*%
X187220000Y-125766630D03*
%TO.P,A2,5,D2*%
%TO.N,unconnected-(A2-D2-Pad5)*%
X189760000Y-125766630D03*
%TO.P,A2,6,D3*%
%TO.N,unconnected-(A2-D3-Pad6)*%
X192300000Y-125766630D03*
%TO.P,A2,7,D4*%
%TO.N,unconnected-(A2-D4-Pad7)*%
X194840000Y-125766630D03*
%TO.P,A2,8,D5*%
%TO.N,/5V*%
X197380000Y-125766630D03*
%TO.P,A2,9,D6*%
X199920000Y-125766630D03*
%TO.P,A2,10,D7*%
%TO.N,unconnected-(A2-D7-Pad10)*%
X202460000Y-125766630D03*
%TO.P,A2,11,D8*%
%TO.N,unconnected-(A2-D8-Pad11)*%
X205000000Y-125766630D03*
%TO.P,A2,12,D9*%
%TO.N,/5V*%
X207540000Y-125766630D03*
%TO.P,A2,13,D10*%
X210080000Y-125766630D03*
%TO.P,A2,14,MOSI*%
%TO.N,/SPI*%
X212620000Y-125766630D03*
%TO.P,A2,15,MISO*%
X215160000Y-125766630D03*
%TO.P,A2,16,SCK*%
%TO.N,unconnected-(A2-SCK-Pad16)*%
X215160000Y-110526630D03*
%TO.P,A2,17,3V3*%
%TO.N,unconnected-(A2-3V3-Pad17)*%
X212620000Y-110526630D03*
%TO.P,A2,18,AREF*%
%TO.N,unconnected-(A2-AREF-Pad18)*%
X210080000Y-110526630D03*
%TO.P,A2,19,A0*%
%TO.N,unconnected-(A2-A0-Pad19)*%
X207540000Y-110526630D03*
%TO.P,A2,20,A1*%
%TO.N,unconnected-(A2-A1-Pad20)*%
X205000000Y-110526630D03*
%TO.P,A2,21,A2*%
%TO.N,unconnected-(A2-A2-Pad21)*%
X202460000Y-110526630D03*
%TO.P,A2,22,A3*%
%TO.N,unconnected-(A2-A3-Pad22)*%
X199920000Y-110526630D03*
%TO.P,A2,23,SDA/A4*%
%TO.N,unconnected-(A2-SDA{slash}A4-Pad23)*%
X197380000Y-110526630D03*
%TO.P,A2,24,SCL/A5*%
%TO.N,unconnected-(A2-SCL{slash}A5-Pad24)*%
X194840000Y-110526630D03*
%TO.P,A2,25,A6*%
%TO.N,unconnected-(A2-A6-Pad25)*%
X192300000Y-110526630D03*
%TO.P,A2,26,A7*%
%TO.N,unconnected-(A2-A7-Pad26)*%
X189760000Y-110526630D03*
%TO.P,A2,27,+5V*%
%TO.N,unconnected-(A2-+5V-Pad27)*%
X187220000Y-110526630D03*
%TO.P,A2,28,~{RESET}*%
%TO.N,unconnected-(A2-~{RESET}-Pad28)*%
X184680000Y-110526630D03*
%TO.P,A2,29,GND*%
%TO.N,GND*%
X182140000Y-110526630D03*
%TO.P,A2,30,VIN*%
%TO.N,/5V*%
X179600000Y-110526630D03*
%TD*%
D16*
%TO.P,M4,1,PWM*%
%TO.N,/5V*%
X197040000Y-129180000D03*
D17*
%TO.P,M4,2,+*%
X197040000Y-131720000D03*
%TO.P,M4,3,-*%
%TO.N,GND*%
X197040000Y-134260000D03*
%TD*%
D16*
%TO.P,J4,1,Pin_1*%
%TO.N,/5V*%
X94170000Y-116640000D03*
D17*
%TO.P,J4,2,Pin_2*%
%TO.N,GND*%
X91630000Y-116640000D03*
%TD*%
D18*
%TO.P,J11,1,Pin_1*%
%TO.N,/5V*%
X208450000Y-101650000D03*
D19*
%TO.P,J11,2,Pin_2*%
%TO.N,/URAT*%
X210950000Y-101650000D03*
%TO.P,J11,3,Pin_3*%
X213450000Y-101650000D03*
%TO.P,J11,4,Pin_4*%
%TO.N,GND*%
X215950000Y-101650000D03*
%TO.P,J11,5,Pin_5*%
%TO.N,unconnected-(J11-Pin_5-Pad5)*%
X218450000Y-101650000D03*
%TD*%
D16*
%TO.P,M2,1,PWM*%
%TO.N,/5V*%
X206960000Y-129425000D03*
D17*
%TO.P,M2,2,+*%
X206960000Y-131965000D03*
%TO.P,M2,3,-*%
%TO.N,GND*%
X206960000Y-134505000D03*
%TD*%
D10*
%TO.P,C12,1*%
%TO.N,GND*%
X181000000Y-89083370D03*
%TO.P,C12,2*%
%TO.N,+18V*%
X181000000Y-86583370D03*
%TD*%
D16*
%TO.P,M1,1,PWM*%
%TO.N,/5V*%
X210735000Y-129350000D03*
D17*
%TO.P,M1,2,+*%
X210735000Y-131890000D03*
%TO.P,M1,3,-*%
%TO.N,GND*%
X210735000Y-134430000D03*
%TD*%
D16*
%TO.P,J7,1,Pin_1*%
%TO.N,GND*%
X103140000Y-55583370D03*
D17*
%TO.P,J7,2,Pin_2*%
%TO.N,/5V*%
X100600000Y-55583370D03*
%TO.P,J7,3,Pin_3*%
%TO.N,/DIGI*%
X98060000Y-55583370D03*
%TO.P,J7,4,Pin_4*%
X95520000Y-55583370D03*
%TD*%
D10*
%TO.P,C22,1*%
%TO.N,GND*%
X100750000Y-178590000D03*
%TO.P,C22,2*%
%TO.N,+18V*%
X98250000Y-178590000D03*
%TD*%
D16*
%TO.P,J8,1,Pin_1*%
%TO.N,GND*%
X216750000Y-45750000D03*
D17*
%TO.P,J8,2,Pin_2*%
%TO.N,/5V*%
X214210000Y-45750000D03*
%TO.P,J8,3,Pin_3*%
%TO.N,/DIGI*%
X211670000Y-45750000D03*
%TO.P,J8,4,Pin_4*%
X209130000Y-45750000D03*
%TD*%
D16*
%TO.P,J2,1,Pin_1*%
%TO.N,GND*%
X216800000Y-87633370D03*
D17*
%TO.P,J2,2,Pin_2*%
%TO.N,/5V*%
X214260000Y-87633370D03*
%TO.P,J2,3,Pin_3*%
%TO.N,/DIGI*%
X211720000Y-87633370D03*
%TO.P,J2,4,Pin_4*%
X209180000Y-87633370D03*
%TD*%
D10*
%TO.P,C11,1*%
%TO.N,GND*%
X130800000Y-40083370D03*
%TO.P,C11,2*%
%TO.N,+18V*%
X130800000Y-42583370D03*
%TD*%
D20*
%TO.P,U9,1,IN+*%
%TO.N,+18V*%
X98700000Y-174790000D03*
%TO.P,U9,2,IN-*%
%TO.N,GND*%
X117040000Y-174600000D03*
%TO.P,U9,3,OUT+*%
%TO.N,/5V*%
X98680000Y-126050000D03*
%TO.P,U9,4,OUT-*%
%TO.N,GND*%
X117360000Y-126050000D03*
%TD*%
D10*
%TO.P,C21,1*%
%TO.N,/5V*%
X123880000Y-121790000D03*
%TO.P,C21,2*%
%TO.N,GND*%
X126380000Y-121790000D03*
%TD*%
%TO.P,C9,1*%
%TO.N,GND*%
X131000000Y-62083370D03*
%TO.P,C9,2*%
%TO.N,+18V*%
X131000000Y-64583370D03*
%TD*%
%TO.P,C3,1*%
%TO.N,GND*%
X181200000Y-67533370D03*
%TO.P,C3,2*%
%TO.N,+18V*%
X181200000Y-65033370D03*
%TD*%
D16*
%TO.P,J5,1,Pin_1*%
%TO.N,GND*%
X94500000Y-99500000D03*
D17*
%TO.P,J5,2,Pin_2*%
%TO.N,/5V*%
X97040000Y-99500000D03*
%TO.P,J5,3,Pin_3*%
%TO.N,/DIGI*%
X99580000Y-99500000D03*
%TO.P,J5,4,Pin_4*%
X102120000Y-99500000D03*
%TD*%
D21*
%TO.P,C1,2*%
%TO.N,GND*%
X121030000Y-199190000D03*
D22*
%TO.P,C1,1*%
%TO.N,+18V*%
X126030000Y-199190000D03*
%TD*%
D10*
%TO.P,C18,1*%
%TO.N,GND*%
X122380000Y-178590000D03*
%TO.P,C18,2*%
%TO.N,+18V*%
X124880000Y-178590000D03*
%TD*%
D14*
%TO.P,A1,1,TX1*%
%TO.N,unconnected-(A1-TX1-Pad1)*%
X142907500Y-50737845D03*
D15*
%TO.P,A1,2,RX1*%
%TO.N,unconnected-(A1-RX1-Pad2)*%
X142907500Y-53277845D03*
%TO.P,A1,3,~{RESET}*%
%TO.N,unconnected-(A1-~{RESET}-Pad3)*%
X142907500Y-55817845D03*
%TO.P,A1,4,GND*%
%TO.N,GND*%
X142907500Y-58357845D03*
%TO.P,A1,5,D2*%
%TO.N,unconnected-(A1-D2-Pad5)*%
X142907500Y-60897845D03*
%TO.P,A1,6,D3*%
%TO.N,unconnected-(A1-D3-Pad6)*%
X142907500Y-63437845D03*
%TO.P,A1,7,D4*%
%TO.N,unconnected-(A1-D4-Pad7)*%
X142907500Y-65977845D03*
%TO.P,A1,8,D5*%
%TO.N,/5V*%
X142907500Y-68517845D03*
%TO.P,A1,9,D6*%
X142907500Y-71057845D03*
%TO.P,A1,10,D7*%
%TO.N,unconnected-(A1-D7-Pad10)*%
X142907500Y-73597845D03*
%TO.P,A1,11,D8*%
%TO.N,unconnected-(A1-D8-Pad11)*%
X142907500Y-76137845D03*
%TO.P,A1,12,D9*%
%TO.N,/5V*%
X142907500Y-78677845D03*
%TO.P,A1,13,D10*%
X142907500Y-81217845D03*
%TO.P,A1,14,MOSI*%
%TO.N,/SPI*%
X142907500Y-83757845D03*
%TO.P,A1,15,MISO*%
X142907500Y-86297845D03*
%TO.P,A1,16,SCK*%
%TO.N,unconnected-(A1-SCK-Pad16)*%
X158147500Y-86297845D03*
%TO.P,A1,17,3V3*%
%TO.N,unconnected-(A1-3V3-Pad17)*%
X158147500Y-83757845D03*
%TO.P,A1,18,AREF*%
%TO.N,unconnected-(A1-AREF-Pad18)*%
X158147500Y-81217845D03*
%TO.P,A1,19,A0*%
%TO.N,/DIGI*%
X158147500Y-78677845D03*
%TO.P,A1,20,A1*%
X158147500Y-76137845D03*
%TO.P,A1,21,A2*%
X158147500Y-73597845D03*
%TO.P,A1,22,A3*%
X158147500Y-71057845D03*
%TO.P,A1,23,SDA/A4*%
X158147500Y-68517845D03*
%TO.P,A1,24,SCL/A5*%
X158147500Y-65977845D03*
%TO.P,A1,25,A6*%
X158147500Y-63437845D03*
%TO.P,A1,26,A7*%
X158147500Y-60897845D03*
%TO.P,A1,27,+5V*%
%TO.N,/5V*%
X158147500Y-58357845D03*
%TO.P,A1,28,~{RESET}*%
%TO.N,unconnected-(A1-~{RESET}-Pad28)*%
X158147500Y-55817845D03*
%TO.P,A1,29,GND*%
%TO.N,GND*%
X158147500Y-53277845D03*
%TO.P,A1,30,VIN*%
%TO.N,unconnected-(A1-VIN-Pad30)*%
X158147500Y-50737845D03*
%TD*%
D10*
%TO.P,C14,1*%
%TO.N,/5V*%
X148800000Y-121990000D03*
%TO.P,C14,2*%
%TO.N,GND*%
X151300000Y-121990000D03*
%TD*%
%TO.P,C7,1*%
%TO.N,GND*%
X131000000Y-83733370D03*
%TO.P,C7,2*%
%TO.N,+18V*%
X131000000Y-86233370D03*
%TD*%
D23*
%TO.P,J14,1,Pin_1*%
%TO.N,GND*%
X205700000Y-198900000D03*
D24*
%TO.P,J14,2,Pin_2*%
%TO.N,+18V*%
X200700000Y-198900000D03*
%TD*%
D17*
%TO.P,SW1,3,C*%
%TO.N,unconnected-(SW1-C-Pad3)*%
X136750000Y-204330000D03*
%TO.P,SW1,2,B*%
%TO.N,+18V*%
X136750000Y-201790000D03*
D16*
%TO.P,SW1,1,A*%
X136750000Y-199250000D03*
%TD*%
%TO.P,J13,1,Pin_1*%
%TO.N,/URAT*%
X213470000Y-96800000D03*
D17*
%TO.P,J13,2,Pin_2*%
X210930000Y-96800000D03*
%TD*%
D20*
%TO.P,U3,1,IN+*%
%TO.N,+18V*%
X149040000Y-174730000D03*
%TO.P,U3,2,IN-*%
%TO.N,GND*%
X167380000Y-174540000D03*
%TO.P,U3,3,OUT+*%
%TO.N,/5V*%
X149020000Y-125990000D03*
%TO.P,U3,4,OUT-*%
%TO.N,GND*%
X167700000Y-125990000D03*
%TD*%
D10*
%TO.P,C17,1*%
%TO.N,GND*%
X146880000Y-178790000D03*
%TO.P,C17,2*%
%TO.N,+18V*%
X149380000Y-178790000D03*
%TD*%
%TO.P,C25,1*%
%TO.N,/5V*%
X98630000Y-122390000D03*
%TO.P,C25,2*%
%TO.N,GND*%
X101130000Y-122390000D03*
%TD*%
D20*
%TO.P,U10,1,IN+*%
%TO.N,+18V*%
X123800000Y-174680000D03*
%TO.P,U10,2,IN-*%
%TO.N,GND*%
X142140000Y-174490000D03*
%TO.P,U10,3,OUT+*%
%TO.N,/5V*%
X123780000Y-125940000D03*
%TO.P,U10,4,OUT-*%
%TO.N,GND*%
X142460000Y-125940000D03*
%TD*%
D16*
%TO.P,M3,1,PWM*%
%TO.N,/5V*%
X200630000Y-129200000D03*
D17*
%TO.P,M3,2,+*%
X200630000Y-131740000D03*
%TO.P,M3,3,-*%
%TO.N,GND*%
X200630000Y-134280000D03*
%TD*%
D10*
%TO.P,C5,1*%
%TO.N,GND*%
X181200000Y-46083370D03*
%TO.P,C5,2*%
%TO.N,+18V*%
X181200000Y-43583370D03*
%TD*%
D25*
%TO.P,C10,1*%
%TO.N,GND*%
X136500000Y-39500000D03*
D10*
%TO.P,C10,2*%
%TO.N,+18V*%
X136500000Y-43000000D03*
%TD*%
D26*
%TO.P,C13,1*%
%TO.N,GND*%
X174800000Y-90000000D03*
D10*
%TO.P,C13,2*%
%TO.N,+18V*%
X174800000Y-86500000D03*
%TD*%
D26*
%TO.P,C2,1*%
%TO.N,GND*%
X175500000Y-68500000D03*
D10*
%TO.P,C2,2*%
%TO.N,+18V*%
X175500000Y-65000000D03*
%TD*%
D25*
%TO.P,C8,1*%
%TO.N,GND*%
X137000000Y-62000000D03*
D10*
%TO.P,C8,2*%
%TO.N,+18V*%
X137000000Y-65500000D03*
%TD*%
D26*
%TO.P,C4,1*%
%TO.N,GND*%
X175500000Y-46500000D03*
D10*
%TO.P,C4,2*%
%TO.N,+18V*%
X175500000Y-43000000D03*
%TD*%
D12*
%TO.P,C16,1*%
%TO.N,GND*%
X146500000Y-185000000D03*
D10*
%TO.P,C16,2*%
%TO.N,+18V*%
X150000000Y-185000000D03*
%TD*%
D13*
%TO.P,C23,1*%
%TO.N,GND*%
X101000000Y-184500000D03*
D10*
%TO.P,C23,2*%
%TO.N,+18V*%
X97500000Y-184500000D03*
%TD*%
D12*
%TO.P,C19,1*%
%TO.N,GND*%
X121000000Y-184390000D03*
D10*
%TO.P,C19,2*%
%TO.N,+18V*%
X124500000Y-184390000D03*
%TD*%
D25*
%TO.P,C6,1*%
%TO.N,GND*%
X136500000Y-83000000D03*
D10*
%TO.P,C6,2*%
%TO.N,+18V*%
X136500000Y-86500000D03*
%TD*%
D27*
%TO.P,TH1,2*%
%TO.N,+18V*%
X165000000Y-199000000D03*
%TO.P,TH1,1*%
X155000000Y-199000000D03*
%TD*%
D28*
%TO.N,GND*%
X206950000Y-136860000D03*
X141000000Y-56950000D03*
X117540000Y-182490000D03*
X136550000Y-36950000D03*
X131050000Y-81540000D03*
X172500000Y-93000000D03*
X143130000Y-118640000D03*
X124250000Y-83600000D03*
X104255000Y-113015000D03*
X139150000Y-39900000D03*
X118250000Y-205450000D03*
X177200000Y-67750000D03*
X112130000Y-173680000D03*
X142380000Y-121890000D03*
X215300000Y-104100000D03*
X177000000Y-93000000D03*
X167630000Y-122140000D03*
X217600000Y-104150000D03*
X126950000Y-59450000D03*
X130130000Y-118390000D03*
X126700000Y-37450000D03*
X185250000Y-48800000D03*
X129630000Y-111390000D03*
X197050000Y-136640000D03*
X91650000Y-113750000D03*
X141630000Y-115140000D03*
X178300000Y-48600000D03*
X139380000Y-178390000D03*
X128630000Y-121890000D03*
X127000000Y-81050000D03*
X113880000Y-178390000D03*
X181500000Y-92000000D03*
X182150000Y-107900000D03*
X124500000Y-62150000D03*
D29*
X160250000Y-53250000D03*
D28*
X163130000Y-126140000D03*
X153880000Y-122140000D03*
X133750000Y-37000000D03*
X104630000Y-182390000D03*
X91550000Y-119350000D03*
X210750000Y-136750000D03*
X116630000Y-170180000D03*
X119520000Y-178610000D03*
X117380000Y-129890000D03*
X187500000Y-46150000D03*
X178300000Y-46400000D03*
X142380000Y-129890000D03*
X181300000Y-48500000D03*
X104380000Y-187390000D03*
X103380000Y-122390000D03*
X138500000Y-79250000D03*
X144540000Y-178830000D03*
X104755000Y-120015000D03*
X115990000Y-198930000D03*
X137880000Y-125890000D03*
X117380000Y-121890000D03*
D29*
X216750000Y-90000000D03*
D28*
X124200000Y-81150000D03*
X112880000Y-125890000D03*
X103130000Y-178640000D03*
X167130000Y-170140000D03*
X142630000Y-111640000D03*
D29*
X95000000Y-97500000D03*
D28*
X207500000Y-203000000D03*
X142650000Y-187110000D03*
X139050000Y-83350000D03*
X170350000Y-67800000D03*
X141910000Y-170180000D03*
X139250000Y-37050000D03*
D29*
X216750000Y-47800000D03*
D28*
X164380000Y-178350000D03*
X187200000Y-128150000D03*
X175550000Y-49000000D03*
X133700000Y-39650000D03*
X88920000Y-116690000D03*
X124400000Y-59600000D03*
X200620000Y-136600000D03*
X137410000Y-173680000D03*
X210000000Y-200500000D03*
X105755000Y-116515000D03*
X131130000Y-114890000D03*
X179500000Y-91000000D03*
X167630000Y-130140000D03*
X162630000Y-173640000D03*
X210000000Y-197000000D03*
X142560000Y-182710000D03*
X118250000Y-193710000D03*
X124350000Y-40000000D03*
D29*
X103150000Y-57400000D03*
D28*
X182950000Y-67650000D03*
X131050000Y-59800000D03*
X130750000Y-37650000D03*
X207500000Y-195000000D03*
X178950000Y-67750000D03*
X117630000Y-186890000D03*
%TO.N,/SPI*%
X152000000Y-95600000D03*
X148800000Y-89650000D03*
X146650000Y-90000000D03*
X153600000Y-94500000D03*
%TO.N,/5V*%
X168200000Y-68334370D03*
X148150000Y-50600000D03*
D29*
X140750000Y-66500000D03*
D28*
X152700000Y-54800000D03*
X209350000Y-50550000D03*
X202150000Y-50600000D03*
X168000000Y-48950000D03*
X168250000Y-77000000D03*
D29*
X160750000Y-47750000D03*
X156750000Y-44250000D03*
X138750000Y-69250000D03*
X138000000Y-72500000D03*
X163000000Y-89250000D03*
X163500000Y-44250000D03*
D28*
X163650000Y-53350000D03*
D29*
X144792672Y-76792672D03*
%TO.N,/DIGI*%
X167000000Y-81250000D03*
X144750000Y-69250000D03*
X160750000Y-93000000D03*
X151750000Y-73750000D03*
X146250000Y-68500000D03*
X160750000Y-91500000D03*
X165250000Y-83161522D03*
X151250000Y-71750000D03*
%TD*%
D30*
%TO.N,GND*%
X119520000Y-178610000D02*
X122360000Y-178610000D01*
X126852500Y-40028895D02*
X126852500Y-37602500D01*
X127000000Y-59500000D02*
X126950000Y-59450000D01*
X143130000Y-118640000D02*
X143130000Y-117415000D01*
X127000000Y-62133370D02*
X127000000Y-59500000D01*
X113030000Y-174580000D02*
X112130000Y-173680000D01*
X127000000Y-62133370D02*
X126933370Y-62133370D01*
X163130000Y-126140000D02*
X167550000Y-126140000D01*
D31*
X103140000Y-55583370D02*
X103140000Y-57390000D01*
D30*
X181200000Y-46083370D02*
X181200000Y-48400000D01*
X118250000Y-201970000D02*
X121030000Y-199190000D01*
X143720000Y-182710000D02*
X145800000Y-184790000D01*
X167130000Y-170140000D02*
X167130000Y-174290000D01*
X145305000Y-115140000D02*
X145355000Y-115190000D01*
X167550000Y-126140000D02*
X167700000Y-125990000D01*
X130880000Y-115140000D02*
X131130000Y-114890000D01*
X174800000Y-89886021D02*
X174800000Y-90800000D01*
X167380000Y-174540000D02*
X163530000Y-174540000D01*
X127000000Y-83633370D02*
X127000000Y-81050000D01*
X105505000Y-116765000D02*
X105755000Y-116515000D01*
X215950000Y-103450000D02*
X215300000Y-104100000D01*
X120977349Y-184390000D02*
X119440000Y-184390000D01*
X127380000Y-115140000D02*
X127380000Y-113640000D01*
X127000000Y-62133370D02*
X124516630Y-62133370D01*
X142160000Y-174580000D02*
X138310000Y-174580000D01*
X158147500Y-53277845D02*
X160222155Y-53277845D01*
X185052500Y-89088895D02*
X181005525Y-89088895D01*
X167130000Y-174290000D02*
X167380000Y-174540000D01*
X101380000Y-184390000D02*
X104380000Y-187390000D01*
D31*
X185027500Y-67638895D02*
X182961105Y-67638895D01*
D30*
X206960000Y-136850000D02*
X206950000Y-136860000D01*
X197040000Y-136630000D02*
X197050000Y-136640000D01*
X141630000Y-115140000D02*
X145305000Y-115140000D01*
X143480000Y-187110000D02*
X145800000Y-184790000D01*
X142160000Y-175390000D02*
X139160000Y-178390000D01*
X131000000Y-62083370D02*
X131000000Y-59850000D01*
X115990000Y-198930000D02*
X120770000Y-198930000D01*
X116630000Y-170180000D02*
X116630000Y-174330000D01*
X91650000Y-113750000D02*
X91650000Y-116620000D01*
X128530000Y-121790000D02*
X128630000Y-121890000D01*
X182140000Y-110526630D02*
X182140000Y-107910000D01*
X127000000Y-83633370D02*
X124283370Y-83633370D01*
X151450000Y-122140000D02*
X151300000Y-121990000D01*
X177200000Y-67750000D02*
X178950000Y-67750000D01*
X215950000Y-102500000D02*
X217600000Y-104150000D01*
D31*
X142907500Y-58357845D02*
X142407845Y-58357845D01*
D30*
X130800000Y-37700000D02*
X130750000Y-37650000D01*
X118250000Y-193710000D02*
X118250000Y-196410000D01*
X185027500Y-46138895D02*
X185027500Y-48577500D01*
X91630000Y-119270000D02*
X91550000Y-119350000D01*
X142650000Y-187110000D02*
X143480000Y-187110000D01*
X180983370Y-67750000D02*
X181200000Y-67533370D01*
X208400000Y-198900000D02*
X210000000Y-200500000D01*
X102005000Y-115265000D02*
X104255000Y-113015000D01*
X142630000Y-111640000D02*
X142630000Y-112465000D01*
X182140000Y-107910000D02*
X182150000Y-107900000D01*
X103080000Y-178590000D02*
X103130000Y-178640000D01*
X102005000Y-116765000D02*
X105505000Y-116765000D01*
X102005000Y-116765000D02*
X102005000Y-115265000D01*
X119440000Y-184390000D02*
X117540000Y-182490000D01*
X102005000Y-117265000D02*
X104755000Y-120015000D01*
X181005525Y-89088895D02*
X181000000Y-89083370D01*
X210735000Y-136735000D02*
X210750000Y-136750000D01*
X120977349Y-184390000D02*
X120130000Y-184390000D01*
X112880000Y-125890000D02*
X117300000Y-125890000D01*
X200630000Y-136590000D02*
X200620000Y-136600000D01*
X122360000Y-178610000D02*
X122380000Y-178590000D01*
X101200000Y-180570000D02*
X103130000Y-178640000D01*
X124378895Y-40028895D02*
X124350000Y-40000000D01*
X167380000Y-174540000D02*
X167380000Y-175350000D01*
X131000000Y-81590000D02*
X131050000Y-81540000D01*
X167700000Y-125990000D02*
X167700000Y-122210000D01*
D31*
X95000000Y-99000000D02*
X94500000Y-99500000D01*
D30*
X200630000Y-134280000D02*
X200630000Y-136590000D01*
X102630000Y-184390000D02*
X104630000Y-182390000D01*
X101200000Y-184390000D02*
X102630000Y-184390000D01*
X205700000Y-198900000D02*
X205700000Y-201200000D01*
X117450000Y-125740000D02*
X117450000Y-121960000D01*
X101130000Y-122390000D02*
X103380000Y-122390000D01*
X144580000Y-178790000D02*
X144540000Y-178830000D01*
X163530000Y-174540000D02*
X162630000Y-173640000D01*
D31*
X142407845Y-58357845D02*
X141000000Y-56950000D01*
D30*
X146880000Y-178790000D02*
X144580000Y-178790000D01*
X126380000Y-121790000D02*
X128530000Y-121790000D01*
X126933370Y-62133370D02*
X124400000Y-59600000D01*
X127380000Y-115140000D02*
X127380000Y-115640000D01*
X142450000Y-125740000D02*
X142450000Y-121960000D01*
X131000000Y-62083370D02*
X136450000Y-62083370D01*
X187200000Y-128150000D02*
X187200000Y-125786630D01*
X215950000Y-101650000D02*
X215950000Y-102500000D01*
X88920000Y-116690000D02*
X91580000Y-116690000D01*
X117450000Y-121960000D02*
X117380000Y-121890000D01*
X120770000Y-198930000D02*
X121030000Y-199190000D01*
X91630000Y-116640000D02*
X91630000Y-119270000D01*
D31*
X216750000Y-45750000D02*
X216750000Y-47800000D01*
X95000000Y-97500000D02*
X95000000Y-99000000D01*
D30*
X178386021Y-89886021D02*
X179500000Y-91000000D01*
X126852500Y-37602500D02*
X126700000Y-37450000D01*
X126683370Y-83633370D02*
X124200000Y-81150000D01*
X116880000Y-174580000D02*
X113030000Y-174580000D01*
X101200000Y-184390000D02*
X101200000Y-180570000D01*
X117450000Y-125740000D02*
X117450000Y-129820000D01*
X178950000Y-67750000D02*
X180983370Y-67750000D01*
X167380000Y-175350000D02*
X164380000Y-178350000D01*
X101200000Y-184390000D02*
X101380000Y-184390000D01*
X136600000Y-61933370D02*
X133183370Y-61933370D01*
X142450000Y-125740000D02*
X142450000Y-129820000D01*
X174800000Y-89886021D02*
X178386021Y-89886021D01*
X91650000Y-116620000D02*
X91630000Y-116640000D01*
X146880000Y-178790000D02*
X146880000Y-183710000D01*
X205700000Y-198900000D02*
X205700000Y-196800000D01*
X130800000Y-40083370D02*
X130800000Y-37700000D01*
X187200000Y-125786630D02*
X187220000Y-125766630D01*
X120977349Y-184390000D02*
X120977349Y-180067349D01*
X146880000Y-183710000D02*
X145800000Y-184790000D01*
D31*
X182961105Y-67638895D02*
X182950000Y-67650000D01*
D30*
X174800000Y-89886021D02*
X174800000Y-90700000D01*
X174800000Y-90800000D02*
X177000000Y-93000000D01*
X91580000Y-116690000D02*
X91630000Y-116640000D01*
X120977349Y-180067349D02*
X119520000Y-178610000D01*
X143130000Y-117415000D02*
X145355000Y-115190000D01*
X142630000Y-112465000D02*
X145355000Y-115190000D01*
X205700000Y-201200000D02*
X207500000Y-203000000D01*
X137880000Y-125890000D02*
X142300000Y-125890000D01*
X185027500Y-46138895D02*
X187488895Y-46138895D01*
X124283370Y-83633370D02*
X124250000Y-83600000D01*
X100750000Y-178590000D02*
X103080000Y-178590000D01*
X181000000Y-89083370D02*
X181000000Y-91500000D01*
X142450000Y-121960000D02*
X142380000Y-121890000D01*
X116880000Y-175390000D02*
X113880000Y-178390000D01*
X120130000Y-184390000D02*
X117630000Y-186890000D01*
X142450000Y-129820000D02*
X142380000Y-129890000D01*
X153880000Y-122140000D02*
X151450000Y-122140000D01*
X205700000Y-198900000D02*
X208100000Y-198900000D01*
X187488895Y-46138895D02*
X187500000Y-46150000D01*
X167700000Y-130070000D02*
X167630000Y-130140000D01*
D31*
X103140000Y-57390000D02*
X103150000Y-57400000D01*
X216800000Y-89950000D02*
X216750000Y-90000000D01*
D30*
X205700000Y-198900000D02*
X208400000Y-198900000D01*
X181200000Y-48400000D02*
X181300000Y-48500000D01*
X141910000Y-170180000D02*
X141910000Y-174330000D01*
X170683370Y-68133370D02*
X170350000Y-67800000D01*
X131000000Y-83733370D02*
X131000000Y-81590000D01*
X197040000Y-134260000D02*
X197040000Y-136630000D01*
X133183370Y-61933370D02*
X131050000Y-59800000D01*
X174800000Y-90700000D02*
X172500000Y-93000000D01*
X160222155Y-53277845D02*
X160250000Y-53250000D01*
X205700000Y-196800000D02*
X207500000Y-195000000D01*
X131000000Y-59850000D02*
X131050000Y-59800000D01*
X118250000Y-205450000D02*
X118250000Y-201970000D01*
X136450000Y-62083370D02*
X136600000Y-61933370D01*
X208100000Y-198900000D02*
X210000000Y-197000000D01*
X124516630Y-62133370D02*
X124500000Y-62150000D01*
X118250000Y-196410000D02*
X121030000Y-199190000D01*
X127380000Y-115140000D02*
X130880000Y-115140000D01*
X206960000Y-134505000D02*
X206960000Y-136850000D01*
X167700000Y-125990000D02*
X167700000Y-130070000D01*
X176816630Y-68133370D02*
X170683370Y-68133370D01*
D31*
X216800000Y-87633370D02*
X216800000Y-89950000D01*
D30*
X215950000Y-101650000D02*
X215950000Y-103450000D01*
X142560000Y-182710000D02*
X143720000Y-182710000D01*
X138310000Y-174580000D02*
X137410000Y-173680000D01*
X185027500Y-48577500D02*
X185250000Y-48800000D01*
X127000000Y-83633370D02*
X126683370Y-83633370D01*
X177200000Y-67750000D02*
X176816630Y-68133370D01*
X181000000Y-91500000D02*
X181500000Y-92000000D01*
X117450000Y-129820000D02*
X117380000Y-129890000D01*
D31*
X182950000Y-67650000D02*
X181316630Y-67650000D01*
D30*
X127380000Y-113640000D02*
X129630000Y-111390000D01*
X210735000Y-134430000D02*
X210735000Y-136735000D01*
X127380000Y-115640000D02*
X130130000Y-118390000D01*
D31*
X181316630Y-67650000D02*
X181200000Y-67533370D01*
D30*
X126852500Y-40028895D02*
X124378895Y-40028895D01*
X167700000Y-122210000D02*
X167630000Y-122140000D01*
X133716630Y-39633370D02*
X133700000Y-39650000D01*
X139050000Y-83350000D02*
X137169281Y-83350000D01*
X138883370Y-39633370D02*
X139150000Y-39900000D01*
X175886021Y-46400000D02*
X175600000Y-46686021D01*
X136400000Y-39633370D02*
X136666630Y-39633370D01*
X136400000Y-39633370D02*
X136400000Y-37100000D01*
X136400000Y-39633370D02*
X136383370Y-39633370D01*
D31*
X138500000Y-79250000D02*
X138500000Y-81280719D01*
D30*
X176386021Y-46686021D02*
X178300000Y-48600000D01*
X136400000Y-39633370D02*
X133716630Y-39633370D01*
X175600000Y-46686021D02*
X175600000Y-48950000D01*
X137169281Y-83350000D02*
X136951000Y-83131719D01*
X136951000Y-83131719D02*
X136951000Y-82980719D01*
X136666630Y-39633370D02*
X139250000Y-37050000D01*
D31*
X137169281Y-83350000D02*
X136800000Y-82980719D01*
D30*
X178300000Y-46400000D02*
X175886021Y-46400000D01*
X136383370Y-39633370D02*
X133750000Y-37000000D01*
D31*
X138500000Y-81280719D02*
X136800000Y-82980719D01*
D30*
X136400000Y-37100000D02*
X136550000Y-36950000D01*
X175600000Y-48950000D02*
X175550000Y-49000000D01*
X175600000Y-46686021D02*
X176386021Y-46686021D01*
X136400000Y-39633370D02*
X138883370Y-39633370D01*
D31*
%TO.N,/SPI*%
X142907500Y-83757845D02*
X142907500Y-83842500D01*
X142907500Y-86297845D02*
X142702155Y-86297845D01*
X212620000Y-138330000D02*
X212620000Y-125766630D01*
X211600000Y-141550000D02*
X215160000Y-137990000D01*
X173150000Y-116750000D02*
X173150000Y-133650000D01*
X142907500Y-83757845D02*
X142907845Y-83757845D01*
X181850000Y-140100000D02*
X210850000Y-140100000D01*
X142947845Y-86297845D02*
X146650000Y-90000000D01*
X153600000Y-94500000D02*
X174750000Y-115650000D01*
X210850000Y-140100000D02*
X212620000Y-138330000D01*
X174750000Y-133000000D02*
X181850000Y-140100000D01*
X215160000Y-137990000D02*
X215160000Y-125766630D01*
X181050000Y-141550000D02*
X211600000Y-141550000D01*
X174750000Y-115650000D02*
X174750000Y-133000000D01*
X142907845Y-83757845D02*
X148800000Y-89650000D01*
X173150000Y-133650000D02*
X181050000Y-141550000D01*
X152000000Y-95600000D02*
X173150000Y-116750000D01*
X142907500Y-86297845D02*
X142947845Y-86297845D01*
%TO.N,/5V*%
X140889655Y-66500000D02*
X142907500Y-68517845D01*
X97040000Y-101860000D02*
X96600000Y-102300000D01*
X126852500Y-45108895D02*
X140750000Y-59006395D01*
X173450000Y-50700000D02*
X202050000Y-50700000D01*
X93650000Y-57450000D02*
X93650000Y-96200000D01*
X92000000Y-97850000D02*
X92000000Y-102300000D01*
X127000000Y-88713370D02*
X127286630Y-89000000D01*
X176018895Y-60018895D02*
X160625000Y-44625000D01*
X97040000Y-99500000D02*
X97040000Y-101860000D01*
X185052500Y-84008895D02*
X169758895Y-84008895D01*
X139000000Y-67150345D02*
X142907500Y-71057845D01*
X160500000Y-89750000D02*
X151439655Y-89750000D01*
X140750000Y-66500000D02*
X140889655Y-66500000D01*
X156257845Y-58357845D02*
X152700000Y-54800000D01*
X169758895Y-84008895D02*
X169750000Y-84000000D01*
X166691105Y-41058895D02*
X163500000Y-44250000D01*
X166731105Y-38518895D02*
X160625000Y-44625000D01*
X185027500Y-60018895D02*
X176018895Y-60018895D01*
X185027500Y-38518895D02*
X166731105Y-38518895D01*
X199900000Y-84550000D02*
X206600000Y-91250000D01*
X206600000Y-91250000D02*
X210643370Y-91250000D01*
X185052500Y-81468895D02*
X168781105Y-81468895D01*
X127000000Y-67213370D02*
X132713370Y-67213370D01*
X93650000Y-57450000D02*
X98733370Y-57450000D01*
X127000000Y-88713370D02*
X127036630Y-88750000D01*
D30*
X207540000Y-125766630D02*
X207540000Y-128845000D01*
D31*
X175558895Y-62558895D02*
X160750000Y-47750000D01*
X127003370Y-91250000D02*
X134000000Y-91250000D01*
X133250000Y-88500000D02*
X133036630Y-88713370D01*
X148150000Y-36600000D02*
X143600000Y-32050000D01*
X168781105Y-81468895D02*
X160500000Y-89750000D01*
D30*
X207540000Y-128845000D02*
X206960000Y-129425000D01*
D31*
X140750000Y-59006395D02*
X140750000Y-66500000D01*
X139000000Y-59796395D02*
X139000000Y-67150345D01*
X158147500Y-58357845D02*
X168124025Y-68334370D01*
X160625000Y-44625000D02*
X149750000Y-55500000D01*
X171700000Y-48950000D02*
X173450000Y-50700000D01*
X158147500Y-58357845D02*
X156257845Y-58357845D01*
X106950000Y-32050000D02*
X93650000Y-45350000D01*
D30*
X210080000Y-128695000D02*
X210735000Y-129350000D01*
X199920000Y-125766630D02*
X199920000Y-128490000D01*
D31*
X133250000Y-88500000D02*
X133250000Y-77250000D01*
X149750000Y-55500000D02*
X149750000Y-74375345D01*
D30*
X199920000Y-128490000D02*
X200630000Y-129200000D01*
D31*
X131503370Y-69753370D02*
X132807845Y-71057845D01*
X134000000Y-91250000D02*
X135000000Y-90250000D01*
X151439655Y-89750000D02*
X148219827Y-86530173D01*
X158642155Y-58357845D02*
X163650000Y-53350000D01*
X168900000Y-77650000D02*
X199900000Y-77650000D01*
X148150000Y-50600000D02*
X148150000Y-36600000D01*
X168124025Y-68334370D02*
X168200000Y-68334370D01*
X209410000Y-50550000D02*
X214210000Y-45750000D01*
X135000000Y-90250000D02*
X135000000Y-81000000D01*
D30*
X197380000Y-125766630D02*
X197380000Y-128840000D01*
X197380000Y-128840000D02*
X197040000Y-129180000D01*
D31*
X168000000Y-48950000D02*
X171700000Y-48950000D01*
X149750000Y-74375345D02*
X142907500Y-81217845D01*
X202050000Y-50700000D02*
X202150000Y-50600000D01*
X156750000Y-44250000D02*
X147750000Y-53250000D01*
X134750000Y-69250000D02*
X138750000Y-69250000D01*
X158147500Y-58357845D02*
X158642155Y-58357845D01*
X93650000Y-96200000D02*
X92000000Y-97850000D01*
X209350000Y-50550000D02*
X209410000Y-50550000D01*
X164500000Y-89250000D02*
X163000000Y-89250000D01*
X148219827Y-86530173D02*
X142907500Y-81217845D01*
X132807845Y-71057845D02*
X142907500Y-71057845D01*
X147750000Y-53250000D02*
X147750000Y-73835345D01*
X185027500Y-62558895D02*
X175558895Y-62558895D01*
X93650000Y-45350000D02*
X93650000Y-57450000D01*
X92000000Y-102300000D02*
X96600000Y-102300000D01*
X169750000Y-84000000D02*
X164500000Y-89250000D01*
X136250000Y-79750000D02*
X136250000Y-77715345D01*
X127000000Y-69753370D02*
X131503370Y-69753370D01*
X185027500Y-41058895D02*
X166691105Y-41058895D01*
X199900000Y-77650000D02*
X199900000Y-84550000D01*
X132713370Y-67213370D02*
X134750000Y-69250000D01*
D30*
X210080000Y-125766630D02*
X210080000Y-128695000D01*
D31*
X144792672Y-76792672D02*
X142907500Y-78677845D01*
X135000000Y-81000000D02*
X136250000Y-79750000D01*
X210643370Y-91250000D02*
X214260000Y-87633370D01*
X168250000Y-77000000D02*
X168900000Y-77650000D01*
X126852500Y-47648895D02*
X139000000Y-59796395D01*
X133036630Y-88713370D02*
X127000000Y-88713370D01*
X133250000Y-77250000D02*
X138000000Y-72500000D01*
X127000000Y-91253370D02*
X127003370Y-91250000D01*
X136250000Y-77715345D02*
X142907500Y-71057845D01*
X98733370Y-57450000D02*
X100600000Y-55583370D01*
X143600000Y-32050000D02*
X106950000Y-32050000D01*
X147750000Y-73835345D02*
X144792672Y-76792672D01*
%TO.N,/DIGI*%
X160750000Y-91500000D02*
X136000000Y-91500000D01*
X142503862Y-33500000D02*
X146250000Y-37246138D01*
X157995345Y-73750000D02*
X158147500Y-73597845D01*
X209130000Y-45750000D02*
X209130000Y-45892758D01*
X95520000Y-45711526D02*
X107731526Y-33500000D01*
X207500000Y-80250000D02*
X202750000Y-75500000D01*
X130750000Y-101250000D02*
X129199000Y-102801000D01*
X136500000Y-93000000D02*
X132250000Y-97250000D01*
X132000000Y-97250000D02*
X132000000Y-102000000D01*
X129750000Y-104250000D02*
X104330000Y-104250000D01*
X107731526Y-33500000D02*
X142503862Y-33500000D01*
X141500000Y-35000000D02*
X108750000Y-35000000D01*
X166709655Y-72000000D02*
X158147500Y-63437845D01*
X129199000Y-102801000D02*
X105421000Y-102801000D01*
X104330000Y-104250000D02*
X99580000Y-99500000D01*
X165669655Y-73500000D02*
X158147500Y-65977845D01*
X211670000Y-45750000D02*
X185420000Y-72000000D01*
X165129655Y-75500000D02*
X158147500Y-68517845D01*
X136000000Y-91500000D02*
X130750000Y-96750000D01*
X209500000Y-79500000D02*
X203500000Y-73500000D01*
X202750000Y-75500000D02*
X165129655Y-75500000D01*
X209130000Y-45892758D02*
X184522758Y-70500000D01*
X102250000Y-41500000D02*
X102250000Y-51393370D01*
X151250000Y-71750000D02*
X157455345Y-71750000D01*
X209180000Y-87633370D02*
X207500000Y-85953370D01*
X160766323Y-78677845D02*
X165250000Y-83161522D01*
X132000000Y-102000000D02*
X129750000Y-104250000D01*
X211720000Y-87633370D02*
X209500000Y-85413370D01*
X203500000Y-73500000D02*
X165669655Y-73500000D01*
X157455345Y-71750000D02*
X158147500Y-71057845D01*
X158147500Y-76137845D02*
X161887845Y-76137845D01*
X161887845Y-76137845D02*
X167000000Y-81250000D01*
X185420000Y-72000000D02*
X166709655Y-72000000D01*
X130750000Y-96750000D02*
X130750000Y-101250000D01*
X207500000Y-85953370D02*
X207500000Y-80250000D01*
X209500000Y-85413370D02*
X209500000Y-79500000D01*
X144750000Y-38250000D02*
X141500000Y-35000000D01*
X151750000Y-73750000D02*
X157995345Y-73750000D01*
X144750000Y-69250000D02*
X144750000Y-38250000D01*
X102250000Y-51393370D02*
X98060000Y-55583370D01*
X95520000Y-55583370D02*
X95520000Y-45711526D01*
X184522758Y-70500000D02*
X167749655Y-70500000D01*
X108750000Y-35000000D02*
X102250000Y-41500000D01*
X160750000Y-93000000D02*
X136500000Y-93000000D01*
X146250000Y-37246138D02*
X146250000Y-68500000D01*
X105421000Y-102801000D02*
X102120000Y-99500000D01*
X167749655Y-70500000D02*
X158147500Y-60897845D01*
X158147500Y-78677845D02*
X160766323Y-78677845D01*
D30*
%TO.N,/URAT*%
X210930000Y-101630000D02*
X210950000Y-101650000D01*
X210930000Y-96800000D02*
X210930000Y-101630000D01*
X213470000Y-101630000D02*
X213450000Y-101650000D01*
X213470000Y-96800000D02*
X213470000Y-101630000D01*
%TD*%
M02*
