%TF.GenerationSoftware,KiCad,Pcbnew,9.0.6*%
%TF.CreationDate,2026-03-07T17:36:18+01:00*%
%TF.ProjectId,Protection,50726f74-6563-4746-996f-6e2e6b696361,rev?*%
%TF.SameCoordinates,Original*%
%TF.FileFunction,Legend,Top*%
%TF.FilePolarity,Positive*%
%FSLAX46Y46*%
G04 Gerber Fmt 4.6, Leading zero omitted, Abs format (unit mm)*
G04 Created by KiCad (PCBNEW 9.0.6) date 2026-03-07 17:36:18*
%MOMM*%
%LPD*%
G01*
G04 APERTURE LIST*
%ADD10C,0.550000*%
%ADD11C,0.300000*%
%ADD12C,0.100000*%
%ADD13C,0.125000*%
%ADD14C,0.150000*%
%ADD15C,0.152400*%
%ADD16C,0.000000*%
%ADD17C,0.200000*%
%ADD18C,0.120000*%
G04 APERTURE END LIST*
D10*
X96375000Y-61200000D02*
G75*
G02*
X95825000Y-61200000I-275000J0D01*
G01*
X95825000Y-61200000D02*
G75*
G02*
X96375000Y-61200000I275000J0D01*
G01*
D11*
X107740225Y-110272257D02*
X107597368Y-110200828D01*
X107597368Y-110200828D02*
X107383082Y-110200828D01*
X107383082Y-110200828D02*
X107168796Y-110272257D01*
X107168796Y-110272257D02*
X107025939Y-110415114D01*
X107025939Y-110415114D02*
X106954510Y-110557971D01*
X106954510Y-110557971D02*
X106883082Y-110843685D01*
X106883082Y-110843685D02*
X106883082Y-111057971D01*
X106883082Y-111057971D02*
X106954510Y-111343685D01*
X106954510Y-111343685D02*
X107025939Y-111486542D01*
X107025939Y-111486542D02*
X107168796Y-111629400D01*
X107168796Y-111629400D02*
X107383082Y-111700828D01*
X107383082Y-111700828D02*
X107525939Y-111700828D01*
X107525939Y-111700828D02*
X107740225Y-111629400D01*
X107740225Y-111629400D02*
X107811653Y-111557971D01*
X107811653Y-111557971D02*
X107811653Y-111057971D01*
X107811653Y-111057971D02*
X107525939Y-111057971D01*
X108454510Y-111700828D02*
X108454510Y-110200828D01*
X108454510Y-110200828D02*
X109311653Y-111700828D01*
X109311653Y-111700828D02*
X109311653Y-110200828D01*
X110025939Y-111700828D02*
X110025939Y-110200828D01*
X110025939Y-110200828D02*
X110383082Y-110200828D01*
X110383082Y-110200828D02*
X110597368Y-110272257D01*
X110597368Y-110272257D02*
X110740225Y-110415114D01*
X110740225Y-110415114D02*
X110811654Y-110557971D01*
X110811654Y-110557971D02*
X110883082Y-110843685D01*
X110883082Y-110843685D02*
X110883082Y-111057971D01*
X110883082Y-111057971D02*
X110811654Y-111343685D01*
X110811654Y-111343685D02*
X110740225Y-111486542D01*
X110740225Y-111486542D02*
X110597368Y-111629400D01*
X110597368Y-111629400D02*
X110383082Y-111700828D01*
X110383082Y-111700828D02*
X110025939Y-111700828D01*
X104140225Y-96100828D02*
X104640225Y-97600828D01*
X104640225Y-97600828D02*
X105140225Y-96100828D01*
X105925939Y-96100828D02*
X106211653Y-96100828D01*
X106211653Y-96100828D02*
X106354510Y-96172257D01*
X106354510Y-96172257D02*
X106497367Y-96315114D01*
X106497367Y-96315114D02*
X106568796Y-96600828D01*
X106568796Y-96600828D02*
X106568796Y-97100828D01*
X106568796Y-97100828D02*
X106497367Y-97386542D01*
X106497367Y-97386542D02*
X106354510Y-97529400D01*
X106354510Y-97529400D02*
X106211653Y-97600828D01*
X106211653Y-97600828D02*
X105925939Y-97600828D01*
X105925939Y-97600828D02*
X105783082Y-97529400D01*
X105783082Y-97529400D02*
X105640224Y-97386542D01*
X105640224Y-97386542D02*
X105568796Y-97100828D01*
X105568796Y-97100828D02*
X105568796Y-96600828D01*
X105568796Y-96600828D02*
X105640224Y-96315114D01*
X105640224Y-96315114D02*
X105783082Y-96172257D01*
X105783082Y-96172257D02*
X105925939Y-96100828D01*
X107211653Y-96100828D02*
X107211653Y-97315114D01*
X107211653Y-97315114D02*
X107283082Y-97457971D01*
X107283082Y-97457971D02*
X107354511Y-97529400D01*
X107354511Y-97529400D02*
X107497368Y-97600828D01*
X107497368Y-97600828D02*
X107783082Y-97600828D01*
X107783082Y-97600828D02*
X107925939Y-97529400D01*
X107925939Y-97529400D02*
X107997368Y-97457971D01*
X107997368Y-97457971D02*
X108068796Y-97315114D01*
X108068796Y-97315114D02*
X108068796Y-96100828D01*
X108568797Y-96100828D02*
X109425940Y-96100828D01*
X108997368Y-97600828D02*
X108997368Y-96100828D01*
X118240225Y-53972257D02*
X118097368Y-53900828D01*
X118097368Y-53900828D02*
X117883082Y-53900828D01*
X117883082Y-53900828D02*
X117668796Y-53972257D01*
X117668796Y-53972257D02*
X117525939Y-54115114D01*
X117525939Y-54115114D02*
X117454510Y-54257971D01*
X117454510Y-54257971D02*
X117383082Y-54543685D01*
X117383082Y-54543685D02*
X117383082Y-54757971D01*
X117383082Y-54757971D02*
X117454510Y-55043685D01*
X117454510Y-55043685D02*
X117525939Y-55186542D01*
X117525939Y-55186542D02*
X117668796Y-55329400D01*
X117668796Y-55329400D02*
X117883082Y-55400828D01*
X117883082Y-55400828D02*
X118025939Y-55400828D01*
X118025939Y-55400828D02*
X118240225Y-55329400D01*
X118240225Y-55329400D02*
X118311653Y-55257971D01*
X118311653Y-55257971D02*
X118311653Y-54757971D01*
X118311653Y-54757971D02*
X118025939Y-54757971D01*
X118954510Y-55400828D02*
X118954510Y-53900828D01*
X118954510Y-53900828D02*
X119811653Y-55400828D01*
X119811653Y-55400828D02*
X119811653Y-53900828D01*
X120525939Y-55400828D02*
X120525939Y-53900828D01*
X120525939Y-53900828D02*
X120883082Y-53900828D01*
X120883082Y-53900828D02*
X121097368Y-53972257D01*
X121097368Y-53972257D02*
X121240225Y-54115114D01*
X121240225Y-54115114D02*
X121311654Y-54257971D01*
X121311654Y-54257971D02*
X121383082Y-54543685D01*
X121383082Y-54543685D02*
X121383082Y-54757971D01*
X121383082Y-54757971D02*
X121311654Y-55043685D01*
X121311654Y-55043685D02*
X121240225Y-55186542D01*
X121240225Y-55186542D02*
X121097368Y-55329400D01*
X121097368Y-55329400D02*
X120883082Y-55400828D01*
X120883082Y-55400828D02*
X120525939Y-55400828D01*
D12*
X93538095Y-109808940D02*
X93271428Y-109427987D01*
X93080952Y-109808940D02*
X93080952Y-109008940D01*
X93080952Y-109008940D02*
X93385714Y-109008940D01*
X93385714Y-109008940D02*
X93461904Y-109047035D01*
X93461904Y-109047035D02*
X93499999Y-109085130D01*
X93499999Y-109085130D02*
X93538095Y-109161321D01*
X93538095Y-109161321D02*
X93538095Y-109275606D01*
X93538095Y-109275606D02*
X93499999Y-109351797D01*
X93499999Y-109351797D02*
X93461904Y-109389892D01*
X93461904Y-109389892D02*
X93385714Y-109427987D01*
X93385714Y-109427987D02*
X93080952Y-109427987D01*
X93880952Y-109389892D02*
X94147618Y-109389892D01*
X94261904Y-109808940D02*
X93880952Y-109808940D01*
X93880952Y-109808940D02*
X93880952Y-109008940D01*
X93880952Y-109008940D02*
X94261904Y-109008940D01*
X94490476Y-109008940D02*
X94757143Y-109808940D01*
X94757143Y-109808940D02*
X95023809Y-109008940D01*
X96166666Y-109389892D02*
X96280952Y-109427987D01*
X96280952Y-109427987D02*
X96319047Y-109466083D01*
X96319047Y-109466083D02*
X96357143Y-109542273D01*
X96357143Y-109542273D02*
X96357143Y-109656559D01*
X96357143Y-109656559D02*
X96319047Y-109732749D01*
X96319047Y-109732749D02*
X96280952Y-109770845D01*
X96280952Y-109770845D02*
X96204762Y-109808940D01*
X96204762Y-109808940D02*
X95900000Y-109808940D01*
X95900000Y-109808940D02*
X95900000Y-109008940D01*
X95900000Y-109008940D02*
X96166666Y-109008940D01*
X96166666Y-109008940D02*
X96242857Y-109047035D01*
X96242857Y-109047035D02*
X96280952Y-109085130D01*
X96280952Y-109085130D02*
X96319047Y-109161321D01*
X96319047Y-109161321D02*
X96319047Y-109237511D01*
X96319047Y-109237511D02*
X96280952Y-109313702D01*
X96280952Y-109313702D02*
X96242857Y-109351797D01*
X96242857Y-109351797D02*
X96166666Y-109389892D01*
X96166666Y-109389892D02*
X95900000Y-109389892D01*
X91233332Y-110296895D02*
X91766666Y-110296895D01*
X91766666Y-110296895D02*
X91423808Y-111096895D01*
X92680952Y-111096895D02*
X92680952Y-110296895D01*
X92680952Y-110296895D02*
X92947618Y-110868323D01*
X92947618Y-110868323D02*
X93214285Y-110296895D01*
X93214285Y-110296895D02*
X93214285Y-111096895D01*
X93938095Y-111096895D02*
X93938095Y-110677847D01*
X93938095Y-110677847D02*
X93900000Y-110601657D01*
X93900000Y-110601657D02*
X93823809Y-110563561D01*
X93823809Y-110563561D02*
X93671428Y-110563561D01*
X93671428Y-110563561D02*
X93595238Y-110601657D01*
X93938095Y-111058800D02*
X93861904Y-111096895D01*
X93861904Y-111096895D02*
X93671428Y-111096895D01*
X93671428Y-111096895D02*
X93595238Y-111058800D01*
X93595238Y-111058800D02*
X93557142Y-110982609D01*
X93557142Y-110982609D02*
X93557142Y-110906419D01*
X93557142Y-110906419D02*
X93595238Y-110830228D01*
X93595238Y-110830228D02*
X93671428Y-110792133D01*
X93671428Y-110792133D02*
X93861904Y-110792133D01*
X93861904Y-110792133D02*
X93938095Y-110754038D01*
X94319048Y-111096895D02*
X94319048Y-110563561D01*
X94319048Y-110715942D02*
X94357143Y-110639752D01*
X94357143Y-110639752D02*
X94395238Y-110601657D01*
X94395238Y-110601657D02*
X94471429Y-110563561D01*
X94471429Y-110563561D02*
X94547619Y-110563561D01*
X95385714Y-110373085D02*
X95423810Y-110334990D01*
X95423810Y-110334990D02*
X95500000Y-110296895D01*
X95500000Y-110296895D02*
X95690476Y-110296895D01*
X95690476Y-110296895D02*
X95766667Y-110334990D01*
X95766667Y-110334990D02*
X95804762Y-110373085D01*
X95804762Y-110373085D02*
X95842857Y-110449276D01*
X95842857Y-110449276D02*
X95842857Y-110525466D01*
X95842857Y-110525466D02*
X95804762Y-110639752D01*
X95804762Y-110639752D02*
X95347619Y-111096895D01*
X95347619Y-111096895D02*
X95842857Y-111096895D01*
X96338096Y-110296895D02*
X96414286Y-110296895D01*
X96414286Y-110296895D02*
X96490477Y-110334990D01*
X96490477Y-110334990D02*
X96528572Y-110373085D01*
X96528572Y-110373085D02*
X96566667Y-110449276D01*
X96566667Y-110449276D02*
X96604762Y-110601657D01*
X96604762Y-110601657D02*
X96604762Y-110792133D01*
X96604762Y-110792133D02*
X96566667Y-110944514D01*
X96566667Y-110944514D02*
X96528572Y-111020704D01*
X96528572Y-111020704D02*
X96490477Y-111058800D01*
X96490477Y-111058800D02*
X96414286Y-111096895D01*
X96414286Y-111096895D02*
X96338096Y-111096895D01*
X96338096Y-111096895D02*
X96261905Y-111058800D01*
X96261905Y-111058800D02*
X96223810Y-111020704D01*
X96223810Y-111020704D02*
X96185715Y-110944514D01*
X96185715Y-110944514D02*
X96147619Y-110792133D01*
X96147619Y-110792133D02*
X96147619Y-110601657D01*
X96147619Y-110601657D02*
X96185715Y-110449276D01*
X96185715Y-110449276D02*
X96223810Y-110373085D01*
X96223810Y-110373085D02*
X96261905Y-110334990D01*
X96261905Y-110334990D02*
X96338096Y-110296895D01*
X96909524Y-110373085D02*
X96947620Y-110334990D01*
X96947620Y-110334990D02*
X97023810Y-110296895D01*
X97023810Y-110296895D02*
X97214286Y-110296895D01*
X97214286Y-110296895D02*
X97290477Y-110334990D01*
X97290477Y-110334990D02*
X97328572Y-110373085D01*
X97328572Y-110373085D02*
X97366667Y-110449276D01*
X97366667Y-110449276D02*
X97366667Y-110525466D01*
X97366667Y-110525466D02*
X97328572Y-110639752D01*
X97328572Y-110639752D02*
X96871429Y-111096895D01*
X96871429Y-111096895D02*
X97366667Y-111096895D01*
X98090477Y-110296895D02*
X97709525Y-110296895D01*
X97709525Y-110296895D02*
X97671429Y-110677847D01*
X97671429Y-110677847D02*
X97709525Y-110639752D01*
X97709525Y-110639752D02*
X97785715Y-110601657D01*
X97785715Y-110601657D02*
X97976191Y-110601657D01*
X97976191Y-110601657D02*
X98052382Y-110639752D01*
X98052382Y-110639752D02*
X98090477Y-110677847D01*
X98090477Y-110677847D02*
X98128572Y-110754038D01*
X98128572Y-110754038D02*
X98128572Y-110944514D01*
X98128572Y-110944514D02*
X98090477Y-111020704D01*
X98090477Y-111020704D02*
X98052382Y-111058800D01*
X98052382Y-111058800D02*
X97976191Y-111096895D01*
X97976191Y-111096895D02*
X97785715Y-111096895D01*
X97785715Y-111096895D02*
X97709525Y-111058800D01*
X97709525Y-111058800D02*
X97671429Y-111020704D01*
D11*
X117740225Y-67700828D02*
X118240225Y-69200828D01*
X118240225Y-69200828D02*
X118740225Y-67700828D01*
X119240224Y-69200828D02*
X119240224Y-67700828D01*
X119954510Y-69200828D02*
X119954510Y-67700828D01*
X119954510Y-67700828D02*
X120811653Y-69200828D01*
X120811653Y-69200828D02*
X120811653Y-67700828D01*
D13*
X101319047Y-79824809D02*
X101319047Y-80229571D01*
X101319047Y-80229571D02*
X101342857Y-80277190D01*
X101342857Y-80277190D02*
X101366666Y-80301000D01*
X101366666Y-80301000D02*
X101414285Y-80324809D01*
X101414285Y-80324809D02*
X101509523Y-80324809D01*
X101509523Y-80324809D02*
X101557142Y-80301000D01*
X101557142Y-80301000D02*
X101580952Y-80277190D01*
X101580952Y-80277190D02*
X101604761Y-80229571D01*
X101604761Y-80229571D02*
X101604761Y-79824809D01*
X101795238Y-79824809D02*
X102104762Y-79824809D01*
X102104762Y-79824809D02*
X101938095Y-80015285D01*
X101938095Y-80015285D02*
X102009524Y-80015285D01*
X102009524Y-80015285D02*
X102057143Y-80039095D01*
X102057143Y-80039095D02*
X102080952Y-80062904D01*
X102080952Y-80062904D02*
X102104762Y-80110523D01*
X102104762Y-80110523D02*
X102104762Y-80229571D01*
X102104762Y-80229571D02*
X102080952Y-80277190D01*
X102080952Y-80277190D02*
X102057143Y-80301000D01*
X102057143Y-80301000D02*
X102009524Y-80324809D01*
X102009524Y-80324809D02*
X101866667Y-80324809D01*
X101866667Y-80324809D02*
X101819048Y-80301000D01*
X101819048Y-80301000D02*
X101795238Y-80277190D01*
X100119047Y-87424809D02*
X100119047Y-87829571D01*
X100119047Y-87829571D02*
X100142857Y-87877190D01*
X100142857Y-87877190D02*
X100166666Y-87901000D01*
X100166666Y-87901000D02*
X100214285Y-87924809D01*
X100214285Y-87924809D02*
X100309523Y-87924809D01*
X100309523Y-87924809D02*
X100357142Y-87901000D01*
X100357142Y-87901000D02*
X100380952Y-87877190D01*
X100380952Y-87877190D02*
X100404761Y-87829571D01*
X100404761Y-87829571D02*
X100404761Y-87424809D01*
X100619048Y-87472428D02*
X100642857Y-87448619D01*
X100642857Y-87448619D02*
X100690476Y-87424809D01*
X100690476Y-87424809D02*
X100809524Y-87424809D01*
X100809524Y-87424809D02*
X100857143Y-87448619D01*
X100857143Y-87448619D02*
X100880952Y-87472428D01*
X100880952Y-87472428D02*
X100904762Y-87520047D01*
X100904762Y-87520047D02*
X100904762Y-87567666D01*
X100904762Y-87567666D02*
X100880952Y-87639095D01*
X100880952Y-87639095D02*
X100595238Y-87924809D01*
X100595238Y-87924809D02*
X100904762Y-87924809D01*
D14*
X99500000Y-87554819D02*
X99500000Y-87792914D01*
X99261905Y-87697676D02*
X99500000Y-87792914D01*
X99500000Y-87792914D02*
X99738095Y-87697676D01*
X99357143Y-87983390D02*
X99500000Y-87792914D01*
X99500000Y-87792914D02*
X99642857Y-87983390D01*
D13*
X90319047Y-62724809D02*
X90319047Y-63129571D01*
X90319047Y-63129571D02*
X90342857Y-63177190D01*
X90342857Y-63177190D02*
X90366666Y-63201000D01*
X90366666Y-63201000D02*
X90414285Y-63224809D01*
X90414285Y-63224809D02*
X90509523Y-63224809D01*
X90509523Y-63224809D02*
X90557142Y-63201000D01*
X90557142Y-63201000D02*
X90580952Y-63177190D01*
X90580952Y-63177190D02*
X90604761Y-63129571D01*
X90604761Y-63129571D02*
X90604761Y-62724809D01*
X91104762Y-63224809D02*
X90819048Y-63224809D01*
X90961905Y-63224809D02*
X90961905Y-62724809D01*
X90961905Y-62724809D02*
X90914286Y-62796238D01*
X90914286Y-62796238D02*
X90866667Y-62843857D01*
X90866667Y-62843857D02*
X90819048Y-62867666D01*
X127912380Y-78972428D02*
X127864761Y-78948619D01*
X127864761Y-78948619D02*
X127817142Y-78901000D01*
X127817142Y-78901000D02*
X127745714Y-78829571D01*
X127745714Y-78829571D02*
X127698095Y-78805761D01*
X127698095Y-78805761D02*
X127650476Y-78805761D01*
X127674285Y-78924809D02*
X127626666Y-78901000D01*
X127626666Y-78901000D02*
X127579047Y-78853380D01*
X127579047Y-78853380D02*
X127555238Y-78758142D01*
X127555238Y-78758142D02*
X127555238Y-78591476D01*
X127555238Y-78591476D02*
X127579047Y-78496238D01*
X127579047Y-78496238D02*
X127626666Y-78448619D01*
X127626666Y-78448619D02*
X127674285Y-78424809D01*
X127674285Y-78424809D02*
X127769523Y-78424809D01*
X127769523Y-78424809D02*
X127817142Y-78448619D01*
X127817142Y-78448619D02*
X127864761Y-78496238D01*
X127864761Y-78496238D02*
X127888571Y-78591476D01*
X127888571Y-78591476D02*
X127888571Y-78758142D01*
X127888571Y-78758142D02*
X127864761Y-78853380D01*
X127864761Y-78853380D02*
X127817142Y-78901000D01*
X127817142Y-78901000D02*
X127769523Y-78924809D01*
X127769523Y-78924809D02*
X127674285Y-78924809D01*
X128055238Y-78424809D02*
X128364762Y-78424809D01*
X128364762Y-78424809D02*
X128198095Y-78615285D01*
X128198095Y-78615285D02*
X128269524Y-78615285D01*
X128269524Y-78615285D02*
X128317143Y-78639095D01*
X128317143Y-78639095D02*
X128340952Y-78662904D01*
X128340952Y-78662904D02*
X128364762Y-78710523D01*
X128364762Y-78710523D02*
X128364762Y-78829571D01*
X128364762Y-78829571D02*
X128340952Y-78877190D01*
X128340952Y-78877190D02*
X128317143Y-78901000D01*
X128317143Y-78901000D02*
X128269524Y-78924809D01*
X128269524Y-78924809D02*
X128126667Y-78924809D01*
X128126667Y-78924809D02*
X128079048Y-78901000D01*
X128079048Y-78901000D02*
X128055238Y-78877190D01*
X115752380Y-78972428D02*
X115704761Y-78948619D01*
X115704761Y-78948619D02*
X115657142Y-78901000D01*
X115657142Y-78901000D02*
X115585714Y-78829571D01*
X115585714Y-78829571D02*
X115538095Y-78805761D01*
X115538095Y-78805761D02*
X115490476Y-78805761D01*
X115514285Y-78924809D02*
X115466666Y-78901000D01*
X115466666Y-78901000D02*
X115419047Y-78853380D01*
X115419047Y-78853380D02*
X115395238Y-78758142D01*
X115395238Y-78758142D02*
X115395238Y-78591476D01*
X115395238Y-78591476D02*
X115419047Y-78496238D01*
X115419047Y-78496238D02*
X115466666Y-78448619D01*
X115466666Y-78448619D02*
X115514285Y-78424809D01*
X115514285Y-78424809D02*
X115609523Y-78424809D01*
X115609523Y-78424809D02*
X115657142Y-78448619D01*
X115657142Y-78448619D02*
X115704761Y-78496238D01*
X115704761Y-78496238D02*
X115728571Y-78591476D01*
X115728571Y-78591476D02*
X115728571Y-78758142D01*
X115728571Y-78758142D02*
X115704761Y-78853380D01*
X115704761Y-78853380D02*
X115657142Y-78901000D01*
X115657142Y-78901000D02*
X115609523Y-78924809D01*
X115609523Y-78924809D02*
X115514285Y-78924809D01*
X115919048Y-78472428D02*
X115942857Y-78448619D01*
X115942857Y-78448619D02*
X115990476Y-78424809D01*
X115990476Y-78424809D02*
X116109524Y-78424809D01*
X116109524Y-78424809D02*
X116157143Y-78448619D01*
X116157143Y-78448619D02*
X116180952Y-78472428D01*
X116180952Y-78472428D02*
X116204762Y-78520047D01*
X116204762Y-78520047D02*
X116204762Y-78567666D01*
X116204762Y-78567666D02*
X116180952Y-78639095D01*
X116180952Y-78639095D02*
X115895238Y-78924809D01*
X115895238Y-78924809D02*
X116204762Y-78924809D01*
X98502380Y-66972428D02*
X98454761Y-66948619D01*
X98454761Y-66948619D02*
X98407142Y-66901000D01*
X98407142Y-66901000D02*
X98335714Y-66829571D01*
X98335714Y-66829571D02*
X98288095Y-66805761D01*
X98288095Y-66805761D02*
X98240476Y-66805761D01*
X98264285Y-66924809D02*
X98216666Y-66901000D01*
X98216666Y-66901000D02*
X98169047Y-66853380D01*
X98169047Y-66853380D02*
X98145238Y-66758142D01*
X98145238Y-66758142D02*
X98145238Y-66591476D01*
X98145238Y-66591476D02*
X98169047Y-66496238D01*
X98169047Y-66496238D02*
X98216666Y-66448619D01*
X98216666Y-66448619D02*
X98264285Y-66424809D01*
X98264285Y-66424809D02*
X98359523Y-66424809D01*
X98359523Y-66424809D02*
X98407142Y-66448619D01*
X98407142Y-66448619D02*
X98454761Y-66496238D01*
X98454761Y-66496238D02*
X98478571Y-66591476D01*
X98478571Y-66591476D02*
X98478571Y-66758142D01*
X98478571Y-66758142D02*
X98454761Y-66853380D01*
X98454761Y-66853380D02*
X98407142Y-66901000D01*
X98407142Y-66901000D02*
X98359523Y-66924809D01*
X98359523Y-66924809D02*
X98264285Y-66924809D01*
X98954762Y-66924809D02*
X98669048Y-66924809D01*
X98811905Y-66924809D02*
X98811905Y-66424809D01*
X98811905Y-66424809D02*
X98764286Y-66496238D01*
X98764286Y-66496238D02*
X98716667Y-66543857D01*
X98716667Y-66543857D02*
X98669048Y-66567666D01*
X82619047Y-106074809D02*
X82619047Y-105574809D01*
X82619047Y-105812904D02*
X82904761Y-105812904D01*
X82904761Y-106074809D02*
X82904761Y-105574809D01*
X83095238Y-105574809D02*
X83404762Y-105574809D01*
X83404762Y-105574809D02*
X83238095Y-105765285D01*
X83238095Y-105765285D02*
X83309524Y-105765285D01*
X83309524Y-105765285D02*
X83357143Y-105789095D01*
X83357143Y-105789095D02*
X83380952Y-105812904D01*
X83380952Y-105812904D02*
X83404762Y-105860523D01*
X83404762Y-105860523D02*
X83404762Y-105979571D01*
X83404762Y-105979571D02*
X83380952Y-106027190D01*
X83380952Y-106027190D02*
X83357143Y-106051000D01*
X83357143Y-106051000D02*
X83309524Y-106074809D01*
X83309524Y-106074809D02*
X83166667Y-106074809D01*
X83166667Y-106074809D02*
X83119048Y-106051000D01*
X83119048Y-106051000D02*
X83095238Y-106027190D01*
X126619047Y-54624809D02*
X126619047Y-54124809D01*
X126619047Y-54362904D02*
X126904761Y-54362904D01*
X126904761Y-54624809D02*
X126904761Y-54124809D01*
X127119048Y-54172428D02*
X127142857Y-54148619D01*
X127142857Y-54148619D02*
X127190476Y-54124809D01*
X127190476Y-54124809D02*
X127309524Y-54124809D01*
X127309524Y-54124809D02*
X127357143Y-54148619D01*
X127357143Y-54148619D02*
X127380952Y-54172428D01*
X127380952Y-54172428D02*
X127404762Y-54220047D01*
X127404762Y-54220047D02*
X127404762Y-54267666D01*
X127404762Y-54267666D02*
X127380952Y-54339095D01*
X127380952Y-54339095D02*
X127095238Y-54624809D01*
X127095238Y-54624809D02*
X127404762Y-54624809D01*
X85919047Y-54124809D02*
X85919047Y-53624809D01*
X85919047Y-53862904D02*
X86204761Y-53862904D01*
X86204761Y-54124809D02*
X86204761Y-53624809D01*
X86704762Y-54124809D02*
X86419048Y-54124809D01*
X86561905Y-54124809D02*
X86561905Y-53624809D01*
X86561905Y-53624809D02*
X86514286Y-53696238D01*
X86514286Y-53696238D02*
X86466667Y-53743857D01*
X86466667Y-53743857D02*
X86419048Y-53767666D01*
X95454166Y-78724809D02*
X95287500Y-78486714D01*
X95168452Y-78724809D02*
X95168452Y-78224809D01*
X95168452Y-78224809D02*
X95358928Y-78224809D01*
X95358928Y-78224809D02*
X95406547Y-78248619D01*
X95406547Y-78248619D02*
X95430357Y-78272428D01*
X95430357Y-78272428D02*
X95454166Y-78320047D01*
X95454166Y-78320047D02*
X95454166Y-78391476D01*
X95454166Y-78391476D02*
X95430357Y-78439095D01*
X95430357Y-78439095D02*
X95406547Y-78462904D01*
X95406547Y-78462904D02*
X95358928Y-78486714D01*
X95358928Y-78486714D02*
X95168452Y-78486714D01*
X95692262Y-78724809D02*
X95787500Y-78724809D01*
X95787500Y-78724809D02*
X95835119Y-78701000D01*
X95835119Y-78701000D02*
X95858928Y-78677190D01*
X95858928Y-78677190D02*
X95906547Y-78605761D01*
X95906547Y-78605761D02*
X95930357Y-78510523D01*
X95930357Y-78510523D02*
X95930357Y-78320047D01*
X95930357Y-78320047D02*
X95906547Y-78272428D01*
X95906547Y-78272428D02*
X95882738Y-78248619D01*
X95882738Y-78248619D02*
X95835119Y-78224809D01*
X95835119Y-78224809D02*
X95739881Y-78224809D01*
X95739881Y-78224809D02*
X95692262Y-78248619D01*
X95692262Y-78248619D02*
X95668452Y-78272428D01*
X95668452Y-78272428D02*
X95644643Y-78320047D01*
X95644643Y-78320047D02*
X95644643Y-78439095D01*
X95644643Y-78439095D02*
X95668452Y-78486714D01*
X95668452Y-78486714D02*
X95692262Y-78510523D01*
X95692262Y-78510523D02*
X95739881Y-78534333D01*
X95739881Y-78534333D02*
X95835119Y-78534333D01*
X95835119Y-78534333D02*
X95882738Y-78510523D01*
X95882738Y-78510523D02*
X95906547Y-78486714D01*
X95906547Y-78486714D02*
X95930357Y-78439095D01*
X121416666Y-110077190D02*
X121392857Y-110101000D01*
X121392857Y-110101000D02*
X121321428Y-110124809D01*
X121321428Y-110124809D02*
X121273809Y-110124809D01*
X121273809Y-110124809D02*
X121202381Y-110101000D01*
X121202381Y-110101000D02*
X121154762Y-110053380D01*
X121154762Y-110053380D02*
X121130952Y-110005761D01*
X121130952Y-110005761D02*
X121107143Y-109910523D01*
X121107143Y-109910523D02*
X121107143Y-109839095D01*
X121107143Y-109839095D02*
X121130952Y-109743857D01*
X121130952Y-109743857D02*
X121154762Y-109696238D01*
X121154762Y-109696238D02*
X121202381Y-109648619D01*
X121202381Y-109648619D02*
X121273809Y-109624809D01*
X121273809Y-109624809D02*
X121321428Y-109624809D01*
X121321428Y-109624809D02*
X121392857Y-109648619D01*
X121392857Y-109648619D02*
X121416666Y-109672428D01*
X121583333Y-109624809D02*
X121916666Y-109624809D01*
X121916666Y-109624809D02*
X121702381Y-110124809D01*
X114816666Y-101677190D02*
X114792857Y-101701000D01*
X114792857Y-101701000D02*
X114721428Y-101724809D01*
X114721428Y-101724809D02*
X114673809Y-101724809D01*
X114673809Y-101724809D02*
X114602381Y-101701000D01*
X114602381Y-101701000D02*
X114554762Y-101653380D01*
X114554762Y-101653380D02*
X114530952Y-101605761D01*
X114530952Y-101605761D02*
X114507143Y-101510523D01*
X114507143Y-101510523D02*
X114507143Y-101439095D01*
X114507143Y-101439095D02*
X114530952Y-101343857D01*
X114530952Y-101343857D02*
X114554762Y-101296238D01*
X114554762Y-101296238D02*
X114602381Y-101248619D01*
X114602381Y-101248619D02*
X114673809Y-101224809D01*
X114673809Y-101224809D02*
X114721428Y-101224809D01*
X114721428Y-101224809D02*
X114792857Y-101248619D01*
X114792857Y-101248619D02*
X114816666Y-101272428D01*
X115102381Y-101439095D02*
X115054762Y-101415285D01*
X115054762Y-101415285D02*
X115030952Y-101391476D01*
X115030952Y-101391476D02*
X115007143Y-101343857D01*
X115007143Y-101343857D02*
X115007143Y-101320047D01*
X115007143Y-101320047D02*
X115030952Y-101272428D01*
X115030952Y-101272428D02*
X115054762Y-101248619D01*
X115054762Y-101248619D02*
X115102381Y-101224809D01*
X115102381Y-101224809D02*
X115197619Y-101224809D01*
X115197619Y-101224809D02*
X115245238Y-101248619D01*
X115245238Y-101248619D02*
X115269047Y-101272428D01*
X115269047Y-101272428D02*
X115292857Y-101320047D01*
X115292857Y-101320047D02*
X115292857Y-101343857D01*
X115292857Y-101343857D02*
X115269047Y-101391476D01*
X115269047Y-101391476D02*
X115245238Y-101415285D01*
X115245238Y-101415285D02*
X115197619Y-101439095D01*
X115197619Y-101439095D02*
X115102381Y-101439095D01*
X115102381Y-101439095D02*
X115054762Y-101462904D01*
X115054762Y-101462904D02*
X115030952Y-101486714D01*
X115030952Y-101486714D02*
X115007143Y-101534333D01*
X115007143Y-101534333D02*
X115007143Y-101629571D01*
X115007143Y-101629571D02*
X115030952Y-101677190D01*
X115030952Y-101677190D02*
X115054762Y-101701000D01*
X115054762Y-101701000D02*
X115102381Y-101724809D01*
X115102381Y-101724809D02*
X115197619Y-101724809D01*
X115197619Y-101724809D02*
X115245238Y-101701000D01*
X115245238Y-101701000D02*
X115269047Y-101677190D01*
X115269047Y-101677190D02*
X115292857Y-101629571D01*
X115292857Y-101629571D02*
X115292857Y-101534333D01*
X115292857Y-101534333D02*
X115269047Y-101486714D01*
X115269047Y-101486714D02*
X115245238Y-101462904D01*
X115245238Y-101462904D02*
X115197619Y-101439095D01*
X90341666Y-95154809D02*
X90175000Y-94916714D01*
X90055952Y-95154809D02*
X90055952Y-94654809D01*
X90055952Y-94654809D02*
X90246428Y-94654809D01*
X90246428Y-94654809D02*
X90294047Y-94678619D01*
X90294047Y-94678619D02*
X90317857Y-94702428D01*
X90317857Y-94702428D02*
X90341666Y-94750047D01*
X90341666Y-94750047D02*
X90341666Y-94821476D01*
X90341666Y-94821476D02*
X90317857Y-94869095D01*
X90317857Y-94869095D02*
X90294047Y-94892904D01*
X90294047Y-94892904D02*
X90246428Y-94916714D01*
X90246428Y-94916714D02*
X90055952Y-94916714D01*
X90770238Y-94821476D02*
X90770238Y-95154809D01*
X90651190Y-94631000D02*
X90532143Y-94988142D01*
X90532143Y-94988142D02*
X90841666Y-94988142D01*
X90916666Y-59177190D02*
X90892857Y-59201000D01*
X90892857Y-59201000D02*
X90821428Y-59224809D01*
X90821428Y-59224809D02*
X90773809Y-59224809D01*
X90773809Y-59224809D02*
X90702381Y-59201000D01*
X90702381Y-59201000D02*
X90654762Y-59153380D01*
X90654762Y-59153380D02*
X90630952Y-59105761D01*
X90630952Y-59105761D02*
X90607143Y-59010523D01*
X90607143Y-59010523D02*
X90607143Y-58939095D01*
X90607143Y-58939095D02*
X90630952Y-58843857D01*
X90630952Y-58843857D02*
X90654762Y-58796238D01*
X90654762Y-58796238D02*
X90702381Y-58748619D01*
X90702381Y-58748619D02*
X90773809Y-58724809D01*
X90773809Y-58724809D02*
X90821428Y-58724809D01*
X90821428Y-58724809D02*
X90892857Y-58748619D01*
X90892857Y-58748619D02*
X90916666Y-58772428D01*
X91083333Y-58724809D02*
X91392857Y-58724809D01*
X91392857Y-58724809D02*
X91226190Y-58915285D01*
X91226190Y-58915285D02*
X91297619Y-58915285D01*
X91297619Y-58915285D02*
X91345238Y-58939095D01*
X91345238Y-58939095D02*
X91369047Y-58962904D01*
X91369047Y-58962904D02*
X91392857Y-59010523D01*
X91392857Y-59010523D02*
X91392857Y-59129571D01*
X91392857Y-59129571D02*
X91369047Y-59177190D01*
X91369047Y-59177190D02*
X91345238Y-59201000D01*
X91345238Y-59201000D02*
X91297619Y-59224809D01*
X91297619Y-59224809D02*
X91154762Y-59224809D01*
X91154762Y-59224809D02*
X91107143Y-59201000D01*
X91107143Y-59201000D02*
X91083333Y-59177190D01*
X107316666Y-81277190D02*
X107292857Y-81301000D01*
X107292857Y-81301000D02*
X107221428Y-81324809D01*
X107221428Y-81324809D02*
X107173809Y-81324809D01*
X107173809Y-81324809D02*
X107102381Y-81301000D01*
X107102381Y-81301000D02*
X107054762Y-81253380D01*
X107054762Y-81253380D02*
X107030952Y-81205761D01*
X107030952Y-81205761D02*
X107007143Y-81110523D01*
X107007143Y-81110523D02*
X107007143Y-81039095D01*
X107007143Y-81039095D02*
X107030952Y-80943857D01*
X107030952Y-80943857D02*
X107054762Y-80896238D01*
X107054762Y-80896238D02*
X107102381Y-80848619D01*
X107102381Y-80848619D02*
X107173809Y-80824809D01*
X107173809Y-80824809D02*
X107221428Y-80824809D01*
X107221428Y-80824809D02*
X107292857Y-80848619D01*
X107292857Y-80848619D02*
X107316666Y-80872428D01*
X107554762Y-81324809D02*
X107650000Y-81324809D01*
X107650000Y-81324809D02*
X107697619Y-81301000D01*
X107697619Y-81301000D02*
X107721428Y-81277190D01*
X107721428Y-81277190D02*
X107769047Y-81205761D01*
X107769047Y-81205761D02*
X107792857Y-81110523D01*
X107792857Y-81110523D02*
X107792857Y-80920047D01*
X107792857Y-80920047D02*
X107769047Y-80872428D01*
X107769047Y-80872428D02*
X107745238Y-80848619D01*
X107745238Y-80848619D02*
X107697619Y-80824809D01*
X107697619Y-80824809D02*
X107602381Y-80824809D01*
X107602381Y-80824809D02*
X107554762Y-80848619D01*
X107554762Y-80848619D02*
X107530952Y-80872428D01*
X107530952Y-80872428D02*
X107507143Y-80920047D01*
X107507143Y-80920047D02*
X107507143Y-81039095D01*
X107507143Y-81039095D02*
X107530952Y-81086714D01*
X107530952Y-81086714D02*
X107554762Y-81110523D01*
X107554762Y-81110523D02*
X107602381Y-81134333D01*
X107602381Y-81134333D02*
X107697619Y-81134333D01*
X107697619Y-81134333D02*
X107745238Y-81110523D01*
X107745238Y-81110523D02*
X107769047Y-81086714D01*
X107769047Y-81086714D02*
X107792857Y-81039095D01*
X90116666Y-88824809D02*
X89950000Y-88586714D01*
X89830952Y-88824809D02*
X89830952Y-88324809D01*
X89830952Y-88324809D02*
X90021428Y-88324809D01*
X90021428Y-88324809D02*
X90069047Y-88348619D01*
X90069047Y-88348619D02*
X90092857Y-88372428D01*
X90092857Y-88372428D02*
X90116666Y-88420047D01*
X90116666Y-88420047D02*
X90116666Y-88491476D01*
X90116666Y-88491476D02*
X90092857Y-88539095D01*
X90092857Y-88539095D02*
X90069047Y-88562904D01*
X90069047Y-88562904D02*
X90021428Y-88586714D01*
X90021428Y-88586714D02*
X89830952Y-88586714D01*
X90592857Y-88824809D02*
X90307143Y-88824809D01*
X90450000Y-88824809D02*
X90450000Y-88324809D01*
X90450000Y-88324809D02*
X90402381Y-88396238D01*
X90402381Y-88396238D02*
X90354762Y-88443857D01*
X90354762Y-88443857D02*
X90307143Y-88467666D01*
X121878571Y-96724809D02*
X121711905Y-96486714D01*
X121592857Y-96724809D02*
X121592857Y-96224809D01*
X121592857Y-96224809D02*
X121783333Y-96224809D01*
X121783333Y-96224809D02*
X121830952Y-96248619D01*
X121830952Y-96248619D02*
X121854762Y-96272428D01*
X121854762Y-96272428D02*
X121878571Y-96320047D01*
X121878571Y-96320047D02*
X121878571Y-96391476D01*
X121878571Y-96391476D02*
X121854762Y-96439095D01*
X121854762Y-96439095D02*
X121830952Y-96462904D01*
X121830952Y-96462904D02*
X121783333Y-96486714D01*
X121783333Y-96486714D02*
X121592857Y-96486714D01*
X122354762Y-96724809D02*
X122069048Y-96724809D01*
X122211905Y-96724809D02*
X122211905Y-96224809D01*
X122211905Y-96224809D02*
X122164286Y-96296238D01*
X122164286Y-96296238D02*
X122116667Y-96343857D01*
X122116667Y-96343857D02*
X122069048Y-96367666D01*
X122545238Y-96272428D02*
X122569047Y-96248619D01*
X122569047Y-96248619D02*
X122616666Y-96224809D01*
X122616666Y-96224809D02*
X122735714Y-96224809D01*
X122735714Y-96224809D02*
X122783333Y-96248619D01*
X122783333Y-96248619D02*
X122807142Y-96272428D01*
X122807142Y-96272428D02*
X122830952Y-96320047D01*
X122830952Y-96320047D02*
X122830952Y-96367666D01*
X122830952Y-96367666D02*
X122807142Y-96439095D01*
X122807142Y-96439095D02*
X122521428Y-96724809D01*
X122521428Y-96724809D02*
X122830952Y-96724809D01*
X108524809Y-62101370D02*
X108024809Y-62101370D01*
X108024809Y-62101370D02*
X108024809Y-61982322D01*
X108024809Y-61982322D02*
X108048619Y-61910894D01*
X108048619Y-61910894D02*
X108096238Y-61863275D01*
X108096238Y-61863275D02*
X108143857Y-61839465D01*
X108143857Y-61839465D02*
X108239095Y-61815656D01*
X108239095Y-61815656D02*
X108310523Y-61815656D01*
X108310523Y-61815656D02*
X108405761Y-61839465D01*
X108405761Y-61839465D02*
X108453380Y-61863275D01*
X108453380Y-61863275D02*
X108501000Y-61910894D01*
X108501000Y-61910894D02*
X108524809Y-61982322D01*
X108524809Y-61982322D02*
X108524809Y-62101370D01*
X108524809Y-61339465D02*
X108524809Y-61625179D01*
X108524809Y-61482322D02*
X108024809Y-61482322D01*
X108024809Y-61482322D02*
X108096238Y-61529941D01*
X108096238Y-61529941D02*
X108143857Y-61577560D01*
X108143857Y-61577560D02*
X108167666Y-61625179D01*
X89916666Y-90524809D02*
X89750000Y-90286714D01*
X89630952Y-90524809D02*
X89630952Y-90024809D01*
X89630952Y-90024809D02*
X89821428Y-90024809D01*
X89821428Y-90024809D02*
X89869047Y-90048619D01*
X89869047Y-90048619D02*
X89892857Y-90072428D01*
X89892857Y-90072428D02*
X89916666Y-90120047D01*
X89916666Y-90120047D02*
X89916666Y-90191476D01*
X89916666Y-90191476D02*
X89892857Y-90239095D01*
X89892857Y-90239095D02*
X89869047Y-90262904D01*
X89869047Y-90262904D02*
X89821428Y-90286714D01*
X89821428Y-90286714D02*
X89630952Y-90286714D01*
X90107143Y-90072428D02*
X90130952Y-90048619D01*
X90130952Y-90048619D02*
X90178571Y-90024809D01*
X90178571Y-90024809D02*
X90297619Y-90024809D01*
X90297619Y-90024809D02*
X90345238Y-90048619D01*
X90345238Y-90048619D02*
X90369047Y-90072428D01*
X90369047Y-90072428D02*
X90392857Y-90120047D01*
X90392857Y-90120047D02*
X90392857Y-90167666D01*
X90392857Y-90167666D02*
X90369047Y-90239095D01*
X90369047Y-90239095D02*
X90083333Y-90524809D01*
X90083333Y-90524809D02*
X90392857Y-90524809D01*
X88666666Y-70827190D02*
X88642857Y-70851000D01*
X88642857Y-70851000D02*
X88571428Y-70874809D01*
X88571428Y-70874809D02*
X88523809Y-70874809D01*
X88523809Y-70874809D02*
X88452381Y-70851000D01*
X88452381Y-70851000D02*
X88404762Y-70803380D01*
X88404762Y-70803380D02*
X88380952Y-70755761D01*
X88380952Y-70755761D02*
X88357143Y-70660523D01*
X88357143Y-70660523D02*
X88357143Y-70589095D01*
X88357143Y-70589095D02*
X88380952Y-70493857D01*
X88380952Y-70493857D02*
X88404762Y-70446238D01*
X88404762Y-70446238D02*
X88452381Y-70398619D01*
X88452381Y-70398619D02*
X88523809Y-70374809D01*
X88523809Y-70374809D02*
X88571428Y-70374809D01*
X88571428Y-70374809D02*
X88642857Y-70398619D01*
X88642857Y-70398619D02*
X88666666Y-70422428D01*
X89095238Y-70541476D02*
X89095238Y-70874809D01*
X88976190Y-70351000D02*
X88857143Y-70708142D01*
X88857143Y-70708142D02*
X89166666Y-70708142D01*
X87316666Y-82477190D02*
X87292857Y-82501000D01*
X87292857Y-82501000D02*
X87221428Y-82524809D01*
X87221428Y-82524809D02*
X87173809Y-82524809D01*
X87173809Y-82524809D02*
X87102381Y-82501000D01*
X87102381Y-82501000D02*
X87054762Y-82453380D01*
X87054762Y-82453380D02*
X87030952Y-82405761D01*
X87030952Y-82405761D02*
X87007143Y-82310523D01*
X87007143Y-82310523D02*
X87007143Y-82239095D01*
X87007143Y-82239095D02*
X87030952Y-82143857D01*
X87030952Y-82143857D02*
X87054762Y-82096238D01*
X87054762Y-82096238D02*
X87102381Y-82048619D01*
X87102381Y-82048619D02*
X87173809Y-82024809D01*
X87173809Y-82024809D02*
X87221428Y-82024809D01*
X87221428Y-82024809D02*
X87292857Y-82048619D01*
X87292857Y-82048619D02*
X87316666Y-82072428D01*
X87769047Y-82024809D02*
X87530952Y-82024809D01*
X87530952Y-82024809D02*
X87507143Y-82262904D01*
X87507143Y-82262904D02*
X87530952Y-82239095D01*
X87530952Y-82239095D02*
X87578571Y-82215285D01*
X87578571Y-82215285D02*
X87697619Y-82215285D01*
X87697619Y-82215285D02*
X87745238Y-82239095D01*
X87745238Y-82239095D02*
X87769047Y-82262904D01*
X87769047Y-82262904D02*
X87792857Y-82310523D01*
X87792857Y-82310523D02*
X87792857Y-82429571D01*
X87792857Y-82429571D02*
X87769047Y-82477190D01*
X87769047Y-82477190D02*
X87745238Y-82501000D01*
X87745238Y-82501000D02*
X87697619Y-82524809D01*
X87697619Y-82524809D02*
X87578571Y-82524809D01*
X87578571Y-82524809D02*
X87530952Y-82501000D01*
X87530952Y-82501000D02*
X87507143Y-82477190D01*
X123953333Y-61224809D02*
X123953333Y-61581952D01*
X123953333Y-61581952D02*
X123929524Y-61653380D01*
X123929524Y-61653380D02*
X123881905Y-61701000D01*
X123881905Y-61701000D02*
X123810476Y-61724809D01*
X123810476Y-61724809D02*
X123762857Y-61724809D01*
X124453333Y-61724809D02*
X124167619Y-61724809D01*
X124310476Y-61724809D02*
X124310476Y-61224809D01*
X124310476Y-61224809D02*
X124262857Y-61296238D01*
X124262857Y-61296238D02*
X124215238Y-61343857D01*
X124215238Y-61343857D02*
X124167619Y-61367666D01*
X100278571Y-85324809D02*
X100111905Y-85086714D01*
X99992857Y-85324809D02*
X99992857Y-84824809D01*
X99992857Y-84824809D02*
X100183333Y-84824809D01*
X100183333Y-84824809D02*
X100230952Y-84848619D01*
X100230952Y-84848619D02*
X100254762Y-84872428D01*
X100254762Y-84872428D02*
X100278571Y-84920047D01*
X100278571Y-84920047D02*
X100278571Y-84991476D01*
X100278571Y-84991476D02*
X100254762Y-85039095D01*
X100254762Y-85039095D02*
X100230952Y-85062904D01*
X100230952Y-85062904D02*
X100183333Y-85086714D01*
X100183333Y-85086714D02*
X99992857Y-85086714D01*
X100754762Y-85324809D02*
X100469048Y-85324809D01*
X100611905Y-85324809D02*
X100611905Y-84824809D01*
X100611905Y-84824809D02*
X100564286Y-84896238D01*
X100564286Y-84896238D02*
X100516667Y-84943857D01*
X100516667Y-84943857D02*
X100469048Y-84967666D01*
X101207142Y-84824809D02*
X100969047Y-84824809D01*
X100969047Y-84824809D02*
X100945238Y-85062904D01*
X100945238Y-85062904D02*
X100969047Y-85039095D01*
X100969047Y-85039095D02*
X101016666Y-85015285D01*
X101016666Y-85015285D02*
X101135714Y-85015285D01*
X101135714Y-85015285D02*
X101183333Y-85039095D01*
X101183333Y-85039095D02*
X101207142Y-85062904D01*
X101207142Y-85062904D02*
X101230952Y-85110523D01*
X101230952Y-85110523D02*
X101230952Y-85229571D01*
X101230952Y-85229571D02*
X101207142Y-85277190D01*
X101207142Y-85277190D02*
X101183333Y-85301000D01*
X101183333Y-85301000D02*
X101135714Y-85324809D01*
X101135714Y-85324809D02*
X101016666Y-85324809D01*
X101016666Y-85324809D02*
X100969047Y-85301000D01*
X100969047Y-85301000D02*
X100945238Y-85277190D01*
X107078571Y-83177190D02*
X107054762Y-83201000D01*
X107054762Y-83201000D02*
X106983333Y-83224809D01*
X106983333Y-83224809D02*
X106935714Y-83224809D01*
X106935714Y-83224809D02*
X106864286Y-83201000D01*
X106864286Y-83201000D02*
X106816667Y-83153380D01*
X106816667Y-83153380D02*
X106792857Y-83105761D01*
X106792857Y-83105761D02*
X106769048Y-83010523D01*
X106769048Y-83010523D02*
X106769048Y-82939095D01*
X106769048Y-82939095D02*
X106792857Y-82843857D01*
X106792857Y-82843857D02*
X106816667Y-82796238D01*
X106816667Y-82796238D02*
X106864286Y-82748619D01*
X106864286Y-82748619D02*
X106935714Y-82724809D01*
X106935714Y-82724809D02*
X106983333Y-82724809D01*
X106983333Y-82724809D02*
X107054762Y-82748619D01*
X107054762Y-82748619D02*
X107078571Y-82772428D01*
X107554762Y-83224809D02*
X107269048Y-83224809D01*
X107411905Y-83224809D02*
X107411905Y-82724809D01*
X107411905Y-82724809D02*
X107364286Y-82796238D01*
X107364286Y-82796238D02*
X107316667Y-82843857D01*
X107316667Y-82843857D02*
X107269048Y-82867666D01*
X107864285Y-82724809D02*
X107911904Y-82724809D01*
X107911904Y-82724809D02*
X107959523Y-82748619D01*
X107959523Y-82748619D02*
X107983333Y-82772428D01*
X107983333Y-82772428D02*
X108007142Y-82820047D01*
X108007142Y-82820047D02*
X108030952Y-82915285D01*
X108030952Y-82915285D02*
X108030952Y-83034333D01*
X108030952Y-83034333D02*
X108007142Y-83129571D01*
X108007142Y-83129571D02*
X107983333Y-83177190D01*
X107983333Y-83177190D02*
X107959523Y-83201000D01*
X107959523Y-83201000D02*
X107911904Y-83224809D01*
X107911904Y-83224809D02*
X107864285Y-83224809D01*
X107864285Y-83224809D02*
X107816666Y-83201000D01*
X107816666Y-83201000D02*
X107792857Y-83177190D01*
X107792857Y-83177190D02*
X107769047Y-83129571D01*
X107769047Y-83129571D02*
X107745238Y-83034333D01*
X107745238Y-83034333D02*
X107745238Y-82915285D01*
X107745238Y-82915285D02*
X107769047Y-82820047D01*
X107769047Y-82820047D02*
X107792857Y-82772428D01*
X107792857Y-82772428D02*
X107816666Y-82748619D01*
X107816666Y-82748619D02*
X107864285Y-82724809D01*
X111928571Y-98154809D02*
X111761905Y-97916714D01*
X111642857Y-98154809D02*
X111642857Y-97654809D01*
X111642857Y-97654809D02*
X111833333Y-97654809D01*
X111833333Y-97654809D02*
X111880952Y-97678619D01*
X111880952Y-97678619D02*
X111904762Y-97702428D01*
X111904762Y-97702428D02*
X111928571Y-97750047D01*
X111928571Y-97750047D02*
X111928571Y-97821476D01*
X111928571Y-97821476D02*
X111904762Y-97869095D01*
X111904762Y-97869095D02*
X111880952Y-97892904D01*
X111880952Y-97892904D02*
X111833333Y-97916714D01*
X111833333Y-97916714D02*
X111642857Y-97916714D01*
X112404762Y-98154809D02*
X112119048Y-98154809D01*
X112261905Y-98154809D02*
X112261905Y-97654809D01*
X112261905Y-97654809D02*
X112214286Y-97726238D01*
X112214286Y-97726238D02*
X112166667Y-97773857D01*
X112166667Y-97773857D02*
X112119048Y-97797666D01*
X112880952Y-98154809D02*
X112595238Y-98154809D01*
X112738095Y-98154809D02*
X112738095Y-97654809D01*
X112738095Y-97654809D02*
X112690476Y-97726238D01*
X112690476Y-97726238D02*
X112642857Y-97773857D01*
X112642857Y-97773857D02*
X112595238Y-97797666D01*
X95216071Y-83424809D02*
X95049405Y-83186714D01*
X94930357Y-83424809D02*
X94930357Y-82924809D01*
X94930357Y-82924809D02*
X95120833Y-82924809D01*
X95120833Y-82924809D02*
X95168452Y-82948619D01*
X95168452Y-82948619D02*
X95192262Y-82972428D01*
X95192262Y-82972428D02*
X95216071Y-83020047D01*
X95216071Y-83020047D02*
X95216071Y-83091476D01*
X95216071Y-83091476D02*
X95192262Y-83139095D01*
X95192262Y-83139095D02*
X95168452Y-83162904D01*
X95168452Y-83162904D02*
X95120833Y-83186714D01*
X95120833Y-83186714D02*
X94930357Y-83186714D01*
X95692262Y-83424809D02*
X95406548Y-83424809D01*
X95549405Y-83424809D02*
X95549405Y-82924809D01*
X95549405Y-82924809D02*
X95501786Y-82996238D01*
X95501786Y-82996238D02*
X95454167Y-83043857D01*
X95454167Y-83043857D02*
X95406548Y-83067666D01*
X96001785Y-82924809D02*
X96049404Y-82924809D01*
X96049404Y-82924809D02*
X96097023Y-82948619D01*
X96097023Y-82948619D02*
X96120833Y-82972428D01*
X96120833Y-82972428D02*
X96144642Y-83020047D01*
X96144642Y-83020047D02*
X96168452Y-83115285D01*
X96168452Y-83115285D02*
X96168452Y-83234333D01*
X96168452Y-83234333D02*
X96144642Y-83329571D01*
X96144642Y-83329571D02*
X96120833Y-83377190D01*
X96120833Y-83377190D02*
X96097023Y-83401000D01*
X96097023Y-83401000D02*
X96049404Y-83424809D01*
X96049404Y-83424809D02*
X96001785Y-83424809D01*
X96001785Y-83424809D02*
X95954166Y-83401000D01*
X95954166Y-83401000D02*
X95930357Y-83377190D01*
X95930357Y-83377190D02*
X95906547Y-83329571D01*
X95906547Y-83329571D02*
X95882738Y-83234333D01*
X95882738Y-83234333D02*
X95882738Y-83115285D01*
X95882738Y-83115285D02*
X95906547Y-83020047D01*
X95906547Y-83020047D02*
X95930357Y-82972428D01*
X95930357Y-82972428D02*
X95954166Y-82948619D01*
X95954166Y-82948619D02*
X96001785Y-82924809D01*
X84930952Y-88724809D02*
X84930952Y-88224809D01*
X84930952Y-88224809D02*
X85050000Y-88224809D01*
X85050000Y-88224809D02*
X85121428Y-88248619D01*
X85121428Y-88248619D02*
X85169047Y-88296238D01*
X85169047Y-88296238D02*
X85192857Y-88343857D01*
X85192857Y-88343857D02*
X85216666Y-88439095D01*
X85216666Y-88439095D02*
X85216666Y-88510523D01*
X85216666Y-88510523D02*
X85192857Y-88605761D01*
X85192857Y-88605761D02*
X85169047Y-88653380D01*
X85169047Y-88653380D02*
X85121428Y-88701000D01*
X85121428Y-88701000D02*
X85050000Y-88724809D01*
X85050000Y-88724809D02*
X84930952Y-88724809D01*
X85407143Y-88272428D02*
X85430952Y-88248619D01*
X85430952Y-88248619D02*
X85478571Y-88224809D01*
X85478571Y-88224809D02*
X85597619Y-88224809D01*
X85597619Y-88224809D02*
X85645238Y-88248619D01*
X85645238Y-88248619D02*
X85669047Y-88272428D01*
X85669047Y-88272428D02*
X85692857Y-88320047D01*
X85692857Y-88320047D02*
X85692857Y-88367666D01*
X85692857Y-88367666D02*
X85669047Y-88439095D01*
X85669047Y-88439095D02*
X85383333Y-88724809D01*
X85383333Y-88724809D02*
X85692857Y-88724809D01*
X98316666Y-93224809D02*
X98150000Y-92986714D01*
X98030952Y-93224809D02*
X98030952Y-92724809D01*
X98030952Y-92724809D02*
X98221428Y-92724809D01*
X98221428Y-92724809D02*
X98269047Y-92748619D01*
X98269047Y-92748619D02*
X98292857Y-92772428D01*
X98292857Y-92772428D02*
X98316666Y-92820047D01*
X98316666Y-92820047D02*
X98316666Y-92891476D01*
X98316666Y-92891476D02*
X98292857Y-92939095D01*
X98292857Y-92939095D02*
X98269047Y-92962904D01*
X98269047Y-92962904D02*
X98221428Y-92986714D01*
X98221428Y-92986714D02*
X98030952Y-92986714D01*
X98483333Y-92724809D02*
X98816666Y-92724809D01*
X98816666Y-92724809D02*
X98602381Y-93224809D01*
X103530952Y-88024809D02*
X103530952Y-87524809D01*
X103530952Y-87524809D02*
X103650000Y-87524809D01*
X103650000Y-87524809D02*
X103721428Y-87548619D01*
X103721428Y-87548619D02*
X103769047Y-87596238D01*
X103769047Y-87596238D02*
X103792857Y-87643857D01*
X103792857Y-87643857D02*
X103816666Y-87739095D01*
X103816666Y-87739095D02*
X103816666Y-87810523D01*
X103816666Y-87810523D02*
X103792857Y-87905761D01*
X103792857Y-87905761D02*
X103769047Y-87953380D01*
X103769047Y-87953380D02*
X103721428Y-88001000D01*
X103721428Y-88001000D02*
X103650000Y-88024809D01*
X103650000Y-88024809D02*
X103530952Y-88024809D01*
X104245238Y-87691476D02*
X104245238Y-88024809D01*
X104126190Y-87501000D02*
X104007143Y-87858142D01*
X104007143Y-87858142D02*
X104316666Y-87858142D01*
X105928571Y-88294809D02*
X105761905Y-88056714D01*
X105642857Y-88294809D02*
X105642857Y-87794809D01*
X105642857Y-87794809D02*
X105833333Y-87794809D01*
X105833333Y-87794809D02*
X105880952Y-87818619D01*
X105880952Y-87818619D02*
X105904762Y-87842428D01*
X105904762Y-87842428D02*
X105928571Y-87890047D01*
X105928571Y-87890047D02*
X105928571Y-87961476D01*
X105928571Y-87961476D02*
X105904762Y-88009095D01*
X105904762Y-88009095D02*
X105880952Y-88032904D01*
X105880952Y-88032904D02*
X105833333Y-88056714D01*
X105833333Y-88056714D02*
X105642857Y-88056714D01*
X106404762Y-88294809D02*
X106119048Y-88294809D01*
X106261905Y-88294809D02*
X106261905Y-87794809D01*
X106261905Y-87794809D02*
X106214286Y-87866238D01*
X106214286Y-87866238D02*
X106166667Y-87913857D01*
X106166667Y-87913857D02*
X106119048Y-87937666D01*
X106833333Y-87961476D02*
X106833333Y-88294809D01*
X106714285Y-87771000D02*
X106595238Y-88128142D01*
X106595238Y-88128142D02*
X106904761Y-88128142D01*
X113733333Y-108824809D02*
X113733333Y-109181952D01*
X113733333Y-109181952D02*
X113709524Y-109253380D01*
X113709524Y-109253380D02*
X113661905Y-109301000D01*
X113661905Y-109301000D02*
X113590476Y-109324809D01*
X113590476Y-109324809D02*
X113542857Y-109324809D01*
X113923809Y-108824809D02*
X114233333Y-108824809D01*
X114233333Y-108824809D02*
X114066666Y-109015285D01*
X114066666Y-109015285D02*
X114138095Y-109015285D01*
X114138095Y-109015285D02*
X114185714Y-109039095D01*
X114185714Y-109039095D02*
X114209523Y-109062904D01*
X114209523Y-109062904D02*
X114233333Y-109110523D01*
X114233333Y-109110523D02*
X114233333Y-109229571D01*
X114233333Y-109229571D02*
X114209523Y-109277190D01*
X114209523Y-109277190D02*
X114185714Y-109301000D01*
X114185714Y-109301000D02*
X114138095Y-109324809D01*
X114138095Y-109324809D02*
X113995238Y-109324809D01*
X113995238Y-109324809D02*
X113947619Y-109301000D01*
X113947619Y-109301000D02*
X113923809Y-109277190D01*
X97716666Y-91324809D02*
X97550000Y-91086714D01*
X97430952Y-91324809D02*
X97430952Y-90824809D01*
X97430952Y-90824809D02*
X97621428Y-90824809D01*
X97621428Y-90824809D02*
X97669047Y-90848619D01*
X97669047Y-90848619D02*
X97692857Y-90872428D01*
X97692857Y-90872428D02*
X97716666Y-90920047D01*
X97716666Y-90920047D02*
X97716666Y-90991476D01*
X97716666Y-90991476D02*
X97692857Y-91039095D01*
X97692857Y-91039095D02*
X97669047Y-91062904D01*
X97669047Y-91062904D02*
X97621428Y-91086714D01*
X97621428Y-91086714D02*
X97430952Y-91086714D01*
X98145238Y-90824809D02*
X98050000Y-90824809D01*
X98050000Y-90824809D02*
X98002381Y-90848619D01*
X98002381Y-90848619D02*
X97978571Y-90872428D01*
X97978571Y-90872428D02*
X97930952Y-90943857D01*
X97930952Y-90943857D02*
X97907143Y-91039095D01*
X97907143Y-91039095D02*
X97907143Y-91229571D01*
X97907143Y-91229571D02*
X97930952Y-91277190D01*
X97930952Y-91277190D02*
X97954762Y-91301000D01*
X97954762Y-91301000D02*
X98002381Y-91324809D01*
X98002381Y-91324809D02*
X98097619Y-91324809D01*
X98097619Y-91324809D02*
X98145238Y-91301000D01*
X98145238Y-91301000D02*
X98169047Y-91277190D01*
X98169047Y-91277190D02*
X98192857Y-91229571D01*
X98192857Y-91229571D02*
X98192857Y-91110523D01*
X98192857Y-91110523D02*
X98169047Y-91062904D01*
X98169047Y-91062904D02*
X98145238Y-91039095D01*
X98145238Y-91039095D02*
X98097619Y-91015285D01*
X98097619Y-91015285D02*
X98002381Y-91015285D01*
X98002381Y-91015285D02*
X97954762Y-91039095D01*
X97954762Y-91039095D02*
X97930952Y-91062904D01*
X97930952Y-91062904D02*
X97907143Y-91110523D01*
X132230952Y-98724809D02*
X132230952Y-98224809D01*
X132230952Y-98224809D02*
X132350000Y-98224809D01*
X132350000Y-98224809D02*
X132421428Y-98248619D01*
X132421428Y-98248619D02*
X132469047Y-98296238D01*
X132469047Y-98296238D02*
X132492857Y-98343857D01*
X132492857Y-98343857D02*
X132516666Y-98439095D01*
X132516666Y-98439095D02*
X132516666Y-98510523D01*
X132516666Y-98510523D02*
X132492857Y-98605761D01*
X132492857Y-98605761D02*
X132469047Y-98653380D01*
X132469047Y-98653380D02*
X132421428Y-98701000D01*
X132421428Y-98701000D02*
X132350000Y-98724809D01*
X132350000Y-98724809D02*
X132230952Y-98724809D01*
X132683333Y-98224809D02*
X132992857Y-98224809D01*
X132992857Y-98224809D02*
X132826190Y-98415285D01*
X132826190Y-98415285D02*
X132897619Y-98415285D01*
X132897619Y-98415285D02*
X132945238Y-98439095D01*
X132945238Y-98439095D02*
X132969047Y-98462904D01*
X132969047Y-98462904D02*
X132992857Y-98510523D01*
X132992857Y-98510523D02*
X132992857Y-98629571D01*
X132992857Y-98629571D02*
X132969047Y-98677190D01*
X132969047Y-98677190D02*
X132945238Y-98701000D01*
X132945238Y-98701000D02*
X132897619Y-98724809D01*
X132897619Y-98724809D02*
X132754762Y-98724809D01*
X132754762Y-98724809D02*
X132707143Y-98701000D01*
X132707143Y-98701000D02*
X132683333Y-98677190D01*
X105528571Y-92574809D02*
X105361905Y-92336714D01*
X105242857Y-92574809D02*
X105242857Y-92074809D01*
X105242857Y-92074809D02*
X105433333Y-92074809D01*
X105433333Y-92074809D02*
X105480952Y-92098619D01*
X105480952Y-92098619D02*
X105504762Y-92122428D01*
X105504762Y-92122428D02*
X105528571Y-92170047D01*
X105528571Y-92170047D02*
X105528571Y-92241476D01*
X105528571Y-92241476D02*
X105504762Y-92289095D01*
X105504762Y-92289095D02*
X105480952Y-92312904D01*
X105480952Y-92312904D02*
X105433333Y-92336714D01*
X105433333Y-92336714D02*
X105242857Y-92336714D01*
X106004762Y-92574809D02*
X105719048Y-92574809D01*
X105861905Y-92574809D02*
X105861905Y-92074809D01*
X105861905Y-92074809D02*
X105814286Y-92146238D01*
X105814286Y-92146238D02*
X105766667Y-92193857D01*
X105766667Y-92193857D02*
X105719048Y-92217666D01*
X106171428Y-92074809D02*
X106480952Y-92074809D01*
X106480952Y-92074809D02*
X106314285Y-92265285D01*
X106314285Y-92265285D02*
X106385714Y-92265285D01*
X106385714Y-92265285D02*
X106433333Y-92289095D01*
X106433333Y-92289095D02*
X106457142Y-92312904D01*
X106457142Y-92312904D02*
X106480952Y-92360523D01*
X106480952Y-92360523D02*
X106480952Y-92479571D01*
X106480952Y-92479571D02*
X106457142Y-92527190D01*
X106457142Y-92527190D02*
X106433333Y-92551000D01*
X106433333Y-92551000D02*
X106385714Y-92574809D01*
X106385714Y-92574809D02*
X106242857Y-92574809D01*
X106242857Y-92574809D02*
X106195238Y-92551000D01*
X106195238Y-92551000D02*
X106171428Y-92527190D01*
X96516666Y-88524809D02*
X96350000Y-88286714D01*
X96230952Y-88524809D02*
X96230952Y-88024809D01*
X96230952Y-88024809D02*
X96421428Y-88024809D01*
X96421428Y-88024809D02*
X96469047Y-88048619D01*
X96469047Y-88048619D02*
X96492857Y-88072428D01*
X96492857Y-88072428D02*
X96516666Y-88120047D01*
X96516666Y-88120047D02*
X96516666Y-88191476D01*
X96516666Y-88191476D02*
X96492857Y-88239095D01*
X96492857Y-88239095D02*
X96469047Y-88262904D01*
X96469047Y-88262904D02*
X96421428Y-88286714D01*
X96421428Y-88286714D02*
X96230952Y-88286714D01*
X96969047Y-88024809D02*
X96730952Y-88024809D01*
X96730952Y-88024809D02*
X96707143Y-88262904D01*
X96707143Y-88262904D02*
X96730952Y-88239095D01*
X96730952Y-88239095D02*
X96778571Y-88215285D01*
X96778571Y-88215285D02*
X96897619Y-88215285D01*
X96897619Y-88215285D02*
X96945238Y-88239095D01*
X96945238Y-88239095D02*
X96969047Y-88262904D01*
X96969047Y-88262904D02*
X96992857Y-88310523D01*
X96992857Y-88310523D02*
X96992857Y-88429571D01*
X96992857Y-88429571D02*
X96969047Y-88477190D01*
X96969047Y-88477190D02*
X96945238Y-88501000D01*
X96945238Y-88501000D02*
X96897619Y-88524809D01*
X96897619Y-88524809D02*
X96778571Y-88524809D01*
X96778571Y-88524809D02*
X96730952Y-88501000D01*
X96730952Y-88501000D02*
X96707143Y-88477190D01*
X95616666Y-57177190D02*
X95592857Y-57201000D01*
X95592857Y-57201000D02*
X95521428Y-57224809D01*
X95521428Y-57224809D02*
X95473809Y-57224809D01*
X95473809Y-57224809D02*
X95402381Y-57201000D01*
X95402381Y-57201000D02*
X95354762Y-57153380D01*
X95354762Y-57153380D02*
X95330952Y-57105761D01*
X95330952Y-57105761D02*
X95307143Y-57010523D01*
X95307143Y-57010523D02*
X95307143Y-56939095D01*
X95307143Y-56939095D02*
X95330952Y-56843857D01*
X95330952Y-56843857D02*
X95354762Y-56796238D01*
X95354762Y-56796238D02*
X95402381Y-56748619D01*
X95402381Y-56748619D02*
X95473809Y-56724809D01*
X95473809Y-56724809D02*
X95521428Y-56724809D01*
X95521428Y-56724809D02*
X95592857Y-56748619D01*
X95592857Y-56748619D02*
X95616666Y-56772428D01*
X95807143Y-56772428D02*
X95830952Y-56748619D01*
X95830952Y-56748619D02*
X95878571Y-56724809D01*
X95878571Y-56724809D02*
X95997619Y-56724809D01*
X95997619Y-56724809D02*
X96045238Y-56748619D01*
X96045238Y-56748619D02*
X96069047Y-56772428D01*
X96069047Y-56772428D02*
X96092857Y-56820047D01*
X96092857Y-56820047D02*
X96092857Y-56867666D01*
X96092857Y-56867666D02*
X96069047Y-56939095D01*
X96069047Y-56939095D02*
X95783333Y-57224809D01*
X95783333Y-57224809D02*
X96092857Y-57224809D01*
X105096666Y-93677190D02*
X105072857Y-93701000D01*
X105072857Y-93701000D02*
X105001428Y-93724809D01*
X105001428Y-93724809D02*
X104953809Y-93724809D01*
X104953809Y-93724809D02*
X104882381Y-93701000D01*
X104882381Y-93701000D02*
X104834762Y-93653380D01*
X104834762Y-93653380D02*
X104810952Y-93605761D01*
X104810952Y-93605761D02*
X104787143Y-93510523D01*
X104787143Y-93510523D02*
X104787143Y-93439095D01*
X104787143Y-93439095D02*
X104810952Y-93343857D01*
X104810952Y-93343857D02*
X104834762Y-93296238D01*
X104834762Y-93296238D02*
X104882381Y-93248619D01*
X104882381Y-93248619D02*
X104953809Y-93224809D01*
X104953809Y-93224809D02*
X105001428Y-93224809D01*
X105001428Y-93224809D02*
X105072857Y-93248619D01*
X105072857Y-93248619D02*
X105096666Y-93272428D01*
X105525238Y-93224809D02*
X105430000Y-93224809D01*
X105430000Y-93224809D02*
X105382381Y-93248619D01*
X105382381Y-93248619D02*
X105358571Y-93272428D01*
X105358571Y-93272428D02*
X105310952Y-93343857D01*
X105310952Y-93343857D02*
X105287143Y-93439095D01*
X105287143Y-93439095D02*
X105287143Y-93629571D01*
X105287143Y-93629571D02*
X105310952Y-93677190D01*
X105310952Y-93677190D02*
X105334762Y-93701000D01*
X105334762Y-93701000D02*
X105382381Y-93724809D01*
X105382381Y-93724809D02*
X105477619Y-93724809D01*
X105477619Y-93724809D02*
X105525238Y-93701000D01*
X105525238Y-93701000D02*
X105549047Y-93677190D01*
X105549047Y-93677190D02*
X105572857Y-93629571D01*
X105572857Y-93629571D02*
X105572857Y-93510523D01*
X105572857Y-93510523D02*
X105549047Y-93462904D01*
X105549047Y-93462904D02*
X105525238Y-93439095D01*
X105525238Y-93439095D02*
X105477619Y-93415285D01*
X105477619Y-93415285D02*
X105382381Y-93415285D01*
X105382381Y-93415285D02*
X105334762Y-93439095D01*
X105334762Y-93439095D02*
X105310952Y-93462904D01*
X105310952Y-93462904D02*
X105287143Y-93510523D01*
X113357570Y-76417378D02*
X113714713Y-76417378D01*
X113714713Y-76417378D02*
X113786141Y-76441187D01*
X113786141Y-76441187D02*
X113833761Y-76488806D01*
X113833761Y-76488806D02*
X113857570Y-76560235D01*
X113857570Y-76560235D02*
X113857570Y-76607854D01*
X113405189Y-76203092D02*
X113381380Y-76179283D01*
X113381380Y-76179283D02*
X113357570Y-76131664D01*
X113357570Y-76131664D02*
X113357570Y-76012616D01*
X113357570Y-76012616D02*
X113381380Y-75964997D01*
X113381380Y-75964997D02*
X113405189Y-75941188D01*
X113405189Y-75941188D02*
X113452808Y-75917378D01*
X113452808Y-75917378D02*
X113500427Y-75917378D01*
X113500427Y-75917378D02*
X113571856Y-75941188D01*
X113571856Y-75941188D02*
X113857570Y-76226902D01*
X113857570Y-76226902D02*
X113857570Y-75917378D01*
X92816666Y-93224809D02*
X92650000Y-92986714D01*
X92530952Y-93224809D02*
X92530952Y-92724809D01*
X92530952Y-92724809D02*
X92721428Y-92724809D01*
X92721428Y-92724809D02*
X92769047Y-92748619D01*
X92769047Y-92748619D02*
X92792857Y-92772428D01*
X92792857Y-92772428D02*
X92816666Y-92820047D01*
X92816666Y-92820047D02*
X92816666Y-92891476D01*
X92816666Y-92891476D02*
X92792857Y-92939095D01*
X92792857Y-92939095D02*
X92769047Y-92962904D01*
X92769047Y-92962904D02*
X92721428Y-92986714D01*
X92721428Y-92986714D02*
X92530952Y-92986714D01*
X92983333Y-92724809D02*
X93292857Y-92724809D01*
X93292857Y-92724809D02*
X93126190Y-92915285D01*
X93126190Y-92915285D02*
X93197619Y-92915285D01*
X93197619Y-92915285D02*
X93245238Y-92939095D01*
X93245238Y-92939095D02*
X93269047Y-92962904D01*
X93269047Y-92962904D02*
X93292857Y-93010523D01*
X93292857Y-93010523D02*
X93292857Y-93129571D01*
X93292857Y-93129571D02*
X93269047Y-93177190D01*
X93269047Y-93177190D02*
X93245238Y-93201000D01*
X93245238Y-93201000D02*
X93197619Y-93224809D01*
X93197619Y-93224809D02*
X93054762Y-93224809D01*
X93054762Y-93224809D02*
X93007143Y-93201000D01*
X93007143Y-93201000D02*
X92983333Y-93177190D01*
D15*
%TO.C,U3*%
X101246500Y-82158500D02*
X101246500Y-83809500D01*
X102285360Y-82158500D02*
X101246500Y-82158500D01*
X102557140Y-83809500D02*
X103237860Y-83809500D01*
X104548500Y-82158500D02*
X103509640Y-82158500D01*
X104548500Y-83809500D02*
X104548500Y-82158500D01*
X102021200Y-85422400D02*
G75*
G02*
X101868800Y-85422400I-76200J0D01*
G01*
X101868800Y-85422400D02*
G75*
G02*
X102021200Y-85422400I76200J0D01*
G01*
D16*
%TO.C,U2*%
G36*
X104890900Y-89150499D02*
G01*
X104636900Y-89150499D01*
X104636900Y-88769499D01*
X104890900Y-88769499D01*
X104890900Y-89150499D01*
G37*
D15*
X101804800Y-88410600D02*
G75*
G02*
X101195200Y-88410600I-304800J0D01*
G01*
X103049400Y-88410600D02*
X99950600Y-88410600D01*
X99950600Y-91509400D02*
X103049400Y-91509400D01*
D17*
%TO.C,U1*%
X95039997Y-61172324D02*
X95039997Y-63347323D01*
X91939999Y-62372324D02*
X91939999Y-63347323D01*
%TO.C,Q3*%
X124609999Y-95250000D02*
X124609999Y-89780801D01*
X131310001Y-91675001D02*
X131310001Y-89780801D01*
X122889101Y-89780801D02*
X122889101Y-89275000D01*
X124609999Y-89780801D02*
X122889101Y-89780801D01*
X133030899Y-89780801D02*
X131310001Y-89780801D01*
X133030899Y-89780801D02*
X133030899Y-89275000D01*
%TO.C,Q2*%
X112359999Y-95350000D02*
X112359999Y-89880801D01*
X119060001Y-91775001D02*
X119060001Y-89880801D01*
X110639101Y-89880801D02*
X110639101Y-89375000D01*
X112359999Y-89880801D02*
X110639101Y-89880801D01*
X120780899Y-89880801D02*
X119060001Y-89880801D01*
X120780899Y-89880801D02*
X120780899Y-89375000D01*
%TO.C,Q1*%
X106300000Y-75990001D02*
X100830801Y-75990001D01*
X102725001Y-69289999D02*
X100830801Y-69289999D01*
X100830801Y-77710899D02*
X100325000Y-77710899D01*
X100830801Y-75990001D02*
X100830801Y-77710899D01*
X100830801Y-67569101D02*
X100830801Y-69289999D01*
X100830801Y-67569101D02*
X100325000Y-67569101D01*
D18*
%TO.C,R9*%
X93360436Y-79040000D02*
X97714564Y-79040000D01*
X93360436Y-82460000D02*
X97714564Y-82460000D01*
%TO.C,C7*%
X120510000Y-105162323D02*
X116833000Y-105162323D01*
X120510000Y-105202323D02*
X116843000Y-105202323D01*
X120510000Y-105242323D02*
X116854000Y-105242323D01*
X120510000Y-105282323D02*
X116865000Y-105282323D01*
X120510000Y-105322323D02*
X116877000Y-105322323D01*
X120510000Y-105362323D02*
X116889000Y-105362323D01*
X120510000Y-105402323D02*
X116901000Y-105402323D01*
X120510000Y-105442323D02*
X116913000Y-105442323D01*
X120510000Y-105482323D02*
X116926000Y-105482323D01*
X120510000Y-105522323D02*
X116940000Y-105522323D01*
X120510000Y-105562323D02*
X116953000Y-105562323D01*
X120510000Y-105602323D02*
X116968000Y-105602323D01*
X120510000Y-105642323D02*
X116982000Y-105642323D01*
X120510000Y-105682323D02*
X116997000Y-105682323D01*
X120510000Y-105722323D02*
X117012000Y-105722323D01*
X120510000Y-105762323D02*
X117028000Y-105762323D01*
X120510000Y-105802323D02*
X117044000Y-105802323D01*
X120510000Y-105842323D02*
X117060000Y-105842323D01*
X120510000Y-105882323D02*
X117077000Y-105882323D01*
X120510000Y-105922323D02*
X117094000Y-105922323D01*
X120510000Y-105962323D02*
X117112000Y-105962323D01*
X120510000Y-106002323D02*
X117130000Y-106002323D01*
X120510000Y-106042323D02*
X117148000Y-106042323D01*
X120510000Y-106082323D02*
X117167000Y-106082323D01*
X120510000Y-106122323D02*
X117186000Y-106122323D01*
X120510000Y-106162323D02*
X117206000Y-106162323D01*
X120510000Y-106202323D02*
X117226000Y-106202323D01*
X120510000Y-106242323D02*
X117246000Y-106242323D01*
X120510000Y-106282323D02*
X117267000Y-106282323D01*
X120510000Y-106322323D02*
X117289000Y-106322323D01*
X120510000Y-106362323D02*
X117311000Y-106362323D01*
X120510000Y-106402323D02*
X117333000Y-106402323D01*
X120510000Y-106442323D02*
X117356000Y-106442323D01*
X120510000Y-106482323D02*
X117379000Y-106482323D01*
X120510000Y-106522323D02*
X117403000Y-106522323D01*
X120510000Y-106562323D02*
X117427000Y-106562323D01*
X120510000Y-106602323D02*
X117452000Y-106602323D01*
X120510000Y-106642323D02*
X117478000Y-106642323D01*
X120510000Y-106682323D02*
X117503000Y-106682323D01*
X120510000Y-106722323D02*
X117530000Y-106722323D01*
X120510000Y-106762323D02*
X117557000Y-106762323D01*
X120510000Y-106802323D02*
X117584000Y-106802323D01*
X120510000Y-106842323D02*
X117612000Y-106842323D01*
X120510000Y-106882323D02*
X117641000Y-106882323D01*
X120510000Y-106922323D02*
X117670000Y-106922323D01*
X120510000Y-106962323D02*
X117700000Y-106962323D01*
X120510000Y-107002323D02*
X117730000Y-107002323D01*
X120510000Y-107042323D02*
X117762000Y-107042323D01*
X120510000Y-107082323D02*
X117793000Y-107082323D01*
X120510000Y-107122323D02*
X117826000Y-107122323D01*
X120510000Y-107162323D02*
X117859000Y-107162323D01*
X120510000Y-107202323D02*
X117892000Y-107202323D01*
X120510000Y-107242323D02*
X117927000Y-107242323D01*
X120510000Y-107282323D02*
X117962000Y-107282323D01*
X120510000Y-107322323D02*
X117998000Y-107322323D01*
X120510000Y-107362323D02*
X118034000Y-107362323D01*
X120510000Y-107402323D02*
X118072000Y-107402323D01*
X120510000Y-107442323D02*
X118110000Y-107442323D01*
X120510000Y-107482323D02*
X118149000Y-107482323D01*
X120510000Y-107522323D02*
X118189000Y-107522323D01*
X120510000Y-107562323D02*
X118230000Y-107562323D01*
X120510000Y-107602323D02*
X118272000Y-107602323D01*
X122349000Y-108962323D02*
X121151000Y-108962323D01*
X122612000Y-108922323D02*
X120888000Y-108922323D01*
X122812000Y-108882323D02*
X120688000Y-108882323D01*
X122980000Y-108842323D02*
X120520000Y-108842323D01*
X123127000Y-108802323D02*
X120373000Y-108802323D01*
X123259000Y-108762323D02*
X120241000Y-108762323D01*
X123380000Y-108722323D02*
X120120000Y-108722323D01*
X123492000Y-108682323D02*
X120008000Y-108682323D01*
X123596000Y-108642323D02*
X119904000Y-108642323D01*
X123694000Y-108602323D02*
X119806000Y-108602323D01*
X123787000Y-108562323D02*
X119713000Y-108562323D01*
X123874000Y-108522323D02*
X119626000Y-108522323D01*
X123958000Y-108482323D02*
X119542000Y-108482323D01*
X124038000Y-108442323D02*
X119462000Y-108442323D01*
X124115000Y-108402323D02*
X119385000Y-108402323D01*
X124189000Y-108362323D02*
X119311000Y-108362323D01*
X124260000Y-108322323D02*
X119240000Y-108322323D01*
X124328000Y-108282323D02*
X119172000Y-108282323D01*
X124394000Y-108242323D02*
X119106000Y-108242323D01*
X124458000Y-108202323D02*
X119042000Y-108202323D01*
X124520000Y-108162323D02*
X118980000Y-108162323D01*
X124580000Y-108122323D02*
X118920000Y-108122323D01*
X124625000Y-98402677D02*
X124625000Y-99402677D01*
X124638000Y-108082323D02*
X118862000Y-108082323D01*
X124695000Y-108042323D02*
X118805000Y-108042323D01*
X124750000Y-108002323D02*
X118750000Y-108002323D01*
X124803000Y-107962323D02*
X118697000Y-107962323D01*
X124855000Y-107922323D02*
X118645000Y-107922323D01*
X124906000Y-107882323D02*
X118594000Y-107882323D01*
X124955000Y-107842323D02*
X118545000Y-107842323D01*
X125004000Y-107802323D02*
X118496000Y-107802323D01*
X125051000Y-107762323D02*
X118449000Y-107762323D01*
X125097000Y-107722323D02*
X118403000Y-107722323D01*
X125125000Y-98902677D02*
X124125000Y-98902677D01*
X125141000Y-107682323D02*
X118359000Y-107682323D01*
X125185000Y-107642323D02*
X118315000Y-107642323D01*
X125228000Y-107602323D02*
X122990000Y-107602323D01*
X125270000Y-107562323D02*
X122990000Y-107562323D01*
X125311000Y-107522323D02*
X122990000Y-107522323D01*
X125351000Y-107482323D02*
X122990000Y-107482323D01*
X125390000Y-107442323D02*
X122990000Y-107442323D01*
X125428000Y-107402323D02*
X122990000Y-107402323D01*
X125466000Y-107362323D02*
X122990000Y-107362323D01*
X125502000Y-107322323D02*
X122990000Y-107322323D01*
X125538000Y-107282323D02*
X122990000Y-107282323D01*
X125573000Y-107242323D02*
X122990000Y-107242323D01*
X125608000Y-107202323D02*
X122990000Y-107202323D01*
X125641000Y-107162323D02*
X122990000Y-107162323D01*
X125674000Y-107122323D02*
X122990000Y-107122323D01*
X125707000Y-107082323D02*
X122990000Y-107082323D01*
X125738000Y-107042323D02*
X122990000Y-107042323D01*
X125770000Y-107002323D02*
X122990000Y-107002323D01*
X125800000Y-106962323D02*
X122990000Y-106962323D01*
X125830000Y-106922323D02*
X122990000Y-106922323D01*
X125859000Y-106882323D02*
X122990000Y-106882323D01*
X125888000Y-106842323D02*
X122990000Y-106842323D01*
X125916000Y-106802323D02*
X122990000Y-106802323D01*
X125943000Y-106762323D02*
X122990000Y-106762323D01*
X125970000Y-106722323D02*
X122990000Y-106722323D01*
X125997000Y-106682323D02*
X122990000Y-106682323D01*
X126022000Y-106642323D02*
X122990000Y-106642323D01*
X126048000Y-106602323D02*
X122990000Y-106602323D01*
X126073000Y-106562323D02*
X122990000Y-106562323D01*
X126097000Y-106522323D02*
X122990000Y-106522323D01*
X126121000Y-106482323D02*
X122990000Y-106482323D01*
X126144000Y-106442323D02*
X122990000Y-106442323D01*
X126167000Y-106402323D02*
X122990000Y-106402323D01*
X126189000Y-106362323D02*
X122990000Y-106362323D01*
X126211000Y-106322323D02*
X122990000Y-106322323D01*
X126233000Y-106282323D02*
X122990000Y-106282323D01*
X126254000Y-106242323D02*
X122990000Y-106242323D01*
X126274000Y-106202323D02*
X122990000Y-106202323D01*
X126294000Y-106162323D02*
X122990000Y-106162323D01*
X126314000Y-106122323D02*
X122990000Y-106122323D01*
X126333000Y-106082323D02*
X122990000Y-106082323D01*
X126352000Y-106042323D02*
X122990000Y-106042323D01*
X126370000Y-106002323D02*
X122990000Y-106002323D01*
X126388000Y-105962323D02*
X122990000Y-105962323D01*
X126406000Y-105922323D02*
X122990000Y-105922323D01*
X126423000Y-105882323D02*
X122990000Y-105882323D01*
X126440000Y-105842323D02*
X122990000Y-105842323D01*
X126456000Y-105802323D02*
X122990000Y-105802323D01*
X126472000Y-105762323D02*
X122990000Y-105762323D01*
X126488000Y-105722323D02*
X122990000Y-105722323D01*
X126503000Y-105682323D02*
X122990000Y-105682323D01*
X126518000Y-105642323D02*
X122990000Y-105642323D01*
X126532000Y-105602323D02*
X122990000Y-105602323D01*
X126547000Y-105562323D02*
X122990000Y-105562323D01*
X126560000Y-105522323D02*
X122990000Y-105522323D01*
X126574000Y-105482323D02*
X122990000Y-105482323D01*
X126587000Y-105442323D02*
X122990000Y-105442323D01*
X126599000Y-105402323D02*
X122990000Y-105402323D01*
X126611000Y-105362323D02*
X122990000Y-105362323D01*
X126623000Y-105322323D02*
X122990000Y-105322323D01*
X126635000Y-105282323D02*
X122990000Y-105282323D01*
X126646000Y-105242323D02*
X122990000Y-105242323D01*
X126657000Y-105202323D02*
X122990000Y-105202323D01*
X126667000Y-105162323D02*
X122990000Y-105162323D01*
X126678000Y-105122323D02*
X116822000Y-105122323D01*
X126687000Y-105082323D02*
X116813000Y-105082323D01*
X126697000Y-105042323D02*
X116803000Y-105042323D01*
X126706000Y-105002323D02*
X116794000Y-105002323D01*
X126715000Y-104962323D02*
X116785000Y-104962323D01*
X126723000Y-104922323D02*
X116777000Y-104922323D01*
X126731000Y-104882323D02*
X116769000Y-104882323D01*
X126739000Y-104842323D02*
X116761000Y-104842323D01*
X126747000Y-104802323D02*
X116753000Y-104802323D01*
X126754000Y-104762323D02*
X116746000Y-104762323D01*
X126761000Y-104722323D02*
X116739000Y-104722323D01*
X126767000Y-104682323D02*
X116733000Y-104682323D01*
X126773000Y-104642323D02*
X116727000Y-104642323D01*
X126779000Y-104602323D02*
X116721000Y-104602323D01*
X126785000Y-104562323D02*
X116715000Y-104562323D01*
X126790000Y-104522323D02*
X116710000Y-104522323D01*
X126795000Y-104482323D02*
X116705000Y-104482323D01*
X126799000Y-104442323D02*
X116701000Y-104442323D01*
X126804000Y-104402323D02*
X116696000Y-104402323D01*
X126807000Y-104362323D02*
X116693000Y-104362323D01*
X126811000Y-104322323D02*
X116689000Y-104322323D01*
X126814000Y-104282323D02*
X116686000Y-104282323D01*
X126817000Y-104242323D02*
X116683000Y-104242323D01*
X126820000Y-104202323D02*
X116680000Y-104202323D01*
X126822000Y-104162323D02*
X116678000Y-104162323D01*
X126824000Y-104122323D02*
X116676000Y-104122323D01*
X126826000Y-104082323D02*
X116674000Y-104082323D01*
X126827000Y-104042323D02*
X116673000Y-104042323D01*
X126829000Y-103962323D02*
X116671000Y-103962323D01*
X126829000Y-104002323D02*
X116671000Y-104002323D01*
X126830000Y-103882323D02*
X116670000Y-103882323D01*
X126830000Y-103922323D02*
X116670000Y-103922323D01*
X126870000Y-103882323D02*
G75*
G02*
X116630000Y-103882323I-5120000J0D01*
G01*
X116630000Y-103882323D02*
G75*
G02*
X126870000Y-103882323I5120000J0D01*
G01*
%TO.C,C8*%
X114530000Y-103609420D02*
X114530000Y-103890580D01*
X115550000Y-103609420D02*
X115550000Y-103890580D01*
%TO.C,R4*%
X90662258Y-92977500D02*
X90187742Y-92977500D01*
X90662258Y-94022500D02*
X90187742Y-94022500D01*
%TO.C,C3*%
X93278748Y-58487323D02*
X93801252Y-58487323D01*
X93278748Y-59957323D02*
X93801252Y-59957323D01*
%TO.C,C9*%
X104859420Y-80590000D02*
X105140580Y-80590000D01*
X104859420Y-81610000D02*
X105140580Y-81610000D01*
%TO.C,R1*%
X92387258Y-87977500D02*
X91912742Y-87977500D01*
X92387258Y-89022500D02*
X91912742Y-89022500D01*
%TO.C,R12*%
X124772258Y-96827500D02*
X124297742Y-96827500D01*
X124772258Y-97872500D02*
X124297742Y-97872500D01*
%TO.C,D1*%
X109150000Y-65392323D02*
X109150000Y-59582323D01*
X109150000Y-65392323D02*
X113450000Y-65392323D01*
X113450000Y-65392323D02*
X113450000Y-59582323D01*
%TO.C,R2*%
X91887742Y-89577500D02*
X92362258Y-89577500D01*
X91887742Y-90622500D02*
X92362258Y-90622500D01*
%TO.C,C4*%
X79460000Y-76449000D02*
X79460000Y-75251000D01*
X79500000Y-76712000D02*
X79500000Y-74988000D01*
X79540000Y-76912000D02*
X79540000Y-74788000D01*
X79580000Y-77080000D02*
X79580000Y-74620000D01*
X79620000Y-77227000D02*
X79620000Y-74473000D01*
X79660000Y-77359000D02*
X79660000Y-74341000D01*
X79700000Y-77480000D02*
X79700000Y-74220000D01*
X79740000Y-77592000D02*
X79740000Y-74108000D01*
X79780000Y-77696000D02*
X79780000Y-74004000D01*
X79820000Y-77794000D02*
X79820000Y-73906000D01*
X79860000Y-77887000D02*
X79860000Y-73813000D01*
X79900000Y-77974000D02*
X79900000Y-73726000D01*
X79940000Y-78058000D02*
X79940000Y-73642000D01*
X79980000Y-78138000D02*
X79980000Y-73562000D01*
X80020000Y-78215000D02*
X80020000Y-73485000D01*
X80060000Y-78289000D02*
X80060000Y-73411000D01*
X80100000Y-78360000D02*
X80100000Y-73340000D01*
X80140000Y-78428000D02*
X80140000Y-73272000D01*
X80180000Y-78494000D02*
X80180000Y-73206000D01*
X80220000Y-78558000D02*
X80220000Y-73142000D01*
X80260000Y-78620000D02*
X80260000Y-73080000D01*
X80300000Y-78680000D02*
X80300000Y-73020000D01*
X80340000Y-78738000D02*
X80340000Y-72962000D01*
X80380000Y-78795000D02*
X80380000Y-72905000D01*
X80420000Y-78850000D02*
X80420000Y-72850000D01*
X80460000Y-78903000D02*
X80460000Y-72797000D01*
X80500000Y-78955000D02*
X80500000Y-72745000D01*
X80540000Y-79006000D02*
X80540000Y-72694000D01*
X80580000Y-79055000D02*
X80580000Y-72645000D01*
X80620000Y-79104000D02*
X80620000Y-72596000D01*
X80660000Y-79151000D02*
X80660000Y-72549000D01*
X80700000Y-79197000D02*
X80700000Y-72503000D01*
X80740000Y-79241000D02*
X80740000Y-72459000D01*
X80780000Y-79285000D02*
X80780000Y-72415000D01*
X80820000Y-74610000D02*
X80820000Y-72372000D01*
X80820000Y-79328000D02*
X80820000Y-77090000D01*
X80860000Y-74610000D02*
X80860000Y-72330000D01*
X80860000Y-79370000D02*
X80860000Y-77090000D01*
X80900000Y-74610000D02*
X80900000Y-72289000D01*
X80900000Y-79411000D02*
X80900000Y-77090000D01*
X80940000Y-74610000D02*
X80940000Y-72249000D01*
X80940000Y-79451000D02*
X80940000Y-77090000D01*
X80980000Y-74610000D02*
X80980000Y-72210000D01*
X80980000Y-79490000D02*
X80980000Y-77090000D01*
X81020000Y-74610000D02*
X81020000Y-72172000D01*
X81020000Y-79528000D02*
X81020000Y-77090000D01*
X81060000Y-74610000D02*
X81060000Y-72134000D01*
X81060000Y-79566000D02*
X81060000Y-77090000D01*
X81100000Y-74610000D02*
X81100000Y-72098000D01*
X81100000Y-79602000D02*
X81100000Y-77090000D01*
X81140000Y-74610000D02*
X81140000Y-72062000D01*
X81140000Y-79638000D02*
X81140000Y-77090000D01*
X81180000Y-74610000D02*
X81180000Y-72027000D01*
X81180000Y-79673000D02*
X81180000Y-77090000D01*
X81220000Y-74610000D02*
X81220000Y-71992000D01*
X81220000Y-79708000D02*
X81220000Y-77090000D01*
X81260000Y-74610000D02*
X81260000Y-71959000D01*
X81260000Y-79741000D02*
X81260000Y-77090000D01*
X81300000Y-74610000D02*
X81300000Y-71926000D01*
X81300000Y-79774000D02*
X81300000Y-77090000D01*
X81340000Y-74610000D02*
X81340000Y-71893000D01*
X81340000Y-79807000D02*
X81340000Y-77090000D01*
X81380000Y-74610000D02*
X81380000Y-71862000D01*
X81380000Y-79838000D02*
X81380000Y-77090000D01*
X81420000Y-74610000D02*
X81420000Y-71830000D01*
X81420000Y-79870000D02*
X81420000Y-77090000D01*
X81460000Y-74610000D02*
X81460000Y-71800000D01*
X81460000Y-79900000D02*
X81460000Y-77090000D01*
X81500000Y-74610000D02*
X81500000Y-71770000D01*
X81500000Y-79930000D02*
X81500000Y-77090000D01*
X81540000Y-74610000D02*
X81540000Y-71741000D01*
X81540000Y-79959000D02*
X81540000Y-77090000D01*
X81580000Y-74610000D02*
X81580000Y-71712000D01*
X81580000Y-79988000D02*
X81580000Y-77090000D01*
X81620000Y-74610000D02*
X81620000Y-71684000D01*
X81620000Y-80016000D02*
X81620000Y-77090000D01*
X81660000Y-74610000D02*
X81660000Y-71657000D01*
X81660000Y-80043000D02*
X81660000Y-77090000D01*
X81700000Y-74610000D02*
X81700000Y-71630000D01*
X81700000Y-80070000D02*
X81700000Y-77090000D01*
X81740000Y-74610000D02*
X81740000Y-71603000D01*
X81740000Y-80097000D02*
X81740000Y-77090000D01*
X81780000Y-74610000D02*
X81780000Y-71578000D01*
X81780000Y-80122000D02*
X81780000Y-77090000D01*
X81820000Y-74610000D02*
X81820000Y-71552000D01*
X81820000Y-80148000D02*
X81820000Y-77090000D01*
X81860000Y-74610000D02*
X81860000Y-71527000D01*
X81860000Y-80173000D02*
X81860000Y-77090000D01*
X81900000Y-74610000D02*
X81900000Y-71503000D01*
X81900000Y-80197000D02*
X81900000Y-77090000D01*
X81940000Y-74610000D02*
X81940000Y-71479000D01*
X81940000Y-80221000D02*
X81940000Y-77090000D01*
X81980000Y-74610000D02*
X81980000Y-71456000D01*
X81980000Y-80244000D02*
X81980000Y-77090000D01*
X82020000Y-74610000D02*
X82020000Y-71433000D01*
X82020000Y-80267000D02*
X82020000Y-77090000D01*
X82060000Y-74610000D02*
X82060000Y-71411000D01*
X82060000Y-80289000D02*
X82060000Y-77090000D01*
X82100000Y-74610000D02*
X82100000Y-71389000D01*
X82100000Y-80311000D02*
X82100000Y-77090000D01*
X82140000Y-74610000D02*
X82140000Y-71367000D01*
X82140000Y-80333000D02*
X82140000Y-77090000D01*
X82180000Y-74610000D02*
X82180000Y-71346000D01*
X82180000Y-80354000D02*
X82180000Y-77090000D01*
X82220000Y-74610000D02*
X82220000Y-71326000D01*
X82220000Y-80374000D02*
X82220000Y-77090000D01*
X82260000Y-74610000D02*
X82260000Y-71306000D01*
X82260000Y-80394000D02*
X82260000Y-77090000D01*
X82300000Y-74610000D02*
X82300000Y-71286000D01*
X82300000Y-80414000D02*
X82300000Y-77090000D01*
X82340000Y-74610000D02*
X82340000Y-71267000D01*
X82340000Y-80433000D02*
X82340000Y-77090000D01*
X82380000Y-74610000D02*
X82380000Y-71248000D01*
X82380000Y-80452000D02*
X82380000Y-77090000D01*
X82420000Y-74610000D02*
X82420000Y-71230000D01*
X82420000Y-80470000D02*
X82420000Y-77090000D01*
X82460000Y-74610000D02*
X82460000Y-71212000D01*
X82460000Y-80488000D02*
X82460000Y-77090000D01*
X82500000Y-74610000D02*
X82500000Y-71194000D01*
X82500000Y-80506000D02*
X82500000Y-77090000D01*
X82540000Y-74610000D02*
X82540000Y-71177000D01*
X82540000Y-80523000D02*
X82540000Y-77090000D01*
X82580000Y-74610000D02*
X82580000Y-71160000D01*
X82580000Y-80540000D02*
X82580000Y-77090000D01*
X82620000Y-74610000D02*
X82620000Y-71144000D01*
X82620000Y-80556000D02*
X82620000Y-77090000D01*
X82660000Y-74610000D02*
X82660000Y-71128000D01*
X82660000Y-80572000D02*
X82660000Y-77090000D01*
X82700000Y-74610000D02*
X82700000Y-71112000D01*
X82700000Y-80588000D02*
X82700000Y-77090000D01*
X82740000Y-74610000D02*
X82740000Y-71097000D01*
X82740000Y-80603000D02*
X82740000Y-77090000D01*
X82780000Y-74610000D02*
X82780000Y-71082000D01*
X82780000Y-80618000D02*
X82780000Y-77090000D01*
X82820000Y-74610000D02*
X82820000Y-71068000D01*
X82820000Y-80632000D02*
X82820000Y-77090000D01*
X82860000Y-74610000D02*
X82860000Y-71053000D01*
X82860000Y-80647000D02*
X82860000Y-77090000D01*
X82900000Y-74610000D02*
X82900000Y-71040000D01*
X82900000Y-80660000D02*
X82900000Y-77090000D01*
X82940000Y-74610000D02*
X82940000Y-71026000D01*
X82940000Y-80674000D02*
X82940000Y-77090000D01*
X82980000Y-74610000D02*
X82980000Y-71013000D01*
X82980000Y-80687000D02*
X82980000Y-77090000D01*
X83020000Y-74610000D02*
X83020000Y-71001000D01*
X83020000Y-80699000D02*
X83020000Y-77090000D01*
X83060000Y-74610000D02*
X83060000Y-70989000D01*
X83060000Y-80711000D02*
X83060000Y-77090000D01*
X83100000Y-74610000D02*
X83100000Y-70977000D01*
X83100000Y-80723000D02*
X83100000Y-77090000D01*
X83140000Y-74610000D02*
X83140000Y-70965000D01*
X83140000Y-80735000D02*
X83140000Y-77090000D01*
X83180000Y-74610000D02*
X83180000Y-70954000D01*
X83180000Y-80746000D02*
X83180000Y-77090000D01*
X83220000Y-74610000D02*
X83220000Y-70943000D01*
X83220000Y-80757000D02*
X83220000Y-77090000D01*
X83260000Y-74610000D02*
X83260000Y-70933000D01*
X83260000Y-80767000D02*
X83260000Y-77090000D01*
X83300000Y-80778000D02*
X83300000Y-70922000D01*
X83340000Y-80787000D02*
X83340000Y-70913000D01*
X83380000Y-80797000D02*
X83380000Y-70903000D01*
X83420000Y-80806000D02*
X83420000Y-70894000D01*
X83460000Y-80815000D02*
X83460000Y-70885000D01*
X83500000Y-80823000D02*
X83500000Y-70877000D01*
X83540000Y-80831000D02*
X83540000Y-70869000D01*
X83580000Y-80839000D02*
X83580000Y-70861000D01*
X83620000Y-80847000D02*
X83620000Y-70853000D01*
X83660000Y-80854000D02*
X83660000Y-70846000D01*
X83700000Y-80861000D02*
X83700000Y-70839000D01*
X83740000Y-80867000D02*
X83740000Y-70833000D01*
X83780000Y-80873000D02*
X83780000Y-70827000D01*
X83820000Y-80879000D02*
X83820000Y-70821000D01*
X83860000Y-80885000D02*
X83860000Y-70815000D01*
X83900000Y-80890000D02*
X83900000Y-70810000D01*
X83940000Y-80895000D02*
X83940000Y-70805000D01*
X83980000Y-80899000D02*
X83980000Y-70801000D01*
X84020000Y-80904000D02*
X84020000Y-70796000D01*
X84060000Y-80907000D02*
X84060000Y-70793000D01*
X84100000Y-80911000D02*
X84100000Y-70789000D01*
X84140000Y-80914000D02*
X84140000Y-70786000D01*
X84180000Y-80917000D02*
X84180000Y-70783000D01*
X84220000Y-80920000D02*
X84220000Y-70780000D01*
X84260000Y-80922000D02*
X84260000Y-70778000D01*
X84300000Y-80924000D02*
X84300000Y-70776000D01*
X84340000Y-80926000D02*
X84340000Y-70774000D01*
X84380000Y-80927000D02*
X84380000Y-70773000D01*
X84420000Y-80929000D02*
X84420000Y-70771000D01*
X84460000Y-80929000D02*
X84460000Y-70771000D01*
X84500000Y-80930000D02*
X84500000Y-70770000D01*
X84540000Y-80930000D02*
X84540000Y-70770000D01*
X89519646Y-79225000D02*
X89519646Y-78225000D01*
X90019646Y-78725000D02*
X89019646Y-78725000D01*
X89660000Y-75850000D02*
G75*
G02*
X79420000Y-75850000I-5120000J0D01*
G01*
X79420000Y-75850000D02*
G75*
G02*
X89660000Y-75850000I5120000J0D01*
G01*
%TO.C,C5*%
X85390580Y-81740000D02*
X85109420Y-81740000D01*
X85390580Y-82760000D02*
X85109420Y-82760000D01*
%TO.C,J1*%
X115080000Y-56130000D02*
X123120000Y-56130000D01*
X115080000Y-58950000D02*
X115080000Y-56130000D01*
X115080000Y-66870000D02*
X115080000Y-59550000D01*
X117200000Y-56130000D02*
X117200000Y-57370000D01*
X117200000Y-61130000D02*
X117200000Y-63707000D01*
X117200000Y-64793000D02*
X117200000Y-66870000D01*
X118500000Y-56130000D02*
X118500000Y-57370000D01*
X118500000Y-61130000D02*
X118500000Y-62438000D01*
X118500000Y-66062000D02*
X118500000Y-66870000D01*
X119500000Y-56130000D02*
X119500000Y-57370000D01*
X119500000Y-61130000D02*
X119500000Y-62438000D01*
X119500000Y-66062000D02*
X119500000Y-66870000D01*
X123120000Y-56130000D02*
X123120000Y-66870000D01*
X123120000Y-66870000D02*
X115080000Y-66870000D01*
X115080000Y-59250000D02*
X114470000Y-59690000D01*
X114470000Y-58810000D01*
X115080000Y-59250000D01*
G36*
X115080000Y-59250000D02*
G01*
X114470000Y-59690000D01*
X114470000Y-58810000D01*
X115080000Y-59250000D01*
G37*
%TO.C,R15*%
X101012742Y-85727500D02*
X101487258Y-85727500D01*
X101012742Y-86772500D02*
X101487258Y-86772500D01*
%TO.C,C10*%
X106640580Y-83740000D02*
X106359420Y-83740000D01*
X106640580Y-84760000D02*
X106359420Y-84760000D01*
%TO.C,R11*%
X112487258Y-95977500D02*
X112012742Y-95977500D01*
X112487258Y-97022500D02*
X112012742Y-97022500D01*
%TO.C,R10*%
X93360436Y-83950000D02*
X97714564Y-83950000D01*
X93360436Y-87370000D02*
X97714564Y-87370000D01*
%TO.C,D2*%
X88960000Y-83350000D02*
X83150000Y-83350000D01*
X88960000Y-87650000D02*
X83150000Y-87650000D01*
X88960000Y-87650000D02*
X88960000Y-83350000D01*
%TO.C,R7*%
X95912258Y-92177500D02*
X95437742Y-92177500D01*
X95912258Y-93222500D02*
X95437742Y-93222500D01*
%TO.C,D4*%
X102990000Y-85250000D02*
X102990000Y-87250000D01*
X102990000Y-85250000D02*
X107000000Y-85250000D01*
X102990000Y-87250000D02*
X107000000Y-87250000D01*
%TO.C,R14*%
X106012742Y-88977500D02*
X106487258Y-88977500D01*
X106012742Y-90022500D02*
X106487258Y-90022500D01*
%TO.C,J3*%
X104830000Y-98630000D02*
X112870000Y-98630000D01*
X104830000Y-101450000D02*
X104830000Y-98630000D01*
X104830000Y-109370000D02*
X104830000Y-102050000D01*
X106950000Y-98630000D02*
X106950000Y-99870000D01*
X106950000Y-103630000D02*
X106950000Y-106207000D01*
X106950000Y-107293000D02*
X106950000Y-109370000D01*
X108250000Y-98630000D02*
X108250000Y-99870000D01*
X108250000Y-103630000D02*
X108250000Y-104938000D01*
X108250000Y-108562000D02*
X108250000Y-109370000D01*
X109250000Y-98630000D02*
X109250000Y-99870000D01*
X109250000Y-103630000D02*
X109250000Y-104938000D01*
X109250000Y-108562000D02*
X109250000Y-109370000D01*
X112870000Y-98630000D02*
X112870000Y-109370000D01*
X112870000Y-109370000D02*
X104830000Y-109370000D01*
X104830000Y-101750000D02*
X104220000Y-102190000D01*
X104220000Y-101310000D01*
X104830000Y-101750000D01*
G36*
X104830000Y-101750000D02*
G01*
X104220000Y-102190000D01*
X104220000Y-101310000D01*
X104830000Y-101750000D01*
G37*
D16*
%TO.C,G\u002A\u002A\u002A*%
G36*
X95359811Y-106214877D02*
G01*
X95358296Y-106219716D01*
X95355528Y-106228796D01*
X95351789Y-106241180D01*
X95347363Y-106255934D01*
X95342530Y-106272120D01*
X95342092Y-106273592D01*
X95337262Y-106289642D01*
X95332803Y-106304125D01*
X95328996Y-106316163D01*
X95326117Y-106324879D01*
X95324445Y-106329395D01*
X95324341Y-106329607D01*
X95323188Y-106331060D01*
X95321022Y-106332183D01*
X95317209Y-106333017D01*
X95311117Y-106333605D01*
X95302110Y-106333988D01*
X95289557Y-106334209D01*
X95272823Y-106334309D01*
X95253115Y-106334332D01*
X95234485Y-106334256D01*
X95217767Y-106334042D01*
X95203678Y-106333711D01*
X95192935Y-106333284D01*
X95186256Y-106332783D01*
X95184308Y-106332307D01*
X95185031Y-106329253D01*
X95187093Y-106321770D01*
X95190282Y-106310600D01*
X95194384Y-106296485D01*
X95199185Y-106280167D01*
X95202530Y-106268901D01*
X95220816Y-106207519D01*
X95291538Y-106207486D01*
X95362261Y-106207453D01*
X95359811Y-106214877D01*
G37*
G36*
X92880939Y-105902638D02*
G01*
X92884909Y-105909670D01*
X92889992Y-105919627D01*
X92895731Y-105931508D01*
X92901671Y-105944316D01*
X92907355Y-105957052D01*
X92912327Y-105968718D01*
X92916129Y-105978316D01*
X92918306Y-105984846D01*
X92918594Y-105987141D01*
X92915915Y-105989016D01*
X92909016Y-105992720D01*
X92898624Y-105997919D01*
X92885467Y-106004280D01*
X92870271Y-106011469D01*
X92853765Y-106019154D01*
X92836675Y-106027001D01*
X92819729Y-106034678D01*
X92803655Y-106041850D01*
X92789179Y-106048185D01*
X92777029Y-106053350D01*
X92767932Y-106057011D01*
X92762616Y-106058835D01*
X92761773Y-106058978D01*
X92757661Y-106056409D01*
X92752908Y-106049029D01*
X92750896Y-106044806D01*
X92746853Y-106035806D01*
X92741466Y-106023967D01*
X92735673Y-106011343D01*
X92733498Y-106006635D01*
X92728702Y-105995761D01*
X92724948Y-105986265D01*
X92722748Y-105979504D01*
X92722388Y-105977409D01*
X92723298Y-105975450D01*
X92726314Y-105972764D01*
X92731869Y-105969112D01*
X92740395Y-105964252D01*
X92752324Y-105957942D01*
X92768088Y-105949943D01*
X92788119Y-105940011D01*
X92798651Y-105934843D01*
X92820939Y-105924050D01*
X92840083Y-105915027D01*
X92855752Y-105907919D01*
X92867614Y-105902875D01*
X92875336Y-105900039D01*
X92878539Y-105899527D01*
X92880939Y-105902638D01*
G37*
G36*
X92959061Y-106157919D02*
G01*
X92963183Y-106160886D01*
X92965626Y-106165386D01*
X92969082Y-106173887D01*
X92973156Y-106185175D01*
X92977455Y-106198039D01*
X92981587Y-106211265D01*
X92985156Y-106223642D01*
X92987770Y-106233956D01*
X92988964Y-106240329D01*
X92990173Y-106250259D01*
X92970337Y-106256174D01*
X92936170Y-106266355D01*
X92906827Y-106275079D01*
X92881962Y-106282448D01*
X92861227Y-106288561D01*
X92844277Y-106293520D01*
X92830765Y-106297423D01*
X92820346Y-106300372D01*
X92812672Y-106302466D01*
X92807397Y-106303805D01*
X92804175Y-106304491D01*
X92802886Y-106304637D01*
X92799862Y-106303116D01*
X92796885Y-106298037D01*
X92793544Y-106288626D01*
X92792474Y-106285065D01*
X92788711Y-106272294D01*
X92784327Y-106257524D01*
X92780261Y-106243923D01*
X92780211Y-106243758D01*
X92777189Y-106233201D01*
X92774908Y-106224286D01*
X92773751Y-106218539D01*
X92773680Y-106217662D01*
X92774916Y-106215999D01*
X92778884Y-106213668D01*
X92785972Y-106210519D01*
X92796571Y-106206404D01*
X92811069Y-106201171D01*
X92829857Y-106194672D01*
X92853322Y-106186758D01*
X92859391Y-106184732D01*
X92880129Y-106177887D01*
X92899479Y-106171631D01*
X92916783Y-106166165D01*
X92931384Y-106161693D01*
X92942624Y-106158416D01*
X92949848Y-106156537D01*
X92952107Y-106156162D01*
X92959061Y-106157919D01*
G37*
G36*
X95266010Y-106364125D02*
G01*
X95284300Y-106364409D01*
X95298553Y-106364865D01*
X95308376Y-106365478D01*
X95313377Y-106366234D01*
X95313950Y-106366628D01*
X95313265Y-106369594D01*
X95311276Y-106377394D01*
X95308085Y-106389654D01*
X95303792Y-106405997D01*
X95298498Y-106426048D01*
X95292302Y-106449432D01*
X95285307Y-106475773D01*
X95277611Y-106504696D01*
X95269317Y-106535825D01*
X95260523Y-106568785D01*
X95251332Y-106603199D01*
X95241844Y-106638694D01*
X95232159Y-106674893D01*
X95222377Y-106711420D01*
X95212600Y-106747901D01*
X95202928Y-106783960D01*
X95193461Y-106819221D01*
X95184300Y-106853308D01*
X95175546Y-106885847D01*
X95167300Y-106916462D01*
X95159661Y-106944777D01*
X95152730Y-106970417D01*
X95146609Y-106993006D01*
X95141397Y-107012169D01*
X95137196Y-107027530D01*
X95134105Y-107038715D01*
X95132225Y-107045346D01*
X95131667Y-107047114D01*
X95128774Y-107047588D01*
X95121139Y-107048024D01*
X95109422Y-107048421D01*
X95094278Y-107048775D01*
X95076367Y-107049082D01*
X95056346Y-107049339D01*
X95034872Y-107049544D01*
X95012604Y-107049694D01*
X94990200Y-107049784D01*
X94968316Y-107049811D01*
X94947612Y-107049774D01*
X94928744Y-107049667D01*
X94912370Y-107049489D01*
X94899149Y-107049236D01*
X94889738Y-107048905D01*
X94884795Y-107048492D01*
X94884224Y-107048313D01*
X94884354Y-107045325D01*
X94885716Y-107038171D01*
X94888085Y-107027882D01*
X94891238Y-107015491D01*
X94891664Y-107013893D01*
X94895762Y-106998564D01*
X94900033Y-106982556D01*
X94903918Y-106967965D01*
X94906405Y-106958601D01*
X94912309Y-106936330D01*
X94966734Y-106936330D01*
X95021158Y-106936330D01*
X95096112Y-106656252D01*
X95106251Y-106618364D01*
X95116015Y-106581874D01*
X95125311Y-106547127D01*
X95134047Y-106514472D01*
X95142130Y-106484255D01*
X95149467Y-106456822D01*
X95155965Y-106432520D01*
X95161532Y-106411696D01*
X95166075Y-106394696D01*
X95169501Y-106381868D01*
X95171717Y-106373557D01*
X95172632Y-106370111D01*
X95172635Y-106370101D01*
X95174203Y-106364027D01*
X95244077Y-106364027D01*
X95266010Y-106364125D01*
G37*
G36*
X97898798Y-106220276D02*
G01*
X97896732Y-106227641D01*
X97893678Y-106238843D01*
X97890010Y-106252494D01*
X97886103Y-106267207D01*
X97885153Y-106270811D01*
X97881418Y-106284824D01*
X97877979Y-106297384D01*
X97875155Y-106307359D01*
X97873260Y-106313616D01*
X97872891Y-106314679D01*
X97870551Y-106320834D01*
X97682186Y-106320834D01*
X97493821Y-106320834D01*
X97436373Y-106534773D01*
X97427494Y-106567842D01*
X97418996Y-106599493D01*
X97410988Y-106629327D01*
X97403576Y-106656944D01*
X97396869Y-106681943D01*
X97390972Y-106703924D01*
X97385993Y-106722488D01*
X97382041Y-106737235D01*
X97379221Y-106747764D01*
X97377642Y-106753675D01*
X97377353Y-106754767D01*
X97375780Y-106760823D01*
X97564544Y-106761516D01*
X97753308Y-106762209D01*
X97739551Y-106813501D01*
X97735203Y-106829605D01*
X97731229Y-106844128D01*
X97727875Y-106856183D01*
X97725389Y-106864883D01*
X97724018Y-106869340D01*
X97723953Y-106869516D01*
X97723417Y-106870306D01*
X97722250Y-106871004D01*
X97720134Y-106871614D01*
X97716748Y-106872142D01*
X97711773Y-106872595D01*
X97704889Y-106872978D01*
X97695778Y-106873296D01*
X97684118Y-106873557D01*
X97669592Y-106873765D01*
X97651880Y-106873926D01*
X97630661Y-106874047D01*
X97605617Y-106874132D01*
X97576428Y-106874189D01*
X97542775Y-106874221D01*
X97504337Y-106874237D01*
X97464220Y-106874240D01*
X97419531Y-106874227D01*
X97379971Y-106874186D01*
X97345272Y-106874112D01*
X97315163Y-106874003D01*
X97289375Y-106873855D01*
X97267639Y-106873664D01*
X97249685Y-106873427D01*
X97235244Y-106873141D01*
X97224046Y-106872801D01*
X97215822Y-106872404D01*
X97210302Y-106871948D01*
X97207218Y-106871427D01*
X97206297Y-106870866D01*
X97206979Y-106867885D01*
X97208979Y-106860004D01*
X97212211Y-106847537D01*
X97216594Y-106830800D01*
X97222044Y-106810106D01*
X97228477Y-106785771D01*
X97235810Y-106758108D01*
X97243959Y-106727432D01*
X97252843Y-106694058D01*
X97262376Y-106658299D01*
X97272475Y-106620472D01*
X97283058Y-106580889D01*
X97294040Y-106539866D01*
X97294682Y-106537472D01*
X97383098Y-106207453D01*
X97642809Y-106207453D01*
X97902520Y-106207453D01*
X97898798Y-106220276D01*
G37*
G36*
X94880082Y-106364597D02*
G01*
X94911955Y-106364690D01*
X94939660Y-106364841D01*
X94962999Y-106365050D01*
X94981776Y-106365315D01*
X94995792Y-106365634D01*
X95004850Y-106366007D01*
X95008754Y-106366431D01*
X95008901Y-106366537D01*
X95008214Y-106369569D01*
X95006232Y-106377373D01*
X95003072Y-106389510D01*
X94998853Y-106405541D01*
X94993692Y-106425027D01*
X94987709Y-106447531D01*
X94981020Y-106472612D01*
X94973745Y-106499832D01*
X94966000Y-106528752D01*
X94957905Y-106558934D01*
X94949577Y-106589938D01*
X94941135Y-106621325D01*
X94932696Y-106652658D01*
X94924378Y-106683497D01*
X94916300Y-106713403D01*
X94908580Y-106741937D01*
X94901336Y-106768661D01*
X94894686Y-106793136D01*
X94888748Y-106814922D01*
X94883639Y-106833582D01*
X94879479Y-106848676D01*
X94876386Y-106859765D01*
X94874476Y-106866411D01*
X94873915Y-106868166D01*
X94871340Y-106874240D01*
X94625783Y-106874240D01*
X94589853Y-106874219D01*
X94555480Y-106874155D01*
X94523046Y-106874054D01*
X94492931Y-106873917D01*
X94465518Y-106873748D01*
X94441186Y-106873551D01*
X94420319Y-106873327D01*
X94403296Y-106873081D01*
X94390500Y-106872816D01*
X94382311Y-106872534D01*
X94379111Y-106872238D01*
X94379083Y-106872216D01*
X94379608Y-106869377D01*
X94381451Y-106861686D01*
X94384517Y-106849500D01*
X94388713Y-106833178D01*
X94393944Y-106813077D01*
X94400117Y-106789556D01*
X94407136Y-106762973D01*
X94407697Y-106760859D01*
X94548162Y-106760859D01*
X94655193Y-106760859D01*
X94762224Y-106760859D01*
X94799606Y-106622508D01*
X94806755Y-106596067D01*
X94813502Y-106571157D01*
X94819710Y-106548273D01*
X94825246Y-106527908D01*
X94829975Y-106510558D01*
X94833761Y-106496718D01*
X94836471Y-106486883D01*
X94837969Y-106481547D01*
X94838210Y-106480751D01*
X94837533Y-106479875D01*
X94834533Y-106479171D01*
X94828796Y-106478629D01*
X94819908Y-106478238D01*
X94807454Y-106477987D01*
X94791021Y-106477867D01*
X94770195Y-106477866D01*
X94744560Y-106477975D01*
X94732087Y-106478051D01*
X94624742Y-106478757D01*
X94586452Y-106619808D01*
X94548162Y-106760859D01*
X94407697Y-106760859D01*
X94414908Y-106733687D01*
X94423339Y-106702055D01*
X94432335Y-106668436D01*
X94441801Y-106633189D01*
X94445949Y-106617784D01*
X94513958Y-106365376D01*
X94761430Y-106364687D01*
X94804622Y-106364595D01*
X94844239Y-106364565D01*
X94880082Y-106364597D01*
G37*
G36*
X94192036Y-106370101D02*
G01*
X94190039Y-106376690D01*
X94187171Y-106386713D01*
X94183678Y-106399242D01*
X94179811Y-106413351D01*
X94175818Y-106428114D01*
X94171948Y-106442603D01*
X94168449Y-106455892D01*
X94165569Y-106467053D01*
X94163558Y-106475161D01*
X94162664Y-106479288D01*
X94162655Y-106479616D01*
X94164822Y-106478150D01*
X94170630Y-106473596D01*
X94179596Y-106466348D01*
X94191237Y-106456802D01*
X94205070Y-106445355D01*
X94220610Y-106432400D01*
X94232720Y-106422251D01*
X94302027Y-106364027D01*
X94378761Y-106364027D01*
X94398487Y-106364068D01*
X94416335Y-106364183D01*
X94431628Y-106364362D01*
X94443687Y-106364595D01*
X94451835Y-106364870D01*
X94455394Y-106365176D01*
X94455495Y-106365239D01*
X94453478Y-106367121D01*
X94447632Y-106372216D01*
X94438259Y-106380267D01*
X94425665Y-106391015D01*
X94410155Y-106404200D01*
X94392033Y-106419566D01*
X94371603Y-106436853D01*
X94349170Y-106455803D01*
X94325039Y-106476158D01*
X94299515Y-106497660D01*
X94284749Y-106510086D01*
X94114003Y-106653720D01*
X94086503Y-106753857D01*
X94080247Y-106776619D01*
X94074334Y-106798095D01*
X94068943Y-106817646D01*
X94064248Y-106834631D01*
X94060429Y-106848409D01*
X94057661Y-106858340D01*
X94056122Y-106863785D01*
X94056025Y-106864117D01*
X94053046Y-106874240D01*
X93985666Y-106874240D01*
X93964606Y-106874204D01*
X93948350Y-106874070D01*
X93936305Y-106873803D01*
X93927878Y-106873367D01*
X93922474Y-106872727D01*
X93919500Y-106871847D01*
X93918361Y-106870691D01*
X93918286Y-106870187D01*
X93918980Y-106867263D01*
X93920983Y-106859569D01*
X93924175Y-106847542D01*
X93928438Y-106831619D01*
X93933652Y-106812237D01*
X93939699Y-106789832D01*
X93946459Y-106764841D01*
X93953814Y-106737702D01*
X93961645Y-106708851D01*
X93969832Y-106678725D01*
X93978256Y-106647761D01*
X93986799Y-106616395D01*
X93995342Y-106585066D01*
X94003765Y-106554209D01*
X94011949Y-106524261D01*
X94019776Y-106495660D01*
X94027126Y-106468841D01*
X94033881Y-106444244D01*
X94039921Y-106422303D01*
X94045127Y-106403455D01*
X94049381Y-106388139D01*
X94052563Y-106376790D01*
X94054555Y-106369846D01*
X94054883Y-106368751D01*
X94055692Y-106367301D01*
X94057540Y-106366181D01*
X94061051Y-106365347D01*
X94066848Y-106364760D01*
X94075555Y-106364376D01*
X94087795Y-106364154D01*
X94104192Y-106364051D01*
X94125165Y-106364027D01*
X94194003Y-106364027D01*
X94192036Y-106370101D01*
G37*
G36*
X92629377Y-106429417D02*
G01*
X92631265Y-106431680D01*
X92633160Y-106436263D01*
X92635265Y-106443835D01*
X92637779Y-106455064D01*
X92640904Y-106470616D01*
X92642736Y-106480107D01*
X92645101Y-106492666D01*
X92646885Y-106503113D01*
X92648149Y-106512492D01*
X92648952Y-106521850D01*
X92649353Y-106532234D01*
X92649412Y-106544689D01*
X92649188Y-106560262D01*
X92648741Y-106579999D01*
X92648642Y-106584039D01*
X92647093Y-106626039D01*
X92644491Y-106671161D01*
X92640946Y-106718367D01*
X92636570Y-106766619D01*
X92631474Y-106814878D01*
X92625769Y-106862107D01*
X92619566Y-106907266D01*
X92612978Y-106949317D01*
X92606114Y-106987221D01*
X92604686Y-106994370D01*
X92600679Y-107012937D01*
X92595672Y-107034384D01*
X92590005Y-107057395D01*
X92584019Y-107080654D01*
X92578053Y-107102846D01*
X92572447Y-107122655D01*
X92567542Y-107138766D01*
X92566653Y-107141495D01*
X92559066Y-107164441D01*
X92481454Y-107165157D01*
X92461612Y-107165272D01*
X92443644Y-107165243D01*
X92428224Y-107165083D01*
X92416025Y-107164803D01*
X92407722Y-107164415D01*
X92403987Y-107163932D01*
X92403846Y-107163808D01*
X92404811Y-107160661D01*
X92407449Y-107153527D01*
X92411375Y-107143412D01*
X92416205Y-107131322D01*
X92417065Y-107129200D01*
X92429137Y-107097561D01*
X92439852Y-107065214D01*
X92449470Y-107031174D01*
X92458252Y-106994456D01*
X92466459Y-106954078D01*
X92472507Y-106920133D01*
X92480219Y-106870567D01*
X92486796Y-106820127D01*
X92492115Y-106770075D01*
X92496055Y-106721676D01*
X92498491Y-106676193D01*
X92499256Y-106645016D01*
X92499377Y-106628956D01*
X92499277Y-106617182D01*
X92498820Y-106608585D01*
X92497870Y-106602054D01*
X92496291Y-106596477D01*
X92493945Y-106590744D01*
X92492100Y-106586739D01*
X92484091Y-106572052D01*
X92474774Y-106560537D01*
X92462514Y-106550334D01*
X92456379Y-106546178D01*
X92450051Y-106541902D01*
X92445716Y-106538040D01*
X92442574Y-106533277D01*
X92439822Y-106526299D01*
X92436659Y-106515791D01*
X92435611Y-106512108D01*
X92432261Y-106499580D01*
X92430598Y-106491253D01*
X92430498Y-106486243D01*
X92431666Y-106483818D01*
X92434790Y-106482548D01*
X92442414Y-106480070D01*
X92453828Y-106476585D01*
X92468320Y-106472292D01*
X92485178Y-106467392D01*
X92503690Y-106462085D01*
X92523146Y-106456571D01*
X92542834Y-106451050D01*
X92562042Y-106445722D01*
X92580059Y-106440787D01*
X92596173Y-106436445D01*
X92609673Y-106432896D01*
X92619847Y-106430341D01*
X92625984Y-106428979D01*
X92627296Y-106428808D01*
X92629377Y-106429417D01*
G37*
G36*
X92691731Y-105994575D02*
G01*
X92695849Y-106001089D01*
X92701038Y-106010527D01*
X92706833Y-106021902D01*
X92712769Y-106034227D01*
X92718379Y-106046515D01*
X92723199Y-106057778D01*
X92726762Y-106067031D01*
X92728603Y-106073285D01*
X92728540Y-106075450D01*
X92725727Y-106076907D01*
X92718189Y-106080469D01*
X92706135Y-106086044D01*
X92689772Y-106093538D01*
X92669305Y-106102859D01*
X92644944Y-106113913D01*
X92616895Y-106126607D01*
X92585365Y-106140847D01*
X92550561Y-106156542D01*
X92512691Y-106173598D01*
X92471961Y-106191921D01*
X92428579Y-106211419D01*
X92382753Y-106231998D01*
X92334688Y-106253566D01*
X92284594Y-106276029D01*
X92232675Y-106299294D01*
X92179141Y-106323268D01*
X92124198Y-106347858D01*
X92068053Y-106372971D01*
X92010913Y-106398514D01*
X91952986Y-106424394D01*
X91894478Y-106450517D01*
X91835597Y-106476791D01*
X91809943Y-106488233D01*
X91776790Y-106503019D01*
X91744739Y-106517317D01*
X91714175Y-106530954D01*
X91685483Y-106543758D01*
X91659047Y-106555558D01*
X91635254Y-106566181D01*
X91614488Y-106575456D01*
X91597133Y-106583211D01*
X91583577Y-106589273D01*
X91574202Y-106593472D01*
X91569534Y-106595571D01*
X91557542Y-106600868D01*
X91549237Y-106604069D01*
X91543468Y-106605468D01*
X91539080Y-106605357D01*
X91535441Y-106604242D01*
X91528797Y-106598978D01*
X91524715Y-106590669D01*
X91523679Y-106581251D01*
X91526174Y-106572662D01*
X91527166Y-106571180D01*
X91530228Y-106569115D01*
X91537655Y-106564969D01*
X91548942Y-106558999D01*
X91563587Y-106551461D01*
X91581087Y-106542613D01*
X91600940Y-106532710D01*
X91622642Y-106522010D01*
X91641222Y-106512940D01*
X91655196Y-106506108D01*
X91673682Y-106497006D01*
X91696369Y-106485790D01*
X91722945Y-106472615D01*
X91753097Y-106457637D01*
X91786515Y-106441011D01*
X91822887Y-106422893D01*
X91861900Y-106403438D01*
X91903244Y-106382802D01*
X91946607Y-106361140D01*
X91991676Y-106338607D01*
X92038141Y-106315360D01*
X92085689Y-106291553D01*
X92134009Y-106267342D01*
X92182790Y-106242883D01*
X92218211Y-106225111D01*
X92265329Y-106201479D01*
X92311187Y-106178512D01*
X92355548Y-106156326D01*
X92398177Y-106135038D01*
X92438840Y-106114764D01*
X92477300Y-106095621D01*
X92513323Y-106077724D01*
X92546674Y-106061191D01*
X92577116Y-106046138D01*
X92604416Y-106032681D01*
X92628337Y-106020937D01*
X92648645Y-106011022D01*
X92665105Y-106003052D01*
X92677480Y-105997145D01*
X92685536Y-105993416D01*
X92689038Y-105991982D01*
X92689152Y-105991971D01*
X92691731Y-105994575D01*
G37*
G36*
X93673977Y-106207518D02*
G01*
X93946631Y-106207527D01*
X93964799Y-106236822D01*
X93971820Y-106248261D01*
X93977838Y-106258284D01*
X93982250Y-106265872D01*
X93984452Y-106270004D01*
X93984524Y-106270178D01*
X93984112Y-106273444D01*
X93982385Y-106281455D01*
X93979462Y-106293749D01*
X93975459Y-106309864D01*
X93970495Y-106329341D01*
X93964687Y-106351717D01*
X93958152Y-106376531D01*
X93951010Y-106403322D01*
X93943376Y-106431629D01*
X93942953Y-106433188D01*
X93935179Y-106461841D01*
X93927758Y-106489208D01*
X93920821Y-106514798D01*
X93914502Y-106538121D01*
X93908932Y-106558688D01*
X93904246Y-106576006D01*
X93900575Y-106589587D01*
X93898053Y-106598939D01*
X93896813Y-106603573D01*
X93896811Y-106603578D01*
X93895485Y-106607816D01*
X93893526Y-106611604D01*
X93890286Y-106615531D01*
X93885118Y-106620187D01*
X93877373Y-106626162D01*
X93866402Y-106634045D01*
X93853038Y-106643397D01*
X93812276Y-106671775D01*
X93615649Y-106671775D01*
X93419021Y-106671775D01*
X93415009Y-106685947D01*
X93413319Y-106692082D01*
X93410455Y-106702663D01*
X93406625Y-106716918D01*
X93402036Y-106734073D01*
X93396894Y-106753356D01*
X93391407Y-106773992D01*
X93389161Y-106782456D01*
X93383746Y-106802858D01*
X93378730Y-106821719D01*
X93374295Y-106838367D01*
X93370617Y-106852133D01*
X93367877Y-106862345D01*
X93366253Y-106868333D01*
X93365921Y-106869516D01*
X93365132Y-106870952D01*
X93363314Y-106872065D01*
X93359849Y-106872896D01*
X93354121Y-106873486D01*
X93345513Y-106873874D01*
X93333410Y-106874103D01*
X93317193Y-106874211D01*
X93296248Y-106874240D01*
X93294195Y-106874240D01*
X93223874Y-106874240D01*
X93225458Y-106868166D01*
X93226340Y-106864839D01*
X93228526Y-106856614D01*
X93231931Y-106843811D01*
X93236470Y-106826750D01*
X93242058Y-106805749D01*
X93248610Y-106781129D01*
X93256041Y-106753209D01*
X93264266Y-106722309D01*
X93273199Y-106688747D01*
X93282757Y-106652845D01*
X93292853Y-106614921D01*
X93303402Y-106575294D01*
X93307890Y-106558436D01*
X93449007Y-106558436D01*
X93610056Y-106557740D01*
X93771106Y-106557044D01*
X93793414Y-106473358D01*
X93799382Y-106450971D01*
X93805372Y-106428504D01*
X93811115Y-106406960D01*
X93816344Y-106387344D01*
X93820792Y-106370662D01*
X93824189Y-106357918D01*
X93824900Y-106355253D01*
X93834077Y-106320834D01*
X93673041Y-106320849D01*
X93512005Y-106320865D01*
X93490728Y-106401161D01*
X93484814Y-106423475D01*
X93478794Y-106446188D01*
X93472958Y-106468197D01*
X93467601Y-106488398D01*
X93463014Y-106505687D01*
X93459490Y-106518963D01*
X93459229Y-106519946D01*
X93449007Y-106558436D01*
X93307890Y-106558436D01*
X93314183Y-106534801D01*
X93401324Y-106207510D01*
X93673977Y-106207518D01*
G37*
G36*
X92739129Y-106228164D02*
G01*
X92742220Y-106233858D01*
X92746268Y-106243811D01*
X92751435Y-106258402D01*
X92754775Y-106268428D01*
X92759350Y-106282721D01*
X92763164Y-106295295D01*
X92765954Y-106305226D01*
X92767455Y-106311591D01*
X92767606Y-106313408D01*
X92764858Y-106314878D01*
X92757578Y-106317582D01*
X92746438Y-106321304D01*
X92732107Y-106325828D01*
X92715255Y-106330938D01*
X92696552Y-106336419D01*
X92693897Y-106337182D01*
X92636816Y-106353559D01*
X92584569Y-106368545D01*
X92536801Y-106382241D01*
X92493160Y-106394750D01*
X92453289Y-106406171D01*
X92416835Y-106416606D01*
X92383443Y-106426157D01*
X92352759Y-106434925D01*
X92324429Y-106443011D01*
X92298097Y-106450517D01*
X92273410Y-106457543D01*
X92250013Y-106464192D01*
X92227551Y-106470563D01*
X92205671Y-106476760D01*
X92189229Y-106481409D01*
X92158287Y-106490162D01*
X92123635Y-106499978D01*
X92086753Y-106510437D01*
X92049124Y-106521118D01*
X92012228Y-106531601D01*
X91977546Y-106541465D01*
X91946559Y-106550290D01*
X91946270Y-106550373D01*
X91919481Y-106558002D01*
X91892497Y-106565673D01*
X91866136Y-106573155D01*
X91841215Y-106580215D01*
X91818552Y-106586623D01*
X91798965Y-106592147D01*
X91783271Y-106596555D01*
X91776199Y-106598530D01*
X91760236Y-106602976D01*
X91740364Y-106608515D01*
X91717873Y-106614785D01*
X91694054Y-106621428D01*
X91670197Y-106628084D01*
X91649651Y-106633818D01*
X91629741Y-106639316D01*
X91611270Y-106644304D01*
X91594947Y-106648599D01*
X91581478Y-106652020D01*
X91571571Y-106654384D01*
X91565933Y-106655509D01*
X91565168Y-106655577D01*
X91558787Y-106653719D01*
X91552287Y-106649219D01*
X91552014Y-106648951D01*
X91546824Y-106640989D01*
X91545186Y-106632160D01*
X91547134Y-106624180D01*
X91551462Y-106619454D01*
X91555070Y-106617936D01*
X91563346Y-106614908D01*
X91575821Y-106610529D01*
X91592028Y-106604958D01*
X91611499Y-106598353D01*
X91633767Y-106590873D01*
X91658363Y-106582676D01*
X91684821Y-106573922D01*
X91711410Y-106565182D01*
X91731400Y-106558618D01*
X91756110Y-106550484D01*
X91785134Y-106540911D01*
X91818070Y-106530034D01*
X91854513Y-106517986D01*
X91894059Y-106504902D01*
X91936305Y-106490916D01*
X91980847Y-106476160D01*
X92027282Y-106460768D01*
X92075204Y-106444876D01*
X92124211Y-106428615D01*
X92173898Y-106412120D01*
X92223863Y-106395525D01*
X92273700Y-106378964D01*
X92298988Y-106370557D01*
X92345777Y-106355007D01*
X92391207Y-106339925D01*
X92435012Y-106325398D01*
X92476925Y-106311514D01*
X92516679Y-106298361D01*
X92554007Y-106286026D01*
X92588642Y-106274598D01*
X92620317Y-106264164D01*
X92648766Y-106254813D01*
X92673722Y-106246633D01*
X92694917Y-106239710D01*
X92712085Y-106234133D01*
X92724960Y-106229991D01*
X92733273Y-106227370D01*
X92736759Y-106226359D01*
X92736834Y-106226350D01*
X92739129Y-106228164D01*
G37*
G36*
X91826482Y-106159377D02*
G01*
X91865407Y-106159416D01*
X91901668Y-106159479D01*
X91934971Y-106159566D01*
X91965024Y-106159676D01*
X91991535Y-106159807D01*
X92014209Y-106159959D01*
X92032754Y-106160131D01*
X92046878Y-106160322D01*
X92056287Y-106160531D01*
X92060688Y-106160756D01*
X92060992Y-106160836D01*
X92058619Y-106162275D01*
X92051702Y-106165953D01*
X92040539Y-106171719D01*
X92025427Y-106179424D01*
X92006664Y-106188917D01*
X91984550Y-106200051D01*
X91959382Y-106212674D01*
X91931457Y-106226638D01*
X91901075Y-106241792D01*
X91868532Y-106257988D01*
X91834128Y-106275075D01*
X91798160Y-106292905D01*
X91774583Y-106304573D01*
X91729716Y-106326781D01*
X91689465Y-106346738D01*
X91653596Y-106364566D01*
X91621875Y-106380383D01*
X91594065Y-106394311D01*
X91569934Y-106406470D01*
X91549246Y-106416980D01*
X91531766Y-106425961D01*
X91517261Y-106433533D01*
X91505496Y-106439818D01*
X91496236Y-106444934D01*
X91489246Y-106449002D01*
X91484292Y-106452143D01*
X91481140Y-106454477D01*
X91479944Y-106455620D01*
X91474460Y-106463049D01*
X91468305Y-106473144D01*
X91463329Y-106482679D01*
X91459282Y-106491770D01*
X91456794Y-106499434D01*
X91455495Y-106507577D01*
X91455018Y-106518108D01*
X91454973Y-106525999D01*
X91455159Y-106538729D01*
X91455951Y-106548006D01*
X91457735Y-106555771D01*
X91460897Y-106563965D01*
X91463759Y-106570198D01*
X91469652Y-106581636D01*
X91476391Y-106593203D01*
X91482008Y-106601668D01*
X91490696Y-106617207D01*
X91496845Y-106635523D01*
X91504618Y-106658272D01*
X91515439Y-106676857D01*
X91529707Y-106691662D01*
X91547825Y-106703069D01*
X91570193Y-106711463D01*
X91578531Y-106713626D01*
X91594783Y-106716741D01*
X91607587Y-106717343D01*
X91618313Y-106715356D01*
X91627993Y-106710903D01*
X91634792Y-106707402D01*
X91639465Y-106705898D01*
X91640608Y-106706179D01*
X91640844Y-106709909D01*
X91640338Y-106717966D01*
X91639215Y-106729348D01*
X91637599Y-106743053D01*
X91635614Y-106758078D01*
X91633386Y-106773422D01*
X91631039Y-106788082D01*
X91629027Y-106799343D01*
X91621945Y-106831175D01*
X91613150Y-106860009D01*
X91602035Y-106887268D01*
X91587992Y-106914375D01*
X91570414Y-106942754D01*
X91563333Y-106953221D01*
X91543540Y-106982854D01*
X91527257Y-107009415D01*
X91514174Y-107033645D01*
X91503981Y-107056287D01*
X91496367Y-107078084D01*
X91491023Y-107099777D01*
X91487638Y-107122110D01*
X91486333Y-107137446D01*
X91484648Y-107164441D01*
X91296324Y-107165134D01*
X91107999Y-107165828D01*
X91108705Y-106717010D01*
X91109412Y-106268193D01*
X91116540Y-106252990D01*
X91123409Y-106241459D01*
X91133641Y-106228184D01*
X91146091Y-106214391D01*
X91159613Y-106201307D01*
X91173062Y-106190160D01*
X91179300Y-106185762D01*
X91190356Y-106179412D01*
X91203797Y-106172968D01*
X91216804Y-106167777D01*
X91217393Y-106167574D01*
X91238990Y-106160211D01*
X91649995Y-106159486D01*
X91696649Y-106159417D01*
X91741810Y-106159376D01*
X91785185Y-106159363D01*
X91826482Y-106159377D01*
G37*
G36*
X96310000Y-106364029D02*
G01*
X96345168Y-106364041D01*
X96375611Y-106364070D01*
X96401668Y-106364125D01*
X96423674Y-106364213D01*
X96441968Y-106364343D01*
X96456887Y-106364521D01*
X96468768Y-106364757D01*
X96477949Y-106365057D01*
X96484766Y-106365430D01*
X96489557Y-106365884D01*
X96492660Y-106366426D01*
X96494411Y-106367065D01*
X96495148Y-106367808D01*
X96495209Y-106368663D01*
X96495043Y-106369291D01*
X96493849Y-106373461D01*
X96491621Y-106381608D01*
X96488611Y-106392776D01*
X96485071Y-106406010D01*
X96481257Y-106420354D01*
X96477419Y-106434852D01*
X96473813Y-106448548D01*
X96470691Y-106460487D01*
X96468306Y-106469712D01*
X96466911Y-106475268D01*
X96466655Y-106476449D01*
X96464034Y-106476624D01*
X96456490Y-106476789D01*
X96444497Y-106476940D01*
X96428531Y-106477075D01*
X96409067Y-106477191D01*
X96386580Y-106477285D01*
X96361545Y-106477355D01*
X96334437Y-106477396D01*
X96310524Y-106477407D01*
X96154393Y-106477407D01*
X96123888Y-106591463D01*
X96117170Y-106616581D01*
X96110611Y-106641097D01*
X96104403Y-106664301D01*
X96098736Y-106685478D01*
X96093801Y-106703915D01*
X96089789Y-106718901D01*
X96086890Y-106729722D01*
X96085960Y-106733189D01*
X96078537Y-106760859D01*
X96234393Y-106760859D01*
X96390248Y-106760859D01*
X96376166Y-106813326D01*
X96371783Y-106829570D01*
X96367792Y-106844197D01*
X96364432Y-106856341D01*
X96361944Y-106865139D01*
X96360566Y-106869726D01*
X96360463Y-106870017D01*
X96359762Y-106870776D01*
X96358053Y-106871439D01*
X96355002Y-106872013D01*
X96350269Y-106872505D01*
X96343519Y-106872919D01*
X96334415Y-106873263D01*
X96322619Y-106873543D01*
X96307795Y-106873766D01*
X96289605Y-106873937D01*
X96267713Y-106874062D01*
X96241782Y-106874149D01*
X96211474Y-106874204D01*
X96176454Y-106874232D01*
X96136383Y-106874240D01*
X96134855Y-106874240D01*
X96100566Y-106874216D01*
X96067847Y-106874147D01*
X96037099Y-106874037D01*
X96008722Y-106873888D01*
X95983115Y-106873704D01*
X95960677Y-106873490D01*
X95941809Y-106873249D01*
X95926911Y-106872983D01*
X95916381Y-106872698D01*
X95910620Y-106872396D01*
X95909621Y-106872216D01*
X95910127Y-106869376D01*
X95911942Y-106861681D01*
X95914974Y-106849493D01*
X95919127Y-106833169D01*
X95924310Y-106813069D01*
X95930428Y-106789553D01*
X95937387Y-106762980D01*
X95945094Y-106733710D01*
X95953455Y-106702102D01*
X95962376Y-106668516D01*
X95971765Y-106633311D01*
X95975556Y-106619133D01*
X95985117Y-106583386D01*
X95994272Y-106549117D01*
X96002926Y-106516686D01*
X96010985Y-106486453D01*
X96018351Y-106458776D01*
X96024930Y-106434017D01*
X96030627Y-106412535D01*
X96035345Y-106394688D01*
X96038989Y-106380837D01*
X96041463Y-106371341D01*
X96042673Y-106366560D01*
X96042781Y-106366051D01*
X96045422Y-106365744D01*
X96053068Y-106365450D01*
X96065324Y-106365175D01*
X96081796Y-106364920D01*
X96102090Y-106364690D01*
X96125812Y-106364489D01*
X96152568Y-106364319D01*
X96181962Y-106364185D01*
X96213601Y-106364090D01*
X96247091Y-106364037D01*
X96269770Y-106364027D01*
X96310000Y-106364029D01*
G37*
G36*
X90905596Y-106982195D02*
G01*
X90905596Y-107195478D01*
X91864609Y-107196157D01*
X92823621Y-107196836D01*
X92824357Y-107246102D01*
X92825093Y-107295369D01*
X91653430Y-107295369D01*
X90481768Y-107295369D01*
X90481768Y-107271073D01*
X90481768Y-107246777D01*
X90452073Y-107246777D01*
X90422378Y-107246777D01*
X90422378Y-107240028D01*
X90422378Y-107233279D01*
X91587231Y-107233279D01*
X91696202Y-107233273D01*
X91799846Y-107233254D01*
X91898158Y-107233223D01*
X91991135Y-107233179D01*
X92078774Y-107233123D01*
X92161070Y-107233055D01*
X92238020Y-107232973D01*
X92309621Y-107232880D01*
X92375869Y-107232774D01*
X92436760Y-107232655D01*
X92492291Y-107232524D01*
X92542458Y-107232381D01*
X92587257Y-107232225D01*
X92626686Y-107232057D01*
X92660740Y-107231877D01*
X92689416Y-107231684D01*
X92712710Y-107231478D01*
X92730619Y-107231261D01*
X92743138Y-107231031D01*
X92750266Y-107230788D01*
X92752083Y-107230580D01*
X92749385Y-107230327D01*
X92741290Y-107230087D01*
X92727804Y-107229859D01*
X92708929Y-107229644D01*
X92684670Y-107229441D01*
X92655029Y-107229250D01*
X92620011Y-107229072D01*
X92579619Y-107228906D01*
X92533857Y-107228752D01*
X92482728Y-107228611D01*
X92426236Y-107228482D01*
X92364384Y-107228366D01*
X92297176Y-107228262D01*
X92224616Y-107228171D01*
X92146707Y-107228092D01*
X92063452Y-107228026D01*
X91974856Y-107227972D01*
X91880922Y-107227930D01*
X91781654Y-107227901D01*
X91677055Y-107227885D01*
X91587231Y-107227880D01*
X90422378Y-107227880D01*
X90422378Y-107163091D01*
X90422378Y-107098302D01*
X90661287Y-107098302D01*
X90703032Y-107098294D01*
X90739698Y-107098267D01*
X90771606Y-107098214D01*
X90799076Y-107098131D01*
X90822428Y-107098011D01*
X90841983Y-107097851D01*
X90858061Y-107097643D01*
X90870983Y-107097383D01*
X90881069Y-107097066D01*
X90888640Y-107096686D01*
X90894015Y-107096237D01*
X90897516Y-107095714D01*
X90899462Y-107095111D01*
X90900174Y-107094424D01*
X90900197Y-107094253D01*
X90899724Y-107093545D01*
X90898090Y-107092924D01*
X90894976Y-107092383D01*
X90890061Y-107091918D01*
X90883024Y-107091522D01*
X90873546Y-107091190D01*
X90861305Y-107090918D01*
X90845982Y-107090699D01*
X90827256Y-107090528D01*
X90804806Y-107090400D01*
X90778313Y-107090308D01*
X90747456Y-107090249D01*
X90711914Y-107090216D01*
X90671367Y-107090204D01*
X90661287Y-107090204D01*
X90422378Y-107090204D01*
X90422378Y-107069957D01*
X90422378Y-107049711D01*
X90661287Y-107049711D01*
X90703032Y-107049703D01*
X90739698Y-107049675D01*
X90771606Y-107049622D01*
X90799076Y-107049539D01*
X90822428Y-107049420D01*
X90841983Y-107049259D01*
X90858061Y-107049051D01*
X90870983Y-107048792D01*
X90881069Y-107048474D01*
X90888640Y-107048094D01*
X90894015Y-107047645D01*
X90897516Y-107047122D01*
X90899462Y-107046519D01*
X90900174Y-107045832D01*
X90900197Y-107045661D01*
X90899724Y-107044954D01*
X90898090Y-107044332D01*
X90894976Y-107043791D01*
X90890061Y-107043326D01*
X90883024Y-107042930D01*
X90873546Y-107042599D01*
X90861305Y-107042326D01*
X90845982Y-107042107D01*
X90827256Y-107041936D01*
X90804806Y-107041808D01*
X90778313Y-107041717D01*
X90747456Y-107041657D01*
X90711914Y-107041624D01*
X90671367Y-107041612D01*
X90661287Y-107041612D01*
X90422378Y-107041612D01*
X90422378Y-106975473D01*
X90422378Y-106909334D01*
X90516816Y-106909334D01*
X90611255Y-106909334D01*
X90611975Y-106839821D01*
X90612696Y-106770308D01*
X90759146Y-106769610D01*
X90905596Y-106768912D01*
X90905596Y-106982195D01*
G37*
G36*
X95895471Y-106391912D02*
G01*
X95902327Y-106402981D01*
X95907932Y-106412632D01*
X95911719Y-106419844D01*
X95913119Y-106423594D01*
X95913118Y-106423632D01*
X95912408Y-106426975D01*
X95910432Y-106434976D01*
X95907335Y-106447080D01*
X95903260Y-106462733D01*
X95898353Y-106481380D01*
X95892759Y-106502468D01*
X95886623Y-106525442D01*
X95882608Y-106540394D01*
X95852228Y-106653322D01*
X95817274Y-106675371D01*
X95782320Y-106697420D01*
X95639414Y-106698770D01*
X95496508Y-106700120D01*
X95490395Y-106724416D01*
X95487508Y-106735886D01*
X95484977Y-106745943D01*
X95483195Y-106753020D01*
X95482750Y-106754785D01*
X95481219Y-106760859D01*
X95663489Y-106760859D01*
X95700688Y-106760878D01*
X95732806Y-106760939D01*
X95760160Y-106761048D01*
X95783069Y-106761211D01*
X95801851Y-106761433D01*
X95816823Y-106761721D01*
X95828303Y-106762080D01*
X95836610Y-106762517D01*
X95842060Y-106763036D01*
X95844973Y-106763645D01*
X95845690Y-106764234D01*
X95844994Y-106767772D01*
X95843093Y-106775675D01*
X95840200Y-106787101D01*
X95836531Y-106801206D01*
X95832299Y-106817147D01*
X95831466Y-106820249D01*
X95817312Y-106872891D01*
X95564281Y-106873579D01*
X95522554Y-106873667D01*
X95483830Y-106873696D01*
X95448360Y-106873668D01*
X95416393Y-106873585D01*
X95388180Y-106873449D01*
X95363971Y-106873261D01*
X95344014Y-106873024D01*
X95328561Y-106872738D01*
X95317861Y-106872407D01*
X95312164Y-106872031D01*
X95311250Y-106871791D01*
X95311928Y-106868989D01*
X95313884Y-106861407D01*
X95317002Y-106849482D01*
X95321166Y-106833650D01*
X95326259Y-106814347D01*
X95332167Y-106792009D01*
X95338771Y-106767074D01*
X95345958Y-106739977D01*
X95353609Y-106711155D01*
X95361609Y-106681043D01*
X95369843Y-106650079D01*
X95378193Y-106618698D01*
X95386544Y-106587338D01*
X95387963Y-106582015D01*
X95529932Y-106582015D01*
X95531032Y-106582910D01*
X95534619Y-106583643D01*
X95541103Y-106584228D01*
X95550896Y-106584677D01*
X95564410Y-106585005D01*
X95582056Y-106585224D01*
X95604245Y-106585347D01*
X95631389Y-106585389D01*
X95633742Y-106585389D01*
X95737570Y-106585389D01*
X95740264Y-106575266D01*
X95741910Y-106569107D01*
X95744635Y-106558940D01*
X95748117Y-106545972D01*
X95752030Y-106531407D01*
X95753847Y-106524649D01*
X95757607Y-106510464D01*
X95760807Y-106498000D01*
X95763203Y-106488242D01*
X95764550Y-106482176D01*
X95764755Y-106480782D01*
X95763654Y-106479886D01*
X95760068Y-106479153D01*
X95753584Y-106478569D01*
X95743790Y-106478119D01*
X95730277Y-106477792D01*
X95712631Y-106477573D01*
X95690442Y-106477449D01*
X95663298Y-106477408D01*
X95660945Y-106477407D01*
X95557117Y-106477407D01*
X95554423Y-106487531D01*
X95552777Y-106493690D01*
X95550051Y-106503857D01*
X95546570Y-106516825D01*
X95542657Y-106531389D01*
X95540840Y-106538147D01*
X95537080Y-106552333D01*
X95533879Y-106564797D01*
X95531483Y-106574555D01*
X95530136Y-106580621D01*
X95529932Y-106582015D01*
X95387963Y-106582015D01*
X95394780Y-106556433D01*
X95402784Y-106526421D01*
X95410441Y-106497738D01*
X95417633Y-106470820D01*
X95424246Y-106446103D01*
X95430163Y-106424024D01*
X95435267Y-106405019D01*
X95439443Y-106389525D01*
X95442575Y-106377977D01*
X95444546Y-106370813D01*
X95445139Y-106368751D01*
X95445640Y-106367891D01*
X95446812Y-106367142D01*
X95449004Y-106366496D01*
X95452566Y-106365946D01*
X95457846Y-106365484D01*
X95465194Y-106365102D01*
X95474958Y-106364793D01*
X95487489Y-106364549D01*
X95503136Y-106364362D01*
X95522247Y-106364226D01*
X95545171Y-106364132D01*
X95572259Y-106364073D01*
X95603858Y-106364041D01*
X95640320Y-106364028D01*
X95662143Y-106364027D01*
X95877695Y-106364027D01*
X95895471Y-106391912D01*
G37*
G36*
X96870391Y-106207863D02*
G01*
X96879112Y-106208110D01*
X96884799Y-106208574D01*
X96888045Y-106209290D01*
X96889441Y-106210292D01*
X96889578Y-106211616D01*
X96889447Y-106212132D01*
X96887936Y-106217483D01*
X96885394Y-106226813D01*
X96882036Y-106239315D01*
X96878073Y-106254183D01*
X96873718Y-106270610D01*
X96869183Y-106287787D01*
X96864681Y-106304909D01*
X96860424Y-106321169D01*
X96856625Y-106335758D01*
X96853496Y-106347870D01*
X96851249Y-106356698D01*
X96850098Y-106361436D01*
X96849991Y-106362002D01*
X96852570Y-106362556D01*
X96859823Y-106363052D01*
X96871029Y-106363469D01*
X96885462Y-106363784D01*
X96902400Y-106363976D01*
X96917319Y-106364027D01*
X96935821Y-106364104D01*
X96952472Y-106364323D01*
X96966530Y-106364662D01*
X96977256Y-106365097D01*
X96983909Y-106365608D01*
X96985800Y-106366051D01*
X96985499Y-106369187D01*
X96983960Y-106376661D01*
X96981387Y-106387609D01*
X96977980Y-106401166D01*
X96974254Y-106415318D01*
X96970043Y-106431017D01*
X96966210Y-106445363D01*
X96963021Y-106457357D01*
X96960742Y-106465998D01*
X96959713Y-106469984D01*
X96957869Y-106477407D01*
X96887732Y-106477407D01*
X96868910Y-106477464D01*
X96851996Y-106477624D01*
X96837701Y-106477871D01*
X96826732Y-106478190D01*
X96819799Y-106478565D01*
X96817595Y-106478947D01*
X96816916Y-106481776D01*
X96814967Y-106489328D01*
X96811877Y-106501113D01*
X96807775Y-106516640D01*
X96802793Y-106535420D01*
X96797061Y-106556960D01*
X96790707Y-106580771D01*
X96783862Y-106606363D01*
X96781151Y-106616483D01*
X96774147Y-106642674D01*
X96767585Y-106667312D01*
X96761596Y-106689903D01*
X96756310Y-106709950D01*
X96751857Y-106726954D01*
X96748369Y-106740421D01*
X96745974Y-106749853D01*
X96744804Y-106754753D01*
X96744708Y-106755320D01*
X96747256Y-106756322D01*
X96754943Y-106757105D01*
X96767831Y-106757670D01*
X96785980Y-106758020D01*
X96809453Y-106758157D01*
X96813546Y-106758160D01*
X96832184Y-106758236D01*
X96848905Y-106758449D01*
X96862995Y-106758780D01*
X96873737Y-106759206D01*
X96880416Y-106759706D01*
X96882365Y-106760185D01*
X96881668Y-106763287D01*
X96879735Y-106770782D01*
X96876781Y-106781865D01*
X96873021Y-106795730D01*
X96868670Y-106811568D01*
X96867517Y-106815736D01*
X96863061Y-106831874D01*
X96859141Y-106846173D01*
X96855971Y-106857843D01*
X96853765Y-106866094D01*
X96852737Y-106870138D01*
X96852689Y-106870402D01*
X96850092Y-106870726D01*
X96842710Y-106870995D01*
X96831155Y-106871211D01*
X96816042Y-106871375D01*
X96797984Y-106871490D01*
X96777593Y-106871557D01*
X96755485Y-106871579D01*
X96732271Y-106871557D01*
X96708566Y-106871493D01*
X96684982Y-106871389D01*
X96662134Y-106871247D01*
X96640634Y-106871070D01*
X96621096Y-106870859D01*
X96604134Y-106870615D01*
X96590360Y-106870342D01*
X96580388Y-106870041D01*
X96574832Y-106869713D01*
X96573876Y-106869516D01*
X96574382Y-106866641D01*
X96576190Y-106858970D01*
X96579191Y-106846918D01*
X96583276Y-106830901D01*
X96588339Y-106811334D01*
X96594270Y-106788634D01*
X96600963Y-106763215D01*
X96608308Y-106735493D01*
X96616198Y-106705883D01*
X96623526Y-106678523D01*
X96631864Y-106647462D01*
X96639815Y-106617827D01*
X96647267Y-106590047D01*
X96654104Y-106564550D01*
X96660211Y-106541762D01*
X96665475Y-106522112D01*
X96669780Y-106506027D01*
X96673012Y-106493935D01*
X96675056Y-106486263D01*
X96675776Y-106483530D01*
X96677297Y-106477505D01*
X96614332Y-106476782D01*
X96551367Y-106476058D01*
X96565125Y-106424766D01*
X96569472Y-106408667D01*
X96573443Y-106394151D01*
X96576793Y-106382107D01*
X96579274Y-106373420D01*
X96580640Y-106368977D01*
X96580705Y-106368801D01*
X96581724Y-106367299D01*
X96583900Y-106366137D01*
X96587887Y-106365262D01*
X96594339Y-106364618D01*
X96603911Y-106364151D01*
X96617257Y-106363805D01*
X96635032Y-106363528D01*
X96645395Y-106363402D01*
X96708264Y-106362677D01*
X96728814Y-106285740D01*
X96749364Y-106208803D01*
X96820120Y-106208083D01*
X96841487Y-106207884D01*
X96858047Y-106207800D01*
X96870391Y-106207863D01*
G37*
G36*
X98484426Y-106208093D02*
G01*
X98577622Y-106208803D01*
X98363945Y-106358628D01*
X98333479Y-106379995D01*
X98304198Y-106400542D01*
X98276413Y-106420049D01*
X98250436Y-106438297D01*
X98226580Y-106455067D01*
X98205154Y-106470140D01*
X98186471Y-106483296D01*
X98170842Y-106494316D01*
X98158579Y-106502981D01*
X98149993Y-106509072D01*
X98145397Y-106512369D01*
X98144753Y-106512851D01*
X98143818Y-106513749D01*
X98143288Y-106514928D01*
X98143358Y-106516678D01*
X98144221Y-106519292D01*
X98146073Y-106523061D01*
X98149108Y-106528276D01*
X98153520Y-106535228D01*
X98159505Y-106544210D01*
X98167256Y-106555512D01*
X98176968Y-106569426D01*
X98188835Y-106586243D01*
X98203053Y-106606255D01*
X98219815Y-106629753D01*
X98239316Y-106657029D01*
X98261751Y-106688374D01*
X98263997Y-106691511D01*
X98283556Y-106718855D01*
X98302214Y-106744986D01*
X98319730Y-106769564D01*
X98335862Y-106792248D01*
X98350371Y-106812700D01*
X98363015Y-106830577D01*
X98373554Y-106845541D01*
X98381746Y-106857251D01*
X98387351Y-106865367D01*
X98390127Y-106869549D01*
X98390382Y-106870007D01*
X98390393Y-106871209D01*
X98389042Y-106872163D01*
X98385790Y-106872895D01*
X98380099Y-106873435D01*
X98371432Y-106873811D01*
X98359250Y-106874051D01*
X98343014Y-106874183D01*
X98322188Y-106874235D01*
X98309852Y-106874240D01*
X98286653Y-106874232D01*
X98268250Y-106874181D01*
X98254041Y-106874044D01*
X98243422Y-106873780D01*
X98235792Y-106873347D01*
X98230547Y-106872703D01*
X98227085Y-106871807D01*
X98224802Y-106870616D01*
X98223097Y-106869089D01*
X98222255Y-106868166D01*
X98219678Y-106864857D01*
X98214277Y-106857582D01*
X98206362Y-106846770D01*
X98196243Y-106832851D01*
X98184233Y-106816254D01*
X98170641Y-106797408D01*
X98155780Y-106776743D01*
X98139959Y-106754687D01*
X98132278Y-106743959D01*
X98116285Y-106721678D01*
X98101222Y-106700825D01*
X98087381Y-106681796D01*
X98075055Y-106664985D01*
X98064535Y-106650788D01*
X98056112Y-106639599D01*
X98050079Y-106631814D01*
X98046728Y-106627828D01*
X98046141Y-106627389D01*
X98045137Y-106630236D01*
X98042889Y-106637781D01*
X98039542Y-106649505D01*
X98035240Y-106664887D01*
X98030126Y-106683409D01*
X98024346Y-106704551D01*
X98018043Y-106727792D01*
X98011817Y-106750921D01*
X97979097Y-106872891D01*
X97910097Y-106873611D01*
X97891356Y-106873728D01*
X97874456Y-106873684D01*
X97860129Y-106873494D01*
X97849107Y-106873170D01*
X97842120Y-106872728D01*
X97839895Y-106872261D01*
X97840430Y-106869443D01*
X97842288Y-106861728D01*
X97845385Y-106849429D01*
X97849638Y-106832863D01*
X97854964Y-106812343D01*
X97861281Y-106788186D01*
X97868506Y-106760705D01*
X97876556Y-106730217D01*
X97885348Y-106697036D01*
X97894800Y-106661477D01*
X97904828Y-106623855D01*
X97915349Y-106584486D01*
X97925957Y-106544896D01*
X97936916Y-106504039D01*
X97947503Y-106464568D01*
X97957630Y-106426804D01*
X97967212Y-106391066D01*
X97976164Y-106357676D01*
X97984399Y-106326953D01*
X97991831Y-106299219D01*
X97998375Y-106274792D01*
X98003945Y-106253994D01*
X98008455Y-106237145D01*
X98011819Y-106224566D01*
X98013951Y-106216576D01*
X98014758Y-106213527D01*
X98016295Y-106207453D01*
X98086432Y-106207453D01*
X98105254Y-106207508D01*
X98122168Y-106207663D01*
X98136463Y-106207903D01*
X98147432Y-106208212D01*
X98154365Y-106208576D01*
X98156569Y-106208947D01*
X98155899Y-106211831D01*
X98154021Y-106219190D01*
X98151130Y-106230287D01*
X98147425Y-106244384D01*
X98143101Y-106260743D01*
X98138355Y-106278627D01*
X98133383Y-106297297D01*
X98128382Y-106316015D01*
X98123549Y-106334046D01*
X98119080Y-106350649D01*
X98115171Y-106365089D01*
X98112020Y-106376626D01*
X98109823Y-106384523D01*
X98109289Y-106386383D01*
X98107628Y-106393358D01*
X98107442Y-106397310D01*
X98108159Y-106397658D01*
X98110810Y-106395901D01*
X98117550Y-106391390D01*
X98127993Y-106384387D01*
X98141750Y-106375153D01*
X98158432Y-106363949D01*
X98177651Y-106351035D01*
X98199017Y-106336673D01*
X98222144Y-106321123D01*
X98246641Y-106304647D01*
X98251015Y-106301704D01*
X98391229Y-106207383D01*
X98484426Y-106208093D01*
G37*
G36*
X92349869Y-106512538D02*
G01*
X92355003Y-106514592D01*
X92358962Y-106517587D01*
X92365252Y-106526850D01*
X92369012Y-106539798D01*
X92370007Y-106555226D01*
X92368773Y-106567842D01*
X92367344Y-106576685D01*
X92366362Y-106583239D01*
X92366064Y-106585758D01*
X92368461Y-106587119D01*
X92374576Y-106588657D01*
X92378808Y-106589389D01*
X92392955Y-106592940D01*
X92405660Y-106598732D01*
X92414987Y-106605876D01*
X92415213Y-106606122D01*
X92422714Y-106618159D01*
X92426997Y-106633463D01*
X92427863Y-106650825D01*
X92425432Y-106667725D01*
X92424450Y-106674226D01*
X92423476Y-106684863D01*
X92422601Y-106698375D01*
X92421915Y-106713501D01*
X92421695Y-106720366D01*
X92420331Y-106748330D01*
X92417768Y-106780274D01*
X92414172Y-106814954D01*
X92409707Y-106851126D01*
X92404541Y-106887548D01*
X92398838Y-106922974D01*
X92392764Y-106956162D01*
X92386486Y-106985867D01*
X92386081Y-106987621D01*
X92379167Y-107014045D01*
X92370319Y-107042729D01*
X92360165Y-107071896D01*
X92349334Y-107099768D01*
X92338454Y-107124568D01*
X92335495Y-107130697D01*
X92318807Y-107164441D01*
X92253343Y-107165164D01*
X92235188Y-107165272D01*
X92218967Y-107165192D01*
X92205413Y-107164942D01*
X92195260Y-107164540D01*
X92189241Y-107164004D01*
X92187879Y-107163544D01*
X92189345Y-107160141D01*
X92193068Y-107154155D01*
X92195498Y-107150674D01*
X92217529Y-107116649D01*
X92237765Y-107078173D01*
X92255934Y-107035976D01*
X92271765Y-106990786D01*
X92284987Y-106943333D01*
X92295327Y-106894345D01*
X92298774Y-106873301D01*
X92301099Y-106857067D01*
X92302485Y-106845439D01*
X92302977Y-106837715D01*
X92302618Y-106833192D01*
X92301454Y-106831168D01*
X92301420Y-106831147D01*
X92297718Y-106830082D01*
X92290249Y-106828704D01*
X92280344Y-106827184D01*
X92269333Y-106825693D01*
X92258545Y-106824402D01*
X92249311Y-106823483D01*
X92242960Y-106823108D01*
X92240826Y-106823337D01*
X92240143Y-106826205D01*
X92238766Y-106833402D01*
X92236878Y-106843929D01*
X92234661Y-106856789D01*
X92233994Y-106860743D01*
X92222893Y-106916237D01*
X92208904Y-106967356D01*
X92191914Y-107014355D01*
X92171811Y-107057490D01*
X92148483Y-107097015D01*
X92121818Y-107133185D01*
X92106683Y-107150659D01*
X92092853Y-107165791D01*
X92008088Y-107165791D01*
X91987314Y-107165724D01*
X91968385Y-107165534D01*
X91951945Y-107165237D01*
X91938640Y-107164851D01*
X91929115Y-107164392D01*
X91924014Y-107163876D01*
X91923324Y-107163596D01*
X91925123Y-107160545D01*
X91929638Y-107155512D01*
X91931725Y-107153473D01*
X91940025Y-107144885D01*
X91950434Y-107132991D01*
X91962030Y-107118950D01*
X91973891Y-107103925D01*
X91985094Y-107089076D01*
X91994716Y-107075564D01*
X92000040Y-107067488D01*
X92025808Y-107021390D01*
X92046821Y-106972826D01*
X92063015Y-106922005D01*
X92074326Y-106869135D01*
X92080688Y-106814427D01*
X92081268Y-106805045D01*
X92081719Y-106790533D01*
X92081648Y-106774787D01*
X92081125Y-106758826D01*
X92080218Y-106743671D01*
X92078996Y-106730341D01*
X92077526Y-106719857D01*
X92075878Y-106713239D01*
X92075005Y-106711694D01*
X92071050Y-106710641D01*
X92062423Y-106710272D01*
X92049807Y-106710600D01*
X92042397Y-106711019D01*
X92012409Y-106712962D01*
X92012409Y-106765118D01*
X92011713Y-106802191D01*
X92009551Y-106835061D01*
X92005813Y-106864751D01*
X92000388Y-106892285D01*
X91997463Y-106903894D01*
X91982472Y-106949466D01*
X91962569Y-106993405D01*
X91938168Y-107034857D01*
X91925463Y-107052967D01*
X91914927Y-107066210D01*
X91901370Y-107081795D01*
X91885894Y-107098575D01*
X91869598Y-107115403D01*
X91853583Y-107131131D01*
X91838950Y-107144613D01*
X91831239Y-107151188D01*
X91813391Y-107165791D01*
X91686138Y-107165791D01*
X91558885Y-107165791D01*
X91558885Y-107144626D01*
X91559952Y-107124959D01*
X91563352Y-107105761D01*
X91569387Y-107086312D01*
X91578356Y-107065893D01*
X91579480Y-107063856D01*
X91661822Y-107063856D01*
X91675758Y-107091877D01*
X91681477Y-107102914D01*
X91686572Y-107111903D01*
X91690467Y-107117883D01*
X91692519Y-107119899D01*
X91696014Y-107118635D01*
X91702906Y-107115265D01*
X91711935Y-107110417D01*
X91715674Y-107108313D01*
X91750636Y-107085333D01*
X91782373Y-107058262D01*
X91810634Y-107027513D01*
X91835170Y-106993498D01*
X91855731Y-106956633D01*
X91872065Y-106917329D01*
X91883923Y-106876002D01*
X91891055Y-106833063D01*
X91892501Y-106815993D01*
X91892822Y-106805032D01*
X91892648Y-106792235D01*
X91892065Y-106778807D01*
X91891156Y-106765952D01*
X91890008Y-106754874D01*
X91888706Y-106746778D01*
X91887335Y-106742868D01*
X91887326Y-106742858D01*
X91884445Y-106742874D01*
X91877339Y-106743635D01*
X91867110Y-106745006D01*
X91856080Y-106746661D01*
X91825783Y-106751411D01*
X91824967Y-106790554D01*
X91822327Y-106829888D01*
X91815932Y-106866012D01*
X91805486Y-106899860D01*
X91790697Y-106932365D01*
X91771270Y-106964460D01*
X91769249Y-106967411D01*
X91756982Y-106983174D01*
X91741348Y-107000282D01*
X91723692Y-107017442D01*
X91705361Y-107033364D01*
X91687699Y-107046757D01*
X91683835Y-107049369D01*
X91661822Y-107063856D01*
X91579480Y-107063856D01*
X91590559Y-107043782D01*
X91606298Y-107019260D01*
X91618416Y-107001896D01*
X91628668Y-106987125D01*
X91638980Y-106971483D01*
X91648393Y-106956478D01*
X91655947Y-106943618D01*
X91658434Y-106939029D01*
X91672654Y-106908510D01*
X91684682Y-106875488D01*
X91694652Y-106839405D01*
X91702704Y-106799704D01*
X91708973Y-106755825D01*
X91712756Y-106717846D01*
X91713916Y-106704970D01*
X91715056Y-106694167D01*
X91716051Y-106686511D01*
X91716776Y-106683074D01*
X91716821Y-106683010D01*
X91719568Y-106682101D01*
X91727107Y-106679877D01*
X91739025Y-106676454D01*
X91754908Y-106671947D01*
X91774344Y-106666473D01*
X91796919Y-106660149D01*
X91822220Y-106653090D01*
X91849833Y-106645412D01*
X91879344Y-106637232D01*
X91906419Y-106629748D01*
X91951875Y-106617199D01*
X91992474Y-106605989D01*
X92028564Y-106596022D01*
X92060492Y-106587200D01*
X92088606Y-106579427D01*
X92113255Y-106572606D01*
X92134784Y-106566638D01*
X92153543Y-106561429D01*
X92169878Y-106556880D01*
X92184137Y-106552895D01*
X92196668Y-106549376D01*
X92207819Y-106546227D01*
X92217937Y-106543351D01*
X92227370Y-106540650D01*
X92236466Y-106538028D01*
X92245571Y-106535388D01*
X92255034Y-106532632D01*
X92265203Y-106529664D01*
X92266166Y-106529383D01*
X92289412Y-106522722D01*
X92308141Y-106517704D01*
X92322951Y-106514253D01*
X92334442Y-106512293D01*
X92343215Y-106511746D01*
X92349869Y-106512538D01*
G37*
G36*
X91839957Y-107300751D02*
G01*
X91925373Y-107300755D01*
X92005838Y-107300763D01*
X92081500Y-107300775D01*
X92152507Y-107300793D01*
X92219010Y-107300816D01*
X92281158Y-107300846D01*
X92339098Y-107300882D01*
X92392981Y-107300925D01*
X92442956Y-107300976D01*
X92489170Y-107301035D01*
X92531775Y-107301104D01*
X92570918Y-107301181D01*
X92606748Y-107301268D01*
X92639415Y-107301366D01*
X92669068Y-107301474D01*
X92695855Y-107301594D01*
X92719927Y-107301726D01*
X92741431Y-107301871D01*
X92760517Y-107302028D01*
X92777334Y-107302199D01*
X92792031Y-107302384D01*
X92804757Y-107302584D01*
X92815661Y-107302799D01*
X92824892Y-107303029D01*
X92832599Y-107303276D01*
X92838932Y-107303540D01*
X92844039Y-107303820D01*
X92848069Y-107304119D01*
X92851171Y-107304436D01*
X92853495Y-107304771D01*
X92854743Y-107305019D01*
X92871595Y-107310439D01*
X92883978Y-107318200D01*
X92892465Y-107328702D01*
X92894593Y-107333037D01*
X92896771Y-107341183D01*
X92898451Y-107353537D01*
X92899615Y-107368928D01*
X92900240Y-107386186D01*
X92900308Y-107404141D01*
X92899799Y-107421621D01*
X92898691Y-107437457D01*
X92896965Y-107450479D01*
X92896644Y-107452156D01*
X92888980Y-107479282D01*
X92877775Y-107502378D01*
X92863066Y-107521404D01*
X92844889Y-107536320D01*
X92823282Y-107547085D01*
X92805595Y-107552249D01*
X92798090Y-107553227D01*
X92785294Y-107554044D01*
X92767310Y-107554698D01*
X92744244Y-107555185D01*
X92716200Y-107555502D01*
X92687901Y-107555637D01*
X92584575Y-107555875D01*
X92581853Y-107566673D01*
X92569585Y-107604597D01*
X92552571Y-107639983D01*
X92530908Y-107672660D01*
X92505289Y-107701864D01*
X92476070Y-107727575D01*
X92444752Y-107748321D01*
X92411196Y-107764169D01*
X92375266Y-107775183D01*
X92339053Y-107781205D01*
X92327477Y-107782337D01*
X92317678Y-107783146D01*
X92311075Y-107783521D01*
X92309358Y-107783507D01*
X92303978Y-107782995D01*
X92296407Y-107782274D01*
X92295861Y-107782222D01*
X92254522Y-107776001D01*
X92215985Y-107765546D01*
X92180479Y-107750974D01*
X92148232Y-107732402D01*
X92119474Y-107709949D01*
X92094432Y-107683731D01*
X92087846Y-107675372D01*
X92066779Y-107642944D01*
X92049889Y-107607151D01*
X92037236Y-107568120D01*
X92036693Y-107565998D01*
X92033797Y-107554525D01*
X91659320Y-107554525D01*
X91284843Y-107554525D01*
X91278602Y-107576796D01*
X91265707Y-107613118D01*
X91248297Y-107646779D01*
X91226718Y-107677464D01*
X91201321Y-107704856D01*
X91172451Y-107728639D01*
X91140458Y-107748497D01*
X91105690Y-107764115D01*
X91068494Y-107775175D01*
X91057776Y-107777396D01*
X91036606Y-107780078D01*
X91012371Y-107781027D01*
X90987057Y-107780311D01*
X90962648Y-107777996D01*
X90941126Y-107774149D01*
X90937991Y-107773371D01*
X90902884Y-107761541D01*
X90868970Y-107744780D01*
X90837046Y-107723541D01*
X90810186Y-107700504D01*
X90788147Y-107676760D01*
X90770023Y-107651594D01*
X90755324Y-107624096D01*
X90743562Y-107593358D01*
X90734558Y-107559859D01*
X90733028Y-107553045D01*
X90702557Y-107555279D01*
X90686663Y-107556140D01*
X90667826Y-107556665D01*
X90646932Y-107556876D01*
X90624865Y-107556794D01*
X90602510Y-107556440D01*
X90580753Y-107555837D01*
X90560477Y-107555005D01*
X90542569Y-107553965D01*
X90527913Y-107552741D01*
X90517394Y-107551351D01*
X90514396Y-107550718D01*
X90492378Y-107543119D01*
X90473520Y-107532057D01*
X90456463Y-107516859D01*
X90446350Y-107505393D01*
X90442865Y-107500432D01*
X90892577Y-107500432D01*
X90893506Y-107522086D01*
X90898718Y-107543575D01*
X90908463Y-107564326D01*
X90922993Y-107583769D01*
X90923976Y-107584831D01*
X90942129Y-107601159D01*
X90961668Y-107612519D01*
X90983249Y-107619178D01*
X91007530Y-107621404D01*
X91013578Y-107621317D01*
X91026880Y-107620649D01*
X91036827Y-107619358D01*
X91045458Y-107617009D01*
X91054813Y-107613166D01*
X91057468Y-107611937D01*
X91078728Y-107599261D01*
X91096231Y-107583336D01*
X91109847Y-107564819D01*
X91119445Y-107544365D01*
X91124894Y-107522630D01*
X91125232Y-107516180D01*
X92193581Y-107516180D01*
X92197605Y-107538527D01*
X92206411Y-107560522D01*
X92212122Y-107570313D01*
X92227298Y-107589643D01*
X92244910Y-107604283D01*
X92265192Y-107614348D01*
X92288374Y-107619956D01*
X92313654Y-107621252D01*
X92326649Y-107620776D01*
X92336109Y-107619848D01*
X92343900Y-107618050D01*
X92351886Y-107614962D01*
X92361140Y-107610554D01*
X92382376Y-107597302D01*
X92399636Y-107580428D01*
X92413139Y-107559708D01*
X92415365Y-107555175D01*
X92422667Y-107533516D01*
X92425521Y-107510052D01*
X92423844Y-107486155D01*
X92420382Y-107471357D01*
X92410872Y-107448936D01*
X92397150Y-107429464D01*
X92379799Y-107413400D01*
X92359398Y-107401204D01*
X92336529Y-107393339D01*
X92318513Y-107390588D01*
X92294241Y-107391185D01*
X92271802Y-107396413D01*
X92251523Y-107405719D01*
X92233733Y-107418548D01*
X92218759Y-107434349D01*
X92206929Y-107452565D01*
X92198571Y-107472645D01*
X92194013Y-107494035D01*
X92193581Y-107516180D01*
X91125232Y-107516180D01*
X91126065Y-107500271D01*
X91122827Y-107477944D01*
X91115048Y-107456304D01*
X91102600Y-107436009D01*
X91094376Y-107426350D01*
X91075903Y-107409953D01*
X91056005Y-107398593D01*
X91034020Y-107391988D01*
X91009323Y-107389853D01*
X90984993Y-107392248D01*
X90962944Y-107399051D01*
X90943427Y-107409691D01*
X90926692Y-107423596D01*
X90912990Y-107440195D01*
X90902569Y-107458915D01*
X90895682Y-107479184D01*
X90892577Y-107500432D01*
X90442865Y-107500432D01*
X90438387Y-107494056D01*
X90432336Y-107482007D01*
X90427961Y-107468401D01*
X90425024Y-107452397D01*
X90423288Y-107433150D01*
X90422517Y-107409819D01*
X90422418Y-107395819D01*
X90422462Y-107377868D01*
X90422678Y-107364420D01*
X90423146Y-107354582D01*
X90423943Y-107347459D01*
X90425146Y-107342156D01*
X90426834Y-107337778D01*
X90427618Y-107336174D01*
X90436050Y-107324152D01*
X90447784Y-107313245D01*
X90460775Y-107305321D01*
X90461915Y-107304827D01*
X90463144Y-107304499D01*
X90465315Y-107304189D01*
X90468573Y-107303897D01*
X90473064Y-107303622D01*
X90478935Y-107303363D01*
X90486329Y-107303119D01*
X90495393Y-107302892D01*
X90506272Y-107302679D01*
X90519112Y-107302481D01*
X90534057Y-107302296D01*
X90551255Y-107302125D01*
X90570849Y-107301967D01*
X90592986Y-107301821D01*
X90617811Y-107301687D01*
X90645469Y-107301565D01*
X90676107Y-107301454D01*
X90709869Y-107301353D01*
X90746901Y-107301262D01*
X90787348Y-107301180D01*
X90831357Y-107301107D01*
X90879071Y-107301043D01*
X90930638Y-107300987D01*
X90986202Y-107300938D01*
X91045910Y-107300896D01*
X91109905Y-107300861D01*
X91178334Y-107300831D01*
X91251343Y-107300807D01*
X91329077Y-107300788D01*
X91411681Y-107300774D01*
X91499301Y-107300763D01*
X91592082Y-107300756D01*
X91653672Y-107300753D01*
X91749439Y-107300750D01*
X91839957Y-107300751D01*
G37*
G36*
X91565376Y-105416481D02*
G01*
X91615483Y-105416486D01*
X91634473Y-105416487D01*
X91686448Y-105416484D01*
X91733309Y-105416483D01*
X91775343Y-105416496D01*
X91812833Y-105416532D01*
X91846066Y-105416604D01*
X91875326Y-105416723D01*
X91900900Y-105416899D01*
X91923072Y-105417145D01*
X91942128Y-105417471D01*
X91958353Y-105417888D01*
X91972033Y-105418409D01*
X91983453Y-105419043D01*
X91992898Y-105419802D01*
X92000654Y-105420697D01*
X92007006Y-105421740D01*
X92012239Y-105422941D01*
X92016640Y-105424313D01*
X92020492Y-105425865D01*
X92024083Y-105427610D01*
X92027696Y-105429558D01*
X92031617Y-105431721D01*
X92032313Y-105432098D01*
X92041181Y-105437710D01*
X92051654Y-105445516D01*
X92061538Y-105453875D01*
X92061980Y-105454281D01*
X92079576Y-105473000D01*
X92092691Y-105492940D01*
X92101732Y-105515000D01*
X92107102Y-105540076D01*
X92108792Y-105557976D01*
X92110340Y-105585208D01*
X92151134Y-105585208D01*
X92167182Y-105585276D01*
X92178884Y-105585560D01*
X92187291Y-105586180D01*
X92193457Y-105587259D01*
X92198432Y-105588916D01*
X92203111Y-105591189D01*
X92215506Y-105600003D01*
X92226228Y-105611662D01*
X92233876Y-105624479D01*
X92236190Y-105631104D01*
X92237001Y-105637144D01*
X92237686Y-105647795D01*
X92238244Y-105662273D01*
X92238676Y-105679790D01*
X92238980Y-105699562D01*
X92239157Y-105720802D01*
X92239206Y-105742725D01*
X92239126Y-105764544D01*
X92238919Y-105785474D01*
X92238582Y-105804729D01*
X92238117Y-105821524D01*
X92237522Y-105835072D01*
X92236797Y-105844587D01*
X92236276Y-105848144D01*
X92229986Y-105864992D01*
X92219155Y-105879584D01*
X92204865Y-105890751D01*
X92199722Y-105893659D01*
X92195107Y-105895712D01*
X92189960Y-105897058D01*
X92183222Y-105897847D01*
X92173833Y-105898226D01*
X92160734Y-105898346D01*
X92150759Y-105898355D01*
X92109590Y-105898355D01*
X92109538Y-105919952D01*
X92108208Y-105948399D01*
X92104149Y-105972898D01*
X92097033Y-105994337D01*
X92086531Y-106013602D01*
X92072315Y-106031583D01*
X92065702Y-106038430D01*
X92055659Y-106047697D01*
X92045186Y-106056307D01*
X92035946Y-106062933D01*
X92032453Y-106065010D01*
X92028402Y-106067201D01*
X92024716Y-106069177D01*
X92021109Y-106070949D01*
X92017296Y-106072527D01*
X92012993Y-106073922D01*
X92007913Y-106075146D01*
X92001772Y-106076209D01*
X91994285Y-106077122D01*
X91985167Y-106077897D01*
X91974132Y-106078543D01*
X91960894Y-106079073D01*
X91945170Y-106079497D01*
X91926674Y-106079826D01*
X91905120Y-106080071D01*
X91880224Y-106080243D01*
X91851700Y-106080352D01*
X91819263Y-106080411D01*
X91782628Y-106080429D01*
X91741510Y-106080418D01*
X91695623Y-106080389D01*
X91644683Y-106080353D01*
X91633231Y-106080345D01*
X91578923Y-106080298D01*
X91529800Y-106080228D01*
X91485644Y-106080133D01*
X91446242Y-106080013D01*
X91411378Y-106079863D01*
X91380837Y-106079683D01*
X91354403Y-106079471D01*
X91331861Y-106079223D01*
X91312996Y-106078939D01*
X91297592Y-106078616D01*
X91285435Y-106078252D01*
X91276308Y-106077845D01*
X91269998Y-106077393D01*
X91266287Y-106076893D01*
X91265985Y-106076825D01*
X91246317Y-106069804D01*
X91226417Y-106058749D01*
X91207709Y-106044722D01*
X91191621Y-106028784D01*
X91180079Y-106012870D01*
X91172640Y-105998789D01*
X91167272Y-105985087D01*
X91163623Y-105970333D01*
X91161338Y-105953095D01*
X91160063Y-105931939D01*
X91160058Y-105931787D01*
X91158684Y-105895030D01*
X91147546Y-105897606D01*
X91140267Y-105898568D01*
X91129233Y-105899166D01*
X91116078Y-105899342D01*
X91105327Y-105899144D01*
X91090482Y-105898457D01*
X91079638Y-105897399D01*
X91071398Y-105895741D01*
X91064365Y-105893253D01*
X91061522Y-105891947D01*
X91047160Y-105882567D01*
X91037220Y-105870633D01*
X91032763Y-105859764D01*
X91031855Y-105853537D01*
X91031012Y-105842717D01*
X91030244Y-105828111D01*
X91029566Y-105810527D01*
X91028989Y-105790770D01*
X91028527Y-105769648D01*
X91028192Y-105747967D01*
X91027997Y-105726533D01*
X91027992Y-105724125D01*
X91337327Y-105724125D01*
X91337455Y-105742362D01*
X91337821Y-105759387D01*
X91338428Y-105774256D01*
X91339281Y-105786026D01*
X91340383Y-105793752D01*
X91340656Y-105794805D01*
X91346818Y-105807580D01*
X91356862Y-105819841D01*
X91369369Y-105830034D01*
X91376516Y-105834071D01*
X91384221Y-105837367D01*
X91391363Y-105839214D01*
X91399843Y-105839900D01*
X91411563Y-105839712D01*
X91413299Y-105839644D01*
X91425936Y-105838837D01*
X91435053Y-105837352D01*
X91442525Y-105834754D01*
X91448976Y-105831348D01*
X91463969Y-105819688D01*
X91474651Y-105804782D01*
X91479477Y-105792766D01*
X91480692Y-105785859D01*
X91481693Y-105774600D01*
X91482473Y-105760032D01*
X91483022Y-105743197D01*
X91483332Y-105725139D01*
X91483354Y-105718836D01*
X91786997Y-105718836D01*
X91787061Y-105741811D01*
X91787339Y-105760117D01*
X91787960Y-105774485D01*
X91789050Y-105785642D01*
X91790739Y-105794320D01*
X91793154Y-105801247D01*
X91796423Y-105807154D01*
X91800675Y-105812770D01*
X91804195Y-105816796D01*
X91818146Y-105828425D01*
X91835057Y-105836356D01*
X91853700Y-105840302D01*
X91872850Y-105839976D01*
X91887933Y-105836371D01*
X91904345Y-105828097D01*
X91917413Y-105815831D01*
X91924913Y-105804558D01*
X91932772Y-105790374D01*
X91933629Y-105725656D01*
X91933852Y-105702395D01*
X91933772Y-105683789D01*
X91933288Y-105669098D01*
X91932302Y-105657583D01*
X91930712Y-105648502D01*
X91928420Y-105641117D01*
X91925326Y-105634687D01*
X91921330Y-105628472D01*
X91920351Y-105627103D01*
X91908767Y-105614764D01*
X91894491Y-105606410D01*
X91876869Y-105601724D01*
X91865403Y-105600590D01*
X91845194Y-105601259D01*
X91828283Y-105605772D01*
X91813917Y-105614401D01*
X91805654Y-105622273D01*
X91800176Y-105628522D01*
X91795890Y-105634217D01*
X91792650Y-105640115D01*
X91790310Y-105646973D01*
X91788725Y-105655546D01*
X91787746Y-105666592D01*
X91787230Y-105680865D01*
X91787029Y-105699123D01*
X91786997Y-105718836D01*
X91483354Y-105718836D01*
X91483396Y-105706900D01*
X91483203Y-105689524D01*
X91482747Y-105674053D01*
X91482018Y-105661530D01*
X91481009Y-105652999D01*
X91480617Y-105651254D01*
X91474260Y-105636145D01*
X91464493Y-105622245D01*
X91452687Y-105611396D01*
X91449337Y-105609235D01*
X91434621Y-105603228D01*
X91417337Y-105600252D01*
X91399456Y-105600412D01*
X91382948Y-105603812D01*
X91378585Y-105605468D01*
X91365039Y-105613493D01*
X91352794Y-105624724D01*
X91343564Y-105637476D01*
X91341310Y-105642110D01*
X91340100Y-105647798D01*
X91339103Y-105657936D01*
X91338324Y-105671582D01*
X91337765Y-105687791D01*
X91337431Y-105705620D01*
X91337327Y-105724125D01*
X91027992Y-105724125D01*
X91027954Y-105706154D01*
X91028076Y-105687635D01*
X91028376Y-105671784D01*
X91028866Y-105659408D01*
X91029495Y-105651789D01*
X91033580Y-105630977D01*
X91040201Y-105614188D01*
X91049728Y-105601167D01*
X91062526Y-105591659D01*
X91078965Y-105585406D01*
X91099410Y-105582153D01*
X91124231Y-105581645D01*
X91129963Y-105581860D01*
X91158613Y-105583174D01*
X91160120Y-105555846D01*
X91163338Y-105528574D01*
X91170010Y-105504845D01*
X91180520Y-105483761D01*
X91195252Y-105464424D01*
X91202411Y-105456980D01*
X91212493Y-105448132D01*
X91224029Y-105439544D01*
X91233883Y-105433443D01*
X91238290Y-105431054D01*
X91242257Y-105428900D01*
X91246070Y-105426968D01*
X91250016Y-105425248D01*
X91254382Y-105423726D01*
X91259455Y-105422390D01*
X91265522Y-105421229D01*
X91272869Y-105420231D01*
X91281785Y-105419382D01*
X91292554Y-105418671D01*
X91305466Y-105418087D01*
X91320806Y-105417615D01*
X91338861Y-105417246D01*
X91359918Y-105416966D01*
X91384265Y-105416763D01*
X91412187Y-105416625D01*
X91443973Y-105416540D01*
X91479908Y-105416496D01*
X91520280Y-105416480D01*
X91565376Y-105416481D01*
G37*
D18*
%TO.C,R6*%
X95537742Y-90627500D02*
X96012258Y-90627500D01*
X95537742Y-91672500D02*
X96012258Y-91672500D01*
%TO.C,D3*%
X127750000Y-99590000D02*
X127750000Y-108100000D01*
X127750000Y-99590000D02*
X134250000Y-99590000D01*
X134250000Y-99590000D02*
X134250000Y-108100000D01*
%TO.C,R13*%
X106012742Y-90477500D02*
X106487258Y-90477500D01*
X106012742Y-91522500D02*
X106487258Y-91522500D01*
%TO.C,R5*%
X95987258Y-89027500D02*
X95512742Y-89027500D01*
X95987258Y-90072500D02*
X95512742Y-90072500D01*
%TO.C,C2*%
X93812903Y-56712323D02*
X93531743Y-56712323D01*
X93812903Y-57732323D02*
X93531743Y-57732323D01*
%TO.C,C6*%
X103240000Y-93359420D02*
X103240000Y-93640580D01*
X104260000Y-93359420D02*
X104260000Y-93640580D01*
%TO.C,J2*%
X107332761Y-74870712D02*
X107332761Y-77630712D01*
X109982761Y-74870712D02*
X107332761Y-74870712D01*
X109982761Y-74870712D02*
X109982761Y-77630712D01*
X109982761Y-77630712D02*
X107332761Y-77630712D01*
X111252761Y-74870712D02*
X112632761Y-74870712D01*
X112632761Y-74870712D02*
X112632761Y-76250712D01*
%TO.C,R3*%
X92362258Y-91327500D02*
X91887742Y-91327500D01*
X92362258Y-92372500D02*
X91887742Y-92372500D01*
%TD*%
M02*
