%TF.GenerationSoftware,KiCad,Pcbnew,9.0.6*%
%TF.CreationDate,2026-04-13T16:26:14+02:00*%
%TF.ProjectId,Microver2026_Modular_Final,4d696372-6f76-4657-9232-3032365f4d6f,rev?*%
%TF.SameCoordinates,Original*%
%TF.FileFunction,Soldermask,Top*%
%TF.FilePolarity,Negative*%
%FSLAX46Y46*%
G04 Gerber Fmt 4.6, Leading zero omitted, Abs format (unit mm)*
G04 Created by KiCad (PCBNEW 9.0.6) date 2026-04-13 16:26:14*
%MOMM*%
%LPD*%
G01*
G04 APERTURE LIST*
G04 Aperture macros list*
%AMRoundRect*
0 Rectangle with rounded corners*
0 $1 Rounding radius*
0 $2 $3 $4 $5 $6 $7 $8 $9 X,Y pos of 4 corners*
0 Add a 4 corners polygon primitive as box body*
4,1,4,$2,$3,$4,$5,$6,$7,$8,$9,$2,$3,0*
0 Add four circle primitives for the rounded corners*
1,1,$1+$1,$2,$3*
1,1,$1+$1,$4,$5*
1,1,$1+$1,$6,$7*
1,1,$1+$1,$8,$9*
0 Add four rect primitives between the rounded corners*
20,1,$1+$1,$2,$3,$4,$5,0*
20,1,$1+$1,$4,$5,$6,$7,0*
20,1,$1+$1,$6,$7,$8,$9,0*
20,1,$1+$1,$8,$9,$2,$3,0*%
G04 Aperture macros list end*
%ADD10C,0.000000*%
%ADD11C,2.057400*%
%ADD12R,0.635000X1.854200*%
%ADD13R,6.045200X5.105400*%
%ADD14R,10.109200X5.105400*%
%ADD15RoundRect,0.250000X0.350000X0.625000X-0.350000X0.625000X-0.350000X-0.625000X0.350000X-0.625000X0*%
%ADD16O,1.200000X1.750000*%
%ADD17RoundRect,0.250002X1.499998X-1.499998X1.499998X1.499998X-1.499998X1.499998X-1.499998X-1.499998X0*%
%ADD18C,3.500000*%
%ADD19C,3.200000*%
%ADD20C,2.200000*%
%ADD21RoundRect,0.200000X-0.200000X-0.275000X0.200000X-0.275000X0.200000X0.275000X-0.200000X0.275000X0*%
%ADD22R,1.700000X1.700000*%
%ADD23C,1.700000*%
%ADD24RoundRect,0.250000X0.550000X-1.050000X0.550000X1.050000X-0.550000X1.050000X-0.550000X-1.050000X0*%
%ADD25RoundRect,0.250000X-0.650000X0.325000X-0.650000X-0.325000X0.650000X-0.325000X0.650000X0.325000X0*%
%ADD26RoundRect,0.150000X-0.512500X-0.150000X0.512500X-0.150000X0.512500X0.150000X-0.512500X0.150000X0*%
%ADD27RoundRect,0.225000X0.225000X0.250000X-0.225000X0.250000X-0.225000X-0.250000X0.225000X-0.250000X0*%
%ADD28R,1.000000X1.000000*%
%ADD29C,1.600000*%
%ADD30RoundRect,0.218750X0.256250X-0.218750X0.256250X0.218750X-0.256250X0.218750X-0.256250X-0.218750X0*%
%ADD31RoundRect,0.250000X0.550000X-0.550000X0.550000X0.550000X-0.550000X0.550000X-0.550000X-0.550000X0*%
%ADD32RoundRect,0.250001X0.899999X-0.899999X0.899999X0.899999X-0.899999X0.899999X-0.899999X-0.899999X0*%
%ADD33C,2.300000*%
%ADD34R,0.700001X0.399999*%
%ADD35C,0.499999*%
%ADD36RoundRect,0.250000X-0.550000X-0.550000X0.550000X-0.550000X0.550000X0.550000X-0.550000X0.550000X0*%
%ADD37RoundRect,0.250000X0.550000X0.550000X-0.550000X0.550000X-0.550000X-0.550000X0.550000X-0.550000X0*%
%ADD38RoundRect,0.250000X-0.550000X1.050000X-0.550000X-1.050000X0.550000X-1.050000X0.550000X1.050000X0*%
%ADD39RoundRect,0.250000X0.650000X-0.325000X0.650000X0.325000X-0.650000X0.325000X-0.650000X-0.325000X0*%
%ADD40R,0.399999X0.700001*%
%ADD41C,1.200000*%
%ADD42RoundRect,0.250000X-0.600000X-0.725000X0.600000X-0.725000X0.600000X0.725000X-0.600000X0.725000X0*%
%ADD43O,1.700000X1.950000*%
%ADD44RoundRect,0.250001X-1.149999X1.149999X-1.149999X-1.149999X1.149999X-1.149999X1.149999X1.149999X0*%
%ADD45C,2.800000*%
%ADD46RoundRect,0.250002X-1.499998X1.499998X-1.499998X-1.499998X1.499998X-1.499998X1.499998X1.499998X0*%
%ADD47RoundRect,0.225000X0.250000X-0.225000X0.250000X0.225000X-0.250000X0.225000X-0.250000X-0.225000X0*%
G04 APERTURE END LIST*
D10*
%TO.C,U4*%
G36*
X137274998Y-129200001D02*
G01*
X136774999Y-129200001D01*
X136774999Y-128900002D01*
X137274998Y-128900002D01*
X137274998Y-129200001D01*
G37*
G36*
X137274998Y-129850003D02*
G01*
X136774999Y-129850003D01*
X136774999Y-129550003D01*
X137274998Y-129550003D01*
X137274998Y-129850003D01*
G37*
G36*
X137274998Y-130499999D02*
G01*
X136774999Y-130499999D01*
X136774999Y-130199999D01*
X137274998Y-130199999D01*
X137274998Y-130499999D01*
G37*
G36*
X137274998Y-131150000D02*
G01*
X136774999Y-131150000D01*
X136774999Y-130850001D01*
X137274998Y-130850001D01*
X137274998Y-131150000D01*
G37*
G36*
X137022139Y-128801023D02*
G01*
X137032129Y-128804053D01*
X137041334Y-128808976D01*
X137049403Y-128815598D01*
X137056025Y-128823667D01*
X137060948Y-128832872D01*
X137063978Y-128842862D01*
X137065001Y-128853251D01*
X137065001Y-131196751D01*
X137063978Y-131207140D01*
X137060948Y-131217130D01*
X137056025Y-131226335D01*
X137049403Y-131234404D01*
X137041334Y-131241026D01*
X137032129Y-131245949D01*
X137022139Y-131248979D01*
X137011750Y-131250000D01*
X135343250Y-131250000D01*
X135332861Y-131248979D01*
X135322871Y-131245949D01*
X135313666Y-131241026D01*
X135305597Y-131234404D01*
X135298975Y-131226335D01*
X135294052Y-131217130D01*
X135291022Y-131207140D01*
X135290001Y-131196751D01*
X135290001Y-128853251D01*
X135291022Y-128842862D01*
X135294052Y-128832872D01*
X135298975Y-128823667D01*
X135305597Y-128815598D01*
X135313666Y-128808976D01*
X135322871Y-128804053D01*
X135332861Y-128801023D01*
X135343250Y-128800002D01*
X137011750Y-128800002D01*
X137022139Y-128801023D01*
G37*
%TO.C,U3*%
G36*
X135300001Y-145179997D02*
G01*
X135000002Y-145179997D01*
X135000002Y-144679998D01*
X135300001Y-144679998D01*
X135300001Y-145179997D01*
G37*
G36*
X135950003Y-145179997D02*
G01*
X135650003Y-145179997D01*
X135650003Y-144679998D01*
X135950003Y-144679998D01*
X135950003Y-145179997D01*
G37*
G36*
X136599999Y-145179997D02*
G01*
X136299999Y-145179997D01*
X136299999Y-144679998D01*
X136599999Y-144679998D01*
X136599999Y-145179997D01*
G37*
G36*
X137250000Y-145179997D02*
G01*
X136950001Y-145179997D01*
X136950001Y-144679998D01*
X137250000Y-144679998D01*
X137250000Y-145179997D01*
G37*
G36*
X137307140Y-143196021D02*
G01*
X137317130Y-143199051D01*
X137326335Y-143203974D01*
X137334404Y-143210596D01*
X137341026Y-143218665D01*
X137345949Y-143227870D01*
X137348979Y-143237860D01*
X137350000Y-143248249D01*
X137350000Y-144916749D01*
X137348979Y-144927138D01*
X137345949Y-144937128D01*
X137341026Y-144946333D01*
X137334404Y-144954402D01*
X137326335Y-144961024D01*
X137317130Y-144965947D01*
X137307140Y-144968977D01*
X137296751Y-144970000D01*
X134953251Y-144970000D01*
X134942862Y-144968977D01*
X134932872Y-144965947D01*
X134923667Y-144961024D01*
X134915598Y-144954402D01*
X134908976Y-144946333D01*
X134904053Y-144937128D01*
X134901023Y-144927138D01*
X134900002Y-144916749D01*
X134900002Y-143248249D01*
X134901023Y-143237860D01*
X134904053Y-143227870D01*
X134908976Y-143218665D01*
X134915598Y-143210596D01*
X134923667Y-143203974D01*
X134932872Y-143199051D01*
X134942862Y-143196021D01*
X134953251Y-143195000D01*
X137296751Y-143195000D01*
X137307140Y-143196021D01*
G37*
%TD*%
D11*
%TO.C,SW1*%
X129400000Y-115900000D03*
X124701000Y-115900000D03*
X120002000Y-115900000D03*
%TD*%
D12*
%TO.C,U2*%
X153934200Y-139991400D03*
X152943600Y-139991400D03*
X151953000Y-139991400D03*
X150962400Y-139991400D03*
X149971800Y-139991400D03*
X148981200Y-139991400D03*
X147990600Y-139991400D03*
X147000000Y-139991400D03*
X146009400Y-139991400D03*
X145018800Y-139991400D03*
X144028200Y-139991400D03*
X143037600Y-139991400D03*
X142047000Y-139991400D03*
X141056400Y-139991400D03*
X140065800Y-139991400D03*
X140065800Y-158000000D03*
X141056400Y-158000000D03*
X142047000Y-158000000D03*
X143037600Y-158000000D03*
X144028200Y-158000000D03*
X145018800Y-158000000D03*
X146009400Y-158000000D03*
X147000000Y-158000000D03*
X147990600Y-158000000D03*
X148981200Y-158000000D03*
X149971800Y-158000000D03*
X150962400Y-158000000D03*
X151953000Y-158000000D03*
X152943600Y-158000000D03*
X153934200Y-158000000D03*
D13*
X151072600Y-151973400D03*
X142927364Y-151973400D03*
D14*
X147000000Y-146018058D03*
%TD*%
D15*
%TO.C,J16*%
X114000000Y-167000000D03*
D16*
X112000000Y-167000000D03*
X110000000Y-167000000D03*
X108000000Y-167000000D03*
X106000000Y-167000000D03*
X104000000Y-167000000D03*
%TD*%
D17*
%TO.C,J19*%
X128000000Y-154500000D03*
D18*
X128000000Y-147500000D03*
%TD*%
D19*
%TO.C,H6*%
X106700000Y-112100000D03*
%TD*%
D20*
%TO.C,TH1*%
X77000000Y-122000000D03*
X77000000Y-132000000D03*
%TD*%
D21*
%TO.C,R1*%
X131375000Y-121700000D03*
X133025000Y-121700000D03*
%TD*%
D19*
%TO.C,H9*%
X116000000Y-48000000D03*
%TD*%
D22*
%TO.C,J2*%
X113810000Y-107860000D03*
D23*
X113810000Y-110400000D03*
%TD*%
D22*
%TO.C,J15*%
X161540000Y-165710000D03*
D23*
X161540000Y-168250000D03*
X159000000Y-165710000D03*
X159000000Y-168250000D03*
X156460000Y-165710000D03*
X156460000Y-168250000D03*
X153920000Y-165710000D03*
X153920000Y-168250000D03*
X151380000Y-165710000D03*
X151380000Y-168250000D03*
X148840000Y-165710000D03*
X148840000Y-168250000D03*
X146300000Y-165710000D03*
X146300000Y-168250000D03*
X143760000Y-165710000D03*
X143760000Y-168250000D03*
X141220000Y-165710000D03*
X141220000Y-168250000D03*
X138680000Y-165710000D03*
X138680000Y-168250000D03*
%TD*%
D24*
%TO.C,C8*%
X139500000Y-40800000D03*
X139500000Y-37200000D03*
%TD*%
D25*
%TO.C,C4*%
X136072600Y-147525000D03*
X136072600Y-150475000D03*
%TD*%
D22*
%TO.C,J14*%
X161540000Y-109830000D03*
D23*
X161540000Y-112370000D03*
X159000000Y-109830000D03*
X159000000Y-112370000D03*
X156460000Y-109830000D03*
X156460000Y-112370000D03*
X153920000Y-109830000D03*
X153920000Y-112370000D03*
X151380000Y-109830000D03*
X151380000Y-112370000D03*
X148840000Y-109830000D03*
X148840000Y-112370000D03*
X146300000Y-109830000D03*
X146300000Y-112370000D03*
X143760000Y-109830000D03*
X143760000Y-112370000D03*
X141220000Y-109830000D03*
X141220000Y-112370000D03*
X138680000Y-109830000D03*
X138680000Y-112370000D03*
%TD*%
D15*
%TO.C,J10*%
X126000000Y-38500000D03*
D16*
X124000000Y-38500000D03*
X122000000Y-38500000D03*
X120000000Y-38500000D03*
X118000000Y-38500000D03*
X116000000Y-38500000D03*
%TD*%
D19*
%TO.C,H12*%
X67000000Y-39000000D03*
%TD*%
D15*
%TO.C,J11*%
X111000000Y-38500000D03*
D16*
X109000000Y-38500000D03*
X107000000Y-38500000D03*
X105000000Y-38500000D03*
X103000000Y-38500000D03*
X101000000Y-38500000D03*
%TD*%
D26*
%TO.C,U5*%
X114725000Y-117100000D03*
X114725000Y-118050000D03*
X114725000Y-119000000D03*
X117000000Y-119000000D03*
X117000000Y-117100000D03*
%TD*%
D27*
%TO.C,C6*%
X117000000Y-115500000D03*
X115450000Y-115500000D03*
%TD*%
D19*
%TO.C,H14*%
X67000000Y-166000000D03*
%TD*%
D28*
%TO.C,TP2*%
X115400000Y-113600000D03*
%TD*%
D22*
%TO.C,J25*%
X150100000Y-36920000D03*
D23*
X150100000Y-39460000D03*
X150100000Y-42000000D03*
%TD*%
D29*
%TO.C,F1*%
X68300000Y-146900000D03*
X68300000Y-124400000D03*
%TD*%
D30*
%TO.C,D3*%
X131300000Y-125687500D03*
X131300000Y-124112500D03*
%TD*%
D22*
%TO.C,J26*%
X65220000Y-118700000D03*
D23*
X67760000Y-118700000D03*
X70300000Y-118700000D03*
%TD*%
D21*
%TO.C,R2*%
X128275000Y-120600000D03*
X129925000Y-120600000D03*
%TD*%
D28*
%TO.C,TP3*%
X91000000Y-161500000D03*
%TD*%
D31*
%TO.C,C3*%
X123000000Y-126652651D03*
D29*
X123000000Y-123152651D03*
%TD*%
D15*
%TO.C,J12*%
X96000000Y-38500000D03*
D16*
X94000000Y-38500000D03*
X92000000Y-38500000D03*
X90000000Y-38500000D03*
X88000000Y-38500000D03*
X86000000Y-38500000D03*
%TD*%
D32*
%TO.C,SW2*%
X76000000Y-158625000D03*
D33*
X76000000Y-153825000D03*
X76000000Y-149025000D03*
%TD*%
D22*
%TO.C,J20*%
X91620000Y-124000000D03*
D23*
X89080000Y-124000000D03*
X86540000Y-124000000D03*
X84000000Y-124000000D03*
X81460000Y-124000000D03*
%TD*%
D34*
%TO.C,U4*%
X134300001Y-129049999D03*
X134300001Y-129700000D03*
X134300001Y-130349999D03*
X134300001Y-131000000D03*
D35*
X135642500Y-130025001D03*
X136095001Y-129050002D03*
X136095001Y-131000000D03*
X136547499Y-130025001D03*
X137000000Y-129050002D03*
X137000000Y-131000000D03*
D34*
X137399999Y-129050002D03*
X137399999Y-129700000D03*
X137399999Y-130350002D03*
X137399999Y-131000000D03*
D35*
X137452499Y-130025001D03*
%TD*%
D17*
%TO.C,J28*%
X128000000Y-138500000D03*
D18*
X128000000Y-131500000D03*
%TD*%
D19*
%TO.C,H13*%
X159000000Y-39000000D03*
%TD*%
D36*
%TO.C,C1*%
X79347349Y-164000000D03*
D29*
X82847349Y-164000000D03*
%TD*%
D37*
%TO.C,C16*%
X122500000Y-133600000D03*
D29*
X119000000Y-133600000D03*
%TD*%
D22*
%TO.C,J1*%
X127080000Y-109000000D03*
D23*
X124540000Y-109000000D03*
X122000000Y-109000000D03*
%TD*%
D19*
%TO.C,H2*%
X67700000Y-112100000D03*
%TD*%
D22*
%TO.C,J3*%
X118400000Y-107860000D03*
D23*
X118400000Y-110400000D03*
%TD*%
D22*
%TO.C,J29*%
X110020000Y-118150000D03*
D23*
X107480000Y-118150000D03*
%TD*%
D38*
%TO.C,C9*%
X80500000Y-37400000D03*
X80500000Y-41000000D03*
%TD*%
D21*
%TO.C,R3*%
X127875000Y-122600000D03*
X129525000Y-122600000D03*
%TD*%
D39*
%TO.C,C5*%
X137000000Y-127475000D03*
X137000000Y-124525000D03*
%TD*%
D40*
%TO.C,U3*%
X137100003Y-142205000D03*
X136450002Y-142205000D03*
X135800003Y-142205000D03*
X135150002Y-142205000D03*
D35*
X136125001Y-143547499D03*
X137100000Y-144000000D03*
X135150002Y-144000000D03*
X136125001Y-144452498D03*
X137100000Y-144904999D03*
X135150002Y-144904999D03*
D40*
X137100000Y-145304998D03*
X136450002Y-145304998D03*
X135800000Y-145304998D03*
X135150002Y-145304998D03*
D35*
X136125001Y-145357498D03*
%TD*%
D19*
%TO.C,H10*%
X116000000Y-102000000D03*
%TD*%
%TO.C,H5*%
X112000000Y-154500000D03*
%TD*%
D41*
%TO.C,J18*%
X103400000Y-125000000D03*
D42*
X105000000Y-123000000D03*
D43*
X107500000Y-123000000D03*
X110000000Y-123000000D03*
X112500000Y-123000000D03*
X115000000Y-123000000D03*
%TD*%
D12*
%TO.C,U1*%
X141000000Y-136000000D03*
X141990600Y-136000000D03*
X142981200Y-136000000D03*
X143971800Y-136000000D03*
X144962400Y-136000000D03*
X145953000Y-136000000D03*
X146943600Y-136000000D03*
X147934200Y-136000000D03*
X148924800Y-136000000D03*
X149915400Y-136000000D03*
X150906000Y-136000000D03*
X151896600Y-136000000D03*
X152887200Y-136000000D03*
X153877800Y-136000000D03*
X154868400Y-136000000D03*
X154868400Y-117991400D03*
X153877800Y-117991400D03*
X152887200Y-117991400D03*
X151896600Y-117991400D03*
X150906000Y-117991400D03*
X149915400Y-117991400D03*
X148924800Y-117991400D03*
X147934200Y-117991400D03*
X146943600Y-117991400D03*
X145953000Y-117991400D03*
X144962400Y-117991400D03*
X143971800Y-117991400D03*
X142981200Y-117991400D03*
X141990600Y-117991400D03*
X141000000Y-117991400D03*
D13*
X143861600Y-124018000D03*
X152006836Y-124018000D03*
D14*
X147934200Y-129973342D03*
%TD*%
D19*
%TO.C,H8*%
X106700000Y-47100000D03*
%TD*%
D15*
%TO.C,J13*%
X129000000Y-167000000D03*
D16*
X127000000Y-167000000D03*
X125000000Y-167000000D03*
X123000000Y-167000000D03*
X121000000Y-167000000D03*
X119000000Y-167000000D03*
%TD*%
D19*
%TO.C,H4*%
X112000000Y-131500000D03*
%TD*%
D44*
%TO.C,J31*%
X68000000Y-153825000D03*
D45*
X68000000Y-158825000D03*
%TD*%
D22*
%TO.C,J30*%
X76000000Y-40000000D03*
D23*
X73460000Y-40000000D03*
%TD*%
D19*
%TO.C,H11*%
X153000000Y-102000000D03*
%TD*%
D36*
%TO.C,C7*%
X96000000Y-121000000D03*
D29*
X99500000Y-121000000D03*
%TD*%
D22*
%TO.C,J24*%
X134000000Y-162920000D03*
D23*
X134000000Y-165460000D03*
X134000000Y-168000000D03*
%TD*%
D30*
%TO.C,D2*%
X129600000Y-125687500D03*
X129600000Y-124112500D03*
%TD*%
D19*
%TO.C,H3*%
X123000000Y-160000000D03*
%TD*%
D28*
%TO.C,TP4*%
X88000000Y-42000000D03*
%TD*%
D22*
%TO.C,J27*%
X73960000Y-118500000D03*
D23*
X76500000Y-118500000D03*
X79040000Y-118500000D03*
%TD*%
D46*
%TO.C,J32*%
X77000000Y-137000000D03*
D18*
X77000000Y-144000000D03*
%TD*%
D28*
%TO.C,TP1*%
X132500000Y-37500000D03*
%TD*%
D30*
%TO.C,D1*%
X128000000Y-125700000D03*
X128000000Y-124125000D03*
%TD*%
D47*
%TO.C,C2*%
X112900000Y-117875000D03*
X112900000Y-116325000D03*
%TD*%
D15*
%TO.C,J17*%
X99000000Y-167000000D03*
D16*
X97000000Y-167000000D03*
X95000000Y-167000000D03*
X93000000Y-167000000D03*
X91000000Y-167000000D03*
X89000000Y-167000000D03*
%TD*%
M02*
