%TF.GenerationSoftware,KiCad,Pcbnew,9.0.6*%
%TF.CreationDate,2026-04-13T16:26:14+02:00*%
%TF.ProjectId,Microver2026_Modular_Final,4d696372-6f76-4657-9232-3032365f4d6f,rev?*%
%TF.SameCoordinates,Original*%
%TF.FileFunction,Soldermask,Bot*%
%TF.FilePolarity,Negative*%
%FSLAX46Y46*%
G04 Gerber Fmt 4.6, Leading zero omitted, Abs format (unit mm)*
G04 Created by KiCad (PCBNEW 9.0.6) date 2026-04-13 16:26:14*
%MOMM*%
%LPD*%
G01*
G04 APERTURE LIST*
G04 Aperture macros list*
%AMRoundRect*
0 Rectangle with rounded corners*
0 $1 Rounding radius*
0 $2 $3 $4 $5 $6 $7 $8 $9 X,Y pos of 4 corners*
0 Add a 4 corners polygon primitive as box body*
4,1,4,$2,$3,$4,$5,$6,$7,$8,$9,$2,$3,0*
0 Add four circle primitives for the rounded corners*
1,1,$1+$1,$2,$3*
1,1,$1+$1,$4,$5*
1,1,$1+$1,$6,$7*
1,1,$1+$1,$8,$9*
0 Add four rect primitives between the rounded corners*
20,1,$1+$1,$2,$3,$4,$5,0*
20,1,$1+$1,$4,$5,$6,$7,0*
20,1,$1+$1,$6,$7,$8,$9,0*
20,1,$1+$1,$8,$9,$2,$3,0*%
G04 Aperture macros list end*
%ADD10C,2.057400*%
%ADD11RoundRect,0.250000X0.350000X0.625000X-0.350000X0.625000X-0.350000X-0.625000X0.350000X-0.625000X0*%
%ADD12O,1.200000X1.750000*%
%ADD13RoundRect,0.250002X1.499998X-1.499998X1.499998X1.499998X-1.499998X1.499998X-1.499998X-1.499998X0*%
%ADD14C,3.500000*%
%ADD15C,3.200000*%
%ADD16C,2.200000*%
%ADD17R,1.700000X1.700000*%
%ADD18C,1.700000*%
%ADD19C,1.600000*%
%ADD20RoundRect,0.250000X0.550000X-0.550000X0.550000X0.550000X-0.550000X0.550000X-0.550000X-0.550000X0*%
%ADD21RoundRect,0.250001X0.899999X-0.899999X0.899999X0.899999X-0.899999X0.899999X-0.899999X-0.899999X0*%
%ADD22C,2.300000*%
%ADD23C,0.499999*%
%ADD24RoundRect,0.250000X-0.550000X-0.550000X0.550000X-0.550000X0.550000X0.550000X-0.550000X0.550000X0*%
%ADD25RoundRect,0.250000X0.550000X0.550000X-0.550000X0.550000X-0.550000X-0.550000X0.550000X-0.550000X0*%
%ADD26C,1.200000*%
%ADD27RoundRect,0.250000X-0.600000X-0.725000X0.600000X-0.725000X0.600000X0.725000X-0.600000X0.725000X0*%
%ADD28O,1.700000X1.950000*%
%ADD29RoundRect,0.250001X-1.149999X1.149999X-1.149999X-1.149999X1.149999X-1.149999X1.149999X1.149999X0*%
%ADD30C,2.800000*%
%ADD31RoundRect,0.250002X-1.499998X1.499998X-1.499998X-1.499998X1.499998X-1.499998X1.499998X1.499998X0*%
G04 APERTURE END LIST*
D10*
%TO.C,SW1*%
X129400000Y-115900000D03*
X124701000Y-115900000D03*
X120002000Y-115900000D03*
%TD*%
D11*
%TO.C,J16*%
X114000000Y-167000000D03*
D12*
X112000000Y-167000000D03*
X110000000Y-167000000D03*
X108000000Y-167000000D03*
X106000000Y-167000000D03*
X104000000Y-167000000D03*
%TD*%
D13*
%TO.C,J19*%
X128000000Y-154500000D03*
D14*
X128000000Y-147500000D03*
%TD*%
D15*
%TO.C,H6*%
X106700000Y-112100000D03*
%TD*%
D16*
%TO.C,TH1*%
X77000000Y-122000000D03*
X77000000Y-132000000D03*
%TD*%
D15*
%TO.C,H9*%
X116000000Y-48000000D03*
%TD*%
D17*
%TO.C,J2*%
X113810000Y-107860000D03*
D18*
X113810000Y-110400000D03*
%TD*%
D17*
%TO.C,J15*%
X161540000Y-165710000D03*
D18*
X161540000Y-168250000D03*
X159000000Y-165710000D03*
X159000000Y-168250000D03*
X156460000Y-165710000D03*
X156460000Y-168250000D03*
X153920000Y-165710000D03*
X153920000Y-168250000D03*
X151380000Y-165710000D03*
X151380000Y-168250000D03*
X148840000Y-165710000D03*
X148840000Y-168250000D03*
X146300000Y-165710000D03*
X146300000Y-168250000D03*
X143760000Y-165710000D03*
X143760000Y-168250000D03*
X141220000Y-165710000D03*
X141220000Y-168250000D03*
X138680000Y-165710000D03*
X138680000Y-168250000D03*
%TD*%
D17*
%TO.C,J14*%
X161540000Y-109830000D03*
D18*
X161540000Y-112370000D03*
X159000000Y-109830000D03*
X159000000Y-112370000D03*
X156460000Y-109830000D03*
X156460000Y-112370000D03*
X153920000Y-109830000D03*
X153920000Y-112370000D03*
X151380000Y-109830000D03*
X151380000Y-112370000D03*
X148840000Y-109830000D03*
X148840000Y-112370000D03*
X146300000Y-109830000D03*
X146300000Y-112370000D03*
X143760000Y-109830000D03*
X143760000Y-112370000D03*
X141220000Y-109830000D03*
X141220000Y-112370000D03*
X138680000Y-109830000D03*
X138680000Y-112370000D03*
%TD*%
D11*
%TO.C,J10*%
X126000000Y-38500000D03*
D12*
X124000000Y-38500000D03*
X122000000Y-38500000D03*
X120000000Y-38500000D03*
X118000000Y-38500000D03*
X116000000Y-38500000D03*
%TD*%
D15*
%TO.C,H12*%
X67000000Y-39000000D03*
%TD*%
D11*
%TO.C,J11*%
X111000000Y-38500000D03*
D12*
X109000000Y-38500000D03*
X107000000Y-38500000D03*
X105000000Y-38500000D03*
X103000000Y-38500000D03*
X101000000Y-38500000D03*
%TD*%
D15*
%TO.C,H14*%
X67000000Y-166000000D03*
%TD*%
D17*
%TO.C,J25*%
X150100000Y-36920000D03*
D18*
X150100000Y-39460000D03*
X150100000Y-42000000D03*
%TD*%
D19*
%TO.C,F1*%
X68300000Y-146900000D03*
X68300000Y-124400000D03*
%TD*%
D17*
%TO.C,J26*%
X65220000Y-118700000D03*
D18*
X67760000Y-118700000D03*
X70300000Y-118700000D03*
%TD*%
D20*
%TO.C,C3*%
X123000000Y-126652651D03*
D19*
X123000000Y-123152651D03*
%TD*%
D11*
%TO.C,J12*%
X96000000Y-38500000D03*
D12*
X94000000Y-38500000D03*
X92000000Y-38500000D03*
X90000000Y-38500000D03*
X88000000Y-38500000D03*
X86000000Y-38500000D03*
%TD*%
D21*
%TO.C,SW2*%
X76000000Y-158625000D03*
D22*
X76000000Y-153825000D03*
X76000000Y-149025000D03*
%TD*%
D17*
%TO.C,J20*%
X91620000Y-124000000D03*
D18*
X89080000Y-124000000D03*
X86540000Y-124000000D03*
X84000000Y-124000000D03*
X81460000Y-124000000D03*
%TD*%
D23*
%TO.C,U4*%
X135642500Y-130025001D03*
X136095001Y-129050002D03*
X136095001Y-131000000D03*
X136547499Y-130025001D03*
X137000000Y-129050002D03*
X137000000Y-131000000D03*
X137452499Y-130025001D03*
%TD*%
D13*
%TO.C,J28*%
X128000000Y-138500000D03*
D14*
X128000000Y-131500000D03*
%TD*%
D15*
%TO.C,H13*%
X159000000Y-39000000D03*
%TD*%
D24*
%TO.C,C1*%
X79347349Y-164000000D03*
D19*
X82847349Y-164000000D03*
%TD*%
D25*
%TO.C,C16*%
X122500000Y-133600000D03*
D19*
X119000000Y-133600000D03*
%TD*%
D17*
%TO.C,J1*%
X127080000Y-109000000D03*
D18*
X124540000Y-109000000D03*
X122000000Y-109000000D03*
%TD*%
D15*
%TO.C,H2*%
X67700000Y-112100000D03*
%TD*%
D17*
%TO.C,J3*%
X118400000Y-107860000D03*
D18*
X118400000Y-110400000D03*
%TD*%
D17*
%TO.C,J29*%
X110020000Y-118150000D03*
D18*
X107480000Y-118150000D03*
%TD*%
D23*
%TO.C,U3*%
X136125001Y-143547499D03*
X137100000Y-144000000D03*
X135150002Y-144000000D03*
X136125001Y-144452498D03*
X137100000Y-144904999D03*
X135150002Y-144904999D03*
X136125001Y-145357498D03*
%TD*%
D15*
%TO.C,H10*%
X116000000Y-102000000D03*
%TD*%
%TO.C,H5*%
X112000000Y-154500000D03*
%TD*%
D26*
%TO.C,J18*%
X103400000Y-125000000D03*
D27*
X105000000Y-123000000D03*
D28*
X107500000Y-123000000D03*
X110000000Y-123000000D03*
X112500000Y-123000000D03*
X115000000Y-123000000D03*
%TD*%
D15*
%TO.C,H8*%
X106700000Y-47100000D03*
%TD*%
D11*
%TO.C,J13*%
X129000000Y-167000000D03*
D12*
X127000000Y-167000000D03*
X125000000Y-167000000D03*
X123000000Y-167000000D03*
X121000000Y-167000000D03*
X119000000Y-167000000D03*
%TD*%
D15*
%TO.C,H4*%
X112000000Y-131500000D03*
%TD*%
D29*
%TO.C,J31*%
X68000000Y-153825000D03*
D30*
X68000000Y-158825000D03*
%TD*%
D17*
%TO.C,J30*%
X76000000Y-40000000D03*
D18*
X73460000Y-40000000D03*
%TD*%
D15*
%TO.C,H11*%
X153000000Y-102000000D03*
%TD*%
D24*
%TO.C,C7*%
X96000000Y-121000000D03*
D19*
X99500000Y-121000000D03*
%TD*%
D17*
%TO.C,J24*%
X134000000Y-162920000D03*
D18*
X134000000Y-165460000D03*
X134000000Y-168000000D03*
%TD*%
D15*
%TO.C,H3*%
X123000000Y-160000000D03*
%TD*%
D17*
%TO.C,J27*%
X73960000Y-118500000D03*
D18*
X76500000Y-118500000D03*
X79040000Y-118500000D03*
%TD*%
D31*
%TO.C,J32*%
X77000000Y-137000000D03*
D14*
X77000000Y-144000000D03*
%TD*%
D11*
%TO.C,J17*%
X99000000Y-167000000D03*
D12*
X97000000Y-167000000D03*
X95000000Y-167000000D03*
X93000000Y-167000000D03*
X91000000Y-167000000D03*
X89000000Y-167000000D03*
%TD*%
M02*
