%TF.GenerationSoftware,KiCad,Pcbnew,9.0.6*%
%TF.CreationDate,2026-03-18T14:56:14+08:00*%
%TF.ProjectId,Microver2026_STM32_Control,4d696372-6f76-4657-9232-3032365f5354,A*%
%TF.SameCoordinates,Original*%
%TF.FileFunction,Soldermask,Top*%
%TF.FilePolarity,Negative*%
%FSLAX46Y46*%
G04 Gerber Fmt 4.6, Leading zero omitted, Abs format (unit mm)*
G04 Created by KiCad (PCBNEW 9.0.6) date 2026-03-18 14:56:14*
%MOMM*%
%LPD*%
G01*
G04 APERTURE LIST*
G04 Aperture macros list*
%AMRoundRect*
0 Rectangle with rounded corners*
0 $1 Rounding radius*
0 $2 $3 $4 $5 $6 $7 $8 $9 X,Y pos of 4 corners*
0 Add a 4 corners polygon primitive as box body*
4,1,4,$2,$3,$4,$5,$6,$7,$8,$9,$2,$3,0*
0 Add four circle primitives for the rounded corners*
1,1,$1+$1,$2,$3*
1,1,$1+$1,$4,$5*
1,1,$1+$1,$6,$7*
1,1,$1+$1,$8,$9*
0 Add four rect primitives between the rounded corners*
20,1,$1+$1,$2,$3,$4,$5,0*
20,1,$1+$1,$4,$5,$6,$7,0*
20,1,$1+$1,$6,$7,$8,$9,0*
20,1,$1+$1,$8,$9,$2,$3,0*%
G04 Aperture macros list end*
%ADD10RoundRect,0.200000X0.275000X-0.200000X0.275000X0.200000X-0.275000X0.200000X-0.275000X-0.200000X0*%
%ADD11RoundRect,0.200000X0.200000X0.275000X-0.200000X0.275000X-0.200000X-0.275000X0.200000X-0.275000X0*%
%ADD12R,1.000000X1.000000*%
%ADD13RoundRect,0.225000X-0.225000X-0.250000X0.225000X-0.250000X0.225000X0.250000X-0.225000X0.250000X0*%
%ADD14RoundRect,0.200000X-0.275000X0.200000X-0.275000X-0.200000X0.275000X-0.200000X0.275000X0.200000X0*%
%ADD15R,1.700000X1.700000*%
%ADD16C,1.700000*%
%ADD17RoundRect,0.200000X-0.200000X-0.275000X0.200000X-0.275000X0.200000X0.275000X-0.200000X0.275000X0*%
%ADD18RoundRect,0.225000X-0.250000X0.225000X-0.250000X-0.225000X0.250000X-0.225000X0.250000X0.225000X0*%
%ADD19RoundRect,0.225000X0.250000X-0.225000X0.250000X0.225000X-0.250000X0.225000X-0.250000X-0.225000X0*%
%ADD20RoundRect,0.150000X-0.512500X-0.150000X0.512500X-0.150000X0.512500X0.150000X-0.512500X0.150000X0*%
%ADD21R,0.304800X1.193800*%
%ADD22R,1.193800X0.304800*%
%ADD23C,2.374900*%
%ADD24C,0.990600*%
%ADD25C,0.787400*%
G04 APERTURE END LIST*
D10*
%TO.C,R25*%
X209700000Y-94755000D03*
X209700000Y-93105000D03*
%TD*%
D11*
%TO.C,R27*%
X225225000Y-111180000D03*
X223575000Y-111180000D03*
%TD*%
%TO.C,R18*%
X225250000Y-103180000D03*
X223600000Y-103180000D03*
%TD*%
%TO.C,R10*%
X223350000Y-100180000D03*
X221700000Y-100180000D03*
%TD*%
D12*
%TO.C,TP2*%
X222500000Y-113600000D03*
%TD*%
D13*
%TO.C,C11*%
X223725000Y-101680000D03*
X225275000Y-101680000D03*
%TD*%
D14*
%TO.C,R16*%
X216000000Y-93130000D03*
X216000000Y-94780000D03*
%TD*%
D15*
%TO.C,J14*%
X183180000Y-92300000D03*
D16*
X185720000Y-92300000D03*
X183180000Y-94840000D03*
X185720000Y-94840000D03*
X183180000Y-97380000D03*
X185720000Y-97380000D03*
X183180000Y-99920000D03*
X185720000Y-99920000D03*
X183180000Y-102460000D03*
X185720000Y-102460000D03*
X183180000Y-105000000D03*
X185720000Y-105000000D03*
X183180000Y-107540000D03*
X185720000Y-107540000D03*
X183180000Y-110080000D03*
X185720000Y-110080000D03*
X183180000Y-112620000D03*
X185720000Y-112620000D03*
X183180000Y-115160000D03*
X185720000Y-115160000D03*
%TD*%
D17*
%TO.C,R8*%
X203375000Y-108500000D03*
X205025000Y-108500000D03*
%TD*%
D11*
%TO.C,FB1*%
X220825000Y-112280000D03*
X219175000Y-112280000D03*
%TD*%
D17*
%TO.C,R33*%
X226675000Y-106880000D03*
X228325000Y-106880000D03*
%TD*%
%TO.C,R26*%
X210444000Y-91600000D03*
X212094000Y-91600000D03*
%TD*%
D10*
%TO.C,R21*%
X214450000Y-94725000D03*
X214450000Y-93075000D03*
%TD*%
%TO.C,R20*%
X208200000Y-94805000D03*
X208200000Y-93155000D03*
%TD*%
D17*
%TO.C,R7*%
X203200000Y-106800000D03*
X204850000Y-106800000D03*
%TD*%
D12*
%TO.C,TP5*%
X221400000Y-94600000D03*
%TD*%
%TO.C,TP6*%
X224900000Y-98100000D03*
%TD*%
D17*
%TO.C,R24*%
X200200000Y-106880000D03*
X201850000Y-106880000D03*
%TD*%
D12*
%TO.C,TP7*%
X224300000Y-94600000D03*
%TD*%
D14*
%TO.C,R28*%
X216200000Y-113255000D03*
X216200000Y-114905000D03*
%TD*%
D11*
%TO.C,R12*%
X225325000Y-108080000D03*
X223675000Y-108080000D03*
%TD*%
D18*
%TO.C,C1*%
X210350000Y-113225000D03*
X210350000Y-114775000D03*
%TD*%
D19*
%TO.C,C8*%
X208000000Y-97855000D03*
X208000000Y-96305000D03*
%TD*%
%TO.C,C2*%
X196300000Y-93550000D03*
X196300000Y-92000000D03*
%TD*%
D11*
%TO.C,R13*%
X205025000Y-102550000D03*
X203375000Y-102550000D03*
%TD*%
D15*
%TO.C,J1*%
X230900000Y-103425000D03*
D16*
X230900000Y-105965000D03*
%TD*%
D14*
%TO.C,R31*%
X217500000Y-93155000D03*
X217500000Y-94805000D03*
%TD*%
%TO.C,R9*%
X213500000Y-96225000D03*
X213500000Y-97875000D03*
%TD*%
D10*
%TO.C,R14*%
X215450000Y-97905000D03*
X215450000Y-96255000D03*
%TD*%
D13*
%TO.C,C10*%
X220500000Y-103700000D03*
X222050000Y-103700000D03*
%TD*%
D20*
%TO.C,U2*%
X198462500Y-92850000D03*
X198462500Y-93800000D03*
X198462500Y-94750000D03*
X200737500Y-94750000D03*
X200737500Y-92850000D03*
%TD*%
D10*
%TO.C,R17*%
X211200000Y-94755000D03*
X211200000Y-93105000D03*
%TD*%
D18*
%TO.C,C5*%
X205000000Y-110580000D03*
X205000000Y-112130000D03*
%TD*%
D17*
%TO.C,R19*%
X200100000Y-105380000D03*
X201750000Y-105380000D03*
%TD*%
D13*
%TO.C,C13*%
X220450000Y-107480000D03*
X222000000Y-107480000D03*
%TD*%
D12*
%TO.C,TP3*%
X206000000Y-98200000D03*
%TD*%
D14*
%TO.C,R23*%
X212850000Y-93075000D03*
X212850000Y-94725000D03*
%TD*%
D17*
%TO.C,R1*%
X223675000Y-106200000D03*
X225325000Y-106200000D03*
%TD*%
D13*
%TO.C,C9*%
X220475000Y-102200000D03*
X222025000Y-102200000D03*
%TD*%
D12*
%TO.C,TP8*%
X228400000Y-94500000D03*
%TD*%
D18*
%TO.C,C4*%
X206500000Y-110580000D03*
X206500000Y-112130000D03*
%TD*%
D17*
%TO.C,R11*%
X200275000Y-108380000D03*
X201925000Y-108380000D03*
%TD*%
%TO.C,R15*%
X200175000Y-103880000D03*
X201825000Y-103880000D03*
%TD*%
D12*
%TO.C,TP15*%
X189100000Y-102200000D03*
%TD*%
%TO.C,TP12*%
X202300000Y-97200000D03*
%TD*%
D14*
%TO.C,R29*%
X217300000Y-96330000D03*
X217300000Y-97980000D03*
%TD*%
D21*
%TO.C,U1*%
X208850000Y-111329999D03*
X209349999Y-111329999D03*
X209850000Y-111329999D03*
X210349999Y-111329999D03*
X210850001Y-111329999D03*
X211350000Y-111329999D03*
X211849999Y-111329999D03*
X212350000Y-111329999D03*
X212850000Y-111329999D03*
X213350001Y-111329999D03*
X213850000Y-111329999D03*
X214349999Y-111329999D03*
X214850001Y-111329999D03*
X215350000Y-111329999D03*
X215850001Y-111329999D03*
X216350000Y-111329999D03*
D22*
X218349999Y-109330000D03*
X218349999Y-108830001D03*
X218349999Y-108330000D03*
X218349999Y-107830001D03*
X218349999Y-107329999D03*
X218349999Y-106830000D03*
X218349999Y-106330001D03*
X218349999Y-105830000D03*
X218349999Y-105330000D03*
X218349999Y-104829999D03*
X218349999Y-104330000D03*
X218349999Y-103830001D03*
X218349999Y-103329999D03*
X218349999Y-102830000D03*
X218349999Y-102329999D03*
X218349999Y-101830000D03*
D21*
X216350000Y-99830001D03*
X215850001Y-99830001D03*
X215350000Y-99830001D03*
X214850001Y-99830001D03*
X214349999Y-99830001D03*
X213850000Y-99830001D03*
X213350001Y-99830001D03*
X212850000Y-99830001D03*
X212350000Y-99830001D03*
X211849999Y-99830001D03*
X211350000Y-99830001D03*
X210850001Y-99830001D03*
X210349999Y-99830001D03*
X209850000Y-99830001D03*
X209349999Y-99830001D03*
X208850000Y-99830001D03*
D22*
X206850001Y-101830000D03*
X206850001Y-102329999D03*
X206850001Y-102830000D03*
X206850001Y-103329999D03*
X206850001Y-103830001D03*
X206850001Y-104330000D03*
X206850001Y-104829999D03*
X206850001Y-105330000D03*
X206850001Y-105830000D03*
X206850001Y-106330001D03*
X206850001Y-106830000D03*
X206850001Y-107329999D03*
X206850001Y-107830001D03*
X206850001Y-108330000D03*
X206850001Y-108830001D03*
X206850001Y-109330000D03*
%TD*%
D19*
%TO.C,C7*%
X220300000Y-100455000D03*
X220300000Y-98905000D03*
%TD*%
D13*
%TO.C,C14*%
X220450000Y-108980000D03*
X222000000Y-108980000D03*
%TD*%
%TO.C,C12*%
X220725000Y-105580000D03*
X222275000Y-105580000D03*
%TD*%
D10*
%TO.C,R4*%
X214700000Y-114930000D03*
X214700000Y-113280000D03*
%TD*%
D19*
%TO.C,C6*%
X218800000Y-100455000D03*
X218800000Y-98905000D03*
%TD*%
D11*
%TO.C,R5*%
X205000000Y-105180000D03*
X203350000Y-105180000D03*
%TD*%
D10*
%TO.C,R3*%
X213200000Y-114905000D03*
X213200000Y-113255000D03*
%TD*%
D14*
%TO.C,R22*%
X211670000Y-96255000D03*
X211670000Y-97905000D03*
%TD*%
D18*
%TO.C,C3*%
X217700000Y-111605000D03*
X217700000Y-113155000D03*
%TD*%
D10*
%TO.C,R6*%
X210170000Y-97905000D03*
X210170000Y-96255000D03*
%TD*%
D12*
%TO.C,TP4*%
X221000000Y-97200000D03*
%TD*%
%TO.C,TP1*%
X194300000Y-91900000D03*
%TD*%
D17*
%TO.C,R30*%
X220375000Y-110580000D03*
X222025000Y-110580000D03*
%TD*%
D23*
%TO.C,J2*%
X197600000Y-102625000D03*
D24*
X195060000Y-102625000D03*
D23*
X192520000Y-102625000D03*
X197600000Y-105800000D03*
X192520000Y-105800000D03*
D24*
X196076000Y-107705000D03*
X194044000Y-107705000D03*
D25*
X194425000Y-103895000D03*
X195695000Y-103895000D03*
X194425000Y-105165000D03*
X195695000Y-105165000D03*
X194425000Y-106435000D03*
X195695000Y-106435000D03*
%TD*%
D17*
%TO.C,R32*%
X223675000Y-109580000D03*
X225325000Y-109580000D03*
%TD*%
D15*
%TO.C,J15*%
X239060000Y-92300000D03*
D16*
X241600000Y-92300000D03*
X239060000Y-94840000D03*
X241600000Y-94840000D03*
X239060000Y-97380000D03*
X241600000Y-97380000D03*
X239060000Y-99920000D03*
X241600000Y-99920000D03*
X239060000Y-102460000D03*
X241600000Y-102460000D03*
X239060000Y-105000000D03*
X241600000Y-105000000D03*
X239060000Y-107540000D03*
X241600000Y-107540000D03*
X239060000Y-110080000D03*
X241600000Y-110080000D03*
X239060000Y-112620000D03*
X241600000Y-112620000D03*
X239060000Y-115160000D03*
X241600000Y-115160000D03*
%TD*%
D17*
%TO.C,R2*%
X223650000Y-104700000D03*
X225300000Y-104700000D03*
%TD*%
M02*
