%TF.GenerationSoftware,KiCad,Pcbnew,9.0.6*%
%TF.CreationDate,2026-03-18T14:56:14+08:00*%
%TF.ProjectId,Microver2026_STM32_Control,4d696372-6f76-4657-9232-3032365f5354,A*%
%TF.SameCoordinates,Original*%
%TF.FileFunction,Copper,L1,Top*%
%TF.FilePolarity,Positive*%
%FSLAX46Y46*%
G04 Gerber Fmt 4.6, Leading zero omitted, Abs format (unit mm)*
G04 Created by KiCad (PCBNEW 9.0.6) date 2026-03-18 14:56:14*
%MOMM*%
%LPD*%
G01*
G04 APERTURE LIST*
G04 Aperture macros list*
%AMRoundRect*
0 Rectangle with rounded corners*
0 $1 Rounding radius*
0 $2 $3 $4 $5 $6 $7 $8 $9 X,Y pos of 4 corners*
0 Add a 4 corners polygon primitive as box body*
4,1,4,$2,$3,$4,$5,$6,$7,$8,$9,$2,$3,0*
0 Add four circle primitives for the rounded corners*
1,1,$1+$1,$2,$3*
1,1,$1+$1,$4,$5*
1,1,$1+$1,$6,$7*
1,1,$1+$1,$8,$9*
0 Add four rect primitives between the rounded corners*
20,1,$1+$1,$2,$3,$4,$5,0*
20,1,$1+$1,$4,$5,$6,$7,0*
20,1,$1+$1,$6,$7,$8,$9,0*
20,1,$1+$1,$8,$9,$2,$3,0*%
G04 Aperture macros list end*
%TA.AperFunction,SMDPad,CuDef*%
%ADD10RoundRect,0.200000X0.275000X-0.200000X0.275000X0.200000X-0.275000X0.200000X-0.275000X-0.200000X0*%
%TD*%
%TA.AperFunction,SMDPad,CuDef*%
%ADD11RoundRect,0.200000X0.200000X0.275000X-0.200000X0.275000X-0.200000X-0.275000X0.200000X-0.275000X0*%
%TD*%
%TA.AperFunction,SMDPad,CuDef*%
%ADD12R,1.000000X1.000000*%
%TD*%
%TA.AperFunction,SMDPad,CuDef*%
%ADD13RoundRect,0.225000X-0.225000X-0.250000X0.225000X-0.250000X0.225000X0.250000X-0.225000X0.250000X0*%
%TD*%
%TA.AperFunction,SMDPad,CuDef*%
%ADD14RoundRect,0.200000X-0.275000X0.200000X-0.275000X-0.200000X0.275000X-0.200000X0.275000X0.200000X0*%
%TD*%
%TA.AperFunction,ComponentPad*%
%ADD15R,1.700000X1.700000*%
%TD*%
%TA.AperFunction,ComponentPad*%
%ADD16C,1.700000*%
%TD*%
%TA.AperFunction,SMDPad,CuDef*%
%ADD17RoundRect,0.200000X-0.200000X-0.275000X0.200000X-0.275000X0.200000X0.275000X-0.200000X0.275000X0*%
%TD*%
%TA.AperFunction,SMDPad,CuDef*%
%ADD18RoundRect,0.225000X-0.250000X0.225000X-0.250000X-0.225000X0.250000X-0.225000X0.250000X0.225000X0*%
%TD*%
%TA.AperFunction,SMDPad,CuDef*%
%ADD19RoundRect,0.225000X0.250000X-0.225000X0.250000X0.225000X-0.250000X0.225000X-0.250000X-0.225000X0*%
%TD*%
%TA.AperFunction,SMDPad,CuDef*%
%ADD20RoundRect,0.150000X-0.512500X-0.150000X0.512500X-0.150000X0.512500X0.150000X-0.512500X0.150000X0*%
%TD*%
%TA.AperFunction,SMDPad,CuDef*%
%ADD21R,0.304800X1.193800*%
%TD*%
%TA.AperFunction,SMDPad,CuDef*%
%ADD22R,1.193800X0.304800*%
%TD*%
%TA.AperFunction,ConnectorPad*%
%ADD23C,0.787400*%
%TD*%
%TA.AperFunction,ViaPad*%
%ADD24C,0.500000*%
%TD*%
%TA.AperFunction,ViaPad*%
%ADD25C,0.600000*%
%TD*%
%TA.AperFunction,Conductor*%
%ADD26C,0.200000*%
%TD*%
%TA.AperFunction,Conductor*%
%ADD27C,0.400000*%
%TD*%
G04 APERTURE END LIST*
D10*
%TO.P,R25,1*%
%TO.N,Net-(U1A-PA11)*%
X209700000Y-94755000D03*
%TO.P,R25,2*%
%TO.N,Net-(J15-Pin_5a)*%
X209700000Y-93105000D03*
%TD*%
D11*
%TO.P,R27,1*%
%TO.N,GND*%
X225225000Y-111180000D03*
%TO.P,R27,2*%
%TO.N,Net-(J15-Pin_6b)*%
X223575000Y-111180000D03*
%TD*%
%TO.P,R18,1*%
%TO.N,Net-(U1A-PB2)*%
X225250000Y-103180000D03*
%TO.P,R18,2*%
%TO.N,Net-(J15-Pin_1a)*%
X223600000Y-103180000D03*
%TD*%
%TO.P,R10,1*%
%TO.N,+3.3V*%
X223350000Y-100180000D03*
%TO.P,R10,2*%
%TO.N,Net-(J14-Pin_5b)*%
X221700000Y-100180000D03*
%TD*%
D12*
%TO.P,TP2,1,1*%
%TO.N,+3.3V*%
X222500000Y-113600000D03*
%TD*%
D13*
%TO.P,C11,1*%
%TO.N,Net-(U1B-VDDA)*%
X223725000Y-101680000D03*
%TO.P,C11,2*%
%TO.N,GND*%
X225275000Y-101680000D03*
%TD*%
D14*
%TO.P,R16,1*%
%TO.N,Net-(J14-Pin_8b)*%
X216000000Y-93130000D03*
%TO.P,R16,2*%
%TO.N,Net-(U1A-PB15)*%
X216000000Y-94780000D03*
%TD*%
D15*
%TO.P,J14,1,Pin_1a*%
%TO.N,Net-(J14-Pin_1a)*%
X183180000Y-92300000D03*
D16*
%TO.P,J14,2,Pin_1b*%
%TO.N,+5V*%
X185720000Y-92300000D03*
%TO.P,J14,3,Pin_2a*%
%TO.N,Net-(J14-Pin_2a)*%
X183180000Y-94840000D03*
%TO.P,J14,4,Pin_2b*%
%TO.N,GND*%
X185720000Y-94840000D03*
%TO.P,J14,5,Pin_3a*%
%TO.N,Net-(J14-Pin_3a)*%
X183180000Y-97380000D03*
%TO.P,J14,6,Pin_3b*%
%TO.N,Net-(J14-Pin_3b)*%
X185720000Y-97380000D03*
%TO.P,J14,7,Pin_4a*%
%TO.N,Net-(J14-Pin_4a)*%
X183180000Y-99920000D03*
%TO.P,J14,8,Pin_4b*%
%TO.N,Net-(J14-Pin_4b)*%
X185720000Y-99920000D03*
%TO.P,J14,9,Pin_5a*%
%TO.N,Net-(J14-Pin_5a)*%
X183180000Y-102460000D03*
%TO.P,J14,10,Pin_5b*%
%TO.N,Net-(J14-Pin_5b)*%
X185720000Y-102460000D03*
%TO.P,J14,11,Pin_6a*%
%TO.N,Net-(J14-Pin_6a)*%
X183180000Y-105000000D03*
%TO.P,J14,12,Pin_6b*%
%TO.N,Net-(J14-Pin_6b)*%
X185720000Y-105000000D03*
%TO.P,J14,13,Pin_7a*%
%TO.N,Net-(J14-Pin_7a)*%
X183180000Y-107540000D03*
%TO.P,J14,14,Pin_7b*%
%TO.N,Net-(J14-Pin_7b)*%
X185720000Y-107540000D03*
%TO.P,J14,15,Pin_8a*%
%TO.N,Net-(J14-Pin_8a)*%
X183180000Y-110080000D03*
%TO.P,J14,16,Pin_8b*%
%TO.N,Net-(J14-Pin_8b)*%
X185720000Y-110080000D03*
%TO.P,J14,17,Pin_9a*%
%TO.N,Net-(J14-Pin_9a)*%
X183180000Y-112620000D03*
%TO.P,J14,18,Pin_9b*%
%TO.N,/PC2*%
X185720000Y-112620000D03*
%TO.P,J14,19,Pin_10a*%
%TO.N,/PC0*%
X183180000Y-115160000D03*
%TO.P,J14,20,Pin_10b*%
%TO.N,/PC1*%
X185720000Y-115160000D03*
%TD*%
D17*
%TO.P,R8,1*%
%TO.N,Net-(J14-Pin_5a)*%
X203375000Y-108500000D03*
%TO.P,R8,2*%
%TO.N,Net-(U1A-PB6)*%
X205025000Y-108500000D03*
%TD*%
D11*
%TO.P,FB1,1*%
%TO.N,+3.3V*%
X220825000Y-112280000D03*
%TO.P,FB1,2*%
%TO.N,Net-(U1B-VDDA)*%
X219175000Y-112280000D03*
%TD*%
D17*
%TO.P,R33,1*%
%TO.N,Net-(U1A-PA7)*%
X226675000Y-106880000D03*
%TO.P,R33,2*%
%TO.N,Net-(J15-Pin_10a)*%
X228325000Y-106880000D03*
%TD*%
%TO.P,R26,1*%
%TO.N,+3.3V*%
X210444000Y-91600000D03*
%TO.P,R26,2*%
%TO.N,Net-(J15-Pin_5b)*%
X212094000Y-91600000D03*
%TD*%
D10*
%TO.P,R21,1*%
%TO.N,Net-(U1A-PC6)*%
X214450000Y-94725000D03*
%TO.P,R21,2*%
%TO.N,Net-(J15-Pin_3a)*%
X214450000Y-93075000D03*
%TD*%
%TO.P,R20,1*%
%TO.N,Net-(U1A-PA12)*%
X208200000Y-94805000D03*
%TO.P,R20,2*%
%TO.N,Net-(J15-Pin_6a)*%
X208200000Y-93155000D03*
%TD*%
D17*
%TO.P,R7,1*%
%TO.N,Net-(J14-Pin_4a)*%
X203200000Y-106800000D03*
%TO.P,R7,2*%
%TO.N,Net-(U1A-PB5)*%
X204850000Y-106800000D03*
%TD*%
D12*
%TO.P,TP5,1,1*%
%TO.N,Net-(U1A-PB13)*%
X221400000Y-94600000D03*
%TD*%
%TO.P,TP6,1,1*%
%TO.N,Net-(U1A-PB14)*%
X224900000Y-98100000D03*
%TD*%
D17*
%TO.P,R24,1*%
%TO.N,+3.3V*%
X200200000Y-106880000D03*
%TO.P,R24,2*%
%TO.N,Net-(J15-Pin_4b)*%
X201850000Y-106880000D03*
%TD*%
D12*
%TO.P,TP7,1,1*%
%TO.N,Net-(J15-Pin_3b)*%
X224300000Y-94600000D03*
%TD*%
D14*
%TO.P,R28,1*%
%TO.N,Net-(U1A-PA2)*%
X216200000Y-113255000D03*
%TO.P,R28,2*%
%TO.N,Net-(J15-Pin_7a)*%
X216200000Y-114905000D03*
%TD*%
D11*
%TO.P,R12,1*%
%TO.N,GND*%
X225325000Y-108080000D03*
%TO.P,R12,2*%
%TO.N,Net-(J14-Pin_6b)*%
X223675000Y-108080000D03*
%TD*%
D18*
%TO.P,C1,1*%
%TO.N,Net-(J2-~{RESET})*%
X210350000Y-113225000D03*
%TO.P,C1,2*%
%TO.N,GND*%
X210350000Y-114775000D03*
%TD*%
D19*
%TO.P,C8,1*%
%TO.N,+3.3V*%
X208000000Y-97855000D03*
%TO.P,C8,2*%
%TO.N,GND*%
X208000000Y-96305000D03*
%TD*%
%TO.P,C2,1*%
%TO.N,+5V*%
X196300000Y-93550000D03*
%TO.P,C2,2*%
%TO.N,GND*%
X196300000Y-92000000D03*
%TD*%
D11*
%TO.P,R13,1*%
%TO.N,Net-(J14-Pin_7a)*%
X205025000Y-102550000D03*
%TO.P,R13,2*%
%TO.N,GND*%
X203375000Y-102550000D03*
%TD*%
D15*
%TO.P,J1,1,Pin_1*%
%TO.N,Net-(J1-Pin_1)*%
X230900000Y-103425000D03*
D16*
%TO.P,J1,2,Pin_2*%
%TO.N,Net-(J1-Pin_2)*%
X230900000Y-105965000D03*
%TD*%
D14*
%TO.P,R31,1*%
%TO.N,Net-(J15-Pin_8b)*%
X217500000Y-93155000D03*
%TO.P,R31,2*%
%TO.N,Net-(U1A-PB13)*%
X217500000Y-94805000D03*
%TD*%
%TO.P,R9,1*%
%TO.N,+3.3V*%
X213500000Y-96225000D03*
%TO.P,R9,2*%
%TO.N,Net-(J14-Pin_4b)*%
X213500000Y-97875000D03*
%TD*%
D10*
%TO.P,R14,1*%
%TO.N,Net-(U1A-PB14)*%
X215450000Y-97905000D03*
%TO.P,R14,2*%
%TO.N,Net-(J14-Pin_7b)*%
X215450000Y-96255000D03*
%TD*%
D13*
%TO.P,C10,1*%
%TO.N,Net-(U1B-VDDA)*%
X220500000Y-103700000D03*
%TO.P,C10,2*%
%TO.N,GND*%
X222050000Y-103700000D03*
%TD*%
D20*
%TO.P,U2,1,VIN*%
%TO.N,+5V*%
X198462500Y-92850000D03*
%TO.P,U2,2,GND*%
%TO.N,GND*%
X198462500Y-93800000D03*
%TO.P,U2,3,EN*%
%TO.N,+5V*%
X198462500Y-94750000D03*
%TO.P,U2,4,NC*%
%TO.N,unconnected-(U2-NC-Pad4)*%
X200737500Y-94750000D03*
%TO.P,U2,5,VOUT*%
%TO.N,+3.3V*%
X200737500Y-92850000D03*
%TD*%
D10*
%TO.P,R17,1*%
%TO.N,Net-(U1A-PA8)*%
X211200000Y-94755000D03*
%TO.P,R17,2*%
%TO.N,Net-(J14-Pin_9a)*%
X211200000Y-93105000D03*
%TD*%
D18*
%TO.P,C5,1*%
%TO.N,+3.3V*%
X205000000Y-110580000D03*
%TO.P,C5,2*%
%TO.N,GND*%
X205000000Y-112130000D03*
%TD*%
D17*
%TO.P,R19,1*%
%TO.N,Net-(U1A-PC12)*%
X200100000Y-105380000D03*
%TO.P,R19,2*%
%TO.N,Net-(J15-Pin_2a)*%
X201750000Y-105380000D03*
%TD*%
D13*
%TO.P,C13,1*%
%TO.N,Net-(J14-Pin_6b)*%
X220450000Y-107480000D03*
%TO.P,C13,2*%
%TO.N,GND*%
X222000000Y-107480000D03*
%TD*%
D12*
%TO.P,TP3,1,1*%
%TO.N,Net-(U1A-PA8)*%
X206000000Y-98200000D03*
%TD*%
D14*
%TO.P,R23,1*%
%TO.N,Net-(J15-Pin_4a)*%
X212850000Y-93075000D03*
%TO.P,R23,2*%
%TO.N,Net-(U1A-PC7)*%
X212850000Y-94725000D03*
%TD*%
D17*
%TO.P,R1,1*%
%TO.N,Net-(U1A-PC4)*%
X223675000Y-106200000D03*
%TO.P,R1,2*%
%TO.N,Net-(J1-Pin_2)*%
X225325000Y-106200000D03*
%TD*%
D13*
%TO.P,C9,1*%
%TO.N,Net-(U1B-VDDA)*%
X220475000Y-102200000D03*
%TO.P,C9,2*%
%TO.N,GND*%
X222025000Y-102200000D03*
%TD*%
D12*
%TO.P,TP8,1,1*%
%TO.N,Net-(U1A-PB15)*%
X228400000Y-94500000D03*
%TD*%
D18*
%TO.P,C4,1*%
%TO.N,+3.3V*%
X206500000Y-110580000D03*
%TO.P,C4,2*%
%TO.N,GND*%
X206500000Y-112130000D03*
%TD*%
D17*
%TO.P,R11,1*%
%TO.N,Net-(J14-Pin_6a)*%
X200275000Y-108380000D03*
%TO.P,R11,2*%
%TO.N,Net-(U1A-PB7)*%
X201925000Y-108380000D03*
%TD*%
%TO.P,R15,1*%
%TO.N,+3.3V*%
X200175000Y-103880000D03*
%TO.P,R15,2*%
%TO.N,Net-(J14-Pin_8a)*%
X201825000Y-103880000D03*
%TD*%
D12*
%TO.P,TP15,1,1*%
%TO.N,Net-(J14-Pin_7a)*%
X189100000Y-102200000D03*
%TD*%
%TO.P,TP12,1,1*%
%TO.N,Net-(J14-Pin_3b)*%
X202300000Y-97200000D03*
%TD*%
D14*
%TO.P,R29,1*%
%TO.N,Net-(J15-Pin_7b)*%
X217300000Y-96330000D03*
%TO.P,R29,2*%
%TO.N,Net-(U1A-PB12)*%
X217300000Y-97980000D03*
%TD*%
D21*
%TO.P,U1,1,VBAT*%
%TO.N,unconnected-(U1B-VBAT-Pad1)*%
X208850000Y-111329999D03*
%TO.P,U1,2,PC13*%
%TO.N,unconnected-(U1A-PC13-Pad2)*%
X209349999Y-111329999D03*
%TO.P,U1,3,PC14-OSC32_IN*%
%TO.N,unconnected-(U1A-PC14-OSC32_IN-Pad3)*%
X209850000Y-111329999D03*
%TO.P,U1,4,PC15-OSC32_OUT*%
%TO.N,unconnected-(U1A-PC15-OSC32_OUT-Pad4)*%
X210349999Y-111329999D03*
%TO.P,U1,5,PF0-OSC_IN*%
%TO.N,unconnected-(U1A-PF0-OSC_IN-Pad5)*%
X210850001Y-111329999D03*
%TO.P,U1,6,PF1-OSC_OUT*%
%TO.N,unconnected-(U1A-PF1-OSC_OUT-Pad6)*%
X211350000Y-111329999D03*
%TO.P,U1,7,PG10-NRST*%
%TO.N,Net-(J2-~{RESET})*%
X211849999Y-111329999D03*
%TO.P,U1,8,PC0*%
%TO.N,/PC0*%
X212350000Y-111329999D03*
%TO.P,U1,9,PC1*%
%TO.N,/PC1*%
X212850000Y-111329999D03*
%TO.P,U1,10,PC2*%
%TO.N,/PC2*%
X213350001Y-111329999D03*
%TO.P,U1,11,PC3*%
%TO.N,unconnected-(U1A-PC3-Pad11)*%
X213850000Y-111329999D03*
%TO.P,U1,12,PA0*%
%TO.N,Net-(U1A-PA0)*%
X214349999Y-111329999D03*
%TO.P,U1,13,PA1*%
%TO.N,Net-(U1A-PA1)*%
X214850001Y-111329999D03*
%TO.P,U1,14,PA2*%
%TO.N,Net-(U1A-PA2)*%
X215350000Y-111329999D03*
%TO.P,U1,15,VSS*%
%TO.N,GND*%
X215850001Y-111329999D03*
%TO.P,U1,16,VDD*%
%TO.N,+3.3V*%
X216350000Y-111329999D03*
D22*
%TO.P,U1,17,PA3*%
%TO.N,Net-(U1A-PA3)*%
X218349999Y-109330000D03*
%TO.P,U1,18,PA4*%
%TO.N,Net-(J15-Pin_6b)*%
X218349999Y-108830001D03*
%TO.P,U1,19,PA5*%
%TO.N,Net-(J14-Pin_6b)*%
X218349999Y-108330000D03*
%TO.P,U1,20,PA6*%
%TO.N,Net-(U1A-PA6)*%
X218349999Y-107830001D03*
%TO.P,U1,21,PA7*%
%TO.N,Net-(U1A-PA7)*%
X218349999Y-107329999D03*
%TO.P,U1,22,PC4*%
%TO.N,Net-(U1A-PC4)*%
X218349999Y-106830000D03*
%TO.P,U1,23,PC5*%
%TO.N,Net-(U1A-PC5)*%
X218349999Y-106330001D03*
%TO.P,U1,24,PB0*%
%TO.N,/PB0*%
X218349999Y-105830000D03*
%TO.P,U1,25,PB1*%
%TO.N,/PB1*%
X218349999Y-105330000D03*
%TO.P,U1,26,PB2*%
%TO.N,Net-(U1A-PB2)*%
X218349999Y-104829999D03*
%TO.P,U1,27,VSSA*%
%TO.N,GND*%
X218349999Y-104330000D03*
%TO.P,U1,28,VREF+*%
%TO.N,Net-(U1B-VDDA)*%
X218349999Y-103830001D03*
%TO.P,U1,29,VDDA*%
X218349999Y-103329999D03*
%TO.P,U1,30,PB10*%
%TO.N,Net-(J14-Pin_5b)*%
X218349999Y-102830000D03*
%TO.P,U1,31,VSS*%
%TO.N,GND*%
X218349999Y-102329999D03*
%TO.P,U1,32,VDD*%
%TO.N,+3.3V*%
X218349999Y-101830000D03*
D21*
%TO.P,U1,33,PB11*%
%TO.N,unconnected-(U1A-PB11-Pad33)*%
X216350000Y-99830001D03*
%TO.P,U1,34,PB12*%
%TO.N,Net-(U1A-PB12)*%
X215850001Y-99830001D03*
%TO.P,U1,35,PB13*%
%TO.N,Net-(U1A-PB13)*%
X215350000Y-99830001D03*
%TO.P,U1,36,PB14*%
%TO.N,Net-(U1A-PB14)*%
X214850001Y-99830001D03*
%TO.P,U1,37,PB15*%
%TO.N,Net-(U1A-PB15)*%
X214349999Y-99830001D03*
%TO.P,U1,38,PC6*%
%TO.N,Net-(U1A-PC6)*%
X213850000Y-99830001D03*
%TO.P,U1,39,PC7*%
%TO.N,Net-(U1A-PC7)*%
X213350001Y-99830001D03*
%TO.P,U1,40,PC8*%
%TO.N,Net-(J15-Pin_5b)*%
X212850000Y-99830001D03*
%TO.P,U1,41,PC9*%
%TO.N,Net-(J14-Pin_4b)*%
X212350000Y-99830001D03*
%TO.P,U1,42,PA8*%
%TO.N,Net-(U1A-PA8)*%
X211849999Y-99830001D03*
%TO.P,U1,43,PA9*%
%TO.N,Net-(U1A-PA9)*%
X211350000Y-99830001D03*
%TO.P,U1,44,PA10*%
%TO.N,Net-(U1A-PA10)*%
X210850001Y-99830001D03*
%TO.P,U1,45,PA11*%
%TO.N,Net-(U1A-PA11)*%
X210349999Y-99830001D03*
%TO.P,U1,46,PA12*%
%TO.N,Net-(U1A-PA12)*%
X209850000Y-99830001D03*
%TO.P,U1,47,VSS*%
%TO.N,GND*%
X209349999Y-99830001D03*
%TO.P,U1,48,VDD*%
%TO.N,+3.3V*%
X208850000Y-99830001D03*
D22*
%TO.P,U1,49,PA13*%
%TO.N,Net-(J2-SWDIO)*%
X206850001Y-101830000D03*
%TO.P,U1,50,PA14*%
%TO.N,Net-(J2-SWCLK)*%
X206850001Y-102329999D03*
%TO.P,U1,51,PA15*%
%TO.N,unconnected-(U1A-PA15-Pad51)*%
X206850001Y-102830000D03*
%TO.P,U1,52,PC10*%
%TO.N,Net-(J14-Pin_7a)*%
X206850001Y-103329999D03*
%TO.P,U1,53,PC11*%
%TO.N,Net-(J14-Pin_8a)*%
X206850001Y-103830001D03*
%TO.P,U1,54,PC12*%
%TO.N,Net-(U1A-PC12)*%
X206850001Y-104330000D03*
%TO.P,U1,55,PD2*%
%TO.N,Net-(J15-Pin_4b)*%
X206850001Y-104829999D03*
%TO.P,U1,56,PB3*%
%TO.N,Net-(J2-SWO)*%
X206850001Y-105330000D03*
%TO.P,U1,57,PB4*%
%TO.N,Net-(U1A-PB4)*%
X206850001Y-105830000D03*
%TO.P,U1,58,PB5*%
%TO.N,Net-(U1A-PB5)*%
X206850001Y-106330001D03*
%TO.P,U1,59,PB6*%
%TO.N,Net-(U1A-PB6)*%
X206850001Y-106830000D03*
%TO.P,U1,60,PB7*%
%TO.N,Net-(U1A-PB7)*%
X206850001Y-107329999D03*
%TO.P,U1,61,PB8-BOOT0*%
%TO.N,unconnected-(U1A-PB8-BOOT0-Pad61)*%
X206850001Y-107830001D03*
%TO.P,U1,62,PB9*%
%TO.N,unconnected-(U1A-PB9-Pad62)*%
X206850001Y-108330000D03*
%TO.P,U1,63,VSS*%
%TO.N,GND*%
X206850001Y-108830001D03*
%TO.P,U1,64,VDD*%
%TO.N,+3.3V*%
X206850001Y-109330000D03*
%TD*%
D19*
%TO.P,C7,1*%
%TO.N,+3.3V*%
X220300000Y-100455000D03*
%TO.P,C7,2*%
%TO.N,GND*%
X220300000Y-98905000D03*
%TD*%
D13*
%TO.P,C14,1*%
%TO.N,Net-(J15-Pin_6b)*%
X220450000Y-108980000D03*
%TO.P,C14,2*%
%TO.N,GND*%
X222000000Y-108980000D03*
%TD*%
%TO.P,C12,1*%
%TO.N,Net-(U1B-VDDA)*%
X220725000Y-105580000D03*
%TO.P,C12,2*%
%TO.N,GND*%
X222275000Y-105580000D03*
%TD*%
D10*
%TO.P,R4,1*%
%TO.N,Net-(J14-Pin_2a)*%
X214700000Y-114930000D03*
%TO.P,R4,2*%
%TO.N,Net-(U1A-PA1)*%
X214700000Y-113280000D03*
%TD*%
D19*
%TO.P,C6,1*%
%TO.N,+3.3V*%
X218800000Y-100455000D03*
%TO.P,C6,2*%
%TO.N,GND*%
X218800000Y-98905000D03*
%TD*%
D11*
%TO.P,R5,1*%
%TO.N,Net-(U1A-PB4)*%
X205000000Y-105180000D03*
%TO.P,R5,2*%
%TO.N,Net-(J14-Pin_3a)*%
X203350000Y-105180000D03*
%TD*%
D10*
%TO.P,R3,1*%
%TO.N,Net-(J14-Pin_1a)*%
X213200000Y-114905000D03*
%TO.P,R3,2*%
%TO.N,Net-(U1A-PA0)*%
X213200000Y-113255000D03*
%TD*%
D14*
%TO.P,R22,1*%
%TO.N,Net-(J15-Pin_3b)*%
X211670000Y-96255000D03*
%TO.P,R22,2*%
%TO.N,Net-(U1A-PA9)*%
X211670000Y-97905000D03*
%TD*%
D18*
%TO.P,C3,1*%
%TO.N,+3.3V*%
X217700000Y-111605000D03*
%TO.P,C3,2*%
%TO.N,GND*%
X217700000Y-113155000D03*
%TD*%
D10*
%TO.P,R6,1*%
%TO.N,Net-(U1A-PA10)*%
X210170000Y-97905000D03*
%TO.P,R6,2*%
%TO.N,Net-(J14-Pin_3b)*%
X210170000Y-96255000D03*
%TD*%
D12*
%TO.P,TP4,1,1*%
%TO.N,Net-(U1A-PB12)*%
X221000000Y-97200000D03*
%TD*%
%TO.P,TP1,1,1*%
%TO.N,+5V*%
X194300000Y-91900000D03*
%TD*%
D17*
%TO.P,R30,1*%
%TO.N,Net-(U1A-PA3)*%
X220375000Y-110580000D03*
%TO.P,R30,2*%
%TO.N,Net-(J15-Pin_8a)*%
X222025000Y-110580000D03*
%TD*%
D23*
%TO.P,J2,1,VCC*%
%TO.N,+3.3V*%
X194425000Y-103895000D03*
%TO.P,J2,2,SWDIO*%
%TO.N,Net-(J2-SWDIO)*%
X195695000Y-103895000D03*
%TO.P,J2,3,~{RESET}*%
%TO.N,Net-(J2-~{RESET})*%
X194425000Y-105165000D03*
%TO.P,J2,4,SWCLK*%
%TO.N,Net-(J2-SWCLK)*%
X195695000Y-105165000D03*
%TO.P,J2,5,GND*%
%TO.N,GND*%
X194425000Y-106435000D03*
%TO.P,J2,6,SWO*%
%TO.N,Net-(J2-SWO)*%
X195695000Y-106435000D03*
%TD*%
D17*
%TO.P,R32,1*%
%TO.N,Net-(U1A-PA6)*%
X223675000Y-109580000D03*
%TO.P,R32,2*%
%TO.N,Net-(J15-Pin_9a)*%
X225325000Y-109580000D03*
%TD*%
D15*
%TO.P,J15,1,Pin_1a*%
%TO.N,Net-(J15-Pin_1a)*%
X239060000Y-92300000D03*
D16*
%TO.P,J15,2,Pin_1b*%
%TO.N,+5V*%
X241600000Y-92300000D03*
%TO.P,J15,3,Pin_2a*%
%TO.N,Net-(J15-Pin_2a)*%
X239060000Y-94840000D03*
%TO.P,J15,4,Pin_2b*%
%TO.N,GND*%
X241600000Y-94840000D03*
%TO.P,J15,5,Pin_3a*%
%TO.N,Net-(J15-Pin_3a)*%
X239060000Y-97380000D03*
%TO.P,J15,6,Pin_3b*%
%TO.N,Net-(J15-Pin_3b)*%
X241600000Y-97380000D03*
%TO.P,J15,7,Pin_4a*%
%TO.N,Net-(J15-Pin_4a)*%
X239060000Y-99920000D03*
%TO.P,J15,8,Pin_4b*%
%TO.N,Net-(J15-Pin_4b)*%
X241600000Y-99920000D03*
%TO.P,J15,9,Pin_5a*%
%TO.N,Net-(J15-Pin_5a)*%
X239060000Y-102460000D03*
%TO.P,J15,10,Pin_5b*%
%TO.N,Net-(J15-Pin_5b)*%
X241600000Y-102460000D03*
%TO.P,J15,11,Pin_6a*%
%TO.N,Net-(J15-Pin_6a)*%
X239060000Y-105000000D03*
%TO.P,J15,12,Pin_6b*%
%TO.N,Net-(J15-Pin_6b)*%
X241600000Y-105000000D03*
%TO.P,J15,13,Pin_7a*%
%TO.N,Net-(J15-Pin_7a)*%
X239060000Y-107540000D03*
%TO.P,J15,14,Pin_7b*%
%TO.N,Net-(J15-Pin_7b)*%
X241600000Y-107540000D03*
%TO.P,J15,15,Pin_8a*%
%TO.N,Net-(J15-Pin_8a)*%
X239060000Y-110080000D03*
%TO.P,J15,16,Pin_8b*%
%TO.N,Net-(J15-Pin_8b)*%
X241600000Y-110080000D03*
%TO.P,J15,17,Pin_9a*%
%TO.N,Net-(J15-Pin_9a)*%
X239060000Y-112620000D03*
%TO.P,J15,18,Pin_9b*%
%TO.N,/PB0*%
X241600000Y-112620000D03*
%TO.P,J15,19,Pin_10a*%
%TO.N,Net-(J15-Pin_10a)*%
X239060000Y-115160000D03*
%TO.P,J15,20,Pin_10b*%
%TO.N,/PB1*%
X241600000Y-115160000D03*
%TD*%
D17*
%TO.P,R2,1*%
%TO.N,Net-(U1A-PC5)*%
X223650000Y-104700000D03*
%TO.P,R2,2*%
%TO.N,Net-(J1-Pin_1)*%
X225300000Y-104700000D03*
%TD*%
D24*
%TO.N,GND*%
X234000000Y-107000000D03*
X236000000Y-108000000D03*
X190000000Y-95000000D03*
X212000000Y-108000000D03*
X227000000Y-113000000D03*
X189000000Y-112000000D03*
X236000000Y-107000000D03*
X222600000Y-108300000D03*
X193000000Y-97000000D03*
X189000000Y-92000000D03*
X194000000Y-97000000D03*
X188000000Y-92000000D03*
X226000000Y-113000000D03*
X216000000Y-108000000D03*
X207700000Y-112500000D03*
X230000000Y-95000000D03*
X217180127Y-104766002D03*
X235000000Y-107000000D03*
X230000000Y-113000000D03*
X199700000Y-93800000D03*
X203000000Y-95000000D03*
X228000000Y-99000000D03*
X189000000Y-97000000D03*
X213000000Y-107000000D03*
X234000000Y-108000000D03*
X193000000Y-92000000D03*
X193000000Y-95000000D03*
X193000000Y-107500000D03*
X195000000Y-112000000D03*
X195000000Y-95000000D03*
X216000000Y-117000000D03*
X197000000Y-97000000D03*
X191000000Y-95000000D03*
X234000000Y-103000000D03*
X213000000Y-106000000D03*
X191000000Y-91000000D03*
X232000000Y-98000000D03*
X208005000Y-96305000D03*
X236000000Y-103000000D03*
X215100000Y-102400000D03*
X191000000Y-92000000D03*
X192000000Y-97000000D03*
X214000000Y-108000000D03*
X235000000Y-108000000D03*
X234000000Y-100000000D03*
X228000000Y-104000000D03*
X226300000Y-108000000D03*
X231000000Y-95000000D03*
X235000000Y-104000000D03*
X215000000Y-107000000D03*
X196000000Y-97000000D03*
X229000000Y-114000000D03*
X230000000Y-100000000D03*
X213000000Y-108000000D03*
X234000000Y-105000000D03*
X190000000Y-92000000D03*
X235000000Y-100000000D03*
X214000000Y-106000000D03*
X237000000Y-107000000D03*
X235000000Y-105000000D03*
X236000000Y-104000000D03*
X190000000Y-97000000D03*
X192000000Y-95000000D03*
X203000000Y-94000000D03*
X191000000Y-97000000D03*
X204000000Y-97000000D03*
X230000000Y-114000000D03*
X214000000Y-107000000D03*
X188000000Y-95000000D03*
X225000000Y-113000000D03*
X215000000Y-106000000D03*
X194000000Y-95000000D03*
X229000000Y-99000000D03*
X223000000Y-98000000D03*
X228000000Y-114000000D03*
X190000000Y-113000000D03*
X221400000Y-103800000D03*
X202000000Y-94000000D03*
X234000000Y-109000000D03*
X215000000Y-108000000D03*
X188000000Y-91000000D03*
X225000000Y-114000000D03*
X235000000Y-114000000D03*
X233000000Y-109000000D03*
X228000000Y-100000000D03*
X188000000Y-113000000D03*
X212000000Y-106000000D03*
X230000000Y-94000000D03*
X203700000Y-103600000D03*
X188000000Y-97000000D03*
X210000000Y-107000000D03*
X189000000Y-113000000D03*
X190000000Y-91000000D03*
X231000000Y-98000000D03*
D25*
X218900000Y-113800000D03*
D24*
X224000000Y-113000000D03*
X222300000Y-98200000D03*
X229000000Y-113000000D03*
X231000000Y-94000000D03*
X202000000Y-95000000D03*
X227000000Y-94000000D03*
X216000000Y-106000000D03*
X214000000Y-117000000D03*
X228000000Y-113000000D03*
X188000000Y-112000000D03*
X188000000Y-110000000D03*
X232000000Y-93000000D03*
X236000000Y-105000000D03*
X215000000Y-117000000D03*
X184300000Y-111800000D03*
X237000000Y-114000000D03*
X216000000Y-107000000D03*
X226200000Y-111400000D03*
X211000000Y-106000000D03*
X211000000Y-107000000D03*
X226000000Y-114000000D03*
X193000000Y-91000000D03*
X209000000Y-114800000D03*
X235000000Y-103000000D03*
X198000000Y-97000000D03*
X232000000Y-99000000D03*
X212000000Y-107000000D03*
X195000000Y-97000000D03*
X234000000Y-114000000D03*
X242100000Y-96000000D03*
X236000000Y-109000000D03*
X211000000Y-108000000D03*
X234000000Y-99000000D03*
X235000000Y-109000000D03*
X192000000Y-92000000D03*
X224000000Y-114000000D03*
X234000000Y-104000000D03*
X192000000Y-91000000D03*
X227000000Y-114000000D03*
X210000000Y-108000000D03*
X229000000Y-100000000D03*
X236000000Y-114000000D03*
X190000000Y-112000000D03*
X237000000Y-108000000D03*
X217000000Y-117000000D03*
X230000000Y-99000000D03*
X189000000Y-95000000D03*
X189000000Y-91000000D03*
%TO.N,Net-(J2-~{RESET})*%
X193550000Y-112000000D03*
X192456789Y-108950000D03*
%TO.N,+3.3V*%
X216249505Y-110357013D03*
X215475441Y-109575441D03*
X206000000Y-95004000D03*
X206000000Y-96104000D03*
%TO.N,Net-(U1B-VDDA)*%
X217200000Y-107800000D03*
X217282739Y-109323779D03*
%TO.N,Net-(J2-SWCLK)*%
X207895048Y-102636792D03*
X196287607Y-104723449D03*
%TO.N,Net-(J2-SWDIO)*%
X197782344Y-108950000D03*
X208162928Y-101990074D03*
D25*
%TO.N,Net-(J2-SWO)*%
X195200063Y-107116447D03*
X207944842Y-105632258D03*
D24*
%TO.N,Net-(J14-Pin_8b)*%
X191071091Y-111128909D03*
X215896792Y-93898973D03*
%TO.N,Net-(J14-Pin_5b)*%
X198832566Y-99810384D03*
X203000000Y-100200000D03*
%TO.N,Net-(J14-Pin_7b)*%
X216259439Y-96512742D03*
%TO.N,Net-(J14-Pin_4a)*%
X202700000Y-106932117D03*
X199610384Y-100589616D03*
X191725000Y-100125000D03*
D25*
%TO.N,Net-(J14-Pin_6a)*%
X191856789Y-110288261D03*
D24*
X190321091Y-110378909D03*
D25*
%TO.N,Net-(J14-Pin_7a)*%
X190165080Y-105965080D03*
X205650000Y-101950000D03*
X184554456Y-106858818D03*
D24*
%TO.N,/PC2*%
X213399999Y-112277183D03*
X209550000Y-114000000D03*
%TO.N,Net-(J14-Pin_9a)*%
X210538265Y-94031658D03*
%TO.N,Net-(J14-Pin_4b)*%
X212056856Y-101252264D03*
D25*
%TO.N,Net-(J14-Pin_8a)*%
X211990460Y-104229999D03*
D24*
X205507038Y-103453000D03*
X202573332Y-104451151D03*
%TO.N,Net-(J14-Pin_5a)*%
X199691945Y-109303966D03*
X202574261Y-107630000D03*
%TO.N,Net-(J14-Pin_3a)*%
X200492380Y-100692380D03*
X201511620Y-101511620D03*
%TO.N,Net-(J15-Pin_8a)*%
X235661091Y-110161091D03*
X237238909Y-110138909D03*
%TO.N,Net-(J15-Pin_9a)*%
X228214971Y-109614971D03*
%TO.N,Net-(J15-Pin_4a)*%
X236299409Y-94500591D03*
%TO.N,Net-(J15-Pin_3a)*%
X236700000Y-95679000D03*
%TO.N,Net-(J15-Pin_5b)*%
X212850000Y-92200000D03*
X212850036Y-98888833D03*
D25*
%TO.N,Net-(J15-Pin_2a)*%
X203657806Y-100792194D03*
X236123674Y-93476326D03*
X201000001Y-103283290D03*
X213850000Y-104001000D03*
D24*
%TO.N,Net-(J15-Pin_5a)*%
X236061789Y-91738211D03*
%TO.N,Net-(J15-Pin_10a)*%
X227600000Y-108500000D03*
D25*
%TO.N,Net-(J15-Pin_1a)*%
X229878528Y-97230000D03*
X237836054Y-92663946D03*
D24*
%TO.N,/PB0*%
X217449914Y-105845065D03*
%TO.N,Net-(J15-Pin_7b)*%
X237400000Y-100521000D03*
%TO.N,Net-(J15-Pin_8b)*%
X240332001Y-102173322D03*
X233650000Y-95679000D03*
%TO.N,Net-(J15-Pin_4b)*%
X226150000Y-102400000D03*
X217050000Y-103450000D03*
%TO.N,Net-(J15-Pin_6a)*%
X233500000Y-101700000D03*
X209537270Y-92255000D03*
%TO.N,/PB1*%
X219829396Y-105179265D03*
X236600000Y-110800000D03*
%TO.N,Net-(U1A-PC4)*%
X217438914Y-106790440D03*
X223675000Y-106147659D03*
D25*
%TO.N,Net-(U1A-PB14)*%
X223600000Y-98600000D03*
X217835000Y-100400000D03*
D24*
%TO.N,Net-(U1A-PB15)*%
X215181222Y-94069966D03*
X214237199Y-98752988D03*
%TO.N,Net-(U1A-PA8)*%
X211078088Y-95485240D03*
D25*
X206100000Y-97100000D03*
D24*
X211414996Y-100876903D03*
%TO.N,Net-(U1A-PB2)*%
X219811809Y-104433175D03*
X224500000Y-103900000D03*
%TO.N,Net-(U1A-PC12)*%
X199263871Y-104108820D03*
X202261620Y-100761620D03*
%TO.N,Net-(U1A-PA12)*%
X210665100Y-100887903D03*
X208775778Y-95001162D03*
%TO.N,Net-(U1A-PC6)*%
X214000000Y-93950000D03*
X213537200Y-98755386D03*
%TO.N,Net-(U1A-PC7)*%
X213189385Y-100836215D03*
X212088591Y-95388591D03*
%TO.N,Net-(U1A-PA11)*%
X210388392Y-95365573D03*
X209676718Y-97070984D03*
D25*
%TO.N,Net-(U1A-PB12)*%
X219800000Y-97300000D03*
X217434000Y-98700000D03*
D24*
%TO.N,Net-(U1A-PB13)*%
X218402763Y-95263880D03*
X215338199Y-98777307D03*
%TO.N,Net-(U1A-PA6)*%
X219505065Y-107879001D03*
X222872886Y-109429398D03*
%TO.N,Net-(U1A-PA7)*%
X219500000Y-107100000D03*
X225847287Y-107238659D03*
%TD*%
D26*
%TO.N,GND*%
X217616129Y-104330000D02*
X217180127Y-104766002D01*
X208000000Y-96305000D02*
X208891000Y-97196000D01*
X222000000Y-108980000D02*
X222000000Y-108900000D01*
X222600000Y-108300000D02*
X222600000Y-108080000D01*
X221095000Y-98905000D02*
X218800000Y-98905000D01*
X208891000Y-98491000D02*
X209349999Y-98949999D01*
X224559000Y-107314000D02*
X225325000Y-108080000D01*
X209349999Y-98949999D02*
X209349999Y-99830001D01*
X222000000Y-108900000D02*
X222600000Y-108300000D01*
X222275000Y-105580000D02*
X222275000Y-105976932D01*
X222600000Y-108080000D02*
X222000000Y-107480000D01*
X215850001Y-111329999D02*
X215850001Y-112161300D01*
X222025000Y-102200000D02*
X222025000Y-103675000D01*
X222300000Y-98200000D02*
X221800000Y-98200000D01*
X216252701Y-112564000D02*
X217109000Y-112564000D01*
X193009839Y-107500000D02*
X193000000Y-107500000D01*
X208005000Y-96305000D02*
X207800000Y-96100000D01*
X222275000Y-105976932D02*
X223612068Y-107314000D01*
X208400000Y-96305000D02*
X208005000Y-96305000D01*
X222025000Y-103675000D02*
X222050000Y-103700000D01*
X215850001Y-112161300D02*
X216252701Y-112564000D01*
X194074839Y-106435000D02*
X193009839Y-107500000D01*
X194425000Y-106435000D02*
X194074839Y-106435000D01*
X203375000Y-103275000D02*
X203700000Y-103600000D01*
X218349999Y-104330000D02*
X217616129Y-104330000D01*
X203375000Y-102550000D02*
X203375000Y-103275000D01*
X217109000Y-112564000D02*
X217700000Y-113155000D01*
X221800000Y-98200000D02*
X221095000Y-98905000D01*
X223612068Y-107314000D02*
X224559000Y-107314000D01*
X208891000Y-97196000D02*
X208891000Y-98491000D01*
%TO.N,Net-(J2-~{RESET})*%
X194775000Y-113225000D02*
X193550000Y-112000000D01*
X193511550Y-104251550D02*
X191878611Y-104251550D01*
X190971550Y-107464761D02*
X192456789Y-108950000D01*
X191878611Y-104251550D02*
X190971550Y-105158611D01*
X211550000Y-112500000D02*
X211550000Y-112825000D01*
X211849999Y-111329999D02*
X211849999Y-112200001D01*
X211849999Y-112200001D02*
X211550000Y-112500000D01*
X211550000Y-112825000D02*
X211150000Y-113225000D01*
X194425000Y-105165000D02*
X193511550Y-104251550D01*
X190971550Y-105158611D02*
X190971550Y-107464761D01*
X211150000Y-113225000D02*
X194775000Y-113225000D01*
D27*
%TO.N,+5V*%
X196300000Y-93550000D02*
X197500000Y-94750000D01*
D26*
X200889500Y-90423000D02*
X198462500Y-92850000D01*
X241600000Y-92300000D02*
X239723000Y-90423000D01*
D27*
X196300000Y-93550000D02*
X197000000Y-92850000D01*
X197500000Y-94750000D02*
X198462500Y-94750000D01*
X196300000Y-93550000D02*
X195950000Y-93550000D01*
X185720000Y-92300000D02*
X186970000Y-93550000D01*
X197000000Y-92850000D02*
X198462500Y-92850000D01*
X195950000Y-93550000D02*
X194300000Y-91900000D01*
X186970000Y-93550000D02*
X196300000Y-93550000D01*
D26*
X239723000Y-90423000D02*
X200889500Y-90423000D01*
D27*
%TO.N,+3.3V*%
X200737500Y-92850000D02*
X203846000Y-92850000D01*
X206500000Y-110580000D02*
X206500000Y-109680001D01*
D26*
X222574000Y-99404000D02*
X223350000Y-100180000D01*
X215230000Y-109330000D02*
X215475441Y-109575441D01*
X200175000Y-104265936D02*
X200801000Y-104891936D01*
X218024000Y-99679000D02*
X218800000Y-100455000D01*
X217713064Y-97204000D02*
X218076000Y-97566936D01*
D27*
X206500000Y-109680001D02*
X206796600Y-109383401D01*
D26*
X218024000Y-98455890D02*
X218024000Y-99679000D01*
X220300000Y-100390936D02*
X221286936Y-99404000D01*
X216350000Y-110457508D02*
X216350000Y-111329999D01*
X217700000Y-111605000D02*
X218474000Y-112379000D01*
X218800000Y-100455000D02*
X220300000Y-100455000D01*
D27*
X208400000Y-99433402D02*
X208796599Y-99830001D01*
D26*
X194425000Y-103895000D02*
X194203700Y-103673700D01*
X216249505Y-110357013D02*
X216350000Y-110457508D01*
X220300000Y-100455000D02*
X220300000Y-100390936D01*
D27*
X206000000Y-96104000D02*
X206649000Y-96104000D01*
X201987500Y-91600000D02*
X210444000Y-91600000D01*
D26*
X194203700Y-102270309D02*
X195397459Y-101076550D01*
X200175000Y-101929000D02*
X200175000Y-103880000D01*
X218349999Y-101830000D02*
X218349999Y-100905001D01*
D27*
X206649000Y-96104000D02*
X206649000Y-96504000D01*
D26*
X206850001Y-109330000D02*
X215230000Y-109330000D01*
X194203700Y-103673700D02*
X194203700Y-102270309D01*
X200175000Y-103880000D02*
X200175000Y-104265936D01*
X218349999Y-100905001D02*
X218800000Y-100455000D01*
D27*
X206796600Y-109383401D02*
X206850001Y-109383401D01*
D26*
X213500000Y-96125000D02*
X214579000Y-97204000D01*
D27*
X205000000Y-110580000D02*
X202794516Y-110580000D01*
X203846000Y-92850000D02*
X206000000Y-95004000D01*
X205000000Y-110580000D02*
X206500000Y-110580000D01*
D26*
X199322550Y-101076550D02*
X200175000Y-101929000D01*
D27*
X208400000Y-97855000D02*
X208400000Y-99433402D01*
D26*
X195397459Y-101076550D02*
X199322550Y-101076550D01*
X222500000Y-113600000D02*
X222145000Y-113600000D01*
X217424999Y-111329999D02*
X217700000Y-111605000D01*
X221286936Y-99404000D02*
X222574000Y-99404000D01*
X200801000Y-104891936D02*
X200801000Y-106354000D01*
D27*
X202794516Y-110580000D02*
X201076000Y-108861484D01*
X200400000Y-106755000D02*
X200275000Y-106880000D01*
D26*
X208850000Y-99830001D02*
X208850000Y-100681302D01*
X214579000Y-97204000D02*
X217713064Y-97204000D01*
X222145000Y-113600000D02*
X220825000Y-112280000D01*
X200801000Y-106354000D02*
X200275000Y-106880000D01*
X220049000Y-113056000D02*
X220825000Y-112280000D01*
X218474000Y-112379000D02*
X218474000Y-112768064D01*
D27*
X201076000Y-108861484D02*
X201076000Y-107681000D01*
D26*
X209998698Y-101830000D02*
X218349999Y-101830000D01*
X208850000Y-100681302D02*
X209998698Y-101830000D01*
D27*
X200737500Y-92850000D02*
X201987500Y-91600000D01*
X206000000Y-96104000D02*
X200175000Y-101929000D01*
D26*
X216350000Y-111329999D02*
X217424999Y-111329999D01*
X218076000Y-98403890D02*
X218024000Y-98455890D01*
X218474000Y-112768064D02*
X218761936Y-113056000D01*
D27*
X201076000Y-107681000D02*
X200275000Y-106880000D01*
D26*
X218076000Y-97566936D02*
X218076000Y-98403890D01*
D27*
X206649000Y-96504000D02*
X208000000Y-97855000D01*
D26*
X218761936Y-113056000D02*
X220049000Y-113056000D01*
%TO.N,Net-(U1B-VDDA)*%
X221555000Y-101300000D02*
X219525001Y-103329999D01*
X217109000Y-103991000D02*
X217274090Y-103991000D01*
X220725000Y-105580000D02*
X220725000Y-103925000D01*
X219175000Y-112280000D02*
X219175000Y-111506301D01*
X220450001Y-103830001D02*
X218349999Y-103830001D01*
X217200000Y-107800000D02*
X216600000Y-107200000D01*
X217435089Y-103830001D02*
X218349999Y-103830001D01*
X223345000Y-101300000D02*
X221555000Y-101300000D01*
X219525001Y-103329999D02*
X218349999Y-103329999D01*
X220725000Y-103925000D02*
X220500000Y-103700000D01*
X223725000Y-101680000D02*
X223345000Y-101300000D01*
X217282739Y-109614040D02*
X217282739Y-109323779D01*
X219175000Y-111506301D02*
X217282739Y-109614040D01*
X218349999Y-103329999D02*
X218349999Y-103830001D01*
X217274090Y-103991000D02*
X217435089Y-103830001D01*
X216600000Y-104500000D02*
X217109000Y-103991000D01*
X216600000Y-107200000D02*
X216600000Y-104500000D01*
X220500000Y-103880000D02*
X220450001Y-103830001D01*
%TO.N,Net-(J14-Pin_6b)*%
X223675000Y-107929890D02*
X223675000Y-108080000D01*
X221500890Y-106704000D02*
X222449110Y-106704000D01*
X222449110Y-106704000D02*
X223675000Y-107929890D01*
X219247899Y-108376601D02*
X219247899Y-108429001D01*
X219247899Y-108429001D02*
X219775889Y-108429001D01*
X217452099Y-108376601D02*
X219247899Y-108376601D01*
X215528700Y-110300000D02*
X217452099Y-108376601D01*
X208200000Y-110300000D02*
X215528700Y-110300000D01*
X185720000Y-105000000D02*
X192051000Y-111331000D01*
X192051000Y-111331000D02*
X207169000Y-111331000D01*
X219775889Y-108429001D02*
X221500890Y-106704000D01*
X207169000Y-111331000D02*
X208200000Y-110300000D01*
%TO.N,Net-(J15-Pin_6b)*%
X224387064Y-110367936D02*
X223575000Y-111180000D01*
X222438064Y-109804000D02*
X221274000Y-109804000D01*
X240449000Y-106151000D02*
X232456760Y-106151000D01*
X223575000Y-110940936D02*
X222438064Y-109804000D01*
X241600000Y-105000000D02*
X240449000Y-106151000D01*
X228239824Y-110367936D02*
X224387064Y-110367936D01*
X223575000Y-111180000D02*
X223575000Y-110940936D01*
X220450000Y-108980000D02*
X220300001Y-108830001D01*
X221274000Y-109804000D02*
X220450000Y-108980000D01*
X220300001Y-108830001D02*
X218349999Y-108830001D01*
X232456760Y-106151000D02*
X228239824Y-110367936D01*
%TO.N,Net-(J1-Pin_2)*%
X225325000Y-106200000D02*
X225560000Y-105965000D01*
X225560000Y-105965000D02*
X230900000Y-105965000D01*
%TO.N,Net-(J1-Pin_1)*%
X229625000Y-104700000D02*
X230900000Y-103425000D01*
X225300000Y-104700000D02*
X229625000Y-104700000D01*
%TO.N,Net-(J2-SWCLK)*%
X207588255Y-102329999D02*
X206850001Y-102329999D01*
X195891438Y-105165000D02*
X195695000Y-105165000D01*
X196287607Y-104768831D02*
X195891438Y-105165000D01*
X196287607Y-104723449D02*
X196287607Y-104768831D01*
X207895048Y-102636792D02*
X207588255Y-102329999D01*
%TO.N,Net-(J2-SWDIO)*%
X198949000Y-104571768D02*
X198949000Y-105028232D01*
X208002854Y-101830000D02*
X206850001Y-101830000D01*
X195973450Y-104173450D02*
X198550682Y-104173450D01*
X198949000Y-105028232D02*
X199150000Y-105229232D01*
X199150000Y-105229232D02*
X199150000Y-107000000D01*
X195695000Y-103895000D02*
X195973450Y-104173450D01*
X199150000Y-107000000D02*
X199150000Y-107582344D01*
X198550682Y-104173450D02*
X198949000Y-104571768D01*
X208162928Y-101990074D02*
X208002854Y-101830000D01*
X199150000Y-107582344D02*
X197782344Y-108950000D01*
%TO.N,Net-(J2-SWO)*%
X195200063Y-106929937D02*
X195695000Y-106435000D01*
X206850001Y-105330000D02*
X207642584Y-105330000D01*
X207642584Y-105330000D02*
X207944842Y-105632258D01*
X195200063Y-107116447D02*
X195200063Y-106929937D01*
%TO.N,Net-(J14-Pin_2a)*%
X182650000Y-117450000D02*
X181500000Y-116300000D01*
X181500000Y-116300000D02*
X181500000Y-96520000D01*
X181500000Y-96520000D02*
X183180000Y-94840000D01*
X212180000Y-117450000D02*
X182650000Y-117450000D01*
X214700000Y-114930000D02*
X212180000Y-117450000D01*
%TO.N,Net-(J14-Pin_8b)*%
X190892182Y-110950000D02*
X186590000Y-110950000D01*
X191071091Y-111128909D02*
X190892182Y-110950000D01*
X216000000Y-93795765D02*
X215896792Y-93898973D01*
X216000000Y-93130000D02*
X216000000Y-93795765D01*
X186590000Y-110950000D02*
X185720000Y-110080000D01*
%TO.N,/PC1*%
X212352000Y-115365210D02*
X211069210Y-116648000D01*
X212352000Y-112848000D02*
X212352000Y-115365210D01*
X212850000Y-112350000D02*
X212352000Y-112848000D01*
X211069210Y-116648000D02*
X187208000Y-116648000D01*
X187208000Y-116648000D02*
X185720000Y-115160000D01*
X212850000Y-111329999D02*
X212850000Y-112350000D01*
%TO.N,Net-(J14-Pin_5b)*%
X221455000Y-100900000D02*
X221700000Y-100655000D01*
X216825910Y-102909000D02*
X217274090Y-102909000D01*
X221065968Y-100900000D02*
X221455000Y-100900000D01*
X207151598Y-99550000D02*
X210560598Y-102959000D01*
X217365090Y-103000000D02*
X217462099Y-103000000D01*
X220210000Y-101196000D02*
X220769968Y-101196000D01*
X218293400Y-102886599D02*
X218349999Y-102830000D01*
X219724000Y-102307298D02*
X219724000Y-101682000D01*
X210560598Y-102959000D02*
X213360958Y-102959000D01*
X221700000Y-100655000D02*
X221700000Y-100180000D01*
X198172182Y-99150000D02*
X189030000Y-99150000D01*
X220769968Y-101196000D02*
X221065968Y-100900000D01*
X217462099Y-103000000D02*
X217462099Y-102886599D01*
X217462099Y-102886599D02*
X218293400Y-102886599D01*
X213360958Y-102959000D02*
X213401958Y-103000000D01*
X218349999Y-102830000D02*
X219201298Y-102830000D01*
X216734910Y-103000000D02*
X216825910Y-102909000D01*
X213401958Y-103000000D02*
X216734910Y-103000000D01*
X217274090Y-102909000D02*
X217365090Y-103000000D01*
X198832566Y-99810384D02*
X198172182Y-99150000D01*
X203000000Y-100200000D02*
X203650000Y-99550000D01*
X219724000Y-101682000D02*
X220210000Y-101196000D01*
X219201298Y-102830000D02*
X219724000Y-102307298D01*
X203650000Y-99550000D02*
X207151598Y-99550000D01*
X189030000Y-99150000D02*
X185720000Y-102460000D01*
%TO.N,Net-(J14-Pin_7b)*%
X215450000Y-96255000D02*
X216001697Y-96255000D01*
X216001697Y-96255000D02*
X216259439Y-96512742D01*
%TO.N,Net-(J14-Pin_4a)*%
X202775000Y-106932117D02*
X202778776Y-106935893D01*
X191725000Y-100125000D02*
X192189616Y-100589616D01*
X192189616Y-100589616D02*
X199610384Y-100589616D01*
X203094107Y-106935893D02*
X203350000Y-106680000D01*
X202778776Y-106935893D02*
X203094107Y-106935893D01*
%TO.N,Net-(J14-Pin_6a)*%
X200275000Y-108380000D02*
X200275000Y-109500143D01*
X183180000Y-105000000D02*
X184438818Y-106258818D01*
X200275000Y-109500143D02*
X199486882Y-110288261D01*
X184438818Y-106258818D02*
X186201000Y-106258818D01*
X199486882Y-110288261D02*
X191856789Y-110288261D01*
X186201000Y-106258818D02*
X190321091Y-110378909D01*
%TO.N,Net-(J14-Pin_7a)*%
X206850001Y-103329999D02*
X206171301Y-103329999D01*
X206171301Y-103329999D02*
X205391302Y-102550000D01*
X189100000Y-102200000D02*
X189100000Y-104900000D01*
X183180000Y-107540000D02*
X183873274Y-107540000D01*
X205391302Y-102550000D02*
X205025000Y-102550000D01*
X189100000Y-104900000D02*
X190165080Y-105965080D01*
X205625000Y-101950000D02*
X205025000Y-102550000D01*
X205650000Y-101950000D02*
X205625000Y-101950000D01*
X183873274Y-107540000D02*
X184554456Y-106858818D01*
%TO.N,/PC2*%
X213350001Y-112227185D02*
X213399999Y-112277183D01*
X213350001Y-111329999D02*
X213350001Y-112227185D01*
X209550000Y-114000000D02*
X187100000Y-114000000D01*
X187100000Y-114000000D02*
X185720000Y-112620000D01*
%TO.N,Net-(J14-Pin_9a)*%
X211200000Y-93105000D02*
X211200000Y-93369923D01*
X211200000Y-93369923D02*
X210538265Y-94031658D01*
%TO.N,/PC0*%
X186087760Y-113900000D02*
X184440000Y-113900000D01*
X211951000Y-112991100D02*
X211550000Y-113392100D01*
X184440000Y-113900000D02*
X183180000Y-115160000D01*
X211550000Y-113392100D02*
X211550000Y-115451890D01*
X187713760Y-115526000D02*
X186087760Y-113900000D01*
X212250999Y-112227899D02*
X212250999Y-112366101D01*
X212250999Y-112366101D02*
X211951000Y-112666100D01*
X212350000Y-111329999D02*
X212303399Y-111376600D01*
X211624110Y-115526000D02*
X187713760Y-115526000D01*
X212303399Y-111376600D02*
X212303399Y-112227899D01*
X211550000Y-115451890D02*
X211624110Y-115526000D01*
X211951000Y-112666100D02*
X211951000Y-112991100D01*
X212303399Y-112227899D02*
X212250999Y-112227899D01*
%TO.N,Net-(J14-Pin_4b)*%
X212350000Y-99830001D02*
X212350000Y-100959120D01*
X212609637Y-98350000D02*
X212299036Y-98660601D01*
X212350000Y-99168029D02*
X212350000Y-99830001D01*
X213169064Y-97775000D02*
X212700000Y-98244064D01*
X212299036Y-98660601D02*
X212299036Y-99117065D01*
X212700000Y-98244064D02*
X212700000Y-98350000D01*
X212700000Y-98350000D02*
X212609637Y-98350000D01*
X212350000Y-100959120D02*
X212056856Y-101252264D01*
X213500000Y-97775000D02*
X213169064Y-97775000D01*
X212299036Y-99117065D02*
X212350000Y-99168029D01*
%TO.N,Net-(J14-Pin_3b)*%
X209799000Y-95554000D02*
X210500000Y-96255000D01*
X185720000Y-97380000D02*
X187546000Y-95554000D01*
X202300000Y-95554000D02*
X209799000Y-95554000D01*
X202300000Y-97200000D02*
X202300000Y-95554000D01*
X187546000Y-95554000D02*
X202300000Y-95554000D01*
%TO.N,Net-(J14-Pin_8a)*%
X202396151Y-104451151D02*
X201825000Y-103880000D01*
X205727202Y-103453000D02*
X205507038Y-103453000D01*
X206850001Y-103830001D02*
X206104203Y-103830001D01*
X206104203Y-103830001D02*
X205727202Y-103453000D01*
X211990460Y-104229999D02*
X211590462Y-103830001D01*
X211590462Y-103830001D02*
X206850001Y-103830001D01*
X202573332Y-104451151D02*
X202396151Y-104451151D01*
%TO.N,Net-(J14-Pin_1a)*%
X181901000Y-115800000D02*
X181901000Y-97000000D01*
X184331000Y-95316760D02*
X184331000Y-93451000D01*
X213200000Y-114905000D02*
X213200000Y-115700000D01*
X211851000Y-117049000D02*
X183150000Y-117049000D01*
X183656760Y-95991000D02*
X184331000Y-95316760D01*
X183150000Y-117049000D02*
X181901000Y-115800000D01*
X213200000Y-115700000D02*
X211851000Y-117049000D01*
X184331000Y-93451000D02*
X183180000Y-92300000D01*
X182910000Y-95991000D02*
X183656760Y-95991000D01*
X181901000Y-97000000D02*
X182910000Y-95991000D01*
%TO.N,Net-(J14-Pin_5a)*%
X186196760Y-103611000D02*
X184331000Y-103611000D01*
X184331000Y-103611000D02*
X183180000Y-102460000D01*
X203324261Y-108380000D02*
X202574261Y-107630000D01*
X199495911Y-109500000D02*
X192085760Y-109500000D01*
X203375000Y-108380000D02*
X203324261Y-108380000D01*
X192085760Y-109500000D02*
X186196760Y-103611000D01*
X199691945Y-109303966D02*
X199495911Y-109500000D01*
%TO.N,Net-(J14-Pin_3a)*%
X184331000Y-98531000D02*
X183180000Y-97380000D01*
X198331000Y-98531000D02*
X184331000Y-98531000D01*
X203350000Y-105180000D02*
X203350000Y-104450000D01*
X202674000Y-102674000D02*
X201511620Y-101511620D01*
X202674000Y-103774000D02*
X202674000Y-102674000D01*
X200492380Y-100692380D02*
X198331000Y-98531000D01*
X203350000Y-104450000D02*
X202674000Y-103774000D01*
%TO.N,Net-(J15-Pin_8a)*%
X223170000Y-112200000D02*
X233622182Y-112200000D01*
X233622182Y-112200000D02*
X235661091Y-110161091D01*
X239001091Y-110138909D02*
X239060000Y-110080000D01*
X237238909Y-110138909D02*
X239001091Y-110138909D01*
X222025000Y-110580000D02*
X222025000Y-111055000D01*
X222025000Y-111055000D02*
X223170000Y-112200000D01*
%TO.N,Net-(J15-Pin_9a)*%
X225325000Y-109580000D02*
X228180000Y-109580000D01*
X228180000Y-109580000D02*
X228214971Y-109614971D01*
%TO.N,Net-(J15-Pin_7a)*%
X216505000Y-114600000D02*
X232000000Y-114600000D01*
X232000000Y-114600000D02*
X239060000Y-107540000D01*
X216200000Y-114905000D02*
X216505000Y-114600000D01*
%TO.N,Net-(J15-Pin_4a)*%
X213897000Y-92028000D02*
X233826818Y-92028000D01*
X233826818Y-92028000D02*
X236299409Y-94500591D01*
X212850000Y-93075000D02*
X213897000Y-92028000D01*
%TO.N,Net-(J15-Pin_3a)*%
X214450000Y-93075000D02*
X215096000Y-92429000D01*
X233450000Y-92429000D02*
X236700000Y-95679000D01*
X215096000Y-92429000D02*
X233450000Y-92429000D01*
%TO.N,Net-(J15-Pin_5b)*%
X242751000Y-94363240D02*
X242751000Y-101309000D01*
X237234760Y-93689000D02*
X242076760Y-93689000D01*
X242751000Y-101309000D02*
X241600000Y-102460000D01*
X235145760Y-91600000D02*
X237234760Y-93689000D01*
X212850000Y-92200000D02*
X212694000Y-92200000D01*
X212850000Y-98888869D02*
X212850000Y-99830001D01*
X212850036Y-98888833D02*
X212850000Y-98888869D01*
X212094000Y-91600000D02*
X235145760Y-91600000D01*
X242076760Y-93689000D02*
X242751000Y-94363240D01*
X212694000Y-92200000D02*
X212094000Y-91600000D01*
%TO.N,Net-(J15-Pin_2a)*%
X201000001Y-103996481D02*
X201101760Y-104098240D01*
X213199000Y-103350000D02*
X213850000Y-104001000D01*
X201000001Y-103283290D02*
X201000001Y-103996481D01*
X210302086Y-103350000D02*
X213199000Y-103350000D01*
X201101760Y-104556760D02*
X201925000Y-105380000D01*
X237487348Y-94840000D02*
X236123674Y-93476326D01*
X208293258Y-101341172D02*
X210302086Y-103350000D01*
X204206784Y-101341172D02*
X208293258Y-101341172D01*
X203657806Y-100792194D02*
X204206784Y-101341172D01*
X239060000Y-94840000D02*
X237487348Y-94840000D01*
X201101760Y-104098240D02*
X201101760Y-104556760D01*
%TO.N,Net-(J15-Pin_5a)*%
X211393000Y-91111936D02*
X211680936Y-90824000D01*
X209700000Y-93105000D02*
X210401000Y-92404000D01*
X211077064Y-92404000D02*
X211393000Y-92088064D01*
X211680936Y-90824000D02*
X235147578Y-90824000D01*
X211393000Y-92088064D02*
X211393000Y-91111936D01*
X210401000Y-92404000D02*
X211077064Y-92404000D01*
X235147578Y-90824000D02*
X236061789Y-91738211D01*
%TO.N,Net-(J15-Pin_3b)*%
X238406382Y-95800000D02*
X237241000Y-95800000D01*
X236159000Y-95800000D02*
X234191000Y-95800000D01*
X239532618Y-95981000D02*
X238587382Y-95981000D01*
X240020000Y-95800000D02*
X239713618Y-95800000D01*
X218631733Y-95800000D02*
X218626853Y-95804880D01*
X236475910Y-96220000D02*
X236159000Y-95903090D01*
X233425910Y-96220000D02*
X233109000Y-95903090D01*
X224300000Y-94600000D02*
X224300000Y-95800000D01*
X237241000Y-95800000D02*
X237241000Y-95903090D01*
X236159000Y-95903090D02*
X236159000Y-95800000D01*
X233874090Y-96220000D02*
X233425910Y-96220000D01*
X237241000Y-95903090D02*
X236924090Y-96220000D01*
X241600000Y-97380000D02*
X240020000Y-95800000D01*
X239713618Y-95800000D02*
X239532618Y-95981000D01*
X224300000Y-95800000D02*
X218631733Y-95800000D01*
X234191000Y-95800000D02*
X234191000Y-95903090D01*
X234191000Y-95903090D02*
X233874090Y-96220000D01*
X218173793Y-95800000D02*
X218161064Y-95800000D01*
X218161064Y-95800000D02*
X217861064Y-95500000D01*
X233109000Y-95800000D02*
X224300000Y-95800000D01*
X218178673Y-95804880D02*
X218173793Y-95800000D01*
X238587382Y-95981000D02*
X238406382Y-95800000D01*
X212755000Y-95500000D02*
X212000000Y-96255000D01*
X233109000Y-95903090D02*
X233109000Y-95800000D01*
X218626853Y-95804880D02*
X218178673Y-95804880D01*
X217861064Y-95500000D02*
X212755000Y-95500000D01*
X236924090Y-96220000D02*
X236475910Y-96220000D01*
%TO.N,Net-(J15-Pin_10a)*%
X227600000Y-108500000D02*
X228325000Y-107775000D01*
X228325000Y-107775000D02*
X228325000Y-106880000D01*
%TO.N,Net-(J15-Pin_1a)*%
X238200000Y-92300000D02*
X237836054Y-92663946D01*
X239060000Y-92300000D02*
X238200000Y-92300000D01*
X224500000Y-102280000D02*
X223600000Y-103180000D01*
X224500000Y-101229890D02*
X224500000Y-102280000D01*
X229878528Y-97230000D02*
X228499890Y-97230000D01*
X228499890Y-97230000D02*
X224500000Y-101229890D01*
%TO.N,/PB0*%
X218349999Y-105830000D02*
X217464979Y-105830000D01*
X217464979Y-105830000D02*
X217449914Y-105845065D01*
%TO.N,Net-(J15-Pin_7b)*%
X233282952Y-96630000D02*
X233509000Y-96630000D01*
X233509000Y-96630000D02*
X237400000Y-100521000D01*
X217300000Y-96330000D02*
X217600000Y-96630000D01*
X217300000Y-96330000D02*
X232982952Y-96330000D01*
X232982952Y-96330000D02*
X233282952Y-96630000D01*
%TO.N,Net-(J15-Pin_8b)*%
X242076760Y-103849000D02*
X242751000Y-104523240D01*
X240332001Y-103057761D02*
X241123240Y-103849000D01*
X217500000Y-93155000D02*
X231126000Y-93155000D01*
X241123240Y-103849000D02*
X242076760Y-103849000D01*
X242751000Y-104523240D02*
X242751000Y-108929000D01*
X240332001Y-102173322D02*
X240332001Y-103057761D01*
X242751000Y-108929000D02*
X241600000Y-110080000D01*
X231126000Y-93155000D02*
X233650000Y-95679000D01*
%TO.N,Net-(J15-Pin_4b)*%
X205970001Y-104829999D02*
X205544002Y-104404000D01*
X202781000Y-106024000D02*
X201925000Y-106880000D01*
X205544002Y-104404000D02*
X204396000Y-104404000D01*
X215670001Y-104829999D02*
X217050000Y-103450000D01*
X206850001Y-104829999D02*
X215670001Y-104829999D01*
X227479000Y-101071000D02*
X240449000Y-101071000D01*
X240449000Y-101071000D02*
X241600000Y-99920000D01*
X203763064Y-106024000D02*
X202781000Y-106024000D01*
X204396000Y-104404000D02*
X204051000Y-104749000D01*
X204051000Y-104749000D02*
X204051000Y-105736064D01*
X206850001Y-104829999D02*
X205970001Y-104829999D01*
X226150000Y-102400000D02*
X227479000Y-101071000D01*
X204051000Y-105736064D02*
X203763064Y-106024000D01*
%TO.N,Net-(J15-Pin_6a)*%
X233500000Y-101700000D02*
X235760000Y-101700000D01*
X209100000Y-92255000D02*
X209537270Y-92255000D01*
X235760000Y-101700000D02*
X239060000Y-105000000D01*
X208200000Y-93155000D02*
X209100000Y-92255000D01*
%TO.N,/PB1*%
X236600000Y-110800000D02*
X236600000Y-111787760D01*
X219829396Y-105179265D02*
X219746416Y-105179265D01*
X238821240Y-114009000D02*
X240449000Y-114009000D01*
X236600000Y-111787760D02*
X238821240Y-114009000D01*
X240449000Y-114009000D02*
X241600000Y-115160000D01*
X219595681Y-105330000D02*
X218349999Y-105330000D01*
X219746416Y-105179265D02*
X219595681Y-105330000D01*
%TO.N,Net-(U1A-PC4)*%
X217478474Y-106830000D02*
X217438914Y-106790440D01*
X218349999Y-106830000D02*
X217478474Y-106830000D01*
X223675000Y-106147659D02*
X223675000Y-106200000D01*
%TO.N,Net-(U1A-PC5)*%
X221654890Y-104800000D02*
X223555000Y-104800000D01*
X218396598Y-106376600D02*
X221153510Y-106376600D01*
X218349999Y-106330001D02*
X218396598Y-106376600D01*
X223555000Y-104800000D02*
X223675000Y-104680000D01*
X221153510Y-106376600D02*
X221524000Y-106006110D01*
X221524000Y-106006110D02*
X221524000Y-104930890D01*
X221524000Y-104930890D02*
X221654890Y-104800000D01*
%TO.N,Net-(U1A-PA0)*%
X213200000Y-113255000D02*
X214349999Y-112105001D01*
X214349999Y-112105001D02*
X214349999Y-111329999D01*
%TO.N,Net-(U1A-PA1)*%
X214700000Y-113280000D02*
X214850001Y-113129999D01*
X214850001Y-113129999D02*
X214850001Y-111329999D01*
%TO.N,Net-(U1A-PB4)*%
X205000000Y-105180000D02*
X205650000Y-105830000D01*
X205650000Y-105830000D02*
X206850001Y-105830000D01*
%TO.N,Net-(U1A-PA10)*%
X210850001Y-98585001D02*
X210170000Y-97905000D01*
X210850001Y-99830001D02*
X210850001Y-98585001D01*
%TO.N,Net-(U1A-PB5)*%
X205000000Y-106680000D02*
X205349999Y-106330001D01*
X205349999Y-106330001D02*
X206850001Y-106330001D01*
%TO.N,Net-(U1A-PB6)*%
X205541000Y-106830000D02*
X205541000Y-107283920D01*
X205541000Y-107283920D02*
X205025000Y-107799920D01*
X205025000Y-107799920D02*
X205025000Y-108500000D01*
X206850001Y-106830000D02*
X205541000Y-106830000D01*
%TO.N,Net-(U1A-PB7)*%
X206840002Y-107329999D02*
X206783400Y-107386601D01*
X206047879Y-107329999D02*
X205885001Y-107492877D01*
X202811000Y-109266000D02*
X201925000Y-108380000D01*
X206850001Y-107329999D02*
X206047879Y-107329999D01*
X205885001Y-108814919D02*
X205433920Y-109266000D01*
X206850001Y-107329999D02*
X206840002Y-107329999D01*
X205885001Y-107492877D02*
X205885001Y-108814919D01*
X205433920Y-109266000D02*
X202811000Y-109266000D01*
%TO.N,Net-(U1A-PB14)*%
X214975000Y-97905000D02*
X215450000Y-97905000D01*
X214850001Y-99830001D02*
X214850001Y-100661302D01*
X214850001Y-99830001D02*
X214850001Y-99068341D01*
X214850001Y-100661302D02*
X214906600Y-100717901D01*
X223600000Y-98600000D02*
X224400000Y-98600000D01*
X224400000Y-98600000D02*
X224900000Y-98100000D01*
X214787199Y-98092801D02*
X214975000Y-97905000D01*
X214906600Y-100717901D02*
X217517099Y-100717901D01*
X214850001Y-99068341D02*
X214787199Y-99005539D01*
X217517099Y-100717901D02*
X217835000Y-100400000D01*
X214787199Y-99005539D02*
X214787199Y-98092801D01*
%TO.N,Net-(U1A-PB15)*%
X228359000Y-94541000D02*
X225741000Y-94541000D01*
X225741000Y-94541000D02*
X225009000Y-93809000D01*
X214349999Y-99830001D02*
X214349999Y-98865788D01*
X214349999Y-98865788D02*
X214237199Y-98752988D01*
X215181222Y-94069966D02*
X215289966Y-94069966D01*
X215289966Y-94069966D02*
X216000000Y-94780000D01*
X216666000Y-94114000D02*
X216000000Y-94780000D01*
X217983920Y-94114000D02*
X216666000Y-94114000D01*
X218288920Y-93809000D02*
X217983920Y-94114000D01*
X228400000Y-94500000D02*
X228359000Y-94541000D01*
X225009000Y-93809000D02*
X218288920Y-93809000D01*
%TO.N,Net-(U1A-PA8)*%
X211300000Y-94855000D02*
X211200000Y-94755000D01*
X211849999Y-99830001D02*
X211849999Y-100681302D01*
X211078088Y-94876912D02*
X211200000Y-94755000D01*
X211654398Y-100876903D02*
X211414996Y-100876903D01*
X206100000Y-98100000D02*
X206000000Y-98200000D01*
X211849999Y-100681302D02*
X211654398Y-100876903D01*
X211078088Y-95485240D02*
X211078088Y-94876912D01*
X206100000Y-97100000D02*
X206100000Y-98100000D01*
%TO.N,Net-(U1A-PB2)*%
X224530000Y-103900000D02*
X225250000Y-103180000D01*
X219414985Y-104829999D02*
X218349999Y-104829999D01*
X224500000Y-103900000D02*
X224530000Y-103900000D01*
X219811809Y-104433175D02*
X219414985Y-104829999D01*
%TO.N,Net-(U1A-PC12)*%
X204324000Y-103488064D02*
X204611936Y-103776000D01*
X199474000Y-104368064D02*
X199695000Y-104589064D01*
X199695000Y-104800000D02*
X200275000Y-105380000D01*
X204324000Y-102324080D02*
X204324000Y-103488064D01*
X202261620Y-100761620D02*
X202761540Y-100761620D01*
X199263871Y-104108820D02*
X199474000Y-104318949D01*
X205710102Y-104003000D02*
X206037102Y-104330000D01*
X199474000Y-104318949D02*
X199474000Y-104368064D01*
X204611936Y-104003000D02*
X205710102Y-104003000D01*
X202761540Y-100761620D02*
X204324000Y-102324080D01*
X206037102Y-104330000D02*
X206850001Y-104330000D01*
X199695000Y-104589064D02*
X199695000Y-104800000D01*
X204611936Y-103776000D02*
X204611936Y-104003000D01*
%TO.N,Net-(U1A-PA12)*%
X210520624Y-100743427D02*
X209890938Y-100743427D01*
X208396162Y-95001162D02*
X208200000Y-94805000D01*
X208775778Y-95001162D02*
X208396162Y-95001162D01*
X209890938Y-100743427D02*
X209850000Y-100702489D01*
X209850000Y-100702489D02*
X209850000Y-99830001D01*
X210665100Y-100887903D02*
X210520624Y-100743427D01*
X208200000Y-94805000D02*
X208325110Y-94805000D01*
%TO.N,Net-(U1A-PC6)*%
X214000000Y-94275000D02*
X214450000Y-94725000D01*
X213850000Y-99830001D02*
X213850000Y-99145021D01*
X214000000Y-93950000D02*
X214000000Y-94275000D01*
X213850000Y-99145021D02*
X213537200Y-98832221D01*
X213537200Y-98832221D02*
X213537200Y-98755386D01*
%TO.N,Net-(U1A-PA9)*%
X211303401Y-99783402D02*
X211350000Y-99830001D01*
X211350000Y-99830001D02*
X211350000Y-98225000D01*
X211350000Y-98225000D02*
X211670000Y-97905000D01*
%TO.N,Net-(U1A-PC7)*%
X213350001Y-99830001D02*
X213350001Y-100675599D01*
X212088591Y-95388591D02*
X212186409Y-95388591D01*
X213350001Y-100675599D02*
X213189385Y-100836215D01*
X212186409Y-95388591D02*
X212850000Y-94725000D01*
%TO.N,Net-(U1A-PA11)*%
X209977299Y-98606000D02*
X209681936Y-98606000D01*
X210310573Y-95365573D02*
X209700000Y-94755000D01*
X209385354Y-98309418D02*
X209385354Y-97362348D01*
X210349999Y-98978700D02*
X209977299Y-98606000D01*
X209385354Y-97362348D02*
X209676718Y-97070984D01*
X210388392Y-95365573D02*
X210310573Y-95365573D01*
X210349999Y-99830001D02*
X210349999Y-98978700D01*
X209681936Y-98606000D02*
X209385354Y-98309418D01*
%TO.N,Net-(U1A-PA2)*%
X215350000Y-112405000D02*
X215350000Y-111329999D01*
X216200000Y-113255000D02*
X215350000Y-112405000D01*
%TO.N,Net-(U1A-PB12)*%
X220200000Y-97300000D02*
X220479000Y-97021000D01*
X215896600Y-98932101D02*
X216347899Y-98932101D01*
X215850001Y-99830001D02*
X215850001Y-98978700D01*
X216347899Y-98932101D02*
X217300000Y-97980000D01*
X217300000Y-98566000D02*
X217434000Y-98700000D01*
X215850001Y-98978700D02*
X215896600Y-98932101D01*
X217300000Y-97980000D02*
X217300000Y-98566000D01*
X219800000Y-97300000D02*
X220200000Y-97300000D01*
X220479000Y-97021000D02*
X221000000Y-97021000D01*
%TO.N,Net-(U1A-PA3)*%
X218349999Y-109330000D02*
X219599999Y-110580000D01*
X219599999Y-110580000D02*
X220375000Y-110580000D01*
%TO.N,Net-(U1A-PB13)*%
X215350000Y-98789108D02*
X215338199Y-98777307D01*
X219066643Y-94600000D02*
X218402763Y-95263880D01*
X217695000Y-95000000D02*
X217500000Y-94805000D01*
X221400000Y-94600000D02*
X219066643Y-94600000D01*
X218402763Y-95263880D02*
X218138883Y-95000000D01*
X218138883Y-95000000D02*
X217695000Y-95000000D01*
X215350000Y-99830001D02*
X215350000Y-98789108D01*
%TO.N,Net-(U1A-PA6)*%
X222872886Y-109429398D02*
X223524398Y-109429398D01*
X218349999Y-107830001D02*
X219456065Y-107830001D01*
X223524398Y-109429398D02*
X223675000Y-109580000D01*
X219456065Y-107830001D02*
X219505065Y-107879001D01*
%TO.N,Net-(U1A-PA7)*%
X219270001Y-107329999D02*
X218349999Y-107329999D01*
X225847287Y-107238659D02*
X226316341Y-107238659D01*
X219500000Y-107100000D02*
X219270001Y-107329999D01*
X226316341Y-107238659D02*
X226675000Y-106880000D01*
%TD*%
%TA.AperFunction,Conductor*%
%TO.N,GND*%
G36*
X243642539Y-90320185D02*
G01*
X243688294Y-90372989D01*
X243699500Y-90424500D01*
X243699500Y-117575500D01*
X243679815Y-117642539D01*
X243627011Y-117688294D01*
X243575500Y-117699500D01*
X212640692Y-117699500D01*
X212573653Y-117679815D01*
X212527898Y-117627011D01*
X212517954Y-117557853D01*
X212546979Y-117494297D01*
X212553011Y-117487819D01*
X214484010Y-115556818D01*
X214545333Y-115523333D01*
X214571691Y-115520499D01*
X215005739Y-115520499D01*
X215005739Y-115520498D01*
X215051454Y-115513258D01*
X215097170Y-115506018D01*
X215097171Y-115506018D01*
X215097172Y-115506017D01*
X215097175Y-115506017D01*
X215207391Y-115449859D01*
X215294859Y-115362391D01*
X215345886Y-115262244D01*
X215393858Y-115211451D01*
X215461679Y-115194656D01*
X215527814Y-115217193D01*
X215566851Y-115262244D01*
X215605141Y-115337391D01*
X215605142Y-115337392D01*
X215605145Y-115337396D01*
X215692603Y-115424854D01*
X215692605Y-115424855D01*
X215692609Y-115424859D01*
X215802825Y-115481017D01*
X215802826Y-115481017D01*
X215802828Y-115481018D01*
X215837947Y-115486579D01*
X215894265Y-115495500D01*
X216505734Y-115495499D01*
X216505739Y-115495499D01*
X216505739Y-115495498D01*
X216551454Y-115488258D01*
X216597170Y-115481018D01*
X216597171Y-115481018D01*
X216597172Y-115481017D01*
X216597175Y-115481017D01*
X216707391Y-115424859D01*
X216794859Y-115337391D01*
X216851017Y-115227175D01*
X216851017Y-115227173D01*
X216851018Y-115227172D01*
X216851018Y-115227171D01*
X216856290Y-115193883D01*
X216865500Y-115135735D01*
X216865499Y-115014499D01*
X216885183Y-114947461D01*
X216937987Y-114901706D01*
X216989499Y-114890500D01*
X232038243Y-114890500D01*
X232038245Y-114890500D01*
X232112129Y-114870703D01*
X232178371Y-114832458D01*
X236020818Y-110990010D01*
X236037256Y-110981034D01*
X236050701Y-110967986D01*
X236067288Y-110964636D01*
X236082139Y-110956527D01*
X236100825Y-110957863D01*
X236119188Y-110954155D01*
X236134951Y-110960303D01*
X236151831Y-110961511D01*
X236166828Y-110972738D01*
X236184281Y-110979546D01*
X236200116Y-110997658D01*
X236207764Y-111003383D01*
X236208862Y-111004873D01*
X236212658Y-111010105D01*
X236247512Y-111070473D01*
X236280109Y-111103070D01*
X236285865Y-111111003D01*
X236294429Y-111135055D01*
X236306666Y-111157465D01*
X236308507Y-111174592D01*
X236309302Y-111176824D01*
X236308922Y-111178451D01*
X236309500Y-111183823D01*
X236309500Y-111749515D01*
X236309500Y-111826005D01*
X236310563Y-111829973D01*
X236329297Y-111899890D01*
X236334846Y-111909500D01*
X236367542Y-111966131D01*
X236367544Y-111966133D01*
X238503575Y-114102164D01*
X238537060Y-114163487D01*
X238532076Y-114233179D01*
X238490204Y-114289112D01*
X238484785Y-114292947D01*
X238396720Y-114351790D01*
X238396716Y-114351793D01*
X238251793Y-114496716D01*
X238251790Y-114496720D01*
X238137918Y-114667140D01*
X238059486Y-114856494D01*
X238059483Y-114856504D01*
X238019500Y-115057515D01*
X238019500Y-115262484D01*
X238059483Y-115463495D01*
X238059486Y-115463505D01*
X238137918Y-115652859D01*
X238251790Y-115823279D01*
X238251793Y-115823283D01*
X238396716Y-115968206D01*
X238396720Y-115968209D01*
X238567138Y-116082080D01*
X238756497Y-116160515D01*
X238902570Y-116189570D01*
X238957515Y-116200499D01*
X238957519Y-116200500D01*
X238957520Y-116200500D01*
X239162481Y-116200500D01*
X239162482Y-116200499D01*
X239363503Y-116160515D01*
X239552862Y-116082080D01*
X239723280Y-115968209D01*
X239868209Y-115823280D01*
X239982080Y-115652862D01*
X240060515Y-115463503D01*
X240100500Y-115262480D01*
X240100500Y-115057520D01*
X240060515Y-114856497D01*
X239982080Y-114667138D01*
X239871858Y-114502181D01*
X239865317Y-114492391D01*
X239844439Y-114425713D01*
X239862923Y-114358333D01*
X239914902Y-114311643D01*
X239968419Y-114299500D01*
X240277309Y-114299500D01*
X240344348Y-114319185D01*
X240364990Y-114335819D01*
X240624719Y-114595548D01*
X240658204Y-114656871D01*
X240653220Y-114726563D01*
X240651599Y-114730681D01*
X240599487Y-114856490D01*
X240599483Y-114856504D01*
X240559500Y-115057515D01*
X240559500Y-115262484D01*
X240599483Y-115463495D01*
X240599486Y-115463505D01*
X240677918Y-115652859D01*
X240791790Y-115823279D01*
X240791793Y-115823283D01*
X240936716Y-115968206D01*
X240936720Y-115968209D01*
X241107138Y-116082080D01*
X241296497Y-116160515D01*
X241442570Y-116189570D01*
X241497515Y-116200499D01*
X241497519Y-116200500D01*
X241497520Y-116200500D01*
X241702481Y-116200500D01*
X241702482Y-116200499D01*
X241903503Y-116160515D01*
X242092862Y-116082080D01*
X242263280Y-115968209D01*
X242408209Y-115823280D01*
X242522080Y-115652862D01*
X242600515Y-115463503D01*
X242640500Y-115262480D01*
X242640500Y-115057520D01*
X242600515Y-114856497D01*
X242522080Y-114667138D01*
X242408209Y-114496720D01*
X242408206Y-114496716D01*
X242263283Y-114351793D01*
X242263279Y-114351790D01*
X242092859Y-114237918D01*
X241923705Y-114167853D01*
X241903503Y-114159485D01*
X241903499Y-114159484D01*
X241903495Y-114159483D01*
X241702484Y-114119500D01*
X241702480Y-114119500D01*
X241497520Y-114119500D01*
X241497515Y-114119500D01*
X241296504Y-114159483D01*
X241296490Y-114159487D01*
X241170681Y-114211599D01*
X241101212Y-114219068D01*
X241038733Y-114187793D01*
X241035548Y-114184719D01*
X240627373Y-113776544D01*
X240627371Y-113776542D01*
X240594250Y-113757419D01*
X240561130Y-113738297D01*
X240517814Y-113726691D01*
X240487245Y-113718500D01*
X240487244Y-113718500D01*
X239697603Y-113718500D01*
X239630564Y-113698815D01*
X239584809Y-113646011D01*
X239574865Y-113576853D01*
X239603890Y-113513297D01*
X239628712Y-113491398D01*
X239648594Y-113478113D01*
X239723280Y-113428209D01*
X239868209Y-113283280D01*
X239982080Y-113112862D01*
X240060515Y-112923503D01*
X240100500Y-112722480D01*
X240100500Y-112517520D01*
X240100499Y-112517515D01*
X240559500Y-112517515D01*
X240559500Y-112722484D01*
X240598309Y-112917591D01*
X240599485Y-112923503D01*
X240608983Y-112946434D01*
X240677918Y-113112859D01*
X240791790Y-113283279D01*
X240791793Y-113283283D01*
X240936716Y-113428206D01*
X240936720Y-113428209D01*
X241107138Y-113542080D01*
X241107139Y-113542080D01*
X241107140Y-113542081D01*
X241142113Y-113556567D01*
X241296497Y-113620515D01*
X241497515Y-113660499D01*
X241497519Y-113660500D01*
X241497520Y-113660500D01*
X241702481Y-113660500D01*
X241702482Y-113660499D01*
X241903503Y-113620515D01*
X242092862Y-113542080D01*
X242263280Y-113428209D01*
X242408209Y-113283280D01*
X242522080Y-113112862D01*
X242600515Y-112923503D01*
X242640500Y-112722480D01*
X242640500Y-112517520D01*
X242600515Y-112316497D01*
X242522080Y-112127138D01*
X242408209Y-111956720D01*
X242408206Y-111956716D01*
X242263283Y-111811793D01*
X242263279Y-111811790D01*
X242092859Y-111697918D01*
X241918452Y-111625677D01*
X241903503Y-111619485D01*
X241903499Y-111619484D01*
X241903495Y-111619483D01*
X241702484Y-111579500D01*
X241702480Y-111579500D01*
X241497520Y-111579500D01*
X241497515Y-111579500D01*
X241296504Y-111619483D01*
X241296494Y-111619486D01*
X241107140Y-111697918D01*
X240936720Y-111811790D01*
X240936716Y-111811793D01*
X240791793Y-111956716D01*
X240791790Y-111956720D01*
X240677918Y-112127140D01*
X240599486Y-112316494D01*
X240599483Y-112316504D01*
X240559500Y-112517515D01*
X240100499Y-112517515D01*
X240060515Y-112316497D01*
X239982080Y-112127138D01*
X239868209Y-111956720D01*
X239868206Y-111956716D01*
X239723283Y-111811793D01*
X239723279Y-111811790D01*
X239552859Y-111697918D01*
X239378452Y-111625677D01*
X239363503Y-111619485D01*
X239363499Y-111619484D01*
X239363495Y-111619483D01*
X239162484Y-111579500D01*
X239162480Y-111579500D01*
X238957520Y-111579500D01*
X238957515Y-111579500D01*
X238756504Y-111619483D01*
X238756494Y-111619486D01*
X238567140Y-111697918D01*
X238396720Y-111811790D01*
X238396716Y-111811793D01*
X238251793Y-111956716D01*
X238251790Y-111956720D01*
X238137918Y-112127140D01*
X238059486Y-112316494D01*
X238059483Y-112316504D01*
X238018483Y-112522626D01*
X237986098Y-112584537D01*
X237925383Y-112619111D01*
X237855613Y-112615372D01*
X237809185Y-112586116D01*
X236926819Y-111703750D01*
X236893334Y-111642427D01*
X236890500Y-111616069D01*
X236890500Y-111183823D01*
X236910185Y-111116784D01*
X236926819Y-111096142D01*
X236935570Y-111087391D01*
X236952488Y-111070473D01*
X237010481Y-110970027D01*
X237040500Y-110857993D01*
X237040500Y-110742007D01*
X237038235Y-110733554D01*
X237039898Y-110663708D01*
X237079060Y-110605845D01*
X237143288Y-110578340D01*
X237174198Y-110578524D01*
X237180913Y-110579408D01*
X237180916Y-110579409D01*
X237180919Y-110579409D01*
X237296900Y-110579409D01*
X237296902Y-110579409D01*
X237408936Y-110549390D01*
X237509382Y-110491397D01*
X237535051Y-110465728D01*
X237596374Y-110432243D01*
X237622732Y-110429409D01*
X237995646Y-110429409D01*
X238062685Y-110449094D01*
X238108440Y-110501898D01*
X238110207Y-110505957D01*
X238137917Y-110572857D01*
X238137918Y-110572858D01*
X238137920Y-110572862D01*
X238196993Y-110661270D01*
X238251790Y-110743279D01*
X238251793Y-110743283D01*
X238396716Y-110888206D01*
X238396720Y-110888209D01*
X238567138Y-111002080D01*
X238567139Y-111002080D01*
X238567140Y-111002081D01*
X238572210Y-111004181D01*
X238756497Y-111080515D01*
X238938838Y-111116784D01*
X238957515Y-111120499D01*
X238957519Y-111120500D01*
X238957520Y-111120500D01*
X239162481Y-111120500D01*
X239162482Y-111120499D01*
X239363503Y-111080515D01*
X239552862Y-111002080D01*
X239723280Y-110888209D01*
X239868209Y-110743280D01*
X239982080Y-110572862D01*
X240060515Y-110383503D01*
X240100500Y-110182480D01*
X240100500Y-109977520D01*
X240060515Y-109776497D01*
X239989369Y-109604736D01*
X239982081Y-109587140D01*
X239978119Y-109581211D01*
X239868209Y-109416720D01*
X239868206Y-109416716D01*
X239723283Y-109271793D01*
X239723279Y-109271790D01*
X239552859Y-109157918D01*
X239388413Y-109089803D01*
X239363503Y-109079485D01*
X239363499Y-109079484D01*
X239363495Y-109079483D01*
X239162484Y-109039500D01*
X239162480Y-109039500D01*
X238957520Y-109039500D01*
X238957515Y-109039500D01*
X238756504Y-109079483D01*
X238756494Y-109079486D01*
X238567140Y-109157918D01*
X238396720Y-109271790D01*
X238396716Y-109271793D01*
X238251793Y-109416716D01*
X238251790Y-109416720D01*
X238137918Y-109587140D01*
X238061405Y-109771862D01*
X238017564Y-109826265D01*
X237951270Y-109848330D01*
X237946844Y-109848409D01*
X237622732Y-109848409D01*
X237555693Y-109828724D01*
X237548447Y-109823695D01*
X237541334Y-109818373D01*
X237509382Y-109786421D01*
X237462282Y-109759227D01*
X237456379Y-109754811D01*
X237439674Y-109732508D01*
X237420448Y-109712344D01*
X237419019Y-109704932D01*
X237414493Y-109698889D01*
X237412497Y-109671092D01*
X237407226Y-109643737D01*
X237410031Y-109636729D01*
X237409491Y-109629198D01*
X237422839Y-109604736D01*
X237433194Y-109578873D01*
X237442954Y-109567876D01*
X237442957Y-109567871D01*
X238495549Y-108515278D01*
X238556870Y-108481795D01*
X238626562Y-108486779D01*
X238630664Y-108488393D01*
X238756497Y-108540515D01*
X238957515Y-108580499D01*
X238957519Y-108580500D01*
X238957520Y-108580500D01*
X239162481Y-108580500D01*
X239162482Y-108580499D01*
X239363503Y-108540515D01*
X239552862Y-108462080D01*
X239723280Y-108348209D01*
X239868209Y-108203280D01*
X239982080Y-108032862D01*
X240060515Y-107843503D01*
X240100500Y-107642480D01*
X240100500Y-107437520D01*
X240060515Y-107236497D01*
X239990982Y-107068629D01*
X239982081Y-107047140D01*
X239980858Y-107045310D01*
X239868209Y-106876720D01*
X239868206Y-106876716D01*
X239723283Y-106731793D01*
X239723279Y-106731790D01*
X239628712Y-106668602D01*
X239583907Y-106614990D01*
X239575200Y-106545665D01*
X239605355Y-106482637D01*
X239664798Y-106445918D01*
X239697603Y-106441500D01*
X240487243Y-106441500D01*
X240487245Y-106441500D01*
X240561129Y-106421703D01*
X240627371Y-106383458D01*
X241035549Y-105975278D01*
X241096870Y-105941795D01*
X241166561Y-105946779D01*
X241170664Y-105948393D01*
X241296497Y-106000515D01*
X241487073Y-106038422D01*
X241497515Y-106040499D01*
X241497519Y-106040500D01*
X241497520Y-106040500D01*
X241702481Y-106040500D01*
X241702482Y-106040499D01*
X241903503Y-106000515D01*
X242092862Y-105922080D01*
X242263280Y-105808209D01*
X242263281Y-105808207D01*
X242267609Y-105805316D01*
X242334286Y-105784438D01*
X242401666Y-105802922D01*
X242448357Y-105854901D01*
X242460500Y-105908418D01*
X242460500Y-106631581D01*
X242440815Y-106698620D01*
X242388011Y-106744375D01*
X242318853Y-106754319D01*
X242267609Y-106734683D01*
X242092859Y-106617918D01*
X241903505Y-106539486D01*
X241903506Y-106539486D01*
X241903503Y-106539485D01*
X241903499Y-106539484D01*
X241903495Y-106539483D01*
X241702484Y-106499500D01*
X241702480Y-106499500D01*
X241497520Y-106499500D01*
X241497515Y-106499500D01*
X241296504Y-106539483D01*
X241296494Y-106539486D01*
X241107140Y-106617918D01*
X240936720Y-106731790D01*
X240936716Y-106731793D01*
X240791793Y-106876716D01*
X240791790Y-106876720D01*
X240677918Y-107047140D01*
X240599486Y-107236494D01*
X240599483Y-107236504D01*
X240559500Y-107437515D01*
X240559500Y-107642484D01*
X240599483Y-107843495D01*
X240599486Y-107843505D01*
X240677918Y-108032859D01*
X240791790Y-108203279D01*
X240791793Y-108203283D01*
X240936716Y-108348206D01*
X240936720Y-108348209D01*
X241107138Y-108462080D01*
X241296497Y-108540515D01*
X241497515Y-108580499D01*
X241497519Y-108580500D01*
X241497520Y-108580500D01*
X241702481Y-108580500D01*
X241702482Y-108580499D01*
X241903503Y-108540515D01*
X242092862Y-108462080D01*
X242263280Y-108348209D01*
X242263281Y-108348207D01*
X242267609Y-108345316D01*
X242334286Y-108324438D01*
X242401666Y-108342922D01*
X242448357Y-108394901D01*
X242460500Y-108448418D01*
X242460500Y-108757308D01*
X242440815Y-108824347D01*
X242424181Y-108844989D01*
X242164451Y-109104719D01*
X242103128Y-109138204D01*
X242033436Y-109133220D01*
X242029317Y-109131599D01*
X242016198Y-109126165D01*
X241903503Y-109079485D01*
X241903499Y-109079484D01*
X241903495Y-109079483D01*
X241702484Y-109039500D01*
X241702480Y-109039500D01*
X241497520Y-109039500D01*
X241497515Y-109039500D01*
X241296504Y-109079483D01*
X241296494Y-109079486D01*
X241107140Y-109157918D01*
X240936720Y-109271790D01*
X240936716Y-109271793D01*
X240791793Y-109416716D01*
X240791790Y-109416720D01*
X240677918Y-109587140D01*
X240599486Y-109776494D01*
X240599483Y-109776504D01*
X240559500Y-109977515D01*
X240559500Y-110182484D01*
X240599483Y-110383495D01*
X240599486Y-110383505D01*
X240677918Y-110572859D01*
X240791790Y-110743279D01*
X240791793Y-110743283D01*
X240936716Y-110888206D01*
X240936720Y-110888209D01*
X241107138Y-111002080D01*
X241107139Y-111002080D01*
X241107140Y-111002081D01*
X241112210Y-111004181D01*
X241296497Y-111080515D01*
X241478838Y-111116784D01*
X241497515Y-111120499D01*
X241497519Y-111120500D01*
X241497520Y-111120500D01*
X241702481Y-111120500D01*
X241702482Y-111120499D01*
X241903503Y-111080515D01*
X242092862Y-111002080D01*
X242263280Y-110888209D01*
X242408209Y-110743280D01*
X242522080Y-110572862D01*
X242600515Y-110383503D01*
X242640500Y-110182480D01*
X242640500Y-109977520D01*
X242600515Y-109776497D01*
X242548399Y-109650679D01*
X242540931Y-109581211D01*
X242572206Y-109518732D01*
X242575248Y-109515579D01*
X242983458Y-109107371D01*
X243021703Y-109041129D01*
X243041500Y-108967245D01*
X243041500Y-108890755D01*
X243041500Y-104484995D01*
X243040711Y-104482052D01*
X243021703Y-104411111D01*
X242983458Y-104344869D01*
X242255131Y-103616542D01*
X242222010Y-103597419D01*
X242188890Y-103578297D01*
X242183365Y-103576816D01*
X242175088Y-103574599D01*
X242115429Y-103538234D01*
X242084901Y-103475387D01*
X242093196Y-103406012D01*
X242137682Y-103352134D01*
X242138154Y-103351816D01*
X242263280Y-103268209D01*
X242408209Y-103123280D01*
X242522080Y-102952862D01*
X242600515Y-102763503D01*
X242640500Y-102562480D01*
X242640500Y-102357520D01*
X242600515Y-102156497D01*
X242548399Y-102030679D01*
X242540931Y-101961211D01*
X242572206Y-101898732D01*
X242575248Y-101895579D01*
X242983458Y-101487371D01*
X243021703Y-101421129D01*
X243041500Y-101347245D01*
X243041500Y-101270755D01*
X243041500Y-94324995D01*
X243040756Y-94322220D01*
X243037348Y-94309500D01*
X243021704Y-94251113D01*
X243021703Y-94251112D01*
X243021703Y-94251111D01*
X242983458Y-94184869D01*
X242255131Y-93456542D01*
X242220850Y-93436750D01*
X242188890Y-93418297D01*
X242180850Y-93416143D01*
X242175088Y-93414599D01*
X242115429Y-93378234D01*
X242084901Y-93315387D01*
X242093196Y-93246012D01*
X242137682Y-93192134D01*
X242138154Y-93191816D01*
X242263280Y-93108209D01*
X242408209Y-92963280D01*
X242522080Y-92792862D01*
X242600515Y-92603503D01*
X242640500Y-92402480D01*
X242640500Y-92197520D01*
X242600515Y-91996497D01*
X242522080Y-91807138D01*
X242408209Y-91636720D01*
X242408206Y-91636716D01*
X242263283Y-91491793D01*
X242263279Y-91491790D01*
X242092859Y-91377918D01*
X241927681Y-91309500D01*
X241903503Y-91299485D01*
X241903499Y-91299484D01*
X241903495Y-91299483D01*
X241702484Y-91259500D01*
X241702480Y-91259500D01*
X241497520Y-91259500D01*
X241497515Y-91259500D01*
X241296504Y-91299483D01*
X241296490Y-91299487D01*
X241170681Y-91351599D01*
X241101212Y-91359068D01*
X241038733Y-91327793D01*
X241035548Y-91324719D01*
X240223010Y-90512181D01*
X240189525Y-90450858D01*
X240194509Y-90381166D01*
X240236381Y-90325233D01*
X240301845Y-90300816D01*
X240310691Y-90300500D01*
X243575500Y-90300500D01*
X243642539Y-90320185D01*
G37*
%TD.AperFunction*%
%TA.AperFunction,Conductor*%
G36*
X211202539Y-113535185D02*
G01*
X211248294Y-113587989D01*
X211259500Y-113639500D01*
X211259500Y-115111500D01*
X211239815Y-115178539D01*
X211187011Y-115224294D01*
X211135500Y-115235500D01*
X187885451Y-115235500D01*
X187818412Y-115215815D01*
X187797770Y-115199181D01*
X187100770Y-114502181D01*
X187067285Y-114440858D01*
X187072269Y-114371166D01*
X187114141Y-114315233D01*
X187179605Y-114290816D01*
X187188451Y-114290500D01*
X209166177Y-114290500D01*
X209233216Y-114310185D01*
X209253858Y-114326819D01*
X209279527Y-114352488D01*
X209379973Y-114410481D01*
X209492007Y-114440500D01*
X209492009Y-114440500D01*
X209607991Y-114440500D01*
X209607993Y-114440500D01*
X209720027Y-114410481D01*
X209820473Y-114352488D01*
X209902488Y-114270473D01*
X209960481Y-114170027D01*
X209990500Y-114057993D01*
X209990500Y-113989500D01*
X210010185Y-113922461D01*
X210062989Y-113876706D01*
X210114500Y-113865500D01*
X210632705Y-113865500D01*
X210729994Y-113850091D01*
X210729995Y-113850090D01*
X210729997Y-113850090D01*
X210847269Y-113790336D01*
X210940336Y-113697269D01*
X210998455Y-113583204D01*
X211008904Y-113572140D01*
X211015227Y-113558297D01*
X211032407Y-113547255D01*
X211046430Y-113532409D01*
X211062109Y-113528167D01*
X211074005Y-113520523D01*
X211108940Y-113515500D01*
X211135500Y-113515500D01*
X211202539Y-113535185D01*
G37*
%TD.AperFunction*%
%TA.AperFunction,Conductor*%
G36*
X215898103Y-110629018D02*
G01*
X215904581Y-110635050D01*
X215970781Y-110701250D01*
X216004266Y-110762573D01*
X216007100Y-110788931D01*
X216007100Y-111945665D01*
X216018152Y-112001227D01*
X216018152Y-112001228D01*
X216060256Y-112064241D01*
X216060257Y-112064242D01*
X216123270Y-112106346D01*
X216178833Y-112117398D01*
X216178836Y-112117399D01*
X216178838Y-112117399D01*
X216521164Y-112117399D01*
X216521165Y-112117398D01*
X216576729Y-112106346D01*
X216639743Y-112064242D01*
X216681847Y-112001228D01*
X216692900Y-111945661D01*
X216692900Y-111744499D01*
X216695450Y-111735813D01*
X216694162Y-111726852D01*
X216705140Y-111702811D01*
X216712585Y-111677460D01*
X216719425Y-111671532D01*
X216723187Y-111663296D01*
X216745421Y-111649006D01*
X216765389Y-111631705D01*
X216775903Y-111629417D01*
X216781965Y-111625522D01*
X216816900Y-111620499D01*
X216910500Y-111620499D01*
X216977539Y-111640184D01*
X217023294Y-111692988D01*
X217034500Y-111744499D01*
X217034500Y-111862705D01*
X217049908Y-111959994D01*
X217109665Y-112077271D01*
X217202728Y-112170334D01*
X217202730Y-112170335D01*
X217202731Y-112170336D01*
X217320003Y-112230090D01*
X217320004Y-112230090D01*
X217320006Y-112230091D01*
X217320005Y-112230091D01*
X217417295Y-112245500D01*
X217417300Y-112245500D01*
X217878309Y-112245500D01*
X217945348Y-112265185D01*
X217965990Y-112281819D01*
X218147181Y-112463010D01*
X218180666Y-112524333D01*
X218183500Y-112550691D01*
X218183500Y-112806308D01*
X218203297Y-112880194D01*
X218204261Y-112881863D01*
X218241542Y-112946435D01*
X218529478Y-113234371D01*
X218583565Y-113288458D01*
X218649807Y-113326703D01*
X218723691Y-113346500D01*
X218723693Y-113346500D01*
X220087243Y-113346500D01*
X220087245Y-113346500D01*
X220161129Y-113326703D01*
X220227371Y-113288458D01*
X220534012Y-112981815D01*
X220595332Y-112948333D01*
X220621681Y-112945499D01*
X221028308Y-112945499D01*
X221095347Y-112965184D01*
X221115989Y-112981818D01*
X221773181Y-113639010D01*
X221806666Y-113700333D01*
X221809500Y-113726691D01*
X221809500Y-114118762D01*
X221817600Y-114159485D01*
X221817963Y-114161307D01*
X221811736Y-114230899D01*
X221768874Y-114286077D01*
X221702984Y-114309322D01*
X221696346Y-114309500D01*
X216543245Y-114309500D01*
X216466755Y-114309500D01*
X216463856Y-114310276D01*
X216431771Y-114314500D01*
X215894260Y-114314500D01*
X215894260Y-114314501D01*
X215802829Y-114328981D01*
X215802828Y-114328981D01*
X215692607Y-114385142D01*
X215692603Y-114385145D01*
X215605145Y-114472603D01*
X215605140Y-114472610D01*
X215554114Y-114572753D01*
X215506139Y-114623548D01*
X215438318Y-114640343D01*
X215372184Y-114617805D01*
X215333147Y-114572753D01*
X215294859Y-114497609D01*
X215294856Y-114497606D01*
X215294854Y-114497603D01*
X215207396Y-114410145D01*
X215207393Y-114410143D01*
X215207391Y-114410141D01*
X215097175Y-114353983D01*
X215097174Y-114353982D01*
X215097171Y-114353981D01*
X215005735Y-114339500D01*
X214394260Y-114339500D01*
X214394260Y-114339501D01*
X214302829Y-114353981D01*
X214302828Y-114353981D01*
X214192607Y-114410142D01*
X214192603Y-114410145D01*
X214105145Y-114497603D01*
X214105140Y-114497610D01*
X214066852Y-114572753D01*
X214018877Y-114623549D01*
X213951056Y-114640343D01*
X213884921Y-114617805D01*
X213845885Y-114572753D01*
X213794859Y-114472609D01*
X213794856Y-114472606D01*
X213794854Y-114472603D01*
X213707396Y-114385145D01*
X213707393Y-114385143D01*
X213707391Y-114385141D01*
X213597175Y-114328983D01*
X213597174Y-114328982D01*
X213597171Y-114328981D01*
X213505735Y-114314500D01*
X212894260Y-114314500D01*
X212894260Y-114314501D01*
X212793186Y-114330509D01*
X212792895Y-114328676D01*
X212734972Y-114330329D01*
X212675141Y-114294246D01*
X212644315Y-114231544D01*
X212642500Y-114210404D01*
X212642500Y-113949595D01*
X212662185Y-113882556D01*
X212714989Y-113836801D01*
X212784147Y-113826857D01*
X212800345Y-113830625D01*
X212846180Y-113837884D01*
X212894265Y-113845500D01*
X213505734Y-113845499D01*
X213505739Y-113845499D01*
X213505739Y-113845498D01*
X213560654Y-113836801D01*
X213597170Y-113831018D01*
X213597171Y-113831018D01*
X213597172Y-113831017D01*
X213597175Y-113831017D01*
X213707391Y-113774859D01*
X213794859Y-113687391D01*
X213833147Y-113612244D01*
X213881120Y-113561451D01*
X213948941Y-113544656D01*
X214015076Y-113567193D01*
X214054113Y-113612244D01*
X214103668Y-113709500D01*
X214105142Y-113712392D01*
X214105145Y-113712396D01*
X214192603Y-113799854D01*
X214192605Y-113799855D01*
X214192609Y-113799859D01*
X214302825Y-113856017D01*
X214302826Y-113856017D01*
X214302828Y-113856018D01*
X214337947Y-113861579D01*
X214394265Y-113870500D01*
X215005734Y-113870499D01*
X215005739Y-113870499D01*
X215005739Y-113870498D01*
X215051454Y-113863258D01*
X215097170Y-113856018D01*
X215097171Y-113856018D01*
X215097172Y-113856017D01*
X215097175Y-113856017D01*
X215207391Y-113799859D01*
X215294859Y-113712391D01*
X215345886Y-113612244D01*
X215393858Y-113561451D01*
X215461679Y-113544656D01*
X215527814Y-113567193D01*
X215566851Y-113612244D01*
X215605141Y-113687391D01*
X215605142Y-113687392D01*
X215605145Y-113687396D01*
X215692603Y-113774854D01*
X215692605Y-113774855D01*
X215692609Y-113774859D01*
X215802825Y-113831017D01*
X215802826Y-113831017D01*
X215802828Y-113831018D01*
X215837947Y-113836579D01*
X215894265Y-113845500D01*
X216505734Y-113845499D01*
X216505739Y-113845499D01*
X216505739Y-113845498D01*
X216560654Y-113836801D01*
X216597170Y-113831018D01*
X216597171Y-113831018D01*
X216597172Y-113831017D01*
X216597175Y-113831017D01*
X216707391Y-113774859D01*
X216794859Y-113687391D01*
X216851017Y-113577175D01*
X216851017Y-113577173D01*
X216851018Y-113577172D01*
X216851018Y-113577171D01*
X216856575Y-113542081D01*
X216865500Y-113485735D01*
X216865499Y-113024266D01*
X216865499Y-113024265D01*
X216865499Y-113024260D01*
X216851018Y-112932829D01*
X216851018Y-112932828D01*
X216851017Y-112932826D01*
X216851017Y-112932825D01*
X216794859Y-112822609D01*
X216794857Y-112822607D01*
X216794854Y-112822603D01*
X216707396Y-112735145D01*
X216707393Y-112735143D01*
X216707391Y-112735141D01*
X216597175Y-112678983D01*
X216597174Y-112678982D01*
X216597171Y-112678981D01*
X216505735Y-112664500D01*
X216071691Y-112664500D01*
X216004652Y-112644815D01*
X215984010Y-112628181D01*
X215676819Y-112320990D01*
X215662115Y-112294062D01*
X215645523Y-112268244D01*
X215644631Y-112262043D01*
X215643334Y-112259667D01*
X215640500Y-112233309D01*
X215640500Y-112100724D01*
X215660185Y-112033685D01*
X215661398Y-112031833D01*
X215681847Y-112001228D01*
X215681847Y-112001227D01*
X215690049Y-111959994D01*
X215692900Y-111945661D01*
X215692900Y-110722731D01*
X215712585Y-110655692D01*
X215765389Y-110609937D01*
X215834547Y-110599993D01*
X215898103Y-110629018D01*
G37*
%TD.AperFunction*%
%TA.AperFunction,Conductor*%
G36*
X184622539Y-107369003D02*
G01*
X184668294Y-107421807D01*
X184679500Y-107473318D01*
X184679500Y-107642484D01*
X184719483Y-107843495D01*
X184719486Y-107843505D01*
X184797918Y-108032859D01*
X184911790Y-108203279D01*
X184911793Y-108203283D01*
X185056716Y-108348206D01*
X185056720Y-108348209D01*
X185227138Y-108462080D01*
X185416497Y-108540515D01*
X185617515Y-108580499D01*
X185617519Y-108580500D01*
X185617520Y-108580500D01*
X185822481Y-108580500D01*
X185822482Y-108580499D01*
X186023503Y-108540515D01*
X186212862Y-108462080D01*
X186383280Y-108348209D01*
X186528209Y-108203280D01*
X186642080Y-108032862D01*
X186720515Y-107843503D01*
X186760500Y-107642480D01*
X186760500Y-107528509D01*
X186780185Y-107461470D01*
X186832989Y-107415715D01*
X186902147Y-107405771D01*
X186965703Y-107434796D01*
X186972181Y-107440828D01*
X189844272Y-110312919D01*
X189877757Y-110374242D01*
X189878968Y-110380602D01*
X189880591Y-110390533D01*
X189880591Y-110436902D01*
X189900014Y-110509393D01*
X189901013Y-110515502D01*
X189897438Y-110544274D01*
X189896748Y-110573257D01*
X189893183Y-110578524D01*
X189892398Y-110584838D01*
X189873835Y-110607108D01*
X189857585Y-110631119D01*
X189851736Y-110633623D01*
X189847664Y-110638510D01*
X189820009Y-110647209D01*
X189793357Y-110658623D01*
X189781480Y-110659330D01*
X189781015Y-110659477D01*
X189780657Y-110659379D01*
X189778636Y-110659500D01*
X186791772Y-110659500D01*
X186724733Y-110639815D01*
X186678978Y-110587011D01*
X186669034Y-110517853D01*
X186677211Y-110488047D01*
X186693346Y-110449094D01*
X186720515Y-110383503D01*
X186760500Y-110182480D01*
X186760500Y-109977520D01*
X186720515Y-109776497D01*
X186649369Y-109604736D01*
X186642081Y-109587140D01*
X186638119Y-109581211D01*
X186528209Y-109416720D01*
X186528206Y-109416716D01*
X186383283Y-109271793D01*
X186383279Y-109271790D01*
X186212859Y-109157918D01*
X186048413Y-109089803D01*
X186023503Y-109079485D01*
X186023499Y-109079484D01*
X186023495Y-109079483D01*
X185822484Y-109039500D01*
X185822480Y-109039500D01*
X185617520Y-109039500D01*
X185617515Y-109039500D01*
X185416504Y-109079483D01*
X185416494Y-109079486D01*
X185227140Y-109157918D01*
X185056720Y-109271790D01*
X185056716Y-109271793D01*
X184911793Y-109416716D01*
X184911790Y-109416720D01*
X184797918Y-109587140D01*
X184719486Y-109776494D01*
X184719483Y-109776504D01*
X184679500Y-109977515D01*
X184679500Y-110182484D01*
X184719483Y-110383495D01*
X184719486Y-110383505D01*
X184797918Y-110572859D01*
X184911790Y-110743279D01*
X184911793Y-110743283D01*
X185056716Y-110888206D01*
X185056720Y-110888209D01*
X185227138Y-111002080D01*
X185227139Y-111002080D01*
X185227140Y-111002081D01*
X185232210Y-111004181D01*
X185416497Y-111080515D01*
X185598838Y-111116784D01*
X185617515Y-111120499D01*
X185617519Y-111120500D01*
X185617520Y-111120500D01*
X185822481Y-111120500D01*
X185822482Y-111120499D01*
X186023503Y-111080515D01*
X186149320Y-111028399D01*
X186218786Y-111020931D01*
X186281265Y-111052206D01*
X186284451Y-111055280D01*
X186411629Y-111182458D01*
X186477871Y-111220703D01*
X186551755Y-111240500D01*
X186628245Y-111240500D01*
X190555280Y-111240500D01*
X190622319Y-111260185D01*
X190662667Y-111302499D01*
X190718603Y-111399382D01*
X190800618Y-111481397D01*
X190901064Y-111539390D01*
X191013098Y-111569409D01*
X191013100Y-111569409D01*
X191129082Y-111569409D01*
X191129084Y-111569409D01*
X191241118Y-111539390D01*
X191341564Y-111481397D01*
X191423579Y-111399382D01*
X191447087Y-111358664D01*
X191497654Y-111310449D01*
X191566261Y-111297226D01*
X191631126Y-111323194D01*
X191642155Y-111332984D01*
X191818542Y-111509371D01*
X191872629Y-111563458D01*
X191938871Y-111601703D01*
X192012755Y-111621500D01*
X193045106Y-111621500D01*
X193112145Y-111641185D01*
X193157900Y-111693989D01*
X193167844Y-111763147D01*
X193152493Y-111807499D01*
X193139521Y-111829965D01*
X193139520Y-111829970D01*
X193139519Y-111829972D01*
X193139519Y-111829973D01*
X193109500Y-111942007D01*
X193109500Y-112057993D01*
X193118290Y-112090797D01*
X193139519Y-112170028D01*
X193154897Y-112196662D01*
X193197512Y-112270473D01*
X193279527Y-112352488D01*
X193379973Y-112410481D01*
X193492007Y-112440500D01*
X193528309Y-112440500D01*
X193595348Y-112460185D01*
X193615990Y-112476819D01*
X194542542Y-113403371D01*
X194596629Y-113457458D01*
X194632405Y-113478113D01*
X194680620Y-113528681D01*
X194693842Y-113597288D01*
X194667874Y-113662152D01*
X194610960Y-113702680D01*
X194570404Y-113709500D01*
X187271691Y-113709500D01*
X187204652Y-113689815D01*
X187184010Y-113673181D01*
X186695280Y-113184451D01*
X186661795Y-113123128D01*
X186666779Y-113053436D01*
X186668377Y-113049374D01*
X186720515Y-112923503D01*
X186760500Y-112722480D01*
X186760500Y-112517520D01*
X186720515Y-112316497D01*
X186642080Y-112127138D01*
X186528209Y-111956720D01*
X186528206Y-111956716D01*
X186383283Y-111811793D01*
X186383279Y-111811790D01*
X186212859Y-111697918D01*
X186038452Y-111625677D01*
X186023503Y-111619485D01*
X186023499Y-111619484D01*
X186023495Y-111619483D01*
X185822484Y-111579500D01*
X185822480Y-111579500D01*
X185617520Y-111579500D01*
X185617515Y-111579500D01*
X185416504Y-111619483D01*
X185416494Y-111619486D01*
X185227140Y-111697918D01*
X185056720Y-111811790D01*
X185056716Y-111811793D01*
X184911793Y-111956716D01*
X184911790Y-111956720D01*
X184797918Y-112127140D01*
X184719486Y-112316494D01*
X184719483Y-112316504D01*
X184679500Y-112517515D01*
X184679500Y-112722484D01*
X184718309Y-112917591D01*
X184719485Y-112923503D01*
X184728983Y-112946434D01*
X184797918Y-113112859D01*
X184911790Y-113283279D01*
X184911793Y-113283283D01*
X185026329Y-113397819D01*
X185059814Y-113459142D01*
X185054830Y-113528834D01*
X185012958Y-113584767D01*
X184947494Y-113609184D01*
X184938648Y-113609500D01*
X184401755Y-113609500D01*
X184327869Y-113629297D01*
X184261629Y-113667542D01*
X184261626Y-113667544D01*
X183744451Y-114184719D01*
X183683128Y-114218204D01*
X183613436Y-114213220D01*
X183609317Y-114211599D01*
X183605903Y-114210185D01*
X183483503Y-114159485D01*
X183483499Y-114159484D01*
X183483495Y-114159483D01*
X183282484Y-114119500D01*
X183282480Y-114119500D01*
X183077520Y-114119500D01*
X183077515Y-114119500D01*
X182876504Y-114159483D01*
X182876494Y-114159486D01*
X182687140Y-114237918D01*
X182516720Y-114351790D01*
X182516716Y-114351793D01*
X182403181Y-114465329D01*
X182341858Y-114498814D01*
X182272166Y-114493830D01*
X182216233Y-114451958D01*
X182191816Y-114386494D01*
X182191500Y-114377648D01*
X182191500Y-113402352D01*
X182211185Y-113335313D01*
X182263989Y-113289558D01*
X182333147Y-113279614D01*
X182396703Y-113308639D01*
X182403181Y-113314671D01*
X182516716Y-113428206D01*
X182516720Y-113428209D01*
X182687138Y-113542080D01*
X182687139Y-113542080D01*
X182687140Y-113542081D01*
X182722113Y-113556567D01*
X182876497Y-113620515D01*
X183077515Y-113660499D01*
X183077519Y-113660500D01*
X183077520Y-113660500D01*
X183282481Y-113660500D01*
X183282482Y-113660499D01*
X183483503Y-113620515D01*
X183672862Y-113542080D01*
X183843280Y-113428209D01*
X183988209Y-113283280D01*
X184102080Y-113112862D01*
X184180515Y-112923503D01*
X184220500Y-112722480D01*
X184220500Y-112517520D01*
X184180515Y-112316497D01*
X184102080Y-112127138D01*
X183988209Y-111956720D01*
X183988206Y-111956716D01*
X183843283Y-111811793D01*
X183843279Y-111811790D01*
X183672859Y-111697918D01*
X183498452Y-111625677D01*
X183483503Y-111619485D01*
X183483499Y-111619484D01*
X183483495Y-111619483D01*
X183282484Y-111579500D01*
X183282480Y-111579500D01*
X183077520Y-111579500D01*
X183077515Y-111579500D01*
X182876504Y-111619483D01*
X182876494Y-111619486D01*
X182687140Y-111697918D01*
X182516720Y-111811790D01*
X182516716Y-111811793D01*
X182403181Y-111925329D01*
X182341858Y-111958814D01*
X182272166Y-111953830D01*
X182216233Y-111911958D01*
X182191816Y-111846494D01*
X182191500Y-111837648D01*
X182191500Y-110862352D01*
X182211185Y-110795313D01*
X182263989Y-110749558D01*
X182333147Y-110739614D01*
X182396703Y-110768639D01*
X182403181Y-110774671D01*
X182516716Y-110888206D01*
X182516720Y-110888209D01*
X182687138Y-111002080D01*
X182687139Y-111002080D01*
X182687140Y-111002081D01*
X182692210Y-111004181D01*
X182876497Y-111080515D01*
X183058838Y-111116784D01*
X183077515Y-111120499D01*
X183077519Y-111120500D01*
X183077520Y-111120500D01*
X183282481Y-111120500D01*
X183282482Y-111120499D01*
X183483503Y-111080515D01*
X183672862Y-111002080D01*
X183843280Y-110888209D01*
X183988209Y-110743280D01*
X184102080Y-110572862D01*
X184180515Y-110383503D01*
X184220500Y-110182480D01*
X184220500Y-109977520D01*
X184180515Y-109776497D01*
X184109369Y-109604736D01*
X184102081Y-109587140D01*
X184098119Y-109581211D01*
X183988209Y-109416720D01*
X183988206Y-109416716D01*
X183843283Y-109271793D01*
X183843279Y-109271790D01*
X183672859Y-109157918D01*
X183508413Y-109089803D01*
X183483503Y-109079485D01*
X183483499Y-109079484D01*
X183483495Y-109079483D01*
X183282484Y-109039500D01*
X183282480Y-109039500D01*
X183077520Y-109039500D01*
X183077515Y-109039500D01*
X182876504Y-109079483D01*
X182876494Y-109079486D01*
X182687140Y-109157918D01*
X182516720Y-109271790D01*
X182516716Y-109271793D01*
X182403181Y-109385329D01*
X182341858Y-109418814D01*
X182272166Y-109413830D01*
X182216233Y-109371958D01*
X182191816Y-109306494D01*
X182191500Y-109297648D01*
X182191500Y-108322352D01*
X182211185Y-108255313D01*
X182263989Y-108209558D01*
X182333147Y-108199614D01*
X182396703Y-108228639D01*
X182403181Y-108234671D01*
X182516716Y-108348206D01*
X182516720Y-108348209D01*
X182687138Y-108462080D01*
X182876497Y-108540515D01*
X183077515Y-108580499D01*
X183077519Y-108580500D01*
X183077520Y-108580500D01*
X183282481Y-108580500D01*
X183282482Y-108580499D01*
X183483503Y-108540515D01*
X183672862Y-108462080D01*
X183843280Y-108348209D01*
X183988209Y-108203280D01*
X184102080Y-108032862D01*
X184180515Y-107843503D01*
X184203294Y-107728983D01*
X184221689Y-107636505D01*
X184223115Y-107636788D01*
X184246548Y-107578735D01*
X184256113Y-107567989D01*
X184438465Y-107385636D01*
X184465392Y-107370933D01*
X184491211Y-107354341D01*
X184497411Y-107353449D01*
X184499788Y-107352152D01*
X184526146Y-107349318D01*
X184555500Y-107349318D01*
X184622539Y-107369003D01*
G37*
%TD.AperFunction*%
%TA.AperFunction,Conductor*%
G36*
X218297747Y-109692585D02*
G01*
X218318389Y-109709219D01*
X219367541Y-110758371D01*
X219421628Y-110812458D01*
X219487870Y-110850703D01*
X219561754Y-110870500D01*
X219676181Y-110870500D01*
X219743220Y-110890185D01*
X219788975Y-110942989D01*
X219798654Y-110975100D01*
X219798983Y-110977175D01*
X219855141Y-111087391D01*
X219855142Y-111087392D01*
X219855145Y-111087396D01*
X219942603Y-111174854D01*
X219942605Y-111174855D01*
X219942609Y-111174859D01*
X220052825Y-111231017D01*
X220052826Y-111231017D01*
X220052828Y-111231018D01*
X220087947Y-111236579D01*
X220144265Y-111245500D01*
X220605734Y-111245499D01*
X220605739Y-111245499D01*
X220605739Y-111245498D01*
X220651454Y-111238258D01*
X220697170Y-111231018D01*
X220697171Y-111231018D01*
X220697172Y-111231017D01*
X220697175Y-111231017D01*
X220807391Y-111174859D01*
X220894859Y-111087391D01*
X220951017Y-110977175D01*
X220951017Y-110977173D01*
X220951018Y-110977172D01*
X220951018Y-110977171D01*
X220959786Y-110921809D01*
X220965500Y-110885735D01*
X220965499Y-110274266D01*
X220965499Y-110274265D01*
X220965499Y-110274261D01*
X220951615Y-110186602D01*
X220960570Y-110117309D01*
X221005566Y-110063857D01*
X221072317Y-110043217D01*
X221099629Y-110045863D01*
X221118970Y-110049934D01*
X221161871Y-110074703D01*
X221235755Y-110094500D01*
X221312245Y-110094500D01*
X221330696Y-110094500D01*
X221343328Y-110097159D01*
X221363191Y-110107832D01*
X221384826Y-110114185D01*
X221393374Y-110124050D01*
X221404875Y-110130230D01*
X221415815Y-110149948D01*
X221430581Y-110166989D01*
X221432438Y-110179909D01*
X221438773Y-110191326D01*
X221437315Y-110213828D01*
X221440525Y-110236147D01*
X221440260Y-110237898D01*
X221434500Y-110274265D01*
X221434500Y-110885739D01*
X221448981Y-110977170D01*
X221448981Y-110977171D01*
X221448982Y-110977174D01*
X221448983Y-110977175D01*
X221501637Y-111080515D01*
X221505142Y-111087392D01*
X221505145Y-111087396D01*
X221592603Y-111174854D01*
X221592605Y-111174855D01*
X221592609Y-111174859D01*
X221682581Y-111220702D01*
X221702827Y-111231018D01*
X221766836Y-111241156D01*
X221829971Y-111271085D01*
X221835119Y-111275948D01*
X222937542Y-112378371D01*
X222991629Y-112432458D01*
X223057871Y-112470703D01*
X223131755Y-112490500D01*
X223131757Y-112490500D01*
X233399308Y-112490500D01*
X233466347Y-112510185D01*
X233512102Y-112562989D01*
X233522046Y-112632147D01*
X233493021Y-112695703D01*
X233486989Y-112702181D01*
X231915990Y-114273181D01*
X231854667Y-114306666D01*
X231828309Y-114309500D01*
X223303654Y-114309500D01*
X223236615Y-114289815D01*
X223190860Y-114237011D01*
X223180916Y-114167853D01*
X223182037Y-114161307D01*
X223182400Y-114159485D01*
X223190500Y-114118762D01*
X223190500Y-113081238D01*
X223190500Y-113081235D01*
X223190499Y-113081233D01*
X223179447Y-113025671D01*
X223179447Y-113025670D01*
X223137343Y-112962657D01*
X223137342Y-112962656D01*
X223074329Y-112920552D01*
X223018765Y-112909500D01*
X223018762Y-112909500D01*
X221981238Y-112909500D01*
X221981237Y-112909500D01*
X221949562Y-112915800D01*
X221879971Y-112909571D01*
X221837692Y-112881863D01*
X221451818Y-112495989D01*
X221418333Y-112434666D01*
X221415499Y-112408308D01*
X221415499Y-111974260D01*
X221401018Y-111882829D01*
X221401018Y-111882828D01*
X221401017Y-111882826D01*
X221401017Y-111882825D01*
X221344859Y-111772609D01*
X221344857Y-111772607D01*
X221344854Y-111772603D01*
X221257396Y-111685145D01*
X221257393Y-111685143D01*
X221257391Y-111685141D01*
X221147175Y-111628983D01*
X221147174Y-111628982D01*
X221147171Y-111628981D01*
X221055735Y-111614500D01*
X220594260Y-111614500D01*
X220594260Y-111614501D01*
X220502829Y-111628981D01*
X220502828Y-111628981D01*
X220392607Y-111685142D01*
X220392603Y-111685145D01*
X220305145Y-111772603D01*
X220305143Y-111772607D01*
X220305141Y-111772609D01*
X220303995Y-111774859D01*
X220248981Y-111882827D01*
X220248981Y-111882828D01*
X220234500Y-111974264D01*
X220234500Y-112408308D01*
X220214815Y-112475347D01*
X220198181Y-112495989D01*
X219970816Y-112723353D01*
X219909493Y-112756838D01*
X219839801Y-112751854D01*
X219783868Y-112709982D01*
X219759451Y-112644518D01*
X219760661Y-112616283D01*
X219765500Y-112585735D01*
X219765499Y-111974266D01*
X219765499Y-111974264D01*
X219765499Y-111974260D01*
X219751018Y-111882829D01*
X219751018Y-111882828D01*
X219751017Y-111882826D01*
X219751017Y-111882825D01*
X219694859Y-111772609D01*
X219694857Y-111772607D01*
X219694854Y-111772603D01*
X219607396Y-111685145D01*
X219607392Y-111685142D01*
X219607391Y-111685141D01*
X219580682Y-111671532D01*
X219533204Y-111647340D01*
X219482409Y-111599365D01*
X219465500Y-111536856D01*
X219465500Y-111468058D01*
X219465500Y-111468056D01*
X219445703Y-111394172D01*
X219407458Y-111327930D01*
X219353371Y-111273843D01*
X217964109Y-109884581D01*
X217953496Y-109865144D01*
X217938996Y-109848411D01*
X217937079Y-109835079D01*
X217930624Y-109823258D01*
X217932203Y-109801171D01*
X217929052Y-109779253D01*
X217934647Y-109767001D01*
X217935608Y-109753566D01*
X217948878Y-109735839D01*
X217958077Y-109715697D01*
X217969408Y-109708414D01*
X217977480Y-109697633D01*
X217998225Y-109689895D01*
X218016855Y-109677923D01*
X218038773Y-109674771D01*
X218042944Y-109673216D01*
X218051790Y-109672900D01*
X218230708Y-109672900D01*
X218297747Y-109692585D01*
G37*
%TD.AperFunction*%
%TA.AperFunction,Conductor*%
G36*
X208450139Y-110610185D02*
G01*
X208495894Y-110662989D01*
X208507100Y-110714500D01*
X208507100Y-111945665D01*
X208518152Y-112001227D01*
X208518152Y-112001228D01*
X208560256Y-112064241D01*
X208560257Y-112064242D01*
X208623270Y-112106346D01*
X208678833Y-112117398D01*
X208678836Y-112117399D01*
X208678838Y-112117399D01*
X209021163Y-112117399D01*
X209034824Y-112114681D01*
X209075809Y-112106529D01*
X209124190Y-112106529D01*
X209160620Y-112113775D01*
X209178836Y-112117399D01*
X209178837Y-112117399D01*
X209521162Y-112117399D01*
X209539377Y-112113775D01*
X209575808Y-112106529D01*
X209624191Y-112106529D01*
X209678836Y-112117399D01*
X209678838Y-112117399D01*
X210021163Y-112117399D01*
X210034824Y-112114681D01*
X210075809Y-112106529D01*
X210124190Y-112106529D01*
X210160620Y-112113775D01*
X210178836Y-112117399D01*
X210178837Y-112117399D01*
X210521162Y-112117399D01*
X210575808Y-112106529D01*
X210624192Y-112106529D01*
X210678837Y-112117399D01*
X210678839Y-112117399D01*
X211021164Y-112117399D01*
X211034825Y-112114681D01*
X211075810Y-112106528D01*
X211077323Y-112106461D01*
X211078033Y-112106107D01*
X211084060Y-112106162D01*
X211113305Y-112104862D01*
X211122541Y-112105858D01*
X211123271Y-112106346D01*
X211178838Y-112117399D01*
X211229476Y-112117399D01*
X211236111Y-112118115D01*
X211262469Y-112129045D01*
X211289845Y-112137084D01*
X211294327Y-112142256D01*
X211300651Y-112144879D01*
X211316917Y-112168327D01*
X211335600Y-112189888D01*
X211336574Y-112196662D01*
X211340476Y-112202287D01*
X211341483Y-112230803D01*
X211345544Y-112259046D01*
X211342717Y-112265756D01*
X211342942Y-112272113D01*
X211332961Y-112288918D01*
X211321182Y-112316885D01*
X211317544Y-112321625D01*
X211279297Y-112387869D01*
X211259500Y-112461755D01*
X211259500Y-112653308D01*
X211250855Y-112682748D01*
X211244332Y-112712735D01*
X211240577Y-112717750D01*
X211239815Y-112720347D01*
X211223181Y-112740989D01*
X211152527Y-112811643D01*
X211091204Y-112845128D01*
X211021512Y-112840144D01*
X210965579Y-112798272D01*
X210954361Y-112780257D01*
X210946842Y-112765500D01*
X210940336Y-112752731D01*
X210940335Y-112752730D01*
X210940334Y-112752728D01*
X210847271Y-112659665D01*
X210729993Y-112599908D01*
X210729994Y-112599908D01*
X210632705Y-112584500D01*
X210632700Y-112584500D01*
X210067300Y-112584500D01*
X210067295Y-112584500D01*
X209970005Y-112599908D01*
X209852728Y-112659665D01*
X209759665Y-112752728D01*
X209736459Y-112798272D01*
X209711321Y-112847609D01*
X209701545Y-112866795D01*
X209653570Y-112917591D01*
X209591060Y-112934500D01*
X194946691Y-112934500D01*
X194879652Y-112914815D01*
X194859010Y-112898181D01*
X194026819Y-112065990D01*
X193994375Y-112009065D01*
X193990500Y-111993930D01*
X193990500Y-111942007D01*
X193960481Y-111829973D01*
X193938993Y-111792755D01*
X193934769Y-111776256D01*
X193935418Y-111757672D01*
X193931034Y-111739599D01*
X193936614Y-111723477D01*
X193937210Y-111706429D01*
X193947804Y-111691146D01*
X193953887Y-111673572D01*
X193967298Y-111663025D01*
X193977016Y-111649007D01*
X193994188Y-111641878D01*
X194008808Y-111630382D01*
X194033217Y-111625677D01*
X194041547Y-111622220D01*
X194046521Y-111623113D01*
X194054894Y-111621500D01*
X207207243Y-111621500D01*
X207207245Y-111621500D01*
X207281129Y-111601703D01*
X207347371Y-111563458D01*
X208284010Y-110626819D01*
X208310937Y-110612115D01*
X208336756Y-110595523D01*
X208342956Y-110594631D01*
X208345333Y-110593334D01*
X208371691Y-110590500D01*
X208383100Y-110590500D01*
X208450139Y-110610185D01*
G37*
%TD.AperFunction*%
%TA.AperFunction,Conductor*%
G36*
X238489436Y-106461185D02*
G01*
X238535191Y-106513989D01*
X238545135Y-106583147D01*
X238516110Y-106646703D01*
X238491288Y-106668602D01*
X238396720Y-106731790D01*
X238396716Y-106731793D01*
X238251793Y-106876716D01*
X238251790Y-106876720D01*
X238137918Y-107047140D01*
X238059486Y-107236494D01*
X238059483Y-107236504D01*
X238019500Y-107437515D01*
X238019500Y-107642484D01*
X238057694Y-107834500D01*
X238059485Y-107843503D01*
X238111599Y-107969317D01*
X238119068Y-108038785D01*
X238087793Y-108101265D01*
X238084719Y-108104450D01*
X236232154Y-109957015D01*
X236170831Y-109990500D01*
X236101139Y-109985516D01*
X236045206Y-109943644D01*
X236037093Y-109931345D01*
X236013579Y-109890618D01*
X235931564Y-109808603D01*
X235873726Y-109775210D01*
X235831119Y-109750610D01*
X235748332Y-109728428D01*
X235719084Y-109720591D01*
X235603098Y-109720591D01*
X235491062Y-109750610D01*
X235390618Y-109808603D01*
X235390615Y-109808605D01*
X235308605Y-109890615D01*
X235308603Y-109890618D01*
X235250610Y-109991062D01*
X235220591Y-110103098D01*
X235220591Y-110139400D01*
X235200906Y-110206439D01*
X235184272Y-110227081D01*
X233538172Y-111873181D01*
X233476849Y-111906666D01*
X233450491Y-111909500D01*
X224172113Y-111909500D01*
X224105074Y-111889815D01*
X224059319Y-111837011D01*
X224049375Y-111767853D01*
X224078400Y-111704297D01*
X224084432Y-111697819D01*
X224094854Y-111687396D01*
X224094859Y-111687391D01*
X224151017Y-111577175D01*
X224151017Y-111577173D01*
X224151018Y-111577172D01*
X224151018Y-111577171D01*
X224154901Y-111552650D01*
X224165500Y-111485735D01*
X224165499Y-111051690D01*
X224185183Y-110984652D01*
X224201818Y-110964010D01*
X224471074Y-110694755D01*
X224532397Y-110661270D01*
X224558755Y-110658436D01*
X228278067Y-110658436D01*
X228278069Y-110658436D01*
X228351953Y-110638639D01*
X228418195Y-110600394D01*
X232540770Y-106477819D01*
X232602093Y-106444334D01*
X232628451Y-106441500D01*
X238422397Y-106441500D01*
X238489436Y-106461185D01*
G37*
%TD.AperFunction*%
%TA.AperFunction,Conductor*%
G36*
X224377452Y-104326041D02*
G01*
X224382146Y-104325367D01*
X224396581Y-104328328D01*
X224442007Y-104340500D01*
X224442009Y-104340500D01*
X224557991Y-104340500D01*
X224557993Y-104340500D01*
X224557994Y-104340499D01*
X224566049Y-104339439D01*
X224566391Y-104342039D01*
X224623242Y-104343386D01*
X224681110Y-104382542D01*
X224708621Y-104446767D01*
X224709500Y-104461503D01*
X224709500Y-105005739D01*
X224723981Y-105097170D01*
X224723981Y-105097171D01*
X224723982Y-105097174D01*
X224723983Y-105097175D01*
X224778159Y-105203502D01*
X224780142Y-105207392D01*
X224780145Y-105207396D01*
X224867603Y-105294854D01*
X224867605Y-105294855D01*
X224867609Y-105294859D01*
X224967753Y-105345885D01*
X225018548Y-105393859D01*
X225035343Y-105461680D01*
X225012806Y-105527815D01*
X224967753Y-105566853D01*
X224892609Y-105605141D01*
X224892608Y-105605142D01*
X224892603Y-105605145D01*
X224805145Y-105692603D01*
X224805143Y-105692607D01*
X224805141Y-105692609D01*
X224793573Y-105715313D01*
X224748981Y-105802827D01*
X224748981Y-105802828D01*
X224734500Y-105894264D01*
X224734500Y-106505739D01*
X224748981Y-106597170D01*
X224748981Y-106597171D01*
X224748982Y-106597174D01*
X224748983Y-106597175D01*
X224785830Y-106669492D01*
X224805142Y-106707392D01*
X224805145Y-106707396D01*
X224892603Y-106794854D01*
X224892605Y-106794855D01*
X224892609Y-106794859D01*
X225002825Y-106851017D01*
X225002826Y-106851017D01*
X225002828Y-106851018D01*
X225037947Y-106856579D01*
X225094265Y-106865500D01*
X225339311Y-106865499D01*
X225406349Y-106885183D01*
X225452104Y-106937987D01*
X225462048Y-107007146D01*
X225446697Y-107051499D01*
X225436807Y-107068628D01*
X225436807Y-107068629D01*
X225436806Y-107068631D01*
X225436806Y-107068632D01*
X225406787Y-107180666D01*
X225406787Y-107296652D01*
X225415136Y-107327812D01*
X225436806Y-107408687D01*
X225453453Y-107437519D01*
X225494799Y-107509132D01*
X225576814Y-107591147D01*
X225677260Y-107649140D01*
X225789294Y-107679159D01*
X225789296Y-107679159D01*
X225905278Y-107679159D01*
X225905280Y-107679159D01*
X226017314Y-107649140D01*
X226117760Y-107591147D01*
X226143429Y-107565478D01*
X226170356Y-107550774D01*
X226196175Y-107534182D01*
X226202375Y-107533290D01*
X226204752Y-107531993D01*
X226231110Y-107529159D01*
X226278096Y-107529159D01*
X226331335Y-107529159D01*
X226350733Y-107530686D01*
X226374865Y-107534507D01*
X226444265Y-107545500D01*
X226905734Y-107545499D01*
X226905739Y-107545499D01*
X226905739Y-107545498D01*
X226959303Y-107537015D01*
X226997170Y-107531018D01*
X226997171Y-107531018D01*
X226997172Y-107531017D01*
X226997175Y-107531017D01*
X227107391Y-107474859D01*
X227194859Y-107387391D01*
X227251017Y-107277175D01*
X227251017Y-107277173D01*
X227251018Y-107277172D01*
X227251018Y-107277171D01*
X227259565Y-107223205D01*
X227265500Y-107185735D01*
X227265499Y-106574266D01*
X227265499Y-106574264D01*
X227265499Y-106574260D01*
X227251018Y-106482829D01*
X227251018Y-106482828D01*
X227251017Y-106482826D01*
X227251017Y-106482825D01*
X227227052Y-106435792D01*
X227214157Y-106367126D01*
X227240433Y-106302385D01*
X227297539Y-106262128D01*
X227337538Y-106255500D01*
X227662462Y-106255500D01*
X227729501Y-106275185D01*
X227775256Y-106327989D01*
X227785200Y-106397147D01*
X227772946Y-106435796D01*
X227748982Y-106482825D01*
X227748981Y-106482828D01*
X227734500Y-106574264D01*
X227734500Y-107185739D01*
X227748981Y-107277170D01*
X227748981Y-107277171D01*
X227748982Y-107277174D01*
X227748983Y-107277175D01*
X227805140Y-107387390D01*
X227805142Y-107387392D01*
X227805145Y-107387396D01*
X227892603Y-107474854D01*
X227892605Y-107474855D01*
X227892609Y-107474859D01*
X227953656Y-107505964D01*
X228004451Y-107553938D01*
X228021246Y-107621759D01*
X227998708Y-107687894D01*
X227985041Y-107704129D01*
X227665990Y-108023181D01*
X227604667Y-108056666D01*
X227578309Y-108059500D01*
X227542007Y-108059500D01*
X227429971Y-108089519D01*
X227329527Y-108147512D01*
X227329524Y-108147514D01*
X227247514Y-108229524D01*
X227247512Y-108229527D01*
X227189519Y-108329971D01*
X227172122Y-108394901D01*
X227159500Y-108442007D01*
X227159500Y-108557993D01*
X227170756Y-108600003D01*
X227189519Y-108670028D01*
X227205265Y-108697300D01*
X227247512Y-108770473D01*
X227329527Y-108852488D01*
X227429973Y-108910481D01*
X227542007Y-108940500D01*
X227542009Y-108940500D01*
X227657991Y-108940500D01*
X227657993Y-108940500D01*
X227770027Y-108910481D01*
X227870473Y-108852488D01*
X227952488Y-108770473D01*
X228010481Y-108670027D01*
X228040500Y-108557993D01*
X228040500Y-108521691D01*
X228060185Y-108454652D01*
X228076819Y-108434010D01*
X228316569Y-108194260D01*
X228557458Y-107953371D01*
X228595703Y-107887129D01*
X228615500Y-107813245D01*
X228615500Y-107736755D01*
X228615500Y-107623143D01*
X228635185Y-107556104D01*
X228683203Y-107512659D01*
X228757391Y-107474859D01*
X228844859Y-107387391D01*
X228901017Y-107277175D01*
X228901017Y-107277173D01*
X228901018Y-107277172D01*
X228901018Y-107277171D01*
X228909565Y-107223205D01*
X228915500Y-107185735D01*
X228915499Y-106574266D01*
X228915499Y-106574264D01*
X228915499Y-106574260D01*
X228901018Y-106482829D01*
X228901018Y-106482828D01*
X228901017Y-106482826D01*
X228901017Y-106482825D01*
X228877052Y-106435792D01*
X228864157Y-106367126D01*
X228890433Y-106302385D01*
X228947539Y-106262128D01*
X228987538Y-106255500D01*
X229811244Y-106255500D01*
X229878283Y-106275185D01*
X229924038Y-106327989D01*
X229925805Y-106332047D01*
X229977918Y-106457859D01*
X230091790Y-106628279D01*
X230091793Y-106628283D01*
X230236716Y-106773206D01*
X230236720Y-106773209D01*
X230407138Y-106887080D01*
X230407139Y-106887080D01*
X230407140Y-106887081D01*
X230442113Y-106901567D01*
X230596497Y-106965515D01*
X230775711Y-107001162D01*
X230797515Y-107005499D01*
X230797519Y-107005500D01*
X230892068Y-107005500D01*
X230959107Y-107025185D01*
X231004862Y-107077989D01*
X231014806Y-107147147D01*
X230985781Y-107210703D01*
X230979749Y-107217181D01*
X228786034Y-109410895D01*
X228724711Y-109444380D01*
X228655019Y-109439396D01*
X228599086Y-109397524D01*
X228590973Y-109385225D01*
X228567459Y-109344498D01*
X228485444Y-109262483D01*
X228416977Y-109222953D01*
X228384999Y-109204490D01*
X228311886Y-109184900D01*
X228272964Y-109174471D01*
X228156978Y-109174471D01*
X228044942Y-109204490D01*
X227944497Y-109262483D01*
X227942686Y-109263874D01*
X227940880Y-109264571D01*
X227937460Y-109266547D01*
X227937152Y-109266013D01*
X227877517Y-109289070D01*
X227867197Y-109289500D01*
X226023819Y-109289500D01*
X225956780Y-109269815D01*
X225911025Y-109217011D01*
X225901346Y-109184900D01*
X225901201Y-109183991D01*
X225901017Y-109182825D01*
X225844859Y-109072609D01*
X225844857Y-109072607D01*
X225844854Y-109072603D01*
X225757396Y-108985145D01*
X225757393Y-108985143D01*
X225757391Y-108985141D01*
X225647175Y-108928983D01*
X225647174Y-108928982D01*
X225647171Y-108928981D01*
X225555735Y-108914500D01*
X225094260Y-108914500D01*
X225094260Y-108914501D01*
X225002829Y-108928981D01*
X225002828Y-108928981D01*
X224892607Y-108985142D01*
X224892603Y-108985145D01*
X224805145Y-109072603D01*
X224805143Y-109072607D01*
X224805141Y-109072609D01*
X224801637Y-109079486D01*
X224748981Y-109182827D01*
X224748981Y-109182828D01*
X224734500Y-109274264D01*
X224734500Y-109885738D01*
X224742151Y-109934038D01*
X224739755Y-109952578D01*
X224742416Y-109971083D01*
X224735370Y-109986510D01*
X224733197Y-110003331D01*
X224721157Y-110017632D01*
X224713391Y-110034639D01*
X224699121Y-110043809D01*
X224688200Y-110056783D01*
X224670341Y-110062305D01*
X224654613Y-110072413D01*
X224622909Y-110076971D01*
X224621449Y-110077423D01*
X224619678Y-110077436D01*
X224380323Y-110077436D01*
X224313284Y-110057751D01*
X224267529Y-110004947D01*
X224257585Y-109935789D01*
X224257849Y-109934039D01*
X224258418Y-109930448D01*
X224265500Y-109885735D01*
X224265499Y-109274266D01*
X224265499Y-109274264D01*
X224265499Y-109274260D01*
X224251018Y-109182829D01*
X224251018Y-109182828D01*
X224251017Y-109182826D01*
X224251017Y-109182825D01*
X224194859Y-109072609D01*
X224194857Y-109072607D01*
X224194854Y-109072603D01*
X224107396Y-108985145D01*
X224107392Y-108985142D01*
X224107391Y-108985141D01*
X224080209Y-108971291D01*
X224019746Y-108940483D01*
X223968951Y-108892509D01*
X223952156Y-108824688D01*
X223974694Y-108758553D01*
X224019743Y-108719517D01*
X224107391Y-108674859D01*
X224194859Y-108587391D01*
X224251017Y-108477175D01*
X224251017Y-108477173D01*
X224251018Y-108477172D01*
X224251018Y-108477171D01*
X224258211Y-108431754D01*
X224265500Y-108385735D01*
X224265499Y-107774266D01*
X224265499Y-107774265D01*
X224265499Y-107774260D01*
X224251018Y-107682829D01*
X224251018Y-107682828D01*
X224251017Y-107682826D01*
X224251017Y-107682825D01*
X224194859Y-107572609D01*
X224194857Y-107572607D01*
X224194854Y-107572603D01*
X224107396Y-107485145D01*
X224107393Y-107485143D01*
X224107391Y-107485141D01*
X223997175Y-107428983D01*
X223997174Y-107428982D01*
X223997171Y-107428981D01*
X223905735Y-107414500D01*
X223621801Y-107414500D01*
X223554762Y-107394815D01*
X223534120Y-107378181D01*
X223201249Y-107045310D01*
X223167764Y-106983987D01*
X223172748Y-106914295D01*
X223214620Y-106858362D01*
X223280084Y-106833945D01*
X223345226Y-106847145D01*
X223352825Y-106851017D01*
X223352828Y-106851018D01*
X223387947Y-106856579D01*
X223444265Y-106865500D01*
X223905734Y-106865499D01*
X223905739Y-106865499D01*
X223905739Y-106865498D01*
X223951454Y-106858258D01*
X223997170Y-106851018D01*
X223997171Y-106851018D01*
X223997172Y-106851017D01*
X223997175Y-106851017D01*
X224107391Y-106794859D01*
X224194859Y-106707391D01*
X224251017Y-106597175D01*
X224251017Y-106597173D01*
X224251018Y-106597172D01*
X224251018Y-106597171D01*
X224258597Y-106549318D01*
X224265500Y-106505735D01*
X224265499Y-105894266D01*
X224265499Y-105894264D01*
X224265499Y-105894260D01*
X224251018Y-105802829D01*
X224251018Y-105802828D01*
X224251017Y-105802826D01*
X224251017Y-105802825D01*
X224194859Y-105692609D01*
X224194857Y-105692607D01*
X224194854Y-105692603D01*
X224107396Y-105605145D01*
X224107387Y-105605138D01*
X224007247Y-105554114D01*
X223956451Y-105506140D01*
X223939656Y-105438319D01*
X223962194Y-105372184D01*
X224007244Y-105333148D01*
X224082391Y-105294859D01*
X224169859Y-105207391D01*
X224226017Y-105097175D01*
X224226017Y-105097173D01*
X224226018Y-105097172D01*
X224226018Y-105097171D01*
X224232092Y-105058820D01*
X224240500Y-105005735D01*
X224240499Y-104448104D01*
X224247542Y-104424115D01*
X224250511Y-104399291D01*
X224257216Y-104391170D01*
X224260183Y-104381066D01*
X224279078Y-104364693D01*
X224294997Y-104345414D01*
X224305027Y-104342207D01*
X224312987Y-104335311D01*
X224337734Y-104331752D01*
X224361550Y-104324140D01*
X224377452Y-104326041D01*
G37*
%TD.AperFunction*%
%TA.AperFunction,Conductor*%
G36*
X222344458Y-107014185D02*
G01*
X222365100Y-107030819D01*
X223048181Y-107713900D01*
X223081666Y-107775223D01*
X223084500Y-107801581D01*
X223084500Y-108385739D01*
X223098981Y-108477170D01*
X223098981Y-108477171D01*
X223098982Y-108477174D01*
X223098983Y-108477175D01*
X223151629Y-108580499D01*
X223155142Y-108587392D01*
X223155145Y-108587396D01*
X223242603Y-108674854D01*
X223242605Y-108674855D01*
X223242609Y-108674859D01*
X223330253Y-108719515D01*
X223334731Y-108723745D01*
X223340647Y-108725461D01*
X223359831Y-108747451D01*
X223381048Y-108767490D01*
X223382528Y-108773469D01*
X223386579Y-108778112D01*
X223390828Y-108806986D01*
X223397843Y-108835311D01*
X223395855Y-108841141D01*
X223396753Y-108847237D01*
X223384717Y-108873825D01*
X223375305Y-108901446D01*
X223369835Y-108906703D01*
X223367941Y-108910889D01*
X223354509Y-108921436D01*
X223341345Y-108934091D01*
X223335967Y-108937572D01*
X223242609Y-108985141D01*
X223206105Y-109021644D01*
X223195088Y-109028777D01*
X223173669Y-109035143D01*
X223154056Y-109045853D01*
X223140826Y-109044906D01*
X223128115Y-109048685D01*
X223106654Y-109042461D01*
X223084365Y-109040867D01*
X223065699Y-109032072D01*
X223042918Y-109018919D01*
X223042915Y-109018918D01*
X223042914Y-109018917D01*
X223042913Y-109018917D01*
X222930879Y-108988898D01*
X222814893Y-108988898D01*
X222702857Y-109018917D01*
X222602413Y-109076910D01*
X222602410Y-109076912D01*
X222520400Y-109158922D01*
X222520398Y-109158925D01*
X222462405Y-109259369D01*
X222432386Y-109371405D01*
X222432386Y-109389500D01*
X222412701Y-109456539D01*
X222359897Y-109502294D01*
X222308386Y-109513500D01*
X221445691Y-109513500D01*
X221378652Y-109493815D01*
X221358010Y-109477181D01*
X221126819Y-109245990D01*
X221093334Y-109184667D01*
X221090500Y-109158309D01*
X221090500Y-108697294D01*
X221075091Y-108600005D01*
X221068664Y-108587391D01*
X221015336Y-108482731D01*
X221015335Y-108482730D01*
X221015334Y-108482728D01*
X220922271Y-108389665D01*
X220893060Y-108374781D01*
X220825748Y-108340483D01*
X220774954Y-108292510D01*
X220758159Y-108224689D01*
X220780697Y-108158554D01*
X220825748Y-108119516D01*
X220922269Y-108070336D01*
X221015336Y-107977269D01*
X221075090Y-107859997D01*
X221075090Y-107859995D01*
X221075091Y-107859994D01*
X221090500Y-107762705D01*
X221090500Y-107576581D01*
X221110185Y-107509542D01*
X221126819Y-107488900D01*
X221584900Y-107030819D01*
X221646223Y-106997334D01*
X221672581Y-106994500D01*
X222277419Y-106994500D01*
X222344458Y-107014185D01*
G37*
%TD.AperFunction*%
%TA.AperFunction,Conductor*%
G36*
X216228834Y-104784509D02*
G01*
X216284767Y-104826381D01*
X216309184Y-104891845D01*
X216309500Y-104900691D01*
X216309500Y-107161755D01*
X216309500Y-107238245D01*
X216319398Y-107275187D01*
X216329297Y-107312130D01*
X216345242Y-107339746D01*
X216367542Y-107378371D01*
X216367544Y-107378373D01*
X216723181Y-107734010D01*
X216756666Y-107795333D01*
X216759500Y-107821691D01*
X216759500Y-107857993D01*
X216763415Y-107872603D01*
X216789519Y-107970028D01*
X216807496Y-108001164D01*
X216847512Y-108070473D01*
X216929527Y-108152488D01*
X216929528Y-108152489D01*
X216929530Y-108152490D01*
X217002501Y-108194620D01*
X217050717Y-108245187D01*
X217063939Y-108313794D01*
X217037971Y-108378659D01*
X217028182Y-108389688D01*
X216046504Y-109371365D01*
X215985181Y-109404850D01*
X215915489Y-109399866D01*
X215859556Y-109357994D01*
X215851443Y-109345695D01*
X215827929Y-109304968D01*
X215745914Y-109222953D01*
X215688518Y-109189815D01*
X215645469Y-109164960D01*
X215589451Y-109149950D01*
X215533434Y-109134941D01*
X215533433Y-109134941D01*
X215497132Y-109134941D01*
X215430093Y-109115256D01*
X215409451Y-109098622D01*
X215408373Y-109097544D01*
X215408371Y-109097542D01*
X215372639Y-109076912D01*
X215342130Y-109059297D01*
X215291813Y-109045815D01*
X215268245Y-109039500D01*
X215268244Y-109039500D01*
X207620726Y-109039500D01*
X207553687Y-109019815D01*
X207551835Y-109018602D01*
X207521230Y-108998152D01*
X207465666Y-108987100D01*
X207465663Y-108987100D01*
X206299263Y-108987100D01*
X206290362Y-108984486D01*
X206281175Y-108985774D01*
X206257370Y-108974798D01*
X206232224Y-108967415D01*
X206226149Y-108960404D01*
X206217724Y-108956520D01*
X206203631Y-108934417D01*
X206186469Y-108914611D01*
X206184151Y-108903865D01*
X206180161Y-108897607D01*
X206178731Y-108878731D01*
X206175264Y-108862654D01*
X206175295Y-108853931D01*
X206175501Y-108853164D01*
X206175501Y-108796732D01*
X206175502Y-108796454D01*
X206185429Y-108763088D01*
X206195186Y-108729861D01*
X206195360Y-108729709D01*
X206195427Y-108729486D01*
X206221929Y-108706687D01*
X206247990Y-108684106D01*
X206248244Y-108684050D01*
X206248395Y-108683921D01*
X206249646Y-108683745D01*
X206299501Y-108672900D01*
X207465665Y-108672900D01*
X207465666Y-108672899D01*
X207521230Y-108661847D01*
X207584244Y-108619743D01*
X207626348Y-108556729D01*
X207637401Y-108501162D01*
X207637401Y-108158838D01*
X207636138Y-108152490D01*
X207629579Y-108119515D01*
X207626531Y-108104191D01*
X207626531Y-108055809D01*
X207637401Y-108001163D01*
X207637401Y-107658839D01*
X207637401Y-107658836D01*
X207626531Y-107604192D01*
X207626531Y-107555808D01*
X207637401Y-107501163D01*
X207637401Y-107158835D01*
X207626838Y-107105734D01*
X207626531Y-107104190D01*
X207626531Y-107055808D01*
X207637192Y-107002213D01*
X207637401Y-107001163D01*
X207637401Y-106658836D01*
X207626531Y-106604193D01*
X207626531Y-106555809D01*
X207637401Y-106501163D01*
X207637401Y-106219282D01*
X207657086Y-106152243D01*
X207709890Y-106106488D01*
X207779048Y-106096544D01*
X207793475Y-106099502D01*
X207880266Y-106122758D01*
X207880269Y-106122758D01*
X208009416Y-106122758D01*
X208009418Y-106122758D01*
X208134168Y-106089332D01*
X208246016Y-106024756D01*
X208337340Y-105933432D01*
X208401916Y-105821584D01*
X208435342Y-105696834D01*
X208435342Y-105567682D01*
X208401916Y-105442932D01*
X208337340Y-105331084D01*
X208337335Y-105331079D01*
X208332393Y-105324638D01*
X208333749Y-105323597D01*
X208304951Y-105270857D01*
X208309935Y-105201165D01*
X208351807Y-105145232D01*
X208417271Y-105120815D01*
X208426117Y-105120499D01*
X215708244Y-105120499D01*
X215708246Y-105120499D01*
X215782130Y-105100702D01*
X215848372Y-105062457D01*
X216097819Y-104813010D01*
X216159142Y-104779525D01*
X216228834Y-104784509D01*
G37*
%TD.AperFunction*%
%TA.AperFunction,Conductor*%
G36*
X194106461Y-105668184D02*
G01*
X194109597Y-105667734D01*
X194117132Y-105670342D01*
X194133568Y-105673665D01*
X194144186Y-105677448D01*
X194199507Y-105709388D01*
X194337921Y-105746475D01*
X194342618Y-105748149D01*
X194367014Y-105765857D01*
X194392753Y-105781546D01*
X194394999Y-105786170D01*
X194399162Y-105789192D01*
X194410110Y-105817276D01*
X194423283Y-105844392D01*
X194422672Y-105849499D01*
X194424540Y-105854290D01*
X194425000Y-105864956D01*
X194425000Y-106435000D01*
X194936588Y-106435000D01*
X195003627Y-106454685D01*
X195049382Y-106507489D01*
X195059326Y-106576647D01*
X195030301Y-106640203D01*
X194998590Y-106666386D01*
X194902944Y-106721608D01*
X194898889Y-106723949D01*
X194898886Y-106723951D01*
X194807567Y-106815270D01*
X194807565Y-106815273D01*
X194742989Y-106927120D01*
X194711431Y-107044899D01*
X194675066Y-107104560D01*
X194612219Y-107135089D01*
X194542844Y-107126794D01*
X194522765Y-107115908D01*
X194402003Y-107035217D01*
X194264459Y-106978245D01*
X194264451Y-106978243D01*
X194118443Y-106949200D01*
X194118440Y-106949200D01*
X193969560Y-106949200D01*
X193969557Y-106949200D01*
X193823548Y-106978243D01*
X193823540Y-106978245D01*
X193685995Y-107035218D01*
X193671983Y-107044579D01*
X193671968Y-107044590D01*
X193562206Y-107117932D01*
X193486927Y-107193210D01*
X193486912Y-107193223D01*
X193456935Y-107223201D01*
X193456931Y-107223205D01*
X193374217Y-107346995D01*
X193317245Y-107484540D01*
X193317243Y-107484548D01*
X193288200Y-107630555D01*
X193288200Y-107779444D01*
X193317243Y-107925451D01*
X193317245Y-107925459D01*
X193374217Y-108063004D01*
X193456931Y-108186794D01*
X193562205Y-108292068D01*
X193685995Y-108374782D01*
X193754767Y-108403268D01*
X193823541Y-108431755D01*
X193907312Y-108448418D01*
X193969555Y-108460799D01*
X193969558Y-108460800D01*
X193969560Y-108460800D01*
X194118442Y-108460800D01*
X194118443Y-108460799D01*
X194264459Y-108431755D01*
X194402006Y-108374781D01*
X194525794Y-108292068D01*
X194631068Y-108186794D01*
X194713781Y-108063006D01*
X194770755Y-107925459D01*
X194799800Y-107779440D01*
X194799800Y-107666510D01*
X194819485Y-107599471D01*
X194872289Y-107553716D01*
X194941447Y-107543772D01*
X194985803Y-107559125D01*
X195010733Y-107573519D01*
X195010734Y-107573519D01*
X195010737Y-107573521D01*
X195135487Y-107606947D01*
X195135489Y-107606947D01*
X195196200Y-107606947D01*
X195263239Y-107626632D01*
X195308994Y-107679436D01*
X195320200Y-107730947D01*
X195320200Y-107779444D01*
X195349243Y-107925451D01*
X195349245Y-107925459D01*
X195406217Y-108063004D01*
X195488931Y-108186794D01*
X195594205Y-108292068D01*
X195717995Y-108374782D01*
X195786767Y-108403268D01*
X195855541Y-108431755D01*
X195939312Y-108448418D01*
X196001555Y-108460799D01*
X196001558Y-108460800D01*
X196001560Y-108460800D01*
X196150442Y-108460800D01*
X196150443Y-108460799D01*
X196296459Y-108431755D01*
X196434006Y-108374781D01*
X196557794Y-108292068D01*
X196663068Y-108186794D01*
X196745781Y-108063006D01*
X196802755Y-107925459D01*
X196831800Y-107779440D01*
X196831800Y-107630560D01*
X196831800Y-107630557D01*
X196831799Y-107630555D01*
X196820272Y-107572607D01*
X196802755Y-107484541D01*
X196773313Y-107413461D01*
X196745782Y-107346995D01*
X196663068Y-107223205D01*
X196628313Y-107188450D01*
X196594828Y-107127127D01*
X196599812Y-107057435D01*
X196641684Y-107001502D01*
X196707148Y-106977085D01*
X196775421Y-106991937D01*
X196788877Y-107000449D01*
X196841109Y-107038398D01*
X196940709Y-107089146D01*
X197044179Y-107141868D01*
X197044182Y-107141869D01*
X197152559Y-107177082D01*
X197260938Y-107212296D01*
X197486044Y-107247950D01*
X197486045Y-107247950D01*
X197713955Y-107247950D01*
X197713956Y-107247950D01*
X197939062Y-107212296D01*
X198155820Y-107141868D01*
X198358891Y-107038398D01*
X198543276Y-106904434D01*
X198647819Y-106799891D01*
X198709142Y-106766406D01*
X198778834Y-106771390D01*
X198834767Y-106813262D01*
X198859184Y-106878726D01*
X198859500Y-106887572D01*
X198859500Y-107410653D01*
X198839815Y-107477692D01*
X198823181Y-107498334D01*
X197848334Y-108473181D01*
X197787011Y-108506666D01*
X197760653Y-108509500D01*
X197724351Y-108509500D01*
X197612315Y-108539519D01*
X197511871Y-108597512D01*
X197511868Y-108597514D01*
X197429858Y-108679524D01*
X197429856Y-108679527D01*
X197371863Y-108779971D01*
X197357658Y-108832988D01*
X197341844Y-108892007D01*
X197341844Y-109007993D01*
X197354012Y-109053408D01*
X197352350Y-109123256D01*
X197313188Y-109181119D01*
X197248959Y-109208623D01*
X197234238Y-109209500D01*
X193004895Y-109209500D01*
X192937856Y-109189815D01*
X192892101Y-109137011D01*
X192882157Y-109067853D01*
X192885118Y-109053415D01*
X192897289Y-109007993D01*
X192897289Y-108892007D01*
X192867270Y-108779973D01*
X192809277Y-108679527D01*
X192727262Y-108597512D01*
X192677039Y-108568515D01*
X192626817Y-108539519D01*
X192560280Y-108521691D01*
X192514782Y-108509500D01*
X192514781Y-108509500D01*
X192478480Y-108509500D01*
X192411441Y-108489815D01*
X192390799Y-108473181D01*
X191298369Y-107380751D01*
X191264884Y-107319428D01*
X191262050Y-107293070D01*
X191262050Y-106889122D01*
X191281735Y-106822083D01*
X191334539Y-106776328D01*
X191403697Y-106766384D01*
X191467253Y-106795409D01*
X191473731Y-106801441D01*
X191576724Y-106904434D01*
X191761109Y-107038398D01*
X191860709Y-107089146D01*
X191964179Y-107141868D01*
X191964182Y-107141869D01*
X192072559Y-107177082D01*
X192180938Y-107212296D01*
X192406044Y-107247950D01*
X192406045Y-107247950D01*
X192633955Y-107247950D01*
X192633956Y-107247950D01*
X192859062Y-107212296D01*
X193075820Y-107141868D01*
X193278891Y-107038398D01*
X193463276Y-106904434D01*
X193624434Y-106743276D01*
X193758398Y-106558891D01*
X193861868Y-106355820D01*
X193932296Y-106139062D01*
X193967950Y-105913956D01*
X193967950Y-105790472D01*
X193976348Y-105761869D01*
X193982255Y-105732654D01*
X193986085Y-105728708D01*
X193987635Y-105723433D01*
X194010159Y-105703915D01*
X194030927Y-105682527D01*
X194036283Y-105681278D01*
X194040439Y-105677678D01*
X194069942Y-105673435D01*
X194098974Y-105666671D01*
X194106461Y-105668184D01*
G37*
%TD.AperFunction*%
%TA.AperFunction,Conductor*%
G36*
X223009197Y-105094787D02*
G01*
X223024402Y-105094136D01*
X223042040Y-105104431D01*
X223061634Y-105110185D01*
X223072530Y-105122229D01*
X223084744Y-105129358D01*
X223105077Y-105158202D01*
X223130141Y-105207391D01*
X223130143Y-105207393D01*
X223130145Y-105207396D01*
X223217603Y-105294854D01*
X223217605Y-105294855D01*
X223217609Y-105294859D01*
X223317753Y-105345885D01*
X223368548Y-105393859D01*
X223385343Y-105461680D01*
X223362806Y-105527815D01*
X223317753Y-105566853D01*
X223242609Y-105605141D01*
X223242608Y-105605142D01*
X223242603Y-105605145D01*
X223155145Y-105692603D01*
X223155143Y-105692607D01*
X223155141Y-105692609D01*
X223143573Y-105715313D01*
X223098981Y-105802827D01*
X223098981Y-105802828D01*
X223084500Y-105894264D01*
X223084500Y-106505739D01*
X223098981Y-106597170D01*
X223098982Y-106597173D01*
X223098983Y-106597175D01*
X223101991Y-106603079D01*
X223102856Y-106604776D01*
X223115752Y-106673446D01*
X223089475Y-106738186D01*
X223032368Y-106778442D01*
X222962562Y-106781434D01*
X222904690Y-106748751D01*
X222627483Y-106471544D01*
X222627481Y-106471542D01*
X222580356Y-106444334D01*
X222561240Y-106433297D01*
X222517969Y-106421703D01*
X222487355Y-106413500D01*
X222487354Y-106413500D01*
X221826801Y-106413500D01*
X221759762Y-106393815D01*
X221714007Y-106341011D01*
X221704063Y-106271853D01*
X221733088Y-106208297D01*
X221739120Y-106201819D01*
X221743386Y-106197553D01*
X221756458Y-106184481D01*
X221794703Y-106118239D01*
X221814500Y-106044355D01*
X221814500Y-105967865D01*
X221814500Y-105214500D01*
X221834185Y-105147461D01*
X221886989Y-105101706D01*
X221938500Y-105090500D01*
X222994595Y-105090500D01*
X223009197Y-105094787D01*
G37*
%TD.AperFunction*%
%TA.AperFunction,Conductor*%
G36*
X233040763Y-101381185D02*
G01*
X233086518Y-101433989D01*
X233096462Y-101503147D01*
X233091281Y-101522030D01*
X233091623Y-101522122D01*
X233089519Y-101529971D01*
X233089519Y-101529973D01*
X233059500Y-101642007D01*
X233059500Y-101757993D01*
X233068773Y-101792601D01*
X233089519Y-101870028D01*
X233106237Y-101898983D01*
X233147512Y-101970473D01*
X233229527Y-102052488D01*
X233329973Y-102110481D01*
X233442007Y-102140500D01*
X233442009Y-102140500D01*
X233557991Y-102140500D01*
X233557993Y-102140500D01*
X233670027Y-102110481D01*
X233770473Y-102052488D01*
X233796142Y-102026819D01*
X233857465Y-101993334D01*
X233883823Y-101990500D01*
X235588309Y-101990500D01*
X235655348Y-102010185D01*
X235675990Y-102026819D01*
X238084719Y-104435548D01*
X238118204Y-104496871D01*
X238113220Y-104566563D01*
X238111599Y-104570681D01*
X238059487Y-104696490D01*
X238059483Y-104696504D01*
X238019500Y-104897515D01*
X238019500Y-105102484D01*
X238059483Y-105303495D01*
X238059486Y-105303505D01*
X238137918Y-105492859D01*
X238254683Y-105667609D01*
X238275561Y-105734287D01*
X238257077Y-105801667D01*
X238205098Y-105848357D01*
X238151581Y-105860500D01*
X232418515Y-105860500D01*
X232344629Y-105880297D01*
X232278389Y-105918541D01*
X232152181Y-106044750D01*
X232090858Y-106078234D01*
X232021166Y-106073250D01*
X231965233Y-106031378D01*
X231940816Y-105965914D01*
X231940500Y-105957068D01*
X231940500Y-105862519D01*
X231940499Y-105862515D01*
X231940098Y-105860500D01*
X231900515Y-105661497D01*
X231826230Y-105482156D01*
X231822081Y-105472140D01*
X231802563Y-105442930D01*
X231708209Y-105301720D01*
X231708206Y-105301716D01*
X231563283Y-105156793D01*
X231563279Y-105156790D01*
X231392859Y-105042918D01*
X231237027Y-104978371D01*
X231203503Y-104964485D01*
X231203499Y-104964484D01*
X231203495Y-104964483D01*
X231002484Y-104924500D01*
X231002480Y-104924500D01*
X230797520Y-104924500D01*
X230797515Y-104924500D01*
X230596504Y-104964483D01*
X230596494Y-104964486D01*
X230407140Y-105042918D01*
X230236720Y-105156790D01*
X230236716Y-105156793D01*
X230091793Y-105301716D01*
X230091790Y-105301720D01*
X229977918Y-105472140D01*
X229925805Y-105597953D01*
X229881964Y-105652356D01*
X229815669Y-105674421D01*
X229811244Y-105674500D01*
X225878112Y-105674500D01*
X225811073Y-105654815D01*
X225810578Y-105654496D01*
X225799648Y-105647398D01*
X225757391Y-105605141D01*
X225651458Y-105551165D01*
X225646008Y-105547626D01*
X225627314Y-105525844D01*
X225606451Y-105506140D01*
X225604847Y-105499666D01*
X225600504Y-105494605D01*
X225596553Y-105466173D01*
X225589656Y-105438319D01*
X225591806Y-105432007D01*
X225590889Y-105425401D01*
X225602936Y-105399348D01*
X225612194Y-105372184D01*
X225617708Y-105367405D01*
X225620216Y-105361983D01*
X225634315Y-105353016D01*
X225657244Y-105333148D01*
X225732391Y-105294859D01*
X225819859Y-105207391D01*
X225876017Y-105097175D01*
X225876017Y-105097173D01*
X225876018Y-105097172D01*
X225876346Y-105095102D01*
X225877442Y-105092789D01*
X225879034Y-105087891D01*
X225879666Y-105088096D01*
X225906275Y-105031967D01*
X225965587Y-104995036D01*
X225998819Y-104990500D01*
X229663243Y-104990500D01*
X229663245Y-104990500D01*
X229737129Y-104970703D01*
X229803371Y-104932458D01*
X230234010Y-104501819D01*
X230295333Y-104468334D01*
X230321691Y-104465500D01*
X231768764Y-104465500D01*
X231768765Y-104465499D01*
X231824329Y-104454447D01*
X231887343Y-104412343D01*
X231929447Y-104349329D01*
X231940500Y-104293762D01*
X231940500Y-102556238D01*
X231940500Y-102556235D01*
X231940499Y-102556233D01*
X231929447Y-102500671D01*
X231929447Y-102500670D01*
X231887343Y-102437657D01*
X231887342Y-102437656D01*
X231824329Y-102395552D01*
X231768765Y-102384500D01*
X231768762Y-102384500D01*
X230031238Y-102384500D01*
X230031235Y-102384500D01*
X229975671Y-102395552D01*
X229975670Y-102395552D01*
X229912657Y-102437656D01*
X229912656Y-102437657D01*
X229870552Y-102500670D01*
X229870552Y-102500671D01*
X229859500Y-102556233D01*
X229859500Y-104003309D01*
X229839815Y-104070348D01*
X229823181Y-104090990D01*
X229540990Y-104373181D01*
X229479667Y-104406666D01*
X229453309Y-104409500D01*
X225998819Y-104409500D01*
X225931780Y-104389815D01*
X225886025Y-104337011D01*
X225876346Y-104304900D01*
X225876017Y-104302828D01*
X225876017Y-104302825D01*
X225819859Y-104192609D01*
X225819857Y-104192607D01*
X225819854Y-104192603D01*
X225732396Y-104105145D01*
X225732393Y-104105143D01*
X225732391Y-104105141D01*
X225622175Y-104048983D01*
X225622173Y-104048982D01*
X225622170Y-104048981D01*
X225615141Y-104046697D01*
X225557466Y-104007259D01*
X225530269Y-103942900D01*
X225542184Y-103874054D01*
X225589429Y-103822579D01*
X225597147Y-103818293D01*
X225682391Y-103774859D01*
X225769859Y-103687391D01*
X225826017Y-103577175D01*
X225826017Y-103577173D01*
X225826018Y-103577172D01*
X225826018Y-103577171D01*
X225832492Y-103536293D01*
X225840500Y-103485735D01*
X225840499Y-102934707D01*
X225860183Y-102867669D01*
X225912987Y-102821914D01*
X225982146Y-102811970D01*
X225996573Y-102814928D01*
X226092007Y-102840500D01*
X226092010Y-102840500D01*
X226207991Y-102840500D01*
X226207993Y-102840500D01*
X226320027Y-102810481D01*
X226420473Y-102752488D01*
X226502488Y-102670473D01*
X226560481Y-102570027D01*
X226590500Y-102457993D01*
X226590500Y-102421691D01*
X226610185Y-102354652D01*
X226626819Y-102334010D01*
X227563010Y-101397819D01*
X227624333Y-101364334D01*
X227650691Y-101361500D01*
X232973724Y-101361500D01*
X233040763Y-101381185D01*
G37*
%TD.AperFunction*%
%TA.AperFunction,Conductor*%
G36*
X219344990Y-104140186D02*
G01*
X219390745Y-104192990D01*
X219400689Y-104262148D01*
X219397729Y-104276578D01*
X219371309Y-104375182D01*
X219371309Y-104375184D01*
X219371309Y-104411484D01*
X219362664Y-104440924D01*
X219356141Y-104470911D01*
X219352386Y-104475926D01*
X219351624Y-104478523D01*
X219334990Y-104499165D01*
X219330975Y-104503180D01*
X219269652Y-104536665D01*
X219243294Y-104539499D01*
X219120724Y-104539499D01*
X219053685Y-104519814D01*
X219051833Y-104518601D01*
X219021228Y-104498151D01*
X218965664Y-104487099D01*
X218965661Y-104487099D01*
X217734337Y-104487099D01*
X217734334Y-104487099D01*
X217678770Y-104498151D01*
X217678769Y-104498151D01*
X217615756Y-104540255D01*
X217615755Y-104540256D01*
X217573651Y-104603269D01*
X217573651Y-104603270D01*
X217562599Y-104658832D01*
X217562599Y-105001165D01*
X217573468Y-105055808D01*
X217575581Y-105088174D01*
X217574685Y-105101723D01*
X217573652Y-105103271D01*
X217562599Y-105158838D01*
X217562599Y-105284653D01*
X217562329Y-105288740D01*
X217551648Y-105317856D01*
X217542914Y-105347604D01*
X217539723Y-105350368D01*
X217538268Y-105354336D01*
X217513536Y-105373059D01*
X217490110Y-105393359D01*
X217485358Y-105394392D01*
X217482562Y-105396510D01*
X217471827Y-105397336D01*
X217438599Y-105404565D01*
X217391921Y-105404565D01*
X217279885Y-105434584D01*
X217179441Y-105492577D01*
X217179438Y-105492579D01*
X217102181Y-105569837D01*
X217040858Y-105603322D01*
X216971166Y-105598338D01*
X216915233Y-105556466D01*
X216890816Y-105491002D01*
X216890500Y-105482156D01*
X216890500Y-104671691D01*
X216910185Y-104604652D01*
X216926819Y-104584010D01*
X217193010Y-104317819D01*
X217254333Y-104284334D01*
X217280691Y-104281500D01*
X217312333Y-104281500D01*
X217312335Y-104281500D01*
X217386219Y-104261703D01*
X217452461Y-104223458D01*
X217508084Y-104167834D01*
X217569403Y-104134352D01*
X217639095Y-104139336D01*
X217664653Y-104152416D01*
X217678769Y-104161848D01*
X217734332Y-104172900D01*
X217734335Y-104172901D01*
X217734337Y-104172901D01*
X218965663Y-104172901D01*
X218965664Y-104172900D01*
X219021228Y-104161848D01*
X219026318Y-104158447D01*
X219051833Y-104141399D01*
X219069879Y-104135748D01*
X219085789Y-104125524D01*
X219116750Y-104121072D01*
X219118511Y-104120521D01*
X219120724Y-104120501D01*
X219277951Y-104120501D01*
X219344990Y-104140186D01*
G37*
%TD.AperFunction*%
%TA.AperFunction,Conductor*%
G36*
X223027539Y-101610185D02*
G01*
X223073294Y-101662989D01*
X223084500Y-101714500D01*
X223084500Y-101962705D01*
X223099908Y-102059994D01*
X223159665Y-102177271D01*
X223252729Y-102270335D01*
X223305892Y-102297424D01*
X223356687Y-102345399D01*
X223373482Y-102413220D01*
X223350944Y-102479354D01*
X223296228Y-102522805D01*
X223286924Y-102525394D01*
X223287110Y-102525966D01*
X223277828Y-102528981D01*
X223167607Y-102585142D01*
X223167603Y-102585145D01*
X223080145Y-102672603D01*
X223080142Y-102672608D01*
X223080141Y-102672609D01*
X223062788Y-102706666D01*
X223023981Y-102782827D01*
X223023981Y-102782828D01*
X223009500Y-102874264D01*
X223009500Y-103485739D01*
X223023981Y-103577170D01*
X223023981Y-103577171D01*
X223023982Y-103577174D01*
X223023983Y-103577175D01*
X223074754Y-103676819D01*
X223080142Y-103687392D01*
X223080145Y-103687396D01*
X223167603Y-103774854D01*
X223167605Y-103774855D01*
X223167609Y-103774859D01*
X223277825Y-103831017D01*
X223277831Y-103831017D01*
X223284853Y-103833300D01*
X223342530Y-103872736D01*
X223369729Y-103937094D01*
X223357817Y-104005941D01*
X223310574Y-104057418D01*
X223302834Y-104061716D01*
X223217610Y-104105140D01*
X223217603Y-104105145D01*
X223130145Y-104192603D01*
X223130143Y-104192607D01*
X223130141Y-104192609D01*
X223117383Y-104217648D01*
X223073981Y-104302827D01*
X223073981Y-104302828D01*
X223059501Y-104394256D01*
X223059425Y-104395226D01*
X223059292Y-104395572D01*
X223058738Y-104399076D01*
X223058002Y-104398959D01*
X223034543Y-104460515D01*
X222978312Y-104501987D01*
X222935807Y-104509500D01*
X221693135Y-104509500D01*
X221616644Y-104509500D01*
X221561231Y-104524347D01*
X221542760Y-104529297D01*
X221476519Y-104567541D01*
X221476516Y-104567543D01*
X221345628Y-104698431D01*
X221345629Y-104698432D01*
X221291542Y-104752519D01*
X221249233Y-104825800D01*
X221247641Y-104824881D01*
X221210222Y-104871318D01*
X221143928Y-104893384D01*
X221076228Y-104876106D01*
X221028617Y-104824969D01*
X221015500Y-104769463D01*
X221015500Y-104298467D01*
X221035185Y-104231428D01*
X221051821Y-104210784D01*
X221065335Y-104197270D01*
X221065336Y-104197269D01*
X221125090Y-104079997D01*
X221125090Y-104079995D01*
X221125091Y-104079994D01*
X221140500Y-103982705D01*
X221140500Y-103417294D01*
X221125091Y-103320005D01*
X221115313Y-103300815D01*
X221065336Y-103202731D01*
X221065335Y-103202730D01*
X221065334Y-103202728D01*
X220972270Y-103109664D01*
X220863249Y-103054114D01*
X220812454Y-103006140D01*
X220795659Y-102938318D01*
X220818197Y-102872184D01*
X220863248Y-102833147D01*
X220947269Y-102790336D01*
X221040336Y-102697269D01*
X221100090Y-102579997D01*
X221100090Y-102579995D01*
X221100091Y-102579994D01*
X221115500Y-102482705D01*
X221115500Y-102201691D01*
X221135185Y-102134652D01*
X221151819Y-102114010D01*
X221639010Y-101626819D01*
X221700333Y-101593334D01*
X221726691Y-101590500D01*
X222960500Y-101590500D01*
X223027539Y-101610185D01*
G37*
%TD.AperFunction*%
%TA.AperFunction,Conductor*%
G36*
X202660980Y-101087735D02*
G01*
X202705327Y-101116236D01*
X203997181Y-102408090D01*
X204030666Y-102469413D01*
X204033500Y-102495771D01*
X204033500Y-103449819D01*
X204033500Y-103526309D01*
X204043398Y-103563251D01*
X204053297Y-103600194D01*
X204072419Y-103633314D01*
X204091542Y-103666435D01*
X204091544Y-103666437D01*
X204285117Y-103860010D01*
X204299820Y-103886937D01*
X204316413Y-103912756D01*
X204317304Y-103918956D01*
X204318602Y-103921333D01*
X204321436Y-103947691D01*
X204321436Y-104040017D01*
X204301751Y-104107056D01*
X204259437Y-104147403D01*
X204217635Y-104171538D01*
X204217626Y-104171544D01*
X204044305Y-104344866D01*
X203872629Y-104516542D01*
X203865205Y-104523966D01*
X203860427Y-104528744D01*
X203799102Y-104562226D01*
X203729411Y-104557239D01*
X203716455Y-104551544D01*
X203708206Y-104547341D01*
X203677676Y-104518507D01*
X203673479Y-104515365D01*
X203673005Y-104514096D01*
X203657410Y-104499367D01*
X203640500Y-104436856D01*
X203640500Y-104411756D01*
X203640328Y-104411116D01*
X203640306Y-104411033D01*
X203636071Y-104395226D01*
X203620703Y-104337871D01*
X203582458Y-104271629D01*
X203000819Y-103689990D01*
X202967334Y-103628667D01*
X202964500Y-103602309D01*
X202964500Y-102635757D01*
X202964500Y-102635755D01*
X202944703Y-102561871D01*
X202906458Y-102495629D01*
X202852371Y-102441542D01*
X201988439Y-101577610D01*
X201955070Y-101516817D01*
X201952120Y-101503535D01*
X201952120Y-101453627D01*
X201922101Y-101341593D01*
X201912427Y-101324838D01*
X201908295Y-101306233D01*
X201909409Y-101289625D01*
X201905485Y-101273450D01*
X201911701Y-101255484D01*
X201912975Y-101236520D01*
X201922890Y-101223153D01*
X201928334Y-101207422D01*
X201943277Y-101195669D01*
X201954601Y-101180404D01*
X201970169Y-101174519D01*
X201983254Y-101164229D01*
X202002178Y-101162421D01*
X202019958Y-101155701D01*
X202036237Y-101159167D01*
X202052807Y-101157585D01*
X202083985Y-101169214D01*
X202084079Y-101168989D01*
X202085903Y-101169744D01*
X202088295Y-101170254D01*
X202089128Y-101171080D01*
X202090392Y-101171603D01*
X202091350Y-101171961D01*
X202091590Y-101172100D01*
X202091592Y-101172100D01*
X202091593Y-101172101D01*
X202203627Y-101202120D01*
X202203629Y-101202120D01*
X202319611Y-101202120D01*
X202319613Y-101202120D01*
X202431647Y-101172101D01*
X202532093Y-101114108D01*
X202532100Y-101114100D01*
X202538539Y-101109161D01*
X202539833Y-101110847D01*
X202591288Y-101082751D01*
X202660980Y-101087735D01*
G37*
%TD.AperFunction*%
%TA.AperFunction,Conductor*%
G36*
X219621446Y-100785697D02*
G01*
X219660483Y-100830748D01*
X219699940Y-100908184D01*
X219709665Y-100927271D01*
X219801101Y-101018707D01*
X219834586Y-101080030D01*
X219829602Y-101149722D01*
X219801101Y-101194069D01*
X219545629Y-101449542D01*
X219491544Y-101503626D01*
X219491542Y-101503629D01*
X219453297Y-101569869D01*
X219433500Y-101643755D01*
X219433500Y-102135606D01*
X219413815Y-102202645D01*
X219397181Y-102223287D01*
X219151294Y-102469173D01*
X219089971Y-102502658D01*
X219033585Y-102498625D01*
X219033206Y-102500535D01*
X218965664Y-102487100D01*
X218965661Y-102487100D01*
X217734337Y-102487100D01*
X217734334Y-102487100D01*
X217678770Y-102498152D01*
X217678769Y-102498152D01*
X217615757Y-102540255D01*
X217615756Y-102540257D01*
X217615267Y-102540988D01*
X217614988Y-102541221D01*
X217614878Y-102541568D01*
X217612386Y-102543626D01*
X217607120Y-102548893D01*
X217606618Y-102548391D01*
X217588217Y-102563595D01*
X217561658Y-102585793D01*
X217561201Y-102585916D01*
X217561015Y-102586071D01*
X217559447Y-102586392D01*
X217526926Y-102595217D01*
X217519570Y-102596099D01*
X217500344Y-102596099D01*
X217423854Y-102596099D01*
X217349970Y-102615896D01*
X217348795Y-102616574D01*
X217337545Y-102617923D01*
X217328104Y-102616338D01*
X217320462Y-102616840D01*
X217320462Y-102618500D01*
X217312335Y-102618500D01*
X216864155Y-102618500D01*
X216787664Y-102618500D01*
X216736606Y-102632181D01*
X216713780Y-102638297D01*
X216647539Y-102676541D01*
X216641093Y-102681488D01*
X216639496Y-102679407D01*
X216589576Y-102706666D01*
X216563218Y-102709500D01*
X213543037Y-102709500D01*
X213481038Y-102692887D01*
X213473087Y-102688297D01*
X213399203Y-102668500D01*
X213399202Y-102668500D01*
X210732289Y-102668500D01*
X210665250Y-102648815D01*
X210644608Y-102632181D01*
X210344608Y-102332181D01*
X210311123Y-102270858D01*
X210316107Y-102201166D01*
X210357979Y-102145233D01*
X210423443Y-102120816D01*
X210432289Y-102120500D01*
X217579274Y-102120500D01*
X217646313Y-102140185D01*
X217648165Y-102141398D01*
X217678769Y-102161847D01*
X217734332Y-102172899D01*
X217734335Y-102172900D01*
X217734337Y-102172900D01*
X218965663Y-102172900D01*
X218965664Y-102172899D01*
X219021228Y-102161847D01*
X219084242Y-102119743D01*
X219126346Y-102056729D01*
X219137399Y-102001162D01*
X219137399Y-101658838D01*
X219137399Y-101658835D01*
X219137398Y-101658833D01*
X219126346Y-101603271D01*
X219126346Y-101603270D01*
X219084242Y-101540257D01*
X219084241Y-101540256D01*
X219021228Y-101498152D01*
X218965664Y-101487100D01*
X218965661Y-101487100D01*
X218764499Y-101487100D01*
X218755813Y-101484549D01*
X218746852Y-101485838D01*
X218722811Y-101474859D01*
X218697460Y-101467415D01*
X218691532Y-101460574D01*
X218683296Y-101456813D01*
X218669006Y-101434578D01*
X218651705Y-101414611D01*
X218649417Y-101404096D01*
X218645522Y-101398035D01*
X218640499Y-101363100D01*
X218640499Y-101219500D01*
X218660184Y-101152461D01*
X218712988Y-101106706D01*
X218764499Y-101095500D01*
X219082705Y-101095500D01*
X219179994Y-101080091D01*
X219179995Y-101080090D01*
X219179997Y-101080090D01*
X219297269Y-101020336D01*
X219390336Y-100927269D01*
X219439516Y-100830748D01*
X219487490Y-100779954D01*
X219555311Y-100763159D01*
X219621446Y-100785697D01*
G37*
%TD.AperFunction*%
%TA.AperFunction,Conductor*%
G36*
X232878300Y-96640185D02*
G01*
X232898942Y-96656819D01*
X233104581Y-96862458D01*
X233170823Y-96900703D01*
X233244707Y-96920500D01*
X233321197Y-96920500D01*
X233337309Y-96920500D01*
X233404348Y-96940185D01*
X233424990Y-96956819D01*
X236923181Y-100455010D01*
X236956666Y-100516333D01*
X236958233Y-100525011D01*
X236959500Y-100533806D01*
X236959500Y-100578993D01*
X236973576Y-100631528D01*
X236974627Y-100638820D01*
X236970669Y-100666399D01*
X236970006Y-100694256D01*
X236965774Y-100700508D01*
X236964702Y-100707982D01*
X236946460Y-100729044D01*
X236930844Y-100752119D01*
X236923903Y-100755091D01*
X236918961Y-100760798D01*
X236892227Y-100768655D01*
X236866615Y-100779623D01*
X236851935Y-100780497D01*
X236851927Y-100780500D01*
X236851921Y-100780498D01*
X236851894Y-100780500D01*
X227440755Y-100780500D01*
X227366869Y-100800297D01*
X227300629Y-100838542D01*
X227300626Y-100838544D01*
X226215990Y-101923181D01*
X226154667Y-101956666D01*
X226128309Y-101959500D01*
X226092007Y-101959500D01*
X225979971Y-101989519D01*
X225879527Y-102047512D01*
X225879524Y-102047514D01*
X225797514Y-102129524D01*
X225797512Y-102129527D01*
X225739519Y-102229971D01*
X225709500Y-102342007D01*
X225709500Y-102405547D01*
X225689815Y-102472586D01*
X225637011Y-102518341D01*
X225567853Y-102528285D01*
X225566103Y-102528021D01*
X225547324Y-102525046D01*
X225480735Y-102514500D01*
X225480729Y-102514500D01*
X225019260Y-102514500D01*
X225019260Y-102514501D01*
X224918186Y-102530509D01*
X224917758Y-102527812D01*
X224862894Y-102529372D01*
X224803067Y-102493282D01*
X224772248Y-102430577D01*
X224774659Y-102377362D01*
X224790500Y-102318245D01*
X224790500Y-102241755D01*
X224790500Y-101401581D01*
X224810185Y-101334542D01*
X224826819Y-101313900D01*
X228583900Y-97556819D01*
X228645223Y-97523334D01*
X228671581Y-97520500D01*
X229423993Y-97520500D01*
X229491032Y-97540185D01*
X229511674Y-97556818D01*
X229577354Y-97622498D01*
X229689202Y-97687074D01*
X229813952Y-97720500D01*
X229813954Y-97720500D01*
X229943102Y-97720500D01*
X229943104Y-97720500D01*
X230067854Y-97687074D01*
X230179702Y-97622498D01*
X230271026Y-97531174D01*
X230335602Y-97419326D01*
X230369028Y-97294576D01*
X230369028Y-97165424D01*
X230335602Y-97040674D01*
X230271026Y-96928826D01*
X230179702Y-96837502D01*
X230174381Y-96832181D01*
X230140896Y-96770858D01*
X230145880Y-96701166D01*
X230187752Y-96645233D01*
X230253216Y-96620816D01*
X230262062Y-96620500D01*
X232811261Y-96620500D01*
X232878300Y-96640185D01*
G37*
%TD.AperFunction*%
%TA.AperFunction,Conductor*%
G36*
X219536081Y-96621360D02*
G01*
X219539051Y-96620640D01*
X219569397Y-96631142D01*
X219600191Y-96640185D01*
X219602190Y-96642492D01*
X219605078Y-96643492D01*
X219624928Y-96668733D01*
X219645946Y-96692989D01*
X219646380Y-96696011D01*
X219648269Y-96698413D01*
X219651320Y-96730367D01*
X219655890Y-96762147D01*
X219654620Y-96764926D01*
X219654911Y-96767966D01*
X219640203Y-96796496D01*
X219626865Y-96825703D01*
X219623873Y-96828173D01*
X219622896Y-96830069D01*
X219595153Y-96851887D01*
X219498826Y-96907502D01*
X219498823Y-96907504D01*
X219407504Y-96998823D01*
X219407502Y-96998826D01*
X219342926Y-97110672D01*
X219323285Y-97183977D01*
X219309500Y-97235424D01*
X219309500Y-97364576D01*
X219315927Y-97388562D01*
X219342926Y-97489327D01*
X219367087Y-97531174D01*
X219407502Y-97601174D01*
X219498826Y-97692498D01*
X219572533Y-97735053D01*
X219597148Y-97749265D01*
X219610674Y-97757074D01*
X219735424Y-97790500D01*
X219735426Y-97790500D01*
X219864574Y-97790500D01*
X219864576Y-97790500D01*
X219989326Y-97757074D01*
X220101174Y-97692498D01*
X220106536Y-97687135D01*
X220167855Y-97653649D01*
X220237547Y-97658630D01*
X220293483Y-97700499D01*
X220315836Y-97750619D01*
X220320553Y-97774330D01*
X220362656Y-97837342D01*
X220362657Y-97837343D01*
X220425670Y-97879447D01*
X220481233Y-97890499D01*
X220481236Y-97890500D01*
X220481238Y-97890500D01*
X221518764Y-97890500D01*
X221518765Y-97890499D01*
X221574329Y-97879447D01*
X221637343Y-97837343D01*
X221679447Y-97774329D01*
X221690500Y-97718762D01*
X221690500Y-96744500D01*
X221710185Y-96677461D01*
X221762989Y-96631706D01*
X221814500Y-96620500D01*
X229494994Y-96620500D01*
X229516242Y-96626739D01*
X229538328Y-96628319D01*
X229549110Y-96636390D01*
X229562033Y-96640185D01*
X229576531Y-96656917D01*
X229594262Y-96670190D01*
X229598969Y-96682811D01*
X229607788Y-96692989D01*
X229610939Y-96714905D01*
X229618678Y-96735655D01*
X229615815Y-96748815D01*
X229617732Y-96762147D01*
X229608533Y-96782289D01*
X229603826Y-96803928D01*
X229590555Y-96821654D01*
X229588707Y-96825703D01*
X229582676Y-96832181D01*
X229582675Y-96832182D01*
X229577356Y-96837500D01*
X229577354Y-96837502D01*
X229544153Y-96870703D01*
X229511674Y-96903182D01*
X229450350Y-96936666D01*
X229423993Y-96939500D01*
X228461645Y-96939500D01*
X228387759Y-96959297D01*
X228321519Y-96997542D01*
X228321516Y-96997544D01*
X224321629Y-100997432D01*
X224321628Y-100997433D01*
X224282256Y-101036804D01*
X224220933Y-101070289D01*
X224151241Y-101065303D01*
X224138282Y-101059607D01*
X224079997Y-101029909D01*
X224079994Y-101029908D01*
X223982705Y-101014500D01*
X223982700Y-101014500D01*
X223828565Y-101014500D01*
X223761526Y-100994815D01*
X223715771Y-100942011D01*
X223705827Y-100872853D01*
X223734852Y-100809297D01*
X223772269Y-100780016D01*
X223782391Y-100774859D01*
X223869859Y-100687391D01*
X223926017Y-100577175D01*
X223926017Y-100577173D01*
X223926018Y-100577172D01*
X223926018Y-100577171D01*
X223934789Y-100521789D01*
X223940500Y-100485735D01*
X223940499Y-99874266D01*
X223940499Y-99874260D01*
X223926018Y-99782829D01*
X223926018Y-99782828D01*
X223926017Y-99782826D01*
X223926017Y-99782825D01*
X223869859Y-99672609D01*
X223869857Y-99672607D01*
X223869854Y-99672603D01*
X223782396Y-99585145D01*
X223782393Y-99585143D01*
X223782391Y-99585141D01*
X223672175Y-99528983D01*
X223672174Y-99528982D01*
X223672171Y-99528981D01*
X223580735Y-99514500D01*
X223146691Y-99514500D01*
X223079652Y-99494815D01*
X223059010Y-99478181D01*
X222752373Y-99171544D01*
X222752371Y-99171542D01*
X222708987Y-99146494D01*
X222686130Y-99133297D01*
X222649187Y-99123398D01*
X222612245Y-99113500D01*
X221325181Y-99113500D01*
X221248691Y-99113500D01*
X221174805Y-99133297D01*
X221108565Y-99171542D01*
X221108562Y-99171544D01*
X220501926Y-99778181D01*
X220440603Y-99811666D01*
X220414245Y-99814500D01*
X220017295Y-99814500D01*
X219920005Y-99829908D01*
X219802728Y-99889665D01*
X219709664Y-99982730D01*
X219709662Y-99982731D01*
X219660484Y-100079249D01*
X219612510Y-100130045D01*
X219544689Y-100146840D01*
X219478554Y-100124302D01*
X219439516Y-100079249D01*
X219390337Y-99982731D01*
X219297271Y-99889665D01*
X219179993Y-99829908D01*
X219179994Y-99829908D01*
X219082705Y-99814500D01*
X219082700Y-99814500D01*
X218621691Y-99814500D01*
X218554652Y-99794815D01*
X218534010Y-99778181D01*
X218350819Y-99594990D01*
X218317334Y-99533667D01*
X218314500Y-99507309D01*
X218314500Y-98605021D01*
X218316396Y-98595843D01*
X218315421Y-98589937D01*
X218321166Y-98572759D01*
X218324656Y-98555872D01*
X218327509Y-98549262D01*
X218335499Y-98535424D01*
X223109500Y-98535424D01*
X223109500Y-98664575D01*
X223142926Y-98789327D01*
X223164573Y-98826819D01*
X223207502Y-98901174D01*
X223298826Y-98992498D01*
X223410674Y-99057074D01*
X223535424Y-99090500D01*
X223535426Y-99090500D01*
X223664574Y-99090500D01*
X223664576Y-99090500D01*
X223789326Y-99057074D01*
X223901174Y-98992498D01*
X223966854Y-98926818D01*
X224028178Y-98893334D01*
X224054535Y-98890500D01*
X224438243Y-98890500D01*
X224438245Y-98890500D01*
X224512129Y-98870703D01*
X224578371Y-98832458D01*
X224584010Y-98826819D01*
X224645333Y-98793334D01*
X224671691Y-98790500D01*
X225418764Y-98790500D01*
X225418765Y-98790499D01*
X225474329Y-98779447D01*
X225537343Y-98737343D01*
X225579447Y-98674329D01*
X225590500Y-98618762D01*
X225590500Y-97581238D01*
X225590500Y-97581235D01*
X225590499Y-97581233D01*
X225579447Y-97525671D01*
X225579447Y-97525670D01*
X225537343Y-97462657D01*
X225537342Y-97462656D01*
X225474329Y-97420552D01*
X225418765Y-97409500D01*
X225418762Y-97409500D01*
X224381238Y-97409500D01*
X224381235Y-97409500D01*
X224325671Y-97420552D01*
X224325670Y-97420552D01*
X224262657Y-97462656D01*
X224262656Y-97462657D01*
X224220552Y-97525670D01*
X224220552Y-97525671D01*
X224209500Y-97581233D01*
X224209500Y-98185500D01*
X224206949Y-98194185D01*
X224208238Y-98203147D01*
X224197259Y-98227187D01*
X224189815Y-98252539D01*
X224182974Y-98258466D01*
X224179213Y-98266703D01*
X224156978Y-98280992D01*
X224137011Y-98298294D01*
X224126496Y-98300581D01*
X224120435Y-98304477D01*
X224085500Y-98309500D01*
X224054535Y-98309500D01*
X223987496Y-98289815D01*
X223966854Y-98273182D01*
X223934172Y-98240500D01*
X223901174Y-98207502D01*
X223822973Y-98162352D01*
X223789327Y-98142926D01*
X223726951Y-98126213D01*
X223664576Y-98109500D01*
X223535424Y-98109500D01*
X223410672Y-98142926D01*
X223298826Y-98207502D01*
X223298823Y-98207504D01*
X223207504Y-98298823D01*
X223207502Y-98298826D01*
X223142926Y-98410672D01*
X223109500Y-98535424D01*
X218335499Y-98535424D01*
X218346703Y-98516019D01*
X218366500Y-98442135D01*
X218366500Y-98365645D01*
X218366500Y-97528691D01*
X218346703Y-97454807D01*
X218308458Y-97388565D01*
X218254371Y-97334478D01*
X217891435Y-96971542D01*
X217891433Y-96971541D01*
X217887202Y-96968294D01*
X217846001Y-96911865D01*
X217841848Y-96842118D01*
X217875010Y-96782239D01*
X217894859Y-96762391D01*
X217932659Y-96688203D01*
X217980633Y-96637409D01*
X218043143Y-96620500D01*
X219533152Y-96620500D01*
X219536081Y-96621360D01*
G37*
%TD.AperFunction*%
%TA.AperFunction,Conductor*%
G36*
X209454826Y-95864185D02*
G01*
X209500581Y-95916989D01*
X209510525Y-95986147D01*
X209510260Y-95987898D01*
X209504500Y-96024265D01*
X209504500Y-96485739D01*
X209516713Y-96562846D01*
X209507758Y-96632139D01*
X209462762Y-96685591D01*
X209456242Y-96689629D01*
X209406248Y-96718494D01*
X209406242Y-96718498D01*
X209324232Y-96800508D01*
X209324230Y-96800511D01*
X209266237Y-96900955D01*
X209236218Y-97012991D01*
X209236218Y-97049293D01*
X209216533Y-97116332D01*
X209199899Y-97136974D01*
X209152898Y-97183974D01*
X209152896Y-97183977D01*
X209114651Y-97250217D01*
X209101585Y-97298981D01*
X209094854Y-97324103D01*
X209094854Y-98271172D01*
X209094854Y-98271173D01*
X209094854Y-98347663D01*
X209096162Y-98352543D01*
X209114651Y-98421548D01*
X209131666Y-98451017D01*
X209152896Y-98487789D01*
X209503565Y-98838458D01*
X209559413Y-98870702D01*
X209567864Y-98875581D01*
X209616080Y-98926148D01*
X209629303Y-98994755D01*
X209603335Y-99059620D01*
X209574758Y-99086068D01*
X209560257Y-99095757D01*
X209560256Y-99095758D01*
X209518152Y-99158771D01*
X209518152Y-99158772D01*
X209507100Y-99214334D01*
X209507100Y-100445667D01*
X209518152Y-100501229D01*
X209518152Y-100501230D01*
X209538602Y-100531835D01*
X209544252Y-100549881D01*
X209554477Y-100565791D01*
X209558928Y-100596752D01*
X209559480Y-100598513D01*
X209559500Y-100600726D01*
X209559500Y-100680611D01*
X209539815Y-100747650D01*
X209487011Y-100793405D01*
X209417853Y-100803349D01*
X209354297Y-100774324D01*
X209347819Y-100768292D01*
X209210825Y-100631298D01*
X209177340Y-100569975D01*
X209181372Y-100513588D01*
X209179465Y-100513209D01*
X209192899Y-100445667D01*
X209192900Y-100445665D01*
X209192900Y-99214336D01*
X209192899Y-99214334D01*
X209181847Y-99158772D01*
X209181847Y-99158771D01*
X209139743Y-99095758D01*
X209139742Y-99095757D01*
X209076729Y-99053653D01*
X209021165Y-99042601D01*
X209021162Y-99042601D01*
X208914500Y-99042601D01*
X208847461Y-99022916D01*
X208801706Y-98970112D01*
X208790500Y-98918601D01*
X208790500Y-97803592D01*
X208790500Y-97803590D01*
X208763888Y-97704272D01*
X208731037Y-97647372D01*
X208712480Y-97615230D01*
X208712476Y-97615225D01*
X208688522Y-97591271D01*
X208655037Y-97529948D01*
X208653733Y-97523009D01*
X208650090Y-97500003D01*
X208590336Y-97382731D01*
X208590335Y-97382730D01*
X208590334Y-97382728D01*
X208497271Y-97289665D01*
X208379993Y-97229908D01*
X208379994Y-97229908D01*
X208282705Y-97214500D01*
X208282700Y-97214500D01*
X207963113Y-97214500D01*
X207896074Y-97194815D01*
X207875432Y-97178181D01*
X207075819Y-96378568D01*
X207042334Y-96317245D01*
X207039500Y-96290887D01*
X207039500Y-96052592D01*
X207039500Y-96052590D01*
X207025567Y-96000591D01*
X207027230Y-95930744D01*
X207066392Y-95872881D01*
X207130621Y-95845377D01*
X207145342Y-95844500D01*
X209387787Y-95844500D01*
X209454826Y-95864185D01*
G37*
%TD.AperFunction*%
%TA.AperFunction,Conductor*%
G36*
X201952539Y-95864185D02*
G01*
X201998294Y-95916989D01*
X202009500Y-95968500D01*
X202009500Y-96385500D01*
X201989815Y-96452539D01*
X201937011Y-96498294D01*
X201885500Y-96509500D01*
X201781235Y-96509500D01*
X201725671Y-96520552D01*
X201725670Y-96520552D01*
X201662657Y-96562656D01*
X201662656Y-96562657D01*
X201620552Y-96625670D01*
X201620552Y-96625671D01*
X201609500Y-96681233D01*
X201609500Y-97718766D01*
X201620552Y-97774328D01*
X201620552Y-97774329D01*
X201662656Y-97837342D01*
X201662657Y-97837343D01*
X201725670Y-97879447D01*
X201781233Y-97890499D01*
X201781236Y-97890500D01*
X201781238Y-97890500D01*
X202818764Y-97890500D01*
X202818765Y-97890499D01*
X202874329Y-97879447D01*
X202937343Y-97837343D01*
X202979447Y-97774329D01*
X202990500Y-97718762D01*
X202990500Y-96681238D01*
X202990500Y-96681235D01*
X202990499Y-96681233D01*
X202979447Y-96625671D01*
X202979447Y-96625670D01*
X202937343Y-96562657D01*
X202937342Y-96562656D01*
X202874329Y-96520552D01*
X202818765Y-96509500D01*
X202818762Y-96509500D01*
X202714500Y-96509500D01*
X202647461Y-96489815D01*
X202601706Y-96437011D01*
X202590500Y-96385500D01*
X202590500Y-95968500D01*
X202610185Y-95901461D01*
X202662989Y-95855706D01*
X202714500Y-95844500D01*
X205407886Y-95844500D01*
X205474925Y-95864185D01*
X205520680Y-95916989D01*
X205530624Y-95986147D01*
X205501599Y-96049703D01*
X205495567Y-96056181D01*
X201063443Y-100488304D01*
X201002120Y-100521789D01*
X200932428Y-100516805D01*
X200876495Y-100474933D01*
X200868382Y-100462634D01*
X200844868Y-100421907D01*
X200762853Y-100339892D01*
X200707797Y-100308105D01*
X200662408Y-100281899D01*
X200552720Y-100252509D01*
X200550373Y-100251880D01*
X200550372Y-100251880D01*
X200514071Y-100251880D01*
X200447032Y-100232195D01*
X200426390Y-100215561D01*
X198509373Y-98298544D01*
X198509371Y-98298542D01*
X198476250Y-98279419D01*
X198443130Y-98260297D01*
X198405991Y-98250346D01*
X198369245Y-98240500D01*
X198369244Y-98240500D01*
X186628419Y-98240500D01*
X186561380Y-98220815D01*
X186515625Y-98168011D01*
X186505681Y-98098853D01*
X186525317Y-98047609D01*
X186575381Y-97972683D01*
X186642080Y-97872862D01*
X186720515Y-97683503D01*
X186760500Y-97482480D01*
X186760500Y-97277520D01*
X186720515Y-97076497D01*
X186668399Y-96950679D01*
X186660931Y-96881211D01*
X186692206Y-96818732D01*
X186695250Y-96815577D01*
X187630010Y-95880819D01*
X187691333Y-95847334D01*
X187717691Y-95844500D01*
X201885500Y-95844500D01*
X201952539Y-95864185D01*
G37*
%TD.AperFunction*%
%TA.AperFunction,Conductor*%
G36*
X200368848Y-90320185D02*
G01*
X200414603Y-90372989D01*
X200424547Y-90442147D01*
X200395522Y-90505703D01*
X200389490Y-90512181D01*
X198578488Y-92323181D01*
X198517165Y-92356666D01*
X198490807Y-92359500D01*
X197910105Y-92359500D01*
X197894386Y-92361569D01*
X197860513Y-92366028D01*
X197860511Y-92366029D01*
X197860509Y-92366029D01*
X197751683Y-92416776D01*
X197745279Y-92423181D01*
X197683956Y-92456666D01*
X197657598Y-92459500D01*
X196948589Y-92459500D01*
X196898931Y-92472805D01*
X196898931Y-92472806D01*
X196849272Y-92486112D01*
X196849271Y-92486112D01*
X196849269Y-92486113D01*
X196760230Y-92537519D01*
X196760225Y-92537523D01*
X196718768Y-92578981D01*
X196687522Y-92610227D01*
X196687520Y-92610229D01*
X196541931Y-92755819D01*
X196424569Y-92873181D01*
X196363246Y-92906666D01*
X196336888Y-92909500D01*
X196017300Y-92909500D01*
X195945419Y-92920884D01*
X195876125Y-92911928D01*
X195838341Y-92886091D01*
X195438600Y-92486350D01*
X195026819Y-92074568D01*
X194993334Y-92013245D01*
X194990500Y-91986887D01*
X194990500Y-91381235D01*
X194990499Y-91381233D01*
X194979447Y-91325671D01*
X194979447Y-91325670D01*
X194937343Y-91262657D01*
X194937342Y-91262656D01*
X194874329Y-91220552D01*
X194818765Y-91209500D01*
X194818762Y-91209500D01*
X193781238Y-91209500D01*
X193781235Y-91209500D01*
X193725671Y-91220552D01*
X193725670Y-91220552D01*
X193662657Y-91262656D01*
X193662656Y-91262657D01*
X193620552Y-91325670D01*
X193620552Y-91325671D01*
X193609500Y-91381233D01*
X193609500Y-92418766D01*
X193620552Y-92474328D01*
X193620552Y-92474329D01*
X193662656Y-92537342D01*
X193662657Y-92537343D01*
X193725670Y-92579447D01*
X193781233Y-92590499D01*
X193781236Y-92590500D01*
X193781238Y-92590500D01*
X194386887Y-92590500D01*
X194453926Y-92610185D01*
X194474568Y-92626819D01*
X194722015Y-92874266D01*
X194795569Y-92947819D01*
X194829054Y-93009142D01*
X194824070Y-93078833D01*
X194782199Y-93134767D01*
X194716734Y-93159184D01*
X194707888Y-93159500D01*
X187183113Y-93159500D01*
X187116074Y-93139815D01*
X187095432Y-93123181D01*
X186736702Y-92764451D01*
X186703217Y-92703128D01*
X186708201Y-92633436D01*
X186709808Y-92629351D01*
X186720515Y-92603503D01*
X186760500Y-92402480D01*
X186760500Y-92197520D01*
X186720515Y-91996497D01*
X186642080Y-91807138D01*
X186528209Y-91636720D01*
X186528206Y-91636716D01*
X186383283Y-91491793D01*
X186383279Y-91491790D01*
X186212859Y-91377918D01*
X186047681Y-91309500D01*
X186023503Y-91299485D01*
X186023499Y-91299484D01*
X186023495Y-91299483D01*
X185822484Y-91259500D01*
X185822480Y-91259500D01*
X185617520Y-91259500D01*
X185617515Y-91259500D01*
X185416504Y-91299483D01*
X185416494Y-91299486D01*
X185227140Y-91377918D01*
X185056720Y-91491790D01*
X185056716Y-91491793D01*
X184911793Y-91636716D01*
X184911790Y-91636720D01*
X184797918Y-91807140D01*
X184719486Y-91996494D01*
X184719483Y-91996504D01*
X184679500Y-92197515D01*
X184679500Y-92402484D01*
X184719483Y-92603495D01*
X184719486Y-92603505D01*
X184797918Y-92792859D01*
X184911790Y-92963279D01*
X184911793Y-92963283D01*
X185056716Y-93108206D01*
X185056720Y-93108209D01*
X185227138Y-93222080D01*
X185227139Y-93222080D01*
X185227140Y-93222081D01*
X185239127Y-93227046D01*
X185416497Y-93300515D01*
X185584691Y-93333970D01*
X185617515Y-93340499D01*
X185617519Y-93340500D01*
X185617520Y-93340500D01*
X185822481Y-93340500D01*
X185822482Y-93340499D01*
X186023503Y-93300515D01*
X186049318Y-93289821D01*
X186118786Y-93282353D01*
X186181265Y-93313627D01*
X186184451Y-93316702D01*
X186657522Y-93789773D01*
X186730227Y-93862478D01*
X186819272Y-93913888D01*
X186918590Y-93940500D01*
X195592013Y-93940500D01*
X195659052Y-93960185D01*
X195702497Y-94008204D01*
X195709664Y-94022270D01*
X195802728Y-94115334D01*
X195802730Y-94115335D01*
X195802731Y-94115336D01*
X195920003Y-94175090D01*
X195920004Y-94175090D01*
X195920006Y-94175091D01*
X195920005Y-94175091D01*
X196017295Y-94190500D01*
X196017300Y-94190500D01*
X196336887Y-94190500D01*
X196403926Y-94210185D01*
X196424568Y-94226819D01*
X196808985Y-94611235D01*
X197187520Y-94989770D01*
X197187522Y-94989773D01*
X197249569Y-95051820D01*
X197283053Y-95113141D01*
X197278069Y-95182833D01*
X197243729Y-95228707D01*
X197236197Y-95238768D01*
X197206300Y-95249918D01*
X197170734Y-95263184D01*
X197161887Y-95263500D01*
X187507755Y-95263500D01*
X187433869Y-95283297D01*
X187367629Y-95321542D01*
X187367626Y-95321544D01*
X186284451Y-96404719D01*
X186223128Y-96438204D01*
X186153436Y-96433220D01*
X186149317Y-96431599D01*
X186137569Y-96426733D01*
X186023503Y-96379485D01*
X186023499Y-96379484D01*
X186023495Y-96379483D01*
X185822484Y-96339500D01*
X185822480Y-96339500D01*
X185617520Y-96339500D01*
X185617515Y-96339500D01*
X185416504Y-96379483D01*
X185416494Y-96379486D01*
X185227140Y-96457918D01*
X185056720Y-96571790D01*
X185056716Y-96571793D01*
X184911793Y-96716716D01*
X184911790Y-96716720D01*
X184797918Y-96887140D01*
X184719486Y-97076494D01*
X184719483Y-97076504D01*
X184679500Y-97277515D01*
X184679500Y-97482484D01*
X184719034Y-97681238D01*
X184719485Y-97683503D01*
X184723211Y-97692498D01*
X184797918Y-97872859D01*
X184914683Y-98047609D01*
X184935561Y-98114287D01*
X184917077Y-98181667D01*
X184865098Y-98228357D01*
X184811581Y-98240500D01*
X184502691Y-98240500D01*
X184435652Y-98220815D01*
X184415010Y-98204181D01*
X184155280Y-97944451D01*
X184121795Y-97883128D01*
X184126779Y-97813436D01*
X184128377Y-97809374D01*
X184180515Y-97683503D01*
X184220500Y-97482480D01*
X184220500Y-97277520D01*
X184180515Y-97076497D01*
X184114479Y-96917073D01*
X184102081Y-96887140D01*
X184098119Y-96881211D01*
X183988209Y-96716720D01*
X183988206Y-96716716D01*
X183843283Y-96571793D01*
X183843279Y-96571790D01*
X183718293Y-96488276D01*
X183673488Y-96434663D01*
X183664781Y-96365338D01*
X183694936Y-96302311D01*
X183754379Y-96265592D01*
X183754741Y-96265493D01*
X183768889Y-96261703D01*
X183835131Y-96223458D01*
X184563458Y-95495131D01*
X184601703Y-95428889D01*
X184621500Y-95355006D01*
X184621500Y-95278515D01*
X184621500Y-93412755D01*
X184601703Y-93338871D01*
X184599892Y-93335735D01*
X184592720Y-93323312D01*
X184563458Y-93272629D01*
X184509371Y-93218542D01*
X184256819Y-92965990D01*
X184223334Y-92904667D01*
X184220500Y-92878309D01*
X184220500Y-91431235D01*
X184220499Y-91431233D01*
X184217663Y-91416978D01*
X184209447Y-91375671D01*
X184209447Y-91375670D01*
X184167343Y-91312657D01*
X184167342Y-91312656D01*
X184104329Y-91270552D01*
X184048765Y-91259500D01*
X184048762Y-91259500D01*
X182311238Y-91259500D01*
X182311235Y-91259500D01*
X182255671Y-91270552D01*
X182255670Y-91270552D01*
X182192657Y-91312656D01*
X182192656Y-91312657D01*
X182150552Y-91375670D01*
X182150552Y-91375671D01*
X182139500Y-91431233D01*
X182139500Y-93168766D01*
X182150552Y-93224328D01*
X182150552Y-93224329D01*
X182192656Y-93287342D01*
X182192657Y-93287343D01*
X182255670Y-93329447D01*
X182311233Y-93340499D01*
X182311236Y-93340500D01*
X182311238Y-93340500D01*
X183758309Y-93340500D01*
X183787749Y-93349144D01*
X183817736Y-93355668D01*
X183822751Y-93359422D01*
X183825348Y-93360185D01*
X183845990Y-93376819D01*
X184004181Y-93535010D01*
X184037666Y-93596333D01*
X184040500Y-93622691D01*
X184040500Y-93931581D01*
X184020815Y-93998620D01*
X183968011Y-94044375D01*
X183898853Y-94054319D01*
X183847609Y-94034683D01*
X183672859Y-93917918D01*
X183487112Y-93840980D01*
X183483503Y-93839485D01*
X183483499Y-93839484D01*
X183483495Y-93839483D01*
X183282484Y-93799500D01*
X183282480Y-93799500D01*
X183077520Y-93799500D01*
X183077515Y-93799500D01*
X182876504Y-93839483D01*
X182876494Y-93839486D01*
X182687140Y-93917918D01*
X182516720Y-94031790D01*
X182516716Y-94031793D01*
X182371793Y-94176716D01*
X182371790Y-94176720D01*
X182257918Y-94347140D01*
X182179486Y-94536494D01*
X182179483Y-94536504D01*
X182139500Y-94737515D01*
X182139500Y-94942484D01*
X182179483Y-95143495D01*
X182179485Y-95143503D01*
X182229189Y-95263500D01*
X182231599Y-95269317D01*
X182239068Y-95338787D01*
X182207793Y-95401266D01*
X182204719Y-95404451D01*
X181512181Y-96096989D01*
X181450858Y-96130474D01*
X181381166Y-96125490D01*
X181325233Y-96083618D01*
X181300816Y-96018154D01*
X181300500Y-96009308D01*
X181300500Y-90424500D01*
X181320185Y-90357461D01*
X181372989Y-90311706D01*
X181424500Y-90300500D01*
X200301809Y-90300500D01*
X200368848Y-90320185D01*
G37*
%TD.AperFunction*%
%TA.AperFunction,Conductor*%
G36*
X241972108Y-93999185D02*
G01*
X241992750Y-94015819D01*
X242424181Y-94447250D01*
X242457666Y-94508573D01*
X242460500Y-94534931D01*
X242460500Y-96471581D01*
X242440815Y-96538620D01*
X242388011Y-96584375D01*
X242318853Y-96594319D01*
X242267609Y-96574683D01*
X242092859Y-96457918D01*
X241938478Y-96393972D01*
X241903503Y-96379485D01*
X241903499Y-96379484D01*
X241903495Y-96379483D01*
X241702484Y-96339500D01*
X241702480Y-96339500D01*
X241497520Y-96339500D01*
X241497515Y-96339500D01*
X241296504Y-96379483D01*
X241296490Y-96379487D01*
X241170681Y-96431599D01*
X241101212Y-96439068D01*
X241038733Y-96407793D01*
X241035548Y-96404719D01*
X240198373Y-95567544D01*
X240198371Y-95567542D01*
X240132129Y-95529297D01*
X240059947Y-95509956D01*
X240000289Y-95473592D01*
X239969760Y-95410745D01*
X239978055Y-95341369D01*
X239981692Y-95333797D01*
X239982078Y-95332864D01*
X239982080Y-95332862D01*
X240060515Y-95143503D01*
X240100500Y-94942480D01*
X240100500Y-94737520D01*
X240060515Y-94536497D01*
X239992572Y-94372467D01*
X239982081Y-94347140D01*
X239981865Y-94346817D01*
X239923522Y-94259501D01*
X239865317Y-94172391D01*
X239844439Y-94105713D01*
X239862923Y-94038333D01*
X239914902Y-93991643D01*
X239968419Y-93979500D01*
X241905069Y-93979500D01*
X241972108Y-93999185D01*
G37*
%TD.AperFunction*%
%TA.AperFunction,Conductor*%
G36*
X233345348Y-92739185D02*
G01*
X233365990Y-92755819D01*
X235907990Y-95297819D01*
X235941475Y-95359142D01*
X235936491Y-95428834D01*
X235894619Y-95484767D01*
X235829155Y-95509184D01*
X235820309Y-95509500D01*
X234152752Y-95509500D01*
X234149425Y-95509938D01*
X234146616Y-95509500D01*
X234144628Y-95509500D01*
X234144628Y-95509189D01*
X234080390Y-95499172D01*
X234028134Y-95452791D01*
X234025881Y-95449045D01*
X234002488Y-95408527D01*
X233920473Y-95326512D01*
X233858099Y-95290500D01*
X233820028Y-95268519D01*
X233750606Y-95249918D01*
X233707993Y-95238500D01*
X233707992Y-95238500D01*
X233671691Y-95238500D01*
X233604652Y-95218815D01*
X233584010Y-95202181D01*
X231313010Y-92931181D01*
X231279525Y-92869858D01*
X231284509Y-92800166D01*
X231326381Y-92744233D01*
X231391845Y-92719816D01*
X231400691Y-92719500D01*
X233278309Y-92719500D01*
X233345348Y-92739185D01*
G37*
%TD.AperFunction*%
%TA.AperFunction,Conductor*%
G36*
X231021348Y-93465185D02*
G01*
X231041990Y-93481819D01*
X232857990Y-95297819D01*
X232891475Y-95359142D01*
X232886491Y-95428834D01*
X232844619Y-95484767D01*
X232779155Y-95509184D01*
X232770309Y-95509500D01*
X224938804Y-95509500D01*
X224871765Y-95489815D01*
X224826010Y-95437011D01*
X224816066Y-95367853D01*
X224845091Y-95304297D01*
X224869913Y-95282398D01*
X224890684Y-95268519D01*
X224937343Y-95237343D01*
X224979447Y-95174329D01*
X224990500Y-95118762D01*
X224990500Y-94500691D01*
X225010185Y-94433652D01*
X225062989Y-94387897D01*
X225132147Y-94377953D01*
X225195703Y-94406978D01*
X225202181Y-94413010D01*
X225562629Y-94773458D01*
X225628871Y-94811703D01*
X225702754Y-94831500D01*
X225702755Y-94831500D01*
X227585500Y-94831500D01*
X227652539Y-94851185D01*
X227698294Y-94903989D01*
X227709500Y-94955500D01*
X227709500Y-95018766D01*
X227720552Y-95074328D01*
X227720552Y-95074329D01*
X227762656Y-95137342D01*
X227762657Y-95137343D01*
X227825670Y-95179447D01*
X227881233Y-95190499D01*
X227881236Y-95190500D01*
X227881238Y-95190500D01*
X228918764Y-95190500D01*
X228918765Y-95190499D01*
X228974329Y-95179447D01*
X229037343Y-95137343D01*
X229079447Y-95074329D01*
X229090500Y-95018762D01*
X229090500Y-93981238D01*
X229090500Y-93981235D01*
X229090499Y-93981233D01*
X229079447Y-93925671D01*
X229079447Y-93925670D01*
X229037343Y-93862657D01*
X229037342Y-93862656D01*
X228974329Y-93820552D01*
X228918765Y-93809500D01*
X228918762Y-93809500D01*
X227881238Y-93809500D01*
X227881235Y-93809500D01*
X227825671Y-93820552D01*
X227825670Y-93820552D01*
X227762657Y-93862656D01*
X227762656Y-93862657D01*
X227720552Y-93925670D01*
X227720552Y-93925671D01*
X227709500Y-93981233D01*
X227709500Y-94126500D01*
X227689815Y-94193539D01*
X227637011Y-94239294D01*
X227585500Y-94250500D01*
X225912691Y-94250500D01*
X225845652Y-94230815D01*
X225825010Y-94214181D01*
X225268010Y-93657181D01*
X225234525Y-93595858D01*
X225239509Y-93526166D01*
X225281381Y-93470233D01*
X225346845Y-93445816D01*
X225355691Y-93445500D01*
X230954309Y-93445500D01*
X231021348Y-93465185D01*
G37*
%TD.AperFunction*%
%TA.AperFunction,Conductor*%
G36*
X210134529Y-90733185D02*
G01*
X210180284Y-90785989D01*
X210190228Y-90855147D01*
X210161203Y-90918703D01*
X210123785Y-90947985D01*
X210121826Y-90948982D01*
X210121825Y-90948983D01*
X210011609Y-91005141D01*
X210011608Y-91005142D01*
X210011603Y-91005145D01*
X209924145Y-91092603D01*
X209924142Y-91092608D01*
X209924141Y-91092609D01*
X209899078Y-91141796D01*
X209851105Y-91192591D01*
X209788595Y-91209500D01*
X201936090Y-91209500D01*
X201836772Y-91236112D01*
X201836769Y-91236113D01*
X201747730Y-91287519D01*
X201747725Y-91287523D01*
X200712066Y-92323181D01*
X200650743Y-92356666D01*
X200624385Y-92359500D01*
X200185105Y-92359500D01*
X200169386Y-92361569D01*
X200135513Y-92366028D01*
X200135511Y-92366029D01*
X200135509Y-92366029D01*
X200026683Y-92416776D01*
X199941776Y-92501683D01*
X199891027Y-92610514D01*
X199884500Y-92660098D01*
X199884500Y-93039894D01*
X199884501Y-93039900D01*
X199891028Y-93089487D01*
X199891029Y-93089489D01*
X199891029Y-93089490D01*
X199929224Y-93171398D01*
X199941776Y-93198316D01*
X200026684Y-93283224D01*
X200135513Y-93333972D01*
X200185099Y-93340500D01*
X201289900Y-93340499D01*
X201339487Y-93333972D01*
X201448316Y-93283224D01*
X201454721Y-93276819D01*
X201516044Y-93243334D01*
X201542402Y-93240500D01*
X203632887Y-93240500D01*
X203699926Y-93260185D01*
X203720568Y-93276819D01*
X205495568Y-95051819D01*
X205529053Y-95113142D01*
X205524069Y-95182834D01*
X205482197Y-95238767D01*
X205416733Y-95263184D01*
X205407887Y-95263500D01*
X201650838Y-95263500D01*
X201583799Y-95243815D01*
X201538044Y-95191011D01*
X201528100Y-95121853D01*
X201538456Y-95087095D01*
X201583972Y-94989487D01*
X201590500Y-94939901D01*
X201590499Y-94560100D01*
X201583972Y-94510513D01*
X201533224Y-94401684D01*
X201448316Y-94316776D01*
X201339487Y-94266028D01*
X201339485Y-94266027D01*
X201339486Y-94266027D01*
X201289901Y-94259500D01*
X200185105Y-94259500D01*
X200169386Y-94261569D01*
X200135513Y-94266028D01*
X200135511Y-94266029D01*
X200135509Y-94266029D01*
X200026683Y-94316776D01*
X199941776Y-94401683D01*
X199891027Y-94510514D01*
X199884500Y-94560098D01*
X199884500Y-94939894D01*
X199884841Y-94942481D01*
X199891028Y-94989487D01*
X199891029Y-94989489D01*
X199891029Y-94989490D01*
X199902692Y-95014500D01*
X199931046Y-95075306D01*
X199936544Y-95087095D01*
X199947036Y-95156172D01*
X199918517Y-95219956D01*
X199860040Y-95258196D01*
X199824162Y-95263500D01*
X199375838Y-95263500D01*
X199308799Y-95243815D01*
X199263044Y-95191011D01*
X199253100Y-95121853D01*
X199263456Y-95087095D01*
X199308972Y-94989487D01*
X199315500Y-94939901D01*
X199315499Y-94560100D01*
X199308972Y-94510513D01*
X199258224Y-94401684D01*
X199173316Y-94316776D01*
X199064487Y-94266028D01*
X199064485Y-94266027D01*
X199064486Y-94266027D01*
X199014901Y-94259500D01*
X197910105Y-94259500D01*
X197894386Y-94261569D01*
X197860513Y-94266028D01*
X197860511Y-94266029D01*
X197860509Y-94266029D01*
X197741852Y-94321361D01*
X197740287Y-94318005D01*
X197692667Y-94334058D01*
X197624902Y-94317038D01*
X197600086Y-94297836D01*
X197310454Y-94008204D01*
X197001819Y-93699568D01*
X196987115Y-93672640D01*
X196970523Y-93646822D01*
X196969631Y-93640621D01*
X196968334Y-93638245D01*
X196965500Y-93611887D01*
X196965500Y-93488112D01*
X196985185Y-93421073D01*
X197001819Y-93400431D01*
X197125431Y-93276819D01*
X197186754Y-93243334D01*
X197213112Y-93240500D01*
X197657598Y-93240500D01*
X197724637Y-93260185D01*
X197745279Y-93276819D01*
X197751684Y-93283224D01*
X197860513Y-93333972D01*
X197910099Y-93340500D01*
X199014900Y-93340499D01*
X199064487Y-93333972D01*
X199173316Y-93283224D01*
X199258224Y-93198316D01*
X199308972Y-93089487D01*
X199315500Y-93039901D01*
X199315499Y-92660100D01*
X199308972Y-92610513D01*
X199283285Y-92555427D01*
X199272793Y-92486350D01*
X199301313Y-92422566D01*
X199307973Y-92415354D01*
X200973510Y-90749819D01*
X201034833Y-90716334D01*
X201061191Y-90713500D01*
X210067490Y-90713500D01*
X210134529Y-90733185D01*
G37*
%TD.AperFunction*%
%TD*%
M02*
