M48
; DRILL file {KiCad 9.0.6} date 2026-03-18T14:56:10+0800
; FORMAT={-:-/ absolute / metric / decimal}
; #@! TF.CreationDate,2026-03-18T14:56:10+08:00
; #@! TF.GenerationSoftware,Kicad,Pcbnew,9.0.6
; #@! TF.FileFunction,Plated,1,4,PTH
FMAT,2
METRIC
; #@! TA.AperFunction,Plated,PTH,ViaDrill
T1C0.300
; #@! TA.AperFunction,Plated,PTH,ComponentDrill
T2C1.000
%
G90
G05
T1
X184.3Y-111.8
X184.554Y-106.859
X188.0Y-91.0
X188.0Y-92.0
X188.0Y-95.0
X188.0Y-97.0
X188.0Y-110.0
X188.0Y-112.0
X188.0Y-113.0
X189.0Y-91.0
X189.0Y-92.0
X189.0Y-95.0
X189.0Y-97.0
X189.0Y-112.0
X189.0Y-113.0
X190.0Y-91.0
X190.0Y-92.0
X190.0Y-95.0
X190.0Y-97.0
X190.0Y-112.0
X190.0Y-113.0
X190.165Y-105.965
X190.321Y-110.379
X191.0Y-91.0
X191.0Y-92.0
X191.0Y-95.0
X191.0Y-97.0
X191.071Y-111.129
X191.725Y-100.125
X191.857Y-110.288
X192.0Y-91.0
X192.0Y-92.0
X192.0Y-95.0
X192.0Y-97.0
X192.457Y-108.95
X193.0Y-91.0
X193.0Y-92.0
X193.0Y-95.0
X193.0Y-97.0
X193.0Y-107.5
X193.55Y-112.0
X194.0Y-95.0
X194.0Y-97.0
X195.0Y-95.0
X195.0Y-97.0
X195.0Y-112.0
X195.2Y-107.116
X196.0Y-97.0
X196.288Y-104.723
X197.0Y-97.0
X197.782Y-108.95
X198.0Y-97.0
X198.833Y-99.81
X199.264Y-104.109
X199.61Y-100.59
X199.692Y-109.304
X199.7Y-93.8
X200.492Y-100.692
X201.0Y-103.283
X201.512Y-101.512
X202.0Y-94.0
X202.0Y-95.0
X202.262Y-100.762
X202.573Y-104.451
X202.574Y-107.63
X202.7Y-106.932
X203.0Y-94.0
X203.0Y-95.0
X203.0Y-100.2
X203.658Y-100.792
X203.7Y-103.6
X204.0Y-97.0
X205.507Y-103.453
X205.65Y-101.95
X206.0Y-95.004
X206.0Y-96.104
X206.1Y-97.1
X207.7Y-112.5
X207.895Y-102.637
X207.945Y-105.632
X208.005Y-96.305
X208.163Y-101.99
X208.776Y-95.001
X209.0Y-114.8
X209.537Y-92.255
X209.55Y-114.0
X209.677Y-97.071
X210.0Y-107.0
X210.0Y-108.0
X210.388Y-95.366
X210.538Y-94.032
X210.665Y-100.888
X211.0Y-106.0
X211.0Y-107.0
X211.0Y-108.0
X211.078Y-95.485
X211.415Y-100.877
X211.99Y-104.23
X212.0Y-106.0
X212.0Y-107.0
X212.0Y-108.0
X212.057Y-101.252
X212.089Y-95.389
X212.85Y-92.2
X212.85Y-98.889
X213.0Y-106.0
X213.0Y-107.0
X213.0Y-108.0
X213.189Y-100.836
X213.4Y-112.277
X213.537Y-98.755
X213.85Y-104.001
X214.0Y-93.95
X214.0Y-106.0
X214.0Y-107.0
X214.0Y-108.0
X214.0Y-117.0
X214.237Y-98.753
X215.0Y-106.0
X215.0Y-107.0
X215.0Y-108.0
X215.0Y-117.0
X215.1Y-102.4
X215.181Y-94.07
X215.338Y-98.777
X215.475Y-109.575
X215.897Y-93.899
X216.0Y-106.0
X216.0Y-107.0
X216.0Y-108.0
X216.0Y-117.0
X216.25Y-110.357
X216.259Y-96.513
X217.0Y-117.0
X217.05Y-103.45
X217.18Y-104.766
X217.2Y-107.8
X217.283Y-109.324
X217.434Y-98.7
X217.439Y-106.79
X217.45Y-105.845
X217.835Y-100.4
X218.403Y-95.264
X218.9Y-113.8
X219.5Y-107.1
X219.505Y-107.879
X219.8Y-97.3
X219.812Y-104.433
X219.829Y-105.179
X221.4Y-103.8
X222.3Y-98.2
X222.6Y-108.3
X222.873Y-109.429
X223.0Y-98.0
X223.6Y-98.6
X223.675Y-106.148
X224.0Y-113.0
X224.0Y-114.0
X224.5Y-103.9
X225.0Y-113.0
X225.0Y-114.0
X225.847Y-107.239
X226.0Y-113.0
X226.0Y-114.0
X226.15Y-102.4
X226.2Y-111.4
X226.3Y-108.0
X227.0Y-94.0
X227.0Y-113.0
X227.0Y-114.0
X227.6Y-108.5
X228.0Y-99.0
X228.0Y-100.0
X228.0Y-104.0
X228.0Y-113.0
X228.0Y-114.0
X228.215Y-109.615
X229.0Y-99.0
X229.0Y-100.0
X229.0Y-113.0
X229.0Y-114.0
X229.879Y-97.23
X230.0Y-94.0
X230.0Y-95.0
X230.0Y-99.0
X230.0Y-100.0
X230.0Y-113.0
X230.0Y-114.0
X231.0Y-94.0
X231.0Y-95.0
X231.0Y-98.0
X232.0Y-93.0
X232.0Y-98.0
X232.0Y-99.0
X233.0Y-109.0
X233.5Y-101.7
X233.65Y-95.679
X234.0Y-99.0
X234.0Y-100.0
X234.0Y-103.0
X234.0Y-104.0
X234.0Y-105.0
X234.0Y-107.0
X234.0Y-108.0
X234.0Y-109.0
X234.0Y-114.0
X235.0Y-100.0
X235.0Y-103.0
X235.0Y-104.0
X235.0Y-105.0
X235.0Y-107.0
X235.0Y-108.0
X235.0Y-109.0
X235.0Y-114.0
X235.661Y-110.161
X236.0Y-103.0
X236.0Y-104.0
X236.0Y-105.0
X236.0Y-107.0
X236.0Y-108.0
X236.0Y-109.0
X236.0Y-114.0
X236.062Y-91.738
X236.124Y-93.476
X236.299Y-94.501
X236.6Y-110.8
X236.7Y-95.679
X237.0Y-107.0
X237.0Y-108.0
X237.0Y-114.0
X237.239Y-110.139
X237.4Y-100.521
X237.836Y-92.664
X240.332Y-102.173
X242.1Y-96.0
T2
X183.18Y-92.3
X183.18Y-94.84
X183.18Y-97.38
X183.18Y-99.92
X183.18Y-102.46
X183.18Y-105.0
X183.18Y-107.54
X183.18Y-110.08
X183.18Y-112.62
X183.18Y-115.16
X185.72Y-92.3
X185.72Y-94.84
X185.72Y-97.38
X185.72Y-99.92
X185.72Y-102.46
X185.72Y-105.0
X185.72Y-107.54
X185.72Y-110.08
X185.72Y-112.62
X185.72Y-115.16
X230.9Y-103.425
X230.9Y-105.965
X239.06Y-92.3
X239.06Y-94.84
X239.06Y-97.38
X239.06Y-99.92
X239.06Y-102.46
X239.06Y-105.0
X239.06Y-107.54
X239.06Y-110.08
X239.06Y-112.62
X239.06Y-115.16
X241.6Y-92.3
X241.6Y-94.84
X241.6Y-97.38
X241.6Y-99.92
X241.6Y-102.46
X241.6Y-105.0
X241.6Y-107.54
X241.6Y-110.08
X241.6Y-112.62
X241.6Y-115.16
M30
