M48
; DRILL file {KiCad 9.0.6} date 2026-01-16T13:55:05+0100
; FORMAT={-:-/ absolute / metric / decimal}
; #@! TF.CreationDate,2026-01-16T13:55:05+01:00
; #@! TF.GenerationSoftware,Kicad,Pcbnew,9.0.6
; #@! TF.FileFunction,Plated,1,4,PTH
FMAT,2
METRIC
; #@! TA.AperFunction,Plated,PTH,ComponentDrill
T1C0.203
; #@! TA.AperFunction,Plated,PTH,ViaDrill
T2C0.300
; #@! TA.AperFunction,Plated,PTH,ViaDrill
T3C0.400
; #@! TA.AperFunction,Plated,PTH,ComponentDrill
T4C1.000
; #@! TA.AperFunction,Plated,PTH,ComponentDrill
T5C1.300
%
G90
G05
T1
X160.75Y-106.25
X161.35Y-105.15
X161.35Y-107.35
X161.95Y-106.25
X205.24Y-123.04
X205.24Y-123.945
X206.215Y-122.588
X206.215Y-123.493
X206.215Y-124.398
X207.19Y-123.04
X207.19Y-123.945
T2
X159.7Y-108.6
X163.696Y-106.838
X163.706Y-107.538
X163.773Y-104.86
X165.75Y-107.625
X166.391Y-104.909
X192.972Y-133.74
X192.972Y-134.49
X192.972Y-135.24
X192.972Y-135.99
X198.222Y-133.74
X198.222Y-134.49
X198.222Y-135.24
X198.222Y-135.99
X202.922Y-97.24
X204.172Y-121.49
X204.422Y-144.24
X205.422Y-144.24
X206.422Y-144.24
X207.75Y-121.25
X207.922Y-125.99
X208.5Y-122.0
X208.5Y-123.75
X209.25Y-124.5
X209.75Y-104.0
X209.75Y-122.0
X210.422Y-97.49
X211.422Y-125.99
X211.75Y-122.25
X212.5Y-144.24
X213.0Y-122.25
X213.0Y-125.75
X213.5Y-144.24
X214.5Y-144.24
X220.722Y-119.74
X220.722Y-120.49
X220.722Y-121.24
X220.722Y-121.99
T3
X140.0Y-116.0
X140.0Y-117.0
X140.0Y-118.0
X140.0Y-119.0
X140.0Y-120.0
X140.0Y-121.0
X140.0Y-122.0
X140.0Y-123.0
X140.0Y-124.0
X140.0Y-125.0
X140.0Y-126.0
X140.0Y-127.0
X140.0Y-128.0
X140.0Y-129.0
X140.0Y-130.0
X140.0Y-131.0
X140.0Y-132.0
X140.0Y-133.0
X140.5Y-100.5
X140.5Y-101.5
X141.0Y-116.0
X141.0Y-117.0
X141.0Y-118.0
X141.0Y-119.0
X141.0Y-120.0
X141.0Y-121.0
X141.0Y-122.0
X141.0Y-123.0
X141.0Y-124.0
X141.0Y-125.0
X141.0Y-126.0
X141.0Y-127.0
X141.0Y-128.0
X141.0Y-129.0
X141.0Y-130.0
X141.0Y-131.0
X141.0Y-132.0
X141.0Y-133.0
X142.0Y-116.0
X142.0Y-117.0
X142.0Y-118.0
X142.0Y-119.0
X142.0Y-120.0
X142.0Y-121.0
X142.0Y-122.0
X142.0Y-123.0
X142.0Y-124.0
X142.0Y-125.0
X142.0Y-126.0
X142.0Y-127.0
X142.0Y-128.0
X142.0Y-129.0
X142.0Y-130.0
X142.0Y-131.0
X142.0Y-132.0
X142.0Y-133.0
X143.0Y-116.0
X143.0Y-117.0
X143.0Y-118.0
X143.0Y-119.0
X143.0Y-120.0
X143.0Y-121.0
X143.0Y-122.0
X143.0Y-123.0
X143.0Y-124.0
X143.0Y-125.0
X143.0Y-126.0
X143.0Y-127.0
X143.0Y-128.0
X143.0Y-129.0
X143.0Y-130.0
X143.0Y-131.0
X143.0Y-132.0
X143.0Y-133.0
X144.0Y-116.0
X144.0Y-117.0
X144.0Y-118.0
X144.0Y-119.0
X144.0Y-120.0
X144.0Y-121.0
X144.0Y-122.0
X144.0Y-123.0
X144.0Y-124.0
X144.0Y-125.0
X144.0Y-126.0
X144.0Y-127.0
X144.0Y-128.0
X144.0Y-129.0
X144.0Y-130.0
X144.0Y-131.0
X144.0Y-132.0
X144.0Y-133.0
X150.9Y-104.0
X153.75Y-104.0
X156.3Y-111.5
X157.7Y-112.8
X160.0Y-139.0
X160.0Y-140.0
X160.0Y-141.0
X160.0Y-142.0
X160.0Y-143.0
X160.0Y-144.0
X160.0Y-145.0
X161.0Y-139.0
X161.0Y-140.0
X161.0Y-141.0
X161.0Y-142.0
X161.0Y-143.0
X161.0Y-144.0
X161.0Y-145.0
X162.0Y-139.0
X162.0Y-140.0
X162.0Y-141.0
X162.0Y-142.0
X162.0Y-143.0
X162.0Y-144.0
X162.0Y-145.0
X162.9Y-108.7
X163.0Y-139.0
X163.0Y-140.0
X163.0Y-141.0
X163.0Y-142.0
X163.0Y-143.0
X163.0Y-144.0
X163.0Y-145.0
X164.0Y-97.5
X164.0Y-98.5
X164.0Y-139.0
X164.0Y-140.0
X164.0Y-141.0
X164.0Y-142.0
X164.0Y-143.0
X164.0Y-144.0
X164.0Y-145.0
X168.25Y-106.25
X183.922Y-99.49
X188.922Y-118.74
X201.5Y-130.0
X205.5Y-129.5
T4
X181.44Y-101.51
X181.44Y-116.75
X183.98Y-101.51
X183.98Y-116.75
X186.52Y-101.51
X186.52Y-116.75
X189.06Y-101.51
X189.06Y-116.75
X191.6Y-101.51
X191.6Y-116.75
X194.14Y-101.51
X194.14Y-116.75
X196.68Y-101.51
X196.68Y-116.75
X199.22Y-101.51
X199.22Y-116.75
X201.76Y-101.51
X201.76Y-116.75
X204.3Y-101.51
X204.3Y-116.75
X206.84Y-101.51
X206.84Y-116.75
X209.38Y-101.51
X209.38Y-116.75
X211.92Y-101.51
X211.92Y-116.75
X214.46Y-101.51
X214.46Y-116.75
X217.0Y-101.51
X217.0Y-116.75
T5
X142.25Y-107.25
X142.25Y-112.25
X156.0Y-148.0
X161.0Y-148.0
X195.64Y-129.79
X195.64Y-134.79
X207.5Y-151.75
X212.5Y-151.75
X223.5Y-121.5
X223.5Y-126.5
M30
