M48
; DRILL file {KiCad 9.0.6} date 2026-01-16T13:55:05+0100
; FORMAT={-:-/ absolute / metric / decimal}
; #@! TF.CreationDate,2026-01-16T13:55:05+01:00
; #@! TF.GenerationSoftware,Kicad,Pcbnew,9.0.6
; #@! TF.FileFunction,NonPlated,1,4,NPTH
FMAT,2
METRIC
; #@! TA.AperFunction,NonPlated,NPTH,ComponentDrill
T1C0.500
%
G90
G05
T1
X173.0Y-95.75
X173.0Y-96.6
X173.0Y-97.45
X173.0Y-98.3
X173.0Y-99.15
X173.0Y-100.0
X173.0Y-100.85
X173.0Y-101.7
X173.0Y-102.55
X173.0Y-103.4
X173.0Y-104.25
X173.0Y-105.25
X173.0Y-106.1
X173.0Y-106.95
X173.0Y-107.8
X173.0Y-108.65
X173.0Y-109.5
X173.0Y-110.35
X173.0Y-111.2
X173.0Y-112.05
X173.0Y-112.9
X173.0Y-113.75
X173.0Y-114.75
X173.0Y-115.6
X173.0Y-116.45
X173.0Y-117.3
X173.0Y-118.15
X173.0Y-119.0
X173.0Y-119.85
X173.0Y-120.7
X173.0Y-121.55
X173.0Y-122.4
X173.0Y-123.25
X173.0Y-124.25
X173.0Y-125.1
X173.0Y-125.95
X173.0Y-126.8
X173.0Y-127.65
X173.0Y-128.5
X173.0Y-129.35
X173.0Y-130.2
X173.0Y-131.05
X173.0Y-131.9
X173.0Y-132.75
X173.0Y-133.75
X173.0Y-134.6
X173.0Y-135.45
X173.0Y-136.3
X173.0Y-137.15
X173.0Y-138.0
X173.0Y-138.85
X173.0Y-139.7
X173.0Y-140.55
X173.0Y-141.4
X173.0Y-142.25
X173.0Y-143.25
X173.0Y-144.1
X173.0Y-144.95
X173.0Y-145.8
X173.0Y-146.65
X173.0Y-147.5
X173.0Y-148.35
X173.0Y-149.2
X173.0Y-150.05
X173.0Y-150.9
X173.0Y-151.75
X173.0Y-152.75
X173.0Y-153.6
X173.0Y-154.45
X173.0Y-155.3
X173.0Y-156.15
X173.0Y-157.0
X173.0Y-157.85
X173.0Y-158.7
X173.0Y-159.55
X173.0Y-160.4
X173.0Y-161.25
M30
