%TF.GenerationSoftware,KiCad,Pcbnew,9.0.6*%
%TF.CreationDate,2026-01-16T13:55:08+01:00*%
%TF.ProjectId,Buck,4275636b-2e6b-4696-9361-645f70636258,rev?*%
%TF.SameCoordinates,Original*%
%TF.FileFunction,Copper,L4,Bot*%
%TF.FilePolarity,Positive*%
%FSLAX46Y46*%
G04 Gerber Fmt 4.6, Leading zero omitted, Abs format (unit mm)*
G04 Created by KiCad (PCBNEW 9.0.6) date 2026-01-16 13:55:08*
%MOMM*%
%LPD*%
G01*
G04 APERTURE LIST*
G04 Aperture macros list*
%AMRoundRect*
0 Rectangle with rounded corners*
0 $1 Rounding radius*
0 $2 $3 $4 $5 $6 $7 $8 $9 X,Y pos of 4 corners*
0 Add a 4 corners polygon primitive as box body*
4,1,4,$2,$3,$4,$5,$6,$7,$8,$9,$2,$3,0*
0 Add four circle primitives for the rounded corners*
1,1,$1+$1,$2,$3*
1,1,$1+$1,$4,$5*
1,1,$1+$1,$6,$7*
1,1,$1+$1,$8,$9*
0 Add four rect primitives between the rounded corners*
20,1,$1+$1,$2,$3,$4,$5,0*
20,1,$1+$1,$4,$5,$6,$7,0*
20,1,$1+$1,$6,$7,$8,$9,0*
20,1,$1+$1,$8,$9,$2,$3,0*%
G04 Aperture macros list end*
%TA.AperFunction,ComponentPad*%
%ADD10RoundRect,0.250001X1.149999X-1.149999X1.149999X1.149999X-1.149999X1.149999X-1.149999X-1.149999X0*%
%TD*%
%TA.AperFunction,ComponentPad*%
%ADD11C,2.800000*%
%TD*%
%TA.AperFunction,ComponentPad*%
%ADD12C,0.499999*%
%TD*%
%TA.AperFunction,ComponentPad*%
%ADD13RoundRect,0.250001X-1.149999X-1.149999X1.149999X-1.149999X1.149999X1.149999X-1.149999X1.149999X0*%
%TD*%
%TA.AperFunction,ComponentPad*%
%ADD14RoundRect,0.250001X-1.149999X1.149999X-1.149999X-1.149999X1.149999X-1.149999X1.149999X1.149999X0*%
%TD*%
%TA.AperFunction,ComponentPad*%
%ADD15O,1.600000X1.600000*%
%TD*%
%TA.AperFunction,ComponentPad*%
%ADD16R,1.600000X1.600000*%
%TD*%
%TA.AperFunction,ViaPad*%
%ADD17C,0.600000*%
%TD*%
%TA.AperFunction,ViaPad*%
%ADD18C,0.800000*%
%TD*%
%TA.AperFunction,ViaPad*%
%ADD19C,0.500000*%
%TD*%
%TA.AperFunction,Conductor*%
%ADD20C,0.600000*%
%TD*%
%TA.AperFunction,Conductor*%
%ADD21C,0.200000*%
%TD*%
G04 APERTURE END LIST*
D10*
%TO.P,J3,1,Pin_1*%
%TO.N,VIN_A*%
X223500000Y-126500000D03*
D11*
%TO.P,J3,2,Pin_2*%
%TO.N,GND*%
X223500000Y-121500000D03*
%TD*%
D12*
%TO.P,U3,V*%
%TO.N,VCC_M*%
X206215002Y-122587502D03*
X207190001Y-123040001D03*
X205240003Y-123040001D03*
X206215002Y-123492502D03*
X207190001Y-123945000D03*
X205240003Y-123945000D03*
X206215002Y-124397501D03*
%TD*%
D13*
%TO.P,J5,1,Pin_1*%
%TO.N,OUTB*%
X207500000Y-151750000D03*
D11*
%TO.P,J5,2,Pin_2*%
%TO.N,OUTA*%
X212500000Y-151750000D03*
%TD*%
D14*
%TO.P,J4,1,Pin_1*%
%TO.N,/VBAT*%
X195640000Y-129790000D03*
D11*
%TO.P,J4,2,Pin_2*%
%TO.N,GND*%
X195640000Y-134790000D03*
%TD*%
D15*
%TO.P,A1,30,VIN*%
%TO.N,VIN_A*%
X181440000Y-101510000D03*
%TO.P,A1,29,GND*%
%TO.N,GND*%
X183980000Y-101510000D03*
%TO.P,A1,28,~{RESET}*%
%TO.N,unconnected-(A1-~{RESET}-Pad28)*%
X186520000Y-101510000D03*
%TO.P,A1,27,+5V*%
%TO.N,unconnected-(A1-+5V-Pad27)*%
X189060000Y-101510000D03*
%TO.P,A1,26,A7*%
%TO.N,unconnected-(A1-A7-Pad26)*%
X191600000Y-101510000D03*
%TO.P,A1,25,A6*%
%TO.N,unconnected-(A1-A6-Pad25)*%
X194140000Y-101510000D03*
%TO.P,A1,24,SCL/A5*%
%TO.N,unconnected-(A1-SCL{slash}A5-Pad24)*%
X196680000Y-101510000D03*
%TO.P,A1,23,SDA/A4*%
%TO.N,unconnected-(A1-SDA{slash}A4-Pad23)*%
X199220000Y-101510000D03*
%TO.P,A1,22,A3*%
%TO.N,unconnected-(A1-A3-Pad22)*%
X201760000Y-101510000D03*
%TO.P,A1,21,A2*%
%TO.N,unconnected-(A1-A2-Pad21)*%
X204300000Y-101510000D03*
%TO.P,A1,20,A1*%
%TO.N,unconnected-(A1-A1-Pad20)*%
X206840000Y-101510000D03*
%TO.P,A1,19,A0*%
%TO.N,Net-(A1-A0)*%
X209380000Y-101510000D03*
%TO.P,A1,18,AREF*%
%TO.N,unconnected-(A1-AREF-Pad18)*%
X211920000Y-101510000D03*
%TO.P,A1,17,3V3*%
%TO.N,unconnected-(A1-3V3-Pad17)*%
X214460000Y-101510000D03*
%TO.P,A1,16,SCK*%
%TO.N,unconnected-(A1-SCK-Pad16)*%
X217000000Y-101510000D03*
%TO.P,A1,15,MISO*%
%TO.N,unconnected-(A1-MISO-Pad15)*%
X217000000Y-116750000D03*
%TO.P,A1,14,MOSI*%
%TO.N,unconnected-(A1-MOSI-Pad14)*%
X214460000Y-116750000D03*
%TO.P,A1,13,D10*%
%TO.N,/ENA{slash}DIAGA*%
X211920000Y-116750000D03*
%TO.P,A1,12,D9*%
%TO.N,/ENB{slash}DIAGB*%
X209380000Y-116750000D03*
%TO.P,A1,11,D8*%
%TO.N,/INA_A*%
X206840000Y-116750000D03*
%TO.P,A1,10,D7*%
%TO.N,/INB_A*%
X204300000Y-116750000D03*
%TO.P,A1,9,D6*%
%TO.N,unconnected-(A1-D6-Pad9)*%
X201760000Y-116750000D03*
%TO.P,A1,8,D5*%
%TO.N,/PWM_A*%
X199220000Y-116750000D03*
%TO.P,A1,7,D4*%
%TO.N,unconnected-(A1-D4-Pad7)*%
X196680000Y-116750000D03*
%TO.P,A1,6,D3*%
%TO.N,unconnected-(A1-D3-Pad6)*%
X194140000Y-116750000D03*
%TO.P,A1,5,D2*%
%TO.N,unconnected-(A1-D2-Pad5)*%
X191600000Y-116750000D03*
%TO.P,A1,4,GND*%
%TO.N,GND*%
X189060000Y-116750000D03*
%TO.P,A1,3,~{RESET}*%
%TO.N,unconnected-(A1-~{RESET}-Pad3)*%
X186520000Y-116750000D03*
%TO.P,A1,2,RX1*%
%TO.N,unconnected-(A1-RX1-Pad2)*%
X183980000Y-116750000D03*
D16*
%TO.P,A1,1,TX1*%
%TO.N,unconnected-(A1-TX1-Pad1)*%
X181440000Y-116750000D03*
%TD*%
D14*
%TO.P,J1,1,Pin_1*%
%TO.N,+24V*%
X142250000Y-107250000D03*
D11*
%TO.P,J1,2,Pin_2*%
%TO.N,GND*%
X142250000Y-112250000D03*
%TD*%
D13*
%TO.P,J2,1,Pin_1*%
%TO.N,/VOUT*%
X156000000Y-148000000D03*
D11*
%TO.P,J2,2,Pin_2*%
%TO.N,GND*%
X161000000Y-148000000D03*
%TD*%
D12*
%TO.P,U1,V*%
%TO.N,GND*%
X160750002Y-106250000D03*
X161350001Y-105150000D03*
X161350001Y-107350000D03*
X161950000Y-106250000D03*
%TD*%
D17*
%TO.N,GND*%
X220722500Y-120490000D03*
X220722500Y-121240000D03*
X220722500Y-121990000D03*
X220722500Y-119740000D03*
D18*
%TO.N,/VBAT*%
X205500000Y-129500000D03*
X201500000Y-130000000D03*
D19*
%TO.N,Net-(U2-INA)*%
X207750000Y-121250000D03*
X213000000Y-125750000D03*
%TO.N,Net-(U2-ENB{slash}DIAGB)*%
X208500000Y-122000000D03*
X208500000Y-123750000D03*
%TO.N,VIN_A*%
X209750000Y-122000000D03*
X211750000Y-122250000D03*
X213000000Y-122250000D03*
%TO.N,Net-(U2-CS)*%
X209250000Y-124500000D03*
X209750000Y-104000000D03*
%TO.N,Net-(U2-INB)*%
X204172500Y-121490000D03*
X207922500Y-125990000D03*
D17*
%TO.N,GND*%
X198222500Y-134490000D03*
X198222500Y-135240000D03*
X198222500Y-135990000D03*
X198222500Y-133740000D03*
X192972500Y-133740000D03*
X192972500Y-134490000D03*
X192972500Y-135990000D03*
X192972500Y-135240000D03*
X204422500Y-144240000D03*
X205422500Y-144240000D03*
X206422500Y-144240000D03*
X212500000Y-144240000D03*
X213500000Y-144240000D03*
X214500000Y-144240000D03*
X211422500Y-125990000D03*
D18*
X183922500Y-99490000D03*
X188922500Y-118740000D03*
D17*
X202922500Y-97240000D03*
X210422500Y-97490000D03*
D18*
X162000000Y-143000000D03*
X162000000Y-140000000D03*
X142000000Y-126000000D03*
X143000000Y-117000000D03*
X142000000Y-132000000D03*
X142000000Y-116000000D03*
X140000000Y-131000000D03*
X140000000Y-123000000D03*
X142000000Y-117000000D03*
X143000000Y-119000000D03*
X140000000Y-121000000D03*
X144000000Y-130000000D03*
X164000000Y-139000000D03*
X161000000Y-145000000D03*
X150900000Y-104000000D03*
X153750000Y-104000000D03*
X140000000Y-133000000D03*
X140000000Y-126000000D03*
X144000000Y-125000000D03*
X143000000Y-123000000D03*
X164000000Y-143000000D03*
X161000000Y-142000000D03*
X140000000Y-117000000D03*
X162000000Y-145000000D03*
X143000000Y-120000000D03*
X140000000Y-118000000D03*
X162000000Y-139000000D03*
X142000000Y-131000000D03*
X141000000Y-123000000D03*
X160000000Y-144000000D03*
X140000000Y-128000000D03*
X140000000Y-122000000D03*
X143000000Y-124000000D03*
X163000000Y-144000000D03*
X142000000Y-133000000D03*
X141000000Y-127000000D03*
X140000000Y-125000000D03*
X162000000Y-142000000D03*
X141000000Y-122000000D03*
X144000000Y-123000000D03*
X142000000Y-129000000D03*
X157700000Y-112800000D03*
X161000000Y-143000000D03*
X143000000Y-129000000D03*
X164000000Y-97500000D03*
X144000000Y-131000000D03*
X164000000Y-145000000D03*
X140000000Y-124000000D03*
X140500000Y-101500000D03*
X141000000Y-128000000D03*
X144000000Y-127000000D03*
X163000000Y-141000000D03*
X160000000Y-143000000D03*
X161000000Y-139000000D03*
X141000000Y-133000000D03*
X144000000Y-120000000D03*
X141000000Y-116000000D03*
X144000000Y-132000000D03*
X141000000Y-117000000D03*
X142000000Y-130000000D03*
X143000000Y-133000000D03*
X143000000Y-127000000D03*
X144000000Y-124000000D03*
X163000000Y-142000000D03*
X160000000Y-142000000D03*
X143000000Y-125000000D03*
X164000000Y-142000000D03*
X144000000Y-117000000D03*
X142000000Y-118000000D03*
X141000000Y-125000000D03*
X142000000Y-128000000D03*
X142000000Y-120000000D03*
X162900000Y-108700000D03*
X163000000Y-140000000D03*
X141000000Y-130000000D03*
X164000000Y-98500000D03*
X163000000Y-139000000D03*
X162000000Y-141000000D03*
X161000000Y-144000000D03*
X144000000Y-121000000D03*
X144000000Y-118000000D03*
X144000000Y-129000000D03*
X141000000Y-121000000D03*
X164000000Y-144000000D03*
X143000000Y-122000000D03*
X143000000Y-126000000D03*
X160000000Y-141000000D03*
X141000000Y-118000000D03*
X142000000Y-119000000D03*
X142000000Y-122000000D03*
X143000000Y-118000000D03*
X156300000Y-111500000D03*
X160000000Y-139000000D03*
X142000000Y-127000000D03*
X163000000Y-143000000D03*
X164000000Y-141000000D03*
X143000000Y-128000000D03*
X141000000Y-132000000D03*
X144000000Y-119000000D03*
X141000000Y-129000000D03*
X140500000Y-100500000D03*
X163000000Y-145000000D03*
X143000000Y-131000000D03*
X142000000Y-125000000D03*
X144000000Y-128000000D03*
X140000000Y-132000000D03*
X162000000Y-144000000D03*
X142000000Y-123000000D03*
X141000000Y-120000000D03*
X141000000Y-124000000D03*
X160000000Y-140000000D03*
X144000000Y-122000000D03*
X140000000Y-119000000D03*
X143000000Y-116000000D03*
X143000000Y-121000000D03*
X143000000Y-132000000D03*
X160000000Y-145000000D03*
X140000000Y-127000000D03*
X142000000Y-124000000D03*
X141000000Y-131000000D03*
X161000000Y-140000000D03*
X164000000Y-140000000D03*
X144000000Y-133000000D03*
X144000000Y-116000000D03*
X161000000Y-141000000D03*
X140000000Y-120000000D03*
X143000000Y-130000000D03*
X142000000Y-121000000D03*
X140000000Y-116000000D03*
X141000000Y-126000000D03*
X140000000Y-130000000D03*
X144000000Y-126000000D03*
X141000000Y-119000000D03*
X168250000Y-106250000D03*
X140000000Y-129000000D03*
D19*
%TO.N,/SYNCIN*%
X159700000Y-108600000D03*
X163696157Y-106838448D03*
%TO.N,/LG*%
X165750000Y-107625000D03*
X163706476Y-107538372D03*
%TO.N,/HG*%
X163772965Y-104860139D03*
X166391248Y-104908752D03*
%TD*%
D20*
%TO.N,/VBAT*%
X205000000Y-130000000D02*
X205500000Y-129500000D01*
X201500000Y-130000000D02*
X205000000Y-130000000D01*
D21*
%TO.N,Net-(U2-INA)*%
X207750000Y-123722664D02*
X207750000Y-121250000D01*
X209038336Y-125011000D02*
X207750000Y-123722664D01*
X212261000Y-125011000D02*
X209038336Y-125011000D01*
X213000000Y-125750000D02*
X212261000Y-125011000D01*
%TO.N,Net-(U2-ENB{slash}DIAGB)*%
X208500000Y-123750000D02*
X208500000Y-122000000D01*
%TO.N,VIN_A*%
X209750000Y-122000000D02*
X205551000Y-117801000D01*
X205551000Y-117801000D02*
X205551000Y-116301000D01*
X184180000Y-104250000D02*
X181440000Y-101510000D01*
X205551000Y-116301000D02*
X193500000Y-104250000D01*
X193500000Y-104250000D02*
X184180000Y-104250000D01*
X213000000Y-122250000D02*
X211750000Y-122250000D01*
%TO.N,Net-(U2-CS)*%
X210500000Y-123250000D02*
X210500000Y-104750000D01*
X209250000Y-124500000D02*
X210500000Y-123250000D01*
X210500000Y-104750000D02*
X209750000Y-104000000D01*
%TO.N,Net-(U2-INB)*%
X204172500Y-123586017D02*
X204172500Y-121490000D01*
X206576483Y-125990000D02*
X204172500Y-123586017D01*
X207922500Y-125990000D02*
X206576483Y-125990000D01*
%TO.N,/SYNCIN*%
X162713352Y-106911649D02*
X161025001Y-108600000D01*
X161025001Y-108600000D02*
X159700000Y-108600000D01*
X163682329Y-106911649D02*
X162713352Y-106911649D01*
%TO.N,/LG*%
X164532475Y-107625000D02*
X164500000Y-107657475D01*
X164500000Y-107657475D02*
X163957475Y-107657475D01*
X165750000Y-107625000D02*
X164532475Y-107625000D01*
X164857475Y-107657475D02*
X164500000Y-107657475D01*
X163957475Y-107657475D02*
X163800000Y-107500000D01*
%TO.N,/HG*%
X163785208Y-104908752D02*
X166391248Y-104908752D01*
X166400000Y-104900000D02*
X166391248Y-104908752D01*
%TD*%
M02*
