%TF.GenerationSoftware,KiCad,Pcbnew,9.0.6*%
%TF.CreationDate,2026-01-16T13:55:08+01:00*%
%TF.ProjectId,Buck,4275636b-2e6b-4696-9361-645f70636258,rev?*%
%TF.SameCoordinates,Original*%
%TF.FileFunction,Soldermask,Top*%
%TF.FilePolarity,Negative*%
%FSLAX46Y46*%
G04 Gerber Fmt 4.6, Leading zero omitted, Abs format (unit mm)*
G04 Created by KiCad (PCBNEW 9.0.6) date 2026-01-16 13:55:08*
%MOMM*%
%LPD*%
G01*
G04 APERTURE LIST*
G04 Aperture macros list*
%AMRoundRect*
0 Rectangle with rounded corners*
0 $1 Rounding radius*
0 $2 $3 $4 $5 $6 $7 $8 $9 X,Y pos of 4 corners*
0 Add a 4 corners polygon primitive as box body*
4,1,4,$2,$3,$4,$5,$6,$7,$8,$9,$2,$3,0*
0 Add four circle primitives for the rounded corners*
1,1,$1+$1,$2,$3*
1,1,$1+$1,$4,$5*
1,1,$1+$1,$6,$7*
1,1,$1+$1,$8,$9*
0 Add four rect primitives between the rounded corners*
20,1,$1+$1,$2,$3,$4,$5,0*
20,1,$1+$1,$4,$5,$6,$7,0*
20,1,$1+$1,$6,$7,$8,$9,0*
20,1,$1+$1,$8,$9,$2,$3,0*%
%AMFreePoly0*
4,1,9,0.000001,0.700000,0.000001,0.000000,0.000000,-0.000001,-0.500000,-0.000001,-0.500001,0.000000,-0.500001,0.700000,-0.500000,0.700001,0.000000,0.700001,0.000001,0.700000,0.000001,0.700000,$1*%
%AMFreePoly1*
4,1,9,0.750001,3.365000,0.750001,0.000000,0.750000,-0.000001,0.000000,-0.000001,-0.000001,0.000000,-0.000001,3.365000,0.000000,3.365001,0.750000,3.365001,0.750001,3.365000,0.750001,3.365000,$1*%
%AMFreePoly2*
4,1,9,0.500001,0.000000,0.500001,-0.700000,0.500000,-0.700001,0.000000,-0.700001,-0.000001,-0.700000,-0.000001,0.000000,0.000000,0.000001,0.500000,0.000001,0.500001,0.000000,0.500001,0.000000,$1*%
%AMFreePoly3*
4,1,9,0.000001,0.000000,0.000001,-4.700000,0.000000,-4.700001,-4.534500,-4.700001,-4.534501,-4.700000,-4.534501,0.000000,-4.534500,0.000001,0.000000,0.000001,0.000001,0.000000,0.000001,0.000000,$1*%
G04 Aperture macros list end*
%ADD10C,0.000000*%
%ADD11RoundRect,0.250001X1.149999X-1.149999X1.149999X1.149999X-1.149999X1.149999X-1.149999X-1.149999X0*%
%ADD12C,2.800000*%
%ADD13C,0.500000*%
%ADD14RoundRect,0.200000X0.275000X-0.200000X0.275000X0.200000X-0.275000X0.200000X-0.275000X-0.200000X0*%
%ADD15C,0.499999*%
%ADD16R,0.399999X0.700001*%
%ADD17R,0.635000X1.854200*%
%ADD18R,6.045200X5.105400*%
%ADD19R,10.109200X5.105400*%
%ADD20RoundRect,0.200000X-0.200000X-0.275000X0.200000X-0.275000X0.200000X0.275000X-0.200000X0.275000X0*%
%ADD21RoundRect,0.200000X-0.275000X0.200000X-0.275000X-0.200000X0.275000X-0.200000X0.275000X0.200000X0*%
%ADD22RoundRect,0.250001X-1.149999X-1.149999X1.149999X-1.149999X1.149999X1.149999X-1.149999X1.149999X0*%
%ADD23RoundRect,0.250001X-1.149999X1.149999X-1.149999X-1.149999X1.149999X-1.149999X1.149999X1.149999X0*%
%ADD24C,2.000000*%
%ADD25RoundRect,0.225000X0.250000X-0.225000X0.250000X0.225000X-0.250000X0.225000X-0.250000X-0.225000X0*%
%ADD26O,1.600000X1.600000*%
%ADD27R,1.600000X1.600000*%
%ADD28RoundRect,0.250000X0.650000X-0.325000X0.650000X0.325000X-0.650000X0.325000X-0.650000X-0.325000X0*%
%ADD29RoundRect,0.225000X0.225000X0.250000X-0.225000X0.250000X-0.225000X-0.250000X0.225000X-0.250000X0*%
%ADD30RoundRect,0.250000X0.325000X1.100000X-0.325000X1.100000X-0.325000X-1.100000X0.325000X-1.100000X0*%
%ADD31RoundRect,0.225000X-0.225000X-0.250000X0.225000X-0.250000X0.225000X0.250000X-0.225000X0.250000X0*%
%ADD32RoundRect,0.140000X-0.140000X-0.170000X0.140000X-0.170000X0.140000X0.170000X-0.140000X0.170000X0*%
%ADD33RoundRect,0.250000X1.050000X0.550000X-1.050000X0.550000X-1.050000X-0.550000X1.050000X-0.550000X0*%
%ADD34R,4.000000X14.000000*%
%ADD35R,0.431800X0.660400*%
%ADD36R,0.127000X0.127000*%
%ADD37RoundRect,0.147500X-0.172500X0.147500X-0.172500X-0.147500X0.172500X-0.147500X0.172500X0.147500X0*%
%ADD38R,0.249999X0.599999*%
%ADD39R,0.599999X0.249999*%
%ADD40R,1.699999X2.700000*%
%ADD41FreePoly0,270.000000*%
%ADD42R,0.650000X1.250000*%
%ADD43FreePoly1,270.000000*%
%ADD44FreePoly2,270.000000*%
%ADD45FreePoly3,270.000000*%
%ADD46RoundRect,0.250000X0.262500X0.450000X-0.262500X0.450000X-0.262500X-0.450000X0.262500X-0.450000X0*%
%ADD47RoundRect,0.135000X-0.135000X-0.185000X0.135000X-0.185000X0.135000X0.185000X-0.135000X0.185000X0*%
%ADD48R,4.500000X1.650000*%
G04 APERTURE END LIST*
D10*
%TO.C,U3*%
G36*
X207397141Y-122976023D02*
G01*
X207407131Y-122979053D01*
X207416336Y-122983976D01*
X207424405Y-122990598D01*
X207431027Y-122998667D01*
X207435950Y-123007872D01*
X207438980Y-123017862D01*
X207440001Y-123028251D01*
X207440001Y-124696751D01*
X207438980Y-124707140D01*
X207435950Y-124717130D01*
X207431027Y-124726335D01*
X207424405Y-124734404D01*
X207416336Y-124741026D01*
X207407131Y-124745949D01*
X207397141Y-124748979D01*
X207386752Y-124750000D01*
X205043252Y-124750000D01*
X205032863Y-124748979D01*
X205022873Y-124745949D01*
X205013668Y-124741026D01*
X205005599Y-124734404D01*
X204998977Y-124726335D01*
X204994054Y-124717130D01*
X204991024Y-124707140D01*
X204990003Y-124696751D01*
X204990003Y-123028251D01*
X204991024Y-123017862D01*
X204994054Y-123007872D01*
X204998977Y-122998667D01*
X205005599Y-122990598D01*
X205013668Y-122983976D01*
X205022873Y-122979053D01*
X205032863Y-122976023D01*
X205043252Y-122975000D01*
X207386752Y-122975000D01*
X207397141Y-122976023D01*
G37*
G36*
X207340001Y-123265002D02*
G01*
X207040002Y-123265002D01*
X207040002Y-122765003D01*
X207340001Y-122765003D01*
X207340001Y-123265002D01*
G37*
G36*
X206690000Y-123265002D02*
G01*
X206390000Y-123265002D01*
X206390000Y-122765003D01*
X206690000Y-122765003D01*
X206690000Y-123265002D01*
G37*
G36*
X206040004Y-123265002D02*
G01*
X205740004Y-123265002D01*
X205740004Y-122765003D01*
X206040004Y-122765003D01*
X206040004Y-123265002D01*
G37*
G36*
X205390002Y-123265002D02*
G01*
X205090003Y-123265002D01*
X205090003Y-122765003D01*
X205390002Y-122765003D01*
X205390002Y-123265002D01*
G37*
%TO.C,Q1*%
G36*
X164765901Y-101449800D02*
G01*
X164984100Y-101449800D01*
X164984100Y-100979800D01*
X165415900Y-100979800D01*
X165415900Y-101449800D01*
X165634102Y-101449800D01*
X165634102Y-100979800D01*
X166065902Y-100979800D01*
X166065902Y-101449800D01*
X166284100Y-101449800D01*
X166284100Y-100979800D01*
X166715900Y-100979800D01*
X166715905Y-102529500D01*
X167254905Y-102529500D01*
X167254905Y-103099500D01*
X166715905Y-103099500D01*
X166715905Y-103279500D01*
X164334097Y-103279500D01*
X164334097Y-103099500D01*
X163795097Y-103099500D01*
X163795097Y-102529500D01*
X164334097Y-102529500D01*
X164334102Y-100979800D01*
X164765901Y-100979800D01*
X164765901Y-101449800D01*
G37*
%TD*%
D11*
%TO.C,J3*%
X223500000Y-126500000D03*
D12*
X223500000Y-121500000D03*
%TD*%
D13*
%TO.C,REF\u002A\u002A*%
X173000000Y-161250000D03*
X173000000Y-160400000D03*
X173000000Y-159550000D03*
X173000000Y-158700000D03*
X173000000Y-157850000D03*
X173000000Y-157000000D03*
X173000000Y-156150000D03*
X173000000Y-155300000D03*
X173000000Y-154450000D03*
X173000000Y-153600000D03*
X173000000Y-152750000D03*
%TD*%
%TO.C,REF\u002A\u002A*%
X173000000Y-151750000D03*
X173000000Y-150900000D03*
X173000000Y-150050000D03*
X173000000Y-149200000D03*
X173000000Y-148350000D03*
X173000000Y-147500000D03*
X173000000Y-146650000D03*
X173000000Y-145800000D03*
X173000000Y-144950000D03*
X173000000Y-144100000D03*
X173000000Y-143250000D03*
%TD*%
%TO.C,REF\u002A\u002A*%
X173000000Y-142250000D03*
X173000000Y-141400000D03*
X173000000Y-140550000D03*
X173000000Y-139700000D03*
X173000000Y-138850000D03*
X173000000Y-138000000D03*
X173000000Y-137150000D03*
X173000000Y-136300000D03*
X173000000Y-135450000D03*
X173000000Y-134600000D03*
X173000000Y-133750000D03*
%TD*%
%TO.C,REF\u002A\u002A*%
X173000000Y-132750000D03*
X173000000Y-131900000D03*
X173000000Y-131050000D03*
X173000000Y-130200000D03*
X173000000Y-129350000D03*
X173000000Y-128500000D03*
X173000000Y-127650000D03*
X173000000Y-126800000D03*
X173000000Y-125950000D03*
X173000000Y-125100000D03*
X173000000Y-124250000D03*
%TD*%
%TO.C,REF\u002A\u002A*%
X173000000Y-123250000D03*
X173000000Y-122400000D03*
X173000000Y-121550000D03*
X173000000Y-120700000D03*
X173000000Y-119850000D03*
X173000000Y-119000000D03*
X173000000Y-118150000D03*
X173000000Y-117300000D03*
X173000000Y-116450000D03*
X173000000Y-115600000D03*
X173000000Y-114750000D03*
%TD*%
%TO.C,REF\u002A\u002A*%
X173000000Y-113750000D03*
X173000000Y-112900000D03*
X173000000Y-112050000D03*
X173000000Y-111200000D03*
X173000000Y-110350000D03*
X173000000Y-109500000D03*
X173000000Y-108650000D03*
X173000000Y-107800000D03*
X173000000Y-106950000D03*
X173000000Y-106100000D03*
X173000000Y-105250000D03*
%TD*%
%TO.C,REF\u002A\u002A*%
X173000000Y-104250000D03*
X173000000Y-103400000D03*
X173000000Y-102550000D03*
X173000000Y-101700000D03*
X173000000Y-100850000D03*
X173000000Y-100000000D03*
X173000000Y-99150000D03*
X173000000Y-98300000D03*
X173000000Y-97450000D03*
X173000000Y-96600000D03*
X173000000Y-95750000D03*
%TD*%
D14*
%TO.C,R15*%
X213440000Y-119115000D03*
X213440000Y-120765000D03*
%TD*%
%TO.C,R18*%
X210240000Y-120765000D03*
X210240000Y-119115000D03*
%TD*%
D15*
%TO.C,U3*%
X206215002Y-122587502D03*
X207190001Y-123040001D03*
X205240003Y-123040001D03*
X206215002Y-123492502D03*
X207190001Y-123945000D03*
X205240003Y-123945000D03*
X206215002Y-124397501D03*
D16*
X205240003Y-122640002D03*
X205890001Y-122640002D03*
X206540003Y-122640002D03*
X207190001Y-122640002D03*
X207190001Y-125740000D03*
X206540000Y-125740000D03*
X205890001Y-125740000D03*
X205240000Y-125740000D03*
%TD*%
D17*
%TO.C,U2*%
X216302401Y-127590000D03*
X215311801Y-127590000D03*
X214321201Y-127590000D03*
X213330601Y-127590000D03*
X212340001Y-127590000D03*
X211349401Y-127590000D03*
X210358801Y-127590000D03*
X209368201Y-127590000D03*
X208377601Y-127590000D03*
X207387001Y-127590000D03*
X206396401Y-127590000D03*
X205405801Y-127590000D03*
X204415201Y-127590000D03*
X203424601Y-127590000D03*
X202434001Y-127590000D03*
X202434001Y-145598600D03*
X203424601Y-145598600D03*
X204415201Y-145598600D03*
X205405801Y-145598600D03*
X206396401Y-145598600D03*
X207387001Y-145598600D03*
X208377601Y-145598600D03*
X209368201Y-145598600D03*
X210358801Y-145598600D03*
X211349401Y-145598600D03*
X212340001Y-145598600D03*
X213330601Y-145598600D03*
X214321201Y-145598600D03*
X215311801Y-145598600D03*
X216302401Y-145598600D03*
D18*
X213440801Y-139572000D03*
X205295565Y-139572000D03*
D19*
X209368201Y-133616658D03*
%TD*%
D14*
%TO.C,R17*%
X204240000Y-98965000D03*
X204240000Y-97315000D03*
%TD*%
D20*
%TO.C,R16*%
X205915000Y-98890000D03*
X207565000Y-98890000D03*
%TD*%
D21*
%TO.C,R14*%
X211840000Y-119115000D03*
X211840000Y-120765000D03*
%TD*%
%TO.C,R13*%
X208640000Y-119115000D03*
X208640000Y-120765000D03*
%TD*%
%TO.C,R12*%
X206840000Y-119115000D03*
X206840000Y-120765000D03*
%TD*%
%TO.C,R11*%
X204240000Y-118940000D03*
X204240000Y-120590000D03*
%TD*%
%TO.C,R10*%
X199240000Y-118990000D03*
X199240000Y-120640000D03*
%TD*%
D22*
%TO.C,J5*%
X207500000Y-151750000D03*
D12*
X212500000Y-151750000D03*
%TD*%
D23*
%TO.C,J4*%
X195640000Y-129790000D03*
D12*
X195640000Y-134790000D03*
%TD*%
D24*
%TO.C,FID6*%
X224000000Y-154000000D03*
%TD*%
%TO.C,FID5*%
X176000000Y-154000000D03*
%TD*%
%TO.C,FID4*%
X176000000Y-98000000D03*
%TD*%
D25*
%TO.C,C22*%
X209240000Y-98915000D03*
X209240000Y-97365000D03*
%TD*%
D26*
%TO.C,A1*%
X181440000Y-101510000D03*
X183980000Y-101510000D03*
X186520000Y-101510000D03*
X189060000Y-101510000D03*
X191600000Y-101510000D03*
X194140000Y-101510000D03*
X196680000Y-101510000D03*
X199220000Y-101510000D03*
X201760000Y-101510000D03*
X204300000Y-101510000D03*
X206840000Y-101510000D03*
X209380000Y-101510000D03*
X211920000Y-101510000D03*
X214460000Y-101510000D03*
X217000000Y-101510000D03*
X217000000Y-116750000D03*
X214460000Y-116750000D03*
X211920000Y-116750000D03*
X209380000Y-116750000D03*
X206840000Y-116750000D03*
X204300000Y-116750000D03*
X201760000Y-116750000D03*
X199220000Y-116750000D03*
X196680000Y-116750000D03*
X194140000Y-116750000D03*
X191600000Y-116750000D03*
X189060000Y-116750000D03*
X186520000Y-116750000D03*
X183980000Y-116750000D03*
D27*
X181440000Y-116750000D03*
%TD*%
D28*
%TO.C,C7*%
X159700000Y-100775000D03*
X159700000Y-97825000D03*
%TD*%
D23*
%TO.C,J1*%
X142250000Y-107250000D03*
D12*
X142250000Y-112250000D03*
%TD*%
D29*
%TO.C,C13*%
X158375000Y-107950000D03*
X156825000Y-107950000D03*
%TD*%
D24*
%TO.C,FID1*%
X139000000Y-98000000D03*
%TD*%
D28*
%TO.C,C3*%
X151900000Y-100775000D03*
X151900000Y-97825000D03*
%TD*%
D20*
%TO.C,R6*%
X162100000Y-110750000D03*
X163750000Y-110750000D03*
%TD*%
D24*
%TO.C,FID3*%
X170000000Y-151000000D03*
%TD*%
D30*
%TO.C,C19*%
X148375000Y-127600000D03*
X145425000Y-127600000D03*
%TD*%
D31*
%TO.C,C5*%
X157725000Y-111500000D03*
X159275000Y-111500000D03*
%TD*%
D32*
%TO.C,C11*%
X162020000Y-109500000D03*
X162980000Y-109500000D03*
%TD*%
D31*
%TO.C,C12*%
X164225000Y-105750000D03*
X165775000Y-105750000D03*
%TD*%
D33*
%TO.C,C1*%
X146050000Y-101000000D03*
X142450000Y-101000000D03*
%TD*%
D25*
%TO.C,C10*%
X152250000Y-104025000D03*
X152250000Y-102475000D03*
%TD*%
D21*
%TO.C,R8*%
X151600000Y-106950000D03*
X151600000Y-108600000D03*
%TD*%
D30*
%TO.C,C18*%
X148375000Y-124000000D03*
X145425000Y-124000000D03*
%TD*%
D34*
%TO.C,L1*%
X167800000Y-121800000D03*
X151800000Y-121800000D03*
%TD*%
D35*
%TO.C,Q1*%
X164550002Y-104250000D03*
X165200000Y-104250000D03*
X165850002Y-104250000D03*
X166500000Y-104250000D03*
D36*
X166500000Y-101310000D03*
X165850002Y-101310000D03*
X165200000Y-101310000D03*
X164550002Y-101310000D03*
%TD*%
D30*
%TO.C,C20*%
X148375000Y-131200000D03*
X145425000Y-131200000D03*
%TD*%
D37*
%TO.C,D1*%
X160500000Y-110485000D03*
X160500000Y-109515000D03*
%TD*%
D14*
%TO.C,R4*%
X149500000Y-103900000D03*
X149500000Y-102250000D03*
%TD*%
D28*
%TO.C,C2*%
X149400000Y-100775000D03*
X149400000Y-97825000D03*
%TD*%
D22*
%TO.C,J2*%
X156000000Y-148000000D03*
D12*
X161000000Y-148000000D03*
%TD*%
D38*
%TO.C,U1*%
X160600000Y-104099999D03*
D39*
X159700002Y-104500001D03*
X159700002Y-105000000D03*
X159700002Y-105500002D03*
X159700002Y-106000000D03*
X159700002Y-106500002D03*
X159700002Y-107000001D03*
X159700002Y-107500000D03*
X159700002Y-107999999D03*
D38*
X160600000Y-108400001D03*
X162100002Y-108400001D03*
D39*
X163000000Y-107999999D03*
X163000000Y-107500000D03*
X163000000Y-106999998D03*
X163000000Y-106500000D03*
X163000000Y-105999998D03*
X163000000Y-105499999D03*
X163000000Y-105000000D03*
X163000000Y-104499998D03*
D38*
X162100002Y-104099999D03*
D40*
X161350001Y-106250000D03*
D15*
X160750002Y-106250000D03*
X161350001Y-105150000D03*
X161350001Y-107350000D03*
X161950000Y-106250000D03*
%TD*%
D41*
%TO.C,Q2*%
X170310400Y-107500000D03*
D42*
X170667000Y-107625000D03*
X169295800Y-107625000D03*
D41*
X167645400Y-107500000D03*
D43*
X167645400Y-107500000D03*
D42*
X168000000Y-107625000D03*
X166755800Y-107625000D03*
X166653800Y-113325000D03*
D44*
X167010400Y-113450000D03*
D42*
X168000000Y-113325000D03*
D44*
X168345400Y-113450000D03*
D42*
X169320800Y-113325000D03*
D44*
X169675400Y-113450000D03*
D42*
X170667000Y-113325000D03*
D45*
X171010400Y-113450000D03*
D44*
X171010400Y-113450000D03*
%TD*%
D46*
%TO.C,R5*%
X158112500Y-109750000D03*
X156287500Y-109750000D03*
%TD*%
D47*
%TO.C,R1*%
X159490000Y-112800000D03*
X160510000Y-112800000D03*
%TD*%
D28*
%TO.C,C9*%
X162200000Y-100775000D03*
X162200000Y-97825000D03*
%TD*%
D21*
%TO.C,R9*%
X153350000Y-106950000D03*
X153350000Y-108600000D03*
%TD*%
D29*
%TO.C,C17*%
X153575000Y-105500000D03*
X152025000Y-105500000D03*
%TD*%
D30*
%TO.C,C16*%
X148375000Y-120500000D03*
X145425000Y-120500000D03*
%TD*%
D32*
%TO.C,C8*%
X154795000Y-104000000D03*
X155755000Y-104000000D03*
%TD*%
D14*
%TO.C,R7*%
X155200000Y-107075000D03*
X155200000Y-105425000D03*
%TD*%
D24*
%TO.C,FID2*%
X139000000Y-151000000D03*
%TD*%
D28*
%TO.C,C4*%
X154500000Y-100775000D03*
X154500000Y-97825000D03*
%TD*%
D14*
%TO.C,R3*%
X157000000Y-103950000D03*
X157000000Y-102300000D03*
%TD*%
D28*
%TO.C,C6*%
X157100000Y-100775000D03*
X157100000Y-97825000D03*
%TD*%
D48*
%TO.C,C21*%
X153500000Y-137000000D03*
X161900000Y-137000000D03*
%TD*%
D29*
%TO.C,C14*%
X158575000Y-106400000D03*
X157025000Y-106400000D03*
%TD*%
D30*
%TO.C,C15*%
X148375000Y-117000000D03*
X145425000Y-117000000D03*
%TD*%
D14*
%TO.C,R2*%
X158500000Y-104900000D03*
X158500000Y-103250000D03*
%TD*%
M02*
