%TF.GenerationSoftware,KiCad,Pcbnew,9.0.6*%
%TF.CreationDate,2026-03-07T17:36:17+01:00*%
%TF.ProjectId,Protection,50726f74-6563-4746-996f-6e2e6b696361,rev?*%
%TF.SameCoordinates,Original*%
%TF.FileFunction,Copper,L1,Top*%
%TF.FilePolarity,Positive*%
%FSLAX46Y46*%
G04 Gerber Fmt 4.6, Leading zero omitted, Abs format (unit mm)*
G04 Created by KiCad (PCBNEW 9.0.6) date 2026-03-07 17:36:17*
%MOMM*%
%LPD*%
G01*
G04 APERTURE LIST*
G04 Aperture macros list*
%AMRoundRect*
0 Rectangle with rounded corners*
0 $1 Rounding radius*
0 $2 $3 $4 $5 $6 $7 $8 $9 X,Y pos of 4 corners*
0 Add a 4 corners polygon primitive as box body*
4,1,4,$2,$3,$4,$5,$6,$7,$8,$9,$2,$3,0*
0 Add four circle primitives for the rounded corners*
1,1,$1+$1,$2,$3*
1,1,$1+$1,$4,$5*
1,1,$1+$1,$6,$7*
1,1,$1+$1,$8,$9*
0 Add four rect primitives between the rounded corners*
20,1,$1+$1,$2,$3,$4,$5,0*
20,1,$1+$1,$4,$5,$6,$7,0*
20,1,$1+$1,$6,$7,$8,$9,0*
20,1,$1+$1,$8,$9,$2,$3,0*%
G04 Aperture macros list end*
%TA.AperFunction,Conductor*%
%ADD10C,0.200000*%
%TD*%
%TA.AperFunction,SMDPad,CuDef*%
%ADD11R,0.558800X1.320800*%
%TD*%
%TA.AperFunction,SMDPad,CuDef*%
%ADD12R,1.371600X0.330200*%
%TD*%
%TA.AperFunction,SMDPad,CuDef*%
%ADD13R,0.599999X1.000000*%
%TD*%
%TA.AperFunction,SMDPad,CuDef*%
%ADD14R,1.000000X3.500001*%
%TD*%
%TA.AperFunction,SMDPad,CuDef*%
%ADD15R,8.650001X8.400002*%
%TD*%
%TA.AperFunction,SMDPad,CuDef*%
%ADD16R,3.500001X1.000000*%
%TD*%
%TA.AperFunction,SMDPad,CuDef*%
%ADD17R,8.400002X8.650001*%
%TD*%
%TA.AperFunction,SMDPad,CuDef*%
%ADD18RoundRect,0.250000X-0.362500X-1.425000X0.362500X-1.425000X0.362500X1.425000X-0.362500X1.425000X0*%
%TD*%
%TA.AperFunction,ComponentPad*%
%ADD19RoundRect,0.250000X-0.750000X0.750000X-0.750000X-0.750000X0.750000X-0.750000X0.750000X0.750000X0*%
%TD*%
%TA.AperFunction,ComponentPad*%
%ADD20C,2.000000*%
%TD*%
%TA.AperFunction,SMDPad,CuDef*%
%ADD21RoundRect,0.225000X-0.250000X0.225000X-0.250000X-0.225000X0.250000X-0.225000X0.250000X0.225000X0*%
%TD*%
%TA.AperFunction,SMDPad,CuDef*%
%ADD22RoundRect,0.200000X0.200000X0.275000X-0.200000X0.275000X-0.200000X-0.275000X0.200000X-0.275000X0*%
%TD*%
%TA.AperFunction,SMDPad,CuDef*%
%ADD23RoundRect,0.250000X-0.250000X-0.475000X0.250000X-0.475000X0.250000X0.475000X-0.250000X0.475000X0*%
%TD*%
%TA.AperFunction,SMDPad,CuDef*%
%ADD24RoundRect,0.225000X-0.225000X-0.250000X0.225000X-0.250000X0.225000X0.250000X-0.225000X0.250000X0*%
%TD*%
%TA.AperFunction,SMDPad,CuDef*%
%ADD25RoundRect,0.250000X0.900000X-1.000000X0.900000X1.000000X-0.900000X1.000000X-0.900000X-1.000000X0*%
%TD*%
%TA.AperFunction,SMDPad,CuDef*%
%ADD26RoundRect,0.200000X-0.200000X-0.275000X0.200000X-0.275000X0.200000X0.275000X-0.200000X0.275000X0*%
%TD*%
%TA.AperFunction,ComponentPad*%
%ADD27RoundRect,0.250000X0.750000X0.750000X-0.750000X0.750000X-0.750000X-0.750000X0.750000X-0.750000X0*%
%TD*%
%TA.AperFunction,SMDPad,CuDef*%
%ADD28RoundRect,0.225000X0.225000X0.250000X-0.225000X0.250000X-0.225000X-0.250000X0.225000X-0.250000X0*%
%TD*%
%TA.AperFunction,ComponentPad*%
%ADD29RoundRect,0.250001X-1.149999X1.149999X-1.149999X-1.149999X1.149999X-1.149999X1.149999X1.149999X0*%
%TD*%
%TA.AperFunction,ComponentPad*%
%ADD30C,2.800000*%
%TD*%
%TA.AperFunction,SMDPad,CuDef*%
%ADD31RoundRect,0.250000X1.000000X0.900000X-1.000000X0.900000X-1.000000X-0.900000X1.000000X-0.900000X0*%
%TD*%
%TA.AperFunction,SMDPad,CuDef*%
%ADD32RoundRect,0.225000X-0.225000X-0.375000X0.225000X-0.375000X0.225000X0.375000X-0.225000X0.375000X0*%
%TD*%
%TA.AperFunction,SMDPad,CuDef*%
%ADD33RoundRect,0.250000X-1.400000X-1.000000X1.400000X-1.000000X1.400000X1.000000X-1.400000X1.000000X0*%
%TD*%
%TA.AperFunction,ComponentPad*%
%ADD34R,1.700000X1.700000*%
%TD*%
%TA.AperFunction,ComponentPad*%
%ADD35C,1.700000*%
%TD*%
%TA.AperFunction,ViaPad*%
%ADD36C,0.800000*%
%TD*%
%TA.AperFunction,ViaPad*%
%ADD37C,0.500000*%
%TD*%
%TA.AperFunction,Conductor*%
%ADD38C,1.000000*%
%TD*%
%TA.AperFunction,Conductor*%
%ADD39C,0.400000*%
%TD*%
G04 APERTURE END LIST*
D10*
%TO.N,/TIMER*%
X103750000Y-91000000D02*
X103750000Y-92750000D01*
%TD*%
D11*
%TO.P,U3,1,BASE*%
%TO.N,Net-(U3-BASE)*%
X101945000Y-84000000D03*
%TO.P,U3,2,EMITTER*%
%TO.N,Net-(D4-K)*%
X103850000Y-84000000D03*
%TO.P,U3,3,COLLECTOR*%
%TO.N,GND*%
X102897500Y-81968000D03*
%TD*%
D12*
%TO.P,U2,10,GATE*%
%TO.N,/GATE*%
X103697100Y-88959999D03*
%TO.P,U2,9,OUT*%
%TO.N,/OUT*%
X103697100Y-89460001D03*
%TO.P,U2,8,PGD*%
%TO.N,Net-(U2-PGD)*%
X103697100Y-89960000D03*
%TO.P,U2,7,PWR*%
%TO.N,/PWR*%
X103697100Y-90459999D03*
%TO.P,U2,6,TIMER*%
%TO.N,/TIMER*%
X103697100Y-90960001D03*
%TO.P,U2,5,GND*%
%TO.N,GND*%
X99302900Y-90960001D03*
%TO.P,U2,4,OVLO*%
%TO.N,/OVLO*%
X99302900Y-90459999D03*
%TO.P,U2,3,UVLO*%
%TO.N,/UVLO*%
X99302900Y-89960000D03*
%TO.P,U2,2,VIN*%
%TO.N,/VIN*%
X99302900Y-89460001D03*
%TO.P,U2,1,SEN*%
%TO.N,/SEN*%
X99302900Y-88959999D03*
%TD*%
D13*
%TO.P,U1,1,VCAP*%
%TO.N,Net-(U1-VCAP)*%
X94439999Y-61472323D03*
%TO.P,U1,2,GND*%
%TO.N,GND*%
X93489998Y-61472323D03*
%TO.P,U1,3,EN*%
%TO.N,Net-(D1-A1)*%
X92540000Y-61472323D03*
%TO.P,U1,4,CATHODE*%
%TO.N,/VIN*%
X92540000Y-64222323D03*
%TO.P,U1,5,GATE*%
%TO.N,Net-(Q1-Gate)*%
X93489998Y-64222323D03*
%TO.P,U1,6,ANODE*%
%TO.N,Net-(D1-A1)*%
X94439999Y-64222323D03*
%TD*%
D14*
%TO.P,Q3,1,Gate*%
%TO.N,Net-(Q3-Gate)*%
X125420000Y-93650000D03*
D15*
%TO.P,Q3,2,Drain*%
%TO.N,/SEN*%
X127960000Y-83750000D03*
D14*
%TO.P,Q3,3,Source*%
%TO.N,/OUT*%
X130500000Y-93650000D03*
%TD*%
%TO.P,Q2,1,Gate*%
%TO.N,Net-(Q2-Gate)*%
X113170000Y-93750000D03*
D15*
%TO.P,Q2,2,Drain*%
%TO.N,/SEN*%
X115710000Y-83850000D03*
D14*
%TO.P,Q2,3,Source*%
%TO.N,/OUT*%
X118250000Y-93750000D03*
%TD*%
D16*
%TO.P,Q1,1,Gate*%
%TO.N,Net-(Q1-Gate)*%
X104700000Y-75180000D03*
D17*
%TO.P,Q1,2,Drain*%
%TO.N,/VIN*%
X94800000Y-72640000D03*
D16*
%TO.P,Q1,3,Source*%
%TO.N,Net-(D1-A1)*%
X104700000Y-70100000D03*
%TD*%
D18*
%TO.P,R9,1*%
%TO.N,/VIN*%
X92575000Y-80750000D03*
%TO.P,R9,2*%
%TO.N,/SEN*%
X98500000Y-80750000D03*
%TD*%
D19*
%TO.P,C7,1*%
%TO.N,/OUT*%
X121750000Y-101382323D03*
D20*
%TO.P,C7,2*%
%TO.N,GND*%
X121750000Y-106382323D03*
%TD*%
D21*
%TO.P,C8,1*%
%TO.N,/OUT*%
X115040000Y-102975000D03*
%TO.P,C8,2*%
%TO.N,GND*%
X115040000Y-104525000D03*
%TD*%
D22*
%TO.P,R4,1*%
%TO.N,Net-(R3-Pad2)*%
X91250000Y-93500000D03*
%TO.P,R4,2*%
%TO.N,GND*%
X89600000Y-93500000D03*
%TD*%
D23*
%TO.P,C3,1*%
%TO.N,Net-(D1-A1)*%
X92590000Y-59222323D03*
%TO.P,C3,2*%
%TO.N,Net-(U1-VCAP)*%
X94490000Y-59222323D03*
%TD*%
D24*
%TO.P,C9,1*%
%TO.N,GND*%
X104225000Y-81100000D03*
%TO.P,C9,2*%
%TO.N,Net-(D4-K)*%
X105775000Y-81100000D03*
%TD*%
D22*
%TO.P,R1,1*%
%TO.N,/VIN*%
X92975000Y-88500000D03*
%TO.P,R1,2*%
%TO.N,Net-(R1-Pad2)*%
X91325000Y-88500000D03*
%TD*%
%TO.P,R12,1*%
%TO.N,Net-(Q3-Gate)*%
X125360000Y-97350000D03*
%TO.P,R12,2*%
%TO.N,/GATE*%
X123710000Y-97350000D03*
%TD*%
D25*
%TO.P,D1,1,A1*%
%TO.N,Net-(D1-A1)*%
X111300000Y-63882323D03*
%TO.P,D1,2,A2*%
%TO.N,GND*%
X111300000Y-59582323D03*
%TD*%
D26*
%TO.P,R2,1*%
%TO.N,Net-(R1-Pad2)*%
X91300000Y-90100000D03*
%TO.P,R2,2*%
%TO.N,/UVLO*%
X92950000Y-90100000D03*
%TD*%
D27*
%TO.P,C4,1*%
%TO.N,/VIN*%
X87040000Y-75850000D03*
D20*
%TO.P,C4,2*%
%TO.N,GND*%
X82040000Y-75850000D03*
%TD*%
D28*
%TO.P,C5,1*%
%TO.N,/VIN*%
X86025000Y-82250000D03*
%TO.P,C5,2*%
%TO.N,GND*%
X84475000Y-82250000D03*
%TD*%
D29*
%TO.P,J1,1,Pin_1*%
%TO.N,GND*%
X119000000Y-59250000D03*
D30*
%TO.P,J1,2,Pin_2*%
%TO.N,Net-(D1-A1)*%
X119000000Y-64250000D03*
%TD*%
D26*
%TO.P,R15,1*%
%TO.N,/GATE*%
X100425000Y-86250000D03*
%TO.P,R15,2*%
%TO.N,Net-(U3-BASE)*%
X102075000Y-86250000D03*
%TD*%
D28*
%TO.P,C10,1*%
%TO.N,GND*%
X107275000Y-84250000D03*
%TO.P,C10,2*%
%TO.N,Net-(D4-K)*%
X105725000Y-84250000D03*
%TD*%
D22*
%TO.P,R11,1*%
%TO.N,Net-(Q2-Gate)*%
X113075000Y-96500000D03*
%TO.P,R11,2*%
%TO.N,/GATE*%
X111425000Y-96500000D03*
%TD*%
D18*
%TO.P,R10,1*%
%TO.N,/VIN*%
X92575000Y-85660000D03*
%TO.P,R10,2*%
%TO.N,/SEN*%
X98500000Y-85660000D03*
%TD*%
D31*
%TO.P,D2,1,A1*%
%TO.N,/VIN*%
X87450000Y-85500000D03*
%TO.P,D2,2,A2*%
%TO.N,GND*%
X83150000Y-85500000D03*
%TD*%
D22*
%TO.P,R7,1*%
%TO.N,/OVLO*%
X96500000Y-92700000D03*
%TO.P,R7,2*%
%TO.N,GND*%
X94850000Y-92700000D03*
%TD*%
D32*
%TO.P,D4,1,K*%
%TO.N,Net-(D4-K)*%
X103700000Y-86250000D03*
%TO.P,D4,2,A*%
%TO.N,/GATE*%
X107000000Y-86250000D03*
%TD*%
D26*
%TO.P,R14,1*%
%TO.N,Net-(U2-PGD)*%
X105425000Y-89500000D03*
%TO.P,R14,2*%
%TO.N,Net-(J2-Pin_2)*%
X107075000Y-89500000D03*
%TD*%
D29*
%TO.P,J3,1,Pin_1*%
%TO.N,/OUT*%
X108750000Y-101750000D03*
D30*
%TO.P,J3,2,Pin_2*%
%TO.N,GND*%
X108750000Y-106750000D03*
%TD*%
D26*
%TO.P,R6,1*%
%TO.N,Net-(R5-Pad2)*%
X94950000Y-91150000D03*
%TO.P,R6,2*%
%TO.N,/OVLO*%
X96600000Y-91150000D03*
%TD*%
D33*
%TO.P,D3,1,K*%
%TO.N,/OUT*%
X131000000Y-101100000D03*
%TO.P,D3,2,A*%
%TO.N,GND*%
X131000000Y-107900000D03*
%TD*%
D26*
%TO.P,R13,1*%
%TO.N,/PWR*%
X105425000Y-91000000D03*
%TO.P,R13,2*%
%TO.N,GND*%
X107075000Y-91000000D03*
%TD*%
D22*
%TO.P,R5,1*%
%TO.N,/VIN*%
X96575000Y-89550000D03*
%TO.P,R5,2*%
%TO.N,Net-(R5-Pad2)*%
X94925000Y-89550000D03*
%TD*%
D28*
%TO.P,C2,1*%
%TO.N,Net-(D1-A1)*%
X94447323Y-57222323D03*
%TO.P,C2,2*%
%TO.N,GND*%
X92897323Y-57222323D03*
%TD*%
D21*
%TO.P,C6,1*%
%TO.N,/TIMER*%
X103750000Y-92725000D03*
%TO.P,C6,2*%
%TO.N,GND*%
X103750000Y-94275000D03*
%TD*%
D34*
%TO.P,J2,1,Pin_1*%
%TO.N,GND*%
X111252761Y-76250712D03*
D35*
%TO.P,J2,2,Pin_2*%
%TO.N,Net-(J2-Pin_2)*%
X108712761Y-76250712D03*
%TD*%
D22*
%TO.P,R3,1*%
%TO.N,/UVLO*%
X92950000Y-91850000D03*
%TO.P,R3,2*%
%TO.N,Net-(R3-Pad2)*%
X91300000Y-91850000D03*
%TD*%
D36*
%TO.N,GND*%
X82000000Y-74000000D03*
X87000000Y-59000000D03*
X113500000Y-77750000D03*
X126000000Y-74000000D03*
X124000000Y-60000000D03*
X130000000Y-68000000D03*
X83000000Y-98000000D03*
X130000000Y-62000000D03*
X83000000Y-100000000D03*
X134000000Y-64000000D03*
X126000000Y-62000000D03*
X93000000Y-94000000D03*
X97000000Y-94000000D03*
X101000000Y-96000000D03*
X91000000Y-102000000D03*
X128000000Y-72000000D03*
X83000000Y-96000000D03*
X93000000Y-56000000D03*
X89000000Y-57000000D03*
X81000000Y-61000000D03*
X120000000Y-72000000D03*
X103000000Y-110000000D03*
X83000000Y-94000000D03*
X121317500Y-59440000D03*
X126000000Y-56000000D03*
X114000000Y-74000000D03*
X83000000Y-63000000D03*
X126000000Y-76000000D03*
D37*
X101700000Y-90100000D03*
D36*
X87000000Y-102000000D03*
X132000000Y-68000000D03*
X108000000Y-72000000D03*
X89000000Y-92000000D03*
X114000000Y-70000000D03*
X120750000Y-108250000D03*
X110000000Y-72000000D03*
X85000000Y-102000000D03*
X118000000Y-74000000D03*
X126000000Y-64000000D03*
X97000000Y-102000000D03*
X128000000Y-70000000D03*
X91000000Y-56000000D03*
X116000000Y-70000000D03*
X124000000Y-64000000D03*
X134000000Y-62000000D03*
X83000000Y-92000000D03*
X87000000Y-98000000D03*
X110000000Y-96000000D03*
X95000000Y-102000000D03*
X89000000Y-59000000D03*
D37*
X101700000Y-89100000D03*
D36*
X98000000Y-56000000D03*
X99000000Y-102000000D03*
X132000000Y-110000000D03*
X130000000Y-70000000D03*
X91000000Y-98000000D03*
X126000000Y-72000000D03*
D37*
X88500000Y-93500000D03*
D36*
X81250000Y-86500000D03*
X121317500Y-60440000D03*
X122000000Y-70000000D03*
X93000000Y-102000000D03*
X95000000Y-94000000D03*
X81250000Y-84500000D03*
X128000000Y-66000000D03*
X93000000Y-96000000D03*
X128000000Y-76000000D03*
X110500000Y-57750000D03*
X122000000Y-72000000D03*
X131000000Y-110000000D03*
X85000000Y-94000000D03*
X120000000Y-76000000D03*
X127000000Y-96000000D03*
X111500000Y-57750000D03*
X97000000Y-96000000D03*
X126000000Y-66000000D03*
D37*
X105000000Y-94500000D03*
D36*
X126000000Y-70000000D03*
X85000000Y-100000000D03*
X91000000Y-62000000D03*
X128000000Y-68000000D03*
X103000000Y-100000000D03*
X95000000Y-100000000D03*
X89000000Y-98000000D03*
D37*
X92300000Y-62900000D03*
D36*
X85000000Y-61000000D03*
D37*
X108250000Y-84250000D03*
D36*
X81000000Y-98000000D03*
X127000000Y-98000000D03*
X98000000Y-58000000D03*
X124000000Y-74000000D03*
X103000000Y-108000000D03*
X112000000Y-70000000D03*
X134000000Y-76000000D03*
X128000000Y-64000000D03*
X122000000Y-74000000D03*
D37*
X83460000Y-82150000D03*
D36*
X110000000Y-74000000D03*
X126000000Y-60000000D03*
X112000000Y-74000000D03*
X89000000Y-90000000D03*
X85000000Y-96000000D03*
X83000000Y-74000000D03*
X132000000Y-76000000D03*
X89000000Y-63000000D03*
X134000000Y-70000000D03*
X130000000Y-72000000D03*
X85000000Y-92000000D03*
X83000000Y-61000000D03*
X116000000Y-72000000D03*
X103000000Y-106000000D03*
X130000000Y-64000000D03*
X83000000Y-90000000D03*
X99000000Y-100000000D03*
X97000000Y-100000000D03*
D37*
X91750000Y-57250000D03*
D36*
X87000000Y-100000000D03*
X87000000Y-57000000D03*
D37*
X101700000Y-91000000D03*
D36*
X110000000Y-94000000D03*
X120000000Y-70000000D03*
X124000000Y-76000000D03*
D37*
X93000000Y-62900000D03*
D36*
X83000000Y-102000000D03*
X81000000Y-96000000D03*
X122750000Y-108250000D03*
X112000000Y-72000000D03*
X132000000Y-74000000D03*
X94000000Y-56000000D03*
X81000000Y-100000000D03*
X101000000Y-98000000D03*
X99000000Y-98000000D03*
X118000000Y-72000000D03*
X95000000Y-96000000D03*
X124000000Y-68000000D03*
X111250000Y-106750000D03*
D37*
X99250000Y-91500000D03*
D36*
X97000000Y-98000000D03*
X91000000Y-58000000D03*
X87000000Y-92000000D03*
X114000000Y-72000000D03*
X126000000Y-58000000D03*
X130000000Y-66000000D03*
X93000000Y-100000000D03*
X132000000Y-64000000D03*
X108000000Y-74000000D03*
X113500000Y-76750000D03*
X116000000Y-74000000D03*
X132000000Y-66000000D03*
X85000000Y-98000000D03*
X116000000Y-76000000D03*
X87000000Y-94000000D03*
X89000000Y-100000000D03*
X81000000Y-102000000D03*
X87000000Y-96000000D03*
D37*
X93500000Y-60500000D03*
D36*
X101000000Y-102000000D03*
X98000000Y-60000000D03*
X118000000Y-76000000D03*
X96000000Y-56000000D03*
X110000000Y-70000000D03*
X87000000Y-63000000D03*
D37*
X100700000Y-89100000D03*
D36*
X134000000Y-72000000D03*
X111250000Y-107750000D03*
X121317500Y-58440000D03*
X124000000Y-56000000D03*
X87000000Y-55000000D03*
X108000000Y-70000000D03*
X89000000Y-96000000D03*
X128000000Y-62000000D03*
X103000000Y-112000000D03*
X93000000Y-98000000D03*
D37*
X115000000Y-105500000D03*
D36*
X134000000Y-78000000D03*
X110000000Y-98000000D03*
X85000000Y-90000000D03*
D37*
X105000000Y-82250000D03*
D36*
X132000000Y-62000000D03*
X124000000Y-58000000D03*
X89000000Y-102000000D03*
D37*
X107000000Y-92000000D03*
D36*
X89000000Y-61000000D03*
X134000000Y-66000000D03*
X91000000Y-100000000D03*
X111250000Y-105750000D03*
X130000000Y-110000000D03*
X124000000Y-66000000D03*
X103000000Y-98000000D03*
X124000000Y-96000000D03*
X128000000Y-74000000D03*
X85000000Y-63000000D03*
X126000000Y-68000000D03*
X132000000Y-72000000D03*
X118000000Y-70000000D03*
X91000000Y-60000000D03*
X103000000Y-104000000D03*
X91000000Y-96000000D03*
X132000000Y-70000000D03*
X87000000Y-90000000D03*
X110000000Y-92000000D03*
X81000000Y-63000000D03*
X95000000Y-98000000D03*
X130000000Y-74000000D03*
X124000000Y-72000000D03*
X112500000Y-57750000D03*
D37*
X101750000Y-81500000D03*
D36*
X99000000Y-96000000D03*
X81000000Y-74000000D03*
X81000000Y-92000000D03*
X115000000Y-96000000D03*
X89000000Y-55000000D03*
X122000000Y-76000000D03*
X120000000Y-74000000D03*
X124000000Y-70000000D03*
D37*
X100700000Y-90100000D03*
D36*
X121750000Y-108250000D03*
X101000000Y-100000000D03*
X81250000Y-85500000D03*
X134000000Y-68000000D03*
X103000000Y-102000000D03*
X87000000Y-61000000D03*
X81000000Y-94000000D03*
D37*
X100700000Y-91000000D03*
D36*
X81000000Y-90000000D03*
X134000000Y-74000000D03*
X130000000Y-76000000D03*
D37*
%TO.N,Net-(J2-Pin_2)*%
X109800000Y-77400000D03*
X108500000Y-88250000D03*
%TO.N,Net-(R5-Pad2)*%
X94000000Y-90876000D03*
X94000000Y-89750000D03*
%TD*%
D38*
%TO.N,GND*%
X83560000Y-82250000D02*
X83460000Y-82150000D01*
D39*
X104225000Y-81475000D02*
X105000000Y-82250000D01*
D10*
X103750000Y-94275000D02*
X104775000Y-94275000D01*
D38*
X82040000Y-74040000D02*
X82000000Y-74000000D01*
D39*
X102218000Y-81968000D02*
X101750000Y-81500000D01*
D38*
X131000000Y-109000000D02*
X132000000Y-110000000D01*
D10*
X107075000Y-91000000D02*
X107075000Y-91925000D01*
D38*
X82040000Y-75040000D02*
X81000000Y-74000000D01*
D39*
X103357000Y-81968000D02*
X104225000Y-81100000D01*
D38*
X82040000Y-74960000D02*
X83000000Y-74000000D01*
X108750000Y-106750000D02*
X110250000Y-106750000D01*
X82040000Y-75850000D02*
X82040000Y-75040000D01*
D39*
X91750000Y-57250000D02*
X92869646Y-57250000D01*
D38*
X110250000Y-106750000D02*
X111250000Y-105750000D01*
X115040000Y-105460000D02*
X115000000Y-105500000D01*
X112762761Y-76250712D02*
X113512761Y-75500712D01*
X113262761Y-76250712D02*
X113512761Y-76500712D01*
D10*
X99302900Y-91447100D02*
X99250000Y-91500000D01*
D39*
X93500000Y-61462321D02*
X93489998Y-61472323D01*
X104225000Y-81100000D02*
X104225000Y-81475000D01*
D38*
X131000000Y-109000000D02*
X130000000Y-110000000D01*
X115040000Y-104525000D02*
X115040000Y-105460000D01*
X131000000Y-107900000D02*
X131000000Y-109000000D01*
X83150000Y-85500000D02*
X82250000Y-85500000D01*
X82250000Y-85500000D02*
X81250000Y-84500000D01*
D10*
X107075000Y-91925000D02*
X107000000Y-92000000D01*
X99302900Y-90960001D02*
X99302900Y-91447100D01*
D39*
X92869646Y-57250000D02*
X92897323Y-57222323D01*
X102897500Y-81968000D02*
X103357000Y-81968000D01*
X102897500Y-81968000D02*
X102218000Y-81968000D01*
D10*
X104775000Y-94275000D02*
X105000000Y-94500000D01*
D39*
X107275000Y-84250000D02*
X108250000Y-84250000D01*
D38*
X82040000Y-75850000D02*
X82040000Y-74960000D01*
X84475000Y-82250000D02*
X83560000Y-82250000D01*
X131000000Y-107900000D02*
X131000000Y-110000000D01*
D39*
X93500000Y-60500000D02*
X93500000Y-61462321D01*
D38*
X83150000Y-85500000D02*
X81250000Y-85500000D01*
X82040000Y-75850000D02*
X82040000Y-74040000D01*
X110250000Y-106750000D02*
X111250000Y-107750000D01*
X108750000Y-106750000D02*
X111250000Y-106750000D01*
X82250000Y-85500000D02*
X81250000Y-86500000D01*
D10*
X89600000Y-93500000D02*
X88500000Y-93500000D01*
D38*
X112262761Y-76250712D02*
X113512761Y-77500712D01*
D10*
X94700000Y-92850000D02*
X94850000Y-92700000D01*
%TO.N,/VIN*%
X92575000Y-80750000D02*
X90250000Y-80750000D01*
X92975000Y-86060000D02*
X92575000Y-85660000D01*
D38*
X87815000Y-85135000D02*
X87450000Y-85500000D01*
X91287999Y-64222323D02*
X87040000Y-68470322D01*
X87040000Y-68470322D02*
X87040000Y-75850000D01*
X91287999Y-64222323D02*
X92488999Y-64222323D01*
D10*
X92975000Y-88500000D02*
X92975000Y-86060000D01*
X96575000Y-89550000D02*
X95525000Y-88500000D01*
X96664999Y-89460001D02*
X96575000Y-89550000D01*
D38*
X87925000Y-85975000D02*
X87450000Y-85500000D01*
D10*
X92575000Y-80750000D02*
X92575000Y-85660000D01*
X99302900Y-89460001D02*
X96664999Y-89460001D01*
X95525000Y-88500000D02*
X92975000Y-88500000D01*
X90250000Y-80750000D02*
X90000000Y-81000000D01*
D38*
%TO.N,/OUT*%
X109150000Y-101350000D02*
X108750000Y-101750000D01*
X131000000Y-101100000D02*
X131000000Y-99100000D01*
X131000000Y-99100000D02*
X130500000Y-98600000D01*
X118250000Y-93750000D02*
X120801000Y-91199000D01*
X122032323Y-101100000D02*
X121750000Y-101382323D01*
X128049000Y-91199000D02*
X130500000Y-93650000D01*
D10*
X102710300Y-89493900D02*
X102710300Y-95710300D01*
D38*
X130500000Y-100600000D02*
X131000000Y-101100000D01*
D10*
X103697100Y-89460001D02*
X102744199Y-89460001D01*
D38*
X120801000Y-91199000D02*
X128049000Y-91199000D01*
D10*
X102710300Y-95710300D02*
X108750000Y-101750000D01*
X102744199Y-89460001D02*
X102710300Y-89493900D01*
D38*
X130500000Y-93650000D02*
X130500000Y-98600000D01*
D39*
%TO.N,Net-(D4-K)*%
X103850000Y-86100000D02*
X103700000Y-86250000D01*
X104100000Y-84250000D02*
X103850000Y-84000000D01*
X105775000Y-84200000D02*
X105725000Y-84250000D01*
X105775000Y-81100000D02*
X105775000Y-84200000D01*
X103850000Y-84000000D02*
X103850000Y-86100000D01*
X105725000Y-84250000D02*
X104100000Y-84250000D01*
%TO.N,/GATE*%
X100425000Y-86250000D02*
X103068901Y-88893901D01*
X103068901Y-88893901D02*
X103631002Y-88893901D01*
X111425000Y-90175000D02*
X111425000Y-96500000D01*
X123684000Y-97376000D02*
X123710000Y-97350000D01*
X111425000Y-96500000D02*
X112301000Y-97376000D01*
X107500000Y-86250000D02*
X111425000Y-90175000D01*
X104356099Y-88893901D02*
X103697100Y-88893901D01*
X107000000Y-86250000D02*
X107500000Y-86250000D01*
X112301000Y-97376000D02*
X123684000Y-97376000D01*
X107000000Y-86250000D02*
X104356099Y-88893901D01*
D10*
%TO.N,Net-(J2-Pin_2)*%
X107250000Y-89500000D02*
X108500000Y-88250000D01*
X107075000Y-89500000D02*
X107250000Y-89500000D01*
X109800000Y-77337951D02*
X108712761Y-76250712D01*
X109800000Y-77400000D02*
X109800000Y-77337951D01*
D39*
%TO.N,Net-(Q1-Gate)*%
X99351001Y-67964000D02*
X96331675Y-67964000D01*
X96331675Y-67964000D02*
X93489998Y-65122323D01*
X104700000Y-73312999D02*
X99351001Y-67964000D01*
X104700000Y-75180000D02*
X104700000Y-73312999D01*
X93489998Y-65122323D02*
X93489998Y-64222323D01*
D10*
%TO.N,/SEN*%
X98500000Y-80750000D02*
X98500000Y-85660000D01*
X98500000Y-88157099D02*
X98500000Y-85660000D01*
X111997500Y-80137500D02*
X115710000Y-83850000D01*
X98500000Y-80750000D02*
X99112500Y-80137500D01*
X99302900Y-88959999D02*
X98500000Y-88157099D01*
X99112500Y-80137500D02*
X111997500Y-80137500D01*
%TO.N,Net-(Q2-Gate)*%
X113075000Y-96500000D02*
X113075000Y-93845000D01*
X113075000Y-93845000D02*
X113170000Y-93750000D01*
D39*
%TO.N,Net-(Q3-Gate)*%
X125360000Y-93710000D02*
X125420000Y-93650000D01*
X125360000Y-97350000D02*
X125360000Y-93710000D01*
D10*
%TO.N,Net-(R1-Pad2)*%
X91325000Y-88500000D02*
X91325000Y-90075000D01*
X91325000Y-90075000D02*
X91300000Y-90100000D01*
%TO.N,/UVLO*%
X98309999Y-90000000D02*
X98349999Y-89960000D01*
X97500000Y-90000000D02*
X98309999Y-90000000D01*
X92950000Y-91850000D02*
X92950000Y-90100000D01*
X93176000Y-90326000D02*
X97174000Y-90326000D01*
X92950000Y-90100000D02*
X93176000Y-90326000D01*
X98349999Y-89960000D02*
X99302900Y-89960000D01*
X97174000Y-90326000D02*
X97500000Y-90000000D01*
%TO.N,Net-(R3-Pad2)*%
X91300000Y-91850000D02*
X91300000Y-93450000D01*
X91300000Y-93450000D02*
X91250000Y-93500000D01*
%TO.N,Net-(R5-Pad2)*%
X94000000Y-89750000D02*
X94725000Y-89750000D01*
X94725000Y-89750000D02*
X94925000Y-89550000D01*
X94274000Y-91150000D02*
X94000000Y-90876000D01*
X94950000Y-91150000D02*
X94274000Y-91150000D01*
%TO.N,/OVLO*%
X96600000Y-91150000D02*
X97660001Y-91150000D01*
X97660001Y-91150000D02*
X98350002Y-90459999D01*
X96500000Y-92700000D02*
X96500000Y-91250000D01*
X98350002Y-90459999D02*
X99302900Y-90459999D01*
X96500000Y-91250000D02*
X96600000Y-91150000D01*
%TO.N,/PWR*%
X104884999Y-90459999D02*
X105425000Y-91000000D01*
X103697100Y-90459999D02*
X104884999Y-90459999D01*
%TO.N,Net-(U2-PGD)*%
X104965000Y-89960000D02*
X105425000Y-89500000D01*
X103697100Y-89960000D02*
X104965000Y-89960000D01*
D39*
%TO.N,Net-(U3-BASE)*%
X102075000Y-86250000D02*
X102075000Y-84130000D01*
X102075000Y-84130000D02*
X101945000Y-84000000D01*
%TO.N,Net-(D1-A1)*%
X96000000Y-58775000D02*
X94447323Y-57222323D01*
X94439999Y-64222323D02*
X96000000Y-62662322D01*
X94447323Y-57365000D02*
X92590000Y-59222323D01*
D38*
X94490997Y-64171325D02*
X94490997Y-64222323D01*
X94662322Y-64000000D02*
X94490997Y-64171325D01*
D39*
X92590000Y-59222323D02*
X92590000Y-61422323D01*
X94447323Y-57222323D02*
X94447323Y-57365000D01*
D38*
X111727677Y-64310000D02*
X111300000Y-63882323D01*
X119000000Y-64250000D02*
X118940000Y-64310000D01*
D39*
X92590000Y-61422323D02*
X92540000Y-61472323D01*
X96000000Y-62662322D02*
X96000000Y-58775000D01*
%TO.N,Net-(U1-VCAP)*%
X94447323Y-59179646D02*
X94490000Y-59222323D01*
X94490000Y-59222323D02*
X94490000Y-61422322D01*
X94490000Y-61422322D02*
X94439999Y-61472323D01*
%TD*%
%TA.AperFunction,Conductor*%
%TO.N,/OUT*%
G36*
X132943039Y-89019685D02*
G01*
X132988794Y-89072489D01*
X133000000Y-89124000D01*
X133000000Y-103626000D01*
X132980315Y-103693039D01*
X132927511Y-103738794D01*
X132876000Y-103750000D01*
X117000000Y-103750000D01*
X117000000Y-98200500D01*
X117019685Y-98133461D01*
X117072489Y-98087706D01*
X117124000Y-98076500D01*
X122919481Y-98076500D01*
X122986520Y-98096185D01*
X123007157Y-98112814D01*
X123074815Y-98180472D01*
X123220394Y-98268478D01*
X123382804Y-98319086D01*
X123453384Y-98325500D01*
X123453387Y-98325500D01*
X123966613Y-98325500D01*
X123966616Y-98325500D01*
X124037196Y-98319086D01*
X124199606Y-98268478D01*
X124345185Y-98180472D01*
X124392196Y-98133461D01*
X124447319Y-98078339D01*
X124508642Y-98044854D01*
X124578334Y-98049838D01*
X124622681Y-98078339D01*
X124724811Y-98180469D01*
X124724813Y-98180470D01*
X124724815Y-98180472D01*
X124870394Y-98268478D01*
X125032804Y-98319086D01*
X125103384Y-98325500D01*
X125103387Y-98325500D01*
X125616613Y-98325500D01*
X125616616Y-98325500D01*
X125687196Y-98319086D01*
X125849606Y-98268478D01*
X125955570Y-98204420D01*
X126023122Y-98186584D01*
X126089596Y-98208101D01*
X126133884Y-98262141D01*
X126134279Y-98263085D01*
X126201983Y-98426540D01*
X126201990Y-98426553D01*
X126300535Y-98574034D01*
X126300538Y-98574038D01*
X126425961Y-98699461D01*
X126425965Y-98699464D01*
X126573446Y-98798009D01*
X126573459Y-98798016D01*
X126696363Y-98848923D01*
X126737334Y-98865894D01*
X126737336Y-98865894D01*
X126737341Y-98865896D01*
X126911304Y-98900499D01*
X126911307Y-98900500D01*
X126911309Y-98900500D01*
X127088693Y-98900500D01*
X127088694Y-98900499D01*
X127146682Y-98888964D01*
X127262658Y-98865896D01*
X127262661Y-98865894D01*
X127262666Y-98865894D01*
X127426547Y-98798013D01*
X127574035Y-98699464D01*
X127699464Y-98574035D01*
X127798013Y-98426547D01*
X127865894Y-98262666D01*
X127865999Y-98262141D01*
X127891595Y-98133461D01*
X127900500Y-98088691D01*
X127900500Y-97911309D01*
X127900500Y-97911306D01*
X127900499Y-97911304D01*
X127865896Y-97737341D01*
X127865893Y-97737332D01*
X127798016Y-97573459D01*
X127798009Y-97573446D01*
X127699464Y-97425965D01*
X127699461Y-97425961D01*
X127574038Y-97300538D01*
X127574034Y-97300535D01*
X127426553Y-97201990D01*
X127426540Y-97201983D01*
X127262667Y-97134106D01*
X127262658Y-97134103D01*
X127199882Y-97121617D01*
X127137971Y-97089232D01*
X127103397Y-97028517D01*
X127107136Y-96958747D01*
X127148003Y-96902075D01*
X127199882Y-96878383D01*
X127262658Y-96865896D01*
X127262661Y-96865894D01*
X127262666Y-96865894D01*
X127426547Y-96798013D01*
X127574035Y-96699464D01*
X127699464Y-96574035D01*
X127798013Y-96426547D01*
X127865894Y-96262666D01*
X127900500Y-96088691D01*
X127900500Y-95911309D01*
X127900500Y-95911306D01*
X127900499Y-95911304D01*
X127865896Y-95737341D01*
X127865893Y-95737332D01*
X127798016Y-95573459D01*
X127798009Y-95573446D01*
X127699464Y-95425965D01*
X127699461Y-95425961D01*
X127574038Y-95300538D01*
X127574034Y-95300535D01*
X127426553Y-95201990D01*
X127426540Y-95201983D01*
X127262667Y-95134106D01*
X127262658Y-95134103D01*
X127088694Y-95099500D01*
X127088691Y-95099500D01*
X126911309Y-95099500D01*
X126911306Y-95099500D01*
X126737341Y-95134103D01*
X126737341Y-95134104D01*
X126737338Y-95134105D01*
X126737334Y-95134106D01*
X126591951Y-95194325D01*
X126522481Y-95201793D01*
X126460002Y-95170517D01*
X126424350Y-95110428D01*
X126420499Y-95079763D01*
X126420499Y-91852128D01*
X126420498Y-91852122D01*
X126420497Y-91852115D01*
X126414091Y-91792516D01*
X126363796Y-91657668D01*
X126363795Y-91657667D01*
X126363793Y-91657663D01*
X126277547Y-91542454D01*
X126277544Y-91542451D01*
X126162335Y-91456205D01*
X126162328Y-91456201D01*
X126027482Y-91405907D01*
X126027483Y-91405907D01*
X125967883Y-91399500D01*
X125967881Y-91399499D01*
X125967873Y-91399499D01*
X125967864Y-91399499D01*
X124872129Y-91399499D01*
X124872123Y-91399500D01*
X124812516Y-91405907D01*
X124677671Y-91456201D01*
X124677664Y-91456205D01*
X124562455Y-91542451D01*
X124562452Y-91542454D01*
X124476206Y-91657663D01*
X124476202Y-91657670D01*
X124425908Y-91792516D01*
X124419501Y-91852115D01*
X124419501Y-91852122D01*
X124419500Y-91852134D01*
X124419500Y-95014486D01*
X124399815Y-95081525D01*
X124347011Y-95127280D01*
X124277853Y-95137224D01*
X124268663Y-95135182D01*
X124268641Y-95135294D01*
X124088694Y-95099500D01*
X124088691Y-95099500D01*
X123911309Y-95099500D01*
X123911306Y-95099500D01*
X123737341Y-95134103D01*
X123737332Y-95134106D01*
X123573459Y-95201983D01*
X123573446Y-95201990D01*
X123425965Y-95300535D01*
X123425961Y-95300538D01*
X123300538Y-95425961D01*
X123300535Y-95425965D01*
X123201990Y-95573446D01*
X123201983Y-95573459D01*
X123134106Y-95737332D01*
X123134103Y-95737341D01*
X123099500Y-95911304D01*
X123099500Y-96088695D01*
X123134103Y-96262658D01*
X123134105Y-96262664D01*
X123134106Y-96262666D01*
X123166545Y-96340982D01*
X123174013Y-96410450D01*
X123142737Y-96472929D01*
X123134101Y-96481344D01*
X123125709Y-96488760D01*
X123074815Y-96519528D01*
X122954528Y-96639815D01*
X122954215Y-96640331D01*
X122949599Y-96644412D01*
X122921286Y-96657679D01*
X122893840Y-96672666D01*
X122887952Y-96673298D01*
X122886331Y-96674059D01*
X122883903Y-96673734D01*
X122867481Y-96675500D01*
X117124000Y-96675500D01*
X117056961Y-96655815D01*
X117011206Y-96603011D01*
X117000000Y-96551500D01*
X117000000Y-89124000D01*
X117019685Y-89056961D01*
X117072489Y-89011206D01*
X117124000Y-89000000D01*
X132876000Y-89000000D01*
X132943039Y-89019685D01*
G37*
%TD.AperFunction*%
%TD*%
%TA.AperFunction,Conductor*%
%TO.N,Net-(D1-A1)*%
G36*
X121193039Y-61652008D02*
G01*
X121238794Y-61704812D01*
X121250000Y-61756323D01*
X121250000Y-68126000D01*
X121230315Y-68193039D01*
X121177511Y-68238794D01*
X121126000Y-68250000D01*
X106750000Y-68250000D01*
X106750000Y-68000000D01*
X100750000Y-68000000D01*
X100750000Y-68250000D01*
X100679020Y-68250000D01*
X100611981Y-68230315D01*
X100591339Y-68213681D01*
X99797547Y-67419888D01*
X99797546Y-67419887D01*
X99682808Y-67343222D01*
X99555333Y-67290421D01*
X99555323Y-67290418D01*
X99419997Y-67263500D01*
X99419995Y-67263500D01*
X99419994Y-67263500D01*
X96673194Y-67263500D01*
X96606155Y-67243815D01*
X96585513Y-67227181D01*
X94314372Y-64956040D01*
X94280887Y-64894717D01*
X94284944Y-64837977D01*
X94282305Y-64837354D01*
X94284086Y-64829812D01*
X94284089Y-64829806D01*
X94290498Y-64770196D01*
X94290497Y-63674451D01*
X94284089Y-63614840D01*
X94233794Y-63479992D01*
X94233793Y-63479991D01*
X94233791Y-63479987D01*
X94147545Y-63364778D01*
X94049688Y-63291521D01*
X94007818Y-63235587D01*
X94000000Y-63192255D01*
X94000000Y-62596822D01*
X94019685Y-62529783D01*
X94072489Y-62484028D01*
X94123995Y-62472822D01*
X94787871Y-62472822D01*
X94847482Y-62466414D01*
X94982330Y-62416119D01*
X95097545Y-62329869D01*
X95183795Y-62214654D01*
X95234090Y-62079806D01*
X95240499Y-62020196D01*
X95240499Y-61756323D01*
X95260184Y-61689284D01*
X95312988Y-61643529D01*
X95364499Y-61632323D01*
X121126000Y-61632323D01*
X121193039Y-61652008D01*
G37*
%TD.AperFunction*%
%TD*%
%TA.AperFunction,Conductor*%
%TO.N,Net-(D1-A1)*%
G36*
X106750000Y-68250000D02*
G01*
X106750000Y-71626000D01*
X106730315Y-71693039D01*
X106677511Y-71738794D01*
X106626000Y-71750000D01*
X104179020Y-71750000D01*
X104111981Y-71730315D01*
X104091339Y-71713681D01*
X100786319Y-68408661D01*
X100752834Y-68347338D01*
X100750000Y-68320980D01*
X100750000Y-68250000D01*
X100750000Y-68000000D01*
X106750000Y-68000000D01*
X106750000Y-68250000D01*
G37*
%TD.AperFunction*%
%TD*%
%TA.AperFunction,Conductor*%
%TO.N,/SEN*%
G36*
X109376524Y-78019685D02*
G01*
X109378367Y-78020892D01*
X109444505Y-78065084D01*
X109444507Y-78065085D01*
X109444511Y-78065087D01*
X109581082Y-78121656D01*
X109581087Y-78121658D01*
X109581091Y-78121658D01*
X109581092Y-78121659D01*
X109726079Y-78150500D01*
X109726082Y-78150500D01*
X109873920Y-78150500D01*
X110007139Y-78124000D01*
X110018913Y-78121658D01*
X110155495Y-78065084D01*
X110221624Y-78020897D01*
X110288301Y-78000020D01*
X110290515Y-78000000D01*
X112545767Y-78000000D01*
X112575207Y-78008644D01*
X112605194Y-78015168D01*
X112610209Y-78018922D01*
X112612806Y-78019685D01*
X112633448Y-78036319D01*
X112633854Y-78036725D01*
X112660734Y-78076954D01*
X112701983Y-78176540D01*
X112701990Y-78176553D01*
X112800535Y-78324034D01*
X112800538Y-78324038D01*
X112925961Y-78449461D01*
X112925965Y-78449464D01*
X113073446Y-78548009D01*
X113073459Y-78548016D01*
X113196363Y-78598923D01*
X113237334Y-78615894D01*
X113237336Y-78615894D01*
X113237341Y-78615896D01*
X113411304Y-78650499D01*
X113411307Y-78650500D01*
X113411309Y-78650500D01*
X113588693Y-78650500D01*
X113588694Y-78650499D01*
X113646682Y-78638964D01*
X113762658Y-78615896D01*
X113762661Y-78615894D01*
X113762666Y-78615894D01*
X113926547Y-78548013D01*
X114074035Y-78449464D01*
X114199464Y-78324035D01*
X114298013Y-78176547D01*
X114328805Y-78102206D01*
X114339433Y-78076548D01*
X114383273Y-78022144D01*
X114449567Y-78000079D01*
X114453994Y-78000000D01*
X132119645Y-78000000D01*
X132186684Y-78019685D01*
X132232439Y-78072489D01*
X132243490Y-78130192D01*
X132222599Y-78548016D01*
X132175000Y-79500000D01*
X111500000Y-79500000D01*
X111500000Y-83000000D01*
X106599500Y-83000000D01*
X106532461Y-82980315D01*
X106486706Y-82927511D01*
X106475500Y-82876000D01*
X106475500Y-81951874D01*
X106495185Y-81884835D01*
X106511819Y-81864193D01*
X106520524Y-81855488D01*
X106572968Y-81803044D01*
X106662003Y-81658697D01*
X106715349Y-81497708D01*
X106725500Y-81398345D01*
X106725499Y-80801656D01*
X106723117Y-80778342D01*
X106715349Y-80702292D01*
X106715348Y-80702289D01*
X106662003Y-80541303D01*
X106661999Y-80541297D01*
X106661998Y-80541294D01*
X106572970Y-80396959D01*
X106572967Y-80396955D01*
X106453044Y-80277032D01*
X106453040Y-80277029D01*
X106308705Y-80188001D01*
X106308699Y-80187998D01*
X106308697Y-80187997D01*
X106308694Y-80187996D01*
X106147709Y-80134651D01*
X106048346Y-80124500D01*
X105501662Y-80124500D01*
X105501644Y-80124501D01*
X105402292Y-80134650D01*
X105402289Y-80134651D01*
X105241305Y-80187996D01*
X105241294Y-80188001D01*
X105096959Y-80277029D01*
X105096955Y-80277032D01*
X105087681Y-80286307D01*
X105026358Y-80319792D01*
X104956666Y-80314808D01*
X104912319Y-80286307D01*
X104903044Y-80277032D01*
X104903040Y-80277029D01*
X104758705Y-80188001D01*
X104758699Y-80187998D01*
X104758697Y-80187997D01*
X104758694Y-80187996D01*
X104597709Y-80134651D01*
X104498346Y-80124500D01*
X103951662Y-80124500D01*
X103951644Y-80124501D01*
X103852292Y-80134650D01*
X103852289Y-80134651D01*
X103691305Y-80187996D01*
X103691294Y-80188001D01*
X103546959Y-80277029D01*
X103546955Y-80277032D01*
X103427032Y-80396955D01*
X103427029Y-80396959D01*
X103338001Y-80541294D01*
X103337996Y-80541305D01*
X103284649Y-80702294D01*
X103283234Y-80708909D01*
X103280227Y-80708265D01*
X103258829Y-80760518D01*
X103201598Y-80800596D01*
X103161966Y-80807100D01*
X102570229Y-80807100D01*
X102570223Y-80807101D01*
X102510616Y-80813508D01*
X102375771Y-80863802D01*
X102375770Y-80863803D01*
X102338933Y-80891378D01*
X102273468Y-80915793D01*
X102205196Y-80900940D01*
X102195734Y-80895211D01*
X102105501Y-80834919D01*
X102105488Y-80834912D01*
X101968917Y-80778343D01*
X101968907Y-80778340D01*
X101823920Y-80749500D01*
X101823918Y-80749500D01*
X101676082Y-80749500D01*
X101676080Y-80749500D01*
X101531092Y-80778340D01*
X101531082Y-80778343D01*
X101394511Y-80834912D01*
X101394498Y-80834919D01*
X101271584Y-80917048D01*
X101271580Y-80917051D01*
X101167051Y-81021580D01*
X101167048Y-81021584D01*
X101084919Y-81144498D01*
X101084912Y-81144511D01*
X101028343Y-81281082D01*
X101028340Y-81281092D01*
X100999500Y-81426079D01*
X100999500Y-81426082D01*
X100999500Y-81573918D01*
X100999500Y-81573920D01*
X100999499Y-81573920D01*
X101028340Y-81718907D01*
X101028343Y-81718917D01*
X101084912Y-81855488D01*
X101084919Y-81855501D01*
X101167048Y-81978415D01*
X101167051Y-81978419D01*
X101271580Y-82082948D01*
X101271588Y-82082954D01*
X101394494Y-82165077D01*
X101394497Y-82165078D01*
X101394505Y-82165084D01*
X101394511Y-82165086D01*
X101394512Y-82165087D01*
X101422797Y-82176803D01*
X101463026Y-82203683D01*
X101771453Y-82512111D01*
X101771454Y-82512112D01*
X101771457Y-82512114D01*
X101886189Y-82588775D01*
X101897318Y-82593385D01*
X101914589Y-82600539D01*
X101968993Y-82644379D01*
X101991058Y-82710673D01*
X101973779Y-82778373D01*
X101922642Y-82825984D01*
X101867137Y-82839100D01*
X101617730Y-82839100D01*
X101617723Y-82839101D01*
X101558116Y-82845508D01*
X101423271Y-82895802D01*
X101423269Y-82895804D01*
X101317120Y-82975267D01*
X101251656Y-82999684D01*
X101242809Y-83000000D01*
X100124000Y-83000000D01*
X100056961Y-82980315D01*
X100011206Y-82927511D01*
X100000000Y-82876000D01*
X100000000Y-78124000D01*
X100019685Y-78056961D01*
X100072489Y-78011206D01*
X100124000Y-78000000D01*
X109309485Y-78000000D01*
X109376524Y-78019685D01*
G37*
%TD.AperFunction*%
%TD*%
%TA.AperFunction,Conductor*%
%TO.N,/VIN*%
G36*
X92900629Y-65519685D02*
G01*
X92936693Y-65555111D01*
X92945882Y-65568864D01*
X92945886Y-65568869D01*
X93682058Y-66305040D01*
X93715543Y-66366363D01*
X93710559Y-66436054D01*
X93688089Y-66473924D01*
X93594435Y-66582004D01*
X93594430Y-66582012D01*
X93534664Y-66712878D01*
X93534662Y-66712885D01*
X93514977Y-66779924D01*
X93514976Y-66779928D01*
X93494500Y-66922344D01*
X93494500Y-67690499D01*
X93494501Y-67690508D01*
X93506052Y-67797949D01*
X93506054Y-67797961D01*
X93517260Y-67849471D01*
X93551383Y-67951996D01*
X93551386Y-67952002D01*
X93629171Y-68073036D01*
X93629179Y-68073047D01*
X93674923Y-68125839D01*
X93674926Y-68125842D01*
X93674930Y-68125846D01*
X93783664Y-68220066D01*
X93783667Y-68220067D01*
X93783668Y-68220068D01*
X93889541Y-68268420D01*
X93914541Y-68279837D01*
X93981580Y-68299522D01*
X93981584Y-68299523D01*
X94124000Y-68319999D01*
X94124003Y-68319999D01*
X94510772Y-68319999D01*
X94577811Y-68339684D01*
X94623566Y-68392488D01*
X94633510Y-68461646D01*
X94629797Y-68478770D01*
X89026067Y-87660771D01*
X88988373Y-87719601D01*
X88924858Y-87748713D01*
X88907042Y-87750000D01*
X85374000Y-87750000D01*
X85306961Y-87730315D01*
X85261206Y-87677511D01*
X85250000Y-87626000D01*
X85250000Y-83025192D01*
X85269349Y-82959297D01*
X85269177Y-82959191D01*
X85269564Y-82958562D01*
X85269685Y-82958153D01*
X85270655Y-82956793D01*
X85272966Y-82953045D01*
X85272968Y-82953044D01*
X85362003Y-82808697D01*
X85415349Y-82647708D01*
X85420755Y-82594788D01*
X85429550Y-82559942D01*
X85437051Y-82541835D01*
X85475500Y-82348541D01*
X85475500Y-82151459D01*
X85475500Y-82151456D01*
X85437052Y-81958170D01*
X85437051Y-81958169D01*
X85437051Y-81958165D01*
X85429549Y-81940055D01*
X85420754Y-81905206D01*
X85415349Y-81852292D01*
X85362003Y-81691303D01*
X85361999Y-81691297D01*
X85361998Y-81691294D01*
X85269177Y-81540809D01*
X85271696Y-81539255D01*
X85250588Y-81486872D01*
X85250000Y-81474807D01*
X85250000Y-65624000D01*
X85269685Y-65556961D01*
X85322489Y-65511206D01*
X85374000Y-65500000D01*
X92833590Y-65500000D01*
X92900629Y-65519685D01*
G37*
%TD.AperFunction*%
%TD*%
%TA.AperFunction,Conductor*%
%TO.N,/SEN*%
G36*
X132211658Y-79538536D02*
G01*
X132210405Y-79539727D01*
X132238794Y-79572489D01*
X132250000Y-79624000D01*
X132250000Y-87876000D01*
X132230315Y-87943039D01*
X132177511Y-87988794D01*
X132126000Y-88000000D01*
X111624000Y-88000000D01*
X111556961Y-87980315D01*
X111511206Y-87927511D01*
X111500000Y-87876000D01*
X111500000Y-83000000D01*
X111500000Y-79500000D01*
X132175000Y-79500000D01*
X132211658Y-79538536D01*
G37*
%TD.AperFunction*%
%TD*%
%TA.AperFunction,Conductor*%
%TO.N,/OUT*%
G36*
X117000000Y-103750000D02*
G01*
X115815192Y-103750000D01*
X115749297Y-103730650D01*
X115749191Y-103730823D01*
X115748562Y-103730435D01*
X115748153Y-103730315D01*
X115746793Y-103729344D01*
X115598705Y-103638001D01*
X115598699Y-103637998D01*
X115598697Y-103637997D01*
X115562492Y-103626000D01*
X115437709Y-103584651D01*
X115437702Y-103584650D01*
X115384785Y-103579243D01*
X115349942Y-103570448D01*
X115331838Y-103562950D01*
X115331832Y-103562948D01*
X115138543Y-103524500D01*
X115138541Y-103524500D01*
X114941459Y-103524500D01*
X114941457Y-103524500D01*
X114748167Y-103562948D01*
X114748160Y-103562950D01*
X114730052Y-103570450D01*
X114695211Y-103579244D01*
X114642290Y-103584651D01*
X114481305Y-103637996D01*
X114481294Y-103638001D01*
X114330809Y-103730823D01*
X114329249Y-103728294D01*
X114276939Y-103749405D01*
X114264808Y-103750000D01*
X107124000Y-103750000D01*
X107056961Y-103730315D01*
X107011206Y-103677511D01*
X107000000Y-103626000D01*
X107000000Y-99874000D01*
X107019685Y-99806961D01*
X107072489Y-99761206D01*
X107124000Y-99750000D01*
X117000000Y-99750000D01*
X117000000Y-103750000D01*
G37*
%TD.AperFunction*%
%TD*%
%TA.AperFunction,Conductor*%
%TO.N,GND*%
G36*
X107611008Y-86872538D02*
G01*
X107655358Y-86901040D01*
X108410703Y-87656385D01*
X108444188Y-87717708D01*
X108439204Y-87787400D01*
X108397332Y-87843333D01*
X108355118Y-87863840D01*
X108341555Y-87867474D01*
X108341546Y-87867478D01*
X108247953Y-87921513D01*
X108247945Y-87921519D01*
X108171519Y-87997945D01*
X108171513Y-87997953D01*
X108117478Y-88091546D01*
X108117475Y-88091551D01*
X108117475Y-88091553D01*
X108089500Y-88195957D01*
X108089500Y-88195959D01*
X108089500Y-88254876D01*
X108069815Y-88321915D01*
X108053181Y-88342557D01*
X107529614Y-88866123D01*
X107468291Y-88899608D01*
X107398599Y-88894624D01*
X107387477Y-88889844D01*
X107376397Y-88884428D01*
X107376392Y-88884426D01*
X107308261Y-88874500D01*
X107308260Y-88874500D01*
X106841740Y-88874500D01*
X106841739Y-88874500D01*
X106773608Y-88884426D01*
X106668514Y-88935803D01*
X106585803Y-89018514D01*
X106534426Y-89123608D01*
X106524500Y-89191739D01*
X106524500Y-89808260D01*
X106534426Y-89876391D01*
X106585803Y-89981485D01*
X106668514Y-90064196D01*
X106668515Y-90064196D01*
X106668517Y-90064198D01*
X106773607Y-90115573D01*
X106807673Y-90120536D01*
X106841739Y-90125500D01*
X106841740Y-90125500D01*
X107308261Y-90125500D01*
X107341410Y-90120670D01*
X107376393Y-90115573D01*
X107481483Y-90064198D01*
X107564198Y-89981483D01*
X107615573Y-89876393D01*
X107625500Y-89808260D01*
X107625500Y-89530121D01*
X107645185Y-89463082D01*
X107661815Y-89442444D01*
X108407440Y-88696818D01*
X108468763Y-88663334D01*
X108495121Y-88660500D01*
X108554040Y-88660500D01*
X108554043Y-88660500D01*
X108658447Y-88632525D01*
X108752053Y-88578482D01*
X108828482Y-88502053D01*
X108882525Y-88408447D01*
X108886159Y-88394884D01*
X108922519Y-88335226D01*
X108985364Y-88304694D01*
X109054740Y-88312985D01*
X109093614Y-88339295D01*
X111038181Y-90283862D01*
X111071666Y-90345185D01*
X111074500Y-90371543D01*
X111074500Y-95832002D01*
X111054815Y-95899041D01*
X111022555Y-95932918D01*
X111018516Y-95935801D01*
X110935803Y-96018514D01*
X110884426Y-96123608D01*
X110874500Y-96191739D01*
X110874500Y-96808260D01*
X110884426Y-96876391D01*
X110935803Y-96981485D01*
X111018514Y-97064196D01*
X111018515Y-97064196D01*
X111018517Y-97064198D01*
X111123607Y-97115573D01*
X111157673Y-97120536D01*
X111191739Y-97125500D01*
X111191740Y-97125500D01*
X111503456Y-97125500D01*
X111570495Y-97145185D01*
X111591137Y-97161819D01*
X112085788Y-97656470D01*
X112137623Y-97686397D01*
X112165538Y-97702514D01*
X112165542Y-97702516D01*
X112165712Y-97702614D01*
X112254856Y-97726500D01*
X116462527Y-97726500D01*
X116529566Y-97746185D01*
X116575321Y-97798989D01*
X116585265Y-97868147D01*
X116575321Y-97902013D01*
X116534663Y-97991037D01*
X116514976Y-98058082D01*
X116494500Y-98200501D01*
X116494500Y-99120500D01*
X116474815Y-99187539D01*
X116422011Y-99233294D01*
X116370500Y-99244500D01*
X107124000Y-99244500D01*
X107123991Y-99244500D01*
X107123990Y-99244501D01*
X107016549Y-99256052D01*
X107016537Y-99256054D01*
X106965027Y-99267260D01*
X106862502Y-99301383D01*
X106862494Y-99301387D01*
X106820634Y-99328289D01*
X106753595Y-99347973D01*
X106686555Y-99328288D01*
X106665915Y-99311654D01*
X102997119Y-95642858D01*
X102963634Y-95581535D01*
X102960800Y-95555177D01*
X102960800Y-93237022D01*
X102980485Y-93169983D01*
X103033289Y-93124228D01*
X103102447Y-93114284D01*
X103166003Y-93143309D01*
X103185720Y-93164972D01*
X103190177Y-93171215D01*
X103278789Y-93259827D01*
X103386572Y-93312518D01*
X103391375Y-93314866D01*
X103464364Y-93325500D01*
X103464370Y-93325500D01*
X104035630Y-93325500D01*
X104035636Y-93325500D01*
X104108625Y-93314866D01*
X104166118Y-93286759D01*
X104221210Y-93259827D01*
X104309827Y-93171210D01*
X104337656Y-93114284D01*
X104364866Y-93058625D01*
X104375500Y-92985636D01*
X104375500Y-92464364D01*
X104364866Y-92391375D01*
X104335587Y-92331483D01*
X104309827Y-92278789D01*
X104221210Y-92190172D01*
X104108627Y-92135134D01*
X104108621Y-92135132D01*
X104106614Y-92134840D01*
X104104430Y-92133837D01*
X104099425Y-92132291D01*
X104099628Y-92131633D01*
X104043115Y-92105691D01*
X104005455Y-92046840D01*
X104000500Y-92012137D01*
X104000500Y-91399601D01*
X104020185Y-91332562D01*
X104072989Y-91286807D01*
X104124500Y-91275601D01*
X104397722Y-91275601D01*
X104441617Y-91266869D01*
X104441617Y-91266868D01*
X104441622Y-91266868D01*
X104491404Y-91233605D01*
X104524667Y-91183823D01*
X104533400Y-91139921D01*
X104533400Y-90834499D01*
X104535950Y-90825813D01*
X104534662Y-90816852D01*
X104545640Y-90792811D01*
X104553085Y-90767460D01*
X104559925Y-90761532D01*
X104563687Y-90753296D01*
X104585921Y-90739006D01*
X104605889Y-90721705D01*
X104616403Y-90719417D01*
X104622465Y-90715522D01*
X104657400Y-90710499D01*
X104729875Y-90710499D01*
X104796914Y-90730184D01*
X104817554Y-90746816D01*
X104838179Y-90767440D01*
X104871666Y-90828762D01*
X104874500Y-90855123D01*
X104874500Y-91308260D01*
X104884426Y-91376391D01*
X104935803Y-91481485D01*
X105018514Y-91564196D01*
X105018515Y-91564196D01*
X105018517Y-91564198D01*
X105123607Y-91615573D01*
X105157673Y-91620536D01*
X105191739Y-91625500D01*
X105191740Y-91625500D01*
X105658261Y-91625500D01*
X105680971Y-91622191D01*
X105726393Y-91615573D01*
X105831483Y-91564198D01*
X105914198Y-91481483D01*
X105965573Y-91376393D01*
X105975500Y-91308260D01*
X105975500Y-90691740D01*
X105974346Y-90683823D01*
X105966322Y-90628748D01*
X105965573Y-90623607D01*
X105914198Y-90518517D01*
X105914196Y-90518515D01*
X105914196Y-90518514D01*
X105831485Y-90435803D01*
X105726391Y-90384426D01*
X105658261Y-90374500D01*
X105658260Y-90374500D01*
X105205123Y-90374500D01*
X105175682Y-90365855D01*
X105145696Y-90359332D01*
X105140680Y-90355577D01*
X105138084Y-90354815D01*
X105117442Y-90338181D01*
X105116942Y-90337681D01*
X105083457Y-90276358D01*
X105088441Y-90206666D01*
X105116942Y-90162319D01*
X105117442Y-90161819D01*
X105125174Y-90157596D01*
X105130313Y-90150733D01*
X105153760Y-90141987D01*
X105178765Y-90128334D01*
X105195065Y-90126581D01*
X105195777Y-90126316D01*
X105196358Y-90126442D01*
X105205123Y-90125500D01*
X105658261Y-90125500D01*
X105691410Y-90120670D01*
X105726393Y-90115573D01*
X105831483Y-90064198D01*
X105914198Y-89981483D01*
X105965573Y-89876393D01*
X105975500Y-89808260D01*
X105975500Y-89191740D01*
X105965573Y-89123607D01*
X105914198Y-89018517D01*
X105914196Y-89018515D01*
X105914196Y-89018514D01*
X105831485Y-88935803D01*
X105726391Y-88884426D01*
X105658261Y-88874500D01*
X105658260Y-88874500D01*
X105191740Y-88874500D01*
X105190253Y-88874716D01*
X105186329Y-88875288D01*
X105117153Y-88865469D01*
X105064266Y-88819809D01*
X105044461Y-88752805D01*
X105064025Y-88685730D01*
X105080775Y-88664906D01*
X106708863Y-87036819D01*
X106770186Y-87003334D01*
X106796544Y-87000500D01*
X107260630Y-87000500D01*
X107260636Y-87000500D01*
X107333625Y-86989866D01*
X107391118Y-86961759D01*
X107446210Y-86934827D01*
X107446211Y-86934826D01*
X107479996Y-86901040D01*
X107541316Y-86867555D01*
X107611008Y-86872538D01*
G37*
%TD.AperFunction*%
%TA.AperFunction,Conductor*%
G36*
X127043956Y-97597186D02*
G01*
X127101271Y-97617405D01*
X127103238Y-97617796D01*
X127126494Y-97624849D01*
X127175819Y-97645280D01*
X127197256Y-97656739D01*
X127241642Y-97686397D01*
X127260432Y-97701818D01*
X127298178Y-97739564D01*
X127313595Y-97758348D01*
X127343260Y-97802744D01*
X127354718Y-97824181D01*
X127375147Y-97873504D01*
X127382202Y-97896760D01*
X127392596Y-97949011D01*
X127392617Y-97949113D01*
X127395000Y-97973307D01*
X127395000Y-98026688D01*
X127392617Y-98050881D01*
X127382201Y-98103241D01*
X127375145Y-98126500D01*
X127354717Y-98175818D01*
X127343258Y-98197257D01*
X127313599Y-98241645D01*
X127298178Y-98260435D01*
X127260435Y-98298178D01*
X127241644Y-98313600D01*
X127197260Y-98343256D01*
X127175822Y-98354714D01*
X127126492Y-98375147D01*
X127103233Y-98382203D01*
X127050880Y-98392617D01*
X127026691Y-98395000D01*
X126973312Y-98395000D01*
X126949119Y-98392617D01*
X126934536Y-98389716D01*
X126896754Y-98382200D01*
X126873497Y-98375145D01*
X126824180Y-98354718D01*
X126802740Y-98343258D01*
X126758357Y-98313602D01*
X126739567Y-98298181D01*
X126701822Y-98260436D01*
X126686402Y-98241647D01*
X126656736Y-98197250D01*
X126645279Y-98175817D01*
X126601301Y-98069642D01*
X126601268Y-98069562D01*
X126601268Y-98069561D01*
X126600658Y-98068095D01*
X126600658Y-98068096D01*
X126600602Y-98067961D01*
X126600207Y-98067017D01*
X126599294Y-98064851D01*
X126529266Y-97949011D01*
X126523207Y-97926064D01*
X126512973Y-97904653D01*
X126514452Y-97892904D01*
X126511430Y-97881456D01*
X126518738Y-97858879D01*
X126521704Y-97835331D01*
X126529301Y-97826246D01*
X126532948Y-97814982D01*
X126551302Y-97799939D01*
X126566528Y-97781735D01*
X126583299Y-97773718D01*
X126586988Y-97770695D01*
X126598353Y-97766519D01*
X126601026Y-97765683D01*
X126603061Y-97765110D01*
X126604434Y-97764615D01*
X126604440Y-97764614D01*
X126604444Y-97764613D01*
X126734234Y-97702516D01*
X126802742Y-97656738D01*
X126824173Y-97645282D01*
X126873503Y-97624850D01*
X126896766Y-97617795D01*
X126898737Y-97617404D01*
X126964614Y-97596128D01*
X127034454Y-97594258D01*
X127043956Y-97597186D01*
G37*
%TD.AperFunction*%
%TA.AperFunction,Conductor*%
G36*
X124763504Y-95494775D02*
G01*
X124782412Y-95495113D01*
X124810627Y-95508611D01*
X124812399Y-95509132D01*
X124814238Y-95510337D01*
X124861278Y-95541768D01*
X124905180Y-95550501D01*
X124905186Y-95550501D01*
X124909690Y-95551397D01*
X124971601Y-95583782D01*
X125006176Y-95644497D01*
X125009500Y-95673015D01*
X125009500Y-96682002D01*
X124989815Y-96749041D01*
X124957555Y-96782918D01*
X124953516Y-96785801D01*
X124870803Y-96868514D01*
X124819426Y-96973608D01*
X124809500Y-97041739D01*
X124809500Y-97434193D01*
X124789815Y-97501232D01*
X124737011Y-97546987D01*
X124667853Y-97556931D01*
X124659144Y-97555360D01*
X124614393Y-97545626D01*
X124544703Y-97540642D01*
X124544700Y-97540642D01*
X124393346Y-97551467D01*
X124325073Y-97536615D01*
X124275668Y-97487210D01*
X124260500Y-97427783D01*
X124260500Y-97041739D01*
X124251721Y-96981485D01*
X124250573Y-96973607D01*
X124199198Y-96868517D01*
X124199196Y-96868515D01*
X124199196Y-96868514D01*
X124116485Y-96785803D01*
X124011391Y-96734426D01*
X123943261Y-96724500D01*
X123943260Y-96724500D01*
X123768787Y-96724500D01*
X123701748Y-96704815D01*
X123655993Y-96652011D01*
X123646049Y-96582853D01*
X123651133Y-96561341D01*
X123671479Y-96500210D01*
X123671479Y-96500209D01*
X123671480Y-96500207D01*
X123676617Y-96356419D01*
X123669149Y-96286951D01*
X123669147Y-96286943D01*
X123669145Y-96286933D01*
X123633570Y-96147548D01*
X123633568Y-96147540D01*
X123627834Y-96133697D01*
X123624849Y-96126489D01*
X123617794Y-96103230D01*
X123607383Y-96050889D01*
X123605000Y-96026698D01*
X123605000Y-95973303D01*
X123607382Y-95949114D01*
X123617794Y-95896765D01*
X123624851Y-95873502D01*
X123645281Y-95824179D01*
X123656740Y-95802740D01*
X123686397Y-95758355D01*
X123701813Y-95739570D01*
X123739569Y-95701814D01*
X123758342Y-95686406D01*
X123802752Y-95656732D01*
X123824171Y-95645283D01*
X123873509Y-95624847D01*
X123896761Y-95617795D01*
X123923144Y-95612547D01*
X123949116Y-95607382D01*
X123973304Y-95605000D01*
X124026694Y-95605000D01*
X124050885Y-95607383D01*
X124170024Y-95631081D01*
X124171050Y-95631208D01*
X124205917Y-95637579D01*
X124222259Y-95637578D01*
X124229930Y-95638532D01*
X124229931Y-95638533D01*
X124242787Y-95640133D01*
X124242789Y-95640132D01*
X124242791Y-95640133D01*
X124264919Y-95638098D01*
X124276269Y-95637578D01*
X124349793Y-95637578D01*
X124349797Y-95637578D01*
X124418955Y-95627634D01*
X124557004Y-95587099D01*
X124678043Y-95509311D01*
X124678042Y-95509311D01*
X124678320Y-95509133D01*
X124696465Y-95503804D01*
X124712553Y-95493867D01*
X124729292Y-95494165D01*
X124745359Y-95489448D01*
X124763504Y-95494775D01*
G37*
%TD.AperFunction*%
%TA.AperFunction,Conductor*%
G36*
X104504487Y-80636290D02*
G01*
X104529861Y-80644698D01*
X104555943Y-80656861D01*
X104575046Y-80668644D01*
X104614115Y-80692743D01*
X104626819Y-80701726D01*
X104639023Y-80711560D01*
X104683364Y-80740057D01*
X104683366Y-80740058D01*
X104780015Y-80788437D01*
X104780021Y-80788438D01*
X104780023Y-80788439D01*
X104920595Y-80819018D01*
X104920599Y-80819018D01*
X104920607Y-80819020D01*
X104981576Y-80823380D01*
X104990297Y-80824004D01*
X104990299Y-80824004D01*
X104990300Y-80824004D01*
X105018873Y-80821960D01*
X105041654Y-80820331D01*
X105109927Y-80835183D01*
X105159332Y-80884588D01*
X105174500Y-80944015D01*
X105174500Y-81385636D01*
X105185134Y-81458625D01*
X105185134Y-81458626D01*
X105185135Y-81458628D01*
X105240172Y-81571210D01*
X105328786Y-81659824D01*
X105328787Y-81659824D01*
X105328789Y-81659826D01*
X105354960Y-81672620D01*
X105406541Y-81719745D01*
X105424500Y-81784020D01*
X105424500Y-83541535D01*
X105404815Y-83608574D01*
X105354961Y-83652935D01*
X105278787Y-83690174D01*
X105190174Y-83778787D01*
X105165157Y-83829961D01*
X105118029Y-83881543D01*
X105053757Y-83899500D01*
X104403900Y-83899500D01*
X104336861Y-83879815D01*
X104291106Y-83827011D01*
X104279900Y-83775500D01*
X104279900Y-83460683D01*
X104289437Y-83428201D01*
X104298414Y-83395501D01*
X104299263Y-83394737D01*
X104299585Y-83393644D01*
X104325166Y-83371477D01*
X104350400Y-83348818D01*
X104351835Y-83348368D01*
X104352389Y-83347889D01*
X104384083Y-83338277D01*
X104395266Y-83336466D01*
X104395267Y-83336467D01*
X104399850Y-83335725D01*
X104399932Y-83335712D01*
X104425901Y-83327579D01*
X104434500Y-83325224D01*
X104495411Y-83310896D01*
X104503814Y-83306121D01*
X104528012Y-83295603D01*
X104537237Y-83292715D01*
X104592986Y-83255462D01*
X104620513Y-83239825D01*
X104624183Y-83236980D01*
X104622976Y-83235423D01*
X104656868Y-83212777D01*
X104662632Y-83207598D01*
X104669551Y-83201823D01*
X104669713Y-83201698D01*
X104675666Y-83197085D01*
X104675693Y-83197064D01*
X104675694Y-83197064D01*
X104677810Y-83194876D01*
X104681526Y-83191032D01*
X104687809Y-83184977D01*
X104705342Y-83169231D01*
X104705343Y-83169232D01*
X104708685Y-83166230D01*
X104708726Y-83166210D01*
X104708800Y-83166134D01*
X104708797Y-83166131D01*
X104708821Y-83166107D01*
X104708844Y-83166088D01*
X104726276Y-83145227D01*
X104732263Y-83138568D01*
X104775719Y-83093636D01*
X104786384Y-83073302D01*
X104801108Y-83055684D01*
X104827838Y-82994271D01*
X104842552Y-82966219D01*
X104844102Y-82961841D01*
X104844100Y-82961840D01*
X104852015Y-82939488D01*
X104852019Y-82939478D01*
X104853469Y-82935381D01*
X104858529Y-82923758D01*
X104861767Y-82911953D01*
X104865860Y-82900396D01*
X104865883Y-82900332D01*
X104867539Y-82892049D01*
X104869553Y-82883556D01*
X104876911Y-82856755D01*
X104876987Y-82856477D01*
X104877010Y-82856393D01*
X104877009Y-82856393D01*
X104877012Y-82856386D01*
X104880399Y-82829406D01*
X104881834Y-82820575D01*
X104894103Y-82759247D01*
X104893250Y-82749602D01*
X104893736Y-82723223D01*
X104894942Y-82713627D01*
X104884634Y-82650024D01*
X104884219Y-82647466D01*
X104881432Y-82615925D01*
X104880369Y-82611405D01*
X104878449Y-82611856D01*
X104871926Y-82571600D01*
X104869567Y-82564070D01*
X104869384Y-82563477D01*
X104868180Y-82559547D01*
X104865461Y-82547975D01*
X104865460Y-82547973D01*
X104812942Y-82414020D01*
X104812938Y-82414012D01*
X104810726Y-82410117D01*
X104807143Y-82404309D01*
X104791452Y-82378873D01*
X104791446Y-82378863D01*
X104784582Y-82368591D01*
X104776275Y-82354144D01*
X104759839Y-82320511D01*
X104756045Y-82313829D01*
X104716025Y-82253778D01*
X104698070Y-82230609D01*
X104681268Y-82208929D01*
X104680303Y-82208507D01*
X104664096Y-82192130D01*
X104653758Y-82179531D01*
X104482622Y-82008395D01*
X104482611Y-82008386D01*
X104398475Y-81940585D01*
X104398473Y-81940584D01*
X104398471Y-81940582D01*
X104354122Y-81912081D01*
X104354120Y-81912080D01*
X104354117Y-81912078D01*
X104306014Y-81888000D01*
X104257482Y-81863707D01*
X104257480Y-81863706D01*
X104257479Y-81863706D01*
X104257472Y-81863703D01*
X104116901Y-81833125D01*
X104116890Y-81833124D01*
X104047200Y-81828140D01*
X104047199Y-81828140D01*
X104047198Y-81828140D01*
X104047197Y-81828140D01*
X103903684Y-81838405D01*
X103903676Y-81838406D01*
X103768887Y-81888681D01*
X103768881Y-81888684D01*
X103738215Y-81905429D01*
X103711256Y-81920151D01*
X103707549Y-81922175D01*
X103592376Y-82008393D01*
X103592362Y-82008406D01*
X103489941Y-82110828D01*
X103479474Y-82120173D01*
X103475433Y-82123388D01*
X103451672Y-82139266D01*
X103371884Y-82205344D01*
X103369866Y-82207397D01*
X103369811Y-82207442D01*
X103341125Y-82236657D01*
X103341111Y-82236672D01*
X103329431Y-82248562D01*
X103329254Y-82249187D01*
X103321269Y-82260419D01*
X103318770Y-82263550D01*
X103310016Y-82273396D01*
X103295473Y-82288098D01*
X103295472Y-82288099D01*
X103293054Y-82292584D01*
X103280832Y-82311072D01*
X103271818Y-82322363D01*
X103271818Y-82322364D01*
X103271818Y-82322365D01*
X103243211Y-82385010D01*
X103227181Y-82414735D01*
X103226009Y-82417928D01*
X103227867Y-82418610D01*
X103226010Y-82422676D01*
X103215150Y-82446458D01*
X103215149Y-82446462D01*
X103212053Y-82453241D01*
X103209160Y-82463094D01*
X103206606Y-82470837D01*
X103203068Y-82480484D01*
X103203068Y-82480487D01*
X103173273Y-82621122D01*
X103173271Y-82621135D01*
X103173001Y-82625207D01*
X103172504Y-82640258D01*
X103172348Y-82645008D01*
X103171774Y-82650350D01*
X103169973Y-82671119D01*
X103169805Y-82673666D01*
X103170862Y-82691999D01*
X103170687Y-82697544D01*
X103168482Y-82704255D01*
X103172220Y-82770568D01*
X103172222Y-82770584D01*
X103183567Y-82852273D01*
X103183568Y-82852277D01*
X103196850Y-82887303D01*
X103196856Y-82887318D01*
X103199057Y-82893121D01*
X103225328Y-82976606D01*
X103254671Y-83022264D01*
X103256288Y-83026037D01*
X103257535Y-83028291D01*
X103257535Y-83028292D01*
X103261971Y-83036311D01*
X103268417Y-83047963D01*
X103283847Y-83068341D01*
X103286728Y-83072145D01*
X103303116Y-83097645D01*
X103317832Y-83114628D01*
X103318474Y-83114070D01*
X103328741Y-83127629D01*
X103328745Y-83127634D01*
X103355267Y-83162661D01*
X103355270Y-83162664D01*
X103355271Y-83162665D01*
X103360091Y-83166232D01*
X103376701Y-83178524D01*
X103418878Y-83234227D01*
X103424554Y-83302387D01*
X103420100Y-83324780D01*
X103420100Y-84675220D01*
X103420100Y-84675222D01*
X103420099Y-84675222D01*
X103428831Y-84719117D01*
X103428834Y-84719124D01*
X103462095Y-84768903D01*
X103463181Y-84769989D01*
X103464792Y-84772939D01*
X103468881Y-84779059D01*
X103468333Y-84779424D01*
X103496666Y-84831312D01*
X103499500Y-84857670D01*
X103499500Y-85383495D01*
X103479815Y-85450534D01*
X103427011Y-85496289D01*
X103393379Y-85506199D01*
X103366374Y-85510133D01*
X103366372Y-85510134D01*
X103253789Y-85565172D01*
X103165172Y-85653789D01*
X103110135Y-85766371D01*
X103110134Y-85766373D01*
X103110134Y-85766375D01*
X103099500Y-85839364D01*
X103099500Y-86660636D01*
X103110134Y-86733625D01*
X103110134Y-86733626D01*
X103110135Y-86733628D01*
X103165172Y-86846210D01*
X103253789Y-86934827D01*
X103361572Y-86987518D01*
X103366375Y-86989866D01*
X103439364Y-87000500D01*
X103439370Y-87000500D01*
X103960630Y-87000500D01*
X103960636Y-87000500D01*
X104033625Y-86989866D01*
X104091118Y-86961759D01*
X104146210Y-86934827D01*
X104234827Y-86846210D01*
X104261759Y-86791118D01*
X104289866Y-86733625D01*
X104300500Y-86660636D01*
X104300500Y-85839364D01*
X104289866Y-85766375D01*
X104250477Y-85685803D01*
X104234827Y-85653789D01*
X104228855Y-85645425D01*
X104230516Y-85644238D01*
X104203334Y-85594458D01*
X104200500Y-85568100D01*
X104200500Y-84857670D01*
X104215431Y-84798678D01*
X104227930Y-84775568D01*
X104237904Y-84768904D01*
X104271167Y-84719122D01*
X104278559Y-84681961D01*
X104287458Y-84665508D01*
X104299421Y-84653448D01*
X104307295Y-84638397D01*
X104323518Y-84629158D01*
X104336666Y-84615906D01*
X104353248Y-84612229D01*
X104368011Y-84603823D01*
X104396527Y-84600500D01*
X105053757Y-84600500D01*
X105120796Y-84620185D01*
X105165157Y-84670039D01*
X105190174Y-84721212D01*
X105278789Y-84809827D01*
X105376655Y-84857670D01*
X105391375Y-84864866D01*
X105464364Y-84875500D01*
X105464370Y-84875500D01*
X105985630Y-84875500D01*
X105985636Y-84875500D01*
X106058625Y-84864866D01*
X106127261Y-84831312D01*
X106171210Y-84809827D01*
X106259827Y-84721210D01*
X106304828Y-84629158D01*
X106314866Y-84608625D01*
X106325500Y-84535636D01*
X106325500Y-83964364D01*
X106314866Y-83891375D01*
X106309215Y-83879815D01*
X106259827Y-83778789D01*
X106168595Y-83687557D01*
X106168297Y-83687421D01*
X106168005Y-83686967D01*
X106163946Y-83682908D01*
X106164829Y-83682024D01*
X106152428Y-83662728D01*
X106134320Y-83639637D01*
X106132927Y-83632383D01*
X106130523Y-83628643D01*
X106125500Y-83593708D01*
X106125500Y-83537473D01*
X106145185Y-83470434D01*
X106197989Y-83424679D01*
X106267147Y-83414735D01*
X106301011Y-83424678D01*
X106390041Y-83465338D01*
X106457080Y-83485023D01*
X106457084Y-83485024D01*
X106599500Y-83505500D01*
X110870500Y-83505500D01*
X110937539Y-83525185D01*
X110983294Y-83577989D01*
X110994500Y-83629500D01*
X110994500Y-87876000D01*
X110994501Y-87876009D01*
X111006052Y-87983450D01*
X111006054Y-87983462D01*
X111017260Y-88034972D01*
X111051383Y-88137497D01*
X111051386Y-88137503D01*
X111129171Y-88258537D01*
X111129179Y-88258548D01*
X111174923Y-88311340D01*
X111174926Y-88311343D01*
X111174930Y-88311347D01*
X111283664Y-88405567D01*
X111414541Y-88465338D01*
X111481580Y-88485023D01*
X111481584Y-88485024D01*
X111624000Y-88505500D01*
X116563943Y-88505500D01*
X116630982Y-88525185D01*
X116676737Y-88577989D01*
X116686681Y-88647147D01*
X116657657Y-88710700D01*
X116594433Y-88783664D01*
X116594430Y-88783668D01*
X116534664Y-88914534D01*
X116514976Y-88981582D01*
X116509949Y-89016549D01*
X116494500Y-89124000D01*
X116494500Y-96551500D01*
X116494501Y-96551509D01*
X116506052Y-96658950D01*
X116506054Y-96658962D01*
X116517260Y-96710472D01*
X116551383Y-96812997D01*
X116551386Y-96813003D01*
X116565176Y-96834460D01*
X116584861Y-96901500D01*
X116565177Y-96968539D01*
X116512373Y-97014294D01*
X116460861Y-97025500D01*
X113737224Y-97025500D01*
X113670185Y-97005815D01*
X113624430Y-96953011D01*
X113614486Y-96883853D01*
X113614520Y-96883622D01*
X113625500Y-96808260D01*
X113625500Y-96191739D01*
X113619059Y-96147534D01*
X113615573Y-96123607D01*
X113564198Y-96018517D01*
X113564196Y-96018515D01*
X113564196Y-96018514D01*
X113481485Y-95935803D01*
X113425498Y-95908433D01*
X113395039Y-95893542D01*
X113383058Y-95882596D01*
X113368297Y-95875855D01*
X113357796Y-95859516D01*
X113343457Y-95846415D01*
X113338903Y-95830117D01*
X113330523Y-95817077D01*
X113325500Y-95782142D01*
X113325500Y-95774501D01*
X113345185Y-95707462D01*
X113397989Y-95661707D01*
X113449500Y-95650501D01*
X113684822Y-95650501D01*
X113728717Y-95641769D01*
X113728717Y-95641768D01*
X113728722Y-95641768D01*
X113778504Y-95608505D01*
X113811767Y-95558723D01*
X113815395Y-95540484D01*
X113820500Y-95514823D01*
X113820500Y-91985176D01*
X113811768Y-91941281D01*
X113811767Y-91941280D01*
X113811767Y-91941277D01*
X113778504Y-91891495D01*
X113778503Y-91891494D01*
X113728724Y-91858233D01*
X113728717Y-91858230D01*
X113684822Y-91849499D01*
X113684820Y-91849499D01*
X112655180Y-91849499D01*
X112655178Y-91849499D01*
X112611282Y-91858230D01*
X112611275Y-91858233D01*
X112561496Y-91891494D01*
X112561495Y-91891495D01*
X112528234Y-91941274D01*
X112528231Y-91941281D01*
X112519500Y-91985176D01*
X112519500Y-91985179D01*
X112519500Y-95514821D01*
X112519500Y-95514823D01*
X112519499Y-95514823D01*
X112528231Y-95558718D01*
X112528234Y-95558725D01*
X112560746Y-95607383D01*
X112561496Y-95608505D01*
X112611278Y-95641768D01*
X112611281Y-95641768D01*
X112611282Y-95641769D01*
X112655177Y-95650501D01*
X112655180Y-95650501D01*
X112700500Y-95650501D01*
X112709185Y-95653051D01*
X112718147Y-95651763D01*
X112742187Y-95662741D01*
X112767539Y-95670186D01*
X112773466Y-95677026D01*
X112781703Y-95680788D01*
X112795992Y-95703022D01*
X112813294Y-95722990D01*
X112815581Y-95733504D01*
X112819477Y-95739566D01*
X112824500Y-95774501D01*
X112824500Y-95782142D01*
X112804815Y-95849181D01*
X112754960Y-95893543D01*
X112668514Y-95935803D01*
X112585803Y-96018514D01*
X112534426Y-96123608D01*
X112524500Y-96191739D01*
X112524500Y-96804456D01*
X112504815Y-96871495D01*
X112452011Y-96917250D01*
X112382853Y-96927194D01*
X112319297Y-96898169D01*
X112312819Y-96892137D01*
X112011819Y-96591137D01*
X111978334Y-96529814D01*
X111975500Y-96503456D01*
X111975500Y-96191739D01*
X111969059Y-96147534D01*
X111965573Y-96123607D01*
X111914198Y-96018517D01*
X111914196Y-96018515D01*
X111914196Y-96018514D01*
X111831483Y-95935801D01*
X111827445Y-95932918D01*
X111784324Y-95877942D01*
X111775500Y-95832002D01*
X111775500Y-90128858D01*
X111775500Y-90128856D01*
X111751614Y-90039712D01*
X111746863Y-90031483D01*
X111705473Y-89959794D01*
X111705470Y-89959791D01*
X111705469Y-89959788D01*
X111640212Y-89894531D01*
X107715212Y-85969530D01*
X107705227Y-85963765D01*
X107662259Y-85938957D01*
X107614044Y-85888389D01*
X107601489Y-85843753D01*
X107601146Y-85843804D01*
X107600761Y-85841165D01*
X107600584Y-85840534D01*
X107600500Y-85839377D01*
X107600500Y-85839364D01*
X107589866Y-85766375D01*
X107550477Y-85685803D01*
X107534827Y-85653789D01*
X107446210Y-85565172D01*
X107333628Y-85510135D01*
X107333626Y-85510134D01*
X107333625Y-85510134D01*
X107260636Y-85499500D01*
X106739364Y-85499500D01*
X106666375Y-85510134D01*
X106666373Y-85510134D01*
X106666371Y-85510135D01*
X106553789Y-85565172D01*
X106465172Y-85653789D01*
X106410135Y-85766371D01*
X106410134Y-85766373D01*
X106410134Y-85766375D01*
X106399500Y-85839364D01*
X106399500Y-85839369D01*
X106399500Y-86303456D01*
X106379815Y-86370495D01*
X106363181Y-86391137D01*
X104247236Y-88507082D01*
X104185913Y-88540567D01*
X104159555Y-88543401D01*
X103265445Y-88543401D01*
X103198406Y-88523716D01*
X103177764Y-88507082D01*
X101757863Y-87087181D01*
X101724378Y-87025858D01*
X101729362Y-86956166D01*
X101771234Y-86900233D01*
X101836698Y-86875816D01*
X101845544Y-86875500D01*
X102308261Y-86875500D01*
X102330971Y-86872191D01*
X102376393Y-86865573D01*
X102481483Y-86814198D01*
X102564198Y-86731483D01*
X102615573Y-86626393D01*
X102625500Y-86558260D01*
X102625500Y-85941740D01*
X102615573Y-85873607D01*
X102564198Y-85768517D01*
X102564196Y-85768515D01*
X102564196Y-85768514D01*
X102481483Y-85685801D01*
X102477445Y-85682918D01*
X102434324Y-85627942D01*
X102425500Y-85582002D01*
X102425500Y-84083858D01*
X102425500Y-84083856D01*
X102401614Y-83994712D01*
X102395884Y-83984788D01*
X102391509Y-83977210D01*
X102374900Y-83915217D01*
X102374900Y-83324777D01*
X102366168Y-83280882D01*
X102366168Y-83280881D01*
X102366167Y-83280880D01*
X102366167Y-83280878D01*
X102346642Y-83251657D01*
X102325766Y-83184984D01*
X102344250Y-83117604D01*
X102353185Y-83104976D01*
X102408518Y-83036312D01*
X102463577Y-82903384D01*
X102480856Y-82835684D01*
X102490110Y-82749612D01*
X102496236Y-82692637D01*
X102496235Y-82692634D01*
X102496236Y-82692629D01*
X102470689Y-82551035D01*
X102449455Y-82487238D01*
X102448911Y-82485480D01*
X102448623Y-82484739D01*
X102448622Y-82484734D01*
X102384216Y-82356074D01*
X102286172Y-82250770D01*
X102231768Y-82206930D01*
X102231763Y-82206927D01*
X102231764Y-82206927D01*
X102185580Y-82179526D01*
X102170595Y-82170635D01*
X102165000Y-82167110D01*
X102103839Y-82126244D01*
X102085053Y-82110826D01*
X101820474Y-81846246D01*
X101820462Y-81846235D01*
X101743871Y-81783378D01*
X101743848Y-81783361D01*
X101703659Y-81756508D01*
X101703647Y-81756501D01*
X101703637Y-81756494D01*
X101655253Y-81730632D01*
X101644816Y-81724377D01*
X101603968Y-81697083D01*
X101585178Y-81681662D01*
X101568337Y-81664821D01*
X101552918Y-81646033D01*
X101539665Y-81626200D01*
X101528209Y-81604766D01*
X101519088Y-81582747D01*
X101512030Y-81559479D01*
X101507382Y-81536108D01*
X101505000Y-81511921D01*
X101505000Y-81488079D01*
X101507382Y-81463891D01*
X101512031Y-81440516D01*
X101519085Y-81417257D01*
X101528213Y-81395221D01*
X101539669Y-81373791D01*
X101545537Y-81365009D01*
X101552912Y-81353972D01*
X101568323Y-81335192D01*
X101585186Y-81318328D01*
X101603965Y-81302917D01*
X101623804Y-81289660D01*
X101645224Y-81278211D01*
X101667258Y-81269085D01*
X101690509Y-81262032D01*
X101708628Y-81258428D01*
X101713898Y-81257381D01*
X101738081Y-81255000D01*
X101761918Y-81255000D01*
X101786102Y-81257381D01*
X101809489Y-81262032D01*
X101832738Y-81269084D01*
X101854779Y-81278214D01*
X101876201Y-81289665D01*
X101914892Y-81315518D01*
X101933918Y-81327626D01*
X101938337Y-81330301D01*
X101943371Y-81333350D01*
X101954941Y-81340007D01*
X101962927Y-81344602D01*
X102097735Y-81394886D01*
X102166007Y-81409739D01*
X102261679Y-81416583D01*
X102309514Y-81420006D01*
X102309514Y-81420005D01*
X102309515Y-81420006D01*
X102450108Y-81389426D01*
X102515573Y-81365011D01*
X102515580Y-81365009D01*
X102584851Y-81327184D01*
X102585923Y-81326626D01*
X102596174Y-81324605D01*
X102643209Y-81312600D01*
X103161955Y-81312600D01*
X103161966Y-81312600D01*
X103243828Y-81305927D01*
X103243833Y-81305926D01*
X103243835Y-81305926D01*
X103262212Y-81302910D01*
X103283460Y-81299423D01*
X103283464Y-81299422D01*
X103283465Y-81299422D01*
X103322971Y-81289586D01*
X103363161Y-81279582D01*
X103491562Y-81214662D01*
X103548793Y-81174584D01*
X103548795Y-81174583D01*
X103653705Y-81076117D01*
X103726625Y-80952084D01*
X103727498Y-80949951D01*
X103727738Y-80949629D01*
X103728719Y-80946968D01*
X103746026Y-80904706D01*
X103752995Y-80895986D01*
X103764489Y-80861298D01*
X103764490Y-80861299D01*
X103794695Y-80770143D01*
X103806862Y-80744053D01*
X103818640Y-80724958D01*
X103836493Y-80702378D01*
X103852375Y-80686496D01*
X103874947Y-80668648D01*
X103894058Y-80656860D01*
X103920140Y-80644697D01*
X103945508Y-80636291D01*
X103984504Y-80630000D01*
X104465495Y-80630000D01*
X104504487Y-80636290D01*
G37*
%TD.AperFunction*%
%TA.AperFunction,Conductor*%
G36*
X126072548Y-95527929D02*
G01*
X126099961Y-95531971D01*
X126105769Y-95537040D01*
X126113205Y-95539080D01*
X126118758Y-95542719D01*
X126145984Y-95561623D01*
X126233719Y-95622541D01*
X126233731Y-95622548D01*
X126279141Y-95645279D01*
X126296203Y-95653820D01*
X126296205Y-95653821D01*
X126432722Y-95699260D01*
X126576511Y-95704397D01*
X126635842Y-95698018D01*
X126639377Y-95697639D01*
X126641040Y-95697549D01*
X126645982Y-95696929D01*
X126645985Y-95696929D01*
X126645987Y-95696928D01*
X126645990Y-95696928D01*
X126735602Y-95674056D01*
X126785396Y-95661347D01*
X126873515Y-95624846D01*
X126896766Y-95617794D01*
X126923146Y-95612547D01*
X126949116Y-95607382D01*
X126973304Y-95605000D01*
X127026689Y-95605000D01*
X127050878Y-95607382D01*
X127066435Y-95610476D01*
X127103241Y-95617797D01*
X127126501Y-95624853D01*
X127175817Y-95645280D01*
X127197256Y-95656739D01*
X127241642Y-95686397D01*
X127260432Y-95701818D01*
X127298178Y-95739564D01*
X127313595Y-95758348D01*
X127343260Y-95802744D01*
X127354718Y-95824181D01*
X127375147Y-95873504D01*
X127382202Y-95896760D01*
X127392617Y-95949113D01*
X127395000Y-95973307D01*
X127395000Y-96026688D01*
X127392617Y-96050881D01*
X127382201Y-96103241D01*
X127375148Y-96126489D01*
X127375145Y-96126500D01*
X127354717Y-96175818D01*
X127343258Y-96197257D01*
X127313599Y-96241645D01*
X127298178Y-96260435D01*
X127260435Y-96298178D01*
X127241645Y-96313599D01*
X127197257Y-96343258D01*
X127175817Y-96354718D01*
X127126493Y-96375148D01*
X127103263Y-96382198D01*
X127101265Y-96382595D01*
X127101241Y-96382602D01*
X127035388Y-96403869D01*
X127013876Y-96404445D01*
X126993032Y-96409797D01*
X126970808Y-96405598D01*
X126965543Y-96405740D01*
X126958289Y-96403580D01*
X126957138Y-96403198D01*
X126898740Y-96382597D01*
X126889236Y-96380706D01*
X126881957Y-96378295D01*
X126880459Y-96377258D01*
X126873499Y-96375146D01*
X126824180Y-96354718D01*
X126802743Y-96343260D01*
X126763161Y-96316812D01*
X126722755Y-96289813D01*
X126712530Y-96282192D01*
X126704481Y-96275522D01*
X126704474Y-96275516D01*
X126699987Y-96272455D01*
X126666442Y-96249570D01*
X126583948Y-96203936D01*
X126445246Y-96165681D01*
X126375936Y-96156879D01*
X126232088Y-96159250D01*
X126232082Y-96159251D01*
X126094718Y-96202054D01*
X126094711Y-96202057D01*
X126031655Y-96232118D01*
X126031651Y-96232120D01*
X126031650Y-96232121D01*
X126031645Y-96232124D01*
X126031639Y-96232127D01*
X125904523Y-96316812D01*
X125902687Y-96314056D01*
X125854155Y-96337188D01*
X125784843Y-96328379D01*
X125731297Y-96283495D01*
X125710517Y-96216787D01*
X125710500Y-96214756D01*
X125710500Y-95674501D01*
X125710565Y-95674278D01*
X125710501Y-95674056D01*
X125720416Y-95640728D01*
X125730185Y-95607462D01*
X125730359Y-95607310D01*
X125730426Y-95607087D01*
X125756928Y-95584288D01*
X125782989Y-95561707D01*
X125783276Y-95561623D01*
X125783394Y-95561522D01*
X125784273Y-95561332D01*
X125817294Y-95551701D01*
X125825858Y-95550501D01*
X125934820Y-95550501D01*
X125978722Y-95541768D01*
X126002745Y-95525716D01*
X126030839Y-95521780D01*
X126038465Y-95522904D01*
X126045824Y-95520600D01*
X126072548Y-95527929D01*
G37*
%TD.AperFunction*%
%TA.AperFunction,Conductor*%
G36*
X134642539Y-53320185D02*
G01*
X134688294Y-53372989D01*
X134699500Y-53424500D01*
X134699500Y-113575500D01*
X134679815Y-113642539D01*
X134627011Y-113688294D01*
X134575500Y-113699500D01*
X79424500Y-113699500D01*
X79357461Y-113679815D01*
X79311706Y-113627011D01*
X79300500Y-113575500D01*
X79300500Y-109878048D01*
X81139500Y-109878048D01*
X81139500Y-110121951D01*
X81166013Y-110323333D01*
X81171334Y-110363744D01*
X81171335Y-110363746D01*
X81234456Y-110599320D01*
X81234459Y-110599330D01*
X81327786Y-110824640D01*
X81327791Y-110824651D01*
X81449727Y-111035848D01*
X81449738Y-111035864D01*
X81598199Y-111229343D01*
X81598205Y-111229350D01*
X81770649Y-111401794D01*
X81770655Y-111401799D01*
X81964144Y-111550268D01*
X81964151Y-111550272D01*
X82175348Y-111672208D01*
X82175353Y-111672210D01*
X82175356Y-111672212D01*
X82400679Y-111765544D01*
X82636256Y-111828666D01*
X82878056Y-111860500D01*
X82878063Y-111860500D01*
X83121937Y-111860500D01*
X83121944Y-111860500D01*
X83363744Y-111828666D01*
X83599321Y-111765544D01*
X83824644Y-111672212D01*
X84035856Y-111550268D01*
X84229345Y-111401799D01*
X84401799Y-111229345D01*
X84550268Y-111035856D01*
X84672212Y-110824644D01*
X84765544Y-110599321D01*
X84828666Y-110363744D01*
X84860500Y-110121944D01*
X84860500Y-109878056D01*
X84828666Y-109636256D01*
X84765544Y-109400679D01*
X84672212Y-109175356D01*
X84672210Y-109175353D01*
X84672208Y-109175348D01*
X84550272Y-108964151D01*
X84550268Y-108964144D01*
X84401799Y-108770655D01*
X84401794Y-108770649D01*
X84229350Y-108598205D01*
X84229343Y-108598199D01*
X84035864Y-108449738D01*
X84035862Y-108449736D01*
X84035856Y-108449732D01*
X84035851Y-108449729D01*
X84035848Y-108449727D01*
X83824651Y-108327791D01*
X83824640Y-108327786D01*
X83599330Y-108234459D01*
X83599323Y-108234457D01*
X83599321Y-108234456D01*
X83363744Y-108171334D01*
X83323333Y-108166013D01*
X83121951Y-108139500D01*
X83121944Y-108139500D01*
X82878056Y-108139500D01*
X82878048Y-108139500D01*
X82647896Y-108169801D01*
X82636256Y-108171334D01*
X82400679Y-108234456D01*
X82400669Y-108234459D01*
X82175359Y-108327786D01*
X82175348Y-108327791D01*
X81964151Y-108449727D01*
X81964135Y-108449738D01*
X81770656Y-108598199D01*
X81770649Y-108598205D01*
X81598205Y-108770649D01*
X81598199Y-108770656D01*
X81449738Y-108964135D01*
X81449727Y-108964151D01*
X81327791Y-109175348D01*
X81327786Y-109175359D01*
X81234459Y-109400669D01*
X81234456Y-109400679D01*
X81171335Y-109636253D01*
X81171333Y-109636264D01*
X81139500Y-109878048D01*
X79300500Y-109878048D01*
X79300500Y-93191739D01*
X90699500Y-93191739D01*
X90699500Y-93808260D01*
X90709426Y-93876391D01*
X90760803Y-93981485D01*
X90843514Y-94064196D01*
X90843515Y-94064196D01*
X90843517Y-94064198D01*
X90948607Y-94115573D01*
X90982673Y-94120536D01*
X91016739Y-94125500D01*
X91016740Y-94125500D01*
X91483261Y-94125500D01*
X91505971Y-94122191D01*
X91551393Y-94115573D01*
X91656483Y-94064198D01*
X91739198Y-93981483D01*
X91790573Y-93876393D01*
X91800500Y-93808260D01*
X91800500Y-93191740D01*
X91790573Y-93123607D01*
X91739198Y-93018517D01*
X91739196Y-93018515D01*
X91739196Y-93018514D01*
X91656484Y-92935802D01*
X91620039Y-92917985D01*
X91608059Y-92907039D01*
X91593297Y-92900298D01*
X91582795Y-92883957D01*
X91568457Y-92870857D01*
X91563904Y-92854561D01*
X91555523Y-92841520D01*
X91550500Y-92806585D01*
X91550500Y-92567857D01*
X91570185Y-92500818D01*
X91620039Y-92456457D01*
X91706483Y-92414198D01*
X91789198Y-92331483D01*
X91840573Y-92226393D01*
X91850500Y-92158260D01*
X91850500Y-91541740D01*
X91840573Y-91473607D01*
X91789198Y-91368517D01*
X91789196Y-91368515D01*
X91789196Y-91368514D01*
X91706485Y-91285803D01*
X91601391Y-91234426D01*
X91533261Y-91224500D01*
X91533260Y-91224500D01*
X91066740Y-91224500D01*
X91066739Y-91224500D01*
X90998608Y-91234426D01*
X90893514Y-91285803D01*
X90810803Y-91368514D01*
X90759426Y-91473608D01*
X90749500Y-91541739D01*
X90749500Y-92158260D01*
X90759426Y-92226391D01*
X90810803Y-92331485D01*
X90893515Y-92414197D01*
X90893516Y-92414197D01*
X90893517Y-92414198D01*
X90979960Y-92456457D01*
X90991939Y-92467401D01*
X91006703Y-92474144D01*
X91017203Y-92490482D01*
X91031542Y-92503583D01*
X91036095Y-92519879D01*
X91044477Y-92532922D01*
X91049500Y-92567857D01*
X91049500Y-92762484D01*
X91029815Y-92829523D01*
X90977011Y-92875278D01*
X90957623Y-92880991D01*
X90957807Y-92881584D01*
X90948609Y-92884425D01*
X90843514Y-92935803D01*
X90760803Y-93018514D01*
X90709426Y-93123608D01*
X90699500Y-93191739D01*
X79300500Y-93191739D01*
X79300500Y-89791739D01*
X90749500Y-89791739D01*
X90749500Y-90408260D01*
X90759426Y-90476391D01*
X90759427Y-90476393D01*
X90808365Y-90576499D01*
X90810803Y-90581485D01*
X90893514Y-90664196D01*
X90893515Y-90664196D01*
X90893517Y-90664198D01*
X90998607Y-90715573D01*
X91024990Y-90719417D01*
X91066739Y-90725500D01*
X91066740Y-90725500D01*
X91533261Y-90725500D01*
X91555971Y-90722191D01*
X91601393Y-90715573D01*
X91706483Y-90664198D01*
X91789198Y-90581483D01*
X91840573Y-90476393D01*
X91850500Y-90408260D01*
X91850500Y-89791740D01*
X91840573Y-89723607D01*
X91789198Y-89618517D01*
X91789196Y-89618515D01*
X91789196Y-89618514D01*
X91706484Y-89535802D01*
X91645039Y-89505763D01*
X91633059Y-89494817D01*
X91618297Y-89488076D01*
X91607795Y-89471735D01*
X91593457Y-89458635D01*
X91588904Y-89442339D01*
X91580523Y-89429298D01*
X91575500Y-89394363D01*
X91575500Y-89217857D01*
X91595185Y-89150818D01*
X91645039Y-89106457D01*
X91731483Y-89064198D01*
X91814198Y-88981483D01*
X91865573Y-88876393D01*
X91875500Y-88808260D01*
X91875500Y-88191740D01*
X91865573Y-88123607D01*
X91814198Y-88018517D01*
X91814196Y-88018515D01*
X91814196Y-88018514D01*
X91731485Y-87935803D01*
X91626391Y-87884426D01*
X91558261Y-87874500D01*
X91558260Y-87874500D01*
X91091740Y-87874500D01*
X91091739Y-87874500D01*
X91023608Y-87884426D01*
X90918514Y-87935803D01*
X90835803Y-88018514D01*
X90784426Y-88123608D01*
X90774500Y-88191739D01*
X90774500Y-88808260D01*
X90784426Y-88876391D01*
X90835803Y-88981485D01*
X90918515Y-89064197D01*
X90918516Y-89064197D01*
X90918517Y-89064198D01*
X91004960Y-89106457D01*
X91016939Y-89117401D01*
X91031703Y-89124144D01*
X91042203Y-89140482D01*
X91056542Y-89153583D01*
X91061095Y-89169879D01*
X91069477Y-89182922D01*
X91074500Y-89217857D01*
X91074500Y-89369920D01*
X91054815Y-89436959D01*
X91004960Y-89481320D01*
X90893517Y-89535800D01*
X90810803Y-89618514D01*
X90759426Y-89723608D01*
X90749500Y-89791739D01*
X79300500Y-89791739D01*
X79300500Y-65624001D01*
X84744500Y-65624001D01*
X84744500Y-81474822D01*
X84745097Y-81499381D01*
X84745099Y-81499414D01*
X84745687Y-81511479D01*
X84745688Y-81511504D01*
X84745689Y-81511507D01*
X84747484Y-81536048D01*
X84781722Y-81675807D01*
X84781723Y-81675810D01*
X84813038Y-81753523D01*
X84814045Y-81754350D01*
X84819559Y-81763240D01*
X84822703Y-81768822D01*
X84838937Y-81806184D01*
X84894421Y-81896138D01*
X84895636Y-81898295D01*
X84896150Y-81900518D01*
X84905303Y-81920148D01*
X84912075Y-81940582D01*
X84915593Y-81951200D01*
X84920002Y-81968671D01*
X84927008Y-82008406D01*
X84930622Y-82028903D01*
X84939417Y-82063752D01*
X84939419Y-82063760D01*
X84939422Y-82063769D01*
X84945093Y-82080885D01*
X84949003Y-82095692D01*
X84967617Y-82189262D01*
X84970000Y-82213455D01*
X84970000Y-82286538D01*
X84967617Y-82310730D01*
X84949002Y-82404309D01*
X84945093Y-82419115D01*
X84939422Y-82436230D01*
X84939418Y-82436245D01*
X84930626Y-82471081D01*
X84930624Y-82471088D01*
X84920002Y-82531331D01*
X84915592Y-82548802D01*
X84905304Y-82579849D01*
X84893137Y-82605942D01*
X84865947Y-82650024D01*
X84865797Y-82650158D01*
X84846136Y-82682113D01*
X84846135Y-82682115D01*
X84843936Y-82685688D01*
X84838977Y-82693748D01*
X84838917Y-82693846D01*
X84828905Y-82710085D01*
X84828900Y-82710093D01*
X84825999Y-82714797D01*
X84825937Y-82715967D01*
X84818934Y-82732099D01*
X84805474Y-82757919D01*
X84805472Y-82757926D01*
X84804145Y-82762782D01*
X84800736Y-82773366D01*
X84786918Y-82810466D01*
X84784953Y-82814748D01*
X84784832Y-82815157D01*
X84785138Y-82815247D01*
X84784510Y-82816932D01*
X84784326Y-82816878D01*
X84783562Y-82819477D01*
X84783513Y-82819611D01*
X84770573Y-82863352D01*
X84770401Y-82864301D01*
X84765607Y-82880627D01*
X84765106Y-82882222D01*
X84764975Y-82882777D01*
X84744500Y-83025191D01*
X84744500Y-83025192D01*
X84744500Y-87626000D01*
X84744501Y-87626009D01*
X84756052Y-87733450D01*
X84756054Y-87733462D01*
X84767260Y-87784972D01*
X84801383Y-87887497D01*
X84801386Y-87887503D01*
X84879171Y-88008537D01*
X84879179Y-88008548D01*
X84924923Y-88061340D01*
X84924926Y-88061343D01*
X84924930Y-88061347D01*
X85033664Y-88155567D01*
X85033667Y-88155568D01*
X85033668Y-88155569D01*
X85149005Y-88208243D01*
X85164541Y-88215338D01*
X85231580Y-88235023D01*
X85231584Y-88235024D01*
X85374000Y-88255500D01*
X85374003Y-88255500D01*
X88907054Y-88255500D01*
X88943446Y-88254187D01*
X88943455Y-88254186D01*
X88943464Y-88254186D01*
X88961280Y-88252899D01*
X88997486Y-88248968D01*
X89031985Y-88238786D01*
X89135474Y-88208246D01*
X89135478Y-88208244D01*
X89135483Y-88208243D01*
X89198998Y-88179131D01*
X89319928Y-88101179D01*
X89414001Y-87992312D01*
X89451695Y-87933482D01*
X89451696Y-87933480D01*
X89511286Y-87802520D01*
X91472326Y-81089728D01*
X91486624Y-81067412D01*
X91497638Y-81043297D01*
X91505183Y-81038448D01*
X91510020Y-81030899D01*
X91534113Y-81019855D01*
X91556416Y-81005523D01*
X91569483Y-81003644D01*
X91573535Y-81001787D01*
X91591351Y-81000500D01*
X91688001Y-81000500D01*
X91755040Y-81020185D01*
X91800795Y-81072989D01*
X91812001Y-81124500D01*
X91812001Y-82206518D01*
X91826854Y-82300304D01*
X91884450Y-82413342D01*
X91884452Y-82413344D01*
X91884454Y-82413347D01*
X91974152Y-82503045D01*
X91974154Y-82503046D01*
X91974158Y-82503050D01*
X92085765Y-82559917D01*
X92087198Y-82560647D01*
X92180974Y-82575499D01*
X92180975Y-82575499D01*
X92180981Y-82575500D01*
X92200497Y-82575499D01*
X92267535Y-82595181D01*
X92313292Y-82647983D01*
X92324500Y-82699499D01*
X92324500Y-83710500D01*
X92304815Y-83777539D01*
X92252011Y-83823294D01*
X92200505Y-83834500D01*
X92180983Y-83834500D01*
X92102050Y-83847001D01*
X92087196Y-83849354D01*
X91974158Y-83906950D01*
X91974157Y-83906951D01*
X91974152Y-83906954D01*
X91884454Y-83996652D01*
X91884451Y-83996657D01*
X91826852Y-84109698D01*
X91812000Y-84203475D01*
X91812000Y-87116517D01*
X91822792Y-87184657D01*
X91826854Y-87210304D01*
X91884450Y-87323342D01*
X91884452Y-87323344D01*
X91884454Y-87323347D01*
X91974152Y-87413045D01*
X91974154Y-87413046D01*
X91974158Y-87413050D01*
X92087194Y-87470645D01*
X92087198Y-87470647D01*
X92180975Y-87485499D01*
X92180981Y-87485500D01*
X92600500Y-87485499D01*
X92609186Y-87488049D01*
X92618147Y-87486761D01*
X92642183Y-87497738D01*
X92667539Y-87505183D01*
X92673467Y-87512025D01*
X92681703Y-87515786D01*
X92695989Y-87538017D01*
X92713294Y-87557987D01*
X92715581Y-87568502D01*
X92719477Y-87574564D01*
X92724500Y-87609499D01*
X92724500Y-87782142D01*
X92704815Y-87849181D01*
X92654960Y-87893543D01*
X92568514Y-87935803D01*
X92485803Y-88018514D01*
X92434426Y-88123608D01*
X92424500Y-88191739D01*
X92424500Y-88808260D01*
X92434426Y-88876391D01*
X92485803Y-88981485D01*
X92568514Y-89064196D01*
X92568515Y-89064196D01*
X92568517Y-89064198D01*
X92673607Y-89115573D01*
X92707673Y-89120536D01*
X92741739Y-89125500D01*
X92741740Y-89125500D01*
X93208261Y-89125500D01*
X93230971Y-89122191D01*
X93276393Y-89115573D01*
X93381483Y-89064198D01*
X93464198Y-88981483D01*
X93515573Y-88876393D01*
X93518454Y-88856622D01*
X93547598Y-88793121D01*
X93606447Y-88755457D01*
X93641158Y-88750500D01*
X94463855Y-88750500D01*
X94530894Y-88770185D01*
X94576649Y-88822989D01*
X94586593Y-88892147D01*
X94557568Y-88955703D01*
X94526638Y-88979497D01*
X94526878Y-88979832D01*
X94518515Y-88985802D01*
X94435803Y-89068514D01*
X94384426Y-89173608D01*
X94374500Y-89241739D01*
X94374500Y-89277438D01*
X94354815Y-89344477D01*
X94302011Y-89390232D01*
X94232853Y-89400176D01*
X94188502Y-89384826D01*
X94158451Y-89367477D01*
X94158449Y-89367476D01*
X94158447Y-89367475D01*
X94054043Y-89339500D01*
X93945957Y-89339500D01*
X93841553Y-89367475D01*
X93841551Y-89367475D01*
X93841551Y-89367476D01*
X93841546Y-89367478D01*
X93747953Y-89421513D01*
X93747945Y-89421519D01*
X93671519Y-89497945D01*
X93671515Y-89497950D01*
X93623151Y-89581720D01*
X93572584Y-89629936D01*
X93503977Y-89643158D01*
X93439112Y-89617190D01*
X93428083Y-89607401D01*
X93356485Y-89535803D01*
X93251391Y-89484426D01*
X93183261Y-89474500D01*
X93183260Y-89474500D01*
X92716740Y-89474500D01*
X92716739Y-89474500D01*
X92648608Y-89484426D01*
X92543514Y-89535803D01*
X92460803Y-89618514D01*
X92409426Y-89723608D01*
X92399500Y-89791739D01*
X92399500Y-90408260D01*
X92409426Y-90476391D01*
X92409427Y-90476393D01*
X92458365Y-90576499D01*
X92460803Y-90581485D01*
X92543515Y-90664197D01*
X92543516Y-90664197D01*
X92543517Y-90664198D01*
X92629960Y-90706457D01*
X92681542Y-90753583D01*
X92699500Y-90817857D01*
X92699500Y-91132142D01*
X92679815Y-91199181D01*
X92629960Y-91243543D01*
X92543514Y-91285803D01*
X92460803Y-91368514D01*
X92409426Y-91473608D01*
X92399500Y-91541739D01*
X92399500Y-92158260D01*
X92409426Y-92226391D01*
X92460803Y-92331485D01*
X92543514Y-92414196D01*
X92543515Y-92414196D01*
X92543517Y-92414198D01*
X92648607Y-92465573D01*
X92682673Y-92470536D01*
X92716739Y-92475500D01*
X92716740Y-92475500D01*
X93183261Y-92475500D01*
X93205971Y-92472191D01*
X93251393Y-92465573D01*
X93356483Y-92414198D01*
X93439198Y-92331483D01*
X93490573Y-92226393D01*
X93500500Y-92158260D01*
X93500500Y-91541740D01*
X93490573Y-91473607D01*
X93439198Y-91368517D01*
X93439196Y-91368515D01*
X93439196Y-91368514D01*
X93356485Y-91285803D01*
X93317755Y-91266869D01*
X93270039Y-91243542D01*
X93218457Y-91196415D01*
X93200500Y-91132142D01*
X93200500Y-90817857D01*
X93220185Y-90750818D01*
X93254678Y-90715383D01*
X93262033Y-90710371D01*
X93356483Y-90664198D01*
X93413539Y-90607141D01*
X93423162Y-90600585D01*
X93445772Y-90593279D01*
X93466625Y-90581893D01*
X93478407Y-90582735D01*
X93489648Y-90579104D01*
X93512616Y-90585182D01*
X93536317Y-90586877D01*
X93545773Y-90593956D01*
X93557193Y-90596978D01*
X93573230Y-90614510D01*
X93592250Y-90628748D01*
X93596377Y-90639814D01*
X93604352Y-90648532D01*
X93608364Y-90671951D01*
X93616668Y-90694212D01*
X93615061Y-90711035D01*
X93616152Y-90717398D01*
X93613961Y-90722557D01*
X93612759Y-90735152D01*
X93594376Y-90803760D01*
X93589500Y-90821957D01*
X93589500Y-90930043D01*
X93617475Y-91034447D01*
X93617476Y-91034448D01*
X93617478Y-91034453D01*
X93671513Y-91128046D01*
X93671517Y-91128051D01*
X93671518Y-91128053D01*
X93747947Y-91204482D01*
X93747949Y-91204483D01*
X93747953Y-91204486D01*
X93815603Y-91243543D01*
X93841553Y-91258525D01*
X93945957Y-91286500D01*
X93945959Y-91286500D01*
X94004877Y-91286500D01*
X94026795Y-91292936D01*
X94049564Y-91294832D01*
X94062968Y-91303557D01*
X94071916Y-91306185D01*
X94080341Y-91312107D01*
X94086799Y-91317060D01*
X94132103Y-91362364D01*
X94146958Y-91368517D01*
X94224173Y-91400501D01*
X94224174Y-91400501D01*
X94283842Y-91400501D01*
X94350881Y-91420186D01*
X94396636Y-91472990D01*
X94406546Y-91506622D01*
X94409426Y-91526391D01*
X94460803Y-91631485D01*
X94543514Y-91714196D01*
X94543515Y-91714196D01*
X94543517Y-91714198D01*
X94648607Y-91765573D01*
X94682673Y-91770536D01*
X94716739Y-91775500D01*
X94716740Y-91775500D01*
X95183261Y-91775500D01*
X95206932Y-91772051D01*
X95251393Y-91765573D01*
X95356483Y-91714198D01*
X95439198Y-91631483D01*
X95490573Y-91526393D01*
X95500500Y-91458260D01*
X95500500Y-90841740D01*
X95498179Y-90825813D01*
X95490573Y-90773608D01*
X95487277Y-90766866D01*
X95481456Y-90754959D01*
X95469699Y-90686087D01*
X95497042Y-90621790D01*
X95554807Y-90582483D01*
X95592858Y-90576500D01*
X95957142Y-90576500D01*
X96024181Y-90596185D01*
X96069936Y-90648989D01*
X96079880Y-90718147D01*
X96068543Y-90754960D01*
X96059426Y-90773608D01*
X96049500Y-90841739D01*
X96049500Y-91458260D01*
X96059426Y-91526391D01*
X96110803Y-91631485D01*
X96193512Y-91714194D01*
X96193515Y-91714196D01*
X96193517Y-91714198D01*
X96193518Y-91714198D01*
X96197550Y-91717077D01*
X96201249Y-91721793D01*
X96206703Y-91724284D01*
X96222564Y-91748965D01*
X96240674Y-91772051D01*
X96242069Y-91779315D01*
X96244477Y-91783062D01*
X96249500Y-91817997D01*
X96249500Y-91982142D01*
X96229815Y-92049181D01*
X96179960Y-92093543D01*
X96093514Y-92135803D01*
X96010803Y-92218514D01*
X95959426Y-92323608D01*
X95949500Y-92391739D01*
X95949500Y-93008260D01*
X95959426Y-93076391D01*
X96010803Y-93181485D01*
X96093514Y-93264196D01*
X96093515Y-93264196D01*
X96093517Y-93264198D01*
X96198607Y-93315573D01*
X96232673Y-93320536D01*
X96266739Y-93325500D01*
X96266740Y-93325500D01*
X96733261Y-93325500D01*
X96755971Y-93322191D01*
X96801393Y-93315573D01*
X96906483Y-93264198D01*
X96989198Y-93181483D01*
X97040573Y-93076393D01*
X97050500Y-93008260D01*
X97050500Y-92391740D01*
X97040573Y-92323607D01*
X96989198Y-92218517D01*
X96989196Y-92218515D01*
X96989196Y-92218514D01*
X96906485Y-92135803D01*
X96883364Y-92124500D01*
X96820039Y-92093542D01*
X96808058Y-92082596D01*
X96793297Y-92075855D01*
X96782796Y-92059516D01*
X96768457Y-92046415D01*
X96763903Y-92030117D01*
X96755523Y-92017077D01*
X96750500Y-91982142D01*
X96750500Y-91894800D01*
X96770185Y-91827761D01*
X96822989Y-91782006D01*
X96856616Y-91772096D01*
X96901393Y-91765573D01*
X97006483Y-91714198D01*
X97089198Y-91631483D01*
X97140573Y-91526393D01*
X97143454Y-91506622D01*
X97172598Y-91443121D01*
X97231447Y-91405457D01*
X97266158Y-91400500D01*
X97709827Y-91400500D01*
X97709829Y-91400500D01*
X97801898Y-91362364D01*
X98389919Y-90774341D01*
X98451240Y-90740858D01*
X98520931Y-90745842D01*
X98546485Y-90758919D01*
X98558378Y-90766866D01*
X98558380Y-90766866D01*
X98558382Y-90766867D01*
X98602277Y-90775599D01*
X98602280Y-90775599D01*
X100003522Y-90775599D01*
X100047417Y-90766867D01*
X100047417Y-90766866D01*
X100047422Y-90766866D01*
X100097204Y-90733603D01*
X100130467Y-90683821D01*
X100133911Y-90666507D01*
X100139200Y-90639921D01*
X100139200Y-90280080D01*
X100138460Y-90276358D01*
X100130467Y-90236177D01*
X100130464Y-90236173D01*
X100130071Y-90234194D01*
X100130072Y-90185803D01*
X100130465Y-90183823D01*
X100130467Y-90183822D01*
X100139200Y-90139920D01*
X100139200Y-89780080D01*
X100130467Y-89736178D01*
X100130464Y-89736174D01*
X100130071Y-89734195D01*
X100130072Y-89685804D01*
X100130465Y-89683824D01*
X100130467Y-89683823D01*
X100139200Y-89639921D01*
X100139200Y-89280081D01*
X100130467Y-89236179D01*
X100130465Y-89236176D01*
X100130071Y-89234195D01*
X100130071Y-89185805D01*
X100130465Y-89183823D01*
X100130467Y-89183821D01*
X100139200Y-89139919D01*
X100139200Y-88780079D01*
X100139200Y-88780076D01*
X100130468Y-88736181D01*
X100130467Y-88736180D01*
X100130467Y-88736177D01*
X100097204Y-88686395D01*
X100080710Y-88675374D01*
X100047424Y-88653133D01*
X100047417Y-88653130D01*
X100003522Y-88644399D01*
X100003520Y-88644399D01*
X99392923Y-88644399D01*
X99325884Y-88624714D01*
X99305242Y-88608080D01*
X98786819Y-88089657D01*
X98753334Y-88028334D01*
X98750500Y-88001976D01*
X98750500Y-87609499D01*
X98770185Y-87542460D01*
X98822989Y-87496705D01*
X98874500Y-87485499D01*
X98894017Y-87485499D01*
X98894018Y-87485499D01*
X98987804Y-87470646D01*
X99100842Y-87413050D01*
X99190550Y-87323342D01*
X99248146Y-87210304D01*
X99248146Y-87210302D01*
X99248147Y-87210301D01*
X99262999Y-87116524D01*
X99263000Y-87116519D01*
X99262999Y-84203482D01*
X99248146Y-84109696D01*
X99190550Y-83996658D01*
X99190546Y-83996654D01*
X99190545Y-83996652D01*
X99100847Y-83906954D01*
X99100844Y-83906952D01*
X99100842Y-83906950D01*
X99024017Y-83867805D01*
X98987801Y-83849352D01*
X98894024Y-83834500D01*
X98894019Y-83834500D01*
X98874500Y-83834500D01*
X98807461Y-83814815D01*
X98761706Y-83762011D01*
X98750500Y-83710500D01*
X98750500Y-82699499D01*
X98770185Y-82632460D01*
X98822989Y-82586705D01*
X98874500Y-82575499D01*
X98894017Y-82575499D01*
X98894018Y-82575499D01*
X98987804Y-82560646D01*
X99100842Y-82503050D01*
X99190550Y-82413342D01*
X99248146Y-82300304D01*
X99248146Y-82300302D01*
X99248147Y-82300301D01*
X99251163Y-82291020D01*
X99252568Y-82291476D01*
X99277955Y-82237925D01*
X99337267Y-82200993D01*
X99407129Y-82201991D01*
X99465362Y-82240600D01*
X99493477Y-82304563D01*
X99494500Y-82320457D01*
X99494500Y-82876000D01*
X99494501Y-82876009D01*
X99506052Y-82983450D01*
X99506054Y-82983462D01*
X99517260Y-83034972D01*
X99551383Y-83137497D01*
X99551386Y-83137503D01*
X99629171Y-83258537D01*
X99629179Y-83258548D01*
X99674923Y-83311340D01*
X99674926Y-83311343D01*
X99674930Y-83311347D01*
X99783664Y-83405567D01*
X99783667Y-83405568D01*
X99783668Y-83405569D01*
X99878536Y-83448895D01*
X99914541Y-83465338D01*
X99981580Y-83485023D01*
X99981584Y-83485024D01*
X100124000Y-83505500D01*
X100124003Y-83505500D01*
X101242828Y-83505500D01*
X101260808Y-83505179D01*
X101260818Y-83505178D01*
X101260853Y-83505178D01*
X101269700Y-83504862D01*
X101287719Y-83503896D01*
X101364743Y-83487140D01*
X101434433Y-83492124D01*
X101490367Y-83533995D01*
X101514784Y-83599459D01*
X101515100Y-83608306D01*
X101515100Y-84675220D01*
X101515100Y-84675222D01*
X101515099Y-84675222D01*
X101523831Y-84719117D01*
X101523834Y-84719124D01*
X101525229Y-84721212D01*
X101557096Y-84768904D01*
X101606878Y-84802167D01*
X101606881Y-84802167D01*
X101606882Y-84802168D01*
X101624691Y-84805711D01*
X101686602Y-84838096D01*
X101721176Y-84898811D01*
X101724500Y-84927328D01*
X101724500Y-85582002D01*
X101704815Y-85649041D01*
X101672555Y-85682918D01*
X101668516Y-85685801D01*
X101585803Y-85768514D01*
X101534426Y-85873608D01*
X101524500Y-85941739D01*
X101524500Y-86554456D01*
X101504815Y-86621495D01*
X101452011Y-86667250D01*
X101382853Y-86677194D01*
X101319297Y-86648169D01*
X101312819Y-86642137D01*
X101011819Y-86341137D01*
X100978334Y-86279814D01*
X100975500Y-86253456D01*
X100975500Y-85941739D01*
X100965573Y-85873608D01*
X100949713Y-85841165D01*
X100914198Y-85768517D01*
X100914196Y-85768515D01*
X100914196Y-85768514D01*
X100831485Y-85685803D01*
X100726391Y-85634426D01*
X100658261Y-85624500D01*
X100658260Y-85624500D01*
X100191740Y-85624500D01*
X100191739Y-85624500D01*
X100123608Y-85634426D01*
X100018514Y-85685803D01*
X99935803Y-85768514D01*
X99884426Y-85873608D01*
X99874500Y-85941739D01*
X99874500Y-86558260D01*
X99884426Y-86626391D01*
X99935803Y-86731485D01*
X100018514Y-86814196D01*
X100018515Y-86814196D01*
X100018517Y-86814198D01*
X100123607Y-86865573D01*
X100157673Y-86870536D01*
X100191739Y-86875500D01*
X100191740Y-86875500D01*
X100503456Y-86875500D01*
X100570495Y-86895185D01*
X100591137Y-86911819D01*
X102700642Y-89021324D01*
X102734127Y-89082647D01*
X102729143Y-89152339D01*
X102687271Y-89208272D01*
X102660415Y-89223566D01*
X102602300Y-89247638D01*
X102497936Y-89352002D01*
X102459800Y-89444070D01*
X102459800Y-95760129D01*
X102497936Y-95852197D01*
X106458181Y-99812442D01*
X106491666Y-99873765D01*
X106494500Y-99900123D01*
X106494500Y-103626000D01*
X106494501Y-103626009D01*
X106506052Y-103733450D01*
X106506054Y-103733462D01*
X106517260Y-103784972D01*
X106551383Y-103887497D01*
X106551386Y-103887503D01*
X106629171Y-104008537D01*
X106629179Y-104008548D01*
X106674923Y-104061340D01*
X106674926Y-104061343D01*
X106674930Y-104061347D01*
X106783664Y-104155567D01*
X106783667Y-104155568D01*
X106783668Y-104155569D01*
X106887820Y-104203135D01*
X106914541Y-104215338D01*
X106981580Y-104235023D01*
X106981584Y-104235024D01*
X107124000Y-104255500D01*
X107124003Y-104255500D01*
X114264802Y-104255500D01*
X114264808Y-104255500D01*
X114274713Y-104255257D01*
X114289581Y-104254893D01*
X114299497Y-104254406D01*
X114301703Y-104254298D01*
X114326391Y-104252480D01*
X114466121Y-104218170D01*
X114518431Y-104197059D01*
X114518430Y-104197058D01*
X114543782Y-104186827D01*
X114544567Y-104185872D01*
X114553485Y-104180336D01*
X114559070Y-104177188D01*
X114596188Y-104161061D01*
X114686149Y-104105570D01*
X114688271Y-104104375D01*
X114690492Y-104103860D01*
X114710145Y-104094695D01*
X114741197Y-104084406D01*
X114758667Y-104079995D01*
X114818921Y-104069373D01*
X114853762Y-104060579D01*
X114870876Y-104054907D01*
X114885685Y-104050997D01*
X114979268Y-104032383D01*
X115003459Y-104030000D01*
X115076543Y-104030000D01*
X115100734Y-104032383D01*
X115194303Y-104050994D01*
X115209107Y-104054903D01*
X115226225Y-104060575D01*
X115235261Y-104062855D01*
X115261057Y-104069368D01*
X115261067Y-104069369D01*
X115261068Y-104069370D01*
X115321337Y-104079996D01*
X115338783Y-104084400D01*
X115369851Y-104094695D01*
X115369857Y-104094697D01*
X115395946Y-104106864D01*
X115472136Y-104153859D01*
X115474804Y-104155584D01*
X115477676Y-104157275D01*
X115481417Y-104159583D01*
X115481417Y-104159582D01*
X115483173Y-104160665D01*
X115483173Y-104160666D01*
X115483802Y-104161054D01*
X115483810Y-104161058D01*
X115504653Y-104173914D01*
X115505954Y-104173983D01*
X115522064Y-104180965D01*
X115549124Y-104195046D01*
X115552582Y-104195981D01*
X115563736Y-104199571D01*
X115605710Y-104215310D01*
X115605839Y-104215369D01*
X115606248Y-104215489D01*
X115606248Y-104215488D01*
X115606871Y-104215670D01*
X115606871Y-104215671D01*
X115672766Y-104235021D01*
X115672776Y-104235024D01*
X115815192Y-104255500D01*
X115815195Y-104255500D01*
X132875990Y-104255500D01*
X132876000Y-104255500D01*
X132983456Y-104243947D01*
X133034967Y-104232741D01*
X133069197Y-104221347D01*
X133137497Y-104198616D01*
X133137501Y-104198613D01*
X133137504Y-104198613D01*
X133258543Y-104120825D01*
X133311347Y-104075070D01*
X133405567Y-103966336D01*
X133465338Y-103835459D01*
X133485023Y-103768420D01*
X133485024Y-103768416D01*
X133505500Y-103626000D01*
X133505500Y-89124000D01*
X133493947Y-89016544D01*
X133482741Y-88965033D01*
X133482637Y-88964722D01*
X133448616Y-88862502D01*
X133448613Y-88862496D01*
X133395644Y-88780076D01*
X133370825Y-88741457D01*
X133370820Y-88741451D01*
X133325076Y-88688659D01*
X133325072Y-88688656D01*
X133325070Y-88688653D01*
X133216336Y-88594433D01*
X133216333Y-88594431D01*
X133216331Y-88594430D01*
X133085465Y-88534664D01*
X133085460Y-88534662D01*
X133085459Y-88534662D01*
X133018420Y-88514977D01*
X133018422Y-88514977D01*
X133018417Y-88514976D01*
X132952501Y-88505499D01*
X132876000Y-88494500D01*
X132875998Y-88494500D01*
X132686057Y-88494500D01*
X132619018Y-88474815D01*
X132573263Y-88422011D01*
X132563319Y-88352853D01*
X132592342Y-88289299D01*
X132655567Y-88216336D01*
X132715338Y-88085459D01*
X132735023Y-88018420D01*
X132735024Y-88018416D01*
X132755500Y-87876000D01*
X132755500Y-79624000D01*
X132743947Y-79516544D01*
X132732741Y-79465033D01*
X132698611Y-79362492D01*
X132698609Y-79362489D01*
X132696744Y-79356885D01*
X132690553Y-79311534D01*
X132748359Y-78155435D01*
X132748359Y-78155429D01*
X132748359Y-78155422D01*
X132739967Y-78035113D01*
X132739967Y-78035109D01*
X132728916Y-77977406D01*
X132692258Y-77862496D01*
X132614470Y-77741457D01*
X132614465Y-77741451D01*
X132568721Y-77688659D01*
X132568717Y-77688656D01*
X132568715Y-77688653D01*
X132459981Y-77594433D01*
X132459978Y-77594431D01*
X132459976Y-77594430D01*
X132329110Y-77534664D01*
X132329105Y-77534662D01*
X132329104Y-77534662D01*
X132262065Y-77514977D01*
X132262067Y-77514977D01*
X132262062Y-77514976D01*
X132199992Y-77506052D01*
X132119645Y-77494500D01*
X114453994Y-77494500D01*
X114453983Y-77494500D01*
X114444967Y-77494580D01*
X114440522Y-77494659D01*
X114431533Y-77494900D01*
X114431526Y-77494900D01*
X114431523Y-77494901D01*
X114289929Y-77520448D01*
X114289924Y-77520449D01*
X114289911Y-77520452D01*
X114226162Y-77541671D01*
X114224390Y-77542218D01*
X114223627Y-77542515D01*
X114094968Y-77606921D01*
X113989664Y-77704964D01*
X113945823Y-77759370D01*
X113872409Y-77883105D01*
X113872409Y-77883106D01*
X113854713Y-77925826D01*
X113843256Y-77947259D01*
X113843255Y-77947261D01*
X113813598Y-77991646D01*
X113798177Y-78010436D01*
X113760435Y-78048178D01*
X113741644Y-78063600D01*
X113697260Y-78093256D01*
X113675822Y-78104714D01*
X113626492Y-78125147D01*
X113603233Y-78132203D01*
X113550880Y-78142617D01*
X113526691Y-78145000D01*
X113473312Y-78145000D01*
X113449119Y-78142617D01*
X113434536Y-78139716D01*
X113396754Y-78132200D01*
X113373497Y-78125145D01*
X113324180Y-78104718D01*
X113302740Y-78093258D01*
X113258357Y-78063602D01*
X113258355Y-78063600D01*
X113239567Y-78048181D01*
X113201819Y-78010433D01*
X113186399Y-77991644D01*
X113176885Y-77977406D01*
X113156740Y-77947257D01*
X113145280Y-77925817D01*
X113127758Y-77883512D01*
X113127754Y-77883504D01*
X113081050Y-77796126D01*
X113081033Y-77796098D01*
X113054175Y-77755902D01*
X113054168Y-77755892D01*
X113054163Y-77755885D01*
X113042317Y-77741451D01*
X112991306Y-77679294D01*
X112991294Y-77679281D01*
X112990905Y-77678892D01*
X112990890Y-77678877D01*
X112990866Y-77678855D01*
X112950648Y-77642728D01*
X112950618Y-77642703D01*
X112929994Y-77626083D01*
X112886168Y-77594475D01*
X112886076Y-77594433D01*
X112883970Y-77593470D01*
X112875910Y-77589787D01*
X112847465Y-77571507D01*
X112784450Y-77548002D01*
X112780412Y-77546157D01*
X112780411Y-77546156D01*
X112755305Y-77534686D01*
X112755303Y-77534685D01*
X112755300Y-77534684D01*
X112752703Y-77533921D01*
X112752702Y-77533921D01*
X112728674Y-77526862D01*
X112728674Y-77526861D01*
X112724443Y-77525619D01*
X112712657Y-77521223D01*
X112700303Y-77518534D01*
X112696063Y-77517290D01*
X112695957Y-77517259D01*
X112688184Y-77514977D01*
X112688174Y-77514974D01*
X112545767Y-77494500D01*
X110334500Y-77494500D01*
X110267461Y-77474815D01*
X110221706Y-77422011D01*
X110210500Y-77370500D01*
X110210500Y-77345959D01*
X110210500Y-77345957D01*
X110182525Y-77241553D01*
X110165902Y-77212761D01*
X110128486Y-77147953D01*
X110128480Y-77147945D01*
X110052054Y-77071519D01*
X110052046Y-77071513D01*
X109958453Y-77017478D01*
X109958450Y-77017476D01*
X109958447Y-77017475D01*
X109876103Y-76995411D01*
X109854040Y-76989499D01*
X109845983Y-76988439D01*
X109846264Y-76986297D01*
X109827731Y-76980855D01*
X109797745Y-76974332D01*
X109792729Y-76970577D01*
X109790133Y-76969815D01*
X109769491Y-76953181D01*
X109640858Y-76824548D01*
X109607373Y-76763225D01*
X109612357Y-76693533D01*
X109613978Y-76689415D01*
X109674810Y-76542551D01*
X109674812Y-76542547D01*
X109713261Y-76349253D01*
X109713261Y-76152171D01*
X109713261Y-76152168D01*
X109674813Y-75958882D01*
X109674812Y-75958881D01*
X109674812Y-75958877D01*
X109604242Y-75788504D01*
X109599396Y-75776804D01*
X109599389Y-75776791D01*
X109489900Y-75612930D01*
X109489897Y-75612926D01*
X109350546Y-75473575D01*
X109350542Y-75473572D01*
X109186681Y-75364083D01*
X109186668Y-75364076D01*
X109004600Y-75288662D01*
X109004590Y-75288659D01*
X108811304Y-75250212D01*
X108811302Y-75250212D01*
X108614220Y-75250212D01*
X108614218Y-75250212D01*
X108420931Y-75288659D01*
X108420921Y-75288662D01*
X108238853Y-75364076D01*
X108238840Y-75364083D01*
X108074979Y-75473572D01*
X108074975Y-75473575D01*
X107935624Y-75612926D01*
X107935621Y-75612930D01*
X107826132Y-75776791D01*
X107826125Y-75776804D01*
X107750711Y-75958872D01*
X107750708Y-75958882D01*
X107712261Y-76152168D01*
X107712261Y-76152171D01*
X107712261Y-76349253D01*
X107712261Y-76349255D01*
X107712260Y-76349255D01*
X107750708Y-76542541D01*
X107750711Y-76542551D01*
X107826125Y-76724619D01*
X107826132Y-76724632D01*
X107935621Y-76888493D01*
X107935624Y-76888497D01*
X108074975Y-77027848D01*
X108074979Y-77027851D01*
X108238840Y-77137340D01*
X108238853Y-77137347D01*
X108401532Y-77204730D01*
X108420926Y-77212763D01*
X108420930Y-77212763D01*
X108420931Y-77212764D01*
X108602509Y-77248883D01*
X108664420Y-77281268D01*
X108698994Y-77341984D01*
X108695254Y-77411753D01*
X108654387Y-77468425D01*
X108589369Y-77494006D01*
X108578317Y-77494500D01*
X100124000Y-77494500D01*
X100123991Y-77494500D01*
X100123990Y-77494501D01*
X100016549Y-77506052D01*
X100016537Y-77506054D01*
X99965027Y-77517260D01*
X99862502Y-77551383D01*
X99862496Y-77551386D01*
X99741462Y-77629171D01*
X99741451Y-77629179D01*
X99688659Y-77674923D01*
X99594433Y-77783664D01*
X99594430Y-77783668D01*
X99534664Y-77914534D01*
X99514976Y-77981582D01*
X99510828Y-78010433D01*
X99497945Y-78100043D01*
X99494500Y-78124001D01*
X99494500Y-79179543D01*
X99474815Y-79246582D01*
X99422011Y-79292337D01*
X99352853Y-79302281D01*
X99289297Y-79273256D01*
X99251523Y-79214478D01*
X99248311Y-79200204D01*
X99248147Y-79199699D01*
X99248146Y-79199697D01*
X99248146Y-79199696D01*
X99190550Y-79086658D01*
X99190546Y-79086654D01*
X99190545Y-79086652D01*
X99100847Y-78996954D01*
X99100844Y-78996952D01*
X99100842Y-78996950D01*
X99024017Y-78957805D01*
X98987801Y-78939352D01*
X98894024Y-78924500D01*
X98105982Y-78924500D01*
X98026176Y-78937140D01*
X98012196Y-78939354D01*
X97899158Y-78996950D01*
X97899157Y-78996951D01*
X97899152Y-78996954D01*
X97809454Y-79086652D01*
X97809451Y-79086657D01*
X97751852Y-79199698D01*
X97737000Y-79293475D01*
X97737000Y-82206517D01*
X97745537Y-82260419D01*
X97751854Y-82300304D01*
X97809450Y-82413342D01*
X97809452Y-82413344D01*
X97809454Y-82413347D01*
X97899152Y-82503045D01*
X97899154Y-82503046D01*
X97899158Y-82503050D01*
X98010765Y-82559917D01*
X98012198Y-82560647D01*
X98105974Y-82575499D01*
X98105975Y-82575499D01*
X98105981Y-82575500D01*
X98125497Y-82575499D01*
X98192535Y-82595181D01*
X98238292Y-82647983D01*
X98249500Y-82699499D01*
X98249500Y-83710500D01*
X98229815Y-83777539D01*
X98177011Y-83823294D01*
X98125505Y-83834500D01*
X98105983Y-83834500D01*
X98027050Y-83847001D01*
X98012196Y-83849354D01*
X97899158Y-83906950D01*
X97899157Y-83906951D01*
X97899152Y-83906954D01*
X97809454Y-83996652D01*
X97809451Y-83996657D01*
X97751852Y-84109698D01*
X97737000Y-84203475D01*
X97737000Y-87116517D01*
X97747792Y-87184657D01*
X97751854Y-87210304D01*
X97809450Y-87323342D01*
X97809452Y-87323344D01*
X97809454Y-87323347D01*
X97899152Y-87413045D01*
X97899154Y-87413046D01*
X97899158Y-87413050D01*
X98012194Y-87470645D01*
X98012198Y-87470647D01*
X98105974Y-87485499D01*
X98105975Y-87485499D01*
X98105981Y-87485500D01*
X98125497Y-87485499D01*
X98192535Y-87505181D01*
X98238292Y-87557983D01*
X98249500Y-87609499D01*
X98249500Y-88206928D01*
X98287636Y-88298996D01*
X98504134Y-88515494D01*
X98537619Y-88576817D01*
X98532635Y-88646509D01*
X98514086Y-88675374D01*
X98515381Y-88676240D01*
X98475334Y-88736174D01*
X98475331Y-88736181D01*
X98466600Y-88780076D01*
X98466600Y-89085501D01*
X98446915Y-89152540D01*
X98394111Y-89198295D01*
X98342600Y-89209501D01*
X97210525Y-89209501D01*
X97143486Y-89189816D01*
X97099125Y-89139962D01*
X97064198Y-89068517D01*
X97064196Y-89068515D01*
X97064196Y-89068514D01*
X96981485Y-88985803D01*
X96876391Y-88934426D01*
X96808261Y-88924500D01*
X96808260Y-88924500D01*
X96355123Y-88924500D01*
X96288084Y-88904815D01*
X96267442Y-88888181D01*
X95666897Y-88287636D01*
X95574829Y-88249500D01*
X95574828Y-88249500D01*
X93641158Y-88249500D01*
X93574119Y-88229815D01*
X93528364Y-88177011D01*
X93518454Y-88143378D01*
X93515573Y-88123608D01*
X93515573Y-88123607D01*
X93464198Y-88018517D01*
X93464196Y-88018515D01*
X93464196Y-88018514D01*
X93381485Y-87935803D01*
X93295040Y-87893543D01*
X93243457Y-87846415D01*
X93225500Y-87782142D01*
X93225500Y-87414754D01*
X93245185Y-87347715D01*
X93261823Y-87327069D01*
X93265550Y-87323342D01*
X93323146Y-87210304D01*
X93323146Y-87210302D01*
X93323147Y-87210301D01*
X93337999Y-87116524D01*
X93338000Y-87116519D01*
X93337999Y-84203482D01*
X93323146Y-84109696D01*
X93265550Y-83996658D01*
X93265546Y-83996654D01*
X93265545Y-83996652D01*
X93175847Y-83906954D01*
X93175844Y-83906952D01*
X93175842Y-83906950D01*
X93099017Y-83867805D01*
X93062801Y-83849352D01*
X92969024Y-83834500D01*
X92969019Y-83834500D01*
X92949500Y-83834500D01*
X92882461Y-83814815D01*
X92836706Y-83762011D01*
X92825500Y-83710500D01*
X92825500Y-82699499D01*
X92845185Y-82632460D01*
X92897989Y-82586705D01*
X92949500Y-82575499D01*
X92969017Y-82575499D01*
X92969018Y-82575499D01*
X93062804Y-82560646D01*
X93175842Y-82503050D01*
X93265550Y-82413342D01*
X93323146Y-82300304D01*
X93323146Y-82300302D01*
X93323147Y-82300301D01*
X93337999Y-82206524D01*
X93338000Y-82206519D01*
X93337999Y-79293482D01*
X93323146Y-79199696D01*
X93265550Y-79086658D01*
X93265546Y-79086654D01*
X93265545Y-79086652D01*
X93175847Y-78996954D01*
X93175844Y-78996952D01*
X93175842Y-78996950D01*
X93099017Y-78957805D01*
X93062801Y-78939352D01*
X92969024Y-78924500D01*
X92270270Y-78924500D01*
X92203231Y-78904815D01*
X92157476Y-78852011D01*
X92147532Y-78782853D01*
X92151241Y-78765744D01*
X92607269Y-77204729D01*
X92644963Y-77145900D01*
X92708478Y-77116787D01*
X92726294Y-77115501D01*
X99014823Y-77115501D01*
X99058718Y-77106769D01*
X99058718Y-77106768D01*
X99058723Y-77106768D01*
X99108505Y-77073505D01*
X99141768Y-77023723D01*
X99149213Y-76986297D01*
X99150501Y-76979823D01*
X99150501Y-68558544D01*
X99170186Y-68491505D01*
X99222990Y-68445750D01*
X99292148Y-68435806D01*
X99355704Y-68464831D01*
X99362182Y-68470863D01*
X100742407Y-69851088D01*
X100775892Y-69912411D01*
X100770908Y-69982103D01*
X100729036Y-70038036D01*
X100689663Y-70057746D01*
X100612495Y-70080405D01*
X100612492Y-70080407D01*
X100491462Y-70158189D01*
X100491451Y-70158197D01*
X100438659Y-70203941D01*
X100344433Y-70312682D01*
X100344430Y-70312686D01*
X100284664Y-70443552D01*
X100284662Y-70443559D01*
X100264977Y-70510598D01*
X100264976Y-70510602D01*
X100244500Y-70653018D01*
X100244500Y-71626000D01*
X100244501Y-71626009D01*
X100256052Y-71733450D01*
X100256054Y-71733462D01*
X100267260Y-71784972D01*
X100301383Y-71887497D01*
X100301386Y-71887503D01*
X100379171Y-72008537D01*
X100379179Y-72008548D01*
X100424923Y-72061340D01*
X100424926Y-72061343D01*
X100424930Y-72061347D01*
X100533664Y-72155567D01*
X100533667Y-72155568D01*
X100533668Y-72155569D01*
X100628536Y-72198895D01*
X100664541Y-72215338D01*
X100731580Y-72235023D01*
X100731584Y-72235024D01*
X100874000Y-72255500D01*
X100874003Y-72255500D01*
X101847001Y-72255500D01*
X101864983Y-72255179D01*
X101864993Y-72255178D01*
X101865028Y-72255178D01*
X101873874Y-72254862D01*
X101891891Y-72253896D01*
X102032483Y-72223312D01*
X102097947Y-72198895D01*
X102224222Y-72129944D01*
X102325962Y-72028207D01*
X102367834Y-71972274D01*
X102367840Y-71972266D01*
X102436793Y-71845985D01*
X102445340Y-71806690D01*
X102451740Y-71793453D01*
X102465716Y-71778019D01*
X102475695Y-71759744D01*
X102488696Y-71752644D01*
X102498640Y-71741664D01*
X102518742Y-71736236D01*
X102537017Y-71726257D01*
X102551792Y-71727313D01*
X102566094Y-71723452D01*
X102585939Y-71729754D01*
X102606709Y-71731239D01*
X102622431Y-71741343D01*
X102632687Y-71744600D01*
X102638599Y-71751733D01*
X102651060Y-71759741D01*
X104313181Y-73421862D01*
X104346666Y-73483185D01*
X104349500Y-73509543D01*
X104349500Y-74405500D01*
X104329815Y-74472539D01*
X104277011Y-74518294D01*
X104225500Y-74529500D01*
X102935177Y-74529500D01*
X102891281Y-74538231D01*
X102891274Y-74538234D01*
X102841495Y-74571495D01*
X102841494Y-74571496D01*
X102808233Y-74621275D01*
X102808230Y-74621282D01*
X102799499Y-74665177D01*
X102799499Y-74665180D01*
X102799499Y-75694820D01*
X102799499Y-75694822D01*
X102799498Y-75694822D01*
X102808230Y-75738717D01*
X102808233Y-75738724D01*
X102833673Y-75776798D01*
X102841495Y-75788504D01*
X102891277Y-75821767D01*
X102891280Y-75821767D01*
X102891281Y-75821768D01*
X102935176Y-75830500D01*
X102935179Y-75830500D01*
X106464823Y-75830500D01*
X106508718Y-75821768D01*
X106508718Y-75821767D01*
X106508723Y-75821767D01*
X106558505Y-75788504D01*
X106591768Y-75738722D01*
X106600501Y-75694820D01*
X106600501Y-74665180D01*
X106600501Y-74665177D01*
X106591769Y-74621282D01*
X106591768Y-74621281D01*
X106591768Y-74621278D01*
X106558505Y-74571496D01*
X106558504Y-74571495D01*
X106508725Y-74538234D01*
X106508718Y-74538231D01*
X106464823Y-74529500D01*
X106464821Y-74529500D01*
X105174500Y-74529500D01*
X105107461Y-74509815D01*
X105061706Y-74457011D01*
X105050500Y-74405500D01*
X105050500Y-73266857D01*
X105050500Y-73266855D01*
X105026614Y-73177711D01*
X104980470Y-73097787D01*
X104349864Y-72467181D01*
X104316379Y-72405858D01*
X104321363Y-72336166D01*
X104363235Y-72280233D01*
X104428699Y-72255816D01*
X104437545Y-72255500D01*
X106625990Y-72255500D01*
X106626000Y-72255500D01*
X106733456Y-72243947D01*
X106784967Y-72232741D01*
X106819197Y-72221347D01*
X106887497Y-72198616D01*
X106887501Y-72198613D01*
X106887504Y-72198613D01*
X107008543Y-72120825D01*
X107061347Y-72075070D01*
X107155567Y-71966336D01*
X107215338Y-71835459D01*
X107235023Y-71768420D01*
X107235024Y-71768416D01*
X107255500Y-71626000D01*
X107255500Y-68879500D01*
X107275185Y-68812461D01*
X107327989Y-68766706D01*
X107379500Y-68755500D01*
X121125990Y-68755500D01*
X121126000Y-68755500D01*
X121233456Y-68743947D01*
X121284967Y-68732741D01*
X121319197Y-68721347D01*
X121387497Y-68698616D01*
X121387501Y-68698613D01*
X121387504Y-68698613D01*
X121508543Y-68620825D01*
X121561347Y-68575070D01*
X121655567Y-68466336D01*
X121715338Y-68335459D01*
X121735023Y-68268420D01*
X121735024Y-68268416D01*
X121755500Y-68126000D01*
X121755500Y-61756323D01*
X121743947Y-61648867D01*
X121732741Y-61597356D01*
X121732637Y-61597045D01*
X121698616Y-61494825D01*
X121698613Y-61494819D01*
X121620828Y-61373785D01*
X121620825Y-61373780D01*
X121620820Y-61373774D01*
X121575076Y-61320982D01*
X121575072Y-61320979D01*
X121575070Y-61320976D01*
X121466336Y-61226756D01*
X121466333Y-61226754D01*
X121466331Y-61226753D01*
X121335465Y-61166987D01*
X121335460Y-61166985D01*
X121335459Y-61166985D01*
X121268420Y-61147300D01*
X121268422Y-61147300D01*
X121268417Y-61147299D01*
X121206347Y-61138375D01*
X121126000Y-61126823D01*
X121125998Y-61126823D01*
X96474500Y-61126823D01*
X96407461Y-61107138D01*
X96361706Y-61054334D01*
X96350500Y-61002823D01*
X96350500Y-58728858D01*
X96350500Y-58728856D01*
X96326614Y-58639712D01*
X96316399Y-58622019D01*
X96316399Y-58622018D01*
X96280474Y-58559794D01*
X96280468Y-58559786D01*
X95084142Y-57363460D01*
X95050657Y-57302137D01*
X95047823Y-57275779D01*
X95047823Y-56936687D01*
X95041294Y-56891875D01*
X95039280Y-56878048D01*
X129139500Y-56878048D01*
X129139500Y-57121951D01*
X129159753Y-57275779D01*
X129171334Y-57363744D01*
X129203957Y-57485495D01*
X129234456Y-57599320D01*
X129234459Y-57599330D01*
X129327786Y-57824640D01*
X129327791Y-57824651D01*
X129449727Y-58035848D01*
X129449738Y-58035864D01*
X129598199Y-58229343D01*
X129598205Y-58229350D01*
X129770649Y-58401794D01*
X129770656Y-58401800D01*
X129793429Y-58419274D01*
X129964144Y-58550268D01*
X129964151Y-58550272D01*
X130175348Y-58672208D01*
X130175353Y-58672210D01*
X130175356Y-58672212D01*
X130400679Y-58765544D01*
X130636256Y-58828666D01*
X130878056Y-58860500D01*
X130878063Y-58860500D01*
X131121937Y-58860500D01*
X131121944Y-58860500D01*
X131363744Y-58828666D01*
X131599321Y-58765544D01*
X131824644Y-58672212D01*
X132035856Y-58550268D01*
X132229345Y-58401799D01*
X132401799Y-58229345D01*
X132550268Y-58035856D01*
X132672212Y-57824644D01*
X132765544Y-57599321D01*
X132828666Y-57363744D01*
X132860500Y-57121944D01*
X132860500Y-56878056D01*
X132828666Y-56636256D01*
X132765544Y-56400679D01*
X132672212Y-56175356D01*
X132672210Y-56175353D01*
X132672208Y-56175348D01*
X132550272Y-55964151D01*
X132550268Y-55964144D01*
X132401799Y-55770655D01*
X132401794Y-55770649D01*
X132229350Y-55598205D01*
X132229343Y-55598199D01*
X132035864Y-55449738D01*
X132035862Y-55449736D01*
X132035856Y-55449732D01*
X132035851Y-55449729D01*
X132035848Y-55449727D01*
X131824651Y-55327791D01*
X131824640Y-55327786D01*
X131599330Y-55234459D01*
X131599323Y-55234457D01*
X131599321Y-55234456D01*
X131363744Y-55171334D01*
X131323333Y-55166013D01*
X131121951Y-55139500D01*
X131121944Y-55139500D01*
X130878056Y-55139500D01*
X130878048Y-55139500D01*
X130647896Y-55169801D01*
X130636256Y-55171334D01*
X130400679Y-55234456D01*
X130400669Y-55234459D01*
X130175359Y-55327786D01*
X130175348Y-55327791D01*
X129964151Y-55449727D01*
X129964135Y-55449738D01*
X129770656Y-55598199D01*
X129770649Y-55598205D01*
X129598205Y-55770649D01*
X129598199Y-55770656D01*
X129449738Y-55964135D01*
X129449727Y-55964151D01*
X129327791Y-56175348D01*
X129327786Y-56175359D01*
X129234459Y-56400669D01*
X129234456Y-56400679D01*
X129171335Y-56636253D01*
X129171333Y-56636264D01*
X129139500Y-56878048D01*
X95039280Y-56878048D01*
X95037189Y-56863698D01*
X95034841Y-56858895D01*
X94982150Y-56751112D01*
X94893533Y-56662495D01*
X94780951Y-56607458D01*
X94780949Y-56607457D01*
X94780948Y-56607457D01*
X94707959Y-56596823D01*
X94186687Y-56596823D01*
X94113698Y-56607457D01*
X94113696Y-56607457D01*
X94113694Y-56607458D01*
X94001112Y-56662495D01*
X93912495Y-56751112D01*
X93857458Y-56863694D01*
X93857457Y-56863696D01*
X93857457Y-56863698D01*
X93846823Y-56936687D01*
X93846823Y-56936692D01*
X93846823Y-57418456D01*
X93827138Y-57485495D01*
X93810504Y-57506137D01*
X93001053Y-58315587D01*
X92939730Y-58349072D01*
X92893973Y-58350379D01*
X92871522Y-58346823D01*
X92308482Y-58346823D01*
X92227519Y-58359646D01*
X92214696Y-58361677D01*
X92101658Y-58419273D01*
X92101657Y-58419274D01*
X92101652Y-58419277D01*
X92011954Y-58508975D01*
X92011951Y-58508980D01*
X92011950Y-58508981D01*
X91972323Y-58586753D01*
X91954354Y-58622019D01*
X91954352Y-58622021D01*
X91939500Y-58715798D01*
X91939500Y-59728840D01*
X91950292Y-59796980D01*
X91954354Y-59822627D01*
X92011950Y-59935665D01*
X92011952Y-59935667D01*
X92011954Y-59935670D01*
X92101652Y-60025368D01*
X92101654Y-60025369D01*
X92101658Y-60025373D01*
X92171796Y-60061110D01*
X92222591Y-60109084D01*
X92239500Y-60171594D01*
X92239500Y-60725374D01*
X92219815Y-60792413D01*
X92184391Y-60828476D01*
X92131495Y-60863819D01*
X92098234Y-60913598D01*
X92098231Y-60913605D01*
X92089500Y-60957500D01*
X92089500Y-60957503D01*
X92089500Y-61987143D01*
X92089500Y-61987145D01*
X92089499Y-61987145D01*
X92098231Y-62031040D01*
X92098232Y-62031044D01*
X92098233Y-62031045D01*
X92131496Y-62080827D01*
X92181278Y-62114090D01*
X92181281Y-62114090D01*
X92181282Y-62114091D01*
X92225177Y-62122823D01*
X92225180Y-62122823D01*
X92854822Y-62122823D01*
X92898717Y-62114091D01*
X92898717Y-62114090D01*
X92898722Y-62114090D01*
X92948504Y-62080827D01*
X92981767Y-62031045D01*
X92983127Y-62024209D01*
X92990500Y-61987145D01*
X92990500Y-60957500D01*
X92981768Y-60913605D01*
X92981766Y-60913599D01*
X92961397Y-60883114D01*
X92940520Y-60816437D01*
X92940500Y-60814225D01*
X92940500Y-60171594D01*
X92960185Y-60104555D01*
X93008203Y-60061110D01*
X93078342Y-60025373D01*
X93168050Y-59935665D01*
X93225646Y-59822627D01*
X93225646Y-59822625D01*
X93225647Y-59822624D01*
X93240499Y-59728847D01*
X93240500Y-59728842D01*
X93240499Y-59118865D01*
X93260183Y-59051827D01*
X93276813Y-59031190D01*
X93627821Y-58680182D01*
X93689142Y-58646699D01*
X93758834Y-58651683D01*
X93814767Y-58693555D01*
X93839184Y-58759019D01*
X93839500Y-58767865D01*
X93839500Y-59728840D01*
X93850292Y-59796980D01*
X93854354Y-59822627D01*
X93911950Y-59935665D01*
X93911952Y-59935667D01*
X93911954Y-59935670D01*
X94001652Y-60025368D01*
X94001654Y-60025369D01*
X94001658Y-60025373D01*
X94071796Y-60061110D01*
X94122591Y-60109084D01*
X94139500Y-60171594D01*
X94139500Y-60725373D01*
X94119815Y-60792412D01*
X94084391Y-60828475D01*
X94031494Y-60863819D01*
X93998233Y-60913598D01*
X93998230Y-60913605D01*
X93989499Y-60957500D01*
X93989499Y-61892521D01*
X93969814Y-61959560D01*
X93917010Y-62005315D01*
X93904663Y-62010173D01*
X93893439Y-62013909D01*
X93862494Y-62024209D01*
X93862492Y-62024210D01*
X93741462Y-62101992D01*
X93741451Y-62102001D01*
X93688659Y-62147745D01*
X93594433Y-62256486D01*
X93594430Y-62256490D01*
X93534664Y-62387356D01*
X93514976Y-62454404D01*
X93494500Y-62596823D01*
X93494500Y-63192259D01*
X93502529Y-63281987D01*
X93502531Y-63282003D01*
X93510352Y-63325351D01*
X93534951Y-63415018D01*
X93533703Y-63484877D01*
X93494886Y-63542971D01*
X93430822Y-63570856D01*
X93415369Y-63571823D01*
X93175176Y-63571823D01*
X93131280Y-63580554D01*
X93131277Y-63580555D01*
X93083889Y-63612219D01*
X93017211Y-63633096D01*
X92949831Y-63614611D01*
X92946109Y-63612219D01*
X92923063Y-63596820D01*
X92898722Y-63580556D01*
X92898721Y-63580555D01*
X92898720Y-63580555D01*
X92898717Y-63580554D01*
X92854822Y-63571823D01*
X92854820Y-63571823D01*
X92553068Y-63571823D01*
X91223930Y-63571823D01*
X91223928Y-63571823D01*
X91098260Y-63596820D01*
X91098254Y-63596822D01*
X91057221Y-63613819D01*
X90979873Y-63645857D01*
X90873325Y-63717049D01*
X90873324Y-63717050D01*
X89632195Y-64958181D01*
X89570872Y-64991666D01*
X89544514Y-64994500D01*
X85374000Y-64994500D01*
X85373991Y-64994500D01*
X85373990Y-64994501D01*
X85266549Y-65006052D01*
X85266537Y-65006054D01*
X85215027Y-65017260D01*
X85112502Y-65051383D01*
X85112496Y-65051386D01*
X84991462Y-65129171D01*
X84991451Y-65129179D01*
X84938659Y-65174923D01*
X84844433Y-65283664D01*
X84844430Y-65283668D01*
X84784664Y-65414534D01*
X84764976Y-65481582D01*
X84744500Y-65624001D01*
X79300500Y-65624001D01*
X79300500Y-56878048D01*
X81139500Y-56878048D01*
X81139500Y-57121951D01*
X81159753Y-57275779D01*
X81171334Y-57363744D01*
X81203957Y-57485495D01*
X81234456Y-57599320D01*
X81234459Y-57599330D01*
X81327786Y-57824640D01*
X81327791Y-57824651D01*
X81449727Y-58035848D01*
X81449738Y-58035864D01*
X81598199Y-58229343D01*
X81598205Y-58229350D01*
X81770649Y-58401794D01*
X81770656Y-58401800D01*
X81793429Y-58419274D01*
X81964144Y-58550268D01*
X81964151Y-58550272D01*
X82175348Y-58672208D01*
X82175353Y-58672210D01*
X82175356Y-58672212D01*
X82400679Y-58765544D01*
X82636256Y-58828666D01*
X82878056Y-58860500D01*
X82878063Y-58860500D01*
X83121937Y-58860500D01*
X83121944Y-58860500D01*
X83363744Y-58828666D01*
X83599321Y-58765544D01*
X83824644Y-58672212D01*
X84035856Y-58550268D01*
X84229345Y-58401799D01*
X84401799Y-58229345D01*
X84550268Y-58035856D01*
X84672212Y-57824644D01*
X84765544Y-57599321D01*
X84828666Y-57363744D01*
X84860500Y-57121944D01*
X84860500Y-56878056D01*
X84828666Y-56636256D01*
X84765544Y-56400679D01*
X84672212Y-56175356D01*
X84672210Y-56175353D01*
X84672208Y-56175348D01*
X84550272Y-55964151D01*
X84550268Y-55964144D01*
X84401799Y-55770655D01*
X84401794Y-55770649D01*
X84229350Y-55598205D01*
X84229343Y-55598199D01*
X84035864Y-55449738D01*
X84035862Y-55449736D01*
X84035856Y-55449732D01*
X84035851Y-55449729D01*
X84035848Y-55449727D01*
X83824651Y-55327791D01*
X83824640Y-55327786D01*
X83599330Y-55234459D01*
X83599323Y-55234457D01*
X83599321Y-55234456D01*
X83363744Y-55171334D01*
X83323333Y-55166013D01*
X83121951Y-55139500D01*
X83121944Y-55139500D01*
X82878056Y-55139500D01*
X82878048Y-55139500D01*
X82647896Y-55169801D01*
X82636256Y-55171334D01*
X82400679Y-55234456D01*
X82400669Y-55234459D01*
X82175359Y-55327786D01*
X82175348Y-55327791D01*
X81964151Y-55449727D01*
X81964135Y-55449738D01*
X81770656Y-55598199D01*
X81770649Y-55598205D01*
X81598205Y-55770649D01*
X81598199Y-55770656D01*
X81449738Y-55964135D01*
X81449727Y-55964151D01*
X81327791Y-56175348D01*
X81327786Y-56175359D01*
X81234459Y-56400669D01*
X81234456Y-56400679D01*
X81171335Y-56636253D01*
X81171333Y-56636264D01*
X81139500Y-56878048D01*
X79300500Y-56878048D01*
X79300500Y-53424500D01*
X79320185Y-53357461D01*
X79372989Y-53311706D01*
X79424500Y-53300500D01*
X82960438Y-53300500D01*
X134575500Y-53300500D01*
X134642539Y-53320185D01*
G37*
%TD.AperFunction*%
%TD*%
M02*
