%TF.GenerationSoftware,KiCad,Pcbnew,9.0.6*%
%TF.CreationDate,2026-04-13T23:22:44+02:00*%
%TF.ProjectId,Boost converter,426f6f73-7420-4636-9f6e-766572746572,C*%
%TF.SameCoordinates,Original*%
%TF.FileFunction,Copper,L1,Top*%
%TF.FilePolarity,Positive*%
%FSLAX46Y46*%
G04 Gerber Fmt 4.6, Leading zero omitted, Abs format (unit mm)*
G04 Created by KiCad (PCBNEW 9.0.6) date 2026-04-13 23:22:44*
%MOMM*%
%LPD*%
G01*
G04 APERTURE LIST*
G04 Aperture macros list*
%AMRoundRect*
0 Rectangle with rounded corners*
0 $1 Rounding radius*
0 $2 $3 $4 $5 $6 $7 $8 $9 X,Y pos of 4 corners*
0 Add a 4 corners polygon primitive as box body*
4,1,4,$2,$3,$4,$5,$6,$7,$8,$9,$2,$3,0*
0 Add four circle primitives for the rounded corners*
1,1,$1+$1,$2,$3*
1,1,$1+$1,$4,$5*
1,1,$1+$1,$6,$7*
1,1,$1+$1,$8,$9*
0 Add four rect primitives between the rounded corners*
20,1,$1+$1,$2,$3,$4,$5,0*
20,1,$1+$1,$4,$5,$6,$7,0*
20,1,$1+$1,$6,$7,$8,$9,0*
20,1,$1+$1,$8,$9,$2,$3,0*%
G04 Aperture macros list end*
%TA.AperFunction,SMDPad,CuDef*%
%ADD10RoundRect,0.200000X0.200000X0.275000X-0.200000X0.275000X-0.200000X-0.275000X0.200000X-0.275000X0*%
%TD*%
%TA.AperFunction,SMDPad,CuDef*%
%ADD11RoundRect,0.250000X0.475000X-0.250000X0.475000X0.250000X-0.475000X0.250000X-0.475000X-0.250000X0*%
%TD*%
%TA.AperFunction,ComponentPad*%
%ADD12RoundRect,0.250000X1.000000X-1.000000X1.000000X1.000000X-1.000000X1.000000X-1.000000X-1.000000X0*%
%TD*%
%TA.AperFunction,ComponentPad*%
%ADD13C,2.500000*%
%TD*%
%TA.AperFunction,SMDPad,CuDef*%
%ADD14RoundRect,0.250000X-0.475000X0.250000X-0.475000X-0.250000X0.475000X-0.250000X0.475000X0.250000X0*%
%TD*%
%TA.AperFunction,SMDPad,CuDef*%
%ADD15RoundRect,0.200000X-0.200000X-0.275000X0.200000X-0.275000X0.200000X0.275000X-0.200000X0.275000X0*%
%TD*%
%TA.AperFunction,SMDPad,CuDef*%
%ADD16RoundRect,0.250000X-0.362500X-1.425000X0.362500X-1.425000X0.362500X1.425000X-0.362500X1.425000X0*%
%TD*%
%TA.AperFunction,SMDPad,CuDef*%
%ADD17RoundRect,0.200000X-0.275000X0.200000X-0.275000X-0.200000X0.275000X-0.200000X0.275000X0.200000X0*%
%TD*%
%TA.AperFunction,SMDPad,CuDef*%
%ADD18RoundRect,0.225000X-0.225000X-0.250000X0.225000X-0.250000X0.225000X0.250000X-0.225000X0.250000X0*%
%TD*%
%TA.AperFunction,SMDPad,CuDef*%
%ADD19RoundRect,0.225000X0.225000X0.250000X-0.225000X0.250000X-0.225000X-0.250000X0.225000X-0.250000X0*%
%TD*%
%TA.AperFunction,SMDPad,CuDef*%
%ADD20RoundRect,0.200000X0.275000X-0.200000X0.275000X0.200000X-0.275000X0.200000X-0.275000X-0.200000X0*%
%TD*%
%TA.AperFunction,SMDPad,CuDef*%
%ADD21R,0.509999X0.860001*%
%TD*%
%TA.AperFunction,SMDPad,CuDef*%
%ADD22RoundRect,0.466380X-1.634336X1.088220X-1.634336X-1.088220X1.634336X-1.088220X1.634336X1.088220X0*%
%TD*%
%TA.AperFunction,SMDPad,CuDef*%
%ADD23R,1.422400X0.355600*%
%TD*%
%TA.AperFunction,SMDPad,CuDef*%
%ADD24R,2.997200X4.191000*%
%TD*%
%TA.AperFunction,ComponentPad*%
%ADD25RoundRect,0.250000X-0.750000X0.750000X-0.750000X-0.750000X0.750000X-0.750000X0.750000X0.750000X0*%
%TD*%
%TA.AperFunction,ComponentPad*%
%ADD26C,2.000000*%
%TD*%
%TA.AperFunction,SMDPad,CuDef*%
%ADD27R,0.860001X0.509999*%
%TD*%
%TA.AperFunction,SMDPad,CuDef*%
%ADD28RoundRect,0.466380X-1.088220X-1.634336X1.088220X-1.634336X1.088220X1.634336X-1.088220X1.634336X0*%
%TD*%
%TA.AperFunction,SMDPad,CuDef*%
%ADD29RoundRect,0.466380X1.634336X-1.088220X1.634336X1.088220X-1.634336X1.088220X-1.634336X-1.088220X0*%
%TD*%
%TA.AperFunction,ComponentPad*%
%ADD30R,1.700000X1.700000*%
%TD*%
%TA.AperFunction,ComponentPad*%
%ADD31C,1.700000*%
%TD*%
%TA.AperFunction,SMDPad,CuDef*%
%ADD32RoundRect,0.250000X0.250000X0.475000X-0.250000X0.475000X-0.250000X-0.475000X0.250000X-0.475000X0*%
%TD*%
%TA.AperFunction,SMDPad,CuDef*%
%ADD33RoundRect,0.250000X-0.650000X1.000000X-0.650000X-1.000000X0.650000X-1.000000X0.650000X1.000000X0*%
%TD*%
%TA.AperFunction,SMDPad,CuDef*%
%ADD34RoundRect,0.250000X-0.250000X-0.475000X0.250000X-0.475000X0.250000X0.475000X-0.250000X0.475000X0*%
%TD*%
%TA.AperFunction,SMDPad,CuDef*%
%ADD35R,0.558800X1.270000*%
%TD*%
%TA.AperFunction,ComponentPad*%
%ADD36RoundRect,0.250000X-1.000000X1.000000X-1.000000X-1.000000X1.000000X-1.000000X1.000000X1.000000X0*%
%TD*%
%TA.AperFunction,SMDPad,CuDef*%
%ADD37R,5.334000X5.588000*%
%TD*%
%TA.AperFunction,SMDPad,CuDef*%
%ADD38R,6.350000X5.283200*%
%TD*%
%TA.AperFunction,ViaPad*%
%ADD39C,0.800000*%
%TD*%
%TA.AperFunction,ViaPad*%
%ADD40C,0.600000*%
%TD*%
%TA.AperFunction,ViaPad*%
%ADD41C,0.500000*%
%TD*%
%TA.AperFunction,Conductor*%
%ADD42C,0.400000*%
%TD*%
%TA.AperFunction,Conductor*%
%ADD43C,0.800000*%
%TD*%
%TA.AperFunction,Conductor*%
%ADD44C,0.200000*%
%TD*%
%TA.AperFunction,Conductor*%
%ADD45C,1.000000*%
%TD*%
G04 APERTURE END LIST*
D10*
%TO.P,R14,1*%
%TO.N,Net-(R13-Pad2)*%
X176325000Y-150600000D03*
%TO.P,R14,2*%
%TO.N,GND*%
X174675000Y-150600000D03*
%TD*%
D11*
%TO.P,C18,1*%
%TO.N,+36V*%
X197500000Y-132400000D03*
%TO.P,C18,2*%
%TO.N,GND*%
X197500000Y-130500000D03*
%TD*%
D12*
%TO.P,J2,1,Pin_1*%
%TO.N,+36V*%
X207567500Y-134200000D03*
D13*
%TO.P,J2,2,Pin_2*%
%TO.N,GND*%
X207567500Y-129200000D03*
%TD*%
D14*
%TO.P,C16,1*%
%TO.N,+18V*%
X153800000Y-141550000D03*
%TO.P,C16,2*%
%TO.N,GND*%
X153800000Y-143450000D03*
%TD*%
D15*
%TO.P,R13,1*%
%TO.N,FB*%
X174675000Y-149000000D03*
%TO.P,R13,2*%
%TO.N,Net-(R13-Pad2)*%
X176325000Y-149000000D03*
%TD*%
D16*
%TO.P,R5,1*%
%TO.N,+18V*%
X156037500Y-140250000D03*
%TO.P,R5,2*%
%TO.N,/CSN*%
X161962500Y-140250000D03*
%TD*%
D10*
%TO.P,R6,1*%
%TO.N,GND*%
X163825000Y-155000000D03*
%TO.P,R6,2*%
%TO.N,Net-(MOSFET1-G)*%
X162175000Y-155000000D03*
%TD*%
D11*
%TO.P,C15,1*%
%TO.N,+18V*%
X153800000Y-139950000D03*
%TO.P,C15,2*%
%TO.N,GND*%
X153800000Y-138050000D03*
%TD*%
D17*
%TO.P,R18,1*%
%TO.N,Net-(Q1-Gate)*%
X178400000Y-147575000D03*
%TO.P,R18,2*%
%TO.N,/LO*%
X178400000Y-149225000D03*
%TD*%
D15*
%TO.P,R11,1*%
%TO.N,/COMP*%
X171375000Y-152500000D03*
%TO.P,R11,2*%
%TO.N,Net-(C7-Pad1)*%
X173025000Y-152500000D03*
%TD*%
D18*
%TO.P,C3,1*%
%TO.N,GND*%
X160525000Y-146500000D03*
%TO.P,C3,2*%
%TO.N,/SS*%
X162075000Y-146500000D03*
%TD*%
D19*
%TO.P,C1,1*%
%TO.N,/COMP*%
X165500000Y-150000000D03*
%TO.P,C1,2*%
%TO.N,FB*%
X163950000Y-150000000D03*
%TD*%
D15*
%TO.P,R7,1*%
%TO.N,GND*%
X160475000Y-148100000D03*
%TO.P,R7,2*%
%TO.N,/SYNCIN*%
X162125000Y-148100000D03*
%TD*%
D14*
%TO.P,C4,1*%
%TO.N,/BST*%
X172400000Y-140850000D03*
%TO.P,C4,2*%
%TO.N,/SW*%
X172400000Y-142750000D03*
%TD*%
D17*
%TO.P,R15,1*%
%TO.N,+36V*%
X187470000Y-144350000D03*
%TO.P,R15,2*%
%TO.N,FB*%
X187470000Y-146000000D03*
%TD*%
D11*
%TO.P,C19,1*%
%TO.N,+36V*%
X199500000Y-132400000D03*
%TO.P,C19,2*%
%TO.N,GND*%
X199500000Y-130500000D03*
%TD*%
D17*
%TO.P,R9,1*%
%TO.N,Net-(Q2-Gate)*%
X185900000Y-145075000D03*
%TO.P,R9,2*%
%TO.N,/HO*%
X185900000Y-146725000D03*
%TD*%
D11*
%TO.P,C9,1*%
%TO.N,+36V*%
X195500000Y-132450000D03*
%TO.P,C9,2*%
%TO.N,GND*%
X195500000Y-130550000D03*
%TD*%
D10*
%TO.P,R17,1*%
%TO.N,Net-(Q4-Gate)*%
X185625000Y-148200000D03*
%TO.P,R17,2*%
%TO.N,/LO*%
X183975000Y-148200000D03*
%TD*%
D15*
%TO.P,R8,1*%
%TO.N,/SLOPE*%
X171550000Y-147000000D03*
%TO.P,R8,2*%
%TO.N,Net-(R10-Pad1)*%
X173200000Y-147000000D03*
%TD*%
%TO.P,R10,1*%
%TO.N,Net-(R10-Pad1)*%
X174575000Y-147000000D03*
%TO.P,R10,2*%
%TO.N,GND*%
X176225000Y-147000000D03*
%TD*%
D20*
%TO.P,R2,1*%
%TO.N,/UVLO*%
X155600000Y-145725000D03*
%TO.P,R2,2*%
%TO.N,GND*%
X155600000Y-144075000D03*
%TD*%
D17*
%TO.P,R4,1*%
%TO.N,+18V*%
X162000000Y-142975000D03*
%TO.P,R4,2*%
%TO.N,/VIN*%
X162000000Y-144625000D03*
%TD*%
D21*
%TO.P,Q4,1,Source*%
%TO.N,GND*%
X181505000Y-131780001D03*
%TO.P,Q4,2,Source*%
X180235000Y-131780001D03*
%TO.P,Q4,3,Source*%
X178965000Y-131780001D03*
%TO.P,Q4,4,Gate*%
%TO.N,Net-(Q4-Gate)*%
X177695000Y-131780001D03*
%TO.P,Q4,5,Drain*%
%TO.N,/SW*%
X177695000Y-137419999D03*
%TO.P,Q4,6,Drain*%
X178965000Y-137419999D03*
%TO.P,Q4,7,Drain*%
X180235000Y-137419999D03*
D22*
%TO.P,Q4,8,Drain*%
X179604279Y-135285399D03*
D21*
X181505000Y-137419999D03*
%TD*%
D11*
%TO.P,C14,1*%
%TO.N,+18V*%
X151800000Y-139950000D03*
%TO.P,C14,2*%
%TO.N,GND*%
X151800000Y-138050000D03*
%TD*%
D18*
%TO.P,C5,1*%
%TO.N,/RES*%
X171475000Y-145500000D03*
%TO.P,C5,2*%
%TO.N,GND*%
X173025000Y-145500000D03*
%TD*%
D23*
%TO.P,U1,1,SYNCOUT*%
%TO.N,GND*%
X164000000Y-141750000D03*
%TO.P,U1,2,OPT*%
X164000000Y-142400001D03*
%TO.P,U1,3,CSN*%
%TO.N,/CSN*%
X164000000Y-143049999D03*
%TO.P,U1,4,CSP*%
%TO.N,+18V*%
X164000000Y-143700001D03*
%TO.P,U1,5,VIN*%
%TO.N,/VIN*%
X164000000Y-144349999D03*
%TO.P,U1,6,UVLO*%
%TO.N,/UVLO*%
X164000000Y-144999998D03*
%TO.P,U1,7,SS*%
%TO.N,/SS*%
X164000000Y-145649999D03*
%TO.P,U1,8,SYNCIN/RT*%
%TO.N,/SYNCIN*%
X164000000Y-146299998D03*
%TO.P,U1,9,AGND*%
%TO.N,GND*%
X164000000Y-146949999D03*
%TO.P,U1,10,FB*%
%TO.N,FB*%
X164000000Y-147599998D03*
%TO.P,U1,11,COMP*%
%TO.N,/COMP*%
X169689600Y-147600000D03*
%TO.P,U1,12,SLOPE*%
%TO.N,/SLOPE*%
X169689600Y-146950002D03*
%TO.P,U1,13,MODE*%
%TO.N,GND*%
X169689600Y-146300001D03*
%TO.P,U1,14,RES*%
%TO.N,/RES*%
X169689600Y-145650002D03*
%TO.P,U1,15,PGND*%
%TO.N,GND*%
X169689600Y-145000001D03*
%TO.P,U1,16,LO*%
%TO.N,/LO*%
X169689600Y-144350002D03*
%TO.P,U1,17,VCC*%
%TO.N,/VCC*%
X169689600Y-143700001D03*
%TO.P,U1,18,SW*%
%TO.N,/SW*%
X169689600Y-143050002D03*
%TO.P,U1,19,HO*%
%TO.N,/HO*%
X169689600Y-142400001D03*
%TO.P,U1,20,BST*%
%TO.N,/BST*%
X169689600Y-141750002D03*
D24*
%TO.P,U1,21,EP*%
%TO.N,GND*%
X166844800Y-144675000D03*
%TD*%
D25*
%TO.P,C10,1*%
%TO.N,+36V*%
X196400000Y-142700000D03*
D26*
%TO.P,C10,2*%
%TO.N,GND*%
X196400000Y-147700000D03*
%TD*%
D27*
%TO.P,Q3,1,Source*%
%TO.N,/SW*%
X180880001Y-138995000D03*
%TO.P,Q3,2,Source*%
X180880001Y-140265000D03*
%TO.P,Q3,3,Source*%
X180880001Y-141535000D03*
%TO.P,Q3,4,Gate*%
%TO.N,Net-(Q3-Gate)*%
X180880001Y-142805000D03*
%TO.P,Q3,5,Drain*%
%TO.N,+36V*%
X186519999Y-142805000D03*
%TO.P,Q3,6,Drain*%
X186519999Y-141535000D03*
%TO.P,Q3,7,Drain*%
X186519999Y-140265000D03*
D28*
%TO.P,Q3,8,Drain*%
X184385399Y-140895721D03*
D27*
X186519999Y-138995000D03*
%TD*%
D14*
%TO.P,C13,1*%
%TO.N,+18V*%
X151800000Y-141550000D03*
%TO.P,C13,2*%
%TO.N,GND*%
X151800000Y-143450000D03*
%TD*%
D21*
%TO.P,Q1,1,Source*%
%TO.N,GND*%
X174595000Y-145569999D03*
%TO.P,Q1,2,Source*%
X175865000Y-145569999D03*
%TO.P,Q1,3,Source*%
X177135000Y-145569999D03*
%TO.P,Q1,4,Gate*%
%TO.N,Net-(Q1-Gate)*%
X178405000Y-145569999D03*
%TO.P,Q1,5,Drain*%
%TO.N,/SW*%
X178405000Y-139930001D03*
%TO.P,Q1,6,Drain*%
X177135000Y-139930001D03*
%TO.P,Q1,7,Drain*%
X175865000Y-139930001D03*
D29*
%TO.P,Q1,8,Drain*%
X176495721Y-142064601D03*
D21*
X174595000Y-139930001D03*
%TD*%
D30*
%TO.P,J4,1,Pin_1*%
%TO.N,Net-(J4-Pin_1)*%
X156000000Y-154540000D03*
D31*
%TO.P,J4,2,Pin_2*%
%TO.N,GND*%
X156000000Y-152000000D03*
%TD*%
D17*
%TO.P,R16,1*%
%TO.N,Net-(Q3-Gate)*%
X184100000Y-145075000D03*
%TO.P,R16,2*%
%TO.N,/HO*%
X184100000Y-146725000D03*
%TD*%
D19*
%TO.P,C6,1*%
%TO.N,/COMP*%
X169600000Y-149000000D03*
%TO.P,C6,2*%
%TO.N,FB*%
X168050000Y-149000000D03*
%TD*%
D11*
%TO.P,C2,1*%
%TO.N,GND*%
X158600000Y-149150000D03*
%TO.P,C2,2*%
%TO.N,/VIN*%
X158600000Y-147250000D03*
%TD*%
D10*
%TO.P,R3,1*%
%TO.N,Net-(MOSFET1-G)*%
X160650000Y-155000000D03*
%TO.P,R3,2*%
%TO.N,Net-(J4-Pin_1)*%
X159000000Y-155000000D03*
%TD*%
D32*
%TO.P,C8,1*%
%TO.N,/VCC*%
X181250000Y-152050000D03*
%TO.P,C8,2*%
%TO.N,GND*%
X179350000Y-152050000D03*
%TD*%
D17*
%TO.P,R12,1*%
%TO.N,+36V*%
X189000000Y-144350000D03*
%TO.P,R12,2*%
%TO.N,FB*%
X189000000Y-146000000D03*
%TD*%
D25*
%TO.P,C12,1*%
%TO.N,+18V*%
X147000000Y-148632323D03*
D26*
%TO.P,C12,2*%
%TO.N,GND*%
X147000000Y-153632323D03*
%TD*%
D27*
%TO.P,Q2,1,Source*%
%TO.N,/SW*%
X183180001Y-133195000D03*
%TO.P,Q2,2,Source*%
X183180001Y-134465000D03*
%TO.P,Q2,3,Source*%
X183180001Y-135735000D03*
%TO.P,Q2,4,Gate*%
%TO.N,Net-(Q2-Gate)*%
X183180001Y-137005000D03*
%TO.P,Q2,5,Drain*%
%TO.N,+36V*%
X188819999Y-137005000D03*
%TO.P,Q2,6,Drain*%
X188819999Y-135735000D03*
%TO.P,Q2,7,Drain*%
X188819999Y-134465000D03*
D28*
%TO.P,Q2,8,Drain*%
X186685399Y-135095721D03*
D27*
X188819999Y-133195000D03*
%TD*%
D33*
%TO.P,D1,1,K*%
%TO.N,/BST*%
X181250000Y-145400000D03*
%TO.P,D1,2,A*%
%TO.N,/VCC*%
X181250000Y-149400000D03*
%TD*%
D34*
%TO.P,C17,1*%
%TO.N,+18V*%
X152050000Y-146000000D03*
%TO.P,C17,2*%
%TO.N,GND*%
X153950000Y-146000000D03*
%TD*%
D11*
%TO.P,C11,1*%
%TO.N,+36V*%
X193500000Y-132450000D03*
%TO.P,C11,2*%
%TO.N,GND*%
X193500000Y-130550000D03*
%TD*%
D17*
%TO.P,R1,1*%
%TO.N,+18V*%
X157200000Y-143975000D03*
%TO.P,R1,2*%
%TO.N,/UVLO*%
X157200000Y-145625000D03*
%TD*%
D11*
%TO.P,C7,1*%
%TO.N,Net-(C7-Pad1)*%
X173000000Y-150750000D03*
%TO.P,C7,2*%
%TO.N,FB*%
X173000000Y-148850000D03*
%TD*%
D35*
%TO.P,MOSFET1,1,G*%
%TO.N,Net-(MOSFET1-G)*%
X161047500Y-153000000D03*
%TO.P,MOSFET1,2,S*%
%TO.N,GND*%
X162952500Y-153000000D03*
%TO.P,MOSFET1,3,D*%
%TO.N,/SS*%
X162000000Y-150917200D03*
%TD*%
D36*
%TO.P,J1,1,Pin_1*%
%TO.N,GND*%
X146232500Y-137500000D03*
D13*
%TO.P,J1,2,Pin_2*%
%TO.N,+18V*%
X146232500Y-142500000D03*
%TD*%
D37*
%TO.P,L1,1,1*%
%TO.N,/CSN*%
X163184999Y-135161301D03*
%TO.P,L1,2,2*%
%TO.N,/SW*%
X173614998Y-135161301D03*
D38*
%TO.P,L1,3*%
%TO.N,N/C*%
X168400000Y-113086300D03*
%TD*%
D11*
%TO.P,C20,1*%
%TO.N,+36V*%
X201500000Y-132400000D03*
%TO.P,C20,2*%
%TO.N,GND*%
X201500000Y-130500000D03*
%TD*%
D39*
%TO.N,GND*%
X200000000Y-127000000D03*
X152500000Y-120000000D03*
X187500000Y-154500000D03*
X183000000Y-130000000D03*
X180500000Y-130700000D03*
X183000000Y-114000000D03*
X183000000Y-117000000D03*
X195500000Y-128000000D03*
X167500000Y-152500000D03*
D40*
X175000000Y-145000000D03*
D39*
X192500000Y-125000000D03*
X200000000Y-154500000D03*
X149000000Y-154500000D03*
X180500000Y-129800000D03*
X183000000Y-116000000D03*
X145000000Y-122500000D03*
X155500000Y-149000000D03*
X210000000Y-122500000D03*
X198400000Y-149500000D03*
X144500000Y-135000000D03*
X164500000Y-139000000D03*
X177500000Y-154500000D03*
X211000000Y-129500000D03*
X145000000Y-130000000D03*
X145000000Y-125000000D03*
X182500000Y-154500000D03*
X194400000Y-146700000D03*
D40*
X175100000Y-145700000D03*
D39*
X211000000Y-127500000D03*
X175000000Y-154500000D03*
X158500000Y-131500000D03*
X195000000Y-115000000D03*
X197500000Y-128000000D03*
X200500000Y-129000000D03*
X207500000Y-120000000D03*
X152500000Y-122500000D03*
X154500000Y-135500000D03*
X200000000Y-125000000D03*
X179500000Y-130700000D03*
X201500000Y-128000000D03*
X195500000Y-129000000D03*
X146500000Y-134000000D03*
X159500000Y-134500000D03*
X192500000Y-120000000D03*
X165000000Y-154500000D03*
X195000000Y-117500000D03*
X171000000Y-139000000D03*
X185000000Y-115000000D03*
X153500000Y-131000000D03*
X200000000Y-152500000D03*
X154500000Y-149000000D03*
X199500000Y-129000000D03*
X200000000Y-115000000D03*
X187500000Y-125000000D03*
X168000000Y-131500000D03*
X148500000Y-138000000D03*
X185000000Y-127000000D03*
X187500000Y-120000000D03*
X174750000Y-151750000D03*
X166500000Y-131500000D03*
X147500000Y-132500000D03*
X152500000Y-148000000D03*
X198400000Y-148500000D03*
X183000000Y-127000000D03*
X159500000Y-137500000D03*
X202500000Y-128000000D03*
X193400000Y-147700000D03*
X143500000Y-138500000D03*
X153500000Y-117000000D03*
X199400000Y-148500000D03*
X185000000Y-154500000D03*
X145500000Y-134000000D03*
X190000000Y-120000000D03*
X205000000Y-131000000D03*
X192500000Y-128000000D03*
X152500000Y-117500000D03*
X152500000Y-125000000D03*
X142500000Y-132500000D03*
X205000000Y-152500000D03*
X170000000Y-154500000D03*
X205000000Y-154500000D03*
X152500000Y-149000000D03*
X190000000Y-152500000D03*
X181500000Y-130700000D03*
X153500000Y-116000000D03*
X149000000Y-152500000D03*
X147500000Y-130000000D03*
X147500000Y-125000000D03*
X193400000Y-146700000D03*
X183000000Y-123000000D03*
X166500000Y-132500000D03*
X154500000Y-136500000D03*
X205000000Y-120000000D03*
X183000000Y-124000000D03*
X152500000Y-112500000D03*
X144500000Y-153500000D03*
X210000000Y-120000000D03*
X147500000Y-122500000D03*
X202500000Y-125000000D03*
X179500000Y-129800000D03*
X202500000Y-117500000D03*
X197500000Y-122500000D03*
X153500000Y-113000000D03*
X197500000Y-152500000D03*
X195000000Y-127000000D03*
X153500000Y-119000000D03*
X183000000Y-129000000D03*
X170000000Y-139000000D03*
X194400000Y-148700000D03*
X145500000Y-135000000D03*
X192500000Y-154500000D03*
X183000000Y-119000000D03*
X153500000Y-122000000D03*
X152500000Y-135500000D03*
X148500000Y-137000000D03*
X167800000Y-144200000D03*
X153500000Y-118000000D03*
X187500000Y-152500000D03*
X149000000Y-155500000D03*
X166500000Y-133500000D03*
X197500000Y-154500000D03*
X149500000Y-138000000D03*
X185000000Y-117500000D03*
X197500000Y-129000000D03*
X160000000Y-150500000D03*
X190000000Y-127000000D03*
X195000000Y-125000000D03*
X153500000Y-149000000D03*
X145000000Y-120000000D03*
X152500000Y-136500000D03*
X152500000Y-130000000D03*
X143500000Y-137500000D03*
X159500000Y-131500000D03*
X145000000Y-132500000D03*
X153500000Y-130000000D03*
X202500000Y-120000000D03*
X205000000Y-122500000D03*
X197500000Y-115000000D03*
X150000000Y-112500000D03*
X143500000Y-152500000D03*
X198500000Y-128000000D03*
X153500000Y-135500000D03*
X202500000Y-154500000D03*
X170000000Y-132500000D03*
X195000000Y-122500000D03*
X183000000Y-118000000D03*
X194400000Y-147700000D03*
X142500000Y-125000000D03*
D40*
X177135000Y-145569999D03*
D39*
X181500000Y-131500000D03*
X197500000Y-127000000D03*
X149500000Y-136000000D03*
X180500000Y-131500000D03*
X187500000Y-117500000D03*
X153500000Y-111000000D03*
X170000000Y-135500000D03*
X200000000Y-112500000D03*
X204000000Y-129000000D03*
X183000000Y-121000000D03*
X183000000Y-120000000D03*
X198500000Y-129000000D03*
X202500000Y-115000000D03*
X195000000Y-154500000D03*
X183000000Y-113000000D03*
X153500000Y-136500000D03*
X166500000Y-137500000D03*
X163500000Y-139000000D03*
X190000000Y-115000000D03*
X155500000Y-131500000D03*
D40*
X172600000Y-146000000D03*
D39*
X165800000Y-144200000D03*
X152500000Y-115000000D03*
X150000000Y-120000000D03*
X150000000Y-154500000D03*
X195000000Y-120000000D03*
X201500000Y-129000000D03*
X185000000Y-120000000D03*
X193500000Y-128000000D03*
X150000000Y-152500000D03*
X205000000Y-129000000D03*
X142500000Y-138500000D03*
X165000000Y-152500000D03*
X153500000Y-126000000D03*
X202500000Y-122500000D03*
X183000000Y-112000000D03*
D40*
X179350000Y-152050000D03*
D39*
X197500000Y-125000000D03*
X143500000Y-136500000D03*
X150000000Y-117500000D03*
X144500000Y-152500000D03*
X181500000Y-129800000D03*
X202500000Y-112500000D03*
X150000000Y-153500000D03*
X144500000Y-154500000D03*
X195000000Y-112500000D03*
X145000000Y-127500000D03*
X190000000Y-154500000D03*
X151500000Y-136500000D03*
X157500000Y-131500000D03*
X170000000Y-131500000D03*
X159500000Y-132500000D03*
X169000000Y-131500000D03*
X200500000Y-128000000D03*
X153500000Y-114000000D03*
X167800000Y-145200000D03*
X147500000Y-127500000D03*
X153500000Y-112000000D03*
X195000000Y-152500000D03*
X170000000Y-136500000D03*
X197500000Y-120000000D03*
X153500000Y-124000000D03*
X192500000Y-127000000D03*
X202500000Y-129000000D03*
X183000000Y-115000000D03*
X205000000Y-128000000D03*
X159500000Y-135500000D03*
X150000000Y-115000000D03*
X191500000Y-129000000D03*
X166800000Y-146200000D03*
X154500000Y-148000000D03*
X200000000Y-120000000D03*
X172500000Y-154500000D03*
X166800000Y-144700000D03*
X143500000Y-155500000D03*
X192500000Y-152500000D03*
X156500000Y-131500000D03*
X170000000Y-137500000D03*
X185000000Y-122500000D03*
X155500000Y-148000000D03*
X166500000Y-139000000D03*
X199500000Y-128000000D03*
X150000000Y-132500000D03*
X159500000Y-133500000D03*
X199400000Y-147500000D03*
X192500000Y-122500000D03*
X187500000Y-122500000D03*
X192500000Y-129000000D03*
X196500000Y-128000000D03*
X193400000Y-148700000D03*
X152500000Y-154500000D03*
X190000000Y-122500000D03*
X191500000Y-128000000D03*
X144500000Y-155500000D03*
X207500000Y-122500000D03*
X144500000Y-134000000D03*
X167500000Y-154500000D03*
X192500000Y-115000000D03*
X165500000Y-139000000D03*
X153500000Y-123000000D03*
X142500000Y-137500000D03*
X187500000Y-127000000D03*
X153500000Y-128000000D03*
X151500000Y-135500000D03*
X211000000Y-128500000D03*
X142500000Y-136500000D03*
X183000000Y-122000000D03*
X211000000Y-130500000D03*
X166500000Y-134500000D03*
X187500000Y-115000000D03*
X192500000Y-112500000D03*
X147500000Y-135000000D03*
X153500000Y-148000000D03*
X153500000Y-115000000D03*
X194500000Y-128000000D03*
X172000000Y-139000000D03*
X150000000Y-130000000D03*
X149000000Y-153500000D03*
X183000000Y-111000000D03*
X183000000Y-128000000D03*
X142500000Y-130000000D03*
X146500000Y-135000000D03*
X150000000Y-127500000D03*
X152500000Y-150500000D03*
X199400000Y-146500000D03*
D40*
X177750000Y-144750000D03*
D39*
X154100000Y-144075000D03*
X192500000Y-117500000D03*
X204000000Y-130000000D03*
X173000000Y-139000000D03*
X200000000Y-117500000D03*
X204000000Y-131000000D03*
X190000000Y-112500000D03*
X143500000Y-153500000D03*
X210000000Y-128500000D03*
X205000000Y-130000000D03*
X170000000Y-134500000D03*
X150000000Y-122500000D03*
X142500000Y-122500000D03*
X150000000Y-125000000D03*
X142500000Y-127500000D03*
X153500000Y-121000000D03*
X152500000Y-127500000D03*
D40*
X176400000Y-147500000D03*
D39*
X180000000Y-154500000D03*
X190000000Y-125000000D03*
X153500000Y-127000000D03*
X185000000Y-152500000D03*
X185000000Y-125000000D03*
X210000000Y-127500000D03*
X204000000Y-128000000D03*
X165800000Y-145200000D03*
X166500000Y-136500000D03*
X143500000Y-139500000D03*
X166800000Y-143200000D03*
X147500000Y-120000000D03*
X153500000Y-120000000D03*
X202500000Y-152500000D03*
X196500000Y-129000000D03*
D40*
X175865000Y-145569999D03*
D39*
X153500000Y-125000000D03*
X148500000Y-136000000D03*
X154500000Y-131500000D03*
X153500000Y-129000000D03*
X193500000Y-129000000D03*
X152500000Y-132500000D03*
X149500000Y-137000000D03*
X142500000Y-139500000D03*
X190000000Y-117500000D03*
X194500000Y-129000000D03*
X187500000Y-112500000D03*
X150000000Y-155500000D03*
X166500000Y-135500000D03*
X185000000Y-112500000D03*
X142500000Y-120000000D03*
X210000000Y-130500000D03*
X152500000Y-152500000D03*
X183000000Y-126000000D03*
X159500000Y-136500000D03*
X143500000Y-154500000D03*
X207500000Y-125000000D03*
X170000000Y-133500000D03*
X147500000Y-134000000D03*
X197500000Y-112500000D03*
X198400000Y-146500000D03*
X200000000Y-122500000D03*
X197500000Y-117500000D03*
X205000000Y-125000000D03*
X179500000Y-131500000D03*
X183000000Y-125000000D03*
X198400000Y-147500000D03*
X210000000Y-129500000D03*
D41*
%TO.N,/HO*%
X170700000Y-142400002D03*
D40*
X184100000Y-146725000D03*
D39*
%TO.N,/VIN*%
X158515431Y-146325000D03*
X158600000Y-144800000D03*
D40*
%TO.N,/BST*%
X181250000Y-145400000D03*
D41*
X173400000Y-140900000D03*
D40*
%TO.N,FB*%
X187400000Y-147100000D03*
D41*
X168800000Y-149800000D03*
X175300000Y-148500000D03*
X172000000Y-149100000D03*
D40*
%TO.N,Net-(Q4-Gate)*%
X177695000Y-131780001D03*
X183200000Y-145600000D03*
%TD*%
D42*
%TO.N,/SW*%
X172199998Y-143050002D02*
X172400000Y-142850000D01*
X172099998Y-143050002D02*
X172400000Y-142750000D01*
X169689600Y-143050002D02*
X172099998Y-143050002D01*
D43*
X173125000Y-142750000D02*
X174730000Y-141145000D01*
X172400000Y-142750000D02*
X173125000Y-142750000D01*
X174730000Y-141145000D02*
X174730000Y-140110002D01*
%TO.N,GND*%
X174575000Y-150600000D02*
X174575000Y-151575000D01*
D42*
X167169801Y-145000001D02*
X166844800Y-144675000D01*
X160475000Y-150025000D02*
X160000000Y-150500000D01*
X160525000Y-148050000D02*
X160475000Y-148100000D01*
X169689600Y-145000001D02*
X167169801Y-145000001D01*
X160525000Y-146500000D02*
X160525000Y-148050000D01*
X169689600Y-146300001D02*
X168469801Y-146300001D01*
X166844800Y-144133601D02*
X165111200Y-142400001D01*
X160475000Y-148100000D02*
X160475000Y-150025000D01*
D43*
X174575000Y-151575000D02*
X174750000Y-151750000D01*
D42*
X165111200Y-142400001D02*
X164000000Y-142400001D01*
X166844800Y-144675000D02*
X166844800Y-144133601D01*
X164000000Y-141750000D02*
X164533400Y-141750000D01*
X164000000Y-146949999D02*
X165111200Y-146949999D01*
X164533400Y-141750000D02*
X166844800Y-144061400D01*
X165111200Y-146949999D02*
X166800000Y-145261199D01*
X166844800Y-144061400D02*
X166844800Y-144675000D01*
X168469801Y-146300001D02*
X166844800Y-144675000D01*
X155800000Y-144075000D02*
X154100000Y-144075000D01*
X166800000Y-145261199D02*
X166800000Y-144700000D01*
D44*
%TO.N,/LO*%
X180764840Y-153076000D02*
X181735160Y-153076000D01*
X169689600Y-144350002D02*
X175932002Y-144350002D01*
X180350000Y-151538840D02*
X180350000Y-152661160D01*
X176500000Y-146076000D02*
X177624000Y-147200000D01*
X177624000Y-148449000D02*
X178400000Y-149225000D01*
X183975000Y-150836160D02*
X183975000Y-148200000D01*
X177624000Y-147200000D02*
X177624000Y-148449000D01*
X178400000Y-149225000D02*
X178875000Y-149225000D01*
X178875000Y-150063840D02*
X180350000Y-151538840D01*
X175932002Y-144350002D02*
X176500000Y-144918000D01*
X178875000Y-149225000D02*
X178875000Y-150063840D01*
X180350000Y-152661160D02*
X180764840Y-153076000D01*
X176500000Y-144918000D02*
X176500000Y-146076000D01*
X181735160Y-153076000D02*
X183975000Y-150836160D01*
D42*
%TO.N,/HO*%
X170699999Y-142400001D02*
X170700000Y-142400002D01*
X169689600Y-142400001D02*
X170699999Y-142400001D01*
D44*
X185900000Y-146725000D02*
X184100000Y-146725000D01*
%TO.N,+18V*%
X157975000Y-143975000D02*
X158975000Y-142975000D01*
X156037500Y-140250000D02*
X154100000Y-140250000D01*
X154100000Y-140250000D02*
X153800000Y-139950000D01*
D45*
X152050000Y-146000000D02*
X148500000Y-146000000D01*
D44*
X158975000Y-142975000D02*
X162000000Y-142975000D01*
X156037500Y-140250000D02*
X156037500Y-142812500D01*
X157200000Y-143975000D02*
X157975000Y-143975000D01*
X156037500Y-142812500D02*
X157200000Y-143975000D01*
D42*
X164000000Y-143700001D02*
X162725001Y-143700001D01*
X162725001Y-143700001D02*
X162000000Y-142975000D01*
%TO.N,/VIN*%
X158515431Y-147165431D02*
X158600000Y-147250000D01*
X158775000Y-144625000D02*
X158600000Y-144800000D01*
X162275001Y-144349999D02*
X162000000Y-144625000D01*
X164000000Y-144349999D02*
X162275001Y-144349999D01*
X158515431Y-146325000D02*
X158515431Y-147165431D01*
D43*
X161975000Y-144600000D02*
X162000000Y-144625000D01*
D42*
X162000000Y-144625000D02*
X158775000Y-144625000D01*
D44*
%TO.N,/SS*%
X161250000Y-150167200D02*
X162000000Y-150917200D01*
X162075000Y-146500000D02*
X161250000Y-147325000D01*
X162075000Y-146500000D02*
X162308998Y-146500000D01*
X162308998Y-146500000D02*
X163158999Y-145649999D01*
X161250000Y-147325000D02*
X161250000Y-150167200D01*
X163158999Y-145649999D02*
X164000000Y-145649999D01*
D42*
%TO.N,/BST*%
X171499998Y-141750002D02*
X172400000Y-140850000D01*
X172400000Y-140850000D02*
X173350000Y-140850000D01*
X173350000Y-140850000D02*
X173400000Y-140900000D01*
X181150000Y-145600000D02*
X181250000Y-145500000D01*
X169689600Y-141750002D02*
X171499998Y-141750002D01*
%TO.N,/RES*%
X171475000Y-145500000D02*
X171324998Y-145650002D01*
X171324998Y-145650002D02*
X169689600Y-145650002D01*
%TO.N,/COMP*%
X169689600Y-148910400D02*
X169600000Y-149000000D01*
X169600000Y-149920654D02*
X169600000Y-149000000D01*
X165500000Y-150000000D02*
X165951000Y-150451000D01*
X169600000Y-152225000D02*
X169625000Y-152200000D01*
X169689600Y-147600000D02*
X169689600Y-148910400D01*
X169600000Y-149000000D02*
X169600000Y-152225000D01*
X165951000Y-150451000D02*
X169069654Y-150451000D01*
X171075000Y-152200000D02*
X171375000Y-152500000D01*
X169069654Y-150451000D02*
X169600000Y-149920654D01*
X169625000Y-152200000D02*
X171075000Y-152200000D01*
%TO.N,FB*%
X172000000Y-149100000D02*
X172925000Y-149100000D01*
X164000000Y-147599998D02*
X164000000Y-149950000D01*
X187400000Y-147100000D02*
X187400000Y-146070000D01*
X174575000Y-149000000D02*
X174800000Y-149000000D01*
X187400000Y-146070000D02*
X187470000Y-146000000D01*
X173000000Y-149025000D02*
X174550000Y-149025000D01*
X174800000Y-149000000D02*
X175300000Y-148500000D01*
X187470000Y-146000000D02*
X189000000Y-146000000D01*
X172925000Y-149100000D02*
X173000000Y-149025000D01*
X174575000Y-149000000D02*
X174700000Y-149000000D01*
X168050000Y-149050000D02*
X168800000Y-149800000D01*
X168050000Y-149000000D02*
X168050000Y-149050000D01*
X164000000Y-149950000D02*
X163950000Y-150000000D01*
X174550000Y-149025000D02*
X174575000Y-149000000D01*
X166649998Y-147599998D02*
X168050000Y-149000000D01*
X164000000Y-147599998D02*
X166649998Y-147599998D01*
%TO.N,Net-(C7-Pad1)*%
X173000000Y-150575000D02*
X173000000Y-152175000D01*
X173000000Y-152175000D02*
X173025000Y-152200000D01*
D44*
%TO.N,/VCC*%
X174315875Y-143700001D02*
X174564876Y-143949002D01*
D42*
X181250000Y-148900000D02*
X181250000Y-151600000D01*
D44*
X169689600Y-143700001D02*
X174315875Y-143700001D01*
X174564876Y-143949002D02*
X177949002Y-143949002D01*
X177949002Y-143949002D02*
X180049000Y-146049000D01*
X180049000Y-146049000D02*
X180049000Y-148199000D01*
X180049000Y-148199000D02*
X181250000Y-149400000D01*
%TO.N,/UVLO*%
X157500000Y-145625000D02*
X155900000Y-145625000D01*
X157500000Y-145625000D02*
X162533999Y-145625000D01*
X163159001Y-144999998D02*
X164000000Y-144999998D01*
X162533999Y-145625000D02*
X163159001Y-144999998D01*
X155900000Y-145625000D02*
X155800000Y-145725000D01*
%TO.N,/SYNCIN*%
X162125000Y-148100000D02*
X162826000Y-147399000D01*
X163088800Y-146299998D02*
X164000000Y-146299998D01*
X162826000Y-147399000D02*
X162826000Y-146562798D01*
X162826000Y-146562798D02*
X163088800Y-146299998D01*
D42*
%TO.N,Net-(R10-Pad1)*%
X174575000Y-147000000D02*
X173200000Y-147000000D01*
%TO.N,/SLOPE*%
X171550000Y-147000000D02*
X169739598Y-147000000D01*
X169739598Y-147000000D02*
X169689600Y-146950002D01*
%TO.N,Net-(R13-Pad2)*%
X176325000Y-149100000D02*
X176325000Y-150500000D01*
X176225000Y-149000000D02*
X176325000Y-149100000D01*
X176325000Y-150500000D02*
X176225000Y-150600000D01*
D44*
%TO.N,/CSN*%
X163184999Y-135161301D02*
X161962500Y-136383800D01*
X161962500Y-140250000D02*
X162987800Y-141275300D01*
X163088800Y-143049999D02*
X164000000Y-143049999D01*
X162987800Y-142948999D02*
X163088800Y-143049999D01*
X162987800Y-141275300D02*
X162987800Y-142948999D01*
D45*
X161962500Y-136383800D02*
X161962500Y-140250000D01*
D44*
%TO.N,Net-(J4-Pin_1)*%
X158540000Y-154540000D02*
X159000000Y-155000000D01*
X156000000Y-154540000D02*
X158540000Y-154540000D01*
%TO.N,Net-(MOSFET1-G)*%
X161047500Y-154602500D02*
X160650000Y-155000000D01*
X161047500Y-153000000D02*
X161047500Y-154602500D01*
X160650000Y-155000000D02*
X162175000Y-155000000D01*
%TO.N,Net-(Q1-Gate)*%
X178400000Y-147575000D02*
X178400000Y-145574999D01*
X178400000Y-145574999D02*
X178405000Y-145569999D01*
%TO.N,Net-(Q2-Gate)*%
X183589718Y-143297437D02*
X182971869Y-143297437D01*
X182529799Y-142855367D02*
X182529799Y-137655202D01*
X185367281Y-145075000D02*
X183589718Y-143297437D01*
X185900000Y-145075000D02*
X185367281Y-145075000D01*
X182971869Y-143297437D02*
X182529799Y-142855367D01*
X182529799Y-137655202D02*
X183180001Y-137005000D01*
%TO.N,Net-(Q3-Gate)*%
X182135160Y-143849000D02*
X182700000Y-144413840D01*
X184024000Y-144999000D02*
X184100000Y-145075000D01*
X181924001Y-143849000D02*
X182135160Y-143849000D01*
X182801000Y-144999000D02*
X184024000Y-144999000D01*
X180880001Y-142805000D02*
X181924001Y-143849000D01*
X182700000Y-145100000D02*
X182801000Y-144999000D01*
X182700000Y-144413840D02*
X182700000Y-145100000D01*
%TO.N,Net-(Q4-Gate)*%
X186676000Y-146311936D02*
X186676000Y-147149000D01*
X183200000Y-145600000D02*
X183435936Y-145600000D01*
X186388064Y-146024000D02*
X186676000Y-146311936D01*
X186676000Y-147149000D02*
X185625000Y-148200000D01*
X183859936Y-146024000D02*
X186388064Y-146024000D01*
X183435936Y-145600000D02*
X183859936Y-146024000D01*
%TD*%
%TA.AperFunction,Conductor*%
%TO.N,GND*%
G36*
X175698944Y-144970187D02*
G01*
X175719586Y-144986821D01*
X175863181Y-145130416D01*
X175896666Y-145191739D01*
X175899500Y-145218097D01*
X175899500Y-145989330D01*
X175899499Y-145989348D01*
X175899499Y-146155054D01*
X175899498Y-146155054D01*
X175903377Y-146169530D01*
X175940423Y-146307785D01*
X175949189Y-146322968D01*
X176019477Y-146444712D01*
X176019481Y-146444717D01*
X176138349Y-146563585D01*
X176138355Y-146563590D01*
X176987181Y-147412416D01*
X177020666Y-147473739D01*
X177023500Y-147500097D01*
X177023500Y-147750000D01*
X175500000Y-147750000D01*
X175500000Y-146250000D01*
X175290658Y-146250000D01*
X175210188Y-146169530D01*
X175141585Y-146128058D01*
X175064606Y-146081522D01*
X174902196Y-146030914D01*
X174902194Y-146030913D01*
X174902192Y-146030913D01*
X174852778Y-146026423D01*
X174831616Y-146024500D01*
X174318384Y-146024500D01*
X174299145Y-146026248D01*
X174247807Y-146030913D01*
X174085393Y-146081522D01*
X174042449Y-146107483D01*
X173951648Y-146162374D01*
X173884096Y-146180210D01*
X173823351Y-146162374D01*
X173689606Y-146081522D01*
X173527196Y-146030914D01*
X173527194Y-146030913D01*
X173527192Y-146030913D01*
X173477778Y-146026423D01*
X173456616Y-146024500D01*
X172943384Y-146024500D01*
X172924145Y-146026248D01*
X172872807Y-146030913D01*
X172710393Y-146081522D01*
X172564806Y-146169533D01*
X172564681Y-146169632D01*
X172564572Y-146169675D01*
X172558396Y-146173409D01*
X172557774Y-146172381D01*
X172499766Y-146195472D01*
X172431185Y-146182115D01*
X172380712Y-146133800D01*
X172364373Y-146065868D01*
X172370514Y-146033012D01*
X172415349Y-145897708D01*
X172425500Y-145798345D01*
X172425499Y-145201656D01*
X172415349Y-145102292D01*
X172415348Y-145102290D01*
X172415348Y-145102286D01*
X172414955Y-145100448D01*
X172415042Y-145099286D01*
X172414661Y-145095557D01*
X172415326Y-145095489D01*
X172420176Y-145030774D01*
X172462237Y-144974983D01*
X172527784Y-144950789D01*
X172536210Y-144950502D01*
X175631905Y-144950502D01*
X175698944Y-144970187D01*
G37*
%TD.AperFunction*%
%TA.AperFunction,Conductor*%
G36*
X177750000Y-144839161D02*
G01*
X177706206Y-144897662D01*
X177706202Y-144897669D01*
X177655908Y-145032515D01*
X177649501Y-145092114D01*
X177649500Y-145092133D01*
X177649500Y-146047870D01*
X177649501Y-146047886D01*
X177651486Y-146066350D01*
X177639077Y-146135109D01*
X177591464Y-146186244D01*
X177523764Y-146203520D01*
X177457471Y-146181452D01*
X177440515Y-146167280D01*
X177136819Y-145863584D01*
X177103334Y-145802261D01*
X177100500Y-145775903D01*
X177100500Y-144838945D01*
X177100500Y-144838943D01*
X177076668Y-144750000D01*
X177750000Y-144750000D01*
X177750000Y-144839161D01*
G37*
%TD.AperFunction*%
%TD*%
%TA.AperFunction,Conductor*%
%TO.N,/SW*%
G36*
X176882540Y-132119685D02*
G01*
X176928295Y-132172489D01*
X176939501Y-132224000D01*
X176939501Y-132257878D01*
X176945908Y-132317485D01*
X176996202Y-132452330D01*
X176996206Y-132452337D01*
X177082452Y-132567546D01*
X177082455Y-132567549D01*
X177197664Y-132653795D01*
X177197671Y-132653799D01*
X177242618Y-132670563D01*
X177332517Y-132704093D01*
X177392127Y-132710502D01*
X177997872Y-132710501D01*
X178057483Y-132704093D01*
X178192331Y-132653798D01*
X178255689Y-132606367D01*
X178321153Y-132581951D01*
X178389426Y-132596802D01*
X178404311Y-132606368D01*
X178467669Y-132653798D01*
X178467671Y-132653799D01*
X178512618Y-132670563D01*
X178602517Y-132704093D01*
X178662127Y-132710502D01*
X179267872Y-132710501D01*
X179327483Y-132704093D01*
X179462331Y-132653798D01*
X179525689Y-132606367D01*
X179591153Y-132581951D01*
X179659426Y-132596802D01*
X179674311Y-132606368D01*
X179737669Y-132653798D01*
X179737671Y-132653799D01*
X179782618Y-132670563D01*
X179872517Y-132704093D01*
X179932127Y-132710502D01*
X180537872Y-132710501D01*
X180597483Y-132704093D01*
X180732331Y-132653798D01*
X180795689Y-132606367D01*
X180861153Y-132581951D01*
X180929426Y-132596802D01*
X180944311Y-132606368D01*
X181007669Y-132653798D01*
X181007671Y-132653799D01*
X181052618Y-132670563D01*
X181142517Y-132704093D01*
X181202127Y-132710502D01*
X181807872Y-132710501D01*
X181867483Y-132704093D01*
X182002331Y-132653798D01*
X182117546Y-132567548D01*
X182203796Y-132452333D01*
X182254091Y-132317485D01*
X182260500Y-132257875D01*
X182260500Y-132224000D01*
X182280185Y-132156961D01*
X182332989Y-132111206D01*
X182384500Y-132100000D01*
X184062005Y-132100000D01*
X184129044Y-132119685D01*
X184174799Y-132172489D01*
X184185298Y-132237209D01*
X184176698Y-132317485D01*
X184063620Y-133372873D01*
X184059957Y-133392289D01*
X183592112Y-135107723D01*
X183588792Y-135120555D01*
X183587263Y-135126802D01*
X183584329Y-135139501D01*
X183584328Y-135139507D01*
X183574061Y-135283018D01*
X183574061Y-135283019D01*
X183578454Y-135344467D01*
X183578455Y-135344473D01*
X183579044Y-135352707D01*
X183579045Y-135352721D01*
X183602307Y-135459654D01*
X183602425Y-135460220D01*
X183602370Y-135460894D01*
X183605001Y-135485365D01*
X183605001Y-135949164D01*
X183585316Y-136016203D01*
X183582857Y-136019884D01*
X183581117Y-136022389D01*
X183571548Y-136037279D01*
X183553134Y-136068314D01*
X183553131Y-136068321D01*
X183515643Y-136168833D01*
X183473772Y-136224767D01*
X183408308Y-136249184D01*
X183399461Y-136249500D01*
X182702129Y-136249500D01*
X182702123Y-136249501D01*
X182642516Y-136255908D01*
X182507671Y-136306202D01*
X182507664Y-136306206D01*
X182392455Y-136392452D01*
X182392452Y-136392455D01*
X182306206Y-136507664D01*
X182306202Y-136507671D01*
X182255908Y-136642517D01*
X182249501Y-136702116D01*
X182249500Y-136702135D01*
X182249500Y-137034903D01*
X182229815Y-137101942D01*
X182213181Y-137122584D01*
X182049280Y-137286484D01*
X182049278Y-137286486D01*
X182028899Y-137321784D01*
X182020286Y-137336704D01*
X181970222Y-137423417D01*
X181929298Y-137576145D01*
X181929298Y-137576147D01*
X181929298Y-137744248D01*
X181929299Y-137744261D01*
X181929299Y-142169551D01*
X181909614Y-142236590D01*
X181856810Y-142282345D01*
X181787652Y-142292289D01*
X181724096Y-142263264D01*
X181706033Y-142243863D01*
X181695086Y-142229240D01*
X181667548Y-142192454D01*
X181667546Y-142192453D01*
X181667546Y-142192452D01*
X181552337Y-142106206D01*
X181552330Y-142106202D01*
X181417484Y-142055908D01*
X181417485Y-142055908D01*
X181357885Y-142049501D01*
X181357883Y-142049500D01*
X181357875Y-142049500D01*
X181357866Y-142049500D01*
X180402129Y-142049500D01*
X180402123Y-142049501D01*
X180342516Y-142055908D01*
X180207671Y-142106202D01*
X180207664Y-142106206D01*
X180092455Y-142192452D01*
X180092452Y-142192455D01*
X180006206Y-142307664D01*
X180006202Y-142307671D01*
X179962971Y-142423582D01*
X179955909Y-142442517D01*
X179949500Y-142502127D01*
X179949500Y-142502134D01*
X179949500Y-142502135D01*
X179949500Y-143107870D01*
X179949501Y-143107876D01*
X179955908Y-143167483D01*
X180006202Y-143302328D01*
X180006206Y-143302335D01*
X180092452Y-143417544D01*
X180092453Y-143417544D01*
X180092454Y-143417546D01*
X180110640Y-143431160D01*
X180152510Y-143487094D01*
X180157494Y-143556786D01*
X180124008Y-143618109D01*
X180062684Y-143651593D01*
X180045602Y-143654079D01*
X178667644Y-143757426D01*
X178667424Y-143757379D01*
X178667216Y-143757457D01*
X178633327Y-143750084D01*
X178599320Y-143742810D01*
X178599087Y-143742636D01*
X178598943Y-143742605D01*
X178570689Y-143721454D01*
X178436592Y-143587357D01*
X178436590Y-143587354D01*
X178317719Y-143468483D01*
X178317718Y-143468482D01*
X178224595Y-143414718D01*
X178224594Y-143414717D01*
X178180785Y-143389424D01*
X178124883Y-143374445D01*
X178028059Y-143348501D01*
X177869945Y-143348501D01*
X177862349Y-143348501D01*
X177862333Y-143348502D01*
X174864974Y-143348502D01*
X174797935Y-143328817D01*
X174777293Y-143312183D01*
X174684592Y-143219482D01*
X174684584Y-143219476D01*
X174589630Y-143164655D01*
X174589628Y-143164654D01*
X174547665Y-143140426D01*
X174547664Y-143140425D01*
X174535138Y-143137068D01*
X174394932Y-143099500D01*
X174236818Y-143099500D01*
X174229222Y-143099500D01*
X174229206Y-143099501D01*
X174192811Y-143099501D01*
X174125772Y-143079816D01*
X174080017Y-143027012D01*
X174068859Y-142978946D01*
X174023842Y-141358342D01*
X174041657Y-141290786D01*
X174044669Y-141286047D01*
X174065084Y-141255495D01*
X174121658Y-141118913D01*
X174150500Y-140973918D01*
X174150500Y-140826082D01*
X174150500Y-140826079D01*
X174121659Y-140681092D01*
X174121658Y-140681091D01*
X174121658Y-140681087D01*
X174121656Y-140681082D01*
X174065087Y-140544511D01*
X174065080Y-140544498D01*
X173982951Y-140421584D01*
X173982948Y-140421580D01*
X173973512Y-140412144D01*
X173946731Y-140372155D01*
X173671203Y-139710887D01*
X173663589Y-139641434D01*
X173694734Y-139578889D01*
X173697939Y-139575559D01*
X173699464Y-139574035D01*
X173798013Y-139426547D01*
X173865894Y-139262666D01*
X173900500Y-139088691D01*
X173900500Y-138911309D01*
X173900500Y-138911306D01*
X173900499Y-138911304D01*
X173865896Y-138737341D01*
X173865893Y-138737332D01*
X173798016Y-138573459D01*
X173798009Y-138573446D01*
X173699464Y-138425965D01*
X173699461Y-138425961D01*
X173574038Y-138300538D01*
X173574034Y-138300535D01*
X173426553Y-138201990D01*
X173426540Y-138201983D01*
X173262667Y-138134106D01*
X173262658Y-138134103D01*
X173088694Y-138099500D01*
X173088691Y-138099500D01*
X173082459Y-138099500D01*
X173015420Y-138079815D01*
X172969665Y-138027011D01*
X172967997Y-138023192D01*
X172103818Y-135949164D01*
X170840946Y-132918272D01*
X170833333Y-132848822D01*
X170840843Y-132823142D01*
X170865894Y-132762666D01*
X170900500Y-132588691D01*
X170900500Y-132411309D01*
X170900500Y-132411306D01*
X170868054Y-132248192D01*
X170874281Y-132178600D01*
X170917144Y-132123423D01*
X170983034Y-132100178D01*
X170989671Y-132100000D01*
X176815501Y-132100000D01*
X176882540Y-132119685D01*
G37*
%TD.AperFunction*%
%TD*%
%TA.AperFunction,Conductor*%
%TO.N,+36V*%
G36*
X192771899Y-131513131D02*
G01*
X192810101Y-131519420D01*
X192872203Y-131539999D01*
X192974991Y-131550500D01*
X194025008Y-131550499D01*
X194025016Y-131550498D01*
X194025019Y-131550498D01*
X194048896Y-131548058D01*
X194127797Y-131539999D01*
X194162537Y-131528487D01*
X194202312Y-131522197D01*
X194810896Y-131526054D01*
X194849101Y-131532343D01*
X194872203Y-131539999D01*
X194974991Y-131550500D01*
X196025008Y-131550499D01*
X196025016Y-131550498D01*
X196025019Y-131550498D01*
X196081302Y-131544748D01*
X196127797Y-131539999D01*
X196130250Y-131539185D01*
X196131966Y-131538618D01*
X196170972Y-131532323D01*
X203207656Y-131532323D01*
X203274695Y-131552008D01*
X203295460Y-131570495D01*
X203296228Y-131569728D01*
X203425961Y-131699461D01*
X203425965Y-131699464D01*
X203573446Y-131798009D01*
X203573459Y-131798016D01*
X203696363Y-131848923D01*
X203737334Y-131865894D01*
X203737336Y-131865894D01*
X203737341Y-131865896D01*
X203911304Y-131900499D01*
X203911307Y-131900500D01*
X203911309Y-131900500D01*
X204088693Y-131900500D01*
X204088694Y-131900499D01*
X204146682Y-131888964D01*
X204262658Y-131865896D01*
X204262661Y-131865894D01*
X204262666Y-131865894D01*
X204426547Y-131798013D01*
X204431107Y-131794965D01*
X204497783Y-131774086D01*
X204565163Y-131792569D01*
X204568867Y-131794948D01*
X204573453Y-131798013D01*
X204573455Y-131798014D01*
X204573457Y-131798015D01*
X204682707Y-131843267D01*
X204737334Y-131865894D01*
X204737336Y-131865894D01*
X204737341Y-131865896D01*
X204911304Y-131900499D01*
X204911307Y-131900500D01*
X204911309Y-131900500D01*
X205088693Y-131900500D01*
X205088694Y-131900499D01*
X205146682Y-131888964D01*
X205262658Y-131865896D01*
X205262661Y-131865894D01*
X205262666Y-131865894D01*
X205426547Y-131798013D01*
X205574035Y-131699464D01*
X205617176Y-131656323D01*
X205703772Y-131569728D01*
X205705541Y-131571497D01*
X205754220Y-131538329D01*
X205792344Y-131532323D01*
X209376000Y-131532323D01*
X209443039Y-131552008D01*
X209488794Y-131604812D01*
X209500000Y-131656323D01*
X209500000Y-141901246D01*
X209480315Y-141968285D01*
X209427511Y-142014040D01*
X209403752Y-142022101D01*
X196014637Y-145096638D01*
X195984978Y-145099768D01*
X186997593Y-144961501D01*
X186930864Y-144940788D01*
X186885927Y-144887286D01*
X186875500Y-144837516D01*
X186875500Y-144818386D01*
X186869086Y-144747807D01*
X186869086Y-144747804D01*
X186818478Y-144585394D01*
X186730472Y-144439815D01*
X186730470Y-144439813D01*
X186730469Y-144439811D01*
X186610188Y-144319530D01*
X186464606Y-144231522D01*
X186420300Y-144217716D01*
X186302196Y-144180914D01*
X186302194Y-144180913D01*
X186302192Y-144180913D01*
X186252778Y-144176423D01*
X186231616Y-144174500D01*
X185568384Y-144174500D01*
X185541916Y-144176905D01*
X185497799Y-144180914D01*
X185435658Y-144200277D01*
X185365797Y-144201427D01*
X185311089Y-144169572D01*
X184077308Y-142935792D01*
X184077306Y-142935789D01*
X183958435Y-142816918D01*
X183958434Y-142816917D01*
X183871622Y-142766797D01*
X183871622Y-142766796D01*
X183871618Y-142766795D01*
X183821503Y-142737860D01*
X183668775Y-142696936D01*
X183510661Y-142696936D01*
X183503065Y-142696936D01*
X183503049Y-142696937D01*
X183271966Y-142696937D01*
X183204927Y-142677252D01*
X183184285Y-142660618D01*
X183166618Y-142642951D01*
X183133133Y-142581628D01*
X183130299Y-142555270D01*
X183130299Y-138738844D01*
X183134668Y-138706217D01*
X183367671Y-137851872D01*
X183404301Y-137792375D01*
X183467284Y-137762126D01*
X183487302Y-137760499D01*
X183657873Y-137760499D01*
X183657874Y-137760499D01*
X183717485Y-137754091D01*
X183852333Y-137703796D01*
X183967548Y-137617546D01*
X184053798Y-137502331D01*
X184104093Y-137367483D01*
X184110502Y-137307873D01*
X184110501Y-136702128D01*
X184104093Y-136642517D01*
X184053798Y-136507669D01*
X184006367Y-136444310D01*
X183981951Y-136378847D01*
X183996802Y-136310574D01*
X184006368Y-136295689D01*
X184053798Y-136232331D01*
X184104093Y-136097483D01*
X184110502Y-136037873D01*
X184110501Y-135432128D01*
X184104093Y-135372517D01*
X184083257Y-135316655D01*
X184078274Y-135246965D01*
X184079798Y-135240738D01*
X184779540Y-132675018D01*
X184816171Y-132615522D01*
X184876441Y-132585748D01*
X190688340Y-131502173D01*
X190711849Y-131500075D01*
X192771899Y-131513131D01*
G37*
%TD.AperFunction*%
%TD*%
%TA.AperFunction,Conductor*%
%TO.N,+18V*%
G36*
X151070488Y-139006294D02*
G01*
X151172203Y-139039999D01*
X151274991Y-139050500D01*
X152325008Y-139050499D01*
X152325016Y-139050498D01*
X152325019Y-139050498D01*
X152381302Y-139044748D01*
X152427797Y-139039999D01*
X152529512Y-139006294D01*
X152568516Y-139000000D01*
X153031484Y-139000000D01*
X153070488Y-139006294D01*
X153172203Y-139039999D01*
X153274991Y-139050500D01*
X154325008Y-139050499D01*
X154325016Y-139050498D01*
X154325019Y-139050498D01*
X154381302Y-139044748D01*
X154427797Y-139039999D01*
X154529512Y-139006294D01*
X154568516Y-139000000D01*
X156876000Y-139000000D01*
X156943039Y-139019685D01*
X156988794Y-139072489D01*
X157000000Y-139124000D01*
X157000000Y-142376000D01*
X156980315Y-142443039D01*
X156927511Y-142488794D01*
X156876000Y-142500000D01*
X154568516Y-142500000D01*
X154529512Y-142493706D01*
X154510495Y-142487404D01*
X154427797Y-142460001D01*
X154427795Y-142460000D01*
X154325010Y-142449500D01*
X153274998Y-142449500D01*
X153274980Y-142449501D01*
X153172203Y-142460000D01*
X153172200Y-142460001D01*
X153070488Y-142493706D01*
X153031484Y-142500000D01*
X152568516Y-142500000D01*
X152529512Y-142493706D01*
X152510495Y-142487404D01*
X152427797Y-142460001D01*
X152427795Y-142460000D01*
X152325010Y-142449500D01*
X151274998Y-142449500D01*
X151274980Y-142449501D01*
X151172203Y-142460000D01*
X151172200Y-142460001D01*
X151077229Y-142491472D01*
X151077226Y-142491473D01*
X151051494Y-142500000D01*
X151000000Y-142500000D01*
X150995737Y-142521310D01*
X150943589Y-142553474D01*
X150943574Y-142553482D01*
X150856344Y-142607287D01*
X150732289Y-142731342D01*
X150640187Y-142880663D01*
X150640186Y-142880666D01*
X150585001Y-143047203D01*
X150585001Y-143047204D01*
X150585000Y-143047204D01*
X150574500Y-143149983D01*
X150574500Y-143750001D01*
X150574501Y-143750019D01*
X150585000Y-143852796D01*
X150585001Y-143852799D01*
X150640185Y-144019331D01*
X150640186Y-144019334D01*
X150640190Y-144019340D01*
X150656807Y-144046282D01*
X150675247Y-144113675D01*
X150672860Y-144135696D01*
X149519936Y-149900318D01*
X149487486Y-149962196D01*
X149426734Y-149996706D01*
X149398344Y-150000000D01*
X144624000Y-150000000D01*
X144556961Y-149980315D01*
X144511206Y-149927511D01*
X144500000Y-149876000D01*
X144500000Y-139128230D01*
X144519685Y-139061191D01*
X144572489Y-139015436D01*
X144641647Y-139005492D01*
X144705203Y-139034517D01*
X144711681Y-139040549D01*
X144763844Y-139092712D01*
X144913166Y-139184814D01*
X145079703Y-139239999D01*
X145182491Y-139250500D01*
X147282508Y-139250499D01*
X147385297Y-139239999D01*
X147551834Y-139184814D01*
X147701156Y-139092712D01*
X147757549Y-139036319D01*
X147818872Y-139002834D01*
X147845230Y-139000000D01*
X151031484Y-139000000D01*
X151070488Y-139006294D01*
G37*
%TD.AperFunction*%
%TD*%
%TA.AperFunction,Conductor*%
%TO.N,GND*%
G36*
X177840208Y-144269187D02*
G01*
X177860850Y-144285821D01*
X178302846Y-144727817D01*
X178336331Y-144789140D01*
X178331347Y-144858832D01*
X178289475Y-144914765D01*
X178224011Y-144939182D01*
X178215165Y-144939498D01*
X178130247Y-144939498D01*
X178071770Y-144951129D01*
X178071769Y-144951130D01*
X178005447Y-144995445D01*
X177961132Y-145061767D01*
X177961131Y-145061768D01*
X177949500Y-145120245D01*
X177949500Y-146019752D01*
X177961131Y-146078229D01*
X177961132Y-146078230D01*
X178005448Y-146144553D01*
X178044390Y-146170573D01*
X178089196Y-146224185D01*
X178099500Y-146273675D01*
X178099500Y-146867640D01*
X178079815Y-146934679D01*
X178027011Y-146980434D01*
X178023735Y-146981874D01*
X178009815Y-146987751D01*
X177999696Y-146989354D01*
X177969102Y-147004942D01*
X177965006Y-147006672D01*
X177934537Y-147010158D01*
X177904395Y-147015819D01*
X177900144Y-147014093D01*
X177895589Y-147014615D01*
X177868077Y-147001078D01*
X177839655Y-146989542D01*
X177833530Y-146984079D01*
X177832897Y-146983768D01*
X177832566Y-146983219D01*
X177829090Y-146980119D01*
X177750000Y-146901029D01*
X177750000Y-144750000D01*
X176749993Y-144750000D01*
X176740464Y-144733495D01*
X176740458Y-144733487D01*
X176468154Y-144461183D01*
X176434669Y-144399860D01*
X176439653Y-144330168D01*
X176481525Y-144274235D01*
X176546989Y-144249818D01*
X176555835Y-144249502D01*
X177773169Y-144249502D01*
X177840208Y-144269187D01*
G37*
%TD.AperFunction*%
%TA.AperFunction,Conductor*%
G36*
X212642539Y-109320185D02*
G01*
X212688294Y-109372989D01*
X212699500Y-109424500D01*
X212699500Y-156575500D01*
X212679815Y-156642539D01*
X212627011Y-156688294D01*
X212575500Y-156699500D01*
X140424500Y-156699500D01*
X140357461Y-156679815D01*
X140311706Y-156627011D01*
X140300500Y-156575500D01*
X140300500Y-153670247D01*
X154949500Y-153670247D01*
X154949500Y-155409752D01*
X154961131Y-155468229D01*
X154961132Y-155468230D01*
X155005447Y-155534552D01*
X155071769Y-155578867D01*
X155071770Y-155578868D01*
X155130247Y-155590499D01*
X155130250Y-155590500D01*
X155130252Y-155590500D01*
X156869750Y-155590500D01*
X156869751Y-155590499D01*
X156884568Y-155587552D01*
X156928229Y-155578868D01*
X156928229Y-155578867D01*
X156928231Y-155578867D01*
X156994552Y-155534552D01*
X157038867Y-155468231D01*
X157038867Y-155468229D01*
X157038868Y-155468229D01*
X157050499Y-155409752D01*
X157050500Y-155409750D01*
X157050500Y-154964500D01*
X157070185Y-154897461D01*
X157122989Y-154851706D01*
X157174500Y-154840500D01*
X158275500Y-154840500D01*
X158342539Y-154860185D01*
X158388294Y-154912989D01*
X158399500Y-154964500D01*
X158399500Y-155306517D01*
X158410028Y-155372989D01*
X158414354Y-155400304D01*
X158471950Y-155513342D01*
X158471952Y-155513344D01*
X158471954Y-155513347D01*
X158561652Y-155603045D01*
X158561654Y-155603046D01*
X158561658Y-155603050D01*
X158674694Y-155660645D01*
X158674698Y-155660647D01*
X158768475Y-155675499D01*
X158768481Y-155675500D01*
X159231518Y-155675499D01*
X159325304Y-155660646D01*
X159438342Y-155603050D01*
X159528050Y-155513342D01*
X159585646Y-155400304D01*
X159585646Y-155400302D01*
X159585647Y-155400301D01*
X159597739Y-155323950D01*
X159600500Y-155306519D01*
X159600499Y-154693482D01*
X159600498Y-154693475D01*
X160049500Y-154693475D01*
X160049500Y-155306517D01*
X160060028Y-155372989D01*
X160064354Y-155400304D01*
X160121950Y-155513342D01*
X160121952Y-155513344D01*
X160121954Y-155513347D01*
X160211652Y-155603045D01*
X160211654Y-155603046D01*
X160211658Y-155603050D01*
X160324694Y-155660645D01*
X160324698Y-155660647D01*
X160418475Y-155675499D01*
X160418481Y-155675500D01*
X160881518Y-155675499D01*
X160975304Y-155660646D01*
X161088342Y-155603050D01*
X161178050Y-155513342D01*
X161235646Y-155400304D01*
X161235646Y-155400302D01*
X161235647Y-155400301D01*
X161238663Y-155391020D01*
X161241174Y-155391836D01*
X161249481Y-155374315D01*
X161263647Y-155343297D01*
X161264424Y-155342797D01*
X161264820Y-155341963D01*
X161293750Y-155323950D01*
X161322425Y-155305523D01*
X161323625Y-155305350D01*
X161324134Y-155305034D01*
X161357360Y-155300500D01*
X161467640Y-155300500D01*
X161534679Y-155320185D01*
X161580434Y-155372989D01*
X161585911Y-155391157D01*
X161586337Y-155391019D01*
X161589352Y-155400300D01*
X161589353Y-155400303D01*
X161589354Y-155400304D01*
X161646950Y-155513342D01*
X161646952Y-155513344D01*
X161646954Y-155513347D01*
X161736652Y-155603045D01*
X161736654Y-155603046D01*
X161736658Y-155603050D01*
X161849694Y-155660645D01*
X161849698Y-155660647D01*
X161943475Y-155675499D01*
X161943481Y-155675500D01*
X162406518Y-155675499D01*
X162500304Y-155660646D01*
X162613342Y-155603050D01*
X162703050Y-155513342D01*
X162760646Y-155400304D01*
X162760646Y-155400302D01*
X162760647Y-155400301D01*
X162772739Y-155323950D01*
X162775500Y-155306519D01*
X162775499Y-154693482D01*
X162760646Y-154599696D01*
X162703050Y-154486658D01*
X162703046Y-154486654D01*
X162703045Y-154486652D01*
X162613347Y-154396954D01*
X162613344Y-154396952D01*
X162613342Y-154396950D01*
X162536517Y-154357805D01*
X162500301Y-154339352D01*
X162406524Y-154324500D01*
X161943482Y-154324500D01*
X161862519Y-154337323D01*
X161849696Y-154339354D01*
X161736658Y-154396950D01*
X161736657Y-154396951D01*
X161736652Y-154396954D01*
X161646954Y-154486652D01*
X161646951Y-154486657D01*
X161584924Y-154608391D01*
X161583328Y-154607577D01*
X161550488Y-154655599D01*
X161486128Y-154682794D01*
X161417282Y-154670875D01*
X161365809Y-154623628D01*
X161348000Y-154559601D01*
X161348000Y-153928320D01*
X161367685Y-153861281D01*
X161403109Y-153825218D01*
X161471452Y-153779552D01*
X161515767Y-153713231D01*
X161515767Y-153713229D01*
X161515768Y-153713229D01*
X161527399Y-153654752D01*
X161527400Y-153654750D01*
X161527400Y-152345249D01*
X161527399Y-152345247D01*
X161515768Y-152286770D01*
X161515767Y-152286769D01*
X161471452Y-152220447D01*
X161405130Y-152176132D01*
X161405129Y-152176131D01*
X161346652Y-152164500D01*
X161346648Y-152164500D01*
X160748352Y-152164500D01*
X160748347Y-152164500D01*
X160689870Y-152176131D01*
X160689869Y-152176132D01*
X160623547Y-152220447D01*
X160579232Y-152286769D01*
X160579231Y-152286770D01*
X160567600Y-152345247D01*
X160567600Y-153654752D01*
X160579231Y-153713229D01*
X160579232Y-153713230D01*
X160623547Y-153779552D01*
X160691891Y-153825218D01*
X160736696Y-153878830D01*
X160747000Y-153928320D01*
X160747000Y-154200500D01*
X160727315Y-154267539D01*
X160674511Y-154313294D01*
X160623001Y-154324500D01*
X160418482Y-154324500D01*
X160337519Y-154337323D01*
X160324696Y-154339354D01*
X160211658Y-154396950D01*
X160211657Y-154396951D01*
X160211652Y-154396954D01*
X160121954Y-154486652D01*
X160121951Y-154486657D01*
X160064352Y-154599698D01*
X160049500Y-154693475D01*
X159600498Y-154693475D01*
X159585646Y-154599696D01*
X159528050Y-154486658D01*
X159528046Y-154486654D01*
X159528045Y-154486652D01*
X159438347Y-154396954D01*
X159438344Y-154396952D01*
X159438342Y-154396950D01*
X159361517Y-154357805D01*
X159325301Y-154339352D01*
X159231524Y-154324500D01*
X158799132Y-154324500D01*
X158732093Y-154304815D01*
X158724942Y-154299788D01*
X158655995Y-154259982D01*
X158655990Y-154259979D01*
X158630513Y-154253152D01*
X158579562Y-154239500D01*
X158579560Y-154239500D01*
X157174500Y-154239500D01*
X157107461Y-154219815D01*
X157061706Y-154167011D01*
X157050500Y-154115500D01*
X157050500Y-153670249D01*
X157050499Y-153670247D01*
X157038868Y-153611770D01*
X157038867Y-153611769D01*
X156994552Y-153545447D01*
X156928230Y-153501132D01*
X156928229Y-153501131D01*
X156869752Y-153489500D01*
X156869748Y-153489500D01*
X155130252Y-153489500D01*
X155130247Y-153489500D01*
X155071770Y-153501131D01*
X155071769Y-153501132D01*
X155005447Y-153545447D01*
X154961132Y-153611769D01*
X154961131Y-153611770D01*
X154949500Y-153670247D01*
X140300500Y-153670247D01*
X140300500Y-139128230D01*
X143994500Y-139128230D01*
X143994500Y-149876000D01*
X144004588Y-149969834D01*
X144006052Y-149983446D01*
X144006054Y-149983462D01*
X144017260Y-150034972D01*
X144051383Y-150137497D01*
X144051386Y-150137503D01*
X144129171Y-150258537D01*
X144129179Y-150258548D01*
X144174923Y-150311340D01*
X144174926Y-150311343D01*
X144174930Y-150311347D01*
X144283664Y-150405567D01*
X144283667Y-150405568D01*
X144283668Y-150405569D01*
X144390303Y-150454269D01*
X144414541Y-150465338D01*
X144481580Y-150485023D01*
X144481584Y-150485024D01*
X144624000Y-150505500D01*
X144624003Y-150505500D01*
X149398342Y-150505500D01*
X149398344Y-150505500D01*
X149398349Y-150505499D01*
X149398366Y-150505499D01*
X149456606Y-150502131D01*
X149462119Y-150501491D01*
X149484995Y-150498837D01*
X149542466Y-150488780D01*
X149676411Y-150436242D01*
X149737163Y-150401732D01*
X149737169Y-150401728D01*
X149850885Y-150313581D01*
X149935162Y-150196966D01*
X149967612Y-150135088D01*
X150015620Y-149999455D01*
X150462542Y-147764844D01*
X150655475Y-146800182D01*
X150687925Y-146738304D01*
X150748677Y-146703794D01*
X150777067Y-146700500D01*
X151343921Y-146700500D01*
X151410960Y-146720185D01*
X151443690Y-146750865D01*
X151451796Y-146761848D01*
X151477848Y-146797148D01*
X151477850Y-146797150D01*
X151587118Y-146877793D01*
X151629845Y-146892744D01*
X151715299Y-146922646D01*
X151745730Y-146925500D01*
X151745734Y-146925500D01*
X152354270Y-146925500D01*
X152384699Y-146922646D01*
X152384701Y-146922646D01*
X152456985Y-146897352D01*
X152512882Y-146877793D01*
X152622150Y-146797150D01*
X152702793Y-146687882D01*
X152733650Y-146599697D01*
X152747646Y-146559701D01*
X152747646Y-146559699D01*
X152750500Y-146529269D01*
X152750500Y-145470730D01*
X152747646Y-145440300D01*
X152747646Y-145440298D01*
X152708228Y-145327650D01*
X152702793Y-145312118D01*
X152622150Y-145202850D01*
X152512882Y-145122207D01*
X152512880Y-145122206D01*
X152384700Y-145077353D01*
X152354270Y-145074500D01*
X152354266Y-145074500D01*
X151745734Y-145074500D01*
X151745730Y-145074500D01*
X151715300Y-145077353D01*
X151715298Y-145077353D01*
X151587119Y-145122206D01*
X151587117Y-145122207D01*
X151477850Y-145202850D01*
X151477848Y-145202851D01*
X151460018Y-145227011D01*
X151447603Y-145243834D01*
X151443692Y-145249133D01*
X151439710Y-145252155D01*
X151437634Y-145256703D01*
X151412158Y-145273075D01*
X151388044Y-145291384D01*
X151381914Y-145292511D01*
X151378856Y-145294477D01*
X151343921Y-145299500D01*
X151106867Y-145299500D01*
X151039828Y-145279815D01*
X150994073Y-145227011D01*
X150984129Y-145157853D01*
X150985275Y-145151182D01*
X151168543Y-144234838D01*
X151169391Y-144229327D01*
X151175416Y-144190171D01*
X151177803Y-144168150D01*
X151180660Y-144123035D01*
X151162825Y-143980265D01*
X151144385Y-143912872D01*
X151117336Y-143850617D01*
X151113359Y-143840208D01*
X151086526Y-143759231D01*
X151080873Y-143732802D01*
X151080636Y-143730483D01*
X151080000Y-143717936D01*
X151080000Y-143182058D01*
X151080637Y-143169501D01*
X151080872Y-143167200D01*
X151086525Y-143140771D01*
X151096887Y-143109501D01*
X151109053Y-143083413D01*
X151123904Y-143059336D01*
X151141757Y-143036756D01*
X151161760Y-143016753D01*
X151184339Y-142998900D01*
X151207133Y-142984841D01*
X151207231Y-142984783D01*
X151208381Y-142984074D01*
X151208616Y-142983964D01*
X151211091Y-142982500D01*
X151211151Y-142982466D01*
X151211292Y-142982715D01*
X151234506Y-142971886D01*
X151239220Y-142970323D01*
X151265762Y-142961528D01*
X151292188Y-142955874D01*
X151294506Y-142955637D01*
X151307063Y-142955000D01*
X152292944Y-142955000D01*
X152305512Y-142955639D01*
X152305873Y-142955675D01*
X152307803Y-142955872D01*
X152334237Y-142961528D01*
X152370505Y-142973547D01*
X152370512Y-142973549D01*
X152429170Y-142987902D01*
X152448982Y-142992750D01*
X152487986Y-142999044D01*
X152510665Y-143000862D01*
X152568507Y-143005500D01*
X152568516Y-143005500D01*
X153031492Y-143005500D01*
X153082906Y-143001377D01*
X153112014Y-142999044D01*
X153151018Y-142992750D01*
X153229496Y-142973546D01*
X153265762Y-142961527D01*
X153292203Y-142955872D01*
X153294501Y-142955638D01*
X153294511Y-142955637D01*
X153307062Y-142955000D01*
X154292944Y-142955000D01*
X154305512Y-142955639D01*
X154305873Y-142955675D01*
X154307803Y-142955872D01*
X154334237Y-142961528D01*
X154370505Y-142973547D01*
X154370512Y-142973549D01*
X154429170Y-142987902D01*
X154448982Y-142992750D01*
X154487986Y-142999044D01*
X154510665Y-143000862D01*
X154568507Y-143005500D01*
X154568516Y-143005500D01*
X155754167Y-143005500D01*
X155821206Y-143025185D01*
X155841848Y-143041819D01*
X156488181Y-143688152D01*
X156521666Y-143749475D01*
X156524500Y-143775833D01*
X156524500Y-144206517D01*
X156530218Y-144242618D01*
X156539354Y-144300304D01*
X156596950Y-144413342D01*
X156596952Y-144413344D01*
X156596954Y-144413347D01*
X156686652Y-144503045D01*
X156686654Y-144503046D01*
X156686658Y-144503050D01*
X156773994Y-144547550D01*
X156799698Y-144560647D01*
X156893475Y-144575499D01*
X156893481Y-144575500D01*
X157506518Y-144575499D01*
X157600304Y-144560646D01*
X157713342Y-144503050D01*
X157803050Y-144413342D01*
X157838787Y-144343203D01*
X157849235Y-144332140D01*
X157855558Y-144318297D01*
X157872738Y-144307255D01*
X157886761Y-144292409D01*
X157902440Y-144288167D01*
X157914336Y-144280523D01*
X157949271Y-144275500D01*
X157994648Y-144275500D01*
X158061687Y-144295185D01*
X158107442Y-144347989D01*
X158117386Y-144417147D01*
X158102035Y-144461500D01*
X158040424Y-144568213D01*
X158040423Y-144568216D01*
X157999500Y-144720943D01*
X157999500Y-144879057D01*
X158038472Y-145024500D01*
X158040423Y-145031783D01*
X158040424Y-145031786D01*
X158102035Y-145138500D01*
X158103466Y-145144401D01*
X158107442Y-145148989D01*
X158111606Y-145177955D01*
X158118508Y-145206401D01*
X158116522Y-145212138D01*
X158117386Y-145218147D01*
X158105227Y-145244770D01*
X158095655Y-145272427D01*
X158090883Y-145276179D01*
X158088361Y-145281703D01*
X158063738Y-145297526D01*
X158040734Y-145315618D01*
X158033383Y-145317034D01*
X158029583Y-145319477D01*
X157994648Y-145324500D01*
X157949272Y-145324500D01*
X157882233Y-145304815D01*
X157838788Y-145256796D01*
X157815871Y-145211820D01*
X157803050Y-145186658D01*
X157803047Y-145186655D01*
X157803045Y-145186652D01*
X157713347Y-145096954D01*
X157713344Y-145096952D01*
X157713342Y-145096950D01*
X157636517Y-145057805D01*
X157600301Y-145039352D01*
X157506524Y-145024500D01*
X156893482Y-145024500D01*
X156812519Y-145037323D01*
X156799696Y-145039354D01*
X156686658Y-145096950D01*
X156686657Y-145096951D01*
X156686652Y-145096954D01*
X156596954Y-145186652D01*
X156596951Y-145186657D01*
X156596950Y-145186658D01*
X156561212Y-145256796D01*
X156550764Y-145267859D01*
X156544442Y-145281703D01*
X156527261Y-145292744D01*
X156513239Y-145307591D01*
X156497559Y-145311832D01*
X156485664Y-145319477D01*
X156450729Y-145324500D01*
X156292255Y-145324500D01*
X156225216Y-145304815D01*
X156204574Y-145288181D01*
X156113347Y-145196954D01*
X156113344Y-145196952D01*
X156113342Y-145196950D01*
X156011191Y-145144901D01*
X156000301Y-145139352D01*
X155906524Y-145124500D01*
X155293482Y-145124500D01*
X155212519Y-145137323D01*
X155199696Y-145139354D01*
X155086658Y-145196950D01*
X155086657Y-145196951D01*
X155086652Y-145196954D01*
X154996954Y-145286652D01*
X154996951Y-145286657D01*
X154996950Y-145286658D01*
X154983977Y-145312119D01*
X154939352Y-145399698D01*
X154924500Y-145493475D01*
X154924500Y-145956517D01*
X154931275Y-145999294D01*
X154939354Y-146050304D01*
X154996950Y-146163342D01*
X154996952Y-146163344D01*
X154996954Y-146163347D01*
X155086652Y-146253045D01*
X155086654Y-146253046D01*
X155086658Y-146253050D01*
X155181352Y-146301299D01*
X155199698Y-146310647D01*
X155287116Y-146324491D01*
X155292243Y-146325304D01*
X155293475Y-146325499D01*
X155293481Y-146325500D01*
X155906518Y-146325499D01*
X156000304Y-146310646D01*
X156113342Y-146253050D01*
X156203050Y-146163342D01*
X156260646Y-146050304D01*
X156263845Y-146030102D01*
X156278449Y-145999294D01*
X156292606Y-145968297D01*
X156293379Y-145967799D01*
X156293774Y-145966968D01*
X156322709Y-145948950D01*
X156351384Y-145930523D01*
X156352580Y-145930350D01*
X156353085Y-145930037D01*
X156386319Y-145925500D01*
X156450728Y-145925500D01*
X156517767Y-145945185D01*
X156561212Y-145993204D01*
X156596949Y-146063340D01*
X156596954Y-146063347D01*
X156686652Y-146153045D01*
X156686654Y-146153046D01*
X156686658Y-146153050D01*
X156798426Y-146209999D01*
X156799698Y-146210647D01*
X156893475Y-146225499D01*
X156893481Y-146225500D01*
X157506518Y-146225499D01*
X157600304Y-146210646D01*
X157713342Y-146153050D01*
X157713348Y-146153043D01*
X157718044Y-146149633D01*
X157783850Y-146126152D01*
X157851904Y-146141977D01*
X157900600Y-146192082D01*
X157914931Y-146249950D01*
X157914931Y-146404057D01*
X157919770Y-146422115D01*
X157935795Y-146481923D01*
X157934132Y-146551773D01*
X157894969Y-146609635D01*
X157889654Y-146613786D01*
X157802850Y-146677850D01*
X157722207Y-146787117D01*
X157722206Y-146787119D01*
X157677353Y-146915298D01*
X157677353Y-146915300D01*
X157674500Y-146945730D01*
X157674500Y-147554269D01*
X157677353Y-147584699D01*
X157677353Y-147584701D01*
X157722206Y-147712880D01*
X157722207Y-147712882D01*
X157802850Y-147822150D01*
X157912118Y-147902793D01*
X157936690Y-147911391D01*
X158040299Y-147947646D01*
X158070730Y-147950500D01*
X158070734Y-147950500D01*
X159129270Y-147950500D01*
X159159699Y-147947646D01*
X159159701Y-147947646D01*
X159231991Y-147922350D01*
X159287882Y-147902793D01*
X159397150Y-147822150D01*
X159477793Y-147712882D01*
X159516225Y-147603050D01*
X159522646Y-147584701D01*
X159522646Y-147584699D01*
X159525500Y-147554269D01*
X159525500Y-146945730D01*
X159522646Y-146915300D01*
X159522646Y-146915298D01*
X159483278Y-146802793D01*
X159477793Y-146787118D01*
X159397150Y-146677850D01*
X159287882Y-146597207D01*
X159280080Y-146594477D01*
X159191950Y-146563638D01*
X159135174Y-146522916D01*
X159109428Y-146457963D01*
X159113131Y-146414504D01*
X159115931Y-146404057D01*
X159115931Y-146245943D01*
X159075008Y-146093216D01*
X159075007Y-146093214D01*
X159072904Y-146085365D01*
X159075240Y-146084739D01*
X159069089Y-146027472D01*
X159100370Y-145964996D01*
X159160462Y-145929349D01*
X159191117Y-145925500D01*
X161335442Y-145925500D01*
X161402481Y-145945185D01*
X161448236Y-145997989D01*
X161458180Y-146067147D01*
X161445928Y-146105789D01*
X161440281Y-146116874D01*
X161440279Y-146116878D01*
X161424500Y-146216506D01*
X161424500Y-146674167D01*
X161404815Y-146741206D01*
X161388181Y-146761848D01*
X161009541Y-147140487D01*
X161009535Y-147140495D01*
X160969982Y-147209004D01*
X160969979Y-147209009D01*
X160956326Y-147259962D01*
X160949500Y-147285438D01*
X160949500Y-150206762D01*
X160960643Y-150248347D01*
X160969979Y-150283190D01*
X160969980Y-150283191D01*
X160986232Y-150311340D01*
X160996478Y-150329087D01*
X161009540Y-150351711D01*
X161009542Y-150351713D01*
X161483781Y-150825952D01*
X161517266Y-150887275D01*
X161520100Y-150913633D01*
X161520100Y-151571952D01*
X161531731Y-151630429D01*
X161531732Y-151630430D01*
X161576047Y-151696752D01*
X161642369Y-151741067D01*
X161642370Y-151741068D01*
X161700847Y-151752699D01*
X161700850Y-151752700D01*
X161700852Y-151752700D01*
X162299150Y-151752700D01*
X162299151Y-151752699D01*
X162313968Y-151749752D01*
X162357629Y-151741068D01*
X162357629Y-151741067D01*
X162357631Y-151741067D01*
X162423952Y-151696752D01*
X162468267Y-151630431D01*
X162468267Y-151630429D01*
X162468268Y-151630429D01*
X162479899Y-151571952D01*
X162479900Y-151571950D01*
X162479900Y-150262449D01*
X162479899Y-150262447D01*
X162468268Y-150203970D01*
X162468267Y-150203969D01*
X162423952Y-150137647D01*
X162357630Y-150093332D01*
X162357629Y-150093331D01*
X162299152Y-150081700D01*
X162299148Y-150081700D01*
X161700852Y-150081700D01*
X161700851Y-150081700D01*
X161698689Y-150082130D01*
X161697533Y-150082026D01*
X161694787Y-150082297D01*
X161694735Y-150081776D01*
X161629098Y-150075901D01*
X161573921Y-150033037D01*
X161550678Y-149967147D01*
X161550500Y-149960512D01*
X161550500Y-148836023D01*
X161570185Y-148768984D01*
X161622989Y-148723229D01*
X161692147Y-148713285D01*
X161730793Y-148725538D01*
X161777772Y-148749475D01*
X161799696Y-148760646D01*
X161799698Y-148760647D01*
X161893475Y-148775499D01*
X161893481Y-148775500D01*
X162356518Y-148775499D01*
X162450304Y-148760646D01*
X162563342Y-148703050D01*
X162653050Y-148613342D01*
X162710646Y-148500304D01*
X162710646Y-148500302D01*
X162710647Y-148500301D01*
X162725499Y-148406524D01*
X162725500Y-148406519D01*
X162725499Y-147975831D01*
X162734145Y-147946385D01*
X162740667Y-147916405D01*
X162744419Y-147911391D01*
X162745183Y-147908793D01*
X162761813Y-147888156D01*
X162885128Y-147764842D01*
X162946448Y-147731359D01*
X163016140Y-147736343D01*
X163072073Y-147778215D01*
X163094423Y-147828333D01*
X163099932Y-147856027D01*
X163099932Y-147856028D01*
X163144247Y-147922350D01*
X163210569Y-147966665D01*
X163210570Y-147966666D01*
X163269047Y-147978297D01*
X163269050Y-147978298D01*
X163269052Y-147978298D01*
X163475500Y-147978298D01*
X163542539Y-147997983D01*
X163588294Y-148050787D01*
X163599500Y-148102298D01*
X163599500Y-149260408D01*
X163579815Y-149327447D01*
X163531795Y-149370892D01*
X163471783Y-149401469D01*
X163471774Y-149401476D01*
X163376476Y-149496774D01*
X163376473Y-149496778D01*
X163315279Y-149616878D01*
X163299500Y-149716506D01*
X163299500Y-150283493D01*
X163315279Y-150383121D01*
X163315280Y-150383124D01*
X163315281Y-150383126D01*
X163376472Y-150503220D01*
X163376473Y-150503221D01*
X163376476Y-150503225D01*
X163471774Y-150598523D01*
X163471778Y-150598526D01*
X163471780Y-150598528D01*
X163591874Y-150659719D01*
X163591876Y-150659719D01*
X163591878Y-150659720D01*
X163691507Y-150675500D01*
X163691512Y-150675500D01*
X164208493Y-150675500D01*
X164308121Y-150659720D01*
X164308121Y-150659719D01*
X164308126Y-150659719D01*
X164428220Y-150598528D01*
X164523528Y-150503220D01*
X164584719Y-150383126D01*
X164584720Y-150383121D01*
X164600500Y-150283493D01*
X164600500Y-149716506D01*
X164584720Y-149616878D01*
X164584719Y-149616876D01*
X164584719Y-149616874D01*
X164523528Y-149496780D01*
X164523526Y-149496778D01*
X164523523Y-149496774D01*
X164436819Y-149410070D01*
X164403334Y-149348747D01*
X164400500Y-149322389D01*
X164400500Y-148124498D01*
X164420185Y-148057459D01*
X164472989Y-148011704D01*
X164524500Y-148000498D01*
X166432743Y-148000498D01*
X166499782Y-148020183D01*
X166520424Y-148036817D01*
X167363181Y-148879574D01*
X167396666Y-148940897D01*
X167399500Y-148967255D01*
X167399500Y-149283493D01*
X167415279Y-149383121D01*
X167415280Y-149383124D01*
X167415281Y-149383126D01*
X167476472Y-149503220D01*
X167476473Y-149503221D01*
X167476476Y-149503225D01*
X167571774Y-149598523D01*
X167571778Y-149598526D01*
X167571780Y-149598528D01*
X167691874Y-149659719D01*
X167691876Y-149659719D01*
X167691878Y-149659720D01*
X167791507Y-149675500D01*
X167791512Y-149675500D01*
X168057745Y-149675500D01*
X168087185Y-149684144D01*
X168117172Y-149690668D01*
X168122187Y-149694422D01*
X168124784Y-149695185D01*
X168145426Y-149711819D01*
X168272426Y-149838819D01*
X168305911Y-149900142D01*
X168300927Y-149969834D01*
X168259055Y-150025767D01*
X168193591Y-150050184D01*
X168184745Y-150050500D01*
X166274500Y-150050500D01*
X166207461Y-150030815D01*
X166161706Y-149978011D01*
X166150500Y-149926500D01*
X166150500Y-149716506D01*
X166134720Y-149616878D01*
X166134719Y-149616876D01*
X166134719Y-149616874D01*
X166073528Y-149496780D01*
X166073526Y-149496778D01*
X166073523Y-149496774D01*
X165978225Y-149401476D01*
X165978221Y-149401473D01*
X165978220Y-149401472D01*
X165858126Y-149340281D01*
X165858124Y-149340280D01*
X165858121Y-149340279D01*
X165758493Y-149324500D01*
X165758488Y-149324500D01*
X165241512Y-149324500D01*
X165241507Y-149324500D01*
X165141878Y-149340279D01*
X165141874Y-149340280D01*
X165141874Y-149340281D01*
X165070565Y-149376615D01*
X165021778Y-149401473D01*
X165021774Y-149401476D01*
X164926476Y-149496774D01*
X164926473Y-149496778D01*
X164865279Y-149616878D01*
X164849500Y-149716506D01*
X164849500Y-150283493D01*
X164865279Y-150383121D01*
X164865280Y-150383124D01*
X164865281Y-150383126D01*
X164926472Y-150503220D01*
X164926473Y-150503221D01*
X164926476Y-150503225D01*
X165021774Y-150598523D01*
X165021778Y-150598526D01*
X165021780Y-150598528D01*
X165141874Y-150659719D01*
X165141876Y-150659719D01*
X165141878Y-150659720D01*
X165241507Y-150675500D01*
X165241512Y-150675500D01*
X165557745Y-150675500D01*
X165624784Y-150695185D01*
X165645426Y-150711819D01*
X165705087Y-150771480D01*
X165796413Y-150824207D01*
X165898273Y-150851500D01*
X165898275Y-150851500D01*
X169075500Y-150851500D01*
X169142539Y-150871185D01*
X169188294Y-150923989D01*
X169199500Y-150975500D01*
X169199500Y-152277726D01*
X169226793Y-152379589D01*
X169238964Y-152400669D01*
X169279520Y-152470913D01*
X169354087Y-152545480D01*
X169445412Y-152598207D01*
X169547273Y-152625500D01*
X169547275Y-152625500D01*
X169652725Y-152625500D01*
X169652727Y-152625500D01*
X169706505Y-152611090D01*
X169730263Y-152604725D01*
X169762355Y-152600500D01*
X170650501Y-152600500D01*
X170717540Y-152620185D01*
X170763295Y-152672989D01*
X170774501Y-152724500D01*
X170774501Y-152806518D01*
X170789354Y-152900304D01*
X170846950Y-153013342D01*
X170846952Y-153013344D01*
X170846954Y-153013347D01*
X170936652Y-153103045D01*
X170936654Y-153103046D01*
X170936658Y-153103050D01*
X171049694Y-153160645D01*
X171049698Y-153160647D01*
X171143475Y-153175499D01*
X171143481Y-153175500D01*
X171606518Y-153175499D01*
X171700304Y-153160646D01*
X171813342Y-153103050D01*
X171903050Y-153013342D01*
X171960646Y-152900304D01*
X171960646Y-152900302D01*
X171960647Y-152900301D01*
X171975499Y-152806524D01*
X171975500Y-152806519D01*
X171975499Y-152193482D01*
X171960646Y-152099696D01*
X171903050Y-151986658D01*
X171903046Y-151986654D01*
X171903045Y-151986652D01*
X171813347Y-151896954D01*
X171813344Y-151896952D01*
X171813342Y-151896950D01*
X171736517Y-151857805D01*
X171700301Y-151839352D01*
X171606524Y-151824500D01*
X171606519Y-151824500D01*
X171237357Y-151824500D01*
X171205264Y-151820275D01*
X171127730Y-151799500D01*
X171127727Y-151799500D01*
X170124500Y-151799500D01*
X170057461Y-151779815D01*
X170011706Y-151727011D01*
X170000500Y-151675500D01*
X170000500Y-150445730D01*
X172074500Y-150445730D01*
X172074500Y-151054269D01*
X172077353Y-151084699D01*
X172077353Y-151084701D01*
X172122206Y-151212880D01*
X172122207Y-151212882D01*
X172202850Y-151322150D01*
X172312118Y-151402793D01*
X172354845Y-151417744D01*
X172440299Y-151447646D01*
X172470730Y-151450500D01*
X172470734Y-151450500D01*
X172475500Y-151450500D01*
X172542539Y-151470185D01*
X172588294Y-151522989D01*
X172599500Y-151574500D01*
X172599500Y-151832745D01*
X172579815Y-151899784D01*
X172563181Y-151920426D01*
X172496954Y-151986652D01*
X172496951Y-151986657D01*
X172439352Y-152099698D01*
X172424500Y-152193475D01*
X172424500Y-152806517D01*
X172430702Y-152845673D01*
X172439354Y-152900304D01*
X172496950Y-153013342D01*
X172496952Y-153013344D01*
X172496954Y-153013347D01*
X172586652Y-153103045D01*
X172586654Y-153103046D01*
X172586658Y-153103050D01*
X172699694Y-153160645D01*
X172699698Y-153160647D01*
X172793475Y-153175499D01*
X172793481Y-153175500D01*
X173256518Y-153175499D01*
X173350304Y-153160646D01*
X173463342Y-153103050D01*
X173553050Y-153013342D01*
X173610646Y-152900304D01*
X173610646Y-152900302D01*
X173610647Y-152900301D01*
X173625499Y-152806524D01*
X173625500Y-152806519D01*
X173625499Y-152193482D01*
X173610646Y-152099696D01*
X173553050Y-151986658D01*
X173553046Y-151986654D01*
X173553045Y-151986652D01*
X173463343Y-151896950D01*
X173455448Y-151891214D01*
X173457089Y-151888954D01*
X173443297Y-151882655D01*
X173432249Y-151865464D01*
X173417396Y-151851431D01*
X173413158Y-151835757D01*
X173405523Y-151823877D01*
X173400500Y-151788942D01*
X173400500Y-151574500D01*
X173420185Y-151507461D01*
X173472989Y-151461706D01*
X173524500Y-151450500D01*
X173529270Y-151450500D01*
X173559699Y-151447646D01*
X173559701Y-151447646D01*
X173623790Y-151425219D01*
X173687882Y-151402793D01*
X173797150Y-151322150D01*
X173877793Y-151212882D01*
X173912622Y-151113347D01*
X173922646Y-151084701D01*
X173922646Y-151084699D01*
X173925500Y-151054269D01*
X173925500Y-150445730D01*
X173922646Y-150415300D01*
X173922646Y-150415298D01*
X173880020Y-150293482D01*
X173877793Y-150287118D01*
X173797150Y-150177850D01*
X173687882Y-150097207D01*
X173687880Y-150097206D01*
X173559700Y-150052353D01*
X173529270Y-150049500D01*
X173529266Y-150049500D01*
X172470734Y-150049500D01*
X172470730Y-150049500D01*
X172440300Y-150052353D01*
X172440298Y-150052353D01*
X172312119Y-150097206D01*
X172312117Y-150097207D01*
X172202850Y-150177850D01*
X172122207Y-150287117D01*
X172122206Y-150287119D01*
X172077353Y-150415298D01*
X172077353Y-150415300D01*
X172074500Y-150445730D01*
X170000500Y-150445730D01*
X170000500Y-149973383D01*
X170000501Y-149973380D01*
X170000501Y-149867927D01*
X170000500Y-149867923D01*
X170000500Y-149714115D01*
X170020185Y-149647076D01*
X170068205Y-149603630D01*
X170078220Y-149598528D01*
X170173528Y-149503220D01*
X170234719Y-149383126D01*
X170241505Y-149340281D01*
X170250500Y-149283493D01*
X170250500Y-149040691D01*
X171549500Y-149040691D01*
X171549500Y-149159309D01*
X171580201Y-149273886D01*
X171639511Y-149376613D01*
X171723387Y-149460489D01*
X171826114Y-149519799D01*
X171940691Y-149550500D01*
X171940694Y-149550500D01*
X172059306Y-149550500D01*
X172059309Y-149550500D01*
X172173886Y-149519799D01*
X172178537Y-149517114D01*
X172194024Y-149512963D01*
X172205603Y-149505523D01*
X172240538Y-149500500D01*
X172284496Y-149500500D01*
X172325451Y-149507459D01*
X172440298Y-149547645D01*
X172440300Y-149547646D01*
X172470730Y-149550500D01*
X172470734Y-149550500D01*
X173529270Y-149550500D01*
X173559699Y-149547646D01*
X173559701Y-149547646D01*
X173639290Y-149519796D01*
X173687882Y-149502793D01*
X173759781Y-149449729D01*
X173780193Y-149442273D01*
X173798478Y-149430523D01*
X173821380Y-149427230D01*
X173825408Y-149425759D01*
X173833413Y-149425500D01*
X174026205Y-149425500D01*
X174093244Y-149445185D01*
X174136689Y-149493204D01*
X174146949Y-149513340D01*
X174146954Y-149513347D01*
X174236652Y-149603045D01*
X174236654Y-149603046D01*
X174236658Y-149603050D01*
X174347877Y-149659719D01*
X174349698Y-149660647D01*
X174443475Y-149675499D01*
X174443481Y-149675500D01*
X174906518Y-149675499D01*
X175000304Y-149660646D01*
X175113342Y-149603050D01*
X175203050Y-149513342D01*
X175260646Y-149400304D01*
X175260646Y-149400302D01*
X175260647Y-149400301D01*
X175275499Y-149306524D01*
X175275500Y-149306519D01*
X175275499Y-149142253D01*
X175284144Y-149112808D01*
X175290667Y-149082826D01*
X175294419Y-149077812D01*
X175295183Y-149075214D01*
X175311813Y-149054577D01*
X175413109Y-148953281D01*
X175468702Y-148921187D01*
X175473886Y-148919799D01*
X175538499Y-148882493D01*
X175606399Y-148866020D01*
X175672426Y-148888872D01*
X175715617Y-148943793D01*
X175724500Y-148989880D01*
X175724500Y-149306517D01*
X175729848Y-149340281D01*
X175739354Y-149400304D01*
X175796950Y-149513342D01*
X175886658Y-149603050D01*
X175886660Y-149603051D01*
X175888181Y-149604572D01*
X175902888Y-149631505D01*
X175919477Y-149657319D01*
X175920368Y-149663518D01*
X175921666Y-149665895D01*
X175924500Y-149692254D01*
X175924500Y-149907745D01*
X175904815Y-149974784D01*
X175888181Y-149995426D01*
X175796954Y-150086652D01*
X175796951Y-150086657D01*
X175796950Y-150086658D01*
X175777751Y-150124337D01*
X175739352Y-150199698D01*
X175724500Y-150293475D01*
X175724500Y-150906517D01*
X175735063Y-150973207D01*
X175739354Y-151000304D01*
X175796950Y-151113342D01*
X175796952Y-151113344D01*
X175796954Y-151113347D01*
X175886652Y-151203045D01*
X175886654Y-151203046D01*
X175886658Y-151203050D01*
X175997292Y-151259421D01*
X175999698Y-151260647D01*
X176093475Y-151275499D01*
X176093481Y-151275500D01*
X176556518Y-151275499D01*
X176650304Y-151260646D01*
X176763342Y-151203050D01*
X176853050Y-151113342D01*
X176910646Y-151000304D01*
X176910646Y-151000302D01*
X176910647Y-151000301D01*
X176925499Y-150906524D01*
X176925500Y-150906519D01*
X176925499Y-150293482D01*
X176910646Y-150199696D01*
X176853050Y-150086658D01*
X176853046Y-150086654D01*
X176853045Y-150086652D01*
X176761819Y-149995426D01*
X176747115Y-149968498D01*
X176730523Y-149942680D01*
X176729631Y-149936479D01*
X176728334Y-149934103D01*
X176725500Y-149907745D01*
X176725500Y-149692254D01*
X176745185Y-149625215D01*
X176761819Y-149604572D01*
X176763339Y-149603051D01*
X176763342Y-149603050D01*
X176853050Y-149513342D01*
X176910646Y-149400304D01*
X176910646Y-149400302D01*
X176910647Y-149400301D01*
X176925499Y-149306524D01*
X176925500Y-149306519D01*
X176925499Y-148693482D01*
X176910646Y-148599696D01*
X176853050Y-148486658D01*
X176853046Y-148486654D01*
X176853045Y-148486652D01*
X176763347Y-148396954D01*
X176763344Y-148396952D01*
X176763342Y-148396950D01*
X176686517Y-148357805D01*
X176650301Y-148339352D01*
X176556524Y-148324500D01*
X176093482Y-148324500D01*
X175999695Y-148339354D01*
X175892626Y-148393908D01*
X175823957Y-148406804D01*
X175759216Y-148380527D01*
X175721768Y-148330869D01*
X175719798Y-148326112D01*
X175697898Y-148288181D01*
X175660489Y-148223387D01*
X175576613Y-148139511D01*
X175473886Y-148080201D01*
X175359309Y-148049500D01*
X175240691Y-148049500D01*
X175126114Y-148080201D01*
X175126112Y-148080201D01*
X175126112Y-148080202D01*
X175023387Y-148139510D01*
X174939510Y-148223387D01*
X174916927Y-148262502D01*
X174866359Y-148310717D01*
X174809541Y-148324500D01*
X174443482Y-148324500D01*
X174362519Y-148337323D01*
X174349696Y-148339354D01*
X174236658Y-148396950D01*
X174236657Y-148396951D01*
X174236652Y-148396954D01*
X174146954Y-148486652D01*
X174146948Y-148486660D01*
X174139734Y-148500819D01*
X174091758Y-148551614D01*
X174023937Y-148568407D01*
X173957803Y-148545868D01*
X173914353Y-148491151D01*
X173912210Y-148485476D01*
X173896539Y-148440691D01*
X173877793Y-148387118D01*
X173797150Y-148277850D01*
X173687882Y-148197207D01*
X173687880Y-148197206D01*
X173559700Y-148152353D01*
X173529270Y-148149500D01*
X173529266Y-148149500D01*
X172470734Y-148149500D01*
X172470730Y-148149500D01*
X172440300Y-148152353D01*
X172440298Y-148152353D01*
X172312119Y-148197206D01*
X172312117Y-148197207D01*
X172202850Y-148277850D01*
X172122207Y-148387117D01*
X172122206Y-148387119D01*
X172077353Y-148515298D01*
X172077353Y-148515300D01*
X172075311Y-148537079D01*
X172049453Y-148601987D01*
X171992607Y-148642612D01*
X171951853Y-148649500D01*
X171940691Y-148649500D01*
X171826114Y-148680201D01*
X171826112Y-148680201D01*
X171826112Y-148680202D01*
X171723387Y-148739511D01*
X171723384Y-148739513D01*
X171639513Y-148823384D01*
X171639511Y-148823387D01*
X171583046Y-148921187D01*
X171580201Y-148926114D01*
X171549500Y-149040691D01*
X170250500Y-149040691D01*
X170250500Y-148716506D01*
X170234720Y-148616878D01*
X170234719Y-148616876D01*
X170234719Y-148616874D01*
X170173528Y-148496780D01*
X170173526Y-148496778D01*
X170173523Y-148496774D01*
X170126419Y-148449670D01*
X170092934Y-148388347D01*
X170090100Y-148361989D01*
X170090100Y-148102300D01*
X170109785Y-148035261D01*
X170162589Y-147989506D01*
X170214100Y-147978300D01*
X170420550Y-147978300D01*
X170420551Y-147978299D01*
X170435368Y-147975352D01*
X170479029Y-147966668D01*
X170479029Y-147966667D01*
X170479031Y-147966667D01*
X170545352Y-147922352D01*
X170589667Y-147856031D01*
X170589667Y-147856029D01*
X170589668Y-147856029D01*
X170598352Y-147812368D01*
X170601300Y-147797548D01*
X170601300Y-147524500D01*
X170603850Y-147515814D01*
X170602562Y-147506853D01*
X170613540Y-147482812D01*
X170620985Y-147457461D01*
X170627825Y-147451533D01*
X170631587Y-147443297D01*
X170653821Y-147429007D01*
X170673789Y-147411706D01*
X170684303Y-147409418D01*
X170690365Y-147405523D01*
X170725300Y-147400500D01*
X170888467Y-147400500D01*
X170955506Y-147420185D01*
X170998950Y-147468203D01*
X171021950Y-147513342D01*
X171021952Y-147513344D01*
X171021954Y-147513347D01*
X171111652Y-147603045D01*
X171111654Y-147603046D01*
X171111658Y-147603050D01*
X171224694Y-147660645D01*
X171224698Y-147660647D01*
X171318475Y-147675499D01*
X171318481Y-147675500D01*
X171781518Y-147675499D01*
X171875304Y-147660646D01*
X171988342Y-147603050D01*
X172078050Y-147513342D01*
X172135646Y-147400304D01*
X172135646Y-147400302D01*
X172135647Y-147400301D01*
X172149846Y-147310646D01*
X172150500Y-147306519D01*
X172150499Y-146693482D01*
X172150498Y-146693475D01*
X172599500Y-146693475D01*
X172599500Y-147306517D01*
X172605432Y-147343969D01*
X172614354Y-147400304D01*
X172671950Y-147513342D01*
X172671952Y-147513344D01*
X172671954Y-147513347D01*
X172761652Y-147603045D01*
X172761654Y-147603046D01*
X172761658Y-147603050D01*
X172874694Y-147660645D01*
X172874698Y-147660647D01*
X172968475Y-147675499D01*
X172968481Y-147675500D01*
X173431518Y-147675499D01*
X173525304Y-147660646D01*
X173638342Y-147603050D01*
X173728050Y-147513342D01*
X173751049Y-147468203D01*
X173761497Y-147457140D01*
X173767820Y-147443297D01*
X173785000Y-147432255D01*
X173799023Y-147417409D01*
X173814702Y-147413167D01*
X173826598Y-147405523D01*
X173861533Y-147400500D01*
X173913467Y-147400500D01*
X173980506Y-147420185D01*
X174023950Y-147468203D01*
X174046950Y-147513342D01*
X174046952Y-147513344D01*
X174046954Y-147513347D01*
X174136652Y-147603045D01*
X174136654Y-147603046D01*
X174136658Y-147603050D01*
X174249694Y-147660645D01*
X174249698Y-147660647D01*
X174343475Y-147675499D01*
X174343481Y-147675500D01*
X174806518Y-147675499D01*
X174900304Y-147660646D01*
X175013342Y-147603050D01*
X175103050Y-147513342D01*
X175160646Y-147400304D01*
X175160646Y-147400302D01*
X175160647Y-147400301D01*
X175174846Y-147310646D01*
X175175500Y-147306519D01*
X175175499Y-146693482D01*
X175160646Y-146599696D01*
X175103050Y-146486658D01*
X175103046Y-146486654D01*
X175103045Y-146486652D01*
X175013347Y-146396954D01*
X175013344Y-146396952D01*
X175013342Y-146396950D01*
X174919773Y-146349274D01*
X174900301Y-146339352D01*
X174806524Y-146324500D01*
X174343482Y-146324500D01*
X174262519Y-146337323D01*
X174249696Y-146339354D01*
X174136658Y-146396950D01*
X174136657Y-146396951D01*
X174136652Y-146396954D01*
X174046954Y-146486652D01*
X174046951Y-146486657D01*
X174046950Y-146486658D01*
X174023950Y-146531796D01*
X174013502Y-146542859D01*
X174007180Y-146556703D01*
X173989999Y-146567744D01*
X173975977Y-146582591D01*
X173960297Y-146586832D01*
X173948402Y-146594477D01*
X173913467Y-146599500D01*
X173861533Y-146599500D01*
X173794494Y-146579815D01*
X173751049Y-146531796D01*
X173728050Y-146486658D01*
X173728046Y-146486654D01*
X173728045Y-146486652D01*
X173638347Y-146396954D01*
X173638344Y-146396952D01*
X173638342Y-146396950D01*
X173544773Y-146349274D01*
X173525301Y-146339352D01*
X173431524Y-146324500D01*
X172968482Y-146324500D01*
X172887519Y-146337323D01*
X172874696Y-146339354D01*
X172761658Y-146396950D01*
X172761657Y-146396951D01*
X172761652Y-146396954D01*
X172671954Y-146486652D01*
X172671951Y-146486657D01*
X172671950Y-146486658D01*
X172653476Y-146522916D01*
X172614352Y-146599698D01*
X172599500Y-146693475D01*
X172150498Y-146693475D01*
X172135646Y-146599696D01*
X172078050Y-146486658D01*
X172078046Y-146486654D01*
X172078045Y-146486652D01*
X171988347Y-146396954D01*
X171988343Y-146396951D01*
X171988342Y-146396950D01*
X171986616Y-146396070D01*
X171894775Y-146349274D01*
X171843979Y-146301299D01*
X171827185Y-146233478D01*
X171849723Y-146167343D01*
X171894776Y-146128306D01*
X171953220Y-146098528D01*
X172048528Y-146003220D01*
X172109719Y-145883126D01*
X172115353Y-145847554D01*
X172125500Y-145783493D01*
X172125500Y-145216506D01*
X172109720Y-145116878D01*
X172109719Y-145116876D01*
X172109719Y-145116874D01*
X172048528Y-144996780D01*
X172048526Y-144996778D01*
X172048523Y-144996774D01*
X171953225Y-144901476D01*
X171953221Y-144901473D01*
X171953220Y-144901472D01*
X171920863Y-144884985D01*
X171870069Y-144837012D01*
X171853274Y-144769192D01*
X171875811Y-144703057D01*
X171930526Y-144659605D01*
X171977160Y-144650502D01*
X175756169Y-144650502D01*
X175823208Y-144670187D01*
X175843850Y-144686821D01*
X175907029Y-144750000D01*
X172250000Y-144750000D01*
X172250000Y-146250000D01*
X175500000Y-146250000D01*
X175500000Y-147750000D01*
X177323500Y-147750000D01*
X177323500Y-148488562D01*
X177343979Y-148564989D01*
X177373935Y-148616874D01*
X177378338Y-148624500D01*
X177383542Y-148633514D01*
X177383543Y-148633515D01*
X177688181Y-148938152D01*
X177721666Y-148999475D01*
X177724500Y-149025833D01*
X177724500Y-149456517D01*
X177733440Y-149512963D01*
X177739354Y-149550304D01*
X177796950Y-149663342D01*
X177796952Y-149663344D01*
X177796954Y-149663347D01*
X177886652Y-149753045D01*
X177886654Y-149753046D01*
X177886658Y-149753050D01*
X177999696Y-149810646D01*
X177999698Y-149810647D01*
X178093475Y-149825499D01*
X178093481Y-149825500D01*
X178450500Y-149825499D01*
X178517539Y-149845183D01*
X178563294Y-149897987D01*
X178574500Y-149949499D01*
X178574500Y-150103402D01*
X178594979Y-150179829D01*
X178594980Y-150179830D01*
X178609562Y-150205088D01*
X178634537Y-150248347D01*
X178634541Y-150248352D01*
X180013181Y-151626992D01*
X180046666Y-151688315D01*
X180049500Y-151714673D01*
X180049500Y-152700722D01*
X180063152Y-152751673D01*
X180069979Y-152777150D01*
X180069980Y-152777151D01*
X180086934Y-152806517D01*
X180086935Y-152806518D01*
X180109540Y-152845671D01*
X180524380Y-153260511D01*
X180580329Y-153316460D01*
X180580331Y-153316461D01*
X180580335Y-153316464D01*
X180648844Y-153356017D01*
X180648851Y-153356021D01*
X180725278Y-153376500D01*
X180725280Y-153376500D01*
X181774720Y-153376500D01*
X181774722Y-153376500D01*
X181851149Y-153356021D01*
X181919671Y-153316460D01*
X181975620Y-153260511D01*
X182358083Y-152878048D01*
X207139500Y-152878048D01*
X207139500Y-153121951D01*
X207157743Y-153260511D01*
X207171334Y-153363744D01*
X207208147Y-153501132D01*
X207234456Y-153599320D01*
X207234459Y-153599330D01*
X207327786Y-153824640D01*
X207327791Y-153824651D01*
X207449727Y-154035848D01*
X207449738Y-154035864D01*
X207598199Y-154229343D01*
X207598205Y-154229350D01*
X207770649Y-154401794D01*
X207770655Y-154401799D01*
X207964144Y-154550268D01*
X207964151Y-154550272D01*
X208175348Y-154672208D01*
X208175353Y-154672210D01*
X208175356Y-154672212D01*
X208400679Y-154765544D01*
X208636256Y-154828666D01*
X208878056Y-154860500D01*
X208878063Y-154860500D01*
X209121937Y-154860500D01*
X209121944Y-154860500D01*
X209363744Y-154828666D01*
X209599321Y-154765544D01*
X209824644Y-154672212D01*
X210035856Y-154550268D01*
X210229345Y-154401799D01*
X210401799Y-154229345D01*
X210550268Y-154035856D01*
X210672212Y-153824644D01*
X210765544Y-153599321D01*
X210828666Y-153363744D01*
X210860500Y-153121944D01*
X210860500Y-152878056D01*
X210828666Y-152636256D01*
X210765544Y-152400679D01*
X210672212Y-152175356D01*
X210672210Y-152175353D01*
X210672208Y-152175348D01*
X210550272Y-151964151D01*
X210550268Y-151964144D01*
X210474139Y-151864930D01*
X210401800Y-151770656D01*
X210401794Y-151770649D01*
X210229350Y-151598205D01*
X210229343Y-151598199D01*
X210035864Y-151449738D01*
X210035862Y-151449736D01*
X210035856Y-151449732D01*
X210035851Y-151449729D01*
X210035848Y-151449727D01*
X209824651Y-151327791D01*
X209824640Y-151327786D01*
X209599330Y-151234459D01*
X209599323Y-151234457D01*
X209599321Y-151234456D01*
X209363744Y-151171334D01*
X209313461Y-151164714D01*
X209121951Y-151139500D01*
X209121944Y-151139500D01*
X208878056Y-151139500D01*
X208878048Y-151139500D01*
X208647896Y-151169801D01*
X208636256Y-151171334D01*
X208517889Y-151203050D01*
X208400679Y-151234456D01*
X208400669Y-151234459D01*
X208175359Y-151327786D01*
X208175348Y-151327791D01*
X207964151Y-151449727D01*
X207964135Y-151449738D01*
X207770656Y-151598199D01*
X207770649Y-151598205D01*
X207598205Y-151770649D01*
X207598199Y-151770656D01*
X207449738Y-151964135D01*
X207449727Y-151964151D01*
X207327791Y-152175348D01*
X207327786Y-152175359D01*
X207234459Y-152400669D01*
X207234456Y-152400679D01*
X207181530Y-152598206D01*
X207171335Y-152636253D01*
X207171333Y-152636264D01*
X207139500Y-152878048D01*
X182358083Y-152878048D01*
X184215460Y-151020671D01*
X184242863Y-150973207D01*
X184255021Y-150952149D01*
X184275500Y-150875722D01*
X184275500Y-148949271D01*
X184295185Y-148882232D01*
X184343203Y-148838787D01*
X184413342Y-148803050D01*
X184503050Y-148713342D01*
X184560646Y-148600304D01*
X184560646Y-148600302D01*
X184560647Y-148600301D01*
X184574109Y-148515300D01*
X184575500Y-148506519D01*
X184575499Y-147893482D01*
X184560646Y-147799696D01*
X184503050Y-147686658D01*
X184503046Y-147686654D01*
X184503045Y-147686652D01*
X184413347Y-147596954D01*
X184413344Y-147596952D01*
X184413342Y-147596950D01*
X184340789Y-147559982D01*
X184289995Y-147512009D01*
X184273200Y-147444188D01*
X184295737Y-147378053D01*
X184350453Y-147334602D01*
X184397085Y-147325499D01*
X184406518Y-147325499D01*
X184500304Y-147310646D01*
X184613342Y-147253050D01*
X184703050Y-147163342D01*
X184738787Y-147093203D01*
X184786761Y-147042409D01*
X184849271Y-147025500D01*
X185150728Y-147025500D01*
X185217767Y-147045185D01*
X185261212Y-147093204D01*
X185296949Y-147163340D01*
X185296954Y-147163347D01*
X185386652Y-147253045D01*
X185386655Y-147253047D01*
X185386658Y-147253050D01*
X185459208Y-147290016D01*
X185510004Y-147337989D01*
X185526799Y-147405810D01*
X185504262Y-147471945D01*
X185449547Y-147515397D01*
X185402922Y-147524500D01*
X185393484Y-147524500D01*
X185317345Y-147536558D01*
X185299696Y-147539354D01*
X185186658Y-147596950D01*
X185186657Y-147596951D01*
X185186652Y-147596954D01*
X185096954Y-147686652D01*
X185096951Y-147686657D01*
X185039352Y-147799698D01*
X185024500Y-147893475D01*
X185024500Y-148506517D01*
X185033761Y-148564989D01*
X185039354Y-148600304D01*
X185096950Y-148713342D01*
X185096952Y-148713344D01*
X185096954Y-148713347D01*
X185186652Y-148803045D01*
X185186654Y-148803046D01*
X185186658Y-148803050D01*
X185299388Y-148860489D01*
X185299698Y-148860647D01*
X185393475Y-148875499D01*
X185393481Y-148875500D01*
X185856518Y-148875499D01*
X185950304Y-148860646D01*
X186063342Y-148803050D01*
X186153050Y-148713342D01*
X186210646Y-148600304D01*
X186210646Y-148600302D01*
X186210647Y-148600301D01*
X186224109Y-148515300D01*
X186225500Y-148506519D01*
X186225499Y-148075831D01*
X186245183Y-148008793D01*
X186261813Y-147988156D01*
X186833398Y-147416571D01*
X186894720Y-147383088D01*
X186964412Y-147388072D01*
X187008759Y-147416573D01*
X187092686Y-147500500D01*
X187206814Y-147566392D01*
X187334108Y-147600500D01*
X187334110Y-147600500D01*
X187465890Y-147600500D01*
X187465892Y-147600500D01*
X187593186Y-147566392D01*
X187707314Y-147500500D01*
X187800500Y-147407314D01*
X187866392Y-147293186D01*
X187900500Y-147165892D01*
X187900500Y-147034108D01*
X187866392Y-146906814D01*
X187834512Y-146851597D01*
X187817113Y-146821460D01*
X187812962Y-146805971D01*
X187805523Y-146794395D01*
X187800500Y-146759460D01*
X187800500Y-146697200D01*
X187820185Y-146630161D01*
X187868205Y-146586715D01*
X187870302Y-146585646D01*
X187870304Y-146585646D01*
X187983342Y-146528050D01*
X188026693Y-146484699D01*
X188074574Y-146436819D01*
X188101501Y-146422115D01*
X188127320Y-146405523D01*
X188133520Y-146404631D01*
X188135897Y-146403334D01*
X188162255Y-146400500D01*
X188307745Y-146400500D01*
X188374784Y-146420185D01*
X188395426Y-146436819D01*
X188486652Y-146528045D01*
X188486654Y-146528046D01*
X188486658Y-146528050D01*
X188598479Y-146585026D01*
X188599698Y-146585647D01*
X188693475Y-146600499D01*
X188693481Y-146600500D01*
X189306518Y-146600499D01*
X189400304Y-146585646D01*
X189513342Y-146528050D01*
X189603050Y-146438342D01*
X189660646Y-146325304D01*
X189660646Y-146325302D01*
X189660647Y-146325301D01*
X189675499Y-146231524D01*
X189675500Y-146231519D01*
X189675499Y-145768482D01*
X189660646Y-145674696D01*
X189660644Y-145674692D01*
X189659823Y-145672164D01*
X189659730Y-145668916D01*
X189659119Y-145665057D01*
X189659617Y-145664978D01*
X189657828Y-145602323D01*
X189693908Y-145542490D01*
X189756609Y-145511661D01*
X189779651Y-145509860D01*
X195977202Y-145605208D01*
X196038030Y-145602476D01*
X196067689Y-145599346D01*
X196127770Y-145589315D01*
X209516885Y-142514778D01*
X209559619Y-142502655D01*
X209566149Y-142500804D01*
X209566152Y-142500802D01*
X209566166Y-142500799D01*
X209589925Y-142492738D01*
X209637504Y-142473859D01*
X209758543Y-142396071D01*
X209811347Y-142350316D01*
X209905567Y-142241582D01*
X209965338Y-142110705D01*
X209985023Y-142043666D01*
X209985024Y-142043662D01*
X210005500Y-141901246D01*
X210005500Y-131656323D01*
X209993947Y-131548867D01*
X209982741Y-131497356D01*
X209982637Y-131497045D01*
X209948616Y-131394825D01*
X209948613Y-131394819D01*
X209907116Y-131330249D01*
X209870825Y-131273780D01*
X209870820Y-131273774D01*
X209825076Y-131220982D01*
X209825072Y-131220979D01*
X209825070Y-131220976D01*
X209716336Y-131126756D01*
X209716333Y-131126754D01*
X209716331Y-131126753D01*
X209585465Y-131066987D01*
X209585460Y-131066985D01*
X209585459Y-131066985D01*
X209518420Y-131047300D01*
X209518422Y-131047300D01*
X209518417Y-131047299D01*
X209465820Y-131039737D01*
X209376000Y-131026823D01*
X205792344Y-131026823D01*
X205792336Y-131026823D01*
X205713679Y-131032980D01*
X205713676Y-131032981D01*
X205675556Y-131038986D01*
X205675546Y-131038988D01*
X205598807Y-131057312D01*
X205469577Y-131120584D01*
X205466603Y-131122611D01*
X205461574Y-131126036D01*
X205461513Y-131126060D01*
X205461227Y-131126272D01*
X205459027Y-131127772D01*
X205459011Y-131127784D01*
X205420904Y-131153750D01*
X205399062Y-131168633D01*
X205397442Y-131171800D01*
X205381758Y-131185762D01*
X205346341Y-131212275D01*
X205346330Y-131212284D01*
X205260433Y-131298180D01*
X205241644Y-131313599D01*
X205197261Y-131343255D01*
X205175822Y-131354714D01*
X205126492Y-131375147D01*
X205103233Y-131382203D01*
X205050880Y-131392617D01*
X205026691Y-131395000D01*
X204973310Y-131395000D01*
X204949118Y-131392617D01*
X204896756Y-131382201D01*
X204873496Y-131375145D01*
X204737587Y-131318850D01*
X204714283Y-131311778D01*
X204698890Y-131305078D01*
X204698887Y-131305077D01*
X204631507Y-131286594D01*
X204613579Y-131284342D01*
X204488749Y-131268666D01*
X204366646Y-131288456D01*
X204346723Y-131291685D01*
X204346721Y-131291685D01*
X204346718Y-131291686D01*
X204282283Y-131311862D01*
X204282237Y-131311878D01*
X204280047Y-131312564D01*
X204279976Y-131312586D01*
X204279255Y-131312931D01*
X204275610Y-131314218D01*
X204273297Y-131314342D01*
X204126492Y-131375147D01*
X204103237Y-131382202D01*
X204081315Y-131386563D01*
X204050879Y-131392617D01*
X204026691Y-131395000D01*
X203973312Y-131395000D01*
X203949119Y-131392617D01*
X203934536Y-131389716D01*
X203896754Y-131382200D01*
X203873497Y-131375145D01*
X203824180Y-131354718D01*
X203802740Y-131343258D01*
X203758360Y-131313604D01*
X203739570Y-131298184D01*
X203664838Y-131223453D01*
X203663869Y-131221679D01*
X203659220Y-131217540D01*
X203653993Y-131212607D01*
X203653677Y-131212291D01*
X203640751Y-131201083D01*
X203639532Y-131200012D01*
X203623526Y-131185762D01*
X203610828Y-131174457D01*
X203610819Y-131174450D01*
X203607730Y-131172105D01*
X203604509Y-131169660D01*
X203599426Y-131165252D01*
X203596837Y-131163836D01*
X203593276Y-131161133D01*
X203589471Y-131158244D01*
X203547994Y-131126757D01*
X203534477Y-131120584D01*
X203523174Y-131115422D01*
X203417118Y-131066986D01*
X203350073Y-131047299D01*
X203297476Y-131039737D01*
X203207656Y-131026823D01*
X196170972Y-131026823D01*
X196170963Y-131026823D01*
X196090449Y-131033278D01*
X196090420Y-131033282D01*
X196053412Y-131039254D01*
X196046263Y-131040196D01*
X196016911Y-131043195D01*
X196005537Y-131044357D01*
X195992937Y-131044999D01*
X195007064Y-131044999D01*
X194994464Y-131044357D01*
X194969929Y-131041851D01*
X194952866Y-131038892D01*
X194944941Y-131036939D01*
X194931213Y-131033557D01*
X194931203Y-131033555D01*
X194893016Y-131027269D01*
X194892997Y-131027266D01*
X194814105Y-131020564D01*
X194814113Y-131020564D01*
X194205518Y-131016707D01*
X194205517Y-131016707D01*
X194205516Y-131016707D01*
X194193128Y-131017641D01*
X194123356Y-131022901D01*
X194083585Y-131029190D01*
X194040766Y-131039596D01*
X194024094Y-131042459D01*
X194005534Y-131044356D01*
X193992926Y-131044999D01*
X193007066Y-131044999D01*
X192994455Y-131044356D01*
X192993739Y-131044282D01*
X192991911Y-131044096D01*
X192971472Y-131040137D01*
X192971467Y-131040160D01*
X192971015Y-131040048D01*
X192970170Y-131039885D01*
X192969107Y-131039578D01*
X192892231Y-131020637D01*
X192892215Y-131020634D01*
X192854016Y-131014345D01*
X192775106Y-131007641D01*
X192775118Y-131007641D01*
X191431592Y-130999126D01*
X190715053Y-130994585D01*
X190715051Y-130994585D01*
X190715045Y-130994585D01*
X190666908Y-130996576D01*
X190643412Y-130998673D01*
X190595694Y-131005235D01*
X184788028Y-132088021D01*
X184718516Y-132080958D01*
X184663858Y-132037434D01*
X184646644Y-132002129D01*
X184634618Y-131962496D01*
X184556830Y-131841457D01*
X184556825Y-131841451D01*
X184511081Y-131788659D01*
X184511077Y-131788656D01*
X184511075Y-131788653D01*
X184402341Y-131694433D01*
X184402338Y-131694431D01*
X184402336Y-131694430D01*
X184271470Y-131634664D01*
X184271465Y-131634662D01*
X184271464Y-131634662D01*
X184204425Y-131614977D01*
X184204427Y-131614977D01*
X184204422Y-131614976D01*
X184142352Y-131606052D01*
X184062005Y-131594500D01*
X182384500Y-131594500D01*
X182384491Y-131594500D01*
X182384490Y-131594501D01*
X182277049Y-131606052D01*
X182277037Y-131606054D01*
X182225527Y-131617260D01*
X182123002Y-131651383D01*
X182122996Y-131651386D01*
X182001962Y-131729171D01*
X182001951Y-131729179D01*
X181949159Y-131774923D01*
X181854933Y-131883664D01*
X181854930Y-131883668D01*
X181795164Y-132014534D01*
X181775475Y-132081583D01*
X181773023Y-132098646D01*
X181743999Y-132162202D01*
X181685222Y-132199978D01*
X181650285Y-132205001D01*
X181290836Y-132205001D01*
X181223797Y-132185316D01*
X181220111Y-132182854D01*
X181217605Y-132181114D01*
X181213432Y-132178432D01*
X181202720Y-132171548D01*
X181186968Y-132162202D01*
X181171685Y-132153134D01*
X181171683Y-132153133D01*
X181171681Y-132153132D01*
X181119175Y-132133549D01*
X181036877Y-132102854D01*
X181036870Y-132102852D01*
X180968612Y-132088004D01*
X180968594Y-132088001D01*
X180825095Y-132077738D01*
X180825094Y-132077738D01*
X180684505Y-132108320D01*
X180684498Y-132108322D01*
X180627598Y-132129544D01*
X180627590Y-132129547D01*
X180619040Y-132132737D01*
X180619026Y-132132742D01*
X180513924Y-132190134D01*
X180513376Y-132190427D01*
X180506882Y-132191771D01*
X180455050Y-132205001D01*
X180020836Y-132205001D01*
X179953797Y-132185316D01*
X179950111Y-132182854D01*
X179947605Y-132181114D01*
X179943432Y-132178432D01*
X179932720Y-132171548D01*
X179916968Y-132162202D01*
X179901685Y-132153134D01*
X179901683Y-132153133D01*
X179901681Y-132153132D01*
X179849175Y-132133549D01*
X179766877Y-132102854D01*
X179766870Y-132102852D01*
X179698612Y-132088004D01*
X179698594Y-132088001D01*
X179555095Y-132077738D01*
X179555094Y-132077738D01*
X179414505Y-132108320D01*
X179414498Y-132108322D01*
X179357598Y-132129544D01*
X179357590Y-132129547D01*
X179349040Y-132132737D01*
X179349026Y-132132742D01*
X179243924Y-132190134D01*
X179243376Y-132190427D01*
X179236882Y-132191771D01*
X179185050Y-132205001D01*
X178750836Y-132205001D01*
X178683797Y-132185316D01*
X178680111Y-132182854D01*
X178677605Y-132181114D01*
X178673432Y-132178432D01*
X178662720Y-132171548D01*
X178646968Y-132162202D01*
X178631685Y-132153134D01*
X178631683Y-132153133D01*
X178631681Y-132153132D01*
X178579175Y-132133549D01*
X178496877Y-132102854D01*
X178496870Y-132102852D01*
X178428612Y-132088004D01*
X178428594Y-132088001D01*
X178286028Y-132077805D01*
X178220563Y-132053388D01*
X178178692Y-131997454D01*
X178173708Y-131927763D01*
X178175088Y-131922072D01*
X178195500Y-131845893D01*
X178195500Y-131714109D01*
X178161392Y-131586815D01*
X178161389Y-131586809D01*
X178159938Y-131583304D01*
X178150500Y-131535855D01*
X178150500Y-131330249D01*
X178150499Y-131330247D01*
X178138868Y-131271770D01*
X178138867Y-131271769D01*
X178094552Y-131205447D01*
X178028230Y-131161132D01*
X178028229Y-131161131D01*
X177969752Y-131149500D01*
X177969748Y-131149500D01*
X177420252Y-131149500D01*
X177420247Y-131149500D01*
X177361770Y-131161131D01*
X177361769Y-131161132D01*
X177295447Y-131205447D01*
X177251132Y-131271769D01*
X177251131Y-131271770D01*
X177239500Y-131330247D01*
X177239500Y-131535855D01*
X177237869Y-131544045D01*
X177238787Y-131549134D01*
X177230052Y-131583330D01*
X177228715Y-131586556D01*
X177184863Y-131640951D01*
X177118564Y-131663003D01*
X177062650Y-131651875D01*
X177061581Y-131651387D01*
X177052939Y-131647440D01*
X177024963Y-131634663D01*
X176957918Y-131614976D01*
X176895848Y-131606052D01*
X176815501Y-131594500D01*
X170989671Y-131594500D01*
X170985906Y-131594550D01*
X170976093Y-131594682D01*
X170969512Y-131594859D01*
X170969497Y-131594859D01*
X170969482Y-131594860D01*
X170958184Y-131595314D01*
X170955974Y-131595403D01*
X170955970Y-131595403D01*
X170814860Y-131623473D01*
X170814853Y-131623474D01*
X170748981Y-131646713D01*
X170748968Y-131646719D01*
X170621477Y-131713408D01*
X170517949Y-131813305D01*
X170517937Y-131813318D01*
X170475607Y-131867808D01*
X170475133Y-131868409D01*
X170475077Y-131868490D01*
X170403880Y-131993523D01*
X170403880Y-131993524D01*
X170370793Y-132133549D01*
X170364696Y-132201695D01*
X170364566Y-132203145D01*
X170372266Y-132346807D01*
X170372267Y-132346814D01*
X170392617Y-132449116D01*
X170395000Y-132473308D01*
X170395000Y-132526689D01*
X170392617Y-132550881D01*
X170382203Y-132603235D01*
X170375149Y-132626492D01*
X170373824Y-132629689D01*
X170355665Y-132681253D01*
X170348156Y-132706929D01*
X170348150Y-132706952D01*
X170335678Y-132760109D01*
X170330842Y-132903899D01*
X170338455Y-132973347D01*
X170338456Y-132973354D01*
X170338457Y-132973358D01*
X170338458Y-132973365D01*
X170374329Y-133112689D01*
X170374330Y-133112693D01*
X170737960Y-133985403D01*
X170747498Y-134033095D01*
X170747498Y-137975053D01*
X170759129Y-138033530D01*
X170759130Y-138033531D01*
X170803445Y-138099853D01*
X170869767Y-138144168D01*
X170869768Y-138144169D01*
X170928245Y-138155800D01*
X170928248Y-138155801D01*
X170928250Y-138155801D01*
X172393154Y-138155801D01*
X172460193Y-138175486D01*
X172505948Y-138228290D01*
X172506371Y-138229226D01*
X172509845Y-138237004D01*
X172587629Y-138358037D01*
X172587638Y-138358048D01*
X172633382Y-138410840D01*
X172633385Y-138410843D01*
X172633389Y-138410847D01*
X172742123Y-138505067D01*
X172742126Y-138505068D01*
X172742127Y-138505069D01*
X172860584Y-138559168D01*
X172873000Y-138564838D01*
X172940039Y-138584523D01*
X172940043Y-138584524D01*
X172940053Y-138584525D01*
X172940169Y-138584555D01*
X172990182Y-138594749D01*
X172990076Y-138595288D01*
X173103471Y-138617842D01*
X173103816Y-138617913D01*
X173104073Y-138618049D01*
X173126501Y-138624853D01*
X173175817Y-138645280D01*
X173197256Y-138656739D01*
X173241642Y-138686397D01*
X173260432Y-138701818D01*
X173298178Y-138739564D01*
X173313595Y-138758348D01*
X173343260Y-138802744D01*
X173354718Y-138824181D01*
X173375147Y-138873504D01*
X173382202Y-138896760D01*
X173392617Y-138949113D01*
X173395000Y-138973307D01*
X173395000Y-139026688D01*
X173392617Y-139050881D01*
X173382201Y-139103241D01*
X173375145Y-139126500D01*
X173354716Y-139175821D01*
X173343258Y-139197259D01*
X173263801Y-139316175D01*
X173263756Y-139316680D01*
X173257512Y-139330130D01*
X173254260Y-139336160D01*
X173242233Y-139353561D01*
X173211088Y-139416106D01*
X173211086Y-139416110D01*
X173210980Y-139416431D01*
X173165933Y-139552722D01*
X173161099Y-139696515D01*
X173168714Y-139765975D01*
X173204586Y-139905304D01*
X173204587Y-139905308D01*
X173260767Y-140040139D01*
X173268381Y-140109592D01*
X173237236Y-140172137D01*
X173177222Y-140207915D01*
X173107392Y-140205567D01*
X173088374Y-140197467D01*
X173087882Y-140197207D01*
X172959700Y-140152353D01*
X172929270Y-140149500D01*
X172929266Y-140149500D01*
X171870734Y-140149500D01*
X171870730Y-140149500D01*
X171840300Y-140152353D01*
X171840298Y-140152353D01*
X171712119Y-140197206D01*
X171712117Y-140197207D01*
X171602850Y-140277850D01*
X171522207Y-140387117D01*
X171522206Y-140387119D01*
X171477353Y-140515298D01*
X171477353Y-140515300D01*
X171474500Y-140545730D01*
X171474500Y-141157165D01*
X171473158Y-141157165D01*
X171466451Y-141184532D01*
X171459358Y-141217142D01*
X171458022Y-141218926D01*
X171457767Y-141219968D01*
X171438208Y-141245397D01*
X171370425Y-141313182D01*
X171309102Y-141346668D01*
X171282742Y-141349502D01*
X169636873Y-141349502D01*
X169569789Y-141367477D01*
X169537696Y-141371702D01*
X168958647Y-141371702D01*
X168900170Y-141383333D01*
X168900169Y-141383334D01*
X168833847Y-141427649D01*
X168789532Y-141493971D01*
X168789531Y-141493972D01*
X168777900Y-141552449D01*
X168777900Y-141947554D01*
X168789531Y-142006031D01*
X168789585Y-142006111D01*
X168789647Y-142006309D01*
X168794206Y-142017315D01*
X168793220Y-142017723D01*
X168810462Y-142072789D01*
X168794047Y-142132622D01*
X168794206Y-142132688D01*
X168793682Y-142133950D01*
X168791977Y-142140169D01*
X168789588Y-142143886D01*
X168789533Y-142143967D01*
X168789531Y-142143971D01*
X168777900Y-142202448D01*
X168777900Y-142597553D01*
X168789531Y-142656030D01*
X168789532Y-142656032D01*
X168789584Y-142656109D01*
X168789644Y-142656301D01*
X168794206Y-142667314D01*
X168793220Y-142667722D01*
X168810463Y-142722786D01*
X168794048Y-142782623D01*
X168794206Y-142782689D01*
X168793685Y-142783946D01*
X168791979Y-142790166D01*
X168789587Y-142793888D01*
X168789534Y-142793966D01*
X168789531Y-142793972D01*
X168777900Y-142852449D01*
X168777900Y-143247554D01*
X168789531Y-143306031D01*
X168789585Y-143306111D01*
X168789647Y-143306309D01*
X168794206Y-143317315D01*
X168793220Y-143317723D01*
X168810462Y-143372789D01*
X168794047Y-143432622D01*
X168794206Y-143432688D01*
X168793682Y-143433950D01*
X168791977Y-143440169D01*
X168789588Y-143443886D01*
X168789533Y-143443967D01*
X168789531Y-143443971D01*
X168777900Y-143502448D01*
X168777900Y-143897553D01*
X168789531Y-143956030D01*
X168789532Y-143956032D01*
X168789584Y-143956109D01*
X168789644Y-143956301D01*
X168794206Y-143967314D01*
X168793220Y-143967722D01*
X168810463Y-144022786D01*
X168794048Y-144082623D01*
X168794206Y-144082689D01*
X168793685Y-144083946D01*
X168791979Y-144090166D01*
X168789587Y-144093888D01*
X168789534Y-144093966D01*
X168789531Y-144093972D01*
X168777900Y-144152449D01*
X168777900Y-144547554D01*
X168789531Y-144606031D01*
X168789532Y-144606032D01*
X168833847Y-144672354D01*
X168900169Y-144716669D01*
X168900170Y-144716670D01*
X168958647Y-144728301D01*
X168958650Y-144728302D01*
X168958652Y-144728302D01*
X170420550Y-144728302D01*
X170420551Y-144728301D01*
X170440218Y-144724389D01*
X170479028Y-144716670D01*
X170479028Y-144716669D01*
X170479031Y-144716669D01*
X170545352Y-144672354D01*
X170545352Y-144672353D01*
X170546779Y-144671400D01*
X170613457Y-144650522D01*
X170615671Y-144650502D01*
X170972840Y-144650502D01*
X171039879Y-144670187D01*
X171085634Y-144722991D01*
X171095578Y-144792149D01*
X171066553Y-144855705D01*
X171029137Y-144884984D01*
X170997624Y-144901041D01*
X170996778Y-144901473D01*
X170996774Y-144901476D01*
X170901476Y-144996774D01*
X170901473Y-144996778D01*
X170840279Y-145116878D01*
X170835841Y-145144901D01*
X170805911Y-145208036D01*
X170746599Y-145244966D01*
X170713368Y-145249502D01*
X169636873Y-145249502D01*
X169569789Y-145267477D01*
X169537696Y-145271702D01*
X168958647Y-145271702D01*
X168900170Y-145283333D01*
X168900169Y-145283334D01*
X168833847Y-145327649D01*
X168789532Y-145393971D01*
X168789531Y-145393972D01*
X168777900Y-145452449D01*
X168777900Y-145847554D01*
X168789531Y-145906031D01*
X168789532Y-145906032D01*
X168833847Y-145972354D01*
X168900169Y-146016669D01*
X168900170Y-146016670D01*
X168958647Y-146028301D01*
X168958650Y-146028302D01*
X168958652Y-146028302D01*
X169537696Y-146028302D01*
X169569789Y-146032527D01*
X169636873Y-146050502D01*
X170897391Y-146050502D01*
X170959146Y-146066974D01*
X170973428Y-146075176D01*
X170996780Y-146098528D01*
X171116874Y-146159719D01*
X171122066Y-146160541D01*
X171136713Y-146168953D01*
X171152325Y-146185252D01*
X171170958Y-146197995D01*
X171176029Y-146209999D01*
X171185044Y-146219410D01*
X171189366Y-146241563D01*
X171198151Y-146262356D01*
X171195927Y-146275196D01*
X171198423Y-146287986D01*
X171190081Y-146308959D01*
X171186231Y-146331201D01*
X171177418Y-146340801D01*
X171172603Y-146352910D01*
X171154246Y-146366044D01*
X171138983Y-146382673D01*
X171131254Y-146386965D01*
X171111659Y-146396949D01*
X171111652Y-146396954D01*
X171021954Y-146486652D01*
X171021951Y-146486657D01*
X171021950Y-146486658D01*
X170998950Y-146531796D01*
X170950977Y-146582591D01*
X170888467Y-146599500D01*
X170540839Y-146599500D01*
X170491548Y-146585026D01*
X170490313Y-146588008D01*
X170479029Y-146583333D01*
X170420552Y-146571702D01*
X170420548Y-146571702D01*
X169841505Y-146571702D01*
X169809413Y-146567477D01*
X169742328Y-146549502D01*
X169742327Y-146549502D01*
X169636873Y-146549502D01*
X169636871Y-146549502D01*
X169569787Y-146567477D01*
X169537695Y-146571702D01*
X168958647Y-146571702D01*
X168900170Y-146583333D01*
X168900169Y-146583334D01*
X168833847Y-146627649D01*
X168789532Y-146693971D01*
X168789531Y-146693972D01*
X168777900Y-146752449D01*
X168777900Y-147147554D01*
X168789531Y-147206031D01*
X168789585Y-147206111D01*
X168789647Y-147206309D01*
X168794206Y-147217315D01*
X168793220Y-147217723D01*
X168810462Y-147272789D01*
X168794047Y-147332621D01*
X168794206Y-147332687D01*
X168793683Y-147333947D01*
X168791977Y-147340169D01*
X168789585Y-147343891D01*
X168789532Y-147343970D01*
X168789531Y-147343970D01*
X168777900Y-147402447D01*
X168777900Y-147797552D01*
X168789531Y-147856029D01*
X168789532Y-147856030D01*
X168833847Y-147922352D01*
X168900169Y-147966667D01*
X168900170Y-147966668D01*
X168958647Y-147978299D01*
X168958650Y-147978300D01*
X168958652Y-147978300D01*
X169165100Y-147978300D01*
X169173785Y-147980850D01*
X169182747Y-147979562D01*
X169206787Y-147990540D01*
X169232139Y-147997985D01*
X169238066Y-148004825D01*
X169246303Y-148008587D01*
X169260592Y-148030821D01*
X169277894Y-148050789D01*
X169280181Y-148061303D01*
X169284077Y-148067365D01*
X169289100Y-148102300D01*
X169289100Y-148240230D01*
X169269415Y-148307269D01*
X169221396Y-148350714D01*
X169121781Y-148401471D01*
X169121774Y-148401476D01*
X169026476Y-148496774D01*
X169026473Y-148496778D01*
X168965279Y-148616878D01*
X168949500Y-148716506D01*
X168949500Y-149083745D01*
X168943261Y-149104990D01*
X168941682Y-149127079D01*
X168933609Y-149137862D01*
X168929815Y-149150784D01*
X168913081Y-149165283D01*
X168899810Y-149183012D01*
X168887189Y-149187719D01*
X168877011Y-149196539D01*
X168855093Y-149199690D01*
X168834346Y-149207429D01*
X168821185Y-149204566D01*
X168807853Y-149206483D01*
X168787709Y-149197283D01*
X168766073Y-149192577D01*
X168748347Y-149179308D01*
X168744297Y-149177458D01*
X168737819Y-149171426D01*
X168736819Y-149170426D01*
X168703334Y-149109103D01*
X168700500Y-149082745D01*
X168700500Y-148716506D01*
X168684720Y-148616878D01*
X168684719Y-148616876D01*
X168684719Y-148616874D01*
X168623528Y-148496780D01*
X168623526Y-148496778D01*
X168623523Y-148496774D01*
X168528225Y-148401476D01*
X168528221Y-148401473D01*
X168528220Y-148401472D01*
X168408126Y-148340281D01*
X168408124Y-148340280D01*
X168408121Y-148340279D01*
X168308493Y-148324500D01*
X168308488Y-148324500D01*
X167992255Y-148324500D01*
X167925216Y-148304815D01*
X167904574Y-148288181D01*
X166895913Y-147279520D01*
X166895911Y-147279518D01*
X166815914Y-147233331D01*
X166804587Y-147226791D01*
X166748645Y-147211802D01*
X166702725Y-147199498D01*
X164052727Y-147199498D01*
X163947273Y-147199498D01*
X163880189Y-147217473D01*
X163848096Y-147221698D01*
X163269049Y-147221698D01*
X163262987Y-147222295D01*
X163262716Y-147219545D01*
X163204889Y-147214265D01*
X163149790Y-147171301D01*
X163126666Y-147105369D01*
X163126500Y-147098958D01*
X163126500Y-146801037D01*
X163146185Y-146733998D01*
X163198989Y-146688243D01*
X163262853Y-146679060D01*
X163262987Y-146677701D01*
X163269050Y-146678298D01*
X163269052Y-146678298D01*
X164730950Y-146678298D01*
X164730951Y-146678297D01*
X164751716Y-146674167D01*
X164789429Y-146666666D01*
X164789429Y-146666665D01*
X164789431Y-146666665D01*
X164855752Y-146622350D01*
X164900067Y-146556029D01*
X164900067Y-146556027D01*
X164900068Y-146556027D01*
X164911699Y-146497550D01*
X164911700Y-146497548D01*
X164911700Y-146102447D01*
X164911699Y-146102445D01*
X164900068Y-146043968D01*
X164900067Y-146043966D01*
X164900016Y-146043890D01*
X164899955Y-146043697D01*
X164895394Y-146032685D01*
X164896379Y-146032276D01*
X164879137Y-145977213D01*
X164895551Y-145917377D01*
X164895394Y-145917312D01*
X164895913Y-145916058D01*
X164897621Y-145909833D01*
X164900005Y-145906122D01*
X164900067Y-145906030D01*
X164901234Y-145900167D01*
X164907787Y-145867217D01*
X164911700Y-145847547D01*
X164911700Y-145452451D01*
X164911700Y-145452449D01*
X164911700Y-145452448D01*
X164911699Y-145452446D01*
X164900068Y-145393970D01*
X164900016Y-145393892D01*
X164899954Y-145393695D01*
X164895394Y-145382686D01*
X164896378Y-145382277D01*
X164879136Y-145327216D01*
X164895549Y-145267375D01*
X164895394Y-145267311D01*
X164895907Y-145266071D01*
X164897618Y-145259835D01*
X164899988Y-145256147D01*
X164900067Y-145256029D01*
X164911700Y-145197546D01*
X164911700Y-144802450D01*
X164911700Y-144802447D01*
X164911699Y-144802445D01*
X164900068Y-144743968D01*
X164900067Y-144743966D01*
X164900016Y-144743890D01*
X164899955Y-144743697D01*
X164895394Y-144732685D01*
X164896379Y-144732276D01*
X164879137Y-144677213D01*
X164895551Y-144617377D01*
X164895394Y-144617312D01*
X164895913Y-144616058D01*
X164897621Y-144609833D01*
X164900005Y-144606122D01*
X164900067Y-144606030D01*
X164911700Y-144547547D01*
X164911700Y-144152451D01*
X164911700Y-144152449D01*
X164911700Y-144152448D01*
X164911699Y-144152446D01*
X164900068Y-144093970D01*
X164900067Y-144093968D01*
X164900018Y-144093895D01*
X164899960Y-144093709D01*
X164895394Y-144082686D01*
X164896379Y-144082277D01*
X164879137Y-144027221D01*
X164895550Y-143967378D01*
X164895394Y-143967314D01*
X164895908Y-143966072D01*
X164897618Y-143959839D01*
X164900004Y-143956124D01*
X164900067Y-143956032D01*
X164901367Y-143949500D01*
X164911699Y-143897553D01*
X164911700Y-143897551D01*
X164911700Y-143502450D01*
X164911699Y-143502448D01*
X164900068Y-143443972D01*
X164900016Y-143443894D01*
X164899954Y-143443697D01*
X164895394Y-143432688D01*
X164896378Y-143432279D01*
X164879136Y-143377218D01*
X164895549Y-143317376D01*
X164895394Y-143317312D01*
X164895908Y-143316070D01*
X164897618Y-143309837D01*
X164900016Y-143306106D01*
X164900067Y-143306030D01*
X164902060Y-143296014D01*
X164909123Y-143260500D01*
X164911700Y-143247547D01*
X164911700Y-142852451D01*
X164911700Y-142852449D01*
X164911700Y-142852448D01*
X164911699Y-142852446D01*
X164900068Y-142793969D01*
X164900067Y-142793968D01*
X164855752Y-142727646D01*
X164789430Y-142683331D01*
X164789429Y-142683330D01*
X164730952Y-142671699D01*
X164730948Y-142671699D01*
X163412300Y-142671699D01*
X163345261Y-142652014D01*
X163299506Y-142599210D01*
X163288300Y-142547699D01*
X163288300Y-141235739D01*
X163278902Y-141200665D01*
X163267821Y-141159311D01*
X163264908Y-141154266D01*
X163228264Y-141090795D01*
X163228258Y-141090787D01*
X162811819Y-140674348D01*
X162778334Y-140613025D01*
X162775500Y-140586667D01*
X162775500Y-138770730D01*
X162772646Y-138740300D01*
X162772646Y-138740298D01*
X162735243Y-138633409D01*
X162727793Y-138612118D01*
X162727791Y-138612115D01*
X162727790Y-138612113D01*
X162687230Y-138557156D01*
X162679774Y-138536743D01*
X162668023Y-138518458D01*
X162664729Y-138495553D01*
X162663259Y-138491527D01*
X162663000Y-138483523D01*
X162663000Y-138279801D01*
X162682685Y-138212762D01*
X162735489Y-138167007D01*
X162787000Y-138155801D01*
X165871749Y-138155801D01*
X165871750Y-138155800D01*
X165886567Y-138152853D01*
X165930228Y-138144169D01*
X165930228Y-138144168D01*
X165930230Y-138144168D01*
X165996551Y-138099853D01*
X166040866Y-138033532D01*
X166040866Y-138033530D01*
X166040867Y-138033530D01*
X166052498Y-137975053D01*
X166052499Y-137975051D01*
X166052499Y-132347550D01*
X166052498Y-132347548D01*
X166040867Y-132289071D01*
X166040866Y-132289070D01*
X165996551Y-132222748D01*
X165930229Y-132178433D01*
X165930228Y-132178432D01*
X165871751Y-132166801D01*
X165871747Y-132166801D01*
X160498251Y-132166801D01*
X160498246Y-132166801D01*
X160439769Y-132178432D01*
X160439768Y-132178433D01*
X160373446Y-132222748D01*
X160329131Y-132289070D01*
X160329130Y-132289071D01*
X160317499Y-132347548D01*
X160317499Y-137975053D01*
X160329130Y-138033530D01*
X160329131Y-138033531D01*
X160373446Y-138099853D01*
X160439768Y-138144168D01*
X160439769Y-138144169D01*
X160498246Y-138155800D01*
X160498249Y-138155801D01*
X160498251Y-138155801D01*
X161138000Y-138155801D01*
X161146685Y-138158351D01*
X161155647Y-138157063D01*
X161179687Y-138168041D01*
X161205039Y-138175486D01*
X161210966Y-138182326D01*
X161219203Y-138186088D01*
X161233492Y-138208322D01*
X161250794Y-138228290D01*
X161253081Y-138238804D01*
X161256977Y-138244866D01*
X161262000Y-138279801D01*
X161262000Y-138483523D01*
X161242315Y-138550562D01*
X161237770Y-138557156D01*
X161197209Y-138612113D01*
X161197206Y-138612119D01*
X161152353Y-138740298D01*
X161152353Y-138740300D01*
X161149500Y-138770730D01*
X161149500Y-141729269D01*
X161152353Y-141759699D01*
X161152353Y-141759701D01*
X161197206Y-141887880D01*
X161197207Y-141887882D01*
X161277850Y-141997150D01*
X161387118Y-142077793D01*
X161429845Y-142092744D01*
X161515299Y-142122646D01*
X161545730Y-142125500D01*
X161545734Y-142125500D01*
X162379270Y-142125500D01*
X162403696Y-142123209D01*
X162409699Y-142122646D01*
X162522347Y-142083228D01*
X162551778Y-142081726D01*
X162580947Y-142077532D01*
X162586273Y-142079964D01*
X162592123Y-142079666D01*
X162617695Y-142094314D01*
X162644503Y-142106557D01*
X162647669Y-142111484D01*
X162652751Y-142114395D01*
X162666342Y-142140540D01*
X162682277Y-142165335D01*
X162683441Y-142173431D01*
X162684978Y-142176388D01*
X162687300Y-142200270D01*
X162687300Y-142333236D01*
X162667615Y-142400275D01*
X162614811Y-142446030D01*
X162545653Y-142455974D01*
X162507005Y-142443721D01*
X162400301Y-142389352D01*
X162306524Y-142374500D01*
X161693482Y-142374500D01*
X161612519Y-142387323D01*
X161599696Y-142389354D01*
X161486658Y-142446950D01*
X161486657Y-142446951D01*
X161486652Y-142446954D01*
X161396954Y-142536652D01*
X161396951Y-142536657D01*
X161396950Y-142536658D01*
X161361212Y-142606796D01*
X161313239Y-142657591D01*
X161250729Y-142674500D01*
X158935438Y-142674500D01*
X158859010Y-142694978D01*
X158790489Y-142734540D01*
X158790486Y-142734542D01*
X157983391Y-143541636D01*
X157922068Y-143575121D01*
X157852376Y-143570137D01*
X157808029Y-143541636D01*
X157713347Y-143446954D01*
X157713344Y-143446952D01*
X157713342Y-143446950D01*
X157620219Y-143399501D01*
X157600301Y-143389352D01*
X157506524Y-143374500D01*
X157506519Y-143374500D01*
X157075833Y-143374500D01*
X157046392Y-143365855D01*
X157016406Y-143359332D01*
X157011390Y-143355577D01*
X157008794Y-143354815D01*
X156988152Y-143338181D01*
X156860143Y-143210172D01*
X156826658Y-143148849D01*
X156831642Y-143079157D01*
X156873514Y-143023224D01*
X156934564Y-142999203D01*
X156983456Y-142993947D01*
X157034967Y-142982741D01*
X157069197Y-142971347D01*
X157137497Y-142948616D01*
X157137501Y-142948613D01*
X157137504Y-142948613D01*
X157258543Y-142870825D01*
X157311347Y-142825070D01*
X157405567Y-142716336D01*
X157465338Y-142585459D01*
X157485023Y-142518420D01*
X157485024Y-142518416D01*
X157505500Y-142376000D01*
X157505500Y-139124000D01*
X157493947Y-139016544D01*
X157482741Y-138965033D01*
X157477442Y-138949113D01*
X157448616Y-138862502D01*
X157448613Y-138862496D01*
X157400671Y-138787898D01*
X157370825Y-138741457D01*
X157370820Y-138741451D01*
X157325076Y-138688659D01*
X157325072Y-138688656D01*
X157325070Y-138688653D01*
X157216336Y-138594433D01*
X157216333Y-138594431D01*
X157216331Y-138594430D01*
X157085465Y-138534664D01*
X157085460Y-138534662D01*
X157085459Y-138534662D01*
X157030275Y-138518458D01*
X157018417Y-138514976D01*
X156970944Y-138508150D01*
X156876000Y-138494500D01*
X156875998Y-138494500D01*
X156751639Y-138494500D01*
X156684600Y-138474815D01*
X156678006Y-138470270D01*
X156612886Y-138422209D01*
X156612880Y-138422206D01*
X156484700Y-138377353D01*
X156454270Y-138374500D01*
X156454266Y-138374500D01*
X155620734Y-138374500D01*
X155620730Y-138374500D01*
X155590300Y-138377353D01*
X155590298Y-138377353D01*
X155462119Y-138422206D01*
X155462113Y-138422209D01*
X155396994Y-138470270D01*
X155331366Y-138494241D01*
X155323361Y-138494500D01*
X154568507Y-138494500D01*
X154488002Y-138500954D01*
X154487989Y-138500955D01*
X154487986Y-138500956D01*
X154487977Y-138500957D01*
X154487973Y-138500958D01*
X154448987Y-138507249D01*
X154448984Y-138507249D01*
X154448982Y-138507250D01*
X154370508Y-138526452D01*
X154370504Y-138526453D01*
X154370497Y-138526455D01*
X154334236Y-138538470D01*
X154307892Y-138544115D01*
X154305592Y-138544351D01*
X154292935Y-138544999D01*
X153307064Y-138544999D01*
X153294465Y-138544357D01*
X153292164Y-138544122D01*
X153265763Y-138538471D01*
X153229492Y-138526452D01*
X153151018Y-138507250D01*
X153112014Y-138500956D01*
X153112008Y-138500955D01*
X153111997Y-138500954D01*
X153031493Y-138494500D01*
X153031484Y-138494500D01*
X152568516Y-138494500D01*
X152568507Y-138494500D01*
X152488002Y-138500954D01*
X152487989Y-138500955D01*
X152487986Y-138500956D01*
X152487977Y-138500957D01*
X152487973Y-138500958D01*
X152448987Y-138507249D01*
X152448984Y-138507249D01*
X152448982Y-138507250D01*
X152370508Y-138526452D01*
X152370504Y-138526453D01*
X152370497Y-138526455D01*
X152334236Y-138538470D01*
X152307892Y-138544115D01*
X152305592Y-138544351D01*
X152292935Y-138544999D01*
X151307064Y-138544999D01*
X151294465Y-138544357D01*
X151292164Y-138544122D01*
X151265763Y-138538471D01*
X151229492Y-138526452D01*
X151151018Y-138507250D01*
X151112014Y-138500956D01*
X151112008Y-138500955D01*
X151111997Y-138500954D01*
X151031493Y-138494500D01*
X151031484Y-138494500D01*
X147845230Y-138494500D01*
X147845228Y-138494500D01*
X147791179Y-138497397D01*
X147791178Y-138497397D01*
X147764845Y-138500229D01*
X147764818Y-138500232D01*
X147711422Y-138508885D01*
X147711420Y-138508885D01*
X147576615Y-138559166D01*
X147515287Y-138592653D01*
X147515285Y-138592654D01*
X147400120Y-138678866D01*
X147400097Y-138678885D01*
X147395740Y-138683243D01*
X147373160Y-138701096D01*
X147349082Y-138715947D01*
X147322992Y-138728112D01*
X147291738Y-138738469D01*
X147265348Y-138744121D01*
X147263899Y-138744269D01*
X147263048Y-138744356D01*
X147250435Y-138744999D01*
X145214565Y-138744999D01*
X145201956Y-138744356D01*
X145199657Y-138744121D01*
X145173262Y-138738470D01*
X145142007Y-138728113D01*
X145115916Y-138715947D01*
X145091838Y-138701096D01*
X145069979Y-138683810D01*
X145069918Y-138683874D01*
X145069278Y-138683256D01*
X145069256Y-138683239D01*
X145069146Y-138683129D01*
X145064728Y-138678866D01*
X145056161Y-138670598D01*
X145049683Y-138664566D01*
X145036235Y-138652485D01*
X145006539Y-138633401D01*
X144915195Y-138574698D01*
X144915188Y-138574695D01*
X144852132Y-138545898D01*
X144851652Y-138545676D01*
X144851636Y-138545671D01*
X144713583Y-138505137D01*
X144713581Y-138505137D01*
X144569706Y-138505137D01*
X144538846Y-138509574D01*
X144500545Y-138515082D01*
X144500540Y-138515083D01*
X144500536Y-138515084D01*
X144362498Y-138555616D01*
X144362492Y-138555619D01*
X144241462Y-138633401D01*
X144241451Y-138633409D01*
X144188659Y-138679153D01*
X144094433Y-138787894D01*
X144094430Y-138787898D01*
X144034664Y-138918764D01*
X144021080Y-138965027D01*
X144014977Y-138985810D01*
X144014976Y-138985814D01*
X143994500Y-139128230D01*
X140300500Y-139128230D01*
X140300500Y-113878048D01*
X142139500Y-113878048D01*
X142139500Y-114121951D01*
X142166013Y-114323333D01*
X142171334Y-114363744D01*
X142171335Y-114363746D01*
X142234456Y-114599320D01*
X142234459Y-114599330D01*
X142327786Y-114824640D01*
X142327791Y-114824651D01*
X142449727Y-115035848D01*
X142449738Y-115035864D01*
X142598199Y-115229343D01*
X142598205Y-115229350D01*
X142770649Y-115401794D01*
X142770655Y-115401799D01*
X142964144Y-115550268D01*
X142964151Y-115550272D01*
X143175348Y-115672208D01*
X143175353Y-115672210D01*
X143175356Y-115672212D01*
X143400679Y-115765544D01*
X143636256Y-115828666D01*
X143878056Y-115860500D01*
X143878063Y-115860500D01*
X144121937Y-115860500D01*
X144121944Y-115860500D01*
X144363744Y-115828666D01*
X144599321Y-115765544D01*
X144824644Y-115672212D01*
X145035856Y-115550268D01*
X145229345Y-115401799D01*
X145401799Y-115229345D01*
X145550268Y-115035856D01*
X145672212Y-114824644D01*
X145765544Y-114599321D01*
X145828666Y-114363744D01*
X145860500Y-114121944D01*
X145860500Y-113878056D01*
X145828666Y-113636256D01*
X145765544Y-113400679D01*
X145672212Y-113175356D01*
X145672210Y-113175353D01*
X145672208Y-113175348D01*
X145550272Y-112964151D01*
X145550268Y-112964144D01*
X145401799Y-112770655D01*
X145401794Y-112770649D01*
X145229350Y-112598205D01*
X145229343Y-112598199D01*
X145035864Y-112449738D01*
X145035862Y-112449736D01*
X145035856Y-112449732D01*
X145035851Y-112449729D01*
X145035848Y-112449727D01*
X144824651Y-112327791D01*
X144824640Y-112327786D01*
X144599330Y-112234459D01*
X144599323Y-112234457D01*
X144599321Y-112234456D01*
X144363744Y-112171334D01*
X144323333Y-112166013D01*
X144121951Y-112139500D01*
X144121944Y-112139500D01*
X143878056Y-112139500D01*
X143878048Y-112139500D01*
X143647896Y-112169801D01*
X143636256Y-112171334D01*
X143400679Y-112234456D01*
X143400669Y-112234459D01*
X143175359Y-112327786D01*
X143175348Y-112327791D01*
X142964151Y-112449727D01*
X142964135Y-112449738D01*
X142770656Y-112598199D01*
X142770649Y-112598205D01*
X142598205Y-112770649D01*
X142598199Y-112770656D01*
X142449738Y-112964135D01*
X142449727Y-112964151D01*
X142327791Y-113175348D01*
X142327786Y-113175359D01*
X142234459Y-113400669D01*
X142234456Y-113400679D01*
X142171335Y-113636253D01*
X142171333Y-113636264D01*
X142139500Y-113878048D01*
X140300500Y-113878048D01*
X140300500Y-110424947D01*
X165024500Y-110424947D01*
X165024500Y-115747652D01*
X165036131Y-115806129D01*
X165036132Y-115806130D01*
X165080447Y-115872452D01*
X165146769Y-115916767D01*
X165146770Y-115916768D01*
X165205247Y-115928399D01*
X165205250Y-115928400D01*
X165205252Y-115928400D01*
X171594750Y-115928400D01*
X171594751Y-115928399D01*
X171609568Y-115925452D01*
X171653229Y-115916768D01*
X171653229Y-115916767D01*
X171653231Y-115916767D01*
X171719552Y-115872452D01*
X171763867Y-115806131D01*
X171763867Y-115806129D01*
X171763868Y-115806129D01*
X171775499Y-115747652D01*
X171775500Y-115747650D01*
X171775500Y-113878048D01*
X207139500Y-113878048D01*
X207139500Y-114121951D01*
X207166013Y-114323333D01*
X207171334Y-114363744D01*
X207171335Y-114363746D01*
X207234456Y-114599320D01*
X207234459Y-114599330D01*
X207327786Y-114824640D01*
X207327791Y-114824651D01*
X207449727Y-115035848D01*
X207449738Y-115035864D01*
X207598199Y-115229343D01*
X207598205Y-115229350D01*
X207770649Y-115401794D01*
X207770655Y-115401799D01*
X207964144Y-115550268D01*
X207964151Y-115550272D01*
X208175348Y-115672208D01*
X208175353Y-115672210D01*
X208175356Y-115672212D01*
X208400679Y-115765544D01*
X208636256Y-115828666D01*
X208878056Y-115860500D01*
X208878063Y-115860500D01*
X209121937Y-115860500D01*
X209121944Y-115860500D01*
X209363744Y-115828666D01*
X209599321Y-115765544D01*
X209824644Y-115672212D01*
X210035856Y-115550268D01*
X210229345Y-115401799D01*
X210401799Y-115229345D01*
X210550268Y-115035856D01*
X210672212Y-114824644D01*
X210765544Y-114599321D01*
X210828666Y-114363744D01*
X210860500Y-114121944D01*
X210860500Y-113878056D01*
X210828666Y-113636256D01*
X210765544Y-113400679D01*
X210672212Y-113175356D01*
X210672210Y-113175353D01*
X210672208Y-113175348D01*
X210550272Y-112964151D01*
X210550268Y-112964144D01*
X210401799Y-112770655D01*
X210401794Y-112770649D01*
X210229350Y-112598205D01*
X210229343Y-112598199D01*
X210035864Y-112449738D01*
X210035862Y-112449736D01*
X210035856Y-112449732D01*
X210035851Y-112449729D01*
X210035848Y-112449727D01*
X209824651Y-112327791D01*
X209824640Y-112327786D01*
X209599330Y-112234459D01*
X209599323Y-112234457D01*
X209599321Y-112234456D01*
X209363744Y-112171334D01*
X209323333Y-112166013D01*
X209121951Y-112139500D01*
X209121944Y-112139500D01*
X208878056Y-112139500D01*
X208878048Y-112139500D01*
X208647896Y-112169801D01*
X208636256Y-112171334D01*
X208400679Y-112234456D01*
X208400669Y-112234459D01*
X208175359Y-112327786D01*
X208175348Y-112327791D01*
X207964151Y-112449727D01*
X207964135Y-112449738D01*
X207770656Y-112598199D01*
X207770649Y-112598205D01*
X207598205Y-112770649D01*
X207598199Y-112770656D01*
X207449738Y-112964135D01*
X207449727Y-112964151D01*
X207327791Y-113175348D01*
X207327786Y-113175359D01*
X207234459Y-113400669D01*
X207234456Y-113400679D01*
X207171335Y-113636253D01*
X207171333Y-113636264D01*
X207139500Y-113878048D01*
X171775500Y-113878048D01*
X171775500Y-110424949D01*
X171775499Y-110424947D01*
X171763868Y-110366470D01*
X171763867Y-110366469D01*
X171719552Y-110300147D01*
X171653230Y-110255832D01*
X171653229Y-110255831D01*
X171594752Y-110244200D01*
X171594748Y-110244200D01*
X165205252Y-110244200D01*
X165205247Y-110244200D01*
X165146770Y-110255831D01*
X165146769Y-110255832D01*
X165080447Y-110300147D01*
X165036132Y-110366469D01*
X165036131Y-110366470D01*
X165024500Y-110424947D01*
X140300500Y-110424947D01*
X140300500Y-109424500D01*
X140320185Y-109357461D01*
X140372989Y-109311706D01*
X140424500Y-109300500D01*
X212575500Y-109300500D01*
X212642539Y-109320185D01*
G37*
%TD.AperFunction*%
%TD*%
M02*
