%TF.GenerationSoftware,KiCad,Pcbnew,9.0.6*%
%TF.CreationDate,2026-03-18T14:56:14+08:00*%
%TF.ProjectId,Microver2026_STM32_Control,4d696372-6f76-4657-9232-3032365f5354,A*%
%TF.SameCoordinates,Original*%
%TF.FileFunction,Soldermask,Bot*%
%TF.FilePolarity,Negative*%
%FSLAX46Y46*%
G04 Gerber Fmt 4.6, Leading zero omitted, Abs format (unit mm)*
G04 Created by KiCad (PCBNEW 9.0.6) date 2026-03-18 14:56:14*
%MOMM*%
%LPD*%
G01*
G04 APERTURE LIST*
%ADD10R,1.700000X1.700000*%
%ADD11C,1.700000*%
%ADD12C,2.374900*%
%ADD13C,0.990600*%
G04 APERTURE END LIST*
D10*
%TO.C,J14*%
X183180000Y-92300000D03*
D11*
X185720000Y-92300000D03*
X183180000Y-94840000D03*
X185720000Y-94840000D03*
X183180000Y-97380000D03*
X185720000Y-97380000D03*
X183180000Y-99920000D03*
X185720000Y-99920000D03*
X183180000Y-102460000D03*
X185720000Y-102460000D03*
X183180000Y-105000000D03*
X185720000Y-105000000D03*
X183180000Y-107540000D03*
X185720000Y-107540000D03*
X183180000Y-110080000D03*
X185720000Y-110080000D03*
X183180000Y-112620000D03*
X185720000Y-112620000D03*
X183180000Y-115160000D03*
X185720000Y-115160000D03*
%TD*%
D10*
%TO.C,J1*%
X230900000Y-103425000D03*
D11*
X230900000Y-105965000D03*
%TD*%
D12*
%TO.C,J2*%
X197600000Y-102625000D03*
D13*
X195060000Y-102625000D03*
D12*
X192520000Y-102625000D03*
X197600000Y-105800000D03*
X192520000Y-105800000D03*
D13*
X196076000Y-107705000D03*
X194044000Y-107705000D03*
%TD*%
D10*
%TO.C,J15*%
X239060000Y-92300000D03*
D11*
X241600000Y-92300000D03*
X239060000Y-94840000D03*
X241600000Y-94840000D03*
X239060000Y-97380000D03*
X241600000Y-97380000D03*
X239060000Y-99920000D03*
X241600000Y-99920000D03*
X239060000Y-102460000D03*
X241600000Y-102460000D03*
X239060000Y-105000000D03*
X241600000Y-105000000D03*
X239060000Y-107540000D03*
X241600000Y-107540000D03*
X239060000Y-110080000D03*
X241600000Y-110080000D03*
X239060000Y-112620000D03*
X241600000Y-112620000D03*
X239060000Y-115160000D03*
X241600000Y-115160000D03*
%TD*%
M02*
