%TF.GenerationSoftware,KiCad,Pcbnew,9.0.6*%
%TF.CreationDate,2026-03-18T14:56:14+08:00*%
%TF.ProjectId,Microver2026_STM32_Control,4d696372-6f76-4657-9232-3032365f5354,A*%
%TF.SameCoordinates,Original*%
%TF.FileFunction,Copper,L4,Bot*%
%TF.FilePolarity,Positive*%
%FSLAX46Y46*%
G04 Gerber Fmt 4.6, Leading zero omitted, Abs format (unit mm)*
G04 Created by KiCad (PCBNEW 9.0.6) date 2026-03-18 14:56:14*
%MOMM*%
%LPD*%
G01*
G04 APERTURE LIST*
%TA.AperFunction,ComponentPad*%
%ADD10R,1.700000X1.700000*%
%TD*%
%TA.AperFunction,ComponentPad*%
%ADD11C,1.700000*%
%TD*%
%TA.AperFunction,ViaPad*%
%ADD12C,0.500000*%
%TD*%
%TA.AperFunction,ViaPad*%
%ADD13C,0.600000*%
%TD*%
%TA.AperFunction,Conductor*%
%ADD14C,0.200000*%
%TD*%
%TA.AperFunction,Conductor*%
%ADD15C,0.400000*%
%TD*%
G04 APERTURE END LIST*
D10*
%TO.P,J14,1,Pin_1a*%
%TO.N,Net-(J14-Pin_1a)*%
X183180000Y-92300000D03*
D11*
%TO.P,J14,2,Pin_1b*%
%TO.N,+5V*%
X185720000Y-92300000D03*
%TO.P,J14,3,Pin_2a*%
%TO.N,Net-(J14-Pin_2a)*%
X183180000Y-94840000D03*
%TO.P,J14,4,Pin_2b*%
%TO.N,GND*%
X185720000Y-94840000D03*
%TO.P,J14,5,Pin_3a*%
%TO.N,Net-(J14-Pin_3a)*%
X183180000Y-97380000D03*
%TO.P,J14,6,Pin_3b*%
%TO.N,Net-(J14-Pin_3b)*%
X185720000Y-97380000D03*
%TO.P,J14,7,Pin_4a*%
%TO.N,Net-(J14-Pin_4a)*%
X183180000Y-99920000D03*
%TO.P,J14,8,Pin_4b*%
%TO.N,Net-(J14-Pin_4b)*%
X185720000Y-99920000D03*
%TO.P,J14,9,Pin_5a*%
%TO.N,Net-(J14-Pin_5a)*%
X183180000Y-102460000D03*
%TO.P,J14,10,Pin_5b*%
%TO.N,Net-(J14-Pin_5b)*%
X185720000Y-102460000D03*
%TO.P,J14,11,Pin_6a*%
%TO.N,Net-(J14-Pin_6a)*%
X183180000Y-105000000D03*
%TO.P,J14,12,Pin_6b*%
%TO.N,Net-(J14-Pin_6b)*%
X185720000Y-105000000D03*
%TO.P,J14,13,Pin_7a*%
%TO.N,Net-(J14-Pin_7a)*%
X183180000Y-107540000D03*
%TO.P,J14,14,Pin_7b*%
%TO.N,Net-(J14-Pin_7b)*%
X185720000Y-107540000D03*
%TO.P,J14,15,Pin_8a*%
%TO.N,Net-(J14-Pin_8a)*%
X183180000Y-110080000D03*
%TO.P,J14,16,Pin_8b*%
%TO.N,Net-(J14-Pin_8b)*%
X185720000Y-110080000D03*
%TO.P,J14,17,Pin_9a*%
%TO.N,Net-(J14-Pin_9a)*%
X183180000Y-112620000D03*
%TO.P,J14,18,Pin_9b*%
%TO.N,/PC2*%
X185720000Y-112620000D03*
%TO.P,J14,19,Pin_10a*%
%TO.N,/PC0*%
X183180000Y-115160000D03*
%TO.P,J14,20,Pin_10b*%
%TO.N,/PC1*%
X185720000Y-115160000D03*
%TD*%
D10*
%TO.P,J1,1,Pin_1*%
%TO.N,Net-(J1-Pin_1)*%
X230900000Y-103425000D03*
D11*
%TO.P,J1,2,Pin_2*%
%TO.N,Net-(J1-Pin_2)*%
X230900000Y-105965000D03*
%TD*%
D10*
%TO.P,J15,1,Pin_1a*%
%TO.N,Net-(J15-Pin_1a)*%
X239060000Y-92300000D03*
D11*
%TO.P,J15,2,Pin_1b*%
%TO.N,+5V*%
X241600000Y-92300000D03*
%TO.P,J15,3,Pin_2a*%
%TO.N,Net-(J15-Pin_2a)*%
X239060000Y-94840000D03*
%TO.P,J15,4,Pin_2b*%
%TO.N,GND*%
X241600000Y-94840000D03*
%TO.P,J15,5,Pin_3a*%
%TO.N,Net-(J15-Pin_3a)*%
X239060000Y-97380000D03*
%TO.P,J15,6,Pin_3b*%
%TO.N,Net-(J15-Pin_3b)*%
X241600000Y-97380000D03*
%TO.P,J15,7,Pin_4a*%
%TO.N,Net-(J15-Pin_4a)*%
X239060000Y-99920000D03*
%TO.P,J15,8,Pin_4b*%
%TO.N,Net-(J15-Pin_4b)*%
X241600000Y-99920000D03*
%TO.P,J15,9,Pin_5a*%
%TO.N,Net-(J15-Pin_5a)*%
X239060000Y-102460000D03*
%TO.P,J15,10,Pin_5b*%
%TO.N,Net-(J15-Pin_5b)*%
X241600000Y-102460000D03*
%TO.P,J15,11,Pin_6a*%
%TO.N,Net-(J15-Pin_6a)*%
X239060000Y-105000000D03*
%TO.P,J15,12,Pin_6b*%
%TO.N,Net-(J15-Pin_6b)*%
X241600000Y-105000000D03*
%TO.P,J15,13,Pin_7a*%
%TO.N,Net-(J15-Pin_7a)*%
X239060000Y-107540000D03*
%TO.P,J15,14,Pin_7b*%
%TO.N,Net-(J15-Pin_7b)*%
X241600000Y-107540000D03*
%TO.P,J15,15,Pin_8a*%
%TO.N,Net-(J15-Pin_8a)*%
X239060000Y-110080000D03*
%TO.P,J15,16,Pin_8b*%
%TO.N,Net-(J15-Pin_8b)*%
X241600000Y-110080000D03*
%TO.P,J15,17,Pin_9a*%
%TO.N,Net-(J15-Pin_9a)*%
X239060000Y-112620000D03*
%TO.P,J15,18,Pin_9b*%
%TO.N,/PB0*%
X241600000Y-112620000D03*
%TO.P,J15,19,Pin_10a*%
%TO.N,Net-(J15-Pin_10a)*%
X239060000Y-115160000D03*
%TO.P,J15,20,Pin_10b*%
%TO.N,/PB1*%
X241600000Y-115160000D03*
%TD*%
D12*
%TO.N,GND*%
X234000000Y-107000000D03*
X236000000Y-108000000D03*
X190000000Y-95000000D03*
X212000000Y-108000000D03*
X227000000Y-113000000D03*
X189000000Y-112000000D03*
X236000000Y-107000000D03*
X222600000Y-108300000D03*
X193000000Y-97000000D03*
X189000000Y-92000000D03*
X194000000Y-97000000D03*
X188000000Y-92000000D03*
X226000000Y-113000000D03*
X216000000Y-108000000D03*
X207700000Y-112500000D03*
X230000000Y-95000000D03*
X217180127Y-104766002D03*
X235000000Y-107000000D03*
X230000000Y-113000000D03*
X199700000Y-93800000D03*
X203000000Y-95000000D03*
X228000000Y-99000000D03*
X189000000Y-97000000D03*
X213000000Y-107000000D03*
X234000000Y-108000000D03*
X193000000Y-92000000D03*
X193000000Y-95000000D03*
X193000000Y-107500000D03*
X195000000Y-112000000D03*
X195000000Y-95000000D03*
X216000000Y-117000000D03*
X197000000Y-97000000D03*
X191000000Y-95000000D03*
X234000000Y-103000000D03*
X213000000Y-106000000D03*
X191000000Y-91000000D03*
X232000000Y-98000000D03*
X208005000Y-96305000D03*
X236000000Y-103000000D03*
X215100000Y-102400000D03*
X191000000Y-92000000D03*
X192000000Y-97000000D03*
X214000000Y-108000000D03*
X235000000Y-108000000D03*
X234000000Y-100000000D03*
X228000000Y-104000000D03*
X226300000Y-108000000D03*
X231000000Y-95000000D03*
X235000000Y-104000000D03*
X215000000Y-107000000D03*
X196000000Y-97000000D03*
X229000000Y-114000000D03*
X230000000Y-100000000D03*
X213000000Y-108000000D03*
X234000000Y-105000000D03*
X190000000Y-92000000D03*
X235000000Y-100000000D03*
X214000000Y-106000000D03*
X237000000Y-107000000D03*
X235000000Y-105000000D03*
X236000000Y-104000000D03*
X190000000Y-97000000D03*
X192000000Y-95000000D03*
X203000000Y-94000000D03*
X191000000Y-97000000D03*
X204000000Y-97000000D03*
X230000000Y-114000000D03*
X214000000Y-107000000D03*
X188000000Y-95000000D03*
X225000000Y-113000000D03*
X215000000Y-106000000D03*
X194000000Y-95000000D03*
X229000000Y-99000000D03*
X223000000Y-98000000D03*
X228000000Y-114000000D03*
X190000000Y-113000000D03*
X221400000Y-103800000D03*
X202000000Y-94000000D03*
X234000000Y-109000000D03*
X215000000Y-108000000D03*
X188000000Y-91000000D03*
X225000000Y-114000000D03*
X235000000Y-114000000D03*
X233000000Y-109000000D03*
X228000000Y-100000000D03*
X188000000Y-113000000D03*
X212000000Y-106000000D03*
X230000000Y-94000000D03*
X203700000Y-103600000D03*
X188000000Y-97000000D03*
X210000000Y-107000000D03*
X189000000Y-113000000D03*
X190000000Y-91000000D03*
X231000000Y-98000000D03*
D13*
X218900000Y-113800000D03*
D12*
X224000000Y-113000000D03*
X222300000Y-98200000D03*
X229000000Y-113000000D03*
X231000000Y-94000000D03*
X202000000Y-95000000D03*
X227000000Y-94000000D03*
X216000000Y-106000000D03*
X214000000Y-117000000D03*
X228000000Y-113000000D03*
X188000000Y-112000000D03*
X188000000Y-110000000D03*
X232000000Y-93000000D03*
X236000000Y-105000000D03*
X215000000Y-117000000D03*
X184300000Y-111800000D03*
X237000000Y-114000000D03*
X216000000Y-107000000D03*
X226200000Y-111400000D03*
X211000000Y-106000000D03*
X211000000Y-107000000D03*
X226000000Y-114000000D03*
X193000000Y-91000000D03*
X209000000Y-114800000D03*
X235000000Y-103000000D03*
X198000000Y-97000000D03*
X232000000Y-99000000D03*
X212000000Y-107000000D03*
X195000000Y-97000000D03*
X234000000Y-114000000D03*
X242100000Y-96000000D03*
X236000000Y-109000000D03*
X211000000Y-108000000D03*
X234000000Y-99000000D03*
X235000000Y-109000000D03*
X192000000Y-92000000D03*
X224000000Y-114000000D03*
X234000000Y-104000000D03*
X192000000Y-91000000D03*
X227000000Y-114000000D03*
X210000000Y-108000000D03*
X229000000Y-100000000D03*
X236000000Y-114000000D03*
X190000000Y-112000000D03*
X237000000Y-108000000D03*
X217000000Y-117000000D03*
X230000000Y-99000000D03*
X189000000Y-95000000D03*
X189000000Y-91000000D03*
%TO.N,Net-(J2-~{RESET})*%
X193550000Y-112000000D03*
X192456789Y-108950000D03*
%TO.N,+3.3V*%
X216249505Y-110357013D03*
X215475441Y-109575441D03*
X206000000Y-95004000D03*
X206000000Y-96104000D03*
%TO.N,Net-(U1B-VDDA)*%
X217200000Y-107800000D03*
X217282739Y-109323779D03*
%TO.N,Net-(J2-SWCLK)*%
X207895048Y-102636792D03*
X196287607Y-104723449D03*
%TO.N,Net-(J2-SWDIO)*%
X197782344Y-108950000D03*
X208162928Y-101990074D03*
D13*
%TO.N,Net-(J2-SWO)*%
X195200063Y-107116447D03*
X207944842Y-105632258D03*
D12*
%TO.N,Net-(J14-Pin_8b)*%
X191071091Y-111128909D03*
X215896792Y-93898973D03*
%TO.N,Net-(J14-Pin_5b)*%
X198832566Y-99810384D03*
X203000000Y-100200000D03*
%TO.N,Net-(J14-Pin_7b)*%
X216259439Y-96512742D03*
%TO.N,Net-(J14-Pin_4a)*%
X202700000Y-106932117D03*
X199610384Y-100589616D03*
X191725000Y-100125000D03*
D13*
%TO.N,Net-(J14-Pin_6a)*%
X191856789Y-110288261D03*
D12*
X190321091Y-110378909D03*
D13*
%TO.N,Net-(J14-Pin_7a)*%
X190165080Y-105965080D03*
X205650000Y-101950000D03*
X184554456Y-106858818D03*
D12*
%TO.N,/PC2*%
X213399999Y-112277183D03*
X209550000Y-114000000D03*
%TO.N,Net-(J14-Pin_9a)*%
X210538265Y-94031658D03*
%TO.N,Net-(J14-Pin_4b)*%
X212056856Y-101252264D03*
D13*
%TO.N,Net-(J14-Pin_8a)*%
X211990460Y-104229999D03*
D12*
X205507038Y-103453000D03*
X202573332Y-104451151D03*
%TO.N,Net-(J14-Pin_5a)*%
X199691945Y-109303966D03*
X202574261Y-107630000D03*
%TO.N,Net-(J14-Pin_3a)*%
X200492380Y-100692380D03*
X201511620Y-101511620D03*
%TO.N,Net-(J15-Pin_8a)*%
X235661091Y-110161091D03*
X237238909Y-110138909D03*
%TO.N,Net-(J15-Pin_9a)*%
X228214971Y-109614971D03*
%TO.N,Net-(J15-Pin_4a)*%
X236299409Y-94500591D03*
%TO.N,Net-(J15-Pin_3a)*%
X236700000Y-95679000D03*
%TO.N,Net-(J15-Pin_5b)*%
X212850000Y-92200000D03*
X212850036Y-98888833D03*
D13*
%TO.N,Net-(J15-Pin_2a)*%
X203657806Y-100792194D03*
X236123674Y-93476326D03*
X201000001Y-103283290D03*
X213850000Y-104001000D03*
D12*
%TO.N,Net-(J15-Pin_5a)*%
X236061789Y-91738211D03*
%TO.N,Net-(J15-Pin_10a)*%
X227600000Y-108500000D03*
D13*
%TO.N,Net-(J15-Pin_1a)*%
X229878528Y-97230000D03*
X237836054Y-92663946D03*
D12*
%TO.N,/PB0*%
X217449914Y-105845065D03*
%TO.N,Net-(J15-Pin_7b)*%
X237400000Y-100521000D03*
%TO.N,Net-(J15-Pin_8b)*%
X240332001Y-102173322D03*
X233650000Y-95679000D03*
%TO.N,Net-(J15-Pin_4b)*%
X226150000Y-102400000D03*
X217050000Y-103450000D03*
%TO.N,Net-(J15-Pin_6a)*%
X233500000Y-101700000D03*
X209537270Y-92255000D03*
%TO.N,/PB1*%
X219829396Y-105179265D03*
X236600000Y-110800000D03*
%TO.N,Net-(U1A-PC4)*%
X217438914Y-106790440D03*
X223675000Y-106147659D03*
D13*
%TO.N,Net-(U1A-PB14)*%
X223600000Y-98600000D03*
X217835000Y-100400000D03*
D12*
%TO.N,Net-(U1A-PB15)*%
X215181222Y-94069966D03*
X214237199Y-98752988D03*
%TO.N,Net-(U1A-PA8)*%
X211078088Y-95485240D03*
D13*
X206100000Y-97100000D03*
D12*
X211414996Y-100876903D03*
%TO.N,Net-(U1A-PB2)*%
X219811809Y-104433175D03*
X224500000Y-103900000D03*
%TO.N,Net-(U1A-PC12)*%
X199263871Y-104108820D03*
X202261620Y-100761620D03*
%TO.N,Net-(U1A-PA12)*%
X210665100Y-100887903D03*
X208775778Y-95001162D03*
%TO.N,Net-(U1A-PC6)*%
X214000000Y-93950000D03*
X213537200Y-98755386D03*
%TO.N,Net-(U1A-PC7)*%
X213189385Y-100836215D03*
X212088591Y-95388591D03*
%TO.N,Net-(U1A-PA11)*%
X210388392Y-95365573D03*
X209676718Y-97070984D03*
D13*
%TO.N,Net-(U1A-PB12)*%
X219800000Y-97300000D03*
X217434000Y-98700000D03*
D12*
%TO.N,Net-(U1A-PB13)*%
X218402763Y-95263880D03*
X215338199Y-98777307D03*
%TO.N,Net-(U1A-PA6)*%
X219505065Y-107879001D03*
X222872886Y-109429398D03*
%TO.N,Net-(U1A-PA7)*%
X219500000Y-107100000D03*
X225847287Y-107238659D03*
%TD*%
D14*
%TO.N,GND*%
X217180127Y-104766002D02*
X216000000Y-105946129D01*
X204000000Y-97000000D02*
X204000000Y-98400000D01*
X216000000Y-105946129D02*
X216000000Y-106000000D01*
X204000000Y-98400000D02*
X204400000Y-98800000D01*
%TO.N,Net-(J2-~{RESET})*%
X192456789Y-108950000D02*
X192456789Y-110906789D01*
X192456789Y-110906789D02*
X193550000Y-112000000D01*
D15*
%TO.N,+3.3V*%
X206000000Y-95004000D02*
X206000000Y-96104000D01*
D14*
X215475441Y-109582949D02*
X216249505Y-110357013D01*
X215475441Y-109575441D02*
X215475441Y-109582949D01*
%TO.N,Net-(U1B-VDDA)*%
X217282739Y-109323779D02*
X217282739Y-107882739D01*
X217282739Y-107882739D02*
X217200000Y-107800000D01*
%TO.N,Net-(J2-SWCLK)*%
X199661161Y-110051000D02*
X200932493Y-110051000D01*
X196287607Y-104723449D02*
X195989657Y-105021399D01*
X195989657Y-106379496D02*
X199661161Y-110051000D01*
X195989657Y-105021399D02*
X195989657Y-106379496D01*
X207895048Y-103088445D02*
X207895048Y-102636792D01*
X200932493Y-110051000D02*
X207895048Y-103088445D01*
%TO.N,Net-(J2-SWDIO)*%
X208446048Y-103104545D02*
X208446048Y-102273194D01*
X208446048Y-102273194D02*
X208162928Y-101990074D01*
X199284344Y-110452000D02*
X201098593Y-110452000D01*
X197782344Y-108950000D02*
X199284344Y-110452000D01*
X201098593Y-110452000D02*
X208446048Y-103104545D01*
%TO.N,Net-(J2-SWO)*%
X203125100Y-110452000D02*
X202724100Y-110853000D01*
X195200063Y-108040054D02*
X195200063Y-107116447D01*
X207944842Y-105632258D02*
X203125100Y-110452000D01*
X198013009Y-110853000D02*
X195200063Y-108040054D01*
X202724100Y-110853000D02*
X198013009Y-110853000D01*
%TO.N,Net-(J14-Pin_8b)*%
X213860966Y-101510966D02*
X202820932Y-112551000D01*
X215179199Y-99720801D02*
X215179199Y-100178591D01*
X192493182Y-112551000D02*
X191071091Y-111128909D01*
X213860966Y-101496824D02*
X213860966Y-101510966D01*
X202820932Y-112551000D02*
X192493182Y-112551000D01*
X215896792Y-93898973D02*
X216710699Y-94712880D01*
X216710699Y-94712880D02*
X218630995Y-94712880D01*
X218630995Y-94712880D02*
X218953763Y-95035648D01*
X215179199Y-100178591D02*
X213860966Y-101496824D01*
X218953763Y-95946237D02*
X215179199Y-99720801D01*
X218953763Y-95035648D02*
X218953763Y-95946237D01*
%TO.N,Net-(J14-Pin_5b)*%
X199092950Y-99550000D02*
X198832566Y-99810384D01*
X202350000Y-99550000D02*
X199092950Y-99550000D01*
X203000000Y-100200000D02*
X202350000Y-99550000D01*
%TO.N,Net-(J14-Pin_7b)*%
X203254832Y-111550000D02*
X195836021Y-111550000D01*
X214788199Y-97983982D02*
X214788199Y-100016633D01*
X214788199Y-100016633D02*
X203254832Y-111550000D01*
X216259439Y-96512742D02*
X214788199Y-97983982D01*
X195836021Y-111550000D02*
X191826021Y-107540000D01*
X191826021Y-107540000D02*
X185720000Y-107540000D01*
%TO.N,Net-(J14-Pin_4a)*%
X191725000Y-100125000D02*
X190369000Y-98769000D01*
X200051000Y-104801000D02*
X200051000Y-104571768D01*
X200010384Y-104531152D02*
X200010384Y-100989616D01*
X202182117Y-106932117D02*
X200051000Y-104801000D01*
X200010384Y-100989616D02*
X199610384Y-100589616D01*
X190369000Y-98769000D02*
X184331000Y-98769000D01*
X200051000Y-104571768D02*
X200010384Y-104531152D01*
X202775000Y-106932117D02*
X202182117Y-106932117D01*
X184331000Y-98769000D02*
X183180000Y-99920000D01*
%TO.N,Net-(J14-Pin_6a)*%
X191856789Y-110288261D02*
X190411739Y-110288261D01*
X190411739Y-110288261D02*
X190321091Y-110378909D01*
%TO.N,Net-(J14-Pin_7a)*%
X197325009Y-99149000D02*
X202500000Y-99149000D01*
X191878611Y-104251550D02*
X193161389Y-104251550D01*
X189741161Y-106389000D02*
X190165080Y-105965080D01*
X193161389Y-104251550D02*
X194203700Y-103209239D01*
X184554456Y-106858818D02*
X185024274Y-106389000D01*
X202849000Y-99149000D02*
X205650000Y-101950000D01*
X194203700Y-103209239D02*
X194203700Y-102270309D01*
X190165080Y-105965080D02*
X191878611Y-104251550D01*
X194203700Y-102270309D02*
X197325009Y-99149000D01*
X185024274Y-106389000D02*
X189741161Y-106389000D01*
X202500000Y-99149000D02*
X202849000Y-99149000D01*
%TO.N,/PC2*%
X213399999Y-112277183D02*
X211677182Y-114000000D01*
X211677182Y-114000000D02*
X209550000Y-114000000D01*
%TO.N,Net-(J14-Pin_9a)*%
X210538265Y-94031658D02*
X206168342Y-94031658D01*
X182029000Y-96903240D02*
X182029000Y-111469000D01*
X204209000Y-95991000D02*
X182941240Y-95991000D01*
X206168342Y-94031658D02*
X204209000Y-95991000D01*
X182029000Y-111469000D02*
X183180000Y-112620000D01*
X182941240Y-95991000D02*
X182029000Y-96903240D01*
%TO.N,Net-(J14-Pin_4b)*%
X212056856Y-101252264D02*
X211881217Y-101427903D01*
X211881217Y-101427903D02*
X206451140Y-101427903D01*
X191953232Y-100676000D02*
X186476000Y-100676000D01*
X203615617Y-98592380D02*
X194036852Y-98592380D01*
X194036852Y-98592380D02*
X191953232Y-100676000D01*
X206451140Y-101427903D02*
X203615617Y-98592380D01*
X186476000Y-100676000D02*
X185720000Y-99920000D01*
%TO.N,Net-(J14-Pin_8a)*%
X183180000Y-110080000D02*
X184331000Y-111231000D01*
X203268459Y-112952000D02*
X211990460Y-104229999D01*
X190393950Y-111231000D02*
X192114950Y-112952000D01*
X205507038Y-103453000D02*
X204508887Y-104451151D01*
X204508887Y-104451151D02*
X202573332Y-104451151D01*
X192114950Y-112952000D02*
X203268459Y-112952000D01*
X184331000Y-111231000D02*
X190393950Y-111231000D01*
%TO.N,Net-(J14-Pin_5a)*%
X199691945Y-109303966D02*
X200796034Y-109303966D01*
X202470000Y-107630000D02*
X202574261Y-107630000D01*
X200796034Y-109303966D02*
X202470000Y-107630000D01*
%TO.N,Net-(J14-Pin_3a)*%
X201511620Y-101511620D02*
X201311620Y-101511620D01*
X201311620Y-101511620D02*
X200492380Y-100692380D01*
%TO.N,Net-(J15-Pin_8a)*%
X235661091Y-110161091D02*
X237216727Y-110161091D01*
X237216727Y-110161091D02*
X237238909Y-110138909D01*
%TO.N,Net-(J15-Pin_9a)*%
X228214971Y-109614971D02*
X231220000Y-112620000D01*
X231220000Y-112620000D02*
X239060000Y-112620000D01*
%TO.N,Net-(J15-Pin_4a)*%
X236149000Y-97009000D02*
X239060000Y-99920000D01*
X236149000Y-94651000D02*
X236149000Y-97009000D01*
X236299409Y-94500591D02*
X236149000Y-94651000D01*
%TO.N,Net-(J15-Pin_3a)*%
X236700000Y-95679000D02*
X237359000Y-95679000D01*
X237359000Y-95679000D02*
X239060000Y-97380000D01*
%TO.N,Net-(J15-Pin_5b)*%
X212850000Y-98862850D02*
X212850000Y-92200000D01*
X212850036Y-98888833D02*
X212850036Y-98862886D01*
X212850036Y-98862886D02*
X212850000Y-98862850D01*
%TO.N,Net-(J15-Pin_2a)*%
X235073442Y-93476326D02*
X236123674Y-93476326D01*
X213850000Y-104001000D02*
X217278232Y-104001000D01*
X203108828Y-101341172D02*
X202942119Y-101341172D01*
X203657806Y-100792194D02*
X203108828Y-101341172D01*
X217278232Y-104001000D02*
X218328232Y-102951000D01*
X227078232Y-102251000D02*
X233728232Y-102251000D01*
X226378232Y-102951000D02*
X227078232Y-102251000D01*
X218328232Y-102951000D02*
X226378232Y-102951000D01*
X233099000Y-95450768D02*
X235073442Y-93476326D01*
X234051000Y-101928232D02*
X234051000Y-101471768D01*
X202942119Y-101341172D02*
X201000001Y-103283290D01*
X233728232Y-102251000D02*
X234051000Y-101928232D01*
X234051000Y-101471768D02*
X233099000Y-100519768D01*
X233099000Y-100519768D02*
X233099000Y-95450768D01*
%TO.N,Net-(J15-Pin_5a)*%
X236061789Y-91738211D02*
X238012578Y-93689000D01*
X242751000Y-101983240D02*
X242751000Y-102936760D01*
X242076760Y-103611000D02*
X240211000Y-103611000D01*
X239536760Y-93689000D02*
X240211000Y-94363240D01*
X242076760Y-101309000D02*
X242751000Y-101983240D01*
X240211000Y-103611000D02*
X239060000Y-102460000D01*
X240211000Y-94363240D02*
X240211000Y-100396760D01*
X238012578Y-93689000D02*
X239536760Y-93689000D01*
X242751000Y-102936760D02*
X242076760Y-103611000D01*
X241123240Y-101309000D02*
X242076760Y-101309000D01*
X240211000Y-100396760D02*
X241123240Y-101309000D01*
%TO.N,Net-(J15-Pin_10a)*%
X227600000Y-108500000D02*
X227600000Y-109322768D01*
X227663971Y-109386739D02*
X227663971Y-109843203D01*
X232980768Y-115160000D02*
X239060000Y-115160000D01*
X227600000Y-109322768D02*
X227663971Y-109386739D01*
X227663971Y-109843203D02*
X232980768Y-115160000D01*
%TO.N,Net-(J15-Pin_1a)*%
X229878528Y-97142240D02*
X229878528Y-97230000D01*
X236359319Y-91187211D02*
X235833557Y-91187211D01*
X237836054Y-92663946D02*
X236359319Y-91187211D01*
X235833557Y-91187211D02*
X229878528Y-97142240D01*
%TO.N,/PB0*%
X217449914Y-105845065D02*
X219024297Y-105845065D01*
X240449000Y-111469000D02*
X241600000Y-112620000D01*
X227320559Y-106687659D02*
X232101900Y-111469000D01*
X219024297Y-105845065D02*
X219866891Y-106687659D01*
X232101900Y-111469000D02*
X240449000Y-111469000D01*
X219866891Y-106687659D02*
X227320559Y-106687659D01*
%TO.N,Net-(J15-Pin_7b)*%
X240449000Y-106389000D02*
X241600000Y-107540000D01*
X237400000Y-102427760D02*
X238821240Y-103849000D01*
X239774760Y-103849000D02*
X240449000Y-104523240D01*
X240449000Y-104523240D02*
X240449000Y-106389000D01*
X237400000Y-100521000D02*
X237400000Y-102427760D01*
X238821240Y-103849000D02*
X239774760Y-103849000D01*
%TO.N,Net-(J15-Pin_8b)*%
X239536760Y-101309000D02*
X240332001Y-102104241D01*
X233650000Y-95679000D02*
X233650000Y-95991768D01*
X233650000Y-95991768D02*
X237951000Y-100292768D01*
X237951000Y-100292768D02*
X237951000Y-100438760D01*
X237951000Y-100438760D02*
X238821240Y-101309000D01*
X240332001Y-102104241D02*
X240332001Y-102173322D01*
X238821240Y-101309000D02*
X239536760Y-101309000D01*
%TO.N,Net-(J15-Pin_4b)*%
X218100000Y-102400000D02*
X226150000Y-102400000D01*
X217050000Y-103450000D02*
X218100000Y-102400000D01*
%TO.N,Net-(J15-Pin_6a)*%
X210692270Y-91100000D02*
X222900000Y-91100000D01*
X209537270Y-92255000D02*
X210692270Y-91100000D01*
X222900000Y-91100000D02*
X233500000Y-101700000D01*
%TO.N,/PB1*%
X219981267Y-105379999D02*
X226579999Y-105379999D01*
X219829396Y-105228128D02*
X219981267Y-105379999D01*
X226579999Y-105379999D02*
X232000000Y-110800000D01*
X232000000Y-110800000D02*
X236600000Y-110800000D01*
X219829396Y-105179265D02*
X219829396Y-105228128D01*
%TO.N,Net-(U1A-PC4)*%
X219186254Y-105454064D02*
X219104680Y-105454064D01*
X219104680Y-105454064D02*
X218954681Y-105304065D01*
X223675000Y-106147659D02*
X219879849Y-106147659D01*
X219879849Y-106147659D02*
X219186254Y-105454064D01*
X217225824Y-105304065D02*
X216908914Y-105620975D01*
X216908914Y-105620975D02*
X216908914Y-106260440D01*
X218954681Y-105304065D02*
X217225824Y-105304065D01*
X216908914Y-106260440D02*
X217438914Y-106790440D01*
%TO.N,Net-(U1A-PB14)*%
X221800000Y-100400000D02*
X223600000Y-98600000D01*
X217835000Y-100400000D02*
X221800000Y-100400000D01*
%TO.N,Net-(U1A-PB15)*%
X214237199Y-98752988D02*
X214237199Y-95013989D01*
X214237199Y-95013989D02*
X215181222Y-94069966D01*
%TO.N,Net-(U1A-PA8)*%
X211078088Y-100539995D02*
X211078088Y-95485240D01*
X208551688Y-94460162D02*
X206100000Y-96911850D01*
X206100000Y-96911850D02*
X206100000Y-97100000D01*
X209150000Y-94572658D02*
X209037504Y-94460162D01*
X211414996Y-100876903D02*
X211078088Y-100539995D01*
X209037504Y-94460162D02*
X208551688Y-94460162D01*
X211078088Y-95078088D02*
X210572658Y-94572658D01*
X210572658Y-94572658D02*
X209150000Y-94572658D01*
X211078088Y-95485240D02*
X211078088Y-95078088D01*
%TO.N,Net-(U1A-PB2)*%
X223700000Y-104700000D02*
X224500000Y-103900000D01*
X219811809Y-104433175D02*
X220078634Y-104700000D01*
X220078634Y-104700000D02*
X223700000Y-104700000D01*
%TO.N,Net-(U1A-PC12)*%
X198932420Y-101767581D02*
X198932420Y-100488348D01*
X199263871Y-104108820D02*
X199500000Y-103872691D01*
X198932420Y-100488348D02*
X199382152Y-100038616D01*
X201538616Y-100038616D02*
X202261620Y-100761620D01*
X199500000Y-102335161D02*
X198932420Y-101767581D01*
X199382152Y-100038616D02*
X201538616Y-100038616D01*
X199500000Y-103872691D02*
X199500000Y-102335161D01*
%TO.N,Net-(U1A-PA12)*%
X210665100Y-100887903D02*
X209834418Y-100887903D01*
X209834418Y-100887903D02*
X208775778Y-99829263D01*
X208775778Y-99829263D02*
X208775778Y-95001162D01*
%TO.N,Net-(U1A-PC6)*%
X213537200Y-98755386D02*
X213537200Y-94412800D01*
X213537200Y-94412800D02*
X214000000Y-93950000D01*
%TO.N,Net-(U1A-PC7)*%
X212088591Y-99735421D02*
X212088591Y-95388591D01*
X213189385Y-100836215D02*
X212088591Y-99735421D01*
%TO.N,Net-(U1A-PA11)*%
X209676718Y-97070984D02*
X209676718Y-96077247D01*
X209676718Y-96077247D02*
X210388392Y-95365573D01*
%TO.N,Net-(U1A-PB12)*%
X218400000Y-98700000D02*
X219800000Y-97300000D01*
X217434000Y-98700000D02*
X218400000Y-98700000D01*
%TO.N,Net-(U1A-PB13)*%
X218216643Y-95450000D02*
X218100000Y-95450000D01*
X218402763Y-95263880D02*
X218216643Y-95450000D01*
X215338199Y-98211801D02*
X215338199Y-98777307D01*
X218100000Y-95450000D02*
X215338199Y-98211801D01*
%TO.N,Net-(U1A-PA6)*%
X221322489Y-107879001D02*
X222872886Y-109429398D01*
X219505065Y-107879001D02*
X221322489Y-107879001D01*
%TO.N,Net-(U1A-PA7)*%
X219500000Y-107100000D02*
X219700000Y-107300000D01*
X219700000Y-107300000D02*
X225785946Y-107300000D01*
X225785946Y-107300000D02*
X225847287Y-107238659D01*
%TD*%
%TA.AperFunction,Conductor*%
%TO.N,GND*%
G36*
X235621221Y-91912888D02*
G01*
X235677154Y-91954760D01*
X235685273Y-91967068D01*
X235695352Y-91984524D01*
X235709301Y-92008684D01*
X235791316Y-92090699D01*
X235891762Y-92148692D01*
X236003796Y-92178711D01*
X236040098Y-92178711D01*
X236107137Y-92198396D01*
X236127779Y-92215030D01*
X237780120Y-93867371D01*
X237834207Y-93921458D01*
X237871817Y-93943172D01*
X237897064Y-93957749D01*
X237900449Y-93959703D01*
X237974333Y-93979500D01*
X238151581Y-93979500D01*
X238218620Y-93999185D01*
X238264375Y-94051989D01*
X238274319Y-94121147D01*
X238254683Y-94172391D01*
X238137918Y-94347140D01*
X238059486Y-94536494D01*
X238059483Y-94536504D01*
X238019500Y-94737515D01*
X238019500Y-94942484D01*
X238059483Y-95143495D01*
X238059486Y-95143505D01*
X238137918Y-95332859D01*
X238251790Y-95503279D01*
X238251793Y-95503283D01*
X238396716Y-95648206D01*
X238396720Y-95648209D01*
X238567138Y-95762080D01*
X238567139Y-95762080D01*
X238567140Y-95762081D01*
X238597596Y-95774696D01*
X238756497Y-95840515D01*
X238952372Y-95879476D01*
X238957515Y-95880499D01*
X238957519Y-95880500D01*
X238957520Y-95880500D01*
X239162481Y-95880500D01*
X239162482Y-95880499D01*
X239363503Y-95840515D01*
X239552862Y-95762080D01*
X239723280Y-95648209D01*
X239723281Y-95648207D01*
X239727609Y-95645316D01*
X239794286Y-95624438D01*
X239861666Y-95642922D01*
X239908357Y-95694901D01*
X239920500Y-95748418D01*
X239920500Y-96471581D01*
X239900815Y-96538620D01*
X239848011Y-96584375D01*
X239778853Y-96594319D01*
X239727609Y-96574683D01*
X239552859Y-96457918D01*
X239378423Y-96385665D01*
X239363503Y-96379485D01*
X239363499Y-96379484D01*
X239363495Y-96379483D01*
X239162484Y-96339500D01*
X239162480Y-96339500D01*
X238957520Y-96339500D01*
X238957515Y-96339500D01*
X238756504Y-96379483D01*
X238756490Y-96379487D01*
X238630681Y-96431599D01*
X238561212Y-96439068D01*
X238498733Y-96407793D01*
X238495548Y-96404719D01*
X237537373Y-95446544D01*
X237537371Y-95446542D01*
X237478449Y-95412523D01*
X237471130Y-95408297D01*
X237422414Y-95395244D01*
X237397245Y-95388500D01*
X237397244Y-95388500D01*
X237083823Y-95388500D01*
X237016784Y-95368815D01*
X236996142Y-95352181D01*
X236970475Y-95326514D01*
X236970473Y-95326512D01*
X236919884Y-95297304D01*
X236870028Y-95268519D01*
X236786689Y-95246189D01*
X236757993Y-95238500D01*
X236642007Y-95238500D01*
X236642004Y-95238500D01*
X236595592Y-95250936D01*
X236570600Y-95250340D01*
X236545853Y-95253899D01*
X236536270Y-95249522D01*
X236525742Y-95249272D01*
X236505040Y-95235260D01*
X236482297Y-95224874D01*
X236476602Y-95216012D01*
X236467880Y-95210109D01*
X236458039Y-95187128D01*
X236444523Y-95166096D01*
X236442242Y-95150237D01*
X236440377Y-95145880D01*
X236439500Y-95131161D01*
X236439500Y-94999946D01*
X236459185Y-94932907D01*
X236501498Y-94892560D01*
X236569882Y-94853079D01*
X236651897Y-94771064D01*
X236709890Y-94670618D01*
X236739909Y-94558584D01*
X236739909Y-94442598D01*
X236709890Y-94330564D01*
X236651897Y-94230118D01*
X236569882Y-94148103D01*
X236469436Y-94090110D01*
X236465516Y-94089059D01*
X236462583Y-94087271D01*
X236461932Y-94087002D01*
X236461974Y-94086900D01*
X236405858Y-94052694D01*
X236375330Y-93989846D01*
X236383627Y-93920471D01*
X236419204Y-93874674D01*
X236419101Y-93874571D01*
X236419928Y-93873743D01*
X236422133Y-93870906D01*
X236424837Y-93868829D01*
X236424848Y-93868824D01*
X236516172Y-93777500D01*
X236580748Y-93665652D01*
X236614174Y-93540902D01*
X236614174Y-93411750D01*
X236580748Y-93287000D01*
X236516172Y-93175152D01*
X236424848Y-93083828D01*
X236368924Y-93051540D01*
X236313001Y-93019252D01*
X236250625Y-93002539D01*
X236188250Y-92985826D01*
X236059098Y-92985826D01*
X235934346Y-93019252D01*
X235822500Y-93083828D01*
X235756820Y-93149508D01*
X235695496Y-93182992D01*
X235669139Y-93185826D01*
X235035197Y-93185826D01*
X234961311Y-93205623D01*
X234895071Y-93243868D01*
X234895068Y-93243870D01*
X232866544Y-95272394D01*
X232866542Y-95272397D01*
X232828297Y-95338637D01*
X232808500Y-95412523D01*
X232808500Y-100298309D01*
X232788815Y-100365348D01*
X232736011Y-100411103D01*
X232666853Y-100421047D01*
X232603297Y-100392022D01*
X232596819Y-100385990D01*
X230074377Y-97863548D01*
X230040892Y-97802225D01*
X230045876Y-97732533D01*
X230087748Y-97676600D01*
X230100047Y-97668486D01*
X230179702Y-97622498D01*
X230271026Y-97531174D01*
X230335602Y-97419326D01*
X230369028Y-97294576D01*
X230369028Y-97165424D01*
X230365821Y-97153455D01*
X230367482Y-97083609D01*
X230397912Y-97033683D01*
X235490208Y-91941387D01*
X235551529Y-91907904D01*
X235621221Y-91912888D01*
G37*
%TD.AperFunction*%
%TA.AperFunction,Conductor*%
G36*
X192959422Y-109120201D02*
G01*
X192966887Y-109119658D01*
X192991412Y-109133008D01*
X193017339Y-109143387D01*
X193028216Y-109153041D01*
X193028254Y-109153062D01*
X193028267Y-109153087D01*
X193028370Y-109153178D01*
X195657650Y-111782458D01*
X195723892Y-111820703D01*
X195797775Y-111840500D01*
X195797776Y-111840500D01*
X202821241Y-111840500D01*
X202842486Y-111846738D01*
X202864575Y-111848318D01*
X202875358Y-111856390D01*
X202888280Y-111860185D01*
X202902779Y-111876918D01*
X202920508Y-111890190D01*
X202925215Y-111902810D01*
X202934035Y-111912989D01*
X202937186Y-111934906D01*
X202944925Y-111955654D01*
X202942062Y-111968814D01*
X202943979Y-111982147D01*
X202934779Y-112002290D01*
X202930073Y-112023927D01*
X202916804Y-112041652D01*
X202914954Y-112045703D01*
X202908922Y-112052181D01*
X202736922Y-112224181D01*
X202675599Y-112257666D01*
X202649241Y-112260500D01*
X194097838Y-112260500D01*
X194030799Y-112240815D01*
X193985044Y-112188011D01*
X193975100Y-112118853D01*
X193978060Y-112104419D01*
X193990500Y-112057993D01*
X193990500Y-111942007D01*
X193960481Y-111829973D01*
X193902488Y-111729527D01*
X193820473Y-111647512D01*
X193770250Y-111618515D01*
X193720028Y-111589519D01*
X193664010Y-111574509D01*
X193607993Y-111559500D01*
X193607992Y-111559500D01*
X193571691Y-111559500D01*
X193504652Y-111539815D01*
X193484010Y-111523181D01*
X192783608Y-110822779D01*
X192750123Y-110761456D01*
X192747289Y-110735098D01*
X192747289Y-109333823D01*
X192766974Y-109266784D01*
X192771924Y-109259644D01*
X192777278Y-109252471D01*
X192809277Y-109220473D01*
X192836958Y-109172528D01*
X192841324Y-109166680D01*
X192863655Y-109149916D01*
X192883868Y-109130644D01*
X192891217Y-109129227D01*
X192897202Y-109124735D01*
X192925049Y-109122706D01*
X192952474Y-109117420D01*
X192959422Y-109120201D01*
G37*
%TD.AperFunction*%
%TA.AperFunction,Conductor*%
G36*
X193464978Y-106992796D02*
G01*
X193513674Y-107042901D01*
X193527550Y-107111379D01*
X193502202Y-107176488D01*
X193491687Y-107188449D01*
X193456931Y-107223205D01*
X193374217Y-107346995D01*
X193317245Y-107484540D01*
X193317243Y-107484548D01*
X193288200Y-107630555D01*
X193288200Y-107779444D01*
X193317243Y-107925451D01*
X193317245Y-107925459D01*
X193374217Y-108063004D01*
X193456931Y-108186794D01*
X193562205Y-108292068D01*
X193685995Y-108374782D01*
X193754767Y-108403268D01*
X193823541Y-108431755D01*
X193907312Y-108448418D01*
X193969555Y-108460799D01*
X193969558Y-108460800D01*
X193969560Y-108460800D01*
X194118442Y-108460800D01*
X194118443Y-108460799D01*
X194264459Y-108431755D01*
X194402006Y-108374781D01*
X194525794Y-108292068D01*
X194631068Y-108186794D01*
X194698556Y-108085791D01*
X194752165Y-108040989D01*
X194821490Y-108032281D01*
X194884518Y-108062435D01*
X194921238Y-108121878D01*
X194921399Y-108122475D01*
X194929360Y-108152183D01*
X194967605Y-108218425D01*
X194967607Y-108218427D01*
X197796999Y-111047819D01*
X197830484Y-111109142D01*
X197825500Y-111178834D01*
X197783628Y-111234767D01*
X197718164Y-111259184D01*
X197709318Y-111259500D01*
X196007712Y-111259500D01*
X195940673Y-111239815D01*
X195920031Y-111223181D01*
X192127851Y-107431001D01*
X192094366Y-107369678D01*
X192099350Y-107299986D01*
X192141222Y-107244053D01*
X192206686Y-107219636D01*
X192234923Y-107220846D01*
X192406044Y-107247950D01*
X192406046Y-107247950D01*
X192633955Y-107247950D01*
X192633956Y-107247950D01*
X192859062Y-107212296D01*
X193075820Y-107141868D01*
X193278891Y-107038398D01*
X193331119Y-107000451D01*
X193396924Y-106976971D01*
X193464978Y-106992796D01*
G37*
%TD.AperFunction*%
%TA.AperFunction,Conductor*%
G36*
X184360172Y-107316283D02*
G01*
X184362147Y-107316000D01*
X184363887Y-107316356D01*
X184364554Y-107316370D01*
X184370630Y-107317365D01*
X184489880Y-107349318D01*
X184565596Y-107349318D01*
X184575554Y-107350950D01*
X184638528Y-107381218D01*
X184675140Y-107440727D01*
X184679500Y-107473318D01*
X184679500Y-107642484D01*
X184719483Y-107843495D01*
X184719486Y-107843505D01*
X184797918Y-108032859D01*
X184911790Y-108203279D01*
X184911793Y-108203283D01*
X185056716Y-108348206D01*
X185056720Y-108348209D01*
X185227138Y-108462080D01*
X185416497Y-108540515D01*
X185584862Y-108574004D01*
X185617515Y-108580499D01*
X185617519Y-108580500D01*
X185617520Y-108580500D01*
X185822481Y-108580500D01*
X185822482Y-108580499D01*
X186023503Y-108540515D01*
X186212862Y-108462080D01*
X186383280Y-108348209D01*
X186528209Y-108203280D01*
X186642080Y-108032862D01*
X186654943Y-108001809D01*
X186694195Y-107907047D01*
X186738036Y-107852644D01*
X186804331Y-107830579D01*
X186808756Y-107830500D01*
X191654330Y-107830500D01*
X191721369Y-107850185D01*
X191742011Y-107866819D01*
X192253610Y-108378418D01*
X192287095Y-108439741D01*
X192282111Y-108509433D01*
X192240239Y-108565366D01*
X192227930Y-108573485D01*
X192186322Y-108597508D01*
X192186313Y-108597514D01*
X192104303Y-108679524D01*
X192104301Y-108679527D01*
X192046308Y-108779971D01*
X192032244Y-108832461D01*
X192016289Y-108892007D01*
X192016289Y-109007993D01*
X192021553Y-109027637D01*
X192046308Y-109120028D01*
X192068186Y-109157920D01*
X192104301Y-109220473D01*
X192104303Y-109220475D01*
X192129970Y-109246142D01*
X192163455Y-109307465D01*
X192166289Y-109333823D01*
X192166289Y-109701788D01*
X192146604Y-109768827D01*
X192093800Y-109814582D01*
X192024642Y-109824526D01*
X192010200Y-109821563D01*
X191921365Y-109797761D01*
X191792213Y-109797761D01*
X191667461Y-109831187D01*
X191555615Y-109895763D01*
X191489935Y-109961443D01*
X191428611Y-109994927D01*
X191402254Y-109997761D01*
X190575150Y-109997761D01*
X190513149Y-109981147D01*
X190491123Y-109968430D01*
X190491120Y-109968429D01*
X190491119Y-109968428D01*
X190491118Y-109968428D01*
X190379084Y-109938409D01*
X190263098Y-109938409D01*
X190151062Y-109968428D01*
X190050618Y-110026421D01*
X190050615Y-110026423D01*
X189968605Y-110108433D01*
X189968603Y-110108436D01*
X189910610Y-110208880D01*
X189880591Y-110320916D01*
X189880591Y-110436901D01*
X189910610Y-110548937D01*
X189928203Y-110579408D01*
X189968603Y-110649382D01*
X189968605Y-110649384D01*
X190048040Y-110728819D01*
X190081525Y-110790142D01*
X190076541Y-110859834D01*
X190034669Y-110915767D01*
X189969205Y-110940184D01*
X189960359Y-110940500D01*
X186628419Y-110940500D01*
X186561380Y-110920815D01*
X186515625Y-110868011D01*
X186505681Y-110798853D01*
X186525317Y-110747609D01*
X186575548Y-110672433D01*
X186642080Y-110572862D01*
X186720515Y-110383503D01*
X186760500Y-110182480D01*
X186760500Y-109977520D01*
X186720515Y-109776497D01*
X186647170Y-109599426D01*
X186642081Y-109587140D01*
X186608193Y-109536424D01*
X186528209Y-109416720D01*
X186528206Y-109416716D01*
X186383283Y-109271793D01*
X186383279Y-109271790D01*
X186212859Y-109157918D01*
X186023505Y-109079486D01*
X186023506Y-109079486D01*
X186023503Y-109079485D01*
X186023499Y-109079484D01*
X186023495Y-109079483D01*
X185822484Y-109039500D01*
X185822480Y-109039500D01*
X185617520Y-109039500D01*
X185617515Y-109039500D01*
X185416504Y-109079483D01*
X185416494Y-109079486D01*
X185227140Y-109157918D01*
X185056720Y-109271790D01*
X185056716Y-109271793D01*
X184911793Y-109416716D01*
X184911790Y-109416720D01*
X184797918Y-109587140D01*
X184719486Y-109776494D01*
X184719483Y-109776504D01*
X184679500Y-109977515D01*
X184679500Y-110182484D01*
X184719483Y-110383495D01*
X184719486Y-110383505D01*
X184797918Y-110572859D01*
X184914683Y-110747609D01*
X184935561Y-110814287D01*
X184917077Y-110881667D01*
X184865098Y-110928357D01*
X184811581Y-110940500D01*
X184502691Y-110940500D01*
X184435652Y-110920815D01*
X184415010Y-110904181D01*
X184155280Y-110644451D01*
X184121795Y-110583128D01*
X184126779Y-110513436D01*
X184128377Y-110509374D01*
X184180515Y-110383503D01*
X184220500Y-110182480D01*
X184220500Y-109977520D01*
X184180515Y-109776497D01*
X184107170Y-109599426D01*
X184102081Y-109587140D01*
X184068193Y-109536424D01*
X183988209Y-109416720D01*
X183988206Y-109416716D01*
X183843283Y-109271793D01*
X183843279Y-109271790D01*
X183672859Y-109157918D01*
X183483505Y-109079486D01*
X183483506Y-109079486D01*
X183483503Y-109079485D01*
X183483499Y-109079484D01*
X183483495Y-109079483D01*
X183282484Y-109039500D01*
X183282480Y-109039500D01*
X183077520Y-109039500D01*
X183077515Y-109039500D01*
X182876504Y-109079483D01*
X182876494Y-109079486D01*
X182687140Y-109157918D01*
X182512391Y-109274683D01*
X182445713Y-109295561D01*
X182378333Y-109277077D01*
X182331643Y-109225098D01*
X182319500Y-109171581D01*
X182319500Y-108448418D01*
X182339185Y-108381379D01*
X182391989Y-108335624D01*
X182461147Y-108325680D01*
X182512391Y-108345316D01*
X182516718Y-108348207D01*
X182516720Y-108348209D01*
X182687138Y-108462080D01*
X182876497Y-108540515D01*
X183044862Y-108574004D01*
X183077515Y-108580499D01*
X183077519Y-108580500D01*
X183077520Y-108580500D01*
X183282481Y-108580500D01*
X183282482Y-108580499D01*
X183483503Y-108540515D01*
X183672862Y-108462080D01*
X183843280Y-108348209D01*
X183988209Y-108203280D01*
X184102080Y-108032862D01*
X184180515Y-107843503D01*
X184220500Y-107642480D01*
X184220500Y-107438738D01*
X184225858Y-107420489D01*
X184226232Y-107401473D01*
X184235498Y-107387657D01*
X184240185Y-107371699D01*
X184254557Y-107359244D01*
X184265154Y-107343448D01*
X184280419Y-107336835D01*
X184292989Y-107325944D01*
X184311812Y-107323237D01*
X184329267Y-107315677D01*
X184360172Y-107316283D01*
G37*
%TD.AperFunction*%
%TA.AperFunction,Conductor*%
G36*
X204275150Y-100987219D02*
G01*
X204286179Y-100997008D01*
X205123181Y-101834010D01*
X205156666Y-101895333D01*
X205159500Y-101921691D01*
X205159500Y-102014576D01*
X205172885Y-102064530D01*
X205192926Y-102139327D01*
X205209218Y-102167544D01*
X205257502Y-102251174D01*
X205348826Y-102342498D01*
X205460674Y-102407074D01*
X205585424Y-102440500D01*
X205585426Y-102440500D01*
X205714574Y-102440500D01*
X205714576Y-102440500D01*
X205839326Y-102407074D01*
X205951174Y-102342498D01*
X206042498Y-102251174D01*
X206107074Y-102139326D01*
X206140500Y-102014576D01*
X206140500Y-101885424D01*
X206122431Y-101817988D01*
X206124094Y-101748142D01*
X206163256Y-101690279D01*
X206227485Y-101662775D01*
X206296387Y-101674361D01*
X206304199Y-101678507D01*
X206309771Y-101681724D01*
X206339008Y-101698605D01*
X206339010Y-101698605D01*
X206339011Y-101698606D01*
X206412895Y-101718403D01*
X206489385Y-101718403D01*
X207618083Y-101718403D01*
X207685122Y-101738088D01*
X207730877Y-101790892D01*
X207740821Y-101860050D01*
X207737859Y-101874490D01*
X207722428Y-101932081D01*
X207722428Y-102048067D01*
X207738129Y-102106666D01*
X207739511Y-102111821D01*
X207737848Y-102181671D01*
X207698685Y-102239533D01*
X207681737Y-102251300D01*
X207624581Y-102284299D01*
X207624572Y-102284306D01*
X207542562Y-102366316D01*
X207542560Y-102366319D01*
X207484567Y-102466763D01*
X207454811Y-102577819D01*
X207454548Y-102578799D01*
X207454548Y-102694785D01*
X207481662Y-102795979D01*
X207484568Y-102806821D01*
X207484568Y-102806822D01*
X207539947Y-102902740D01*
X207556420Y-102970640D01*
X207533568Y-103036667D01*
X207520241Y-103052421D01*
X203284664Y-107287998D01*
X203223341Y-107321483D01*
X203153649Y-107316499D01*
X203097716Y-107274627D01*
X203073299Y-107209163D01*
X203088151Y-107140890D01*
X203089597Y-107138315D01*
X203091943Y-107134253D01*
X203110481Y-107102144D01*
X203140500Y-106990110D01*
X203140500Y-106874124D01*
X203110481Y-106762090D01*
X203106711Y-106755561D01*
X203096765Y-106738333D01*
X203052488Y-106661644D01*
X202970473Y-106579629D01*
X202900944Y-106539486D01*
X202870028Y-106521636D01*
X202793496Y-106501130D01*
X202757993Y-106491617D01*
X202642007Y-106491617D01*
X202529971Y-106521636D01*
X202429527Y-106579629D01*
X202422670Y-106586486D01*
X202361345Y-106619968D01*
X202291654Y-106614981D01*
X202247311Y-106586482D01*
X200377819Y-104716990D01*
X200344334Y-104655667D01*
X200343253Y-104650088D01*
X200341500Y-104639774D01*
X200341500Y-104533523D01*
X200321703Y-104459639D01*
X200306366Y-104433075D01*
X200302637Y-104411133D01*
X200303801Y-104401243D01*
X200301635Y-104393158D01*
X202132832Y-104393158D01*
X202132832Y-104509144D01*
X202136511Y-104522873D01*
X202162851Y-104621179D01*
X202177902Y-104647247D01*
X202220844Y-104721624D01*
X202302859Y-104803639D01*
X202403305Y-104861632D01*
X202515339Y-104891651D01*
X202515341Y-104891651D01*
X202631323Y-104891651D01*
X202631325Y-104891651D01*
X202743359Y-104861632D01*
X202843805Y-104803639D01*
X202869474Y-104777970D01*
X202930797Y-104744485D01*
X202957155Y-104741651D01*
X204547130Y-104741651D01*
X204547132Y-104741651D01*
X204621016Y-104721854D01*
X204687258Y-104683609D01*
X205441048Y-103929819D01*
X205502371Y-103896334D01*
X205528729Y-103893500D01*
X205565029Y-103893500D01*
X205565031Y-103893500D01*
X205677065Y-103863481D01*
X205777511Y-103805488D01*
X205859526Y-103723473D01*
X205917519Y-103623027D01*
X205947538Y-103510993D01*
X205947538Y-103395007D01*
X205917519Y-103282973D01*
X205859526Y-103182527D01*
X205777511Y-103100512D01*
X205727288Y-103071515D01*
X205677066Y-103042519D01*
X205609633Y-103024451D01*
X205565031Y-103012500D01*
X205449045Y-103012500D01*
X205337009Y-103042519D01*
X205236565Y-103100512D01*
X205236562Y-103100514D01*
X205154552Y-103182524D01*
X205154550Y-103182527D01*
X205096557Y-103282971D01*
X205066538Y-103395007D01*
X205066538Y-103431309D01*
X205046853Y-103498348D01*
X205030219Y-103518990D01*
X204424877Y-104124332D01*
X204363554Y-104157817D01*
X204337196Y-104160651D01*
X202957155Y-104160651D01*
X202890116Y-104140966D01*
X202869474Y-104124332D01*
X202843807Y-104098665D01*
X202843805Y-104098663D01*
X202786497Y-104065576D01*
X202743360Y-104040670D01*
X202676271Y-104022694D01*
X202631325Y-104010651D01*
X202515339Y-104010651D01*
X202403303Y-104040670D01*
X202302859Y-104098663D01*
X202302856Y-104098665D01*
X202220846Y-104180675D01*
X202220844Y-104180678D01*
X202162851Y-104281122D01*
X202134584Y-104386621D01*
X202132832Y-104393158D01*
X200301635Y-104393158D01*
X200300884Y-104390354D01*
X200300884Y-103511171D01*
X200320569Y-103444132D01*
X200373373Y-103398377D01*
X200442531Y-103388433D01*
X200506087Y-103417458D01*
X200537365Y-103466128D01*
X200539819Y-103465112D01*
X200542926Y-103472615D01*
X200565084Y-103510993D01*
X200607503Y-103584464D01*
X200698827Y-103675788D01*
X200810675Y-103740364D01*
X200935425Y-103773790D01*
X200935427Y-103773790D01*
X201064575Y-103773790D01*
X201064577Y-103773790D01*
X201189327Y-103740364D01*
X201301175Y-103675788D01*
X201392499Y-103584464D01*
X201457075Y-103472616D01*
X201490501Y-103347866D01*
X201490501Y-103254980D01*
X201510186Y-103187941D01*
X201526820Y-103167299D01*
X203026129Y-101667991D01*
X203087452Y-101634506D01*
X203113810Y-101631672D01*
X203147071Y-101631672D01*
X203147073Y-101631672D01*
X203220957Y-101611875D01*
X203287199Y-101573630D01*
X203541815Y-101319012D01*
X203603138Y-101285528D01*
X203629496Y-101282694D01*
X203722380Y-101282694D01*
X203722382Y-101282694D01*
X203847132Y-101249268D01*
X203958980Y-101184692D01*
X204050304Y-101093368D01*
X204091112Y-101022687D01*
X204141678Y-100974473D01*
X204210286Y-100961251D01*
X204275150Y-100987219D01*
G37*
%TD.AperFunction*%
%TA.AperFunction,Conductor*%
G36*
X208321987Y-95183489D02*
G01*
X208340387Y-95184805D01*
X208354450Y-95195222D01*
X208370349Y-95200968D01*
X208386448Y-95218922D01*
X208395558Y-95225670D01*
X208400433Y-95232045D01*
X208423290Y-95271635D01*
X208454780Y-95303125D01*
X208459783Y-95309668D01*
X208469488Y-95334900D01*
X208482444Y-95358627D01*
X208483929Y-95372446D01*
X208484866Y-95374880D01*
X208484422Y-95377025D01*
X208485278Y-95384985D01*
X208485278Y-99867507D01*
X208505075Y-99941393D01*
X208520882Y-99968771D01*
X208543320Y-100007634D01*
X208543322Y-100007636D01*
X209461407Y-100925722D01*
X209494892Y-100987045D01*
X209489908Y-101056737D01*
X209448036Y-101112670D01*
X209382572Y-101137087D01*
X209373726Y-101137403D01*
X206622831Y-101137403D01*
X206555792Y-101117718D01*
X206535150Y-101101084D01*
X203793990Y-98359924D01*
X203793988Y-98359922D01*
X203760867Y-98340799D01*
X203727747Y-98321677D01*
X203690804Y-98311778D01*
X203653862Y-98301880D01*
X194075098Y-98301880D01*
X193998607Y-98301880D01*
X193924721Y-98321677D01*
X193858481Y-98359922D01*
X193858478Y-98359924D01*
X192296581Y-99921820D01*
X192235258Y-99955305D01*
X192165566Y-99950321D01*
X192109633Y-99908449D01*
X192101513Y-99896140D01*
X192099407Y-99892492D01*
X192077488Y-99854527D01*
X191995473Y-99772512D01*
X191935780Y-99738048D01*
X191895028Y-99714519D01*
X191830301Y-99697176D01*
X191782993Y-99684500D01*
X191782992Y-99684500D01*
X191746691Y-99684500D01*
X191679652Y-99664815D01*
X191659010Y-99648181D01*
X190547373Y-98536544D01*
X190547371Y-98536542D01*
X190495921Y-98506837D01*
X190481130Y-98498297D01*
X190444187Y-98488398D01*
X190407245Y-98478500D01*
X186357603Y-98478500D01*
X186290564Y-98458815D01*
X186244809Y-98406011D01*
X186234865Y-98336853D01*
X186263890Y-98273297D01*
X186288712Y-98251398D01*
X186333638Y-98221379D01*
X186383280Y-98188209D01*
X186528209Y-98043280D01*
X186642080Y-97872862D01*
X186720515Y-97683503D01*
X186760500Y-97482480D01*
X186760500Y-97277520D01*
X186720515Y-97076497D01*
X186649600Y-96905293D01*
X186642081Y-96887140D01*
X186638641Y-96881992D01*
X186528209Y-96716720D01*
X186528206Y-96716716D01*
X186383283Y-96571793D01*
X186383279Y-96571790D01*
X186302590Y-96517875D01*
X186288711Y-96508601D01*
X186243907Y-96454990D01*
X186235200Y-96385665D01*
X186265355Y-96322637D01*
X186324798Y-96285918D01*
X186357603Y-96281500D01*
X204247243Y-96281500D01*
X204247245Y-96281500D01*
X204321129Y-96261703D01*
X204387371Y-96223458D01*
X205397819Y-95213010D01*
X205459142Y-95179525D01*
X205528834Y-95184509D01*
X205584767Y-95226381D01*
X205609184Y-95291845D01*
X205609500Y-95300691D01*
X205609500Y-95866139D01*
X205592888Y-95928138D01*
X205589519Y-95933972D01*
X205589519Y-95933973D01*
X205559500Y-96046007D01*
X205559500Y-96161992D01*
X205589519Y-96274028D01*
X205594690Y-96282984D01*
X205647512Y-96374473D01*
X205729527Y-96456488D01*
X205795561Y-96494613D01*
X205843776Y-96545181D01*
X205856998Y-96613788D01*
X205831030Y-96678653D01*
X205804545Y-96701603D01*
X205805275Y-96702554D01*
X205798823Y-96707504D01*
X205707504Y-96798823D01*
X205707502Y-96798826D01*
X205642926Y-96910672D01*
X205619307Y-96998823D01*
X205609500Y-97035424D01*
X205609500Y-97164576D01*
X205609728Y-97165426D01*
X205642926Y-97289327D01*
X205673024Y-97341457D01*
X205707502Y-97401174D01*
X205798826Y-97492498D01*
X205910674Y-97557074D01*
X206035424Y-97590500D01*
X206035426Y-97590500D01*
X206164574Y-97590500D01*
X206164576Y-97590500D01*
X206289326Y-97557074D01*
X206401174Y-97492498D01*
X206492498Y-97401174D01*
X206557074Y-97289326D01*
X206590500Y-97164576D01*
X206590500Y-97035424D01*
X206566078Y-96944278D01*
X206567741Y-96874429D01*
X206598170Y-96824507D01*
X208209374Y-95213304D01*
X208224475Y-95205058D01*
X208236521Y-95192766D01*
X208254505Y-95188661D01*
X208270695Y-95179821D01*
X208287860Y-95181048D01*
X208304639Y-95177219D01*
X208321987Y-95183489D01*
G37*
%TD.AperFunction*%
%TA.AperFunction,Conductor*%
G36*
X243642539Y-90320185D02*
G01*
X243688294Y-90372989D01*
X243699500Y-90424500D01*
X243699500Y-117575500D01*
X243679815Y-117642539D01*
X243627011Y-117688294D01*
X243575500Y-117699500D01*
X181424500Y-117699500D01*
X181357461Y-117679815D01*
X181311706Y-117627011D01*
X181300500Y-117575500D01*
X181300500Y-115057515D01*
X182139500Y-115057515D01*
X182139500Y-115262484D01*
X182179483Y-115463495D01*
X182179486Y-115463505D01*
X182257918Y-115652859D01*
X182371790Y-115823279D01*
X182371793Y-115823283D01*
X182516716Y-115968206D01*
X182516720Y-115968209D01*
X182687138Y-116082080D01*
X182876497Y-116160515D01*
X183077515Y-116200499D01*
X183077519Y-116200500D01*
X183077520Y-116200500D01*
X183282481Y-116200500D01*
X183282482Y-116200499D01*
X183483503Y-116160515D01*
X183672862Y-116082080D01*
X183843280Y-115968209D01*
X183988209Y-115823280D01*
X184102080Y-115652862D01*
X184180515Y-115463503D01*
X184220500Y-115262480D01*
X184220500Y-115057520D01*
X184220499Y-115057515D01*
X184679500Y-115057515D01*
X184679500Y-115262484D01*
X184719483Y-115463495D01*
X184719486Y-115463505D01*
X184797918Y-115652859D01*
X184911790Y-115823279D01*
X184911793Y-115823283D01*
X185056716Y-115968206D01*
X185056720Y-115968209D01*
X185227138Y-116082080D01*
X185416497Y-116160515D01*
X185617515Y-116200499D01*
X185617519Y-116200500D01*
X185617520Y-116200500D01*
X185822481Y-116200500D01*
X185822482Y-116200499D01*
X186023503Y-116160515D01*
X186212862Y-116082080D01*
X186383280Y-115968209D01*
X186528209Y-115823280D01*
X186642080Y-115652862D01*
X186720515Y-115463503D01*
X186760500Y-115262480D01*
X186760500Y-115057520D01*
X186720515Y-114856497D01*
X186642080Y-114667138D01*
X186528209Y-114496720D01*
X186528206Y-114496716D01*
X186383283Y-114351793D01*
X186383279Y-114351790D01*
X186212859Y-114237918D01*
X186023505Y-114159486D01*
X186023506Y-114159486D01*
X186023503Y-114159485D01*
X186023499Y-114159484D01*
X186023495Y-114159483D01*
X185822484Y-114119500D01*
X185822480Y-114119500D01*
X185617520Y-114119500D01*
X185617515Y-114119500D01*
X185416504Y-114159483D01*
X185416494Y-114159486D01*
X185227140Y-114237918D01*
X185056720Y-114351790D01*
X185056716Y-114351793D01*
X184911793Y-114496716D01*
X184911790Y-114496720D01*
X184797918Y-114667140D01*
X184719486Y-114856494D01*
X184719483Y-114856504D01*
X184679500Y-115057515D01*
X184220499Y-115057515D01*
X184180515Y-114856497D01*
X184102080Y-114667138D01*
X183988209Y-114496720D01*
X183988206Y-114496716D01*
X183843283Y-114351793D01*
X183843279Y-114351790D01*
X183672859Y-114237918D01*
X183483505Y-114159486D01*
X183483506Y-114159486D01*
X183483503Y-114159485D01*
X183483499Y-114159484D01*
X183483495Y-114159483D01*
X183282484Y-114119500D01*
X183282480Y-114119500D01*
X183077520Y-114119500D01*
X183077515Y-114119500D01*
X182876504Y-114159483D01*
X182876494Y-114159486D01*
X182687140Y-114237918D01*
X182516720Y-114351790D01*
X182516716Y-114351793D01*
X182371793Y-114496716D01*
X182371790Y-114496720D01*
X182257918Y-114667140D01*
X182179486Y-114856494D01*
X182179483Y-114856504D01*
X182139500Y-115057515D01*
X181300500Y-115057515D01*
X181300500Y-113942007D01*
X209109500Y-113942007D01*
X209109500Y-114057992D01*
X209139519Y-114170028D01*
X209168515Y-114220250D01*
X209197512Y-114270473D01*
X209279527Y-114352488D01*
X209379973Y-114410481D01*
X209492007Y-114440500D01*
X209492009Y-114440500D01*
X209607991Y-114440500D01*
X209607993Y-114440500D01*
X209720027Y-114410481D01*
X209820473Y-114352488D01*
X209846142Y-114326819D01*
X209907465Y-114293334D01*
X209933823Y-114290500D01*
X211715425Y-114290500D01*
X211715427Y-114290500D01*
X211789311Y-114270703D01*
X211855553Y-114232458D01*
X213334009Y-112754002D01*
X213395332Y-112720517D01*
X213421690Y-112717683D01*
X213457990Y-112717683D01*
X213457992Y-112717683D01*
X213570026Y-112687664D01*
X213670472Y-112629671D01*
X213752487Y-112547656D01*
X213810480Y-112447210D01*
X213840499Y-112335176D01*
X213840499Y-112219190D01*
X213810480Y-112107156D01*
X213752487Y-112006710D01*
X213670472Y-111924695D01*
X213602954Y-111885713D01*
X213570027Y-111866702D01*
X213472237Y-111840500D01*
X213457992Y-111836683D01*
X213342006Y-111836683D01*
X213229970Y-111866702D01*
X213129526Y-111924695D01*
X213129523Y-111924697D01*
X213047513Y-112006707D01*
X213047511Y-112006710D01*
X212989518Y-112107154D01*
X212959499Y-112219190D01*
X212959499Y-112255492D01*
X212939814Y-112322531D01*
X212923180Y-112343173D01*
X211593172Y-113673181D01*
X211531849Y-113706666D01*
X211505491Y-113709500D01*
X209933823Y-113709500D01*
X209866784Y-113689815D01*
X209846142Y-113673181D01*
X209820475Y-113647514D01*
X209820473Y-113647512D01*
X209770250Y-113618515D01*
X209720028Y-113589519D01*
X209664010Y-113574509D01*
X209607993Y-113559500D01*
X209492007Y-113559500D01*
X209379971Y-113589519D01*
X209279527Y-113647512D01*
X209279524Y-113647514D01*
X209197514Y-113729524D01*
X209197512Y-113729527D01*
X209139519Y-113829971D01*
X209109500Y-113942007D01*
X181300500Y-113942007D01*
X181300500Y-96864995D01*
X181738500Y-96864995D01*
X181738500Y-111430755D01*
X181738500Y-111507245D01*
X181747227Y-111539815D01*
X181758297Y-111581130D01*
X181777419Y-111614250D01*
X181796542Y-111647371D01*
X181796544Y-111647373D01*
X182204719Y-112055548D01*
X182238204Y-112116871D01*
X182233220Y-112186563D01*
X182231599Y-112190681D01*
X182179487Y-112316490D01*
X182179483Y-112316504D01*
X182139500Y-112517515D01*
X182139500Y-112722484D01*
X182179483Y-112923495D01*
X182179486Y-112923505D01*
X182257918Y-113112859D01*
X182371790Y-113283279D01*
X182371793Y-113283283D01*
X182516716Y-113428206D01*
X182516720Y-113428209D01*
X182687138Y-113542080D01*
X182876497Y-113620515D01*
X183077515Y-113660499D01*
X183077519Y-113660500D01*
X183077520Y-113660500D01*
X183282481Y-113660500D01*
X183282482Y-113660499D01*
X183483503Y-113620515D01*
X183672862Y-113542080D01*
X183843280Y-113428209D01*
X183988209Y-113283280D01*
X184102080Y-113112862D01*
X184180515Y-112923503D01*
X184220500Y-112722480D01*
X184220500Y-112517520D01*
X184180515Y-112316497D01*
X184102080Y-112127138D01*
X183988209Y-111956720D01*
X183988206Y-111956716D01*
X183843283Y-111811793D01*
X183843279Y-111811790D01*
X183672859Y-111697918D01*
X183498423Y-111625665D01*
X183483503Y-111619485D01*
X183483499Y-111619484D01*
X183483495Y-111619483D01*
X183282484Y-111579500D01*
X183282480Y-111579500D01*
X183077520Y-111579500D01*
X183077515Y-111579500D01*
X182876504Y-111619483D01*
X182876490Y-111619487D01*
X182750681Y-111671599D01*
X182681212Y-111679068D01*
X182618733Y-111647793D01*
X182615548Y-111644719D01*
X182355819Y-111384990D01*
X182322334Y-111323667D01*
X182319500Y-111297309D01*
X182319500Y-110988418D01*
X182339185Y-110921379D01*
X182391989Y-110875624D01*
X182461147Y-110865680D01*
X182512391Y-110885316D01*
X182516718Y-110888207D01*
X182516720Y-110888209D01*
X182687138Y-111002080D01*
X182687139Y-111002080D01*
X182687140Y-111002081D01*
X182722113Y-111016567D01*
X182876497Y-111080515D01*
X183064212Y-111117853D01*
X183077515Y-111120499D01*
X183077519Y-111120500D01*
X183077520Y-111120500D01*
X183282481Y-111120500D01*
X183282482Y-111120499D01*
X183483503Y-111080515D01*
X183609320Y-111028399D01*
X183678786Y-111020931D01*
X183741265Y-111052206D01*
X183744451Y-111055280D01*
X184098542Y-111409371D01*
X184152629Y-111463458D01*
X184218871Y-111501703D01*
X184292755Y-111521500D01*
X185082397Y-111521500D01*
X185149436Y-111541185D01*
X185195191Y-111593989D01*
X185205135Y-111663147D01*
X185176110Y-111726703D01*
X185151288Y-111748602D01*
X185056720Y-111811790D01*
X185056716Y-111811793D01*
X184911793Y-111956716D01*
X184911790Y-111956720D01*
X184797918Y-112127140D01*
X184719486Y-112316494D01*
X184719483Y-112316504D01*
X184679500Y-112517515D01*
X184679500Y-112722484D01*
X184719483Y-112923495D01*
X184719486Y-112923505D01*
X184797918Y-113112859D01*
X184911790Y-113283279D01*
X184911793Y-113283283D01*
X185056716Y-113428206D01*
X185056720Y-113428209D01*
X185227138Y-113542080D01*
X185416497Y-113620515D01*
X185617515Y-113660499D01*
X185617519Y-113660500D01*
X185617520Y-113660500D01*
X185822481Y-113660500D01*
X185822482Y-113660499D01*
X186023503Y-113620515D01*
X186212862Y-113542080D01*
X186383280Y-113428209D01*
X186528209Y-113283280D01*
X186642080Y-113112862D01*
X186720515Y-112923503D01*
X186760500Y-112722480D01*
X186760500Y-112517520D01*
X186720515Y-112316497D01*
X186642080Y-112127138D01*
X186528209Y-111956720D01*
X186528206Y-111956716D01*
X186383283Y-111811793D01*
X186383279Y-111811790D01*
X186288712Y-111748602D01*
X186243907Y-111694990D01*
X186235200Y-111625665D01*
X186265355Y-111562637D01*
X186324798Y-111525918D01*
X186357603Y-111521500D01*
X190222259Y-111521500D01*
X190289298Y-111541185D01*
X190309940Y-111557819D01*
X191882492Y-113130371D01*
X191936579Y-113184458D01*
X192002821Y-113222703D01*
X192076705Y-113242500D01*
X192076707Y-113242500D01*
X203306702Y-113242500D01*
X203306704Y-113242500D01*
X203380588Y-113222703D01*
X203446830Y-113184458D01*
X207113840Y-109517448D01*
X215034941Y-109517448D01*
X215034941Y-109633434D01*
X215041109Y-109656454D01*
X215064960Y-109745469D01*
X215088606Y-109786424D01*
X215122953Y-109845914D01*
X215204968Y-109927929D01*
X215275897Y-109968880D01*
X215297143Y-109981147D01*
X215305414Y-109985922D01*
X215417448Y-110015941D01*
X215446242Y-110015941D01*
X215513281Y-110035626D01*
X215533923Y-110052260D01*
X215772686Y-110291023D01*
X215806171Y-110352346D01*
X215809005Y-110378704D01*
X215809005Y-110415005D01*
X215839024Y-110527041D01*
X215859497Y-110562500D01*
X215897017Y-110627486D01*
X215979032Y-110709501D01*
X216079478Y-110767494D01*
X216191512Y-110797513D01*
X216191514Y-110797513D01*
X216307496Y-110797513D01*
X216307498Y-110797513D01*
X216419532Y-110767494D01*
X216519978Y-110709501D01*
X216601993Y-110627486D01*
X216659986Y-110527040D01*
X216690005Y-110415006D01*
X216690005Y-110299020D01*
X216659986Y-110186986D01*
X216657384Y-110182480D01*
X216652215Y-110173526D01*
X216601993Y-110086540D01*
X216519978Y-110004525D01*
X216457460Y-109968430D01*
X216419533Y-109946532D01*
X216363515Y-109931522D01*
X216307498Y-109916513D01*
X216307497Y-109916513D01*
X216271196Y-109916513D01*
X216204157Y-109896828D01*
X216183515Y-109880194D01*
X215952260Y-109648939D01*
X215918775Y-109587616D01*
X215915941Y-109561258D01*
X215915941Y-109517450D01*
X215915941Y-109517448D01*
X215885922Y-109405414D01*
X215827929Y-109304968D01*
X215745914Y-109222953D01*
X215695691Y-109193956D01*
X215645469Y-109164960D01*
X215564955Y-109143387D01*
X215533434Y-109134941D01*
X215417448Y-109134941D01*
X215305412Y-109164960D01*
X215204968Y-109222953D01*
X215204965Y-109222955D01*
X215122955Y-109304965D01*
X215122953Y-109304968D01*
X215064960Y-109405412D01*
X215041276Y-109493806D01*
X215034941Y-109517448D01*
X207113840Y-109517448D01*
X207691332Y-108939956D01*
X211874469Y-104756818D01*
X211935792Y-104723333D01*
X211962150Y-104720499D01*
X212055034Y-104720499D01*
X212055036Y-104720499D01*
X212179786Y-104687073D01*
X212291634Y-104622497D01*
X212382958Y-104531173D01*
X212447534Y-104419325D01*
X212480960Y-104294575D01*
X212480960Y-104165423D01*
X212447534Y-104040673D01*
X212382958Y-103928825D01*
X212291634Y-103837501D01*
X212211990Y-103791518D01*
X212163775Y-103740950D01*
X212150553Y-103672343D01*
X212176521Y-103607478D01*
X212186302Y-103596458D01*
X214093424Y-101689337D01*
X214104582Y-101670008D01*
X214124282Y-101644335D01*
X215411657Y-100356962D01*
X215424092Y-100335424D01*
X217344500Y-100335424D01*
X217344500Y-100464576D01*
X217360534Y-100524417D01*
X217377926Y-100589327D01*
X217403942Y-100634387D01*
X217442502Y-100701174D01*
X217533826Y-100792498D01*
X217645674Y-100857074D01*
X217770424Y-100890500D01*
X217770426Y-100890500D01*
X217899574Y-100890500D01*
X217899576Y-100890500D01*
X218024326Y-100857074D01*
X218136174Y-100792498D01*
X218201854Y-100726818D01*
X218263178Y-100693334D01*
X218289535Y-100690500D01*
X221838243Y-100690500D01*
X221838245Y-100690500D01*
X221912129Y-100670703D01*
X221978371Y-100632458D01*
X223484010Y-99126819D01*
X223545333Y-99093334D01*
X223571691Y-99090500D01*
X223664574Y-99090500D01*
X223664576Y-99090500D01*
X223789326Y-99057074D01*
X223901174Y-98992498D01*
X223992498Y-98901174D01*
X224057074Y-98789326D01*
X224090500Y-98664576D01*
X224090500Y-98535424D01*
X224057074Y-98410674D01*
X224050233Y-98398826D01*
X224039662Y-98380516D01*
X223992498Y-98298826D01*
X223901174Y-98207502D01*
X223826586Y-98164438D01*
X223789327Y-98142926D01*
X223726951Y-98126213D01*
X223664576Y-98109500D01*
X223535424Y-98109500D01*
X223410672Y-98142926D01*
X223298826Y-98207502D01*
X223298823Y-98207504D01*
X223207504Y-98298823D01*
X223207502Y-98298826D01*
X223142926Y-98410672D01*
X223109500Y-98535424D01*
X223109500Y-98628307D01*
X223089815Y-98695346D01*
X223073180Y-98715988D01*
X222043918Y-99745253D01*
X221715990Y-100073181D01*
X221654667Y-100106666D01*
X221628309Y-100109500D01*
X218289535Y-100109500D01*
X218222496Y-100089815D01*
X218201854Y-100073182D01*
X218180853Y-100052181D01*
X218136174Y-100007502D01*
X218080250Y-99975214D01*
X218024327Y-99942926D01*
X217943115Y-99921166D01*
X217899576Y-99909500D01*
X217770424Y-99909500D01*
X217645672Y-99942926D01*
X217533826Y-100007502D01*
X217533823Y-100007504D01*
X217442504Y-100098823D01*
X217442502Y-100098826D01*
X217377926Y-100210672D01*
X217356447Y-100290836D01*
X217344500Y-100335424D01*
X215424092Y-100335424D01*
X215449902Y-100290720D01*
X215469699Y-100216836D01*
X215469699Y-100140346D01*
X215469699Y-99892492D01*
X215489384Y-99825453D01*
X215506018Y-99804811D01*
X216731819Y-98579010D01*
X216793142Y-98545525D01*
X216862834Y-98550509D01*
X216918767Y-98592381D01*
X216943184Y-98657845D01*
X216943500Y-98666691D01*
X216943500Y-98764575D01*
X216976926Y-98889327D01*
X217001827Y-98932455D01*
X217041502Y-99001174D01*
X217132826Y-99092498D01*
X217244674Y-99157074D01*
X217369424Y-99190500D01*
X217369426Y-99190500D01*
X217498574Y-99190500D01*
X217498576Y-99190500D01*
X217623326Y-99157074D01*
X217735174Y-99092498D01*
X217800854Y-99026818D01*
X217862178Y-98993334D01*
X217888535Y-98990500D01*
X218438243Y-98990500D01*
X218438245Y-98990500D01*
X218512129Y-98970703D01*
X218578371Y-98932458D01*
X219684009Y-97826818D01*
X219745332Y-97793334D01*
X219771690Y-97790500D01*
X219864574Y-97790500D01*
X219864576Y-97790500D01*
X219989326Y-97757074D01*
X220101174Y-97692498D01*
X220192498Y-97601174D01*
X220257074Y-97489326D01*
X220290500Y-97364576D01*
X220290500Y-97235424D01*
X220257074Y-97110674D01*
X220192498Y-96998826D01*
X220101174Y-96907502D01*
X220040981Y-96872749D01*
X219989327Y-96842926D01*
X219922711Y-96825077D01*
X219864576Y-96809500D01*
X219735424Y-96809500D01*
X219610672Y-96842926D01*
X219498826Y-96907502D01*
X219498823Y-96907504D01*
X219407504Y-96998823D01*
X219407502Y-96998826D01*
X219342926Y-97110672D01*
X219309500Y-97235424D01*
X219309500Y-97328308D01*
X219289815Y-97395347D01*
X219273181Y-97415989D01*
X218315990Y-98373181D01*
X218254667Y-98406666D01*
X218228309Y-98409500D01*
X217888535Y-98409500D01*
X217821496Y-98389815D01*
X217800854Y-98373182D01*
X217787594Y-98359922D01*
X217735174Y-98307502D01*
X217675930Y-98273297D01*
X217623327Y-98242926D01*
X217542910Y-98221379D01*
X217498576Y-98209500D01*
X217400691Y-98209500D01*
X217333652Y-98189815D01*
X217287897Y-98137011D01*
X217277953Y-98067853D01*
X217306978Y-98004297D01*
X217313010Y-97997819D01*
X218240922Y-97069907D01*
X219186221Y-96124608D01*
X219191484Y-96115492D01*
X219224466Y-96058366D01*
X219244263Y-95984482D01*
X219244263Y-94997403D01*
X219224466Y-94923519D01*
X219186221Y-94857277D01*
X219132134Y-94803190D01*
X218809366Y-94480422D01*
X218759454Y-94451605D01*
X218743125Y-94442177D01*
X218706182Y-94432278D01*
X218669240Y-94422380D01*
X218669239Y-94422380D01*
X216882390Y-94422380D01*
X216815351Y-94402695D01*
X216794709Y-94386061D01*
X216373611Y-93964963D01*
X216340126Y-93903640D01*
X216337292Y-93877282D01*
X216337292Y-93840982D01*
X216337292Y-93840980D01*
X216307273Y-93728946D01*
X216249280Y-93628500D01*
X216167265Y-93546485D01*
X216103206Y-93509500D01*
X216066820Y-93488492D01*
X216010802Y-93473482D01*
X215954785Y-93458473D01*
X215838799Y-93458473D01*
X215726763Y-93488492D01*
X215626319Y-93546485D01*
X215626316Y-93546487D01*
X215544306Y-93628497D01*
X215539356Y-93634949D01*
X215538207Y-93634067D01*
X215494045Y-93676167D01*
X215425436Y-93689383D01*
X215375237Y-93673334D01*
X215351250Y-93659485D01*
X215295232Y-93644475D01*
X215239215Y-93629466D01*
X215123229Y-93629466D01*
X215011193Y-93659485D01*
X214910749Y-93717478D01*
X214910746Y-93717480D01*
X214828736Y-93799490D01*
X214828734Y-93799493D01*
X214770741Y-93899937D01*
X214740722Y-94011973D01*
X214740722Y-94048275D01*
X214732077Y-94077712D01*
X214725554Y-94107703D01*
X214721798Y-94112719D01*
X214721037Y-94115314D01*
X214704407Y-94135951D01*
X214663643Y-94176716D01*
X214624297Y-94216062D01*
X214562973Y-94249546D01*
X214493282Y-94244561D01*
X214437348Y-94202690D01*
X214412932Y-94137225D01*
X214416840Y-94096293D01*
X214440500Y-94007993D01*
X214440500Y-93892007D01*
X214410481Y-93779973D01*
X214352488Y-93679527D01*
X214270473Y-93597512D01*
X214220250Y-93568515D01*
X214170028Y-93539519D01*
X214114010Y-93524509D01*
X214057993Y-93509500D01*
X213942007Y-93509500D01*
X213829971Y-93539519D01*
X213729527Y-93597512D01*
X213729524Y-93597514D01*
X213647514Y-93679524D01*
X213647512Y-93679527D01*
X213589519Y-93779971D01*
X213559500Y-93892007D01*
X213559500Y-93928309D01*
X213550855Y-93957749D01*
X213544332Y-93987736D01*
X213540577Y-93992751D01*
X213539815Y-93995348D01*
X213523181Y-94015990D01*
X213352181Y-94186990D01*
X213290858Y-94220475D01*
X213221166Y-94215491D01*
X213165233Y-94173619D01*
X213140816Y-94108155D01*
X213140500Y-94099309D01*
X213140500Y-92583823D01*
X213160185Y-92516784D01*
X213176819Y-92496142D01*
X213202488Y-92470473D01*
X213260481Y-92370027D01*
X213290500Y-92257993D01*
X213290500Y-92142007D01*
X213260481Y-92029973D01*
X213202488Y-91929527D01*
X213120473Y-91847512D01*
X213063295Y-91814500D01*
X213020028Y-91789519D01*
X212939275Y-91767882D01*
X212907993Y-91759500D01*
X212792007Y-91759500D01*
X212679971Y-91789519D01*
X212579527Y-91847512D01*
X212579524Y-91847514D01*
X212497514Y-91929524D01*
X212497512Y-91929527D01*
X212439519Y-92029971D01*
X212409500Y-92142007D01*
X212409500Y-92257992D01*
X212439519Y-92370028D01*
X212458256Y-92402480D01*
X212497512Y-92470473D01*
X212497514Y-92470475D01*
X212523181Y-92496142D01*
X212556666Y-92557465D01*
X212559500Y-92583823D01*
X212559500Y-94938456D01*
X212539815Y-95005495D01*
X212487011Y-95051250D01*
X212417853Y-95061194D01*
X212366460Y-95039546D01*
X212366102Y-95040167D01*
X212361162Y-95037315D01*
X212360013Y-95036831D01*
X212359067Y-95036105D01*
X212258619Y-94978110D01*
X212172712Y-94955092D01*
X212146584Y-94948091D01*
X212030598Y-94948091D01*
X211918562Y-94978110D01*
X211818118Y-95036103D01*
X211818115Y-95036105D01*
X211736105Y-95118115D01*
X211736103Y-95118118D01*
X211678109Y-95218564D01*
X211678109Y-95218565D01*
X211677817Y-95219656D01*
X211677320Y-95220471D01*
X211675002Y-95226068D01*
X211674128Y-95225706D01*
X211670279Y-95232019D01*
X211667304Y-95246189D01*
X211652456Y-95261252D01*
X211641446Y-95279313D01*
X211628421Y-95285638D01*
X211618258Y-95295950D01*
X211597622Y-95300595D01*
X211578596Y-95309836D01*
X211564220Y-95308115D01*
X211550094Y-95311296D01*
X211530221Y-95304047D01*
X211509221Y-95301534D01*
X211496844Y-95291872D01*
X211484455Y-95287353D01*
X211469205Y-95270296D01*
X211459318Y-95262578D01*
X211454581Y-95256344D01*
X211430576Y-95214767D01*
X211398951Y-95183142D01*
X211393861Y-95176444D01*
X211384291Y-95151344D01*
X211371422Y-95127775D01*
X211369896Y-95113585D01*
X211368971Y-95111158D01*
X211369410Y-95109065D01*
X211368588Y-95101417D01*
X211368588Y-95039845D01*
X211368588Y-95039843D01*
X211348791Y-94965959D01*
X211310546Y-94899717D01*
X211256459Y-94845630D01*
X210889537Y-94478708D01*
X210856052Y-94417385D01*
X210861036Y-94347693D01*
X210886054Y-94308767D01*
X210885806Y-94308577D01*
X210888086Y-94305604D01*
X210889539Y-94303344D01*
X210890753Y-94302131D01*
X210948746Y-94201685D01*
X210978765Y-94089651D01*
X210978765Y-93973665D01*
X210948746Y-93861631D01*
X210890753Y-93761185D01*
X210808738Y-93679170D01*
X210732146Y-93634949D01*
X210708293Y-93621177D01*
X210619979Y-93597514D01*
X210596258Y-93591158D01*
X210480272Y-93591158D01*
X210368236Y-93621177D01*
X210267792Y-93679170D01*
X210267789Y-93679172D01*
X210242123Y-93704839D01*
X210180800Y-93738324D01*
X210154442Y-93741158D01*
X206130097Y-93741158D01*
X206056211Y-93760955D01*
X205989971Y-93799200D01*
X205989968Y-93799202D01*
X204124990Y-95664181D01*
X204063667Y-95697666D01*
X204037309Y-95700500D01*
X184088419Y-95700500D01*
X184021380Y-95680815D01*
X183975625Y-95628011D01*
X183965681Y-95558853D01*
X183985317Y-95507609D01*
X184039013Y-95427247D01*
X184102080Y-95332862D01*
X184180515Y-95143503D01*
X184220500Y-94942480D01*
X184220500Y-94737520D01*
X184180515Y-94536497D01*
X184113949Y-94375792D01*
X184102081Y-94347140D01*
X184099587Y-94343408D01*
X183988209Y-94176720D01*
X183988206Y-94176716D01*
X183843283Y-94031793D01*
X183843279Y-94031790D01*
X183672859Y-93917918D01*
X183483505Y-93839486D01*
X183483506Y-93839486D01*
X183483503Y-93839485D01*
X183483499Y-93839484D01*
X183483495Y-93839483D01*
X183282484Y-93799500D01*
X183282480Y-93799500D01*
X183077520Y-93799500D01*
X183077515Y-93799500D01*
X182876504Y-93839483D01*
X182876494Y-93839486D01*
X182687140Y-93917918D01*
X182516720Y-94031790D01*
X182516716Y-94031793D01*
X182371793Y-94176716D01*
X182371790Y-94176720D01*
X182257918Y-94347140D01*
X182179486Y-94536494D01*
X182179483Y-94536504D01*
X182139500Y-94737515D01*
X182139500Y-94942484D01*
X182179483Y-95143495D01*
X182179486Y-95143505D01*
X182257918Y-95332859D01*
X182371790Y-95503279D01*
X182371793Y-95503283D01*
X182516716Y-95648206D01*
X182516720Y-95648209D01*
X182602769Y-95705706D01*
X182604784Y-95707052D01*
X182649589Y-95760664D01*
X182658296Y-95829989D01*
X182628142Y-95893017D01*
X182623574Y-95897835D01*
X181850629Y-96670782D01*
X181796544Y-96724866D01*
X181796542Y-96724869D01*
X181758297Y-96791109D01*
X181740317Y-96858212D01*
X181738500Y-96864995D01*
X181300500Y-96864995D01*
X181300500Y-91431233D01*
X182139500Y-91431233D01*
X182139500Y-93168766D01*
X182150552Y-93224328D01*
X182150552Y-93224329D01*
X182192656Y-93287342D01*
X182192657Y-93287343D01*
X182255670Y-93329447D01*
X182311233Y-93340499D01*
X182311236Y-93340500D01*
X182311238Y-93340500D01*
X184048764Y-93340500D01*
X184048765Y-93340499D01*
X184104329Y-93329447D01*
X184167343Y-93287343D01*
X184209447Y-93224329D01*
X184220500Y-93168762D01*
X184220500Y-92197515D01*
X184679500Y-92197515D01*
X184679500Y-92402484D01*
X184719483Y-92603495D01*
X184719485Y-92603503D01*
X184721135Y-92607487D01*
X184797918Y-92792859D01*
X184911790Y-92963279D01*
X184911793Y-92963283D01*
X185056716Y-93108206D01*
X185056720Y-93108209D01*
X185227138Y-93222080D01*
X185227139Y-93222080D01*
X185227140Y-93222081D01*
X185262113Y-93236567D01*
X185416497Y-93300515D01*
X185617515Y-93340499D01*
X185617519Y-93340500D01*
X185617520Y-93340500D01*
X185822481Y-93340500D01*
X185822482Y-93340499D01*
X186023503Y-93300515D01*
X186212862Y-93222080D01*
X186383280Y-93108209D01*
X186528209Y-92963280D01*
X186642080Y-92792862D01*
X186720515Y-92603503D01*
X186760500Y-92402480D01*
X186760500Y-92197520D01*
X186760398Y-92197007D01*
X209096770Y-92197007D01*
X209096770Y-92312992D01*
X209126789Y-92425028D01*
X209153027Y-92470472D01*
X209184782Y-92525473D01*
X209266797Y-92607488D01*
X209367243Y-92665481D01*
X209479277Y-92695500D01*
X209479279Y-92695500D01*
X209595261Y-92695500D01*
X209595263Y-92695500D01*
X209707297Y-92665481D01*
X209807743Y-92607488D01*
X209889758Y-92525473D01*
X209947751Y-92425027D01*
X209977770Y-92312993D01*
X209977770Y-92276691D01*
X209997455Y-92209652D01*
X210014089Y-92189010D01*
X210776280Y-91426819D01*
X210837603Y-91393334D01*
X210863961Y-91390500D01*
X222728309Y-91390500D01*
X222795348Y-91410185D01*
X222815990Y-91426819D01*
X233023181Y-101634010D01*
X233056666Y-101695333D01*
X233058214Y-101703882D01*
X233059500Y-101712743D01*
X233059500Y-101757993D01*
X233073826Y-101811462D01*
X233074876Y-101818691D01*
X233070938Y-101846334D01*
X233070274Y-101874256D01*
X233066079Y-101880454D01*
X233065024Y-101887862D01*
X233046766Y-101908988D01*
X233031112Y-101932119D01*
X233024231Y-101935065D01*
X233019339Y-101940727D01*
X232992553Y-101948630D01*
X232966883Y-101959623D01*
X232952367Y-101960487D01*
X232952326Y-101960500D01*
X232952298Y-101960491D01*
X232952162Y-101960500D01*
X227039986Y-101960500D01*
X226985091Y-101975209D01*
X226985090Y-101975208D01*
X226966103Y-101980296D01*
X226906734Y-102014574D01*
X226899861Y-102018542D01*
X226899860Y-102018543D01*
X226853873Y-102064530D01*
X226721581Y-102196821D01*
X226660257Y-102230305D01*
X226590566Y-102225321D01*
X226534632Y-102183449D01*
X226526513Y-102171140D01*
X226524436Y-102167542D01*
X226502488Y-102129527D01*
X226420473Y-102047512D01*
X226363423Y-102014574D01*
X226320028Y-101989519D01*
X226236506Y-101967140D01*
X226207993Y-101959500D01*
X226092007Y-101959500D01*
X225979971Y-101989519D01*
X225879527Y-102047512D01*
X225879524Y-102047514D01*
X225853858Y-102073181D01*
X225792535Y-102106666D01*
X225766177Y-102109500D01*
X218061755Y-102109500D01*
X217987869Y-102129297D01*
X217921629Y-102167542D01*
X217921626Y-102167544D01*
X217115990Y-102973181D01*
X217054667Y-103006666D01*
X217028309Y-103009500D01*
X216992007Y-103009500D01*
X216879971Y-103039519D01*
X216779527Y-103097512D01*
X216779524Y-103097514D01*
X216697514Y-103179524D01*
X216697512Y-103179527D01*
X216639519Y-103279971D01*
X216612503Y-103380799D01*
X216609500Y-103392007D01*
X216609500Y-103507993D01*
X216621936Y-103554408D01*
X216620274Y-103624256D01*
X216581112Y-103682119D01*
X216516883Y-103709623D01*
X216502162Y-103710500D01*
X214304535Y-103710500D01*
X214237496Y-103690815D01*
X214216854Y-103674182D01*
X214210992Y-103668320D01*
X214151174Y-103608502D01*
X214045541Y-103547514D01*
X214039327Y-103543926D01*
X213976951Y-103527213D01*
X213914576Y-103510500D01*
X213785424Y-103510500D01*
X213660672Y-103543926D01*
X213548826Y-103608502D01*
X213548823Y-103608504D01*
X213457504Y-103699823D01*
X213457502Y-103699826D01*
X213392926Y-103811672D01*
X213374162Y-103881703D01*
X213359500Y-103936424D01*
X213359500Y-104065576D01*
X213375243Y-104124332D01*
X213392926Y-104190327D01*
X213417827Y-104233455D01*
X213457502Y-104302174D01*
X213548826Y-104393498D01*
X213660674Y-104458074D01*
X213785424Y-104491500D01*
X213785426Y-104491500D01*
X213914574Y-104491500D01*
X213914576Y-104491500D01*
X214039326Y-104458074D01*
X214151174Y-104393498D01*
X214216854Y-104327818D01*
X214278178Y-104294334D01*
X214304535Y-104291500D01*
X217316475Y-104291500D01*
X217316477Y-104291500D01*
X217390361Y-104271703D01*
X217456603Y-104233458D01*
X218412242Y-103277819D01*
X218473565Y-103244334D01*
X218499923Y-103241500D01*
X224313720Y-103241500D01*
X224380759Y-103261185D01*
X224426514Y-103313989D01*
X224436458Y-103383147D01*
X224407433Y-103446703D01*
X224348655Y-103484477D01*
X224345854Y-103485263D01*
X224329973Y-103489519D01*
X224329971Y-103489519D01*
X224329971Y-103489520D01*
X224229527Y-103547512D01*
X224229524Y-103547514D01*
X224147514Y-103629524D01*
X224147512Y-103629527D01*
X224089519Y-103729971D01*
X224059500Y-103842007D01*
X224059500Y-103878309D01*
X224039815Y-103945348D01*
X224023181Y-103965990D01*
X223615990Y-104373181D01*
X223554667Y-104406666D01*
X223528309Y-104409500D01*
X220356653Y-104409500D01*
X220289614Y-104389815D01*
X220243859Y-104337011D01*
X220236878Y-104317593D01*
X220235639Y-104312968D01*
X220222290Y-104263148D01*
X220164297Y-104162702D01*
X220082282Y-104080687D01*
X220030563Y-104050827D01*
X219981837Y-104022694D01*
X219925171Y-104007511D01*
X219869802Y-103992675D01*
X219753816Y-103992675D01*
X219641780Y-104022694D01*
X219541336Y-104080687D01*
X219541333Y-104080689D01*
X219459323Y-104162699D01*
X219459321Y-104162702D01*
X219401328Y-104263146D01*
X219379431Y-104344869D01*
X219371309Y-104375182D01*
X219371309Y-104491168D01*
X219376126Y-104509144D01*
X219401328Y-104603203D01*
X219411707Y-104621179D01*
X219459321Y-104703648D01*
X219459323Y-104703650D01*
X219483005Y-104727332D01*
X219516490Y-104788655D01*
X219511506Y-104858347D01*
X219483009Y-104902691D01*
X219476908Y-104908792D01*
X219418915Y-105009237D01*
X219400913Y-105076424D01*
X219364548Y-105136085D01*
X219301701Y-105166614D01*
X219232326Y-105158319D01*
X219193457Y-105132012D01*
X219133054Y-105071609D01*
X219133052Y-105071607D01*
X219083365Y-105042920D01*
X219066811Y-105033362D01*
X219029868Y-105023463D01*
X218992926Y-105013565D01*
X217264069Y-105013565D01*
X217187578Y-105013565D01*
X217132165Y-105028412D01*
X217113694Y-105033362D01*
X217047453Y-105071606D01*
X217047450Y-105071608D01*
X216730543Y-105388517D01*
X216676458Y-105442601D01*
X216676456Y-105442604D01*
X216638211Y-105508844D01*
X216622170Y-105568712D01*
X216618414Y-105582730D01*
X216618414Y-106222195D01*
X216618414Y-106298685D01*
X216622585Y-106314251D01*
X216638211Y-106372570D01*
X216643802Y-106382253D01*
X216676456Y-106438811D01*
X216676458Y-106438813D01*
X216962095Y-106724450D01*
X216995580Y-106785773D01*
X216998414Y-106812131D01*
X216998414Y-106848433D01*
X217013418Y-106904431D01*
X217028433Y-106960468D01*
X217051788Y-107000919D01*
X217086426Y-107060913D01*
X217168441Y-107142928D01*
X217168447Y-107142931D01*
X217171303Y-107145123D01*
X217173108Y-107147595D01*
X217174188Y-107148675D01*
X217174019Y-107148843D01*
X217212507Y-107201550D01*
X217216664Y-107271296D01*
X217182453Y-107332217D01*
X217127913Y-107363276D01*
X217029971Y-107389519D01*
X216929527Y-107447512D01*
X216929524Y-107447514D01*
X216847514Y-107529524D01*
X216847512Y-107529527D01*
X216789519Y-107629971D01*
X216759500Y-107742007D01*
X216759500Y-107857992D01*
X216789519Y-107970028D01*
X216789520Y-107970029D01*
X216847512Y-108070473D01*
X216929527Y-108152488D01*
X216930239Y-108152899D01*
X216930717Y-108153401D01*
X216935976Y-108157436D01*
X216935346Y-108158255D01*
X216978454Y-108203465D01*
X216992239Y-108260286D01*
X216992239Y-108939956D01*
X216972554Y-109006995D01*
X216955920Y-109027637D01*
X216930253Y-109053303D01*
X216930251Y-109053306D01*
X216872258Y-109153750D01*
X216843958Y-109259369D01*
X216842239Y-109265786D01*
X216842239Y-109381772D01*
X216853750Y-109424731D01*
X216872258Y-109493807D01*
X216885908Y-109517448D01*
X216930251Y-109594252D01*
X217012266Y-109676267D01*
X217112712Y-109734260D01*
X217224746Y-109764279D01*
X217224748Y-109764279D01*
X217340730Y-109764279D01*
X217340732Y-109764279D01*
X217452766Y-109734260D01*
X217553212Y-109676267D01*
X217635227Y-109594252D01*
X217693220Y-109493806D01*
X217723239Y-109381772D01*
X217723239Y-109265786D01*
X217693220Y-109153752D01*
X217635227Y-109053306D01*
X217609558Y-109027637D01*
X217576073Y-108966314D01*
X217573239Y-108939956D01*
X217573239Y-108067757D01*
X217589853Y-108005755D01*
X217610480Y-107970029D01*
X217610481Y-107970027D01*
X217640500Y-107857993D01*
X217640500Y-107742007D01*
X217610481Y-107629973D01*
X217552488Y-107529527D01*
X217470473Y-107447512D01*
X217470471Y-107447511D01*
X217467608Y-107445314D01*
X217465802Y-107442841D01*
X217464726Y-107441765D01*
X217464893Y-107441597D01*
X217426405Y-107388887D01*
X217422250Y-107319141D01*
X217456462Y-107258220D01*
X217510999Y-107227164D01*
X217608941Y-107200921D01*
X217709387Y-107142928D01*
X217791402Y-107060913D01*
X217849395Y-106960467D01*
X217879414Y-106848433D01*
X217879414Y-106732447D01*
X217849395Y-106620413D01*
X217847954Y-106617918D01*
X217825848Y-106579629D01*
X217791402Y-106519967D01*
X217709387Y-106437952D01*
X217709384Y-106437950D01*
X217709380Y-106437947D01*
X217692692Y-106428312D01*
X217670284Y-106404810D01*
X217646922Y-106382253D01*
X217646311Y-106379667D01*
X217644478Y-106377744D01*
X217638332Y-106345853D01*
X217630875Y-106314251D01*
X217631759Y-106311745D01*
X217631257Y-106309137D01*
X217643323Y-106278997D01*
X217654140Y-106248369D01*
X217656406Y-106246321D01*
X217657227Y-106244273D01*
X217678655Y-106222978D01*
X217685343Y-106217785D01*
X217720387Y-106197553D01*
X217751558Y-106166381D01*
X217757697Y-106161616D01*
X217783270Y-106151563D01*
X217807379Y-106138399D01*
X217820291Y-106137010D01*
X217822723Y-106136055D01*
X217824986Y-106136505D01*
X217833737Y-106135565D01*
X218852606Y-106135565D01*
X218919645Y-106155250D01*
X218940287Y-106171884D01*
X219296821Y-106528418D01*
X219330306Y-106589741D01*
X219325322Y-106659433D01*
X219283450Y-106715366D01*
X219271141Y-106723485D01*
X219229533Y-106747508D01*
X219229524Y-106747514D01*
X219147514Y-106829524D01*
X219147512Y-106829527D01*
X219089519Y-106929971D01*
X219072686Y-106992796D01*
X219059500Y-107042007D01*
X219059500Y-107157993D01*
X219064456Y-107176488D01*
X219089519Y-107270028D01*
X219110157Y-107305773D01*
X219147512Y-107370473D01*
X219147514Y-107370475D01*
X219181390Y-107404351D01*
X219214875Y-107465674D01*
X219209891Y-107535366D01*
X219181393Y-107579711D01*
X219152577Y-107608528D01*
X219094584Y-107708972D01*
X219064565Y-107821008D01*
X219064565Y-107936993D01*
X219094584Y-108049029D01*
X219111484Y-108078299D01*
X219152577Y-108149474D01*
X219234592Y-108231489D01*
X219335038Y-108289482D01*
X219447072Y-108319501D01*
X219447074Y-108319501D01*
X219563056Y-108319501D01*
X219563058Y-108319501D01*
X219675092Y-108289482D01*
X219775538Y-108231489D01*
X219801207Y-108205820D01*
X219862530Y-108172335D01*
X219888888Y-108169501D01*
X221150798Y-108169501D01*
X221217837Y-108189186D01*
X221238479Y-108205820D01*
X222396067Y-109363408D01*
X222429552Y-109424731D01*
X222432386Y-109451089D01*
X222432386Y-109487391D01*
X222440440Y-109517448D01*
X222462405Y-109599426D01*
X222470023Y-109612620D01*
X222520398Y-109699871D01*
X222602413Y-109781886D01*
X222702859Y-109839879D01*
X222814893Y-109869898D01*
X222814895Y-109869898D01*
X222930877Y-109869898D01*
X222930879Y-109869898D01*
X223042913Y-109839879D01*
X223143359Y-109781886D01*
X223225374Y-109699871D01*
X223283367Y-109599425D01*
X223313386Y-109487391D01*
X223313386Y-109371405D01*
X223283367Y-109259371D01*
X223225374Y-109158925D01*
X223143359Y-109076910D01*
X223078564Y-109039500D01*
X223042914Y-109018917D01*
X222986896Y-109003907D01*
X222930879Y-108988898D01*
X222930878Y-108988898D01*
X222894577Y-108988898D01*
X222827538Y-108969213D01*
X222806896Y-108952579D01*
X221656498Y-107802181D01*
X221623013Y-107740858D01*
X221627997Y-107671166D01*
X221669869Y-107615233D01*
X221735333Y-107590816D01*
X221744179Y-107590500D01*
X225542467Y-107590500D01*
X225604468Y-107607113D01*
X225665731Y-107642484D01*
X225677260Y-107649140D01*
X225789294Y-107679159D01*
X225789296Y-107679159D01*
X225905278Y-107679159D01*
X225905280Y-107679159D01*
X226017314Y-107649140D01*
X226117760Y-107591147D01*
X226199775Y-107509132D01*
X226257768Y-107408686D01*
X226287787Y-107296652D01*
X226287787Y-107180666D01*
X226275350Y-107134250D01*
X226277013Y-107064403D01*
X226316175Y-107006540D01*
X226380404Y-106979036D01*
X226395125Y-106978159D01*
X227148868Y-106978159D01*
X227215907Y-106997844D01*
X227236549Y-107014478D01*
X231869442Y-111647371D01*
X231923529Y-111701458D01*
X231989771Y-111739703D01*
X232063655Y-111759500D01*
X238151581Y-111759500D01*
X238218620Y-111779185D01*
X238264375Y-111831989D01*
X238274319Y-111901147D01*
X238254683Y-111952391D01*
X238137918Y-112127140D01*
X238085805Y-112252953D01*
X238041964Y-112307356D01*
X237975669Y-112329421D01*
X237971244Y-112329500D01*
X231391691Y-112329500D01*
X231324652Y-112309815D01*
X231304010Y-112293181D01*
X228691790Y-109680961D01*
X228658305Y-109619638D01*
X228655471Y-109593280D01*
X228655471Y-109556980D01*
X228655471Y-109556978D01*
X228625452Y-109444944D01*
X228567459Y-109344498D01*
X228485444Y-109262483D01*
X228412685Y-109220475D01*
X228384999Y-109204490D01*
X228286082Y-109177986D01*
X228272964Y-109174471D01*
X228156978Y-109174471D01*
X228046593Y-109204048D01*
X228021598Y-109203452D01*
X227996853Y-109207011D01*
X227987272Y-109202635D01*
X227976743Y-109202385D01*
X227956039Y-109188372D01*
X227933297Y-109177986D01*
X227927602Y-109169124D01*
X227918881Y-109163222D01*
X227909040Y-109140241D01*
X227895523Y-109119208D01*
X227893243Y-109103350D01*
X227891377Y-109098993D01*
X227890500Y-109084273D01*
X227890500Y-108883823D01*
X227910185Y-108816784D01*
X227926819Y-108796142D01*
X227952488Y-108770473D01*
X228010481Y-108670027D01*
X228040500Y-108557993D01*
X228040500Y-108442007D01*
X228010481Y-108329973D01*
X228008002Y-108325680D01*
X227987103Y-108289482D01*
X227952488Y-108229527D01*
X227870473Y-108147512D01*
X227820250Y-108118515D01*
X227770028Y-108089519D01*
X227698945Y-108070473D01*
X227657993Y-108059500D01*
X227542007Y-108059500D01*
X227429971Y-108089519D01*
X227329527Y-108147512D01*
X227329524Y-108147514D01*
X227247514Y-108229524D01*
X227247512Y-108229527D01*
X227189519Y-108329971D01*
X227175745Y-108381379D01*
X227159500Y-108442007D01*
X227159500Y-108557993D01*
X227174509Y-108614010D01*
X227189519Y-108670028D01*
X227218515Y-108720250D01*
X227247512Y-108770473D01*
X227247514Y-108770475D01*
X227273181Y-108796142D01*
X227306666Y-108857465D01*
X227309500Y-108883823D01*
X227309500Y-109284523D01*
X227309500Y-109361013D01*
X227329297Y-109434897D01*
X227338645Y-109451089D01*
X227356858Y-109482633D01*
X227373471Y-109544634D01*
X227373471Y-109881447D01*
X227393268Y-109955333D01*
X227400830Y-109968430D01*
X227431513Y-110021574D01*
X232802396Y-115392458D01*
X232868639Y-115430703D01*
X232942522Y-115450500D01*
X232942523Y-115450500D01*
X237971244Y-115450500D01*
X238038283Y-115470185D01*
X238084038Y-115522989D01*
X238085805Y-115527047D01*
X238137918Y-115652859D01*
X238251790Y-115823279D01*
X238251793Y-115823283D01*
X238396716Y-115968206D01*
X238396720Y-115968209D01*
X238567138Y-116082080D01*
X238756497Y-116160515D01*
X238957515Y-116200499D01*
X238957519Y-116200500D01*
X238957520Y-116200500D01*
X239162481Y-116200500D01*
X239162482Y-116200499D01*
X239363503Y-116160515D01*
X239552862Y-116082080D01*
X239723280Y-115968209D01*
X239868209Y-115823280D01*
X239982080Y-115652862D01*
X240060515Y-115463503D01*
X240100500Y-115262480D01*
X240100500Y-115057520D01*
X240100499Y-115057515D01*
X240559500Y-115057515D01*
X240559500Y-115262484D01*
X240599483Y-115463495D01*
X240599486Y-115463505D01*
X240677918Y-115652859D01*
X240791790Y-115823279D01*
X240791793Y-115823283D01*
X240936716Y-115968206D01*
X240936720Y-115968209D01*
X241107138Y-116082080D01*
X241296497Y-116160515D01*
X241497515Y-116200499D01*
X241497519Y-116200500D01*
X241497520Y-116200500D01*
X241702481Y-116200500D01*
X241702482Y-116200499D01*
X241903503Y-116160515D01*
X242092862Y-116082080D01*
X242263280Y-115968209D01*
X242408209Y-115823280D01*
X242522080Y-115652862D01*
X242600515Y-115463503D01*
X242640500Y-115262480D01*
X242640500Y-115057520D01*
X242600515Y-114856497D01*
X242522080Y-114667138D01*
X242408209Y-114496720D01*
X242408206Y-114496716D01*
X242263283Y-114351793D01*
X242263279Y-114351790D01*
X242092859Y-114237918D01*
X241903505Y-114159486D01*
X241903506Y-114159486D01*
X241903503Y-114159485D01*
X241903499Y-114159484D01*
X241903495Y-114159483D01*
X241702484Y-114119500D01*
X241702480Y-114119500D01*
X241497520Y-114119500D01*
X241497515Y-114119500D01*
X241296504Y-114159483D01*
X241296494Y-114159486D01*
X241107140Y-114237918D01*
X240936720Y-114351790D01*
X240936716Y-114351793D01*
X240791793Y-114496716D01*
X240791790Y-114496720D01*
X240677918Y-114667140D01*
X240599486Y-114856494D01*
X240599483Y-114856504D01*
X240559500Y-115057515D01*
X240100499Y-115057515D01*
X240060515Y-114856497D01*
X239982080Y-114667138D01*
X239868209Y-114496720D01*
X239868206Y-114496716D01*
X239723283Y-114351793D01*
X239723279Y-114351790D01*
X239552859Y-114237918D01*
X239363505Y-114159486D01*
X239363506Y-114159486D01*
X239363503Y-114159485D01*
X239363499Y-114159484D01*
X239363495Y-114159483D01*
X239162484Y-114119500D01*
X239162480Y-114119500D01*
X238957520Y-114119500D01*
X238957515Y-114119500D01*
X238756504Y-114159483D01*
X238756494Y-114159486D01*
X238567140Y-114237918D01*
X238396720Y-114351790D01*
X238396716Y-114351793D01*
X238251793Y-114496716D01*
X238251790Y-114496720D01*
X238137918Y-114667140D01*
X238085805Y-114792953D01*
X238041964Y-114847356D01*
X237975669Y-114869421D01*
X237971244Y-114869500D01*
X233152460Y-114869500D01*
X233085421Y-114849815D01*
X233064779Y-114833181D01*
X231353779Y-113122181D01*
X231320294Y-113060858D01*
X231325278Y-112991166D01*
X231367150Y-112935233D01*
X231432614Y-112910816D01*
X231441460Y-112910500D01*
X237971244Y-112910500D01*
X238038283Y-112930185D01*
X238084038Y-112982989D01*
X238085805Y-112987047D01*
X238137918Y-113112859D01*
X238251790Y-113283279D01*
X238251793Y-113283283D01*
X238396716Y-113428206D01*
X238396720Y-113428209D01*
X238567138Y-113542080D01*
X238756497Y-113620515D01*
X238957515Y-113660499D01*
X238957519Y-113660500D01*
X238957520Y-113660500D01*
X239162481Y-113660500D01*
X239162482Y-113660499D01*
X239363503Y-113620515D01*
X239552862Y-113542080D01*
X239723280Y-113428209D01*
X239868209Y-113283280D01*
X239982080Y-113112862D01*
X240060515Y-112923503D01*
X240100500Y-112722480D01*
X240100500Y-112517520D01*
X240060515Y-112316497D01*
X239982080Y-112127138D01*
X239927666Y-112045703D01*
X239865317Y-111952391D01*
X239844439Y-111885713D01*
X239862923Y-111818333D01*
X239914902Y-111771643D01*
X239968419Y-111759500D01*
X240277309Y-111759500D01*
X240344348Y-111779185D01*
X240364990Y-111795819D01*
X240624719Y-112055548D01*
X240658204Y-112116871D01*
X240653220Y-112186563D01*
X240651599Y-112190681D01*
X240599487Y-112316490D01*
X240599483Y-112316504D01*
X240559500Y-112517515D01*
X240559500Y-112722484D01*
X240599483Y-112923495D01*
X240599486Y-112923505D01*
X240677918Y-113112859D01*
X240791790Y-113283279D01*
X240791793Y-113283283D01*
X240936716Y-113428206D01*
X240936720Y-113428209D01*
X241107138Y-113542080D01*
X241296497Y-113620515D01*
X241497515Y-113660499D01*
X241497519Y-113660500D01*
X241497520Y-113660500D01*
X241702481Y-113660500D01*
X241702482Y-113660499D01*
X241903503Y-113620515D01*
X242092862Y-113542080D01*
X242263280Y-113428209D01*
X242408209Y-113283280D01*
X242522080Y-113112862D01*
X242600515Y-112923503D01*
X242640500Y-112722480D01*
X242640500Y-112517520D01*
X242600515Y-112316497D01*
X242522080Y-112127138D01*
X242408209Y-111956720D01*
X242408206Y-111956716D01*
X242263283Y-111811793D01*
X242263279Y-111811790D01*
X242092859Y-111697918D01*
X241918423Y-111625665D01*
X241903503Y-111619485D01*
X241903499Y-111619484D01*
X241903495Y-111619483D01*
X241702484Y-111579500D01*
X241702480Y-111579500D01*
X241497520Y-111579500D01*
X241497515Y-111579500D01*
X241296504Y-111619483D01*
X241296490Y-111619487D01*
X241170681Y-111671599D01*
X241101212Y-111679068D01*
X241038733Y-111647793D01*
X241035548Y-111644719D01*
X240627373Y-111236544D01*
X240627371Y-111236542D01*
X240594250Y-111217419D01*
X240561130Y-111198297D01*
X240519009Y-111187011D01*
X240487245Y-111178500D01*
X240487244Y-111178500D01*
X239697603Y-111178500D01*
X239630564Y-111158815D01*
X239584809Y-111106011D01*
X239574865Y-111036853D01*
X239603890Y-110973297D01*
X239628712Y-110951398D01*
X239674482Y-110920815D01*
X239723280Y-110888209D01*
X239868209Y-110743280D01*
X239982080Y-110572862D01*
X240060515Y-110383503D01*
X240100500Y-110182480D01*
X240100500Y-109977520D01*
X240100499Y-109977515D01*
X240559500Y-109977515D01*
X240559500Y-110182484D01*
X240599483Y-110383495D01*
X240599486Y-110383505D01*
X240677918Y-110572859D01*
X240791790Y-110743279D01*
X240791793Y-110743283D01*
X240936716Y-110888206D01*
X240936720Y-110888209D01*
X241107138Y-111002080D01*
X241107139Y-111002080D01*
X241107140Y-111002081D01*
X241142113Y-111016567D01*
X241296497Y-111080515D01*
X241484212Y-111117853D01*
X241497515Y-111120499D01*
X241497519Y-111120500D01*
X241497520Y-111120500D01*
X241702481Y-111120500D01*
X241702482Y-111120499D01*
X241903503Y-111080515D01*
X242092862Y-111002080D01*
X242263280Y-110888209D01*
X242408209Y-110743280D01*
X242522080Y-110572862D01*
X242600515Y-110383503D01*
X242640500Y-110182480D01*
X242640500Y-109977520D01*
X242600515Y-109776497D01*
X242527170Y-109599426D01*
X242522081Y-109587140D01*
X242488193Y-109536424D01*
X242408209Y-109416720D01*
X242408206Y-109416716D01*
X242263283Y-109271793D01*
X242263279Y-109271790D01*
X242092859Y-109157918D01*
X241903505Y-109079486D01*
X241903506Y-109079486D01*
X241903503Y-109079485D01*
X241903499Y-109079484D01*
X241903495Y-109079483D01*
X241702484Y-109039500D01*
X241702480Y-109039500D01*
X241497520Y-109039500D01*
X241497515Y-109039500D01*
X241296504Y-109079483D01*
X241296494Y-109079486D01*
X241107140Y-109157918D01*
X240936720Y-109271790D01*
X240936716Y-109271793D01*
X240791793Y-109416716D01*
X240791790Y-109416720D01*
X240677918Y-109587140D01*
X240599486Y-109776494D01*
X240599483Y-109776504D01*
X240559500Y-109977515D01*
X240100499Y-109977515D01*
X240060515Y-109776497D01*
X239987170Y-109599426D01*
X239982081Y-109587140D01*
X239948193Y-109536424D01*
X239868209Y-109416720D01*
X239868206Y-109416716D01*
X239723283Y-109271793D01*
X239723279Y-109271790D01*
X239552859Y-109157918D01*
X239363505Y-109079486D01*
X239363506Y-109079486D01*
X239363503Y-109079485D01*
X239363499Y-109079484D01*
X239363495Y-109079483D01*
X239162484Y-109039500D01*
X239162480Y-109039500D01*
X238957520Y-109039500D01*
X238957515Y-109039500D01*
X238756504Y-109079483D01*
X238756494Y-109079486D01*
X238567140Y-109157918D01*
X238396720Y-109271790D01*
X238396716Y-109271793D01*
X238251793Y-109416716D01*
X238251790Y-109416720D01*
X238137918Y-109587140D01*
X238059486Y-109776494D01*
X238059483Y-109776504D01*
X238019500Y-109977515D01*
X238019500Y-110182484D01*
X238059483Y-110383495D01*
X238059486Y-110383505D01*
X238137918Y-110572859D01*
X238251790Y-110743279D01*
X238251793Y-110743283D01*
X238396716Y-110888206D01*
X238396720Y-110888209D01*
X238491288Y-110951398D01*
X238536093Y-111005010D01*
X238544800Y-111074335D01*
X238514645Y-111137363D01*
X238455202Y-111174082D01*
X238422397Y-111178500D01*
X237104894Y-111178500D01*
X237037855Y-111158815D01*
X236992100Y-111106011D01*
X236982156Y-111036853D01*
X236997507Y-110992501D01*
X237010478Y-110970034D01*
X237010478Y-110970031D01*
X237010481Y-110970027D01*
X237040500Y-110857993D01*
X237040500Y-110742007D01*
X237038235Y-110733554D01*
X237039898Y-110663708D01*
X237079060Y-110605845D01*
X237143288Y-110578340D01*
X237174198Y-110578524D01*
X237180913Y-110579408D01*
X237180916Y-110579409D01*
X237180919Y-110579409D01*
X237296900Y-110579409D01*
X237296902Y-110579409D01*
X237408936Y-110549390D01*
X237509382Y-110491397D01*
X237591397Y-110409382D01*
X237649390Y-110308936D01*
X237679409Y-110196902D01*
X237679409Y-110080916D01*
X237649390Y-109968882D01*
X237649128Y-109968429D01*
X237631796Y-109938409D01*
X237591397Y-109868436D01*
X237509382Y-109786421D01*
X237438450Y-109745468D01*
X237408937Y-109728428D01*
X237352919Y-109713418D01*
X237296902Y-109698409D01*
X237180916Y-109698409D01*
X237068880Y-109728428D01*
X236968436Y-109786421D01*
X236968432Y-109786424D01*
X236920583Y-109834273D01*
X236859260Y-109867757D01*
X236832903Y-109870591D01*
X236044914Y-109870591D01*
X235977875Y-109850906D01*
X235957233Y-109834272D01*
X235931566Y-109808605D01*
X235931564Y-109808603D01*
X235862671Y-109768827D01*
X235831119Y-109750610D01*
X235748332Y-109728428D01*
X235719084Y-109720591D01*
X235603098Y-109720591D01*
X235491062Y-109750610D01*
X235390618Y-109808603D01*
X235390615Y-109808605D01*
X235308605Y-109890615D01*
X235308603Y-109890618D01*
X235250610Y-109991062D01*
X235226534Y-110080918D01*
X235220591Y-110103098D01*
X235220591Y-110219084D01*
X235249598Y-110327342D01*
X235250611Y-110331121D01*
X235253481Y-110338050D01*
X235260948Y-110407520D01*
X235229672Y-110469998D01*
X235169582Y-110505649D01*
X235138919Y-110509500D01*
X232171691Y-110509500D01*
X232104652Y-110489815D01*
X232084010Y-110473181D01*
X229048344Y-107437515D01*
X238019500Y-107437515D01*
X238019500Y-107642484D01*
X238059483Y-107843495D01*
X238059486Y-107843505D01*
X238137918Y-108032859D01*
X238251790Y-108203279D01*
X238251793Y-108203283D01*
X238396716Y-108348206D01*
X238396720Y-108348209D01*
X238567138Y-108462080D01*
X238756497Y-108540515D01*
X238924862Y-108574004D01*
X238957515Y-108580499D01*
X238957519Y-108580500D01*
X238957520Y-108580500D01*
X239162481Y-108580500D01*
X239162482Y-108580499D01*
X239363503Y-108540515D01*
X239552862Y-108462080D01*
X239723280Y-108348209D01*
X239868209Y-108203280D01*
X239982080Y-108032862D01*
X240060515Y-107843503D01*
X240100500Y-107642480D01*
X240100500Y-107437520D01*
X240060515Y-107236497D01*
X239984735Y-107053547D01*
X239982081Y-107047140D01*
X239978651Y-107042007D01*
X239868209Y-106876720D01*
X239868206Y-106876716D01*
X239723283Y-106731793D01*
X239723279Y-106731790D01*
X239552859Y-106617918D01*
X239398478Y-106553972D01*
X239363503Y-106539485D01*
X239363499Y-106539484D01*
X239363495Y-106539483D01*
X239162484Y-106499500D01*
X239162480Y-106499500D01*
X238957520Y-106499500D01*
X238957515Y-106499500D01*
X238756504Y-106539483D01*
X238756494Y-106539486D01*
X238567140Y-106617918D01*
X238396720Y-106731790D01*
X238396716Y-106731793D01*
X238251793Y-106876716D01*
X238251790Y-106876720D01*
X238137918Y-107047140D01*
X238059486Y-107236494D01*
X238059483Y-107236504D01*
X238019500Y-107437515D01*
X229048344Y-107437515D01*
X227473344Y-105862515D01*
X229859500Y-105862515D01*
X229859500Y-106067484D01*
X229899483Y-106268495D01*
X229899486Y-106268505D01*
X229977918Y-106457859D01*
X230091790Y-106628279D01*
X230091793Y-106628283D01*
X230236716Y-106773206D01*
X230236720Y-106773209D01*
X230407138Y-106887080D01*
X230407139Y-106887080D01*
X230407140Y-106887081D01*
X230436360Y-106899184D01*
X230596497Y-106965515D01*
X230774489Y-107000919D01*
X230797515Y-107005499D01*
X230797519Y-107005500D01*
X230797520Y-107005500D01*
X231002481Y-107005500D01*
X231002482Y-107005499D01*
X231203503Y-106965515D01*
X231392862Y-106887080D01*
X231563280Y-106773209D01*
X231708209Y-106628280D01*
X231822080Y-106457862D01*
X231900515Y-106268503D01*
X231940500Y-106067480D01*
X231940500Y-105862520D01*
X231900515Y-105661497D01*
X231830663Y-105492859D01*
X231822081Y-105472140D01*
X231802563Y-105442930D01*
X231708209Y-105301720D01*
X231708206Y-105301716D01*
X231563283Y-105156793D01*
X231563279Y-105156790D01*
X231392859Y-105042918D01*
X231238478Y-104978972D01*
X231203503Y-104964485D01*
X231203499Y-104964484D01*
X231203495Y-104964483D01*
X231002484Y-104924500D01*
X231002480Y-104924500D01*
X230797520Y-104924500D01*
X230797515Y-104924500D01*
X230596504Y-104964483D01*
X230596494Y-104964486D01*
X230407140Y-105042918D01*
X230236720Y-105156790D01*
X230236716Y-105156793D01*
X230091793Y-105301716D01*
X230091790Y-105301720D01*
X229977918Y-105472140D01*
X229899486Y-105661494D01*
X229899483Y-105661504D01*
X229859500Y-105862515D01*
X227473344Y-105862515D01*
X226758372Y-105147543D01*
X226758370Y-105147541D01*
X226712871Y-105121272D01*
X226692129Y-105109296D01*
X226655186Y-105099397D01*
X226618244Y-105089499D01*
X226618243Y-105089499D01*
X224020692Y-105089499D01*
X223953653Y-105069814D01*
X223907898Y-105017010D01*
X223897954Y-104947852D01*
X223926979Y-104884296D01*
X223933011Y-104877818D01*
X224434010Y-104376819D01*
X224495333Y-104343334D01*
X224521691Y-104340500D01*
X224557991Y-104340500D01*
X224557993Y-104340500D01*
X224670027Y-104310481D01*
X224770473Y-104252488D01*
X224852488Y-104170473D01*
X224910481Y-104070027D01*
X224940500Y-103957993D01*
X224940500Y-103842007D01*
X224910481Y-103729973D01*
X224852488Y-103629527D01*
X224770473Y-103547512D01*
X224670027Y-103489519D01*
X224654184Y-103485274D01*
X224594526Y-103448910D01*
X224563997Y-103386063D01*
X224572292Y-103316687D01*
X224616777Y-103262809D01*
X224683329Y-103241535D01*
X224686280Y-103241500D01*
X226416475Y-103241500D01*
X226416477Y-103241500D01*
X226490361Y-103221703D01*
X226556603Y-103183458D01*
X227162242Y-102577819D01*
X227223565Y-102544334D01*
X227249923Y-102541500D01*
X229735500Y-102541500D01*
X229802539Y-102561185D01*
X229848294Y-102613989D01*
X229859500Y-102665500D01*
X229859500Y-104293766D01*
X229870552Y-104349328D01*
X229870552Y-104349329D01*
X229912656Y-104412342D01*
X229912657Y-104412343D01*
X229975670Y-104454447D01*
X230031233Y-104465499D01*
X230031236Y-104465500D01*
X230031238Y-104465500D01*
X231768764Y-104465500D01*
X231768765Y-104465499D01*
X231824329Y-104454447D01*
X231887343Y-104412343D01*
X231929447Y-104349329D01*
X231940500Y-104293762D01*
X231940500Y-102665500D01*
X231960185Y-102598461D01*
X232012989Y-102552706D01*
X232064500Y-102541500D01*
X233766475Y-102541500D01*
X233766477Y-102541500D01*
X233840361Y-102521703D01*
X233906603Y-102483458D01*
X234283458Y-102106603D01*
X234321703Y-102040361D01*
X234341500Y-101966477D01*
X234341500Y-101889987D01*
X234341500Y-101433523D01*
X234340429Y-101429527D01*
X234321703Y-101359639D01*
X234283458Y-101293397D01*
X233425819Y-100435758D01*
X233392334Y-100374435D01*
X233389500Y-100348077D01*
X233389500Y-96441459D01*
X233409185Y-96374420D01*
X233461989Y-96328665D01*
X233531147Y-96318721D01*
X233594703Y-96347746D01*
X233601181Y-96353778D01*
X237196821Y-99949418D01*
X237230306Y-100010741D01*
X237225322Y-100080433D01*
X237183450Y-100136366D01*
X237171141Y-100144485D01*
X237129533Y-100168508D01*
X237129524Y-100168514D01*
X237047514Y-100250524D01*
X237047512Y-100250527D01*
X236989519Y-100350971D01*
X236966628Y-100436403D01*
X236959500Y-100463007D01*
X236959500Y-100578993D01*
X236967937Y-100610481D01*
X236989519Y-100691028D01*
X237018515Y-100741250D01*
X237047512Y-100791473D01*
X237047514Y-100791475D01*
X237073181Y-100817142D01*
X237106666Y-100878465D01*
X237109500Y-100904823D01*
X237109500Y-102389515D01*
X237109500Y-102466005D01*
X237119398Y-102502947D01*
X237129297Y-102539890D01*
X237142342Y-102562484D01*
X237167542Y-102606131D01*
X237167544Y-102606133D01*
X238503575Y-103942164D01*
X238537060Y-104003487D01*
X238532076Y-104073179D01*
X238490204Y-104129112D01*
X238484785Y-104132947D01*
X238396720Y-104191790D01*
X238396716Y-104191793D01*
X238251793Y-104336716D01*
X238251790Y-104336720D01*
X238137918Y-104507140D01*
X238059486Y-104696494D01*
X238059483Y-104696504D01*
X238019500Y-104897515D01*
X238019500Y-105102484D01*
X238059483Y-105303495D01*
X238059486Y-105303505D01*
X238137918Y-105492859D01*
X238251790Y-105663279D01*
X238251793Y-105663283D01*
X238396716Y-105808206D01*
X238396720Y-105808209D01*
X238567138Y-105922080D01*
X238567139Y-105922080D01*
X238567140Y-105922081D01*
X238594544Y-105933432D01*
X238756497Y-106000515D01*
X238957515Y-106040499D01*
X238957519Y-106040500D01*
X238957520Y-106040500D01*
X239162481Y-106040500D01*
X239162482Y-106040499D01*
X239363503Y-106000515D01*
X239552862Y-105922080D01*
X239723280Y-105808209D01*
X239868209Y-105663280D01*
X239931398Y-105568711D01*
X239985010Y-105523907D01*
X240054335Y-105515200D01*
X240117363Y-105545355D01*
X240154082Y-105604798D01*
X240158500Y-105637603D01*
X240158500Y-106350755D01*
X240158500Y-106427245D01*
X240161599Y-106438810D01*
X240178297Y-106501130D01*
X240189171Y-106519964D01*
X240216542Y-106567371D01*
X240216544Y-106567373D01*
X240624719Y-106975548D01*
X240658204Y-107036871D01*
X240653220Y-107106563D01*
X240651599Y-107110681D01*
X240599487Y-107236490D01*
X240599483Y-107236504D01*
X240559500Y-107437515D01*
X240559500Y-107642484D01*
X240599483Y-107843495D01*
X240599486Y-107843505D01*
X240677918Y-108032859D01*
X240791790Y-108203279D01*
X240791793Y-108203283D01*
X240936716Y-108348206D01*
X240936720Y-108348209D01*
X241107138Y-108462080D01*
X241296497Y-108540515D01*
X241464862Y-108574004D01*
X241497515Y-108580499D01*
X241497519Y-108580500D01*
X241497520Y-108580500D01*
X241702481Y-108580500D01*
X241702482Y-108580499D01*
X241903503Y-108540515D01*
X242092862Y-108462080D01*
X242263280Y-108348209D01*
X242408209Y-108203280D01*
X242522080Y-108032862D01*
X242600515Y-107843503D01*
X242640500Y-107642480D01*
X242640500Y-107437520D01*
X242600515Y-107236497D01*
X242524735Y-107053547D01*
X242522081Y-107047140D01*
X242518651Y-107042007D01*
X242408209Y-106876720D01*
X242408206Y-106876716D01*
X242263283Y-106731793D01*
X242263279Y-106731790D01*
X242092859Y-106617918D01*
X241938478Y-106553972D01*
X241903503Y-106539485D01*
X241903499Y-106539484D01*
X241903495Y-106539483D01*
X241702484Y-106499500D01*
X241702480Y-106499500D01*
X241497520Y-106499500D01*
X241497515Y-106499500D01*
X241296504Y-106539483D01*
X241296490Y-106539487D01*
X241170681Y-106591599D01*
X241101212Y-106599068D01*
X241038733Y-106567793D01*
X241035548Y-106564719D01*
X240775819Y-106304990D01*
X240742334Y-106243667D01*
X240739500Y-106217309D01*
X240739500Y-105908418D01*
X240759185Y-105841379D01*
X240811989Y-105795624D01*
X240881147Y-105785680D01*
X240932391Y-105805316D01*
X240936718Y-105808207D01*
X240936720Y-105808209D01*
X241107138Y-105922080D01*
X241107139Y-105922080D01*
X241107140Y-105922081D01*
X241134544Y-105933432D01*
X241296497Y-106000515D01*
X241497515Y-106040499D01*
X241497519Y-106040500D01*
X241497520Y-106040500D01*
X241702481Y-106040500D01*
X241702482Y-106040499D01*
X241903503Y-106000515D01*
X242092862Y-105922080D01*
X242263280Y-105808209D01*
X242408209Y-105663280D01*
X242522080Y-105492862D01*
X242600515Y-105303503D01*
X242640500Y-105102480D01*
X242640500Y-104897520D01*
X242600515Y-104696497D01*
X242525319Y-104514957D01*
X242522081Y-104507140D01*
X242489333Y-104458130D01*
X242408209Y-104336720D01*
X242408206Y-104336716D01*
X242263283Y-104191793D01*
X242263279Y-104191790D01*
X242138293Y-104108276D01*
X242093488Y-104054663D01*
X242084781Y-103985338D01*
X242114936Y-103922311D01*
X242174379Y-103885592D01*
X242174741Y-103885493D01*
X242188889Y-103881703D01*
X242255131Y-103843458D01*
X242983458Y-103115131D01*
X243021703Y-103048889D01*
X243041500Y-102975006D01*
X243041500Y-102898515D01*
X243041500Y-101944995D01*
X243032593Y-101911755D01*
X243021703Y-101871111D01*
X242983458Y-101804869D01*
X242255131Y-101076542D01*
X242210323Y-101050672D01*
X242188890Y-101038297D01*
X242183365Y-101036816D01*
X242175088Y-101034599D01*
X242115429Y-100998234D01*
X242084901Y-100935387D01*
X242093196Y-100866012D01*
X242137682Y-100812134D01*
X242138154Y-100811816D01*
X242263280Y-100728209D01*
X242408209Y-100583280D01*
X242522080Y-100412862D01*
X242600515Y-100223503D01*
X242640500Y-100022480D01*
X242640500Y-99817520D01*
X242600515Y-99616497D01*
X242522080Y-99427138D01*
X242408209Y-99256720D01*
X242408206Y-99256716D01*
X242263283Y-99111793D01*
X242263279Y-99111790D01*
X242092859Y-98997918D01*
X241934815Y-98932455D01*
X241903503Y-98919485D01*
X241903499Y-98919484D01*
X241903495Y-98919483D01*
X241702484Y-98879500D01*
X241702480Y-98879500D01*
X241497520Y-98879500D01*
X241497515Y-98879500D01*
X241296504Y-98919483D01*
X241296494Y-98919486D01*
X241107140Y-98997918D01*
X240936720Y-99111790D01*
X240936716Y-99111793D01*
X240791793Y-99256716D01*
X240791790Y-99256720D01*
X240728602Y-99351287D01*
X240674989Y-99396092D01*
X240605664Y-99404799D01*
X240542637Y-99374644D01*
X240505918Y-99315201D01*
X240501500Y-99282396D01*
X240501500Y-98017603D01*
X240521185Y-97950564D01*
X240573989Y-97904809D01*
X240643147Y-97894865D01*
X240706703Y-97923890D01*
X240728602Y-97948712D01*
X240791790Y-98043279D01*
X240791793Y-98043283D01*
X240936716Y-98188206D01*
X240936720Y-98188209D01*
X241107138Y-98302080D01*
X241107139Y-98302080D01*
X241107140Y-98302081D01*
X241120228Y-98307502D01*
X241296497Y-98380515D01*
X241494212Y-98419842D01*
X241497515Y-98420499D01*
X241497519Y-98420500D01*
X241497520Y-98420500D01*
X241702481Y-98420500D01*
X241702482Y-98420499D01*
X241903503Y-98380515D01*
X242092862Y-98302080D01*
X242263280Y-98188209D01*
X242408209Y-98043280D01*
X242522080Y-97872862D01*
X242600515Y-97683503D01*
X242640500Y-97482480D01*
X242640500Y-97277520D01*
X242600515Y-97076497D01*
X242529600Y-96905293D01*
X242522081Y-96887140D01*
X242518641Y-96881992D01*
X242408209Y-96716720D01*
X242408206Y-96716716D01*
X242263283Y-96571793D01*
X242263279Y-96571790D01*
X242092859Y-96457918D01*
X241918423Y-96385665D01*
X241903503Y-96379485D01*
X241903499Y-96379484D01*
X241903495Y-96379483D01*
X241702484Y-96339500D01*
X241702480Y-96339500D01*
X241497520Y-96339500D01*
X241497515Y-96339500D01*
X241296504Y-96379483D01*
X241296494Y-96379486D01*
X241107140Y-96457918D01*
X240936720Y-96571790D01*
X240936716Y-96571793D01*
X240791793Y-96716716D01*
X240791790Y-96716720D01*
X240728602Y-96811287D01*
X240674989Y-96856092D01*
X240605664Y-96864799D01*
X240542637Y-96834644D01*
X240505918Y-96775201D01*
X240501500Y-96742396D01*
X240501500Y-94324993D01*
X240500757Y-94322223D01*
X240500751Y-94322201D01*
X240481704Y-94251113D01*
X240481703Y-94251112D01*
X240481703Y-94251111D01*
X240443458Y-94184869D01*
X239810770Y-93552181D01*
X239777285Y-93490858D01*
X239782269Y-93421166D01*
X239824141Y-93365233D01*
X239889605Y-93340816D01*
X239898451Y-93340500D01*
X239928764Y-93340500D01*
X239928765Y-93340499D01*
X239984329Y-93329447D01*
X240047343Y-93287343D01*
X240089447Y-93224329D01*
X240100500Y-93168762D01*
X240100500Y-92197515D01*
X240559500Y-92197515D01*
X240559500Y-92402484D01*
X240599483Y-92603495D01*
X240599485Y-92603503D01*
X240601135Y-92607487D01*
X240677918Y-92792859D01*
X240791790Y-92963279D01*
X240791793Y-92963283D01*
X240936716Y-93108206D01*
X240936720Y-93108209D01*
X241107138Y-93222080D01*
X241107139Y-93222080D01*
X241107140Y-93222081D01*
X241142113Y-93236567D01*
X241296497Y-93300515D01*
X241497515Y-93340499D01*
X241497519Y-93340500D01*
X241497520Y-93340500D01*
X241702481Y-93340500D01*
X241702482Y-93340499D01*
X241903503Y-93300515D01*
X242092862Y-93222080D01*
X242263280Y-93108209D01*
X242408209Y-92963280D01*
X242522080Y-92792862D01*
X242600515Y-92603503D01*
X242640500Y-92402480D01*
X242640500Y-92197520D01*
X242600515Y-91996497D01*
X242536567Y-91842113D01*
X242522081Y-91807140D01*
X242495849Y-91767882D01*
X242408209Y-91636720D01*
X242408206Y-91636716D01*
X242263283Y-91491793D01*
X242263279Y-91491790D01*
X242092859Y-91377918D01*
X241903505Y-91299486D01*
X241903506Y-91299486D01*
X241903503Y-91299485D01*
X241903499Y-91299484D01*
X241903495Y-91299483D01*
X241702484Y-91259500D01*
X241702480Y-91259500D01*
X241497520Y-91259500D01*
X241497515Y-91259500D01*
X241296504Y-91299483D01*
X241296494Y-91299486D01*
X241107140Y-91377918D01*
X240936720Y-91491790D01*
X240936716Y-91491793D01*
X240791793Y-91636716D01*
X240791790Y-91636720D01*
X240677918Y-91807140D01*
X240599486Y-91996494D01*
X240599483Y-91996504D01*
X240559500Y-92197515D01*
X240100500Y-92197515D01*
X240100500Y-91431238D01*
X240100500Y-91431235D01*
X240100499Y-91431233D01*
X240089447Y-91375671D01*
X240089447Y-91375670D01*
X240047343Y-91312657D01*
X240047342Y-91312656D01*
X239984329Y-91270552D01*
X239928765Y-91259500D01*
X239928762Y-91259500D01*
X238191238Y-91259500D01*
X238191235Y-91259500D01*
X238135671Y-91270552D01*
X238135670Y-91270552D01*
X238072657Y-91312656D01*
X238072656Y-91312657D01*
X238030552Y-91375670D01*
X238030552Y-91375671D01*
X238019500Y-91431233D01*
X238019500Y-92049446D01*
X238016949Y-92058131D01*
X238018238Y-92067093D01*
X238007259Y-92091133D01*
X237999815Y-92116485D01*
X237992974Y-92122412D01*
X237989213Y-92130649D01*
X237966978Y-92144938D01*
X237947011Y-92162240D01*
X237936496Y-92164527D01*
X237930435Y-92168423D01*
X237895500Y-92173446D01*
X237807745Y-92173446D01*
X237740706Y-92153761D01*
X237720064Y-92137127D01*
X236537692Y-90954755D01*
X236537690Y-90954753D01*
X236504569Y-90935630D01*
X236471449Y-90916508D01*
X236434506Y-90906609D01*
X236397564Y-90896711D01*
X235871802Y-90896711D01*
X235795312Y-90896711D01*
X235721426Y-90916508D01*
X235655186Y-90954753D01*
X235655183Y-90954755D01*
X229906758Y-96703181D01*
X229845435Y-96736666D01*
X229819077Y-96739500D01*
X229813952Y-96739500D01*
X229689200Y-96772926D01*
X229577354Y-96837502D01*
X229577351Y-96837504D01*
X229486032Y-96928823D01*
X229486030Y-96928826D01*
X229440047Y-97008470D01*
X229389479Y-97056685D01*
X229320872Y-97069907D01*
X229256007Y-97043939D01*
X229244979Y-97034150D01*
X223078373Y-90867544D01*
X223078371Y-90867542D01*
X223045250Y-90848419D01*
X223012130Y-90829297D01*
X222975187Y-90819398D01*
X222938245Y-90809500D01*
X210730516Y-90809500D01*
X210654025Y-90809500D01*
X210580139Y-90829297D01*
X210513899Y-90867542D01*
X210513896Y-90867544D01*
X209603260Y-91778181D01*
X209541937Y-91811666D01*
X209515579Y-91814500D01*
X209479277Y-91814500D01*
X209367241Y-91844519D01*
X209266797Y-91902512D01*
X209266794Y-91902514D01*
X209184784Y-91984524D01*
X209184782Y-91984527D01*
X209126789Y-92084971D01*
X209096770Y-92197007D01*
X186760398Y-92197007D01*
X186720515Y-91996497D01*
X186656567Y-91842113D01*
X186642081Y-91807140D01*
X186615849Y-91767882D01*
X186528209Y-91636720D01*
X186528206Y-91636716D01*
X186383283Y-91491793D01*
X186383279Y-91491790D01*
X186212859Y-91377918D01*
X186023505Y-91299486D01*
X186023506Y-91299486D01*
X186023503Y-91299485D01*
X186023499Y-91299484D01*
X186023495Y-91299483D01*
X185822484Y-91259500D01*
X185822480Y-91259500D01*
X185617520Y-91259500D01*
X185617515Y-91259500D01*
X185416504Y-91299483D01*
X185416494Y-91299486D01*
X185227140Y-91377918D01*
X185056720Y-91491790D01*
X185056716Y-91491793D01*
X184911793Y-91636716D01*
X184911790Y-91636720D01*
X184797918Y-91807140D01*
X184719486Y-91996494D01*
X184719483Y-91996504D01*
X184679500Y-92197515D01*
X184220500Y-92197515D01*
X184220500Y-91431238D01*
X184220500Y-91431235D01*
X184220499Y-91431233D01*
X184209447Y-91375671D01*
X184209447Y-91375670D01*
X184167343Y-91312657D01*
X184167342Y-91312656D01*
X184104329Y-91270552D01*
X184048765Y-91259500D01*
X184048762Y-91259500D01*
X182311238Y-91259500D01*
X182311235Y-91259500D01*
X182255671Y-91270552D01*
X182255670Y-91270552D01*
X182192657Y-91312656D01*
X182192656Y-91312657D01*
X182150552Y-91375670D01*
X182150552Y-91375671D01*
X182139500Y-91431233D01*
X181300500Y-91431233D01*
X181300500Y-90424500D01*
X181320185Y-90357461D01*
X181372989Y-90311706D01*
X181424500Y-90300500D01*
X243575500Y-90300500D01*
X243642539Y-90320185D01*
G37*
%TD.AperFunction*%
%TD*%
M02*
