%TF.GenerationSoftware,KiCad,Pcbnew,9.0.6*%
%TF.CreationDate,2026-03-18T14:56:14+08:00*%
%TF.ProjectId,Microver2026_STM32_Control,4d696372-6f76-4657-9232-3032365f5354,A*%
%TF.SameCoordinates,Original*%
%TF.FileFunction,Legend,Top*%
%TF.FilePolarity,Positive*%
%FSLAX46Y46*%
G04 Gerber Fmt 4.6, Leading zero omitted, Abs format (unit mm)*
G04 Created by KiCad (PCBNEW 9.0.6) date 2026-03-18 14:56:14*
%MOMM*%
%LPD*%
G01*
G04 APERTURE LIST*
%ADD10C,0.100000*%
%ADD11C,0.125000*%
%ADD12C,0.120000*%
%ADD13C,0.152400*%
%ADD14C,0.000000*%
G04 APERTURE END LIST*
D10*
X230195238Y-116208940D02*
X229928571Y-115827987D01*
X229738095Y-116208940D02*
X229738095Y-115408940D01*
X229738095Y-115408940D02*
X230042857Y-115408940D01*
X230042857Y-115408940D02*
X230119047Y-115447035D01*
X230119047Y-115447035D02*
X230157142Y-115485130D01*
X230157142Y-115485130D02*
X230195238Y-115561321D01*
X230195238Y-115561321D02*
X230195238Y-115675606D01*
X230195238Y-115675606D02*
X230157142Y-115751797D01*
X230157142Y-115751797D02*
X230119047Y-115789892D01*
X230119047Y-115789892D02*
X230042857Y-115827987D01*
X230042857Y-115827987D02*
X229738095Y-115827987D01*
X230538095Y-115789892D02*
X230804761Y-115789892D01*
X230919047Y-116208940D02*
X230538095Y-116208940D01*
X230538095Y-116208940D02*
X230538095Y-115408940D01*
X230538095Y-115408940D02*
X230919047Y-115408940D01*
X231147619Y-115408940D02*
X231414286Y-116208940D01*
X231414286Y-116208940D02*
X231680952Y-115408940D01*
X232519047Y-115980368D02*
X232900000Y-115980368D01*
X232442857Y-116208940D02*
X232709524Y-115408940D01*
X232709524Y-115408940D02*
X232976190Y-116208940D01*
X227528570Y-117496895D02*
X227528570Y-116696895D01*
X227528570Y-116696895D02*
X227795236Y-117268323D01*
X227795236Y-117268323D02*
X228061903Y-116696895D01*
X228061903Y-116696895D02*
X228061903Y-117496895D01*
X228785713Y-117496895D02*
X228785713Y-117077847D01*
X228785713Y-117077847D02*
X228747618Y-117001657D01*
X228747618Y-117001657D02*
X228671427Y-116963561D01*
X228671427Y-116963561D02*
X228519046Y-116963561D01*
X228519046Y-116963561D02*
X228442856Y-117001657D01*
X228785713Y-117458800D02*
X228709522Y-117496895D01*
X228709522Y-117496895D02*
X228519046Y-117496895D01*
X228519046Y-117496895D02*
X228442856Y-117458800D01*
X228442856Y-117458800D02*
X228404760Y-117382609D01*
X228404760Y-117382609D02*
X228404760Y-117306419D01*
X228404760Y-117306419D02*
X228442856Y-117230228D01*
X228442856Y-117230228D02*
X228519046Y-117192133D01*
X228519046Y-117192133D02*
X228709522Y-117192133D01*
X228709522Y-117192133D02*
X228785713Y-117154038D01*
X229166666Y-117496895D02*
X229166666Y-116963561D01*
X229166666Y-117115942D02*
X229204761Y-117039752D01*
X229204761Y-117039752D02*
X229242856Y-117001657D01*
X229242856Y-117001657D02*
X229319047Y-116963561D01*
X229319047Y-116963561D02*
X229395237Y-116963561D01*
X230690475Y-117496895D02*
X230233332Y-117496895D01*
X230461904Y-117496895D02*
X230461904Y-116696895D01*
X230461904Y-116696895D02*
X230385713Y-116811180D01*
X230385713Y-116811180D02*
X230309523Y-116887371D01*
X230309523Y-116887371D02*
X230233332Y-116925466D01*
X230957142Y-116696895D02*
X231490476Y-116696895D01*
X231490476Y-116696895D02*
X231147618Y-117496895D01*
X232366666Y-116773085D02*
X232404762Y-116734990D01*
X232404762Y-116734990D02*
X232480952Y-116696895D01*
X232480952Y-116696895D02*
X232671428Y-116696895D01*
X232671428Y-116696895D02*
X232747619Y-116734990D01*
X232747619Y-116734990D02*
X232785714Y-116773085D01*
X232785714Y-116773085D02*
X232823809Y-116849276D01*
X232823809Y-116849276D02*
X232823809Y-116925466D01*
X232823809Y-116925466D02*
X232785714Y-117039752D01*
X232785714Y-117039752D02*
X232328571Y-117496895D01*
X232328571Y-117496895D02*
X232823809Y-117496895D01*
X233319048Y-116696895D02*
X233395238Y-116696895D01*
X233395238Y-116696895D02*
X233471429Y-116734990D01*
X233471429Y-116734990D02*
X233509524Y-116773085D01*
X233509524Y-116773085D02*
X233547619Y-116849276D01*
X233547619Y-116849276D02*
X233585714Y-117001657D01*
X233585714Y-117001657D02*
X233585714Y-117192133D01*
X233585714Y-117192133D02*
X233547619Y-117344514D01*
X233547619Y-117344514D02*
X233509524Y-117420704D01*
X233509524Y-117420704D02*
X233471429Y-117458800D01*
X233471429Y-117458800D02*
X233395238Y-117496895D01*
X233395238Y-117496895D02*
X233319048Y-117496895D01*
X233319048Y-117496895D02*
X233242857Y-117458800D01*
X233242857Y-117458800D02*
X233204762Y-117420704D01*
X233204762Y-117420704D02*
X233166667Y-117344514D01*
X233166667Y-117344514D02*
X233128571Y-117192133D01*
X233128571Y-117192133D02*
X233128571Y-117001657D01*
X233128571Y-117001657D02*
X233166667Y-116849276D01*
X233166667Y-116849276D02*
X233204762Y-116773085D01*
X233204762Y-116773085D02*
X233242857Y-116734990D01*
X233242857Y-116734990D02*
X233319048Y-116696895D01*
X233890476Y-116773085D02*
X233928572Y-116734990D01*
X233928572Y-116734990D02*
X234004762Y-116696895D01*
X234004762Y-116696895D02*
X234195238Y-116696895D01*
X234195238Y-116696895D02*
X234271429Y-116734990D01*
X234271429Y-116734990D02*
X234309524Y-116773085D01*
X234309524Y-116773085D02*
X234347619Y-116849276D01*
X234347619Y-116849276D02*
X234347619Y-116925466D01*
X234347619Y-116925466D02*
X234309524Y-117039752D01*
X234309524Y-117039752D02*
X233852381Y-117496895D01*
X233852381Y-117496895D02*
X234347619Y-117496895D01*
X235071429Y-116696895D02*
X234690477Y-116696895D01*
X234690477Y-116696895D02*
X234652381Y-117077847D01*
X234652381Y-117077847D02*
X234690477Y-117039752D01*
X234690477Y-117039752D02*
X234766667Y-117001657D01*
X234766667Y-117001657D02*
X234957143Y-117001657D01*
X234957143Y-117001657D02*
X235033334Y-117039752D01*
X235033334Y-117039752D02*
X235071429Y-117077847D01*
X235071429Y-117077847D02*
X235109524Y-117154038D01*
X235109524Y-117154038D02*
X235109524Y-117344514D01*
X235109524Y-117344514D02*
X235071429Y-117420704D01*
X235071429Y-117420704D02*
X235033334Y-117458800D01*
X235033334Y-117458800D02*
X234957143Y-117496895D01*
X234957143Y-117496895D02*
X234766667Y-117496895D01*
X234766667Y-117496895D02*
X234690477Y-117458800D01*
X234690477Y-117458800D02*
X234652381Y-117420704D01*
D11*
X208278571Y-92424809D02*
X208111905Y-92186714D01*
X207992857Y-92424809D02*
X207992857Y-91924809D01*
X207992857Y-91924809D02*
X208183333Y-91924809D01*
X208183333Y-91924809D02*
X208230952Y-91948619D01*
X208230952Y-91948619D02*
X208254762Y-91972428D01*
X208254762Y-91972428D02*
X208278571Y-92020047D01*
X208278571Y-92020047D02*
X208278571Y-92091476D01*
X208278571Y-92091476D02*
X208254762Y-92139095D01*
X208254762Y-92139095D02*
X208230952Y-92162904D01*
X208230952Y-92162904D02*
X208183333Y-92186714D01*
X208183333Y-92186714D02*
X207992857Y-92186714D01*
X208469048Y-91972428D02*
X208492857Y-91948619D01*
X208492857Y-91948619D02*
X208540476Y-91924809D01*
X208540476Y-91924809D02*
X208659524Y-91924809D01*
X208659524Y-91924809D02*
X208707143Y-91948619D01*
X208707143Y-91948619D02*
X208730952Y-91972428D01*
X208730952Y-91972428D02*
X208754762Y-92020047D01*
X208754762Y-92020047D02*
X208754762Y-92067666D01*
X208754762Y-92067666D02*
X208730952Y-92139095D01*
X208730952Y-92139095D02*
X208445238Y-92424809D01*
X208445238Y-92424809D02*
X208754762Y-92424809D01*
X209207142Y-91924809D02*
X208969047Y-91924809D01*
X208969047Y-91924809D02*
X208945238Y-92162904D01*
X208945238Y-92162904D02*
X208969047Y-92139095D01*
X208969047Y-92139095D02*
X209016666Y-92115285D01*
X209016666Y-92115285D02*
X209135714Y-92115285D01*
X209135714Y-92115285D02*
X209183333Y-92139095D01*
X209183333Y-92139095D02*
X209207142Y-92162904D01*
X209207142Y-92162904D02*
X209230952Y-92210523D01*
X209230952Y-92210523D02*
X209230952Y-92329571D01*
X209230952Y-92329571D02*
X209207142Y-92377190D01*
X209207142Y-92377190D02*
X209183333Y-92401000D01*
X209183333Y-92401000D02*
X209135714Y-92424809D01*
X209135714Y-92424809D02*
X209016666Y-92424809D01*
X209016666Y-92424809D02*
X208969047Y-92401000D01*
X208969047Y-92401000D02*
X208945238Y-92377190D01*
X224078571Y-112834809D02*
X223911905Y-112596714D01*
X223792857Y-112834809D02*
X223792857Y-112334809D01*
X223792857Y-112334809D02*
X223983333Y-112334809D01*
X223983333Y-112334809D02*
X224030952Y-112358619D01*
X224030952Y-112358619D02*
X224054762Y-112382428D01*
X224054762Y-112382428D02*
X224078571Y-112430047D01*
X224078571Y-112430047D02*
X224078571Y-112501476D01*
X224078571Y-112501476D02*
X224054762Y-112549095D01*
X224054762Y-112549095D02*
X224030952Y-112572904D01*
X224030952Y-112572904D02*
X223983333Y-112596714D01*
X223983333Y-112596714D02*
X223792857Y-112596714D01*
X224269048Y-112382428D02*
X224292857Y-112358619D01*
X224292857Y-112358619D02*
X224340476Y-112334809D01*
X224340476Y-112334809D02*
X224459524Y-112334809D01*
X224459524Y-112334809D02*
X224507143Y-112358619D01*
X224507143Y-112358619D02*
X224530952Y-112382428D01*
X224530952Y-112382428D02*
X224554762Y-112430047D01*
X224554762Y-112430047D02*
X224554762Y-112477666D01*
X224554762Y-112477666D02*
X224530952Y-112549095D01*
X224530952Y-112549095D02*
X224245238Y-112834809D01*
X224245238Y-112834809D02*
X224554762Y-112834809D01*
X224721428Y-112334809D02*
X225054761Y-112334809D01*
X225054761Y-112334809D02*
X224840476Y-112834809D01*
X226078571Y-103624809D02*
X225911905Y-103386714D01*
X225792857Y-103624809D02*
X225792857Y-103124809D01*
X225792857Y-103124809D02*
X225983333Y-103124809D01*
X225983333Y-103124809D02*
X226030952Y-103148619D01*
X226030952Y-103148619D02*
X226054762Y-103172428D01*
X226054762Y-103172428D02*
X226078571Y-103220047D01*
X226078571Y-103220047D02*
X226078571Y-103291476D01*
X226078571Y-103291476D02*
X226054762Y-103339095D01*
X226054762Y-103339095D02*
X226030952Y-103362904D01*
X226030952Y-103362904D02*
X225983333Y-103386714D01*
X225983333Y-103386714D02*
X225792857Y-103386714D01*
X226554762Y-103624809D02*
X226269048Y-103624809D01*
X226411905Y-103624809D02*
X226411905Y-103124809D01*
X226411905Y-103124809D02*
X226364286Y-103196238D01*
X226364286Y-103196238D02*
X226316667Y-103243857D01*
X226316667Y-103243857D02*
X226269048Y-103267666D01*
X226840476Y-103339095D02*
X226792857Y-103315285D01*
X226792857Y-103315285D02*
X226769047Y-103291476D01*
X226769047Y-103291476D02*
X226745238Y-103243857D01*
X226745238Y-103243857D02*
X226745238Y-103220047D01*
X226745238Y-103220047D02*
X226769047Y-103172428D01*
X226769047Y-103172428D02*
X226792857Y-103148619D01*
X226792857Y-103148619D02*
X226840476Y-103124809D01*
X226840476Y-103124809D02*
X226935714Y-103124809D01*
X226935714Y-103124809D02*
X226983333Y-103148619D01*
X226983333Y-103148619D02*
X227007142Y-103172428D01*
X227007142Y-103172428D02*
X227030952Y-103220047D01*
X227030952Y-103220047D02*
X227030952Y-103243857D01*
X227030952Y-103243857D02*
X227007142Y-103291476D01*
X227007142Y-103291476D02*
X226983333Y-103315285D01*
X226983333Y-103315285D02*
X226935714Y-103339095D01*
X226935714Y-103339095D02*
X226840476Y-103339095D01*
X226840476Y-103339095D02*
X226792857Y-103362904D01*
X226792857Y-103362904D02*
X226769047Y-103386714D01*
X226769047Y-103386714D02*
X226745238Y-103434333D01*
X226745238Y-103434333D02*
X226745238Y-103529571D01*
X226745238Y-103529571D02*
X226769047Y-103577190D01*
X226769047Y-103577190D02*
X226792857Y-103601000D01*
X226792857Y-103601000D02*
X226840476Y-103624809D01*
X226840476Y-103624809D02*
X226935714Y-103624809D01*
X226935714Y-103624809D02*
X226983333Y-103601000D01*
X226983333Y-103601000D02*
X227007142Y-103577190D01*
X227007142Y-103577190D02*
X227030952Y-103529571D01*
X227030952Y-103529571D02*
X227030952Y-103434333D01*
X227030952Y-103434333D02*
X227007142Y-103386714D01*
X227007142Y-103386714D02*
X226983333Y-103362904D01*
X226983333Y-103362904D02*
X226935714Y-103339095D01*
X224478571Y-100424809D02*
X224311905Y-100186714D01*
X224192857Y-100424809D02*
X224192857Y-99924809D01*
X224192857Y-99924809D02*
X224383333Y-99924809D01*
X224383333Y-99924809D02*
X224430952Y-99948619D01*
X224430952Y-99948619D02*
X224454762Y-99972428D01*
X224454762Y-99972428D02*
X224478571Y-100020047D01*
X224478571Y-100020047D02*
X224478571Y-100091476D01*
X224478571Y-100091476D02*
X224454762Y-100139095D01*
X224454762Y-100139095D02*
X224430952Y-100162904D01*
X224430952Y-100162904D02*
X224383333Y-100186714D01*
X224383333Y-100186714D02*
X224192857Y-100186714D01*
X224954762Y-100424809D02*
X224669048Y-100424809D01*
X224811905Y-100424809D02*
X224811905Y-99924809D01*
X224811905Y-99924809D02*
X224764286Y-99996238D01*
X224764286Y-99996238D02*
X224716667Y-100043857D01*
X224716667Y-100043857D02*
X224669048Y-100067666D01*
X225264285Y-99924809D02*
X225311904Y-99924809D01*
X225311904Y-99924809D02*
X225359523Y-99948619D01*
X225359523Y-99948619D02*
X225383333Y-99972428D01*
X225383333Y-99972428D02*
X225407142Y-100020047D01*
X225407142Y-100020047D02*
X225430952Y-100115285D01*
X225430952Y-100115285D02*
X225430952Y-100234333D01*
X225430952Y-100234333D02*
X225407142Y-100329571D01*
X225407142Y-100329571D02*
X225383333Y-100377190D01*
X225383333Y-100377190D02*
X225359523Y-100401000D01*
X225359523Y-100401000D02*
X225311904Y-100424809D01*
X225311904Y-100424809D02*
X225264285Y-100424809D01*
X225264285Y-100424809D02*
X225216666Y-100401000D01*
X225216666Y-100401000D02*
X225192857Y-100377190D01*
X225192857Y-100377190D02*
X225169047Y-100329571D01*
X225169047Y-100329571D02*
X225145238Y-100234333D01*
X225145238Y-100234333D02*
X225145238Y-100115285D01*
X225145238Y-100115285D02*
X225169047Y-100020047D01*
X225169047Y-100020047D02*
X225192857Y-99972428D01*
X225192857Y-99972428D02*
X225216666Y-99948619D01*
X225216666Y-99948619D02*
X225264285Y-99924809D01*
X221300000Y-115234333D02*
X221680953Y-115234333D01*
X221490476Y-115424809D02*
X221490476Y-115043857D01*
X221871429Y-114924809D02*
X222180953Y-114924809D01*
X222180953Y-114924809D02*
X222014286Y-115115285D01*
X222014286Y-115115285D02*
X222085715Y-115115285D01*
X222085715Y-115115285D02*
X222133334Y-115139095D01*
X222133334Y-115139095D02*
X222157143Y-115162904D01*
X222157143Y-115162904D02*
X222180953Y-115210523D01*
X222180953Y-115210523D02*
X222180953Y-115329571D01*
X222180953Y-115329571D02*
X222157143Y-115377190D01*
X222157143Y-115377190D02*
X222133334Y-115401000D01*
X222133334Y-115401000D02*
X222085715Y-115424809D01*
X222085715Y-115424809D02*
X221942858Y-115424809D01*
X221942858Y-115424809D02*
X221895239Y-115401000D01*
X221895239Y-115401000D02*
X221871429Y-115377190D01*
X222395238Y-115377190D02*
X222419048Y-115401000D01*
X222419048Y-115401000D02*
X222395238Y-115424809D01*
X222395238Y-115424809D02*
X222371429Y-115401000D01*
X222371429Y-115401000D02*
X222395238Y-115377190D01*
X222395238Y-115377190D02*
X222395238Y-115424809D01*
X222585714Y-114924809D02*
X222895238Y-114924809D01*
X222895238Y-114924809D02*
X222728571Y-115115285D01*
X222728571Y-115115285D02*
X222800000Y-115115285D01*
X222800000Y-115115285D02*
X222847619Y-115139095D01*
X222847619Y-115139095D02*
X222871428Y-115162904D01*
X222871428Y-115162904D02*
X222895238Y-115210523D01*
X222895238Y-115210523D02*
X222895238Y-115329571D01*
X222895238Y-115329571D02*
X222871428Y-115377190D01*
X222871428Y-115377190D02*
X222847619Y-115401000D01*
X222847619Y-115401000D02*
X222800000Y-115424809D01*
X222800000Y-115424809D02*
X222657143Y-115424809D01*
X222657143Y-115424809D02*
X222609524Y-115401000D01*
X222609524Y-115401000D02*
X222585714Y-115377190D01*
X223038095Y-114924809D02*
X223204761Y-115424809D01*
X223204761Y-115424809D02*
X223371428Y-114924809D01*
X226278571Y-100677190D02*
X226254762Y-100701000D01*
X226254762Y-100701000D02*
X226183333Y-100724809D01*
X226183333Y-100724809D02*
X226135714Y-100724809D01*
X226135714Y-100724809D02*
X226064286Y-100701000D01*
X226064286Y-100701000D02*
X226016667Y-100653380D01*
X226016667Y-100653380D02*
X225992857Y-100605761D01*
X225992857Y-100605761D02*
X225969048Y-100510523D01*
X225969048Y-100510523D02*
X225969048Y-100439095D01*
X225969048Y-100439095D02*
X225992857Y-100343857D01*
X225992857Y-100343857D02*
X226016667Y-100296238D01*
X226016667Y-100296238D02*
X226064286Y-100248619D01*
X226064286Y-100248619D02*
X226135714Y-100224809D01*
X226135714Y-100224809D02*
X226183333Y-100224809D01*
X226183333Y-100224809D02*
X226254762Y-100248619D01*
X226254762Y-100248619D02*
X226278571Y-100272428D01*
X226754762Y-100724809D02*
X226469048Y-100724809D01*
X226611905Y-100724809D02*
X226611905Y-100224809D01*
X226611905Y-100224809D02*
X226564286Y-100296238D01*
X226564286Y-100296238D02*
X226516667Y-100343857D01*
X226516667Y-100343857D02*
X226469048Y-100367666D01*
X227230952Y-100724809D02*
X226945238Y-100724809D01*
X227088095Y-100724809D02*
X227088095Y-100224809D01*
X227088095Y-100224809D02*
X227040476Y-100296238D01*
X227040476Y-100296238D02*
X226992857Y-100343857D01*
X226992857Y-100343857D02*
X226945238Y-100367666D01*
X215778571Y-92424809D02*
X215611905Y-92186714D01*
X215492857Y-92424809D02*
X215492857Y-91924809D01*
X215492857Y-91924809D02*
X215683333Y-91924809D01*
X215683333Y-91924809D02*
X215730952Y-91948619D01*
X215730952Y-91948619D02*
X215754762Y-91972428D01*
X215754762Y-91972428D02*
X215778571Y-92020047D01*
X215778571Y-92020047D02*
X215778571Y-92091476D01*
X215778571Y-92091476D02*
X215754762Y-92139095D01*
X215754762Y-92139095D02*
X215730952Y-92162904D01*
X215730952Y-92162904D02*
X215683333Y-92186714D01*
X215683333Y-92186714D02*
X215492857Y-92186714D01*
X216254762Y-92424809D02*
X215969048Y-92424809D01*
X216111905Y-92424809D02*
X216111905Y-91924809D01*
X216111905Y-91924809D02*
X216064286Y-91996238D01*
X216064286Y-91996238D02*
X216016667Y-92043857D01*
X216016667Y-92043857D02*
X215969048Y-92067666D01*
X216683333Y-91924809D02*
X216588095Y-91924809D01*
X216588095Y-91924809D02*
X216540476Y-91948619D01*
X216540476Y-91948619D02*
X216516666Y-91972428D01*
X216516666Y-91972428D02*
X216469047Y-92043857D01*
X216469047Y-92043857D02*
X216445238Y-92139095D01*
X216445238Y-92139095D02*
X216445238Y-92329571D01*
X216445238Y-92329571D02*
X216469047Y-92377190D01*
X216469047Y-92377190D02*
X216492857Y-92401000D01*
X216492857Y-92401000D02*
X216540476Y-92424809D01*
X216540476Y-92424809D02*
X216635714Y-92424809D01*
X216635714Y-92424809D02*
X216683333Y-92401000D01*
X216683333Y-92401000D02*
X216707142Y-92377190D01*
X216707142Y-92377190D02*
X216730952Y-92329571D01*
X216730952Y-92329571D02*
X216730952Y-92210523D01*
X216730952Y-92210523D02*
X216707142Y-92162904D01*
X216707142Y-92162904D02*
X216683333Y-92139095D01*
X216683333Y-92139095D02*
X216635714Y-92115285D01*
X216635714Y-92115285D02*
X216540476Y-92115285D01*
X216540476Y-92115285D02*
X216492857Y-92139095D01*
X216492857Y-92139095D02*
X216469047Y-92162904D01*
X216469047Y-92162904D02*
X216445238Y-92210523D01*
X187895238Y-92524809D02*
X187895238Y-92881952D01*
X187895238Y-92881952D02*
X187871429Y-92953380D01*
X187871429Y-92953380D02*
X187823810Y-93001000D01*
X187823810Y-93001000D02*
X187752381Y-93024809D01*
X187752381Y-93024809D02*
X187704762Y-93024809D01*
X188395238Y-93024809D02*
X188109524Y-93024809D01*
X188252381Y-93024809D02*
X188252381Y-92524809D01*
X188252381Y-92524809D02*
X188204762Y-92596238D01*
X188204762Y-92596238D02*
X188157143Y-92643857D01*
X188157143Y-92643857D02*
X188109524Y-92667666D01*
X188823809Y-92691476D02*
X188823809Y-93024809D01*
X188704761Y-92501000D02*
X188585714Y-92858142D01*
X188585714Y-92858142D02*
X188895237Y-92858142D01*
X203716666Y-109924809D02*
X203550000Y-109686714D01*
X203430952Y-109924809D02*
X203430952Y-109424809D01*
X203430952Y-109424809D02*
X203621428Y-109424809D01*
X203621428Y-109424809D02*
X203669047Y-109448619D01*
X203669047Y-109448619D02*
X203692857Y-109472428D01*
X203692857Y-109472428D02*
X203716666Y-109520047D01*
X203716666Y-109520047D02*
X203716666Y-109591476D01*
X203716666Y-109591476D02*
X203692857Y-109639095D01*
X203692857Y-109639095D02*
X203669047Y-109662904D01*
X203669047Y-109662904D02*
X203621428Y-109686714D01*
X203621428Y-109686714D02*
X203430952Y-109686714D01*
X204002381Y-109639095D02*
X203954762Y-109615285D01*
X203954762Y-109615285D02*
X203930952Y-109591476D01*
X203930952Y-109591476D02*
X203907143Y-109543857D01*
X203907143Y-109543857D02*
X203907143Y-109520047D01*
X203907143Y-109520047D02*
X203930952Y-109472428D01*
X203930952Y-109472428D02*
X203954762Y-109448619D01*
X203954762Y-109448619D02*
X204002381Y-109424809D01*
X204002381Y-109424809D02*
X204097619Y-109424809D01*
X204097619Y-109424809D02*
X204145238Y-109448619D01*
X204145238Y-109448619D02*
X204169047Y-109472428D01*
X204169047Y-109472428D02*
X204192857Y-109520047D01*
X204192857Y-109520047D02*
X204192857Y-109543857D01*
X204192857Y-109543857D02*
X204169047Y-109591476D01*
X204169047Y-109591476D02*
X204145238Y-109615285D01*
X204145238Y-109615285D02*
X204097619Y-109639095D01*
X204097619Y-109639095D02*
X204002381Y-109639095D01*
X204002381Y-109639095D02*
X203954762Y-109662904D01*
X203954762Y-109662904D02*
X203930952Y-109686714D01*
X203930952Y-109686714D02*
X203907143Y-109734333D01*
X203907143Y-109734333D02*
X203907143Y-109829571D01*
X203907143Y-109829571D02*
X203930952Y-109877190D01*
X203930952Y-109877190D02*
X203954762Y-109901000D01*
X203954762Y-109901000D02*
X204002381Y-109924809D01*
X204002381Y-109924809D02*
X204097619Y-109924809D01*
X204097619Y-109924809D02*
X204145238Y-109901000D01*
X204145238Y-109901000D02*
X204169047Y-109877190D01*
X204169047Y-109877190D02*
X204192857Y-109829571D01*
X204192857Y-109829571D02*
X204192857Y-109734333D01*
X204192857Y-109734333D02*
X204169047Y-109686714D01*
X204169047Y-109686714D02*
X204145238Y-109662904D01*
X204145238Y-109662904D02*
X204097619Y-109639095D01*
X219583334Y-113662904D02*
X219416667Y-113662904D01*
X219416667Y-113924809D02*
X219416667Y-113424809D01*
X219416667Y-113424809D02*
X219654762Y-113424809D01*
X220011905Y-113662904D02*
X220083333Y-113686714D01*
X220083333Y-113686714D02*
X220107143Y-113710523D01*
X220107143Y-113710523D02*
X220130952Y-113758142D01*
X220130952Y-113758142D02*
X220130952Y-113829571D01*
X220130952Y-113829571D02*
X220107143Y-113877190D01*
X220107143Y-113877190D02*
X220083333Y-113901000D01*
X220083333Y-113901000D02*
X220035714Y-113924809D01*
X220035714Y-113924809D02*
X219845238Y-113924809D01*
X219845238Y-113924809D02*
X219845238Y-113424809D01*
X219845238Y-113424809D02*
X220011905Y-113424809D01*
X220011905Y-113424809D02*
X220059524Y-113448619D01*
X220059524Y-113448619D02*
X220083333Y-113472428D01*
X220083333Y-113472428D02*
X220107143Y-113520047D01*
X220107143Y-113520047D02*
X220107143Y-113567666D01*
X220107143Y-113567666D02*
X220083333Y-113615285D01*
X220083333Y-113615285D02*
X220059524Y-113639095D01*
X220059524Y-113639095D02*
X220011905Y-113662904D01*
X220011905Y-113662904D02*
X219845238Y-113662904D01*
X220607143Y-113924809D02*
X220321429Y-113924809D01*
X220464286Y-113924809D02*
X220464286Y-113424809D01*
X220464286Y-113424809D02*
X220416667Y-113496238D01*
X220416667Y-113496238D02*
X220369048Y-113543857D01*
X220369048Y-113543857D02*
X220321429Y-113567666D01*
X227178571Y-105674809D02*
X227011905Y-105436714D01*
X226892857Y-105674809D02*
X226892857Y-105174809D01*
X226892857Y-105174809D02*
X227083333Y-105174809D01*
X227083333Y-105174809D02*
X227130952Y-105198619D01*
X227130952Y-105198619D02*
X227154762Y-105222428D01*
X227154762Y-105222428D02*
X227178571Y-105270047D01*
X227178571Y-105270047D02*
X227178571Y-105341476D01*
X227178571Y-105341476D02*
X227154762Y-105389095D01*
X227154762Y-105389095D02*
X227130952Y-105412904D01*
X227130952Y-105412904D02*
X227083333Y-105436714D01*
X227083333Y-105436714D02*
X226892857Y-105436714D01*
X227345238Y-105174809D02*
X227654762Y-105174809D01*
X227654762Y-105174809D02*
X227488095Y-105365285D01*
X227488095Y-105365285D02*
X227559524Y-105365285D01*
X227559524Y-105365285D02*
X227607143Y-105389095D01*
X227607143Y-105389095D02*
X227630952Y-105412904D01*
X227630952Y-105412904D02*
X227654762Y-105460523D01*
X227654762Y-105460523D02*
X227654762Y-105579571D01*
X227654762Y-105579571D02*
X227630952Y-105627190D01*
X227630952Y-105627190D02*
X227607143Y-105651000D01*
X227607143Y-105651000D02*
X227559524Y-105674809D01*
X227559524Y-105674809D02*
X227416667Y-105674809D01*
X227416667Y-105674809D02*
X227369048Y-105651000D01*
X227369048Y-105651000D02*
X227345238Y-105627190D01*
X227821428Y-105174809D02*
X228130952Y-105174809D01*
X228130952Y-105174809D02*
X227964285Y-105365285D01*
X227964285Y-105365285D02*
X228035714Y-105365285D01*
X228035714Y-105365285D02*
X228083333Y-105389095D01*
X228083333Y-105389095D02*
X228107142Y-105412904D01*
X228107142Y-105412904D02*
X228130952Y-105460523D01*
X228130952Y-105460523D02*
X228130952Y-105579571D01*
X228130952Y-105579571D02*
X228107142Y-105627190D01*
X228107142Y-105627190D02*
X228083333Y-105651000D01*
X228083333Y-105651000D02*
X228035714Y-105674809D01*
X228035714Y-105674809D02*
X227892857Y-105674809D01*
X227892857Y-105674809D02*
X227845238Y-105651000D01*
X227845238Y-105651000D02*
X227821428Y-105627190D01*
X208578571Y-91124809D02*
X208411905Y-90886714D01*
X208292857Y-91124809D02*
X208292857Y-90624809D01*
X208292857Y-90624809D02*
X208483333Y-90624809D01*
X208483333Y-90624809D02*
X208530952Y-90648619D01*
X208530952Y-90648619D02*
X208554762Y-90672428D01*
X208554762Y-90672428D02*
X208578571Y-90720047D01*
X208578571Y-90720047D02*
X208578571Y-90791476D01*
X208578571Y-90791476D02*
X208554762Y-90839095D01*
X208554762Y-90839095D02*
X208530952Y-90862904D01*
X208530952Y-90862904D02*
X208483333Y-90886714D01*
X208483333Y-90886714D02*
X208292857Y-90886714D01*
X208769048Y-90672428D02*
X208792857Y-90648619D01*
X208792857Y-90648619D02*
X208840476Y-90624809D01*
X208840476Y-90624809D02*
X208959524Y-90624809D01*
X208959524Y-90624809D02*
X209007143Y-90648619D01*
X209007143Y-90648619D02*
X209030952Y-90672428D01*
X209030952Y-90672428D02*
X209054762Y-90720047D01*
X209054762Y-90720047D02*
X209054762Y-90767666D01*
X209054762Y-90767666D02*
X209030952Y-90839095D01*
X209030952Y-90839095D02*
X208745238Y-91124809D01*
X208745238Y-91124809D02*
X209054762Y-91124809D01*
X209483333Y-90624809D02*
X209388095Y-90624809D01*
X209388095Y-90624809D02*
X209340476Y-90648619D01*
X209340476Y-90648619D02*
X209316666Y-90672428D01*
X209316666Y-90672428D02*
X209269047Y-90743857D01*
X209269047Y-90743857D02*
X209245238Y-90839095D01*
X209245238Y-90839095D02*
X209245238Y-91029571D01*
X209245238Y-91029571D02*
X209269047Y-91077190D01*
X209269047Y-91077190D02*
X209292857Y-91101000D01*
X209292857Y-91101000D02*
X209340476Y-91124809D01*
X209340476Y-91124809D02*
X209435714Y-91124809D01*
X209435714Y-91124809D02*
X209483333Y-91101000D01*
X209483333Y-91101000D02*
X209507142Y-91077190D01*
X209507142Y-91077190D02*
X209530952Y-91029571D01*
X209530952Y-91029571D02*
X209530952Y-90910523D01*
X209530952Y-90910523D02*
X209507142Y-90862904D01*
X209507142Y-90862904D02*
X209483333Y-90839095D01*
X209483333Y-90839095D02*
X209435714Y-90815285D01*
X209435714Y-90815285D02*
X209340476Y-90815285D01*
X209340476Y-90815285D02*
X209292857Y-90839095D01*
X209292857Y-90839095D02*
X209269047Y-90862904D01*
X209269047Y-90862904D02*
X209245238Y-90910523D01*
X213978571Y-92524809D02*
X213811905Y-92286714D01*
X213692857Y-92524809D02*
X213692857Y-92024809D01*
X213692857Y-92024809D02*
X213883333Y-92024809D01*
X213883333Y-92024809D02*
X213930952Y-92048619D01*
X213930952Y-92048619D02*
X213954762Y-92072428D01*
X213954762Y-92072428D02*
X213978571Y-92120047D01*
X213978571Y-92120047D02*
X213978571Y-92191476D01*
X213978571Y-92191476D02*
X213954762Y-92239095D01*
X213954762Y-92239095D02*
X213930952Y-92262904D01*
X213930952Y-92262904D02*
X213883333Y-92286714D01*
X213883333Y-92286714D02*
X213692857Y-92286714D01*
X214169048Y-92072428D02*
X214192857Y-92048619D01*
X214192857Y-92048619D02*
X214240476Y-92024809D01*
X214240476Y-92024809D02*
X214359524Y-92024809D01*
X214359524Y-92024809D02*
X214407143Y-92048619D01*
X214407143Y-92048619D02*
X214430952Y-92072428D01*
X214430952Y-92072428D02*
X214454762Y-92120047D01*
X214454762Y-92120047D02*
X214454762Y-92167666D01*
X214454762Y-92167666D02*
X214430952Y-92239095D01*
X214430952Y-92239095D02*
X214145238Y-92524809D01*
X214145238Y-92524809D02*
X214454762Y-92524809D01*
X214930952Y-92524809D02*
X214645238Y-92524809D01*
X214788095Y-92524809D02*
X214788095Y-92024809D01*
X214788095Y-92024809D02*
X214740476Y-92096238D01*
X214740476Y-92096238D02*
X214692857Y-92143857D01*
X214692857Y-92143857D02*
X214645238Y-92167666D01*
X206448571Y-93524809D02*
X206281905Y-93286714D01*
X206162857Y-93524809D02*
X206162857Y-93024809D01*
X206162857Y-93024809D02*
X206353333Y-93024809D01*
X206353333Y-93024809D02*
X206400952Y-93048619D01*
X206400952Y-93048619D02*
X206424762Y-93072428D01*
X206424762Y-93072428D02*
X206448571Y-93120047D01*
X206448571Y-93120047D02*
X206448571Y-93191476D01*
X206448571Y-93191476D02*
X206424762Y-93239095D01*
X206424762Y-93239095D02*
X206400952Y-93262904D01*
X206400952Y-93262904D02*
X206353333Y-93286714D01*
X206353333Y-93286714D02*
X206162857Y-93286714D01*
X206639048Y-93072428D02*
X206662857Y-93048619D01*
X206662857Y-93048619D02*
X206710476Y-93024809D01*
X206710476Y-93024809D02*
X206829524Y-93024809D01*
X206829524Y-93024809D02*
X206877143Y-93048619D01*
X206877143Y-93048619D02*
X206900952Y-93072428D01*
X206900952Y-93072428D02*
X206924762Y-93120047D01*
X206924762Y-93120047D02*
X206924762Y-93167666D01*
X206924762Y-93167666D02*
X206900952Y-93239095D01*
X206900952Y-93239095D02*
X206615238Y-93524809D01*
X206615238Y-93524809D02*
X206924762Y-93524809D01*
X207234285Y-93024809D02*
X207281904Y-93024809D01*
X207281904Y-93024809D02*
X207329523Y-93048619D01*
X207329523Y-93048619D02*
X207353333Y-93072428D01*
X207353333Y-93072428D02*
X207377142Y-93120047D01*
X207377142Y-93120047D02*
X207400952Y-93215285D01*
X207400952Y-93215285D02*
X207400952Y-93334333D01*
X207400952Y-93334333D02*
X207377142Y-93429571D01*
X207377142Y-93429571D02*
X207353333Y-93477190D01*
X207353333Y-93477190D02*
X207329523Y-93501000D01*
X207329523Y-93501000D02*
X207281904Y-93524809D01*
X207281904Y-93524809D02*
X207234285Y-93524809D01*
X207234285Y-93524809D02*
X207186666Y-93501000D01*
X207186666Y-93501000D02*
X207162857Y-93477190D01*
X207162857Y-93477190D02*
X207139047Y-93429571D01*
X207139047Y-93429571D02*
X207115238Y-93334333D01*
X207115238Y-93334333D02*
X207115238Y-93215285D01*
X207115238Y-93215285D02*
X207139047Y-93120047D01*
X207139047Y-93120047D02*
X207162857Y-93072428D01*
X207162857Y-93072428D02*
X207186666Y-93048619D01*
X207186666Y-93048619D02*
X207234285Y-93024809D01*
X205016666Y-107924809D02*
X204850000Y-107686714D01*
X204730952Y-107924809D02*
X204730952Y-107424809D01*
X204730952Y-107424809D02*
X204921428Y-107424809D01*
X204921428Y-107424809D02*
X204969047Y-107448619D01*
X204969047Y-107448619D02*
X204992857Y-107472428D01*
X204992857Y-107472428D02*
X205016666Y-107520047D01*
X205016666Y-107520047D02*
X205016666Y-107591476D01*
X205016666Y-107591476D02*
X204992857Y-107639095D01*
X204992857Y-107639095D02*
X204969047Y-107662904D01*
X204969047Y-107662904D02*
X204921428Y-107686714D01*
X204921428Y-107686714D02*
X204730952Y-107686714D01*
X205183333Y-107424809D02*
X205516666Y-107424809D01*
X205516666Y-107424809D02*
X205302381Y-107924809D01*
X220126191Y-96374809D02*
X220126191Y-95874809D01*
X220126191Y-95874809D02*
X220245239Y-95874809D01*
X220245239Y-95874809D02*
X220316667Y-95898619D01*
X220316667Y-95898619D02*
X220364286Y-95946238D01*
X220364286Y-95946238D02*
X220388096Y-95993857D01*
X220388096Y-95993857D02*
X220411905Y-96089095D01*
X220411905Y-96089095D02*
X220411905Y-96160523D01*
X220411905Y-96160523D02*
X220388096Y-96255761D01*
X220388096Y-96255761D02*
X220364286Y-96303380D01*
X220364286Y-96303380D02*
X220316667Y-96351000D01*
X220316667Y-96351000D02*
X220245239Y-96374809D01*
X220245239Y-96374809D02*
X220126191Y-96374809D01*
X220911905Y-96374809D02*
X220745239Y-96136714D01*
X220626191Y-96374809D02*
X220626191Y-95874809D01*
X220626191Y-95874809D02*
X220816667Y-95874809D01*
X220816667Y-95874809D02*
X220864286Y-95898619D01*
X220864286Y-95898619D02*
X220888096Y-95922428D01*
X220888096Y-95922428D02*
X220911905Y-95970047D01*
X220911905Y-95970047D02*
X220911905Y-96041476D01*
X220911905Y-96041476D02*
X220888096Y-96089095D01*
X220888096Y-96089095D02*
X220864286Y-96112904D01*
X220864286Y-96112904D02*
X220816667Y-96136714D01*
X220816667Y-96136714D02*
X220626191Y-96136714D01*
X221054763Y-95874809D02*
X221221429Y-96374809D01*
X221221429Y-96374809D02*
X221388096Y-95874809D01*
X221816667Y-96374809D02*
X221530953Y-96374809D01*
X221673810Y-96374809D02*
X221673810Y-95874809D01*
X221673810Y-95874809D02*
X221626191Y-95946238D01*
X221626191Y-95946238D02*
X221578572Y-95993857D01*
X221578572Y-95993857D02*
X221530953Y-96017666D01*
X221911905Y-96422428D02*
X222292857Y-96422428D01*
X222578571Y-96112904D02*
X222649999Y-96136714D01*
X222649999Y-96136714D02*
X222673809Y-96160523D01*
X222673809Y-96160523D02*
X222697618Y-96208142D01*
X222697618Y-96208142D02*
X222697618Y-96279571D01*
X222697618Y-96279571D02*
X222673809Y-96327190D01*
X222673809Y-96327190D02*
X222649999Y-96351000D01*
X222649999Y-96351000D02*
X222602380Y-96374809D01*
X222602380Y-96374809D02*
X222411904Y-96374809D01*
X222411904Y-96374809D02*
X222411904Y-95874809D01*
X222411904Y-95874809D02*
X222578571Y-95874809D01*
X222578571Y-95874809D02*
X222626190Y-95898619D01*
X222626190Y-95898619D02*
X222649999Y-95922428D01*
X222649999Y-95922428D02*
X222673809Y-95970047D01*
X222673809Y-95970047D02*
X222673809Y-96017666D01*
X222673809Y-96017666D02*
X222649999Y-96065285D01*
X222649999Y-96065285D02*
X222626190Y-96089095D01*
X222626190Y-96089095D02*
X222578571Y-96112904D01*
X222578571Y-96112904D02*
X222411904Y-96112904D01*
X226061905Y-98224809D02*
X226061905Y-97724809D01*
X226061905Y-97724809D02*
X226180953Y-97724809D01*
X226180953Y-97724809D02*
X226252381Y-97748619D01*
X226252381Y-97748619D02*
X226300000Y-97796238D01*
X226300000Y-97796238D02*
X226323810Y-97843857D01*
X226323810Y-97843857D02*
X226347619Y-97939095D01*
X226347619Y-97939095D02*
X226347619Y-98010523D01*
X226347619Y-98010523D02*
X226323810Y-98105761D01*
X226323810Y-98105761D02*
X226300000Y-98153380D01*
X226300000Y-98153380D02*
X226252381Y-98201000D01*
X226252381Y-98201000D02*
X226180953Y-98224809D01*
X226180953Y-98224809D02*
X226061905Y-98224809D01*
X226847619Y-98224809D02*
X226680953Y-97986714D01*
X226561905Y-98224809D02*
X226561905Y-97724809D01*
X226561905Y-97724809D02*
X226752381Y-97724809D01*
X226752381Y-97724809D02*
X226800000Y-97748619D01*
X226800000Y-97748619D02*
X226823810Y-97772428D01*
X226823810Y-97772428D02*
X226847619Y-97820047D01*
X226847619Y-97820047D02*
X226847619Y-97891476D01*
X226847619Y-97891476D02*
X226823810Y-97939095D01*
X226823810Y-97939095D02*
X226800000Y-97962904D01*
X226800000Y-97962904D02*
X226752381Y-97986714D01*
X226752381Y-97986714D02*
X226561905Y-97986714D01*
X226990477Y-97724809D02*
X227157143Y-98224809D01*
X227157143Y-98224809D02*
X227323810Y-97724809D01*
X227466667Y-97772428D02*
X227490476Y-97748619D01*
X227490476Y-97748619D02*
X227538095Y-97724809D01*
X227538095Y-97724809D02*
X227657143Y-97724809D01*
X227657143Y-97724809D02*
X227704762Y-97748619D01*
X227704762Y-97748619D02*
X227728571Y-97772428D01*
X227728571Y-97772428D02*
X227752381Y-97820047D01*
X227752381Y-97820047D02*
X227752381Y-97867666D01*
X227752381Y-97867666D02*
X227728571Y-97939095D01*
X227728571Y-97939095D02*
X227442857Y-98224809D01*
X227442857Y-98224809D02*
X227752381Y-98224809D01*
X227847619Y-98272428D02*
X228228571Y-98272428D01*
X228323809Y-98081952D02*
X228561904Y-98081952D01*
X228276190Y-98224809D02*
X228442856Y-97724809D01*
X228442856Y-97724809D02*
X228609523Y-98224809D01*
D10*
X202478571Y-106179847D02*
X202311905Y-105989371D01*
X202192857Y-106179847D02*
X202192857Y-105779847D01*
X202192857Y-105779847D02*
X202383333Y-105779847D01*
X202383333Y-105779847D02*
X202430952Y-105798895D01*
X202430952Y-105798895D02*
X202454762Y-105817942D01*
X202454762Y-105817942D02*
X202478571Y-105856038D01*
X202478571Y-105856038D02*
X202478571Y-105913180D01*
X202478571Y-105913180D02*
X202454762Y-105951276D01*
X202454762Y-105951276D02*
X202430952Y-105970323D01*
X202430952Y-105970323D02*
X202383333Y-105989371D01*
X202383333Y-105989371D02*
X202192857Y-105989371D01*
X202669048Y-105817942D02*
X202692857Y-105798895D01*
X202692857Y-105798895D02*
X202740476Y-105779847D01*
X202740476Y-105779847D02*
X202859524Y-105779847D01*
X202859524Y-105779847D02*
X202907143Y-105798895D01*
X202907143Y-105798895D02*
X202930952Y-105817942D01*
X202930952Y-105817942D02*
X202954762Y-105856038D01*
X202954762Y-105856038D02*
X202954762Y-105894133D01*
X202954762Y-105894133D02*
X202930952Y-105951276D01*
X202930952Y-105951276D02*
X202645238Y-106179847D01*
X202645238Y-106179847D02*
X202954762Y-106179847D01*
X203383333Y-105913180D02*
X203383333Y-106179847D01*
X203264285Y-105760800D02*
X203145238Y-106046514D01*
X203145238Y-106046514D02*
X203454761Y-106046514D01*
D11*
X223054762Y-96324809D02*
X223054762Y-95824809D01*
X223054762Y-95824809D02*
X223173810Y-95824809D01*
X223173810Y-95824809D02*
X223245238Y-95848619D01*
X223245238Y-95848619D02*
X223292857Y-95896238D01*
X223292857Y-95896238D02*
X223316667Y-95943857D01*
X223316667Y-95943857D02*
X223340476Y-96039095D01*
X223340476Y-96039095D02*
X223340476Y-96110523D01*
X223340476Y-96110523D02*
X223316667Y-96205761D01*
X223316667Y-96205761D02*
X223292857Y-96253380D01*
X223292857Y-96253380D02*
X223245238Y-96301000D01*
X223245238Y-96301000D02*
X223173810Y-96324809D01*
X223173810Y-96324809D02*
X223054762Y-96324809D01*
X223840476Y-96324809D02*
X223673810Y-96086714D01*
X223554762Y-96324809D02*
X223554762Y-95824809D01*
X223554762Y-95824809D02*
X223745238Y-95824809D01*
X223745238Y-95824809D02*
X223792857Y-95848619D01*
X223792857Y-95848619D02*
X223816667Y-95872428D01*
X223816667Y-95872428D02*
X223840476Y-95920047D01*
X223840476Y-95920047D02*
X223840476Y-95991476D01*
X223840476Y-95991476D02*
X223816667Y-96039095D01*
X223816667Y-96039095D02*
X223792857Y-96062904D01*
X223792857Y-96062904D02*
X223745238Y-96086714D01*
X223745238Y-96086714D02*
X223554762Y-96086714D01*
X223983334Y-95824809D02*
X224150000Y-96324809D01*
X224150000Y-96324809D02*
X224316667Y-95824809D01*
X224745238Y-96324809D02*
X224459524Y-96324809D01*
X224602381Y-96324809D02*
X224602381Y-95824809D01*
X224602381Y-95824809D02*
X224554762Y-95896238D01*
X224554762Y-95896238D02*
X224507143Y-95943857D01*
X224507143Y-95943857D02*
X224459524Y-95967666D01*
X224840476Y-96372428D02*
X225221428Y-96372428D01*
X225340475Y-96324809D02*
X225340475Y-95824809D01*
X225340475Y-95824809D02*
X225530951Y-95824809D01*
X225530951Y-95824809D02*
X225578570Y-95848619D01*
X225578570Y-95848619D02*
X225602380Y-95872428D01*
X225602380Y-95872428D02*
X225626189Y-95920047D01*
X225626189Y-95920047D02*
X225626189Y-95991476D01*
X225626189Y-95991476D02*
X225602380Y-96039095D01*
X225602380Y-96039095D02*
X225578570Y-96062904D01*
X225578570Y-96062904D02*
X225530951Y-96086714D01*
X225530951Y-96086714D02*
X225340475Y-96086714D01*
X225792856Y-95824809D02*
X225911904Y-96324809D01*
X225911904Y-96324809D02*
X226007142Y-95967666D01*
X226007142Y-95967666D02*
X226102380Y-96324809D01*
X226102380Y-96324809D02*
X226221428Y-95824809D01*
X226411904Y-96324809D02*
X226411904Y-95824809D01*
X226411904Y-95824809D02*
X226578571Y-96181952D01*
X226578571Y-96181952D02*
X226745237Y-95824809D01*
X226745237Y-95824809D02*
X226745237Y-96324809D01*
X215878571Y-116324809D02*
X215711905Y-116086714D01*
X215592857Y-116324809D02*
X215592857Y-115824809D01*
X215592857Y-115824809D02*
X215783333Y-115824809D01*
X215783333Y-115824809D02*
X215830952Y-115848619D01*
X215830952Y-115848619D02*
X215854762Y-115872428D01*
X215854762Y-115872428D02*
X215878571Y-115920047D01*
X215878571Y-115920047D02*
X215878571Y-115991476D01*
X215878571Y-115991476D02*
X215854762Y-116039095D01*
X215854762Y-116039095D02*
X215830952Y-116062904D01*
X215830952Y-116062904D02*
X215783333Y-116086714D01*
X215783333Y-116086714D02*
X215592857Y-116086714D01*
X216069048Y-115872428D02*
X216092857Y-115848619D01*
X216092857Y-115848619D02*
X216140476Y-115824809D01*
X216140476Y-115824809D02*
X216259524Y-115824809D01*
X216259524Y-115824809D02*
X216307143Y-115848619D01*
X216307143Y-115848619D02*
X216330952Y-115872428D01*
X216330952Y-115872428D02*
X216354762Y-115920047D01*
X216354762Y-115920047D02*
X216354762Y-115967666D01*
X216354762Y-115967666D02*
X216330952Y-116039095D01*
X216330952Y-116039095D02*
X216045238Y-116324809D01*
X216045238Y-116324809D02*
X216354762Y-116324809D01*
X216640476Y-116039095D02*
X216592857Y-116015285D01*
X216592857Y-116015285D02*
X216569047Y-115991476D01*
X216569047Y-115991476D02*
X216545238Y-115943857D01*
X216545238Y-115943857D02*
X216545238Y-115920047D01*
X216545238Y-115920047D02*
X216569047Y-115872428D01*
X216569047Y-115872428D02*
X216592857Y-115848619D01*
X216592857Y-115848619D02*
X216640476Y-115824809D01*
X216640476Y-115824809D02*
X216735714Y-115824809D01*
X216735714Y-115824809D02*
X216783333Y-115848619D01*
X216783333Y-115848619D02*
X216807142Y-115872428D01*
X216807142Y-115872428D02*
X216830952Y-115920047D01*
X216830952Y-115920047D02*
X216830952Y-115943857D01*
X216830952Y-115943857D02*
X216807142Y-115991476D01*
X216807142Y-115991476D02*
X216783333Y-116015285D01*
X216783333Y-116015285D02*
X216735714Y-116039095D01*
X216735714Y-116039095D02*
X216640476Y-116039095D01*
X216640476Y-116039095D02*
X216592857Y-116062904D01*
X216592857Y-116062904D02*
X216569047Y-116086714D01*
X216569047Y-116086714D02*
X216545238Y-116134333D01*
X216545238Y-116134333D02*
X216545238Y-116229571D01*
X216545238Y-116229571D02*
X216569047Y-116277190D01*
X216569047Y-116277190D02*
X216592857Y-116301000D01*
X216592857Y-116301000D02*
X216640476Y-116324809D01*
X216640476Y-116324809D02*
X216735714Y-116324809D01*
X216735714Y-116324809D02*
X216783333Y-116301000D01*
X216783333Y-116301000D02*
X216807142Y-116277190D01*
X216807142Y-116277190D02*
X216830952Y-116229571D01*
X216830952Y-116229571D02*
X216830952Y-116134333D01*
X216830952Y-116134333D02*
X216807142Y-116086714D01*
X216807142Y-116086714D02*
X216783333Y-116062904D01*
X216783333Y-116062904D02*
X216735714Y-116039095D01*
X226178571Y-108924809D02*
X226011905Y-108686714D01*
X225892857Y-108924809D02*
X225892857Y-108424809D01*
X225892857Y-108424809D02*
X226083333Y-108424809D01*
X226083333Y-108424809D02*
X226130952Y-108448619D01*
X226130952Y-108448619D02*
X226154762Y-108472428D01*
X226154762Y-108472428D02*
X226178571Y-108520047D01*
X226178571Y-108520047D02*
X226178571Y-108591476D01*
X226178571Y-108591476D02*
X226154762Y-108639095D01*
X226154762Y-108639095D02*
X226130952Y-108662904D01*
X226130952Y-108662904D02*
X226083333Y-108686714D01*
X226083333Y-108686714D02*
X225892857Y-108686714D01*
X226654762Y-108924809D02*
X226369048Y-108924809D01*
X226511905Y-108924809D02*
X226511905Y-108424809D01*
X226511905Y-108424809D02*
X226464286Y-108496238D01*
X226464286Y-108496238D02*
X226416667Y-108543857D01*
X226416667Y-108543857D02*
X226369048Y-108567666D01*
X226845238Y-108472428D02*
X226869047Y-108448619D01*
X226869047Y-108448619D02*
X226916666Y-108424809D01*
X226916666Y-108424809D02*
X227035714Y-108424809D01*
X227035714Y-108424809D02*
X227083333Y-108448619D01*
X227083333Y-108448619D02*
X227107142Y-108472428D01*
X227107142Y-108472428D02*
X227130952Y-108520047D01*
X227130952Y-108520047D02*
X227130952Y-108567666D01*
X227130952Y-108567666D02*
X227107142Y-108639095D01*
X227107142Y-108639095D02*
X226821428Y-108924809D01*
X226821428Y-108924809D02*
X227130952Y-108924809D01*
X208916666Y-113377190D02*
X208892857Y-113401000D01*
X208892857Y-113401000D02*
X208821428Y-113424809D01*
X208821428Y-113424809D02*
X208773809Y-113424809D01*
X208773809Y-113424809D02*
X208702381Y-113401000D01*
X208702381Y-113401000D02*
X208654762Y-113353380D01*
X208654762Y-113353380D02*
X208630952Y-113305761D01*
X208630952Y-113305761D02*
X208607143Y-113210523D01*
X208607143Y-113210523D02*
X208607143Y-113139095D01*
X208607143Y-113139095D02*
X208630952Y-113043857D01*
X208630952Y-113043857D02*
X208654762Y-112996238D01*
X208654762Y-112996238D02*
X208702381Y-112948619D01*
X208702381Y-112948619D02*
X208773809Y-112924809D01*
X208773809Y-112924809D02*
X208821428Y-112924809D01*
X208821428Y-112924809D02*
X208892857Y-112948619D01*
X208892857Y-112948619D02*
X208916666Y-112972428D01*
X209392857Y-113424809D02*
X209107143Y-113424809D01*
X209250000Y-113424809D02*
X209250000Y-112924809D01*
X209250000Y-112924809D02*
X209202381Y-112996238D01*
X209202381Y-112996238D02*
X209154762Y-113043857D01*
X209154762Y-113043857D02*
X209107143Y-113067666D01*
X207516666Y-98977190D02*
X207492857Y-99001000D01*
X207492857Y-99001000D02*
X207421428Y-99024809D01*
X207421428Y-99024809D02*
X207373809Y-99024809D01*
X207373809Y-99024809D02*
X207302381Y-99001000D01*
X207302381Y-99001000D02*
X207254762Y-98953380D01*
X207254762Y-98953380D02*
X207230952Y-98905761D01*
X207230952Y-98905761D02*
X207207143Y-98810523D01*
X207207143Y-98810523D02*
X207207143Y-98739095D01*
X207207143Y-98739095D02*
X207230952Y-98643857D01*
X207230952Y-98643857D02*
X207254762Y-98596238D01*
X207254762Y-98596238D02*
X207302381Y-98548619D01*
X207302381Y-98548619D02*
X207373809Y-98524809D01*
X207373809Y-98524809D02*
X207421428Y-98524809D01*
X207421428Y-98524809D02*
X207492857Y-98548619D01*
X207492857Y-98548619D02*
X207516666Y-98572428D01*
X207802381Y-98739095D02*
X207754762Y-98715285D01*
X207754762Y-98715285D02*
X207730952Y-98691476D01*
X207730952Y-98691476D02*
X207707143Y-98643857D01*
X207707143Y-98643857D02*
X207707143Y-98620047D01*
X207707143Y-98620047D02*
X207730952Y-98572428D01*
X207730952Y-98572428D02*
X207754762Y-98548619D01*
X207754762Y-98548619D02*
X207802381Y-98524809D01*
X207802381Y-98524809D02*
X207897619Y-98524809D01*
X207897619Y-98524809D02*
X207945238Y-98548619D01*
X207945238Y-98548619D02*
X207969047Y-98572428D01*
X207969047Y-98572428D02*
X207992857Y-98620047D01*
X207992857Y-98620047D02*
X207992857Y-98643857D01*
X207992857Y-98643857D02*
X207969047Y-98691476D01*
X207969047Y-98691476D02*
X207945238Y-98715285D01*
X207945238Y-98715285D02*
X207897619Y-98739095D01*
X207897619Y-98739095D02*
X207802381Y-98739095D01*
X207802381Y-98739095D02*
X207754762Y-98762904D01*
X207754762Y-98762904D02*
X207730952Y-98786714D01*
X207730952Y-98786714D02*
X207707143Y-98834333D01*
X207707143Y-98834333D02*
X207707143Y-98929571D01*
X207707143Y-98929571D02*
X207730952Y-98977190D01*
X207730952Y-98977190D02*
X207754762Y-99001000D01*
X207754762Y-99001000D02*
X207802381Y-99024809D01*
X207802381Y-99024809D02*
X207897619Y-99024809D01*
X207897619Y-99024809D02*
X207945238Y-99001000D01*
X207945238Y-99001000D02*
X207969047Y-98977190D01*
X207969047Y-98977190D02*
X207992857Y-98929571D01*
X207992857Y-98929571D02*
X207992857Y-98834333D01*
X207992857Y-98834333D02*
X207969047Y-98786714D01*
X207969047Y-98786714D02*
X207945238Y-98762904D01*
X207945238Y-98762904D02*
X207897619Y-98739095D01*
X195916666Y-95077190D02*
X195892857Y-95101000D01*
X195892857Y-95101000D02*
X195821428Y-95124809D01*
X195821428Y-95124809D02*
X195773809Y-95124809D01*
X195773809Y-95124809D02*
X195702381Y-95101000D01*
X195702381Y-95101000D02*
X195654762Y-95053380D01*
X195654762Y-95053380D02*
X195630952Y-95005761D01*
X195630952Y-95005761D02*
X195607143Y-94910523D01*
X195607143Y-94910523D02*
X195607143Y-94839095D01*
X195607143Y-94839095D02*
X195630952Y-94743857D01*
X195630952Y-94743857D02*
X195654762Y-94696238D01*
X195654762Y-94696238D02*
X195702381Y-94648619D01*
X195702381Y-94648619D02*
X195773809Y-94624809D01*
X195773809Y-94624809D02*
X195821428Y-94624809D01*
X195821428Y-94624809D02*
X195892857Y-94648619D01*
X195892857Y-94648619D02*
X195916666Y-94672428D01*
X196107143Y-94672428D02*
X196130952Y-94648619D01*
X196130952Y-94648619D02*
X196178571Y-94624809D01*
X196178571Y-94624809D02*
X196297619Y-94624809D01*
X196297619Y-94624809D02*
X196345238Y-94648619D01*
X196345238Y-94648619D02*
X196369047Y-94672428D01*
X196369047Y-94672428D02*
X196392857Y-94720047D01*
X196392857Y-94720047D02*
X196392857Y-94767666D01*
X196392857Y-94767666D02*
X196369047Y-94839095D01*
X196369047Y-94839095D02*
X196083333Y-95124809D01*
X196083333Y-95124809D02*
X196392857Y-95124809D01*
X203778571Y-101824809D02*
X203611905Y-101586714D01*
X203492857Y-101824809D02*
X203492857Y-101324809D01*
X203492857Y-101324809D02*
X203683333Y-101324809D01*
X203683333Y-101324809D02*
X203730952Y-101348619D01*
X203730952Y-101348619D02*
X203754762Y-101372428D01*
X203754762Y-101372428D02*
X203778571Y-101420047D01*
X203778571Y-101420047D02*
X203778571Y-101491476D01*
X203778571Y-101491476D02*
X203754762Y-101539095D01*
X203754762Y-101539095D02*
X203730952Y-101562904D01*
X203730952Y-101562904D02*
X203683333Y-101586714D01*
X203683333Y-101586714D02*
X203492857Y-101586714D01*
X204254762Y-101824809D02*
X203969048Y-101824809D01*
X204111905Y-101824809D02*
X204111905Y-101324809D01*
X204111905Y-101324809D02*
X204064286Y-101396238D01*
X204064286Y-101396238D02*
X204016667Y-101443857D01*
X204016667Y-101443857D02*
X203969048Y-101467666D01*
X204421428Y-101324809D02*
X204730952Y-101324809D01*
X204730952Y-101324809D02*
X204564285Y-101515285D01*
X204564285Y-101515285D02*
X204635714Y-101515285D01*
X204635714Y-101515285D02*
X204683333Y-101539095D01*
X204683333Y-101539095D02*
X204707142Y-101562904D01*
X204707142Y-101562904D02*
X204730952Y-101610523D01*
X204730952Y-101610523D02*
X204730952Y-101729571D01*
X204730952Y-101729571D02*
X204707142Y-101777190D01*
X204707142Y-101777190D02*
X204683333Y-101801000D01*
X204683333Y-101801000D02*
X204635714Y-101824809D01*
X204635714Y-101824809D02*
X204492857Y-101824809D01*
X204492857Y-101824809D02*
X204445238Y-101801000D01*
X204445238Y-101801000D02*
X204421428Y-101777190D01*
X230733333Y-100769809D02*
X230733333Y-101126952D01*
X230733333Y-101126952D02*
X230709524Y-101198380D01*
X230709524Y-101198380D02*
X230661905Y-101246000D01*
X230661905Y-101246000D02*
X230590476Y-101269809D01*
X230590476Y-101269809D02*
X230542857Y-101269809D01*
X231233333Y-101269809D02*
X230947619Y-101269809D01*
X231090476Y-101269809D02*
X231090476Y-100769809D01*
X231090476Y-100769809D02*
X231042857Y-100841238D01*
X231042857Y-100841238D02*
X230995238Y-100888857D01*
X230995238Y-100888857D02*
X230947619Y-100912666D01*
X218678571Y-94224809D02*
X218511905Y-93986714D01*
X218392857Y-94224809D02*
X218392857Y-93724809D01*
X218392857Y-93724809D02*
X218583333Y-93724809D01*
X218583333Y-93724809D02*
X218630952Y-93748619D01*
X218630952Y-93748619D02*
X218654762Y-93772428D01*
X218654762Y-93772428D02*
X218678571Y-93820047D01*
X218678571Y-93820047D02*
X218678571Y-93891476D01*
X218678571Y-93891476D02*
X218654762Y-93939095D01*
X218654762Y-93939095D02*
X218630952Y-93962904D01*
X218630952Y-93962904D02*
X218583333Y-93986714D01*
X218583333Y-93986714D02*
X218392857Y-93986714D01*
X218845238Y-93724809D02*
X219154762Y-93724809D01*
X219154762Y-93724809D02*
X218988095Y-93915285D01*
X218988095Y-93915285D02*
X219059524Y-93915285D01*
X219059524Y-93915285D02*
X219107143Y-93939095D01*
X219107143Y-93939095D02*
X219130952Y-93962904D01*
X219130952Y-93962904D02*
X219154762Y-94010523D01*
X219154762Y-94010523D02*
X219154762Y-94129571D01*
X219154762Y-94129571D02*
X219130952Y-94177190D01*
X219130952Y-94177190D02*
X219107143Y-94201000D01*
X219107143Y-94201000D02*
X219059524Y-94224809D01*
X219059524Y-94224809D02*
X218916667Y-94224809D01*
X218916667Y-94224809D02*
X218869048Y-94201000D01*
X218869048Y-94201000D02*
X218845238Y-94177190D01*
X219630952Y-94224809D02*
X219345238Y-94224809D01*
X219488095Y-94224809D02*
X219488095Y-93724809D01*
X219488095Y-93724809D02*
X219440476Y-93796238D01*
X219440476Y-93796238D02*
X219392857Y-93843857D01*
X219392857Y-93843857D02*
X219345238Y-93867666D01*
D10*
X214333333Y-98226109D02*
X214200000Y-97988014D01*
X214104762Y-98226109D02*
X214104762Y-97726109D01*
X214104762Y-97726109D02*
X214257143Y-97726109D01*
X214257143Y-97726109D02*
X214295238Y-97749919D01*
X214295238Y-97749919D02*
X214314285Y-97773728D01*
X214314285Y-97773728D02*
X214333333Y-97821347D01*
X214333333Y-97821347D02*
X214333333Y-97892776D01*
X214333333Y-97892776D02*
X214314285Y-97940395D01*
X214314285Y-97940395D02*
X214295238Y-97964204D01*
X214295238Y-97964204D02*
X214257143Y-97988014D01*
X214257143Y-97988014D02*
X214104762Y-97988014D01*
X214523809Y-98226109D02*
X214600000Y-98226109D01*
X214600000Y-98226109D02*
X214638095Y-98202300D01*
X214638095Y-98202300D02*
X214657143Y-98178490D01*
X214657143Y-98178490D02*
X214695238Y-98107061D01*
X214695238Y-98107061D02*
X214714285Y-98011823D01*
X214714285Y-98011823D02*
X214714285Y-97821347D01*
X214714285Y-97821347D02*
X214695238Y-97773728D01*
X214695238Y-97773728D02*
X214676190Y-97749919D01*
X214676190Y-97749919D02*
X214638095Y-97726109D01*
X214638095Y-97726109D02*
X214561904Y-97726109D01*
X214561904Y-97726109D02*
X214523809Y-97749919D01*
X214523809Y-97749919D02*
X214504762Y-97773728D01*
X214504762Y-97773728D02*
X214485714Y-97821347D01*
X214485714Y-97821347D02*
X214485714Y-97940395D01*
X214485714Y-97940395D02*
X214504762Y-97988014D01*
X214504762Y-97988014D02*
X214523809Y-98011823D01*
X214523809Y-98011823D02*
X214561904Y-98035633D01*
X214561904Y-98035633D02*
X214638095Y-98035633D01*
X214638095Y-98035633D02*
X214676190Y-98011823D01*
X214676190Y-98011823D02*
X214695238Y-97988014D01*
X214695238Y-97988014D02*
X214714285Y-97940395D01*
D11*
X214678571Y-95724809D02*
X214511905Y-95486714D01*
X214392857Y-95724809D02*
X214392857Y-95224809D01*
X214392857Y-95224809D02*
X214583333Y-95224809D01*
X214583333Y-95224809D02*
X214630952Y-95248619D01*
X214630952Y-95248619D02*
X214654762Y-95272428D01*
X214654762Y-95272428D02*
X214678571Y-95320047D01*
X214678571Y-95320047D02*
X214678571Y-95391476D01*
X214678571Y-95391476D02*
X214654762Y-95439095D01*
X214654762Y-95439095D02*
X214630952Y-95462904D01*
X214630952Y-95462904D02*
X214583333Y-95486714D01*
X214583333Y-95486714D02*
X214392857Y-95486714D01*
X215154762Y-95724809D02*
X214869048Y-95724809D01*
X215011905Y-95724809D02*
X215011905Y-95224809D01*
X215011905Y-95224809D02*
X214964286Y-95296238D01*
X214964286Y-95296238D02*
X214916667Y-95343857D01*
X214916667Y-95343857D02*
X214869048Y-95367666D01*
X215583333Y-95391476D02*
X215583333Y-95724809D01*
X215464285Y-95201000D02*
X215345238Y-95558142D01*
X215345238Y-95558142D02*
X215654761Y-95558142D01*
D10*
X220578571Y-104741752D02*
X220554762Y-104760800D01*
X220554762Y-104760800D02*
X220483333Y-104779847D01*
X220483333Y-104779847D02*
X220435714Y-104779847D01*
X220435714Y-104779847D02*
X220364286Y-104760800D01*
X220364286Y-104760800D02*
X220316667Y-104722704D01*
X220316667Y-104722704D02*
X220292857Y-104684609D01*
X220292857Y-104684609D02*
X220269048Y-104608419D01*
X220269048Y-104608419D02*
X220269048Y-104551276D01*
X220269048Y-104551276D02*
X220292857Y-104475085D01*
X220292857Y-104475085D02*
X220316667Y-104436990D01*
X220316667Y-104436990D02*
X220364286Y-104398895D01*
X220364286Y-104398895D02*
X220435714Y-104379847D01*
X220435714Y-104379847D02*
X220483333Y-104379847D01*
X220483333Y-104379847D02*
X220554762Y-104398895D01*
X220554762Y-104398895D02*
X220578571Y-104417942D01*
X221054762Y-104779847D02*
X220769048Y-104779847D01*
X220911905Y-104779847D02*
X220911905Y-104379847D01*
X220911905Y-104379847D02*
X220864286Y-104436990D01*
X220864286Y-104436990D02*
X220816667Y-104475085D01*
X220816667Y-104475085D02*
X220769048Y-104494133D01*
X221364285Y-104379847D02*
X221411904Y-104379847D01*
X221411904Y-104379847D02*
X221459523Y-104398895D01*
X221459523Y-104398895D02*
X221483333Y-104417942D01*
X221483333Y-104417942D02*
X221507142Y-104456038D01*
X221507142Y-104456038D02*
X221530952Y-104532228D01*
X221530952Y-104532228D02*
X221530952Y-104627466D01*
X221530952Y-104627466D02*
X221507142Y-104703657D01*
X221507142Y-104703657D02*
X221483333Y-104741752D01*
X221483333Y-104741752D02*
X221459523Y-104760800D01*
X221459523Y-104760800D02*
X221411904Y-104779847D01*
X221411904Y-104779847D02*
X221364285Y-104779847D01*
X221364285Y-104779847D02*
X221316666Y-104760800D01*
X221316666Y-104760800D02*
X221292857Y-104741752D01*
X221292857Y-104741752D02*
X221269047Y-104703657D01*
X221269047Y-104703657D02*
X221245238Y-104627466D01*
X221245238Y-104627466D02*
X221245238Y-104532228D01*
X221245238Y-104532228D02*
X221269047Y-104456038D01*
X221269047Y-104456038D02*
X221292857Y-104417942D01*
X221292857Y-104417942D02*
X221316666Y-104398895D01*
X221316666Y-104398895D02*
X221364285Y-104379847D01*
D11*
X199219047Y-91124809D02*
X199219047Y-91529571D01*
X199219047Y-91529571D02*
X199242857Y-91577190D01*
X199242857Y-91577190D02*
X199266666Y-91601000D01*
X199266666Y-91601000D02*
X199314285Y-91624809D01*
X199314285Y-91624809D02*
X199409523Y-91624809D01*
X199409523Y-91624809D02*
X199457142Y-91601000D01*
X199457142Y-91601000D02*
X199480952Y-91577190D01*
X199480952Y-91577190D02*
X199504761Y-91529571D01*
X199504761Y-91529571D02*
X199504761Y-91124809D01*
X199719048Y-91172428D02*
X199742857Y-91148619D01*
X199742857Y-91148619D02*
X199790476Y-91124809D01*
X199790476Y-91124809D02*
X199909524Y-91124809D01*
X199909524Y-91124809D02*
X199957143Y-91148619D01*
X199957143Y-91148619D02*
X199980952Y-91172428D01*
X199980952Y-91172428D02*
X200004762Y-91220047D01*
X200004762Y-91220047D02*
X200004762Y-91267666D01*
X200004762Y-91267666D02*
X199980952Y-91339095D01*
X199980952Y-91339095D02*
X199695238Y-91624809D01*
X199695238Y-91624809D02*
X200004762Y-91624809D01*
D10*
X212179847Y-93221428D02*
X211989371Y-93388094D01*
X212179847Y-93507142D02*
X211779847Y-93507142D01*
X211779847Y-93507142D02*
X211779847Y-93316666D01*
X211779847Y-93316666D02*
X211798895Y-93269047D01*
X211798895Y-93269047D02*
X211817942Y-93245237D01*
X211817942Y-93245237D02*
X211856038Y-93221428D01*
X211856038Y-93221428D02*
X211913180Y-93221428D01*
X211913180Y-93221428D02*
X211951276Y-93245237D01*
X211951276Y-93245237D02*
X211970323Y-93269047D01*
X211970323Y-93269047D02*
X211989371Y-93316666D01*
X211989371Y-93316666D02*
X211989371Y-93507142D01*
X212179847Y-92745237D02*
X212179847Y-93030951D01*
X212179847Y-92888094D02*
X211779847Y-92888094D01*
X211779847Y-92888094D02*
X211836990Y-92935713D01*
X211836990Y-92935713D02*
X211875085Y-92983332D01*
X211875085Y-92983332D02*
X211894133Y-93030951D01*
X211779847Y-92578571D02*
X211779847Y-92245238D01*
X211779847Y-92245238D02*
X212179847Y-92459523D01*
D11*
X204716666Y-113577190D02*
X204692857Y-113601000D01*
X204692857Y-113601000D02*
X204621428Y-113624809D01*
X204621428Y-113624809D02*
X204573809Y-113624809D01*
X204573809Y-113624809D02*
X204502381Y-113601000D01*
X204502381Y-113601000D02*
X204454762Y-113553380D01*
X204454762Y-113553380D02*
X204430952Y-113505761D01*
X204430952Y-113505761D02*
X204407143Y-113410523D01*
X204407143Y-113410523D02*
X204407143Y-113339095D01*
X204407143Y-113339095D02*
X204430952Y-113243857D01*
X204430952Y-113243857D02*
X204454762Y-113196238D01*
X204454762Y-113196238D02*
X204502381Y-113148619D01*
X204502381Y-113148619D02*
X204573809Y-113124809D01*
X204573809Y-113124809D02*
X204621428Y-113124809D01*
X204621428Y-113124809D02*
X204692857Y-113148619D01*
X204692857Y-113148619D02*
X204716666Y-113172428D01*
X205169047Y-113124809D02*
X204930952Y-113124809D01*
X204930952Y-113124809D02*
X204907143Y-113362904D01*
X204907143Y-113362904D02*
X204930952Y-113339095D01*
X204930952Y-113339095D02*
X204978571Y-113315285D01*
X204978571Y-113315285D02*
X205097619Y-113315285D01*
X205097619Y-113315285D02*
X205145238Y-113339095D01*
X205145238Y-113339095D02*
X205169047Y-113362904D01*
X205169047Y-113362904D02*
X205192857Y-113410523D01*
X205192857Y-113410523D02*
X205192857Y-113529571D01*
X205192857Y-113529571D02*
X205169047Y-113577190D01*
X205169047Y-113577190D02*
X205145238Y-113601000D01*
X205145238Y-113601000D02*
X205097619Y-113624809D01*
X205097619Y-113624809D02*
X204978571Y-113624809D01*
X204978571Y-113624809D02*
X204930952Y-113601000D01*
X204930952Y-113601000D02*
X204907143Y-113577190D01*
D10*
X198878571Y-104879847D02*
X198711905Y-104689371D01*
X198592857Y-104879847D02*
X198592857Y-104479847D01*
X198592857Y-104479847D02*
X198783333Y-104479847D01*
X198783333Y-104479847D02*
X198830952Y-104498895D01*
X198830952Y-104498895D02*
X198854762Y-104517942D01*
X198854762Y-104517942D02*
X198878571Y-104556038D01*
X198878571Y-104556038D02*
X198878571Y-104613180D01*
X198878571Y-104613180D02*
X198854762Y-104651276D01*
X198854762Y-104651276D02*
X198830952Y-104670323D01*
X198830952Y-104670323D02*
X198783333Y-104689371D01*
X198783333Y-104689371D02*
X198592857Y-104689371D01*
X199354762Y-104879847D02*
X199069048Y-104879847D01*
X199211905Y-104879847D02*
X199211905Y-104479847D01*
X199211905Y-104479847D02*
X199164286Y-104536990D01*
X199164286Y-104536990D02*
X199116667Y-104575085D01*
X199116667Y-104575085D02*
X199069048Y-104594133D01*
X199592857Y-104879847D02*
X199688095Y-104879847D01*
X199688095Y-104879847D02*
X199735714Y-104860800D01*
X199735714Y-104860800D02*
X199759523Y-104841752D01*
X199759523Y-104841752D02*
X199807142Y-104784609D01*
X199807142Y-104784609D02*
X199830952Y-104708419D01*
X199830952Y-104708419D02*
X199830952Y-104556038D01*
X199830952Y-104556038D02*
X199807142Y-104517942D01*
X199807142Y-104517942D02*
X199783333Y-104498895D01*
X199783333Y-104498895D02*
X199735714Y-104479847D01*
X199735714Y-104479847D02*
X199640476Y-104479847D01*
X199640476Y-104479847D02*
X199592857Y-104498895D01*
X199592857Y-104498895D02*
X199569047Y-104517942D01*
X199569047Y-104517942D02*
X199545238Y-104556038D01*
X199545238Y-104556038D02*
X199545238Y-104651276D01*
X199545238Y-104651276D02*
X199569047Y-104689371D01*
X199569047Y-104689371D02*
X199592857Y-104708419D01*
X199592857Y-104708419D02*
X199640476Y-104727466D01*
X199640476Y-104727466D02*
X199735714Y-104727466D01*
X199735714Y-104727466D02*
X199783333Y-104708419D01*
X199783333Y-104708419D02*
X199807142Y-104689371D01*
X199807142Y-104689371D02*
X199830952Y-104651276D01*
D11*
X219978571Y-106777190D02*
X219954762Y-106801000D01*
X219954762Y-106801000D02*
X219883333Y-106824809D01*
X219883333Y-106824809D02*
X219835714Y-106824809D01*
X219835714Y-106824809D02*
X219764286Y-106801000D01*
X219764286Y-106801000D02*
X219716667Y-106753380D01*
X219716667Y-106753380D02*
X219692857Y-106705761D01*
X219692857Y-106705761D02*
X219669048Y-106610523D01*
X219669048Y-106610523D02*
X219669048Y-106539095D01*
X219669048Y-106539095D02*
X219692857Y-106443857D01*
X219692857Y-106443857D02*
X219716667Y-106396238D01*
X219716667Y-106396238D02*
X219764286Y-106348619D01*
X219764286Y-106348619D02*
X219835714Y-106324809D01*
X219835714Y-106324809D02*
X219883333Y-106324809D01*
X219883333Y-106324809D02*
X219954762Y-106348619D01*
X219954762Y-106348619D02*
X219978571Y-106372428D01*
X220454762Y-106824809D02*
X220169048Y-106824809D01*
X220311905Y-106824809D02*
X220311905Y-106324809D01*
X220311905Y-106324809D02*
X220264286Y-106396238D01*
X220264286Y-106396238D02*
X220216667Y-106443857D01*
X220216667Y-106443857D02*
X220169048Y-106467666D01*
X220621428Y-106324809D02*
X220930952Y-106324809D01*
X220930952Y-106324809D02*
X220764285Y-106515285D01*
X220764285Y-106515285D02*
X220835714Y-106515285D01*
X220835714Y-106515285D02*
X220883333Y-106539095D01*
X220883333Y-106539095D02*
X220907142Y-106562904D01*
X220907142Y-106562904D02*
X220930952Y-106610523D01*
X220930952Y-106610523D02*
X220930952Y-106729571D01*
X220930952Y-106729571D02*
X220907142Y-106777190D01*
X220907142Y-106777190D02*
X220883333Y-106801000D01*
X220883333Y-106801000D02*
X220835714Y-106824809D01*
X220835714Y-106824809D02*
X220692857Y-106824809D01*
X220692857Y-106824809D02*
X220645238Y-106801000D01*
X220645238Y-106801000D02*
X220621428Y-106777190D01*
X203221428Y-99462904D02*
X203292856Y-99486714D01*
X203292856Y-99486714D02*
X203316666Y-99510523D01*
X203316666Y-99510523D02*
X203340475Y-99558142D01*
X203340475Y-99558142D02*
X203340475Y-99629571D01*
X203340475Y-99629571D02*
X203316666Y-99677190D01*
X203316666Y-99677190D02*
X203292856Y-99701000D01*
X203292856Y-99701000D02*
X203245237Y-99724809D01*
X203245237Y-99724809D02*
X203054761Y-99724809D01*
X203054761Y-99724809D02*
X203054761Y-99224809D01*
X203054761Y-99224809D02*
X203221428Y-99224809D01*
X203221428Y-99224809D02*
X203269047Y-99248619D01*
X203269047Y-99248619D02*
X203292856Y-99272428D01*
X203292856Y-99272428D02*
X203316666Y-99320047D01*
X203316666Y-99320047D02*
X203316666Y-99367666D01*
X203316666Y-99367666D02*
X203292856Y-99415285D01*
X203292856Y-99415285D02*
X203269047Y-99439095D01*
X203269047Y-99439095D02*
X203221428Y-99462904D01*
X203221428Y-99462904D02*
X203054761Y-99462904D01*
X203792856Y-99724809D02*
X203554761Y-99724809D01*
X203554761Y-99724809D02*
X203554761Y-99224809D01*
X203959523Y-99724809D02*
X203959523Y-99224809D01*
X203959523Y-99224809D02*
X204078571Y-99224809D01*
X204078571Y-99224809D02*
X204149999Y-99248619D01*
X204149999Y-99248619D02*
X204197618Y-99296238D01*
X204197618Y-99296238D02*
X204221428Y-99343857D01*
X204221428Y-99343857D02*
X204245237Y-99439095D01*
X204245237Y-99439095D02*
X204245237Y-99510523D01*
X204245237Y-99510523D02*
X204221428Y-99605761D01*
X204221428Y-99605761D02*
X204197618Y-99653380D01*
X204197618Y-99653380D02*
X204149999Y-99701000D01*
X204149999Y-99701000D02*
X204078571Y-99724809D01*
X204078571Y-99724809D02*
X203959523Y-99724809D01*
X204745237Y-99677190D02*
X204721428Y-99701000D01*
X204721428Y-99701000D02*
X204649999Y-99724809D01*
X204649999Y-99724809D02*
X204602380Y-99724809D01*
X204602380Y-99724809D02*
X204530952Y-99701000D01*
X204530952Y-99701000D02*
X204483333Y-99653380D01*
X204483333Y-99653380D02*
X204459523Y-99605761D01*
X204459523Y-99605761D02*
X204435714Y-99510523D01*
X204435714Y-99510523D02*
X204435714Y-99439095D01*
X204435714Y-99439095D02*
X204459523Y-99343857D01*
X204459523Y-99343857D02*
X204483333Y-99296238D01*
X204483333Y-99296238D02*
X204530952Y-99248619D01*
X204530952Y-99248619D02*
X204602380Y-99224809D01*
X204602380Y-99224809D02*
X204649999Y-99224809D01*
X204649999Y-99224809D02*
X204721428Y-99248619D01*
X204721428Y-99248619D02*
X204745237Y-99272428D01*
X204840476Y-99772428D02*
X205221428Y-99772428D01*
X205340475Y-99724809D02*
X205340475Y-99224809D01*
X205340475Y-99224809D02*
X205530951Y-99224809D01*
X205530951Y-99224809D02*
X205578570Y-99248619D01*
X205578570Y-99248619D02*
X205602380Y-99272428D01*
X205602380Y-99272428D02*
X205626189Y-99320047D01*
X205626189Y-99320047D02*
X205626189Y-99391476D01*
X205626189Y-99391476D02*
X205602380Y-99439095D01*
X205602380Y-99439095D02*
X205578570Y-99462904D01*
X205578570Y-99462904D02*
X205530951Y-99486714D01*
X205530951Y-99486714D02*
X205340475Y-99486714D01*
X205792856Y-99224809D02*
X205911904Y-99724809D01*
X205911904Y-99724809D02*
X206007142Y-99367666D01*
X206007142Y-99367666D02*
X206102380Y-99724809D01*
X206102380Y-99724809D02*
X206221428Y-99224809D01*
X206411904Y-99724809D02*
X206411904Y-99224809D01*
X206411904Y-99224809D02*
X206578571Y-99581952D01*
X206578571Y-99581952D02*
X206745237Y-99224809D01*
X206745237Y-99224809D02*
X206745237Y-99724809D01*
X213378571Y-91824809D02*
X213211905Y-91586714D01*
X213092857Y-91824809D02*
X213092857Y-91324809D01*
X213092857Y-91324809D02*
X213283333Y-91324809D01*
X213283333Y-91324809D02*
X213330952Y-91348619D01*
X213330952Y-91348619D02*
X213354762Y-91372428D01*
X213354762Y-91372428D02*
X213378571Y-91420047D01*
X213378571Y-91420047D02*
X213378571Y-91491476D01*
X213378571Y-91491476D02*
X213354762Y-91539095D01*
X213354762Y-91539095D02*
X213330952Y-91562904D01*
X213330952Y-91562904D02*
X213283333Y-91586714D01*
X213283333Y-91586714D02*
X213092857Y-91586714D01*
X213569048Y-91372428D02*
X213592857Y-91348619D01*
X213592857Y-91348619D02*
X213640476Y-91324809D01*
X213640476Y-91324809D02*
X213759524Y-91324809D01*
X213759524Y-91324809D02*
X213807143Y-91348619D01*
X213807143Y-91348619D02*
X213830952Y-91372428D01*
X213830952Y-91372428D02*
X213854762Y-91420047D01*
X213854762Y-91420047D02*
X213854762Y-91467666D01*
X213854762Y-91467666D02*
X213830952Y-91539095D01*
X213830952Y-91539095D02*
X213545238Y-91824809D01*
X213545238Y-91824809D02*
X213854762Y-91824809D01*
X214021428Y-91324809D02*
X214330952Y-91324809D01*
X214330952Y-91324809D02*
X214164285Y-91515285D01*
X214164285Y-91515285D02*
X214235714Y-91515285D01*
X214235714Y-91515285D02*
X214283333Y-91539095D01*
X214283333Y-91539095D02*
X214307142Y-91562904D01*
X214307142Y-91562904D02*
X214330952Y-91610523D01*
X214330952Y-91610523D02*
X214330952Y-91729571D01*
X214330952Y-91729571D02*
X214307142Y-91777190D01*
X214307142Y-91777190D02*
X214283333Y-91801000D01*
X214283333Y-91801000D02*
X214235714Y-91824809D01*
X214235714Y-91824809D02*
X214092857Y-91824809D01*
X214092857Y-91824809D02*
X214045238Y-91801000D01*
X214045238Y-91801000D02*
X214021428Y-91777190D01*
X226016666Y-105724809D02*
X225850000Y-105486714D01*
X225730952Y-105724809D02*
X225730952Y-105224809D01*
X225730952Y-105224809D02*
X225921428Y-105224809D01*
X225921428Y-105224809D02*
X225969047Y-105248619D01*
X225969047Y-105248619D02*
X225992857Y-105272428D01*
X225992857Y-105272428D02*
X226016666Y-105320047D01*
X226016666Y-105320047D02*
X226016666Y-105391476D01*
X226016666Y-105391476D02*
X225992857Y-105439095D01*
X225992857Y-105439095D02*
X225969047Y-105462904D01*
X225969047Y-105462904D02*
X225921428Y-105486714D01*
X225921428Y-105486714D02*
X225730952Y-105486714D01*
X226492857Y-105724809D02*
X226207143Y-105724809D01*
X226350000Y-105724809D02*
X226350000Y-105224809D01*
X226350000Y-105224809D02*
X226302381Y-105296238D01*
X226302381Y-105296238D02*
X226254762Y-105343857D01*
X226254762Y-105343857D02*
X226207143Y-105367666D01*
X222016666Y-101477190D02*
X221992857Y-101501000D01*
X221992857Y-101501000D02*
X221921428Y-101524809D01*
X221921428Y-101524809D02*
X221873809Y-101524809D01*
X221873809Y-101524809D02*
X221802381Y-101501000D01*
X221802381Y-101501000D02*
X221754762Y-101453380D01*
X221754762Y-101453380D02*
X221730952Y-101405761D01*
X221730952Y-101405761D02*
X221707143Y-101310523D01*
X221707143Y-101310523D02*
X221707143Y-101239095D01*
X221707143Y-101239095D02*
X221730952Y-101143857D01*
X221730952Y-101143857D02*
X221754762Y-101096238D01*
X221754762Y-101096238D02*
X221802381Y-101048619D01*
X221802381Y-101048619D02*
X221873809Y-101024809D01*
X221873809Y-101024809D02*
X221921428Y-101024809D01*
X221921428Y-101024809D02*
X221992857Y-101048619D01*
X221992857Y-101048619D02*
X222016666Y-101072428D01*
X222254762Y-101524809D02*
X222350000Y-101524809D01*
X222350000Y-101524809D02*
X222397619Y-101501000D01*
X222397619Y-101501000D02*
X222421428Y-101477190D01*
X222421428Y-101477190D02*
X222469047Y-101405761D01*
X222469047Y-101405761D02*
X222492857Y-101310523D01*
X222492857Y-101310523D02*
X222492857Y-101120047D01*
X222492857Y-101120047D02*
X222469047Y-101072428D01*
X222469047Y-101072428D02*
X222445238Y-101048619D01*
X222445238Y-101048619D02*
X222397619Y-101024809D01*
X222397619Y-101024809D02*
X222302381Y-101024809D01*
X222302381Y-101024809D02*
X222254762Y-101048619D01*
X222254762Y-101048619D02*
X222230952Y-101072428D01*
X222230952Y-101072428D02*
X222207143Y-101120047D01*
X222207143Y-101120047D02*
X222207143Y-101239095D01*
X222207143Y-101239095D02*
X222230952Y-101286714D01*
X222230952Y-101286714D02*
X222254762Y-101310523D01*
X222254762Y-101310523D02*
X222302381Y-101334333D01*
X222302381Y-101334333D02*
X222397619Y-101334333D01*
X222397619Y-101334333D02*
X222445238Y-101310523D01*
X222445238Y-101310523D02*
X222469047Y-101286714D01*
X222469047Y-101286714D02*
X222492857Y-101239095D01*
X227126191Y-96274809D02*
X227126191Y-95774809D01*
X227126191Y-95774809D02*
X227245239Y-95774809D01*
X227245239Y-95774809D02*
X227316667Y-95798619D01*
X227316667Y-95798619D02*
X227364286Y-95846238D01*
X227364286Y-95846238D02*
X227388096Y-95893857D01*
X227388096Y-95893857D02*
X227411905Y-95989095D01*
X227411905Y-95989095D02*
X227411905Y-96060523D01*
X227411905Y-96060523D02*
X227388096Y-96155761D01*
X227388096Y-96155761D02*
X227364286Y-96203380D01*
X227364286Y-96203380D02*
X227316667Y-96251000D01*
X227316667Y-96251000D02*
X227245239Y-96274809D01*
X227245239Y-96274809D02*
X227126191Y-96274809D01*
X227911905Y-96274809D02*
X227745239Y-96036714D01*
X227626191Y-96274809D02*
X227626191Y-95774809D01*
X227626191Y-95774809D02*
X227816667Y-95774809D01*
X227816667Y-95774809D02*
X227864286Y-95798619D01*
X227864286Y-95798619D02*
X227888096Y-95822428D01*
X227888096Y-95822428D02*
X227911905Y-95870047D01*
X227911905Y-95870047D02*
X227911905Y-95941476D01*
X227911905Y-95941476D02*
X227888096Y-95989095D01*
X227888096Y-95989095D02*
X227864286Y-96012904D01*
X227864286Y-96012904D02*
X227816667Y-96036714D01*
X227816667Y-96036714D02*
X227626191Y-96036714D01*
X228054763Y-95774809D02*
X228221429Y-96274809D01*
X228221429Y-96274809D02*
X228388096Y-95774809D01*
X228530953Y-95822428D02*
X228554762Y-95798619D01*
X228554762Y-95798619D02*
X228602381Y-95774809D01*
X228602381Y-95774809D02*
X228721429Y-95774809D01*
X228721429Y-95774809D02*
X228769048Y-95798619D01*
X228769048Y-95798619D02*
X228792857Y-95822428D01*
X228792857Y-95822428D02*
X228816667Y-95870047D01*
X228816667Y-95870047D02*
X228816667Y-95917666D01*
X228816667Y-95917666D02*
X228792857Y-95989095D01*
X228792857Y-95989095D02*
X228507143Y-96274809D01*
X228507143Y-96274809D02*
X228816667Y-96274809D01*
X228911905Y-96322428D02*
X229292857Y-96322428D01*
X229578571Y-96012904D02*
X229649999Y-96036714D01*
X229649999Y-96036714D02*
X229673809Y-96060523D01*
X229673809Y-96060523D02*
X229697618Y-96108142D01*
X229697618Y-96108142D02*
X229697618Y-96179571D01*
X229697618Y-96179571D02*
X229673809Y-96227190D01*
X229673809Y-96227190D02*
X229649999Y-96251000D01*
X229649999Y-96251000D02*
X229602380Y-96274809D01*
X229602380Y-96274809D02*
X229411904Y-96274809D01*
X229411904Y-96274809D02*
X229411904Y-95774809D01*
X229411904Y-95774809D02*
X229578571Y-95774809D01*
X229578571Y-95774809D02*
X229626190Y-95798619D01*
X229626190Y-95798619D02*
X229649999Y-95822428D01*
X229649999Y-95822428D02*
X229673809Y-95870047D01*
X229673809Y-95870047D02*
X229673809Y-95917666D01*
X229673809Y-95917666D02*
X229649999Y-95965285D01*
X229649999Y-95965285D02*
X229626190Y-95989095D01*
X229626190Y-95989095D02*
X229578571Y-96012904D01*
X229578571Y-96012904D02*
X229411904Y-96012904D01*
X206316666Y-113477190D02*
X206292857Y-113501000D01*
X206292857Y-113501000D02*
X206221428Y-113524809D01*
X206221428Y-113524809D02*
X206173809Y-113524809D01*
X206173809Y-113524809D02*
X206102381Y-113501000D01*
X206102381Y-113501000D02*
X206054762Y-113453380D01*
X206054762Y-113453380D02*
X206030952Y-113405761D01*
X206030952Y-113405761D02*
X206007143Y-113310523D01*
X206007143Y-113310523D02*
X206007143Y-113239095D01*
X206007143Y-113239095D02*
X206030952Y-113143857D01*
X206030952Y-113143857D02*
X206054762Y-113096238D01*
X206054762Y-113096238D02*
X206102381Y-113048619D01*
X206102381Y-113048619D02*
X206173809Y-113024809D01*
X206173809Y-113024809D02*
X206221428Y-113024809D01*
X206221428Y-113024809D02*
X206292857Y-113048619D01*
X206292857Y-113048619D02*
X206316666Y-113072428D01*
X206745238Y-113191476D02*
X206745238Y-113524809D01*
X206626190Y-113001000D02*
X206507143Y-113358142D01*
X206507143Y-113358142D02*
X206816666Y-113358142D01*
X200978571Y-109924809D02*
X200811905Y-109686714D01*
X200692857Y-109924809D02*
X200692857Y-109424809D01*
X200692857Y-109424809D02*
X200883333Y-109424809D01*
X200883333Y-109424809D02*
X200930952Y-109448619D01*
X200930952Y-109448619D02*
X200954762Y-109472428D01*
X200954762Y-109472428D02*
X200978571Y-109520047D01*
X200978571Y-109520047D02*
X200978571Y-109591476D01*
X200978571Y-109591476D02*
X200954762Y-109639095D01*
X200954762Y-109639095D02*
X200930952Y-109662904D01*
X200930952Y-109662904D02*
X200883333Y-109686714D01*
X200883333Y-109686714D02*
X200692857Y-109686714D01*
X201454762Y-109924809D02*
X201169048Y-109924809D01*
X201311905Y-109924809D02*
X201311905Y-109424809D01*
X201311905Y-109424809D02*
X201264286Y-109496238D01*
X201264286Y-109496238D02*
X201216667Y-109543857D01*
X201216667Y-109543857D02*
X201169048Y-109567666D01*
X201930952Y-109924809D02*
X201645238Y-109924809D01*
X201788095Y-109924809D02*
X201788095Y-109424809D01*
X201788095Y-109424809D02*
X201740476Y-109496238D01*
X201740476Y-109496238D02*
X201692857Y-109543857D01*
X201692857Y-109543857D02*
X201645238Y-109567666D01*
X200678571Y-102674809D02*
X200511905Y-102436714D01*
X200392857Y-102674809D02*
X200392857Y-102174809D01*
X200392857Y-102174809D02*
X200583333Y-102174809D01*
X200583333Y-102174809D02*
X200630952Y-102198619D01*
X200630952Y-102198619D02*
X200654762Y-102222428D01*
X200654762Y-102222428D02*
X200678571Y-102270047D01*
X200678571Y-102270047D02*
X200678571Y-102341476D01*
X200678571Y-102341476D02*
X200654762Y-102389095D01*
X200654762Y-102389095D02*
X200630952Y-102412904D01*
X200630952Y-102412904D02*
X200583333Y-102436714D01*
X200583333Y-102436714D02*
X200392857Y-102436714D01*
X201154762Y-102674809D02*
X200869048Y-102674809D01*
X201011905Y-102674809D02*
X201011905Y-102174809D01*
X201011905Y-102174809D02*
X200964286Y-102246238D01*
X200964286Y-102246238D02*
X200916667Y-102293857D01*
X200916667Y-102293857D02*
X200869048Y-102317666D01*
X201607142Y-102174809D02*
X201369047Y-102174809D01*
X201369047Y-102174809D02*
X201345238Y-102412904D01*
X201345238Y-102412904D02*
X201369047Y-102389095D01*
X201369047Y-102389095D02*
X201416666Y-102365285D01*
X201416666Y-102365285D02*
X201535714Y-102365285D01*
X201535714Y-102365285D02*
X201583333Y-102389095D01*
X201583333Y-102389095D02*
X201607142Y-102412904D01*
X201607142Y-102412904D02*
X201630952Y-102460523D01*
X201630952Y-102460523D02*
X201630952Y-102579571D01*
X201630952Y-102579571D02*
X201607142Y-102627190D01*
X201607142Y-102627190D02*
X201583333Y-102651000D01*
X201583333Y-102651000D02*
X201535714Y-102674809D01*
X201535714Y-102674809D02*
X201416666Y-102674809D01*
X201416666Y-102674809D02*
X201369047Y-102651000D01*
X201369047Y-102651000D02*
X201345238Y-102627190D01*
X187604762Y-100462904D02*
X187676190Y-100486714D01*
X187676190Y-100486714D02*
X187700000Y-100510523D01*
X187700000Y-100510523D02*
X187723809Y-100558142D01*
X187723809Y-100558142D02*
X187723809Y-100629571D01*
X187723809Y-100629571D02*
X187700000Y-100677190D01*
X187700000Y-100677190D02*
X187676190Y-100701000D01*
X187676190Y-100701000D02*
X187628571Y-100724809D01*
X187628571Y-100724809D02*
X187438095Y-100724809D01*
X187438095Y-100724809D02*
X187438095Y-100224809D01*
X187438095Y-100224809D02*
X187604762Y-100224809D01*
X187604762Y-100224809D02*
X187652381Y-100248619D01*
X187652381Y-100248619D02*
X187676190Y-100272428D01*
X187676190Y-100272428D02*
X187700000Y-100320047D01*
X187700000Y-100320047D02*
X187700000Y-100367666D01*
X187700000Y-100367666D02*
X187676190Y-100415285D01*
X187676190Y-100415285D02*
X187652381Y-100439095D01*
X187652381Y-100439095D02*
X187604762Y-100462904D01*
X187604762Y-100462904D02*
X187438095Y-100462904D01*
X188033333Y-100224809D02*
X188128571Y-100224809D01*
X188128571Y-100224809D02*
X188176190Y-100248619D01*
X188176190Y-100248619D02*
X188223809Y-100296238D01*
X188223809Y-100296238D02*
X188247619Y-100391476D01*
X188247619Y-100391476D02*
X188247619Y-100558142D01*
X188247619Y-100558142D02*
X188223809Y-100653380D01*
X188223809Y-100653380D02*
X188176190Y-100701000D01*
X188176190Y-100701000D02*
X188128571Y-100724809D01*
X188128571Y-100724809D02*
X188033333Y-100724809D01*
X188033333Y-100724809D02*
X187985714Y-100701000D01*
X187985714Y-100701000D02*
X187938095Y-100653380D01*
X187938095Y-100653380D02*
X187914286Y-100558142D01*
X187914286Y-100558142D02*
X187914286Y-100391476D01*
X187914286Y-100391476D02*
X187938095Y-100296238D01*
X187938095Y-100296238D02*
X187985714Y-100248619D01*
X187985714Y-100248619D02*
X188033333Y-100224809D01*
X188557143Y-100224809D02*
X188652381Y-100224809D01*
X188652381Y-100224809D02*
X188700000Y-100248619D01*
X188700000Y-100248619D02*
X188747619Y-100296238D01*
X188747619Y-100296238D02*
X188771429Y-100391476D01*
X188771429Y-100391476D02*
X188771429Y-100558142D01*
X188771429Y-100558142D02*
X188747619Y-100653380D01*
X188747619Y-100653380D02*
X188700000Y-100701000D01*
X188700000Y-100701000D02*
X188652381Y-100724809D01*
X188652381Y-100724809D02*
X188557143Y-100724809D01*
X188557143Y-100724809D02*
X188509524Y-100701000D01*
X188509524Y-100701000D02*
X188461905Y-100653380D01*
X188461905Y-100653380D02*
X188438096Y-100558142D01*
X188438096Y-100558142D02*
X188438096Y-100391476D01*
X188438096Y-100391476D02*
X188461905Y-100296238D01*
X188461905Y-100296238D02*
X188509524Y-100248619D01*
X188509524Y-100248619D02*
X188557143Y-100224809D01*
X188961906Y-100701000D02*
X189033334Y-100724809D01*
X189033334Y-100724809D02*
X189152382Y-100724809D01*
X189152382Y-100724809D02*
X189200001Y-100701000D01*
X189200001Y-100701000D02*
X189223810Y-100677190D01*
X189223810Y-100677190D02*
X189247620Y-100629571D01*
X189247620Y-100629571D02*
X189247620Y-100581952D01*
X189247620Y-100581952D02*
X189223810Y-100534333D01*
X189223810Y-100534333D02*
X189200001Y-100510523D01*
X189200001Y-100510523D02*
X189152382Y-100486714D01*
X189152382Y-100486714D02*
X189057144Y-100462904D01*
X189057144Y-100462904D02*
X189009525Y-100439095D01*
X189009525Y-100439095D02*
X188985715Y-100415285D01*
X188985715Y-100415285D02*
X188961906Y-100367666D01*
X188961906Y-100367666D02*
X188961906Y-100320047D01*
X188961906Y-100320047D02*
X188985715Y-100272428D01*
X188985715Y-100272428D02*
X189009525Y-100248619D01*
X189009525Y-100248619D02*
X189057144Y-100224809D01*
X189057144Y-100224809D02*
X189176191Y-100224809D01*
X189176191Y-100224809D02*
X189247620Y-100248619D01*
X189390477Y-100224809D02*
X189676191Y-100224809D01*
X189533334Y-100724809D02*
X189533334Y-100224809D01*
X189723810Y-100772428D02*
X190104762Y-100772428D01*
X190223809Y-100462904D02*
X190390476Y-100462904D01*
X190461904Y-100724809D02*
X190223809Y-100724809D01*
X190223809Y-100724809D02*
X190223809Y-100224809D01*
X190223809Y-100224809D02*
X190461904Y-100224809D01*
X190676190Y-100724809D02*
X190676190Y-100224809D01*
X190676190Y-100224809D02*
X190961904Y-100724809D01*
X190961904Y-100724809D02*
X190961904Y-100224809D01*
X201254762Y-98524809D02*
X201254762Y-98024809D01*
X201254762Y-98024809D02*
X201373810Y-98024809D01*
X201373810Y-98024809D02*
X201445238Y-98048619D01*
X201445238Y-98048619D02*
X201492857Y-98096238D01*
X201492857Y-98096238D02*
X201516667Y-98143857D01*
X201516667Y-98143857D02*
X201540476Y-98239095D01*
X201540476Y-98239095D02*
X201540476Y-98310523D01*
X201540476Y-98310523D02*
X201516667Y-98405761D01*
X201516667Y-98405761D02*
X201492857Y-98453380D01*
X201492857Y-98453380D02*
X201445238Y-98501000D01*
X201445238Y-98501000D02*
X201373810Y-98524809D01*
X201373810Y-98524809D02*
X201254762Y-98524809D01*
X202040476Y-98524809D02*
X201873810Y-98286714D01*
X201754762Y-98524809D02*
X201754762Y-98024809D01*
X201754762Y-98024809D02*
X201945238Y-98024809D01*
X201945238Y-98024809D02*
X201992857Y-98048619D01*
X201992857Y-98048619D02*
X202016667Y-98072428D01*
X202016667Y-98072428D02*
X202040476Y-98120047D01*
X202040476Y-98120047D02*
X202040476Y-98191476D01*
X202040476Y-98191476D02*
X202016667Y-98239095D01*
X202016667Y-98239095D02*
X201992857Y-98262904D01*
X201992857Y-98262904D02*
X201945238Y-98286714D01*
X201945238Y-98286714D02*
X201754762Y-98286714D01*
X202183334Y-98024809D02*
X202350000Y-98524809D01*
X202350000Y-98524809D02*
X202516667Y-98024809D01*
X202659524Y-98072428D02*
X202683333Y-98048619D01*
X202683333Y-98048619D02*
X202730952Y-98024809D01*
X202730952Y-98024809D02*
X202850000Y-98024809D01*
X202850000Y-98024809D02*
X202897619Y-98048619D01*
X202897619Y-98048619D02*
X202921428Y-98072428D01*
X202921428Y-98072428D02*
X202945238Y-98120047D01*
X202945238Y-98120047D02*
X202945238Y-98167666D01*
X202945238Y-98167666D02*
X202921428Y-98239095D01*
X202921428Y-98239095D02*
X202635714Y-98524809D01*
X202635714Y-98524809D02*
X202945238Y-98524809D01*
X203040476Y-98572428D02*
X203421428Y-98572428D01*
X203540475Y-98524809D02*
X203540475Y-98024809D01*
X203540475Y-98024809D02*
X203730951Y-98024809D01*
X203730951Y-98024809D02*
X203778570Y-98048619D01*
X203778570Y-98048619D02*
X203802380Y-98072428D01*
X203802380Y-98072428D02*
X203826189Y-98120047D01*
X203826189Y-98120047D02*
X203826189Y-98191476D01*
X203826189Y-98191476D02*
X203802380Y-98239095D01*
X203802380Y-98239095D02*
X203778570Y-98262904D01*
X203778570Y-98262904D02*
X203730951Y-98286714D01*
X203730951Y-98286714D02*
X203540475Y-98286714D01*
X203992856Y-98024809D02*
X204111904Y-98524809D01*
X204111904Y-98524809D02*
X204207142Y-98167666D01*
X204207142Y-98167666D02*
X204302380Y-98524809D01*
X204302380Y-98524809D02*
X204421428Y-98024809D01*
X204611904Y-98524809D02*
X204611904Y-98024809D01*
X204611904Y-98024809D02*
X204778571Y-98381952D01*
X204778571Y-98381952D02*
X204945237Y-98024809D01*
X204945237Y-98024809D02*
X204945237Y-98524809D01*
X218378571Y-97124809D02*
X218211905Y-96886714D01*
X218092857Y-97124809D02*
X218092857Y-96624809D01*
X218092857Y-96624809D02*
X218283333Y-96624809D01*
X218283333Y-96624809D02*
X218330952Y-96648619D01*
X218330952Y-96648619D02*
X218354762Y-96672428D01*
X218354762Y-96672428D02*
X218378571Y-96720047D01*
X218378571Y-96720047D02*
X218378571Y-96791476D01*
X218378571Y-96791476D02*
X218354762Y-96839095D01*
X218354762Y-96839095D02*
X218330952Y-96862904D01*
X218330952Y-96862904D02*
X218283333Y-96886714D01*
X218283333Y-96886714D02*
X218092857Y-96886714D01*
X218569048Y-96672428D02*
X218592857Y-96648619D01*
X218592857Y-96648619D02*
X218640476Y-96624809D01*
X218640476Y-96624809D02*
X218759524Y-96624809D01*
X218759524Y-96624809D02*
X218807143Y-96648619D01*
X218807143Y-96648619D02*
X218830952Y-96672428D01*
X218830952Y-96672428D02*
X218854762Y-96720047D01*
X218854762Y-96720047D02*
X218854762Y-96767666D01*
X218854762Y-96767666D02*
X218830952Y-96839095D01*
X218830952Y-96839095D02*
X218545238Y-97124809D01*
X218545238Y-97124809D02*
X218854762Y-97124809D01*
X219092857Y-97124809D02*
X219188095Y-97124809D01*
X219188095Y-97124809D02*
X219235714Y-97101000D01*
X219235714Y-97101000D02*
X219259523Y-97077190D01*
X219259523Y-97077190D02*
X219307142Y-97005761D01*
X219307142Y-97005761D02*
X219330952Y-96910523D01*
X219330952Y-96910523D02*
X219330952Y-96720047D01*
X219330952Y-96720047D02*
X219307142Y-96672428D01*
X219307142Y-96672428D02*
X219283333Y-96648619D01*
X219283333Y-96648619D02*
X219235714Y-96624809D01*
X219235714Y-96624809D02*
X219140476Y-96624809D01*
X219140476Y-96624809D02*
X219092857Y-96648619D01*
X219092857Y-96648619D02*
X219069047Y-96672428D01*
X219069047Y-96672428D02*
X219045238Y-96720047D01*
X219045238Y-96720047D02*
X219045238Y-96839095D01*
X219045238Y-96839095D02*
X219069047Y-96886714D01*
X219069047Y-96886714D02*
X219092857Y-96910523D01*
X219092857Y-96910523D02*
X219140476Y-96934333D01*
X219140476Y-96934333D02*
X219235714Y-96934333D01*
X219235714Y-96934333D02*
X219283333Y-96910523D01*
X219283333Y-96910523D02*
X219307142Y-96886714D01*
X219307142Y-96886714D02*
X219330952Y-96839095D01*
X207119047Y-99224809D02*
X207119047Y-99629571D01*
X207119047Y-99629571D02*
X207142857Y-99677190D01*
X207142857Y-99677190D02*
X207166666Y-99701000D01*
X207166666Y-99701000D02*
X207214285Y-99724809D01*
X207214285Y-99724809D02*
X207309523Y-99724809D01*
X207309523Y-99724809D02*
X207357142Y-99701000D01*
X207357142Y-99701000D02*
X207380952Y-99677190D01*
X207380952Y-99677190D02*
X207404761Y-99629571D01*
X207404761Y-99629571D02*
X207404761Y-99224809D01*
X207904762Y-99724809D02*
X207619048Y-99724809D01*
X207761905Y-99724809D02*
X207761905Y-99224809D01*
X207761905Y-99224809D02*
X207714286Y-99296238D01*
X207714286Y-99296238D02*
X207666667Y-99343857D01*
X207666667Y-99343857D02*
X207619048Y-99367666D01*
X221916666Y-99177190D02*
X221892857Y-99201000D01*
X221892857Y-99201000D02*
X221821428Y-99224809D01*
X221821428Y-99224809D02*
X221773809Y-99224809D01*
X221773809Y-99224809D02*
X221702381Y-99201000D01*
X221702381Y-99201000D02*
X221654762Y-99153380D01*
X221654762Y-99153380D02*
X221630952Y-99105761D01*
X221630952Y-99105761D02*
X221607143Y-99010523D01*
X221607143Y-99010523D02*
X221607143Y-98939095D01*
X221607143Y-98939095D02*
X221630952Y-98843857D01*
X221630952Y-98843857D02*
X221654762Y-98796238D01*
X221654762Y-98796238D02*
X221702381Y-98748619D01*
X221702381Y-98748619D02*
X221773809Y-98724809D01*
X221773809Y-98724809D02*
X221821428Y-98724809D01*
X221821428Y-98724809D02*
X221892857Y-98748619D01*
X221892857Y-98748619D02*
X221916666Y-98772428D01*
X222083333Y-98724809D02*
X222416666Y-98724809D01*
X222416666Y-98724809D02*
X222202381Y-99224809D01*
D10*
X219478571Y-109941752D02*
X219454762Y-109960800D01*
X219454762Y-109960800D02*
X219383333Y-109979847D01*
X219383333Y-109979847D02*
X219335714Y-109979847D01*
X219335714Y-109979847D02*
X219264286Y-109960800D01*
X219264286Y-109960800D02*
X219216667Y-109922704D01*
X219216667Y-109922704D02*
X219192857Y-109884609D01*
X219192857Y-109884609D02*
X219169048Y-109808419D01*
X219169048Y-109808419D02*
X219169048Y-109751276D01*
X219169048Y-109751276D02*
X219192857Y-109675085D01*
X219192857Y-109675085D02*
X219216667Y-109636990D01*
X219216667Y-109636990D02*
X219264286Y-109598895D01*
X219264286Y-109598895D02*
X219335714Y-109579847D01*
X219335714Y-109579847D02*
X219383333Y-109579847D01*
X219383333Y-109579847D02*
X219454762Y-109598895D01*
X219454762Y-109598895D02*
X219478571Y-109617942D01*
X219954762Y-109979847D02*
X219669048Y-109979847D01*
X219811905Y-109979847D02*
X219811905Y-109579847D01*
X219811905Y-109579847D02*
X219764286Y-109636990D01*
X219764286Y-109636990D02*
X219716667Y-109675085D01*
X219716667Y-109675085D02*
X219669048Y-109694133D01*
X220383333Y-109713180D02*
X220383333Y-109979847D01*
X220264285Y-109560800D02*
X220145238Y-109846514D01*
X220145238Y-109846514D02*
X220454761Y-109846514D01*
D11*
X222178571Y-104877190D02*
X222154762Y-104901000D01*
X222154762Y-104901000D02*
X222083333Y-104924809D01*
X222083333Y-104924809D02*
X222035714Y-104924809D01*
X222035714Y-104924809D02*
X221964286Y-104901000D01*
X221964286Y-104901000D02*
X221916667Y-104853380D01*
X221916667Y-104853380D02*
X221892857Y-104805761D01*
X221892857Y-104805761D02*
X221869048Y-104710523D01*
X221869048Y-104710523D02*
X221869048Y-104639095D01*
X221869048Y-104639095D02*
X221892857Y-104543857D01*
X221892857Y-104543857D02*
X221916667Y-104496238D01*
X221916667Y-104496238D02*
X221964286Y-104448619D01*
X221964286Y-104448619D02*
X222035714Y-104424809D01*
X222035714Y-104424809D02*
X222083333Y-104424809D01*
X222083333Y-104424809D02*
X222154762Y-104448619D01*
X222154762Y-104448619D02*
X222178571Y-104472428D01*
X222654762Y-104924809D02*
X222369048Y-104924809D01*
X222511905Y-104924809D02*
X222511905Y-104424809D01*
X222511905Y-104424809D02*
X222464286Y-104496238D01*
X222464286Y-104496238D02*
X222416667Y-104543857D01*
X222416667Y-104543857D02*
X222369048Y-104567666D01*
X222845238Y-104472428D02*
X222869047Y-104448619D01*
X222869047Y-104448619D02*
X222916666Y-104424809D01*
X222916666Y-104424809D02*
X223035714Y-104424809D01*
X223035714Y-104424809D02*
X223083333Y-104448619D01*
X223083333Y-104448619D02*
X223107142Y-104472428D01*
X223107142Y-104472428D02*
X223130952Y-104520047D01*
X223130952Y-104520047D02*
X223130952Y-104567666D01*
X223130952Y-104567666D02*
X223107142Y-104639095D01*
X223107142Y-104639095D02*
X222821428Y-104924809D01*
X222821428Y-104924809D02*
X223130952Y-104924809D01*
X214716666Y-116324809D02*
X214550000Y-116086714D01*
X214430952Y-116324809D02*
X214430952Y-115824809D01*
X214430952Y-115824809D02*
X214621428Y-115824809D01*
X214621428Y-115824809D02*
X214669047Y-115848619D01*
X214669047Y-115848619D02*
X214692857Y-115872428D01*
X214692857Y-115872428D02*
X214716666Y-115920047D01*
X214716666Y-115920047D02*
X214716666Y-115991476D01*
X214716666Y-115991476D02*
X214692857Y-116039095D01*
X214692857Y-116039095D02*
X214669047Y-116062904D01*
X214669047Y-116062904D02*
X214621428Y-116086714D01*
X214621428Y-116086714D02*
X214430952Y-116086714D01*
X215145238Y-115991476D02*
X215145238Y-116324809D01*
X215026190Y-115801000D02*
X214907143Y-116158142D01*
X214907143Y-116158142D02*
X215216666Y-116158142D01*
X217416666Y-99857190D02*
X217392857Y-99881000D01*
X217392857Y-99881000D02*
X217321428Y-99904809D01*
X217321428Y-99904809D02*
X217273809Y-99904809D01*
X217273809Y-99904809D02*
X217202381Y-99881000D01*
X217202381Y-99881000D02*
X217154762Y-99833380D01*
X217154762Y-99833380D02*
X217130952Y-99785761D01*
X217130952Y-99785761D02*
X217107143Y-99690523D01*
X217107143Y-99690523D02*
X217107143Y-99619095D01*
X217107143Y-99619095D02*
X217130952Y-99523857D01*
X217130952Y-99523857D02*
X217154762Y-99476238D01*
X217154762Y-99476238D02*
X217202381Y-99428619D01*
X217202381Y-99428619D02*
X217273809Y-99404809D01*
X217273809Y-99404809D02*
X217321428Y-99404809D01*
X217321428Y-99404809D02*
X217392857Y-99428619D01*
X217392857Y-99428619D02*
X217416666Y-99452428D01*
X217845238Y-99404809D02*
X217750000Y-99404809D01*
X217750000Y-99404809D02*
X217702381Y-99428619D01*
X217702381Y-99428619D02*
X217678571Y-99452428D01*
X217678571Y-99452428D02*
X217630952Y-99523857D01*
X217630952Y-99523857D02*
X217607143Y-99619095D01*
X217607143Y-99619095D02*
X217607143Y-99809571D01*
X217607143Y-99809571D02*
X217630952Y-99857190D01*
X217630952Y-99857190D02*
X217654762Y-99881000D01*
X217654762Y-99881000D02*
X217702381Y-99904809D01*
X217702381Y-99904809D02*
X217797619Y-99904809D01*
X217797619Y-99904809D02*
X217845238Y-99881000D01*
X217845238Y-99881000D02*
X217869047Y-99857190D01*
X217869047Y-99857190D02*
X217892857Y-99809571D01*
X217892857Y-99809571D02*
X217892857Y-99690523D01*
X217892857Y-99690523D02*
X217869047Y-99642904D01*
X217869047Y-99642904D02*
X217845238Y-99619095D01*
X217845238Y-99619095D02*
X217797619Y-99595285D01*
X217797619Y-99595285D02*
X217702381Y-99595285D01*
X217702381Y-99595285D02*
X217654762Y-99619095D01*
X217654762Y-99619095D02*
X217630952Y-99642904D01*
X217630952Y-99642904D02*
X217607143Y-99690523D01*
X205116666Y-104524809D02*
X204950000Y-104286714D01*
X204830952Y-104524809D02*
X204830952Y-104024809D01*
X204830952Y-104024809D02*
X205021428Y-104024809D01*
X205021428Y-104024809D02*
X205069047Y-104048619D01*
X205069047Y-104048619D02*
X205092857Y-104072428D01*
X205092857Y-104072428D02*
X205116666Y-104120047D01*
X205116666Y-104120047D02*
X205116666Y-104191476D01*
X205116666Y-104191476D02*
X205092857Y-104239095D01*
X205092857Y-104239095D02*
X205069047Y-104262904D01*
X205069047Y-104262904D02*
X205021428Y-104286714D01*
X205021428Y-104286714D02*
X204830952Y-104286714D01*
X205569047Y-104024809D02*
X205330952Y-104024809D01*
X205330952Y-104024809D02*
X205307143Y-104262904D01*
X205307143Y-104262904D02*
X205330952Y-104239095D01*
X205330952Y-104239095D02*
X205378571Y-104215285D01*
X205378571Y-104215285D02*
X205497619Y-104215285D01*
X205497619Y-104215285D02*
X205545238Y-104239095D01*
X205545238Y-104239095D02*
X205569047Y-104262904D01*
X205569047Y-104262904D02*
X205592857Y-104310523D01*
X205592857Y-104310523D02*
X205592857Y-104429571D01*
X205592857Y-104429571D02*
X205569047Y-104477190D01*
X205569047Y-104477190D02*
X205545238Y-104501000D01*
X205545238Y-104501000D02*
X205497619Y-104524809D01*
X205497619Y-104524809D02*
X205378571Y-104524809D01*
X205378571Y-104524809D02*
X205330952Y-104501000D01*
X205330952Y-104501000D02*
X205307143Y-104477190D01*
X212916666Y-116324809D02*
X212750000Y-116086714D01*
X212630952Y-116324809D02*
X212630952Y-115824809D01*
X212630952Y-115824809D02*
X212821428Y-115824809D01*
X212821428Y-115824809D02*
X212869047Y-115848619D01*
X212869047Y-115848619D02*
X212892857Y-115872428D01*
X212892857Y-115872428D02*
X212916666Y-115920047D01*
X212916666Y-115920047D02*
X212916666Y-115991476D01*
X212916666Y-115991476D02*
X212892857Y-116039095D01*
X212892857Y-116039095D02*
X212869047Y-116062904D01*
X212869047Y-116062904D02*
X212821428Y-116086714D01*
X212821428Y-116086714D02*
X212630952Y-116086714D01*
X213083333Y-115824809D02*
X213392857Y-115824809D01*
X213392857Y-115824809D02*
X213226190Y-116015285D01*
X213226190Y-116015285D02*
X213297619Y-116015285D01*
X213297619Y-116015285D02*
X213345238Y-116039095D01*
X213345238Y-116039095D02*
X213369047Y-116062904D01*
X213369047Y-116062904D02*
X213392857Y-116110523D01*
X213392857Y-116110523D02*
X213392857Y-116229571D01*
X213392857Y-116229571D02*
X213369047Y-116277190D01*
X213369047Y-116277190D02*
X213345238Y-116301000D01*
X213345238Y-116301000D02*
X213297619Y-116324809D01*
X213297619Y-116324809D02*
X213154762Y-116324809D01*
X213154762Y-116324809D02*
X213107143Y-116301000D01*
X213107143Y-116301000D02*
X213083333Y-116277190D01*
X212778571Y-95724809D02*
X212611905Y-95486714D01*
X212492857Y-95724809D02*
X212492857Y-95224809D01*
X212492857Y-95224809D02*
X212683333Y-95224809D01*
X212683333Y-95224809D02*
X212730952Y-95248619D01*
X212730952Y-95248619D02*
X212754762Y-95272428D01*
X212754762Y-95272428D02*
X212778571Y-95320047D01*
X212778571Y-95320047D02*
X212778571Y-95391476D01*
X212778571Y-95391476D02*
X212754762Y-95439095D01*
X212754762Y-95439095D02*
X212730952Y-95462904D01*
X212730952Y-95462904D02*
X212683333Y-95486714D01*
X212683333Y-95486714D02*
X212492857Y-95486714D01*
X212969048Y-95272428D02*
X212992857Y-95248619D01*
X212992857Y-95248619D02*
X213040476Y-95224809D01*
X213040476Y-95224809D02*
X213159524Y-95224809D01*
X213159524Y-95224809D02*
X213207143Y-95248619D01*
X213207143Y-95248619D02*
X213230952Y-95272428D01*
X213230952Y-95272428D02*
X213254762Y-95320047D01*
X213254762Y-95320047D02*
X213254762Y-95367666D01*
X213254762Y-95367666D02*
X213230952Y-95439095D01*
X213230952Y-95439095D02*
X212945238Y-95724809D01*
X212945238Y-95724809D02*
X213254762Y-95724809D01*
X213445238Y-95272428D02*
X213469047Y-95248619D01*
X213469047Y-95248619D02*
X213516666Y-95224809D01*
X213516666Y-95224809D02*
X213635714Y-95224809D01*
X213635714Y-95224809D02*
X213683333Y-95248619D01*
X213683333Y-95248619D02*
X213707142Y-95272428D01*
X213707142Y-95272428D02*
X213730952Y-95320047D01*
X213730952Y-95320047D02*
X213730952Y-95367666D01*
X213730952Y-95367666D02*
X213707142Y-95439095D01*
X213707142Y-95439095D02*
X213421428Y-95724809D01*
X213421428Y-95724809D02*
X213730952Y-95724809D01*
X217616666Y-114477190D02*
X217592857Y-114501000D01*
X217592857Y-114501000D02*
X217521428Y-114524809D01*
X217521428Y-114524809D02*
X217473809Y-114524809D01*
X217473809Y-114524809D02*
X217402381Y-114501000D01*
X217402381Y-114501000D02*
X217354762Y-114453380D01*
X217354762Y-114453380D02*
X217330952Y-114405761D01*
X217330952Y-114405761D02*
X217307143Y-114310523D01*
X217307143Y-114310523D02*
X217307143Y-114239095D01*
X217307143Y-114239095D02*
X217330952Y-114143857D01*
X217330952Y-114143857D02*
X217354762Y-114096238D01*
X217354762Y-114096238D02*
X217402381Y-114048619D01*
X217402381Y-114048619D02*
X217473809Y-114024809D01*
X217473809Y-114024809D02*
X217521428Y-114024809D01*
X217521428Y-114024809D02*
X217592857Y-114048619D01*
X217592857Y-114048619D02*
X217616666Y-114072428D01*
X217783333Y-114024809D02*
X218092857Y-114024809D01*
X218092857Y-114024809D02*
X217926190Y-114215285D01*
X217926190Y-114215285D02*
X217997619Y-114215285D01*
X217997619Y-114215285D02*
X218045238Y-114239095D01*
X218045238Y-114239095D02*
X218069047Y-114262904D01*
X218069047Y-114262904D02*
X218092857Y-114310523D01*
X218092857Y-114310523D02*
X218092857Y-114429571D01*
X218092857Y-114429571D02*
X218069047Y-114477190D01*
X218069047Y-114477190D02*
X218045238Y-114501000D01*
X218045238Y-114501000D02*
X217997619Y-114524809D01*
X217997619Y-114524809D02*
X217854762Y-114524809D01*
X217854762Y-114524809D02*
X217807143Y-114501000D01*
X217807143Y-114501000D02*
X217783333Y-114477190D01*
X209016666Y-96624809D02*
X208850000Y-96386714D01*
X208730952Y-96624809D02*
X208730952Y-96124809D01*
X208730952Y-96124809D02*
X208921428Y-96124809D01*
X208921428Y-96124809D02*
X208969047Y-96148619D01*
X208969047Y-96148619D02*
X208992857Y-96172428D01*
X208992857Y-96172428D02*
X209016666Y-96220047D01*
X209016666Y-96220047D02*
X209016666Y-96291476D01*
X209016666Y-96291476D02*
X208992857Y-96339095D01*
X208992857Y-96339095D02*
X208969047Y-96362904D01*
X208969047Y-96362904D02*
X208921428Y-96386714D01*
X208921428Y-96386714D02*
X208730952Y-96386714D01*
X209445238Y-96124809D02*
X209350000Y-96124809D01*
X209350000Y-96124809D02*
X209302381Y-96148619D01*
X209302381Y-96148619D02*
X209278571Y-96172428D01*
X209278571Y-96172428D02*
X209230952Y-96243857D01*
X209230952Y-96243857D02*
X209207143Y-96339095D01*
X209207143Y-96339095D02*
X209207143Y-96529571D01*
X209207143Y-96529571D02*
X209230952Y-96577190D01*
X209230952Y-96577190D02*
X209254762Y-96601000D01*
X209254762Y-96601000D02*
X209302381Y-96624809D01*
X209302381Y-96624809D02*
X209397619Y-96624809D01*
X209397619Y-96624809D02*
X209445238Y-96601000D01*
X209445238Y-96601000D02*
X209469047Y-96577190D01*
X209469047Y-96577190D02*
X209492857Y-96529571D01*
X209492857Y-96529571D02*
X209492857Y-96410523D01*
X209492857Y-96410523D02*
X209469047Y-96362904D01*
X209469047Y-96362904D02*
X209445238Y-96339095D01*
X209445238Y-96339095D02*
X209397619Y-96315285D01*
X209397619Y-96315285D02*
X209302381Y-96315285D01*
X209302381Y-96315285D02*
X209254762Y-96339095D01*
X209254762Y-96339095D02*
X209230952Y-96362904D01*
X209230952Y-96362904D02*
X209207143Y-96410523D01*
X221861905Y-97224809D02*
X221861905Y-96724809D01*
X221861905Y-96724809D02*
X221980953Y-96724809D01*
X221980953Y-96724809D02*
X222052381Y-96748619D01*
X222052381Y-96748619D02*
X222100000Y-96796238D01*
X222100000Y-96796238D02*
X222123810Y-96843857D01*
X222123810Y-96843857D02*
X222147619Y-96939095D01*
X222147619Y-96939095D02*
X222147619Y-97010523D01*
X222147619Y-97010523D02*
X222123810Y-97105761D01*
X222123810Y-97105761D02*
X222100000Y-97153380D01*
X222100000Y-97153380D02*
X222052381Y-97201000D01*
X222052381Y-97201000D02*
X221980953Y-97224809D01*
X221980953Y-97224809D02*
X221861905Y-97224809D01*
X222647619Y-97224809D02*
X222480953Y-96986714D01*
X222361905Y-97224809D02*
X222361905Y-96724809D01*
X222361905Y-96724809D02*
X222552381Y-96724809D01*
X222552381Y-96724809D02*
X222600000Y-96748619D01*
X222600000Y-96748619D02*
X222623810Y-96772428D01*
X222623810Y-96772428D02*
X222647619Y-96820047D01*
X222647619Y-96820047D02*
X222647619Y-96891476D01*
X222647619Y-96891476D02*
X222623810Y-96939095D01*
X222623810Y-96939095D02*
X222600000Y-96962904D01*
X222600000Y-96962904D02*
X222552381Y-96986714D01*
X222552381Y-96986714D02*
X222361905Y-96986714D01*
X222790477Y-96724809D02*
X222957143Y-97224809D01*
X222957143Y-97224809D02*
X223123810Y-96724809D01*
X223552381Y-97224809D02*
X223266667Y-97224809D01*
X223409524Y-97224809D02*
X223409524Y-96724809D01*
X223409524Y-96724809D02*
X223361905Y-96796238D01*
X223361905Y-96796238D02*
X223314286Y-96843857D01*
X223314286Y-96843857D02*
X223266667Y-96867666D01*
X223647619Y-97272428D02*
X224028571Y-97272428D01*
X224123809Y-97081952D02*
X224361904Y-97081952D01*
X224076190Y-97224809D02*
X224242856Y-96724809D01*
X224242856Y-96724809D02*
X224409523Y-97224809D01*
X195257143Y-90834333D02*
X195638096Y-90834333D01*
X195447619Y-91024809D02*
X195447619Y-90643857D01*
X196114286Y-90524809D02*
X195876191Y-90524809D01*
X195876191Y-90524809D02*
X195852382Y-90762904D01*
X195852382Y-90762904D02*
X195876191Y-90739095D01*
X195876191Y-90739095D02*
X195923810Y-90715285D01*
X195923810Y-90715285D02*
X196042858Y-90715285D01*
X196042858Y-90715285D02*
X196090477Y-90739095D01*
X196090477Y-90739095D02*
X196114286Y-90762904D01*
X196114286Y-90762904D02*
X196138096Y-90810523D01*
X196138096Y-90810523D02*
X196138096Y-90929571D01*
X196138096Y-90929571D02*
X196114286Y-90977190D01*
X196114286Y-90977190D02*
X196090477Y-91001000D01*
X196090477Y-91001000D02*
X196042858Y-91024809D01*
X196042858Y-91024809D02*
X195923810Y-91024809D01*
X195923810Y-91024809D02*
X195876191Y-91001000D01*
X195876191Y-91001000D02*
X195852382Y-90977190D01*
X196280953Y-90524809D02*
X196447619Y-91024809D01*
X196447619Y-91024809D02*
X196614286Y-90524809D01*
X221878571Y-112024809D02*
X221711905Y-111786714D01*
X221592857Y-112024809D02*
X221592857Y-111524809D01*
X221592857Y-111524809D02*
X221783333Y-111524809D01*
X221783333Y-111524809D02*
X221830952Y-111548619D01*
X221830952Y-111548619D02*
X221854762Y-111572428D01*
X221854762Y-111572428D02*
X221878571Y-111620047D01*
X221878571Y-111620047D02*
X221878571Y-111691476D01*
X221878571Y-111691476D02*
X221854762Y-111739095D01*
X221854762Y-111739095D02*
X221830952Y-111762904D01*
X221830952Y-111762904D02*
X221783333Y-111786714D01*
X221783333Y-111786714D02*
X221592857Y-111786714D01*
X222045238Y-111524809D02*
X222354762Y-111524809D01*
X222354762Y-111524809D02*
X222188095Y-111715285D01*
X222188095Y-111715285D02*
X222259524Y-111715285D01*
X222259524Y-111715285D02*
X222307143Y-111739095D01*
X222307143Y-111739095D02*
X222330952Y-111762904D01*
X222330952Y-111762904D02*
X222354762Y-111810523D01*
X222354762Y-111810523D02*
X222354762Y-111929571D01*
X222354762Y-111929571D02*
X222330952Y-111977190D01*
X222330952Y-111977190D02*
X222307143Y-112001000D01*
X222307143Y-112001000D02*
X222259524Y-112024809D01*
X222259524Y-112024809D02*
X222116667Y-112024809D01*
X222116667Y-112024809D02*
X222069048Y-112001000D01*
X222069048Y-112001000D02*
X222045238Y-111977190D01*
X222664285Y-111524809D02*
X222711904Y-111524809D01*
X222711904Y-111524809D02*
X222759523Y-111548619D01*
X222759523Y-111548619D02*
X222783333Y-111572428D01*
X222783333Y-111572428D02*
X222807142Y-111620047D01*
X222807142Y-111620047D02*
X222830952Y-111715285D01*
X222830952Y-111715285D02*
X222830952Y-111834333D01*
X222830952Y-111834333D02*
X222807142Y-111929571D01*
X222807142Y-111929571D02*
X222783333Y-111977190D01*
X222783333Y-111977190D02*
X222759523Y-112001000D01*
X222759523Y-112001000D02*
X222711904Y-112024809D01*
X222711904Y-112024809D02*
X222664285Y-112024809D01*
X222664285Y-112024809D02*
X222616666Y-112001000D01*
X222616666Y-112001000D02*
X222592857Y-111977190D01*
X222592857Y-111977190D02*
X222569047Y-111929571D01*
X222569047Y-111929571D02*
X222545238Y-111834333D01*
X222545238Y-111834333D02*
X222545238Y-111715285D01*
X222545238Y-111715285D02*
X222569047Y-111620047D01*
X222569047Y-111620047D02*
X222592857Y-111572428D01*
X222592857Y-111572428D02*
X222616666Y-111548619D01*
X222616666Y-111548619D02*
X222664285Y-111524809D01*
X189893333Y-104889809D02*
X189893333Y-105246952D01*
X189893333Y-105246952D02*
X189869524Y-105318380D01*
X189869524Y-105318380D02*
X189821905Y-105366000D01*
X189821905Y-105366000D02*
X189750476Y-105389809D01*
X189750476Y-105389809D02*
X189702857Y-105389809D01*
X190107619Y-104937428D02*
X190131428Y-104913619D01*
X190131428Y-104913619D02*
X190179047Y-104889809D01*
X190179047Y-104889809D02*
X190298095Y-104889809D01*
X190298095Y-104889809D02*
X190345714Y-104913619D01*
X190345714Y-104913619D02*
X190369523Y-104937428D01*
X190369523Y-104937428D02*
X190393333Y-104985047D01*
X190393333Y-104985047D02*
X190393333Y-105032666D01*
X190393333Y-105032666D02*
X190369523Y-105104095D01*
X190369523Y-105104095D02*
X190083809Y-105389809D01*
X190083809Y-105389809D02*
X190393333Y-105389809D01*
X226278571Y-110124809D02*
X226111905Y-109886714D01*
X225992857Y-110124809D02*
X225992857Y-109624809D01*
X225992857Y-109624809D02*
X226183333Y-109624809D01*
X226183333Y-109624809D02*
X226230952Y-109648619D01*
X226230952Y-109648619D02*
X226254762Y-109672428D01*
X226254762Y-109672428D02*
X226278571Y-109720047D01*
X226278571Y-109720047D02*
X226278571Y-109791476D01*
X226278571Y-109791476D02*
X226254762Y-109839095D01*
X226254762Y-109839095D02*
X226230952Y-109862904D01*
X226230952Y-109862904D02*
X226183333Y-109886714D01*
X226183333Y-109886714D02*
X225992857Y-109886714D01*
X226445238Y-109624809D02*
X226754762Y-109624809D01*
X226754762Y-109624809D02*
X226588095Y-109815285D01*
X226588095Y-109815285D02*
X226659524Y-109815285D01*
X226659524Y-109815285D02*
X226707143Y-109839095D01*
X226707143Y-109839095D02*
X226730952Y-109862904D01*
X226730952Y-109862904D02*
X226754762Y-109910523D01*
X226754762Y-109910523D02*
X226754762Y-110029571D01*
X226754762Y-110029571D02*
X226730952Y-110077190D01*
X226730952Y-110077190D02*
X226707143Y-110101000D01*
X226707143Y-110101000D02*
X226659524Y-110124809D01*
X226659524Y-110124809D02*
X226516667Y-110124809D01*
X226516667Y-110124809D02*
X226469048Y-110101000D01*
X226469048Y-110101000D02*
X226445238Y-110077190D01*
X226945238Y-109672428D02*
X226969047Y-109648619D01*
X226969047Y-109648619D02*
X227016666Y-109624809D01*
X227016666Y-109624809D02*
X227135714Y-109624809D01*
X227135714Y-109624809D02*
X227183333Y-109648619D01*
X227183333Y-109648619D02*
X227207142Y-109672428D01*
X227207142Y-109672428D02*
X227230952Y-109720047D01*
X227230952Y-109720047D02*
X227230952Y-109767666D01*
X227230952Y-109767666D02*
X227207142Y-109839095D01*
X227207142Y-109839095D02*
X226921428Y-110124809D01*
X226921428Y-110124809D02*
X227230952Y-110124809D01*
X236495238Y-90424809D02*
X236495238Y-90781952D01*
X236495238Y-90781952D02*
X236471429Y-90853380D01*
X236471429Y-90853380D02*
X236423810Y-90901000D01*
X236423810Y-90901000D02*
X236352381Y-90924809D01*
X236352381Y-90924809D02*
X236304762Y-90924809D01*
X236995238Y-90924809D02*
X236709524Y-90924809D01*
X236852381Y-90924809D02*
X236852381Y-90424809D01*
X236852381Y-90424809D02*
X236804762Y-90496238D01*
X236804762Y-90496238D02*
X236757143Y-90543857D01*
X236757143Y-90543857D02*
X236709524Y-90567666D01*
X237447618Y-90424809D02*
X237209523Y-90424809D01*
X237209523Y-90424809D02*
X237185714Y-90662904D01*
X237185714Y-90662904D02*
X237209523Y-90639095D01*
X237209523Y-90639095D02*
X237257142Y-90615285D01*
X237257142Y-90615285D02*
X237376190Y-90615285D01*
X237376190Y-90615285D02*
X237423809Y-90639095D01*
X237423809Y-90639095D02*
X237447618Y-90662904D01*
X237447618Y-90662904D02*
X237471428Y-90710523D01*
X237471428Y-90710523D02*
X237471428Y-90829571D01*
X237471428Y-90829571D02*
X237447618Y-90877190D01*
X237447618Y-90877190D02*
X237423809Y-90901000D01*
X237423809Y-90901000D02*
X237376190Y-90924809D01*
X237376190Y-90924809D02*
X237257142Y-90924809D01*
X237257142Y-90924809D02*
X237209523Y-90901000D01*
X237209523Y-90901000D02*
X237185714Y-90877190D01*
X226416666Y-104424809D02*
X226250000Y-104186714D01*
X226130952Y-104424809D02*
X226130952Y-103924809D01*
X226130952Y-103924809D02*
X226321428Y-103924809D01*
X226321428Y-103924809D02*
X226369047Y-103948619D01*
X226369047Y-103948619D02*
X226392857Y-103972428D01*
X226392857Y-103972428D02*
X226416666Y-104020047D01*
X226416666Y-104020047D02*
X226416666Y-104091476D01*
X226416666Y-104091476D02*
X226392857Y-104139095D01*
X226392857Y-104139095D02*
X226369047Y-104162904D01*
X226369047Y-104162904D02*
X226321428Y-104186714D01*
X226321428Y-104186714D02*
X226130952Y-104186714D01*
X226607143Y-103972428D02*
X226630952Y-103948619D01*
X226630952Y-103948619D02*
X226678571Y-103924809D01*
X226678571Y-103924809D02*
X226797619Y-103924809D01*
X226797619Y-103924809D02*
X226845238Y-103948619D01*
X226845238Y-103948619D02*
X226869047Y-103972428D01*
X226869047Y-103972428D02*
X226892857Y-104020047D01*
X226892857Y-104020047D02*
X226892857Y-104067666D01*
X226892857Y-104067666D02*
X226869047Y-104139095D01*
X226869047Y-104139095D02*
X226583333Y-104424809D01*
X226583333Y-104424809D02*
X226892857Y-104424809D01*
D12*
%TO.C,R25*%
X209177500Y-94167258D02*
X209177500Y-93692742D01*
X210222500Y-94167258D02*
X210222500Y-93692742D01*
%TO.C,R27*%
X224637258Y-110657500D02*
X224162742Y-110657500D01*
X224637258Y-111702500D02*
X224162742Y-111702500D01*
%TO.C,R18*%
X224662258Y-102657500D02*
X224187742Y-102657500D01*
X224662258Y-103702500D02*
X224187742Y-103702500D01*
%TO.C,R10*%
X222762258Y-99657500D02*
X222287742Y-99657500D01*
X222762258Y-100702500D02*
X222287742Y-100702500D01*
%TO.C,TP2*%
X221800000Y-112900000D02*
X223200000Y-112900000D01*
X221800000Y-114300000D02*
X221800000Y-112900000D01*
X223200000Y-112900000D02*
X223200000Y-114300000D01*
X223200000Y-114300000D02*
X221800000Y-114300000D01*
%TO.C,C11*%
X224359420Y-101170000D02*
X224640580Y-101170000D01*
X224359420Y-102190000D02*
X224640580Y-102190000D01*
%TO.C,R16*%
X215477500Y-93717742D02*
X215477500Y-94192258D01*
X216522500Y-93717742D02*
X216522500Y-94192258D01*
%TO.C,J14*%
X181800000Y-90920000D02*
X183180000Y-90920000D01*
X181800000Y-92300000D02*
X181800000Y-90920000D01*
X181800000Y-93570000D02*
X181800000Y-116540000D01*
X181800000Y-93570000D02*
X184450000Y-93570000D01*
X181800000Y-116540000D02*
X187100000Y-116540000D01*
X184450000Y-90920000D02*
X187100000Y-90920000D01*
X184450000Y-93570000D02*
X184450000Y-90920000D01*
X187100000Y-90920000D02*
X187100000Y-116540000D01*
%TO.C,R8*%
X203962742Y-107977500D02*
X204437258Y-107977500D01*
X203962742Y-109022500D02*
X204437258Y-109022500D01*
%TO.C,FB1*%
X220237258Y-111757500D02*
X219762742Y-111757500D01*
X220237258Y-112802500D02*
X219762742Y-112802500D01*
%TO.C,R33*%
X227262742Y-106357500D02*
X227737258Y-106357500D01*
X227262742Y-107402500D02*
X227737258Y-107402500D01*
%TO.C,R26*%
X211031742Y-91077500D02*
X211506258Y-91077500D01*
X211031742Y-92122500D02*
X211506258Y-92122500D01*
%TO.C,R21*%
X213927500Y-94137258D02*
X213927500Y-93662742D01*
X214972500Y-94137258D02*
X214972500Y-93662742D01*
%TO.C,R20*%
X207677500Y-94217258D02*
X207677500Y-93742742D01*
X208722500Y-94217258D02*
X208722500Y-93742742D01*
%TO.C,R7*%
X203787742Y-106277500D02*
X204262258Y-106277500D01*
X203787742Y-107322500D02*
X204262258Y-107322500D01*
%TO.C,TP5*%
X220700000Y-93900000D02*
X222100000Y-93900000D01*
X220700000Y-95300000D02*
X220700000Y-93900000D01*
X222100000Y-93900000D02*
X222100000Y-95300000D01*
X222100000Y-95300000D02*
X220700000Y-95300000D01*
%TO.C,TP6*%
X224200000Y-97400000D02*
X225600000Y-97400000D01*
X224200000Y-98800000D02*
X224200000Y-97400000D01*
X225600000Y-97400000D02*
X225600000Y-98800000D01*
X225600000Y-98800000D02*
X224200000Y-98800000D01*
%TO.C,R24*%
X200787742Y-106357500D02*
X201262258Y-106357500D01*
X200787742Y-107402500D02*
X201262258Y-107402500D01*
%TO.C,TP7*%
X223600000Y-93900000D02*
X225000000Y-93900000D01*
X223600000Y-95300000D02*
X223600000Y-93900000D01*
X225000000Y-93900000D02*
X225000000Y-95300000D01*
X225000000Y-95300000D02*
X223600000Y-95300000D01*
%TO.C,R28*%
X215677500Y-113842742D02*
X215677500Y-114317258D01*
X216722500Y-113842742D02*
X216722500Y-114317258D01*
%TO.C,R12*%
X224737258Y-107557500D02*
X224262742Y-107557500D01*
X224737258Y-108602500D02*
X224262742Y-108602500D01*
%TO.C,C1*%
X209840000Y-113859420D02*
X209840000Y-114140580D01*
X210860000Y-113859420D02*
X210860000Y-114140580D01*
%TO.C,C8*%
X207490000Y-97220580D02*
X207490000Y-96939420D01*
X208510000Y-97220580D02*
X208510000Y-96939420D01*
%TO.C,C2*%
X195790000Y-92915580D02*
X195790000Y-92634420D01*
X196810000Y-92915580D02*
X196810000Y-92634420D01*
%TO.C,R13*%
X204437258Y-102027500D02*
X203962742Y-102027500D01*
X204437258Y-103072500D02*
X203962742Y-103072500D01*
%TO.C,J1*%
X229520000Y-102045000D02*
X230900000Y-102045000D01*
X229520000Y-103425000D02*
X229520000Y-102045000D01*
X229520000Y-104695000D02*
X229520000Y-107345000D01*
X229520000Y-104695000D02*
X232280000Y-104695000D01*
X229520000Y-107345000D02*
X232280000Y-107345000D01*
X232280000Y-104695000D02*
X232280000Y-107345000D01*
%TO.C,R31*%
X216977500Y-93742742D02*
X216977500Y-94217258D01*
X218022500Y-93742742D02*
X218022500Y-94217258D01*
%TO.C,R9*%
X212977500Y-96812742D02*
X212977500Y-97287258D01*
X214022500Y-96812742D02*
X214022500Y-97287258D01*
%TO.C,R14*%
X214927500Y-97317258D02*
X214927500Y-96842742D01*
X215972500Y-97317258D02*
X215972500Y-96842742D01*
%TO.C,C10*%
X221134420Y-103190000D02*
X221415580Y-103190000D01*
X221134420Y-104210000D02*
X221415580Y-104210000D01*
%TO.C,U2*%
X198690000Y-92240000D02*
X200510000Y-92240000D01*
X198690000Y-92290000D02*
X198690000Y-92240000D01*
X198690000Y-95360000D02*
X198690000Y-95310000D01*
X200510000Y-92240000D02*
X200510000Y-92290000D01*
X200510000Y-93410000D02*
X200510000Y-94190000D01*
X200510000Y-95310000D02*
X200510000Y-95360000D01*
X200510000Y-95360000D02*
X198690000Y-95360000D01*
X198150000Y-92290000D02*
X197910000Y-91960000D01*
X198390000Y-91960000D01*
X198150000Y-92290000D01*
G36*
X198150000Y-92290000D02*
G01*
X197910000Y-91960000D01*
X198390000Y-91960000D01*
X198150000Y-92290000D01*
G37*
%TO.C,R17*%
X210677500Y-94167258D02*
X210677500Y-93692742D01*
X211722500Y-94167258D02*
X211722500Y-93692742D01*
%TO.C,C5*%
X204490000Y-111214420D02*
X204490000Y-111495580D01*
X205510000Y-111214420D02*
X205510000Y-111495580D01*
%TO.C,R19*%
X200687742Y-104857500D02*
X201162258Y-104857500D01*
X200687742Y-105902500D02*
X201162258Y-105902500D01*
%TO.C,C13*%
X221084420Y-106970000D02*
X221365580Y-106970000D01*
X221084420Y-107990000D02*
X221365580Y-107990000D01*
%TO.C,TP3*%
X205300000Y-97500000D02*
X206700000Y-97500000D01*
X205300000Y-98900000D02*
X205300000Y-97500000D01*
X206700000Y-97500000D02*
X206700000Y-98900000D01*
X206700000Y-98900000D02*
X205300000Y-98900000D01*
%TO.C,R23*%
X212327500Y-93662742D02*
X212327500Y-94137258D01*
X213372500Y-93662742D02*
X213372500Y-94137258D01*
%TO.C,R1*%
X224262742Y-105677500D02*
X224737258Y-105677500D01*
X224262742Y-106722500D02*
X224737258Y-106722500D01*
%TO.C,C9*%
X221109420Y-101690000D02*
X221390580Y-101690000D01*
X221109420Y-102710000D02*
X221390580Y-102710000D01*
%TO.C,TP8*%
X227700000Y-93800000D02*
X229100000Y-93800000D01*
X227700000Y-95200000D02*
X227700000Y-93800000D01*
X229100000Y-93800000D02*
X229100000Y-95200000D01*
X229100000Y-95200000D02*
X227700000Y-95200000D01*
%TO.C,C4*%
X205990000Y-111214420D02*
X205990000Y-111495580D01*
X207010000Y-111214420D02*
X207010000Y-111495580D01*
%TO.C,R11*%
X200862742Y-107857500D02*
X201337258Y-107857500D01*
X200862742Y-108902500D02*
X201337258Y-108902500D01*
%TO.C,R15*%
X200762742Y-103357500D02*
X201237258Y-103357500D01*
X200762742Y-104402500D02*
X201237258Y-104402500D01*
%TO.C,TP15*%
X188400000Y-101500000D02*
X189800000Y-101500000D01*
X188400000Y-102900000D02*
X188400000Y-101500000D01*
X189800000Y-101500000D02*
X189800000Y-102900000D01*
X189800000Y-102900000D02*
X188400000Y-102900000D01*
%TO.C,TP12*%
X201600000Y-96500000D02*
X203000000Y-96500000D01*
X201600000Y-97900000D02*
X201600000Y-96500000D01*
X203000000Y-96500000D02*
X203000000Y-97900000D01*
X203000000Y-97900000D02*
X201600000Y-97900000D01*
%TO.C,R29*%
X216777500Y-96917742D02*
X216777500Y-97392258D01*
X217822500Y-96917742D02*
X217822500Y-97392258D01*
D13*
%TO.C,U1*%
X207469200Y-100449200D02*
X207469200Y-101345608D01*
X207469200Y-109814392D02*
X207469200Y-110710800D01*
X207469200Y-110710800D02*
X208365608Y-110710800D01*
X208365608Y-100449200D02*
X207469200Y-100449200D01*
X216834392Y-110710800D02*
X217730800Y-110710800D01*
X217730800Y-100449200D02*
X216834392Y-100449200D01*
X217730800Y-101345608D02*
X217730800Y-100449200D01*
X217730800Y-110710800D02*
X217730800Y-109814392D01*
X208926200Y-112430900D02*
G75*
G02*
X208773800Y-112430900I-76200J0D01*
G01*
X208773800Y-112430900D02*
G75*
G02*
X208926200Y-112430900I76200J0D01*
G01*
D14*
G36*
X205999101Y-102520499D02*
G01*
X205745101Y-102520499D01*
X205745101Y-102139499D01*
X205999101Y-102139499D01*
X205999101Y-102520499D01*
G37*
G36*
X205999101Y-107520499D02*
G01*
X205745101Y-107520499D01*
X205745101Y-107139499D01*
X205999101Y-107139499D01*
X205999101Y-107520499D01*
G37*
G36*
X213040500Y-98979101D02*
G01*
X212659499Y-98979101D01*
X212659499Y-98725101D01*
X213040500Y-98725101D01*
X213040500Y-98979101D01*
G37*
G36*
X213540501Y-112434899D02*
G01*
X213159501Y-112434899D01*
X213159501Y-112180899D01*
X213540501Y-112180899D01*
X213540501Y-112434899D01*
G37*
G36*
X219454899Y-103020500D02*
G01*
X219200899Y-103020500D01*
X219200899Y-102639500D01*
X219454899Y-102639500D01*
X219454899Y-103020500D01*
G37*
G36*
X219454899Y-108020501D02*
G01*
X219200899Y-108020501D01*
X219200899Y-107639501D01*
X219454899Y-107639501D01*
X219454899Y-108020501D01*
G37*
D12*
%TO.C,C7*%
X219790000Y-99820580D02*
X219790000Y-99539420D01*
X220810000Y-99820580D02*
X220810000Y-99539420D01*
%TO.C,C14*%
X221084420Y-108470000D02*
X221365580Y-108470000D01*
X221084420Y-109490000D02*
X221365580Y-109490000D01*
%TO.C,C12*%
X221359420Y-105070000D02*
X221640580Y-105070000D01*
X221359420Y-106090000D02*
X221640580Y-106090000D01*
%TO.C,R4*%
X214177500Y-114342258D02*
X214177500Y-113867742D01*
X215222500Y-114342258D02*
X215222500Y-113867742D01*
%TO.C,C6*%
X218290000Y-99820580D02*
X218290000Y-99539420D01*
X219310000Y-99820580D02*
X219310000Y-99539420D01*
%TO.C,R5*%
X204412258Y-104657500D02*
X203937742Y-104657500D01*
X204412258Y-105702500D02*
X203937742Y-105702500D01*
%TO.C,R3*%
X212677500Y-114317258D02*
X212677500Y-113842742D01*
X213722500Y-114317258D02*
X213722500Y-113842742D01*
%TO.C,R22*%
X211147500Y-96842742D02*
X211147500Y-97317258D01*
X212192500Y-96842742D02*
X212192500Y-97317258D01*
%TO.C,C3*%
X217190000Y-112239420D02*
X217190000Y-112520580D01*
X218210000Y-112239420D02*
X218210000Y-112520580D01*
%TO.C,R6*%
X209647500Y-97317258D02*
X209647500Y-96842742D01*
X210692500Y-97317258D02*
X210692500Y-96842742D01*
D14*
%TO.C,G\u002A\u002A\u002A*%
G36*
X223059811Y-116014877D02*
G01*
X223058296Y-116019716D01*
X223055528Y-116028796D01*
X223051789Y-116041180D01*
X223047363Y-116055934D01*
X223042530Y-116072120D01*
X223042092Y-116073592D01*
X223037262Y-116089642D01*
X223032803Y-116104125D01*
X223028996Y-116116163D01*
X223026117Y-116124879D01*
X223024445Y-116129395D01*
X223024341Y-116129607D01*
X223023188Y-116131060D01*
X223021022Y-116132183D01*
X223017209Y-116133017D01*
X223011117Y-116133605D01*
X223002110Y-116133988D01*
X222989557Y-116134209D01*
X222972823Y-116134309D01*
X222953115Y-116134332D01*
X222934485Y-116134256D01*
X222917767Y-116134042D01*
X222903678Y-116133711D01*
X222892935Y-116133284D01*
X222886256Y-116132783D01*
X222884308Y-116132307D01*
X222885031Y-116129253D01*
X222887093Y-116121770D01*
X222890282Y-116110600D01*
X222894384Y-116096485D01*
X222899185Y-116080167D01*
X222902530Y-116068901D01*
X222920816Y-116007519D01*
X222991538Y-116007486D01*
X223062261Y-116007453D01*
X223059811Y-116014877D01*
G37*
G36*
X220580939Y-115702638D02*
G01*
X220584909Y-115709670D01*
X220589992Y-115719627D01*
X220595731Y-115731508D01*
X220601671Y-115744316D01*
X220607355Y-115757052D01*
X220612327Y-115768718D01*
X220616129Y-115778316D01*
X220618306Y-115784846D01*
X220618594Y-115787141D01*
X220615915Y-115789016D01*
X220609016Y-115792720D01*
X220598624Y-115797919D01*
X220585467Y-115804280D01*
X220570271Y-115811469D01*
X220553765Y-115819154D01*
X220536675Y-115827001D01*
X220519729Y-115834678D01*
X220503655Y-115841850D01*
X220489179Y-115848185D01*
X220477029Y-115853350D01*
X220467932Y-115857011D01*
X220462616Y-115858835D01*
X220461773Y-115858978D01*
X220457661Y-115856409D01*
X220452908Y-115849029D01*
X220450896Y-115844806D01*
X220446853Y-115835806D01*
X220441466Y-115823967D01*
X220435673Y-115811343D01*
X220433498Y-115806635D01*
X220428702Y-115795761D01*
X220424948Y-115786265D01*
X220422748Y-115779504D01*
X220422388Y-115777409D01*
X220423298Y-115775450D01*
X220426314Y-115772764D01*
X220431869Y-115769112D01*
X220440395Y-115764252D01*
X220452324Y-115757942D01*
X220468088Y-115749943D01*
X220488119Y-115740011D01*
X220498651Y-115734843D01*
X220520939Y-115724050D01*
X220540083Y-115715027D01*
X220555752Y-115707919D01*
X220567614Y-115702875D01*
X220575336Y-115700039D01*
X220578539Y-115699527D01*
X220580939Y-115702638D01*
G37*
G36*
X220659061Y-115957919D02*
G01*
X220663183Y-115960886D01*
X220665626Y-115965386D01*
X220669082Y-115973887D01*
X220673156Y-115985175D01*
X220677455Y-115998039D01*
X220681587Y-116011265D01*
X220685156Y-116023642D01*
X220687770Y-116033956D01*
X220688964Y-116040329D01*
X220690173Y-116050259D01*
X220670337Y-116056174D01*
X220636170Y-116066355D01*
X220606827Y-116075079D01*
X220581962Y-116082448D01*
X220561227Y-116088561D01*
X220544277Y-116093520D01*
X220530765Y-116097423D01*
X220520346Y-116100372D01*
X220512672Y-116102466D01*
X220507397Y-116103805D01*
X220504175Y-116104491D01*
X220502886Y-116104637D01*
X220499862Y-116103116D01*
X220496885Y-116098037D01*
X220493544Y-116088626D01*
X220492474Y-116085065D01*
X220488711Y-116072294D01*
X220484327Y-116057524D01*
X220480261Y-116043923D01*
X220480211Y-116043758D01*
X220477189Y-116033201D01*
X220474908Y-116024286D01*
X220473751Y-116018539D01*
X220473680Y-116017662D01*
X220474916Y-116015999D01*
X220478884Y-116013668D01*
X220485972Y-116010519D01*
X220496571Y-116006404D01*
X220511069Y-116001171D01*
X220529857Y-115994672D01*
X220553322Y-115986758D01*
X220559391Y-115984732D01*
X220580129Y-115977887D01*
X220599479Y-115971631D01*
X220616783Y-115966165D01*
X220631384Y-115961693D01*
X220642624Y-115958416D01*
X220649848Y-115956537D01*
X220652107Y-115956162D01*
X220659061Y-115957919D01*
G37*
G36*
X222966010Y-116164125D02*
G01*
X222984300Y-116164409D01*
X222998553Y-116164865D01*
X223008376Y-116165478D01*
X223013377Y-116166234D01*
X223013950Y-116166628D01*
X223013265Y-116169594D01*
X223011276Y-116177394D01*
X223008085Y-116189654D01*
X223003792Y-116205997D01*
X222998498Y-116226048D01*
X222992302Y-116249432D01*
X222985307Y-116275773D01*
X222977611Y-116304696D01*
X222969317Y-116335825D01*
X222960523Y-116368785D01*
X222951332Y-116403199D01*
X222941844Y-116438694D01*
X222932159Y-116474893D01*
X222922377Y-116511420D01*
X222912600Y-116547901D01*
X222902928Y-116583960D01*
X222893461Y-116619221D01*
X222884300Y-116653308D01*
X222875546Y-116685847D01*
X222867300Y-116716462D01*
X222859661Y-116744777D01*
X222852730Y-116770417D01*
X222846609Y-116793006D01*
X222841397Y-116812169D01*
X222837196Y-116827530D01*
X222834105Y-116838715D01*
X222832225Y-116845346D01*
X222831667Y-116847114D01*
X222828774Y-116847588D01*
X222821139Y-116848024D01*
X222809422Y-116848421D01*
X222794278Y-116848775D01*
X222776367Y-116849082D01*
X222756346Y-116849339D01*
X222734872Y-116849544D01*
X222712604Y-116849694D01*
X222690200Y-116849784D01*
X222668316Y-116849811D01*
X222647612Y-116849774D01*
X222628744Y-116849667D01*
X222612370Y-116849489D01*
X222599149Y-116849236D01*
X222589738Y-116848905D01*
X222584795Y-116848492D01*
X222584224Y-116848313D01*
X222584354Y-116845325D01*
X222585716Y-116838171D01*
X222588085Y-116827882D01*
X222591238Y-116815491D01*
X222591664Y-116813893D01*
X222595762Y-116798564D01*
X222600033Y-116782556D01*
X222603918Y-116767965D01*
X222606405Y-116758601D01*
X222612309Y-116736330D01*
X222666734Y-116736330D01*
X222721158Y-116736330D01*
X222796112Y-116456252D01*
X222806251Y-116418364D01*
X222816015Y-116381874D01*
X222825311Y-116347127D01*
X222834047Y-116314472D01*
X222842130Y-116284255D01*
X222849467Y-116256822D01*
X222855965Y-116232520D01*
X222861532Y-116211696D01*
X222866075Y-116194696D01*
X222869501Y-116181868D01*
X222871717Y-116173557D01*
X222872632Y-116170111D01*
X222872635Y-116170101D01*
X222874203Y-116164027D01*
X222944077Y-116164027D01*
X222966010Y-116164125D01*
G37*
G36*
X225598798Y-116020276D02*
G01*
X225596732Y-116027641D01*
X225593678Y-116038843D01*
X225590010Y-116052494D01*
X225586103Y-116067207D01*
X225585153Y-116070811D01*
X225581418Y-116084824D01*
X225577979Y-116097384D01*
X225575155Y-116107359D01*
X225573260Y-116113616D01*
X225572891Y-116114679D01*
X225570551Y-116120834D01*
X225382186Y-116120834D01*
X225193821Y-116120834D01*
X225136373Y-116334773D01*
X225127494Y-116367842D01*
X225118996Y-116399493D01*
X225110988Y-116429327D01*
X225103576Y-116456944D01*
X225096869Y-116481943D01*
X225090972Y-116503924D01*
X225085993Y-116522488D01*
X225082041Y-116537235D01*
X225079221Y-116547764D01*
X225077642Y-116553675D01*
X225077353Y-116554767D01*
X225075780Y-116560823D01*
X225264544Y-116561516D01*
X225453308Y-116562209D01*
X225439551Y-116613501D01*
X225435203Y-116629605D01*
X225431229Y-116644128D01*
X225427875Y-116656183D01*
X225425389Y-116664883D01*
X225424018Y-116669340D01*
X225423953Y-116669516D01*
X225423417Y-116670306D01*
X225422250Y-116671004D01*
X225420134Y-116671614D01*
X225416748Y-116672142D01*
X225411773Y-116672595D01*
X225404889Y-116672978D01*
X225395778Y-116673296D01*
X225384118Y-116673557D01*
X225369592Y-116673765D01*
X225351880Y-116673926D01*
X225330661Y-116674047D01*
X225305617Y-116674132D01*
X225276428Y-116674189D01*
X225242775Y-116674221D01*
X225204337Y-116674237D01*
X225164220Y-116674240D01*
X225119531Y-116674227D01*
X225079971Y-116674186D01*
X225045272Y-116674112D01*
X225015163Y-116674003D01*
X224989375Y-116673855D01*
X224967639Y-116673664D01*
X224949685Y-116673427D01*
X224935244Y-116673141D01*
X224924046Y-116672801D01*
X224915822Y-116672404D01*
X224910302Y-116671948D01*
X224907218Y-116671427D01*
X224906297Y-116670866D01*
X224906979Y-116667885D01*
X224908979Y-116660004D01*
X224912211Y-116647537D01*
X224916594Y-116630800D01*
X224922044Y-116610106D01*
X224928477Y-116585771D01*
X224935810Y-116558108D01*
X224943959Y-116527432D01*
X224952843Y-116494058D01*
X224962376Y-116458299D01*
X224972475Y-116420472D01*
X224983058Y-116380889D01*
X224994040Y-116339866D01*
X224994682Y-116337472D01*
X225083098Y-116007453D01*
X225342809Y-116007453D01*
X225602520Y-116007453D01*
X225598798Y-116020276D01*
G37*
G36*
X222580082Y-116164597D02*
G01*
X222611955Y-116164690D01*
X222639660Y-116164841D01*
X222662999Y-116165050D01*
X222681776Y-116165315D01*
X222695792Y-116165634D01*
X222704850Y-116166007D01*
X222708754Y-116166431D01*
X222708901Y-116166537D01*
X222708214Y-116169569D01*
X222706232Y-116177373D01*
X222703072Y-116189510D01*
X222698853Y-116205541D01*
X222693692Y-116225027D01*
X222687709Y-116247531D01*
X222681020Y-116272612D01*
X222673745Y-116299832D01*
X222666000Y-116328752D01*
X222657905Y-116358934D01*
X222649577Y-116389938D01*
X222641135Y-116421325D01*
X222632696Y-116452658D01*
X222624378Y-116483497D01*
X222616300Y-116513403D01*
X222608580Y-116541937D01*
X222601336Y-116568661D01*
X222594686Y-116593136D01*
X222588748Y-116614922D01*
X222583639Y-116633582D01*
X222579479Y-116648676D01*
X222576386Y-116659765D01*
X222574476Y-116666411D01*
X222573915Y-116668166D01*
X222571340Y-116674240D01*
X222325783Y-116674240D01*
X222289853Y-116674219D01*
X222255480Y-116674155D01*
X222223046Y-116674054D01*
X222192931Y-116673917D01*
X222165518Y-116673748D01*
X222141186Y-116673551D01*
X222120319Y-116673327D01*
X222103296Y-116673081D01*
X222090500Y-116672816D01*
X222082311Y-116672534D01*
X222079111Y-116672238D01*
X222079083Y-116672216D01*
X222079608Y-116669377D01*
X222081451Y-116661686D01*
X222084517Y-116649500D01*
X222088713Y-116633178D01*
X222093944Y-116613077D01*
X222100117Y-116589556D01*
X222107136Y-116562973D01*
X222107697Y-116560859D01*
X222248162Y-116560859D01*
X222355193Y-116560859D01*
X222462224Y-116560859D01*
X222499606Y-116422508D01*
X222506755Y-116396067D01*
X222513502Y-116371157D01*
X222519710Y-116348273D01*
X222525246Y-116327908D01*
X222529975Y-116310558D01*
X222533761Y-116296718D01*
X222536471Y-116286883D01*
X222537969Y-116281547D01*
X222538210Y-116280751D01*
X222537533Y-116279875D01*
X222534533Y-116279171D01*
X222528796Y-116278629D01*
X222519908Y-116278238D01*
X222507454Y-116277987D01*
X222491021Y-116277867D01*
X222470195Y-116277866D01*
X222444560Y-116277975D01*
X222432087Y-116278051D01*
X222324742Y-116278757D01*
X222286452Y-116419808D01*
X222248162Y-116560859D01*
X222107697Y-116560859D01*
X222114908Y-116533687D01*
X222123339Y-116502055D01*
X222132335Y-116468436D01*
X222141801Y-116433189D01*
X222145949Y-116417784D01*
X222213958Y-116165376D01*
X222461430Y-116164687D01*
X222504622Y-116164595D01*
X222544239Y-116164565D01*
X222580082Y-116164597D01*
G37*
G36*
X221892036Y-116170101D02*
G01*
X221890039Y-116176690D01*
X221887171Y-116186713D01*
X221883678Y-116199242D01*
X221879811Y-116213351D01*
X221875818Y-116228114D01*
X221871948Y-116242603D01*
X221868449Y-116255892D01*
X221865569Y-116267053D01*
X221863558Y-116275161D01*
X221862664Y-116279288D01*
X221862655Y-116279616D01*
X221864822Y-116278150D01*
X221870630Y-116273596D01*
X221879596Y-116266348D01*
X221891237Y-116256802D01*
X221905070Y-116245355D01*
X221920610Y-116232400D01*
X221932720Y-116222251D01*
X222002027Y-116164027D01*
X222078761Y-116164027D01*
X222098487Y-116164068D01*
X222116335Y-116164183D01*
X222131628Y-116164362D01*
X222143687Y-116164595D01*
X222151835Y-116164870D01*
X222155394Y-116165176D01*
X222155495Y-116165239D01*
X222153478Y-116167121D01*
X222147632Y-116172216D01*
X222138259Y-116180267D01*
X222125665Y-116191015D01*
X222110155Y-116204200D01*
X222092033Y-116219566D01*
X222071603Y-116236853D01*
X222049170Y-116255803D01*
X222025039Y-116276158D01*
X221999515Y-116297660D01*
X221984749Y-116310086D01*
X221814003Y-116453720D01*
X221786503Y-116553857D01*
X221780247Y-116576619D01*
X221774334Y-116598095D01*
X221768943Y-116617646D01*
X221764248Y-116634631D01*
X221760429Y-116648409D01*
X221757661Y-116658340D01*
X221756122Y-116663785D01*
X221756025Y-116664117D01*
X221753046Y-116674240D01*
X221685666Y-116674240D01*
X221664606Y-116674204D01*
X221648350Y-116674070D01*
X221636305Y-116673803D01*
X221627878Y-116673367D01*
X221622474Y-116672727D01*
X221619500Y-116671847D01*
X221618361Y-116670691D01*
X221618286Y-116670187D01*
X221618980Y-116667263D01*
X221620983Y-116659569D01*
X221624175Y-116647542D01*
X221628438Y-116631619D01*
X221633652Y-116612237D01*
X221639699Y-116589832D01*
X221646459Y-116564841D01*
X221653814Y-116537702D01*
X221661645Y-116508851D01*
X221669832Y-116478725D01*
X221678256Y-116447761D01*
X221686799Y-116416395D01*
X221695342Y-116385066D01*
X221703765Y-116354209D01*
X221711949Y-116324261D01*
X221719776Y-116295660D01*
X221727126Y-116268841D01*
X221733881Y-116244244D01*
X221739921Y-116222303D01*
X221745127Y-116203455D01*
X221749381Y-116188139D01*
X221752563Y-116176790D01*
X221754555Y-116169846D01*
X221754883Y-116168751D01*
X221755692Y-116167301D01*
X221757540Y-116166181D01*
X221761051Y-116165347D01*
X221766848Y-116164760D01*
X221775555Y-116164376D01*
X221787795Y-116164154D01*
X221804192Y-116164051D01*
X221825165Y-116164027D01*
X221894003Y-116164027D01*
X221892036Y-116170101D01*
G37*
G36*
X220329377Y-116229417D02*
G01*
X220331265Y-116231680D01*
X220333160Y-116236263D01*
X220335265Y-116243835D01*
X220337779Y-116255064D01*
X220340904Y-116270616D01*
X220342736Y-116280107D01*
X220345101Y-116292666D01*
X220346885Y-116303113D01*
X220348149Y-116312492D01*
X220348952Y-116321850D01*
X220349353Y-116332234D01*
X220349412Y-116344689D01*
X220349188Y-116360262D01*
X220348741Y-116379999D01*
X220348642Y-116384039D01*
X220347093Y-116426039D01*
X220344491Y-116471161D01*
X220340946Y-116518367D01*
X220336570Y-116566619D01*
X220331474Y-116614878D01*
X220325769Y-116662107D01*
X220319566Y-116707266D01*
X220312978Y-116749317D01*
X220306114Y-116787221D01*
X220304686Y-116794370D01*
X220300679Y-116812937D01*
X220295672Y-116834384D01*
X220290005Y-116857395D01*
X220284019Y-116880654D01*
X220278053Y-116902846D01*
X220272447Y-116922655D01*
X220267542Y-116938766D01*
X220266653Y-116941495D01*
X220259066Y-116964441D01*
X220181454Y-116965157D01*
X220161612Y-116965272D01*
X220143644Y-116965243D01*
X220128224Y-116965083D01*
X220116025Y-116964803D01*
X220107722Y-116964415D01*
X220103987Y-116963932D01*
X220103846Y-116963808D01*
X220104811Y-116960661D01*
X220107449Y-116953527D01*
X220111375Y-116943412D01*
X220116205Y-116931322D01*
X220117065Y-116929200D01*
X220129137Y-116897561D01*
X220139852Y-116865214D01*
X220149470Y-116831174D01*
X220158252Y-116794456D01*
X220166459Y-116754078D01*
X220172507Y-116720133D01*
X220180219Y-116670567D01*
X220186796Y-116620127D01*
X220192115Y-116570075D01*
X220196055Y-116521676D01*
X220198491Y-116476193D01*
X220199256Y-116445016D01*
X220199377Y-116428956D01*
X220199277Y-116417182D01*
X220198820Y-116408585D01*
X220197870Y-116402054D01*
X220196291Y-116396477D01*
X220193945Y-116390744D01*
X220192100Y-116386739D01*
X220184091Y-116372052D01*
X220174774Y-116360537D01*
X220162514Y-116350334D01*
X220156379Y-116346178D01*
X220150051Y-116341902D01*
X220145716Y-116338040D01*
X220142574Y-116333277D01*
X220139822Y-116326299D01*
X220136659Y-116315791D01*
X220135611Y-116312108D01*
X220132261Y-116299580D01*
X220130598Y-116291253D01*
X220130498Y-116286243D01*
X220131666Y-116283818D01*
X220134790Y-116282548D01*
X220142414Y-116280070D01*
X220153828Y-116276585D01*
X220168320Y-116272292D01*
X220185178Y-116267392D01*
X220203690Y-116262085D01*
X220223146Y-116256571D01*
X220242834Y-116251050D01*
X220262042Y-116245722D01*
X220280059Y-116240787D01*
X220296173Y-116236445D01*
X220309673Y-116232896D01*
X220319847Y-116230341D01*
X220325984Y-116228979D01*
X220327296Y-116228808D01*
X220329377Y-116229417D01*
G37*
G36*
X220391731Y-115794575D02*
G01*
X220395849Y-115801089D01*
X220401038Y-115810527D01*
X220406833Y-115821902D01*
X220412769Y-115834227D01*
X220418379Y-115846515D01*
X220423199Y-115857778D01*
X220426762Y-115867031D01*
X220428603Y-115873285D01*
X220428540Y-115875450D01*
X220425727Y-115876907D01*
X220418189Y-115880469D01*
X220406135Y-115886044D01*
X220389772Y-115893538D01*
X220369305Y-115902859D01*
X220344944Y-115913913D01*
X220316895Y-115926607D01*
X220285365Y-115940847D01*
X220250561Y-115956542D01*
X220212691Y-115973598D01*
X220171961Y-115991921D01*
X220128579Y-116011419D01*
X220082753Y-116031998D01*
X220034688Y-116053566D01*
X219984594Y-116076029D01*
X219932675Y-116099294D01*
X219879141Y-116123268D01*
X219824198Y-116147858D01*
X219768053Y-116172971D01*
X219710913Y-116198514D01*
X219652986Y-116224394D01*
X219594478Y-116250517D01*
X219535597Y-116276791D01*
X219509943Y-116288233D01*
X219476790Y-116303019D01*
X219444739Y-116317317D01*
X219414175Y-116330954D01*
X219385483Y-116343758D01*
X219359047Y-116355558D01*
X219335254Y-116366181D01*
X219314488Y-116375456D01*
X219297133Y-116383211D01*
X219283577Y-116389273D01*
X219274202Y-116393472D01*
X219269534Y-116395571D01*
X219257542Y-116400868D01*
X219249237Y-116404069D01*
X219243468Y-116405468D01*
X219239080Y-116405357D01*
X219235441Y-116404242D01*
X219228797Y-116398978D01*
X219224715Y-116390669D01*
X219223679Y-116381251D01*
X219226174Y-116372662D01*
X219227166Y-116371180D01*
X219230228Y-116369115D01*
X219237655Y-116364969D01*
X219248942Y-116358999D01*
X219263587Y-116351461D01*
X219281087Y-116342613D01*
X219300940Y-116332710D01*
X219322642Y-116322010D01*
X219341222Y-116312940D01*
X219355196Y-116306108D01*
X219373682Y-116297006D01*
X219396369Y-116285790D01*
X219422945Y-116272615D01*
X219453097Y-116257637D01*
X219486515Y-116241011D01*
X219522887Y-116222893D01*
X219561900Y-116203438D01*
X219603244Y-116182802D01*
X219646607Y-116161140D01*
X219691676Y-116138607D01*
X219738141Y-116115360D01*
X219785689Y-116091553D01*
X219834009Y-116067342D01*
X219882790Y-116042883D01*
X219918211Y-116025111D01*
X219965329Y-116001479D01*
X220011187Y-115978512D01*
X220055548Y-115956326D01*
X220098177Y-115935038D01*
X220138840Y-115914764D01*
X220177300Y-115895621D01*
X220213323Y-115877724D01*
X220246674Y-115861191D01*
X220277116Y-115846138D01*
X220304416Y-115832681D01*
X220328337Y-115820937D01*
X220348645Y-115811022D01*
X220365105Y-115803052D01*
X220377480Y-115797145D01*
X220385536Y-115793416D01*
X220389038Y-115791982D01*
X220389152Y-115791971D01*
X220391731Y-115794575D01*
G37*
G36*
X221373977Y-116007518D02*
G01*
X221646631Y-116007527D01*
X221664799Y-116036822D01*
X221671820Y-116048261D01*
X221677838Y-116058284D01*
X221682250Y-116065872D01*
X221684452Y-116070004D01*
X221684524Y-116070178D01*
X221684112Y-116073444D01*
X221682385Y-116081455D01*
X221679462Y-116093749D01*
X221675459Y-116109864D01*
X221670495Y-116129341D01*
X221664687Y-116151717D01*
X221658152Y-116176531D01*
X221651010Y-116203322D01*
X221643376Y-116231629D01*
X221642953Y-116233188D01*
X221635179Y-116261841D01*
X221627758Y-116289208D01*
X221620821Y-116314798D01*
X221614502Y-116338121D01*
X221608932Y-116358688D01*
X221604246Y-116376006D01*
X221600575Y-116389587D01*
X221598053Y-116398939D01*
X221596813Y-116403573D01*
X221596811Y-116403578D01*
X221595485Y-116407816D01*
X221593526Y-116411604D01*
X221590286Y-116415531D01*
X221585118Y-116420187D01*
X221577373Y-116426162D01*
X221566402Y-116434045D01*
X221553038Y-116443397D01*
X221512276Y-116471775D01*
X221315649Y-116471775D01*
X221119021Y-116471775D01*
X221115009Y-116485947D01*
X221113319Y-116492082D01*
X221110455Y-116502663D01*
X221106625Y-116516918D01*
X221102036Y-116534073D01*
X221096894Y-116553356D01*
X221091407Y-116573992D01*
X221089161Y-116582456D01*
X221083746Y-116602858D01*
X221078730Y-116621719D01*
X221074295Y-116638367D01*
X221070617Y-116652133D01*
X221067877Y-116662345D01*
X221066253Y-116668333D01*
X221065921Y-116669516D01*
X221065132Y-116670952D01*
X221063314Y-116672065D01*
X221059849Y-116672896D01*
X221054121Y-116673486D01*
X221045513Y-116673874D01*
X221033410Y-116674103D01*
X221017193Y-116674211D01*
X220996248Y-116674240D01*
X220994195Y-116674240D01*
X220923874Y-116674240D01*
X220925458Y-116668166D01*
X220926340Y-116664839D01*
X220928526Y-116656614D01*
X220931931Y-116643811D01*
X220936470Y-116626750D01*
X220942058Y-116605749D01*
X220948610Y-116581129D01*
X220956041Y-116553209D01*
X220964266Y-116522309D01*
X220973199Y-116488747D01*
X220982757Y-116452845D01*
X220992853Y-116414921D01*
X221003402Y-116375294D01*
X221007890Y-116358436D01*
X221149007Y-116358436D01*
X221310056Y-116357740D01*
X221471106Y-116357044D01*
X221493414Y-116273358D01*
X221499382Y-116250971D01*
X221505372Y-116228504D01*
X221511115Y-116206960D01*
X221516344Y-116187344D01*
X221520792Y-116170662D01*
X221524189Y-116157918D01*
X221524900Y-116155253D01*
X221534077Y-116120834D01*
X221373041Y-116120849D01*
X221212005Y-116120865D01*
X221190728Y-116201161D01*
X221184814Y-116223475D01*
X221178794Y-116246188D01*
X221172958Y-116268197D01*
X221167601Y-116288398D01*
X221163014Y-116305687D01*
X221159490Y-116318963D01*
X221159229Y-116319946D01*
X221149007Y-116358436D01*
X221007890Y-116358436D01*
X221014183Y-116334801D01*
X221101324Y-116007510D01*
X221373977Y-116007518D01*
G37*
G36*
X220439129Y-116028164D02*
G01*
X220442220Y-116033858D01*
X220446268Y-116043811D01*
X220451435Y-116058402D01*
X220454775Y-116068428D01*
X220459350Y-116082721D01*
X220463164Y-116095295D01*
X220465954Y-116105226D01*
X220467455Y-116111591D01*
X220467606Y-116113408D01*
X220464858Y-116114878D01*
X220457578Y-116117582D01*
X220446438Y-116121304D01*
X220432107Y-116125828D01*
X220415255Y-116130938D01*
X220396552Y-116136419D01*
X220393897Y-116137182D01*
X220336816Y-116153559D01*
X220284569Y-116168545D01*
X220236801Y-116182241D01*
X220193160Y-116194750D01*
X220153289Y-116206171D01*
X220116835Y-116216606D01*
X220083443Y-116226157D01*
X220052759Y-116234925D01*
X220024429Y-116243011D01*
X219998097Y-116250517D01*
X219973410Y-116257543D01*
X219950013Y-116264192D01*
X219927551Y-116270563D01*
X219905671Y-116276760D01*
X219889229Y-116281409D01*
X219858287Y-116290162D01*
X219823635Y-116299978D01*
X219786753Y-116310437D01*
X219749124Y-116321118D01*
X219712228Y-116331601D01*
X219677546Y-116341465D01*
X219646559Y-116350290D01*
X219646270Y-116350373D01*
X219619481Y-116358002D01*
X219592497Y-116365673D01*
X219566136Y-116373155D01*
X219541215Y-116380215D01*
X219518552Y-116386623D01*
X219498965Y-116392147D01*
X219483271Y-116396555D01*
X219476199Y-116398530D01*
X219460236Y-116402976D01*
X219440364Y-116408515D01*
X219417873Y-116414785D01*
X219394054Y-116421428D01*
X219370197Y-116428084D01*
X219349651Y-116433818D01*
X219329741Y-116439316D01*
X219311270Y-116444304D01*
X219294947Y-116448599D01*
X219281478Y-116452020D01*
X219271571Y-116454384D01*
X219265933Y-116455509D01*
X219265168Y-116455577D01*
X219258787Y-116453719D01*
X219252287Y-116449219D01*
X219252014Y-116448951D01*
X219246824Y-116440989D01*
X219245186Y-116432160D01*
X219247134Y-116424180D01*
X219251462Y-116419454D01*
X219255070Y-116417936D01*
X219263346Y-116414908D01*
X219275821Y-116410529D01*
X219292028Y-116404958D01*
X219311499Y-116398353D01*
X219333767Y-116390873D01*
X219358363Y-116382676D01*
X219384821Y-116373922D01*
X219411410Y-116365182D01*
X219431400Y-116358618D01*
X219456110Y-116350484D01*
X219485134Y-116340911D01*
X219518070Y-116330034D01*
X219554513Y-116317986D01*
X219594059Y-116304902D01*
X219636305Y-116290916D01*
X219680847Y-116276160D01*
X219727282Y-116260768D01*
X219775204Y-116244876D01*
X219824211Y-116228615D01*
X219873898Y-116212120D01*
X219923863Y-116195525D01*
X219973700Y-116178964D01*
X219998988Y-116170557D01*
X220045777Y-116155007D01*
X220091207Y-116139925D01*
X220135012Y-116125398D01*
X220176925Y-116111514D01*
X220216679Y-116098361D01*
X220254007Y-116086026D01*
X220288642Y-116074598D01*
X220320317Y-116064164D01*
X220348766Y-116054813D01*
X220373722Y-116046633D01*
X220394917Y-116039710D01*
X220412085Y-116034133D01*
X220424960Y-116029991D01*
X220433273Y-116027370D01*
X220436759Y-116026359D01*
X220436834Y-116026350D01*
X220439129Y-116028164D01*
G37*
G36*
X219526482Y-115959377D02*
G01*
X219565407Y-115959416D01*
X219601668Y-115959479D01*
X219634971Y-115959566D01*
X219665024Y-115959676D01*
X219691535Y-115959807D01*
X219714209Y-115959959D01*
X219732754Y-115960131D01*
X219746878Y-115960322D01*
X219756287Y-115960531D01*
X219760688Y-115960756D01*
X219760992Y-115960836D01*
X219758619Y-115962275D01*
X219751702Y-115965953D01*
X219740539Y-115971719D01*
X219725427Y-115979424D01*
X219706664Y-115988917D01*
X219684550Y-116000051D01*
X219659382Y-116012674D01*
X219631457Y-116026638D01*
X219601075Y-116041792D01*
X219568532Y-116057988D01*
X219534128Y-116075075D01*
X219498160Y-116092905D01*
X219474583Y-116104573D01*
X219429716Y-116126781D01*
X219389465Y-116146738D01*
X219353596Y-116164566D01*
X219321875Y-116180383D01*
X219294065Y-116194311D01*
X219269934Y-116206470D01*
X219249246Y-116216980D01*
X219231766Y-116225961D01*
X219217261Y-116233533D01*
X219205496Y-116239818D01*
X219196236Y-116244934D01*
X219189246Y-116249002D01*
X219184292Y-116252143D01*
X219181140Y-116254477D01*
X219179944Y-116255620D01*
X219174460Y-116263049D01*
X219168305Y-116273144D01*
X219163329Y-116282679D01*
X219159282Y-116291770D01*
X219156794Y-116299434D01*
X219155495Y-116307577D01*
X219155018Y-116318108D01*
X219154973Y-116325999D01*
X219155159Y-116338729D01*
X219155951Y-116348006D01*
X219157735Y-116355771D01*
X219160897Y-116363965D01*
X219163759Y-116370198D01*
X219169652Y-116381636D01*
X219176391Y-116393203D01*
X219182008Y-116401668D01*
X219190696Y-116417207D01*
X219196845Y-116435523D01*
X219204618Y-116458272D01*
X219215439Y-116476857D01*
X219229707Y-116491662D01*
X219247825Y-116503069D01*
X219270193Y-116511463D01*
X219278531Y-116513626D01*
X219294783Y-116516741D01*
X219307587Y-116517343D01*
X219318313Y-116515356D01*
X219327993Y-116510903D01*
X219334792Y-116507402D01*
X219339465Y-116505898D01*
X219340608Y-116506179D01*
X219340844Y-116509909D01*
X219340338Y-116517966D01*
X219339215Y-116529348D01*
X219337599Y-116543053D01*
X219335614Y-116558078D01*
X219333386Y-116573422D01*
X219331039Y-116588082D01*
X219329027Y-116599343D01*
X219321945Y-116631175D01*
X219313150Y-116660009D01*
X219302035Y-116687268D01*
X219287992Y-116714375D01*
X219270414Y-116742754D01*
X219263333Y-116753221D01*
X219243540Y-116782854D01*
X219227257Y-116809415D01*
X219214174Y-116833645D01*
X219203981Y-116856287D01*
X219196367Y-116878084D01*
X219191023Y-116899777D01*
X219187638Y-116922110D01*
X219186333Y-116937446D01*
X219184648Y-116964441D01*
X218996324Y-116965134D01*
X218807999Y-116965828D01*
X218808705Y-116517010D01*
X218809412Y-116068193D01*
X218816540Y-116052990D01*
X218823409Y-116041459D01*
X218833641Y-116028184D01*
X218846091Y-116014391D01*
X218859613Y-116001307D01*
X218873062Y-115990160D01*
X218879300Y-115985762D01*
X218890356Y-115979412D01*
X218903797Y-115972968D01*
X218916804Y-115967777D01*
X218917393Y-115967574D01*
X218938990Y-115960211D01*
X219349995Y-115959486D01*
X219396649Y-115959417D01*
X219441810Y-115959376D01*
X219485185Y-115959363D01*
X219526482Y-115959377D01*
G37*
G36*
X224010000Y-116164029D02*
G01*
X224045168Y-116164041D01*
X224075611Y-116164070D01*
X224101668Y-116164125D01*
X224123674Y-116164213D01*
X224141968Y-116164343D01*
X224156887Y-116164521D01*
X224168768Y-116164757D01*
X224177949Y-116165057D01*
X224184766Y-116165430D01*
X224189557Y-116165884D01*
X224192660Y-116166426D01*
X224194411Y-116167065D01*
X224195148Y-116167808D01*
X224195209Y-116168663D01*
X224195043Y-116169291D01*
X224193849Y-116173461D01*
X224191621Y-116181608D01*
X224188611Y-116192776D01*
X224185071Y-116206010D01*
X224181257Y-116220354D01*
X224177419Y-116234852D01*
X224173813Y-116248548D01*
X224170691Y-116260487D01*
X224168306Y-116269712D01*
X224166911Y-116275268D01*
X224166655Y-116276449D01*
X224164034Y-116276624D01*
X224156490Y-116276789D01*
X224144497Y-116276940D01*
X224128531Y-116277075D01*
X224109067Y-116277191D01*
X224086580Y-116277285D01*
X224061545Y-116277355D01*
X224034437Y-116277396D01*
X224010524Y-116277407D01*
X223854393Y-116277407D01*
X223823888Y-116391463D01*
X223817170Y-116416581D01*
X223810611Y-116441097D01*
X223804403Y-116464301D01*
X223798736Y-116485478D01*
X223793801Y-116503915D01*
X223789789Y-116518901D01*
X223786890Y-116529722D01*
X223785960Y-116533189D01*
X223778537Y-116560859D01*
X223934393Y-116560859D01*
X224090248Y-116560859D01*
X224076166Y-116613326D01*
X224071783Y-116629570D01*
X224067792Y-116644197D01*
X224064432Y-116656341D01*
X224061944Y-116665139D01*
X224060566Y-116669726D01*
X224060463Y-116670017D01*
X224059762Y-116670776D01*
X224058053Y-116671439D01*
X224055002Y-116672013D01*
X224050269Y-116672505D01*
X224043519Y-116672919D01*
X224034415Y-116673263D01*
X224022619Y-116673543D01*
X224007795Y-116673766D01*
X223989605Y-116673937D01*
X223967713Y-116674062D01*
X223941782Y-116674149D01*
X223911474Y-116674204D01*
X223876454Y-116674232D01*
X223836383Y-116674240D01*
X223834855Y-116674240D01*
X223800566Y-116674216D01*
X223767847Y-116674147D01*
X223737099Y-116674037D01*
X223708722Y-116673888D01*
X223683115Y-116673704D01*
X223660677Y-116673490D01*
X223641809Y-116673249D01*
X223626911Y-116672983D01*
X223616381Y-116672698D01*
X223610620Y-116672396D01*
X223609621Y-116672216D01*
X223610127Y-116669376D01*
X223611942Y-116661681D01*
X223614974Y-116649493D01*
X223619127Y-116633169D01*
X223624310Y-116613069D01*
X223630428Y-116589553D01*
X223637387Y-116562980D01*
X223645094Y-116533710D01*
X223653455Y-116502102D01*
X223662376Y-116468516D01*
X223671765Y-116433311D01*
X223675556Y-116419133D01*
X223685117Y-116383386D01*
X223694272Y-116349117D01*
X223702926Y-116316686D01*
X223710985Y-116286453D01*
X223718351Y-116258776D01*
X223724930Y-116234017D01*
X223730627Y-116212535D01*
X223735345Y-116194688D01*
X223738989Y-116180837D01*
X223741463Y-116171341D01*
X223742673Y-116166560D01*
X223742781Y-116166051D01*
X223745422Y-116165744D01*
X223753068Y-116165450D01*
X223765324Y-116165175D01*
X223781796Y-116164920D01*
X223802090Y-116164690D01*
X223825812Y-116164489D01*
X223852568Y-116164319D01*
X223881962Y-116164185D01*
X223913601Y-116164090D01*
X223947091Y-116164037D01*
X223969770Y-116164027D01*
X224010000Y-116164029D01*
G37*
G36*
X218605596Y-116782195D02*
G01*
X218605596Y-116995478D01*
X219564609Y-116996157D01*
X220523621Y-116996836D01*
X220524357Y-117046102D01*
X220525093Y-117095369D01*
X219353430Y-117095369D01*
X218181768Y-117095369D01*
X218181768Y-117071073D01*
X218181768Y-117046777D01*
X218152073Y-117046777D01*
X218122378Y-117046777D01*
X218122378Y-117040028D01*
X218122378Y-117033279D01*
X219287231Y-117033279D01*
X219396202Y-117033273D01*
X219499846Y-117033254D01*
X219598158Y-117033223D01*
X219691135Y-117033179D01*
X219778774Y-117033123D01*
X219861070Y-117033055D01*
X219938020Y-117032973D01*
X220009621Y-117032880D01*
X220075869Y-117032774D01*
X220136760Y-117032655D01*
X220192291Y-117032524D01*
X220242458Y-117032381D01*
X220287257Y-117032225D01*
X220326686Y-117032057D01*
X220360740Y-117031877D01*
X220389416Y-117031684D01*
X220412710Y-117031478D01*
X220430619Y-117031261D01*
X220443138Y-117031031D01*
X220450266Y-117030788D01*
X220452083Y-117030580D01*
X220449385Y-117030327D01*
X220441290Y-117030087D01*
X220427804Y-117029859D01*
X220408929Y-117029644D01*
X220384670Y-117029441D01*
X220355029Y-117029250D01*
X220320011Y-117029072D01*
X220279619Y-117028906D01*
X220233857Y-117028752D01*
X220182728Y-117028611D01*
X220126236Y-117028482D01*
X220064384Y-117028366D01*
X219997176Y-117028262D01*
X219924616Y-117028171D01*
X219846707Y-117028092D01*
X219763452Y-117028026D01*
X219674856Y-117027972D01*
X219580922Y-117027930D01*
X219481654Y-117027901D01*
X219377055Y-117027885D01*
X219287231Y-117027880D01*
X218122378Y-117027880D01*
X218122378Y-116963091D01*
X218122378Y-116898302D01*
X218361287Y-116898302D01*
X218403032Y-116898294D01*
X218439698Y-116898267D01*
X218471606Y-116898214D01*
X218499076Y-116898131D01*
X218522428Y-116898011D01*
X218541983Y-116897851D01*
X218558061Y-116897643D01*
X218570983Y-116897383D01*
X218581069Y-116897066D01*
X218588640Y-116896686D01*
X218594015Y-116896237D01*
X218597516Y-116895714D01*
X218599462Y-116895111D01*
X218600174Y-116894424D01*
X218600197Y-116894253D01*
X218599724Y-116893545D01*
X218598090Y-116892924D01*
X218594976Y-116892383D01*
X218590061Y-116891918D01*
X218583024Y-116891522D01*
X218573546Y-116891190D01*
X218561305Y-116890918D01*
X218545982Y-116890699D01*
X218527256Y-116890528D01*
X218504806Y-116890400D01*
X218478313Y-116890308D01*
X218447456Y-116890249D01*
X218411914Y-116890216D01*
X218371367Y-116890204D01*
X218361287Y-116890204D01*
X218122378Y-116890204D01*
X218122378Y-116869957D01*
X218122378Y-116849711D01*
X218361287Y-116849711D01*
X218403032Y-116849703D01*
X218439698Y-116849675D01*
X218471606Y-116849622D01*
X218499076Y-116849539D01*
X218522428Y-116849420D01*
X218541983Y-116849259D01*
X218558061Y-116849051D01*
X218570983Y-116848792D01*
X218581069Y-116848474D01*
X218588640Y-116848094D01*
X218594015Y-116847645D01*
X218597516Y-116847122D01*
X218599462Y-116846519D01*
X218600174Y-116845832D01*
X218600197Y-116845661D01*
X218599724Y-116844954D01*
X218598090Y-116844332D01*
X218594976Y-116843791D01*
X218590061Y-116843326D01*
X218583024Y-116842930D01*
X218573546Y-116842599D01*
X218561305Y-116842326D01*
X218545982Y-116842107D01*
X218527256Y-116841936D01*
X218504806Y-116841808D01*
X218478313Y-116841717D01*
X218447456Y-116841657D01*
X218411914Y-116841624D01*
X218371367Y-116841612D01*
X218361287Y-116841612D01*
X218122378Y-116841612D01*
X218122378Y-116775473D01*
X218122378Y-116709334D01*
X218216816Y-116709334D01*
X218311255Y-116709334D01*
X218311975Y-116639821D01*
X218312696Y-116570308D01*
X218459146Y-116569610D01*
X218605596Y-116568912D01*
X218605596Y-116782195D01*
G37*
G36*
X223595471Y-116191912D02*
G01*
X223602327Y-116202981D01*
X223607932Y-116212632D01*
X223611719Y-116219844D01*
X223613119Y-116223594D01*
X223613118Y-116223632D01*
X223612408Y-116226975D01*
X223610432Y-116234976D01*
X223607335Y-116247080D01*
X223603260Y-116262733D01*
X223598353Y-116281380D01*
X223592759Y-116302468D01*
X223586623Y-116325442D01*
X223582608Y-116340394D01*
X223552228Y-116453322D01*
X223517274Y-116475371D01*
X223482320Y-116497420D01*
X223339414Y-116498770D01*
X223196508Y-116500120D01*
X223190395Y-116524416D01*
X223187508Y-116535886D01*
X223184977Y-116545943D01*
X223183195Y-116553020D01*
X223182750Y-116554785D01*
X223181219Y-116560859D01*
X223363489Y-116560859D01*
X223400688Y-116560878D01*
X223432806Y-116560939D01*
X223460160Y-116561048D01*
X223483069Y-116561211D01*
X223501851Y-116561433D01*
X223516823Y-116561721D01*
X223528303Y-116562080D01*
X223536610Y-116562517D01*
X223542060Y-116563036D01*
X223544973Y-116563645D01*
X223545690Y-116564234D01*
X223544994Y-116567772D01*
X223543093Y-116575675D01*
X223540200Y-116587101D01*
X223536531Y-116601206D01*
X223532299Y-116617147D01*
X223531466Y-116620249D01*
X223517312Y-116672891D01*
X223264281Y-116673579D01*
X223222554Y-116673667D01*
X223183830Y-116673696D01*
X223148360Y-116673668D01*
X223116393Y-116673585D01*
X223088180Y-116673449D01*
X223063971Y-116673261D01*
X223044014Y-116673024D01*
X223028561Y-116672738D01*
X223017861Y-116672407D01*
X223012164Y-116672031D01*
X223011250Y-116671791D01*
X223011928Y-116668989D01*
X223013884Y-116661407D01*
X223017002Y-116649482D01*
X223021166Y-116633650D01*
X223026259Y-116614347D01*
X223032167Y-116592009D01*
X223038771Y-116567074D01*
X223045958Y-116539977D01*
X223053609Y-116511155D01*
X223061609Y-116481043D01*
X223069843Y-116450079D01*
X223078193Y-116418698D01*
X223086544Y-116387338D01*
X223087963Y-116382015D01*
X223229932Y-116382015D01*
X223231032Y-116382910D01*
X223234619Y-116383643D01*
X223241103Y-116384228D01*
X223250896Y-116384677D01*
X223264410Y-116385005D01*
X223282056Y-116385224D01*
X223304245Y-116385347D01*
X223331389Y-116385389D01*
X223333742Y-116385389D01*
X223437570Y-116385389D01*
X223440264Y-116375266D01*
X223441910Y-116369107D01*
X223444635Y-116358940D01*
X223448117Y-116345972D01*
X223452030Y-116331407D01*
X223453847Y-116324649D01*
X223457607Y-116310464D01*
X223460807Y-116298000D01*
X223463203Y-116288242D01*
X223464550Y-116282176D01*
X223464755Y-116280782D01*
X223463654Y-116279886D01*
X223460068Y-116279153D01*
X223453584Y-116278569D01*
X223443790Y-116278119D01*
X223430277Y-116277792D01*
X223412631Y-116277573D01*
X223390442Y-116277449D01*
X223363298Y-116277408D01*
X223360945Y-116277407D01*
X223257117Y-116277407D01*
X223254423Y-116287531D01*
X223252777Y-116293690D01*
X223250051Y-116303857D01*
X223246570Y-116316825D01*
X223242657Y-116331389D01*
X223240840Y-116338147D01*
X223237080Y-116352333D01*
X223233879Y-116364797D01*
X223231483Y-116374555D01*
X223230136Y-116380621D01*
X223229932Y-116382015D01*
X223087963Y-116382015D01*
X223094780Y-116356433D01*
X223102784Y-116326421D01*
X223110441Y-116297738D01*
X223117633Y-116270820D01*
X223124246Y-116246103D01*
X223130163Y-116224024D01*
X223135267Y-116205019D01*
X223139443Y-116189525D01*
X223142575Y-116177977D01*
X223144546Y-116170813D01*
X223145139Y-116168751D01*
X223145640Y-116167891D01*
X223146812Y-116167142D01*
X223149004Y-116166496D01*
X223152566Y-116165946D01*
X223157846Y-116165484D01*
X223165194Y-116165102D01*
X223174958Y-116164793D01*
X223187489Y-116164549D01*
X223203136Y-116164362D01*
X223222247Y-116164226D01*
X223245171Y-116164132D01*
X223272259Y-116164073D01*
X223303858Y-116164041D01*
X223340320Y-116164028D01*
X223362143Y-116164027D01*
X223577695Y-116164027D01*
X223595471Y-116191912D01*
G37*
G36*
X224570391Y-116007863D02*
G01*
X224579112Y-116008110D01*
X224584799Y-116008574D01*
X224588045Y-116009290D01*
X224589441Y-116010292D01*
X224589578Y-116011616D01*
X224589447Y-116012132D01*
X224587936Y-116017483D01*
X224585394Y-116026813D01*
X224582036Y-116039315D01*
X224578073Y-116054183D01*
X224573718Y-116070610D01*
X224569183Y-116087787D01*
X224564681Y-116104909D01*
X224560424Y-116121169D01*
X224556625Y-116135758D01*
X224553496Y-116147870D01*
X224551249Y-116156698D01*
X224550098Y-116161436D01*
X224549991Y-116162002D01*
X224552570Y-116162556D01*
X224559823Y-116163052D01*
X224571029Y-116163469D01*
X224585462Y-116163784D01*
X224602400Y-116163976D01*
X224617319Y-116164027D01*
X224635821Y-116164104D01*
X224652472Y-116164323D01*
X224666530Y-116164662D01*
X224677256Y-116165097D01*
X224683909Y-116165608D01*
X224685800Y-116166051D01*
X224685499Y-116169187D01*
X224683960Y-116176661D01*
X224681387Y-116187609D01*
X224677980Y-116201166D01*
X224674254Y-116215318D01*
X224670043Y-116231017D01*
X224666210Y-116245363D01*
X224663021Y-116257357D01*
X224660742Y-116265998D01*
X224659713Y-116269984D01*
X224657869Y-116277407D01*
X224587732Y-116277407D01*
X224568910Y-116277464D01*
X224551996Y-116277624D01*
X224537701Y-116277871D01*
X224526732Y-116278190D01*
X224519799Y-116278565D01*
X224517595Y-116278947D01*
X224516916Y-116281776D01*
X224514967Y-116289328D01*
X224511877Y-116301113D01*
X224507775Y-116316640D01*
X224502793Y-116335420D01*
X224497061Y-116356960D01*
X224490707Y-116380771D01*
X224483862Y-116406363D01*
X224481151Y-116416483D01*
X224474147Y-116442674D01*
X224467585Y-116467312D01*
X224461596Y-116489903D01*
X224456310Y-116509950D01*
X224451857Y-116526954D01*
X224448369Y-116540421D01*
X224445974Y-116549853D01*
X224444804Y-116554753D01*
X224444708Y-116555320D01*
X224447256Y-116556322D01*
X224454943Y-116557105D01*
X224467831Y-116557670D01*
X224485980Y-116558020D01*
X224509453Y-116558157D01*
X224513546Y-116558160D01*
X224532184Y-116558236D01*
X224548905Y-116558449D01*
X224562995Y-116558780D01*
X224573737Y-116559206D01*
X224580416Y-116559706D01*
X224582365Y-116560185D01*
X224581668Y-116563287D01*
X224579735Y-116570782D01*
X224576781Y-116581865D01*
X224573021Y-116595730D01*
X224568670Y-116611568D01*
X224567517Y-116615736D01*
X224563061Y-116631874D01*
X224559141Y-116646173D01*
X224555971Y-116657843D01*
X224553765Y-116666094D01*
X224552737Y-116670138D01*
X224552689Y-116670402D01*
X224550092Y-116670726D01*
X224542710Y-116670995D01*
X224531155Y-116671211D01*
X224516042Y-116671375D01*
X224497984Y-116671490D01*
X224477593Y-116671557D01*
X224455485Y-116671579D01*
X224432271Y-116671557D01*
X224408566Y-116671493D01*
X224384982Y-116671389D01*
X224362134Y-116671247D01*
X224340634Y-116671070D01*
X224321096Y-116670859D01*
X224304134Y-116670615D01*
X224290360Y-116670342D01*
X224280388Y-116670041D01*
X224274832Y-116669713D01*
X224273876Y-116669516D01*
X224274382Y-116666641D01*
X224276190Y-116658970D01*
X224279191Y-116646918D01*
X224283276Y-116630901D01*
X224288339Y-116611334D01*
X224294270Y-116588634D01*
X224300963Y-116563215D01*
X224308308Y-116535493D01*
X224316198Y-116505883D01*
X224323526Y-116478523D01*
X224331864Y-116447462D01*
X224339815Y-116417827D01*
X224347267Y-116390047D01*
X224354104Y-116364550D01*
X224360211Y-116341762D01*
X224365475Y-116322112D01*
X224369780Y-116306027D01*
X224373012Y-116293935D01*
X224375056Y-116286263D01*
X224375776Y-116283530D01*
X224377297Y-116277505D01*
X224314332Y-116276782D01*
X224251367Y-116276058D01*
X224265125Y-116224766D01*
X224269472Y-116208667D01*
X224273443Y-116194151D01*
X224276793Y-116182107D01*
X224279274Y-116173420D01*
X224280640Y-116168977D01*
X224280705Y-116168801D01*
X224281724Y-116167299D01*
X224283900Y-116166137D01*
X224287887Y-116165262D01*
X224294339Y-116164618D01*
X224303911Y-116164151D01*
X224317257Y-116163805D01*
X224335032Y-116163528D01*
X224345395Y-116163402D01*
X224408264Y-116162677D01*
X224428814Y-116085740D01*
X224449364Y-116008803D01*
X224520120Y-116008083D01*
X224541487Y-116007884D01*
X224558047Y-116007800D01*
X224570391Y-116007863D01*
G37*
G36*
X226184426Y-116008093D02*
G01*
X226277622Y-116008803D01*
X226063945Y-116158628D01*
X226033479Y-116179995D01*
X226004198Y-116200542D01*
X225976413Y-116220049D01*
X225950436Y-116238297D01*
X225926580Y-116255067D01*
X225905154Y-116270140D01*
X225886471Y-116283296D01*
X225870842Y-116294316D01*
X225858579Y-116302981D01*
X225849993Y-116309072D01*
X225845397Y-116312369D01*
X225844753Y-116312851D01*
X225843818Y-116313749D01*
X225843288Y-116314928D01*
X225843358Y-116316678D01*
X225844221Y-116319292D01*
X225846073Y-116323061D01*
X225849108Y-116328276D01*
X225853520Y-116335228D01*
X225859505Y-116344210D01*
X225867256Y-116355512D01*
X225876968Y-116369426D01*
X225888835Y-116386243D01*
X225903053Y-116406255D01*
X225919815Y-116429753D01*
X225939316Y-116457029D01*
X225961751Y-116488374D01*
X225963997Y-116491511D01*
X225983556Y-116518855D01*
X226002214Y-116544986D01*
X226019730Y-116569564D01*
X226035862Y-116592248D01*
X226050371Y-116612700D01*
X226063015Y-116630577D01*
X226073554Y-116645541D01*
X226081746Y-116657251D01*
X226087351Y-116665367D01*
X226090127Y-116669549D01*
X226090382Y-116670007D01*
X226090393Y-116671209D01*
X226089042Y-116672163D01*
X226085790Y-116672895D01*
X226080099Y-116673435D01*
X226071432Y-116673811D01*
X226059250Y-116674051D01*
X226043014Y-116674183D01*
X226022188Y-116674235D01*
X226009852Y-116674240D01*
X225986653Y-116674232D01*
X225968250Y-116674181D01*
X225954041Y-116674044D01*
X225943422Y-116673780D01*
X225935792Y-116673347D01*
X225930547Y-116672703D01*
X225927085Y-116671807D01*
X225924802Y-116670616D01*
X225923097Y-116669089D01*
X225922255Y-116668166D01*
X225919678Y-116664857D01*
X225914277Y-116657582D01*
X225906362Y-116646770D01*
X225896243Y-116632851D01*
X225884233Y-116616254D01*
X225870641Y-116597408D01*
X225855780Y-116576743D01*
X225839959Y-116554687D01*
X225832278Y-116543959D01*
X225816285Y-116521678D01*
X225801222Y-116500825D01*
X225787381Y-116481796D01*
X225775055Y-116464985D01*
X225764535Y-116450788D01*
X225756112Y-116439599D01*
X225750079Y-116431814D01*
X225746728Y-116427828D01*
X225746141Y-116427389D01*
X225745137Y-116430236D01*
X225742889Y-116437781D01*
X225739542Y-116449505D01*
X225735240Y-116464887D01*
X225730126Y-116483409D01*
X225724346Y-116504551D01*
X225718043Y-116527792D01*
X225711817Y-116550921D01*
X225679097Y-116672891D01*
X225610097Y-116673611D01*
X225591356Y-116673728D01*
X225574456Y-116673684D01*
X225560129Y-116673494D01*
X225549107Y-116673170D01*
X225542120Y-116672728D01*
X225539895Y-116672261D01*
X225540430Y-116669443D01*
X225542288Y-116661728D01*
X225545385Y-116649429D01*
X225549638Y-116632863D01*
X225554964Y-116612343D01*
X225561281Y-116588186D01*
X225568506Y-116560705D01*
X225576556Y-116530217D01*
X225585348Y-116497036D01*
X225594800Y-116461477D01*
X225604828Y-116423855D01*
X225615349Y-116384486D01*
X225625957Y-116344896D01*
X225636916Y-116304039D01*
X225647503Y-116264568D01*
X225657630Y-116226804D01*
X225667212Y-116191066D01*
X225676164Y-116157676D01*
X225684399Y-116126953D01*
X225691831Y-116099219D01*
X225698375Y-116074792D01*
X225703945Y-116053994D01*
X225708455Y-116037145D01*
X225711819Y-116024566D01*
X225713951Y-116016576D01*
X225714758Y-116013527D01*
X225716295Y-116007453D01*
X225786432Y-116007453D01*
X225805254Y-116007508D01*
X225822168Y-116007663D01*
X225836463Y-116007903D01*
X225847432Y-116008212D01*
X225854365Y-116008576D01*
X225856569Y-116008947D01*
X225855899Y-116011831D01*
X225854021Y-116019190D01*
X225851130Y-116030287D01*
X225847425Y-116044384D01*
X225843101Y-116060743D01*
X225838355Y-116078627D01*
X225833383Y-116097297D01*
X225828382Y-116116015D01*
X225823549Y-116134046D01*
X225819080Y-116150649D01*
X225815171Y-116165089D01*
X225812020Y-116176626D01*
X225809823Y-116184523D01*
X225809289Y-116186383D01*
X225807628Y-116193358D01*
X225807442Y-116197310D01*
X225808159Y-116197658D01*
X225810810Y-116195901D01*
X225817550Y-116191390D01*
X225827993Y-116184387D01*
X225841750Y-116175153D01*
X225858432Y-116163949D01*
X225877651Y-116151035D01*
X225899017Y-116136673D01*
X225922144Y-116121123D01*
X225946641Y-116104647D01*
X225951015Y-116101704D01*
X226091229Y-116007383D01*
X226184426Y-116008093D01*
G37*
G36*
X220049869Y-116312538D02*
G01*
X220055003Y-116314592D01*
X220058962Y-116317587D01*
X220065252Y-116326850D01*
X220069012Y-116339798D01*
X220070007Y-116355226D01*
X220068773Y-116367842D01*
X220067344Y-116376685D01*
X220066362Y-116383239D01*
X220066064Y-116385758D01*
X220068461Y-116387119D01*
X220074576Y-116388657D01*
X220078808Y-116389389D01*
X220092955Y-116392940D01*
X220105660Y-116398732D01*
X220114987Y-116405876D01*
X220115213Y-116406122D01*
X220122714Y-116418159D01*
X220126997Y-116433463D01*
X220127863Y-116450825D01*
X220125432Y-116467725D01*
X220124450Y-116474226D01*
X220123476Y-116484863D01*
X220122601Y-116498375D01*
X220121915Y-116513501D01*
X220121695Y-116520366D01*
X220120331Y-116548330D01*
X220117768Y-116580274D01*
X220114172Y-116614954D01*
X220109707Y-116651126D01*
X220104541Y-116687548D01*
X220098838Y-116722974D01*
X220092764Y-116756162D01*
X220086486Y-116785867D01*
X220086081Y-116787621D01*
X220079167Y-116814045D01*
X220070319Y-116842729D01*
X220060165Y-116871896D01*
X220049334Y-116899768D01*
X220038454Y-116924568D01*
X220035495Y-116930697D01*
X220018807Y-116964441D01*
X219953343Y-116965164D01*
X219935188Y-116965272D01*
X219918967Y-116965192D01*
X219905413Y-116964942D01*
X219895260Y-116964540D01*
X219889241Y-116964004D01*
X219887879Y-116963544D01*
X219889345Y-116960141D01*
X219893068Y-116954155D01*
X219895498Y-116950674D01*
X219917529Y-116916649D01*
X219937765Y-116878173D01*
X219955934Y-116835976D01*
X219971765Y-116790786D01*
X219984987Y-116743333D01*
X219995327Y-116694345D01*
X219998774Y-116673301D01*
X220001099Y-116657067D01*
X220002485Y-116645439D01*
X220002977Y-116637715D01*
X220002618Y-116633192D01*
X220001454Y-116631168D01*
X220001420Y-116631147D01*
X219997718Y-116630082D01*
X219990249Y-116628704D01*
X219980344Y-116627184D01*
X219969333Y-116625693D01*
X219958545Y-116624402D01*
X219949311Y-116623483D01*
X219942960Y-116623108D01*
X219940826Y-116623337D01*
X219940143Y-116626205D01*
X219938766Y-116633402D01*
X219936878Y-116643929D01*
X219934661Y-116656789D01*
X219933994Y-116660743D01*
X219922893Y-116716237D01*
X219908904Y-116767356D01*
X219891914Y-116814355D01*
X219871811Y-116857490D01*
X219848483Y-116897015D01*
X219821818Y-116933185D01*
X219806683Y-116950659D01*
X219792853Y-116965791D01*
X219708088Y-116965791D01*
X219687314Y-116965724D01*
X219668385Y-116965534D01*
X219651945Y-116965237D01*
X219638640Y-116964851D01*
X219629115Y-116964392D01*
X219624014Y-116963876D01*
X219623324Y-116963596D01*
X219625123Y-116960545D01*
X219629638Y-116955512D01*
X219631725Y-116953473D01*
X219640025Y-116944885D01*
X219650434Y-116932991D01*
X219662030Y-116918950D01*
X219673891Y-116903925D01*
X219685094Y-116889076D01*
X219694716Y-116875564D01*
X219700040Y-116867488D01*
X219725808Y-116821390D01*
X219746821Y-116772826D01*
X219763015Y-116722005D01*
X219774326Y-116669135D01*
X219780688Y-116614427D01*
X219781268Y-116605045D01*
X219781719Y-116590533D01*
X219781648Y-116574787D01*
X219781125Y-116558826D01*
X219780218Y-116543671D01*
X219778996Y-116530341D01*
X219777526Y-116519857D01*
X219775878Y-116513239D01*
X219775005Y-116511694D01*
X219771050Y-116510641D01*
X219762423Y-116510272D01*
X219749807Y-116510600D01*
X219742397Y-116511019D01*
X219712409Y-116512962D01*
X219712409Y-116565118D01*
X219711713Y-116602191D01*
X219709551Y-116635061D01*
X219705813Y-116664751D01*
X219700388Y-116692285D01*
X219697463Y-116703894D01*
X219682472Y-116749466D01*
X219662569Y-116793405D01*
X219638168Y-116834857D01*
X219625463Y-116852967D01*
X219614927Y-116866210D01*
X219601370Y-116881795D01*
X219585894Y-116898575D01*
X219569598Y-116915403D01*
X219553583Y-116931131D01*
X219538950Y-116944613D01*
X219531239Y-116951188D01*
X219513391Y-116965791D01*
X219386138Y-116965791D01*
X219258885Y-116965791D01*
X219258885Y-116944626D01*
X219259952Y-116924959D01*
X219263352Y-116905761D01*
X219269387Y-116886312D01*
X219278356Y-116865893D01*
X219279480Y-116863856D01*
X219361822Y-116863856D01*
X219375758Y-116891877D01*
X219381477Y-116902914D01*
X219386572Y-116911903D01*
X219390467Y-116917883D01*
X219392519Y-116919899D01*
X219396014Y-116918635D01*
X219402906Y-116915265D01*
X219411935Y-116910417D01*
X219415674Y-116908313D01*
X219450636Y-116885333D01*
X219482373Y-116858262D01*
X219510634Y-116827513D01*
X219535170Y-116793498D01*
X219555731Y-116756633D01*
X219572065Y-116717329D01*
X219583923Y-116676002D01*
X219591055Y-116633063D01*
X219592501Y-116615993D01*
X219592822Y-116605032D01*
X219592648Y-116592235D01*
X219592065Y-116578807D01*
X219591156Y-116565952D01*
X219590008Y-116554874D01*
X219588706Y-116546778D01*
X219587335Y-116542868D01*
X219587326Y-116542858D01*
X219584445Y-116542874D01*
X219577339Y-116543635D01*
X219567110Y-116545006D01*
X219556080Y-116546661D01*
X219525783Y-116551411D01*
X219524967Y-116590554D01*
X219522327Y-116629888D01*
X219515932Y-116666012D01*
X219505486Y-116699860D01*
X219490697Y-116732365D01*
X219471270Y-116764460D01*
X219469249Y-116767411D01*
X219456982Y-116783174D01*
X219441348Y-116800282D01*
X219423692Y-116817442D01*
X219405361Y-116833364D01*
X219387699Y-116846757D01*
X219383835Y-116849369D01*
X219361822Y-116863856D01*
X219279480Y-116863856D01*
X219290559Y-116843782D01*
X219306298Y-116819260D01*
X219318416Y-116801896D01*
X219328668Y-116787125D01*
X219338980Y-116771483D01*
X219348393Y-116756478D01*
X219355947Y-116743618D01*
X219358434Y-116739029D01*
X219372654Y-116708510D01*
X219384682Y-116675488D01*
X219394652Y-116639405D01*
X219402704Y-116599704D01*
X219408973Y-116555825D01*
X219412756Y-116517846D01*
X219413916Y-116504970D01*
X219415056Y-116494167D01*
X219416051Y-116486511D01*
X219416776Y-116483074D01*
X219416821Y-116483010D01*
X219419568Y-116482101D01*
X219427107Y-116479877D01*
X219439025Y-116476454D01*
X219454908Y-116471947D01*
X219474344Y-116466473D01*
X219496919Y-116460149D01*
X219522220Y-116453090D01*
X219549833Y-116445412D01*
X219579344Y-116437232D01*
X219606419Y-116429748D01*
X219651875Y-116417199D01*
X219692474Y-116405989D01*
X219728564Y-116396022D01*
X219760492Y-116387200D01*
X219788606Y-116379427D01*
X219813255Y-116372606D01*
X219834784Y-116366638D01*
X219853543Y-116361429D01*
X219869878Y-116356880D01*
X219884137Y-116352895D01*
X219896668Y-116349376D01*
X219907819Y-116346227D01*
X219917937Y-116343351D01*
X219927370Y-116340650D01*
X219936466Y-116338028D01*
X219945571Y-116335388D01*
X219955034Y-116332632D01*
X219965203Y-116329664D01*
X219966166Y-116329383D01*
X219989412Y-116322722D01*
X220008141Y-116317704D01*
X220022951Y-116314253D01*
X220034442Y-116312293D01*
X220043215Y-116311746D01*
X220049869Y-116312538D01*
G37*
G36*
X219539957Y-117100751D02*
G01*
X219625373Y-117100755D01*
X219705838Y-117100763D01*
X219781500Y-117100775D01*
X219852507Y-117100793D01*
X219919010Y-117100816D01*
X219981158Y-117100846D01*
X220039098Y-117100882D01*
X220092981Y-117100925D01*
X220142956Y-117100976D01*
X220189170Y-117101035D01*
X220231775Y-117101104D01*
X220270918Y-117101181D01*
X220306748Y-117101268D01*
X220339415Y-117101366D01*
X220369068Y-117101474D01*
X220395855Y-117101594D01*
X220419927Y-117101726D01*
X220441431Y-117101871D01*
X220460517Y-117102028D01*
X220477334Y-117102199D01*
X220492031Y-117102384D01*
X220504757Y-117102584D01*
X220515661Y-117102799D01*
X220524892Y-117103029D01*
X220532599Y-117103276D01*
X220538932Y-117103540D01*
X220544039Y-117103820D01*
X220548069Y-117104119D01*
X220551171Y-117104436D01*
X220553495Y-117104771D01*
X220554743Y-117105019D01*
X220571595Y-117110439D01*
X220583978Y-117118200D01*
X220592465Y-117128702D01*
X220594593Y-117133037D01*
X220596771Y-117141183D01*
X220598451Y-117153537D01*
X220599615Y-117168928D01*
X220600240Y-117186186D01*
X220600308Y-117204141D01*
X220599799Y-117221621D01*
X220598691Y-117237457D01*
X220596965Y-117250479D01*
X220596644Y-117252156D01*
X220588980Y-117279282D01*
X220577775Y-117302378D01*
X220563066Y-117321404D01*
X220544889Y-117336320D01*
X220523282Y-117347085D01*
X220505595Y-117352249D01*
X220498090Y-117353227D01*
X220485294Y-117354044D01*
X220467310Y-117354698D01*
X220444244Y-117355185D01*
X220416200Y-117355502D01*
X220387901Y-117355637D01*
X220284575Y-117355875D01*
X220281853Y-117366673D01*
X220269585Y-117404597D01*
X220252571Y-117439983D01*
X220230908Y-117472660D01*
X220205289Y-117501864D01*
X220176070Y-117527575D01*
X220144752Y-117548321D01*
X220111196Y-117564169D01*
X220075266Y-117575183D01*
X220039053Y-117581205D01*
X220027477Y-117582337D01*
X220017678Y-117583146D01*
X220011075Y-117583521D01*
X220009358Y-117583507D01*
X220003978Y-117582995D01*
X219996407Y-117582274D01*
X219995861Y-117582222D01*
X219954522Y-117576001D01*
X219915985Y-117565546D01*
X219880479Y-117550974D01*
X219848232Y-117532402D01*
X219819474Y-117509949D01*
X219794432Y-117483731D01*
X219787846Y-117475372D01*
X219766779Y-117442944D01*
X219749889Y-117407151D01*
X219737236Y-117368120D01*
X219736693Y-117365998D01*
X219733797Y-117354525D01*
X219359320Y-117354525D01*
X218984843Y-117354525D01*
X218978602Y-117376796D01*
X218965707Y-117413118D01*
X218948297Y-117446779D01*
X218926718Y-117477464D01*
X218901321Y-117504856D01*
X218872451Y-117528639D01*
X218840458Y-117548497D01*
X218805690Y-117564115D01*
X218768494Y-117575175D01*
X218757776Y-117577396D01*
X218736606Y-117580078D01*
X218712371Y-117581027D01*
X218687057Y-117580311D01*
X218662648Y-117577996D01*
X218641126Y-117574149D01*
X218637991Y-117573371D01*
X218602884Y-117561541D01*
X218568970Y-117544780D01*
X218537046Y-117523541D01*
X218510186Y-117500504D01*
X218488147Y-117476760D01*
X218470023Y-117451594D01*
X218455324Y-117424096D01*
X218443562Y-117393358D01*
X218434558Y-117359859D01*
X218433028Y-117353045D01*
X218402557Y-117355279D01*
X218386663Y-117356140D01*
X218367826Y-117356665D01*
X218346932Y-117356876D01*
X218324865Y-117356794D01*
X218302510Y-117356440D01*
X218280753Y-117355837D01*
X218260477Y-117355005D01*
X218242569Y-117353965D01*
X218227913Y-117352741D01*
X218217394Y-117351351D01*
X218214396Y-117350718D01*
X218192378Y-117343119D01*
X218173520Y-117332057D01*
X218156463Y-117316859D01*
X218146350Y-117305393D01*
X218142865Y-117300432D01*
X218592577Y-117300432D01*
X218593506Y-117322086D01*
X218598718Y-117343575D01*
X218608463Y-117364326D01*
X218622993Y-117383769D01*
X218623976Y-117384831D01*
X218642129Y-117401159D01*
X218661668Y-117412519D01*
X218683249Y-117419178D01*
X218707530Y-117421404D01*
X218713578Y-117421317D01*
X218726880Y-117420649D01*
X218736827Y-117419358D01*
X218745458Y-117417009D01*
X218754813Y-117413166D01*
X218757468Y-117411937D01*
X218778728Y-117399261D01*
X218796231Y-117383336D01*
X218809847Y-117364819D01*
X218819445Y-117344365D01*
X218824894Y-117322630D01*
X218825232Y-117316180D01*
X219893581Y-117316180D01*
X219897605Y-117338527D01*
X219906411Y-117360522D01*
X219912122Y-117370313D01*
X219927298Y-117389643D01*
X219944910Y-117404283D01*
X219965192Y-117414348D01*
X219988374Y-117419956D01*
X220013654Y-117421252D01*
X220026649Y-117420776D01*
X220036109Y-117419848D01*
X220043900Y-117418050D01*
X220051886Y-117414962D01*
X220061140Y-117410554D01*
X220082376Y-117397302D01*
X220099636Y-117380428D01*
X220113139Y-117359708D01*
X220115365Y-117355175D01*
X220122667Y-117333516D01*
X220125521Y-117310052D01*
X220123844Y-117286155D01*
X220120382Y-117271357D01*
X220110872Y-117248936D01*
X220097150Y-117229464D01*
X220079799Y-117213400D01*
X220059398Y-117201204D01*
X220036529Y-117193339D01*
X220018513Y-117190588D01*
X219994241Y-117191185D01*
X219971802Y-117196413D01*
X219951523Y-117205719D01*
X219933733Y-117218548D01*
X219918759Y-117234349D01*
X219906929Y-117252565D01*
X219898571Y-117272645D01*
X219894013Y-117294035D01*
X219893581Y-117316180D01*
X218825232Y-117316180D01*
X218826065Y-117300271D01*
X218822827Y-117277944D01*
X218815048Y-117256304D01*
X218802600Y-117236009D01*
X218794376Y-117226350D01*
X218775903Y-117209953D01*
X218756005Y-117198593D01*
X218734020Y-117191988D01*
X218709323Y-117189853D01*
X218684993Y-117192248D01*
X218662944Y-117199051D01*
X218643427Y-117209691D01*
X218626692Y-117223596D01*
X218612990Y-117240195D01*
X218602569Y-117258915D01*
X218595682Y-117279184D01*
X218592577Y-117300432D01*
X218142865Y-117300432D01*
X218138387Y-117294056D01*
X218132336Y-117282007D01*
X218127961Y-117268401D01*
X218125024Y-117252397D01*
X218123288Y-117233150D01*
X218122517Y-117209819D01*
X218122418Y-117195819D01*
X218122462Y-117177868D01*
X218122678Y-117164420D01*
X218123146Y-117154582D01*
X218123943Y-117147459D01*
X218125146Y-117142156D01*
X218126834Y-117137778D01*
X218127618Y-117136174D01*
X218136050Y-117124152D01*
X218147784Y-117113245D01*
X218160775Y-117105321D01*
X218161915Y-117104827D01*
X218163144Y-117104499D01*
X218165315Y-117104189D01*
X218168573Y-117103897D01*
X218173064Y-117103622D01*
X218178935Y-117103363D01*
X218186329Y-117103119D01*
X218195393Y-117102892D01*
X218206272Y-117102679D01*
X218219112Y-117102481D01*
X218234057Y-117102296D01*
X218251255Y-117102125D01*
X218270849Y-117101967D01*
X218292986Y-117101821D01*
X218317811Y-117101687D01*
X218345469Y-117101565D01*
X218376107Y-117101454D01*
X218409869Y-117101353D01*
X218446901Y-117101262D01*
X218487348Y-117101180D01*
X218531357Y-117101107D01*
X218579071Y-117101043D01*
X218630638Y-117100987D01*
X218686202Y-117100938D01*
X218745910Y-117100896D01*
X218809905Y-117100861D01*
X218878334Y-117100831D01*
X218951343Y-117100807D01*
X219029077Y-117100788D01*
X219111681Y-117100774D01*
X219199301Y-117100763D01*
X219292082Y-117100756D01*
X219353672Y-117100753D01*
X219449439Y-117100750D01*
X219539957Y-117100751D01*
G37*
G36*
X219265376Y-115216481D02*
G01*
X219315483Y-115216486D01*
X219334473Y-115216487D01*
X219386448Y-115216484D01*
X219433309Y-115216483D01*
X219475343Y-115216496D01*
X219512833Y-115216532D01*
X219546066Y-115216604D01*
X219575326Y-115216723D01*
X219600900Y-115216899D01*
X219623072Y-115217145D01*
X219642128Y-115217471D01*
X219658353Y-115217888D01*
X219672033Y-115218409D01*
X219683453Y-115219043D01*
X219692898Y-115219802D01*
X219700654Y-115220697D01*
X219707006Y-115221740D01*
X219712239Y-115222941D01*
X219716640Y-115224313D01*
X219720492Y-115225865D01*
X219724083Y-115227610D01*
X219727696Y-115229558D01*
X219731617Y-115231721D01*
X219732313Y-115232098D01*
X219741181Y-115237710D01*
X219751654Y-115245516D01*
X219761538Y-115253875D01*
X219761980Y-115254281D01*
X219779576Y-115273000D01*
X219792691Y-115292940D01*
X219801732Y-115315000D01*
X219807102Y-115340076D01*
X219808792Y-115357976D01*
X219810340Y-115385208D01*
X219851134Y-115385208D01*
X219867182Y-115385276D01*
X219878884Y-115385560D01*
X219887291Y-115386180D01*
X219893457Y-115387259D01*
X219898432Y-115388916D01*
X219903111Y-115391189D01*
X219915506Y-115400003D01*
X219926228Y-115411662D01*
X219933876Y-115424479D01*
X219936190Y-115431104D01*
X219937001Y-115437144D01*
X219937686Y-115447795D01*
X219938244Y-115462273D01*
X219938676Y-115479790D01*
X219938980Y-115499562D01*
X219939157Y-115520802D01*
X219939206Y-115542725D01*
X219939126Y-115564544D01*
X219938919Y-115585474D01*
X219938582Y-115604729D01*
X219938117Y-115621524D01*
X219937522Y-115635072D01*
X219936797Y-115644587D01*
X219936276Y-115648144D01*
X219929986Y-115664992D01*
X219919155Y-115679584D01*
X219904865Y-115690751D01*
X219899722Y-115693659D01*
X219895107Y-115695712D01*
X219889960Y-115697058D01*
X219883222Y-115697847D01*
X219873833Y-115698226D01*
X219860734Y-115698346D01*
X219850759Y-115698355D01*
X219809590Y-115698355D01*
X219809538Y-115719952D01*
X219808208Y-115748399D01*
X219804149Y-115772898D01*
X219797033Y-115794337D01*
X219786531Y-115813602D01*
X219772315Y-115831583D01*
X219765702Y-115838430D01*
X219755659Y-115847697D01*
X219745186Y-115856307D01*
X219735946Y-115862933D01*
X219732453Y-115865010D01*
X219728402Y-115867201D01*
X219724716Y-115869177D01*
X219721109Y-115870949D01*
X219717296Y-115872527D01*
X219712993Y-115873922D01*
X219707913Y-115875146D01*
X219701772Y-115876209D01*
X219694285Y-115877122D01*
X219685167Y-115877897D01*
X219674132Y-115878543D01*
X219660894Y-115879073D01*
X219645170Y-115879497D01*
X219626674Y-115879826D01*
X219605120Y-115880071D01*
X219580224Y-115880243D01*
X219551700Y-115880352D01*
X219519263Y-115880411D01*
X219482628Y-115880429D01*
X219441510Y-115880418D01*
X219395623Y-115880389D01*
X219344683Y-115880353D01*
X219333231Y-115880345D01*
X219278923Y-115880298D01*
X219229800Y-115880228D01*
X219185644Y-115880133D01*
X219146242Y-115880013D01*
X219111378Y-115879863D01*
X219080837Y-115879683D01*
X219054403Y-115879471D01*
X219031861Y-115879223D01*
X219012996Y-115878939D01*
X218997592Y-115878616D01*
X218985435Y-115878252D01*
X218976308Y-115877845D01*
X218969998Y-115877393D01*
X218966287Y-115876893D01*
X218965985Y-115876825D01*
X218946317Y-115869804D01*
X218926417Y-115858749D01*
X218907709Y-115844722D01*
X218891621Y-115828784D01*
X218880079Y-115812870D01*
X218872640Y-115798789D01*
X218867272Y-115785087D01*
X218863623Y-115770333D01*
X218861338Y-115753095D01*
X218860063Y-115731939D01*
X218860058Y-115731787D01*
X218858684Y-115695030D01*
X218847546Y-115697606D01*
X218840267Y-115698568D01*
X218829233Y-115699166D01*
X218816078Y-115699342D01*
X218805327Y-115699144D01*
X218790482Y-115698457D01*
X218779638Y-115697399D01*
X218771398Y-115695741D01*
X218764365Y-115693253D01*
X218761522Y-115691947D01*
X218747160Y-115682567D01*
X218737220Y-115670633D01*
X218732763Y-115659764D01*
X218731855Y-115653537D01*
X218731012Y-115642717D01*
X218730244Y-115628111D01*
X218729566Y-115610527D01*
X218728989Y-115590770D01*
X218728527Y-115569648D01*
X218728192Y-115547967D01*
X218727997Y-115526533D01*
X218727992Y-115524125D01*
X219037327Y-115524125D01*
X219037455Y-115542362D01*
X219037821Y-115559387D01*
X219038428Y-115574256D01*
X219039281Y-115586026D01*
X219040383Y-115593752D01*
X219040656Y-115594805D01*
X219046818Y-115607580D01*
X219056862Y-115619841D01*
X219069369Y-115630034D01*
X219076516Y-115634071D01*
X219084221Y-115637367D01*
X219091363Y-115639214D01*
X219099843Y-115639900D01*
X219111563Y-115639712D01*
X219113299Y-115639644D01*
X219125936Y-115638837D01*
X219135053Y-115637352D01*
X219142525Y-115634754D01*
X219148976Y-115631348D01*
X219163969Y-115619688D01*
X219174651Y-115604782D01*
X219179477Y-115592766D01*
X219180692Y-115585859D01*
X219181693Y-115574600D01*
X219182473Y-115560032D01*
X219183022Y-115543197D01*
X219183332Y-115525139D01*
X219183354Y-115518836D01*
X219486997Y-115518836D01*
X219487061Y-115541811D01*
X219487339Y-115560117D01*
X219487960Y-115574485D01*
X219489050Y-115585642D01*
X219490739Y-115594320D01*
X219493154Y-115601247D01*
X219496423Y-115607154D01*
X219500675Y-115612770D01*
X219504195Y-115616796D01*
X219518146Y-115628425D01*
X219535057Y-115636356D01*
X219553700Y-115640302D01*
X219572850Y-115639976D01*
X219587933Y-115636371D01*
X219604345Y-115628097D01*
X219617413Y-115615831D01*
X219624913Y-115604558D01*
X219632772Y-115590374D01*
X219633629Y-115525656D01*
X219633852Y-115502395D01*
X219633772Y-115483789D01*
X219633288Y-115469098D01*
X219632302Y-115457583D01*
X219630712Y-115448502D01*
X219628420Y-115441117D01*
X219625326Y-115434687D01*
X219621330Y-115428472D01*
X219620351Y-115427103D01*
X219608767Y-115414764D01*
X219594491Y-115406410D01*
X219576869Y-115401724D01*
X219565403Y-115400590D01*
X219545194Y-115401259D01*
X219528283Y-115405772D01*
X219513917Y-115414401D01*
X219505654Y-115422273D01*
X219500176Y-115428522D01*
X219495890Y-115434217D01*
X219492650Y-115440115D01*
X219490310Y-115446973D01*
X219488725Y-115455546D01*
X219487746Y-115466592D01*
X219487230Y-115480865D01*
X219487029Y-115499123D01*
X219486997Y-115518836D01*
X219183354Y-115518836D01*
X219183396Y-115506900D01*
X219183203Y-115489524D01*
X219182747Y-115474053D01*
X219182018Y-115461530D01*
X219181009Y-115452999D01*
X219180617Y-115451254D01*
X219174260Y-115436145D01*
X219164493Y-115422245D01*
X219152687Y-115411396D01*
X219149337Y-115409235D01*
X219134621Y-115403228D01*
X219117337Y-115400252D01*
X219099456Y-115400412D01*
X219082948Y-115403812D01*
X219078585Y-115405468D01*
X219065039Y-115413493D01*
X219052794Y-115424724D01*
X219043564Y-115437476D01*
X219041310Y-115442110D01*
X219040100Y-115447798D01*
X219039103Y-115457936D01*
X219038324Y-115471582D01*
X219037765Y-115487791D01*
X219037431Y-115505620D01*
X219037327Y-115524125D01*
X218727992Y-115524125D01*
X218727954Y-115506154D01*
X218728076Y-115487635D01*
X218728376Y-115471784D01*
X218728866Y-115459408D01*
X218729495Y-115451789D01*
X218733580Y-115430977D01*
X218740201Y-115414188D01*
X218749728Y-115401167D01*
X218762526Y-115391659D01*
X218778965Y-115385406D01*
X218799410Y-115382153D01*
X218824231Y-115381645D01*
X218829963Y-115381860D01*
X218858613Y-115383174D01*
X218860120Y-115355846D01*
X218863338Y-115328574D01*
X218870010Y-115304845D01*
X218880520Y-115283761D01*
X218895252Y-115264424D01*
X218902411Y-115256980D01*
X218912493Y-115248132D01*
X218924029Y-115239544D01*
X218933883Y-115233443D01*
X218938290Y-115231054D01*
X218942257Y-115228900D01*
X218946070Y-115226968D01*
X218950016Y-115225248D01*
X218954382Y-115223726D01*
X218959455Y-115222390D01*
X218965522Y-115221229D01*
X218972869Y-115220231D01*
X218981785Y-115219382D01*
X218992554Y-115218671D01*
X219005466Y-115218087D01*
X219020806Y-115217615D01*
X219038861Y-115217246D01*
X219059918Y-115216966D01*
X219084265Y-115216763D01*
X219112187Y-115216625D01*
X219143973Y-115216540D01*
X219179908Y-115216496D01*
X219220280Y-115216480D01*
X219265376Y-115216481D01*
G37*
D12*
%TO.C,TP4*%
X220300000Y-96500000D02*
X221700000Y-96500000D01*
X220300000Y-97900000D02*
X220300000Y-96500000D01*
X221700000Y-96500000D02*
X221700000Y-97900000D01*
X221700000Y-97900000D02*
X220300000Y-97900000D01*
%TO.C,TP1*%
X193600000Y-91200000D02*
X195000000Y-91200000D01*
X193600000Y-92600000D02*
X193600000Y-91200000D01*
X195000000Y-91200000D02*
X195000000Y-92600000D01*
X195000000Y-92600000D02*
X193600000Y-92600000D01*
%TO.C,R30*%
X220962742Y-110057500D02*
X221437258Y-110057500D01*
X220962742Y-111102500D02*
X221437258Y-111102500D01*
%TO.C,J2*%
X193790000Y-103260000D02*
X194425000Y-103260000D01*
X193790000Y-103895000D02*
X193790000Y-103260000D01*
%TO.C,R32*%
X224262742Y-109057500D02*
X224737258Y-109057500D01*
X224262742Y-110102500D02*
X224737258Y-110102500D01*
%TO.C,J15*%
X237680000Y-90920000D02*
X239060000Y-90920000D01*
X237680000Y-92300000D02*
X237680000Y-90920000D01*
X237680000Y-93570000D02*
X237680000Y-116540000D01*
X237680000Y-93570000D02*
X240330000Y-93570000D01*
X237680000Y-116540000D02*
X242980000Y-116540000D01*
X240330000Y-90920000D02*
X242980000Y-90920000D01*
X240330000Y-93570000D02*
X240330000Y-90920000D01*
X242980000Y-90920000D02*
X242980000Y-116540000D01*
%TO.C,R2*%
X224237742Y-104177500D02*
X224712258Y-104177500D01*
X224237742Y-105222500D02*
X224712258Y-105222500D01*
%TD*%
M02*
