%TF.GenerationSoftware,KiCad,Pcbnew,9.0.6*%
%TF.CreationDate,2026-01-24T10:26:07+01:00*%
%TF.ProjectId,Protection,50726f74-6563-4746-996f-6e2e6b696361,rev?*%
%TF.SameCoordinates,Original*%
%TF.FileFunction,Legend,Top*%
%TF.FilePolarity,Positive*%
%FSLAX46Y46*%
G04 Gerber Fmt 4.6, Leading zero omitted, Abs format (unit mm)*
G04 Created by KiCad (PCBNEW 9.0.6) date 2026-01-24 10:26:07*
%MOMM*%
%LPD*%
G01*
G04 APERTURE LIST*
%ADD10C,0.550000*%
%ADD11C,0.300000*%
%ADD12C,0.100000*%
%ADD13C,0.150000*%
%ADD14C,0.152400*%
%ADD15C,0.000000*%
%ADD16C,0.200000*%
%ADD17C,0.120000*%
G04 APERTURE END LIST*
D10*
X95314997Y-61172324D02*
G75*
G02*
X94764997Y-61172324I-275000J0D01*
G01*
X94764997Y-61172324D02*
G75*
G02*
X95314997Y-61172324I275000J0D01*
G01*
X99775000Y-88000000D02*
G75*
G02*
X99225000Y-88000000I-275000J0D01*
G01*
X99225000Y-88000000D02*
G75*
G02*
X99775000Y-88000000I275000J0D01*
G01*
D11*
X106880225Y-109022257D02*
X106737368Y-108950828D01*
X106737368Y-108950828D02*
X106523082Y-108950828D01*
X106523082Y-108950828D02*
X106308796Y-109022257D01*
X106308796Y-109022257D02*
X106165939Y-109165114D01*
X106165939Y-109165114D02*
X106094510Y-109307971D01*
X106094510Y-109307971D02*
X106023082Y-109593685D01*
X106023082Y-109593685D02*
X106023082Y-109807971D01*
X106023082Y-109807971D02*
X106094510Y-110093685D01*
X106094510Y-110093685D02*
X106165939Y-110236542D01*
X106165939Y-110236542D02*
X106308796Y-110379400D01*
X106308796Y-110379400D02*
X106523082Y-110450828D01*
X106523082Y-110450828D02*
X106665939Y-110450828D01*
X106665939Y-110450828D02*
X106880225Y-110379400D01*
X106880225Y-110379400D02*
X106951653Y-110307971D01*
X106951653Y-110307971D02*
X106951653Y-109807971D01*
X106951653Y-109807971D02*
X106665939Y-109807971D01*
X107594510Y-110450828D02*
X107594510Y-108950828D01*
X107594510Y-108950828D02*
X108451653Y-110450828D01*
X108451653Y-110450828D02*
X108451653Y-108950828D01*
X109165939Y-110450828D02*
X109165939Y-108950828D01*
X109165939Y-108950828D02*
X109523082Y-108950828D01*
X109523082Y-108950828D02*
X109737368Y-109022257D01*
X109737368Y-109022257D02*
X109880225Y-109165114D01*
X109880225Y-109165114D02*
X109951654Y-109307971D01*
X109951654Y-109307971D02*
X110023082Y-109593685D01*
X110023082Y-109593685D02*
X110023082Y-109807971D01*
X110023082Y-109807971D02*
X109951654Y-110093685D01*
X109951654Y-110093685D02*
X109880225Y-110236542D01*
X109880225Y-110236542D02*
X109737368Y-110379400D01*
X109737368Y-110379400D02*
X109523082Y-110450828D01*
X109523082Y-110450828D02*
X109165939Y-110450828D01*
X106690828Y-97359774D02*
X108190828Y-96859774D01*
X108190828Y-96859774D02*
X106690828Y-96359774D01*
X106690828Y-95574060D02*
X106690828Y-95288346D01*
X106690828Y-95288346D02*
X106762257Y-95145489D01*
X106762257Y-95145489D02*
X106905114Y-95002632D01*
X106905114Y-95002632D02*
X107190828Y-94931203D01*
X107190828Y-94931203D02*
X107690828Y-94931203D01*
X107690828Y-94931203D02*
X107976542Y-95002632D01*
X107976542Y-95002632D02*
X108119400Y-95145489D01*
X108119400Y-95145489D02*
X108190828Y-95288346D01*
X108190828Y-95288346D02*
X108190828Y-95574060D01*
X108190828Y-95574060D02*
X108119400Y-95716918D01*
X108119400Y-95716918D02*
X107976542Y-95859775D01*
X107976542Y-95859775D02*
X107690828Y-95931203D01*
X107690828Y-95931203D02*
X107190828Y-95931203D01*
X107190828Y-95931203D02*
X106905114Y-95859775D01*
X106905114Y-95859775D02*
X106762257Y-95716918D01*
X106762257Y-95716918D02*
X106690828Y-95574060D01*
X106690828Y-94288346D02*
X107905114Y-94288346D01*
X107905114Y-94288346D02*
X108047971Y-94216917D01*
X108047971Y-94216917D02*
X108119400Y-94145489D01*
X108119400Y-94145489D02*
X108190828Y-94002631D01*
X108190828Y-94002631D02*
X108190828Y-93716917D01*
X108190828Y-93716917D02*
X108119400Y-93574060D01*
X108119400Y-93574060D02*
X108047971Y-93502631D01*
X108047971Y-93502631D02*
X107905114Y-93431203D01*
X107905114Y-93431203D02*
X106690828Y-93431203D01*
X106690828Y-92931202D02*
X106690828Y-92074060D01*
X108190828Y-92502631D02*
X106690828Y-92502631D01*
X120959774Y-55327742D02*
X121102632Y-55399171D01*
X121102632Y-55399171D02*
X121316917Y-55399171D01*
X121316917Y-55399171D02*
X121531203Y-55327742D01*
X121531203Y-55327742D02*
X121674060Y-55184885D01*
X121674060Y-55184885D02*
X121745489Y-55042028D01*
X121745489Y-55042028D02*
X121816917Y-54756314D01*
X121816917Y-54756314D02*
X121816917Y-54542028D01*
X121816917Y-54542028D02*
X121745489Y-54256314D01*
X121745489Y-54256314D02*
X121674060Y-54113457D01*
X121674060Y-54113457D02*
X121531203Y-53970600D01*
X121531203Y-53970600D02*
X121316917Y-53899171D01*
X121316917Y-53899171D02*
X121174060Y-53899171D01*
X121174060Y-53899171D02*
X120959774Y-53970600D01*
X120959774Y-53970600D02*
X120888346Y-54042028D01*
X120888346Y-54042028D02*
X120888346Y-54542028D01*
X120888346Y-54542028D02*
X121174060Y-54542028D01*
X120245489Y-53899171D02*
X120245489Y-55399171D01*
X120245489Y-55399171D02*
X119388346Y-53899171D01*
X119388346Y-53899171D02*
X119388346Y-55399171D01*
X118674060Y-53899171D02*
X118674060Y-55399171D01*
X118674060Y-55399171D02*
X118316917Y-55399171D01*
X118316917Y-55399171D02*
X118102631Y-55327742D01*
X118102631Y-55327742D02*
X117959774Y-55184885D01*
X117959774Y-55184885D02*
X117888345Y-55042028D01*
X117888345Y-55042028D02*
X117816917Y-54756314D01*
X117816917Y-54756314D02*
X117816917Y-54542028D01*
X117816917Y-54542028D02*
X117888345Y-54256314D01*
X117888345Y-54256314D02*
X117959774Y-54113457D01*
X117959774Y-54113457D02*
X118102631Y-53970600D01*
X118102631Y-53970600D02*
X118316917Y-53899171D01*
X118316917Y-53899171D02*
X118674060Y-53899171D01*
D12*
X84895238Y-109608940D02*
X84628571Y-109227987D01*
X84438095Y-109608940D02*
X84438095Y-108808940D01*
X84438095Y-108808940D02*
X84742857Y-108808940D01*
X84742857Y-108808940D02*
X84819047Y-108847035D01*
X84819047Y-108847035D02*
X84857142Y-108885130D01*
X84857142Y-108885130D02*
X84895238Y-108961321D01*
X84895238Y-108961321D02*
X84895238Y-109075606D01*
X84895238Y-109075606D02*
X84857142Y-109151797D01*
X84857142Y-109151797D02*
X84819047Y-109189892D01*
X84819047Y-109189892D02*
X84742857Y-109227987D01*
X84742857Y-109227987D02*
X84438095Y-109227987D01*
X85238095Y-109189892D02*
X85504761Y-109189892D01*
X85619047Y-109608940D02*
X85238095Y-109608940D01*
X85238095Y-109608940D02*
X85238095Y-108808940D01*
X85238095Y-108808940D02*
X85619047Y-108808940D01*
X85847619Y-108808940D02*
X86114286Y-109608940D01*
X86114286Y-109608940D02*
X86380952Y-108808940D01*
X87219047Y-109380368D02*
X87600000Y-109380368D01*
X87142857Y-109608940D02*
X87409524Y-108808940D01*
X87409524Y-108808940D02*
X87676190Y-109608940D01*
X82228569Y-110173085D02*
X82266665Y-110134990D01*
X82266665Y-110134990D02*
X82342855Y-110096895D01*
X82342855Y-110096895D02*
X82533331Y-110096895D01*
X82533331Y-110096895D02*
X82609522Y-110134990D01*
X82609522Y-110134990D02*
X82647617Y-110173085D01*
X82647617Y-110173085D02*
X82685712Y-110249276D01*
X82685712Y-110249276D02*
X82685712Y-110325466D01*
X82685712Y-110325466D02*
X82647617Y-110439752D01*
X82647617Y-110439752D02*
X82190474Y-110896895D01*
X82190474Y-110896895D02*
X82685712Y-110896895D01*
X82952379Y-110096895D02*
X83447617Y-110096895D01*
X83447617Y-110096895D02*
X83180951Y-110401657D01*
X83180951Y-110401657D02*
X83295236Y-110401657D01*
X83295236Y-110401657D02*
X83371427Y-110439752D01*
X83371427Y-110439752D02*
X83409522Y-110477847D01*
X83409522Y-110477847D02*
X83447617Y-110554038D01*
X83447617Y-110554038D02*
X83447617Y-110744514D01*
X83447617Y-110744514D02*
X83409522Y-110820704D01*
X83409522Y-110820704D02*
X83371427Y-110858800D01*
X83371427Y-110858800D02*
X83295236Y-110896895D01*
X83295236Y-110896895D02*
X83066665Y-110896895D01*
X83066665Y-110896895D02*
X82990474Y-110858800D01*
X82990474Y-110858800D02*
X82952379Y-110820704D01*
X84628570Y-110096895D02*
X84628570Y-110668323D01*
X84628570Y-110668323D02*
X84590475Y-110782609D01*
X84590475Y-110782609D02*
X84514284Y-110858800D01*
X84514284Y-110858800D02*
X84399999Y-110896895D01*
X84399999Y-110896895D02*
X84323808Y-110896895D01*
X85352380Y-110896895D02*
X85352380Y-110477847D01*
X85352380Y-110477847D02*
X85314285Y-110401657D01*
X85314285Y-110401657D02*
X85238094Y-110363561D01*
X85238094Y-110363561D02*
X85085713Y-110363561D01*
X85085713Y-110363561D02*
X85009523Y-110401657D01*
X85352380Y-110858800D02*
X85276189Y-110896895D01*
X85276189Y-110896895D02*
X85085713Y-110896895D01*
X85085713Y-110896895D02*
X85009523Y-110858800D01*
X85009523Y-110858800D02*
X84971427Y-110782609D01*
X84971427Y-110782609D02*
X84971427Y-110706419D01*
X84971427Y-110706419D02*
X85009523Y-110630228D01*
X85009523Y-110630228D02*
X85085713Y-110592133D01*
X85085713Y-110592133D02*
X85276189Y-110592133D01*
X85276189Y-110592133D02*
X85352380Y-110554038D01*
X85733333Y-110363561D02*
X85733333Y-110896895D01*
X85733333Y-110439752D02*
X85771428Y-110401657D01*
X85771428Y-110401657D02*
X85847618Y-110363561D01*
X85847618Y-110363561D02*
X85961904Y-110363561D01*
X85961904Y-110363561D02*
X86038095Y-110401657D01*
X86038095Y-110401657D02*
X86076190Y-110477847D01*
X86076190Y-110477847D02*
X86076190Y-110896895D01*
X87028571Y-110173085D02*
X87066667Y-110134990D01*
X87066667Y-110134990D02*
X87142857Y-110096895D01*
X87142857Y-110096895D02*
X87333333Y-110096895D01*
X87333333Y-110096895D02*
X87409524Y-110134990D01*
X87409524Y-110134990D02*
X87447619Y-110173085D01*
X87447619Y-110173085D02*
X87485714Y-110249276D01*
X87485714Y-110249276D02*
X87485714Y-110325466D01*
X87485714Y-110325466D02*
X87447619Y-110439752D01*
X87447619Y-110439752D02*
X86990476Y-110896895D01*
X86990476Y-110896895D02*
X87485714Y-110896895D01*
X87980953Y-110096895D02*
X88057143Y-110096895D01*
X88057143Y-110096895D02*
X88133334Y-110134990D01*
X88133334Y-110134990D02*
X88171429Y-110173085D01*
X88171429Y-110173085D02*
X88209524Y-110249276D01*
X88209524Y-110249276D02*
X88247619Y-110401657D01*
X88247619Y-110401657D02*
X88247619Y-110592133D01*
X88247619Y-110592133D02*
X88209524Y-110744514D01*
X88209524Y-110744514D02*
X88171429Y-110820704D01*
X88171429Y-110820704D02*
X88133334Y-110858800D01*
X88133334Y-110858800D02*
X88057143Y-110896895D01*
X88057143Y-110896895D02*
X87980953Y-110896895D01*
X87980953Y-110896895D02*
X87904762Y-110858800D01*
X87904762Y-110858800D02*
X87866667Y-110820704D01*
X87866667Y-110820704D02*
X87828572Y-110744514D01*
X87828572Y-110744514D02*
X87790476Y-110592133D01*
X87790476Y-110592133D02*
X87790476Y-110401657D01*
X87790476Y-110401657D02*
X87828572Y-110249276D01*
X87828572Y-110249276D02*
X87866667Y-110173085D01*
X87866667Y-110173085D02*
X87904762Y-110134990D01*
X87904762Y-110134990D02*
X87980953Y-110096895D01*
X88552381Y-110173085D02*
X88590477Y-110134990D01*
X88590477Y-110134990D02*
X88666667Y-110096895D01*
X88666667Y-110096895D02*
X88857143Y-110096895D01*
X88857143Y-110096895D02*
X88933334Y-110134990D01*
X88933334Y-110134990D02*
X88971429Y-110173085D01*
X88971429Y-110173085D02*
X89009524Y-110249276D01*
X89009524Y-110249276D02*
X89009524Y-110325466D01*
X89009524Y-110325466D02*
X88971429Y-110439752D01*
X88971429Y-110439752D02*
X88514286Y-110896895D01*
X88514286Y-110896895D02*
X89009524Y-110896895D01*
X89733334Y-110096895D02*
X89352382Y-110096895D01*
X89352382Y-110096895D02*
X89314286Y-110477847D01*
X89314286Y-110477847D02*
X89352382Y-110439752D01*
X89352382Y-110439752D02*
X89428572Y-110401657D01*
X89428572Y-110401657D02*
X89619048Y-110401657D01*
X89619048Y-110401657D02*
X89695239Y-110439752D01*
X89695239Y-110439752D02*
X89733334Y-110477847D01*
X89733334Y-110477847D02*
X89771429Y-110554038D01*
X89771429Y-110554038D02*
X89771429Y-110744514D01*
X89771429Y-110744514D02*
X89733334Y-110820704D01*
X89733334Y-110820704D02*
X89695239Y-110858800D01*
X89695239Y-110858800D02*
X89619048Y-110896895D01*
X89619048Y-110896895D02*
X89428572Y-110896895D01*
X89428572Y-110896895D02*
X89352382Y-110858800D01*
X89352382Y-110858800D02*
X89314286Y-110820704D01*
D11*
X120200828Y-70969774D02*
X121700828Y-70469774D01*
X121700828Y-70469774D02*
X120200828Y-69969774D01*
X121700828Y-69469775D02*
X120200828Y-69469775D01*
X121700828Y-68755489D02*
X120200828Y-68755489D01*
X120200828Y-68755489D02*
X121700828Y-67898346D01*
X121700828Y-67898346D02*
X120200828Y-67898346D01*
D13*
X102135595Y-82438819D02*
X102135595Y-83248342D01*
X102135595Y-83248342D02*
X102183214Y-83343580D01*
X102183214Y-83343580D02*
X102230833Y-83391200D01*
X102230833Y-83391200D02*
X102326071Y-83438819D01*
X102326071Y-83438819D02*
X102516547Y-83438819D01*
X102516547Y-83438819D02*
X102611785Y-83391200D01*
X102611785Y-83391200D02*
X102659404Y-83343580D01*
X102659404Y-83343580D02*
X102707023Y-83248342D01*
X102707023Y-83248342D02*
X102707023Y-82438819D01*
X103087976Y-82438819D02*
X103707023Y-82438819D01*
X103707023Y-82438819D02*
X103373690Y-82819771D01*
X103373690Y-82819771D02*
X103516547Y-82819771D01*
X103516547Y-82819771D02*
X103611785Y-82867390D01*
X103611785Y-82867390D02*
X103659404Y-82915009D01*
X103659404Y-82915009D02*
X103707023Y-83010247D01*
X103707023Y-83010247D02*
X103707023Y-83248342D01*
X103707023Y-83248342D02*
X103659404Y-83343580D01*
X103659404Y-83343580D02*
X103611785Y-83391200D01*
X103611785Y-83391200D02*
X103516547Y-83438819D01*
X103516547Y-83438819D02*
X103230833Y-83438819D01*
X103230833Y-83438819D02*
X103135595Y-83391200D01*
X103135595Y-83391200D02*
X103087976Y-83343580D01*
X100738095Y-89414819D02*
X100738095Y-90224342D01*
X100738095Y-90224342D02*
X100785714Y-90319580D01*
X100785714Y-90319580D02*
X100833333Y-90367200D01*
X100833333Y-90367200D02*
X100928571Y-90414819D01*
X100928571Y-90414819D02*
X101119047Y-90414819D01*
X101119047Y-90414819D02*
X101214285Y-90367200D01*
X101214285Y-90367200D02*
X101261904Y-90319580D01*
X101261904Y-90319580D02*
X101309523Y-90224342D01*
X101309523Y-90224342D02*
X101309523Y-89414819D01*
X101738095Y-89510057D02*
X101785714Y-89462438D01*
X101785714Y-89462438D02*
X101880952Y-89414819D01*
X101880952Y-89414819D02*
X102119047Y-89414819D01*
X102119047Y-89414819D02*
X102214285Y-89462438D01*
X102214285Y-89462438D02*
X102261904Y-89510057D01*
X102261904Y-89510057D02*
X102309523Y-89605295D01*
X102309523Y-89605295D02*
X102309523Y-89700533D01*
X102309523Y-89700533D02*
X102261904Y-89843390D01*
X102261904Y-89843390D02*
X101690476Y-90414819D01*
X101690476Y-90414819D02*
X102309523Y-90414819D01*
X99048900Y-87360719D02*
X99048900Y-87598814D01*
X98810805Y-87503576D02*
X99048900Y-87598814D01*
X99048900Y-87598814D02*
X99286995Y-87503576D01*
X98906043Y-87789290D02*
X99048900Y-87598814D01*
X99048900Y-87598814D02*
X99191757Y-87789290D01*
X99048900Y-87360719D02*
X99048900Y-87598814D01*
X98810805Y-87503576D02*
X99048900Y-87598814D01*
X99048900Y-87598814D02*
X99286995Y-87503576D01*
X98906043Y-87789290D02*
X99048900Y-87598814D01*
X99048900Y-87598814D02*
X99191757Y-87789290D01*
X94035178Y-62085419D02*
X93225655Y-62085419D01*
X93225655Y-62085419D02*
X93130417Y-62133038D01*
X93130417Y-62133038D02*
X93082798Y-62180657D01*
X93082798Y-62180657D02*
X93035178Y-62275895D01*
X93035178Y-62275895D02*
X93035178Y-62466371D01*
X93035178Y-62466371D02*
X93082798Y-62561609D01*
X93082798Y-62561609D02*
X93130417Y-62609228D01*
X93130417Y-62609228D02*
X93225655Y-62656847D01*
X93225655Y-62656847D02*
X94035178Y-62656847D01*
X93035178Y-63656847D02*
X93035178Y-63085419D01*
X93035178Y-63371133D02*
X94035178Y-63371133D01*
X94035178Y-63371133D02*
X93892321Y-63275895D01*
X93892321Y-63275895D02*
X93797083Y-63180657D01*
X93797083Y-63180657D02*
X93749464Y-63085419D01*
X96133978Y-56277247D02*
X97133978Y-56277247D01*
X97133978Y-56277247D02*
X97133978Y-56515342D01*
X97133978Y-56515342D02*
X97086359Y-56658199D01*
X97086359Y-56658199D02*
X96991121Y-56753437D01*
X96991121Y-56753437D02*
X96895883Y-56801056D01*
X96895883Y-56801056D02*
X96705407Y-56848675D01*
X96705407Y-56848675D02*
X96562550Y-56848675D01*
X96562550Y-56848675D02*
X96372074Y-56801056D01*
X96372074Y-56801056D02*
X96276836Y-56753437D01*
X96276836Y-56753437D02*
X96181598Y-56658199D01*
X96181598Y-56658199D02*
X96133978Y-56515342D01*
X96133978Y-56515342D02*
X96133978Y-56277247D01*
X96181598Y-57658199D02*
X96133978Y-57562961D01*
X96133978Y-57562961D02*
X96133978Y-57372485D01*
X96133978Y-57372485D02*
X96181598Y-57277247D01*
X96181598Y-57277247D02*
X96276836Y-57229628D01*
X96276836Y-57229628D02*
X96657788Y-57229628D01*
X96657788Y-57229628D02*
X96753026Y-57277247D01*
X96753026Y-57277247D02*
X96800645Y-57372485D01*
X96800645Y-57372485D02*
X96800645Y-57562961D01*
X96800645Y-57562961D02*
X96753026Y-57658199D01*
X96753026Y-57658199D02*
X96657788Y-57705818D01*
X96657788Y-57705818D02*
X96562550Y-57705818D01*
X96562550Y-57705818D02*
X96467312Y-57229628D01*
X96181598Y-58086771D02*
X96133978Y-58182009D01*
X96133978Y-58182009D02*
X96133978Y-58372485D01*
X96133978Y-58372485D02*
X96181598Y-58467723D01*
X96181598Y-58467723D02*
X96276836Y-58515342D01*
X96276836Y-58515342D02*
X96324455Y-58515342D01*
X96324455Y-58515342D02*
X96419693Y-58467723D01*
X96419693Y-58467723D02*
X96467312Y-58372485D01*
X96467312Y-58372485D02*
X96467312Y-58229628D01*
X96467312Y-58229628D02*
X96514931Y-58134390D01*
X96514931Y-58134390D02*
X96610169Y-58086771D01*
X96610169Y-58086771D02*
X96657788Y-58086771D01*
X96657788Y-58086771D02*
X96753026Y-58134390D01*
X96753026Y-58134390D02*
X96800645Y-58229628D01*
X96800645Y-58229628D02*
X96800645Y-58372485D01*
X96800645Y-58372485D02*
X96753026Y-58467723D01*
X96133978Y-58943914D02*
X96800645Y-58943914D01*
X97133978Y-58943914D02*
X97086359Y-58896295D01*
X97086359Y-58896295D02*
X97038740Y-58943914D01*
X97038740Y-58943914D02*
X97086359Y-58991533D01*
X97086359Y-58991533D02*
X97133978Y-58943914D01*
X97133978Y-58943914D02*
X97038740Y-58943914D01*
X96800645Y-59848675D02*
X95991121Y-59848675D01*
X95991121Y-59848675D02*
X95895883Y-59801056D01*
X95895883Y-59801056D02*
X95848264Y-59753437D01*
X95848264Y-59753437D02*
X95800645Y-59658199D01*
X95800645Y-59658199D02*
X95800645Y-59515342D01*
X95800645Y-59515342D02*
X95848264Y-59420104D01*
X96181598Y-59848675D02*
X96133978Y-59753437D01*
X96133978Y-59753437D02*
X96133978Y-59562961D01*
X96133978Y-59562961D02*
X96181598Y-59467723D01*
X96181598Y-59467723D02*
X96229217Y-59420104D01*
X96229217Y-59420104D02*
X96324455Y-59372485D01*
X96324455Y-59372485D02*
X96610169Y-59372485D01*
X96610169Y-59372485D02*
X96705407Y-59420104D01*
X96705407Y-59420104D02*
X96753026Y-59467723D01*
X96753026Y-59467723D02*
X96800645Y-59562961D01*
X96800645Y-59562961D02*
X96800645Y-59753437D01*
X96800645Y-59753437D02*
X96753026Y-59848675D01*
X96800645Y-60324866D02*
X96133978Y-60324866D01*
X96705407Y-60324866D02*
X96753026Y-60372485D01*
X96753026Y-60372485D02*
X96800645Y-60467723D01*
X96800645Y-60467723D02*
X96800645Y-60610580D01*
X96800645Y-60610580D02*
X96753026Y-60705818D01*
X96753026Y-60705818D02*
X96657788Y-60753437D01*
X96657788Y-60753437D02*
X96133978Y-60753437D01*
X96133978Y-61658199D02*
X96657788Y-61658199D01*
X96657788Y-61658199D02*
X96753026Y-61610580D01*
X96753026Y-61610580D02*
X96800645Y-61515342D01*
X96800645Y-61515342D02*
X96800645Y-61324866D01*
X96800645Y-61324866D02*
X96753026Y-61229628D01*
X96181598Y-61658199D02*
X96133978Y-61562961D01*
X96133978Y-61562961D02*
X96133978Y-61324866D01*
X96133978Y-61324866D02*
X96181598Y-61229628D01*
X96181598Y-61229628D02*
X96276836Y-61182009D01*
X96276836Y-61182009D02*
X96372074Y-61182009D01*
X96372074Y-61182009D02*
X96467312Y-61229628D01*
X96467312Y-61229628D02*
X96514931Y-61324866D01*
X96514931Y-61324866D02*
X96514931Y-61562961D01*
X96514931Y-61562961D02*
X96562550Y-61658199D01*
X96800645Y-61991533D02*
X96800645Y-62372485D01*
X97133978Y-62134390D02*
X96276836Y-62134390D01*
X96276836Y-62134390D02*
X96181598Y-62182009D01*
X96181598Y-62182009D02*
X96133978Y-62277247D01*
X96133978Y-62277247D02*
X96133978Y-62372485D01*
X96133978Y-62848676D02*
X96181598Y-62753438D01*
X96181598Y-62753438D02*
X96229217Y-62705819D01*
X96229217Y-62705819D02*
X96324455Y-62658200D01*
X96324455Y-62658200D02*
X96610169Y-62658200D01*
X96610169Y-62658200D02*
X96705407Y-62705819D01*
X96705407Y-62705819D02*
X96753026Y-62753438D01*
X96753026Y-62753438D02*
X96800645Y-62848676D01*
X96800645Y-62848676D02*
X96800645Y-62991533D01*
X96800645Y-62991533D02*
X96753026Y-63086771D01*
X96753026Y-63086771D02*
X96705407Y-63134390D01*
X96705407Y-63134390D02*
X96610169Y-63182009D01*
X96610169Y-63182009D02*
X96324455Y-63182009D01*
X96324455Y-63182009D02*
X96229217Y-63134390D01*
X96229217Y-63134390D02*
X96181598Y-63086771D01*
X96181598Y-63086771D02*
X96133978Y-62991533D01*
X96133978Y-62991533D02*
X96133978Y-62848676D01*
X96133978Y-63610581D02*
X96800645Y-63610581D01*
X96610169Y-63610581D02*
X96705407Y-63658200D01*
X96705407Y-63658200D02*
X96753026Y-63705819D01*
X96753026Y-63705819D02*
X96800645Y-63801057D01*
X96800645Y-63801057D02*
X96800645Y-63896295D01*
X97133978Y-64705819D02*
X97133978Y-64229629D01*
X97133978Y-64229629D02*
X96657788Y-64182010D01*
X96657788Y-64182010D02*
X96705407Y-64229629D01*
X96705407Y-64229629D02*
X96753026Y-64324867D01*
X96753026Y-64324867D02*
X96753026Y-64562962D01*
X96753026Y-64562962D02*
X96705407Y-64658200D01*
X96705407Y-64658200D02*
X96657788Y-64705819D01*
X96657788Y-64705819D02*
X96562550Y-64753438D01*
X96562550Y-64753438D02*
X96324455Y-64753438D01*
X96324455Y-64753438D02*
X96229217Y-64705819D01*
X96229217Y-64705819D02*
X96181598Y-64658200D01*
X96181598Y-64658200D02*
X96133978Y-64562962D01*
X96133978Y-64562962D02*
X96133978Y-64324867D01*
X96133978Y-64324867D02*
X96181598Y-64229629D01*
X96181598Y-64229629D02*
X96229217Y-64182010D01*
X96133978Y-65705819D02*
X96133978Y-65134391D01*
X96133978Y-65420105D02*
X97133978Y-65420105D01*
X97133978Y-65420105D02*
X96991121Y-65324867D01*
X96991121Y-65324867D02*
X96895883Y-65229629D01*
X96895883Y-65229629D02*
X96848264Y-65134391D01*
X128510057Y-87595238D02*
X128462438Y-87690476D01*
X128462438Y-87690476D02*
X128367200Y-87785714D01*
X128367200Y-87785714D02*
X128224342Y-87928571D01*
X128224342Y-87928571D02*
X128176723Y-88023809D01*
X128176723Y-88023809D02*
X128176723Y-88119047D01*
X128414819Y-88071428D02*
X128367200Y-88166666D01*
X128367200Y-88166666D02*
X128271961Y-88261904D01*
X128271961Y-88261904D02*
X128081485Y-88309523D01*
X128081485Y-88309523D02*
X127748152Y-88309523D01*
X127748152Y-88309523D02*
X127557676Y-88261904D01*
X127557676Y-88261904D02*
X127462438Y-88166666D01*
X127462438Y-88166666D02*
X127414819Y-88071428D01*
X127414819Y-88071428D02*
X127414819Y-87880952D01*
X127414819Y-87880952D02*
X127462438Y-87785714D01*
X127462438Y-87785714D02*
X127557676Y-87690476D01*
X127557676Y-87690476D02*
X127748152Y-87642857D01*
X127748152Y-87642857D02*
X128081485Y-87642857D01*
X128081485Y-87642857D02*
X128271961Y-87690476D01*
X128271961Y-87690476D02*
X128367200Y-87785714D01*
X128367200Y-87785714D02*
X128414819Y-87880952D01*
X128414819Y-87880952D02*
X128414819Y-88071428D01*
X127414819Y-87309523D02*
X127414819Y-86690476D01*
X127414819Y-86690476D02*
X127795771Y-87023809D01*
X127795771Y-87023809D02*
X127795771Y-86880952D01*
X127795771Y-86880952D02*
X127843390Y-86785714D01*
X127843390Y-86785714D02*
X127891009Y-86738095D01*
X127891009Y-86738095D02*
X127986247Y-86690476D01*
X127986247Y-86690476D02*
X128224342Y-86690476D01*
X128224342Y-86690476D02*
X128319580Y-86738095D01*
X128319580Y-86738095D02*
X128367200Y-86785714D01*
X128367200Y-86785714D02*
X128414819Y-86880952D01*
X128414819Y-86880952D02*
X128414819Y-87166666D01*
X128414819Y-87166666D02*
X128367200Y-87261904D01*
X128367200Y-87261904D02*
X128319580Y-87309523D01*
X116260057Y-87695238D02*
X116212438Y-87790476D01*
X116212438Y-87790476D02*
X116117200Y-87885714D01*
X116117200Y-87885714D02*
X115974342Y-88028571D01*
X115974342Y-88028571D02*
X115926723Y-88123809D01*
X115926723Y-88123809D02*
X115926723Y-88219047D01*
X116164819Y-88171428D02*
X116117200Y-88266666D01*
X116117200Y-88266666D02*
X116021961Y-88361904D01*
X116021961Y-88361904D02*
X115831485Y-88409523D01*
X115831485Y-88409523D02*
X115498152Y-88409523D01*
X115498152Y-88409523D02*
X115307676Y-88361904D01*
X115307676Y-88361904D02*
X115212438Y-88266666D01*
X115212438Y-88266666D02*
X115164819Y-88171428D01*
X115164819Y-88171428D02*
X115164819Y-87980952D01*
X115164819Y-87980952D02*
X115212438Y-87885714D01*
X115212438Y-87885714D02*
X115307676Y-87790476D01*
X115307676Y-87790476D02*
X115498152Y-87742857D01*
X115498152Y-87742857D02*
X115831485Y-87742857D01*
X115831485Y-87742857D02*
X116021961Y-87790476D01*
X116021961Y-87790476D02*
X116117200Y-87885714D01*
X116117200Y-87885714D02*
X116164819Y-87980952D01*
X116164819Y-87980952D02*
X116164819Y-88171428D01*
X115260057Y-87361904D02*
X115212438Y-87314285D01*
X115212438Y-87314285D02*
X115164819Y-87219047D01*
X115164819Y-87219047D02*
X115164819Y-86980952D01*
X115164819Y-86980952D02*
X115212438Y-86885714D01*
X115212438Y-86885714D02*
X115260057Y-86838095D01*
X115260057Y-86838095D02*
X115355295Y-86790476D01*
X115355295Y-86790476D02*
X115450533Y-86790476D01*
X115450533Y-86790476D02*
X115593390Y-86838095D01*
X115593390Y-86838095D02*
X116164819Y-87409523D01*
X116164819Y-87409523D02*
X116164819Y-86790476D01*
X98645238Y-72089942D02*
X98740476Y-72137561D01*
X98740476Y-72137561D02*
X98835714Y-72232800D01*
X98835714Y-72232800D02*
X98978571Y-72375657D01*
X98978571Y-72375657D02*
X99073809Y-72423276D01*
X99073809Y-72423276D02*
X99169047Y-72423276D01*
X99121428Y-72185180D02*
X99216666Y-72232800D01*
X99216666Y-72232800D02*
X99311904Y-72328038D01*
X99311904Y-72328038D02*
X99359523Y-72518514D01*
X99359523Y-72518514D02*
X99359523Y-72851847D01*
X99359523Y-72851847D02*
X99311904Y-73042323D01*
X99311904Y-73042323D02*
X99216666Y-73137561D01*
X99216666Y-73137561D02*
X99121428Y-73185180D01*
X99121428Y-73185180D02*
X98930952Y-73185180D01*
X98930952Y-73185180D02*
X98835714Y-73137561D01*
X98835714Y-73137561D02*
X98740476Y-73042323D01*
X98740476Y-73042323D02*
X98692857Y-72851847D01*
X98692857Y-72851847D02*
X98692857Y-72518514D01*
X98692857Y-72518514D02*
X98740476Y-72328038D01*
X98740476Y-72328038D02*
X98835714Y-72232800D01*
X98835714Y-72232800D02*
X98930952Y-72185180D01*
X98930952Y-72185180D02*
X99121428Y-72185180D01*
X97740476Y-72185180D02*
X98311904Y-72185180D01*
X98026190Y-72185180D02*
X98026190Y-73185180D01*
X98026190Y-73185180D02*
X98121428Y-73042323D01*
X98121428Y-73042323D02*
X98216666Y-72947085D01*
X98216666Y-72947085D02*
X98311904Y-72899466D01*
X95370833Y-78574819D02*
X95037500Y-78098628D01*
X94799405Y-78574819D02*
X94799405Y-77574819D01*
X94799405Y-77574819D02*
X95180357Y-77574819D01*
X95180357Y-77574819D02*
X95275595Y-77622438D01*
X95275595Y-77622438D02*
X95323214Y-77670057D01*
X95323214Y-77670057D02*
X95370833Y-77765295D01*
X95370833Y-77765295D02*
X95370833Y-77908152D01*
X95370833Y-77908152D02*
X95323214Y-78003390D01*
X95323214Y-78003390D02*
X95275595Y-78051009D01*
X95275595Y-78051009D02*
X95180357Y-78098628D01*
X95180357Y-78098628D02*
X94799405Y-78098628D01*
X95847024Y-78574819D02*
X96037500Y-78574819D01*
X96037500Y-78574819D02*
X96132738Y-78527200D01*
X96132738Y-78527200D02*
X96180357Y-78479580D01*
X96180357Y-78479580D02*
X96275595Y-78336723D01*
X96275595Y-78336723D02*
X96323214Y-78146247D01*
X96323214Y-78146247D02*
X96323214Y-77765295D01*
X96323214Y-77765295D02*
X96275595Y-77670057D01*
X96275595Y-77670057D02*
X96227976Y-77622438D01*
X96227976Y-77622438D02*
X96132738Y-77574819D01*
X96132738Y-77574819D02*
X95942262Y-77574819D01*
X95942262Y-77574819D02*
X95847024Y-77622438D01*
X95847024Y-77622438D02*
X95799405Y-77670057D01*
X95799405Y-77670057D02*
X95751786Y-77765295D01*
X95751786Y-77765295D02*
X95751786Y-78003390D01*
X95751786Y-78003390D02*
X95799405Y-78098628D01*
X95799405Y-78098628D02*
X95847024Y-78146247D01*
X95847024Y-78146247D02*
X95942262Y-78193866D01*
X95942262Y-78193866D02*
X96132738Y-78193866D01*
X96132738Y-78193866D02*
X96227976Y-78146247D01*
X96227976Y-78146247D02*
X96275595Y-78098628D01*
X96275595Y-78098628D02*
X96323214Y-78003390D01*
X128359580Y-104048989D02*
X128407200Y-104096608D01*
X128407200Y-104096608D02*
X128454819Y-104239465D01*
X128454819Y-104239465D02*
X128454819Y-104334703D01*
X128454819Y-104334703D02*
X128407200Y-104477560D01*
X128407200Y-104477560D02*
X128311961Y-104572798D01*
X128311961Y-104572798D02*
X128216723Y-104620417D01*
X128216723Y-104620417D02*
X128026247Y-104668036D01*
X128026247Y-104668036D02*
X127883390Y-104668036D01*
X127883390Y-104668036D02*
X127692914Y-104620417D01*
X127692914Y-104620417D02*
X127597676Y-104572798D01*
X127597676Y-104572798D02*
X127502438Y-104477560D01*
X127502438Y-104477560D02*
X127454819Y-104334703D01*
X127454819Y-104334703D02*
X127454819Y-104239465D01*
X127454819Y-104239465D02*
X127502438Y-104096608D01*
X127502438Y-104096608D02*
X127550057Y-104048989D01*
X127454819Y-103715655D02*
X127454819Y-103048989D01*
X127454819Y-103048989D02*
X128454819Y-103477560D01*
X116829580Y-103916666D02*
X116877200Y-103964285D01*
X116877200Y-103964285D02*
X116924819Y-104107142D01*
X116924819Y-104107142D02*
X116924819Y-104202380D01*
X116924819Y-104202380D02*
X116877200Y-104345237D01*
X116877200Y-104345237D02*
X116781961Y-104440475D01*
X116781961Y-104440475D02*
X116686723Y-104488094D01*
X116686723Y-104488094D02*
X116496247Y-104535713D01*
X116496247Y-104535713D02*
X116353390Y-104535713D01*
X116353390Y-104535713D02*
X116162914Y-104488094D01*
X116162914Y-104488094D02*
X116067676Y-104440475D01*
X116067676Y-104440475D02*
X115972438Y-104345237D01*
X115972438Y-104345237D02*
X115924819Y-104202380D01*
X115924819Y-104202380D02*
X115924819Y-104107142D01*
X115924819Y-104107142D02*
X115972438Y-103964285D01*
X115972438Y-103964285D02*
X116020057Y-103916666D01*
X116353390Y-103345237D02*
X116305771Y-103440475D01*
X116305771Y-103440475D02*
X116258152Y-103488094D01*
X116258152Y-103488094D02*
X116162914Y-103535713D01*
X116162914Y-103535713D02*
X116115295Y-103535713D01*
X116115295Y-103535713D02*
X116020057Y-103488094D01*
X116020057Y-103488094D02*
X115972438Y-103440475D01*
X115972438Y-103440475D02*
X115924819Y-103345237D01*
X115924819Y-103345237D02*
X115924819Y-103154761D01*
X115924819Y-103154761D02*
X115972438Y-103059523D01*
X115972438Y-103059523D02*
X116020057Y-103011904D01*
X116020057Y-103011904D02*
X116115295Y-102964285D01*
X116115295Y-102964285D02*
X116162914Y-102964285D01*
X116162914Y-102964285D02*
X116258152Y-103011904D01*
X116258152Y-103011904D02*
X116305771Y-103059523D01*
X116305771Y-103059523D02*
X116353390Y-103154761D01*
X116353390Y-103154761D02*
X116353390Y-103345237D01*
X116353390Y-103345237D02*
X116401009Y-103440475D01*
X116401009Y-103440475D02*
X116448628Y-103488094D01*
X116448628Y-103488094D02*
X116543866Y-103535713D01*
X116543866Y-103535713D02*
X116734342Y-103535713D01*
X116734342Y-103535713D02*
X116829580Y-103488094D01*
X116829580Y-103488094D02*
X116877200Y-103440475D01*
X116877200Y-103440475D02*
X116924819Y-103345237D01*
X116924819Y-103345237D02*
X116924819Y-103154761D01*
X116924819Y-103154761D02*
X116877200Y-103059523D01*
X116877200Y-103059523D02*
X116829580Y-103011904D01*
X116829580Y-103011904D02*
X116734342Y-102964285D01*
X116734342Y-102964285D02*
X116543866Y-102964285D01*
X116543866Y-102964285D02*
X116448628Y-103011904D01*
X116448628Y-103011904D02*
X116401009Y-103059523D01*
X116401009Y-103059523D02*
X116353390Y-103154761D01*
X90258333Y-95384819D02*
X89925000Y-94908628D01*
X89686905Y-95384819D02*
X89686905Y-94384819D01*
X89686905Y-94384819D02*
X90067857Y-94384819D01*
X90067857Y-94384819D02*
X90163095Y-94432438D01*
X90163095Y-94432438D02*
X90210714Y-94480057D01*
X90210714Y-94480057D02*
X90258333Y-94575295D01*
X90258333Y-94575295D02*
X90258333Y-94718152D01*
X90258333Y-94718152D02*
X90210714Y-94813390D01*
X90210714Y-94813390D02*
X90163095Y-94861009D01*
X90163095Y-94861009D02*
X90067857Y-94908628D01*
X90067857Y-94908628D02*
X89686905Y-94908628D01*
X91115476Y-94718152D02*
X91115476Y-95384819D01*
X90877381Y-94337200D02*
X90639286Y-95051485D01*
X90639286Y-95051485D02*
X91258333Y-95051485D01*
X93373333Y-57901903D02*
X93325714Y-57949523D01*
X93325714Y-57949523D02*
X93182857Y-57997142D01*
X93182857Y-57997142D02*
X93087619Y-57997142D01*
X93087619Y-57997142D02*
X92944762Y-57949523D01*
X92944762Y-57949523D02*
X92849524Y-57854284D01*
X92849524Y-57854284D02*
X92801905Y-57759046D01*
X92801905Y-57759046D02*
X92754286Y-57568570D01*
X92754286Y-57568570D02*
X92754286Y-57425713D01*
X92754286Y-57425713D02*
X92801905Y-57235237D01*
X92801905Y-57235237D02*
X92849524Y-57139999D01*
X92849524Y-57139999D02*
X92944762Y-57044761D01*
X92944762Y-57044761D02*
X93087619Y-56997142D01*
X93087619Y-56997142D02*
X93182857Y-56997142D01*
X93182857Y-56997142D02*
X93325714Y-57044761D01*
X93325714Y-57044761D02*
X93373333Y-57092380D01*
X93706667Y-56997142D02*
X94325714Y-56997142D01*
X94325714Y-56997142D02*
X93992381Y-57378094D01*
X93992381Y-57378094D02*
X94135238Y-57378094D01*
X94135238Y-57378094D02*
X94230476Y-57425713D01*
X94230476Y-57425713D02*
X94278095Y-57473332D01*
X94278095Y-57473332D02*
X94325714Y-57568570D01*
X94325714Y-57568570D02*
X94325714Y-57806665D01*
X94325714Y-57806665D02*
X94278095Y-57901903D01*
X94278095Y-57901903D02*
X94230476Y-57949523D01*
X94230476Y-57949523D02*
X94135238Y-57997142D01*
X94135238Y-57997142D02*
X93849524Y-57997142D01*
X93849524Y-57997142D02*
X93754286Y-57949523D01*
X93754286Y-57949523D02*
X93706667Y-57901903D01*
X104833333Y-80029580D02*
X104785714Y-80077200D01*
X104785714Y-80077200D02*
X104642857Y-80124819D01*
X104642857Y-80124819D02*
X104547619Y-80124819D01*
X104547619Y-80124819D02*
X104404762Y-80077200D01*
X104404762Y-80077200D02*
X104309524Y-79981961D01*
X104309524Y-79981961D02*
X104261905Y-79886723D01*
X104261905Y-79886723D02*
X104214286Y-79696247D01*
X104214286Y-79696247D02*
X104214286Y-79553390D01*
X104214286Y-79553390D02*
X104261905Y-79362914D01*
X104261905Y-79362914D02*
X104309524Y-79267676D01*
X104309524Y-79267676D02*
X104404762Y-79172438D01*
X104404762Y-79172438D02*
X104547619Y-79124819D01*
X104547619Y-79124819D02*
X104642857Y-79124819D01*
X104642857Y-79124819D02*
X104785714Y-79172438D01*
X104785714Y-79172438D02*
X104833333Y-79220057D01*
X105309524Y-80124819D02*
X105500000Y-80124819D01*
X105500000Y-80124819D02*
X105595238Y-80077200D01*
X105595238Y-80077200D02*
X105642857Y-80029580D01*
X105642857Y-80029580D02*
X105738095Y-79886723D01*
X105738095Y-79886723D02*
X105785714Y-79696247D01*
X105785714Y-79696247D02*
X105785714Y-79315295D01*
X105785714Y-79315295D02*
X105738095Y-79220057D01*
X105738095Y-79220057D02*
X105690476Y-79172438D01*
X105690476Y-79172438D02*
X105595238Y-79124819D01*
X105595238Y-79124819D02*
X105404762Y-79124819D01*
X105404762Y-79124819D02*
X105309524Y-79172438D01*
X105309524Y-79172438D02*
X105261905Y-79220057D01*
X105261905Y-79220057D02*
X105214286Y-79315295D01*
X105214286Y-79315295D02*
X105214286Y-79553390D01*
X105214286Y-79553390D02*
X105261905Y-79648628D01*
X105261905Y-79648628D02*
X105309524Y-79696247D01*
X105309524Y-79696247D02*
X105404762Y-79743866D01*
X105404762Y-79743866D02*
X105595238Y-79743866D01*
X105595238Y-79743866D02*
X105690476Y-79696247D01*
X105690476Y-79696247D02*
X105738095Y-79648628D01*
X105738095Y-79648628D02*
X105785714Y-79553390D01*
X91983333Y-90384819D02*
X91650000Y-89908628D01*
X91411905Y-90384819D02*
X91411905Y-89384819D01*
X91411905Y-89384819D02*
X91792857Y-89384819D01*
X91792857Y-89384819D02*
X91888095Y-89432438D01*
X91888095Y-89432438D02*
X91935714Y-89480057D01*
X91935714Y-89480057D02*
X91983333Y-89575295D01*
X91983333Y-89575295D02*
X91983333Y-89718152D01*
X91983333Y-89718152D02*
X91935714Y-89813390D01*
X91935714Y-89813390D02*
X91888095Y-89861009D01*
X91888095Y-89861009D02*
X91792857Y-89908628D01*
X91792857Y-89908628D02*
X91411905Y-89908628D01*
X92935714Y-90384819D02*
X92364286Y-90384819D01*
X92650000Y-90384819D02*
X92650000Y-89384819D01*
X92650000Y-89384819D02*
X92554762Y-89527676D01*
X92554762Y-89527676D02*
X92459524Y-89622914D01*
X92459524Y-89622914D02*
X92364286Y-89670533D01*
X123892142Y-99234819D02*
X123558809Y-98758628D01*
X123320714Y-99234819D02*
X123320714Y-98234819D01*
X123320714Y-98234819D02*
X123701666Y-98234819D01*
X123701666Y-98234819D02*
X123796904Y-98282438D01*
X123796904Y-98282438D02*
X123844523Y-98330057D01*
X123844523Y-98330057D02*
X123892142Y-98425295D01*
X123892142Y-98425295D02*
X123892142Y-98568152D01*
X123892142Y-98568152D02*
X123844523Y-98663390D01*
X123844523Y-98663390D02*
X123796904Y-98711009D01*
X123796904Y-98711009D02*
X123701666Y-98758628D01*
X123701666Y-98758628D02*
X123320714Y-98758628D01*
X124844523Y-99234819D02*
X124273095Y-99234819D01*
X124558809Y-99234819D02*
X124558809Y-98234819D01*
X124558809Y-98234819D02*
X124463571Y-98377676D01*
X124463571Y-98377676D02*
X124368333Y-98472914D01*
X124368333Y-98472914D02*
X124273095Y-98520533D01*
X125225476Y-98330057D02*
X125273095Y-98282438D01*
X125273095Y-98282438D02*
X125368333Y-98234819D01*
X125368333Y-98234819D02*
X125606428Y-98234819D01*
X125606428Y-98234819D02*
X125701666Y-98282438D01*
X125701666Y-98282438D02*
X125749285Y-98330057D01*
X125749285Y-98330057D02*
X125796904Y-98425295D01*
X125796904Y-98425295D02*
X125796904Y-98520533D01*
X125796904Y-98520533D02*
X125749285Y-98663390D01*
X125749285Y-98663390D02*
X125177857Y-99234819D01*
X125177857Y-99234819D02*
X125796904Y-99234819D01*
X108754819Y-62470417D02*
X107754819Y-62470417D01*
X107754819Y-62470417D02*
X107754819Y-62232322D01*
X107754819Y-62232322D02*
X107802438Y-62089465D01*
X107802438Y-62089465D02*
X107897676Y-61994227D01*
X107897676Y-61994227D02*
X107992914Y-61946608D01*
X107992914Y-61946608D02*
X108183390Y-61898989D01*
X108183390Y-61898989D02*
X108326247Y-61898989D01*
X108326247Y-61898989D02*
X108516723Y-61946608D01*
X108516723Y-61946608D02*
X108611961Y-61994227D01*
X108611961Y-61994227D02*
X108707200Y-62089465D01*
X108707200Y-62089465D02*
X108754819Y-62232322D01*
X108754819Y-62232322D02*
X108754819Y-62470417D01*
X108754819Y-60946608D02*
X108754819Y-61518036D01*
X108754819Y-61232322D02*
X107754819Y-61232322D01*
X107754819Y-61232322D02*
X107897676Y-61327560D01*
X107897676Y-61327560D02*
X107992914Y-61422798D01*
X107992914Y-61422798D02*
X108040533Y-61518036D01*
X91958333Y-89124819D02*
X91625000Y-88648628D01*
X91386905Y-89124819D02*
X91386905Y-88124819D01*
X91386905Y-88124819D02*
X91767857Y-88124819D01*
X91767857Y-88124819D02*
X91863095Y-88172438D01*
X91863095Y-88172438D02*
X91910714Y-88220057D01*
X91910714Y-88220057D02*
X91958333Y-88315295D01*
X91958333Y-88315295D02*
X91958333Y-88458152D01*
X91958333Y-88458152D02*
X91910714Y-88553390D01*
X91910714Y-88553390D02*
X91863095Y-88601009D01*
X91863095Y-88601009D02*
X91767857Y-88648628D01*
X91767857Y-88648628D02*
X91386905Y-88648628D01*
X92339286Y-88220057D02*
X92386905Y-88172438D01*
X92386905Y-88172438D02*
X92482143Y-88124819D01*
X92482143Y-88124819D02*
X92720238Y-88124819D01*
X92720238Y-88124819D02*
X92815476Y-88172438D01*
X92815476Y-88172438D02*
X92863095Y-88220057D01*
X92863095Y-88220057D02*
X92910714Y-88315295D01*
X92910714Y-88315295D02*
X92910714Y-88410533D01*
X92910714Y-88410533D02*
X92863095Y-88553390D01*
X92863095Y-88553390D02*
X92291667Y-89124819D01*
X92291667Y-89124819D02*
X92910714Y-89124819D01*
X84373333Y-82459580D02*
X84325714Y-82507200D01*
X84325714Y-82507200D02*
X84182857Y-82554819D01*
X84182857Y-82554819D02*
X84087619Y-82554819D01*
X84087619Y-82554819D02*
X83944762Y-82507200D01*
X83944762Y-82507200D02*
X83849524Y-82411961D01*
X83849524Y-82411961D02*
X83801905Y-82316723D01*
X83801905Y-82316723D02*
X83754286Y-82126247D01*
X83754286Y-82126247D02*
X83754286Y-81983390D01*
X83754286Y-81983390D02*
X83801905Y-81792914D01*
X83801905Y-81792914D02*
X83849524Y-81697676D01*
X83849524Y-81697676D02*
X83944762Y-81602438D01*
X83944762Y-81602438D02*
X84087619Y-81554819D01*
X84087619Y-81554819D02*
X84182857Y-81554819D01*
X84182857Y-81554819D02*
X84325714Y-81602438D01*
X84325714Y-81602438D02*
X84373333Y-81650057D01*
X85230476Y-81888152D02*
X85230476Y-82554819D01*
X84992381Y-81507200D02*
X84754286Y-82221485D01*
X84754286Y-82221485D02*
X85373333Y-82221485D01*
X85083333Y-84039580D02*
X85035714Y-84087200D01*
X85035714Y-84087200D02*
X84892857Y-84134819D01*
X84892857Y-84134819D02*
X84797619Y-84134819D01*
X84797619Y-84134819D02*
X84654762Y-84087200D01*
X84654762Y-84087200D02*
X84559524Y-83991961D01*
X84559524Y-83991961D02*
X84511905Y-83896723D01*
X84511905Y-83896723D02*
X84464286Y-83706247D01*
X84464286Y-83706247D02*
X84464286Y-83563390D01*
X84464286Y-83563390D02*
X84511905Y-83372914D01*
X84511905Y-83372914D02*
X84559524Y-83277676D01*
X84559524Y-83277676D02*
X84654762Y-83182438D01*
X84654762Y-83182438D02*
X84797619Y-83134819D01*
X84797619Y-83134819D02*
X84892857Y-83134819D01*
X84892857Y-83134819D02*
X85035714Y-83182438D01*
X85035714Y-83182438D02*
X85083333Y-83230057D01*
X85988095Y-83134819D02*
X85511905Y-83134819D01*
X85511905Y-83134819D02*
X85464286Y-83611009D01*
X85464286Y-83611009D02*
X85511905Y-83563390D01*
X85511905Y-83563390D02*
X85607143Y-83515771D01*
X85607143Y-83515771D02*
X85845238Y-83515771D01*
X85845238Y-83515771D02*
X85940476Y-83563390D01*
X85940476Y-83563390D02*
X85988095Y-83611009D01*
X85988095Y-83611009D02*
X86035714Y-83706247D01*
X86035714Y-83706247D02*
X86035714Y-83944342D01*
X86035714Y-83944342D02*
X85988095Y-84039580D01*
X85988095Y-84039580D02*
X85940476Y-84087200D01*
X85940476Y-84087200D02*
X85845238Y-84134819D01*
X85845238Y-84134819D02*
X85607143Y-84134819D01*
X85607143Y-84134819D02*
X85511905Y-84087200D01*
X85511905Y-84087200D02*
X85464286Y-84039580D01*
X123574819Y-61833333D02*
X124289104Y-61833333D01*
X124289104Y-61833333D02*
X124431961Y-61880952D01*
X124431961Y-61880952D02*
X124527200Y-61976190D01*
X124527200Y-61976190D02*
X124574819Y-62119047D01*
X124574819Y-62119047D02*
X124574819Y-62214285D01*
X124574819Y-60833333D02*
X124574819Y-61404761D01*
X124574819Y-61119047D02*
X123574819Y-61119047D01*
X123574819Y-61119047D02*
X123717676Y-61214285D01*
X123717676Y-61214285D02*
X123812914Y-61309523D01*
X123812914Y-61309523D02*
X123860533Y-61404761D01*
X100607142Y-85274819D02*
X100273809Y-84798628D01*
X100035714Y-85274819D02*
X100035714Y-84274819D01*
X100035714Y-84274819D02*
X100416666Y-84274819D01*
X100416666Y-84274819D02*
X100511904Y-84322438D01*
X100511904Y-84322438D02*
X100559523Y-84370057D01*
X100559523Y-84370057D02*
X100607142Y-84465295D01*
X100607142Y-84465295D02*
X100607142Y-84608152D01*
X100607142Y-84608152D02*
X100559523Y-84703390D01*
X100559523Y-84703390D02*
X100511904Y-84751009D01*
X100511904Y-84751009D02*
X100416666Y-84798628D01*
X100416666Y-84798628D02*
X100035714Y-84798628D01*
X101559523Y-85274819D02*
X100988095Y-85274819D01*
X101273809Y-85274819D02*
X101273809Y-84274819D01*
X101273809Y-84274819D02*
X101178571Y-84417676D01*
X101178571Y-84417676D02*
X101083333Y-84512914D01*
X101083333Y-84512914D02*
X100988095Y-84560533D01*
X102464285Y-84274819D02*
X101988095Y-84274819D01*
X101988095Y-84274819D02*
X101940476Y-84751009D01*
X101940476Y-84751009D02*
X101988095Y-84703390D01*
X101988095Y-84703390D02*
X102083333Y-84655771D01*
X102083333Y-84655771D02*
X102321428Y-84655771D01*
X102321428Y-84655771D02*
X102416666Y-84703390D01*
X102416666Y-84703390D02*
X102464285Y-84751009D01*
X102464285Y-84751009D02*
X102511904Y-84846247D01*
X102511904Y-84846247D02*
X102511904Y-85084342D01*
X102511904Y-85084342D02*
X102464285Y-85179580D01*
X102464285Y-85179580D02*
X102416666Y-85227200D01*
X102416666Y-85227200D02*
X102321428Y-85274819D01*
X102321428Y-85274819D02*
X102083333Y-85274819D01*
X102083333Y-85274819D02*
X101988095Y-85227200D01*
X101988095Y-85227200D02*
X101940476Y-85179580D01*
X105857142Y-86039580D02*
X105809523Y-86087200D01*
X105809523Y-86087200D02*
X105666666Y-86134819D01*
X105666666Y-86134819D02*
X105571428Y-86134819D01*
X105571428Y-86134819D02*
X105428571Y-86087200D01*
X105428571Y-86087200D02*
X105333333Y-85991961D01*
X105333333Y-85991961D02*
X105285714Y-85896723D01*
X105285714Y-85896723D02*
X105238095Y-85706247D01*
X105238095Y-85706247D02*
X105238095Y-85563390D01*
X105238095Y-85563390D02*
X105285714Y-85372914D01*
X105285714Y-85372914D02*
X105333333Y-85277676D01*
X105333333Y-85277676D02*
X105428571Y-85182438D01*
X105428571Y-85182438D02*
X105571428Y-85134819D01*
X105571428Y-85134819D02*
X105666666Y-85134819D01*
X105666666Y-85134819D02*
X105809523Y-85182438D01*
X105809523Y-85182438D02*
X105857142Y-85230057D01*
X106809523Y-86134819D02*
X106238095Y-86134819D01*
X106523809Y-86134819D02*
X106523809Y-85134819D01*
X106523809Y-85134819D02*
X106428571Y-85277676D01*
X106428571Y-85277676D02*
X106333333Y-85372914D01*
X106333333Y-85372914D02*
X106238095Y-85420533D01*
X107428571Y-85134819D02*
X107523809Y-85134819D01*
X107523809Y-85134819D02*
X107619047Y-85182438D01*
X107619047Y-85182438D02*
X107666666Y-85230057D01*
X107666666Y-85230057D02*
X107714285Y-85325295D01*
X107714285Y-85325295D02*
X107761904Y-85515771D01*
X107761904Y-85515771D02*
X107761904Y-85753866D01*
X107761904Y-85753866D02*
X107714285Y-85944342D01*
X107714285Y-85944342D02*
X107666666Y-86039580D01*
X107666666Y-86039580D02*
X107619047Y-86087200D01*
X107619047Y-86087200D02*
X107523809Y-86134819D01*
X107523809Y-86134819D02*
X107428571Y-86134819D01*
X107428571Y-86134819D02*
X107333333Y-86087200D01*
X107333333Y-86087200D02*
X107285714Y-86039580D01*
X107285714Y-86039580D02*
X107238095Y-85944342D01*
X107238095Y-85944342D02*
X107190476Y-85753866D01*
X107190476Y-85753866D02*
X107190476Y-85515771D01*
X107190476Y-85515771D02*
X107238095Y-85325295D01*
X107238095Y-85325295D02*
X107285714Y-85230057D01*
X107285714Y-85230057D02*
X107333333Y-85182438D01*
X107333333Y-85182438D02*
X107428571Y-85134819D01*
X111607142Y-98384819D02*
X111273809Y-97908628D01*
X111035714Y-98384819D02*
X111035714Y-97384819D01*
X111035714Y-97384819D02*
X111416666Y-97384819D01*
X111416666Y-97384819D02*
X111511904Y-97432438D01*
X111511904Y-97432438D02*
X111559523Y-97480057D01*
X111559523Y-97480057D02*
X111607142Y-97575295D01*
X111607142Y-97575295D02*
X111607142Y-97718152D01*
X111607142Y-97718152D02*
X111559523Y-97813390D01*
X111559523Y-97813390D02*
X111511904Y-97861009D01*
X111511904Y-97861009D02*
X111416666Y-97908628D01*
X111416666Y-97908628D02*
X111035714Y-97908628D01*
X112559523Y-98384819D02*
X111988095Y-98384819D01*
X112273809Y-98384819D02*
X112273809Y-97384819D01*
X112273809Y-97384819D02*
X112178571Y-97527676D01*
X112178571Y-97527676D02*
X112083333Y-97622914D01*
X112083333Y-97622914D02*
X111988095Y-97670533D01*
X113511904Y-98384819D02*
X112940476Y-98384819D01*
X113226190Y-98384819D02*
X113226190Y-97384819D01*
X113226190Y-97384819D02*
X113130952Y-97527676D01*
X113130952Y-97527676D02*
X113035714Y-97622914D01*
X113035714Y-97622914D02*
X112940476Y-97670533D01*
X94894642Y-83484819D02*
X94561309Y-83008628D01*
X94323214Y-83484819D02*
X94323214Y-82484819D01*
X94323214Y-82484819D02*
X94704166Y-82484819D01*
X94704166Y-82484819D02*
X94799404Y-82532438D01*
X94799404Y-82532438D02*
X94847023Y-82580057D01*
X94847023Y-82580057D02*
X94894642Y-82675295D01*
X94894642Y-82675295D02*
X94894642Y-82818152D01*
X94894642Y-82818152D02*
X94847023Y-82913390D01*
X94847023Y-82913390D02*
X94799404Y-82961009D01*
X94799404Y-82961009D02*
X94704166Y-83008628D01*
X94704166Y-83008628D02*
X94323214Y-83008628D01*
X95847023Y-83484819D02*
X95275595Y-83484819D01*
X95561309Y-83484819D02*
X95561309Y-82484819D01*
X95561309Y-82484819D02*
X95466071Y-82627676D01*
X95466071Y-82627676D02*
X95370833Y-82722914D01*
X95370833Y-82722914D02*
X95275595Y-82770533D01*
X96466071Y-82484819D02*
X96561309Y-82484819D01*
X96561309Y-82484819D02*
X96656547Y-82532438D01*
X96656547Y-82532438D02*
X96704166Y-82580057D01*
X96704166Y-82580057D02*
X96751785Y-82675295D01*
X96751785Y-82675295D02*
X96799404Y-82865771D01*
X96799404Y-82865771D02*
X96799404Y-83103866D01*
X96799404Y-83103866D02*
X96751785Y-83294342D01*
X96751785Y-83294342D02*
X96704166Y-83389580D01*
X96704166Y-83389580D02*
X96656547Y-83437200D01*
X96656547Y-83437200D02*
X96561309Y-83484819D01*
X96561309Y-83484819D02*
X96466071Y-83484819D01*
X96466071Y-83484819D02*
X96370833Y-83437200D01*
X96370833Y-83437200D02*
X96323214Y-83389580D01*
X96323214Y-83389580D02*
X96275595Y-83294342D01*
X96275595Y-83294342D02*
X96227976Y-83103866D01*
X96227976Y-83103866D02*
X96227976Y-82865771D01*
X96227976Y-82865771D02*
X96275595Y-82675295D01*
X96275595Y-82675295D02*
X96323214Y-82580057D01*
X96323214Y-82580057D02*
X96370833Y-82532438D01*
X96370833Y-82532438D02*
X96466071Y-82484819D01*
X84561905Y-88954819D02*
X84561905Y-87954819D01*
X84561905Y-87954819D02*
X84800000Y-87954819D01*
X84800000Y-87954819D02*
X84942857Y-88002438D01*
X84942857Y-88002438D02*
X85038095Y-88097676D01*
X85038095Y-88097676D02*
X85085714Y-88192914D01*
X85085714Y-88192914D02*
X85133333Y-88383390D01*
X85133333Y-88383390D02*
X85133333Y-88526247D01*
X85133333Y-88526247D02*
X85085714Y-88716723D01*
X85085714Y-88716723D02*
X85038095Y-88811961D01*
X85038095Y-88811961D02*
X84942857Y-88907200D01*
X84942857Y-88907200D02*
X84800000Y-88954819D01*
X84800000Y-88954819D02*
X84561905Y-88954819D01*
X85514286Y-88050057D02*
X85561905Y-88002438D01*
X85561905Y-88002438D02*
X85657143Y-87954819D01*
X85657143Y-87954819D02*
X85895238Y-87954819D01*
X85895238Y-87954819D02*
X85990476Y-88002438D01*
X85990476Y-88002438D02*
X86038095Y-88050057D01*
X86038095Y-88050057D02*
X86085714Y-88145295D01*
X86085714Y-88145295D02*
X86085714Y-88240533D01*
X86085714Y-88240533D02*
X86038095Y-88383390D01*
X86038095Y-88383390D02*
X85466667Y-88954819D01*
X85466667Y-88954819D02*
X86085714Y-88954819D01*
X95508333Y-94584819D02*
X95175000Y-94108628D01*
X94936905Y-94584819D02*
X94936905Y-93584819D01*
X94936905Y-93584819D02*
X95317857Y-93584819D01*
X95317857Y-93584819D02*
X95413095Y-93632438D01*
X95413095Y-93632438D02*
X95460714Y-93680057D01*
X95460714Y-93680057D02*
X95508333Y-93775295D01*
X95508333Y-93775295D02*
X95508333Y-93918152D01*
X95508333Y-93918152D02*
X95460714Y-94013390D01*
X95460714Y-94013390D02*
X95413095Y-94061009D01*
X95413095Y-94061009D02*
X95317857Y-94108628D01*
X95317857Y-94108628D02*
X94936905Y-94108628D01*
X95841667Y-93584819D02*
X96508333Y-93584819D01*
X96508333Y-93584819D02*
X96079762Y-94584819D01*
X104611905Y-84704819D02*
X104611905Y-83704819D01*
X104611905Y-83704819D02*
X104850000Y-83704819D01*
X104850000Y-83704819D02*
X104992857Y-83752438D01*
X104992857Y-83752438D02*
X105088095Y-83847676D01*
X105088095Y-83847676D02*
X105135714Y-83942914D01*
X105135714Y-83942914D02*
X105183333Y-84133390D01*
X105183333Y-84133390D02*
X105183333Y-84276247D01*
X105183333Y-84276247D02*
X105135714Y-84466723D01*
X105135714Y-84466723D02*
X105088095Y-84561961D01*
X105088095Y-84561961D02*
X104992857Y-84657200D01*
X104992857Y-84657200D02*
X104850000Y-84704819D01*
X104850000Y-84704819D02*
X104611905Y-84704819D01*
X106040476Y-84038152D02*
X106040476Y-84704819D01*
X105802381Y-83657200D02*
X105564286Y-84371485D01*
X105564286Y-84371485D02*
X106183333Y-84371485D01*
X95358333Y-93474819D02*
X95025000Y-92998628D01*
X94786905Y-93474819D02*
X94786905Y-92474819D01*
X94786905Y-92474819D02*
X95167857Y-92474819D01*
X95167857Y-92474819D02*
X95263095Y-92522438D01*
X95263095Y-92522438D02*
X95310714Y-92570057D01*
X95310714Y-92570057D02*
X95358333Y-92665295D01*
X95358333Y-92665295D02*
X95358333Y-92808152D01*
X95358333Y-92808152D02*
X95310714Y-92903390D01*
X95310714Y-92903390D02*
X95263095Y-92951009D01*
X95263095Y-92951009D02*
X95167857Y-92998628D01*
X95167857Y-92998628D02*
X94786905Y-92998628D01*
X95929762Y-92903390D02*
X95834524Y-92855771D01*
X95834524Y-92855771D02*
X95786905Y-92808152D01*
X95786905Y-92808152D02*
X95739286Y-92712914D01*
X95739286Y-92712914D02*
X95739286Y-92665295D01*
X95739286Y-92665295D02*
X95786905Y-92570057D01*
X95786905Y-92570057D02*
X95834524Y-92522438D01*
X95834524Y-92522438D02*
X95929762Y-92474819D01*
X95929762Y-92474819D02*
X96120238Y-92474819D01*
X96120238Y-92474819D02*
X96215476Y-92522438D01*
X96215476Y-92522438D02*
X96263095Y-92570057D01*
X96263095Y-92570057D02*
X96310714Y-92665295D01*
X96310714Y-92665295D02*
X96310714Y-92712914D01*
X96310714Y-92712914D02*
X96263095Y-92808152D01*
X96263095Y-92808152D02*
X96215476Y-92855771D01*
X96215476Y-92855771D02*
X96120238Y-92903390D01*
X96120238Y-92903390D02*
X95929762Y-92903390D01*
X95929762Y-92903390D02*
X95834524Y-92951009D01*
X95834524Y-92951009D02*
X95786905Y-92998628D01*
X95786905Y-92998628D02*
X95739286Y-93093866D01*
X95739286Y-93093866D02*
X95739286Y-93284342D01*
X95739286Y-93284342D02*
X95786905Y-93379580D01*
X95786905Y-93379580D02*
X95834524Y-93427200D01*
X95834524Y-93427200D02*
X95929762Y-93474819D01*
X95929762Y-93474819D02*
X96120238Y-93474819D01*
X96120238Y-93474819D02*
X96215476Y-93427200D01*
X96215476Y-93427200D02*
X96263095Y-93379580D01*
X96263095Y-93379580D02*
X96310714Y-93284342D01*
X96310714Y-93284342D02*
X96310714Y-93093866D01*
X96310714Y-93093866D02*
X96263095Y-92998628D01*
X96263095Y-92998628D02*
X96215476Y-92951009D01*
X96215476Y-92951009D02*
X96120238Y-92903390D01*
X96409580Y-61666666D02*
X96457200Y-61714285D01*
X96457200Y-61714285D02*
X96504819Y-61857142D01*
X96504819Y-61857142D02*
X96504819Y-61952380D01*
X96504819Y-61952380D02*
X96457200Y-62095237D01*
X96457200Y-62095237D02*
X96361961Y-62190475D01*
X96361961Y-62190475D02*
X96266723Y-62238094D01*
X96266723Y-62238094D02*
X96076247Y-62285713D01*
X96076247Y-62285713D02*
X95933390Y-62285713D01*
X95933390Y-62285713D02*
X95742914Y-62238094D01*
X95742914Y-62238094D02*
X95647676Y-62190475D01*
X95647676Y-62190475D02*
X95552438Y-62095237D01*
X95552438Y-62095237D02*
X95504819Y-61952380D01*
X95504819Y-61952380D02*
X95504819Y-61857142D01*
X95504819Y-61857142D02*
X95552438Y-61714285D01*
X95552438Y-61714285D02*
X95600057Y-61666666D01*
X96504819Y-60714285D02*
X96504819Y-61285713D01*
X96504819Y-60999999D02*
X95504819Y-60999999D01*
X95504819Y-60999999D02*
X95647676Y-61095237D01*
X95647676Y-61095237D02*
X95742914Y-61190475D01*
X95742914Y-61190475D02*
X95790533Y-61285713D01*
X105607142Y-88524819D02*
X105273809Y-88048628D01*
X105035714Y-88524819D02*
X105035714Y-87524819D01*
X105035714Y-87524819D02*
X105416666Y-87524819D01*
X105416666Y-87524819D02*
X105511904Y-87572438D01*
X105511904Y-87572438D02*
X105559523Y-87620057D01*
X105559523Y-87620057D02*
X105607142Y-87715295D01*
X105607142Y-87715295D02*
X105607142Y-87858152D01*
X105607142Y-87858152D02*
X105559523Y-87953390D01*
X105559523Y-87953390D02*
X105511904Y-88001009D01*
X105511904Y-88001009D02*
X105416666Y-88048628D01*
X105416666Y-88048628D02*
X105035714Y-88048628D01*
X106559523Y-88524819D02*
X105988095Y-88524819D01*
X106273809Y-88524819D02*
X106273809Y-87524819D01*
X106273809Y-87524819D02*
X106178571Y-87667676D01*
X106178571Y-87667676D02*
X106083333Y-87762914D01*
X106083333Y-87762914D02*
X105988095Y-87810533D01*
X107416666Y-87858152D02*
X107416666Y-88524819D01*
X107178571Y-87477200D02*
X106940476Y-88191485D01*
X106940476Y-88191485D02*
X107559523Y-88191485D01*
X113324819Y-104333333D02*
X114039104Y-104333333D01*
X114039104Y-104333333D02*
X114181961Y-104380952D01*
X114181961Y-104380952D02*
X114277200Y-104476190D01*
X114277200Y-104476190D02*
X114324819Y-104619047D01*
X114324819Y-104619047D02*
X114324819Y-104714285D01*
X113324819Y-103952380D02*
X113324819Y-103333333D01*
X113324819Y-103333333D02*
X113705771Y-103666666D01*
X113705771Y-103666666D02*
X113705771Y-103523809D01*
X113705771Y-103523809D02*
X113753390Y-103428571D01*
X113753390Y-103428571D02*
X113801009Y-103380952D01*
X113801009Y-103380952D02*
X113896247Y-103333333D01*
X113896247Y-103333333D02*
X114134342Y-103333333D01*
X114134342Y-103333333D02*
X114229580Y-103380952D01*
X114229580Y-103380952D02*
X114277200Y-103428571D01*
X114277200Y-103428571D02*
X114324819Y-103523809D01*
X114324819Y-103523809D02*
X114324819Y-103809523D01*
X114324819Y-103809523D02*
X114277200Y-103904761D01*
X114277200Y-103904761D02*
X114229580Y-103952380D01*
X95608333Y-90174819D02*
X95275000Y-89698628D01*
X95036905Y-90174819D02*
X95036905Y-89174819D01*
X95036905Y-89174819D02*
X95417857Y-89174819D01*
X95417857Y-89174819D02*
X95513095Y-89222438D01*
X95513095Y-89222438D02*
X95560714Y-89270057D01*
X95560714Y-89270057D02*
X95608333Y-89365295D01*
X95608333Y-89365295D02*
X95608333Y-89508152D01*
X95608333Y-89508152D02*
X95560714Y-89603390D01*
X95560714Y-89603390D02*
X95513095Y-89651009D01*
X95513095Y-89651009D02*
X95417857Y-89698628D01*
X95417857Y-89698628D02*
X95036905Y-89698628D01*
X96465476Y-89174819D02*
X96275000Y-89174819D01*
X96275000Y-89174819D02*
X96179762Y-89222438D01*
X96179762Y-89222438D02*
X96132143Y-89270057D01*
X96132143Y-89270057D02*
X96036905Y-89412914D01*
X96036905Y-89412914D02*
X95989286Y-89603390D01*
X95989286Y-89603390D02*
X95989286Y-89984342D01*
X95989286Y-89984342D02*
X96036905Y-90079580D01*
X96036905Y-90079580D02*
X96084524Y-90127200D01*
X96084524Y-90127200D02*
X96179762Y-90174819D01*
X96179762Y-90174819D02*
X96370238Y-90174819D01*
X96370238Y-90174819D02*
X96465476Y-90127200D01*
X96465476Y-90127200D02*
X96513095Y-90079580D01*
X96513095Y-90079580D02*
X96560714Y-89984342D01*
X96560714Y-89984342D02*
X96560714Y-89746247D01*
X96560714Y-89746247D02*
X96513095Y-89651009D01*
X96513095Y-89651009D02*
X96465476Y-89603390D01*
X96465476Y-89603390D02*
X96370238Y-89555771D01*
X96370238Y-89555771D02*
X96179762Y-89555771D01*
X96179762Y-89555771D02*
X96084524Y-89603390D01*
X96084524Y-89603390D02*
X96036905Y-89651009D01*
X96036905Y-89651009D02*
X95989286Y-89746247D01*
X135554819Y-105238094D02*
X134554819Y-105238094D01*
X134554819Y-105238094D02*
X134554819Y-104999999D01*
X134554819Y-104999999D02*
X134602438Y-104857142D01*
X134602438Y-104857142D02*
X134697676Y-104761904D01*
X134697676Y-104761904D02*
X134792914Y-104714285D01*
X134792914Y-104714285D02*
X134983390Y-104666666D01*
X134983390Y-104666666D02*
X135126247Y-104666666D01*
X135126247Y-104666666D02*
X135316723Y-104714285D01*
X135316723Y-104714285D02*
X135411961Y-104761904D01*
X135411961Y-104761904D02*
X135507200Y-104857142D01*
X135507200Y-104857142D02*
X135554819Y-104999999D01*
X135554819Y-104999999D02*
X135554819Y-105238094D01*
X134554819Y-104333332D02*
X134554819Y-103714285D01*
X134554819Y-103714285D02*
X134935771Y-104047618D01*
X134935771Y-104047618D02*
X134935771Y-103904761D01*
X134935771Y-103904761D02*
X134983390Y-103809523D01*
X134983390Y-103809523D02*
X135031009Y-103761904D01*
X135031009Y-103761904D02*
X135126247Y-103714285D01*
X135126247Y-103714285D02*
X135364342Y-103714285D01*
X135364342Y-103714285D02*
X135459580Y-103761904D01*
X135459580Y-103761904D02*
X135507200Y-103809523D01*
X135507200Y-103809523D02*
X135554819Y-103904761D01*
X135554819Y-103904761D02*
X135554819Y-104190475D01*
X135554819Y-104190475D02*
X135507200Y-104285713D01*
X135507200Y-104285713D02*
X135459580Y-104333332D01*
X105607142Y-90024819D02*
X105273809Y-89548628D01*
X105035714Y-90024819D02*
X105035714Y-89024819D01*
X105035714Y-89024819D02*
X105416666Y-89024819D01*
X105416666Y-89024819D02*
X105511904Y-89072438D01*
X105511904Y-89072438D02*
X105559523Y-89120057D01*
X105559523Y-89120057D02*
X105607142Y-89215295D01*
X105607142Y-89215295D02*
X105607142Y-89358152D01*
X105607142Y-89358152D02*
X105559523Y-89453390D01*
X105559523Y-89453390D02*
X105511904Y-89501009D01*
X105511904Y-89501009D02*
X105416666Y-89548628D01*
X105416666Y-89548628D02*
X105035714Y-89548628D01*
X106559523Y-90024819D02*
X105988095Y-90024819D01*
X106273809Y-90024819D02*
X106273809Y-89024819D01*
X106273809Y-89024819D02*
X106178571Y-89167676D01*
X106178571Y-89167676D02*
X106083333Y-89262914D01*
X106083333Y-89262914D02*
X105988095Y-89310533D01*
X106892857Y-89024819D02*
X107511904Y-89024819D01*
X107511904Y-89024819D02*
X107178571Y-89405771D01*
X107178571Y-89405771D02*
X107321428Y-89405771D01*
X107321428Y-89405771D02*
X107416666Y-89453390D01*
X107416666Y-89453390D02*
X107464285Y-89501009D01*
X107464285Y-89501009D02*
X107511904Y-89596247D01*
X107511904Y-89596247D02*
X107511904Y-89834342D01*
X107511904Y-89834342D02*
X107464285Y-89929580D01*
X107464285Y-89929580D02*
X107416666Y-89977200D01*
X107416666Y-89977200D02*
X107321428Y-90024819D01*
X107321428Y-90024819D02*
X107035714Y-90024819D01*
X107035714Y-90024819D02*
X106940476Y-89977200D01*
X106940476Y-89977200D02*
X106892857Y-89929580D01*
X95583333Y-91434819D02*
X95250000Y-90958628D01*
X95011905Y-91434819D02*
X95011905Y-90434819D01*
X95011905Y-90434819D02*
X95392857Y-90434819D01*
X95392857Y-90434819D02*
X95488095Y-90482438D01*
X95488095Y-90482438D02*
X95535714Y-90530057D01*
X95535714Y-90530057D02*
X95583333Y-90625295D01*
X95583333Y-90625295D02*
X95583333Y-90768152D01*
X95583333Y-90768152D02*
X95535714Y-90863390D01*
X95535714Y-90863390D02*
X95488095Y-90911009D01*
X95488095Y-90911009D02*
X95392857Y-90958628D01*
X95392857Y-90958628D02*
X95011905Y-90958628D01*
X96488095Y-90434819D02*
X96011905Y-90434819D01*
X96011905Y-90434819D02*
X95964286Y-90911009D01*
X95964286Y-90911009D02*
X96011905Y-90863390D01*
X96011905Y-90863390D02*
X96107143Y-90815771D01*
X96107143Y-90815771D02*
X96345238Y-90815771D01*
X96345238Y-90815771D02*
X96440476Y-90863390D01*
X96440476Y-90863390D02*
X96488095Y-90911009D01*
X96488095Y-90911009D02*
X96535714Y-91006247D01*
X96535714Y-91006247D02*
X96535714Y-91244342D01*
X96535714Y-91244342D02*
X96488095Y-91339580D01*
X96488095Y-91339580D02*
X96440476Y-91387200D01*
X96440476Y-91387200D02*
X96345238Y-91434819D01*
X96345238Y-91434819D02*
X96107143Y-91434819D01*
X96107143Y-91434819D02*
X96011905Y-91387200D01*
X96011905Y-91387200D02*
X95964286Y-91339580D01*
X93505656Y-59011903D02*
X93458037Y-59059523D01*
X93458037Y-59059523D02*
X93315180Y-59107142D01*
X93315180Y-59107142D02*
X93219942Y-59107142D01*
X93219942Y-59107142D02*
X93077085Y-59059523D01*
X93077085Y-59059523D02*
X92981847Y-58964284D01*
X92981847Y-58964284D02*
X92934228Y-58869046D01*
X92934228Y-58869046D02*
X92886609Y-58678570D01*
X92886609Y-58678570D02*
X92886609Y-58535713D01*
X92886609Y-58535713D02*
X92934228Y-58345237D01*
X92934228Y-58345237D02*
X92981847Y-58249999D01*
X92981847Y-58249999D02*
X93077085Y-58154761D01*
X93077085Y-58154761D02*
X93219942Y-58107142D01*
X93219942Y-58107142D02*
X93315180Y-58107142D01*
X93315180Y-58107142D02*
X93458037Y-58154761D01*
X93458037Y-58154761D02*
X93505656Y-58202380D01*
X93886609Y-58202380D02*
X93934228Y-58154761D01*
X93934228Y-58154761D02*
X94029466Y-58107142D01*
X94029466Y-58107142D02*
X94267561Y-58107142D01*
X94267561Y-58107142D02*
X94362799Y-58154761D01*
X94362799Y-58154761D02*
X94410418Y-58202380D01*
X94410418Y-58202380D02*
X94458037Y-58297618D01*
X94458037Y-58297618D02*
X94458037Y-58392856D01*
X94458037Y-58392856D02*
X94410418Y-58535713D01*
X94410418Y-58535713D02*
X93838990Y-59107142D01*
X93838990Y-59107142D02*
X94458037Y-59107142D01*
X105539580Y-93666666D02*
X105587200Y-93714285D01*
X105587200Y-93714285D02*
X105634819Y-93857142D01*
X105634819Y-93857142D02*
X105634819Y-93952380D01*
X105634819Y-93952380D02*
X105587200Y-94095237D01*
X105587200Y-94095237D02*
X105491961Y-94190475D01*
X105491961Y-94190475D02*
X105396723Y-94238094D01*
X105396723Y-94238094D02*
X105206247Y-94285713D01*
X105206247Y-94285713D02*
X105063390Y-94285713D01*
X105063390Y-94285713D02*
X104872914Y-94238094D01*
X104872914Y-94238094D02*
X104777676Y-94190475D01*
X104777676Y-94190475D02*
X104682438Y-94095237D01*
X104682438Y-94095237D02*
X104634819Y-93952380D01*
X104634819Y-93952380D02*
X104634819Y-93857142D01*
X104634819Y-93857142D02*
X104682438Y-93714285D01*
X104682438Y-93714285D02*
X104730057Y-93666666D01*
X104634819Y-92809523D02*
X104634819Y-92999999D01*
X104634819Y-92999999D02*
X104682438Y-93095237D01*
X104682438Y-93095237D02*
X104730057Y-93142856D01*
X104730057Y-93142856D02*
X104872914Y-93238094D01*
X104872914Y-93238094D02*
X105063390Y-93285713D01*
X105063390Y-93285713D02*
X105444342Y-93285713D01*
X105444342Y-93285713D02*
X105539580Y-93238094D01*
X105539580Y-93238094D02*
X105587200Y-93190475D01*
X105587200Y-93190475D02*
X105634819Y-93095237D01*
X105634819Y-93095237D02*
X105634819Y-92904761D01*
X105634819Y-92904761D02*
X105587200Y-92809523D01*
X105587200Y-92809523D02*
X105539580Y-92761904D01*
X105539580Y-92761904D02*
X105444342Y-92714285D01*
X105444342Y-92714285D02*
X105206247Y-92714285D01*
X105206247Y-92714285D02*
X105111009Y-92761904D01*
X105111009Y-92761904D02*
X105063390Y-92809523D01*
X105063390Y-92809523D02*
X105015771Y-92904761D01*
X105015771Y-92904761D02*
X105015771Y-93095237D01*
X105015771Y-93095237D02*
X105063390Y-93190475D01*
X105063390Y-93190475D02*
X105111009Y-93238094D01*
X105111009Y-93238094D02*
X105206247Y-93285713D01*
X113074819Y-77833333D02*
X113789104Y-77833333D01*
X113789104Y-77833333D02*
X113931961Y-77880952D01*
X113931961Y-77880952D02*
X114027200Y-77976190D01*
X114027200Y-77976190D02*
X114074819Y-78119047D01*
X114074819Y-78119047D02*
X114074819Y-78214285D01*
X113170057Y-77404761D02*
X113122438Y-77357142D01*
X113122438Y-77357142D02*
X113074819Y-77261904D01*
X113074819Y-77261904D02*
X113074819Y-77023809D01*
X113074819Y-77023809D02*
X113122438Y-76928571D01*
X113122438Y-76928571D02*
X113170057Y-76880952D01*
X113170057Y-76880952D02*
X113265295Y-76833333D01*
X113265295Y-76833333D02*
X113360533Y-76833333D01*
X113360533Y-76833333D02*
X113503390Y-76880952D01*
X113503390Y-76880952D02*
X114074819Y-77452380D01*
X114074819Y-77452380D02*
X114074819Y-76833333D01*
X91958333Y-93734819D02*
X91625000Y-93258628D01*
X91386905Y-93734819D02*
X91386905Y-92734819D01*
X91386905Y-92734819D02*
X91767857Y-92734819D01*
X91767857Y-92734819D02*
X91863095Y-92782438D01*
X91863095Y-92782438D02*
X91910714Y-92830057D01*
X91910714Y-92830057D02*
X91958333Y-92925295D01*
X91958333Y-92925295D02*
X91958333Y-93068152D01*
X91958333Y-93068152D02*
X91910714Y-93163390D01*
X91910714Y-93163390D02*
X91863095Y-93211009D01*
X91863095Y-93211009D02*
X91767857Y-93258628D01*
X91767857Y-93258628D02*
X91386905Y-93258628D01*
X92291667Y-92734819D02*
X92910714Y-92734819D01*
X92910714Y-92734819D02*
X92577381Y-93115771D01*
X92577381Y-93115771D02*
X92720238Y-93115771D01*
X92720238Y-93115771D02*
X92815476Y-93163390D01*
X92815476Y-93163390D02*
X92863095Y-93211009D01*
X92863095Y-93211009D02*
X92910714Y-93306247D01*
X92910714Y-93306247D02*
X92910714Y-93544342D01*
X92910714Y-93544342D02*
X92863095Y-93639580D01*
X92863095Y-93639580D02*
X92815476Y-93687200D01*
X92815476Y-93687200D02*
X92720238Y-93734819D01*
X92720238Y-93734819D02*
X92434524Y-93734819D01*
X92434524Y-93734819D02*
X92339286Y-93687200D01*
X92339286Y-93687200D02*
X92291667Y-93639580D01*
D14*
%TO.C,U3*%
X101246500Y-82158500D02*
X101246500Y-83809500D01*
X102285360Y-82158500D02*
X101246500Y-82158500D01*
X102557140Y-83809500D02*
X103237860Y-83809500D01*
X104548500Y-82158500D02*
X103509640Y-82158500D01*
X104548500Y-83809500D02*
X104548500Y-82158500D01*
X102021200Y-85422400D02*
G75*
G02*
X101868800Y-85422400I-76200J0D01*
G01*
X101868800Y-85422400D02*
G75*
G02*
X102021200Y-85422400I76200J0D01*
G01*
%TO.C,U2*%
X99950600Y-91509400D02*
X103049400Y-91509400D01*
X103049400Y-88410600D02*
X99950600Y-88410600D01*
X101804800Y-88410600D02*
G75*
G02*
X101195200Y-88410600I-304800J0D01*
G01*
D15*
G36*
X104890900Y-89150499D02*
G01*
X104636900Y-89150499D01*
X104636900Y-88769499D01*
X104890900Y-88769499D01*
X104890900Y-89150499D01*
G37*
D16*
%TO.C,U1*%
X95039997Y-61172324D02*
X95039997Y-63347323D01*
X91939999Y-62372324D02*
X91939999Y-63347323D01*
%TO.C,Q3*%
X124609999Y-95250000D02*
X124609999Y-89780801D01*
X131310001Y-91675001D02*
X131310001Y-89780801D01*
X122889101Y-89780801D02*
X122889101Y-89275000D01*
X124609999Y-89780801D02*
X122889101Y-89780801D01*
X133030899Y-89780801D02*
X131310001Y-89780801D01*
X133030899Y-89780801D02*
X133030899Y-89275000D01*
%TO.C,Q2*%
X112359999Y-95350000D02*
X112359999Y-89880801D01*
X119060001Y-91775001D02*
X119060001Y-89880801D01*
X110639101Y-89880801D02*
X110639101Y-89375000D01*
X112359999Y-89880801D02*
X110639101Y-89880801D01*
X120780899Y-89880801D02*
X119060001Y-89880801D01*
X120780899Y-89880801D02*
X120780899Y-89375000D01*
%TO.C,Q1*%
X100830801Y-67569101D02*
X100325000Y-67569101D01*
X100830801Y-67569101D02*
X100830801Y-69289999D01*
X100830801Y-75990001D02*
X100830801Y-77710899D01*
X100830801Y-77710899D02*
X100325000Y-77710899D01*
X102725001Y-69289999D02*
X100830801Y-69289999D01*
X106300000Y-75990001D02*
X100830801Y-75990001D01*
D17*
%TO.C,R9*%
X93360436Y-79040000D02*
X97714564Y-79040000D01*
X93360436Y-82460000D02*
X97714564Y-82460000D01*
%TO.C,C7*%
X120510000Y-105162323D02*
X116833000Y-105162323D01*
X120510000Y-105202323D02*
X116843000Y-105202323D01*
X120510000Y-105242323D02*
X116854000Y-105242323D01*
X120510000Y-105282323D02*
X116865000Y-105282323D01*
X120510000Y-105322323D02*
X116877000Y-105322323D01*
X120510000Y-105362323D02*
X116889000Y-105362323D01*
X120510000Y-105402323D02*
X116901000Y-105402323D01*
X120510000Y-105442323D02*
X116913000Y-105442323D01*
X120510000Y-105482323D02*
X116926000Y-105482323D01*
X120510000Y-105522323D02*
X116940000Y-105522323D01*
X120510000Y-105562323D02*
X116953000Y-105562323D01*
X120510000Y-105602323D02*
X116968000Y-105602323D01*
X120510000Y-105642323D02*
X116982000Y-105642323D01*
X120510000Y-105682323D02*
X116997000Y-105682323D01*
X120510000Y-105722323D02*
X117012000Y-105722323D01*
X120510000Y-105762323D02*
X117028000Y-105762323D01*
X120510000Y-105802323D02*
X117044000Y-105802323D01*
X120510000Y-105842323D02*
X117060000Y-105842323D01*
X120510000Y-105882323D02*
X117077000Y-105882323D01*
X120510000Y-105922323D02*
X117094000Y-105922323D01*
X120510000Y-105962323D02*
X117112000Y-105962323D01*
X120510000Y-106002323D02*
X117130000Y-106002323D01*
X120510000Y-106042323D02*
X117148000Y-106042323D01*
X120510000Y-106082323D02*
X117167000Y-106082323D01*
X120510000Y-106122323D02*
X117186000Y-106122323D01*
X120510000Y-106162323D02*
X117206000Y-106162323D01*
X120510000Y-106202323D02*
X117226000Y-106202323D01*
X120510000Y-106242323D02*
X117246000Y-106242323D01*
X120510000Y-106282323D02*
X117267000Y-106282323D01*
X120510000Y-106322323D02*
X117289000Y-106322323D01*
X120510000Y-106362323D02*
X117311000Y-106362323D01*
X120510000Y-106402323D02*
X117333000Y-106402323D01*
X120510000Y-106442323D02*
X117356000Y-106442323D01*
X120510000Y-106482323D02*
X117379000Y-106482323D01*
X120510000Y-106522323D02*
X117403000Y-106522323D01*
X120510000Y-106562323D02*
X117427000Y-106562323D01*
X120510000Y-106602323D02*
X117452000Y-106602323D01*
X120510000Y-106642323D02*
X117478000Y-106642323D01*
X120510000Y-106682323D02*
X117503000Y-106682323D01*
X120510000Y-106722323D02*
X117530000Y-106722323D01*
X120510000Y-106762323D02*
X117557000Y-106762323D01*
X120510000Y-106802323D02*
X117584000Y-106802323D01*
X120510000Y-106842323D02*
X117612000Y-106842323D01*
X120510000Y-106882323D02*
X117641000Y-106882323D01*
X120510000Y-106922323D02*
X117670000Y-106922323D01*
X120510000Y-106962323D02*
X117700000Y-106962323D01*
X120510000Y-107002323D02*
X117730000Y-107002323D01*
X120510000Y-107042323D02*
X117762000Y-107042323D01*
X120510000Y-107082323D02*
X117793000Y-107082323D01*
X120510000Y-107122323D02*
X117826000Y-107122323D01*
X120510000Y-107162323D02*
X117859000Y-107162323D01*
X120510000Y-107202323D02*
X117892000Y-107202323D01*
X120510000Y-107242323D02*
X117927000Y-107242323D01*
X120510000Y-107282323D02*
X117962000Y-107282323D01*
X120510000Y-107322323D02*
X117998000Y-107322323D01*
X120510000Y-107362323D02*
X118034000Y-107362323D01*
X120510000Y-107402323D02*
X118072000Y-107402323D01*
X120510000Y-107442323D02*
X118110000Y-107442323D01*
X120510000Y-107482323D02*
X118149000Y-107482323D01*
X120510000Y-107522323D02*
X118189000Y-107522323D01*
X120510000Y-107562323D02*
X118230000Y-107562323D01*
X120510000Y-107602323D02*
X118272000Y-107602323D01*
X122349000Y-108962323D02*
X121151000Y-108962323D01*
X122612000Y-108922323D02*
X120888000Y-108922323D01*
X122812000Y-108882323D02*
X120688000Y-108882323D01*
X122980000Y-108842323D02*
X120520000Y-108842323D01*
X123127000Y-108802323D02*
X120373000Y-108802323D01*
X123259000Y-108762323D02*
X120241000Y-108762323D01*
X123380000Y-108722323D02*
X120120000Y-108722323D01*
X123492000Y-108682323D02*
X120008000Y-108682323D01*
X123596000Y-108642323D02*
X119904000Y-108642323D01*
X123694000Y-108602323D02*
X119806000Y-108602323D01*
X123787000Y-108562323D02*
X119713000Y-108562323D01*
X123874000Y-108522323D02*
X119626000Y-108522323D01*
X123958000Y-108482323D02*
X119542000Y-108482323D01*
X124038000Y-108442323D02*
X119462000Y-108442323D01*
X124115000Y-108402323D02*
X119385000Y-108402323D01*
X124189000Y-108362323D02*
X119311000Y-108362323D01*
X124260000Y-108322323D02*
X119240000Y-108322323D01*
X124328000Y-108282323D02*
X119172000Y-108282323D01*
X124394000Y-108242323D02*
X119106000Y-108242323D01*
X124458000Y-108202323D02*
X119042000Y-108202323D01*
X124520000Y-108162323D02*
X118980000Y-108162323D01*
X124580000Y-108122323D02*
X118920000Y-108122323D01*
X124625000Y-98402677D02*
X124625000Y-99402677D01*
X124638000Y-108082323D02*
X118862000Y-108082323D01*
X124695000Y-108042323D02*
X118805000Y-108042323D01*
X124750000Y-108002323D02*
X118750000Y-108002323D01*
X124803000Y-107962323D02*
X118697000Y-107962323D01*
X124855000Y-107922323D02*
X118645000Y-107922323D01*
X124906000Y-107882323D02*
X118594000Y-107882323D01*
X124955000Y-107842323D02*
X118545000Y-107842323D01*
X125004000Y-107802323D02*
X118496000Y-107802323D01*
X125051000Y-107762323D02*
X118449000Y-107762323D01*
X125097000Y-107722323D02*
X118403000Y-107722323D01*
X125125000Y-98902677D02*
X124125000Y-98902677D01*
X125141000Y-107682323D02*
X118359000Y-107682323D01*
X125185000Y-107642323D02*
X118315000Y-107642323D01*
X125228000Y-107602323D02*
X122990000Y-107602323D01*
X125270000Y-107562323D02*
X122990000Y-107562323D01*
X125311000Y-107522323D02*
X122990000Y-107522323D01*
X125351000Y-107482323D02*
X122990000Y-107482323D01*
X125390000Y-107442323D02*
X122990000Y-107442323D01*
X125428000Y-107402323D02*
X122990000Y-107402323D01*
X125466000Y-107362323D02*
X122990000Y-107362323D01*
X125502000Y-107322323D02*
X122990000Y-107322323D01*
X125538000Y-107282323D02*
X122990000Y-107282323D01*
X125573000Y-107242323D02*
X122990000Y-107242323D01*
X125608000Y-107202323D02*
X122990000Y-107202323D01*
X125641000Y-107162323D02*
X122990000Y-107162323D01*
X125674000Y-107122323D02*
X122990000Y-107122323D01*
X125707000Y-107082323D02*
X122990000Y-107082323D01*
X125738000Y-107042323D02*
X122990000Y-107042323D01*
X125770000Y-107002323D02*
X122990000Y-107002323D01*
X125800000Y-106962323D02*
X122990000Y-106962323D01*
X125830000Y-106922323D02*
X122990000Y-106922323D01*
X125859000Y-106882323D02*
X122990000Y-106882323D01*
X125888000Y-106842323D02*
X122990000Y-106842323D01*
X125916000Y-106802323D02*
X122990000Y-106802323D01*
X125943000Y-106762323D02*
X122990000Y-106762323D01*
X125970000Y-106722323D02*
X122990000Y-106722323D01*
X125997000Y-106682323D02*
X122990000Y-106682323D01*
X126022000Y-106642323D02*
X122990000Y-106642323D01*
X126048000Y-106602323D02*
X122990000Y-106602323D01*
X126073000Y-106562323D02*
X122990000Y-106562323D01*
X126097000Y-106522323D02*
X122990000Y-106522323D01*
X126121000Y-106482323D02*
X122990000Y-106482323D01*
X126144000Y-106442323D02*
X122990000Y-106442323D01*
X126167000Y-106402323D02*
X122990000Y-106402323D01*
X126189000Y-106362323D02*
X122990000Y-106362323D01*
X126211000Y-106322323D02*
X122990000Y-106322323D01*
X126233000Y-106282323D02*
X122990000Y-106282323D01*
X126254000Y-106242323D02*
X122990000Y-106242323D01*
X126274000Y-106202323D02*
X122990000Y-106202323D01*
X126294000Y-106162323D02*
X122990000Y-106162323D01*
X126314000Y-106122323D02*
X122990000Y-106122323D01*
X126333000Y-106082323D02*
X122990000Y-106082323D01*
X126352000Y-106042323D02*
X122990000Y-106042323D01*
X126370000Y-106002323D02*
X122990000Y-106002323D01*
X126388000Y-105962323D02*
X122990000Y-105962323D01*
X126406000Y-105922323D02*
X122990000Y-105922323D01*
X126423000Y-105882323D02*
X122990000Y-105882323D01*
X126440000Y-105842323D02*
X122990000Y-105842323D01*
X126456000Y-105802323D02*
X122990000Y-105802323D01*
X126472000Y-105762323D02*
X122990000Y-105762323D01*
X126488000Y-105722323D02*
X122990000Y-105722323D01*
X126503000Y-105682323D02*
X122990000Y-105682323D01*
X126518000Y-105642323D02*
X122990000Y-105642323D01*
X126532000Y-105602323D02*
X122990000Y-105602323D01*
X126547000Y-105562323D02*
X122990000Y-105562323D01*
X126560000Y-105522323D02*
X122990000Y-105522323D01*
X126574000Y-105482323D02*
X122990000Y-105482323D01*
X126587000Y-105442323D02*
X122990000Y-105442323D01*
X126599000Y-105402323D02*
X122990000Y-105402323D01*
X126611000Y-105362323D02*
X122990000Y-105362323D01*
X126623000Y-105322323D02*
X122990000Y-105322323D01*
X126635000Y-105282323D02*
X122990000Y-105282323D01*
X126646000Y-105242323D02*
X122990000Y-105242323D01*
X126657000Y-105202323D02*
X122990000Y-105202323D01*
X126667000Y-105162323D02*
X122990000Y-105162323D01*
X126678000Y-105122323D02*
X116822000Y-105122323D01*
X126687000Y-105082323D02*
X116813000Y-105082323D01*
X126697000Y-105042323D02*
X116803000Y-105042323D01*
X126706000Y-105002323D02*
X116794000Y-105002323D01*
X126715000Y-104962323D02*
X116785000Y-104962323D01*
X126723000Y-104922323D02*
X116777000Y-104922323D01*
X126731000Y-104882323D02*
X116769000Y-104882323D01*
X126739000Y-104842323D02*
X116761000Y-104842323D01*
X126747000Y-104802323D02*
X116753000Y-104802323D01*
X126754000Y-104762323D02*
X116746000Y-104762323D01*
X126761000Y-104722323D02*
X116739000Y-104722323D01*
X126767000Y-104682323D02*
X116733000Y-104682323D01*
X126773000Y-104642323D02*
X116727000Y-104642323D01*
X126779000Y-104602323D02*
X116721000Y-104602323D01*
X126785000Y-104562323D02*
X116715000Y-104562323D01*
X126790000Y-104522323D02*
X116710000Y-104522323D01*
X126795000Y-104482323D02*
X116705000Y-104482323D01*
X126799000Y-104442323D02*
X116701000Y-104442323D01*
X126804000Y-104402323D02*
X116696000Y-104402323D01*
X126807000Y-104362323D02*
X116693000Y-104362323D01*
X126811000Y-104322323D02*
X116689000Y-104322323D01*
X126814000Y-104282323D02*
X116686000Y-104282323D01*
X126817000Y-104242323D02*
X116683000Y-104242323D01*
X126820000Y-104202323D02*
X116680000Y-104202323D01*
X126822000Y-104162323D02*
X116678000Y-104162323D01*
X126824000Y-104122323D02*
X116676000Y-104122323D01*
X126826000Y-104082323D02*
X116674000Y-104082323D01*
X126827000Y-104042323D02*
X116673000Y-104042323D01*
X126829000Y-103962323D02*
X116671000Y-103962323D01*
X126829000Y-104002323D02*
X116671000Y-104002323D01*
X126830000Y-103882323D02*
X116670000Y-103882323D01*
X126830000Y-103922323D02*
X116670000Y-103922323D01*
X126870000Y-103882323D02*
G75*
G02*
X116630000Y-103882323I-5120000J0D01*
G01*
X116630000Y-103882323D02*
G75*
G02*
X126870000Y-103882323I5120000J0D01*
G01*
%TO.C,C8*%
X114530000Y-103609420D02*
X114530000Y-103890580D01*
X115550000Y-103609420D02*
X115550000Y-103890580D01*
%TO.C,R4*%
X90662258Y-92977500D02*
X90187742Y-92977500D01*
X90662258Y-94022500D02*
X90187742Y-94022500D01*
%TO.C,C3*%
X93278748Y-58487323D02*
X93801252Y-58487323D01*
X93278748Y-59957323D02*
X93801252Y-59957323D01*
%TO.C,C9*%
X104859420Y-80590000D02*
X105140580Y-80590000D01*
X104859420Y-81610000D02*
X105140580Y-81610000D01*
%TO.C,R1*%
X92387258Y-87977500D02*
X91912742Y-87977500D01*
X92387258Y-89022500D02*
X91912742Y-89022500D01*
%TO.C,R12*%
X124772258Y-96827500D02*
X124297742Y-96827500D01*
X124772258Y-97872500D02*
X124297742Y-97872500D01*
%TO.C,D1*%
X109150000Y-65392323D02*
X109150000Y-59582323D01*
X109150000Y-65392323D02*
X113450000Y-65392323D01*
X113450000Y-65392323D02*
X113450000Y-59582323D01*
%TO.C,R2*%
X91887742Y-89577500D02*
X92362258Y-89577500D01*
X91887742Y-90622500D02*
X92362258Y-90622500D01*
%TO.C,C4*%
X79460000Y-76449000D02*
X79460000Y-75251000D01*
X79500000Y-76712000D02*
X79500000Y-74988000D01*
X79540000Y-76912000D02*
X79540000Y-74788000D01*
X79580000Y-77080000D02*
X79580000Y-74620000D01*
X79620000Y-77227000D02*
X79620000Y-74473000D01*
X79660000Y-77359000D02*
X79660000Y-74341000D01*
X79700000Y-77480000D02*
X79700000Y-74220000D01*
X79740000Y-77592000D02*
X79740000Y-74108000D01*
X79780000Y-77696000D02*
X79780000Y-74004000D01*
X79820000Y-77794000D02*
X79820000Y-73906000D01*
X79860000Y-77887000D02*
X79860000Y-73813000D01*
X79900000Y-77974000D02*
X79900000Y-73726000D01*
X79940000Y-78058000D02*
X79940000Y-73642000D01*
X79980000Y-78138000D02*
X79980000Y-73562000D01*
X80020000Y-78215000D02*
X80020000Y-73485000D01*
X80060000Y-78289000D02*
X80060000Y-73411000D01*
X80100000Y-78360000D02*
X80100000Y-73340000D01*
X80140000Y-78428000D02*
X80140000Y-73272000D01*
X80180000Y-78494000D02*
X80180000Y-73206000D01*
X80220000Y-78558000D02*
X80220000Y-73142000D01*
X80260000Y-78620000D02*
X80260000Y-73080000D01*
X80300000Y-78680000D02*
X80300000Y-73020000D01*
X80340000Y-78738000D02*
X80340000Y-72962000D01*
X80380000Y-78795000D02*
X80380000Y-72905000D01*
X80420000Y-78850000D02*
X80420000Y-72850000D01*
X80460000Y-78903000D02*
X80460000Y-72797000D01*
X80500000Y-78955000D02*
X80500000Y-72745000D01*
X80540000Y-79006000D02*
X80540000Y-72694000D01*
X80580000Y-79055000D02*
X80580000Y-72645000D01*
X80620000Y-79104000D02*
X80620000Y-72596000D01*
X80660000Y-79151000D02*
X80660000Y-72549000D01*
X80700000Y-79197000D02*
X80700000Y-72503000D01*
X80740000Y-79241000D02*
X80740000Y-72459000D01*
X80780000Y-79285000D02*
X80780000Y-72415000D01*
X80820000Y-74610000D02*
X80820000Y-72372000D01*
X80820000Y-79328000D02*
X80820000Y-77090000D01*
X80860000Y-74610000D02*
X80860000Y-72330000D01*
X80860000Y-79370000D02*
X80860000Y-77090000D01*
X80900000Y-74610000D02*
X80900000Y-72289000D01*
X80900000Y-79411000D02*
X80900000Y-77090000D01*
X80940000Y-74610000D02*
X80940000Y-72249000D01*
X80940000Y-79451000D02*
X80940000Y-77090000D01*
X80980000Y-74610000D02*
X80980000Y-72210000D01*
X80980000Y-79490000D02*
X80980000Y-77090000D01*
X81020000Y-74610000D02*
X81020000Y-72172000D01*
X81020000Y-79528000D02*
X81020000Y-77090000D01*
X81060000Y-74610000D02*
X81060000Y-72134000D01*
X81060000Y-79566000D02*
X81060000Y-77090000D01*
X81100000Y-74610000D02*
X81100000Y-72098000D01*
X81100000Y-79602000D02*
X81100000Y-77090000D01*
X81140000Y-74610000D02*
X81140000Y-72062000D01*
X81140000Y-79638000D02*
X81140000Y-77090000D01*
X81180000Y-74610000D02*
X81180000Y-72027000D01*
X81180000Y-79673000D02*
X81180000Y-77090000D01*
X81220000Y-74610000D02*
X81220000Y-71992000D01*
X81220000Y-79708000D02*
X81220000Y-77090000D01*
X81260000Y-74610000D02*
X81260000Y-71959000D01*
X81260000Y-79741000D02*
X81260000Y-77090000D01*
X81300000Y-74610000D02*
X81300000Y-71926000D01*
X81300000Y-79774000D02*
X81300000Y-77090000D01*
X81340000Y-74610000D02*
X81340000Y-71893000D01*
X81340000Y-79807000D02*
X81340000Y-77090000D01*
X81380000Y-74610000D02*
X81380000Y-71862000D01*
X81380000Y-79838000D02*
X81380000Y-77090000D01*
X81420000Y-74610000D02*
X81420000Y-71830000D01*
X81420000Y-79870000D02*
X81420000Y-77090000D01*
X81460000Y-74610000D02*
X81460000Y-71800000D01*
X81460000Y-79900000D02*
X81460000Y-77090000D01*
X81500000Y-74610000D02*
X81500000Y-71770000D01*
X81500000Y-79930000D02*
X81500000Y-77090000D01*
X81540000Y-74610000D02*
X81540000Y-71741000D01*
X81540000Y-79959000D02*
X81540000Y-77090000D01*
X81580000Y-74610000D02*
X81580000Y-71712000D01*
X81580000Y-79988000D02*
X81580000Y-77090000D01*
X81620000Y-74610000D02*
X81620000Y-71684000D01*
X81620000Y-80016000D02*
X81620000Y-77090000D01*
X81660000Y-74610000D02*
X81660000Y-71657000D01*
X81660000Y-80043000D02*
X81660000Y-77090000D01*
X81700000Y-74610000D02*
X81700000Y-71630000D01*
X81700000Y-80070000D02*
X81700000Y-77090000D01*
X81740000Y-74610000D02*
X81740000Y-71603000D01*
X81740000Y-80097000D02*
X81740000Y-77090000D01*
X81780000Y-74610000D02*
X81780000Y-71578000D01*
X81780000Y-80122000D02*
X81780000Y-77090000D01*
X81820000Y-74610000D02*
X81820000Y-71552000D01*
X81820000Y-80148000D02*
X81820000Y-77090000D01*
X81860000Y-74610000D02*
X81860000Y-71527000D01*
X81860000Y-80173000D02*
X81860000Y-77090000D01*
X81900000Y-74610000D02*
X81900000Y-71503000D01*
X81900000Y-80197000D02*
X81900000Y-77090000D01*
X81940000Y-74610000D02*
X81940000Y-71479000D01*
X81940000Y-80221000D02*
X81940000Y-77090000D01*
X81980000Y-74610000D02*
X81980000Y-71456000D01*
X81980000Y-80244000D02*
X81980000Y-77090000D01*
X82020000Y-74610000D02*
X82020000Y-71433000D01*
X82020000Y-80267000D02*
X82020000Y-77090000D01*
X82060000Y-74610000D02*
X82060000Y-71411000D01*
X82060000Y-80289000D02*
X82060000Y-77090000D01*
X82100000Y-74610000D02*
X82100000Y-71389000D01*
X82100000Y-80311000D02*
X82100000Y-77090000D01*
X82140000Y-74610000D02*
X82140000Y-71367000D01*
X82140000Y-80333000D02*
X82140000Y-77090000D01*
X82180000Y-74610000D02*
X82180000Y-71346000D01*
X82180000Y-80354000D02*
X82180000Y-77090000D01*
X82220000Y-74610000D02*
X82220000Y-71326000D01*
X82220000Y-80374000D02*
X82220000Y-77090000D01*
X82260000Y-74610000D02*
X82260000Y-71306000D01*
X82260000Y-80394000D02*
X82260000Y-77090000D01*
X82300000Y-74610000D02*
X82300000Y-71286000D01*
X82300000Y-80414000D02*
X82300000Y-77090000D01*
X82340000Y-74610000D02*
X82340000Y-71267000D01*
X82340000Y-80433000D02*
X82340000Y-77090000D01*
X82380000Y-74610000D02*
X82380000Y-71248000D01*
X82380000Y-80452000D02*
X82380000Y-77090000D01*
X82420000Y-74610000D02*
X82420000Y-71230000D01*
X82420000Y-80470000D02*
X82420000Y-77090000D01*
X82460000Y-74610000D02*
X82460000Y-71212000D01*
X82460000Y-80488000D02*
X82460000Y-77090000D01*
X82500000Y-74610000D02*
X82500000Y-71194000D01*
X82500000Y-80506000D02*
X82500000Y-77090000D01*
X82540000Y-74610000D02*
X82540000Y-71177000D01*
X82540000Y-80523000D02*
X82540000Y-77090000D01*
X82580000Y-74610000D02*
X82580000Y-71160000D01*
X82580000Y-80540000D02*
X82580000Y-77090000D01*
X82620000Y-74610000D02*
X82620000Y-71144000D01*
X82620000Y-80556000D02*
X82620000Y-77090000D01*
X82660000Y-74610000D02*
X82660000Y-71128000D01*
X82660000Y-80572000D02*
X82660000Y-77090000D01*
X82700000Y-74610000D02*
X82700000Y-71112000D01*
X82700000Y-80588000D02*
X82700000Y-77090000D01*
X82740000Y-74610000D02*
X82740000Y-71097000D01*
X82740000Y-80603000D02*
X82740000Y-77090000D01*
X82780000Y-74610000D02*
X82780000Y-71082000D01*
X82780000Y-80618000D02*
X82780000Y-77090000D01*
X82820000Y-74610000D02*
X82820000Y-71068000D01*
X82820000Y-80632000D02*
X82820000Y-77090000D01*
X82860000Y-74610000D02*
X82860000Y-71053000D01*
X82860000Y-80647000D02*
X82860000Y-77090000D01*
X82900000Y-74610000D02*
X82900000Y-71040000D01*
X82900000Y-80660000D02*
X82900000Y-77090000D01*
X82940000Y-74610000D02*
X82940000Y-71026000D01*
X82940000Y-80674000D02*
X82940000Y-77090000D01*
X82980000Y-74610000D02*
X82980000Y-71013000D01*
X82980000Y-80687000D02*
X82980000Y-77090000D01*
X83020000Y-74610000D02*
X83020000Y-71001000D01*
X83020000Y-80699000D02*
X83020000Y-77090000D01*
X83060000Y-74610000D02*
X83060000Y-70989000D01*
X83060000Y-80711000D02*
X83060000Y-77090000D01*
X83100000Y-74610000D02*
X83100000Y-70977000D01*
X83100000Y-80723000D02*
X83100000Y-77090000D01*
X83140000Y-74610000D02*
X83140000Y-70965000D01*
X83140000Y-80735000D02*
X83140000Y-77090000D01*
X83180000Y-74610000D02*
X83180000Y-70954000D01*
X83180000Y-80746000D02*
X83180000Y-77090000D01*
X83220000Y-74610000D02*
X83220000Y-70943000D01*
X83220000Y-80757000D02*
X83220000Y-77090000D01*
X83260000Y-74610000D02*
X83260000Y-70933000D01*
X83260000Y-80767000D02*
X83260000Y-77090000D01*
X83300000Y-80778000D02*
X83300000Y-70922000D01*
X83340000Y-80787000D02*
X83340000Y-70913000D01*
X83380000Y-80797000D02*
X83380000Y-70903000D01*
X83420000Y-80806000D02*
X83420000Y-70894000D01*
X83460000Y-80815000D02*
X83460000Y-70885000D01*
X83500000Y-80823000D02*
X83500000Y-70877000D01*
X83540000Y-80831000D02*
X83540000Y-70869000D01*
X83580000Y-80839000D02*
X83580000Y-70861000D01*
X83620000Y-80847000D02*
X83620000Y-70853000D01*
X83660000Y-80854000D02*
X83660000Y-70846000D01*
X83700000Y-80861000D02*
X83700000Y-70839000D01*
X83740000Y-80867000D02*
X83740000Y-70833000D01*
X83780000Y-80873000D02*
X83780000Y-70827000D01*
X83820000Y-80879000D02*
X83820000Y-70821000D01*
X83860000Y-80885000D02*
X83860000Y-70815000D01*
X83900000Y-80890000D02*
X83900000Y-70810000D01*
X83940000Y-80895000D02*
X83940000Y-70805000D01*
X83980000Y-80899000D02*
X83980000Y-70801000D01*
X84020000Y-80904000D02*
X84020000Y-70796000D01*
X84060000Y-80907000D02*
X84060000Y-70793000D01*
X84100000Y-80911000D02*
X84100000Y-70789000D01*
X84140000Y-80914000D02*
X84140000Y-70786000D01*
X84180000Y-80917000D02*
X84180000Y-70783000D01*
X84220000Y-80920000D02*
X84220000Y-70780000D01*
X84260000Y-80922000D02*
X84260000Y-70778000D01*
X84300000Y-80924000D02*
X84300000Y-70776000D01*
X84340000Y-80926000D02*
X84340000Y-70774000D01*
X84380000Y-80927000D02*
X84380000Y-70773000D01*
X84420000Y-80929000D02*
X84420000Y-70771000D01*
X84460000Y-80929000D02*
X84460000Y-70771000D01*
X84500000Y-80930000D02*
X84500000Y-70770000D01*
X84540000Y-80930000D02*
X84540000Y-70770000D01*
X89519646Y-79225000D02*
X89519646Y-78225000D01*
X90019646Y-78725000D02*
X89019646Y-78725000D01*
X89660000Y-75850000D02*
G75*
G02*
X79420000Y-75850000I-5120000J0D01*
G01*
X79420000Y-75850000D02*
G75*
G02*
X89660000Y-75850000I5120000J0D01*
G01*
%TO.C,C5*%
X85390580Y-81740000D02*
X85109420Y-81740000D01*
X85390580Y-82760000D02*
X85109420Y-82760000D01*
%TO.C,J1*%
X115080000Y-56130000D02*
X123120000Y-56130000D01*
X115080000Y-58950000D02*
X115080000Y-56130000D01*
X115080000Y-66870000D02*
X115080000Y-59550000D01*
X117200000Y-56130000D02*
X117200000Y-57370000D01*
X117200000Y-61130000D02*
X117200000Y-63707000D01*
X117200000Y-64793000D02*
X117200000Y-66870000D01*
X118500000Y-56130000D02*
X118500000Y-57370000D01*
X118500000Y-61130000D02*
X118500000Y-62438000D01*
X118500000Y-66062000D02*
X118500000Y-66870000D01*
X119500000Y-56130000D02*
X119500000Y-57370000D01*
X119500000Y-61130000D02*
X119500000Y-62438000D01*
X119500000Y-66062000D02*
X119500000Y-66870000D01*
X123120000Y-56130000D02*
X123120000Y-66870000D01*
X123120000Y-66870000D02*
X115080000Y-66870000D01*
X115080000Y-59250000D02*
X114470000Y-59690000D01*
X114470000Y-58810000D01*
X115080000Y-59250000D01*
G36*
X115080000Y-59250000D02*
G01*
X114470000Y-59690000D01*
X114470000Y-58810000D01*
X115080000Y-59250000D01*
G37*
%TO.C,R15*%
X101012742Y-85727500D02*
X101487258Y-85727500D01*
X101012742Y-86772500D02*
X101487258Y-86772500D01*
%TO.C,C10*%
X106640580Y-83740000D02*
X106359420Y-83740000D01*
X106640580Y-84760000D02*
X106359420Y-84760000D01*
%TO.C,R11*%
X112487258Y-95977500D02*
X112012742Y-95977500D01*
X112487258Y-97022500D02*
X112012742Y-97022500D01*
%TO.C,R10*%
X93360436Y-83950000D02*
X97714564Y-83950000D01*
X93360436Y-87370000D02*
X97714564Y-87370000D01*
%TO.C,D2*%
X88960000Y-83350000D02*
X83150000Y-83350000D01*
X88960000Y-87650000D02*
X83150000Y-87650000D01*
X88960000Y-87650000D02*
X88960000Y-83350000D01*
%TO.C,R7*%
X95912258Y-92177500D02*
X95437742Y-92177500D01*
X95912258Y-93222500D02*
X95437742Y-93222500D01*
%TO.C,D4*%
X102990000Y-85250000D02*
X102990000Y-87250000D01*
X102990000Y-85250000D02*
X107000000Y-85250000D01*
X102990000Y-87250000D02*
X107000000Y-87250000D01*
%TO.C,R8*%
X95287742Y-93927500D02*
X95762258Y-93927500D01*
X95287742Y-94972500D02*
X95762258Y-94972500D01*
%TO.C,C1*%
X97220000Y-61460000D02*
X107380000Y-61460000D01*
X97220000Y-61500000D02*
X107380000Y-61500000D01*
X97221000Y-61380000D02*
X107379000Y-61380000D01*
X97221000Y-61420000D02*
X107379000Y-61420000D01*
X97223000Y-61340000D02*
X107377000Y-61340000D01*
X97224000Y-61300000D02*
X107376000Y-61300000D01*
X97226000Y-61260000D02*
X107374000Y-61260000D01*
X97228000Y-61220000D02*
X107372000Y-61220000D01*
X97230000Y-61180000D02*
X107370000Y-61180000D01*
X97233000Y-61140000D02*
X107367000Y-61140000D01*
X97236000Y-61100000D02*
X107364000Y-61100000D01*
X97239000Y-61060000D02*
X107361000Y-61060000D01*
X97243000Y-61020000D02*
X107357000Y-61020000D01*
X97246000Y-60980000D02*
X107354000Y-60980000D01*
X97251000Y-60940000D02*
X107349000Y-60940000D01*
X97255000Y-60900000D02*
X107345000Y-60900000D01*
X97260000Y-60860000D02*
X107340000Y-60860000D01*
X97265000Y-60820000D02*
X107335000Y-60820000D01*
X97271000Y-60780000D02*
X107329000Y-60780000D01*
X97277000Y-60740000D02*
X107323000Y-60740000D01*
X97283000Y-60700000D02*
X107317000Y-60700000D01*
X97289000Y-60660000D02*
X107311000Y-60660000D01*
X97296000Y-60620000D02*
X107304000Y-60620000D01*
X97303000Y-60580000D02*
X107297000Y-60580000D01*
X97311000Y-60540000D02*
X107289000Y-60540000D01*
X97319000Y-60500000D02*
X107281000Y-60500000D01*
X97327000Y-60460000D02*
X107273000Y-60460000D01*
X97335000Y-60420000D02*
X107265000Y-60420000D01*
X97344000Y-60380000D02*
X107256000Y-60380000D01*
X97353000Y-60340000D02*
X107247000Y-60340000D01*
X97363000Y-60300000D02*
X107237000Y-60300000D01*
X97372000Y-60260000D02*
X107228000Y-60260000D01*
X97383000Y-60220000D02*
X101060000Y-60220000D01*
X97393000Y-60180000D02*
X101060000Y-60180000D01*
X97404000Y-60140000D02*
X101060000Y-60140000D01*
X97415000Y-60100000D02*
X101060000Y-60100000D01*
X97427000Y-60060000D02*
X101060000Y-60060000D01*
X97439000Y-60020000D02*
X101060000Y-60020000D01*
X97451000Y-59980000D02*
X101060000Y-59980000D01*
X97463000Y-59940000D02*
X101060000Y-59940000D01*
X97476000Y-59900000D02*
X101060000Y-59900000D01*
X97490000Y-59860000D02*
X101060000Y-59860000D01*
X97503000Y-59820000D02*
X101060000Y-59820000D01*
X97518000Y-59780000D02*
X101060000Y-59780000D01*
X97532000Y-59740000D02*
X101060000Y-59740000D01*
X97547000Y-59700000D02*
X101060000Y-59700000D01*
X97562000Y-59660000D02*
X101060000Y-59660000D01*
X97578000Y-59620000D02*
X101060000Y-59620000D01*
X97594000Y-59580000D02*
X101060000Y-59580000D01*
X97610000Y-59540000D02*
X101060000Y-59540000D01*
X97627000Y-59500000D02*
X101060000Y-59500000D01*
X97644000Y-59460000D02*
X101060000Y-59460000D01*
X97662000Y-59420000D02*
X101060000Y-59420000D01*
X97680000Y-59380000D02*
X101060000Y-59380000D01*
X97698000Y-59340000D02*
X101060000Y-59340000D01*
X97717000Y-59300000D02*
X101060000Y-59300000D01*
X97736000Y-59260000D02*
X101060000Y-59260000D01*
X97756000Y-59220000D02*
X101060000Y-59220000D01*
X97776000Y-59180000D02*
X101060000Y-59180000D01*
X97796000Y-59140000D02*
X101060000Y-59140000D01*
X97817000Y-59100000D02*
X101060000Y-59100000D01*
X97839000Y-59060000D02*
X101060000Y-59060000D01*
X97861000Y-59020000D02*
X101060000Y-59020000D01*
X97883000Y-58980000D02*
X101060000Y-58980000D01*
X97906000Y-58940000D02*
X101060000Y-58940000D01*
X97929000Y-58900000D02*
X101060000Y-58900000D01*
X97953000Y-58860000D02*
X101060000Y-58860000D01*
X97977000Y-58820000D02*
X101060000Y-58820000D01*
X98002000Y-58780000D02*
X101060000Y-58780000D01*
X98028000Y-58740000D02*
X101060000Y-58740000D01*
X98053000Y-58700000D02*
X101060000Y-58700000D01*
X98080000Y-58660000D02*
X101060000Y-58660000D01*
X98107000Y-58620000D02*
X101060000Y-58620000D01*
X98134000Y-58580000D02*
X101060000Y-58580000D01*
X98162000Y-58540000D02*
X101060000Y-58540000D01*
X98191000Y-58500000D02*
X101060000Y-58500000D01*
X98220000Y-58460000D02*
X101060000Y-58460000D01*
X98250000Y-58420000D02*
X101060000Y-58420000D01*
X98280000Y-58380000D02*
X101060000Y-58380000D01*
X98312000Y-58340000D02*
X101060000Y-58340000D01*
X98343000Y-58300000D02*
X101060000Y-58300000D01*
X98376000Y-58260000D02*
X101060000Y-58260000D01*
X98409000Y-58220000D02*
X101060000Y-58220000D01*
X98442000Y-58180000D02*
X101060000Y-58180000D01*
X98477000Y-58140000D02*
X101060000Y-58140000D01*
X98512000Y-58100000D02*
X101060000Y-58100000D01*
X98548000Y-58060000D02*
X101060000Y-58060000D01*
X98584000Y-58020000D02*
X101060000Y-58020000D01*
X98622000Y-57980000D02*
X101060000Y-57980000D01*
X98660000Y-57940000D02*
X101060000Y-57940000D01*
X98699000Y-57900000D02*
X101060000Y-57900000D01*
X98739000Y-57860000D02*
X101060000Y-57860000D01*
X98780000Y-57820000D02*
X101060000Y-57820000D01*
X98822000Y-57780000D02*
X101060000Y-57780000D01*
X98865000Y-57740000D02*
X105735000Y-57740000D01*
X98909000Y-57700000D02*
X105691000Y-57700000D01*
X98925000Y-66479646D02*
X99925000Y-66479646D01*
X98953000Y-57660000D02*
X105647000Y-57660000D01*
X98999000Y-57620000D02*
X105601000Y-57620000D01*
X99046000Y-57580000D02*
X105554000Y-57580000D01*
X99095000Y-57540000D02*
X105505000Y-57540000D01*
X99144000Y-57500000D02*
X105456000Y-57500000D01*
X99195000Y-57460000D02*
X105405000Y-57460000D01*
X99247000Y-57420000D02*
X105353000Y-57420000D01*
X99300000Y-57380000D02*
X105300000Y-57380000D01*
X99355000Y-57340000D02*
X105245000Y-57340000D01*
X99412000Y-57300000D02*
X105188000Y-57300000D01*
X99425000Y-66979646D02*
X99425000Y-65979646D01*
X99470000Y-57260000D02*
X105130000Y-57260000D01*
X99530000Y-57220000D02*
X105070000Y-57220000D01*
X99592000Y-57180000D02*
X105008000Y-57180000D01*
X99656000Y-57140000D02*
X104944000Y-57140000D01*
X99722000Y-57100000D02*
X104878000Y-57100000D01*
X99790000Y-57060000D02*
X104810000Y-57060000D01*
X99861000Y-57020000D02*
X104739000Y-57020000D01*
X99935000Y-56980000D02*
X104665000Y-56980000D01*
X100012000Y-56940000D02*
X104588000Y-56940000D01*
X100092000Y-56900000D02*
X104508000Y-56900000D01*
X100176000Y-56860000D02*
X104424000Y-56860000D01*
X100263000Y-56820000D02*
X104337000Y-56820000D01*
X100356000Y-56780000D02*
X104244000Y-56780000D01*
X100454000Y-56740000D02*
X104146000Y-56740000D01*
X100558000Y-56700000D02*
X104042000Y-56700000D01*
X100670000Y-56660000D02*
X103930000Y-56660000D01*
X100791000Y-56620000D02*
X103809000Y-56620000D01*
X100923000Y-56580000D02*
X103677000Y-56580000D01*
X101070000Y-56540000D02*
X103530000Y-56540000D01*
X101238000Y-56500000D02*
X103362000Y-56500000D01*
X101438000Y-56460000D02*
X103162000Y-56460000D01*
X101701000Y-56420000D02*
X102899000Y-56420000D01*
X103540000Y-57780000D02*
X105778000Y-57780000D01*
X103540000Y-57820000D02*
X105820000Y-57820000D01*
X103540000Y-57860000D02*
X105861000Y-57860000D01*
X103540000Y-57900000D02*
X105901000Y-57900000D01*
X103540000Y-57940000D02*
X105940000Y-57940000D01*
X103540000Y-57980000D02*
X105978000Y-57980000D01*
X103540000Y-58020000D02*
X106016000Y-58020000D01*
X103540000Y-58060000D02*
X106052000Y-58060000D01*
X103540000Y-58100000D02*
X106088000Y-58100000D01*
X103540000Y-58140000D02*
X106123000Y-58140000D01*
X103540000Y-58180000D02*
X106158000Y-58180000D01*
X103540000Y-58220000D02*
X106191000Y-58220000D01*
X103540000Y-58260000D02*
X106224000Y-58260000D01*
X103540000Y-58300000D02*
X106257000Y-58300000D01*
X103540000Y-58340000D02*
X106288000Y-58340000D01*
X103540000Y-58380000D02*
X106320000Y-58380000D01*
X103540000Y-58420000D02*
X106350000Y-58420000D01*
X103540000Y-58460000D02*
X106380000Y-58460000D01*
X103540000Y-58500000D02*
X106409000Y-58500000D01*
X103540000Y-58540000D02*
X106438000Y-58540000D01*
X103540000Y-58580000D02*
X106466000Y-58580000D01*
X103540000Y-58620000D02*
X106493000Y-58620000D01*
X103540000Y-58660000D02*
X106520000Y-58660000D01*
X103540000Y-58700000D02*
X106547000Y-58700000D01*
X103540000Y-58740000D02*
X106572000Y-58740000D01*
X103540000Y-58780000D02*
X106598000Y-58780000D01*
X103540000Y-58820000D02*
X106623000Y-58820000D01*
X103540000Y-58860000D02*
X106647000Y-58860000D01*
X103540000Y-58900000D02*
X106671000Y-58900000D01*
X103540000Y-58940000D02*
X106694000Y-58940000D01*
X103540000Y-58980000D02*
X106717000Y-58980000D01*
X103540000Y-59020000D02*
X106739000Y-59020000D01*
X103540000Y-59060000D02*
X106761000Y-59060000D01*
X103540000Y-59100000D02*
X106783000Y-59100000D01*
X103540000Y-59140000D02*
X106804000Y-59140000D01*
X103540000Y-59180000D02*
X106824000Y-59180000D01*
X103540000Y-59220000D02*
X106844000Y-59220000D01*
X103540000Y-59260000D02*
X106864000Y-59260000D01*
X103540000Y-59300000D02*
X106883000Y-59300000D01*
X103540000Y-59340000D02*
X106902000Y-59340000D01*
X103540000Y-59380000D02*
X106920000Y-59380000D01*
X103540000Y-59420000D02*
X106938000Y-59420000D01*
X103540000Y-59460000D02*
X106956000Y-59460000D01*
X103540000Y-59500000D02*
X106973000Y-59500000D01*
X103540000Y-59540000D02*
X106990000Y-59540000D01*
X103540000Y-59580000D02*
X107006000Y-59580000D01*
X103540000Y-59620000D02*
X107022000Y-59620000D01*
X103540000Y-59660000D02*
X107038000Y-59660000D01*
X103540000Y-59700000D02*
X107053000Y-59700000D01*
X103540000Y-59740000D02*
X107068000Y-59740000D01*
X103540000Y-59780000D02*
X107082000Y-59780000D01*
X103540000Y-59820000D02*
X107097000Y-59820000D01*
X103540000Y-59860000D02*
X107110000Y-59860000D01*
X103540000Y-59900000D02*
X107124000Y-59900000D01*
X103540000Y-59940000D02*
X107137000Y-59940000D01*
X103540000Y-59980000D02*
X107149000Y-59980000D01*
X103540000Y-60020000D02*
X107161000Y-60020000D01*
X103540000Y-60060000D02*
X107173000Y-60060000D01*
X103540000Y-60100000D02*
X107185000Y-60100000D01*
X103540000Y-60140000D02*
X107196000Y-60140000D01*
X103540000Y-60180000D02*
X107207000Y-60180000D01*
X103540000Y-60220000D02*
X107217000Y-60220000D01*
X107420000Y-61500000D02*
G75*
G02*
X97180000Y-61500000I-5120000J0D01*
G01*
X97180000Y-61500000D02*
G75*
G02*
X107420000Y-61500000I5120000J0D01*
G01*
%TO.C,R14*%
X106012742Y-88977500D02*
X106487258Y-88977500D01*
X106012742Y-90022500D02*
X106487258Y-90022500D01*
%TO.C,J3*%
X104830000Y-98630000D02*
X112870000Y-98630000D01*
X104830000Y-101450000D02*
X104830000Y-98630000D01*
X104830000Y-109370000D02*
X104830000Y-102050000D01*
X106950000Y-98630000D02*
X106950000Y-99870000D01*
X106950000Y-103630000D02*
X106950000Y-106207000D01*
X106950000Y-107293000D02*
X106950000Y-109370000D01*
X108250000Y-98630000D02*
X108250000Y-99870000D01*
X108250000Y-103630000D02*
X108250000Y-104938000D01*
X108250000Y-108562000D02*
X108250000Y-109370000D01*
X109250000Y-98630000D02*
X109250000Y-99870000D01*
X109250000Y-103630000D02*
X109250000Y-104938000D01*
X109250000Y-108562000D02*
X109250000Y-109370000D01*
X112870000Y-98630000D02*
X112870000Y-109370000D01*
X112870000Y-109370000D02*
X104830000Y-109370000D01*
X104830000Y-101750000D02*
X104220000Y-102190000D01*
X104220000Y-101310000D01*
X104830000Y-101750000D01*
G36*
X104830000Y-101750000D02*
G01*
X104220000Y-102190000D01*
X104220000Y-101310000D01*
X104830000Y-101750000D01*
G37*
D15*
%TO.C,G\u002A\u002A\u002A*%
G36*
X86659811Y-106014877D02*
G01*
X86658296Y-106019716D01*
X86655528Y-106028796D01*
X86651789Y-106041180D01*
X86647363Y-106055934D01*
X86642530Y-106072120D01*
X86642092Y-106073592D01*
X86637262Y-106089642D01*
X86632803Y-106104125D01*
X86628996Y-106116163D01*
X86626117Y-106124879D01*
X86624445Y-106129395D01*
X86624341Y-106129607D01*
X86623188Y-106131060D01*
X86621022Y-106132183D01*
X86617209Y-106133017D01*
X86611117Y-106133605D01*
X86602110Y-106133988D01*
X86589557Y-106134209D01*
X86572823Y-106134309D01*
X86553115Y-106134332D01*
X86534485Y-106134256D01*
X86517767Y-106134042D01*
X86503678Y-106133711D01*
X86492935Y-106133284D01*
X86486256Y-106132783D01*
X86484308Y-106132307D01*
X86485031Y-106129253D01*
X86487093Y-106121770D01*
X86490282Y-106110600D01*
X86494384Y-106096485D01*
X86499185Y-106080167D01*
X86502530Y-106068901D01*
X86520816Y-106007519D01*
X86591538Y-106007486D01*
X86662261Y-106007453D01*
X86659811Y-106014877D01*
G37*
G36*
X84180939Y-105702638D02*
G01*
X84184909Y-105709670D01*
X84189992Y-105719627D01*
X84195731Y-105731508D01*
X84201671Y-105744316D01*
X84207355Y-105757052D01*
X84212327Y-105768718D01*
X84216129Y-105778316D01*
X84218306Y-105784846D01*
X84218594Y-105787141D01*
X84215915Y-105789016D01*
X84209016Y-105792720D01*
X84198624Y-105797919D01*
X84185467Y-105804280D01*
X84170271Y-105811469D01*
X84153765Y-105819154D01*
X84136675Y-105827001D01*
X84119729Y-105834678D01*
X84103655Y-105841850D01*
X84089179Y-105848185D01*
X84077029Y-105853350D01*
X84067932Y-105857011D01*
X84062616Y-105858835D01*
X84061773Y-105858978D01*
X84057661Y-105856409D01*
X84052908Y-105849029D01*
X84050896Y-105844806D01*
X84046853Y-105835806D01*
X84041466Y-105823967D01*
X84035673Y-105811343D01*
X84033498Y-105806635D01*
X84028702Y-105795761D01*
X84024948Y-105786265D01*
X84022748Y-105779504D01*
X84022388Y-105777409D01*
X84023298Y-105775450D01*
X84026314Y-105772764D01*
X84031869Y-105769112D01*
X84040395Y-105764252D01*
X84052324Y-105757942D01*
X84068088Y-105749943D01*
X84088119Y-105740011D01*
X84098651Y-105734843D01*
X84120939Y-105724050D01*
X84140083Y-105715027D01*
X84155752Y-105707919D01*
X84167614Y-105702875D01*
X84175336Y-105700039D01*
X84178539Y-105699527D01*
X84180939Y-105702638D01*
G37*
G36*
X84259061Y-105957919D02*
G01*
X84263183Y-105960886D01*
X84265626Y-105965386D01*
X84269082Y-105973887D01*
X84273156Y-105985175D01*
X84277455Y-105998039D01*
X84281587Y-106011265D01*
X84285156Y-106023642D01*
X84287770Y-106033956D01*
X84288964Y-106040329D01*
X84290173Y-106050259D01*
X84270337Y-106056174D01*
X84236170Y-106066355D01*
X84206827Y-106075079D01*
X84181962Y-106082448D01*
X84161227Y-106088561D01*
X84144277Y-106093520D01*
X84130765Y-106097423D01*
X84120346Y-106100372D01*
X84112672Y-106102466D01*
X84107397Y-106103805D01*
X84104175Y-106104491D01*
X84102886Y-106104637D01*
X84099862Y-106103116D01*
X84096885Y-106098037D01*
X84093544Y-106088626D01*
X84092474Y-106085065D01*
X84088711Y-106072294D01*
X84084327Y-106057524D01*
X84080261Y-106043923D01*
X84080211Y-106043758D01*
X84077189Y-106033201D01*
X84074908Y-106024286D01*
X84073751Y-106018539D01*
X84073680Y-106017662D01*
X84074916Y-106015999D01*
X84078884Y-106013668D01*
X84085972Y-106010519D01*
X84096571Y-106006404D01*
X84111069Y-106001171D01*
X84129857Y-105994672D01*
X84153322Y-105986758D01*
X84159391Y-105984732D01*
X84180129Y-105977887D01*
X84199479Y-105971631D01*
X84216783Y-105966165D01*
X84231384Y-105961693D01*
X84242624Y-105958416D01*
X84249848Y-105956537D01*
X84252107Y-105956162D01*
X84259061Y-105957919D01*
G37*
G36*
X86566010Y-106164125D02*
G01*
X86584300Y-106164409D01*
X86598553Y-106164865D01*
X86608376Y-106165478D01*
X86613377Y-106166234D01*
X86613950Y-106166628D01*
X86613265Y-106169594D01*
X86611276Y-106177394D01*
X86608085Y-106189654D01*
X86603792Y-106205997D01*
X86598498Y-106226048D01*
X86592302Y-106249432D01*
X86585307Y-106275773D01*
X86577611Y-106304696D01*
X86569317Y-106335825D01*
X86560523Y-106368785D01*
X86551332Y-106403199D01*
X86541844Y-106438694D01*
X86532159Y-106474893D01*
X86522377Y-106511420D01*
X86512600Y-106547901D01*
X86502928Y-106583960D01*
X86493461Y-106619221D01*
X86484300Y-106653308D01*
X86475546Y-106685847D01*
X86467300Y-106716462D01*
X86459661Y-106744777D01*
X86452730Y-106770417D01*
X86446609Y-106793006D01*
X86441397Y-106812169D01*
X86437196Y-106827530D01*
X86434105Y-106838715D01*
X86432225Y-106845346D01*
X86431667Y-106847114D01*
X86428774Y-106847588D01*
X86421139Y-106848024D01*
X86409422Y-106848421D01*
X86394278Y-106848775D01*
X86376367Y-106849082D01*
X86356346Y-106849339D01*
X86334872Y-106849544D01*
X86312604Y-106849694D01*
X86290200Y-106849784D01*
X86268316Y-106849811D01*
X86247612Y-106849774D01*
X86228744Y-106849667D01*
X86212370Y-106849489D01*
X86199149Y-106849236D01*
X86189738Y-106848905D01*
X86184795Y-106848492D01*
X86184224Y-106848313D01*
X86184354Y-106845325D01*
X86185716Y-106838171D01*
X86188085Y-106827882D01*
X86191238Y-106815491D01*
X86191664Y-106813893D01*
X86195762Y-106798564D01*
X86200033Y-106782556D01*
X86203918Y-106767965D01*
X86206405Y-106758601D01*
X86212309Y-106736330D01*
X86266734Y-106736330D01*
X86321158Y-106736330D01*
X86396112Y-106456252D01*
X86406251Y-106418364D01*
X86416015Y-106381874D01*
X86425311Y-106347127D01*
X86434047Y-106314472D01*
X86442130Y-106284255D01*
X86449467Y-106256822D01*
X86455965Y-106232520D01*
X86461532Y-106211696D01*
X86466075Y-106194696D01*
X86469501Y-106181868D01*
X86471717Y-106173557D01*
X86472632Y-106170111D01*
X86472635Y-106170101D01*
X86474203Y-106164027D01*
X86544077Y-106164027D01*
X86566010Y-106164125D01*
G37*
G36*
X89198798Y-106020276D02*
G01*
X89196732Y-106027641D01*
X89193678Y-106038843D01*
X89190010Y-106052494D01*
X89186103Y-106067207D01*
X89185153Y-106070811D01*
X89181418Y-106084824D01*
X89177979Y-106097384D01*
X89175155Y-106107359D01*
X89173260Y-106113616D01*
X89172891Y-106114679D01*
X89170551Y-106120834D01*
X88982186Y-106120834D01*
X88793821Y-106120834D01*
X88736373Y-106334773D01*
X88727494Y-106367842D01*
X88718996Y-106399493D01*
X88710988Y-106429327D01*
X88703576Y-106456944D01*
X88696869Y-106481943D01*
X88690972Y-106503924D01*
X88685993Y-106522488D01*
X88682041Y-106537235D01*
X88679221Y-106547764D01*
X88677642Y-106553675D01*
X88677353Y-106554767D01*
X88675780Y-106560823D01*
X88864544Y-106561516D01*
X89053308Y-106562209D01*
X89039551Y-106613501D01*
X89035203Y-106629605D01*
X89031229Y-106644128D01*
X89027875Y-106656183D01*
X89025389Y-106664883D01*
X89024018Y-106669340D01*
X89023953Y-106669516D01*
X89023417Y-106670306D01*
X89022250Y-106671004D01*
X89020134Y-106671614D01*
X89016748Y-106672142D01*
X89011773Y-106672595D01*
X89004889Y-106672978D01*
X88995778Y-106673296D01*
X88984118Y-106673557D01*
X88969592Y-106673765D01*
X88951880Y-106673926D01*
X88930661Y-106674047D01*
X88905617Y-106674132D01*
X88876428Y-106674189D01*
X88842775Y-106674221D01*
X88804337Y-106674237D01*
X88764220Y-106674240D01*
X88719531Y-106674227D01*
X88679971Y-106674186D01*
X88645272Y-106674112D01*
X88615163Y-106674003D01*
X88589375Y-106673855D01*
X88567639Y-106673664D01*
X88549685Y-106673427D01*
X88535244Y-106673141D01*
X88524046Y-106672801D01*
X88515822Y-106672404D01*
X88510302Y-106671948D01*
X88507218Y-106671427D01*
X88506297Y-106670866D01*
X88506979Y-106667885D01*
X88508979Y-106660004D01*
X88512211Y-106647537D01*
X88516594Y-106630800D01*
X88522044Y-106610106D01*
X88528477Y-106585771D01*
X88535810Y-106558108D01*
X88543959Y-106527432D01*
X88552843Y-106494058D01*
X88562376Y-106458299D01*
X88572475Y-106420472D01*
X88583058Y-106380889D01*
X88594040Y-106339866D01*
X88594682Y-106337472D01*
X88683098Y-106007453D01*
X88942809Y-106007453D01*
X89202520Y-106007453D01*
X89198798Y-106020276D01*
G37*
G36*
X86180082Y-106164597D02*
G01*
X86211955Y-106164690D01*
X86239660Y-106164841D01*
X86262999Y-106165050D01*
X86281776Y-106165315D01*
X86295792Y-106165634D01*
X86304850Y-106166007D01*
X86308754Y-106166431D01*
X86308901Y-106166537D01*
X86308214Y-106169569D01*
X86306232Y-106177373D01*
X86303072Y-106189510D01*
X86298853Y-106205541D01*
X86293692Y-106225027D01*
X86287709Y-106247531D01*
X86281020Y-106272612D01*
X86273745Y-106299832D01*
X86266000Y-106328752D01*
X86257905Y-106358934D01*
X86249577Y-106389938D01*
X86241135Y-106421325D01*
X86232696Y-106452658D01*
X86224378Y-106483497D01*
X86216300Y-106513403D01*
X86208580Y-106541937D01*
X86201336Y-106568661D01*
X86194686Y-106593136D01*
X86188748Y-106614922D01*
X86183639Y-106633582D01*
X86179479Y-106648676D01*
X86176386Y-106659765D01*
X86174476Y-106666411D01*
X86173915Y-106668166D01*
X86171340Y-106674240D01*
X85925783Y-106674240D01*
X85889853Y-106674219D01*
X85855480Y-106674155D01*
X85823046Y-106674054D01*
X85792931Y-106673917D01*
X85765518Y-106673748D01*
X85741186Y-106673551D01*
X85720319Y-106673327D01*
X85703296Y-106673081D01*
X85690500Y-106672816D01*
X85682311Y-106672534D01*
X85679111Y-106672238D01*
X85679083Y-106672216D01*
X85679608Y-106669377D01*
X85681451Y-106661686D01*
X85684517Y-106649500D01*
X85688713Y-106633178D01*
X85693944Y-106613077D01*
X85700117Y-106589556D01*
X85707136Y-106562973D01*
X85707697Y-106560859D01*
X85848162Y-106560859D01*
X85955193Y-106560859D01*
X86062224Y-106560859D01*
X86099606Y-106422508D01*
X86106755Y-106396067D01*
X86113502Y-106371157D01*
X86119710Y-106348273D01*
X86125246Y-106327908D01*
X86129975Y-106310558D01*
X86133761Y-106296718D01*
X86136471Y-106286883D01*
X86137969Y-106281547D01*
X86138210Y-106280751D01*
X86137533Y-106279875D01*
X86134533Y-106279171D01*
X86128796Y-106278629D01*
X86119908Y-106278238D01*
X86107454Y-106277987D01*
X86091021Y-106277867D01*
X86070195Y-106277866D01*
X86044560Y-106277975D01*
X86032087Y-106278051D01*
X85924742Y-106278757D01*
X85886452Y-106419808D01*
X85848162Y-106560859D01*
X85707697Y-106560859D01*
X85714908Y-106533687D01*
X85723339Y-106502055D01*
X85732335Y-106468436D01*
X85741801Y-106433189D01*
X85745949Y-106417784D01*
X85813958Y-106165376D01*
X86061430Y-106164687D01*
X86104622Y-106164595D01*
X86144239Y-106164565D01*
X86180082Y-106164597D01*
G37*
G36*
X85492036Y-106170101D02*
G01*
X85490039Y-106176690D01*
X85487171Y-106186713D01*
X85483678Y-106199242D01*
X85479811Y-106213351D01*
X85475818Y-106228114D01*
X85471948Y-106242603D01*
X85468449Y-106255892D01*
X85465569Y-106267053D01*
X85463558Y-106275161D01*
X85462664Y-106279288D01*
X85462655Y-106279616D01*
X85464822Y-106278150D01*
X85470630Y-106273596D01*
X85479596Y-106266348D01*
X85491237Y-106256802D01*
X85505070Y-106245355D01*
X85520610Y-106232400D01*
X85532720Y-106222251D01*
X85602027Y-106164027D01*
X85678761Y-106164027D01*
X85698487Y-106164068D01*
X85716335Y-106164183D01*
X85731628Y-106164362D01*
X85743687Y-106164595D01*
X85751835Y-106164870D01*
X85755394Y-106165176D01*
X85755495Y-106165239D01*
X85753478Y-106167121D01*
X85747632Y-106172216D01*
X85738259Y-106180267D01*
X85725665Y-106191015D01*
X85710155Y-106204200D01*
X85692033Y-106219566D01*
X85671603Y-106236853D01*
X85649170Y-106255803D01*
X85625039Y-106276158D01*
X85599515Y-106297660D01*
X85584749Y-106310086D01*
X85414003Y-106453720D01*
X85386503Y-106553857D01*
X85380247Y-106576619D01*
X85374334Y-106598095D01*
X85368943Y-106617646D01*
X85364248Y-106634631D01*
X85360429Y-106648409D01*
X85357661Y-106658340D01*
X85356122Y-106663785D01*
X85356025Y-106664117D01*
X85353046Y-106674240D01*
X85285666Y-106674240D01*
X85264606Y-106674204D01*
X85248350Y-106674070D01*
X85236305Y-106673803D01*
X85227878Y-106673367D01*
X85222474Y-106672727D01*
X85219500Y-106671847D01*
X85218361Y-106670691D01*
X85218286Y-106670187D01*
X85218980Y-106667263D01*
X85220983Y-106659569D01*
X85224175Y-106647542D01*
X85228438Y-106631619D01*
X85233652Y-106612237D01*
X85239699Y-106589832D01*
X85246459Y-106564841D01*
X85253814Y-106537702D01*
X85261645Y-106508851D01*
X85269832Y-106478725D01*
X85278256Y-106447761D01*
X85286799Y-106416395D01*
X85295342Y-106385066D01*
X85303765Y-106354209D01*
X85311949Y-106324261D01*
X85319776Y-106295660D01*
X85327126Y-106268841D01*
X85333881Y-106244244D01*
X85339921Y-106222303D01*
X85345127Y-106203455D01*
X85349381Y-106188139D01*
X85352563Y-106176790D01*
X85354555Y-106169846D01*
X85354883Y-106168751D01*
X85355692Y-106167301D01*
X85357540Y-106166181D01*
X85361051Y-106165347D01*
X85366848Y-106164760D01*
X85375555Y-106164376D01*
X85387795Y-106164154D01*
X85404192Y-106164051D01*
X85425165Y-106164027D01*
X85494003Y-106164027D01*
X85492036Y-106170101D01*
G37*
G36*
X83929377Y-106229417D02*
G01*
X83931265Y-106231680D01*
X83933160Y-106236263D01*
X83935265Y-106243835D01*
X83937779Y-106255064D01*
X83940904Y-106270616D01*
X83942736Y-106280107D01*
X83945101Y-106292666D01*
X83946885Y-106303113D01*
X83948149Y-106312492D01*
X83948952Y-106321850D01*
X83949353Y-106332234D01*
X83949412Y-106344689D01*
X83949188Y-106360262D01*
X83948741Y-106379999D01*
X83948642Y-106384039D01*
X83947093Y-106426039D01*
X83944491Y-106471161D01*
X83940946Y-106518367D01*
X83936570Y-106566619D01*
X83931474Y-106614878D01*
X83925769Y-106662107D01*
X83919566Y-106707266D01*
X83912978Y-106749317D01*
X83906114Y-106787221D01*
X83904686Y-106794370D01*
X83900679Y-106812937D01*
X83895672Y-106834384D01*
X83890005Y-106857395D01*
X83884019Y-106880654D01*
X83878053Y-106902846D01*
X83872447Y-106922655D01*
X83867542Y-106938766D01*
X83866653Y-106941495D01*
X83859066Y-106964441D01*
X83781454Y-106965157D01*
X83761612Y-106965272D01*
X83743644Y-106965243D01*
X83728224Y-106965083D01*
X83716025Y-106964803D01*
X83707722Y-106964415D01*
X83703987Y-106963932D01*
X83703846Y-106963808D01*
X83704811Y-106960661D01*
X83707449Y-106953527D01*
X83711375Y-106943412D01*
X83716205Y-106931322D01*
X83717065Y-106929200D01*
X83729137Y-106897561D01*
X83739852Y-106865214D01*
X83749470Y-106831174D01*
X83758252Y-106794456D01*
X83766459Y-106754078D01*
X83772507Y-106720133D01*
X83780219Y-106670567D01*
X83786796Y-106620127D01*
X83792115Y-106570075D01*
X83796055Y-106521676D01*
X83798491Y-106476193D01*
X83799256Y-106445016D01*
X83799377Y-106428956D01*
X83799277Y-106417182D01*
X83798820Y-106408585D01*
X83797870Y-106402054D01*
X83796291Y-106396477D01*
X83793945Y-106390744D01*
X83792100Y-106386739D01*
X83784091Y-106372052D01*
X83774774Y-106360537D01*
X83762514Y-106350334D01*
X83756379Y-106346178D01*
X83750051Y-106341902D01*
X83745716Y-106338040D01*
X83742574Y-106333277D01*
X83739822Y-106326299D01*
X83736659Y-106315791D01*
X83735611Y-106312108D01*
X83732261Y-106299580D01*
X83730598Y-106291253D01*
X83730498Y-106286243D01*
X83731666Y-106283818D01*
X83734790Y-106282548D01*
X83742414Y-106280070D01*
X83753828Y-106276585D01*
X83768320Y-106272292D01*
X83785178Y-106267392D01*
X83803690Y-106262085D01*
X83823146Y-106256571D01*
X83842834Y-106251050D01*
X83862042Y-106245722D01*
X83880059Y-106240787D01*
X83896173Y-106236445D01*
X83909673Y-106232896D01*
X83919847Y-106230341D01*
X83925984Y-106228979D01*
X83927296Y-106228808D01*
X83929377Y-106229417D01*
G37*
G36*
X83991731Y-105794575D02*
G01*
X83995849Y-105801089D01*
X84001038Y-105810527D01*
X84006833Y-105821902D01*
X84012769Y-105834227D01*
X84018379Y-105846515D01*
X84023199Y-105857778D01*
X84026762Y-105867031D01*
X84028603Y-105873285D01*
X84028540Y-105875450D01*
X84025727Y-105876907D01*
X84018189Y-105880469D01*
X84006135Y-105886044D01*
X83989772Y-105893538D01*
X83969305Y-105902859D01*
X83944944Y-105913913D01*
X83916895Y-105926607D01*
X83885365Y-105940847D01*
X83850561Y-105956542D01*
X83812691Y-105973598D01*
X83771961Y-105991921D01*
X83728579Y-106011419D01*
X83682753Y-106031998D01*
X83634688Y-106053566D01*
X83584594Y-106076029D01*
X83532675Y-106099294D01*
X83479141Y-106123268D01*
X83424198Y-106147858D01*
X83368053Y-106172971D01*
X83310913Y-106198514D01*
X83252986Y-106224394D01*
X83194478Y-106250517D01*
X83135597Y-106276791D01*
X83109943Y-106288233D01*
X83076790Y-106303019D01*
X83044739Y-106317317D01*
X83014175Y-106330954D01*
X82985483Y-106343758D01*
X82959047Y-106355558D01*
X82935254Y-106366181D01*
X82914488Y-106375456D01*
X82897133Y-106383211D01*
X82883577Y-106389273D01*
X82874202Y-106393472D01*
X82869534Y-106395571D01*
X82857542Y-106400868D01*
X82849237Y-106404069D01*
X82843468Y-106405468D01*
X82839080Y-106405357D01*
X82835441Y-106404242D01*
X82828797Y-106398978D01*
X82824715Y-106390669D01*
X82823679Y-106381251D01*
X82826174Y-106372662D01*
X82827166Y-106371180D01*
X82830228Y-106369115D01*
X82837655Y-106364969D01*
X82848942Y-106358999D01*
X82863587Y-106351461D01*
X82881087Y-106342613D01*
X82900940Y-106332710D01*
X82922642Y-106322010D01*
X82941222Y-106312940D01*
X82955196Y-106306108D01*
X82973682Y-106297006D01*
X82996369Y-106285790D01*
X83022945Y-106272615D01*
X83053097Y-106257637D01*
X83086515Y-106241011D01*
X83122887Y-106222893D01*
X83161900Y-106203438D01*
X83203244Y-106182802D01*
X83246607Y-106161140D01*
X83291676Y-106138607D01*
X83338141Y-106115360D01*
X83385689Y-106091553D01*
X83434009Y-106067342D01*
X83482790Y-106042883D01*
X83518211Y-106025111D01*
X83565329Y-106001479D01*
X83611187Y-105978512D01*
X83655548Y-105956326D01*
X83698177Y-105935038D01*
X83738840Y-105914764D01*
X83777300Y-105895621D01*
X83813323Y-105877724D01*
X83846674Y-105861191D01*
X83877116Y-105846138D01*
X83904416Y-105832681D01*
X83928337Y-105820937D01*
X83948645Y-105811022D01*
X83965105Y-105803052D01*
X83977480Y-105797145D01*
X83985536Y-105793416D01*
X83989038Y-105791982D01*
X83989152Y-105791971D01*
X83991731Y-105794575D01*
G37*
G36*
X84973977Y-106007518D02*
G01*
X85246631Y-106007527D01*
X85264799Y-106036822D01*
X85271820Y-106048261D01*
X85277838Y-106058284D01*
X85282250Y-106065872D01*
X85284452Y-106070004D01*
X85284524Y-106070178D01*
X85284112Y-106073444D01*
X85282385Y-106081455D01*
X85279462Y-106093749D01*
X85275459Y-106109864D01*
X85270495Y-106129341D01*
X85264687Y-106151717D01*
X85258152Y-106176531D01*
X85251010Y-106203322D01*
X85243376Y-106231629D01*
X85242953Y-106233188D01*
X85235179Y-106261841D01*
X85227758Y-106289208D01*
X85220821Y-106314798D01*
X85214502Y-106338121D01*
X85208932Y-106358688D01*
X85204246Y-106376006D01*
X85200575Y-106389587D01*
X85198053Y-106398939D01*
X85196813Y-106403573D01*
X85196811Y-106403578D01*
X85195485Y-106407816D01*
X85193526Y-106411604D01*
X85190286Y-106415531D01*
X85185118Y-106420187D01*
X85177373Y-106426162D01*
X85166402Y-106434045D01*
X85153038Y-106443397D01*
X85112276Y-106471775D01*
X84915649Y-106471775D01*
X84719021Y-106471775D01*
X84715009Y-106485947D01*
X84713319Y-106492082D01*
X84710455Y-106502663D01*
X84706625Y-106516918D01*
X84702036Y-106534073D01*
X84696894Y-106553356D01*
X84691407Y-106573992D01*
X84689161Y-106582456D01*
X84683746Y-106602858D01*
X84678730Y-106621719D01*
X84674295Y-106638367D01*
X84670617Y-106652133D01*
X84667877Y-106662345D01*
X84666253Y-106668333D01*
X84665921Y-106669516D01*
X84665132Y-106670952D01*
X84663314Y-106672065D01*
X84659849Y-106672896D01*
X84654121Y-106673486D01*
X84645513Y-106673874D01*
X84633410Y-106674103D01*
X84617193Y-106674211D01*
X84596248Y-106674240D01*
X84594195Y-106674240D01*
X84523874Y-106674240D01*
X84525458Y-106668166D01*
X84526340Y-106664839D01*
X84528526Y-106656614D01*
X84531931Y-106643811D01*
X84536470Y-106626750D01*
X84542058Y-106605749D01*
X84548610Y-106581129D01*
X84556041Y-106553209D01*
X84564266Y-106522309D01*
X84573199Y-106488747D01*
X84582757Y-106452845D01*
X84592853Y-106414921D01*
X84603402Y-106375294D01*
X84607890Y-106358436D01*
X84749007Y-106358436D01*
X84910056Y-106357740D01*
X85071106Y-106357044D01*
X85093414Y-106273358D01*
X85099382Y-106250971D01*
X85105372Y-106228504D01*
X85111115Y-106206960D01*
X85116344Y-106187344D01*
X85120792Y-106170662D01*
X85124189Y-106157918D01*
X85124900Y-106155253D01*
X85134077Y-106120834D01*
X84973041Y-106120849D01*
X84812005Y-106120865D01*
X84790728Y-106201161D01*
X84784814Y-106223475D01*
X84778794Y-106246188D01*
X84772958Y-106268197D01*
X84767601Y-106288398D01*
X84763014Y-106305687D01*
X84759490Y-106318963D01*
X84759229Y-106319946D01*
X84749007Y-106358436D01*
X84607890Y-106358436D01*
X84614183Y-106334801D01*
X84701324Y-106007510D01*
X84973977Y-106007518D01*
G37*
G36*
X84039129Y-106028164D02*
G01*
X84042220Y-106033858D01*
X84046268Y-106043811D01*
X84051435Y-106058402D01*
X84054775Y-106068428D01*
X84059350Y-106082721D01*
X84063164Y-106095295D01*
X84065954Y-106105226D01*
X84067455Y-106111591D01*
X84067606Y-106113408D01*
X84064858Y-106114878D01*
X84057578Y-106117582D01*
X84046438Y-106121304D01*
X84032107Y-106125828D01*
X84015255Y-106130938D01*
X83996552Y-106136419D01*
X83993897Y-106137182D01*
X83936816Y-106153559D01*
X83884569Y-106168545D01*
X83836801Y-106182241D01*
X83793160Y-106194750D01*
X83753289Y-106206171D01*
X83716835Y-106216606D01*
X83683443Y-106226157D01*
X83652759Y-106234925D01*
X83624429Y-106243011D01*
X83598097Y-106250517D01*
X83573410Y-106257543D01*
X83550013Y-106264192D01*
X83527551Y-106270563D01*
X83505671Y-106276760D01*
X83489229Y-106281409D01*
X83458287Y-106290162D01*
X83423635Y-106299978D01*
X83386753Y-106310437D01*
X83349124Y-106321118D01*
X83312228Y-106331601D01*
X83277546Y-106341465D01*
X83246559Y-106350290D01*
X83246270Y-106350373D01*
X83219481Y-106358002D01*
X83192497Y-106365673D01*
X83166136Y-106373155D01*
X83141215Y-106380215D01*
X83118552Y-106386623D01*
X83098965Y-106392147D01*
X83083271Y-106396555D01*
X83076199Y-106398530D01*
X83060236Y-106402976D01*
X83040364Y-106408515D01*
X83017873Y-106414785D01*
X82994054Y-106421428D01*
X82970197Y-106428084D01*
X82949651Y-106433818D01*
X82929741Y-106439316D01*
X82911270Y-106444304D01*
X82894947Y-106448599D01*
X82881478Y-106452020D01*
X82871571Y-106454384D01*
X82865933Y-106455509D01*
X82865168Y-106455577D01*
X82858787Y-106453719D01*
X82852287Y-106449219D01*
X82852014Y-106448951D01*
X82846824Y-106440989D01*
X82845186Y-106432160D01*
X82847134Y-106424180D01*
X82851462Y-106419454D01*
X82855070Y-106417936D01*
X82863346Y-106414908D01*
X82875821Y-106410529D01*
X82892028Y-106404958D01*
X82911499Y-106398353D01*
X82933767Y-106390873D01*
X82958363Y-106382676D01*
X82984821Y-106373922D01*
X83011410Y-106365182D01*
X83031400Y-106358618D01*
X83056110Y-106350484D01*
X83085134Y-106340911D01*
X83118070Y-106330034D01*
X83154513Y-106317986D01*
X83194059Y-106304902D01*
X83236305Y-106290916D01*
X83280847Y-106276160D01*
X83327282Y-106260768D01*
X83375204Y-106244876D01*
X83424211Y-106228615D01*
X83473898Y-106212120D01*
X83523863Y-106195525D01*
X83573700Y-106178964D01*
X83598988Y-106170557D01*
X83645777Y-106155007D01*
X83691207Y-106139925D01*
X83735012Y-106125398D01*
X83776925Y-106111514D01*
X83816679Y-106098361D01*
X83854007Y-106086026D01*
X83888642Y-106074598D01*
X83920317Y-106064164D01*
X83948766Y-106054813D01*
X83973722Y-106046633D01*
X83994917Y-106039710D01*
X84012085Y-106034133D01*
X84024960Y-106029991D01*
X84033273Y-106027370D01*
X84036759Y-106026359D01*
X84036834Y-106026350D01*
X84039129Y-106028164D01*
G37*
G36*
X83126482Y-105959377D02*
G01*
X83165407Y-105959416D01*
X83201668Y-105959479D01*
X83234971Y-105959566D01*
X83265024Y-105959676D01*
X83291535Y-105959807D01*
X83314209Y-105959959D01*
X83332754Y-105960131D01*
X83346878Y-105960322D01*
X83356287Y-105960531D01*
X83360688Y-105960756D01*
X83360992Y-105960836D01*
X83358619Y-105962275D01*
X83351702Y-105965953D01*
X83340539Y-105971719D01*
X83325427Y-105979424D01*
X83306664Y-105988917D01*
X83284550Y-106000051D01*
X83259382Y-106012674D01*
X83231457Y-106026638D01*
X83201075Y-106041792D01*
X83168532Y-106057988D01*
X83134128Y-106075075D01*
X83098160Y-106092905D01*
X83074583Y-106104573D01*
X83029716Y-106126781D01*
X82989465Y-106146738D01*
X82953596Y-106164566D01*
X82921875Y-106180383D01*
X82894065Y-106194311D01*
X82869934Y-106206470D01*
X82849246Y-106216980D01*
X82831766Y-106225961D01*
X82817261Y-106233533D01*
X82805496Y-106239818D01*
X82796236Y-106244934D01*
X82789246Y-106249002D01*
X82784292Y-106252143D01*
X82781140Y-106254477D01*
X82779944Y-106255620D01*
X82774460Y-106263049D01*
X82768305Y-106273144D01*
X82763329Y-106282679D01*
X82759282Y-106291770D01*
X82756794Y-106299434D01*
X82755495Y-106307577D01*
X82755018Y-106318108D01*
X82754973Y-106325999D01*
X82755159Y-106338729D01*
X82755951Y-106348006D01*
X82757735Y-106355771D01*
X82760897Y-106363965D01*
X82763759Y-106370198D01*
X82769652Y-106381636D01*
X82776391Y-106393203D01*
X82782008Y-106401668D01*
X82790696Y-106417207D01*
X82796845Y-106435523D01*
X82804618Y-106458272D01*
X82815439Y-106476857D01*
X82829707Y-106491662D01*
X82847825Y-106503069D01*
X82870193Y-106511463D01*
X82878531Y-106513626D01*
X82894783Y-106516741D01*
X82907587Y-106517343D01*
X82918313Y-106515356D01*
X82927993Y-106510903D01*
X82934792Y-106507402D01*
X82939465Y-106505898D01*
X82940608Y-106506179D01*
X82940844Y-106509909D01*
X82940338Y-106517966D01*
X82939215Y-106529348D01*
X82937599Y-106543053D01*
X82935614Y-106558078D01*
X82933386Y-106573422D01*
X82931039Y-106588082D01*
X82929027Y-106599343D01*
X82921945Y-106631175D01*
X82913150Y-106660009D01*
X82902035Y-106687268D01*
X82887992Y-106714375D01*
X82870414Y-106742754D01*
X82863333Y-106753221D01*
X82843540Y-106782854D01*
X82827257Y-106809415D01*
X82814174Y-106833645D01*
X82803981Y-106856287D01*
X82796367Y-106878084D01*
X82791023Y-106899777D01*
X82787638Y-106922110D01*
X82786333Y-106937446D01*
X82784648Y-106964441D01*
X82596324Y-106965134D01*
X82407999Y-106965828D01*
X82408705Y-106517010D01*
X82409412Y-106068193D01*
X82416540Y-106052990D01*
X82423409Y-106041459D01*
X82433641Y-106028184D01*
X82446091Y-106014391D01*
X82459613Y-106001307D01*
X82473062Y-105990160D01*
X82479300Y-105985762D01*
X82490356Y-105979412D01*
X82503797Y-105972968D01*
X82516804Y-105967777D01*
X82517393Y-105967574D01*
X82538990Y-105960211D01*
X82949995Y-105959486D01*
X82996649Y-105959417D01*
X83041810Y-105959376D01*
X83085185Y-105959363D01*
X83126482Y-105959377D01*
G37*
G36*
X87610000Y-106164029D02*
G01*
X87645168Y-106164041D01*
X87675611Y-106164070D01*
X87701668Y-106164125D01*
X87723674Y-106164213D01*
X87741968Y-106164343D01*
X87756887Y-106164521D01*
X87768768Y-106164757D01*
X87777949Y-106165057D01*
X87784766Y-106165430D01*
X87789557Y-106165884D01*
X87792660Y-106166426D01*
X87794411Y-106167065D01*
X87795148Y-106167808D01*
X87795209Y-106168663D01*
X87795043Y-106169291D01*
X87793849Y-106173461D01*
X87791621Y-106181608D01*
X87788611Y-106192776D01*
X87785071Y-106206010D01*
X87781257Y-106220354D01*
X87777419Y-106234852D01*
X87773813Y-106248548D01*
X87770691Y-106260487D01*
X87768306Y-106269712D01*
X87766911Y-106275268D01*
X87766655Y-106276449D01*
X87764034Y-106276624D01*
X87756490Y-106276789D01*
X87744497Y-106276940D01*
X87728531Y-106277075D01*
X87709067Y-106277191D01*
X87686580Y-106277285D01*
X87661545Y-106277355D01*
X87634437Y-106277396D01*
X87610524Y-106277407D01*
X87454393Y-106277407D01*
X87423888Y-106391463D01*
X87417170Y-106416581D01*
X87410611Y-106441097D01*
X87404403Y-106464301D01*
X87398736Y-106485478D01*
X87393801Y-106503915D01*
X87389789Y-106518901D01*
X87386890Y-106529722D01*
X87385960Y-106533189D01*
X87378537Y-106560859D01*
X87534393Y-106560859D01*
X87690248Y-106560859D01*
X87676166Y-106613326D01*
X87671783Y-106629570D01*
X87667792Y-106644197D01*
X87664432Y-106656341D01*
X87661944Y-106665139D01*
X87660566Y-106669726D01*
X87660463Y-106670017D01*
X87659762Y-106670776D01*
X87658053Y-106671439D01*
X87655002Y-106672013D01*
X87650269Y-106672505D01*
X87643519Y-106672919D01*
X87634415Y-106673263D01*
X87622619Y-106673543D01*
X87607795Y-106673766D01*
X87589605Y-106673937D01*
X87567713Y-106674062D01*
X87541782Y-106674149D01*
X87511474Y-106674204D01*
X87476454Y-106674232D01*
X87436383Y-106674240D01*
X87434855Y-106674240D01*
X87400566Y-106674216D01*
X87367847Y-106674147D01*
X87337099Y-106674037D01*
X87308722Y-106673888D01*
X87283115Y-106673704D01*
X87260677Y-106673490D01*
X87241809Y-106673249D01*
X87226911Y-106672983D01*
X87216381Y-106672698D01*
X87210620Y-106672396D01*
X87209621Y-106672216D01*
X87210127Y-106669376D01*
X87211942Y-106661681D01*
X87214974Y-106649493D01*
X87219127Y-106633169D01*
X87224310Y-106613069D01*
X87230428Y-106589553D01*
X87237387Y-106562980D01*
X87245094Y-106533710D01*
X87253455Y-106502102D01*
X87262376Y-106468516D01*
X87271765Y-106433311D01*
X87275556Y-106419133D01*
X87285117Y-106383386D01*
X87294272Y-106349117D01*
X87302926Y-106316686D01*
X87310985Y-106286453D01*
X87318351Y-106258776D01*
X87324930Y-106234017D01*
X87330627Y-106212535D01*
X87335345Y-106194688D01*
X87338989Y-106180837D01*
X87341463Y-106171341D01*
X87342673Y-106166560D01*
X87342781Y-106166051D01*
X87345422Y-106165744D01*
X87353068Y-106165450D01*
X87365324Y-106165175D01*
X87381796Y-106164920D01*
X87402090Y-106164690D01*
X87425812Y-106164489D01*
X87452568Y-106164319D01*
X87481962Y-106164185D01*
X87513601Y-106164090D01*
X87547091Y-106164037D01*
X87569770Y-106164027D01*
X87610000Y-106164029D01*
G37*
G36*
X82205596Y-106782195D02*
G01*
X82205596Y-106995478D01*
X83164609Y-106996157D01*
X84123621Y-106996836D01*
X84124357Y-107046102D01*
X84125093Y-107095369D01*
X82953430Y-107095369D01*
X81781768Y-107095369D01*
X81781768Y-107071073D01*
X81781768Y-107046777D01*
X81752073Y-107046777D01*
X81722378Y-107046777D01*
X81722378Y-107040028D01*
X81722378Y-107033279D01*
X82887231Y-107033279D01*
X82996202Y-107033273D01*
X83099846Y-107033254D01*
X83198158Y-107033223D01*
X83291135Y-107033179D01*
X83378774Y-107033123D01*
X83461070Y-107033055D01*
X83538020Y-107032973D01*
X83609621Y-107032880D01*
X83675869Y-107032774D01*
X83736760Y-107032655D01*
X83792291Y-107032524D01*
X83842458Y-107032381D01*
X83887257Y-107032225D01*
X83926686Y-107032057D01*
X83960740Y-107031877D01*
X83989416Y-107031684D01*
X84012710Y-107031478D01*
X84030619Y-107031261D01*
X84043138Y-107031031D01*
X84050266Y-107030788D01*
X84052083Y-107030580D01*
X84049385Y-107030327D01*
X84041290Y-107030087D01*
X84027804Y-107029859D01*
X84008929Y-107029644D01*
X83984670Y-107029441D01*
X83955029Y-107029250D01*
X83920011Y-107029072D01*
X83879619Y-107028906D01*
X83833857Y-107028752D01*
X83782728Y-107028611D01*
X83726236Y-107028482D01*
X83664384Y-107028366D01*
X83597176Y-107028262D01*
X83524616Y-107028171D01*
X83446707Y-107028092D01*
X83363452Y-107028026D01*
X83274856Y-107027972D01*
X83180922Y-107027930D01*
X83081654Y-107027901D01*
X82977055Y-107027885D01*
X82887231Y-107027880D01*
X81722378Y-107027880D01*
X81722378Y-106963091D01*
X81722378Y-106898302D01*
X81961287Y-106898302D01*
X82003032Y-106898294D01*
X82039698Y-106898267D01*
X82071606Y-106898214D01*
X82099076Y-106898131D01*
X82122428Y-106898011D01*
X82141983Y-106897851D01*
X82158061Y-106897643D01*
X82170983Y-106897383D01*
X82181069Y-106897066D01*
X82188640Y-106896686D01*
X82194015Y-106896237D01*
X82197516Y-106895714D01*
X82199462Y-106895111D01*
X82200174Y-106894424D01*
X82200197Y-106894253D01*
X82199724Y-106893545D01*
X82198090Y-106892924D01*
X82194976Y-106892383D01*
X82190061Y-106891918D01*
X82183024Y-106891522D01*
X82173546Y-106891190D01*
X82161305Y-106890918D01*
X82145982Y-106890699D01*
X82127256Y-106890528D01*
X82104806Y-106890400D01*
X82078313Y-106890308D01*
X82047456Y-106890249D01*
X82011914Y-106890216D01*
X81971367Y-106890204D01*
X81961287Y-106890204D01*
X81722378Y-106890204D01*
X81722378Y-106869957D01*
X81722378Y-106849711D01*
X81961287Y-106849711D01*
X82003032Y-106849703D01*
X82039698Y-106849675D01*
X82071606Y-106849622D01*
X82099076Y-106849539D01*
X82122428Y-106849420D01*
X82141983Y-106849259D01*
X82158061Y-106849051D01*
X82170983Y-106848792D01*
X82181069Y-106848474D01*
X82188640Y-106848094D01*
X82194015Y-106847645D01*
X82197516Y-106847122D01*
X82199462Y-106846519D01*
X82200174Y-106845832D01*
X82200197Y-106845661D01*
X82199724Y-106844954D01*
X82198090Y-106844332D01*
X82194976Y-106843791D01*
X82190061Y-106843326D01*
X82183024Y-106842930D01*
X82173546Y-106842599D01*
X82161305Y-106842326D01*
X82145982Y-106842107D01*
X82127256Y-106841936D01*
X82104806Y-106841808D01*
X82078313Y-106841717D01*
X82047456Y-106841657D01*
X82011914Y-106841624D01*
X81971367Y-106841612D01*
X81961287Y-106841612D01*
X81722378Y-106841612D01*
X81722378Y-106775473D01*
X81722378Y-106709334D01*
X81816816Y-106709334D01*
X81911255Y-106709334D01*
X81911975Y-106639821D01*
X81912696Y-106570308D01*
X82059146Y-106569610D01*
X82205596Y-106568912D01*
X82205596Y-106782195D01*
G37*
G36*
X87195471Y-106191912D02*
G01*
X87202327Y-106202981D01*
X87207932Y-106212632D01*
X87211719Y-106219844D01*
X87213119Y-106223594D01*
X87213118Y-106223632D01*
X87212408Y-106226975D01*
X87210432Y-106234976D01*
X87207335Y-106247080D01*
X87203260Y-106262733D01*
X87198353Y-106281380D01*
X87192759Y-106302468D01*
X87186623Y-106325442D01*
X87182608Y-106340394D01*
X87152228Y-106453322D01*
X87117274Y-106475371D01*
X87082320Y-106497420D01*
X86939414Y-106498770D01*
X86796508Y-106500120D01*
X86790395Y-106524416D01*
X86787508Y-106535886D01*
X86784977Y-106545943D01*
X86783195Y-106553020D01*
X86782750Y-106554785D01*
X86781219Y-106560859D01*
X86963489Y-106560859D01*
X87000688Y-106560878D01*
X87032806Y-106560939D01*
X87060160Y-106561048D01*
X87083069Y-106561211D01*
X87101851Y-106561433D01*
X87116823Y-106561721D01*
X87128303Y-106562080D01*
X87136610Y-106562517D01*
X87142060Y-106563036D01*
X87144973Y-106563645D01*
X87145690Y-106564234D01*
X87144994Y-106567772D01*
X87143093Y-106575675D01*
X87140200Y-106587101D01*
X87136531Y-106601206D01*
X87132299Y-106617147D01*
X87131466Y-106620249D01*
X87117312Y-106672891D01*
X86864281Y-106673579D01*
X86822554Y-106673667D01*
X86783830Y-106673696D01*
X86748360Y-106673668D01*
X86716393Y-106673585D01*
X86688180Y-106673449D01*
X86663971Y-106673261D01*
X86644014Y-106673024D01*
X86628561Y-106672738D01*
X86617861Y-106672407D01*
X86612164Y-106672031D01*
X86611250Y-106671791D01*
X86611928Y-106668989D01*
X86613884Y-106661407D01*
X86617002Y-106649482D01*
X86621166Y-106633650D01*
X86626259Y-106614347D01*
X86632167Y-106592009D01*
X86638771Y-106567074D01*
X86645958Y-106539977D01*
X86653609Y-106511155D01*
X86661609Y-106481043D01*
X86669843Y-106450079D01*
X86678193Y-106418698D01*
X86686544Y-106387338D01*
X86687963Y-106382015D01*
X86829932Y-106382015D01*
X86831032Y-106382910D01*
X86834619Y-106383643D01*
X86841103Y-106384228D01*
X86850896Y-106384677D01*
X86864410Y-106385005D01*
X86882056Y-106385224D01*
X86904245Y-106385347D01*
X86931389Y-106385389D01*
X86933742Y-106385389D01*
X87037570Y-106385389D01*
X87040264Y-106375266D01*
X87041910Y-106369107D01*
X87044635Y-106358940D01*
X87048117Y-106345972D01*
X87052030Y-106331407D01*
X87053847Y-106324649D01*
X87057607Y-106310464D01*
X87060807Y-106298000D01*
X87063203Y-106288242D01*
X87064550Y-106282176D01*
X87064755Y-106280782D01*
X87063654Y-106279886D01*
X87060068Y-106279153D01*
X87053584Y-106278569D01*
X87043790Y-106278119D01*
X87030277Y-106277792D01*
X87012631Y-106277573D01*
X86990442Y-106277449D01*
X86963298Y-106277408D01*
X86960945Y-106277407D01*
X86857117Y-106277407D01*
X86854423Y-106287531D01*
X86852777Y-106293690D01*
X86850051Y-106303857D01*
X86846570Y-106316825D01*
X86842657Y-106331389D01*
X86840840Y-106338147D01*
X86837080Y-106352333D01*
X86833879Y-106364797D01*
X86831483Y-106374555D01*
X86830136Y-106380621D01*
X86829932Y-106382015D01*
X86687963Y-106382015D01*
X86694780Y-106356433D01*
X86702784Y-106326421D01*
X86710441Y-106297738D01*
X86717633Y-106270820D01*
X86724246Y-106246103D01*
X86730163Y-106224024D01*
X86735267Y-106205019D01*
X86739443Y-106189525D01*
X86742575Y-106177977D01*
X86744546Y-106170813D01*
X86745139Y-106168751D01*
X86745640Y-106167891D01*
X86746812Y-106167142D01*
X86749004Y-106166496D01*
X86752566Y-106165946D01*
X86757846Y-106165484D01*
X86765194Y-106165102D01*
X86774958Y-106164793D01*
X86787489Y-106164549D01*
X86803136Y-106164362D01*
X86822247Y-106164226D01*
X86845171Y-106164132D01*
X86872259Y-106164073D01*
X86903858Y-106164041D01*
X86940320Y-106164028D01*
X86962143Y-106164027D01*
X87177695Y-106164027D01*
X87195471Y-106191912D01*
G37*
G36*
X88170391Y-106007863D02*
G01*
X88179112Y-106008110D01*
X88184799Y-106008574D01*
X88188045Y-106009290D01*
X88189441Y-106010292D01*
X88189578Y-106011616D01*
X88189447Y-106012132D01*
X88187936Y-106017483D01*
X88185394Y-106026813D01*
X88182036Y-106039315D01*
X88178073Y-106054183D01*
X88173718Y-106070610D01*
X88169183Y-106087787D01*
X88164681Y-106104909D01*
X88160424Y-106121169D01*
X88156625Y-106135758D01*
X88153496Y-106147870D01*
X88151249Y-106156698D01*
X88150098Y-106161436D01*
X88149991Y-106162002D01*
X88152570Y-106162556D01*
X88159823Y-106163052D01*
X88171029Y-106163469D01*
X88185462Y-106163784D01*
X88202400Y-106163976D01*
X88217319Y-106164027D01*
X88235821Y-106164104D01*
X88252472Y-106164323D01*
X88266530Y-106164662D01*
X88277256Y-106165097D01*
X88283909Y-106165608D01*
X88285800Y-106166051D01*
X88285499Y-106169187D01*
X88283960Y-106176661D01*
X88281387Y-106187609D01*
X88277980Y-106201166D01*
X88274254Y-106215318D01*
X88270043Y-106231017D01*
X88266210Y-106245363D01*
X88263021Y-106257357D01*
X88260742Y-106265998D01*
X88259713Y-106269984D01*
X88257869Y-106277407D01*
X88187732Y-106277407D01*
X88168910Y-106277464D01*
X88151996Y-106277624D01*
X88137701Y-106277871D01*
X88126732Y-106278190D01*
X88119799Y-106278565D01*
X88117595Y-106278947D01*
X88116916Y-106281776D01*
X88114967Y-106289328D01*
X88111877Y-106301113D01*
X88107775Y-106316640D01*
X88102793Y-106335420D01*
X88097061Y-106356960D01*
X88090707Y-106380771D01*
X88083862Y-106406363D01*
X88081151Y-106416483D01*
X88074147Y-106442674D01*
X88067585Y-106467312D01*
X88061596Y-106489903D01*
X88056310Y-106509950D01*
X88051857Y-106526954D01*
X88048369Y-106540421D01*
X88045974Y-106549853D01*
X88044804Y-106554753D01*
X88044708Y-106555320D01*
X88047256Y-106556322D01*
X88054943Y-106557105D01*
X88067831Y-106557670D01*
X88085980Y-106558020D01*
X88109453Y-106558157D01*
X88113546Y-106558160D01*
X88132184Y-106558236D01*
X88148905Y-106558449D01*
X88162995Y-106558780D01*
X88173737Y-106559206D01*
X88180416Y-106559706D01*
X88182365Y-106560185D01*
X88181668Y-106563287D01*
X88179735Y-106570782D01*
X88176781Y-106581865D01*
X88173021Y-106595730D01*
X88168670Y-106611568D01*
X88167517Y-106615736D01*
X88163061Y-106631874D01*
X88159141Y-106646173D01*
X88155971Y-106657843D01*
X88153765Y-106666094D01*
X88152737Y-106670138D01*
X88152689Y-106670402D01*
X88150092Y-106670726D01*
X88142710Y-106670995D01*
X88131155Y-106671211D01*
X88116042Y-106671375D01*
X88097984Y-106671490D01*
X88077593Y-106671557D01*
X88055485Y-106671579D01*
X88032271Y-106671557D01*
X88008566Y-106671493D01*
X87984982Y-106671389D01*
X87962134Y-106671247D01*
X87940634Y-106671070D01*
X87921096Y-106670859D01*
X87904134Y-106670615D01*
X87890360Y-106670342D01*
X87880388Y-106670041D01*
X87874832Y-106669713D01*
X87873876Y-106669516D01*
X87874382Y-106666641D01*
X87876190Y-106658970D01*
X87879191Y-106646918D01*
X87883276Y-106630901D01*
X87888339Y-106611334D01*
X87894270Y-106588634D01*
X87900963Y-106563215D01*
X87908308Y-106535493D01*
X87916198Y-106505883D01*
X87923526Y-106478523D01*
X87931864Y-106447462D01*
X87939815Y-106417827D01*
X87947267Y-106390047D01*
X87954104Y-106364550D01*
X87960211Y-106341762D01*
X87965475Y-106322112D01*
X87969780Y-106306027D01*
X87973012Y-106293935D01*
X87975056Y-106286263D01*
X87975776Y-106283530D01*
X87977297Y-106277505D01*
X87914332Y-106276782D01*
X87851367Y-106276058D01*
X87865125Y-106224766D01*
X87869472Y-106208667D01*
X87873443Y-106194151D01*
X87876793Y-106182107D01*
X87879274Y-106173420D01*
X87880640Y-106168977D01*
X87880705Y-106168801D01*
X87881724Y-106167299D01*
X87883900Y-106166137D01*
X87887887Y-106165262D01*
X87894339Y-106164618D01*
X87903911Y-106164151D01*
X87917257Y-106163805D01*
X87935032Y-106163528D01*
X87945395Y-106163402D01*
X88008264Y-106162677D01*
X88028814Y-106085740D01*
X88049364Y-106008803D01*
X88120120Y-106008083D01*
X88141487Y-106007884D01*
X88158047Y-106007800D01*
X88170391Y-106007863D01*
G37*
G36*
X89784426Y-106008093D02*
G01*
X89877622Y-106008803D01*
X89663945Y-106158628D01*
X89633479Y-106179995D01*
X89604198Y-106200542D01*
X89576413Y-106220049D01*
X89550436Y-106238297D01*
X89526580Y-106255067D01*
X89505154Y-106270140D01*
X89486471Y-106283296D01*
X89470842Y-106294316D01*
X89458579Y-106302981D01*
X89449993Y-106309072D01*
X89445397Y-106312369D01*
X89444753Y-106312851D01*
X89443818Y-106313749D01*
X89443288Y-106314928D01*
X89443358Y-106316678D01*
X89444221Y-106319292D01*
X89446073Y-106323061D01*
X89449108Y-106328276D01*
X89453520Y-106335228D01*
X89459505Y-106344210D01*
X89467256Y-106355512D01*
X89476968Y-106369426D01*
X89488835Y-106386243D01*
X89503053Y-106406255D01*
X89519815Y-106429753D01*
X89539316Y-106457029D01*
X89561751Y-106488374D01*
X89563997Y-106491511D01*
X89583556Y-106518855D01*
X89602214Y-106544986D01*
X89619730Y-106569564D01*
X89635862Y-106592248D01*
X89650371Y-106612700D01*
X89663015Y-106630577D01*
X89673554Y-106645541D01*
X89681746Y-106657251D01*
X89687351Y-106665367D01*
X89690127Y-106669549D01*
X89690382Y-106670007D01*
X89690393Y-106671209D01*
X89689042Y-106672163D01*
X89685790Y-106672895D01*
X89680099Y-106673435D01*
X89671432Y-106673811D01*
X89659250Y-106674051D01*
X89643014Y-106674183D01*
X89622188Y-106674235D01*
X89609852Y-106674240D01*
X89586653Y-106674232D01*
X89568250Y-106674181D01*
X89554041Y-106674044D01*
X89543422Y-106673780D01*
X89535792Y-106673347D01*
X89530547Y-106672703D01*
X89527085Y-106671807D01*
X89524802Y-106670616D01*
X89523097Y-106669089D01*
X89522255Y-106668166D01*
X89519678Y-106664857D01*
X89514277Y-106657582D01*
X89506362Y-106646770D01*
X89496243Y-106632851D01*
X89484233Y-106616254D01*
X89470641Y-106597408D01*
X89455780Y-106576743D01*
X89439959Y-106554687D01*
X89432278Y-106543959D01*
X89416285Y-106521678D01*
X89401222Y-106500825D01*
X89387381Y-106481796D01*
X89375055Y-106464985D01*
X89364535Y-106450788D01*
X89356112Y-106439599D01*
X89350079Y-106431814D01*
X89346728Y-106427828D01*
X89346141Y-106427389D01*
X89345137Y-106430236D01*
X89342889Y-106437781D01*
X89339542Y-106449505D01*
X89335240Y-106464887D01*
X89330126Y-106483409D01*
X89324346Y-106504551D01*
X89318043Y-106527792D01*
X89311817Y-106550921D01*
X89279097Y-106672891D01*
X89210097Y-106673611D01*
X89191356Y-106673728D01*
X89174456Y-106673684D01*
X89160129Y-106673494D01*
X89149107Y-106673170D01*
X89142120Y-106672728D01*
X89139895Y-106672261D01*
X89140430Y-106669443D01*
X89142288Y-106661728D01*
X89145385Y-106649429D01*
X89149638Y-106632863D01*
X89154964Y-106612343D01*
X89161281Y-106588186D01*
X89168506Y-106560705D01*
X89176556Y-106530217D01*
X89185348Y-106497036D01*
X89194800Y-106461477D01*
X89204828Y-106423855D01*
X89215349Y-106384486D01*
X89225957Y-106344896D01*
X89236916Y-106304039D01*
X89247503Y-106264568D01*
X89257630Y-106226804D01*
X89267212Y-106191066D01*
X89276164Y-106157676D01*
X89284399Y-106126953D01*
X89291831Y-106099219D01*
X89298375Y-106074792D01*
X89303945Y-106053994D01*
X89308455Y-106037145D01*
X89311819Y-106024566D01*
X89313951Y-106016576D01*
X89314758Y-106013527D01*
X89316295Y-106007453D01*
X89386432Y-106007453D01*
X89405254Y-106007508D01*
X89422168Y-106007663D01*
X89436463Y-106007903D01*
X89447432Y-106008212D01*
X89454365Y-106008576D01*
X89456569Y-106008947D01*
X89455899Y-106011831D01*
X89454021Y-106019190D01*
X89451130Y-106030287D01*
X89447425Y-106044384D01*
X89443101Y-106060743D01*
X89438355Y-106078627D01*
X89433383Y-106097297D01*
X89428382Y-106116015D01*
X89423549Y-106134046D01*
X89419080Y-106150649D01*
X89415171Y-106165089D01*
X89412020Y-106176626D01*
X89409823Y-106184523D01*
X89409289Y-106186383D01*
X89407628Y-106193358D01*
X89407442Y-106197310D01*
X89408159Y-106197658D01*
X89410810Y-106195901D01*
X89417550Y-106191390D01*
X89427993Y-106184387D01*
X89441750Y-106175153D01*
X89458432Y-106163949D01*
X89477651Y-106151035D01*
X89499017Y-106136673D01*
X89522144Y-106121123D01*
X89546641Y-106104647D01*
X89551015Y-106101704D01*
X89691229Y-106007383D01*
X89784426Y-106008093D01*
G37*
G36*
X83649869Y-106312538D02*
G01*
X83655003Y-106314592D01*
X83658962Y-106317587D01*
X83665252Y-106326850D01*
X83669012Y-106339798D01*
X83670007Y-106355226D01*
X83668773Y-106367842D01*
X83667344Y-106376685D01*
X83666362Y-106383239D01*
X83666064Y-106385758D01*
X83668461Y-106387119D01*
X83674576Y-106388657D01*
X83678808Y-106389389D01*
X83692955Y-106392940D01*
X83705660Y-106398732D01*
X83714987Y-106405876D01*
X83715213Y-106406122D01*
X83722714Y-106418159D01*
X83726997Y-106433463D01*
X83727863Y-106450825D01*
X83725432Y-106467725D01*
X83724450Y-106474226D01*
X83723476Y-106484863D01*
X83722601Y-106498375D01*
X83721915Y-106513501D01*
X83721695Y-106520366D01*
X83720331Y-106548330D01*
X83717768Y-106580274D01*
X83714172Y-106614954D01*
X83709707Y-106651126D01*
X83704541Y-106687548D01*
X83698838Y-106722974D01*
X83692764Y-106756162D01*
X83686486Y-106785867D01*
X83686081Y-106787621D01*
X83679167Y-106814045D01*
X83670319Y-106842729D01*
X83660165Y-106871896D01*
X83649334Y-106899768D01*
X83638454Y-106924568D01*
X83635495Y-106930697D01*
X83618807Y-106964441D01*
X83553343Y-106965164D01*
X83535188Y-106965272D01*
X83518967Y-106965192D01*
X83505413Y-106964942D01*
X83495260Y-106964540D01*
X83489241Y-106964004D01*
X83487879Y-106963544D01*
X83489345Y-106960141D01*
X83493068Y-106954155D01*
X83495498Y-106950674D01*
X83517529Y-106916649D01*
X83537765Y-106878173D01*
X83555934Y-106835976D01*
X83571765Y-106790786D01*
X83584987Y-106743333D01*
X83595327Y-106694345D01*
X83598774Y-106673301D01*
X83601099Y-106657067D01*
X83602485Y-106645439D01*
X83602977Y-106637715D01*
X83602618Y-106633192D01*
X83601454Y-106631168D01*
X83601420Y-106631147D01*
X83597718Y-106630082D01*
X83590249Y-106628704D01*
X83580344Y-106627184D01*
X83569333Y-106625693D01*
X83558545Y-106624402D01*
X83549311Y-106623483D01*
X83542960Y-106623108D01*
X83540826Y-106623337D01*
X83540143Y-106626205D01*
X83538766Y-106633402D01*
X83536878Y-106643929D01*
X83534661Y-106656789D01*
X83533994Y-106660743D01*
X83522893Y-106716237D01*
X83508904Y-106767356D01*
X83491914Y-106814355D01*
X83471811Y-106857490D01*
X83448483Y-106897015D01*
X83421818Y-106933185D01*
X83406683Y-106950659D01*
X83392853Y-106965791D01*
X83308088Y-106965791D01*
X83287314Y-106965724D01*
X83268385Y-106965534D01*
X83251945Y-106965237D01*
X83238640Y-106964851D01*
X83229115Y-106964392D01*
X83224014Y-106963876D01*
X83223324Y-106963596D01*
X83225123Y-106960545D01*
X83229638Y-106955512D01*
X83231725Y-106953473D01*
X83240025Y-106944885D01*
X83250434Y-106932991D01*
X83262030Y-106918950D01*
X83273891Y-106903925D01*
X83285094Y-106889076D01*
X83294716Y-106875564D01*
X83300040Y-106867488D01*
X83325808Y-106821390D01*
X83346821Y-106772826D01*
X83363015Y-106722005D01*
X83374326Y-106669135D01*
X83380688Y-106614427D01*
X83381268Y-106605045D01*
X83381719Y-106590533D01*
X83381648Y-106574787D01*
X83381125Y-106558826D01*
X83380218Y-106543671D01*
X83378996Y-106530341D01*
X83377526Y-106519857D01*
X83375878Y-106513239D01*
X83375005Y-106511694D01*
X83371050Y-106510641D01*
X83362423Y-106510272D01*
X83349807Y-106510600D01*
X83342397Y-106511019D01*
X83312409Y-106512962D01*
X83312409Y-106565118D01*
X83311713Y-106602191D01*
X83309551Y-106635061D01*
X83305813Y-106664751D01*
X83300388Y-106692285D01*
X83297463Y-106703894D01*
X83282472Y-106749466D01*
X83262569Y-106793405D01*
X83238168Y-106834857D01*
X83225463Y-106852967D01*
X83214927Y-106866210D01*
X83201370Y-106881795D01*
X83185894Y-106898575D01*
X83169598Y-106915403D01*
X83153583Y-106931131D01*
X83138950Y-106944613D01*
X83131239Y-106951188D01*
X83113391Y-106965791D01*
X82986138Y-106965791D01*
X82858885Y-106965791D01*
X82858885Y-106944626D01*
X82859952Y-106924959D01*
X82863352Y-106905761D01*
X82869387Y-106886312D01*
X82878356Y-106865893D01*
X82879480Y-106863856D01*
X82961822Y-106863856D01*
X82975758Y-106891877D01*
X82981477Y-106902914D01*
X82986572Y-106911903D01*
X82990467Y-106917883D01*
X82992519Y-106919899D01*
X82996014Y-106918635D01*
X83002906Y-106915265D01*
X83011935Y-106910417D01*
X83015674Y-106908313D01*
X83050636Y-106885333D01*
X83082373Y-106858262D01*
X83110634Y-106827513D01*
X83135170Y-106793498D01*
X83155731Y-106756633D01*
X83172065Y-106717329D01*
X83183923Y-106676002D01*
X83191055Y-106633063D01*
X83192501Y-106615993D01*
X83192822Y-106605032D01*
X83192648Y-106592235D01*
X83192065Y-106578807D01*
X83191156Y-106565952D01*
X83190008Y-106554874D01*
X83188706Y-106546778D01*
X83187335Y-106542868D01*
X83187326Y-106542858D01*
X83184445Y-106542874D01*
X83177339Y-106543635D01*
X83167110Y-106545006D01*
X83156080Y-106546661D01*
X83125783Y-106551411D01*
X83124967Y-106590554D01*
X83122327Y-106629888D01*
X83115932Y-106666012D01*
X83105486Y-106699860D01*
X83090697Y-106732365D01*
X83071270Y-106764460D01*
X83069249Y-106767411D01*
X83056982Y-106783174D01*
X83041348Y-106800282D01*
X83023692Y-106817442D01*
X83005361Y-106833364D01*
X82987699Y-106846757D01*
X82983835Y-106849369D01*
X82961822Y-106863856D01*
X82879480Y-106863856D01*
X82890559Y-106843782D01*
X82906298Y-106819260D01*
X82918416Y-106801896D01*
X82928668Y-106787125D01*
X82938980Y-106771483D01*
X82948393Y-106756478D01*
X82955947Y-106743618D01*
X82958434Y-106739029D01*
X82972654Y-106708510D01*
X82984682Y-106675488D01*
X82994652Y-106639405D01*
X83002704Y-106599704D01*
X83008973Y-106555825D01*
X83012756Y-106517846D01*
X83013916Y-106504970D01*
X83015056Y-106494167D01*
X83016051Y-106486511D01*
X83016776Y-106483074D01*
X83016821Y-106483010D01*
X83019568Y-106482101D01*
X83027107Y-106479877D01*
X83039025Y-106476454D01*
X83054908Y-106471947D01*
X83074344Y-106466473D01*
X83096919Y-106460149D01*
X83122220Y-106453090D01*
X83149833Y-106445412D01*
X83179344Y-106437232D01*
X83206419Y-106429748D01*
X83251875Y-106417199D01*
X83292474Y-106405989D01*
X83328564Y-106396022D01*
X83360492Y-106387200D01*
X83388606Y-106379427D01*
X83413255Y-106372606D01*
X83434784Y-106366638D01*
X83453543Y-106361429D01*
X83469878Y-106356880D01*
X83484137Y-106352895D01*
X83496668Y-106349376D01*
X83507819Y-106346227D01*
X83517937Y-106343351D01*
X83527370Y-106340650D01*
X83536466Y-106338028D01*
X83545571Y-106335388D01*
X83555034Y-106332632D01*
X83565203Y-106329664D01*
X83566166Y-106329383D01*
X83589412Y-106322722D01*
X83608141Y-106317704D01*
X83622951Y-106314253D01*
X83634442Y-106312293D01*
X83643215Y-106311746D01*
X83649869Y-106312538D01*
G37*
G36*
X83139957Y-107100751D02*
G01*
X83225373Y-107100755D01*
X83305838Y-107100763D01*
X83381500Y-107100775D01*
X83452507Y-107100793D01*
X83519010Y-107100816D01*
X83581158Y-107100846D01*
X83639098Y-107100882D01*
X83692981Y-107100925D01*
X83742956Y-107100976D01*
X83789170Y-107101035D01*
X83831775Y-107101104D01*
X83870918Y-107101181D01*
X83906748Y-107101268D01*
X83939415Y-107101366D01*
X83969068Y-107101474D01*
X83995855Y-107101594D01*
X84019927Y-107101726D01*
X84041431Y-107101871D01*
X84060517Y-107102028D01*
X84077334Y-107102199D01*
X84092031Y-107102384D01*
X84104757Y-107102584D01*
X84115661Y-107102799D01*
X84124892Y-107103029D01*
X84132599Y-107103276D01*
X84138932Y-107103540D01*
X84144039Y-107103820D01*
X84148069Y-107104119D01*
X84151171Y-107104436D01*
X84153495Y-107104771D01*
X84154743Y-107105019D01*
X84171595Y-107110439D01*
X84183978Y-107118200D01*
X84192465Y-107128702D01*
X84194593Y-107133037D01*
X84196771Y-107141183D01*
X84198451Y-107153537D01*
X84199615Y-107168928D01*
X84200240Y-107186186D01*
X84200308Y-107204141D01*
X84199799Y-107221621D01*
X84198691Y-107237457D01*
X84196965Y-107250479D01*
X84196644Y-107252156D01*
X84188980Y-107279282D01*
X84177775Y-107302378D01*
X84163066Y-107321404D01*
X84144889Y-107336320D01*
X84123282Y-107347085D01*
X84105595Y-107352249D01*
X84098090Y-107353227D01*
X84085294Y-107354044D01*
X84067310Y-107354698D01*
X84044244Y-107355185D01*
X84016200Y-107355502D01*
X83987901Y-107355637D01*
X83884575Y-107355875D01*
X83881853Y-107366673D01*
X83869585Y-107404597D01*
X83852571Y-107439983D01*
X83830908Y-107472660D01*
X83805289Y-107501864D01*
X83776070Y-107527575D01*
X83744752Y-107548321D01*
X83711196Y-107564169D01*
X83675266Y-107575183D01*
X83639053Y-107581205D01*
X83627477Y-107582337D01*
X83617678Y-107583146D01*
X83611075Y-107583521D01*
X83609358Y-107583507D01*
X83603978Y-107582995D01*
X83596407Y-107582274D01*
X83595861Y-107582222D01*
X83554522Y-107576001D01*
X83515985Y-107565546D01*
X83480479Y-107550974D01*
X83448232Y-107532402D01*
X83419474Y-107509949D01*
X83394432Y-107483731D01*
X83387846Y-107475372D01*
X83366779Y-107442944D01*
X83349889Y-107407151D01*
X83337236Y-107368120D01*
X83336693Y-107365998D01*
X83333797Y-107354525D01*
X82959320Y-107354525D01*
X82584843Y-107354525D01*
X82578602Y-107376796D01*
X82565707Y-107413118D01*
X82548297Y-107446779D01*
X82526718Y-107477464D01*
X82501321Y-107504856D01*
X82472451Y-107528639D01*
X82440458Y-107548497D01*
X82405690Y-107564115D01*
X82368494Y-107575175D01*
X82357776Y-107577396D01*
X82336606Y-107580078D01*
X82312371Y-107581027D01*
X82287057Y-107580311D01*
X82262648Y-107577996D01*
X82241126Y-107574149D01*
X82237991Y-107573371D01*
X82202884Y-107561541D01*
X82168970Y-107544780D01*
X82137046Y-107523541D01*
X82110186Y-107500504D01*
X82088147Y-107476760D01*
X82070023Y-107451594D01*
X82055324Y-107424096D01*
X82043562Y-107393358D01*
X82034558Y-107359859D01*
X82033028Y-107353045D01*
X82002557Y-107355279D01*
X81986663Y-107356140D01*
X81967826Y-107356665D01*
X81946932Y-107356876D01*
X81924865Y-107356794D01*
X81902510Y-107356440D01*
X81880753Y-107355837D01*
X81860477Y-107355005D01*
X81842569Y-107353965D01*
X81827913Y-107352741D01*
X81817394Y-107351351D01*
X81814396Y-107350718D01*
X81792378Y-107343119D01*
X81773520Y-107332057D01*
X81756463Y-107316859D01*
X81746350Y-107305393D01*
X81742865Y-107300432D01*
X82192577Y-107300432D01*
X82193506Y-107322086D01*
X82198718Y-107343575D01*
X82208463Y-107364326D01*
X82222993Y-107383769D01*
X82223976Y-107384831D01*
X82242129Y-107401159D01*
X82261668Y-107412519D01*
X82283249Y-107419178D01*
X82307530Y-107421404D01*
X82313578Y-107421317D01*
X82326880Y-107420649D01*
X82336827Y-107419358D01*
X82345458Y-107417009D01*
X82354813Y-107413166D01*
X82357468Y-107411937D01*
X82378728Y-107399261D01*
X82396231Y-107383336D01*
X82409847Y-107364819D01*
X82419445Y-107344365D01*
X82424894Y-107322630D01*
X82425232Y-107316180D01*
X83493581Y-107316180D01*
X83497605Y-107338527D01*
X83506411Y-107360522D01*
X83512122Y-107370313D01*
X83527298Y-107389643D01*
X83544910Y-107404283D01*
X83565192Y-107414348D01*
X83588374Y-107419956D01*
X83613654Y-107421252D01*
X83626649Y-107420776D01*
X83636109Y-107419848D01*
X83643900Y-107418050D01*
X83651886Y-107414962D01*
X83661140Y-107410554D01*
X83682376Y-107397302D01*
X83699636Y-107380428D01*
X83713139Y-107359708D01*
X83715365Y-107355175D01*
X83722667Y-107333516D01*
X83725521Y-107310052D01*
X83723844Y-107286155D01*
X83720382Y-107271357D01*
X83710872Y-107248936D01*
X83697150Y-107229464D01*
X83679799Y-107213400D01*
X83659398Y-107201204D01*
X83636529Y-107193339D01*
X83618513Y-107190588D01*
X83594241Y-107191185D01*
X83571802Y-107196413D01*
X83551523Y-107205719D01*
X83533733Y-107218548D01*
X83518759Y-107234349D01*
X83506929Y-107252565D01*
X83498571Y-107272645D01*
X83494013Y-107294035D01*
X83493581Y-107316180D01*
X82425232Y-107316180D01*
X82426065Y-107300271D01*
X82422827Y-107277944D01*
X82415048Y-107256304D01*
X82402600Y-107236009D01*
X82394376Y-107226350D01*
X82375903Y-107209953D01*
X82356005Y-107198593D01*
X82334020Y-107191988D01*
X82309323Y-107189853D01*
X82284993Y-107192248D01*
X82262944Y-107199051D01*
X82243427Y-107209691D01*
X82226692Y-107223596D01*
X82212990Y-107240195D01*
X82202569Y-107258915D01*
X82195682Y-107279184D01*
X82192577Y-107300432D01*
X81742865Y-107300432D01*
X81738387Y-107294056D01*
X81732336Y-107282007D01*
X81727961Y-107268401D01*
X81725024Y-107252397D01*
X81723288Y-107233150D01*
X81722517Y-107209819D01*
X81722418Y-107195819D01*
X81722462Y-107177868D01*
X81722678Y-107164420D01*
X81723146Y-107154582D01*
X81723943Y-107147459D01*
X81725146Y-107142156D01*
X81726834Y-107137778D01*
X81727618Y-107136174D01*
X81736050Y-107124152D01*
X81747784Y-107113245D01*
X81760775Y-107105321D01*
X81761915Y-107104827D01*
X81763144Y-107104499D01*
X81765315Y-107104189D01*
X81768573Y-107103897D01*
X81773064Y-107103622D01*
X81778935Y-107103363D01*
X81786329Y-107103119D01*
X81795393Y-107102892D01*
X81806272Y-107102679D01*
X81819112Y-107102481D01*
X81834057Y-107102296D01*
X81851255Y-107102125D01*
X81870849Y-107101967D01*
X81892986Y-107101821D01*
X81917811Y-107101687D01*
X81945469Y-107101565D01*
X81976107Y-107101454D01*
X82009869Y-107101353D01*
X82046901Y-107101262D01*
X82087348Y-107101180D01*
X82131357Y-107101107D01*
X82179071Y-107101043D01*
X82230638Y-107100987D01*
X82286202Y-107100938D01*
X82345910Y-107100896D01*
X82409905Y-107100861D01*
X82478334Y-107100831D01*
X82551343Y-107100807D01*
X82629077Y-107100788D01*
X82711681Y-107100774D01*
X82799301Y-107100763D01*
X82892082Y-107100756D01*
X82953672Y-107100753D01*
X83049439Y-107100750D01*
X83139957Y-107100751D01*
G37*
G36*
X82865376Y-105216481D02*
G01*
X82915483Y-105216486D01*
X82934473Y-105216487D01*
X82986448Y-105216484D01*
X83033309Y-105216483D01*
X83075343Y-105216496D01*
X83112833Y-105216532D01*
X83146066Y-105216604D01*
X83175326Y-105216723D01*
X83200900Y-105216899D01*
X83223072Y-105217145D01*
X83242128Y-105217471D01*
X83258353Y-105217888D01*
X83272033Y-105218409D01*
X83283453Y-105219043D01*
X83292898Y-105219802D01*
X83300654Y-105220697D01*
X83307006Y-105221740D01*
X83312239Y-105222941D01*
X83316640Y-105224313D01*
X83320492Y-105225865D01*
X83324083Y-105227610D01*
X83327696Y-105229558D01*
X83331617Y-105231721D01*
X83332313Y-105232098D01*
X83341181Y-105237710D01*
X83351654Y-105245516D01*
X83361538Y-105253875D01*
X83361980Y-105254281D01*
X83379576Y-105273000D01*
X83392691Y-105292940D01*
X83401732Y-105315000D01*
X83407102Y-105340076D01*
X83408792Y-105357976D01*
X83410340Y-105385208D01*
X83451134Y-105385208D01*
X83467182Y-105385276D01*
X83478884Y-105385560D01*
X83487291Y-105386180D01*
X83493457Y-105387259D01*
X83498432Y-105388916D01*
X83503111Y-105391189D01*
X83515506Y-105400003D01*
X83526228Y-105411662D01*
X83533876Y-105424479D01*
X83536190Y-105431104D01*
X83537001Y-105437144D01*
X83537686Y-105447795D01*
X83538244Y-105462273D01*
X83538676Y-105479790D01*
X83538980Y-105499562D01*
X83539157Y-105520802D01*
X83539206Y-105542725D01*
X83539126Y-105564544D01*
X83538919Y-105585474D01*
X83538582Y-105604729D01*
X83538117Y-105621524D01*
X83537522Y-105635072D01*
X83536797Y-105644587D01*
X83536276Y-105648144D01*
X83529986Y-105664992D01*
X83519155Y-105679584D01*
X83504865Y-105690751D01*
X83499722Y-105693659D01*
X83495107Y-105695712D01*
X83489960Y-105697058D01*
X83483222Y-105697847D01*
X83473833Y-105698226D01*
X83460734Y-105698346D01*
X83450759Y-105698355D01*
X83409590Y-105698355D01*
X83409538Y-105719952D01*
X83408208Y-105748399D01*
X83404149Y-105772898D01*
X83397033Y-105794337D01*
X83386531Y-105813602D01*
X83372315Y-105831583D01*
X83365702Y-105838430D01*
X83355659Y-105847697D01*
X83345186Y-105856307D01*
X83335946Y-105862933D01*
X83332453Y-105865010D01*
X83328402Y-105867201D01*
X83324716Y-105869177D01*
X83321109Y-105870949D01*
X83317296Y-105872527D01*
X83312993Y-105873922D01*
X83307913Y-105875146D01*
X83301772Y-105876209D01*
X83294285Y-105877122D01*
X83285167Y-105877897D01*
X83274132Y-105878543D01*
X83260894Y-105879073D01*
X83245170Y-105879497D01*
X83226674Y-105879826D01*
X83205120Y-105880071D01*
X83180224Y-105880243D01*
X83151700Y-105880352D01*
X83119263Y-105880411D01*
X83082628Y-105880429D01*
X83041510Y-105880418D01*
X82995623Y-105880389D01*
X82944683Y-105880353D01*
X82933231Y-105880345D01*
X82878923Y-105880298D01*
X82829800Y-105880228D01*
X82785644Y-105880133D01*
X82746242Y-105880013D01*
X82711378Y-105879863D01*
X82680837Y-105879683D01*
X82654403Y-105879471D01*
X82631861Y-105879223D01*
X82612996Y-105878939D01*
X82597592Y-105878616D01*
X82585435Y-105878252D01*
X82576308Y-105877845D01*
X82569998Y-105877393D01*
X82566287Y-105876893D01*
X82565985Y-105876825D01*
X82546317Y-105869804D01*
X82526417Y-105858749D01*
X82507709Y-105844722D01*
X82491621Y-105828784D01*
X82480079Y-105812870D01*
X82472640Y-105798789D01*
X82467272Y-105785087D01*
X82463623Y-105770333D01*
X82461338Y-105753095D01*
X82460063Y-105731939D01*
X82460058Y-105731787D01*
X82458684Y-105695030D01*
X82447546Y-105697606D01*
X82440267Y-105698568D01*
X82429233Y-105699166D01*
X82416078Y-105699342D01*
X82405327Y-105699144D01*
X82390482Y-105698457D01*
X82379638Y-105697399D01*
X82371398Y-105695741D01*
X82364365Y-105693253D01*
X82361522Y-105691947D01*
X82347160Y-105682567D01*
X82337220Y-105670633D01*
X82332763Y-105659764D01*
X82331855Y-105653537D01*
X82331012Y-105642717D01*
X82330244Y-105628111D01*
X82329566Y-105610527D01*
X82328989Y-105590770D01*
X82328527Y-105569648D01*
X82328192Y-105547967D01*
X82327997Y-105526533D01*
X82327992Y-105524125D01*
X82637327Y-105524125D01*
X82637455Y-105542362D01*
X82637821Y-105559387D01*
X82638428Y-105574256D01*
X82639281Y-105586026D01*
X82640383Y-105593752D01*
X82640656Y-105594805D01*
X82646818Y-105607580D01*
X82656862Y-105619841D01*
X82669369Y-105630034D01*
X82676516Y-105634071D01*
X82684221Y-105637367D01*
X82691363Y-105639214D01*
X82699843Y-105639900D01*
X82711563Y-105639712D01*
X82713299Y-105639644D01*
X82725936Y-105638837D01*
X82735053Y-105637352D01*
X82742525Y-105634754D01*
X82748976Y-105631348D01*
X82763969Y-105619688D01*
X82774651Y-105604782D01*
X82779477Y-105592766D01*
X82780692Y-105585859D01*
X82781693Y-105574600D01*
X82782473Y-105560032D01*
X82783022Y-105543197D01*
X82783332Y-105525139D01*
X82783354Y-105518836D01*
X83086997Y-105518836D01*
X83087061Y-105541811D01*
X83087339Y-105560117D01*
X83087960Y-105574485D01*
X83089050Y-105585642D01*
X83090739Y-105594320D01*
X83093154Y-105601247D01*
X83096423Y-105607154D01*
X83100675Y-105612770D01*
X83104195Y-105616796D01*
X83118146Y-105628425D01*
X83135057Y-105636356D01*
X83153700Y-105640302D01*
X83172850Y-105639976D01*
X83187933Y-105636371D01*
X83204345Y-105628097D01*
X83217413Y-105615831D01*
X83224913Y-105604558D01*
X83232772Y-105590374D01*
X83233629Y-105525656D01*
X83233852Y-105502395D01*
X83233772Y-105483789D01*
X83233288Y-105469098D01*
X83232302Y-105457583D01*
X83230712Y-105448502D01*
X83228420Y-105441117D01*
X83225326Y-105434687D01*
X83221330Y-105428472D01*
X83220351Y-105427103D01*
X83208767Y-105414764D01*
X83194491Y-105406410D01*
X83176869Y-105401724D01*
X83165403Y-105400590D01*
X83145194Y-105401259D01*
X83128283Y-105405772D01*
X83113917Y-105414401D01*
X83105654Y-105422273D01*
X83100176Y-105428522D01*
X83095890Y-105434217D01*
X83092650Y-105440115D01*
X83090310Y-105446973D01*
X83088725Y-105455546D01*
X83087746Y-105466592D01*
X83087230Y-105480865D01*
X83087029Y-105499123D01*
X83086997Y-105518836D01*
X82783354Y-105518836D01*
X82783396Y-105506900D01*
X82783203Y-105489524D01*
X82782747Y-105474053D01*
X82782018Y-105461530D01*
X82781009Y-105452999D01*
X82780617Y-105451254D01*
X82774260Y-105436145D01*
X82764493Y-105422245D01*
X82752687Y-105411396D01*
X82749337Y-105409235D01*
X82734621Y-105403228D01*
X82717337Y-105400252D01*
X82699456Y-105400412D01*
X82682948Y-105403812D01*
X82678585Y-105405468D01*
X82665039Y-105413493D01*
X82652794Y-105424724D01*
X82643564Y-105437476D01*
X82641310Y-105442110D01*
X82640100Y-105447798D01*
X82639103Y-105457936D01*
X82638324Y-105471582D01*
X82637765Y-105487791D01*
X82637431Y-105505620D01*
X82637327Y-105524125D01*
X82327992Y-105524125D01*
X82327954Y-105506154D01*
X82328076Y-105487635D01*
X82328376Y-105471784D01*
X82328866Y-105459408D01*
X82329495Y-105451789D01*
X82333580Y-105430977D01*
X82340201Y-105414188D01*
X82349728Y-105401167D01*
X82362526Y-105391659D01*
X82378965Y-105385406D01*
X82399410Y-105382153D01*
X82424231Y-105381645D01*
X82429963Y-105381860D01*
X82458613Y-105383174D01*
X82460120Y-105355846D01*
X82463338Y-105328574D01*
X82470010Y-105304845D01*
X82480520Y-105283761D01*
X82495252Y-105264424D01*
X82502411Y-105256980D01*
X82512493Y-105248132D01*
X82524029Y-105239544D01*
X82533883Y-105233443D01*
X82538290Y-105231054D01*
X82542257Y-105228900D01*
X82546070Y-105226968D01*
X82550016Y-105225248D01*
X82554382Y-105223726D01*
X82559455Y-105222390D01*
X82565522Y-105221229D01*
X82572869Y-105220231D01*
X82581785Y-105219382D01*
X82592554Y-105218671D01*
X82605466Y-105218087D01*
X82620806Y-105217615D01*
X82638861Y-105217246D01*
X82659918Y-105216966D01*
X82684265Y-105216763D01*
X82712187Y-105216625D01*
X82743973Y-105216540D01*
X82779908Y-105216496D01*
X82820280Y-105216480D01*
X82865376Y-105216481D01*
G37*
D17*
%TO.C,R6*%
X95537742Y-90627500D02*
X96012258Y-90627500D01*
X95537742Y-91672500D02*
X96012258Y-91672500D01*
%TO.C,D3*%
X127750000Y-99590000D02*
X127750000Y-108100000D01*
X127750000Y-99590000D02*
X134250000Y-99590000D01*
X134250000Y-99590000D02*
X134250000Y-108100000D01*
%TO.C,R13*%
X106012742Y-90477500D02*
X106487258Y-90477500D01*
X106012742Y-91522500D02*
X106487258Y-91522500D01*
%TO.C,R5*%
X95987258Y-89027500D02*
X95512742Y-89027500D01*
X95987258Y-90072500D02*
X95512742Y-90072500D01*
%TO.C,C2*%
X93812903Y-56712323D02*
X93531743Y-56712323D01*
X93812903Y-57732323D02*
X93531743Y-57732323D01*
%TO.C,C6*%
X103240000Y-93359420D02*
X103240000Y-93640580D01*
X104260000Y-93359420D02*
X104260000Y-93640580D01*
%TO.C,J2*%
X107320000Y-76120000D02*
X107320000Y-78880000D01*
X109970000Y-76120000D02*
X107320000Y-76120000D01*
X109970000Y-76120000D02*
X109970000Y-78880000D01*
X109970000Y-78880000D02*
X107320000Y-78880000D01*
X111240000Y-76120000D02*
X112620000Y-76120000D01*
X112620000Y-76120000D02*
X112620000Y-77500000D01*
%TO.C,R3*%
X92362258Y-91327500D02*
X91887742Y-91327500D01*
X92362258Y-92372500D02*
X91887742Y-92372500D01*
%TD*%
M02*
