%TF.GenerationSoftware,KiCad,Pcbnew,9.0.6*%
%TF.CreationDate,2026-01-24T10:26:07+01:00*%
%TF.ProjectId,Protection,50726f74-6563-4746-996f-6e2e6b696361,rev?*%
%TF.SameCoordinates,Original*%
%TF.FileFunction,Paste,Top*%
%TF.FilePolarity,Positive*%
%FSLAX46Y46*%
G04 Gerber Fmt 4.6, Leading zero omitted, Abs format (unit mm)*
G04 Created by KiCad (PCBNEW 9.0.6) date 2026-01-24 10:26:07*
%MOMM*%
%LPD*%
G01*
G04 APERTURE LIST*
G04 Aperture macros list*
%AMRoundRect*
0 Rectangle with rounded corners*
0 $1 Rounding radius*
0 $2 $3 $4 $5 $6 $7 $8 $9 X,Y pos of 4 corners*
0 Add a 4 corners polygon primitive as box body*
4,1,4,$2,$3,$4,$5,$6,$7,$8,$9,$2,$3,0*
0 Add four circle primitives for the rounded corners*
1,1,$1+$1,$2,$3*
1,1,$1+$1,$4,$5*
1,1,$1+$1,$6,$7*
1,1,$1+$1,$8,$9*
0 Add four rect primitives between the rounded corners*
20,1,$1+$1,$2,$3,$4,$5,0*
20,1,$1+$1,$4,$5,$6,$7,0*
20,1,$1+$1,$6,$7,$8,$9,0*
20,1,$1+$1,$8,$9,$2,$3,0*%
G04 Aperture macros list end*
%ADD10C,0.000000*%
%ADD11R,0.558800X1.320800*%
%ADD12R,1.371600X0.330200*%
%ADD13R,0.599999X1.000000*%
%ADD14R,1.000000X3.500001*%
%ADD15R,8.650001X8.400002*%
%ADD16R,3.500001X1.000000*%
%ADD17R,8.400002X8.650001*%
%ADD18RoundRect,0.250000X-0.362500X-1.425000X0.362500X-1.425000X0.362500X1.425000X-0.362500X1.425000X0*%
%ADD19RoundRect,0.225000X-0.250000X0.225000X-0.250000X-0.225000X0.250000X-0.225000X0.250000X0.225000X0*%
%ADD20RoundRect,0.200000X0.200000X0.275000X-0.200000X0.275000X-0.200000X-0.275000X0.200000X-0.275000X0*%
%ADD21RoundRect,0.250000X-0.250000X-0.475000X0.250000X-0.475000X0.250000X0.475000X-0.250000X0.475000X0*%
%ADD22RoundRect,0.225000X-0.225000X-0.250000X0.225000X-0.250000X0.225000X0.250000X-0.225000X0.250000X0*%
%ADD23RoundRect,0.250000X0.900000X-1.000000X0.900000X1.000000X-0.900000X1.000000X-0.900000X-1.000000X0*%
%ADD24RoundRect,0.200000X-0.200000X-0.275000X0.200000X-0.275000X0.200000X0.275000X-0.200000X0.275000X0*%
%ADD25RoundRect,0.225000X0.225000X0.250000X-0.225000X0.250000X-0.225000X-0.250000X0.225000X-0.250000X0*%
%ADD26RoundRect,0.250000X1.000000X0.900000X-1.000000X0.900000X-1.000000X-0.900000X1.000000X-0.900000X0*%
%ADD27RoundRect,0.225000X-0.225000X-0.375000X0.225000X-0.375000X0.225000X0.375000X-0.225000X0.375000X0*%
%ADD28RoundRect,0.250000X-1.400000X-1.000000X1.400000X-1.000000X1.400000X1.000000X-1.400000X1.000000X0*%
G04 APERTURE END LIST*
D10*
%TO.C,Q3*%
G36*
X124599999Y-87489997D02*
G01*
X123639998Y-87489997D01*
X123639998Y-86409997D01*
X124599999Y-86409997D01*
X124599999Y-87489997D01*
G37*
G36*
X125879999Y-87489997D02*
G01*
X124919998Y-87489997D01*
X124919998Y-86409997D01*
X125879999Y-86409997D01*
X125879999Y-87489997D01*
G37*
G36*
X127159999Y-87489997D02*
G01*
X126199998Y-87489997D01*
X126199998Y-86409997D01*
X127159999Y-86409997D01*
X127159999Y-87489997D01*
G37*
G36*
X128439999Y-87489997D02*
G01*
X127479998Y-87489997D01*
X127479998Y-86409997D01*
X128439999Y-86409997D01*
X128439999Y-87489997D01*
G37*
G36*
X129719999Y-87489997D02*
G01*
X128759998Y-87489997D01*
X128759998Y-86409997D01*
X129719999Y-86409997D01*
X129719999Y-87489997D01*
G37*
G36*
X130999999Y-87489997D02*
G01*
X130039998Y-87489997D01*
X130039998Y-86409997D01*
X130999999Y-86409997D01*
X130999999Y-87489997D01*
G37*
G36*
X132279999Y-87489997D02*
G01*
X131319998Y-87489997D01*
X131319998Y-86409997D01*
X132279999Y-86409997D01*
X132279999Y-87489997D01*
G37*
G36*
X124599999Y-86209998D02*
G01*
X123639998Y-86209998D01*
X123639998Y-85129997D01*
X124599999Y-85129997D01*
X124599999Y-86209998D01*
G37*
G36*
X125879999Y-86209998D02*
G01*
X124919998Y-86209998D01*
X124919998Y-85129997D01*
X125879999Y-85129997D01*
X125879999Y-86209998D01*
G37*
G36*
X127159999Y-86209998D02*
G01*
X126199998Y-86209998D01*
X126199998Y-85129997D01*
X127159999Y-85129997D01*
X127159999Y-86209998D01*
G37*
G36*
X128439999Y-86209998D02*
G01*
X127479998Y-86209998D01*
X127479998Y-85129997D01*
X128439999Y-85129997D01*
X128439999Y-86209998D01*
G37*
G36*
X129719999Y-86209998D02*
G01*
X128759998Y-86209998D01*
X128759998Y-85129997D01*
X129719999Y-85129997D01*
X129719999Y-86209998D01*
G37*
G36*
X130999999Y-86209998D02*
G01*
X130039998Y-86209998D01*
X130039998Y-85129997D01*
X130999999Y-85129997D01*
X130999999Y-86209998D01*
G37*
G36*
X132279999Y-86209998D02*
G01*
X131319998Y-86209998D01*
X131319998Y-85129997D01*
X132279999Y-85129997D01*
X132279999Y-86209998D01*
G37*
G36*
X124599999Y-84929998D02*
G01*
X123639998Y-84929998D01*
X123639998Y-83849997D01*
X124599999Y-83849997D01*
X124599999Y-84929998D01*
G37*
G36*
X125879999Y-84929998D02*
G01*
X124919998Y-84929998D01*
X124919998Y-83849997D01*
X125879999Y-83849997D01*
X125879999Y-84929998D01*
G37*
G36*
X127159999Y-84929998D02*
G01*
X126199998Y-84929998D01*
X126199998Y-83849997D01*
X127159999Y-83849997D01*
X127159999Y-84929998D01*
G37*
G36*
X128439999Y-84929998D02*
G01*
X127479998Y-84929998D01*
X127479998Y-83849997D01*
X128439999Y-83849997D01*
X128439999Y-84929998D01*
G37*
G36*
X129719999Y-84929998D02*
G01*
X128759998Y-84929998D01*
X128759998Y-83849997D01*
X129719999Y-83849997D01*
X129719999Y-84929998D01*
G37*
G36*
X130999999Y-84929998D02*
G01*
X130039998Y-84929998D01*
X130039998Y-83849997D01*
X130999999Y-83849997D01*
X130999999Y-84929998D01*
G37*
G36*
X132279999Y-84929998D02*
G01*
X131319998Y-84929998D01*
X131319998Y-83849997D01*
X132279999Y-83849997D01*
X132279999Y-84929998D01*
G37*
G36*
X124599999Y-83650000D02*
G01*
X123639998Y-83650000D01*
X123639998Y-82570000D01*
X124599999Y-82570000D01*
X124599999Y-83650000D01*
G37*
G36*
X125879999Y-83650000D02*
G01*
X124919998Y-83650000D01*
X124919998Y-82570000D01*
X125879999Y-82570000D01*
X125879999Y-83650000D01*
G37*
G36*
X127159999Y-83650000D02*
G01*
X126199998Y-83650000D01*
X126199998Y-82570000D01*
X127159999Y-82570000D01*
X127159999Y-83650000D01*
G37*
G36*
X128439999Y-83650000D02*
G01*
X127479998Y-83650000D01*
X127479998Y-82570000D01*
X128439999Y-82570000D01*
X128439999Y-83650000D01*
G37*
G36*
X129719999Y-83650000D02*
G01*
X128759998Y-83650000D01*
X128759998Y-82570000D01*
X129719999Y-82570000D01*
X129719999Y-83650000D01*
G37*
G36*
X130999999Y-83650000D02*
G01*
X130039998Y-83650000D01*
X130039998Y-82570000D01*
X130999999Y-82570000D01*
X130999999Y-83650000D01*
G37*
G36*
X132279999Y-83650000D02*
G01*
X131319998Y-83650000D01*
X131319998Y-82570000D01*
X132279999Y-82570000D01*
X132279999Y-83650000D01*
G37*
G36*
X124599999Y-82370000D02*
G01*
X123639998Y-82370000D01*
X123639998Y-81290000D01*
X124599999Y-81290000D01*
X124599999Y-82370000D01*
G37*
G36*
X125879999Y-82370000D02*
G01*
X124919998Y-82370000D01*
X124919998Y-81290000D01*
X125879999Y-81290000D01*
X125879999Y-82370000D01*
G37*
G36*
X127159999Y-82370000D02*
G01*
X126199998Y-82370000D01*
X126199998Y-81290000D01*
X127159999Y-81290000D01*
X127159999Y-82370000D01*
G37*
G36*
X128439999Y-82370000D02*
G01*
X127479998Y-82370000D01*
X127479998Y-81290000D01*
X128439999Y-81290000D01*
X128439999Y-82370000D01*
G37*
G36*
X129719999Y-82370000D02*
G01*
X128759998Y-82370000D01*
X128759998Y-81290000D01*
X129719999Y-81290000D01*
X129719999Y-82370000D01*
G37*
G36*
X130999999Y-82370000D02*
G01*
X130039998Y-82370000D01*
X130039998Y-81290000D01*
X130999999Y-81290000D01*
X130999999Y-82370000D01*
G37*
G36*
X132279999Y-82370000D02*
G01*
X131319998Y-82370000D01*
X131319998Y-81290000D01*
X132279999Y-81290000D01*
X132279999Y-82370000D01*
G37*
G36*
X124599999Y-81090000D02*
G01*
X123639998Y-81090000D01*
X123639998Y-80010000D01*
X124599999Y-80010000D01*
X124599999Y-81090000D01*
G37*
G36*
X125879999Y-81090000D02*
G01*
X124919998Y-81090000D01*
X124919998Y-80010000D01*
X125879999Y-80010000D01*
X125879999Y-81090000D01*
G37*
G36*
X127159999Y-81090000D02*
G01*
X126199998Y-81090000D01*
X126199998Y-80010000D01*
X127159999Y-80010000D01*
X127159999Y-81090000D01*
G37*
G36*
X128439999Y-81090000D02*
G01*
X127479998Y-81090000D01*
X127479998Y-80010000D01*
X128439999Y-80010000D01*
X128439999Y-81090000D01*
G37*
G36*
X129719999Y-81090000D02*
G01*
X128759998Y-81090000D01*
X128759998Y-80010000D01*
X129719999Y-80010000D01*
X129719999Y-81090000D01*
G37*
G36*
X130999999Y-81090000D02*
G01*
X130039998Y-81090000D01*
X130039998Y-80010000D01*
X130999999Y-80010000D01*
X130999999Y-81090000D01*
G37*
G36*
X132279999Y-81090000D02*
G01*
X131319998Y-81090000D01*
X131319998Y-80010000D01*
X132279999Y-80010000D01*
X132279999Y-81090000D01*
G37*
%TO.C,Q2*%
G36*
X112349999Y-87589997D02*
G01*
X111389998Y-87589997D01*
X111389998Y-86509997D01*
X112349999Y-86509997D01*
X112349999Y-87589997D01*
G37*
G36*
X113629999Y-87589997D02*
G01*
X112669998Y-87589997D01*
X112669998Y-86509997D01*
X113629999Y-86509997D01*
X113629999Y-87589997D01*
G37*
G36*
X114909999Y-87589997D02*
G01*
X113949998Y-87589997D01*
X113949998Y-86509997D01*
X114909999Y-86509997D01*
X114909999Y-87589997D01*
G37*
G36*
X116189999Y-87589997D02*
G01*
X115229998Y-87589997D01*
X115229998Y-86509997D01*
X116189999Y-86509997D01*
X116189999Y-87589997D01*
G37*
G36*
X117469999Y-87589997D02*
G01*
X116509998Y-87589997D01*
X116509998Y-86509997D01*
X117469999Y-86509997D01*
X117469999Y-87589997D01*
G37*
G36*
X118749999Y-87589997D02*
G01*
X117789998Y-87589997D01*
X117789998Y-86509997D01*
X118749999Y-86509997D01*
X118749999Y-87589997D01*
G37*
G36*
X120029999Y-87589997D02*
G01*
X119069998Y-87589997D01*
X119069998Y-86509997D01*
X120029999Y-86509997D01*
X120029999Y-87589997D01*
G37*
G36*
X112349999Y-86309998D02*
G01*
X111389998Y-86309998D01*
X111389998Y-85229997D01*
X112349999Y-85229997D01*
X112349999Y-86309998D01*
G37*
G36*
X113629999Y-86309998D02*
G01*
X112669998Y-86309998D01*
X112669998Y-85229997D01*
X113629999Y-85229997D01*
X113629999Y-86309998D01*
G37*
G36*
X114909999Y-86309998D02*
G01*
X113949998Y-86309998D01*
X113949998Y-85229997D01*
X114909999Y-85229997D01*
X114909999Y-86309998D01*
G37*
G36*
X116189999Y-86309998D02*
G01*
X115229998Y-86309998D01*
X115229998Y-85229997D01*
X116189999Y-85229997D01*
X116189999Y-86309998D01*
G37*
G36*
X117469999Y-86309998D02*
G01*
X116509998Y-86309998D01*
X116509998Y-85229997D01*
X117469999Y-85229997D01*
X117469999Y-86309998D01*
G37*
G36*
X118749999Y-86309998D02*
G01*
X117789998Y-86309998D01*
X117789998Y-85229997D01*
X118749999Y-85229997D01*
X118749999Y-86309998D01*
G37*
G36*
X120029999Y-86309998D02*
G01*
X119069998Y-86309998D01*
X119069998Y-85229997D01*
X120029999Y-85229997D01*
X120029999Y-86309998D01*
G37*
G36*
X112349999Y-85029998D02*
G01*
X111389998Y-85029998D01*
X111389998Y-83949997D01*
X112349999Y-83949997D01*
X112349999Y-85029998D01*
G37*
G36*
X113629999Y-85029998D02*
G01*
X112669998Y-85029998D01*
X112669998Y-83949997D01*
X113629999Y-83949997D01*
X113629999Y-85029998D01*
G37*
G36*
X114909999Y-85029998D02*
G01*
X113949998Y-85029998D01*
X113949998Y-83949997D01*
X114909999Y-83949997D01*
X114909999Y-85029998D01*
G37*
G36*
X116189999Y-85029998D02*
G01*
X115229998Y-85029998D01*
X115229998Y-83949997D01*
X116189999Y-83949997D01*
X116189999Y-85029998D01*
G37*
G36*
X117469999Y-85029998D02*
G01*
X116509998Y-85029998D01*
X116509998Y-83949997D01*
X117469999Y-83949997D01*
X117469999Y-85029998D01*
G37*
G36*
X118749999Y-85029998D02*
G01*
X117789998Y-85029998D01*
X117789998Y-83949997D01*
X118749999Y-83949997D01*
X118749999Y-85029998D01*
G37*
G36*
X120029999Y-85029998D02*
G01*
X119069998Y-85029998D01*
X119069998Y-83949997D01*
X120029999Y-83949997D01*
X120029999Y-85029998D01*
G37*
G36*
X112349999Y-83750000D02*
G01*
X111389998Y-83750000D01*
X111389998Y-82670000D01*
X112349999Y-82670000D01*
X112349999Y-83750000D01*
G37*
G36*
X113629999Y-83750000D02*
G01*
X112669998Y-83750000D01*
X112669998Y-82670000D01*
X113629999Y-82670000D01*
X113629999Y-83750000D01*
G37*
G36*
X114909999Y-83750000D02*
G01*
X113949998Y-83750000D01*
X113949998Y-82670000D01*
X114909999Y-82670000D01*
X114909999Y-83750000D01*
G37*
G36*
X116189999Y-83750000D02*
G01*
X115229998Y-83750000D01*
X115229998Y-82670000D01*
X116189999Y-82670000D01*
X116189999Y-83750000D01*
G37*
G36*
X117469999Y-83750000D02*
G01*
X116509998Y-83750000D01*
X116509998Y-82670000D01*
X117469999Y-82670000D01*
X117469999Y-83750000D01*
G37*
G36*
X118749999Y-83750000D02*
G01*
X117789998Y-83750000D01*
X117789998Y-82670000D01*
X118749999Y-82670000D01*
X118749999Y-83750000D01*
G37*
G36*
X120029999Y-83750000D02*
G01*
X119069998Y-83750000D01*
X119069998Y-82670000D01*
X120029999Y-82670000D01*
X120029999Y-83750000D01*
G37*
G36*
X112349999Y-82470000D02*
G01*
X111389998Y-82470000D01*
X111389998Y-81390000D01*
X112349999Y-81390000D01*
X112349999Y-82470000D01*
G37*
G36*
X113629999Y-82470000D02*
G01*
X112669998Y-82470000D01*
X112669998Y-81390000D01*
X113629999Y-81390000D01*
X113629999Y-82470000D01*
G37*
G36*
X114909999Y-82470000D02*
G01*
X113949998Y-82470000D01*
X113949998Y-81390000D01*
X114909999Y-81390000D01*
X114909999Y-82470000D01*
G37*
G36*
X116189999Y-82470000D02*
G01*
X115229998Y-82470000D01*
X115229998Y-81390000D01*
X116189999Y-81390000D01*
X116189999Y-82470000D01*
G37*
G36*
X117469999Y-82470000D02*
G01*
X116509998Y-82470000D01*
X116509998Y-81390000D01*
X117469999Y-81390000D01*
X117469999Y-82470000D01*
G37*
G36*
X118749999Y-82470000D02*
G01*
X117789998Y-82470000D01*
X117789998Y-81390000D01*
X118749999Y-81390000D01*
X118749999Y-82470000D01*
G37*
G36*
X120029999Y-82470000D02*
G01*
X119069998Y-82470000D01*
X119069998Y-81390000D01*
X120029999Y-81390000D01*
X120029999Y-82470000D01*
G37*
G36*
X112349999Y-81190000D02*
G01*
X111389998Y-81190000D01*
X111389998Y-80110000D01*
X112349999Y-80110000D01*
X112349999Y-81190000D01*
G37*
G36*
X113629999Y-81190000D02*
G01*
X112669998Y-81190000D01*
X112669998Y-80110000D01*
X113629999Y-80110000D01*
X113629999Y-81190000D01*
G37*
G36*
X114909999Y-81190000D02*
G01*
X113949998Y-81190000D01*
X113949998Y-80110000D01*
X114909999Y-80110000D01*
X114909999Y-81190000D01*
G37*
G36*
X116189999Y-81190000D02*
G01*
X115229998Y-81190000D01*
X115229998Y-80110000D01*
X116189999Y-80110000D01*
X116189999Y-81190000D01*
G37*
G36*
X117469999Y-81190000D02*
G01*
X116509998Y-81190000D01*
X116509998Y-80110000D01*
X117469999Y-80110000D01*
X117469999Y-81190000D01*
G37*
G36*
X118749999Y-81190000D02*
G01*
X117789998Y-81190000D01*
X117789998Y-80110000D01*
X118749999Y-80110000D01*
X118749999Y-81190000D01*
G37*
G36*
X120029999Y-81190000D02*
G01*
X119069998Y-81190000D01*
X119069998Y-80110000D01*
X120029999Y-80110000D01*
X120029999Y-81190000D01*
G37*
%TO.C,Q1*%
G36*
X92140000Y-69280002D02*
G01*
X91060000Y-69280002D01*
X91060000Y-68320001D01*
X92140000Y-68320001D01*
X92140000Y-69280002D01*
G37*
G36*
X92140000Y-70560002D02*
G01*
X91060000Y-70560002D01*
X91060000Y-69600001D01*
X92140000Y-69600001D01*
X92140000Y-70560002D01*
G37*
G36*
X92140000Y-71840002D02*
G01*
X91060000Y-71840002D01*
X91060000Y-70880001D01*
X92140000Y-70880001D01*
X92140000Y-71840002D01*
G37*
G36*
X92140000Y-73120002D02*
G01*
X91060000Y-73120002D01*
X91060000Y-72160001D01*
X92140000Y-72160001D01*
X92140000Y-73120002D01*
G37*
G36*
X92140000Y-74400002D02*
G01*
X91060000Y-74400002D01*
X91060000Y-73440001D01*
X92140000Y-73440001D01*
X92140000Y-74400002D01*
G37*
G36*
X92140000Y-75680002D02*
G01*
X91060000Y-75680002D01*
X91060000Y-74720001D01*
X92140000Y-74720001D01*
X92140000Y-75680002D01*
G37*
G36*
X92140000Y-76960002D02*
G01*
X91060000Y-76960002D01*
X91060000Y-76000001D01*
X92140000Y-76000001D01*
X92140000Y-76960002D01*
G37*
G36*
X93420000Y-69280002D02*
G01*
X92340000Y-69280002D01*
X92340000Y-68320001D01*
X93420000Y-68320001D01*
X93420000Y-69280002D01*
G37*
G36*
X93420000Y-70560002D02*
G01*
X92340000Y-70560002D01*
X92340000Y-69600001D01*
X93420000Y-69600001D01*
X93420000Y-70560002D01*
G37*
G36*
X93420000Y-71840002D02*
G01*
X92340000Y-71840002D01*
X92340000Y-70880001D01*
X93420000Y-70880001D01*
X93420000Y-71840002D01*
G37*
G36*
X93420000Y-73120002D02*
G01*
X92340000Y-73120002D01*
X92340000Y-72160001D01*
X93420000Y-72160001D01*
X93420000Y-73120002D01*
G37*
G36*
X93420000Y-74400002D02*
G01*
X92340000Y-74400002D01*
X92340000Y-73440001D01*
X93420000Y-73440001D01*
X93420000Y-74400002D01*
G37*
G36*
X93420000Y-75680002D02*
G01*
X92340000Y-75680002D01*
X92340000Y-74720001D01*
X93420000Y-74720001D01*
X93420000Y-75680002D01*
G37*
G36*
X93420000Y-76960002D02*
G01*
X92340000Y-76960002D01*
X92340000Y-76000001D01*
X93420000Y-76000001D01*
X93420000Y-76960002D01*
G37*
G36*
X94700000Y-69280002D02*
G01*
X93620000Y-69280002D01*
X93620000Y-68320001D01*
X94700000Y-68320001D01*
X94700000Y-69280002D01*
G37*
G36*
X94700000Y-70560002D02*
G01*
X93620000Y-70560002D01*
X93620000Y-69600001D01*
X94700000Y-69600001D01*
X94700000Y-70560002D01*
G37*
G36*
X94700000Y-71840002D02*
G01*
X93620000Y-71840002D01*
X93620000Y-70880001D01*
X94700000Y-70880001D01*
X94700000Y-71840002D01*
G37*
G36*
X94700000Y-73120002D02*
G01*
X93620000Y-73120002D01*
X93620000Y-72160001D01*
X94700000Y-72160001D01*
X94700000Y-73120002D01*
G37*
G36*
X94700000Y-74400002D02*
G01*
X93620000Y-74400002D01*
X93620000Y-73440001D01*
X94700000Y-73440001D01*
X94700000Y-74400002D01*
G37*
G36*
X94700000Y-75680002D02*
G01*
X93620000Y-75680002D01*
X93620000Y-74720001D01*
X94700000Y-74720001D01*
X94700000Y-75680002D01*
G37*
G36*
X94700000Y-76960002D02*
G01*
X93620000Y-76960002D01*
X93620000Y-76000001D01*
X94700000Y-76000001D01*
X94700000Y-76960002D01*
G37*
G36*
X95979998Y-69280002D02*
G01*
X94899997Y-69280002D01*
X94899997Y-68320001D01*
X95979998Y-68320001D01*
X95979998Y-69280002D01*
G37*
G36*
X95979998Y-70560002D02*
G01*
X94899997Y-70560002D01*
X94899997Y-69600001D01*
X95979998Y-69600001D01*
X95979998Y-70560002D01*
G37*
G36*
X95979998Y-71840002D02*
G01*
X94899997Y-71840002D01*
X94899997Y-70880001D01*
X95979998Y-70880001D01*
X95979998Y-71840002D01*
G37*
G36*
X95979998Y-73120002D02*
G01*
X94899997Y-73120002D01*
X94899997Y-72160001D01*
X95979998Y-72160001D01*
X95979998Y-73120002D01*
G37*
G36*
X95979998Y-74400002D02*
G01*
X94899997Y-74400002D01*
X94899997Y-73440001D01*
X95979998Y-73440001D01*
X95979998Y-74400002D01*
G37*
G36*
X95979998Y-75680002D02*
G01*
X94899997Y-75680002D01*
X94899997Y-74720001D01*
X95979998Y-74720001D01*
X95979998Y-75680002D01*
G37*
G36*
X95979998Y-76960002D02*
G01*
X94899997Y-76960002D01*
X94899997Y-76000001D01*
X95979998Y-76000001D01*
X95979998Y-76960002D01*
G37*
G36*
X97259998Y-69280002D02*
G01*
X96179997Y-69280002D01*
X96179997Y-68320001D01*
X97259998Y-68320001D01*
X97259998Y-69280002D01*
G37*
G36*
X97259998Y-70560002D02*
G01*
X96179997Y-70560002D01*
X96179997Y-69600001D01*
X97259998Y-69600001D01*
X97259998Y-70560002D01*
G37*
G36*
X97259998Y-71840002D02*
G01*
X96179997Y-71840002D01*
X96179997Y-70880001D01*
X97259998Y-70880001D01*
X97259998Y-71840002D01*
G37*
G36*
X97259998Y-73120002D02*
G01*
X96179997Y-73120002D01*
X96179997Y-72160001D01*
X97259998Y-72160001D01*
X97259998Y-73120002D01*
G37*
G36*
X97259998Y-74400002D02*
G01*
X96179997Y-74400002D01*
X96179997Y-73440001D01*
X97259998Y-73440001D01*
X97259998Y-74400002D01*
G37*
G36*
X97259998Y-75680002D02*
G01*
X96179997Y-75680002D01*
X96179997Y-74720001D01*
X97259998Y-74720001D01*
X97259998Y-75680002D01*
G37*
G36*
X97259998Y-76960002D02*
G01*
X96179997Y-76960002D01*
X96179997Y-76000001D01*
X97259998Y-76000001D01*
X97259998Y-76960002D01*
G37*
G36*
X98539997Y-69280002D02*
G01*
X97459997Y-69280002D01*
X97459997Y-68320001D01*
X98539997Y-68320001D01*
X98539997Y-69280002D01*
G37*
G36*
X98539997Y-70560002D02*
G01*
X97459997Y-70560002D01*
X97459997Y-69600001D01*
X98539997Y-69600001D01*
X98539997Y-70560002D01*
G37*
G36*
X98539997Y-71840002D02*
G01*
X97459997Y-71840002D01*
X97459997Y-70880001D01*
X98539997Y-70880001D01*
X98539997Y-71840002D01*
G37*
G36*
X98539997Y-73120002D02*
G01*
X97459997Y-73120002D01*
X97459997Y-72160001D01*
X98539997Y-72160001D01*
X98539997Y-73120002D01*
G37*
G36*
X98539997Y-74400002D02*
G01*
X97459997Y-74400002D01*
X97459997Y-73440001D01*
X98539997Y-73440001D01*
X98539997Y-74400002D01*
G37*
G36*
X98539997Y-75680002D02*
G01*
X97459997Y-75680002D01*
X97459997Y-74720001D01*
X98539997Y-74720001D01*
X98539997Y-75680002D01*
G37*
G36*
X98539997Y-76960002D02*
G01*
X97459997Y-76960002D01*
X97459997Y-76000001D01*
X98539997Y-76000001D01*
X98539997Y-76960002D01*
G37*
%TD*%
D11*
%TO.C,U3*%
X101945000Y-84000000D03*
X103850000Y-84000000D03*
X102897500Y-81968000D03*
%TD*%
D12*
%TO.C,U2*%
X99302900Y-88959999D03*
X99302900Y-89460001D03*
X99302900Y-89960000D03*
X99302900Y-90459999D03*
X99302900Y-90960001D03*
X103697100Y-90960001D03*
X103697100Y-90459999D03*
X103697100Y-89960000D03*
X103697100Y-89460001D03*
X103697100Y-88959999D03*
%TD*%
D13*
%TO.C,U1*%
X94439999Y-61472323D03*
X93489998Y-61472323D03*
X92540000Y-61472323D03*
X92540000Y-64222323D03*
X93489998Y-64222323D03*
X94439999Y-64222323D03*
%TD*%
D14*
%TO.C,Q3*%
X125420000Y-93650000D03*
D15*
X127960000Y-83750000D03*
D14*
X130500000Y-93650000D03*
%TD*%
%TO.C,Q2*%
X113170000Y-93750000D03*
D15*
X115710000Y-83850000D03*
D14*
X118250000Y-93750000D03*
%TD*%
D16*
%TO.C,Q1*%
X104700000Y-70100000D03*
D17*
X94800000Y-72640000D03*
D16*
X104700000Y-75180000D03*
%TD*%
D18*
%TO.C,R9*%
X92575000Y-80750000D03*
X98500000Y-80750000D03*
%TD*%
D19*
%TO.C,C8*%
X115040000Y-102975000D03*
X115040000Y-104525000D03*
%TD*%
D20*
%TO.C,R4*%
X91250000Y-93500000D03*
X89600000Y-93500000D03*
%TD*%
D21*
%TO.C,C3*%
X92590000Y-59222323D03*
X94490000Y-59222323D03*
%TD*%
D22*
%TO.C,C9*%
X104225000Y-81100000D03*
X105775000Y-81100000D03*
%TD*%
D20*
%TO.C,R1*%
X92975000Y-88500000D03*
X91325000Y-88500000D03*
%TD*%
%TO.C,R12*%
X125360000Y-97350000D03*
X123710000Y-97350000D03*
%TD*%
D23*
%TO.C,D1*%
X111300000Y-63882323D03*
X111300000Y-59582323D03*
%TD*%
D24*
%TO.C,R2*%
X91300000Y-90100000D03*
X92950000Y-90100000D03*
%TD*%
D25*
%TO.C,C5*%
X86025000Y-82250000D03*
X84475000Y-82250000D03*
%TD*%
D24*
%TO.C,R15*%
X100425000Y-86250000D03*
X102075000Y-86250000D03*
%TD*%
D25*
%TO.C,C10*%
X107275000Y-84250000D03*
X105725000Y-84250000D03*
%TD*%
D20*
%TO.C,R11*%
X113075000Y-96500000D03*
X111425000Y-96500000D03*
%TD*%
D18*
%TO.C,R10*%
X92575000Y-85660000D03*
X98500000Y-85660000D03*
%TD*%
D26*
%TO.C,D2*%
X87450000Y-85500000D03*
X83150000Y-85500000D03*
%TD*%
D20*
%TO.C,R7*%
X96500000Y-92700000D03*
X94850000Y-92700000D03*
%TD*%
D27*
%TO.C,D4*%
X103700000Y-86250000D03*
X107000000Y-86250000D03*
%TD*%
D24*
%TO.C,R8*%
X94700000Y-94450000D03*
X96350000Y-94450000D03*
%TD*%
%TO.C,R14*%
X105425000Y-89500000D03*
X107075000Y-89500000D03*
%TD*%
%TO.C,R6*%
X94950000Y-91150000D03*
X96600000Y-91150000D03*
%TD*%
D28*
%TO.C,D3*%
X131000000Y-101100000D03*
X131000000Y-107900000D03*
%TD*%
D24*
%TO.C,R13*%
X105425000Y-91000000D03*
X107075000Y-91000000D03*
%TD*%
D20*
%TO.C,R5*%
X96575000Y-89550000D03*
X94925000Y-89550000D03*
%TD*%
D25*
%TO.C,C2*%
X94447323Y-57222323D03*
X92897323Y-57222323D03*
%TD*%
D19*
%TO.C,C6*%
X103750000Y-92725000D03*
X103750000Y-94275000D03*
%TD*%
D20*
%TO.C,R3*%
X92950000Y-91850000D03*
X91300000Y-91850000D03*
%TD*%
M02*
