%TF.GenerationSoftware,KiCad,Pcbnew,9.0.6*%
%TF.CreationDate,2026-01-24T10:26:07+01:00*%
%TF.ProjectId,Protection,50726f74-6563-4746-996f-6e2e6b696361,rev?*%
%TF.SameCoordinates,Original*%
%TF.FileFunction,Soldermask,Top*%
%TF.FilePolarity,Negative*%
%FSLAX46Y46*%
G04 Gerber Fmt 4.6, Leading zero omitted, Abs format (unit mm)*
G04 Created by KiCad (PCBNEW 9.0.6) date 2026-01-24 10:26:07*
%MOMM*%
%LPD*%
G01*
G04 APERTURE LIST*
G04 Aperture macros list*
%AMRoundRect*
0 Rectangle with rounded corners*
0 $1 Rounding radius*
0 $2 $3 $4 $5 $6 $7 $8 $9 X,Y pos of 4 corners*
0 Add a 4 corners polygon primitive as box body*
4,1,4,$2,$3,$4,$5,$6,$7,$8,$9,$2,$3,0*
0 Add four circle primitives for the rounded corners*
1,1,$1+$1,$2,$3*
1,1,$1+$1,$4,$5*
1,1,$1+$1,$6,$7*
1,1,$1+$1,$8,$9*
0 Add four rect primitives between the rounded corners*
20,1,$1+$1,$2,$3,$4,$5,0*
20,1,$1+$1,$4,$5,$6,$7,0*
20,1,$1+$1,$6,$7,$8,$9,0*
20,1,$1+$1,$8,$9,$2,$3,0*%
G04 Aperture macros list end*
%ADD10R,0.558800X1.320800*%
%ADD11R,1.371600X0.330200*%
%ADD12R,0.599999X1.000000*%
%ADD13R,1.000000X3.500001*%
%ADD14R,8.650001X8.400002*%
%ADD15R,3.500001X1.000000*%
%ADD16R,8.400002X8.650001*%
%ADD17RoundRect,0.250000X-0.362500X-1.425000X0.362500X-1.425000X0.362500X1.425000X-0.362500X1.425000X0*%
%ADD18RoundRect,0.250000X-0.750000X0.750000X-0.750000X-0.750000X0.750000X-0.750000X0.750000X0.750000X0*%
%ADD19C,2.000000*%
%ADD20RoundRect,0.225000X-0.250000X0.225000X-0.250000X-0.225000X0.250000X-0.225000X0.250000X0.225000X0*%
%ADD21RoundRect,0.200000X0.200000X0.275000X-0.200000X0.275000X-0.200000X-0.275000X0.200000X-0.275000X0*%
%ADD22RoundRect,0.250000X-0.250000X-0.475000X0.250000X-0.475000X0.250000X0.475000X-0.250000X0.475000X0*%
%ADD23RoundRect,0.225000X-0.225000X-0.250000X0.225000X-0.250000X0.225000X0.250000X-0.225000X0.250000X0*%
%ADD24RoundRect,0.250000X0.900000X-1.000000X0.900000X1.000000X-0.900000X1.000000X-0.900000X-1.000000X0*%
%ADD25RoundRect,0.200000X-0.200000X-0.275000X0.200000X-0.275000X0.200000X0.275000X-0.200000X0.275000X0*%
%ADD26RoundRect,0.250000X0.750000X0.750000X-0.750000X0.750000X-0.750000X-0.750000X0.750000X-0.750000X0*%
%ADD27RoundRect,0.225000X0.225000X0.250000X-0.225000X0.250000X-0.225000X-0.250000X0.225000X-0.250000X0*%
%ADD28RoundRect,0.250001X-1.149999X1.149999X-1.149999X-1.149999X1.149999X-1.149999X1.149999X1.149999X0*%
%ADD29C,2.800000*%
%ADD30RoundRect,0.250000X1.000000X0.900000X-1.000000X0.900000X-1.000000X-0.900000X1.000000X-0.900000X0*%
%ADD31RoundRect,0.225000X-0.225000X-0.375000X0.225000X-0.375000X0.225000X0.375000X-0.225000X0.375000X0*%
%ADD32RoundRect,0.250000X0.750000X-0.750000X0.750000X0.750000X-0.750000X0.750000X-0.750000X-0.750000X0*%
%ADD33RoundRect,0.250000X-1.400000X-1.000000X1.400000X-1.000000X1.400000X1.000000X-1.400000X1.000000X0*%
%ADD34R,1.700000X1.700000*%
%ADD35C,1.700000*%
G04 APERTURE END LIST*
D10*
%TO.C,U3*%
X101945000Y-84000000D03*
X103850000Y-84000000D03*
X102897500Y-81968000D03*
%TD*%
D11*
%TO.C,U2*%
X99302900Y-88959999D03*
X99302900Y-89460001D03*
X99302900Y-89960000D03*
X99302900Y-90459999D03*
X99302900Y-90960001D03*
X103697100Y-90960001D03*
X103697100Y-90459999D03*
X103697100Y-89960000D03*
X103697100Y-89460001D03*
X103697100Y-88959999D03*
%TD*%
D12*
%TO.C,U1*%
X94439999Y-61472323D03*
X93489998Y-61472323D03*
X92540000Y-61472323D03*
X92540000Y-64222323D03*
X93489998Y-64222323D03*
X94439999Y-64222323D03*
%TD*%
D13*
%TO.C,Q3*%
X125420000Y-93650000D03*
D14*
X127960000Y-83750000D03*
D13*
X130500000Y-93650000D03*
%TD*%
%TO.C,Q2*%
X113170000Y-93750000D03*
D14*
X115710000Y-83850000D03*
D13*
X118250000Y-93750000D03*
%TD*%
D15*
%TO.C,Q1*%
X104700000Y-70100000D03*
D16*
X94800000Y-72640000D03*
D15*
X104700000Y-75180000D03*
%TD*%
D17*
%TO.C,R9*%
X92575000Y-80750000D03*
X98500000Y-80750000D03*
%TD*%
D18*
%TO.C,C7*%
X121750000Y-101382323D03*
D19*
X121750000Y-106382323D03*
%TD*%
D20*
%TO.C,C8*%
X115040000Y-102975000D03*
X115040000Y-104525000D03*
%TD*%
D21*
%TO.C,R4*%
X91250000Y-93500000D03*
X89600000Y-93500000D03*
%TD*%
D22*
%TO.C,C3*%
X92590000Y-59222323D03*
X94490000Y-59222323D03*
%TD*%
D23*
%TO.C,C9*%
X104225000Y-81100000D03*
X105775000Y-81100000D03*
%TD*%
D21*
%TO.C,R1*%
X92975000Y-88500000D03*
X91325000Y-88500000D03*
%TD*%
%TO.C,R12*%
X125360000Y-97350000D03*
X123710000Y-97350000D03*
%TD*%
D24*
%TO.C,D1*%
X111300000Y-63882323D03*
X111300000Y-59582323D03*
%TD*%
D25*
%TO.C,R2*%
X91300000Y-90100000D03*
X92950000Y-90100000D03*
%TD*%
D26*
%TO.C,C4*%
X87040000Y-75850000D03*
D19*
X82040000Y-75850000D03*
%TD*%
D27*
%TO.C,C5*%
X86025000Y-82250000D03*
X84475000Y-82250000D03*
%TD*%
D28*
%TO.C,J1*%
X119000000Y-59250000D03*
D29*
X119000000Y-64250000D03*
%TD*%
D25*
%TO.C,R15*%
X100425000Y-86250000D03*
X102075000Y-86250000D03*
%TD*%
D27*
%TO.C,C10*%
X107275000Y-84250000D03*
X105725000Y-84250000D03*
%TD*%
D21*
%TO.C,R11*%
X113075000Y-96500000D03*
X111425000Y-96500000D03*
%TD*%
D17*
%TO.C,R10*%
X92575000Y-85660000D03*
X98500000Y-85660000D03*
%TD*%
D30*
%TO.C,D2*%
X87450000Y-85500000D03*
X83150000Y-85500000D03*
%TD*%
D21*
%TO.C,R7*%
X96500000Y-92700000D03*
X94850000Y-92700000D03*
%TD*%
D31*
%TO.C,D4*%
X103700000Y-86250000D03*
X107000000Y-86250000D03*
%TD*%
D25*
%TO.C,R8*%
X94700000Y-94450000D03*
X96350000Y-94450000D03*
%TD*%
D32*
%TO.C,C1*%
X102300000Y-64000000D03*
D19*
X102300000Y-59000000D03*
%TD*%
D25*
%TO.C,R14*%
X105425000Y-89500000D03*
X107075000Y-89500000D03*
%TD*%
D28*
%TO.C,J3*%
X108750000Y-101750000D03*
D29*
X108750000Y-106750000D03*
%TD*%
D25*
%TO.C,R6*%
X94950000Y-91150000D03*
X96600000Y-91150000D03*
%TD*%
D33*
%TO.C,D3*%
X131000000Y-101100000D03*
X131000000Y-107900000D03*
%TD*%
D25*
%TO.C,R13*%
X105425000Y-91000000D03*
X107075000Y-91000000D03*
%TD*%
D21*
%TO.C,R5*%
X96575000Y-89550000D03*
X94925000Y-89550000D03*
%TD*%
D27*
%TO.C,C2*%
X94447323Y-57222323D03*
X92897323Y-57222323D03*
%TD*%
D20*
%TO.C,C6*%
X103750000Y-92725000D03*
X103750000Y-94275000D03*
%TD*%
D34*
%TO.C,J2*%
X111240000Y-77500000D03*
D35*
X108700000Y-77500000D03*
%TD*%
D21*
%TO.C,R3*%
X92950000Y-91850000D03*
X91300000Y-91850000D03*
%TD*%
M02*
