M48
; DRILL file {KiCad 9.0.6} date 2025-12-29T23:23:48+0800
; FORMAT={-:-/ absolute / metric / decimal}
; #@! TF.CreationDate,2025-12-29T23:23:48+08:00
; #@! TF.GenerationSoftware,Kicad,Pcbnew,9.0.6
; #@! TF.FileFunction,Plated,1,4,PTH
FMAT,2
METRIC
; #@! TA.AperFunction,Plated,PTH,ViaDrill
T1C0.600
; #@! TA.AperFunction,Plated,PTH,ViaDrill
T2C0.800
; #@! TA.AperFunction,Plated,PTH,ComponentDrill
T3C0.800
; #@! TA.AperFunction,Plated,PTH,ComponentDrill
T4C0.950
; #@! TA.AperFunction,Plated,PTH,ComponentDrill
T5C1.000
; #@! TA.AperFunction,Plated,PTH,ComponentDrill
T6C1.200
; #@! TA.AperFunction,Plated,PTH,ComponentDrill
T7C2.700
%
G90
G05
T1
X95.0Y-97.5
X103.15Y-57.4
X138.0Y-72.5
X138.75Y-69.25
X140.75Y-66.5
X144.75Y-69.25
X144.793Y-76.793
X146.25Y-68.5
X151.25Y-71.75
X151.75Y-73.75
X156.75Y-44.25
X160.25Y-53.25
X160.75Y-47.75
X160.75Y-91.5
X160.75Y-93.0
X163.0Y-89.25
X163.5Y-44.25
X165.25Y-83.162
X167.0Y-81.25
X216.75Y-47.8
X216.75Y-90.0
T2
X88.92Y-116.69
X91.55Y-119.35
X91.65Y-113.75
X103.13Y-178.64
X103.38Y-122.39
X104.255Y-113.015
X104.38Y-187.39
X104.63Y-182.39
X104.755Y-120.015
X105.755Y-116.515
X112.13Y-173.68
X112.88Y-125.89
X113.88Y-178.39
X115.99Y-198.93
X116.63Y-170.18
X117.38Y-121.89
X117.38Y-129.89
X117.54Y-182.49
X117.63Y-186.89
X118.25Y-193.71
X118.25Y-205.45
X119.52Y-178.61
X124.2Y-81.15
X124.25Y-83.6
X124.35Y-40.0
X124.4Y-59.6
X124.5Y-62.15
X126.7Y-37.45
X126.95Y-59.45
X127.0Y-81.05
X128.63Y-121.89
X129.63Y-111.39
X130.13Y-118.39
X130.75Y-37.65
X131.05Y-59.8
X131.05Y-81.54
X131.13Y-114.89
X133.7Y-39.65
X133.75Y-37.0
X136.55Y-36.95
X137.41Y-173.68
X137.88Y-125.89
X138.5Y-79.25
X139.05Y-83.35
X139.15Y-39.9
X139.25Y-37.05
X139.38Y-178.39
X141.0Y-56.95
X141.63Y-115.14
X141.91Y-170.18
X142.38Y-121.89
X142.38Y-129.89
X142.56Y-182.71
X142.63Y-111.64
X142.65Y-187.11
X143.13Y-118.64
X144.54Y-178.83
X146.65Y-90.0
X148.15Y-50.6
X148.8Y-89.65
X152.0Y-95.6
X152.7Y-54.8
X153.6Y-94.5
X153.88Y-122.14
X162.63Y-173.64
X163.13Y-126.14
X163.65Y-53.35
X164.38Y-178.35
X167.13Y-170.14
X167.63Y-122.14
X167.63Y-130.14
X168.0Y-48.95
X168.2Y-68.334
X168.25Y-77.0
X170.35Y-67.8
X172.5Y-93.0
X175.55Y-49.0
X177.0Y-93.0
X177.2Y-67.75
X178.3Y-46.4
X178.3Y-48.6
X178.95Y-67.75
X179.5Y-91.0
X181.3Y-48.5
X181.5Y-92.0
X182.15Y-107.9
X182.95Y-67.65
X185.25Y-48.8
X187.2Y-128.15
X187.5Y-46.15
X197.05Y-136.64
X200.62Y-136.6
X202.15Y-50.6
X206.95Y-136.86
X207.5Y-195.0
X207.5Y-203.0
X209.35Y-50.55
X210.0Y-197.0
X210.0Y-200.5
X210.75Y-136.75
X215.3Y-104.1
X217.6Y-104.15
T3
X97.5Y-184.5
X98.25Y-178.59
X98.477Y-116.59
X98.63Y-122.39
X100.75Y-178.59
X101.0Y-184.5
X101.13Y-122.39
X101.977Y-116.59
X121.0Y-184.39
X122.38Y-178.59
X123.88Y-115.14
X123.88Y-121.79
X124.5Y-184.39
X124.88Y-178.59
X126.38Y-121.79
X127.38Y-115.14
X130.8Y-40.083
X130.8Y-42.583
X131.0Y-62.083
X131.0Y-64.583
X131.0Y-83.733
X131.0Y-86.233
X136.5Y-39.5
X136.5Y-43.0
X136.5Y-83.0
X136.5Y-86.5
X137.0Y-62.0
X137.0Y-65.5
X145.355Y-115.19
X146.5Y-185.0
X146.88Y-178.79
X148.8Y-121.99
X148.855Y-115.19
X149.38Y-178.79
X150.0Y-185.0
X151.3Y-121.99
X174.8Y-86.5
X174.8Y-90.0
X175.5Y-43.0
X175.5Y-46.5
X175.5Y-65.0
X175.5Y-68.5
X181.0Y-86.583
X181.0Y-89.083
X181.2Y-43.583
X181.2Y-46.083
X181.2Y-65.033
X181.2Y-67.533
T4
X208.45Y-101.65
X210.95Y-101.65
X213.45Y-101.65
X215.95Y-101.65
X218.45Y-101.65
T5
X91.63Y-116.64
X94.17Y-116.64
X94.5Y-99.5
X95.52Y-55.583
X97.04Y-99.5
X98.06Y-55.583
X98.68Y-126.05
X98.7Y-174.79
X99.58Y-99.5
X100.6Y-55.583
X102.12Y-99.5
X103.14Y-55.583
X117.04Y-174.6
X117.36Y-126.05
X123.78Y-125.94
X123.8Y-174.68
X126.852Y-40.029
X126.852Y-42.569
X126.852Y-45.109
X126.852Y-47.649
X126.928Y-83.633
X126.928Y-86.173
X126.928Y-88.713
X126.928Y-91.253
X127.0Y-62.133
X127.0Y-64.673
X127.0Y-67.213
X127.0Y-69.753
X136.75Y-199.25
X136.75Y-201.79
X136.75Y-204.33
X142.14Y-174.49
X142.46Y-125.94
X142.907Y-50.738
X142.907Y-53.278
X142.907Y-55.818
X142.907Y-58.358
X142.907Y-60.898
X142.907Y-63.438
X142.907Y-65.978
X142.907Y-68.518
X142.907Y-71.058
X142.907Y-73.598
X142.907Y-76.138
X142.907Y-78.678
X142.907Y-81.218
X142.907Y-83.758
X142.907Y-86.298
X149.02Y-125.99
X149.04Y-174.73
X158.147Y-50.738
X158.147Y-53.278
X158.147Y-55.818
X158.147Y-58.358
X158.147Y-60.898
X158.147Y-63.438
X158.147Y-65.978
X158.147Y-68.518
X158.147Y-71.058
X158.147Y-73.598
X158.147Y-76.138
X158.147Y-78.678
X158.147Y-81.218
X158.147Y-83.758
X158.147Y-86.298
X167.38Y-174.54
X167.7Y-125.99
X170.875Y-199.0
X179.6Y-110.527
X179.6Y-125.767
X182.14Y-110.527
X182.14Y-125.767
X184.68Y-110.527
X184.68Y-125.767
X185.028Y-38.519
X185.028Y-41.059
X185.028Y-43.599
X185.028Y-46.139
X185.028Y-60.019
X185.028Y-62.559
X185.028Y-65.099
X185.028Y-67.639
X185.052Y-81.469
X185.052Y-84.009
X185.052Y-86.549
X185.052Y-89.089
X187.22Y-110.527
X187.22Y-125.767
X189.76Y-110.527
X189.76Y-125.767
X192.3Y-110.527
X192.3Y-125.767
X193.375Y-199.0
X194.84Y-110.527
X194.84Y-125.767
X197.04Y-129.18
X197.04Y-131.72
X197.04Y-134.26
X197.38Y-110.527
X197.38Y-125.767
X199.92Y-110.527
X199.92Y-125.767
X200.63Y-129.2
X200.63Y-131.74
X200.63Y-134.28
X202.46Y-110.527
X202.46Y-125.767
X205.0Y-110.527
X205.0Y-125.767
X206.96Y-129.425
X206.96Y-131.965
X206.96Y-134.505
X207.54Y-110.527
X207.54Y-125.767
X209.13Y-45.75
X209.18Y-87.633
X210.08Y-110.527
X210.08Y-125.767
X210.735Y-129.35
X210.735Y-131.89
X210.735Y-134.43
X210.93Y-96.8
X211.67Y-45.75
X211.72Y-87.633
X212.62Y-110.527
X212.62Y-125.767
X213.47Y-96.8
X214.21Y-45.75
X214.26Y-87.633
X215.16Y-110.527
X215.16Y-125.767
X216.75Y-45.75
X216.8Y-87.633
T6
X121.03Y-199.19
X126.03Y-199.19
X155.0Y-199.0
X165.0Y-199.0
T7
X200.7Y-198.9
X205.7Y-198.9
M30
