%TF.GenerationSoftware,KiCad,Pcbnew,9.0.6*%
%TF.CreationDate,2025-12-29T23:23:51+08:00*%
%TF.ProjectId,Microver2025,4d696372-6f76-4657-9232-3032352e6b69,rev?*%
%TF.SameCoordinates,Original*%
%TF.FileFunction,Copper,L4,Bot*%
%TF.FilePolarity,Positive*%
%FSLAX46Y46*%
G04 Gerber Fmt 4.6, Leading zero omitted, Abs format (unit mm)*
G04 Created by KiCad (PCBNEW 9.0.6) date 2025-12-29 23:23:51*
%MOMM*%
%LPD*%
G01*
G04 APERTURE LIST*
G04 Aperture macros list*
%AMRoundRect*
0 Rectangle with rounded corners*
0 $1 Rounding radius*
0 $2 $3 $4 $5 $6 $7 $8 $9 X,Y pos of 4 corners*
0 Add a 4 corners polygon primitive as box body*
4,1,4,$2,$3,$4,$5,$6,$7,$8,$9,$2,$3,0*
0 Add four circle primitives for the rounded corners*
1,1,$1+$1,$2,$3*
1,1,$1+$1,$4,$5*
1,1,$1+$1,$6,$7*
1,1,$1+$1,$8,$9*
0 Add four rect primitives between the rounded corners*
20,1,$1+$1,$2,$3,$4,$5,0*
20,1,$1+$1,$4,$5,$6,$7,0*
20,1,$1+$1,$6,$7,$8,$9,0*
20,1,$1+$1,$8,$9,$2,$3,0*%
G04 Aperture macros list end*
%TA.AperFunction,ComponentPad*%
%ADD10C,1.600000*%
%TD*%
%TA.AperFunction,ComponentPad*%
%ADD11C,1.930400*%
%TD*%
%TA.AperFunction,ComponentPad*%
%ADD12RoundRect,0.250000X-0.550000X-0.550000X0.550000X-0.550000X0.550000X0.550000X-0.550000X0.550000X0*%
%TD*%
%TA.AperFunction,ComponentPad*%
%ADD13RoundRect,0.250000X0.550000X0.550000X-0.550000X0.550000X-0.550000X-0.550000X0.550000X-0.550000X0*%
%TD*%
%TA.AperFunction,ComponentPad*%
%ADD14R,1.600000X1.600000*%
%TD*%
%TA.AperFunction,ComponentPad*%
%ADD15O,1.600000X1.600000*%
%TD*%
%TA.AperFunction,ComponentPad*%
%ADD16R,1.700000X1.700000*%
%TD*%
%TA.AperFunction,ComponentPad*%
%ADD17C,1.700000*%
%TD*%
%TA.AperFunction,ComponentPad*%
%ADD18RoundRect,0.250000X-0.600000X-0.725000X0.600000X-0.725000X0.600000X0.725000X-0.600000X0.725000X0*%
%TD*%
%TA.AperFunction,ComponentPad*%
%ADD19O,1.700000X1.950000*%
%TD*%
%TA.AperFunction,ComponentPad*%
%ADD20RoundRect,0.600000X1.400000X-1.400000X1.400000X1.400000X-1.400000X1.400000X-1.400000X-1.400000X0*%
%TD*%
%TA.AperFunction,ComponentPad*%
%ADD21C,2.400000*%
%TD*%
%TA.AperFunction,ComponentPad*%
%ADD22RoundRect,0.250001X0.949999X0.949999X-0.949999X0.949999X-0.949999X-0.949999X0.949999X-0.949999X0*%
%TD*%
%TA.AperFunction,ComponentPad*%
%ADD23RoundRect,0.760000X1.140000X1.140000X-1.140000X1.140000X-1.140000X-1.140000X1.140000X-1.140000X0*%
%TD*%
%TA.AperFunction,ComponentPad*%
%ADD24C,3.800000*%
%TD*%
%TA.AperFunction,ComponentPad*%
%ADD25RoundRect,0.250000X-0.550000X0.550000X-0.550000X-0.550000X0.550000X-0.550000X0.550000X0.550000X0*%
%TD*%
%TA.AperFunction,ComponentPad*%
%ADD26RoundRect,0.250000X0.550000X-0.550000X0.550000X0.550000X-0.550000X0.550000X-0.550000X-0.550000X0*%
%TD*%
%TA.AperFunction,ComponentPad*%
%ADD27C,2.200000*%
%TD*%
%TA.AperFunction,ViaPad*%
%ADD28C,1.600000*%
%TD*%
%TA.AperFunction,ViaPad*%
%ADD29C,1.200000*%
%TD*%
%TA.AperFunction,Conductor*%
%ADD30C,2.000000*%
%TD*%
%TA.AperFunction,Conductor*%
%ADD31C,1.000000*%
%TD*%
G04 APERTURE END LIST*
D10*
%TO.P,F1,2*%
%TO.N,+18V*%
X170875000Y-199000000D03*
%TO.P,F1,1*%
X193375000Y-199000000D03*
%TD*%
D11*
%TO.P,U5,1,GND*%
%TO.N,GND*%
X185027500Y-46138895D03*
%TO.P,U5,2,IN2*%
%TO.N,/5V*%
X185027500Y-38518895D03*
%TO.P,U5,3,IN1*%
X185027500Y-41058895D03*
%TO.P,U5,4,VM*%
%TO.N,+18V*%
X185027500Y-43598895D03*
%TD*%
%TO.P,U4,1,GND*%
%TO.N,GND*%
X126928000Y-83633370D03*
%TO.P,U4,2,IN2*%
%TO.N,/5V*%
X126928000Y-91253370D03*
%TO.P,U4,3,IN1*%
X126928000Y-88713370D03*
%TO.P,U4,4,VM*%
%TO.N,+18V*%
X126928000Y-86173370D03*
%TD*%
%TO.P,U6,1,GND*%
%TO.N,GND*%
X185027500Y-67638895D03*
%TO.P,U6,2,IN2*%
%TO.N,/5V*%
X185027500Y-60018895D03*
%TO.P,U6,3,IN1*%
X185027500Y-62558895D03*
%TO.P,U6,4,VM*%
%TO.N,+18V*%
X185027500Y-65098895D03*
%TD*%
%TO.P,U8,1,GND*%
%TO.N,GND*%
X185052500Y-89088895D03*
%TO.P,U8,2,IN2*%
%TO.N,/5V*%
X185052500Y-81468895D03*
%TO.P,U8,3,IN1*%
X185052500Y-84008895D03*
%TO.P,U8,4,VM*%
%TO.N,+18V*%
X185052500Y-86548895D03*
%TD*%
%TO.P,U2,1,GND*%
%TO.N,GND*%
X127000000Y-62133370D03*
%TO.P,U2,2,IN2*%
%TO.N,/5V*%
X127000000Y-69753370D03*
%TO.P,U2,3,IN1*%
X127000000Y-67213370D03*
%TO.P,U2,4,VM*%
%TO.N,+18V*%
X127000000Y-64673370D03*
%TD*%
%TO.P,U1,1,GND*%
%TO.N,GND*%
X126852500Y-40028895D03*
%TO.P,U1,2,IN2*%
%TO.N,/5V*%
X126852500Y-47648895D03*
%TO.P,U1,3,IN1*%
X126852500Y-45108895D03*
%TO.P,U1,4,VM*%
%TO.N,+18V*%
X126852500Y-42568895D03*
%TD*%
D12*
%TO.P,C20,1*%
%TO.N,/5V*%
X123880000Y-115140000D03*
D10*
%TO.P,C20,2*%
%TO.N,GND*%
X127380000Y-115140000D03*
%TD*%
D12*
%TO.P,C24,1*%
%TO.N,/5V*%
X98477349Y-116590000D03*
D10*
%TO.P,C24,2*%
%TO.N,GND*%
X101977349Y-116590000D03*
%TD*%
D13*
%TO.P,C15,1*%
%TO.N,/5V*%
X148855000Y-115190000D03*
D10*
%TO.P,C15,2*%
%TO.N,GND*%
X145355000Y-115190000D03*
%TD*%
D14*
%TO.P,A2,1,TX1*%
%TO.N,unconnected-(A2-TX1-Pad1)*%
X179600000Y-125766630D03*
D15*
%TO.P,A2,2,RX1*%
%TO.N,unconnected-(A2-RX1-Pad2)*%
X182140000Y-125766630D03*
%TO.P,A2,3,~{RESET}*%
%TO.N,unconnected-(A2-~{RESET}-Pad3)*%
X184680000Y-125766630D03*
%TO.P,A2,4,GND*%
%TO.N,GND*%
X187220000Y-125766630D03*
%TO.P,A2,5,D2*%
%TO.N,unconnected-(A2-D2-Pad5)*%
X189760000Y-125766630D03*
%TO.P,A2,6,D3*%
%TO.N,unconnected-(A2-D3-Pad6)*%
X192300000Y-125766630D03*
%TO.P,A2,7,D4*%
%TO.N,unconnected-(A2-D4-Pad7)*%
X194840000Y-125766630D03*
%TO.P,A2,8,D5*%
%TO.N,/5V*%
X197380000Y-125766630D03*
%TO.P,A2,9,D6*%
X199920000Y-125766630D03*
%TO.P,A2,10,D7*%
%TO.N,unconnected-(A2-D7-Pad10)*%
X202460000Y-125766630D03*
%TO.P,A2,11,D8*%
%TO.N,unconnected-(A2-D8-Pad11)*%
X205000000Y-125766630D03*
%TO.P,A2,12,D9*%
%TO.N,/5V*%
X207540000Y-125766630D03*
%TO.P,A2,13,D10*%
X210080000Y-125766630D03*
%TO.P,A2,14,MOSI*%
%TO.N,/SPI*%
X212620000Y-125766630D03*
%TO.P,A2,15,MISO*%
X215160000Y-125766630D03*
%TO.P,A2,16,SCK*%
%TO.N,unconnected-(A2-SCK-Pad16)*%
X215160000Y-110526630D03*
%TO.P,A2,17,3V3*%
%TO.N,unconnected-(A2-3V3-Pad17)*%
X212620000Y-110526630D03*
%TO.P,A2,18,AREF*%
%TO.N,unconnected-(A2-AREF-Pad18)*%
X210080000Y-110526630D03*
%TO.P,A2,19,A0*%
%TO.N,unconnected-(A2-A0-Pad19)*%
X207540000Y-110526630D03*
%TO.P,A2,20,A1*%
%TO.N,unconnected-(A2-A1-Pad20)*%
X205000000Y-110526630D03*
%TO.P,A2,21,A2*%
%TO.N,unconnected-(A2-A2-Pad21)*%
X202460000Y-110526630D03*
%TO.P,A2,22,A3*%
%TO.N,unconnected-(A2-A3-Pad22)*%
X199920000Y-110526630D03*
%TO.P,A2,23,SDA/A4*%
%TO.N,unconnected-(A2-SDA{slash}A4-Pad23)*%
X197380000Y-110526630D03*
%TO.P,A2,24,SCL/A5*%
%TO.N,unconnected-(A2-SCL{slash}A5-Pad24)*%
X194840000Y-110526630D03*
%TO.P,A2,25,A6*%
%TO.N,unconnected-(A2-A6-Pad25)*%
X192300000Y-110526630D03*
%TO.P,A2,26,A7*%
%TO.N,unconnected-(A2-A7-Pad26)*%
X189760000Y-110526630D03*
%TO.P,A2,27,+5V*%
%TO.N,unconnected-(A2-+5V-Pad27)*%
X187220000Y-110526630D03*
%TO.P,A2,28,~{RESET}*%
%TO.N,unconnected-(A2-~{RESET}-Pad28)*%
X184680000Y-110526630D03*
%TO.P,A2,29,GND*%
%TO.N,GND*%
X182140000Y-110526630D03*
%TO.P,A2,30,VIN*%
%TO.N,/5V*%
X179600000Y-110526630D03*
%TD*%
D16*
%TO.P,M4,1,PWM*%
%TO.N,/5V*%
X197040000Y-129180000D03*
D17*
%TO.P,M4,2,+*%
X197040000Y-131720000D03*
%TO.P,M4,3,-*%
%TO.N,GND*%
X197040000Y-134260000D03*
%TD*%
D16*
%TO.P,J4,1,Pin_1*%
%TO.N,/5V*%
X94170000Y-116640000D03*
D17*
%TO.P,J4,2,Pin_2*%
%TO.N,GND*%
X91630000Y-116640000D03*
%TD*%
D18*
%TO.P,J11,1,Pin_1*%
%TO.N,/5V*%
X208450000Y-101650000D03*
D19*
%TO.P,J11,2,Pin_2*%
%TO.N,/URAT*%
X210950000Y-101650000D03*
%TO.P,J11,3,Pin_3*%
X213450000Y-101650000D03*
%TO.P,J11,4,Pin_4*%
%TO.N,GND*%
X215950000Y-101650000D03*
%TO.P,J11,5,Pin_5*%
%TO.N,unconnected-(J11-Pin_5-Pad5)*%
X218450000Y-101650000D03*
%TD*%
D16*
%TO.P,M2,1,PWM*%
%TO.N,/5V*%
X206960000Y-129425000D03*
D17*
%TO.P,M2,2,+*%
X206960000Y-131965000D03*
%TO.P,M2,3,-*%
%TO.N,GND*%
X206960000Y-134505000D03*
%TD*%
D10*
%TO.P,C12,1*%
%TO.N,GND*%
X181000000Y-89083370D03*
%TO.P,C12,2*%
%TO.N,+18V*%
X181000000Y-86583370D03*
%TD*%
D16*
%TO.P,M1,1,PWM*%
%TO.N,/5V*%
X210735000Y-129350000D03*
D17*
%TO.P,M1,2,+*%
X210735000Y-131890000D03*
%TO.P,M1,3,-*%
%TO.N,GND*%
X210735000Y-134430000D03*
%TD*%
D16*
%TO.P,J7,1,Pin_1*%
%TO.N,GND*%
X103140000Y-55583370D03*
D17*
%TO.P,J7,2,Pin_2*%
%TO.N,/5V*%
X100600000Y-55583370D03*
%TO.P,J7,3,Pin_3*%
%TO.N,/DIGI*%
X98060000Y-55583370D03*
%TO.P,J7,4,Pin_4*%
X95520000Y-55583370D03*
%TD*%
D10*
%TO.P,C22,1*%
%TO.N,GND*%
X100750000Y-178590000D03*
%TO.P,C22,2*%
%TO.N,+18V*%
X98250000Y-178590000D03*
%TD*%
D16*
%TO.P,J8,1,Pin_1*%
%TO.N,GND*%
X216750000Y-45750000D03*
D17*
%TO.P,J8,2,Pin_2*%
%TO.N,/5V*%
X214210000Y-45750000D03*
%TO.P,J8,3,Pin_3*%
%TO.N,/DIGI*%
X211670000Y-45750000D03*
%TO.P,J8,4,Pin_4*%
X209130000Y-45750000D03*
%TD*%
D16*
%TO.P,J2,1,Pin_1*%
%TO.N,GND*%
X216800000Y-87633370D03*
D17*
%TO.P,J2,2,Pin_2*%
%TO.N,/5V*%
X214260000Y-87633370D03*
%TO.P,J2,3,Pin_3*%
%TO.N,/DIGI*%
X211720000Y-87633370D03*
%TO.P,J2,4,Pin_4*%
X209180000Y-87633370D03*
%TD*%
D10*
%TO.P,C11,1*%
%TO.N,GND*%
X130800000Y-40083370D03*
%TO.P,C11,2*%
%TO.N,+18V*%
X130800000Y-42583370D03*
%TD*%
D20*
%TO.P,U9,1,IN+*%
%TO.N,+18V*%
X98700000Y-174790000D03*
%TO.P,U9,2,IN-*%
%TO.N,GND*%
X117040000Y-174600000D03*
%TO.P,U9,3,OUT+*%
%TO.N,/5V*%
X98680000Y-126050000D03*
%TO.P,U9,4,OUT-*%
%TO.N,GND*%
X117360000Y-126050000D03*
%TD*%
D10*
%TO.P,C21,1*%
%TO.N,/5V*%
X123880000Y-121790000D03*
%TO.P,C21,2*%
%TO.N,GND*%
X126380000Y-121790000D03*
%TD*%
%TO.P,C9,1*%
%TO.N,GND*%
X131000000Y-62083370D03*
%TO.P,C9,2*%
%TO.N,+18V*%
X131000000Y-64583370D03*
%TD*%
%TO.P,C3,1*%
%TO.N,GND*%
X181200000Y-67533370D03*
%TO.P,C3,2*%
%TO.N,+18V*%
X181200000Y-65033370D03*
%TD*%
D16*
%TO.P,J5,1,Pin_1*%
%TO.N,GND*%
X94500000Y-99500000D03*
D17*
%TO.P,J5,2,Pin_2*%
%TO.N,/5V*%
X97040000Y-99500000D03*
%TO.P,J5,3,Pin_3*%
%TO.N,/DIGI*%
X99580000Y-99500000D03*
%TO.P,J5,4,Pin_4*%
X102120000Y-99500000D03*
%TD*%
D21*
%TO.P,C1,2*%
%TO.N,GND*%
X121030000Y-199190000D03*
D22*
%TO.P,C1,1*%
%TO.N,+18V*%
X126030000Y-199190000D03*
%TD*%
D10*
%TO.P,C18,1*%
%TO.N,GND*%
X122380000Y-178590000D03*
%TO.P,C18,2*%
%TO.N,+18V*%
X124880000Y-178590000D03*
%TD*%
D14*
%TO.P,A1,1,TX1*%
%TO.N,unconnected-(A1-TX1-Pad1)*%
X142907500Y-50737845D03*
D15*
%TO.P,A1,2,RX1*%
%TO.N,unconnected-(A1-RX1-Pad2)*%
X142907500Y-53277845D03*
%TO.P,A1,3,~{RESET}*%
%TO.N,unconnected-(A1-~{RESET}-Pad3)*%
X142907500Y-55817845D03*
%TO.P,A1,4,GND*%
%TO.N,GND*%
X142907500Y-58357845D03*
%TO.P,A1,5,D2*%
%TO.N,unconnected-(A1-D2-Pad5)*%
X142907500Y-60897845D03*
%TO.P,A1,6,D3*%
%TO.N,unconnected-(A1-D3-Pad6)*%
X142907500Y-63437845D03*
%TO.P,A1,7,D4*%
%TO.N,unconnected-(A1-D4-Pad7)*%
X142907500Y-65977845D03*
%TO.P,A1,8,D5*%
%TO.N,/5V*%
X142907500Y-68517845D03*
%TO.P,A1,9,D6*%
X142907500Y-71057845D03*
%TO.P,A1,10,D7*%
%TO.N,unconnected-(A1-D7-Pad10)*%
X142907500Y-73597845D03*
%TO.P,A1,11,D8*%
%TO.N,unconnected-(A1-D8-Pad11)*%
X142907500Y-76137845D03*
%TO.P,A1,12,D9*%
%TO.N,/5V*%
X142907500Y-78677845D03*
%TO.P,A1,13,D10*%
X142907500Y-81217845D03*
%TO.P,A1,14,MOSI*%
%TO.N,/SPI*%
X142907500Y-83757845D03*
%TO.P,A1,15,MISO*%
X142907500Y-86297845D03*
%TO.P,A1,16,SCK*%
%TO.N,unconnected-(A1-SCK-Pad16)*%
X158147500Y-86297845D03*
%TO.P,A1,17,3V3*%
%TO.N,unconnected-(A1-3V3-Pad17)*%
X158147500Y-83757845D03*
%TO.P,A1,18,AREF*%
%TO.N,unconnected-(A1-AREF-Pad18)*%
X158147500Y-81217845D03*
%TO.P,A1,19,A0*%
%TO.N,/DIGI*%
X158147500Y-78677845D03*
%TO.P,A1,20,A1*%
X158147500Y-76137845D03*
%TO.P,A1,21,A2*%
X158147500Y-73597845D03*
%TO.P,A1,22,A3*%
X158147500Y-71057845D03*
%TO.P,A1,23,SDA/A4*%
X158147500Y-68517845D03*
%TO.P,A1,24,SCL/A5*%
X158147500Y-65977845D03*
%TO.P,A1,25,A6*%
X158147500Y-63437845D03*
%TO.P,A1,26,A7*%
X158147500Y-60897845D03*
%TO.P,A1,27,+5V*%
%TO.N,/5V*%
X158147500Y-58357845D03*
%TO.P,A1,28,~{RESET}*%
%TO.N,unconnected-(A1-~{RESET}-Pad28)*%
X158147500Y-55817845D03*
%TO.P,A1,29,GND*%
%TO.N,GND*%
X158147500Y-53277845D03*
%TO.P,A1,30,VIN*%
%TO.N,unconnected-(A1-VIN-Pad30)*%
X158147500Y-50737845D03*
%TD*%
D10*
%TO.P,C14,1*%
%TO.N,/5V*%
X148800000Y-121990000D03*
%TO.P,C14,2*%
%TO.N,GND*%
X151300000Y-121990000D03*
%TD*%
%TO.P,C7,1*%
%TO.N,GND*%
X131000000Y-83733370D03*
%TO.P,C7,2*%
%TO.N,+18V*%
X131000000Y-86233370D03*
%TD*%
D23*
%TO.P,J14,1,Pin_1*%
%TO.N,GND*%
X205700000Y-198900000D03*
D24*
%TO.P,J14,2,Pin_2*%
%TO.N,+18V*%
X200700000Y-198900000D03*
%TD*%
D17*
%TO.P,SW1,3,C*%
%TO.N,unconnected-(SW1-C-Pad3)*%
X136750000Y-204330000D03*
%TO.P,SW1,2,B*%
%TO.N,+18V*%
X136750000Y-201790000D03*
D16*
%TO.P,SW1,1,A*%
X136750000Y-199250000D03*
%TD*%
%TO.P,J13,1,Pin_1*%
%TO.N,/URAT*%
X213470000Y-96800000D03*
D17*
%TO.P,J13,2,Pin_2*%
X210930000Y-96800000D03*
%TD*%
D20*
%TO.P,U3,1,IN+*%
%TO.N,+18V*%
X149040000Y-174730000D03*
%TO.P,U3,2,IN-*%
%TO.N,GND*%
X167380000Y-174540000D03*
%TO.P,U3,3,OUT+*%
%TO.N,/5V*%
X149020000Y-125990000D03*
%TO.P,U3,4,OUT-*%
%TO.N,GND*%
X167700000Y-125990000D03*
%TD*%
D10*
%TO.P,C17,1*%
%TO.N,GND*%
X146880000Y-178790000D03*
%TO.P,C17,2*%
%TO.N,+18V*%
X149380000Y-178790000D03*
%TD*%
%TO.P,C25,1*%
%TO.N,/5V*%
X98630000Y-122390000D03*
%TO.P,C25,2*%
%TO.N,GND*%
X101130000Y-122390000D03*
%TD*%
D20*
%TO.P,U10,1,IN+*%
%TO.N,+18V*%
X123800000Y-174680000D03*
%TO.P,U10,2,IN-*%
%TO.N,GND*%
X142140000Y-174490000D03*
%TO.P,U10,3,OUT+*%
%TO.N,/5V*%
X123780000Y-125940000D03*
%TO.P,U10,4,OUT-*%
%TO.N,GND*%
X142460000Y-125940000D03*
%TD*%
D16*
%TO.P,M3,1,PWM*%
%TO.N,/5V*%
X200630000Y-129200000D03*
D17*
%TO.P,M3,2,+*%
X200630000Y-131740000D03*
%TO.P,M3,3,-*%
%TO.N,GND*%
X200630000Y-134280000D03*
%TD*%
D10*
%TO.P,C5,1*%
%TO.N,GND*%
X181200000Y-46083370D03*
%TO.P,C5,2*%
%TO.N,+18V*%
X181200000Y-43583370D03*
%TD*%
D25*
%TO.P,C10,1*%
%TO.N,GND*%
X136500000Y-39500000D03*
D10*
%TO.P,C10,2*%
%TO.N,+18V*%
X136500000Y-43000000D03*
%TD*%
D26*
%TO.P,C13,1*%
%TO.N,GND*%
X174800000Y-90000000D03*
D10*
%TO.P,C13,2*%
%TO.N,+18V*%
X174800000Y-86500000D03*
%TD*%
D26*
%TO.P,C2,1*%
%TO.N,GND*%
X175500000Y-68500000D03*
D10*
%TO.P,C2,2*%
%TO.N,+18V*%
X175500000Y-65000000D03*
%TD*%
D25*
%TO.P,C8,1*%
%TO.N,GND*%
X137000000Y-62000000D03*
D10*
%TO.P,C8,2*%
%TO.N,+18V*%
X137000000Y-65500000D03*
%TD*%
D26*
%TO.P,C4,1*%
%TO.N,GND*%
X175500000Y-46500000D03*
D10*
%TO.P,C4,2*%
%TO.N,+18V*%
X175500000Y-43000000D03*
%TD*%
D12*
%TO.P,C16,1*%
%TO.N,GND*%
X146500000Y-185000000D03*
D10*
%TO.P,C16,2*%
%TO.N,+18V*%
X150000000Y-185000000D03*
%TD*%
D13*
%TO.P,C23,1*%
%TO.N,GND*%
X101000000Y-184500000D03*
D10*
%TO.P,C23,2*%
%TO.N,+18V*%
X97500000Y-184500000D03*
%TD*%
D12*
%TO.P,C19,1*%
%TO.N,GND*%
X121000000Y-184390000D03*
D10*
%TO.P,C19,2*%
%TO.N,+18V*%
X124500000Y-184390000D03*
%TD*%
D25*
%TO.P,C6,1*%
%TO.N,GND*%
X136500000Y-83000000D03*
D10*
%TO.P,C6,2*%
%TO.N,+18V*%
X136500000Y-86500000D03*
%TD*%
D27*
%TO.P,TH1,2*%
%TO.N,+18V*%
X165000000Y-199000000D03*
%TO.P,TH1,1*%
X155000000Y-199000000D03*
%TD*%
D28*
%TO.N,GND*%
X206950000Y-136860000D03*
X141000000Y-56950000D03*
X117540000Y-182490000D03*
X136550000Y-36950000D03*
X131050000Y-81540000D03*
X172500000Y-93000000D03*
X143130000Y-118640000D03*
X124250000Y-83600000D03*
X104255000Y-113015000D03*
X139150000Y-39900000D03*
X118250000Y-205450000D03*
X177200000Y-67750000D03*
X112130000Y-173680000D03*
X142380000Y-121890000D03*
X215300000Y-104100000D03*
X177000000Y-93000000D03*
X167630000Y-122140000D03*
X217600000Y-104150000D03*
X126950000Y-59450000D03*
X130130000Y-118390000D03*
X126700000Y-37450000D03*
X185250000Y-48800000D03*
X129630000Y-111390000D03*
X197050000Y-136640000D03*
X91650000Y-113750000D03*
X141630000Y-115140000D03*
X178300000Y-48600000D03*
X139380000Y-178390000D03*
X128630000Y-121890000D03*
X127000000Y-81050000D03*
X113880000Y-178390000D03*
X181500000Y-92000000D03*
X182150000Y-107900000D03*
X124500000Y-62150000D03*
D29*
X160250000Y-53250000D03*
D28*
X163130000Y-126140000D03*
X153880000Y-122140000D03*
X133750000Y-37000000D03*
X104630000Y-182390000D03*
X91550000Y-119350000D03*
X210750000Y-136750000D03*
X116630000Y-170180000D03*
X119520000Y-178610000D03*
X117380000Y-129890000D03*
X187500000Y-46150000D03*
X178300000Y-46400000D03*
X142380000Y-129890000D03*
X181300000Y-48500000D03*
X104380000Y-187390000D03*
X103380000Y-122390000D03*
X138500000Y-79250000D03*
X144540000Y-178830000D03*
X104755000Y-120015000D03*
X115990000Y-198930000D03*
X137880000Y-125890000D03*
X117380000Y-121890000D03*
D29*
X216750000Y-90000000D03*
D28*
X124200000Y-81150000D03*
X112880000Y-125890000D03*
X103130000Y-178640000D03*
X167130000Y-170140000D03*
X142630000Y-111640000D03*
D29*
X95000000Y-97500000D03*
D28*
X207500000Y-203000000D03*
X142650000Y-187110000D03*
X139050000Y-83350000D03*
X170350000Y-67800000D03*
X141910000Y-170180000D03*
X139250000Y-37050000D03*
D29*
X216750000Y-47800000D03*
D28*
X164380000Y-178350000D03*
X187200000Y-128150000D03*
X175550000Y-49000000D03*
X133700000Y-39650000D03*
X88920000Y-116690000D03*
X124400000Y-59600000D03*
X200620000Y-136600000D03*
X137410000Y-173680000D03*
X210000000Y-200500000D03*
X105755000Y-116515000D03*
X131130000Y-114890000D03*
X179500000Y-91000000D03*
X167630000Y-130140000D03*
X162630000Y-173640000D03*
X210000000Y-197000000D03*
X142560000Y-182710000D03*
X118250000Y-193710000D03*
X124350000Y-40000000D03*
D29*
X103150000Y-57400000D03*
D28*
X182950000Y-67650000D03*
X131050000Y-59800000D03*
X130750000Y-37650000D03*
X207500000Y-195000000D03*
X178950000Y-67750000D03*
X117630000Y-186890000D03*
%TO.N,/SPI*%
X152000000Y-95600000D03*
X148800000Y-89650000D03*
X146650000Y-90000000D03*
X153600000Y-94500000D03*
%TO.N,/5V*%
X168200000Y-68334370D03*
X148150000Y-50600000D03*
D29*
X140750000Y-66500000D03*
D28*
X152700000Y-54800000D03*
X209350000Y-50550000D03*
X202150000Y-50600000D03*
X168000000Y-48950000D03*
X168250000Y-77000000D03*
D29*
X160750000Y-47750000D03*
X156750000Y-44250000D03*
X138750000Y-69250000D03*
X138000000Y-72500000D03*
X163000000Y-89250000D03*
X163500000Y-44250000D03*
D28*
X163650000Y-53350000D03*
D29*
X144792672Y-76792672D03*
%TO.N,/DIGI*%
X167000000Y-81250000D03*
X144750000Y-69250000D03*
X160750000Y-93000000D03*
X151750000Y-73750000D03*
X146250000Y-68500000D03*
X160750000Y-91500000D03*
X165250000Y-83161522D03*
X151250000Y-71750000D03*
%TD*%
D30*
%TO.N,+18V*%
X134431000Y-67602370D02*
X134431000Y-80569000D01*
X134431000Y-80569000D02*
X134000000Y-81000000D01*
X134000000Y-85983370D02*
X134250000Y-86233370D01*
X134000000Y-81000000D02*
X134000000Y-85983370D01*
X193375000Y-199000000D02*
X200600000Y-199000000D01*
X200600000Y-199000000D02*
X200700000Y-198900000D01*
X165000000Y-199000000D02*
X170875000Y-199000000D01*
X136750000Y-199250000D02*
X154750000Y-199250000D01*
X154750000Y-199250000D02*
X155000000Y-199000000D01*
X137000000Y-199000000D02*
X136750000Y-199250000D01*
X126030000Y-199190000D02*
X126030000Y-190890000D01*
%TO.N,/5V*%
X123880000Y-115140000D02*
X123880000Y-113620000D01*
X123880000Y-113620000D02*
X135850000Y-101650000D01*
X135850000Y-101650000D02*
X179600000Y-101650000D01*
%TO.N,+18V*%
X149040000Y-178450000D02*
X149380000Y-178790000D01*
X124880000Y-178590000D02*
X124880000Y-175760000D01*
X185011975Y-43583370D02*
X185027500Y-43598895D01*
X136600000Y-65433370D02*
X135516685Y-66516685D01*
X130940000Y-86173370D02*
X131000000Y-86233370D01*
X136552651Y-86233370D02*
X136800000Y-86480719D01*
X149040000Y-174730000D02*
X149040000Y-178450000D01*
X127000000Y-64673370D02*
X130910000Y-64673370D01*
X98250000Y-175240000D02*
X98700000Y-174790000D01*
X97700000Y-179140000D02*
X98250000Y-178590000D01*
X131000000Y-64583370D02*
X133750000Y-64583370D01*
X175600000Y-43186021D02*
X174313979Y-43186021D01*
X174313979Y-43186021D02*
X172650000Y-44850000D01*
X133750000Y-64750000D02*
X135516685Y-66516685D01*
X130785525Y-42568895D02*
X130800000Y-42583370D01*
X98250000Y-178590000D02*
X98250000Y-175240000D01*
X149300000Y-178870000D02*
X149380000Y-178790000D01*
X97700000Y-187820000D02*
X97700000Y-184390000D01*
X181200000Y-43583370D02*
X185011975Y-43583370D01*
X124477349Y-184390000D02*
X124477349Y-190737349D01*
X136750000Y-201790000D02*
X128630000Y-201790000D01*
X136400000Y-43133370D02*
X136400000Y-57800000D01*
X146630000Y-190890000D02*
X149300000Y-188220000D01*
X97700000Y-184390000D02*
X97700000Y-179140000D01*
X124630000Y-190890000D02*
X109000000Y-190890000D01*
X175200000Y-64833370D02*
X181000000Y-64833370D01*
X181200000Y-65033370D02*
X184961975Y-65033370D01*
X180802651Y-86386021D02*
X181000000Y-86583370D01*
X136800000Y-86480719D02*
X136800000Y-97601000D01*
X136800000Y-97601000D02*
X124299000Y-97601000D01*
X175600000Y-43186021D02*
X180802651Y-43186021D01*
X172600000Y-84186021D02*
X174800000Y-86386021D01*
X135516685Y-66516685D02*
X134431000Y-67602370D01*
X124299000Y-97601000D02*
X108850000Y-113050000D01*
X100630000Y-190890000D02*
X97630000Y-187890000D01*
X135850000Y-42583370D02*
X136400000Y-43133370D01*
X126030000Y-190890000D02*
X146630000Y-190890000D01*
X124880000Y-175760000D02*
X123800000Y-174680000D01*
X174800000Y-86386021D02*
X180802651Y-86386021D01*
X184961975Y-65033370D02*
X185027500Y-65098895D01*
X134250000Y-86233370D02*
X136552651Y-86233370D01*
X108850000Y-113050000D02*
X108850000Y-190740000D01*
X175200000Y-64833370D02*
X173966630Y-64833370D01*
X134431000Y-67602370D02*
X134431000Y-65431000D01*
X124477349Y-190737349D02*
X124630000Y-190890000D01*
X127000000Y-86173370D02*
X130940000Y-86173370D01*
X172650000Y-63800000D02*
X173683370Y-64833370D01*
X163585021Y-97601000D02*
X136800000Y-97601000D01*
X172650000Y-44850000D02*
X172650000Y-63800000D01*
X133750000Y-60450000D02*
X133750000Y-64583370D01*
X180802651Y-43186021D02*
X181200000Y-43583370D01*
X97630000Y-187890000D02*
X97700000Y-187820000D01*
X185018025Y-86583370D02*
X185052500Y-86548895D01*
X124477349Y-178992651D02*
X124880000Y-178590000D01*
X126852500Y-42568895D02*
X130785525Y-42568895D01*
X181000000Y-64833370D02*
X181200000Y-65033370D01*
X108850000Y-190740000D02*
X109000000Y-190890000D01*
X128630000Y-201790000D02*
X126030000Y-199190000D01*
X135750000Y-64583370D02*
X136600000Y-65433370D01*
X134431000Y-65431000D02*
X133750000Y-64750000D01*
X174800000Y-86386021D02*
X163585021Y-97601000D01*
X131000000Y-86233370D02*
X134250000Y-86233370D01*
X126030000Y-190890000D02*
X124630000Y-190890000D01*
X133750000Y-64583370D02*
X133750000Y-64750000D01*
X173683370Y-64833370D02*
X175200000Y-64833370D01*
X133750000Y-64583370D02*
X135750000Y-64583370D01*
X181000000Y-86583370D02*
X185018025Y-86583370D01*
X149300000Y-188220000D02*
X149300000Y-184790000D01*
X172600000Y-66200000D02*
X172600000Y-84186021D01*
X124477349Y-184390000D02*
X124477349Y-178992651D01*
X130800000Y-42583370D02*
X135850000Y-42583370D01*
X130910000Y-64673370D02*
X131000000Y-64583370D01*
X149300000Y-184790000D02*
X149300000Y-178870000D01*
X136400000Y-57800000D02*
X133750000Y-60450000D01*
X173966630Y-64833370D02*
X172600000Y-66200000D01*
X109000000Y-190890000D02*
X100630000Y-190890000D01*
D31*
%TO.N,/SPI*%
X148800000Y-89700000D02*
X153600000Y-94500000D01*
X148800000Y-89650000D02*
X148800000Y-89700000D01*
X146650000Y-90000000D02*
X146650000Y-90250000D01*
X146650000Y-90250000D02*
X152000000Y-95600000D01*
D30*
%TO.N,/5V*%
X123780000Y-125940000D02*
X123780000Y-121890000D01*
D31*
X138750000Y-69500000D02*
X138750000Y-69250000D01*
X160750000Y-47750000D02*
X157250000Y-44250000D01*
D30*
X173750000Y-121500000D02*
X173750000Y-128500000D01*
X197040000Y-131720000D02*
X210565000Y-131720000D01*
X148855000Y-115190000D02*
X167440000Y-115190000D01*
D31*
X138750000Y-69250000D02*
X140750000Y-67250000D01*
D30*
X179600000Y-110526630D02*
X179600000Y-101650000D01*
X176470000Y-131720000D02*
X197040000Y-131720000D01*
X98630000Y-122390000D02*
X98630000Y-116742651D01*
X148800000Y-121990000D02*
X148800000Y-115245000D01*
X149020000Y-122210000D02*
X148800000Y-121990000D01*
D31*
X168200000Y-68334370D02*
X168200000Y-76950000D01*
D30*
X98680000Y-122440000D02*
X98630000Y-122390000D01*
X123880000Y-121790000D02*
X123880000Y-115140000D01*
X98630000Y-116742651D02*
X98477349Y-116590000D01*
D31*
X138750000Y-71750000D02*
X138750000Y-69500000D01*
X209300000Y-50600000D02*
X209350000Y-50550000D01*
X163650000Y-53350000D02*
X163650000Y-53300000D01*
D30*
X179600000Y-101650000D02*
X208450000Y-101650000D01*
D31*
X168200000Y-76950000D02*
X168250000Y-77000000D01*
X157250000Y-44250000D02*
X156750000Y-44250000D01*
X157250000Y-89250000D02*
X144792672Y-76792672D01*
X138000000Y-72500000D02*
X138750000Y-71750000D01*
D30*
X173500000Y-128750000D02*
X176470000Y-131720000D01*
D31*
X152700000Y-54800000D02*
X152350000Y-54800000D01*
X163000000Y-89250000D02*
X157250000Y-89250000D01*
D30*
X210565000Y-131720000D02*
X210735000Y-131890000D01*
D31*
X202150000Y-50600000D02*
X209300000Y-50600000D01*
X140750000Y-67250000D02*
X140750000Y-66500000D01*
D30*
X123780000Y-121890000D02*
X123880000Y-121790000D01*
X98695000Y-116640000D02*
X94170000Y-116640000D01*
X98680000Y-126050000D02*
X98680000Y-122440000D01*
D31*
X163650000Y-53300000D02*
X168000000Y-48950000D01*
D30*
X148800000Y-115245000D02*
X148855000Y-115190000D01*
D31*
X163500000Y-44250000D02*
X157250000Y-44250000D01*
D30*
X167440000Y-115190000D02*
X173750000Y-121500000D01*
X173750000Y-128500000D02*
X173500000Y-128750000D01*
X149020000Y-125990000D02*
X149020000Y-122210000D01*
D31*
X152350000Y-54800000D02*
X148150000Y-50600000D01*
%TO.N,/DIGI*%
X146250000Y-68500000D02*
X148000000Y-68500000D01*
X162589892Y-91500000D02*
X160750000Y-91500000D01*
X148000000Y-68500000D02*
X151250000Y-71750000D01*
X167000000Y-81250000D02*
X167000000Y-90000000D01*
X165250000Y-88839892D02*
X162589892Y-91500000D01*
X144750000Y-69250000D02*
X144750000Y-70500000D01*
X165250000Y-83161522D02*
X165250000Y-88839892D01*
X150250000Y-73750000D02*
X151750000Y-73750000D01*
X144750000Y-70500000D02*
X145250000Y-71000000D01*
X167000000Y-90000000D02*
X164000000Y-93000000D01*
X164000000Y-93000000D02*
X160750000Y-93000000D01*
X147500000Y-71000000D02*
X150250000Y-73750000D01*
X145250000Y-71000000D02*
X147500000Y-71000000D01*
%TD*%
M02*
