M48
; DRILL file {KiCad 9.0.6} date 2026-04-13T16:26:12+0200
; FORMAT={-:-/ absolute / metric / decimal}
; #@! TF.CreationDate,2026-04-13T16:26:12+02:00
; #@! TF.GenerationSoftware,Kicad,Pcbnew,9.0.6
; #@! TF.FileFunction,Plated,1,4,PTH
FMAT,2
METRIC
; #@! TA.AperFunction,Plated,PTH,ComponentDrill
T1C0.203
; #@! TA.AperFunction,Plated,PTH,ViaDrill
T2C0.300
; #@! TA.AperFunction,Plated,PTH,ViaDrill
T3C0.400
; #@! TA.AperFunction,Plated,PTH,ComponentDrill
T4C0.750
; #@! TA.AperFunction,Plated,PTH,ComponentDrill
T5C0.800
; #@! TA.AperFunction,Plated,PTH,ComponentDrill
T6C0.950
; #@! TA.AperFunction,Plated,PTH,ComponentDrill
T7C1.000
; #@! TA.AperFunction,Plated,PTH,ComponentDrill
T8C1.150
; #@! TA.AperFunction,Plated,PTH,ComponentDrill
T9C1.200
; #@! TA.AperFunction,Plated,PTH,ComponentDrill
T10C1.300
; #@! TA.AperFunction,Plated,PTH,ComponentDrill
T11C1.549
; #@! TA.AperFunction,Plated,PTH,ComponentDrill
T12C1.600
%
G90
G05
T1
X135.15Y-144.0
X135.15Y-144.905
X135.642Y-130.025
X136.095Y-129.05
X136.095Y-131.0
X136.125Y-143.547
X136.125Y-144.452
X136.125Y-145.357
X136.547Y-130.025
X137.0Y-129.05
X137.0Y-131.0
X137.1Y-144.0
X137.1Y-144.905
X137.452Y-130.025
T2
X88.0Y-40.0
X90.0Y-165.0
X92.5Y-43.0
X98.3Y-123.3
X103.0Y-39.5
X103.0Y-43.0
X104.943Y-165.943
X114.2Y-43.0
X117.424Y-165.424
X117.946Y-163.946
X118.0Y-40.0
X120.001Y-124.432
X125.0Y-113.8
X127.9Y-122.6
X132.449Y-165.0
X134.3Y-145.0
X134.5Y-132.0
X134.676Y-127.124
X138.3Y-97.2
X138.601Y-154.3
X139.1Y-145.4
X139.15Y-144.35
X148.981Y-139.991
T3
X64.0Y-151.0
X64.0Y-152.0
X64.0Y-153.0
X64.0Y-154.0
X64.0Y-155.0
X65.0Y-45.0
X65.0Y-50.0
X65.0Y-55.0
X65.0Y-60.0
X65.0Y-65.0
X65.0Y-70.0
X65.0Y-75.0
X65.0Y-80.0
X65.0Y-85.0
X65.0Y-90.0
X65.0Y-95.0
X65.0Y-100.0
X65.0Y-105.0
X65.0Y-130.0
X65.0Y-135.0
X65.0Y-140.0
X65.0Y-145.0
X65.0Y-151.0
X65.0Y-152.0
X65.0Y-153.0
X65.0Y-154.0
X65.0Y-155.0
X66.0Y-151.0
X66.0Y-152.0
X66.0Y-153.0
X66.0Y-154.0
X66.0Y-155.0
X67.0Y-152.0
X70.0Y-45.0
X70.0Y-50.0
X70.0Y-55.0
X70.0Y-60.0
X70.0Y-65.0
X70.0Y-70.0
X70.0Y-75.0
X70.0Y-80.0
X70.0Y-85.0
X70.0Y-90.0
X70.0Y-95.0
X70.0Y-100.0
X70.0Y-105.0
X70.0Y-135.0
X70.0Y-140.0
X71.46Y-38.0
X71.46Y-39.0
X71.46Y-40.0
X71.46Y-41.0
X71.46Y-42.0
X72.46Y-38.0
X72.46Y-42.0
X73.46Y-38.0
X73.46Y-42.0
X74.0Y-142.0
X74.0Y-143.0
X74.0Y-144.0
X74.0Y-145.0
X74.0Y-146.0
X74.46Y-38.0
X74.46Y-42.0
X75.0Y-45.0
X75.0Y-50.0
X75.0Y-55.0
X75.0Y-60.0
X75.0Y-65.0
X75.0Y-70.0
X75.0Y-75.0
X75.0Y-80.0
X75.0Y-85.0
X75.0Y-90.0
X75.0Y-95.0
X75.0Y-100.0
X75.0Y-105.0
X75.0Y-110.0
X75.0Y-115.0
X75.0Y-142.0
X75.0Y-143.0
X75.0Y-144.0
X75.0Y-145.0
X75.0Y-146.0
X75.0Y-165.0
X76.0Y-142.0
X76.0Y-146.0
X76.5Y-128.5
X77.0Y-142.0
X77.0Y-146.0
X78.0Y-142.0
X78.0Y-146.0
X80.0Y-45.0
X80.0Y-50.0
X80.0Y-55.0
X80.0Y-60.0
X80.0Y-65.0
X80.0Y-70.0
X80.0Y-75.0
X80.0Y-80.0
X80.0Y-85.0
X80.0Y-90.0
X80.0Y-95.0
X80.0Y-100.0
X80.0Y-105.0
X80.0Y-110.0
X80.0Y-115.0
X82.0Y-165.0
X83.0Y-163.0
X83.0Y-165.0
X84.0Y-163.0
X84.0Y-164.0
X84.0Y-165.0
X85.0Y-45.0
X85.0Y-50.0
X85.0Y-55.0
X85.0Y-60.0
X85.0Y-65.0
X85.0Y-70.0
X85.0Y-75.0
X85.0Y-80.0
X85.0Y-85.0
X85.0Y-90.0
X85.0Y-95.0
X85.0Y-100.0
X85.0Y-105.0
X85.0Y-110.0
X85.0Y-115.0
X85.0Y-135.0
X85.0Y-140.0
X85.0Y-145.0
X85.0Y-150.0
X85.0Y-155.5
X85.0Y-160.0
X85.0Y-165.0
X89.0Y-126.5
X90.0Y-45.0
X90.0Y-50.0
X90.0Y-55.0
X90.0Y-60.0
X90.0Y-65.0
X90.0Y-70.0
X90.0Y-75.0
X90.0Y-80.0
X90.0Y-85.0
X90.0Y-90.0
X90.0Y-95.0
X90.0Y-100.0
X90.0Y-105.0
X90.0Y-110.0
X90.0Y-115.0
X90.0Y-135.0
X90.0Y-140.0
X90.0Y-145.0
X90.0Y-150.0
X90.0Y-155.5
X90.0Y-160.0
X90.346Y-125.851
X91.056Y-126.555
X93.346Y-130.346
X93.817Y-167.476
X94.596Y-129.096
X95.0Y-40.0
X95.0Y-45.0
X95.0Y-50.0
X95.0Y-55.0
X95.0Y-60.0
X95.0Y-65.0
X95.0Y-70.0
X95.0Y-75.0
X95.0Y-80.0
X95.0Y-85.0
X95.0Y-90.0
X95.0Y-95.0
X95.0Y-100.0
X95.0Y-105.0
X95.0Y-110.0
X95.0Y-115.0
X95.0Y-135.0
X95.0Y-140.0
X95.0Y-145.0
X95.0Y-150.5
X95.0Y-155.5
X95.0Y-160.0
X95.596Y-128.096
X95.817Y-167.476
X96.0Y-166.0
X97.0Y-42.0
X97.0Y-166.0
X100.0Y-45.0
X100.0Y-50.0
X100.0Y-55.0
X100.0Y-60.0
X100.0Y-65.0
X100.0Y-70.0
X100.0Y-75.0
X100.0Y-80.0
X100.0Y-85.0
X100.0Y-90.0
X100.0Y-95.0
X100.0Y-100.0
X100.0Y-105.0
X100.0Y-110.0
X100.0Y-115.0
X100.0Y-130.0
X100.0Y-135.0
X100.0Y-140.0
X100.0Y-145.0
X100.0Y-150.5
X100.0Y-155.5
X100.0Y-160.0
X105.0Y-50.0
X105.0Y-55.0
X105.0Y-60.0
X105.0Y-65.0
X105.0Y-70.0
X105.0Y-75.0
X105.0Y-80.0
X105.0Y-85.0
X105.0Y-90.0
X105.0Y-95.0
X105.0Y-100.0
X105.0Y-105.0
X105.0Y-130.0
X105.0Y-135.0
X105.0Y-140.0
X105.0Y-145.0
X105.0Y-150.5
X105.0Y-155.5
X110.0Y-55.0
X110.0Y-60.0
X110.0Y-65.0
X110.0Y-70.0
X110.0Y-75.0
X110.0Y-80.0
X110.0Y-85.0
X110.0Y-90.0
X110.0Y-95.0
X110.0Y-100.0
X110.0Y-105.0
X110.0Y-135.0
X110.0Y-140.0
X110.0Y-145.0
X113.0Y-162.4
X114.433Y-162.4
X115.0Y-55.0
X115.0Y-60.0
X115.0Y-65.0
X115.0Y-70.0
X115.0Y-75.0
X115.0Y-80.0
X115.0Y-85.0
X115.0Y-90.0
X115.0Y-95.0
X115.9Y-118.2
X116.8Y-113.8
X117.946Y-149.5
X117.946Y-159.0
X120.0Y-55.0
X120.0Y-60.0
X120.0Y-65.0
X120.0Y-70.0
X120.0Y-75.0
X120.0Y-80.0
X120.0Y-85.0
X120.0Y-90.0
X120.0Y-95.0
X122.0Y-121.0
X122.0Y-123.0
X123.0Y-121.0
X123.829Y-167.538
X124.0Y-121.0
X125.0Y-55.0
X125.0Y-60.0
X125.0Y-65.0
X125.0Y-70.0
X125.0Y-75.0
X125.0Y-80.0
X125.0Y-85.0
X125.0Y-90.0
X125.0Y-95.0
X125.0Y-100.0
X125.829Y-167.538
X127.0Y-129.0
X127.0Y-129.7
X127.0Y-130.7
X127.0Y-132.7
X127.0Y-133.7
X127.0Y-142.0
X128.0Y-129.0
X128.0Y-133.7
X128.5Y-42.0
X128.5Y-157.5
X129.0Y-129.0
X130.0Y-50.0
X130.0Y-55.0
X130.0Y-60.0
X130.0Y-65.0
X130.0Y-70.0
X130.0Y-75.0
X130.0Y-80.0
X130.0Y-85.0
X130.0Y-90.0
X130.0Y-95.0
X130.0Y-100.0
X130.0Y-129.0
X130.0Y-130.0
X130.534Y-153.897
X130.803Y-159.5
X130.827Y-158.203
X131.494Y-155.989
X132.0Y-120.0
X132.5Y-169.0
X132.628Y-158.502
X132.652Y-107.0
X133.0Y-150.5
X134.391Y-153.891
X135.0Y-50.0
X135.0Y-55.0
X135.0Y-60.0
X135.0Y-65.0
X135.0Y-70.0
X135.0Y-75.0
X135.0Y-80.0
X135.0Y-85.0
X135.0Y-90.0
X135.0Y-95.0
X135.0Y-124.0
X135.0Y-125.0
X135.0Y-156.0
X135.178Y-164.273
X136.0Y-162.5
X136.0Y-36.0
X136.0Y-120.0
X136.0Y-123.0
X136.0Y-155.5
X136.0Y-167.549
X136.073Y-150.475
X136.551Y-153.0
X137.0Y-36.0
X137.0Y-123.0
X137.0Y-162.5
X137.109Y-157.506
X137.475Y-166.517
X137.748Y-149.8
X137.748Y-150.748
X138.0Y-36.0
X138.0Y-123.0
X138.0Y-162.2
X138.23Y-157.638
X139.0Y-158.499
X139.5Y-162.2
X139.574Y-137.564
X140.0Y-55.0
X140.0Y-60.0
X140.0Y-65.0
X140.0Y-70.0
X140.0Y-75.0
X140.0Y-80.0
X140.0Y-85.0
X140.0Y-90.0
X140.0Y-95.0
X140.0Y-105.0
X140.0Y-108.5
X140.0Y-142.5
X140.0Y-149.0
X141.0Y-36.0
X141.0Y-114.0
X141.0Y-126.88
X141.0Y-134.0
X141.543Y-141.494
X142.0Y-36.0
X142.0Y-107.0
X142.0Y-162.888
X142.047Y-158.0
X142.5Y-111.0
X143.0Y-36.0
X143.0Y-120.0
X143.0Y-142.0
X143.8Y-162.2
X144.019Y-139.991
X144.5Y-141.5
X145.0Y-55.0
X145.0Y-60.0
X145.0Y-65.0
X145.0Y-70.0
X145.0Y-75.0
X145.0Y-80.0
X145.0Y-85.0
X145.0Y-90.0
X145.0Y-95.0
X145.0Y-105.0
X145.0Y-166.9
X145.019Y-139.991
X145.953Y-136.0
X146.0Y-120.0
X146.0Y-135.0
X146.5Y-142.0
X147.0Y-139.991
X148.0Y-139.991
X148.48Y-43.38
X148.925Y-136.0
X149.48Y-43.38
X149.953Y-139.991
X150.0Y-55.0
X150.0Y-60.0
X150.0Y-65.0
X150.0Y-70.0
X150.0Y-75.0
X150.0Y-80.0
X150.0Y-85.0
X150.0Y-90.0
X150.0Y-95.0
X150.0Y-134.329
X150.0Y-156.0
X150.253Y-138.328
X150.48Y-43.38
X150.5Y-141.701
X150.906Y-117.991
X150.953Y-139.991
X150.962Y-158.0
X151.0Y-120.0
X151.0Y-156.0
X151.48Y-40.38
X151.48Y-41.38
X151.48Y-42.38
X151.48Y-43.38
X151.497Y-134.479
X151.897Y-117.991
X152.0Y-120.0
X152.0Y-156.0
X152.197Y-131.88
X152.5Y-163.0
X152.887Y-117.991
X152.96Y-135.101
X153.0Y-120.0
X153.0Y-133.7
X153.968Y-133.0
X153.968Y-134.473
X155.0Y-40.0
X155.0Y-45.0
X155.0Y-50.0
X155.0Y-60.0
X155.0Y-65.0
X155.0Y-70.0
X155.0Y-75.0
X155.0Y-80.0
X155.0Y-85.0
X155.0Y-90.0
X155.0Y-95.0
X155.0Y-162.5
X155.5Y-164.5
X157.107Y-135.607
X157.5Y-142.5
X157.642Y-163.362
X158.5Y-136.5
X158.5Y-164.0
X159.0Y-133.0
X159.0Y-134.0
X159.0Y-135.0
X160.0Y-50.0
X160.0Y-55.0
X160.0Y-85.0
X160.0Y-90.0
X160.0Y-95.0
X160.0Y-115.0
X160.0Y-120.0
X160.0Y-125.0
X160.0Y-130.0
X160.851Y-158.5
T4
X86.0Y-38.5
X88.0Y-38.5
X89.0Y-167.0
X90.0Y-38.5
X91.0Y-167.0
X92.0Y-38.5
X93.0Y-167.0
X94.0Y-38.5
X95.0Y-167.0
X96.0Y-38.5
X97.0Y-167.0
X99.0Y-167.0
X101.0Y-38.5
X103.0Y-38.5
X104.0Y-167.0
X105.0Y-38.5
X106.0Y-167.0
X107.0Y-38.5
X108.0Y-167.0
X109.0Y-38.5
X110.0Y-167.0
X111.0Y-38.5
X112.0Y-167.0
X114.0Y-167.0
X116.0Y-38.5
X118.0Y-38.5
X119.0Y-167.0
X120.0Y-38.5
X121.0Y-167.0
X122.0Y-38.5
X123.0Y-167.0
X124.0Y-38.5
X125.0Y-167.0
X126.0Y-38.5
X127.0Y-167.0
X129.0Y-167.0
T5
X79.347Y-164.0
X82.847Y-164.0
X96.0Y-121.0
X99.5Y-121.0
X119.0Y-133.6
X122.5Y-133.6
X123.0Y-123.153
X123.0Y-126.653
T6
X105.0Y-123.0
X107.5Y-123.0
X110.0Y-123.0
X112.5Y-123.0
X115.0Y-123.0
T7
X65.22Y-118.7
X67.76Y-118.7
X68.3Y-124.4
X68.3Y-146.9
X70.3Y-118.7
X73.46Y-40.0
X73.96Y-118.5
X76.0Y-40.0
X76.5Y-118.5
X79.04Y-118.5
X81.46Y-124.0
X84.0Y-124.0
X86.54Y-124.0
X89.08Y-124.0
X91.62Y-124.0
X107.48Y-118.15
X110.02Y-118.15
X113.81Y-107.86
X113.81Y-110.4
X118.4Y-107.86
X118.4Y-110.4
X122.0Y-109.0
X124.54Y-109.0
X127.08Y-109.0
X134.0Y-162.92
X134.0Y-165.46
X134.0Y-168.0
X138.68Y-109.83
X138.68Y-112.37
X138.68Y-165.71
X138.68Y-168.25
X141.22Y-109.83
X141.22Y-112.37
X141.22Y-165.71
X141.22Y-168.25
X143.76Y-109.83
X143.76Y-112.37
X143.76Y-165.71
X143.76Y-168.25
X146.3Y-109.83
X146.3Y-112.37
X146.3Y-165.71
X146.3Y-168.25
X148.84Y-109.83
X148.84Y-112.37
X148.84Y-165.71
X148.84Y-168.25
X150.1Y-36.92
X150.1Y-39.46
X150.1Y-42.0
X151.38Y-109.83
X151.38Y-112.37
X151.38Y-165.71
X151.38Y-168.25
X153.92Y-109.83
X153.92Y-112.37
X153.92Y-165.71
X153.92Y-168.25
X156.46Y-109.83
X156.46Y-112.37
X156.46Y-165.71
X156.46Y-168.25
X159.0Y-109.83
X159.0Y-112.37
X159.0Y-165.71
X159.0Y-168.25
X161.54Y-109.83
X161.54Y-112.37
X161.54Y-165.71
X161.54Y-168.25
T8
X76.0Y-149.025
X76.0Y-153.825
X76.0Y-158.625
T9
X77.0Y-122.0
X77.0Y-132.0
T10
X68.0Y-153.825
X68.0Y-158.825
T11
X120.002Y-115.9
X124.701Y-115.9
X129.4Y-115.9
T12
X77.0Y-137.0
X77.0Y-144.0
X128.0Y-131.5
X128.0Y-138.5
X128.0Y-147.5
X128.0Y-154.5
M30
