%TF.GenerationSoftware,KiCad,Pcbnew,9.0.6*%
%TF.CreationDate,2026-04-05T18:25:42+02:00*%
%TF.ProjectId,Buck,4275636b-2e6b-4696-9361-645f70636258,C*%
%TF.SameCoordinates,Original*%
%TF.FileFunction,Copper,L4,Bot*%
%TF.FilePolarity,Positive*%
%FSLAX46Y46*%
G04 Gerber Fmt 4.6, Leading zero omitted, Abs format (unit mm)*
G04 Created by KiCad (PCBNEW 9.0.6) date 2026-04-05 18:25:42*
%MOMM*%
%LPD*%
G01*
G04 APERTURE LIST*
G04 Aperture macros list*
%AMRoundRect*
0 Rectangle with rounded corners*
0 $1 Rounding radius*
0 $2 $3 $4 $5 $6 $7 $8 $9 X,Y pos of 4 corners*
0 Add a 4 corners polygon primitive as box body*
4,1,4,$2,$3,$4,$5,$6,$7,$8,$9,$2,$3,0*
0 Add four circle primitives for the rounded corners*
1,1,$1+$1,$2,$3*
1,1,$1+$1,$4,$5*
1,1,$1+$1,$6,$7*
1,1,$1+$1,$8,$9*
0 Add four rect primitives between the rounded corners*
20,1,$1+$1,$2,$3,$4,$5,0*
20,1,$1+$1,$4,$5,$6,$7,0*
20,1,$1+$1,$6,$7,$8,$9,0*
20,1,$1+$1,$8,$9,$2,$3,0*%
G04 Aperture macros list end*
%TA.AperFunction,ComponentPad*%
%ADD10RoundRect,0.250001X-1.149999X1.149999X-1.149999X-1.149999X1.149999X-1.149999X1.149999X1.149999X0*%
%TD*%
%TA.AperFunction,ComponentPad*%
%ADD11C,2.800000*%
%TD*%
%TA.AperFunction,ComponentPad*%
%ADD12RoundRect,0.250001X-1.149999X-1.149999X1.149999X-1.149999X1.149999X1.149999X-1.149999X1.149999X0*%
%TD*%
%TA.AperFunction,ComponentPad*%
%ADD13C,0.499999*%
%TD*%
%TA.AperFunction,ViaPad*%
%ADD14C,0.600000*%
%TD*%
%TA.AperFunction,ViaPad*%
%ADD15C,0.800000*%
%TD*%
%TA.AperFunction,ViaPad*%
%ADD16C,0.500000*%
%TD*%
%TA.AperFunction,Conductor*%
%ADD17C,0.200000*%
%TD*%
G04 APERTURE END LIST*
D10*
%TO.P,J1,1,Pin_1*%
%TO.N,+18V*%
X142250000Y-107250000D03*
D11*
%TO.P,J1,2,Pin_2*%
%TO.N,GND*%
X142250000Y-112250000D03*
%TD*%
D12*
%TO.P,J2,1,Pin_1*%
%TO.N,/VOUT*%
X156000000Y-148000000D03*
D11*
%TO.P,J2,2,Pin_2*%
%TO.N,GND*%
X161000000Y-148000000D03*
%TD*%
D13*
%TO.P,U1,12,PGND*%
%TO.N,GND*%
X160750002Y-106250000D03*
X161350001Y-105150000D03*
X161350001Y-107350000D03*
X161950000Y-106250000D03*
%TD*%
D14*
%TO.N,Net-(U1-COMP)*%
X155350000Y-110695090D03*
D15*
%TO.N,GND*%
X166000000Y-94000000D03*
X175000000Y-93000000D03*
X179000000Y-124000000D03*
X143000000Y-137000000D03*
X162000000Y-143000000D03*
X181000000Y-128000000D03*
X168000000Y-107500000D03*
X148500000Y-95000000D03*
X173000000Y-124000000D03*
X172000000Y-139000000D03*
X162000000Y-140000000D03*
X177000000Y-124000000D03*
X173000000Y-131000000D03*
X172000000Y-123000000D03*
X140000000Y-141000000D03*
X171000000Y-129000000D03*
X175000000Y-126000000D03*
X169000000Y-147000000D03*
X142000000Y-126000000D03*
X143000000Y-117000000D03*
X142000000Y-132000000D03*
X174000000Y-139000000D03*
X179000000Y-129000000D03*
X180000000Y-93000000D03*
X181000000Y-123000000D03*
X139000000Y-101500000D03*
X142000000Y-116000000D03*
X172000000Y-124000000D03*
X140000000Y-131000000D03*
X169000000Y-93000000D03*
X140000000Y-123000000D03*
X180000000Y-97000000D03*
X177000000Y-135000000D03*
X171000000Y-93000000D03*
X169000000Y-145000000D03*
X155500000Y-93000000D03*
X142000000Y-117000000D03*
X143000000Y-119000000D03*
X140000000Y-121000000D03*
X178000000Y-128000000D03*
X138000000Y-102500000D03*
X162500000Y-92000000D03*
X144000000Y-130000000D03*
X175000000Y-127000000D03*
X176000000Y-116000000D03*
X179000000Y-123000000D03*
X173000000Y-120000000D03*
X167000000Y-149000000D03*
X178000000Y-132000000D03*
X178000000Y-130000000D03*
X174000000Y-133000000D03*
X171000000Y-124000000D03*
X164000000Y-139000000D03*
X161000000Y-145000000D03*
X177000000Y-116000000D03*
D16*
X157000000Y-105500000D03*
D15*
X176000000Y-130000000D03*
X181000000Y-98000000D03*
X175000000Y-128000000D03*
X171000000Y-95000000D03*
X181000000Y-113000000D03*
X174000000Y-136000000D03*
X148600000Y-105200000D03*
X165000000Y-138000000D03*
X165000000Y-142000000D03*
X173000000Y-133000000D03*
X153750000Y-103000000D03*
X175000000Y-120000000D03*
X140000000Y-133000000D03*
X140000000Y-126000000D03*
X144000000Y-125000000D03*
X178000000Y-117000000D03*
X181000000Y-121000000D03*
X181000000Y-132000000D03*
X166000000Y-145000000D03*
X143000000Y-123000000D03*
X178000000Y-93000000D03*
X176000000Y-132000000D03*
X177000000Y-133000000D03*
X172000000Y-95000000D03*
X164000000Y-143000000D03*
X177000000Y-134000000D03*
X178000000Y-118000000D03*
X161000000Y-142000000D03*
X167000000Y-144000000D03*
X175000000Y-122000000D03*
X140000000Y-117000000D03*
X171000000Y-118000000D03*
X167000000Y-136000000D03*
X162000000Y-145000000D03*
X143000000Y-136000000D03*
X172000000Y-121000000D03*
X172000000Y-94000000D03*
X178000000Y-126000000D03*
X143000000Y-120000000D03*
X172000000Y-138000000D03*
X140000000Y-118000000D03*
X175000000Y-139000000D03*
X162000000Y-139000000D03*
X161500000Y-95000000D03*
X150500000Y-94000000D03*
X180000000Y-125000000D03*
X141000000Y-134000000D03*
X180000000Y-130000000D03*
X143000000Y-135000000D03*
X142000000Y-131000000D03*
X141000000Y-123000000D03*
X178000000Y-94000000D03*
X171000000Y-116000000D03*
X179000000Y-136000000D03*
X165000000Y-141000000D03*
X169000000Y-143000000D03*
X144000000Y-137000000D03*
X160000000Y-144000000D03*
X140000000Y-128000000D03*
X177000000Y-123000000D03*
X140000000Y-122000000D03*
X171000000Y-120000000D03*
X180000000Y-120000000D03*
X153500000Y-92000000D03*
X175000000Y-129000000D03*
X177000000Y-128000000D03*
X174000000Y-120000000D03*
X143000000Y-124000000D03*
X145000000Y-95500000D03*
X163000000Y-144000000D03*
X165000000Y-140000000D03*
X171000000Y-130000000D03*
X180000000Y-115000000D03*
X176000000Y-139000000D03*
X179000000Y-128000000D03*
X177000000Y-129000000D03*
X176000000Y-134000000D03*
X173000000Y-117000000D03*
X173000000Y-95000000D03*
X160500000Y-92000000D03*
X175000000Y-117000000D03*
X158500000Y-92000000D03*
X176000000Y-120000000D03*
X157500000Y-93000000D03*
X173000000Y-130000000D03*
X160500000Y-93000000D03*
X177000000Y-95000000D03*
X139000000Y-102500000D03*
X142000000Y-133000000D03*
X176000000Y-128000000D03*
X141000000Y-127000000D03*
X172000000Y-130000000D03*
X171000000Y-138000000D03*
X172000000Y-137000000D03*
X174000000Y-129000000D03*
X165000000Y-94000000D03*
X160500000Y-95000000D03*
X168000000Y-136000000D03*
X178000000Y-120000000D03*
X178000000Y-92000000D03*
X176000000Y-95000000D03*
X140000000Y-125000000D03*
X162000000Y-142000000D03*
X142000000Y-138000000D03*
X141000000Y-122000000D03*
X180000000Y-128000000D03*
X178000000Y-127000000D03*
X144000000Y-123000000D03*
X178000000Y-131000000D03*
X173000000Y-93000000D03*
X161500000Y-93000000D03*
X143000000Y-134000000D03*
X142000000Y-129000000D03*
X141000000Y-135000000D03*
X157700000Y-112800000D03*
X168000000Y-140000000D03*
X177000000Y-136000000D03*
X173000000Y-126000000D03*
X171000000Y-92000000D03*
X146000000Y-94500000D03*
X171000000Y-119000000D03*
X175000000Y-131000000D03*
X165000000Y-95000000D03*
X147000000Y-96500000D03*
X161000000Y-143000000D03*
X141000000Y-141000000D03*
X178000000Y-121000000D03*
X167000000Y-143000000D03*
X153500000Y-94000000D03*
X181000000Y-95000000D03*
X143000000Y-129000000D03*
X176000000Y-119000000D03*
X154500000Y-93000000D03*
X175000000Y-132000000D03*
X174000000Y-94000000D03*
X151500000Y-92000000D03*
X174000000Y-134000000D03*
X181000000Y-100000000D03*
X144000000Y-139000000D03*
X181000000Y-134000000D03*
X181000000Y-103000000D03*
X181000000Y-96000000D03*
X178000000Y-119000000D03*
X174000000Y-116000000D03*
X152500000Y-92000000D03*
X174000000Y-122000000D03*
X181000000Y-99000000D03*
X144000000Y-135000000D03*
X168000000Y-146000000D03*
X166000000Y-143000000D03*
X181000000Y-94000000D03*
X179000000Y-92000000D03*
X154500000Y-92000000D03*
X161500000Y-92000000D03*
X144000000Y-131000000D03*
X166000000Y-147000000D03*
X181000000Y-125000000D03*
X169000000Y-136000000D03*
X141000000Y-138000000D03*
X164000000Y-145000000D03*
X180000000Y-137000000D03*
X140000000Y-124000000D03*
X147000000Y-97500000D03*
X169000000Y-149000000D03*
X174000000Y-131000000D03*
X166000000Y-95000000D03*
X169000000Y-142000000D03*
X166000000Y-140000000D03*
X140500000Y-101500000D03*
X165000000Y-144000000D03*
X172000000Y-129000000D03*
X180000000Y-122000000D03*
X156500000Y-92000000D03*
X142000000Y-140000000D03*
X178000000Y-134000000D03*
X162500000Y-93000000D03*
X173000000Y-116000000D03*
X140000000Y-135000000D03*
X138000000Y-100500000D03*
X170000000Y-92000000D03*
X178000000Y-129000000D03*
X174000000Y-135000000D03*
X172000000Y-134000000D03*
X141000000Y-128000000D03*
X179000000Y-125000000D03*
X144000000Y-127000000D03*
X171000000Y-121000000D03*
X179000000Y-116000000D03*
X165000000Y-148000000D03*
X150500000Y-93000000D03*
X181000000Y-114000000D03*
X162500000Y-94000000D03*
X176000000Y-135000000D03*
X178000000Y-122000000D03*
X176000000Y-138000000D03*
X145000000Y-97500000D03*
X163000000Y-141000000D03*
X160000000Y-143000000D03*
X166000000Y-136000000D03*
X161000000Y-139000000D03*
X141000000Y-133000000D03*
X144000000Y-120000000D03*
X152500000Y-93000000D03*
X141000000Y-116000000D03*
X171000000Y-128000000D03*
X171000000Y-137000000D03*
X159500000Y-92000000D03*
X168000000Y-145000000D03*
X142000000Y-139000000D03*
X144000000Y-132000000D03*
X180000000Y-136000000D03*
X141000000Y-117000000D03*
X181000000Y-115000000D03*
X177000000Y-132000000D03*
X174000000Y-132000000D03*
X148500000Y-94000000D03*
X142000000Y-130000000D03*
X178000000Y-137000000D03*
X145000000Y-96500000D03*
X143000000Y-133000000D03*
X143000000Y-140000000D03*
X143000000Y-127000000D03*
X178000000Y-114000000D03*
X140000000Y-139000000D03*
X142000000Y-136000000D03*
X181000000Y-135000000D03*
X168000000Y-138000000D03*
X142000000Y-134000000D03*
X176000000Y-133000000D03*
X176000000Y-93000000D03*
X180000000Y-113000000D03*
X147000000Y-95500000D03*
X158500000Y-95000000D03*
X181000000Y-133000000D03*
X144000000Y-124000000D03*
X178000000Y-124000000D03*
X149500000Y-95000000D03*
X178000000Y-138000000D03*
X173000000Y-134000000D03*
X163000000Y-142000000D03*
X180000000Y-111000000D03*
X180000000Y-98000000D03*
X160000000Y-142000000D03*
X146000000Y-95500000D03*
X168000000Y-147000000D03*
X178000000Y-113000000D03*
X180000000Y-118000000D03*
X181000000Y-136000000D03*
X176000000Y-129000000D03*
X143000000Y-125000000D03*
X164000000Y-142000000D03*
X176000000Y-124000000D03*
X180000000Y-94000000D03*
X181000000Y-127000000D03*
X174000000Y-121000000D03*
X159500000Y-95000000D03*
X168000000Y-141000000D03*
X142000000Y-141000000D03*
X176000000Y-122000000D03*
X172000000Y-136000000D03*
X181000000Y-119000000D03*
X174000000Y-119000000D03*
X173000000Y-118000000D03*
X156500000Y-95000000D03*
X176000000Y-125000000D03*
X144000000Y-141000000D03*
X144000000Y-117000000D03*
X178000000Y-95000000D03*
X168000000Y-92000000D03*
X142000000Y-118000000D03*
X141000000Y-125000000D03*
X142000000Y-128000000D03*
X180000000Y-100000000D03*
X167000000Y-138000000D03*
X157500000Y-92000000D03*
X172000000Y-135000000D03*
X180000000Y-121000000D03*
X180000000Y-92000000D03*
X157500000Y-95000000D03*
X177000000Y-118000000D03*
X168000000Y-93000000D03*
X180000000Y-95000000D03*
X173000000Y-132000000D03*
X178000000Y-116000000D03*
X142000000Y-120000000D03*
X162775003Y-108200000D03*
X162500000Y-95000000D03*
X176000000Y-92000000D03*
X171000000Y-134000000D03*
X163000000Y-140000000D03*
X169000000Y-141000000D03*
X166000000Y-138000000D03*
X168000000Y-144000000D03*
X180000000Y-132000000D03*
X174000000Y-117000000D03*
X141000000Y-130000000D03*
X149500000Y-93000000D03*
X179000000Y-121000000D03*
X171000000Y-133000000D03*
X138000000Y-101500000D03*
X165000000Y-143000000D03*
X171000000Y-132000000D03*
X140000000Y-137000000D03*
X180000000Y-117000000D03*
X175000000Y-137000000D03*
X141000000Y-139000000D03*
X180000000Y-103000000D03*
X176000000Y-126000000D03*
X180000000Y-131000000D03*
X180000000Y-133000000D03*
X172000000Y-119000000D03*
X166000000Y-141000000D03*
X173000000Y-119000000D03*
X156500000Y-93000000D03*
X155500000Y-95000000D03*
X181000000Y-93000000D03*
X139000000Y-100500000D03*
X165000000Y-146000000D03*
X181000000Y-117000000D03*
X171000000Y-122000000D03*
X163000000Y-139000000D03*
X162000000Y-141000000D03*
X179000000Y-119000000D03*
X161000000Y-144000000D03*
X165000000Y-93000000D03*
X163500000Y-94000000D03*
X144000000Y-121000000D03*
X144000000Y-118000000D03*
X181000000Y-126000000D03*
X152500000Y-94000000D03*
X166000000Y-92000000D03*
X147000000Y-94500000D03*
X155500000Y-92000000D03*
X169000000Y-94000000D03*
X177000000Y-126000000D03*
X170000000Y-107500000D03*
X177000000Y-93000000D03*
X144000000Y-129000000D03*
X141000000Y-121000000D03*
X154500000Y-94000000D03*
X166000000Y-139000000D03*
X141000000Y-140000000D03*
X168000000Y-137000000D03*
X164000000Y-144000000D03*
X179000000Y-95000000D03*
X172000000Y-132000000D03*
X143000000Y-122000000D03*
X141000000Y-136000000D03*
X179000000Y-139000000D03*
X165000000Y-149000000D03*
X179000000Y-132000000D03*
X172000000Y-131000000D03*
X177000000Y-127000000D03*
X169000000Y-138000000D03*
X143000000Y-141000000D03*
X166000000Y-146000000D03*
X167000000Y-139000000D03*
X143000000Y-126000000D03*
X149500000Y-94000000D03*
X169000000Y-146000000D03*
X177000000Y-130000000D03*
X166000000Y-142000000D03*
X160000000Y-141000000D03*
X165000000Y-147000000D03*
X141000000Y-118000000D03*
X179000000Y-131000000D03*
X179000000Y-126000000D03*
X181000000Y-92000000D03*
X174000000Y-118000000D03*
X172000000Y-122000000D03*
X181000000Y-137000000D03*
X167000000Y-147000000D03*
X167000000Y-137000000D03*
X171000000Y-125000000D03*
X168000000Y-94000000D03*
X179000000Y-133000000D03*
X170000000Y-95000000D03*
X142000000Y-119000000D03*
X161500000Y-94000000D03*
X167000000Y-146000000D03*
X177000000Y-131000000D03*
X142000000Y-122000000D03*
X173000000Y-123000000D03*
X143000000Y-118000000D03*
X167000000Y-94000000D03*
X180000000Y-134000000D03*
X173000000Y-127000000D03*
X174000000Y-126000000D03*
X174000000Y-130000000D03*
X175000000Y-119000000D03*
X174000000Y-95000000D03*
X157500000Y-94000000D03*
X176000000Y-123000000D03*
X181000000Y-120000000D03*
X167000000Y-95000000D03*
X179000000Y-94000000D03*
X177000000Y-117000000D03*
X179000000Y-117000000D03*
X156500000Y-94000000D03*
X175000000Y-135000000D03*
X176000000Y-131000000D03*
X172000000Y-116000000D03*
X181000000Y-129000000D03*
X175000000Y-124000000D03*
X167000000Y-141000000D03*
X177000000Y-94000000D03*
X180000000Y-126000000D03*
X160000000Y-139000000D03*
X142000000Y-127000000D03*
X170000000Y-93000000D03*
X181000000Y-131000000D03*
X172000000Y-93000000D03*
X172000000Y-117000000D03*
X163000000Y-143000000D03*
X164000000Y-141000000D03*
X171000000Y-127000000D03*
X169000000Y-137000000D03*
X143000000Y-128000000D03*
X151500000Y-94000000D03*
X178000000Y-112000000D03*
X175000000Y-121000000D03*
X178000000Y-139000000D03*
X166000000Y-149000000D03*
X141000000Y-132000000D03*
X168000000Y-148000000D03*
X173000000Y-136000000D03*
X165000000Y-139000000D03*
X169000000Y-148000000D03*
X140000000Y-134000000D03*
X179000000Y-127000000D03*
X158500000Y-94000000D03*
X144000000Y-119000000D03*
X141000000Y-129000000D03*
X173000000Y-135000000D03*
X171000000Y-123000000D03*
X175000000Y-118000000D03*
X141000000Y-137000000D03*
X171000000Y-126000000D03*
X173000000Y-125000000D03*
X178000000Y-133000000D03*
X181000000Y-138000000D03*
X171000000Y-135000000D03*
X181000000Y-122000000D03*
X171000000Y-117000000D03*
X181000000Y-118000000D03*
X140500000Y-100500000D03*
X175000000Y-94000000D03*
X172000000Y-125000000D03*
X163000000Y-145000000D03*
X169000000Y-92000000D03*
X176000000Y-117000000D03*
X180000000Y-101000000D03*
X172000000Y-133000000D03*
X180000000Y-96000000D03*
X171000000Y-131000000D03*
X142000000Y-137000000D03*
X172000000Y-128000000D03*
X143000000Y-131000000D03*
X175000000Y-123000000D03*
X159500000Y-94000000D03*
X150500000Y-92000000D03*
X167000000Y-142000000D03*
X144000000Y-138000000D03*
X142000000Y-125000000D03*
X174000000Y-124000000D03*
X167000000Y-140000000D03*
X144000000Y-128000000D03*
X171000000Y-136000000D03*
X149500000Y-92000000D03*
X174000000Y-125000000D03*
X179000000Y-93000000D03*
X177000000Y-119000000D03*
X172000000Y-120000000D03*
X172000000Y-127000000D03*
X168000000Y-149000000D03*
X178000000Y-135000000D03*
X169000000Y-140000000D03*
X176000000Y-94000000D03*
X177000000Y-122000000D03*
X140000000Y-132000000D03*
X162000000Y-144000000D03*
X142000000Y-123000000D03*
X144000000Y-140000000D03*
X141000000Y-120000000D03*
X141000000Y-124000000D03*
X173000000Y-137000000D03*
X177000000Y-121000000D03*
X151500000Y-93000000D03*
X170000000Y-94000000D03*
X160000000Y-140000000D03*
X142000000Y-135000000D03*
X180000000Y-138000000D03*
X174000000Y-92000000D03*
X171000000Y-139000000D03*
X181000000Y-97000000D03*
X167000000Y-148000000D03*
X174000000Y-93000000D03*
X171000000Y-94000000D03*
X180000000Y-119000000D03*
X165000000Y-145000000D03*
X174000000Y-128000000D03*
X176000000Y-137000000D03*
X144000000Y-122000000D03*
X179000000Y-118000000D03*
X169000000Y-144000000D03*
X153500000Y-95000000D03*
X174000000Y-127000000D03*
X140000000Y-136000000D03*
X144000000Y-134000000D03*
X180000000Y-112000000D03*
X176000000Y-118000000D03*
X172000000Y-126000000D03*
X180000000Y-124000000D03*
X160500000Y-94000000D03*
X177000000Y-120000000D03*
X140000000Y-119000000D03*
X179000000Y-120000000D03*
X143000000Y-116000000D03*
X173000000Y-129000000D03*
X173000000Y-122000000D03*
X144000000Y-136000000D03*
X175000000Y-138000000D03*
X181000000Y-124000000D03*
X146000000Y-97500000D03*
X180000000Y-99000000D03*
X181000000Y-112000000D03*
X180000000Y-139000000D03*
X180000000Y-123000000D03*
X177000000Y-125000000D03*
X143000000Y-121000000D03*
X175000000Y-125000000D03*
X166000000Y-137000000D03*
X143000000Y-132000000D03*
X160000000Y-145000000D03*
X181000000Y-116000000D03*
X150500000Y-95000000D03*
X174000000Y-123000000D03*
X177000000Y-137000000D03*
X148500000Y-92000000D03*
X140000000Y-127000000D03*
X154500000Y-95000000D03*
X167000000Y-145000000D03*
X168000000Y-143000000D03*
X179000000Y-122000000D03*
X172000000Y-92000000D03*
X179000000Y-130000000D03*
X173000000Y-138000000D03*
X179000000Y-135000000D03*
X159500000Y-93000000D03*
X142000000Y-124000000D03*
X180000000Y-116000000D03*
X179000000Y-134000000D03*
X141000000Y-131000000D03*
X161000000Y-140000000D03*
X168000000Y-95000000D03*
X166000000Y-144000000D03*
X176000000Y-121000000D03*
X178000000Y-125000000D03*
X145000000Y-94500000D03*
X173000000Y-92000000D03*
X164000000Y-140000000D03*
X166000000Y-148000000D03*
X144000000Y-133000000D03*
X176000000Y-136000000D03*
X175000000Y-116000000D03*
X144000000Y-116000000D03*
X173000000Y-94000000D03*
X169000000Y-139000000D03*
X143000000Y-138000000D03*
X175000000Y-133000000D03*
X161000000Y-141000000D03*
X174000000Y-137000000D03*
X140000000Y-120000000D03*
X165000000Y-136000000D03*
X173000000Y-121000000D03*
X177000000Y-139000000D03*
X178000000Y-136000000D03*
X158500000Y-93000000D03*
X175000000Y-136000000D03*
X148500000Y-93000000D03*
X169000000Y-107500000D03*
X180000000Y-127000000D03*
X180000000Y-129000000D03*
X181000000Y-102000000D03*
X143000000Y-130000000D03*
X176000000Y-127000000D03*
X175000000Y-95000000D03*
X163500000Y-92000000D03*
X181000000Y-130000000D03*
X180000000Y-135000000D03*
X163500000Y-95000000D03*
X177000000Y-138000000D03*
X146000000Y-96500000D03*
X142000000Y-121000000D03*
X168000000Y-139000000D03*
X181000000Y-101000000D03*
X175000000Y-92000000D03*
X172000000Y-118000000D03*
X163500000Y-93000000D03*
X175000000Y-130000000D03*
X167000000Y-92000000D03*
X167000000Y-93000000D03*
X179000000Y-137000000D03*
X175000000Y-134000000D03*
X140000000Y-116000000D03*
X153500000Y-93000000D03*
X179000000Y-138000000D03*
X173000000Y-139000000D03*
X151500000Y-95000000D03*
X180000000Y-102000000D03*
X143000000Y-139000000D03*
X141000000Y-126000000D03*
X140000000Y-130000000D03*
X144000000Y-126000000D03*
X177000000Y-92000000D03*
X174000000Y-138000000D03*
X165000000Y-137000000D03*
X173000000Y-128000000D03*
X178000000Y-123000000D03*
X155500000Y-94000000D03*
X166000000Y-93000000D03*
X141000000Y-119000000D03*
X181000000Y-139000000D03*
X165000000Y-92000000D03*
X140000000Y-138000000D03*
X152500000Y-95000000D03*
X168000000Y-142000000D03*
X140000000Y-140000000D03*
X140000000Y-129000000D03*
X169000000Y-95000000D03*
D16*
%TO.N,/VCC*%
X159150000Y-109150000D03*
X163696157Y-106838448D03*
%TO.N,Net-(U1-COMP)*%
X158800000Y-105200000D03*
X157800000Y-107200000D03*
%TO.N,/LG*%
X165750000Y-107625000D03*
D14*
X179500000Y-109750000D03*
D16*
X163706476Y-107538372D03*
%TO.N,/EN*%
X159800000Y-103800000D03*
X153800000Y-104200000D03*
D14*
%TO.N,Net-(U1-HO)*%
X178750000Y-104250000D03*
D16*
X163772965Y-104860139D03*
X166391248Y-104908752D03*
%TD*%
D17*
%TO.N,Net-(U1-COMP)*%
X155350000Y-109650000D02*
X155350000Y-110695090D01*
X157800000Y-107200000D02*
X155350000Y-109650000D01*
%TO.N,/VCC*%
X161025001Y-108600000D02*
X162713352Y-106911649D01*
X159700000Y-108600000D02*
X161025001Y-108600000D01*
X159150000Y-109150000D02*
X159700000Y-108600000D01*
X162713352Y-106911649D02*
X163682329Y-106911649D01*
%TO.N,Net-(U1-COMP)*%
X158800000Y-105200000D02*
X157800000Y-106200000D01*
X157800000Y-106200000D02*
X157800000Y-107200000D01*
%TO.N,/LG*%
X167875000Y-109750000D02*
X179500000Y-109750000D01*
X164532475Y-107625000D02*
X164500000Y-107657475D01*
X164500000Y-107657475D02*
X163957475Y-107657475D01*
X165750000Y-107625000D02*
X164532475Y-107625000D01*
X165750000Y-107625000D02*
X167875000Y-109750000D01*
X163957475Y-107657475D02*
X163800000Y-107500000D01*
%TO.N,/EN*%
X153800000Y-104200000D02*
X159400000Y-104200000D01*
X159400000Y-104200000D02*
X159800000Y-103800000D01*
%TO.N,Net-(U1-HO)*%
X163785208Y-104908752D02*
X166391248Y-104908752D01*
X167050000Y-104250000D02*
X178750000Y-104250000D01*
X166391248Y-104908752D02*
X167050000Y-104250000D01*
%TD*%
%TA.AperFunction,Conductor*%
%TO.N,GND*%
G36*
X181642539Y-91320185D02*
G01*
X181688294Y-91372989D01*
X181699500Y-91424500D01*
X181699500Y-152575500D01*
X181679815Y-152642539D01*
X181627011Y-152688294D01*
X181575500Y-152699500D01*
X137424500Y-152699500D01*
X137357461Y-152679815D01*
X137311706Y-152627011D01*
X137300500Y-152575500D01*
X137300500Y-148878048D01*
X139139500Y-148878048D01*
X139139500Y-149121951D01*
X139159690Y-149275303D01*
X139171334Y-149363744D01*
X139201962Y-149478050D01*
X139234456Y-149599320D01*
X139234459Y-149599330D01*
X139327786Y-149824640D01*
X139327791Y-149824651D01*
X139449727Y-150035848D01*
X139449738Y-150035864D01*
X139598199Y-150229343D01*
X139598205Y-150229350D01*
X139770649Y-150401794D01*
X139770655Y-150401799D01*
X139964144Y-150550268D01*
X139964151Y-150550272D01*
X140175348Y-150672208D01*
X140175353Y-150672210D01*
X140175356Y-150672212D01*
X140400679Y-150765544D01*
X140636256Y-150828666D01*
X140878056Y-150860500D01*
X140878063Y-150860500D01*
X141121937Y-150860500D01*
X141121944Y-150860500D01*
X141363744Y-150828666D01*
X141599321Y-150765544D01*
X141824644Y-150672212D01*
X142035856Y-150550268D01*
X142229345Y-150401799D01*
X142401799Y-150229345D01*
X142550268Y-150035856D01*
X142672212Y-149824644D01*
X142765544Y-149599321D01*
X142828666Y-149363744D01*
X142860500Y-149121944D01*
X142860500Y-148878056D01*
X142828666Y-148636256D01*
X142765544Y-148400679D01*
X142672212Y-148175356D01*
X142672210Y-148175353D01*
X142672208Y-148175348D01*
X142550272Y-147964151D01*
X142550268Y-147964144D01*
X142401799Y-147770655D01*
X142401794Y-147770649D01*
X142229350Y-147598205D01*
X142229343Y-147598199D01*
X142035864Y-147449738D01*
X142035862Y-147449736D01*
X142035856Y-147449732D01*
X142035851Y-147449729D01*
X142035848Y-147449727D01*
X141824651Y-147327791D01*
X141824640Y-147327786D01*
X141599330Y-147234459D01*
X141599323Y-147234457D01*
X141599321Y-147234456D01*
X141363744Y-147171334D01*
X141323333Y-147166013D01*
X141121951Y-147139500D01*
X141121944Y-147139500D01*
X140878056Y-147139500D01*
X140878048Y-147139500D01*
X140647896Y-147169801D01*
X140636256Y-147171334D01*
X140400679Y-147234456D01*
X140400669Y-147234459D01*
X140175359Y-147327786D01*
X140175348Y-147327791D01*
X139964151Y-147449727D01*
X139964135Y-147449738D01*
X139770656Y-147598199D01*
X139770649Y-147598205D01*
X139598205Y-147770649D01*
X139598199Y-147770656D01*
X139449738Y-147964135D01*
X139449727Y-147964151D01*
X139327791Y-148175348D01*
X139327786Y-148175359D01*
X139234459Y-148400669D01*
X139234456Y-148400679D01*
X139171335Y-148636253D01*
X139171333Y-148636264D01*
X139139500Y-148878048D01*
X137300500Y-148878048D01*
X137300500Y-146818476D01*
X154449500Y-146818476D01*
X154449500Y-149181523D01*
X154464352Y-149275298D01*
X154464353Y-149275301D01*
X154464354Y-149275303D01*
X154509417Y-149363744D01*
X154521951Y-149388343D01*
X154521954Y-149388347D01*
X154611652Y-149478045D01*
X154611656Y-149478048D01*
X154611658Y-149478050D01*
X154724697Y-149535646D01*
X154724699Y-149535646D01*
X154724701Y-149535647D01*
X154818477Y-149550500D01*
X154818482Y-149550500D01*
X157181523Y-149550500D01*
X157275298Y-149535647D01*
X157275298Y-149535646D01*
X157275303Y-149535646D01*
X157388342Y-149478050D01*
X157478050Y-149388342D01*
X157535646Y-149275303D01*
X157535647Y-149275298D01*
X157550500Y-149181523D01*
X157550500Y-148878048D01*
X176139500Y-148878048D01*
X176139500Y-149121951D01*
X176159690Y-149275303D01*
X176171334Y-149363744D01*
X176201962Y-149478050D01*
X176234456Y-149599320D01*
X176234459Y-149599330D01*
X176327786Y-149824640D01*
X176327791Y-149824651D01*
X176449727Y-150035848D01*
X176449738Y-150035864D01*
X176598199Y-150229343D01*
X176598205Y-150229350D01*
X176770649Y-150401794D01*
X176770655Y-150401799D01*
X176964144Y-150550268D01*
X176964151Y-150550272D01*
X177175348Y-150672208D01*
X177175353Y-150672210D01*
X177175356Y-150672212D01*
X177400679Y-150765544D01*
X177636256Y-150828666D01*
X177878056Y-150860500D01*
X177878063Y-150860500D01*
X178121937Y-150860500D01*
X178121944Y-150860500D01*
X178363744Y-150828666D01*
X178599321Y-150765544D01*
X178824644Y-150672212D01*
X179035856Y-150550268D01*
X179229345Y-150401799D01*
X179401799Y-150229345D01*
X179550268Y-150035856D01*
X179672212Y-149824644D01*
X179765544Y-149599321D01*
X179828666Y-149363744D01*
X179860500Y-149121944D01*
X179860500Y-148878056D01*
X179828666Y-148636256D01*
X179765544Y-148400679D01*
X179672212Y-148175356D01*
X179672210Y-148175353D01*
X179672208Y-148175348D01*
X179550272Y-147964151D01*
X179550268Y-147964144D01*
X179401799Y-147770655D01*
X179401794Y-147770649D01*
X179229350Y-147598205D01*
X179229343Y-147598199D01*
X179035864Y-147449738D01*
X179035862Y-147449736D01*
X179035856Y-147449732D01*
X179035851Y-147449729D01*
X179035848Y-147449727D01*
X178824651Y-147327791D01*
X178824640Y-147327786D01*
X178599330Y-147234459D01*
X178599323Y-147234457D01*
X178599321Y-147234456D01*
X178363744Y-147171334D01*
X178323333Y-147166013D01*
X178121951Y-147139500D01*
X178121944Y-147139500D01*
X177878056Y-147139500D01*
X177878048Y-147139500D01*
X177647896Y-147169801D01*
X177636256Y-147171334D01*
X177400679Y-147234456D01*
X177400669Y-147234459D01*
X177175359Y-147327786D01*
X177175348Y-147327791D01*
X176964151Y-147449727D01*
X176964135Y-147449738D01*
X176770656Y-147598199D01*
X176770649Y-147598205D01*
X176598205Y-147770649D01*
X176598199Y-147770656D01*
X176449738Y-147964135D01*
X176449727Y-147964151D01*
X176327791Y-148175348D01*
X176327786Y-148175359D01*
X176234459Y-148400669D01*
X176234456Y-148400679D01*
X176171335Y-148636253D01*
X176171333Y-148636264D01*
X176139500Y-148878048D01*
X157550500Y-148878048D01*
X157550500Y-146818476D01*
X157535647Y-146724701D01*
X157535646Y-146724699D01*
X157535646Y-146724697D01*
X157478050Y-146611658D01*
X157478048Y-146611656D01*
X157478045Y-146611652D01*
X157388347Y-146521954D01*
X157388343Y-146521951D01*
X157388342Y-146521950D01*
X157275303Y-146464354D01*
X157275301Y-146464353D01*
X157275298Y-146464352D01*
X157181523Y-146449500D01*
X157181518Y-146449500D01*
X154818482Y-146449500D01*
X154818477Y-146449500D01*
X154724701Y-146464352D01*
X154611656Y-146521951D01*
X154611652Y-146521954D01*
X154521954Y-146611652D01*
X154521951Y-146611656D01*
X154464352Y-146724701D01*
X154449500Y-146818476D01*
X137300500Y-146818476D01*
X137300500Y-110635781D01*
X154899500Y-110635781D01*
X154899500Y-110754399D01*
X154930201Y-110868976D01*
X154989511Y-110971703D01*
X155073387Y-111055579D01*
X155176114Y-111114889D01*
X155290691Y-111145590D01*
X155290694Y-111145590D01*
X155409306Y-111145590D01*
X155409309Y-111145590D01*
X155523886Y-111114889D01*
X155626613Y-111055579D01*
X155710489Y-110971703D01*
X155769799Y-110868976D01*
X155800500Y-110754399D01*
X155800500Y-110635781D01*
X155769799Y-110521204D01*
X155710489Y-110418477D01*
X155636818Y-110344806D01*
X155603334Y-110283482D01*
X155600500Y-110257125D01*
X155600500Y-109805122D01*
X155620185Y-109738083D01*
X155636814Y-109717446D01*
X156258303Y-109095957D01*
X158739500Y-109095957D01*
X158739500Y-109204043D01*
X158767475Y-109308447D01*
X158767476Y-109308448D01*
X158767478Y-109308453D01*
X158821513Y-109402046D01*
X158821517Y-109402051D01*
X158821518Y-109402053D01*
X158897947Y-109478482D01*
X158897949Y-109478483D01*
X158897953Y-109478486D01*
X158991546Y-109532521D01*
X158991553Y-109532525D01*
X159095957Y-109560500D01*
X159095959Y-109560500D01*
X159204040Y-109560500D01*
X159204043Y-109560500D01*
X159308447Y-109532525D01*
X159402053Y-109478482D01*
X159478482Y-109402053D01*
X159532525Y-109308447D01*
X159560500Y-109204043D01*
X159560500Y-109145122D01*
X159569144Y-109115681D01*
X159575668Y-109085695D01*
X159579422Y-109080679D01*
X159580185Y-109078083D01*
X159596819Y-109057441D01*
X159767442Y-108886819D01*
X159828765Y-108853334D01*
X159855123Y-108850500D01*
X161074827Y-108850500D01*
X161074829Y-108850500D01*
X161166898Y-108812364D01*
X162780793Y-107198467D01*
X162842116Y-107164983D01*
X162868474Y-107162149D01*
X163234910Y-107162149D01*
X163301949Y-107181834D01*
X163347704Y-107234638D01*
X163357648Y-107303796D01*
X163342297Y-107348149D01*
X163323952Y-107379922D01*
X163323952Y-107379923D01*
X163323951Y-107379925D01*
X163295976Y-107484329D01*
X163295976Y-107592415D01*
X163323951Y-107696819D01*
X163323952Y-107696820D01*
X163323954Y-107696825D01*
X163377989Y-107790418D01*
X163377993Y-107790423D01*
X163377994Y-107790425D01*
X163454423Y-107866854D01*
X163454425Y-107866855D01*
X163454429Y-107866858D01*
X163548022Y-107920893D01*
X163548029Y-107920897D01*
X163652433Y-107948872D01*
X163652435Y-107948872D01*
X163760517Y-107948872D01*
X163760519Y-107948872D01*
X163864923Y-107920897D01*
X163864925Y-107920895D01*
X163864927Y-107920895D01*
X163872435Y-107917786D01*
X163873583Y-107920559D01*
X163920531Y-107907975D01*
X164549826Y-107907975D01*
X164549828Y-107907975D01*
X164605442Y-107884938D01*
X164652895Y-107875500D01*
X165368603Y-107875500D01*
X165435642Y-107895185D01*
X165456284Y-107911819D01*
X165497947Y-107953482D01*
X165497949Y-107953483D01*
X165497953Y-107953486D01*
X165591546Y-108007521D01*
X165591553Y-108007525D01*
X165695957Y-108035500D01*
X165695959Y-108035500D01*
X165754878Y-108035500D01*
X165821917Y-108055185D01*
X165842559Y-108071819D01*
X167655565Y-109884825D01*
X167655568Y-109884829D01*
X167662636Y-109891897D01*
X167733103Y-109962364D01*
X167825172Y-110000500D01*
X167924828Y-110000500D01*
X179062036Y-110000500D01*
X179129075Y-110020185D01*
X179149717Y-110036819D01*
X179223387Y-110110489D01*
X179326114Y-110169799D01*
X179440691Y-110200500D01*
X179440694Y-110200500D01*
X179559306Y-110200500D01*
X179559309Y-110200500D01*
X179673886Y-110169799D01*
X179776613Y-110110489D01*
X179860489Y-110026613D01*
X179919799Y-109923886D01*
X179950500Y-109809309D01*
X179950500Y-109690691D01*
X179919799Y-109576114D01*
X179860489Y-109473387D01*
X179776613Y-109389511D01*
X179673886Y-109330201D01*
X179559309Y-109299500D01*
X179440691Y-109299500D01*
X179326114Y-109330201D01*
X179326112Y-109330201D01*
X179326112Y-109330202D01*
X179223387Y-109389511D01*
X179223384Y-109389513D01*
X179149717Y-109463181D01*
X179088394Y-109496666D01*
X179062036Y-109499500D01*
X168030122Y-109499500D01*
X167963083Y-109479815D01*
X167942441Y-109463181D01*
X166196819Y-107717559D01*
X166163334Y-107656236D01*
X166160500Y-107629878D01*
X166160500Y-107570959D01*
X166160500Y-107570957D01*
X166132525Y-107466553D01*
X166124154Y-107452054D01*
X166078486Y-107372953D01*
X166078480Y-107372945D01*
X166002054Y-107296519D01*
X166002046Y-107296513D01*
X165908453Y-107242478D01*
X165908450Y-107242476D01*
X165908447Y-107242475D01*
X165804043Y-107214500D01*
X165695957Y-107214500D01*
X165591553Y-107242475D01*
X165591551Y-107242475D01*
X165591551Y-107242476D01*
X165591546Y-107242478D01*
X165497953Y-107296513D01*
X165497945Y-107296519D01*
X165456284Y-107338181D01*
X165394961Y-107371666D01*
X165368603Y-107374500D01*
X164582305Y-107374500D01*
X164582303Y-107374499D01*
X164482648Y-107374499D01*
X164428715Y-107396839D01*
X164414537Y-107402711D01*
X164399353Y-107404951D01*
X164393722Y-107404162D01*
X164379579Y-107406975D01*
X164176210Y-107406975D01*
X164109171Y-107387290D01*
X164068823Y-107344974D01*
X164034962Y-107286325D01*
X164034956Y-107286317D01*
X164019570Y-107270931D01*
X163986085Y-107209608D01*
X163991069Y-107139916D01*
X164019572Y-107095567D01*
X164024639Y-107090501D01*
X164078682Y-106996895D01*
X164106657Y-106892491D01*
X164106657Y-106784405D01*
X164078682Y-106680001D01*
X164059840Y-106647365D01*
X164024643Y-106586401D01*
X164024637Y-106586393D01*
X163948211Y-106509967D01*
X163948203Y-106509961D01*
X163854610Y-106455926D01*
X163854607Y-106455924D01*
X163854604Y-106455923D01*
X163750200Y-106427948D01*
X163642114Y-106427948D01*
X163537710Y-106455923D01*
X163537708Y-106455923D01*
X163537708Y-106455924D01*
X163537703Y-106455926D01*
X163444110Y-106509961D01*
X163444102Y-106509967D01*
X163367676Y-106586393D01*
X163367672Y-106586398D01*
X163360311Y-106599149D01*
X163309744Y-106647365D01*
X163252924Y-106661149D01*
X162663522Y-106661149D01*
X162571454Y-106699285D01*
X162571453Y-106699286D01*
X160957559Y-108313181D01*
X160896236Y-108346666D01*
X160869878Y-108349500D01*
X159650170Y-108349500D01*
X159558102Y-108387636D01*
X159242557Y-108703181D01*
X159181234Y-108736666D01*
X159154876Y-108739500D01*
X159095957Y-108739500D01*
X158991553Y-108767475D01*
X158991551Y-108767475D01*
X158991551Y-108767476D01*
X158991546Y-108767478D01*
X158897953Y-108821513D01*
X158897945Y-108821519D01*
X158821519Y-108897945D01*
X158821513Y-108897953D01*
X158767478Y-108991546D01*
X158767475Y-108991551D01*
X158767475Y-108991553D01*
X158739500Y-109095957D01*
X156258303Y-109095957D01*
X157707441Y-107646818D01*
X157768764Y-107613334D01*
X157795122Y-107610500D01*
X157854040Y-107610500D01*
X157854043Y-107610500D01*
X157958447Y-107582525D01*
X158052053Y-107528482D01*
X158128482Y-107452053D01*
X158182525Y-107358447D01*
X158210500Y-107254043D01*
X158210500Y-107145957D01*
X158182525Y-107041553D01*
X158182521Y-107041546D01*
X158128486Y-106947953D01*
X158128480Y-106947945D01*
X158086819Y-106906284D01*
X158053334Y-106844961D01*
X158050500Y-106818603D01*
X158050500Y-106355121D01*
X158070185Y-106288082D01*
X158086815Y-106267444D01*
X158707440Y-105646818D01*
X158768763Y-105613334D01*
X158795121Y-105610500D01*
X158854040Y-105610500D01*
X158854043Y-105610500D01*
X158958447Y-105582525D01*
X159052053Y-105528482D01*
X159128482Y-105452053D01*
X159182525Y-105358447D01*
X159210500Y-105254043D01*
X159210500Y-105145957D01*
X159182525Y-105041553D01*
X159169265Y-105018586D01*
X159128486Y-104947953D01*
X159128480Y-104947945D01*
X159052054Y-104871519D01*
X159052046Y-104871513D01*
X158958453Y-104817478D01*
X158958450Y-104817476D01*
X158958447Y-104817475D01*
X158915980Y-104806096D01*
X163362465Y-104806096D01*
X163362465Y-104914182D01*
X163390440Y-105018586D01*
X163390441Y-105018587D01*
X163390443Y-105018592D01*
X163444478Y-105112185D01*
X163444482Y-105112190D01*
X163444483Y-105112192D01*
X163520912Y-105188621D01*
X163520914Y-105188622D01*
X163520918Y-105188625D01*
X163605109Y-105237232D01*
X163614518Y-105242664D01*
X163718922Y-105270639D01*
X163718924Y-105270639D01*
X163827005Y-105270639D01*
X163827008Y-105270639D01*
X163931412Y-105242664D01*
X163978215Y-105215642D01*
X164025012Y-105188625D01*
X164025014Y-105188622D01*
X164025018Y-105188621D01*
X164025020Y-105188618D01*
X164029894Y-105184879D01*
X164095062Y-105159682D01*
X164105384Y-105159252D01*
X166009851Y-105159252D01*
X166076890Y-105178937D01*
X166097532Y-105195571D01*
X166139195Y-105237234D01*
X166139197Y-105237235D01*
X166139201Y-105237238D01*
X166232794Y-105291273D01*
X166232801Y-105291277D01*
X166337205Y-105319252D01*
X166337207Y-105319252D01*
X166445288Y-105319252D01*
X166445291Y-105319252D01*
X166549695Y-105291277D01*
X166643301Y-105237234D01*
X166719730Y-105160805D01*
X166773773Y-105067199D01*
X166801748Y-104962795D01*
X166801748Y-104903874D01*
X166821433Y-104836835D01*
X166838067Y-104816193D01*
X167117442Y-104536819D01*
X167178765Y-104503334D01*
X167205123Y-104500500D01*
X178312036Y-104500500D01*
X178379075Y-104520185D01*
X178399717Y-104536819D01*
X178473387Y-104610489D01*
X178576114Y-104669799D01*
X178690691Y-104700500D01*
X178690694Y-104700500D01*
X178809306Y-104700500D01*
X178809309Y-104700500D01*
X178923886Y-104669799D01*
X179026613Y-104610489D01*
X179110489Y-104526613D01*
X179169799Y-104423886D01*
X179200500Y-104309309D01*
X179200500Y-104190691D01*
X179169799Y-104076114D01*
X179110489Y-103973387D01*
X179026613Y-103889511D01*
X178923886Y-103830201D01*
X178809309Y-103799500D01*
X178690691Y-103799500D01*
X178576114Y-103830201D01*
X178576112Y-103830201D01*
X178576112Y-103830202D01*
X178473387Y-103889511D01*
X178473384Y-103889513D01*
X178399717Y-103963181D01*
X178338394Y-103996666D01*
X178312036Y-103999500D01*
X167000170Y-103999500D01*
X166908102Y-104037636D01*
X166483805Y-104461933D01*
X166422482Y-104495418D01*
X166396124Y-104498252D01*
X166337205Y-104498252D01*
X166232801Y-104526227D01*
X166232799Y-104526227D01*
X166232799Y-104526228D01*
X166232794Y-104526230D01*
X166139201Y-104580265D01*
X166139193Y-104580271D01*
X166097532Y-104621933D01*
X166036209Y-104655418D01*
X166009851Y-104658252D01*
X164201091Y-104658252D01*
X164134052Y-104638567D01*
X164102719Y-104609743D01*
X164101448Y-104608087D01*
X164025019Y-104531658D01*
X164025011Y-104531652D01*
X163931418Y-104477617D01*
X163931415Y-104477615D01*
X163931412Y-104477614D01*
X163827008Y-104449639D01*
X163718922Y-104449639D01*
X163614518Y-104477614D01*
X163614516Y-104477614D01*
X163614516Y-104477615D01*
X163614511Y-104477617D01*
X163520918Y-104531652D01*
X163520910Y-104531658D01*
X163444484Y-104608084D01*
X163444478Y-104608092D01*
X163390443Y-104701685D01*
X163390440Y-104701690D01*
X163390440Y-104701692D01*
X163362465Y-104806096D01*
X158915980Y-104806096D01*
X158854043Y-104789500D01*
X158745957Y-104789500D01*
X158641553Y-104817475D01*
X158641551Y-104817475D01*
X158641551Y-104817476D01*
X158641546Y-104817478D01*
X158547953Y-104871513D01*
X158547945Y-104871519D01*
X158471519Y-104947945D01*
X158471513Y-104947953D01*
X158417478Y-105041546D01*
X158417475Y-105041551D01*
X158417475Y-105041553D01*
X158389500Y-105145957D01*
X158389500Y-105145959D01*
X158389500Y-105204876D01*
X158369815Y-105271915D01*
X158353181Y-105292557D01*
X157640661Y-106005076D01*
X157640662Y-106005077D01*
X157587636Y-106058103D01*
X157549500Y-106150170D01*
X157549500Y-106818603D01*
X157529815Y-106885642D01*
X157513181Y-106906284D01*
X157471519Y-106947945D01*
X157471513Y-106947953D01*
X157417478Y-107041546D01*
X157417475Y-107041551D01*
X157417475Y-107041553D01*
X157389500Y-107145957D01*
X157389500Y-107145959D01*
X157389500Y-107204876D01*
X157369815Y-107271915D01*
X157353181Y-107292557D01*
X155208103Y-109437636D01*
X155137637Y-109508101D01*
X155137636Y-109508102D01*
X155099500Y-109600170D01*
X155099500Y-110257125D01*
X155079815Y-110324164D01*
X155063182Y-110344806D01*
X154989511Y-110418477D01*
X154930201Y-110521204D01*
X154899500Y-110635781D01*
X137300500Y-110635781D01*
X137300500Y-106068476D01*
X140699500Y-106068476D01*
X140699500Y-108431523D01*
X140714352Y-108525298D01*
X140714353Y-108525301D01*
X140714354Y-108525303D01*
X140771950Y-108638342D01*
X140771951Y-108638343D01*
X140771954Y-108638347D01*
X140861652Y-108728045D01*
X140861656Y-108728048D01*
X140861658Y-108728050D01*
X140974697Y-108785646D01*
X140974699Y-108785646D01*
X140974701Y-108785647D01*
X141068477Y-108800500D01*
X141068482Y-108800500D01*
X143431523Y-108800500D01*
X143525298Y-108785647D01*
X143525298Y-108785646D01*
X143525303Y-108785646D01*
X143638342Y-108728050D01*
X143728050Y-108638342D01*
X143785646Y-108525303D01*
X143785647Y-108525298D01*
X143800500Y-108431523D01*
X143800500Y-106068476D01*
X143785647Y-105974701D01*
X143785646Y-105974699D01*
X143785646Y-105974697D01*
X143728050Y-105861658D01*
X143728048Y-105861656D01*
X143728045Y-105861652D01*
X143638347Y-105771954D01*
X143638343Y-105771951D01*
X143638342Y-105771950D01*
X143525303Y-105714354D01*
X143525301Y-105714353D01*
X143525298Y-105714352D01*
X143431523Y-105699500D01*
X143431518Y-105699500D01*
X141068482Y-105699500D01*
X141068477Y-105699500D01*
X140974701Y-105714352D01*
X140861656Y-105771951D01*
X140861652Y-105771954D01*
X140771954Y-105861652D01*
X140771951Y-105861656D01*
X140714352Y-105974701D01*
X140699500Y-106068476D01*
X137300500Y-106068476D01*
X137300500Y-104145957D01*
X153389500Y-104145957D01*
X153389500Y-104254043D01*
X153417475Y-104358447D01*
X153417476Y-104358448D01*
X153417478Y-104358453D01*
X153471513Y-104452046D01*
X153471517Y-104452051D01*
X153471518Y-104452053D01*
X153547947Y-104528482D01*
X153547949Y-104528483D01*
X153547953Y-104528486D01*
X153637647Y-104580270D01*
X153641553Y-104582525D01*
X153745957Y-104610500D01*
X153745959Y-104610500D01*
X153854040Y-104610500D01*
X153854043Y-104610500D01*
X153958447Y-104582525D01*
X154052053Y-104528482D01*
X154093716Y-104486819D01*
X154155039Y-104453334D01*
X154181397Y-104450500D01*
X159449826Y-104450500D01*
X159449828Y-104450500D01*
X159541897Y-104412364D01*
X159707442Y-104246817D01*
X159768763Y-104213334D01*
X159795122Y-104210500D01*
X159854040Y-104210500D01*
X159854043Y-104210500D01*
X159958447Y-104182525D01*
X160052053Y-104128482D01*
X160128482Y-104052053D01*
X160182525Y-103958447D01*
X160210500Y-103854043D01*
X160210500Y-103745957D01*
X160182525Y-103641553D01*
X160182521Y-103641546D01*
X160128486Y-103547953D01*
X160128480Y-103547945D01*
X160052054Y-103471519D01*
X160052046Y-103471513D01*
X159958453Y-103417478D01*
X159958450Y-103417476D01*
X159958447Y-103417475D01*
X159854043Y-103389500D01*
X159745957Y-103389500D01*
X159641553Y-103417475D01*
X159641551Y-103417475D01*
X159641551Y-103417476D01*
X159641546Y-103417478D01*
X159547953Y-103471513D01*
X159547945Y-103471519D01*
X159471519Y-103547945D01*
X159471513Y-103547953D01*
X159417478Y-103641546D01*
X159417475Y-103641551D01*
X159417475Y-103641553D01*
X159389500Y-103745957D01*
X159389500Y-103745959D01*
X159389500Y-103804875D01*
X159380856Y-103834309D01*
X159374334Y-103864299D01*
X159370577Y-103869317D01*
X159369815Y-103871914D01*
X159353183Y-103892554D01*
X159332559Y-103913179D01*
X159271237Y-103946666D01*
X159244876Y-103949500D01*
X154181397Y-103949500D01*
X154114358Y-103929815D01*
X154093716Y-103913181D01*
X154052054Y-103871519D01*
X154052046Y-103871513D01*
X153958453Y-103817478D01*
X153958450Y-103817476D01*
X153958447Y-103817475D01*
X153854043Y-103789500D01*
X153745957Y-103789500D01*
X153641553Y-103817475D01*
X153641551Y-103817475D01*
X153641551Y-103817476D01*
X153641546Y-103817478D01*
X153547953Y-103871513D01*
X153547945Y-103871519D01*
X153471519Y-103947945D01*
X153471513Y-103947953D01*
X153417478Y-104041546D01*
X153417475Y-104041551D01*
X153417475Y-104041553D01*
X153389500Y-104145957D01*
X137300500Y-104145957D01*
X137300500Y-94878048D01*
X139139500Y-94878048D01*
X139139500Y-95121951D01*
X139166013Y-95323333D01*
X139171334Y-95363744D01*
X139171335Y-95363746D01*
X139234456Y-95599320D01*
X139234459Y-95599330D01*
X139327786Y-95824640D01*
X139327791Y-95824651D01*
X139449727Y-96035848D01*
X139449738Y-96035864D01*
X139598199Y-96229343D01*
X139598205Y-96229350D01*
X139770649Y-96401794D01*
X139770655Y-96401799D01*
X139964144Y-96550268D01*
X139964151Y-96550272D01*
X140175348Y-96672208D01*
X140175353Y-96672210D01*
X140175356Y-96672212D01*
X140400679Y-96765544D01*
X140636256Y-96828666D01*
X140878056Y-96860500D01*
X140878063Y-96860500D01*
X141121937Y-96860500D01*
X141121944Y-96860500D01*
X141363744Y-96828666D01*
X141599321Y-96765544D01*
X141824644Y-96672212D01*
X142035856Y-96550268D01*
X142229345Y-96401799D01*
X142401799Y-96229345D01*
X142550268Y-96035856D01*
X142672212Y-95824644D01*
X142765544Y-95599321D01*
X142828666Y-95363744D01*
X142860500Y-95121944D01*
X142860500Y-94878056D01*
X142828666Y-94636256D01*
X142765544Y-94400679D01*
X142672212Y-94175356D01*
X142672210Y-94175353D01*
X142672208Y-94175348D01*
X142550272Y-93964151D01*
X142550268Y-93964144D01*
X142401799Y-93770655D01*
X142401794Y-93770649D01*
X142229350Y-93598205D01*
X142229343Y-93598199D01*
X142035864Y-93449738D01*
X142035862Y-93449736D01*
X142035856Y-93449732D01*
X142035851Y-93449729D01*
X142035848Y-93449727D01*
X141824651Y-93327791D01*
X141824640Y-93327786D01*
X141599330Y-93234459D01*
X141599323Y-93234457D01*
X141599321Y-93234456D01*
X141363744Y-93171334D01*
X141323333Y-93166013D01*
X141121951Y-93139500D01*
X141121944Y-93139500D01*
X140878056Y-93139500D01*
X140878048Y-93139500D01*
X140647896Y-93169801D01*
X140636256Y-93171334D01*
X140400679Y-93234456D01*
X140400669Y-93234459D01*
X140175359Y-93327786D01*
X140175348Y-93327791D01*
X139964151Y-93449727D01*
X139964135Y-93449738D01*
X139770656Y-93598199D01*
X139770649Y-93598205D01*
X139598205Y-93770649D01*
X139598199Y-93770656D01*
X139449738Y-93964135D01*
X139449727Y-93964151D01*
X139327791Y-94175348D01*
X139327786Y-94175359D01*
X139234459Y-94400669D01*
X139234456Y-94400679D01*
X139171335Y-94636253D01*
X139171333Y-94636264D01*
X139139500Y-94878048D01*
X137300500Y-94878048D01*
X137300500Y-91424500D01*
X137320185Y-91357461D01*
X137372989Y-91311706D01*
X137424500Y-91300500D01*
X181575500Y-91300500D01*
X181642539Y-91320185D01*
G37*
%TD.AperFunction*%
%TD*%
M02*
