%TF.GenerationSoftware,KiCad,Pcbnew,9.0.6*%
%TF.CreationDate,2026-04-05T18:25:42+02:00*%
%TF.ProjectId,Buck,4275636b-2e6b-4696-9361-645f70636258,C*%
%TF.SameCoordinates,Original*%
%TF.FileFunction,Legend,Top*%
%TF.FilePolarity,Positive*%
%FSLAX46Y46*%
G04 Gerber Fmt 4.6, Leading zero omitted, Abs format (unit mm)*
G04 Created by KiCad (PCBNEW 9.0.6) date 2026-04-05 18:25:42*
%MOMM*%
%LPD*%
G01*
G04 APERTURE LIST*
%ADD10C,0.150000*%
%ADD11C,0.100000*%
%ADD12C,0.125000*%
%ADD13C,0.120000*%
%ADD14C,0.200000*%
%ADD15C,0.250000*%
%ADD16C,0.000000*%
G04 APERTURE END LIST*
D10*
X160075000Y-103000000D02*
G75*
G02*
X159925000Y-103000000I-75000J0D01*
G01*
X159925000Y-103000000D02*
G75*
G02*
X160075000Y-103000000I75000J0D01*
G01*
X164525000Y-105000000D02*
G75*
G02*
X164375000Y-105000000I-75000J0D01*
G01*
X164375000Y-105000000D02*
G75*
G02*
X164525000Y-105000000I75000J0D01*
G01*
D11*
X144911027Y-150872419D02*
X145244360Y-151872419D01*
X145244360Y-151872419D02*
X145577693Y-150872419D01*
X146101503Y-150872419D02*
X146291979Y-150872419D01*
X146291979Y-150872419D02*
X146387217Y-150920038D01*
X146387217Y-150920038D02*
X146482455Y-151015276D01*
X146482455Y-151015276D02*
X146530074Y-151205752D01*
X146530074Y-151205752D02*
X146530074Y-151539085D01*
X146530074Y-151539085D02*
X146482455Y-151729561D01*
X146482455Y-151729561D02*
X146387217Y-151824800D01*
X146387217Y-151824800D02*
X146291979Y-151872419D01*
X146291979Y-151872419D02*
X146101503Y-151872419D01*
X146101503Y-151872419D02*
X146006265Y-151824800D01*
X146006265Y-151824800D02*
X145911027Y-151729561D01*
X145911027Y-151729561D02*
X145863408Y-151539085D01*
X145863408Y-151539085D02*
X145863408Y-151205752D01*
X145863408Y-151205752D02*
X145911027Y-151015276D01*
X145911027Y-151015276D02*
X146006265Y-150920038D01*
X146006265Y-150920038D02*
X146101503Y-150872419D01*
X146958646Y-150872419D02*
X146958646Y-151681942D01*
X146958646Y-151681942D02*
X147006265Y-151777180D01*
X147006265Y-151777180D02*
X147053884Y-151824800D01*
X147053884Y-151824800D02*
X147149122Y-151872419D01*
X147149122Y-151872419D02*
X147339598Y-151872419D01*
X147339598Y-151872419D02*
X147434836Y-151824800D01*
X147434836Y-151824800D02*
X147482455Y-151777180D01*
X147482455Y-151777180D02*
X147530074Y-151681942D01*
X147530074Y-151681942D02*
X147530074Y-150872419D01*
X147863408Y-150872419D02*
X148434836Y-150872419D01*
X148149122Y-151872419D02*
X148149122Y-150872419D01*
X149815789Y-152253371D02*
X149768170Y-152205752D01*
X149768170Y-152205752D02*
X149672932Y-152062895D01*
X149672932Y-152062895D02*
X149625313Y-151967657D01*
X149625313Y-151967657D02*
X149577694Y-151824800D01*
X149577694Y-151824800D02*
X149530075Y-151586704D01*
X149530075Y-151586704D02*
X149530075Y-151396228D01*
X149530075Y-151396228D02*
X149577694Y-151158133D01*
X149577694Y-151158133D02*
X149625313Y-151015276D01*
X149625313Y-151015276D02*
X149672932Y-150920038D01*
X149672932Y-150920038D02*
X149768170Y-150777180D01*
X149768170Y-150777180D02*
X149815789Y-150729561D01*
X150672932Y-150872419D02*
X150196742Y-150872419D01*
X150196742Y-150872419D02*
X150149123Y-151348609D01*
X150149123Y-151348609D02*
X150196742Y-151300990D01*
X150196742Y-151300990D02*
X150291980Y-151253371D01*
X150291980Y-151253371D02*
X150530075Y-151253371D01*
X150530075Y-151253371D02*
X150625313Y-151300990D01*
X150625313Y-151300990D02*
X150672932Y-151348609D01*
X150672932Y-151348609D02*
X150720551Y-151443847D01*
X150720551Y-151443847D02*
X150720551Y-151681942D01*
X150720551Y-151681942D02*
X150672932Y-151777180D01*
X150672932Y-151777180D02*
X150625313Y-151824800D01*
X150625313Y-151824800D02*
X150530075Y-151872419D01*
X150530075Y-151872419D02*
X150291980Y-151872419D01*
X150291980Y-151872419D02*
X150196742Y-151824800D01*
X150196742Y-151824800D02*
X150149123Y-151777180D01*
X151006266Y-150872419D02*
X151339599Y-151872419D01*
X151339599Y-151872419D02*
X151672932Y-150872419D01*
X151911028Y-152253371D02*
X151958647Y-152205752D01*
X151958647Y-152205752D02*
X152053885Y-152062895D01*
X152053885Y-152062895D02*
X152101504Y-151967657D01*
X152101504Y-151967657D02*
X152149123Y-151824800D01*
X152149123Y-151824800D02*
X152196742Y-151586704D01*
X152196742Y-151586704D02*
X152196742Y-151396228D01*
X152196742Y-151396228D02*
X152149123Y-151158133D01*
X152149123Y-151158133D02*
X152101504Y-151015276D01*
X152101504Y-151015276D02*
X152053885Y-150920038D01*
X152053885Y-150920038D02*
X151958647Y-150777180D01*
X151958647Y-150777180D02*
X151911028Y-150729561D01*
X148127580Y-103661027D02*
X147127580Y-103994360D01*
X147127580Y-103994360D02*
X148127580Y-104327693D01*
X147127580Y-104661027D02*
X148127580Y-104661027D01*
X147127580Y-105137217D02*
X148127580Y-105137217D01*
X148127580Y-105137217D02*
X147127580Y-105708645D01*
X147127580Y-105708645D02*
X148127580Y-105708645D01*
X146746628Y-107232455D02*
X146794247Y-107184836D01*
X146794247Y-107184836D02*
X146937104Y-107089598D01*
X146937104Y-107089598D02*
X147032342Y-107041979D01*
X147032342Y-107041979D02*
X147175200Y-106994360D01*
X147175200Y-106994360D02*
X147413295Y-106946741D01*
X147413295Y-106946741D02*
X147603771Y-106946741D01*
X147603771Y-106946741D02*
X147841866Y-106994360D01*
X147841866Y-106994360D02*
X147984723Y-107041979D01*
X147984723Y-107041979D02*
X148079961Y-107089598D01*
X148079961Y-107089598D02*
X148222819Y-107184836D01*
X148222819Y-107184836D02*
X148270438Y-107232455D01*
X147127580Y-108137217D02*
X147127580Y-107565789D01*
X147127580Y-107851503D02*
X148127580Y-107851503D01*
X148127580Y-107851503D02*
X147984723Y-107756265D01*
X147984723Y-107756265D02*
X147889485Y-107661027D01*
X147889485Y-107661027D02*
X147841866Y-107565789D01*
X147699009Y-108708646D02*
X147746628Y-108613408D01*
X147746628Y-108613408D02*
X147794247Y-108565789D01*
X147794247Y-108565789D02*
X147889485Y-108518170D01*
X147889485Y-108518170D02*
X147937104Y-108518170D01*
X147937104Y-108518170D02*
X148032342Y-108565789D01*
X148032342Y-108565789D02*
X148079961Y-108613408D01*
X148079961Y-108613408D02*
X148127580Y-108708646D01*
X148127580Y-108708646D02*
X148127580Y-108899122D01*
X148127580Y-108899122D02*
X148079961Y-108994360D01*
X148079961Y-108994360D02*
X148032342Y-109041979D01*
X148032342Y-109041979D02*
X147937104Y-109089598D01*
X147937104Y-109089598D02*
X147889485Y-109089598D01*
X147889485Y-109089598D02*
X147794247Y-109041979D01*
X147794247Y-109041979D02*
X147746628Y-108994360D01*
X147746628Y-108994360D02*
X147699009Y-108899122D01*
X147699009Y-108899122D02*
X147699009Y-108708646D01*
X147699009Y-108708646D02*
X147651390Y-108613408D01*
X147651390Y-108613408D02*
X147603771Y-108565789D01*
X147603771Y-108565789D02*
X147508533Y-108518170D01*
X147508533Y-108518170D02*
X147318057Y-108518170D01*
X147318057Y-108518170D02*
X147222819Y-108565789D01*
X147222819Y-108565789D02*
X147175200Y-108613408D01*
X147175200Y-108613408D02*
X147127580Y-108708646D01*
X147127580Y-108708646D02*
X147127580Y-108899122D01*
X147127580Y-108899122D02*
X147175200Y-108994360D01*
X147175200Y-108994360D02*
X147222819Y-109041979D01*
X147222819Y-109041979D02*
X147318057Y-109089598D01*
X147318057Y-109089598D02*
X147508533Y-109089598D01*
X147508533Y-109089598D02*
X147603771Y-109041979D01*
X147603771Y-109041979D02*
X147651390Y-108994360D01*
X147651390Y-108994360D02*
X147699009Y-108899122D01*
X148127580Y-109375313D02*
X147127580Y-109708646D01*
X147127580Y-109708646D02*
X148127580Y-110041979D01*
X146746628Y-110280075D02*
X146794247Y-110327694D01*
X146794247Y-110327694D02*
X146937104Y-110422932D01*
X146937104Y-110422932D02*
X147032342Y-110470551D01*
X147032342Y-110470551D02*
X147175200Y-110518170D01*
X147175200Y-110518170D02*
X147413295Y-110565789D01*
X147413295Y-110565789D02*
X147603771Y-110565789D01*
X147603771Y-110565789D02*
X147841866Y-110518170D01*
X147841866Y-110518170D02*
X147984723Y-110470551D01*
X147984723Y-110470551D02*
X148079961Y-110422932D01*
X148079961Y-110422932D02*
X148222819Y-110327694D01*
X148222819Y-110327694D02*
X148270438Y-110280075D01*
X165327693Y-150920038D02*
X165232455Y-150872419D01*
X165232455Y-150872419D02*
X165089598Y-150872419D01*
X165089598Y-150872419D02*
X164946741Y-150920038D01*
X164946741Y-150920038D02*
X164851503Y-151015276D01*
X164851503Y-151015276D02*
X164803884Y-151110514D01*
X164803884Y-151110514D02*
X164756265Y-151300990D01*
X164756265Y-151300990D02*
X164756265Y-151443847D01*
X164756265Y-151443847D02*
X164803884Y-151634323D01*
X164803884Y-151634323D02*
X164851503Y-151729561D01*
X164851503Y-151729561D02*
X164946741Y-151824800D01*
X164946741Y-151824800D02*
X165089598Y-151872419D01*
X165089598Y-151872419D02*
X165184836Y-151872419D01*
X165184836Y-151872419D02*
X165327693Y-151824800D01*
X165327693Y-151824800D02*
X165375312Y-151777180D01*
X165375312Y-151777180D02*
X165375312Y-151443847D01*
X165375312Y-151443847D02*
X165184836Y-151443847D01*
X165803884Y-151872419D02*
X165803884Y-150872419D01*
X165803884Y-150872419D02*
X166375312Y-151872419D01*
X166375312Y-151872419D02*
X166375312Y-150872419D01*
X166851503Y-151872419D02*
X166851503Y-150872419D01*
X166851503Y-150872419D02*
X167089598Y-150872419D01*
X167089598Y-150872419D02*
X167232455Y-150920038D01*
X167232455Y-150920038D02*
X167327693Y-151015276D01*
X167327693Y-151015276D02*
X167375312Y-151110514D01*
X167375312Y-151110514D02*
X167422931Y-151300990D01*
X167422931Y-151300990D02*
X167422931Y-151443847D01*
X167422931Y-151443847D02*
X167375312Y-151634323D01*
X167375312Y-151634323D02*
X167327693Y-151729561D01*
X167327693Y-151729561D02*
X167232455Y-151824800D01*
X167232455Y-151824800D02*
X167089598Y-151872419D01*
X167089598Y-151872419D02*
X166851503Y-151872419D01*
X148079961Y-112327693D02*
X148127580Y-112232455D01*
X148127580Y-112232455D02*
X148127580Y-112089598D01*
X148127580Y-112089598D02*
X148079961Y-111946741D01*
X148079961Y-111946741D02*
X147984723Y-111851503D01*
X147984723Y-111851503D02*
X147889485Y-111803884D01*
X147889485Y-111803884D02*
X147699009Y-111756265D01*
X147699009Y-111756265D02*
X147556152Y-111756265D01*
X147556152Y-111756265D02*
X147365676Y-111803884D01*
X147365676Y-111803884D02*
X147270438Y-111851503D01*
X147270438Y-111851503D02*
X147175200Y-111946741D01*
X147175200Y-111946741D02*
X147127580Y-112089598D01*
X147127580Y-112089598D02*
X147127580Y-112184836D01*
X147127580Y-112184836D02*
X147175200Y-112327693D01*
X147175200Y-112327693D02*
X147222819Y-112375312D01*
X147222819Y-112375312D02*
X147556152Y-112375312D01*
X147556152Y-112375312D02*
X147556152Y-112184836D01*
X147127580Y-112803884D02*
X148127580Y-112803884D01*
X148127580Y-112803884D02*
X147127580Y-113375312D01*
X147127580Y-113375312D02*
X148127580Y-113375312D01*
X147127580Y-113851503D02*
X148127580Y-113851503D01*
X148127580Y-113851503D02*
X148127580Y-114089598D01*
X148127580Y-114089598D02*
X148079961Y-114232455D01*
X148079961Y-114232455D02*
X147984723Y-114327693D01*
X147984723Y-114327693D02*
X147889485Y-114375312D01*
X147889485Y-114375312D02*
X147699009Y-114422931D01*
X147699009Y-114422931D02*
X147556152Y-114422931D01*
X147556152Y-114422931D02*
X147365676Y-114375312D01*
X147365676Y-114375312D02*
X147270438Y-114327693D01*
X147270438Y-114327693D02*
X147175200Y-114232455D01*
X147175200Y-114232455D02*
X147127580Y-114089598D01*
X147127580Y-114089598D02*
X147127580Y-113851503D01*
X139079961Y-116827693D02*
X139127580Y-116732455D01*
X139127580Y-116732455D02*
X139127580Y-116589598D01*
X139127580Y-116589598D02*
X139079961Y-116446741D01*
X139079961Y-116446741D02*
X138984723Y-116351503D01*
X138984723Y-116351503D02*
X138889485Y-116303884D01*
X138889485Y-116303884D02*
X138699009Y-116256265D01*
X138699009Y-116256265D02*
X138556152Y-116256265D01*
X138556152Y-116256265D02*
X138365676Y-116303884D01*
X138365676Y-116303884D02*
X138270438Y-116351503D01*
X138270438Y-116351503D02*
X138175200Y-116446741D01*
X138175200Y-116446741D02*
X138127580Y-116589598D01*
X138127580Y-116589598D02*
X138127580Y-116684836D01*
X138127580Y-116684836D02*
X138175200Y-116827693D01*
X138175200Y-116827693D02*
X138222819Y-116875312D01*
X138222819Y-116875312D02*
X138556152Y-116875312D01*
X138556152Y-116875312D02*
X138556152Y-116684836D01*
X138127580Y-117303884D02*
X139127580Y-117303884D01*
X139127580Y-117303884D02*
X138127580Y-117875312D01*
X138127580Y-117875312D02*
X139127580Y-117875312D01*
X138127580Y-118351503D02*
X139127580Y-118351503D01*
X139127580Y-118351503D02*
X139127580Y-118589598D01*
X139127580Y-118589598D02*
X139079961Y-118732455D01*
X139079961Y-118732455D02*
X138984723Y-118827693D01*
X138984723Y-118827693D02*
X138889485Y-118875312D01*
X138889485Y-118875312D02*
X138699009Y-118922931D01*
X138699009Y-118922931D02*
X138556152Y-118922931D01*
X138556152Y-118922931D02*
X138365676Y-118875312D01*
X138365676Y-118875312D02*
X138270438Y-118827693D01*
X138270438Y-118827693D02*
X138175200Y-118732455D01*
X138175200Y-118732455D02*
X138127580Y-118589598D01*
X138127580Y-118589598D02*
X138127580Y-118351503D01*
X175838095Y-143608940D02*
X175571428Y-143227987D01*
X175380952Y-143608940D02*
X175380952Y-142808940D01*
X175380952Y-142808940D02*
X175685714Y-142808940D01*
X175685714Y-142808940D02*
X175761904Y-142847035D01*
X175761904Y-142847035D02*
X175799999Y-142885130D01*
X175799999Y-142885130D02*
X175838095Y-142961321D01*
X175838095Y-142961321D02*
X175838095Y-143075606D01*
X175838095Y-143075606D02*
X175799999Y-143151797D01*
X175799999Y-143151797D02*
X175761904Y-143189892D01*
X175761904Y-143189892D02*
X175685714Y-143227987D01*
X175685714Y-143227987D02*
X175380952Y-143227987D01*
X176180952Y-143189892D02*
X176447618Y-143189892D01*
X176561904Y-143608940D02*
X176180952Y-143608940D01*
X176180952Y-143608940D02*
X176180952Y-142808940D01*
X176180952Y-142808940D02*
X176561904Y-142808940D01*
X176790476Y-142808940D02*
X177057143Y-143608940D01*
X177057143Y-143608940D02*
X177323809Y-142808940D01*
X178657143Y-143532749D02*
X178619047Y-143570845D01*
X178619047Y-143570845D02*
X178504762Y-143608940D01*
X178504762Y-143608940D02*
X178428571Y-143608940D01*
X178428571Y-143608940D02*
X178314285Y-143570845D01*
X178314285Y-143570845D02*
X178238095Y-143494654D01*
X178238095Y-143494654D02*
X178200000Y-143418464D01*
X178200000Y-143418464D02*
X178161904Y-143266083D01*
X178161904Y-143266083D02*
X178161904Y-143151797D01*
X178161904Y-143151797D02*
X178200000Y-142999416D01*
X178200000Y-142999416D02*
X178238095Y-142923225D01*
X178238095Y-142923225D02*
X178314285Y-142847035D01*
X178314285Y-142847035D02*
X178428571Y-142808940D01*
X178428571Y-142808940D02*
X178504762Y-142808940D01*
X178504762Y-142808940D02*
X178619047Y-142847035D01*
X178619047Y-142847035D02*
X178657143Y-142885130D01*
X174104761Y-144096895D02*
X173723809Y-144096895D01*
X173723809Y-144096895D02*
X173685713Y-144477847D01*
X173685713Y-144477847D02*
X173723809Y-144439752D01*
X173723809Y-144439752D02*
X173799999Y-144401657D01*
X173799999Y-144401657D02*
X173990475Y-144401657D01*
X173990475Y-144401657D02*
X174066666Y-144439752D01*
X174066666Y-144439752D02*
X174104761Y-144477847D01*
X174104761Y-144477847D02*
X174142856Y-144554038D01*
X174142856Y-144554038D02*
X174142856Y-144744514D01*
X174142856Y-144744514D02*
X174104761Y-144820704D01*
X174104761Y-144820704D02*
X174066666Y-144858800D01*
X174066666Y-144858800D02*
X173990475Y-144896895D01*
X173990475Y-144896895D02*
X173799999Y-144896895D01*
X173799999Y-144896895D02*
X173723809Y-144858800D01*
X173723809Y-144858800D02*
X173685713Y-144820704D01*
X175057142Y-144668323D02*
X175438095Y-144668323D01*
X174980952Y-144896895D02*
X175247619Y-144096895D01*
X175247619Y-144096895D02*
X175514285Y-144896895D01*
X175780952Y-144363561D02*
X175780952Y-145163561D01*
X175780952Y-144401657D02*
X175857142Y-144363561D01*
X175857142Y-144363561D02*
X176009523Y-144363561D01*
X176009523Y-144363561D02*
X176085714Y-144401657D01*
X176085714Y-144401657D02*
X176123809Y-144439752D01*
X176123809Y-144439752D02*
X176161904Y-144515942D01*
X176161904Y-144515942D02*
X176161904Y-144744514D01*
X176161904Y-144744514D02*
X176123809Y-144820704D01*
X176123809Y-144820704D02*
X176085714Y-144858800D01*
X176085714Y-144858800D02*
X176009523Y-144896895D01*
X176009523Y-144896895D02*
X175857142Y-144896895D01*
X175857142Y-144896895D02*
X175780952Y-144858800D01*
X176504762Y-144896895D02*
X176504762Y-144363561D01*
X176504762Y-144515942D02*
X176542857Y-144439752D01*
X176542857Y-144439752D02*
X176580952Y-144401657D01*
X176580952Y-144401657D02*
X176657143Y-144363561D01*
X176657143Y-144363561D02*
X176733333Y-144363561D01*
X177571428Y-144173085D02*
X177609524Y-144134990D01*
X177609524Y-144134990D02*
X177685714Y-144096895D01*
X177685714Y-144096895D02*
X177876190Y-144096895D01*
X177876190Y-144096895D02*
X177952381Y-144134990D01*
X177952381Y-144134990D02*
X177990476Y-144173085D01*
X177990476Y-144173085D02*
X178028571Y-144249276D01*
X178028571Y-144249276D02*
X178028571Y-144325466D01*
X178028571Y-144325466D02*
X177990476Y-144439752D01*
X177990476Y-144439752D02*
X177533333Y-144896895D01*
X177533333Y-144896895D02*
X178028571Y-144896895D01*
X178523810Y-144096895D02*
X178600000Y-144096895D01*
X178600000Y-144096895D02*
X178676191Y-144134990D01*
X178676191Y-144134990D02*
X178714286Y-144173085D01*
X178714286Y-144173085D02*
X178752381Y-144249276D01*
X178752381Y-144249276D02*
X178790476Y-144401657D01*
X178790476Y-144401657D02*
X178790476Y-144592133D01*
X178790476Y-144592133D02*
X178752381Y-144744514D01*
X178752381Y-144744514D02*
X178714286Y-144820704D01*
X178714286Y-144820704D02*
X178676191Y-144858800D01*
X178676191Y-144858800D02*
X178600000Y-144896895D01*
X178600000Y-144896895D02*
X178523810Y-144896895D01*
X178523810Y-144896895D02*
X178447619Y-144858800D01*
X178447619Y-144858800D02*
X178409524Y-144820704D01*
X178409524Y-144820704D02*
X178371429Y-144744514D01*
X178371429Y-144744514D02*
X178333333Y-144592133D01*
X178333333Y-144592133D02*
X178333333Y-144401657D01*
X178333333Y-144401657D02*
X178371429Y-144249276D01*
X178371429Y-144249276D02*
X178409524Y-144173085D01*
X178409524Y-144173085D02*
X178447619Y-144134990D01*
X178447619Y-144134990D02*
X178523810Y-144096895D01*
X179095238Y-144173085D02*
X179133334Y-144134990D01*
X179133334Y-144134990D02*
X179209524Y-144096895D01*
X179209524Y-144096895D02*
X179400000Y-144096895D01*
X179400000Y-144096895D02*
X179476191Y-144134990D01*
X179476191Y-144134990D02*
X179514286Y-144173085D01*
X179514286Y-144173085D02*
X179552381Y-144249276D01*
X179552381Y-144249276D02*
X179552381Y-144325466D01*
X179552381Y-144325466D02*
X179514286Y-144439752D01*
X179514286Y-144439752D02*
X179057143Y-144896895D01*
X179057143Y-144896895D02*
X179552381Y-144896895D01*
X180238096Y-144096895D02*
X180085715Y-144096895D01*
X180085715Y-144096895D02*
X180009524Y-144134990D01*
X180009524Y-144134990D02*
X179971429Y-144173085D01*
X179971429Y-144173085D02*
X179895239Y-144287371D01*
X179895239Y-144287371D02*
X179857143Y-144439752D01*
X179857143Y-144439752D02*
X179857143Y-144744514D01*
X179857143Y-144744514D02*
X179895239Y-144820704D01*
X179895239Y-144820704D02*
X179933334Y-144858800D01*
X179933334Y-144858800D02*
X180009524Y-144896895D01*
X180009524Y-144896895D02*
X180161905Y-144896895D01*
X180161905Y-144896895D02*
X180238096Y-144858800D01*
X180238096Y-144858800D02*
X180276191Y-144820704D01*
X180276191Y-144820704D02*
X180314286Y-144744514D01*
X180314286Y-144744514D02*
X180314286Y-144554038D01*
X180314286Y-144554038D02*
X180276191Y-144477847D01*
X180276191Y-144477847D02*
X180238096Y-144439752D01*
X180238096Y-144439752D02*
X180161905Y-144401657D01*
X180161905Y-144401657D02*
X180009524Y-144401657D01*
X180009524Y-144401657D02*
X179933334Y-144439752D01*
X179933334Y-144439752D02*
X179895239Y-144477847D01*
X179895239Y-144477847D02*
X179857143Y-144554038D01*
D12*
X148999999Y-101562904D02*
X149166666Y-101562904D01*
X149238094Y-101824809D02*
X148999999Y-101824809D01*
X148999999Y-101824809D02*
X148999999Y-101324809D01*
X148999999Y-101324809D02*
X149238094Y-101324809D01*
X149452380Y-101824809D02*
X149452380Y-101324809D01*
X149452380Y-101324809D02*
X149738094Y-101824809D01*
X149738094Y-101824809D02*
X149738094Y-101324809D01*
X149857143Y-101872428D02*
X150238095Y-101872428D01*
X150357142Y-101324809D02*
X150357142Y-101729571D01*
X150357142Y-101729571D02*
X150380952Y-101777190D01*
X150380952Y-101777190D02*
X150404761Y-101801000D01*
X150404761Y-101801000D02*
X150452380Y-101824809D01*
X150452380Y-101824809D02*
X150547618Y-101824809D01*
X150547618Y-101824809D02*
X150595237Y-101801000D01*
X150595237Y-101801000D02*
X150619047Y-101777190D01*
X150619047Y-101777190D02*
X150642856Y-101729571D01*
X150642856Y-101729571D02*
X150642856Y-101324809D01*
X150809524Y-101324809D02*
X150976190Y-101824809D01*
X150976190Y-101824809D02*
X151142857Y-101324809D01*
X151547618Y-101824809D02*
X151309523Y-101824809D01*
X151309523Y-101824809D02*
X151309523Y-101324809D01*
X151809523Y-101324809D02*
X151904761Y-101324809D01*
X151904761Y-101324809D02*
X151952380Y-101348619D01*
X151952380Y-101348619D02*
X151999999Y-101396238D01*
X151999999Y-101396238D02*
X152023809Y-101491476D01*
X152023809Y-101491476D02*
X152023809Y-101658142D01*
X152023809Y-101658142D02*
X151999999Y-101753380D01*
X151999999Y-101753380D02*
X151952380Y-101801000D01*
X151952380Y-101801000D02*
X151904761Y-101824809D01*
X151904761Y-101824809D02*
X151809523Y-101824809D01*
X151809523Y-101824809D02*
X151761904Y-101801000D01*
X151761904Y-101801000D02*
X151714285Y-101753380D01*
X151714285Y-101753380D02*
X151690476Y-101658142D01*
X151690476Y-101658142D02*
X151690476Y-101491476D01*
X151690476Y-101491476D02*
X151714285Y-101396238D01*
X151714285Y-101396238D02*
X151761904Y-101348619D01*
X151761904Y-101348619D02*
X151809523Y-101324809D01*
X157319048Y-101601000D02*
X157390476Y-101624809D01*
X157390476Y-101624809D02*
X157509524Y-101624809D01*
X157509524Y-101624809D02*
X157557143Y-101601000D01*
X157557143Y-101601000D02*
X157580952Y-101577190D01*
X157580952Y-101577190D02*
X157604762Y-101529571D01*
X157604762Y-101529571D02*
X157604762Y-101481952D01*
X157604762Y-101481952D02*
X157580952Y-101434333D01*
X157580952Y-101434333D02*
X157557143Y-101410523D01*
X157557143Y-101410523D02*
X157509524Y-101386714D01*
X157509524Y-101386714D02*
X157414286Y-101362904D01*
X157414286Y-101362904D02*
X157366667Y-101339095D01*
X157366667Y-101339095D02*
X157342857Y-101315285D01*
X157342857Y-101315285D02*
X157319048Y-101267666D01*
X157319048Y-101267666D02*
X157319048Y-101220047D01*
X157319048Y-101220047D02*
X157342857Y-101172428D01*
X157342857Y-101172428D02*
X157366667Y-101148619D01*
X157366667Y-101148619D02*
X157414286Y-101124809D01*
X157414286Y-101124809D02*
X157533333Y-101124809D01*
X157533333Y-101124809D02*
X157604762Y-101148619D01*
X157795238Y-101601000D02*
X157866666Y-101624809D01*
X157866666Y-101624809D02*
X157985714Y-101624809D01*
X157985714Y-101624809D02*
X158033333Y-101601000D01*
X158033333Y-101601000D02*
X158057142Y-101577190D01*
X158057142Y-101577190D02*
X158080952Y-101529571D01*
X158080952Y-101529571D02*
X158080952Y-101481952D01*
X158080952Y-101481952D02*
X158057142Y-101434333D01*
X158057142Y-101434333D02*
X158033333Y-101410523D01*
X158033333Y-101410523D02*
X157985714Y-101386714D01*
X157985714Y-101386714D02*
X157890476Y-101362904D01*
X157890476Y-101362904D02*
X157842857Y-101339095D01*
X157842857Y-101339095D02*
X157819047Y-101315285D01*
X157819047Y-101315285D02*
X157795238Y-101267666D01*
X157795238Y-101267666D02*
X157795238Y-101220047D01*
X157795238Y-101220047D02*
X157819047Y-101172428D01*
X157819047Y-101172428D02*
X157842857Y-101148619D01*
X157842857Y-101148619D02*
X157890476Y-101124809D01*
X157890476Y-101124809D02*
X158009523Y-101124809D01*
X158009523Y-101124809D02*
X158080952Y-101148619D01*
X160645237Y-115674809D02*
X160645237Y-115174809D01*
X160645237Y-115174809D02*
X160835713Y-115174809D01*
X160835713Y-115174809D02*
X160883332Y-115198619D01*
X160883332Y-115198619D02*
X160907142Y-115222428D01*
X160907142Y-115222428D02*
X160930951Y-115270047D01*
X160930951Y-115270047D02*
X160930951Y-115341476D01*
X160930951Y-115341476D02*
X160907142Y-115389095D01*
X160907142Y-115389095D02*
X160883332Y-115412904D01*
X160883332Y-115412904D02*
X160835713Y-115436714D01*
X160835713Y-115436714D02*
X160645237Y-115436714D01*
X161407142Y-115198619D02*
X161359523Y-115174809D01*
X161359523Y-115174809D02*
X161288094Y-115174809D01*
X161288094Y-115174809D02*
X161216666Y-115198619D01*
X161216666Y-115198619D02*
X161169047Y-115246238D01*
X161169047Y-115246238D02*
X161145237Y-115293857D01*
X161145237Y-115293857D02*
X161121428Y-115389095D01*
X161121428Y-115389095D02*
X161121428Y-115460523D01*
X161121428Y-115460523D02*
X161145237Y-115555761D01*
X161145237Y-115555761D02*
X161169047Y-115603380D01*
X161169047Y-115603380D02*
X161216666Y-115651000D01*
X161216666Y-115651000D02*
X161288094Y-115674809D01*
X161288094Y-115674809D02*
X161335713Y-115674809D01*
X161335713Y-115674809D02*
X161407142Y-115651000D01*
X161407142Y-115651000D02*
X161430951Y-115627190D01*
X161430951Y-115627190D02*
X161430951Y-115460523D01*
X161430951Y-115460523D02*
X161335713Y-115460523D01*
X161740475Y-115174809D02*
X161835713Y-115174809D01*
X161835713Y-115174809D02*
X161883332Y-115198619D01*
X161883332Y-115198619D02*
X161930951Y-115246238D01*
X161930951Y-115246238D02*
X161954761Y-115341476D01*
X161954761Y-115341476D02*
X161954761Y-115508142D01*
X161954761Y-115508142D02*
X161930951Y-115603380D01*
X161930951Y-115603380D02*
X161883332Y-115651000D01*
X161883332Y-115651000D02*
X161835713Y-115674809D01*
X161835713Y-115674809D02*
X161740475Y-115674809D01*
X161740475Y-115674809D02*
X161692856Y-115651000D01*
X161692856Y-115651000D02*
X161645237Y-115603380D01*
X161645237Y-115603380D02*
X161621428Y-115508142D01*
X161621428Y-115508142D02*
X161621428Y-115341476D01*
X161621428Y-115341476D02*
X161645237Y-115246238D01*
X161645237Y-115246238D02*
X161692856Y-115198619D01*
X161692856Y-115198619D02*
X161740475Y-115174809D01*
X162264285Y-115174809D02*
X162359523Y-115174809D01*
X162359523Y-115174809D02*
X162407142Y-115198619D01*
X162407142Y-115198619D02*
X162454761Y-115246238D01*
X162454761Y-115246238D02*
X162478571Y-115341476D01*
X162478571Y-115341476D02*
X162478571Y-115508142D01*
X162478571Y-115508142D02*
X162454761Y-115603380D01*
X162454761Y-115603380D02*
X162407142Y-115651000D01*
X162407142Y-115651000D02*
X162359523Y-115674809D01*
X162359523Y-115674809D02*
X162264285Y-115674809D01*
X162264285Y-115674809D02*
X162216666Y-115651000D01*
X162216666Y-115651000D02*
X162169047Y-115603380D01*
X162169047Y-115603380D02*
X162145238Y-115508142D01*
X162145238Y-115508142D02*
X162145238Y-115341476D01*
X162145238Y-115341476D02*
X162169047Y-115246238D01*
X162169047Y-115246238D02*
X162216666Y-115198619D01*
X162216666Y-115198619D02*
X162264285Y-115174809D01*
X162692857Y-115674809D02*
X162692857Y-115174809D01*
X162692857Y-115174809D02*
X162811905Y-115174809D01*
X162811905Y-115174809D02*
X162883333Y-115198619D01*
X162883333Y-115198619D02*
X162930952Y-115246238D01*
X162930952Y-115246238D02*
X162954762Y-115293857D01*
X162954762Y-115293857D02*
X162978571Y-115389095D01*
X162978571Y-115389095D02*
X162978571Y-115460523D01*
X162978571Y-115460523D02*
X162954762Y-115555761D01*
X162954762Y-115555761D02*
X162930952Y-115603380D01*
X162930952Y-115603380D02*
X162883333Y-115651000D01*
X162883333Y-115651000D02*
X162811905Y-115674809D01*
X162811905Y-115674809D02*
X162692857Y-115674809D01*
X154557142Y-113427190D02*
X154533333Y-113451000D01*
X154533333Y-113451000D02*
X154461904Y-113474809D01*
X154461904Y-113474809D02*
X154414285Y-113474809D01*
X154414285Y-113474809D02*
X154342857Y-113451000D01*
X154342857Y-113451000D02*
X154295238Y-113403380D01*
X154295238Y-113403380D02*
X154271428Y-113355761D01*
X154271428Y-113355761D02*
X154247619Y-113260523D01*
X154247619Y-113260523D02*
X154247619Y-113189095D01*
X154247619Y-113189095D02*
X154271428Y-113093857D01*
X154271428Y-113093857D02*
X154295238Y-113046238D01*
X154295238Y-113046238D02*
X154342857Y-112998619D01*
X154342857Y-112998619D02*
X154414285Y-112974809D01*
X154414285Y-112974809D02*
X154461904Y-112974809D01*
X154461904Y-112974809D02*
X154533333Y-112998619D01*
X154533333Y-112998619D02*
X154557142Y-113022428D01*
X154866666Y-112974809D02*
X154961904Y-112974809D01*
X154961904Y-112974809D02*
X155009523Y-112998619D01*
X155009523Y-112998619D02*
X155057142Y-113046238D01*
X155057142Y-113046238D02*
X155080952Y-113141476D01*
X155080952Y-113141476D02*
X155080952Y-113308142D01*
X155080952Y-113308142D02*
X155057142Y-113403380D01*
X155057142Y-113403380D02*
X155009523Y-113451000D01*
X155009523Y-113451000D02*
X154961904Y-113474809D01*
X154961904Y-113474809D02*
X154866666Y-113474809D01*
X154866666Y-113474809D02*
X154819047Y-113451000D01*
X154819047Y-113451000D02*
X154771428Y-113403380D01*
X154771428Y-113403380D02*
X154747619Y-113308142D01*
X154747619Y-113308142D02*
X154747619Y-113141476D01*
X154747619Y-113141476D02*
X154771428Y-113046238D01*
X154771428Y-113046238D02*
X154819047Y-112998619D01*
X154819047Y-112998619D02*
X154866666Y-112974809D01*
X155295238Y-113474809D02*
X155295238Y-112974809D01*
X155295238Y-112974809D02*
X155461905Y-113331952D01*
X155461905Y-113331952D02*
X155628571Y-112974809D01*
X155628571Y-112974809D02*
X155628571Y-113474809D01*
X155866667Y-113474809D02*
X155866667Y-112974809D01*
X155866667Y-112974809D02*
X156057143Y-112974809D01*
X156057143Y-112974809D02*
X156104762Y-112998619D01*
X156104762Y-112998619D02*
X156128572Y-113022428D01*
X156128572Y-113022428D02*
X156152381Y-113070047D01*
X156152381Y-113070047D02*
X156152381Y-113141476D01*
X156152381Y-113141476D02*
X156128572Y-113189095D01*
X156128572Y-113189095D02*
X156104762Y-113212904D01*
X156104762Y-113212904D02*
X156057143Y-113236714D01*
X156057143Y-113236714D02*
X155866667Y-113236714D01*
X149321429Y-108512904D02*
X149154762Y-108512904D01*
X149154762Y-108774809D02*
X149154762Y-108274809D01*
X149154762Y-108274809D02*
X149392857Y-108274809D01*
X149750000Y-108512904D02*
X149821428Y-108536714D01*
X149821428Y-108536714D02*
X149845238Y-108560523D01*
X149845238Y-108560523D02*
X149869047Y-108608142D01*
X149869047Y-108608142D02*
X149869047Y-108679571D01*
X149869047Y-108679571D02*
X149845238Y-108727190D01*
X149845238Y-108727190D02*
X149821428Y-108751000D01*
X149821428Y-108751000D02*
X149773809Y-108774809D01*
X149773809Y-108774809D02*
X149583333Y-108774809D01*
X149583333Y-108774809D02*
X149583333Y-108274809D01*
X149583333Y-108274809D02*
X149750000Y-108274809D01*
X149750000Y-108274809D02*
X149797619Y-108298619D01*
X149797619Y-108298619D02*
X149821428Y-108322428D01*
X149821428Y-108322428D02*
X149845238Y-108370047D01*
X149845238Y-108370047D02*
X149845238Y-108417666D01*
X149845238Y-108417666D02*
X149821428Y-108465285D01*
X149821428Y-108465285D02*
X149797619Y-108489095D01*
X149797619Y-108489095D02*
X149750000Y-108512904D01*
X149750000Y-108512904D02*
X149583333Y-108512904D01*
X175678571Y-105794809D02*
X175511905Y-105556714D01*
X175392857Y-105794809D02*
X175392857Y-105294809D01*
X175392857Y-105294809D02*
X175583333Y-105294809D01*
X175583333Y-105294809D02*
X175630952Y-105318619D01*
X175630952Y-105318619D02*
X175654762Y-105342428D01*
X175654762Y-105342428D02*
X175678571Y-105390047D01*
X175678571Y-105390047D02*
X175678571Y-105461476D01*
X175678571Y-105461476D02*
X175654762Y-105509095D01*
X175654762Y-105509095D02*
X175630952Y-105532904D01*
X175630952Y-105532904D02*
X175583333Y-105556714D01*
X175583333Y-105556714D02*
X175392857Y-105556714D01*
X176154762Y-105794809D02*
X175869048Y-105794809D01*
X176011905Y-105794809D02*
X176011905Y-105294809D01*
X176011905Y-105294809D02*
X175964286Y-105366238D01*
X175964286Y-105366238D02*
X175916667Y-105413857D01*
X175916667Y-105413857D02*
X175869048Y-105437666D01*
X176464285Y-105294809D02*
X176511904Y-105294809D01*
X176511904Y-105294809D02*
X176559523Y-105318619D01*
X176559523Y-105318619D02*
X176583333Y-105342428D01*
X176583333Y-105342428D02*
X176607142Y-105390047D01*
X176607142Y-105390047D02*
X176630952Y-105485285D01*
X176630952Y-105485285D02*
X176630952Y-105604333D01*
X176630952Y-105604333D02*
X176607142Y-105699571D01*
X176607142Y-105699571D02*
X176583333Y-105747190D01*
X176583333Y-105747190D02*
X176559523Y-105771000D01*
X176559523Y-105771000D02*
X176511904Y-105794809D01*
X176511904Y-105794809D02*
X176464285Y-105794809D01*
X176464285Y-105794809D02*
X176416666Y-105771000D01*
X176416666Y-105771000D02*
X176392857Y-105747190D01*
X176392857Y-105747190D02*
X176369047Y-105699571D01*
X176369047Y-105699571D02*
X176345238Y-105604333D01*
X176345238Y-105604333D02*
X176345238Y-105485285D01*
X176345238Y-105485285D02*
X176369047Y-105390047D01*
X176369047Y-105390047D02*
X176392857Y-105342428D01*
X176392857Y-105342428D02*
X176416666Y-105318619D01*
X176416666Y-105318619D02*
X176464285Y-105294809D01*
X176352380Y-96672428D02*
X176304761Y-96648619D01*
X176304761Y-96648619D02*
X176257142Y-96601000D01*
X176257142Y-96601000D02*
X176185714Y-96529571D01*
X176185714Y-96529571D02*
X176138095Y-96505761D01*
X176138095Y-96505761D02*
X176090476Y-96505761D01*
X176114285Y-96624809D02*
X176066666Y-96601000D01*
X176066666Y-96601000D02*
X176019047Y-96553380D01*
X176019047Y-96553380D02*
X175995238Y-96458142D01*
X175995238Y-96458142D02*
X175995238Y-96291476D01*
X175995238Y-96291476D02*
X176019047Y-96196238D01*
X176019047Y-96196238D02*
X176066666Y-96148619D01*
X176066666Y-96148619D02*
X176114285Y-96124809D01*
X176114285Y-96124809D02*
X176209523Y-96124809D01*
X176209523Y-96124809D02*
X176257142Y-96148619D01*
X176257142Y-96148619D02*
X176304761Y-96196238D01*
X176304761Y-96196238D02*
X176328571Y-96291476D01*
X176328571Y-96291476D02*
X176328571Y-96458142D01*
X176328571Y-96458142D02*
X176304761Y-96553380D01*
X176304761Y-96553380D02*
X176257142Y-96601000D01*
X176257142Y-96601000D02*
X176209523Y-96624809D01*
X176209523Y-96624809D02*
X176114285Y-96624809D01*
X176495238Y-96124809D02*
X176804762Y-96124809D01*
X176804762Y-96124809D02*
X176638095Y-96315285D01*
X176638095Y-96315285D02*
X176709524Y-96315285D01*
X176709524Y-96315285D02*
X176757143Y-96339095D01*
X176757143Y-96339095D02*
X176780952Y-96362904D01*
X176780952Y-96362904D02*
X176804762Y-96410523D01*
X176804762Y-96410523D02*
X176804762Y-96529571D01*
X176804762Y-96529571D02*
X176780952Y-96577190D01*
X176780952Y-96577190D02*
X176757143Y-96601000D01*
X176757143Y-96601000D02*
X176709524Y-96624809D01*
X176709524Y-96624809D02*
X176566667Y-96624809D01*
X176566667Y-96624809D02*
X176519048Y-96601000D01*
X176519048Y-96601000D02*
X176495238Y-96577190D01*
X163116666Y-100877190D02*
X163092857Y-100901000D01*
X163092857Y-100901000D02*
X163021428Y-100924809D01*
X163021428Y-100924809D02*
X162973809Y-100924809D01*
X162973809Y-100924809D02*
X162902381Y-100901000D01*
X162902381Y-100901000D02*
X162854762Y-100853380D01*
X162854762Y-100853380D02*
X162830952Y-100805761D01*
X162830952Y-100805761D02*
X162807143Y-100710523D01*
X162807143Y-100710523D02*
X162807143Y-100639095D01*
X162807143Y-100639095D02*
X162830952Y-100543857D01*
X162830952Y-100543857D02*
X162854762Y-100496238D01*
X162854762Y-100496238D02*
X162902381Y-100448619D01*
X162902381Y-100448619D02*
X162973809Y-100424809D01*
X162973809Y-100424809D02*
X163021428Y-100424809D01*
X163021428Y-100424809D02*
X163092857Y-100448619D01*
X163092857Y-100448619D02*
X163116666Y-100472428D01*
X163283333Y-100424809D02*
X163616666Y-100424809D01*
X163616666Y-100424809D02*
X163402381Y-100924809D01*
X140333333Y-102974809D02*
X140333333Y-103331952D01*
X140333333Y-103331952D02*
X140309524Y-103403380D01*
X140309524Y-103403380D02*
X140261905Y-103451000D01*
X140261905Y-103451000D02*
X140190476Y-103474809D01*
X140190476Y-103474809D02*
X140142857Y-103474809D01*
X140833333Y-103474809D02*
X140547619Y-103474809D01*
X140690476Y-103474809D02*
X140690476Y-102974809D01*
X140690476Y-102974809D02*
X140642857Y-103046238D01*
X140642857Y-103046238D02*
X140595238Y-103093857D01*
X140595238Y-103093857D02*
X140547619Y-103117666D01*
X155278571Y-108977190D02*
X155254762Y-109001000D01*
X155254762Y-109001000D02*
X155183333Y-109024809D01*
X155183333Y-109024809D02*
X155135714Y-109024809D01*
X155135714Y-109024809D02*
X155064286Y-109001000D01*
X155064286Y-109001000D02*
X155016667Y-108953380D01*
X155016667Y-108953380D02*
X154992857Y-108905761D01*
X154992857Y-108905761D02*
X154969048Y-108810523D01*
X154969048Y-108810523D02*
X154969048Y-108739095D01*
X154969048Y-108739095D02*
X154992857Y-108643857D01*
X154992857Y-108643857D02*
X155016667Y-108596238D01*
X155016667Y-108596238D02*
X155064286Y-108548619D01*
X155064286Y-108548619D02*
X155135714Y-108524809D01*
X155135714Y-108524809D02*
X155183333Y-108524809D01*
X155183333Y-108524809D02*
X155254762Y-108548619D01*
X155254762Y-108548619D02*
X155278571Y-108572428D01*
X155754762Y-109024809D02*
X155469048Y-109024809D01*
X155611905Y-109024809D02*
X155611905Y-108524809D01*
X155611905Y-108524809D02*
X155564286Y-108596238D01*
X155564286Y-108596238D02*
X155516667Y-108643857D01*
X155516667Y-108643857D02*
X155469048Y-108667666D01*
X155921428Y-108524809D02*
X156230952Y-108524809D01*
X156230952Y-108524809D02*
X156064285Y-108715285D01*
X156064285Y-108715285D02*
X156135714Y-108715285D01*
X156135714Y-108715285D02*
X156183333Y-108739095D01*
X156183333Y-108739095D02*
X156207142Y-108762904D01*
X156207142Y-108762904D02*
X156230952Y-108810523D01*
X156230952Y-108810523D02*
X156230952Y-108929571D01*
X156230952Y-108929571D02*
X156207142Y-108977190D01*
X156207142Y-108977190D02*
X156183333Y-109001000D01*
X156183333Y-109001000D02*
X156135714Y-109024809D01*
X156135714Y-109024809D02*
X155992857Y-109024809D01*
X155992857Y-109024809D02*
X155945238Y-109001000D01*
X155945238Y-109001000D02*
X155921428Y-108977190D01*
X154716666Y-100927190D02*
X154692857Y-100951000D01*
X154692857Y-100951000D02*
X154621428Y-100974809D01*
X154621428Y-100974809D02*
X154573809Y-100974809D01*
X154573809Y-100974809D02*
X154502381Y-100951000D01*
X154502381Y-100951000D02*
X154454762Y-100903380D01*
X154454762Y-100903380D02*
X154430952Y-100855761D01*
X154430952Y-100855761D02*
X154407143Y-100760523D01*
X154407143Y-100760523D02*
X154407143Y-100689095D01*
X154407143Y-100689095D02*
X154430952Y-100593857D01*
X154430952Y-100593857D02*
X154454762Y-100546238D01*
X154454762Y-100546238D02*
X154502381Y-100498619D01*
X154502381Y-100498619D02*
X154573809Y-100474809D01*
X154573809Y-100474809D02*
X154621428Y-100474809D01*
X154621428Y-100474809D02*
X154692857Y-100498619D01*
X154692857Y-100498619D02*
X154716666Y-100522428D01*
X154883333Y-100474809D02*
X155192857Y-100474809D01*
X155192857Y-100474809D02*
X155026190Y-100665285D01*
X155026190Y-100665285D02*
X155097619Y-100665285D01*
X155097619Y-100665285D02*
X155145238Y-100689095D01*
X155145238Y-100689095D02*
X155169047Y-100712904D01*
X155169047Y-100712904D02*
X155192857Y-100760523D01*
X155192857Y-100760523D02*
X155192857Y-100879571D01*
X155192857Y-100879571D02*
X155169047Y-100927190D01*
X155169047Y-100927190D02*
X155145238Y-100951000D01*
X155145238Y-100951000D02*
X155097619Y-100974809D01*
X155097619Y-100974809D02*
X154954762Y-100974809D01*
X154954762Y-100974809D02*
X154907143Y-100951000D01*
X154907143Y-100951000D02*
X154883333Y-100927190D01*
X144619047Y-147224809D02*
X144619047Y-146724809D01*
X144619047Y-146962904D02*
X144904761Y-146962904D01*
X144904761Y-147224809D02*
X144904761Y-146724809D01*
X145119048Y-146772428D02*
X145142857Y-146748619D01*
X145142857Y-146748619D02*
X145190476Y-146724809D01*
X145190476Y-146724809D02*
X145309524Y-146724809D01*
X145309524Y-146724809D02*
X145357143Y-146748619D01*
X145357143Y-146748619D02*
X145380952Y-146772428D01*
X145380952Y-146772428D02*
X145404762Y-146820047D01*
X145404762Y-146820047D02*
X145404762Y-146867666D01*
X145404762Y-146867666D02*
X145380952Y-146939095D01*
X145380952Y-146939095D02*
X145095238Y-147224809D01*
X145095238Y-147224809D02*
X145404762Y-147224809D01*
X174452380Y-109172428D02*
X174404761Y-109148619D01*
X174404761Y-109148619D02*
X174357142Y-109101000D01*
X174357142Y-109101000D02*
X174285714Y-109029571D01*
X174285714Y-109029571D02*
X174238095Y-109005761D01*
X174238095Y-109005761D02*
X174190476Y-109005761D01*
X174214285Y-109124809D02*
X174166666Y-109101000D01*
X174166666Y-109101000D02*
X174119047Y-109053380D01*
X174119047Y-109053380D02*
X174095238Y-108958142D01*
X174095238Y-108958142D02*
X174095238Y-108791476D01*
X174095238Y-108791476D02*
X174119047Y-108696238D01*
X174119047Y-108696238D02*
X174166666Y-108648619D01*
X174166666Y-108648619D02*
X174214285Y-108624809D01*
X174214285Y-108624809D02*
X174309523Y-108624809D01*
X174309523Y-108624809D02*
X174357142Y-108648619D01*
X174357142Y-108648619D02*
X174404761Y-108696238D01*
X174404761Y-108696238D02*
X174428571Y-108791476D01*
X174428571Y-108791476D02*
X174428571Y-108958142D01*
X174428571Y-108958142D02*
X174404761Y-109053380D01*
X174404761Y-109053380D02*
X174357142Y-109101000D01*
X174357142Y-109101000D02*
X174309523Y-109124809D01*
X174309523Y-109124809D02*
X174214285Y-109124809D01*
X174857143Y-108791476D02*
X174857143Y-109124809D01*
X174738095Y-108601000D02*
X174619048Y-108958142D01*
X174619048Y-108958142D02*
X174928571Y-108958142D01*
X162841666Y-112724809D02*
X162675000Y-112486714D01*
X162555952Y-112724809D02*
X162555952Y-112224809D01*
X162555952Y-112224809D02*
X162746428Y-112224809D01*
X162746428Y-112224809D02*
X162794047Y-112248619D01*
X162794047Y-112248619D02*
X162817857Y-112272428D01*
X162817857Y-112272428D02*
X162841666Y-112320047D01*
X162841666Y-112320047D02*
X162841666Y-112391476D01*
X162841666Y-112391476D02*
X162817857Y-112439095D01*
X162817857Y-112439095D02*
X162794047Y-112462904D01*
X162794047Y-112462904D02*
X162746428Y-112486714D01*
X162746428Y-112486714D02*
X162555952Y-112486714D01*
X163270238Y-112224809D02*
X163175000Y-112224809D01*
X163175000Y-112224809D02*
X163127381Y-112248619D01*
X163127381Y-112248619D02*
X163103571Y-112272428D01*
X163103571Y-112272428D02*
X163055952Y-112343857D01*
X163055952Y-112343857D02*
X163032143Y-112439095D01*
X163032143Y-112439095D02*
X163032143Y-112629571D01*
X163032143Y-112629571D02*
X163055952Y-112677190D01*
X163055952Y-112677190D02*
X163079762Y-112701000D01*
X163079762Y-112701000D02*
X163127381Y-112724809D01*
X163127381Y-112724809D02*
X163222619Y-112724809D01*
X163222619Y-112724809D02*
X163270238Y-112701000D01*
X163270238Y-112701000D02*
X163294047Y-112677190D01*
X163294047Y-112677190D02*
X163317857Y-112629571D01*
X163317857Y-112629571D02*
X163317857Y-112510523D01*
X163317857Y-112510523D02*
X163294047Y-112462904D01*
X163294047Y-112462904D02*
X163270238Y-112439095D01*
X163270238Y-112439095D02*
X163222619Y-112415285D01*
X163222619Y-112415285D02*
X163127381Y-112415285D01*
X163127381Y-112415285D02*
X163079762Y-112439095D01*
X163079762Y-112439095D02*
X163055952Y-112462904D01*
X163055952Y-112462904D02*
X163032143Y-112510523D01*
X143619047Y-92224809D02*
X143619047Y-91724809D01*
X143619047Y-91962904D02*
X143904761Y-91962904D01*
X143904761Y-92224809D02*
X143904761Y-91724809D01*
X144095238Y-91724809D02*
X144404762Y-91724809D01*
X144404762Y-91724809D02*
X144238095Y-91915285D01*
X144238095Y-91915285D02*
X144309524Y-91915285D01*
X144309524Y-91915285D02*
X144357143Y-91939095D01*
X144357143Y-91939095D02*
X144380952Y-91962904D01*
X144380952Y-91962904D02*
X144404762Y-92010523D01*
X144404762Y-92010523D02*
X144404762Y-92129571D01*
X144404762Y-92129571D02*
X144380952Y-92177190D01*
X144380952Y-92177190D02*
X144357143Y-92201000D01*
X144357143Y-92201000D02*
X144309524Y-92224809D01*
X144309524Y-92224809D02*
X144166667Y-92224809D01*
X144166667Y-92224809D02*
X144119048Y-92201000D01*
X144119048Y-92201000D02*
X144095238Y-92177190D01*
X172464286Y-148962904D02*
X172297619Y-148962904D01*
X172297619Y-149224809D02*
X172297619Y-148724809D01*
X172297619Y-148724809D02*
X172535714Y-148724809D01*
X172726190Y-149224809D02*
X172726190Y-148724809D01*
X172964285Y-149224809D02*
X172964285Y-148724809D01*
X172964285Y-148724809D02*
X173083333Y-148724809D01*
X173083333Y-148724809D02*
X173154761Y-148748619D01*
X173154761Y-148748619D02*
X173202380Y-148796238D01*
X173202380Y-148796238D02*
X173226190Y-148843857D01*
X173226190Y-148843857D02*
X173249999Y-148939095D01*
X173249999Y-148939095D02*
X173249999Y-149010523D01*
X173249999Y-149010523D02*
X173226190Y-149105761D01*
X173226190Y-149105761D02*
X173202380Y-149153380D01*
X173202380Y-149153380D02*
X173154761Y-149201000D01*
X173154761Y-149201000D02*
X173083333Y-149224809D01*
X173083333Y-149224809D02*
X172964285Y-149224809D01*
X173416666Y-148724809D02*
X173726190Y-148724809D01*
X173726190Y-148724809D02*
X173559523Y-148915285D01*
X173559523Y-148915285D02*
X173630952Y-148915285D01*
X173630952Y-148915285D02*
X173678571Y-148939095D01*
X173678571Y-148939095D02*
X173702380Y-148962904D01*
X173702380Y-148962904D02*
X173726190Y-149010523D01*
X173726190Y-149010523D02*
X173726190Y-149129571D01*
X173726190Y-149129571D02*
X173702380Y-149177190D01*
X173702380Y-149177190D02*
X173678571Y-149201000D01*
X173678571Y-149201000D02*
X173630952Y-149224809D01*
X173630952Y-149224809D02*
X173488095Y-149224809D01*
X173488095Y-149224809D02*
X173440476Y-149201000D01*
X173440476Y-149201000D02*
X173416666Y-149177190D01*
X156716666Y-113477190D02*
X156692857Y-113501000D01*
X156692857Y-113501000D02*
X156621428Y-113524809D01*
X156621428Y-113524809D02*
X156573809Y-113524809D01*
X156573809Y-113524809D02*
X156502381Y-113501000D01*
X156502381Y-113501000D02*
X156454762Y-113453380D01*
X156454762Y-113453380D02*
X156430952Y-113405761D01*
X156430952Y-113405761D02*
X156407143Y-113310523D01*
X156407143Y-113310523D02*
X156407143Y-113239095D01*
X156407143Y-113239095D02*
X156430952Y-113143857D01*
X156430952Y-113143857D02*
X156454762Y-113096238D01*
X156454762Y-113096238D02*
X156502381Y-113048619D01*
X156502381Y-113048619D02*
X156573809Y-113024809D01*
X156573809Y-113024809D02*
X156621428Y-113024809D01*
X156621428Y-113024809D02*
X156692857Y-113048619D01*
X156692857Y-113048619D02*
X156716666Y-113072428D01*
X157169047Y-113024809D02*
X156930952Y-113024809D01*
X156930952Y-113024809D02*
X156907143Y-113262904D01*
X156907143Y-113262904D02*
X156930952Y-113239095D01*
X156930952Y-113239095D02*
X156978571Y-113215285D01*
X156978571Y-113215285D02*
X157097619Y-113215285D01*
X157097619Y-113215285D02*
X157145238Y-113239095D01*
X157145238Y-113239095D02*
X157169047Y-113262904D01*
X157169047Y-113262904D02*
X157192857Y-113310523D01*
X157192857Y-113310523D02*
X157192857Y-113429571D01*
X157192857Y-113429571D02*
X157169047Y-113477190D01*
X157169047Y-113477190D02*
X157145238Y-113501000D01*
X157145238Y-113501000D02*
X157097619Y-113524809D01*
X157097619Y-113524809D02*
X156978571Y-113524809D01*
X156978571Y-113524809D02*
X156930952Y-113501000D01*
X156930952Y-113501000D02*
X156907143Y-113477190D01*
X163878571Y-108577190D02*
X163854762Y-108601000D01*
X163854762Y-108601000D02*
X163783333Y-108624809D01*
X163783333Y-108624809D02*
X163735714Y-108624809D01*
X163735714Y-108624809D02*
X163664286Y-108601000D01*
X163664286Y-108601000D02*
X163616667Y-108553380D01*
X163616667Y-108553380D02*
X163592857Y-108505761D01*
X163592857Y-108505761D02*
X163569048Y-108410523D01*
X163569048Y-108410523D02*
X163569048Y-108339095D01*
X163569048Y-108339095D02*
X163592857Y-108243857D01*
X163592857Y-108243857D02*
X163616667Y-108196238D01*
X163616667Y-108196238D02*
X163664286Y-108148619D01*
X163664286Y-108148619D02*
X163735714Y-108124809D01*
X163735714Y-108124809D02*
X163783333Y-108124809D01*
X163783333Y-108124809D02*
X163854762Y-108148619D01*
X163854762Y-108148619D02*
X163878571Y-108172428D01*
X164354762Y-108624809D02*
X164069048Y-108624809D01*
X164211905Y-108624809D02*
X164211905Y-108124809D01*
X164211905Y-108124809D02*
X164164286Y-108196238D01*
X164164286Y-108196238D02*
X164116667Y-108243857D01*
X164116667Y-108243857D02*
X164069048Y-108267666D01*
X164830952Y-108624809D02*
X164545238Y-108624809D01*
X164688095Y-108624809D02*
X164688095Y-108124809D01*
X164688095Y-108124809D02*
X164640476Y-108196238D01*
X164640476Y-108196238D02*
X164592857Y-108243857D01*
X164592857Y-108243857D02*
X164545238Y-108267666D01*
X146653571Y-137477190D02*
X146629762Y-137501000D01*
X146629762Y-137501000D02*
X146558333Y-137524809D01*
X146558333Y-137524809D02*
X146510714Y-137524809D01*
X146510714Y-137524809D02*
X146439286Y-137501000D01*
X146439286Y-137501000D02*
X146391667Y-137453380D01*
X146391667Y-137453380D02*
X146367857Y-137405761D01*
X146367857Y-137405761D02*
X146344048Y-137310523D01*
X146344048Y-137310523D02*
X146344048Y-137239095D01*
X146344048Y-137239095D02*
X146367857Y-137143857D01*
X146367857Y-137143857D02*
X146391667Y-137096238D01*
X146391667Y-137096238D02*
X146439286Y-137048619D01*
X146439286Y-137048619D02*
X146510714Y-137024809D01*
X146510714Y-137024809D02*
X146558333Y-137024809D01*
X146558333Y-137024809D02*
X146629762Y-137048619D01*
X146629762Y-137048619D02*
X146653571Y-137072428D01*
X146844048Y-137072428D02*
X146867857Y-137048619D01*
X146867857Y-137048619D02*
X146915476Y-137024809D01*
X146915476Y-137024809D02*
X147034524Y-137024809D01*
X147034524Y-137024809D02*
X147082143Y-137048619D01*
X147082143Y-137048619D02*
X147105952Y-137072428D01*
X147105952Y-137072428D02*
X147129762Y-137120047D01*
X147129762Y-137120047D02*
X147129762Y-137167666D01*
X147129762Y-137167666D02*
X147105952Y-137239095D01*
X147105952Y-137239095D02*
X146820238Y-137524809D01*
X146820238Y-137524809D02*
X147129762Y-137524809D01*
X147296428Y-137024809D02*
X147605952Y-137024809D01*
X147605952Y-137024809D02*
X147439285Y-137215285D01*
X147439285Y-137215285D02*
X147510714Y-137215285D01*
X147510714Y-137215285D02*
X147558333Y-137239095D01*
X147558333Y-137239095D02*
X147582142Y-137262904D01*
X147582142Y-137262904D02*
X147605952Y-137310523D01*
X147605952Y-137310523D02*
X147605952Y-137429571D01*
X147605952Y-137429571D02*
X147582142Y-137477190D01*
X147582142Y-137477190D02*
X147558333Y-137501000D01*
X147558333Y-137501000D02*
X147510714Y-137524809D01*
X147510714Y-137524809D02*
X147367857Y-137524809D01*
X147367857Y-137524809D02*
X147320238Y-137501000D01*
X147320238Y-137501000D02*
X147296428Y-137477190D01*
X164378571Y-107177190D02*
X164354762Y-107201000D01*
X164354762Y-107201000D02*
X164283333Y-107224809D01*
X164283333Y-107224809D02*
X164235714Y-107224809D01*
X164235714Y-107224809D02*
X164164286Y-107201000D01*
X164164286Y-107201000D02*
X164116667Y-107153380D01*
X164116667Y-107153380D02*
X164092857Y-107105761D01*
X164092857Y-107105761D02*
X164069048Y-107010523D01*
X164069048Y-107010523D02*
X164069048Y-106939095D01*
X164069048Y-106939095D02*
X164092857Y-106843857D01*
X164092857Y-106843857D02*
X164116667Y-106796238D01*
X164116667Y-106796238D02*
X164164286Y-106748619D01*
X164164286Y-106748619D02*
X164235714Y-106724809D01*
X164235714Y-106724809D02*
X164283333Y-106724809D01*
X164283333Y-106724809D02*
X164354762Y-106748619D01*
X164354762Y-106748619D02*
X164378571Y-106772428D01*
X164854762Y-107224809D02*
X164569048Y-107224809D01*
X164711905Y-107224809D02*
X164711905Y-106724809D01*
X164711905Y-106724809D02*
X164664286Y-106796238D01*
X164664286Y-106796238D02*
X164616667Y-106843857D01*
X164616667Y-106843857D02*
X164569048Y-106867666D01*
X165045238Y-106772428D02*
X165069047Y-106748619D01*
X165069047Y-106748619D02*
X165116666Y-106724809D01*
X165116666Y-106724809D02*
X165235714Y-106724809D01*
X165235714Y-106724809D02*
X165283333Y-106748619D01*
X165283333Y-106748619D02*
X165307142Y-106772428D01*
X165307142Y-106772428D02*
X165330952Y-106820047D01*
X165330952Y-106820047D02*
X165330952Y-106867666D01*
X165330952Y-106867666D02*
X165307142Y-106939095D01*
X165307142Y-106939095D02*
X165021428Y-107224809D01*
X165021428Y-107224809D02*
X165330952Y-107224809D01*
X140916666Y-99177190D02*
X140892857Y-99201000D01*
X140892857Y-99201000D02*
X140821428Y-99224809D01*
X140821428Y-99224809D02*
X140773809Y-99224809D01*
X140773809Y-99224809D02*
X140702381Y-99201000D01*
X140702381Y-99201000D02*
X140654762Y-99153380D01*
X140654762Y-99153380D02*
X140630952Y-99105761D01*
X140630952Y-99105761D02*
X140607143Y-99010523D01*
X140607143Y-99010523D02*
X140607143Y-98939095D01*
X140607143Y-98939095D02*
X140630952Y-98843857D01*
X140630952Y-98843857D02*
X140654762Y-98796238D01*
X140654762Y-98796238D02*
X140702381Y-98748619D01*
X140702381Y-98748619D02*
X140773809Y-98724809D01*
X140773809Y-98724809D02*
X140821428Y-98724809D01*
X140821428Y-98724809D02*
X140892857Y-98748619D01*
X140892857Y-98748619D02*
X140916666Y-98772428D01*
X141392857Y-99224809D02*
X141107143Y-99224809D01*
X141250000Y-99224809D02*
X141250000Y-98724809D01*
X141250000Y-98724809D02*
X141202381Y-98796238D01*
X141202381Y-98796238D02*
X141154762Y-98843857D01*
X141154762Y-98843857D02*
X141107143Y-98867666D01*
X176378571Y-108524809D02*
X176211905Y-108286714D01*
X176092857Y-108524809D02*
X176092857Y-108024809D01*
X176092857Y-108024809D02*
X176283333Y-108024809D01*
X176283333Y-108024809D02*
X176330952Y-108048619D01*
X176330952Y-108048619D02*
X176354762Y-108072428D01*
X176354762Y-108072428D02*
X176378571Y-108120047D01*
X176378571Y-108120047D02*
X176378571Y-108191476D01*
X176378571Y-108191476D02*
X176354762Y-108239095D01*
X176354762Y-108239095D02*
X176330952Y-108262904D01*
X176330952Y-108262904D02*
X176283333Y-108286714D01*
X176283333Y-108286714D02*
X176092857Y-108286714D01*
X176854762Y-108524809D02*
X176569048Y-108524809D01*
X176711905Y-108524809D02*
X176711905Y-108024809D01*
X176711905Y-108024809D02*
X176664286Y-108096238D01*
X176664286Y-108096238D02*
X176616667Y-108143857D01*
X176616667Y-108143857D02*
X176569048Y-108167666D01*
X177307142Y-108024809D02*
X177069047Y-108024809D01*
X177069047Y-108024809D02*
X177045238Y-108262904D01*
X177045238Y-108262904D02*
X177069047Y-108239095D01*
X177069047Y-108239095D02*
X177116666Y-108215285D01*
X177116666Y-108215285D02*
X177235714Y-108215285D01*
X177235714Y-108215285D02*
X177283333Y-108239095D01*
X177283333Y-108239095D02*
X177307142Y-108262904D01*
X177307142Y-108262904D02*
X177330952Y-108310523D01*
X177330952Y-108310523D02*
X177330952Y-108429571D01*
X177330952Y-108429571D02*
X177307142Y-108477190D01*
X177307142Y-108477190D02*
X177283333Y-108501000D01*
X177283333Y-108501000D02*
X177235714Y-108524809D01*
X177235714Y-108524809D02*
X177116666Y-108524809D01*
X177116666Y-108524809D02*
X177069047Y-108501000D01*
X177069047Y-108501000D02*
X177045238Y-108477190D01*
X148678571Y-105977190D02*
X148654762Y-106001000D01*
X148654762Y-106001000D02*
X148583333Y-106024809D01*
X148583333Y-106024809D02*
X148535714Y-106024809D01*
X148535714Y-106024809D02*
X148464286Y-106001000D01*
X148464286Y-106001000D02*
X148416667Y-105953380D01*
X148416667Y-105953380D02*
X148392857Y-105905761D01*
X148392857Y-105905761D02*
X148369048Y-105810523D01*
X148369048Y-105810523D02*
X148369048Y-105739095D01*
X148369048Y-105739095D02*
X148392857Y-105643857D01*
X148392857Y-105643857D02*
X148416667Y-105596238D01*
X148416667Y-105596238D02*
X148464286Y-105548619D01*
X148464286Y-105548619D02*
X148535714Y-105524809D01*
X148535714Y-105524809D02*
X148583333Y-105524809D01*
X148583333Y-105524809D02*
X148654762Y-105548619D01*
X148654762Y-105548619D02*
X148678571Y-105572428D01*
X149154762Y-106024809D02*
X148869048Y-106024809D01*
X149011905Y-106024809D02*
X149011905Y-105524809D01*
X149011905Y-105524809D02*
X148964286Y-105596238D01*
X148964286Y-105596238D02*
X148916667Y-105643857D01*
X148916667Y-105643857D02*
X148869048Y-105667666D01*
X149464285Y-105524809D02*
X149511904Y-105524809D01*
X149511904Y-105524809D02*
X149559523Y-105548619D01*
X149559523Y-105548619D02*
X149583333Y-105572428D01*
X149583333Y-105572428D02*
X149607142Y-105620047D01*
X149607142Y-105620047D02*
X149630952Y-105715285D01*
X149630952Y-105715285D02*
X149630952Y-105834333D01*
X149630952Y-105834333D02*
X149607142Y-105929571D01*
X149607142Y-105929571D02*
X149583333Y-105977190D01*
X149583333Y-105977190D02*
X149559523Y-106001000D01*
X149559523Y-106001000D02*
X149511904Y-106024809D01*
X149511904Y-106024809D02*
X149464285Y-106024809D01*
X149464285Y-106024809D02*
X149416666Y-106001000D01*
X149416666Y-106001000D02*
X149392857Y-105977190D01*
X149392857Y-105977190D02*
X149369047Y-105929571D01*
X149369047Y-105929571D02*
X149345238Y-105834333D01*
X149345238Y-105834333D02*
X149345238Y-105715285D01*
X149345238Y-105715285D02*
X149369047Y-105620047D01*
X149369047Y-105620047D02*
X149392857Y-105572428D01*
X149392857Y-105572428D02*
X149416666Y-105548619D01*
X149416666Y-105548619D02*
X149464285Y-105524809D01*
X150416666Y-108724809D02*
X150250000Y-108486714D01*
X150130952Y-108724809D02*
X150130952Y-108224809D01*
X150130952Y-108224809D02*
X150321428Y-108224809D01*
X150321428Y-108224809D02*
X150369047Y-108248619D01*
X150369047Y-108248619D02*
X150392857Y-108272428D01*
X150392857Y-108272428D02*
X150416666Y-108320047D01*
X150416666Y-108320047D02*
X150416666Y-108391476D01*
X150416666Y-108391476D02*
X150392857Y-108439095D01*
X150392857Y-108439095D02*
X150369047Y-108462904D01*
X150369047Y-108462904D02*
X150321428Y-108486714D01*
X150321428Y-108486714D02*
X150130952Y-108486714D01*
X150702381Y-108439095D02*
X150654762Y-108415285D01*
X150654762Y-108415285D02*
X150630952Y-108391476D01*
X150630952Y-108391476D02*
X150607143Y-108343857D01*
X150607143Y-108343857D02*
X150607143Y-108320047D01*
X150607143Y-108320047D02*
X150630952Y-108272428D01*
X150630952Y-108272428D02*
X150654762Y-108248619D01*
X150654762Y-108248619D02*
X150702381Y-108224809D01*
X150702381Y-108224809D02*
X150797619Y-108224809D01*
X150797619Y-108224809D02*
X150845238Y-108248619D01*
X150845238Y-108248619D02*
X150869047Y-108272428D01*
X150869047Y-108272428D02*
X150892857Y-108320047D01*
X150892857Y-108320047D02*
X150892857Y-108343857D01*
X150892857Y-108343857D02*
X150869047Y-108391476D01*
X150869047Y-108391476D02*
X150845238Y-108415285D01*
X150845238Y-108415285D02*
X150797619Y-108439095D01*
X150797619Y-108439095D02*
X150702381Y-108439095D01*
X150702381Y-108439095D02*
X150654762Y-108462904D01*
X150654762Y-108462904D02*
X150630952Y-108486714D01*
X150630952Y-108486714D02*
X150607143Y-108534333D01*
X150607143Y-108534333D02*
X150607143Y-108629571D01*
X150607143Y-108629571D02*
X150630952Y-108677190D01*
X150630952Y-108677190D02*
X150654762Y-108701000D01*
X150654762Y-108701000D02*
X150702381Y-108724809D01*
X150702381Y-108724809D02*
X150797619Y-108724809D01*
X150797619Y-108724809D02*
X150845238Y-108701000D01*
X150845238Y-108701000D02*
X150869047Y-108677190D01*
X150869047Y-108677190D02*
X150892857Y-108629571D01*
X150892857Y-108629571D02*
X150892857Y-108534333D01*
X150892857Y-108534333D02*
X150869047Y-108486714D01*
X150869047Y-108486714D02*
X150845238Y-108462904D01*
X150845238Y-108462904D02*
X150797619Y-108439095D01*
X146578571Y-126077190D02*
X146554762Y-126101000D01*
X146554762Y-126101000D02*
X146483333Y-126124809D01*
X146483333Y-126124809D02*
X146435714Y-126124809D01*
X146435714Y-126124809D02*
X146364286Y-126101000D01*
X146364286Y-126101000D02*
X146316667Y-126053380D01*
X146316667Y-126053380D02*
X146292857Y-126005761D01*
X146292857Y-126005761D02*
X146269048Y-125910523D01*
X146269048Y-125910523D02*
X146269048Y-125839095D01*
X146269048Y-125839095D02*
X146292857Y-125743857D01*
X146292857Y-125743857D02*
X146316667Y-125696238D01*
X146316667Y-125696238D02*
X146364286Y-125648619D01*
X146364286Y-125648619D02*
X146435714Y-125624809D01*
X146435714Y-125624809D02*
X146483333Y-125624809D01*
X146483333Y-125624809D02*
X146554762Y-125648619D01*
X146554762Y-125648619D02*
X146578571Y-125672428D01*
X147054762Y-126124809D02*
X146769048Y-126124809D01*
X146911905Y-126124809D02*
X146911905Y-125624809D01*
X146911905Y-125624809D02*
X146864286Y-125696238D01*
X146864286Y-125696238D02*
X146816667Y-125743857D01*
X146816667Y-125743857D02*
X146769048Y-125767666D01*
X147340476Y-125839095D02*
X147292857Y-125815285D01*
X147292857Y-125815285D02*
X147269047Y-125791476D01*
X147269047Y-125791476D02*
X147245238Y-125743857D01*
X147245238Y-125743857D02*
X147245238Y-125720047D01*
X147245238Y-125720047D02*
X147269047Y-125672428D01*
X147269047Y-125672428D02*
X147292857Y-125648619D01*
X147292857Y-125648619D02*
X147340476Y-125624809D01*
X147340476Y-125624809D02*
X147435714Y-125624809D01*
X147435714Y-125624809D02*
X147483333Y-125648619D01*
X147483333Y-125648619D02*
X147507142Y-125672428D01*
X147507142Y-125672428D02*
X147530952Y-125720047D01*
X147530952Y-125720047D02*
X147530952Y-125743857D01*
X147530952Y-125743857D02*
X147507142Y-125791476D01*
X147507142Y-125791476D02*
X147483333Y-125815285D01*
X147483333Y-125815285D02*
X147435714Y-125839095D01*
X147435714Y-125839095D02*
X147340476Y-125839095D01*
X147340476Y-125839095D02*
X147292857Y-125862904D01*
X147292857Y-125862904D02*
X147269047Y-125886714D01*
X147269047Y-125886714D02*
X147245238Y-125934333D01*
X147245238Y-125934333D02*
X147245238Y-126029571D01*
X147245238Y-126029571D02*
X147269047Y-126077190D01*
X147269047Y-126077190D02*
X147292857Y-126101000D01*
X147292857Y-126101000D02*
X147340476Y-126124809D01*
X147340476Y-126124809D02*
X147435714Y-126124809D01*
X147435714Y-126124809D02*
X147483333Y-126101000D01*
X147483333Y-126101000D02*
X147507142Y-126077190D01*
X147507142Y-126077190D02*
X147530952Y-126029571D01*
X147530952Y-126029571D02*
X147530952Y-125934333D01*
X147530952Y-125934333D02*
X147507142Y-125886714D01*
X147507142Y-125886714D02*
X147483333Y-125862904D01*
X147483333Y-125862904D02*
X147435714Y-125839095D01*
X153978571Y-105624809D02*
X153811905Y-105386714D01*
X153692857Y-105624809D02*
X153692857Y-105124809D01*
X153692857Y-105124809D02*
X153883333Y-105124809D01*
X153883333Y-105124809D02*
X153930952Y-105148619D01*
X153930952Y-105148619D02*
X153954762Y-105172428D01*
X153954762Y-105172428D02*
X153978571Y-105220047D01*
X153978571Y-105220047D02*
X153978571Y-105291476D01*
X153978571Y-105291476D02*
X153954762Y-105339095D01*
X153954762Y-105339095D02*
X153930952Y-105362904D01*
X153930952Y-105362904D02*
X153883333Y-105386714D01*
X153883333Y-105386714D02*
X153692857Y-105386714D01*
X154169048Y-105172428D02*
X154192857Y-105148619D01*
X154192857Y-105148619D02*
X154240476Y-105124809D01*
X154240476Y-105124809D02*
X154359524Y-105124809D01*
X154359524Y-105124809D02*
X154407143Y-105148619D01*
X154407143Y-105148619D02*
X154430952Y-105172428D01*
X154430952Y-105172428D02*
X154454762Y-105220047D01*
X154454762Y-105220047D02*
X154454762Y-105267666D01*
X154454762Y-105267666D02*
X154430952Y-105339095D01*
X154430952Y-105339095D02*
X154145238Y-105624809D01*
X154145238Y-105624809D02*
X154454762Y-105624809D01*
X154764285Y-105124809D02*
X154811904Y-105124809D01*
X154811904Y-105124809D02*
X154859523Y-105148619D01*
X154859523Y-105148619D02*
X154883333Y-105172428D01*
X154883333Y-105172428D02*
X154907142Y-105220047D01*
X154907142Y-105220047D02*
X154930952Y-105315285D01*
X154930952Y-105315285D02*
X154930952Y-105434333D01*
X154930952Y-105434333D02*
X154907142Y-105529571D01*
X154907142Y-105529571D02*
X154883333Y-105577190D01*
X154883333Y-105577190D02*
X154859523Y-105601000D01*
X154859523Y-105601000D02*
X154811904Y-105624809D01*
X154811904Y-105624809D02*
X154764285Y-105624809D01*
X154764285Y-105624809D02*
X154716666Y-105601000D01*
X154716666Y-105601000D02*
X154692857Y-105577190D01*
X154692857Y-105577190D02*
X154669047Y-105529571D01*
X154669047Y-105529571D02*
X154645238Y-105434333D01*
X154645238Y-105434333D02*
X154645238Y-105315285D01*
X154645238Y-105315285D02*
X154669047Y-105220047D01*
X154669047Y-105220047D02*
X154692857Y-105172428D01*
X154692857Y-105172428D02*
X154716666Y-105148619D01*
X154716666Y-105148619D02*
X154764285Y-105124809D01*
X160416666Y-130724809D02*
X160178571Y-130724809D01*
X160178571Y-130724809D02*
X160178571Y-130224809D01*
X160845238Y-130724809D02*
X160559524Y-130724809D01*
X160702381Y-130724809D02*
X160702381Y-130224809D01*
X160702381Y-130224809D02*
X160654762Y-130296238D01*
X160654762Y-130296238D02*
X160607143Y-130343857D01*
X160607143Y-130343857D02*
X160559524Y-130367666D01*
X166037380Y-101272428D02*
X165989761Y-101248619D01*
X165989761Y-101248619D02*
X165942142Y-101201000D01*
X165942142Y-101201000D02*
X165870714Y-101129571D01*
X165870714Y-101129571D02*
X165823095Y-101105761D01*
X165823095Y-101105761D02*
X165775476Y-101105761D01*
X165799285Y-101224809D02*
X165751666Y-101201000D01*
X165751666Y-101201000D02*
X165704047Y-101153380D01*
X165704047Y-101153380D02*
X165680238Y-101058142D01*
X165680238Y-101058142D02*
X165680238Y-100891476D01*
X165680238Y-100891476D02*
X165704047Y-100796238D01*
X165704047Y-100796238D02*
X165751666Y-100748619D01*
X165751666Y-100748619D02*
X165799285Y-100724809D01*
X165799285Y-100724809D02*
X165894523Y-100724809D01*
X165894523Y-100724809D02*
X165942142Y-100748619D01*
X165942142Y-100748619D02*
X165989761Y-100796238D01*
X165989761Y-100796238D02*
X166013571Y-100891476D01*
X166013571Y-100891476D02*
X166013571Y-101058142D01*
X166013571Y-101058142D02*
X165989761Y-101153380D01*
X165989761Y-101153380D02*
X165942142Y-101201000D01*
X165942142Y-101201000D02*
X165894523Y-101224809D01*
X165894523Y-101224809D02*
X165799285Y-101224809D01*
X166489762Y-101224809D02*
X166204048Y-101224809D01*
X166346905Y-101224809D02*
X166346905Y-100724809D01*
X166346905Y-100724809D02*
X166299286Y-100796238D01*
X166299286Y-100796238D02*
X166251667Y-100843857D01*
X166251667Y-100843857D02*
X166204048Y-100867666D01*
X160130952Y-112624809D02*
X160130952Y-112124809D01*
X160130952Y-112124809D02*
X160250000Y-112124809D01*
X160250000Y-112124809D02*
X160321428Y-112148619D01*
X160321428Y-112148619D02*
X160369047Y-112196238D01*
X160369047Y-112196238D02*
X160392857Y-112243857D01*
X160392857Y-112243857D02*
X160416666Y-112339095D01*
X160416666Y-112339095D02*
X160416666Y-112410523D01*
X160416666Y-112410523D02*
X160392857Y-112505761D01*
X160392857Y-112505761D02*
X160369047Y-112553380D01*
X160369047Y-112553380D02*
X160321428Y-112601000D01*
X160321428Y-112601000D02*
X160250000Y-112624809D01*
X160250000Y-112624809D02*
X160130952Y-112624809D01*
X160892857Y-112624809D02*
X160607143Y-112624809D01*
X160750000Y-112624809D02*
X160750000Y-112124809D01*
X160750000Y-112124809D02*
X160702381Y-112196238D01*
X160702381Y-112196238D02*
X160654762Y-112243857D01*
X160654762Y-112243857D02*
X160607143Y-112267666D01*
X152516666Y-102224809D02*
X152350000Y-101986714D01*
X152230952Y-102224809D02*
X152230952Y-101724809D01*
X152230952Y-101724809D02*
X152421428Y-101724809D01*
X152421428Y-101724809D02*
X152469047Y-101748619D01*
X152469047Y-101748619D02*
X152492857Y-101772428D01*
X152492857Y-101772428D02*
X152516666Y-101820047D01*
X152516666Y-101820047D02*
X152516666Y-101891476D01*
X152516666Y-101891476D02*
X152492857Y-101939095D01*
X152492857Y-101939095D02*
X152469047Y-101962904D01*
X152469047Y-101962904D02*
X152421428Y-101986714D01*
X152421428Y-101986714D02*
X152230952Y-101986714D01*
X152945238Y-101891476D02*
X152945238Y-102224809D01*
X152826190Y-101701000D02*
X152707143Y-102058142D01*
X152707143Y-102058142D02*
X153016666Y-102058142D01*
X151966666Y-100927190D02*
X151942857Y-100951000D01*
X151942857Y-100951000D02*
X151871428Y-100974809D01*
X151871428Y-100974809D02*
X151823809Y-100974809D01*
X151823809Y-100974809D02*
X151752381Y-100951000D01*
X151752381Y-100951000D02*
X151704762Y-100903380D01*
X151704762Y-100903380D02*
X151680952Y-100855761D01*
X151680952Y-100855761D02*
X151657143Y-100760523D01*
X151657143Y-100760523D02*
X151657143Y-100689095D01*
X151657143Y-100689095D02*
X151680952Y-100593857D01*
X151680952Y-100593857D02*
X151704762Y-100546238D01*
X151704762Y-100546238D02*
X151752381Y-100498619D01*
X151752381Y-100498619D02*
X151823809Y-100474809D01*
X151823809Y-100474809D02*
X151871428Y-100474809D01*
X151871428Y-100474809D02*
X151942857Y-100498619D01*
X151942857Y-100498619D02*
X151966666Y-100522428D01*
X152157143Y-100522428D02*
X152180952Y-100498619D01*
X152180952Y-100498619D02*
X152228571Y-100474809D01*
X152228571Y-100474809D02*
X152347619Y-100474809D01*
X152347619Y-100474809D02*
X152395238Y-100498619D01*
X152395238Y-100498619D02*
X152419047Y-100522428D01*
X152419047Y-100522428D02*
X152442857Y-100570047D01*
X152442857Y-100570047D02*
X152442857Y-100617666D01*
X152442857Y-100617666D02*
X152419047Y-100689095D01*
X152419047Y-100689095D02*
X152133333Y-100974809D01*
X152133333Y-100974809D02*
X152442857Y-100974809D01*
X158083333Y-142604809D02*
X158083333Y-142961952D01*
X158083333Y-142961952D02*
X158059524Y-143033380D01*
X158059524Y-143033380D02*
X158011905Y-143081000D01*
X158011905Y-143081000D02*
X157940476Y-143104809D01*
X157940476Y-143104809D02*
X157892857Y-143104809D01*
X158297619Y-142652428D02*
X158321428Y-142628619D01*
X158321428Y-142628619D02*
X158369047Y-142604809D01*
X158369047Y-142604809D02*
X158488095Y-142604809D01*
X158488095Y-142604809D02*
X158535714Y-142628619D01*
X158535714Y-142628619D02*
X158559523Y-142652428D01*
X158559523Y-142652428D02*
X158583333Y-142700047D01*
X158583333Y-142700047D02*
X158583333Y-142747666D01*
X158583333Y-142747666D02*
X158559523Y-142819095D01*
X158559523Y-142819095D02*
X158273809Y-143104809D01*
X158273809Y-143104809D02*
X158583333Y-143104809D01*
X162619047Y-102724809D02*
X162619047Y-103129571D01*
X162619047Y-103129571D02*
X162642857Y-103177190D01*
X162642857Y-103177190D02*
X162666666Y-103201000D01*
X162666666Y-103201000D02*
X162714285Y-103224809D01*
X162714285Y-103224809D02*
X162809523Y-103224809D01*
X162809523Y-103224809D02*
X162857142Y-103201000D01*
X162857142Y-103201000D02*
X162880952Y-103177190D01*
X162880952Y-103177190D02*
X162904761Y-103129571D01*
X162904761Y-103129571D02*
X162904761Y-102724809D01*
X163404762Y-103224809D02*
X163119048Y-103224809D01*
X163261905Y-103224809D02*
X163261905Y-102724809D01*
X163261905Y-102724809D02*
X163214286Y-102796238D01*
X163214286Y-102796238D02*
X163166667Y-102843857D01*
X163166667Y-102843857D02*
X163119048Y-102867666D01*
X172052380Y-109172428D02*
X172004761Y-109148619D01*
X172004761Y-109148619D02*
X171957142Y-109101000D01*
X171957142Y-109101000D02*
X171885714Y-109029571D01*
X171885714Y-109029571D02*
X171838095Y-109005761D01*
X171838095Y-109005761D02*
X171790476Y-109005761D01*
X171814285Y-109124809D02*
X171766666Y-109101000D01*
X171766666Y-109101000D02*
X171719047Y-109053380D01*
X171719047Y-109053380D02*
X171695238Y-108958142D01*
X171695238Y-108958142D02*
X171695238Y-108791476D01*
X171695238Y-108791476D02*
X171719047Y-108696238D01*
X171719047Y-108696238D02*
X171766666Y-108648619D01*
X171766666Y-108648619D02*
X171814285Y-108624809D01*
X171814285Y-108624809D02*
X171909523Y-108624809D01*
X171909523Y-108624809D02*
X171957142Y-108648619D01*
X171957142Y-108648619D02*
X172004761Y-108696238D01*
X172004761Y-108696238D02*
X172028571Y-108791476D01*
X172028571Y-108791476D02*
X172028571Y-108958142D01*
X172028571Y-108958142D02*
X172004761Y-109053380D01*
X172004761Y-109053380D02*
X171957142Y-109101000D01*
X171957142Y-109101000D02*
X171909523Y-109124809D01*
X171909523Y-109124809D02*
X171814285Y-109124809D01*
X172219048Y-108672428D02*
X172242857Y-108648619D01*
X172242857Y-108648619D02*
X172290476Y-108624809D01*
X172290476Y-108624809D02*
X172409524Y-108624809D01*
X172409524Y-108624809D02*
X172457143Y-108648619D01*
X172457143Y-108648619D02*
X172480952Y-108672428D01*
X172480952Y-108672428D02*
X172504762Y-108720047D01*
X172504762Y-108720047D02*
X172504762Y-108767666D01*
X172504762Y-108767666D02*
X172480952Y-108839095D01*
X172480952Y-108839095D02*
X172195238Y-109124809D01*
X172195238Y-109124809D02*
X172504762Y-109124809D01*
X154716666Y-110124809D02*
X154550000Y-109886714D01*
X154430952Y-110124809D02*
X154430952Y-109624809D01*
X154430952Y-109624809D02*
X154621428Y-109624809D01*
X154621428Y-109624809D02*
X154669047Y-109648619D01*
X154669047Y-109648619D02*
X154692857Y-109672428D01*
X154692857Y-109672428D02*
X154716666Y-109720047D01*
X154716666Y-109720047D02*
X154716666Y-109791476D01*
X154716666Y-109791476D02*
X154692857Y-109839095D01*
X154692857Y-109839095D02*
X154669047Y-109862904D01*
X154669047Y-109862904D02*
X154621428Y-109886714D01*
X154621428Y-109886714D02*
X154430952Y-109886714D01*
X155169047Y-109624809D02*
X154930952Y-109624809D01*
X154930952Y-109624809D02*
X154907143Y-109862904D01*
X154907143Y-109862904D02*
X154930952Y-109839095D01*
X154930952Y-109839095D02*
X154978571Y-109815285D01*
X154978571Y-109815285D02*
X155097619Y-109815285D01*
X155097619Y-109815285D02*
X155145238Y-109839095D01*
X155145238Y-109839095D02*
X155169047Y-109862904D01*
X155169047Y-109862904D02*
X155192857Y-109910523D01*
X155192857Y-109910523D02*
X155192857Y-110029571D01*
X155192857Y-110029571D02*
X155169047Y-110077190D01*
X155169047Y-110077190D02*
X155145238Y-110101000D01*
X155145238Y-110101000D02*
X155097619Y-110124809D01*
X155097619Y-110124809D02*
X154978571Y-110124809D01*
X154978571Y-110124809D02*
X154930952Y-110101000D01*
X154930952Y-110101000D02*
X154907143Y-110077190D01*
X158316666Y-113624809D02*
X158150000Y-113386714D01*
X158030952Y-113624809D02*
X158030952Y-113124809D01*
X158030952Y-113124809D02*
X158221428Y-113124809D01*
X158221428Y-113124809D02*
X158269047Y-113148619D01*
X158269047Y-113148619D02*
X158292857Y-113172428D01*
X158292857Y-113172428D02*
X158316666Y-113220047D01*
X158316666Y-113220047D02*
X158316666Y-113291476D01*
X158316666Y-113291476D02*
X158292857Y-113339095D01*
X158292857Y-113339095D02*
X158269047Y-113362904D01*
X158269047Y-113362904D02*
X158221428Y-113386714D01*
X158221428Y-113386714D02*
X158030952Y-113386714D01*
X158792857Y-113624809D02*
X158507143Y-113624809D01*
X158650000Y-113624809D02*
X158650000Y-113124809D01*
X158650000Y-113124809D02*
X158602381Y-113196238D01*
X158602381Y-113196238D02*
X158554762Y-113243857D01*
X158554762Y-113243857D02*
X158507143Y-113267666D01*
X164916666Y-101177190D02*
X164892857Y-101201000D01*
X164892857Y-101201000D02*
X164821428Y-101224809D01*
X164821428Y-101224809D02*
X164773809Y-101224809D01*
X164773809Y-101224809D02*
X164702381Y-101201000D01*
X164702381Y-101201000D02*
X164654762Y-101153380D01*
X164654762Y-101153380D02*
X164630952Y-101105761D01*
X164630952Y-101105761D02*
X164607143Y-101010523D01*
X164607143Y-101010523D02*
X164607143Y-100939095D01*
X164607143Y-100939095D02*
X164630952Y-100843857D01*
X164630952Y-100843857D02*
X164654762Y-100796238D01*
X164654762Y-100796238D02*
X164702381Y-100748619D01*
X164702381Y-100748619D02*
X164773809Y-100724809D01*
X164773809Y-100724809D02*
X164821428Y-100724809D01*
X164821428Y-100724809D02*
X164892857Y-100748619D01*
X164892857Y-100748619D02*
X164916666Y-100772428D01*
X165154762Y-101224809D02*
X165250000Y-101224809D01*
X165250000Y-101224809D02*
X165297619Y-101201000D01*
X165297619Y-101201000D02*
X165321428Y-101177190D01*
X165321428Y-101177190D02*
X165369047Y-101105761D01*
X165369047Y-101105761D02*
X165392857Y-101010523D01*
X165392857Y-101010523D02*
X165392857Y-100820047D01*
X165392857Y-100820047D02*
X165369047Y-100772428D01*
X165369047Y-100772428D02*
X165345238Y-100748619D01*
X165345238Y-100748619D02*
X165297619Y-100724809D01*
X165297619Y-100724809D02*
X165202381Y-100724809D01*
X165202381Y-100724809D02*
X165154762Y-100748619D01*
X165154762Y-100748619D02*
X165130952Y-100772428D01*
X165130952Y-100772428D02*
X165107143Y-100820047D01*
X165107143Y-100820047D02*
X165107143Y-100939095D01*
X165107143Y-100939095D02*
X165130952Y-100986714D01*
X165130952Y-100986714D02*
X165154762Y-101010523D01*
X165154762Y-101010523D02*
X165202381Y-101034333D01*
X165202381Y-101034333D02*
X165297619Y-101034333D01*
X165297619Y-101034333D02*
X165345238Y-101010523D01*
X165345238Y-101010523D02*
X165369047Y-100986714D01*
X165369047Y-100986714D02*
X165392857Y-100939095D01*
X146553571Y-133277190D02*
X146529762Y-133301000D01*
X146529762Y-133301000D02*
X146458333Y-133324809D01*
X146458333Y-133324809D02*
X146410714Y-133324809D01*
X146410714Y-133324809D02*
X146339286Y-133301000D01*
X146339286Y-133301000D02*
X146291667Y-133253380D01*
X146291667Y-133253380D02*
X146267857Y-133205761D01*
X146267857Y-133205761D02*
X146244048Y-133110523D01*
X146244048Y-133110523D02*
X146244048Y-133039095D01*
X146244048Y-133039095D02*
X146267857Y-132943857D01*
X146267857Y-132943857D02*
X146291667Y-132896238D01*
X146291667Y-132896238D02*
X146339286Y-132848619D01*
X146339286Y-132848619D02*
X146410714Y-132824809D01*
X146410714Y-132824809D02*
X146458333Y-132824809D01*
X146458333Y-132824809D02*
X146529762Y-132848619D01*
X146529762Y-132848619D02*
X146553571Y-132872428D01*
X147029762Y-133324809D02*
X146744048Y-133324809D01*
X146886905Y-133324809D02*
X146886905Y-132824809D01*
X146886905Y-132824809D02*
X146839286Y-132896238D01*
X146839286Y-132896238D02*
X146791667Y-132943857D01*
X146791667Y-132943857D02*
X146744048Y-132967666D01*
X147267857Y-133324809D02*
X147363095Y-133324809D01*
X147363095Y-133324809D02*
X147410714Y-133301000D01*
X147410714Y-133301000D02*
X147434523Y-133277190D01*
X147434523Y-133277190D02*
X147482142Y-133205761D01*
X147482142Y-133205761D02*
X147505952Y-133110523D01*
X147505952Y-133110523D02*
X147505952Y-132920047D01*
X147505952Y-132920047D02*
X147482142Y-132872428D01*
X147482142Y-132872428D02*
X147458333Y-132848619D01*
X147458333Y-132848619D02*
X147410714Y-132824809D01*
X147410714Y-132824809D02*
X147315476Y-132824809D01*
X147315476Y-132824809D02*
X147267857Y-132848619D01*
X147267857Y-132848619D02*
X147244047Y-132872428D01*
X147244047Y-132872428D02*
X147220238Y-132920047D01*
X147220238Y-132920047D02*
X147220238Y-133039095D01*
X147220238Y-133039095D02*
X147244047Y-133086714D01*
X147244047Y-133086714D02*
X147267857Y-133110523D01*
X147267857Y-133110523D02*
X147315476Y-133134333D01*
X147315476Y-133134333D02*
X147410714Y-133134333D01*
X147410714Y-133134333D02*
X147458333Y-133110523D01*
X147458333Y-133110523D02*
X147482142Y-133086714D01*
X147482142Y-133086714D02*
X147505952Y-133039095D01*
X180678571Y-105794809D02*
X180511905Y-105556714D01*
X180392857Y-105794809D02*
X180392857Y-105294809D01*
X180392857Y-105294809D02*
X180583333Y-105294809D01*
X180583333Y-105294809D02*
X180630952Y-105318619D01*
X180630952Y-105318619D02*
X180654762Y-105342428D01*
X180654762Y-105342428D02*
X180678571Y-105390047D01*
X180678571Y-105390047D02*
X180678571Y-105461476D01*
X180678571Y-105461476D02*
X180654762Y-105509095D01*
X180654762Y-105509095D02*
X180630952Y-105532904D01*
X180630952Y-105532904D02*
X180583333Y-105556714D01*
X180583333Y-105556714D02*
X180392857Y-105556714D01*
X181154762Y-105794809D02*
X180869048Y-105794809D01*
X181011905Y-105794809D02*
X181011905Y-105294809D01*
X181011905Y-105294809D02*
X180964286Y-105366238D01*
X180964286Y-105366238D02*
X180916667Y-105413857D01*
X180916667Y-105413857D02*
X180869048Y-105437666D01*
X181630952Y-105794809D02*
X181345238Y-105794809D01*
X181488095Y-105794809D02*
X181488095Y-105294809D01*
X181488095Y-105294809D02*
X181440476Y-105366238D01*
X181440476Y-105366238D02*
X181392857Y-105413857D01*
X181392857Y-105413857D02*
X181345238Y-105437666D01*
X171178571Y-104424809D02*
X171011905Y-104186714D01*
X170892857Y-104424809D02*
X170892857Y-103924809D01*
X170892857Y-103924809D02*
X171083333Y-103924809D01*
X171083333Y-103924809D02*
X171130952Y-103948619D01*
X171130952Y-103948619D02*
X171154762Y-103972428D01*
X171154762Y-103972428D02*
X171178571Y-104020047D01*
X171178571Y-104020047D02*
X171178571Y-104091476D01*
X171178571Y-104091476D02*
X171154762Y-104139095D01*
X171154762Y-104139095D02*
X171130952Y-104162904D01*
X171130952Y-104162904D02*
X171083333Y-104186714D01*
X171083333Y-104186714D02*
X170892857Y-104186714D01*
X171654762Y-104424809D02*
X171369048Y-104424809D01*
X171511905Y-104424809D02*
X171511905Y-103924809D01*
X171511905Y-103924809D02*
X171464286Y-103996238D01*
X171464286Y-103996238D02*
X171416667Y-104043857D01*
X171416667Y-104043857D02*
X171369048Y-104067666D01*
X171845238Y-103972428D02*
X171869047Y-103948619D01*
X171869047Y-103948619D02*
X171916666Y-103924809D01*
X171916666Y-103924809D02*
X172035714Y-103924809D01*
X172035714Y-103924809D02*
X172083333Y-103948619D01*
X172083333Y-103948619D02*
X172107142Y-103972428D01*
X172107142Y-103972428D02*
X172130952Y-104020047D01*
X172130952Y-104020047D02*
X172130952Y-104067666D01*
X172130952Y-104067666D02*
X172107142Y-104139095D01*
X172107142Y-104139095D02*
X171821428Y-104424809D01*
X171821428Y-104424809D02*
X172130952Y-104424809D01*
X179678571Y-104224809D02*
X179511905Y-103986714D01*
X179392857Y-104224809D02*
X179392857Y-103724809D01*
X179392857Y-103724809D02*
X179583333Y-103724809D01*
X179583333Y-103724809D02*
X179630952Y-103748619D01*
X179630952Y-103748619D02*
X179654762Y-103772428D01*
X179654762Y-103772428D02*
X179678571Y-103820047D01*
X179678571Y-103820047D02*
X179678571Y-103891476D01*
X179678571Y-103891476D02*
X179654762Y-103939095D01*
X179654762Y-103939095D02*
X179630952Y-103962904D01*
X179630952Y-103962904D02*
X179583333Y-103986714D01*
X179583333Y-103986714D02*
X179392857Y-103986714D01*
X180154762Y-104224809D02*
X179869048Y-104224809D01*
X180011905Y-104224809D02*
X180011905Y-103724809D01*
X180011905Y-103724809D02*
X179964286Y-103796238D01*
X179964286Y-103796238D02*
X179916667Y-103843857D01*
X179916667Y-103843857D02*
X179869048Y-103867666D01*
X180321428Y-103724809D02*
X180630952Y-103724809D01*
X180630952Y-103724809D02*
X180464285Y-103915285D01*
X180464285Y-103915285D02*
X180535714Y-103915285D01*
X180535714Y-103915285D02*
X180583333Y-103939095D01*
X180583333Y-103939095D02*
X180607142Y-103962904D01*
X180607142Y-103962904D02*
X180630952Y-104010523D01*
X180630952Y-104010523D02*
X180630952Y-104129571D01*
X180630952Y-104129571D02*
X180607142Y-104177190D01*
X180607142Y-104177190D02*
X180583333Y-104201000D01*
X180583333Y-104201000D02*
X180535714Y-104224809D01*
X180535714Y-104224809D02*
X180392857Y-104224809D01*
X180392857Y-104224809D02*
X180345238Y-104201000D01*
X180345238Y-104201000D02*
X180321428Y-104177190D01*
X153616666Y-110724809D02*
X153450000Y-110486714D01*
X153330952Y-110724809D02*
X153330952Y-110224809D01*
X153330952Y-110224809D02*
X153521428Y-110224809D01*
X153521428Y-110224809D02*
X153569047Y-110248619D01*
X153569047Y-110248619D02*
X153592857Y-110272428D01*
X153592857Y-110272428D02*
X153616666Y-110320047D01*
X153616666Y-110320047D02*
X153616666Y-110391476D01*
X153616666Y-110391476D02*
X153592857Y-110439095D01*
X153592857Y-110439095D02*
X153569047Y-110462904D01*
X153569047Y-110462904D02*
X153521428Y-110486714D01*
X153521428Y-110486714D02*
X153330952Y-110486714D01*
X153854762Y-110724809D02*
X153950000Y-110724809D01*
X153950000Y-110724809D02*
X153997619Y-110701000D01*
X153997619Y-110701000D02*
X154021428Y-110677190D01*
X154021428Y-110677190D02*
X154069047Y-110605761D01*
X154069047Y-110605761D02*
X154092857Y-110510523D01*
X154092857Y-110510523D02*
X154092857Y-110320047D01*
X154092857Y-110320047D02*
X154069047Y-110272428D01*
X154069047Y-110272428D02*
X154045238Y-110248619D01*
X154045238Y-110248619D02*
X153997619Y-110224809D01*
X153997619Y-110224809D02*
X153902381Y-110224809D01*
X153902381Y-110224809D02*
X153854762Y-110248619D01*
X153854762Y-110248619D02*
X153830952Y-110272428D01*
X153830952Y-110272428D02*
X153807143Y-110320047D01*
X153807143Y-110320047D02*
X153807143Y-110439095D01*
X153807143Y-110439095D02*
X153830952Y-110486714D01*
X153830952Y-110486714D02*
X153854762Y-110510523D01*
X153854762Y-110510523D02*
X153902381Y-110534333D01*
X153902381Y-110534333D02*
X153997619Y-110534333D01*
X153997619Y-110534333D02*
X154045238Y-110510523D01*
X154045238Y-110510523D02*
X154069047Y-110486714D01*
X154069047Y-110486714D02*
X154092857Y-110439095D01*
X173619047Y-147224809D02*
X173619047Y-146724809D01*
X173619047Y-146962904D02*
X173904761Y-146962904D01*
X173904761Y-147224809D02*
X173904761Y-146724809D01*
X174404762Y-147224809D02*
X174119048Y-147224809D01*
X174261905Y-147224809D02*
X174261905Y-146724809D01*
X174261905Y-146724809D02*
X174214286Y-146796238D01*
X174214286Y-146796238D02*
X174166667Y-146843857D01*
X174166667Y-146843857D02*
X174119048Y-146867666D01*
X146653571Y-141727190D02*
X146629762Y-141751000D01*
X146629762Y-141751000D02*
X146558333Y-141774809D01*
X146558333Y-141774809D02*
X146510714Y-141774809D01*
X146510714Y-141774809D02*
X146439286Y-141751000D01*
X146439286Y-141751000D02*
X146391667Y-141703380D01*
X146391667Y-141703380D02*
X146367857Y-141655761D01*
X146367857Y-141655761D02*
X146344048Y-141560523D01*
X146344048Y-141560523D02*
X146344048Y-141489095D01*
X146344048Y-141489095D02*
X146367857Y-141393857D01*
X146367857Y-141393857D02*
X146391667Y-141346238D01*
X146391667Y-141346238D02*
X146439286Y-141298619D01*
X146439286Y-141298619D02*
X146510714Y-141274809D01*
X146510714Y-141274809D02*
X146558333Y-141274809D01*
X146558333Y-141274809D02*
X146629762Y-141298619D01*
X146629762Y-141298619D02*
X146653571Y-141322428D01*
X146844048Y-141322428D02*
X146867857Y-141298619D01*
X146867857Y-141298619D02*
X146915476Y-141274809D01*
X146915476Y-141274809D02*
X147034524Y-141274809D01*
X147034524Y-141274809D02*
X147082143Y-141298619D01*
X147082143Y-141298619D02*
X147105952Y-141322428D01*
X147105952Y-141322428D02*
X147129762Y-141370047D01*
X147129762Y-141370047D02*
X147129762Y-141417666D01*
X147129762Y-141417666D02*
X147105952Y-141489095D01*
X147105952Y-141489095D02*
X146820238Y-141774809D01*
X146820238Y-141774809D02*
X147129762Y-141774809D01*
X147320238Y-141322428D02*
X147344047Y-141298619D01*
X147344047Y-141298619D02*
X147391666Y-141274809D01*
X147391666Y-141274809D02*
X147510714Y-141274809D01*
X147510714Y-141274809D02*
X147558333Y-141298619D01*
X147558333Y-141298619D02*
X147582142Y-141322428D01*
X147582142Y-141322428D02*
X147605952Y-141370047D01*
X147605952Y-141370047D02*
X147605952Y-141417666D01*
X147605952Y-141417666D02*
X147582142Y-141489095D01*
X147582142Y-141489095D02*
X147296428Y-141774809D01*
X147296428Y-141774809D02*
X147605952Y-141774809D01*
X150678571Y-105577190D02*
X150654762Y-105601000D01*
X150654762Y-105601000D02*
X150583333Y-105624809D01*
X150583333Y-105624809D02*
X150535714Y-105624809D01*
X150535714Y-105624809D02*
X150464286Y-105601000D01*
X150464286Y-105601000D02*
X150416667Y-105553380D01*
X150416667Y-105553380D02*
X150392857Y-105505761D01*
X150392857Y-105505761D02*
X150369048Y-105410523D01*
X150369048Y-105410523D02*
X150369048Y-105339095D01*
X150369048Y-105339095D02*
X150392857Y-105243857D01*
X150392857Y-105243857D02*
X150416667Y-105196238D01*
X150416667Y-105196238D02*
X150464286Y-105148619D01*
X150464286Y-105148619D02*
X150535714Y-105124809D01*
X150535714Y-105124809D02*
X150583333Y-105124809D01*
X150583333Y-105124809D02*
X150654762Y-105148619D01*
X150654762Y-105148619D02*
X150678571Y-105172428D01*
X151154762Y-105624809D02*
X150869048Y-105624809D01*
X151011905Y-105624809D02*
X151011905Y-105124809D01*
X151011905Y-105124809D02*
X150964286Y-105196238D01*
X150964286Y-105196238D02*
X150916667Y-105243857D01*
X150916667Y-105243857D02*
X150869048Y-105267666D01*
X151321428Y-105124809D02*
X151654761Y-105124809D01*
X151654761Y-105124809D02*
X151440476Y-105624809D01*
X146578571Y-122477190D02*
X146554762Y-122501000D01*
X146554762Y-122501000D02*
X146483333Y-122524809D01*
X146483333Y-122524809D02*
X146435714Y-122524809D01*
X146435714Y-122524809D02*
X146364286Y-122501000D01*
X146364286Y-122501000D02*
X146316667Y-122453380D01*
X146316667Y-122453380D02*
X146292857Y-122405761D01*
X146292857Y-122405761D02*
X146269048Y-122310523D01*
X146269048Y-122310523D02*
X146269048Y-122239095D01*
X146269048Y-122239095D02*
X146292857Y-122143857D01*
X146292857Y-122143857D02*
X146316667Y-122096238D01*
X146316667Y-122096238D02*
X146364286Y-122048619D01*
X146364286Y-122048619D02*
X146435714Y-122024809D01*
X146435714Y-122024809D02*
X146483333Y-122024809D01*
X146483333Y-122024809D02*
X146554762Y-122048619D01*
X146554762Y-122048619D02*
X146578571Y-122072428D01*
X147054762Y-122524809D02*
X146769048Y-122524809D01*
X146911905Y-122524809D02*
X146911905Y-122024809D01*
X146911905Y-122024809D02*
X146864286Y-122096238D01*
X146864286Y-122096238D02*
X146816667Y-122143857D01*
X146816667Y-122143857D02*
X146769048Y-122167666D01*
X147483333Y-122024809D02*
X147388095Y-122024809D01*
X147388095Y-122024809D02*
X147340476Y-122048619D01*
X147340476Y-122048619D02*
X147316666Y-122072428D01*
X147316666Y-122072428D02*
X147269047Y-122143857D01*
X147269047Y-122143857D02*
X147245238Y-122239095D01*
X147245238Y-122239095D02*
X147245238Y-122429571D01*
X147245238Y-122429571D02*
X147269047Y-122477190D01*
X147269047Y-122477190D02*
X147292857Y-122501000D01*
X147292857Y-122501000D02*
X147340476Y-122524809D01*
X147340476Y-122524809D02*
X147435714Y-122524809D01*
X147435714Y-122524809D02*
X147483333Y-122501000D01*
X147483333Y-122501000D02*
X147507142Y-122477190D01*
X147507142Y-122477190D02*
X147530952Y-122429571D01*
X147530952Y-122429571D02*
X147530952Y-122310523D01*
X147530952Y-122310523D02*
X147507142Y-122262904D01*
X147507142Y-122262904D02*
X147483333Y-122239095D01*
X147483333Y-122239095D02*
X147435714Y-122215285D01*
X147435714Y-122215285D02*
X147340476Y-122215285D01*
X147340476Y-122215285D02*
X147292857Y-122239095D01*
X147292857Y-122239095D02*
X147269047Y-122262904D01*
X147269047Y-122262904D02*
X147245238Y-122310523D01*
X155416666Y-102177190D02*
X155392857Y-102201000D01*
X155392857Y-102201000D02*
X155321428Y-102224809D01*
X155321428Y-102224809D02*
X155273809Y-102224809D01*
X155273809Y-102224809D02*
X155202381Y-102201000D01*
X155202381Y-102201000D02*
X155154762Y-102153380D01*
X155154762Y-102153380D02*
X155130952Y-102105761D01*
X155130952Y-102105761D02*
X155107143Y-102010523D01*
X155107143Y-102010523D02*
X155107143Y-101939095D01*
X155107143Y-101939095D02*
X155130952Y-101843857D01*
X155130952Y-101843857D02*
X155154762Y-101796238D01*
X155154762Y-101796238D02*
X155202381Y-101748619D01*
X155202381Y-101748619D02*
X155273809Y-101724809D01*
X155273809Y-101724809D02*
X155321428Y-101724809D01*
X155321428Y-101724809D02*
X155392857Y-101748619D01*
X155392857Y-101748619D02*
X155416666Y-101772428D01*
X155702381Y-101939095D02*
X155654762Y-101915285D01*
X155654762Y-101915285D02*
X155630952Y-101891476D01*
X155630952Y-101891476D02*
X155607143Y-101843857D01*
X155607143Y-101843857D02*
X155607143Y-101820047D01*
X155607143Y-101820047D02*
X155630952Y-101772428D01*
X155630952Y-101772428D02*
X155654762Y-101748619D01*
X155654762Y-101748619D02*
X155702381Y-101724809D01*
X155702381Y-101724809D02*
X155797619Y-101724809D01*
X155797619Y-101724809D02*
X155845238Y-101748619D01*
X155845238Y-101748619D02*
X155869047Y-101772428D01*
X155869047Y-101772428D02*
X155892857Y-101820047D01*
X155892857Y-101820047D02*
X155892857Y-101843857D01*
X155892857Y-101843857D02*
X155869047Y-101891476D01*
X155869047Y-101891476D02*
X155845238Y-101915285D01*
X155845238Y-101915285D02*
X155797619Y-101939095D01*
X155797619Y-101939095D02*
X155702381Y-101939095D01*
X155702381Y-101939095D02*
X155654762Y-101962904D01*
X155654762Y-101962904D02*
X155630952Y-101986714D01*
X155630952Y-101986714D02*
X155607143Y-102034333D01*
X155607143Y-102034333D02*
X155607143Y-102129571D01*
X155607143Y-102129571D02*
X155630952Y-102177190D01*
X155630952Y-102177190D02*
X155654762Y-102201000D01*
X155654762Y-102201000D02*
X155702381Y-102224809D01*
X155702381Y-102224809D02*
X155797619Y-102224809D01*
X155797619Y-102224809D02*
X155845238Y-102201000D01*
X155845238Y-102201000D02*
X155869047Y-102177190D01*
X155869047Y-102177190D02*
X155892857Y-102129571D01*
X155892857Y-102129571D02*
X155892857Y-102034333D01*
X155892857Y-102034333D02*
X155869047Y-101986714D01*
X155869047Y-101986714D02*
X155845238Y-101962904D01*
X155845238Y-101962904D02*
X155797619Y-101939095D01*
X180878571Y-111377190D02*
X180854762Y-111401000D01*
X180854762Y-111401000D02*
X180783333Y-111424809D01*
X180783333Y-111424809D02*
X180735714Y-111424809D01*
X180735714Y-111424809D02*
X180664286Y-111401000D01*
X180664286Y-111401000D02*
X180616667Y-111353380D01*
X180616667Y-111353380D02*
X180592857Y-111305761D01*
X180592857Y-111305761D02*
X180569048Y-111210523D01*
X180569048Y-111210523D02*
X180569048Y-111139095D01*
X180569048Y-111139095D02*
X180592857Y-111043857D01*
X180592857Y-111043857D02*
X180616667Y-110996238D01*
X180616667Y-110996238D02*
X180664286Y-110948619D01*
X180664286Y-110948619D02*
X180735714Y-110924809D01*
X180735714Y-110924809D02*
X180783333Y-110924809D01*
X180783333Y-110924809D02*
X180854762Y-110948619D01*
X180854762Y-110948619D02*
X180878571Y-110972428D01*
X181069048Y-110972428D02*
X181092857Y-110948619D01*
X181092857Y-110948619D02*
X181140476Y-110924809D01*
X181140476Y-110924809D02*
X181259524Y-110924809D01*
X181259524Y-110924809D02*
X181307143Y-110948619D01*
X181307143Y-110948619D02*
X181330952Y-110972428D01*
X181330952Y-110972428D02*
X181354762Y-111020047D01*
X181354762Y-111020047D02*
X181354762Y-111067666D01*
X181354762Y-111067666D02*
X181330952Y-111139095D01*
X181330952Y-111139095D02*
X181045238Y-111424809D01*
X181045238Y-111424809D02*
X181354762Y-111424809D01*
X181783333Y-111091476D02*
X181783333Y-111424809D01*
X181664285Y-110901000D02*
X181545238Y-111258142D01*
X181545238Y-111258142D02*
X181854761Y-111258142D01*
X145964286Y-143762904D02*
X145797619Y-143762904D01*
X145797619Y-144024809D02*
X145797619Y-143524809D01*
X145797619Y-143524809D02*
X146035714Y-143524809D01*
X146226190Y-144024809D02*
X146226190Y-143524809D01*
X146464285Y-144024809D02*
X146464285Y-143524809D01*
X146464285Y-143524809D02*
X146583333Y-143524809D01*
X146583333Y-143524809D02*
X146654761Y-143548619D01*
X146654761Y-143548619D02*
X146702380Y-143596238D01*
X146702380Y-143596238D02*
X146726190Y-143643857D01*
X146726190Y-143643857D02*
X146749999Y-143739095D01*
X146749999Y-143739095D02*
X146749999Y-143810523D01*
X146749999Y-143810523D02*
X146726190Y-143905761D01*
X146726190Y-143905761D02*
X146702380Y-143953380D01*
X146702380Y-143953380D02*
X146654761Y-144001000D01*
X146654761Y-144001000D02*
X146583333Y-144024809D01*
X146583333Y-144024809D02*
X146464285Y-144024809D01*
X146940476Y-143572428D02*
X146964285Y-143548619D01*
X146964285Y-143548619D02*
X147011904Y-143524809D01*
X147011904Y-143524809D02*
X147130952Y-143524809D01*
X147130952Y-143524809D02*
X147178571Y-143548619D01*
X147178571Y-143548619D02*
X147202380Y-143572428D01*
X147202380Y-143572428D02*
X147226190Y-143620047D01*
X147226190Y-143620047D02*
X147226190Y-143667666D01*
X147226190Y-143667666D02*
X147202380Y-143739095D01*
X147202380Y-143739095D02*
X146916666Y-144024809D01*
X146916666Y-144024809D02*
X147226190Y-144024809D01*
X146553571Y-129677190D02*
X146529762Y-129701000D01*
X146529762Y-129701000D02*
X146458333Y-129724809D01*
X146458333Y-129724809D02*
X146410714Y-129724809D01*
X146410714Y-129724809D02*
X146339286Y-129701000D01*
X146339286Y-129701000D02*
X146291667Y-129653380D01*
X146291667Y-129653380D02*
X146267857Y-129605761D01*
X146267857Y-129605761D02*
X146244048Y-129510523D01*
X146244048Y-129510523D02*
X146244048Y-129439095D01*
X146244048Y-129439095D02*
X146267857Y-129343857D01*
X146267857Y-129343857D02*
X146291667Y-129296238D01*
X146291667Y-129296238D02*
X146339286Y-129248619D01*
X146339286Y-129248619D02*
X146410714Y-129224809D01*
X146410714Y-129224809D02*
X146458333Y-129224809D01*
X146458333Y-129224809D02*
X146529762Y-129248619D01*
X146529762Y-129248619D02*
X146553571Y-129272428D01*
X146744048Y-129272428D02*
X146767857Y-129248619D01*
X146767857Y-129248619D02*
X146815476Y-129224809D01*
X146815476Y-129224809D02*
X146934524Y-129224809D01*
X146934524Y-129224809D02*
X146982143Y-129248619D01*
X146982143Y-129248619D02*
X147005952Y-129272428D01*
X147005952Y-129272428D02*
X147029762Y-129320047D01*
X147029762Y-129320047D02*
X147029762Y-129367666D01*
X147029762Y-129367666D02*
X147005952Y-129439095D01*
X147005952Y-129439095D02*
X146720238Y-129724809D01*
X146720238Y-129724809D02*
X147029762Y-129724809D01*
X147339285Y-129224809D02*
X147386904Y-129224809D01*
X147386904Y-129224809D02*
X147434523Y-129248619D01*
X147434523Y-129248619D02*
X147458333Y-129272428D01*
X147458333Y-129272428D02*
X147482142Y-129320047D01*
X147482142Y-129320047D02*
X147505952Y-129415285D01*
X147505952Y-129415285D02*
X147505952Y-129534333D01*
X147505952Y-129534333D02*
X147482142Y-129629571D01*
X147482142Y-129629571D02*
X147458333Y-129677190D01*
X147458333Y-129677190D02*
X147434523Y-129701000D01*
X147434523Y-129701000D02*
X147386904Y-129724809D01*
X147386904Y-129724809D02*
X147339285Y-129724809D01*
X147339285Y-129724809D02*
X147291666Y-129701000D01*
X147291666Y-129701000D02*
X147267857Y-129677190D01*
X147267857Y-129677190D02*
X147244047Y-129629571D01*
X147244047Y-129629571D02*
X147220238Y-129534333D01*
X147220238Y-129534333D02*
X147220238Y-129415285D01*
X147220238Y-129415285D02*
X147244047Y-129320047D01*
X147244047Y-129320047D02*
X147267857Y-129272428D01*
X147267857Y-129272428D02*
X147291666Y-129248619D01*
X147291666Y-129248619D02*
X147339285Y-129224809D01*
X170578571Y-105524809D02*
X170411905Y-105286714D01*
X170292857Y-105524809D02*
X170292857Y-105024809D01*
X170292857Y-105024809D02*
X170483333Y-105024809D01*
X170483333Y-105024809D02*
X170530952Y-105048619D01*
X170530952Y-105048619D02*
X170554762Y-105072428D01*
X170554762Y-105072428D02*
X170578571Y-105120047D01*
X170578571Y-105120047D02*
X170578571Y-105191476D01*
X170578571Y-105191476D02*
X170554762Y-105239095D01*
X170554762Y-105239095D02*
X170530952Y-105262904D01*
X170530952Y-105262904D02*
X170483333Y-105286714D01*
X170483333Y-105286714D02*
X170292857Y-105286714D01*
X171054762Y-105524809D02*
X170769048Y-105524809D01*
X170911905Y-105524809D02*
X170911905Y-105024809D01*
X170911905Y-105024809D02*
X170864286Y-105096238D01*
X170864286Y-105096238D02*
X170816667Y-105143857D01*
X170816667Y-105143857D02*
X170769048Y-105167666D01*
X171483333Y-105191476D02*
X171483333Y-105524809D01*
X171364285Y-105001000D02*
X171245238Y-105358142D01*
X171245238Y-105358142D02*
X171554761Y-105358142D01*
X157216666Y-100927190D02*
X157192857Y-100951000D01*
X157192857Y-100951000D02*
X157121428Y-100974809D01*
X157121428Y-100974809D02*
X157073809Y-100974809D01*
X157073809Y-100974809D02*
X157002381Y-100951000D01*
X157002381Y-100951000D02*
X156954762Y-100903380D01*
X156954762Y-100903380D02*
X156930952Y-100855761D01*
X156930952Y-100855761D02*
X156907143Y-100760523D01*
X156907143Y-100760523D02*
X156907143Y-100689095D01*
X156907143Y-100689095D02*
X156930952Y-100593857D01*
X156930952Y-100593857D02*
X156954762Y-100546238D01*
X156954762Y-100546238D02*
X157002381Y-100498619D01*
X157002381Y-100498619D02*
X157073809Y-100474809D01*
X157073809Y-100474809D02*
X157121428Y-100474809D01*
X157121428Y-100474809D02*
X157192857Y-100498619D01*
X157192857Y-100498619D02*
X157216666Y-100522428D01*
X157645238Y-100641476D02*
X157645238Y-100974809D01*
X157526190Y-100451000D02*
X157407143Y-100808142D01*
X157407143Y-100808142D02*
X157716666Y-100808142D01*
X159216666Y-103324809D02*
X159050000Y-103086714D01*
X158930952Y-103324809D02*
X158930952Y-102824809D01*
X158930952Y-102824809D02*
X159121428Y-102824809D01*
X159121428Y-102824809D02*
X159169047Y-102848619D01*
X159169047Y-102848619D02*
X159192857Y-102872428D01*
X159192857Y-102872428D02*
X159216666Y-102920047D01*
X159216666Y-102920047D02*
X159216666Y-102991476D01*
X159216666Y-102991476D02*
X159192857Y-103039095D01*
X159192857Y-103039095D02*
X159169047Y-103062904D01*
X159169047Y-103062904D02*
X159121428Y-103086714D01*
X159121428Y-103086714D02*
X158930952Y-103086714D01*
X159383333Y-102824809D02*
X159692857Y-102824809D01*
X159692857Y-102824809D02*
X159526190Y-103015285D01*
X159526190Y-103015285D02*
X159597619Y-103015285D01*
X159597619Y-103015285D02*
X159645238Y-103039095D01*
X159645238Y-103039095D02*
X159669047Y-103062904D01*
X159669047Y-103062904D02*
X159692857Y-103110523D01*
X159692857Y-103110523D02*
X159692857Y-103229571D01*
X159692857Y-103229571D02*
X159669047Y-103277190D01*
X159669047Y-103277190D02*
X159645238Y-103301000D01*
X159645238Y-103301000D02*
X159597619Y-103324809D01*
X159597619Y-103324809D02*
X159454762Y-103324809D01*
X159454762Y-103324809D02*
X159407143Y-103301000D01*
X159407143Y-103301000D02*
X159383333Y-103277190D01*
X160916666Y-100927190D02*
X160892857Y-100951000D01*
X160892857Y-100951000D02*
X160821428Y-100974809D01*
X160821428Y-100974809D02*
X160773809Y-100974809D01*
X160773809Y-100974809D02*
X160702381Y-100951000D01*
X160702381Y-100951000D02*
X160654762Y-100903380D01*
X160654762Y-100903380D02*
X160630952Y-100855761D01*
X160630952Y-100855761D02*
X160607143Y-100760523D01*
X160607143Y-100760523D02*
X160607143Y-100689095D01*
X160607143Y-100689095D02*
X160630952Y-100593857D01*
X160630952Y-100593857D02*
X160654762Y-100546238D01*
X160654762Y-100546238D02*
X160702381Y-100498619D01*
X160702381Y-100498619D02*
X160773809Y-100474809D01*
X160773809Y-100474809D02*
X160821428Y-100474809D01*
X160821428Y-100474809D02*
X160892857Y-100498619D01*
X160892857Y-100498619D02*
X160916666Y-100522428D01*
X161345238Y-100474809D02*
X161250000Y-100474809D01*
X161250000Y-100474809D02*
X161202381Y-100498619D01*
X161202381Y-100498619D02*
X161178571Y-100522428D01*
X161178571Y-100522428D02*
X161130952Y-100593857D01*
X161130952Y-100593857D02*
X161107143Y-100689095D01*
X161107143Y-100689095D02*
X161107143Y-100879571D01*
X161107143Y-100879571D02*
X161130952Y-100927190D01*
X161130952Y-100927190D02*
X161154762Y-100951000D01*
X161154762Y-100951000D02*
X161202381Y-100974809D01*
X161202381Y-100974809D02*
X161297619Y-100974809D01*
X161297619Y-100974809D02*
X161345238Y-100951000D01*
X161345238Y-100951000D02*
X161369047Y-100927190D01*
X161369047Y-100927190D02*
X161392857Y-100879571D01*
X161392857Y-100879571D02*
X161392857Y-100760523D01*
X161392857Y-100760523D02*
X161369047Y-100712904D01*
X161369047Y-100712904D02*
X161345238Y-100689095D01*
X161345238Y-100689095D02*
X161297619Y-100665285D01*
X161297619Y-100665285D02*
X161202381Y-100665285D01*
X161202381Y-100665285D02*
X161154762Y-100689095D01*
X161154762Y-100689095D02*
X161130952Y-100712904D01*
X161130952Y-100712904D02*
X161107143Y-100760523D01*
X168378571Y-134677190D02*
X168354762Y-134701000D01*
X168354762Y-134701000D02*
X168283333Y-134724809D01*
X168283333Y-134724809D02*
X168235714Y-134724809D01*
X168235714Y-134724809D02*
X168164286Y-134701000D01*
X168164286Y-134701000D02*
X168116667Y-134653380D01*
X168116667Y-134653380D02*
X168092857Y-134605761D01*
X168092857Y-134605761D02*
X168069048Y-134510523D01*
X168069048Y-134510523D02*
X168069048Y-134439095D01*
X168069048Y-134439095D02*
X168092857Y-134343857D01*
X168092857Y-134343857D02*
X168116667Y-134296238D01*
X168116667Y-134296238D02*
X168164286Y-134248619D01*
X168164286Y-134248619D02*
X168235714Y-134224809D01*
X168235714Y-134224809D02*
X168283333Y-134224809D01*
X168283333Y-134224809D02*
X168354762Y-134248619D01*
X168354762Y-134248619D02*
X168378571Y-134272428D01*
X168569048Y-134272428D02*
X168592857Y-134248619D01*
X168592857Y-134248619D02*
X168640476Y-134224809D01*
X168640476Y-134224809D02*
X168759524Y-134224809D01*
X168759524Y-134224809D02*
X168807143Y-134248619D01*
X168807143Y-134248619D02*
X168830952Y-134272428D01*
X168830952Y-134272428D02*
X168854762Y-134320047D01*
X168854762Y-134320047D02*
X168854762Y-134367666D01*
X168854762Y-134367666D02*
X168830952Y-134439095D01*
X168830952Y-134439095D02*
X168545238Y-134724809D01*
X168545238Y-134724809D02*
X168854762Y-134724809D01*
X169330952Y-134724809D02*
X169045238Y-134724809D01*
X169188095Y-134724809D02*
X169188095Y-134224809D01*
X169188095Y-134224809D02*
X169140476Y-134296238D01*
X169140476Y-134296238D02*
X169092857Y-134343857D01*
X169092857Y-134343857D02*
X169045238Y-134367666D01*
X157678571Y-105877190D02*
X157654762Y-105901000D01*
X157654762Y-105901000D02*
X157583333Y-105924809D01*
X157583333Y-105924809D02*
X157535714Y-105924809D01*
X157535714Y-105924809D02*
X157464286Y-105901000D01*
X157464286Y-105901000D02*
X157416667Y-105853380D01*
X157416667Y-105853380D02*
X157392857Y-105805761D01*
X157392857Y-105805761D02*
X157369048Y-105710523D01*
X157369048Y-105710523D02*
X157369048Y-105639095D01*
X157369048Y-105639095D02*
X157392857Y-105543857D01*
X157392857Y-105543857D02*
X157416667Y-105496238D01*
X157416667Y-105496238D02*
X157464286Y-105448619D01*
X157464286Y-105448619D02*
X157535714Y-105424809D01*
X157535714Y-105424809D02*
X157583333Y-105424809D01*
X157583333Y-105424809D02*
X157654762Y-105448619D01*
X157654762Y-105448619D02*
X157678571Y-105472428D01*
X158154762Y-105924809D02*
X157869048Y-105924809D01*
X158011905Y-105924809D02*
X158011905Y-105424809D01*
X158011905Y-105424809D02*
X157964286Y-105496238D01*
X157964286Y-105496238D02*
X157916667Y-105543857D01*
X157916667Y-105543857D02*
X157869048Y-105567666D01*
X158583333Y-105591476D02*
X158583333Y-105924809D01*
X158464285Y-105401000D02*
X158345238Y-105758142D01*
X158345238Y-105758142D02*
X158654761Y-105758142D01*
X148178571Y-115177190D02*
X148154762Y-115201000D01*
X148154762Y-115201000D02*
X148083333Y-115224809D01*
X148083333Y-115224809D02*
X148035714Y-115224809D01*
X148035714Y-115224809D02*
X147964286Y-115201000D01*
X147964286Y-115201000D02*
X147916667Y-115153380D01*
X147916667Y-115153380D02*
X147892857Y-115105761D01*
X147892857Y-115105761D02*
X147869048Y-115010523D01*
X147869048Y-115010523D02*
X147869048Y-114939095D01*
X147869048Y-114939095D02*
X147892857Y-114843857D01*
X147892857Y-114843857D02*
X147916667Y-114796238D01*
X147916667Y-114796238D02*
X147964286Y-114748619D01*
X147964286Y-114748619D02*
X148035714Y-114724809D01*
X148035714Y-114724809D02*
X148083333Y-114724809D01*
X148083333Y-114724809D02*
X148154762Y-114748619D01*
X148154762Y-114748619D02*
X148178571Y-114772428D01*
X148654762Y-115224809D02*
X148369048Y-115224809D01*
X148511905Y-115224809D02*
X148511905Y-114724809D01*
X148511905Y-114724809D02*
X148464286Y-114796238D01*
X148464286Y-114796238D02*
X148416667Y-114843857D01*
X148416667Y-114843857D02*
X148369048Y-114867666D01*
X149107142Y-114724809D02*
X148869047Y-114724809D01*
X148869047Y-114724809D02*
X148845238Y-114962904D01*
X148845238Y-114962904D02*
X148869047Y-114939095D01*
X148869047Y-114939095D02*
X148916666Y-114915285D01*
X148916666Y-114915285D02*
X149035714Y-114915285D01*
X149035714Y-114915285D02*
X149083333Y-114939095D01*
X149083333Y-114939095D02*
X149107142Y-114962904D01*
X149107142Y-114962904D02*
X149130952Y-115010523D01*
X149130952Y-115010523D02*
X149130952Y-115129571D01*
X149130952Y-115129571D02*
X149107142Y-115177190D01*
X149107142Y-115177190D02*
X149083333Y-115201000D01*
X149083333Y-115201000D02*
X149035714Y-115224809D01*
X149035714Y-115224809D02*
X148916666Y-115224809D01*
X148916666Y-115224809D02*
X148869047Y-115201000D01*
X148869047Y-115201000D02*
X148845238Y-115177190D01*
X157316666Y-102324809D02*
X157150000Y-102086714D01*
X157030952Y-102324809D02*
X157030952Y-101824809D01*
X157030952Y-101824809D02*
X157221428Y-101824809D01*
X157221428Y-101824809D02*
X157269047Y-101848619D01*
X157269047Y-101848619D02*
X157292857Y-101872428D01*
X157292857Y-101872428D02*
X157316666Y-101920047D01*
X157316666Y-101920047D02*
X157316666Y-101991476D01*
X157316666Y-101991476D02*
X157292857Y-102039095D01*
X157292857Y-102039095D02*
X157269047Y-102062904D01*
X157269047Y-102062904D02*
X157221428Y-102086714D01*
X157221428Y-102086714D02*
X157030952Y-102086714D01*
X157507143Y-101872428D02*
X157530952Y-101848619D01*
X157530952Y-101848619D02*
X157578571Y-101824809D01*
X157578571Y-101824809D02*
X157697619Y-101824809D01*
X157697619Y-101824809D02*
X157745238Y-101848619D01*
X157745238Y-101848619D02*
X157769047Y-101872428D01*
X157769047Y-101872428D02*
X157792857Y-101920047D01*
X157792857Y-101920047D02*
X157792857Y-101967666D01*
X157792857Y-101967666D02*
X157769047Y-102039095D01*
X157769047Y-102039095D02*
X157483333Y-102324809D01*
X157483333Y-102324809D02*
X157792857Y-102324809D01*
D13*
%TO.C,TP10*%
X150100000Y-103200000D02*
X151500000Y-103200000D01*
X150100000Y-104600000D02*
X150100000Y-103200000D01*
X151500000Y-103200000D02*
X151500000Y-104600000D01*
X151500000Y-104600000D02*
X150100000Y-104600000D01*
%TO.C,TP8*%
X159700000Y-102200000D02*
X158300000Y-102200000D01*
X159700000Y-100800000D02*
X159700000Y-102200000D01*
X158300000Y-102200000D02*
X158300000Y-100800000D01*
X158300000Y-100800000D02*
X159700000Y-100800000D01*
%TO.C,TP6*%
X161100000Y-113200000D02*
X162500000Y-113200000D01*
X161100000Y-114600000D02*
X161100000Y-113200000D01*
X162500000Y-113200000D02*
X162500000Y-114600000D01*
X162500000Y-114600000D02*
X161100000Y-114600000D01*
%TO.C,TP5*%
X154500000Y-111000000D02*
X155900000Y-111000000D01*
X154500000Y-112400000D02*
X154500000Y-111000000D01*
X155900000Y-111000000D02*
X155900000Y-112400000D01*
X155900000Y-112400000D02*
X154500000Y-112400000D01*
%TO.C,TP4*%
X148800000Y-106300000D02*
X150200000Y-106300000D01*
X148800000Y-107700000D02*
X148800000Y-106300000D01*
X150200000Y-106300000D02*
X150200000Y-107700000D01*
X150200000Y-107700000D02*
X148800000Y-107700000D01*
%TO.C,R10*%
X176762742Y-106477500D02*
X177237258Y-106477500D01*
X176762742Y-107522500D02*
X177237258Y-107522500D01*
D14*
%TO.C,Q3*%
X172739600Y-103734500D02*
X172739600Y-97534500D01*
X177939600Y-103734500D02*
X177939600Y-97534500D01*
D15*
X173457600Y-104850000D02*
G75*
G02*
X173207600Y-104850000I-125000J0D01*
G01*
X173207600Y-104850000D02*
G75*
G02*
X173457600Y-104850000I125000J0D01*
G01*
D13*
%TO.C,C7*%
X161590000Y-98761252D02*
X161590000Y-97338748D01*
X163410000Y-98761252D02*
X163410000Y-97338748D01*
%TO.C,J1*%
X138330000Y-104130000D02*
X146370000Y-104130000D01*
X138330000Y-106950000D02*
X138330000Y-104130000D01*
X138330000Y-114870000D02*
X138330000Y-107550000D01*
X140450000Y-104130000D02*
X140450000Y-105370000D01*
X140450000Y-109130000D02*
X140450000Y-111707000D01*
X140450000Y-112793000D02*
X140450000Y-114870000D01*
X141750000Y-104130000D02*
X141750000Y-105370000D01*
X141750000Y-109130000D02*
X141750000Y-110438000D01*
X141750000Y-114062000D02*
X141750000Y-114870000D01*
X142750000Y-104130000D02*
X142750000Y-105370000D01*
X142750000Y-109130000D02*
X142750000Y-110438000D01*
X142750000Y-114062000D02*
X142750000Y-114870000D01*
X146370000Y-104130000D02*
X146370000Y-114870000D01*
X146370000Y-114870000D02*
X138330000Y-114870000D01*
X138330000Y-107250000D02*
X137720000Y-107690000D01*
X137720000Y-106810000D01*
X138330000Y-107250000D01*
G36*
X138330000Y-107250000D02*
G01*
X137720000Y-107690000D01*
X137720000Y-106810000D01*
X138330000Y-107250000D01*
G37*
%TO.C,C13*%
X157740580Y-107640000D02*
X157459420Y-107640000D01*
X157740580Y-108660000D02*
X157459420Y-108660000D01*
%TO.C,C3*%
X153790000Y-98761252D02*
X153790000Y-97338748D01*
X155610000Y-98761252D02*
X155610000Y-97338748D01*
D14*
%TO.C,Q4*%
X178409500Y-109650000D02*
X172209500Y-109650000D01*
X178409500Y-114850000D02*
X172209500Y-114850000D01*
D15*
X179650000Y-114257000D02*
G75*
G02*
X179400000Y-114257000I-125000J0D01*
G01*
X179400000Y-114257000D02*
G75*
G02*
X179650000Y-114257000I125000J0D01*
G01*
D13*
%TO.C,R6*%
X162687742Y-110677500D02*
X163162258Y-110677500D01*
X162687742Y-111722500D02*
X163162258Y-111722500D01*
%TO.C,C5*%
X157788748Y-110865000D02*
X158311252Y-110865000D01*
X157788748Y-112335000D02*
X158311252Y-112335000D01*
%TO.C,C11*%
X162659420Y-108990000D02*
X162940580Y-108990000D01*
X162659420Y-110010000D02*
X162940580Y-110010000D01*
%TO.C,C23*%
X147686252Y-133640000D02*
X146263748Y-133640000D01*
X147686252Y-136360000D02*
X146263748Y-136360000D01*
%TO.C,C12*%
X164859420Y-105240000D02*
X165140580Y-105240000D01*
X164859420Y-106260000D02*
X165140580Y-106260000D01*
D16*
%TO.C,G\u002A\u002A\u002A*%
G36*
X177659811Y-141069513D02*
G01*
X177658296Y-141074352D01*
X177655528Y-141083432D01*
X177651789Y-141095816D01*
X177647363Y-141110570D01*
X177642530Y-141126756D01*
X177642092Y-141128228D01*
X177637262Y-141144278D01*
X177632803Y-141158761D01*
X177628996Y-141170799D01*
X177626117Y-141179515D01*
X177624445Y-141184031D01*
X177624341Y-141184243D01*
X177623188Y-141185696D01*
X177621022Y-141186819D01*
X177617209Y-141187653D01*
X177611117Y-141188241D01*
X177602110Y-141188624D01*
X177589557Y-141188845D01*
X177572823Y-141188945D01*
X177553115Y-141188968D01*
X177534485Y-141188892D01*
X177517767Y-141188678D01*
X177503678Y-141188347D01*
X177492935Y-141187920D01*
X177486256Y-141187419D01*
X177484308Y-141186943D01*
X177485031Y-141183889D01*
X177487093Y-141176406D01*
X177490282Y-141165236D01*
X177494384Y-141151121D01*
X177499185Y-141134803D01*
X177502530Y-141123537D01*
X177520816Y-141062155D01*
X177591538Y-141062122D01*
X177662261Y-141062089D01*
X177659811Y-141069513D01*
G37*
G36*
X175180939Y-140757274D02*
G01*
X175184909Y-140764306D01*
X175189992Y-140774263D01*
X175195731Y-140786144D01*
X175201671Y-140798952D01*
X175207355Y-140811688D01*
X175212327Y-140823354D01*
X175216129Y-140832952D01*
X175218306Y-140839482D01*
X175218594Y-140841777D01*
X175215915Y-140843652D01*
X175209016Y-140847356D01*
X175198624Y-140852555D01*
X175185467Y-140858916D01*
X175170271Y-140866105D01*
X175153765Y-140873790D01*
X175136675Y-140881637D01*
X175119729Y-140889314D01*
X175103655Y-140896486D01*
X175089179Y-140902821D01*
X175077029Y-140907986D01*
X175067932Y-140911647D01*
X175062616Y-140913471D01*
X175061773Y-140913614D01*
X175057661Y-140911045D01*
X175052908Y-140903665D01*
X175050896Y-140899442D01*
X175046853Y-140890442D01*
X175041466Y-140878603D01*
X175035673Y-140865979D01*
X175033498Y-140861271D01*
X175028702Y-140850397D01*
X175024948Y-140840901D01*
X175022748Y-140834140D01*
X175022388Y-140832045D01*
X175023298Y-140830086D01*
X175026314Y-140827400D01*
X175031869Y-140823748D01*
X175040395Y-140818888D01*
X175052324Y-140812578D01*
X175068088Y-140804579D01*
X175088119Y-140794647D01*
X175098651Y-140789479D01*
X175120939Y-140778686D01*
X175140083Y-140769663D01*
X175155752Y-140762555D01*
X175167614Y-140757511D01*
X175175336Y-140754675D01*
X175178539Y-140754163D01*
X175180939Y-140757274D01*
G37*
G36*
X175259061Y-141012555D02*
G01*
X175263183Y-141015522D01*
X175265626Y-141020022D01*
X175269082Y-141028523D01*
X175273156Y-141039811D01*
X175277455Y-141052675D01*
X175281587Y-141065901D01*
X175285156Y-141078278D01*
X175287770Y-141088592D01*
X175288964Y-141094965D01*
X175290173Y-141104895D01*
X175270337Y-141110810D01*
X175236170Y-141120991D01*
X175206827Y-141129715D01*
X175181962Y-141137084D01*
X175161227Y-141143197D01*
X175144277Y-141148156D01*
X175130765Y-141152059D01*
X175120346Y-141155008D01*
X175112672Y-141157102D01*
X175107397Y-141158441D01*
X175104175Y-141159127D01*
X175102886Y-141159273D01*
X175099862Y-141157752D01*
X175096885Y-141152673D01*
X175093544Y-141143262D01*
X175092474Y-141139701D01*
X175088711Y-141126930D01*
X175084327Y-141112160D01*
X175080261Y-141098559D01*
X175080211Y-141098394D01*
X175077189Y-141087837D01*
X175074908Y-141078922D01*
X175073751Y-141073175D01*
X175073680Y-141072298D01*
X175074916Y-141070635D01*
X175078884Y-141068304D01*
X175085972Y-141065155D01*
X175096571Y-141061040D01*
X175111069Y-141055807D01*
X175129857Y-141049308D01*
X175153322Y-141041394D01*
X175159391Y-141039368D01*
X175180129Y-141032523D01*
X175199479Y-141026267D01*
X175216783Y-141020801D01*
X175231384Y-141016329D01*
X175242624Y-141013052D01*
X175249848Y-141011173D01*
X175252107Y-141010798D01*
X175259061Y-141012555D01*
G37*
G36*
X177566010Y-141218761D02*
G01*
X177584300Y-141219045D01*
X177598553Y-141219501D01*
X177608376Y-141220114D01*
X177613377Y-141220870D01*
X177613950Y-141221264D01*
X177613265Y-141224230D01*
X177611276Y-141232030D01*
X177608085Y-141244290D01*
X177603792Y-141260633D01*
X177598498Y-141280684D01*
X177592302Y-141304068D01*
X177585307Y-141330409D01*
X177577611Y-141359332D01*
X177569317Y-141390461D01*
X177560523Y-141423421D01*
X177551332Y-141457835D01*
X177541844Y-141493330D01*
X177532159Y-141529529D01*
X177522377Y-141566056D01*
X177512600Y-141602537D01*
X177502928Y-141638596D01*
X177493461Y-141673857D01*
X177484300Y-141707944D01*
X177475546Y-141740483D01*
X177467300Y-141771098D01*
X177459661Y-141799413D01*
X177452730Y-141825053D01*
X177446609Y-141847642D01*
X177441397Y-141866805D01*
X177437196Y-141882166D01*
X177434105Y-141893351D01*
X177432225Y-141899982D01*
X177431667Y-141901750D01*
X177428774Y-141902224D01*
X177421139Y-141902660D01*
X177409422Y-141903057D01*
X177394278Y-141903411D01*
X177376367Y-141903718D01*
X177356346Y-141903975D01*
X177334872Y-141904180D01*
X177312604Y-141904330D01*
X177290200Y-141904420D01*
X177268316Y-141904447D01*
X177247612Y-141904410D01*
X177228744Y-141904303D01*
X177212370Y-141904125D01*
X177199149Y-141903872D01*
X177189738Y-141903541D01*
X177184795Y-141903128D01*
X177184224Y-141902949D01*
X177184354Y-141899961D01*
X177185716Y-141892807D01*
X177188085Y-141882518D01*
X177191238Y-141870127D01*
X177191664Y-141868529D01*
X177195762Y-141853200D01*
X177200033Y-141837192D01*
X177203918Y-141822601D01*
X177206405Y-141813237D01*
X177212309Y-141790966D01*
X177266734Y-141790966D01*
X177321158Y-141790966D01*
X177396112Y-141510888D01*
X177406251Y-141473000D01*
X177416015Y-141436510D01*
X177425311Y-141401763D01*
X177434047Y-141369108D01*
X177442130Y-141338891D01*
X177449467Y-141311458D01*
X177455965Y-141287156D01*
X177461532Y-141266332D01*
X177466075Y-141249332D01*
X177469501Y-141236504D01*
X177471717Y-141228193D01*
X177472632Y-141224747D01*
X177472635Y-141224737D01*
X177474203Y-141218663D01*
X177544077Y-141218663D01*
X177566010Y-141218761D01*
G37*
G36*
X180198798Y-141074912D02*
G01*
X180196732Y-141082277D01*
X180193678Y-141093479D01*
X180190010Y-141107130D01*
X180186103Y-141121843D01*
X180185153Y-141125447D01*
X180181418Y-141139460D01*
X180177979Y-141152020D01*
X180175155Y-141161995D01*
X180173260Y-141168252D01*
X180172891Y-141169315D01*
X180170551Y-141175470D01*
X179982186Y-141175470D01*
X179793821Y-141175470D01*
X179736373Y-141389409D01*
X179727494Y-141422478D01*
X179718996Y-141454129D01*
X179710988Y-141483963D01*
X179703576Y-141511580D01*
X179696869Y-141536579D01*
X179690972Y-141558560D01*
X179685993Y-141577124D01*
X179682041Y-141591871D01*
X179679221Y-141602400D01*
X179677642Y-141608311D01*
X179677353Y-141609403D01*
X179675780Y-141615459D01*
X179864544Y-141616152D01*
X180053308Y-141616845D01*
X180039551Y-141668137D01*
X180035203Y-141684241D01*
X180031229Y-141698764D01*
X180027875Y-141710819D01*
X180025389Y-141719519D01*
X180024018Y-141723976D01*
X180023953Y-141724152D01*
X180023417Y-141724942D01*
X180022250Y-141725640D01*
X180020134Y-141726250D01*
X180016748Y-141726778D01*
X180011773Y-141727231D01*
X180004889Y-141727614D01*
X179995778Y-141727932D01*
X179984118Y-141728193D01*
X179969592Y-141728401D01*
X179951880Y-141728562D01*
X179930661Y-141728683D01*
X179905617Y-141728768D01*
X179876428Y-141728825D01*
X179842775Y-141728857D01*
X179804337Y-141728873D01*
X179764220Y-141728876D01*
X179719531Y-141728863D01*
X179679971Y-141728822D01*
X179645272Y-141728748D01*
X179615163Y-141728639D01*
X179589375Y-141728491D01*
X179567639Y-141728300D01*
X179549685Y-141728063D01*
X179535244Y-141727777D01*
X179524046Y-141727437D01*
X179515822Y-141727040D01*
X179510302Y-141726584D01*
X179507218Y-141726063D01*
X179506297Y-141725502D01*
X179506979Y-141722521D01*
X179508979Y-141714640D01*
X179512211Y-141702173D01*
X179516594Y-141685436D01*
X179522044Y-141664742D01*
X179528477Y-141640407D01*
X179535810Y-141612744D01*
X179543959Y-141582068D01*
X179552843Y-141548694D01*
X179562376Y-141512935D01*
X179572475Y-141475108D01*
X179583058Y-141435525D01*
X179594040Y-141394502D01*
X179594682Y-141392108D01*
X179683098Y-141062089D01*
X179942809Y-141062089D01*
X180202520Y-141062089D01*
X180198798Y-141074912D01*
G37*
G36*
X177180082Y-141219233D02*
G01*
X177211955Y-141219326D01*
X177239660Y-141219477D01*
X177262999Y-141219686D01*
X177281776Y-141219951D01*
X177295792Y-141220270D01*
X177304850Y-141220643D01*
X177308754Y-141221067D01*
X177308901Y-141221173D01*
X177308214Y-141224205D01*
X177306232Y-141232009D01*
X177303072Y-141244146D01*
X177298853Y-141260177D01*
X177293692Y-141279663D01*
X177287709Y-141302167D01*
X177281020Y-141327248D01*
X177273745Y-141354468D01*
X177266000Y-141383388D01*
X177257905Y-141413570D01*
X177249577Y-141444574D01*
X177241135Y-141475961D01*
X177232696Y-141507294D01*
X177224378Y-141538133D01*
X177216300Y-141568039D01*
X177208580Y-141596573D01*
X177201336Y-141623297D01*
X177194686Y-141647772D01*
X177188748Y-141669558D01*
X177183639Y-141688218D01*
X177179479Y-141703312D01*
X177176386Y-141714401D01*
X177174476Y-141721047D01*
X177173915Y-141722802D01*
X177171340Y-141728876D01*
X176925783Y-141728876D01*
X176889853Y-141728855D01*
X176855480Y-141728791D01*
X176823046Y-141728690D01*
X176792931Y-141728553D01*
X176765518Y-141728384D01*
X176741186Y-141728187D01*
X176720319Y-141727963D01*
X176703296Y-141727717D01*
X176690500Y-141727452D01*
X176682311Y-141727170D01*
X176679111Y-141726874D01*
X176679083Y-141726852D01*
X176679608Y-141724013D01*
X176681451Y-141716322D01*
X176684517Y-141704136D01*
X176688713Y-141687814D01*
X176693944Y-141667713D01*
X176700117Y-141644192D01*
X176707136Y-141617609D01*
X176707697Y-141615495D01*
X176848162Y-141615495D01*
X176955193Y-141615495D01*
X177062224Y-141615495D01*
X177099606Y-141477144D01*
X177106755Y-141450703D01*
X177113502Y-141425793D01*
X177119710Y-141402909D01*
X177125246Y-141382544D01*
X177129975Y-141365194D01*
X177133761Y-141351354D01*
X177136471Y-141341519D01*
X177137969Y-141336183D01*
X177138210Y-141335387D01*
X177137533Y-141334511D01*
X177134533Y-141333807D01*
X177128796Y-141333265D01*
X177119908Y-141332874D01*
X177107454Y-141332623D01*
X177091021Y-141332503D01*
X177070195Y-141332502D01*
X177044560Y-141332611D01*
X177032087Y-141332687D01*
X176924742Y-141333393D01*
X176886452Y-141474444D01*
X176848162Y-141615495D01*
X176707697Y-141615495D01*
X176714908Y-141588323D01*
X176723339Y-141556691D01*
X176732335Y-141523072D01*
X176741801Y-141487825D01*
X176745949Y-141472420D01*
X176813958Y-141220012D01*
X177061430Y-141219323D01*
X177104622Y-141219231D01*
X177144239Y-141219201D01*
X177180082Y-141219233D01*
G37*
G36*
X176492036Y-141224737D02*
G01*
X176490039Y-141231326D01*
X176487171Y-141241349D01*
X176483678Y-141253878D01*
X176479811Y-141267987D01*
X176475818Y-141282750D01*
X176471948Y-141297239D01*
X176468449Y-141310528D01*
X176465569Y-141321689D01*
X176463558Y-141329797D01*
X176462664Y-141333924D01*
X176462655Y-141334252D01*
X176464822Y-141332786D01*
X176470630Y-141328232D01*
X176479596Y-141320984D01*
X176491237Y-141311438D01*
X176505070Y-141299991D01*
X176520610Y-141287036D01*
X176532720Y-141276887D01*
X176602027Y-141218663D01*
X176678761Y-141218663D01*
X176698487Y-141218704D01*
X176716335Y-141218819D01*
X176731628Y-141218998D01*
X176743687Y-141219231D01*
X176751835Y-141219506D01*
X176755394Y-141219812D01*
X176755495Y-141219875D01*
X176753478Y-141221757D01*
X176747632Y-141226852D01*
X176738259Y-141234903D01*
X176725665Y-141245651D01*
X176710155Y-141258836D01*
X176692033Y-141274202D01*
X176671603Y-141291489D01*
X176649170Y-141310439D01*
X176625039Y-141330794D01*
X176599515Y-141352296D01*
X176584749Y-141364722D01*
X176414003Y-141508356D01*
X176386503Y-141608493D01*
X176380247Y-141631255D01*
X176374334Y-141652731D01*
X176368943Y-141672282D01*
X176364248Y-141689267D01*
X176360429Y-141703045D01*
X176357661Y-141712976D01*
X176356122Y-141718421D01*
X176356025Y-141718753D01*
X176353046Y-141728876D01*
X176285666Y-141728876D01*
X176264606Y-141728840D01*
X176248350Y-141728706D01*
X176236305Y-141728439D01*
X176227878Y-141728003D01*
X176222474Y-141727363D01*
X176219500Y-141726483D01*
X176218361Y-141725327D01*
X176218286Y-141724823D01*
X176218980Y-141721899D01*
X176220983Y-141714205D01*
X176224175Y-141702178D01*
X176228438Y-141686255D01*
X176233652Y-141666873D01*
X176239699Y-141644468D01*
X176246459Y-141619477D01*
X176253814Y-141592338D01*
X176261645Y-141563487D01*
X176269832Y-141533361D01*
X176278256Y-141502397D01*
X176286799Y-141471031D01*
X176295342Y-141439702D01*
X176303765Y-141408845D01*
X176311949Y-141378897D01*
X176319776Y-141350296D01*
X176327126Y-141323477D01*
X176333881Y-141298880D01*
X176339921Y-141276939D01*
X176345127Y-141258091D01*
X176349381Y-141242775D01*
X176352563Y-141231426D01*
X176354555Y-141224482D01*
X176354883Y-141223387D01*
X176355692Y-141221937D01*
X176357540Y-141220817D01*
X176361051Y-141219983D01*
X176366848Y-141219396D01*
X176375555Y-141219012D01*
X176387795Y-141218790D01*
X176404192Y-141218687D01*
X176425165Y-141218663D01*
X176494003Y-141218663D01*
X176492036Y-141224737D01*
G37*
G36*
X174929377Y-141284053D02*
G01*
X174931265Y-141286316D01*
X174933160Y-141290899D01*
X174935265Y-141298471D01*
X174937779Y-141309700D01*
X174940904Y-141325252D01*
X174942736Y-141334743D01*
X174945101Y-141347302D01*
X174946885Y-141357749D01*
X174948149Y-141367128D01*
X174948952Y-141376486D01*
X174949353Y-141386870D01*
X174949412Y-141399325D01*
X174949188Y-141414898D01*
X174948741Y-141434635D01*
X174948642Y-141438675D01*
X174947093Y-141480675D01*
X174944491Y-141525797D01*
X174940946Y-141573003D01*
X174936570Y-141621255D01*
X174931474Y-141669514D01*
X174925769Y-141716743D01*
X174919566Y-141761902D01*
X174912978Y-141803953D01*
X174906114Y-141841857D01*
X174904686Y-141849006D01*
X174900679Y-141867573D01*
X174895672Y-141889020D01*
X174890005Y-141912031D01*
X174884019Y-141935290D01*
X174878053Y-141957482D01*
X174872447Y-141977291D01*
X174867542Y-141993402D01*
X174866653Y-141996131D01*
X174859066Y-142019077D01*
X174781454Y-142019793D01*
X174761612Y-142019908D01*
X174743644Y-142019879D01*
X174728224Y-142019719D01*
X174716025Y-142019439D01*
X174707722Y-142019051D01*
X174703987Y-142018568D01*
X174703846Y-142018444D01*
X174704811Y-142015297D01*
X174707449Y-142008163D01*
X174711375Y-141998048D01*
X174716205Y-141985958D01*
X174717065Y-141983836D01*
X174729137Y-141952197D01*
X174739852Y-141919850D01*
X174749470Y-141885810D01*
X174758252Y-141849092D01*
X174766459Y-141808714D01*
X174772507Y-141774769D01*
X174780219Y-141725203D01*
X174786796Y-141674763D01*
X174792115Y-141624711D01*
X174796055Y-141576312D01*
X174798491Y-141530829D01*
X174799256Y-141499652D01*
X174799377Y-141483592D01*
X174799277Y-141471818D01*
X174798820Y-141463221D01*
X174797870Y-141456690D01*
X174796291Y-141451113D01*
X174793945Y-141445380D01*
X174792100Y-141441375D01*
X174784091Y-141426688D01*
X174774774Y-141415173D01*
X174762514Y-141404970D01*
X174756379Y-141400814D01*
X174750051Y-141396538D01*
X174745716Y-141392676D01*
X174742574Y-141387913D01*
X174739822Y-141380935D01*
X174736659Y-141370427D01*
X174735611Y-141366744D01*
X174732261Y-141354216D01*
X174730598Y-141345889D01*
X174730498Y-141340879D01*
X174731666Y-141338454D01*
X174734790Y-141337184D01*
X174742414Y-141334706D01*
X174753828Y-141331221D01*
X174768320Y-141326928D01*
X174785178Y-141322028D01*
X174803690Y-141316721D01*
X174823146Y-141311207D01*
X174842834Y-141305686D01*
X174862042Y-141300358D01*
X174880059Y-141295423D01*
X174896173Y-141291081D01*
X174909673Y-141287532D01*
X174919847Y-141284977D01*
X174925984Y-141283615D01*
X174927296Y-141283444D01*
X174929377Y-141284053D01*
G37*
G36*
X174991731Y-140849211D02*
G01*
X174995849Y-140855725D01*
X175001038Y-140865163D01*
X175006833Y-140876538D01*
X175012769Y-140888863D01*
X175018379Y-140901151D01*
X175023199Y-140912414D01*
X175026762Y-140921667D01*
X175028603Y-140927921D01*
X175028540Y-140930086D01*
X175025727Y-140931543D01*
X175018189Y-140935105D01*
X175006135Y-140940680D01*
X174989772Y-140948174D01*
X174969305Y-140957495D01*
X174944944Y-140968549D01*
X174916895Y-140981243D01*
X174885365Y-140995483D01*
X174850561Y-141011178D01*
X174812691Y-141028234D01*
X174771961Y-141046557D01*
X174728579Y-141066055D01*
X174682753Y-141086634D01*
X174634688Y-141108202D01*
X174584594Y-141130665D01*
X174532675Y-141153930D01*
X174479141Y-141177904D01*
X174424198Y-141202494D01*
X174368053Y-141227607D01*
X174310913Y-141253150D01*
X174252986Y-141279030D01*
X174194478Y-141305153D01*
X174135597Y-141331427D01*
X174109943Y-141342869D01*
X174076790Y-141357655D01*
X174044739Y-141371953D01*
X174014175Y-141385590D01*
X173985483Y-141398394D01*
X173959047Y-141410194D01*
X173935254Y-141420817D01*
X173914488Y-141430092D01*
X173897133Y-141437847D01*
X173883577Y-141443909D01*
X173874202Y-141448108D01*
X173869534Y-141450207D01*
X173857542Y-141455504D01*
X173849237Y-141458705D01*
X173843468Y-141460104D01*
X173839080Y-141459993D01*
X173835441Y-141458878D01*
X173828797Y-141453614D01*
X173824715Y-141445305D01*
X173823679Y-141435887D01*
X173826174Y-141427298D01*
X173827166Y-141425816D01*
X173830228Y-141423751D01*
X173837655Y-141419605D01*
X173848942Y-141413635D01*
X173863587Y-141406097D01*
X173881087Y-141397249D01*
X173900940Y-141387346D01*
X173922642Y-141376646D01*
X173941222Y-141367576D01*
X173955196Y-141360744D01*
X173973682Y-141351642D01*
X173996369Y-141340426D01*
X174022945Y-141327251D01*
X174053097Y-141312273D01*
X174086515Y-141295647D01*
X174122887Y-141277529D01*
X174161900Y-141258074D01*
X174203244Y-141237438D01*
X174246607Y-141215776D01*
X174291676Y-141193243D01*
X174338141Y-141169996D01*
X174385689Y-141146189D01*
X174434009Y-141121978D01*
X174482790Y-141097519D01*
X174518211Y-141079747D01*
X174565329Y-141056115D01*
X174611187Y-141033148D01*
X174655548Y-141010962D01*
X174698177Y-140989674D01*
X174738840Y-140969400D01*
X174777300Y-140950257D01*
X174813323Y-140932360D01*
X174846674Y-140915827D01*
X174877116Y-140900774D01*
X174904416Y-140887317D01*
X174928337Y-140875573D01*
X174948645Y-140865658D01*
X174965105Y-140857688D01*
X174977480Y-140851781D01*
X174985536Y-140848052D01*
X174989038Y-140846618D01*
X174989152Y-140846607D01*
X174991731Y-140849211D01*
G37*
G36*
X175973977Y-141062154D02*
G01*
X176246631Y-141062163D01*
X176264799Y-141091458D01*
X176271820Y-141102897D01*
X176277838Y-141112920D01*
X176282250Y-141120508D01*
X176284452Y-141124640D01*
X176284524Y-141124814D01*
X176284112Y-141128080D01*
X176282385Y-141136091D01*
X176279462Y-141148385D01*
X176275459Y-141164500D01*
X176270495Y-141183977D01*
X176264687Y-141206353D01*
X176258152Y-141231167D01*
X176251010Y-141257958D01*
X176243376Y-141286265D01*
X176242953Y-141287824D01*
X176235179Y-141316477D01*
X176227758Y-141343844D01*
X176220821Y-141369434D01*
X176214502Y-141392757D01*
X176208932Y-141413324D01*
X176204246Y-141430642D01*
X176200575Y-141444223D01*
X176198053Y-141453575D01*
X176196813Y-141458209D01*
X176196811Y-141458214D01*
X176195485Y-141462452D01*
X176193526Y-141466240D01*
X176190286Y-141470167D01*
X176185118Y-141474823D01*
X176177373Y-141480798D01*
X176166402Y-141488681D01*
X176153038Y-141498033D01*
X176112276Y-141526411D01*
X175915649Y-141526411D01*
X175719021Y-141526411D01*
X175715009Y-141540583D01*
X175713319Y-141546718D01*
X175710455Y-141557299D01*
X175706625Y-141571554D01*
X175702036Y-141588709D01*
X175696894Y-141607992D01*
X175691407Y-141628628D01*
X175689161Y-141637092D01*
X175683746Y-141657494D01*
X175678730Y-141676355D01*
X175674295Y-141693003D01*
X175670617Y-141706769D01*
X175667877Y-141716981D01*
X175666253Y-141722969D01*
X175665921Y-141724152D01*
X175665132Y-141725588D01*
X175663314Y-141726701D01*
X175659849Y-141727532D01*
X175654121Y-141728122D01*
X175645513Y-141728510D01*
X175633410Y-141728739D01*
X175617193Y-141728847D01*
X175596248Y-141728876D01*
X175594195Y-141728876D01*
X175523874Y-141728876D01*
X175525458Y-141722802D01*
X175526340Y-141719475D01*
X175528526Y-141711250D01*
X175531931Y-141698447D01*
X175536470Y-141681386D01*
X175542058Y-141660385D01*
X175548610Y-141635765D01*
X175556041Y-141607845D01*
X175564266Y-141576945D01*
X175573199Y-141543383D01*
X175582757Y-141507481D01*
X175592853Y-141469557D01*
X175603402Y-141429930D01*
X175607890Y-141413072D01*
X175749007Y-141413072D01*
X175910056Y-141412376D01*
X176071106Y-141411680D01*
X176093414Y-141327994D01*
X176099382Y-141305607D01*
X176105372Y-141283140D01*
X176111115Y-141261596D01*
X176116344Y-141241980D01*
X176120792Y-141225298D01*
X176124189Y-141212554D01*
X176124900Y-141209889D01*
X176134077Y-141175470D01*
X175973041Y-141175485D01*
X175812005Y-141175501D01*
X175790728Y-141255797D01*
X175784814Y-141278111D01*
X175778794Y-141300824D01*
X175772958Y-141322833D01*
X175767601Y-141343034D01*
X175763014Y-141360323D01*
X175759490Y-141373599D01*
X175759229Y-141374582D01*
X175749007Y-141413072D01*
X175607890Y-141413072D01*
X175614183Y-141389437D01*
X175701324Y-141062146D01*
X175973977Y-141062154D01*
G37*
G36*
X175039129Y-141082800D02*
G01*
X175042220Y-141088494D01*
X175046268Y-141098447D01*
X175051435Y-141113038D01*
X175054775Y-141123064D01*
X175059350Y-141137357D01*
X175063164Y-141149931D01*
X175065954Y-141159862D01*
X175067455Y-141166227D01*
X175067606Y-141168044D01*
X175064858Y-141169514D01*
X175057578Y-141172218D01*
X175046438Y-141175940D01*
X175032107Y-141180464D01*
X175015255Y-141185574D01*
X174996552Y-141191055D01*
X174993897Y-141191818D01*
X174936816Y-141208195D01*
X174884569Y-141223181D01*
X174836801Y-141236877D01*
X174793160Y-141249386D01*
X174753289Y-141260807D01*
X174716835Y-141271242D01*
X174683443Y-141280793D01*
X174652759Y-141289561D01*
X174624429Y-141297647D01*
X174598097Y-141305153D01*
X174573410Y-141312179D01*
X174550013Y-141318828D01*
X174527551Y-141325199D01*
X174505671Y-141331396D01*
X174489229Y-141336045D01*
X174458287Y-141344798D01*
X174423635Y-141354614D01*
X174386753Y-141365073D01*
X174349124Y-141375754D01*
X174312228Y-141386237D01*
X174277546Y-141396101D01*
X174246559Y-141404926D01*
X174246270Y-141405009D01*
X174219481Y-141412638D01*
X174192497Y-141420309D01*
X174166136Y-141427791D01*
X174141215Y-141434851D01*
X174118552Y-141441259D01*
X174098965Y-141446783D01*
X174083271Y-141451191D01*
X174076199Y-141453166D01*
X174060236Y-141457612D01*
X174040364Y-141463151D01*
X174017873Y-141469421D01*
X173994054Y-141476064D01*
X173970197Y-141482720D01*
X173949651Y-141488454D01*
X173929741Y-141493952D01*
X173911270Y-141498940D01*
X173894947Y-141503235D01*
X173881478Y-141506656D01*
X173871571Y-141509020D01*
X173865933Y-141510145D01*
X173865168Y-141510213D01*
X173858787Y-141508355D01*
X173852287Y-141503855D01*
X173852014Y-141503587D01*
X173846824Y-141495625D01*
X173845186Y-141486796D01*
X173847134Y-141478816D01*
X173851462Y-141474090D01*
X173855070Y-141472572D01*
X173863346Y-141469544D01*
X173875821Y-141465165D01*
X173892028Y-141459594D01*
X173911499Y-141452989D01*
X173933767Y-141445509D01*
X173958363Y-141437312D01*
X173984821Y-141428558D01*
X174011410Y-141419818D01*
X174031400Y-141413254D01*
X174056110Y-141405120D01*
X174085134Y-141395547D01*
X174118070Y-141384670D01*
X174154513Y-141372622D01*
X174194059Y-141359538D01*
X174236305Y-141345552D01*
X174280847Y-141330796D01*
X174327282Y-141315404D01*
X174375204Y-141299512D01*
X174424211Y-141283251D01*
X174473898Y-141266756D01*
X174523863Y-141250161D01*
X174573700Y-141233600D01*
X174598988Y-141225193D01*
X174645777Y-141209643D01*
X174691207Y-141194561D01*
X174735012Y-141180034D01*
X174776925Y-141166150D01*
X174816679Y-141152997D01*
X174854007Y-141140662D01*
X174888642Y-141129234D01*
X174920317Y-141118800D01*
X174948766Y-141109449D01*
X174973722Y-141101269D01*
X174994917Y-141094346D01*
X175012085Y-141088769D01*
X175024960Y-141084627D01*
X175033273Y-141082006D01*
X175036759Y-141080995D01*
X175036834Y-141080986D01*
X175039129Y-141082800D01*
G37*
G36*
X174126482Y-141014013D02*
G01*
X174165407Y-141014052D01*
X174201668Y-141014115D01*
X174234971Y-141014202D01*
X174265024Y-141014312D01*
X174291535Y-141014443D01*
X174314209Y-141014595D01*
X174332754Y-141014767D01*
X174346878Y-141014958D01*
X174356287Y-141015167D01*
X174360688Y-141015392D01*
X174360992Y-141015472D01*
X174358619Y-141016911D01*
X174351702Y-141020589D01*
X174340539Y-141026355D01*
X174325427Y-141034060D01*
X174306664Y-141043553D01*
X174284550Y-141054687D01*
X174259382Y-141067310D01*
X174231457Y-141081274D01*
X174201075Y-141096428D01*
X174168532Y-141112624D01*
X174134128Y-141129711D01*
X174098160Y-141147541D01*
X174074583Y-141159209D01*
X174029716Y-141181417D01*
X173989465Y-141201374D01*
X173953596Y-141219202D01*
X173921875Y-141235019D01*
X173894065Y-141248947D01*
X173869934Y-141261106D01*
X173849246Y-141271616D01*
X173831766Y-141280597D01*
X173817261Y-141288169D01*
X173805496Y-141294454D01*
X173796236Y-141299570D01*
X173789246Y-141303638D01*
X173784292Y-141306779D01*
X173781140Y-141309113D01*
X173779944Y-141310256D01*
X173774460Y-141317685D01*
X173768305Y-141327780D01*
X173763329Y-141337315D01*
X173759282Y-141346406D01*
X173756794Y-141354070D01*
X173755495Y-141362213D01*
X173755018Y-141372744D01*
X173754973Y-141380635D01*
X173755159Y-141393365D01*
X173755951Y-141402642D01*
X173757735Y-141410407D01*
X173760897Y-141418601D01*
X173763759Y-141424834D01*
X173769652Y-141436272D01*
X173776391Y-141447839D01*
X173782008Y-141456304D01*
X173790696Y-141471843D01*
X173796845Y-141490159D01*
X173804618Y-141512908D01*
X173815439Y-141531493D01*
X173829707Y-141546298D01*
X173847825Y-141557705D01*
X173870193Y-141566099D01*
X173878531Y-141568262D01*
X173894783Y-141571377D01*
X173907587Y-141571979D01*
X173918313Y-141569992D01*
X173927993Y-141565539D01*
X173934792Y-141562038D01*
X173939465Y-141560534D01*
X173940608Y-141560815D01*
X173940844Y-141564545D01*
X173940338Y-141572602D01*
X173939215Y-141583984D01*
X173937599Y-141597689D01*
X173935614Y-141612714D01*
X173933386Y-141628058D01*
X173931039Y-141642718D01*
X173929027Y-141653979D01*
X173921945Y-141685811D01*
X173913150Y-141714645D01*
X173902035Y-141741904D01*
X173887992Y-141769011D01*
X173870414Y-141797390D01*
X173863333Y-141807857D01*
X173843540Y-141837490D01*
X173827257Y-141864051D01*
X173814174Y-141888281D01*
X173803981Y-141910923D01*
X173796367Y-141932720D01*
X173791023Y-141954413D01*
X173787638Y-141976746D01*
X173786333Y-141992082D01*
X173784648Y-142019077D01*
X173596324Y-142019770D01*
X173407999Y-142020464D01*
X173408705Y-141571646D01*
X173409412Y-141122829D01*
X173416540Y-141107626D01*
X173423409Y-141096095D01*
X173433641Y-141082820D01*
X173446091Y-141069027D01*
X173459613Y-141055943D01*
X173473062Y-141044796D01*
X173479300Y-141040398D01*
X173490356Y-141034048D01*
X173503797Y-141027604D01*
X173516804Y-141022413D01*
X173517393Y-141022210D01*
X173538990Y-141014847D01*
X173949995Y-141014122D01*
X173996649Y-141014053D01*
X174041810Y-141014012D01*
X174085185Y-141013999D01*
X174126482Y-141014013D01*
G37*
G36*
X178610000Y-141218665D02*
G01*
X178645168Y-141218677D01*
X178675611Y-141218706D01*
X178701668Y-141218761D01*
X178723674Y-141218849D01*
X178741968Y-141218979D01*
X178756887Y-141219157D01*
X178768768Y-141219393D01*
X178777949Y-141219693D01*
X178784766Y-141220066D01*
X178789557Y-141220520D01*
X178792660Y-141221062D01*
X178794411Y-141221701D01*
X178795148Y-141222444D01*
X178795209Y-141223299D01*
X178795043Y-141223927D01*
X178793849Y-141228097D01*
X178791621Y-141236244D01*
X178788611Y-141247412D01*
X178785071Y-141260646D01*
X178781257Y-141274990D01*
X178777419Y-141289488D01*
X178773813Y-141303184D01*
X178770691Y-141315123D01*
X178768306Y-141324348D01*
X178766911Y-141329904D01*
X178766655Y-141331085D01*
X178764034Y-141331260D01*
X178756490Y-141331425D01*
X178744497Y-141331576D01*
X178728531Y-141331711D01*
X178709067Y-141331827D01*
X178686580Y-141331921D01*
X178661545Y-141331991D01*
X178634437Y-141332032D01*
X178610524Y-141332043D01*
X178454393Y-141332043D01*
X178423888Y-141446099D01*
X178417170Y-141471217D01*
X178410611Y-141495733D01*
X178404403Y-141518937D01*
X178398736Y-141540114D01*
X178393801Y-141558551D01*
X178389789Y-141573537D01*
X178386890Y-141584358D01*
X178385960Y-141587825D01*
X178378537Y-141615495D01*
X178534393Y-141615495D01*
X178690248Y-141615495D01*
X178676166Y-141667962D01*
X178671783Y-141684206D01*
X178667792Y-141698833D01*
X178664432Y-141710977D01*
X178661944Y-141719775D01*
X178660566Y-141724362D01*
X178660463Y-141724653D01*
X178659762Y-141725412D01*
X178658053Y-141726075D01*
X178655002Y-141726649D01*
X178650269Y-141727141D01*
X178643519Y-141727555D01*
X178634415Y-141727899D01*
X178622619Y-141728179D01*
X178607795Y-141728402D01*
X178589605Y-141728573D01*
X178567713Y-141728698D01*
X178541782Y-141728785D01*
X178511474Y-141728840D01*
X178476454Y-141728868D01*
X178436383Y-141728876D01*
X178434855Y-141728876D01*
X178400566Y-141728852D01*
X178367847Y-141728783D01*
X178337099Y-141728673D01*
X178308722Y-141728524D01*
X178283115Y-141728340D01*
X178260677Y-141728126D01*
X178241809Y-141727885D01*
X178226911Y-141727619D01*
X178216381Y-141727334D01*
X178210620Y-141727032D01*
X178209621Y-141726852D01*
X178210127Y-141724012D01*
X178211942Y-141716317D01*
X178214974Y-141704129D01*
X178219127Y-141687805D01*
X178224310Y-141667705D01*
X178230428Y-141644189D01*
X178237387Y-141617616D01*
X178245094Y-141588346D01*
X178253455Y-141556738D01*
X178262376Y-141523152D01*
X178271765Y-141487947D01*
X178275556Y-141473769D01*
X178285117Y-141438022D01*
X178294272Y-141403753D01*
X178302926Y-141371322D01*
X178310985Y-141341089D01*
X178318351Y-141313412D01*
X178324930Y-141288653D01*
X178330627Y-141267171D01*
X178335345Y-141249324D01*
X178338989Y-141235473D01*
X178341463Y-141225977D01*
X178342673Y-141221196D01*
X178342781Y-141220687D01*
X178345422Y-141220380D01*
X178353068Y-141220086D01*
X178365324Y-141219811D01*
X178381796Y-141219556D01*
X178402090Y-141219326D01*
X178425812Y-141219125D01*
X178452568Y-141218955D01*
X178481962Y-141218821D01*
X178513601Y-141218726D01*
X178547091Y-141218673D01*
X178569770Y-141218663D01*
X178610000Y-141218665D01*
G37*
G36*
X173205596Y-141836831D02*
G01*
X173205596Y-142050114D01*
X174164609Y-142050793D01*
X175123621Y-142051472D01*
X175124357Y-142100738D01*
X175125093Y-142150005D01*
X173953430Y-142150005D01*
X172781768Y-142150005D01*
X172781768Y-142125709D01*
X172781768Y-142101413D01*
X172752073Y-142101413D01*
X172722378Y-142101413D01*
X172722378Y-142094664D01*
X172722378Y-142087915D01*
X173887231Y-142087915D01*
X173996202Y-142087909D01*
X174099846Y-142087890D01*
X174198158Y-142087859D01*
X174291135Y-142087815D01*
X174378774Y-142087759D01*
X174461070Y-142087691D01*
X174538020Y-142087609D01*
X174609621Y-142087516D01*
X174675869Y-142087410D01*
X174736760Y-142087291D01*
X174792291Y-142087160D01*
X174842458Y-142087017D01*
X174887257Y-142086861D01*
X174926686Y-142086693D01*
X174960740Y-142086513D01*
X174989416Y-142086320D01*
X175012710Y-142086114D01*
X175030619Y-142085897D01*
X175043138Y-142085667D01*
X175050266Y-142085424D01*
X175052083Y-142085216D01*
X175049385Y-142084963D01*
X175041290Y-142084723D01*
X175027804Y-142084495D01*
X175008929Y-142084280D01*
X174984670Y-142084077D01*
X174955029Y-142083886D01*
X174920011Y-142083708D01*
X174879619Y-142083542D01*
X174833857Y-142083388D01*
X174782728Y-142083247D01*
X174726236Y-142083118D01*
X174664384Y-142083002D01*
X174597176Y-142082898D01*
X174524616Y-142082807D01*
X174446707Y-142082728D01*
X174363452Y-142082662D01*
X174274856Y-142082608D01*
X174180922Y-142082566D01*
X174081654Y-142082537D01*
X173977055Y-142082521D01*
X173887231Y-142082516D01*
X172722378Y-142082516D01*
X172722378Y-142017727D01*
X172722378Y-141952938D01*
X172961287Y-141952938D01*
X173003032Y-141952930D01*
X173039698Y-141952903D01*
X173071606Y-141952850D01*
X173099076Y-141952767D01*
X173122428Y-141952647D01*
X173141983Y-141952487D01*
X173158061Y-141952279D01*
X173170983Y-141952019D01*
X173181069Y-141951702D01*
X173188640Y-141951322D01*
X173194015Y-141950873D01*
X173197516Y-141950350D01*
X173199462Y-141949747D01*
X173200174Y-141949060D01*
X173200197Y-141948889D01*
X173199724Y-141948181D01*
X173198090Y-141947560D01*
X173194976Y-141947019D01*
X173190061Y-141946554D01*
X173183024Y-141946158D01*
X173173546Y-141945826D01*
X173161305Y-141945554D01*
X173145982Y-141945335D01*
X173127256Y-141945164D01*
X173104806Y-141945036D01*
X173078313Y-141944944D01*
X173047456Y-141944885D01*
X173011914Y-141944852D01*
X172971367Y-141944840D01*
X172961287Y-141944840D01*
X172722378Y-141944840D01*
X172722378Y-141924593D01*
X172722378Y-141904347D01*
X172961287Y-141904347D01*
X173003032Y-141904339D01*
X173039698Y-141904311D01*
X173071606Y-141904258D01*
X173099076Y-141904175D01*
X173122428Y-141904056D01*
X173141983Y-141903895D01*
X173158061Y-141903687D01*
X173170983Y-141903428D01*
X173181069Y-141903110D01*
X173188640Y-141902730D01*
X173194015Y-141902281D01*
X173197516Y-141901758D01*
X173199462Y-141901155D01*
X173200174Y-141900468D01*
X173200197Y-141900297D01*
X173199724Y-141899590D01*
X173198090Y-141898968D01*
X173194976Y-141898427D01*
X173190061Y-141897962D01*
X173183024Y-141897566D01*
X173173546Y-141897235D01*
X173161305Y-141896962D01*
X173145982Y-141896743D01*
X173127256Y-141896572D01*
X173104806Y-141896444D01*
X173078313Y-141896353D01*
X173047456Y-141896293D01*
X173011914Y-141896260D01*
X172971367Y-141896248D01*
X172961287Y-141896248D01*
X172722378Y-141896248D01*
X172722378Y-141830109D01*
X172722378Y-141763970D01*
X172816816Y-141763970D01*
X172911255Y-141763970D01*
X172911975Y-141694457D01*
X172912696Y-141624944D01*
X173059146Y-141624246D01*
X173205596Y-141623548D01*
X173205596Y-141836831D01*
G37*
G36*
X178195471Y-141246548D02*
G01*
X178202327Y-141257617D01*
X178207932Y-141267268D01*
X178211719Y-141274480D01*
X178213119Y-141278230D01*
X178213118Y-141278268D01*
X178212408Y-141281611D01*
X178210432Y-141289612D01*
X178207335Y-141301716D01*
X178203260Y-141317369D01*
X178198353Y-141336016D01*
X178192759Y-141357104D01*
X178186623Y-141380078D01*
X178182608Y-141395030D01*
X178152228Y-141507958D01*
X178117274Y-141530007D01*
X178082320Y-141552056D01*
X177939414Y-141553406D01*
X177796508Y-141554756D01*
X177790395Y-141579052D01*
X177787508Y-141590522D01*
X177784977Y-141600579D01*
X177783195Y-141607656D01*
X177782750Y-141609421D01*
X177781219Y-141615495D01*
X177963489Y-141615495D01*
X178000688Y-141615514D01*
X178032806Y-141615575D01*
X178060160Y-141615684D01*
X178083069Y-141615847D01*
X178101851Y-141616069D01*
X178116823Y-141616357D01*
X178128303Y-141616716D01*
X178136610Y-141617153D01*
X178142060Y-141617672D01*
X178144973Y-141618281D01*
X178145690Y-141618870D01*
X178144994Y-141622408D01*
X178143093Y-141630311D01*
X178140200Y-141641737D01*
X178136531Y-141655842D01*
X178132299Y-141671783D01*
X178131466Y-141674885D01*
X178117312Y-141727527D01*
X177864281Y-141728215D01*
X177822554Y-141728303D01*
X177783830Y-141728332D01*
X177748360Y-141728304D01*
X177716393Y-141728221D01*
X177688180Y-141728085D01*
X177663971Y-141727897D01*
X177644014Y-141727660D01*
X177628561Y-141727374D01*
X177617861Y-141727043D01*
X177612164Y-141726667D01*
X177611250Y-141726427D01*
X177611928Y-141723625D01*
X177613884Y-141716043D01*
X177617002Y-141704118D01*
X177621166Y-141688286D01*
X177626259Y-141668983D01*
X177632167Y-141646645D01*
X177638771Y-141621710D01*
X177645958Y-141594613D01*
X177653609Y-141565791D01*
X177661609Y-141535679D01*
X177669843Y-141504715D01*
X177678193Y-141473334D01*
X177686544Y-141441974D01*
X177687963Y-141436651D01*
X177829932Y-141436651D01*
X177831032Y-141437546D01*
X177834619Y-141438279D01*
X177841103Y-141438864D01*
X177850896Y-141439313D01*
X177864410Y-141439641D01*
X177882056Y-141439860D01*
X177904245Y-141439983D01*
X177931389Y-141440025D01*
X177933742Y-141440025D01*
X178037570Y-141440025D01*
X178040264Y-141429902D01*
X178041910Y-141423743D01*
X178044635Y-141413576D01*
X178048117Y-141400608D01*
X178052030Y-141386043D01*
X178053847Y-141379285D01*
X178057607Y-141365100D01*
X178060807Y-141352636D01*
X178063203Y-141342878D01*
X178064550Y-141336812D01*
X178064755Y-141335418D01*
X178063654Y-141334522D01*
X178060068Y-141333789D01*
X178053584Y-141333205D01*
X178043790Y-141332755D01*
X178030277Y-141332428D01*
X178012631Y-141332209D01*
X177990442Y-141332085D01*
X177963298Y-141332044D01*
X177960945Y-141332043D01*
X177857117Y-141332043D01*
X177854423Y-141342167D01*
X177852777Y-141348326D01*
X177850051Y-141358493D01*
X177846570Y-141371461D01*
X177842657Y-141386025D01*
X177840840Y-141392783D01*
X177837080Y-141406969D01*
X177833879Y-141419433D01*
X177831483Y-141429191D01*
X177830136Y-141435257D01*
X177829932Y-141436651D01*
X177687963Y-141436651D01*
X177694780Y-141411069D01*
X177702784Y-141381057D01*
X177710441Y-141352374D01*
X177717633Y-141325456D01*
X177724246Y-141300739D01*
X177730163Y-141278660D01*
X177735267Y-141259655D01*
X177739443Y-141244161D01*
X177742575Y-141232613D01*
X177744546Y-141225449D01*
X177745139Y-141223387D01*
X177745640Y-141222527D01*
X177746812Y-141221778D01*
X177749004Y-141221132D01*
X177752566Y-141220582D01*
X177757846Y-141220120D01*
X177765194Y-141219738D01*
X177774958Y-141219429D01*
X177787489Y-141219185D01*
X177803136Y-141218998D01*
X177822247Y-141218862D01*
X177845171Y-141218768D01*
X177872259Y-141218709D01*
X177903858Y-141218677D01*
X177940320Y-141218664D01*
X177962143Y-141218663D01*
X178177695Y-141218663D01*
X178195471Y-141246548D01*
G37*
G36*
X179170391Y-141062499D02*
G01*
X179179112Y-141062746D01*
X179184799Y-141063210D01*
X179188045Y-141063926D01*
X179189441Y-141064928D01*
X179189578Y-141066252D01*
X179189447Y-141066768D01*
X179187936Y-141072119D01*
X179185394Y-141081449D01*
X179182036Y-141093951D01*
X179178073Y-141108819D01*
X179173718Y-141125246D01*
X179169183Y-141142423D01*
X179164681Y-141159545D01*
X179160424Y-141175805D01*
X179156625Y-141190394D01*
X179153496Y-141202506D01*
X179151249Y-141211334D01*
X179150098Y-141216072D01*
X179149991Y-141216638D01*
X179152570Y-141217192D01*
X179159823Y-141217688D01*
X179171029Y-141218105D01*
X179185462Y-141218420D01*
X179202400Y-141218612D01*
X179217319Y-141218663D01*
X179235821Y-141218740D01*
X179252472Y-141218959D01*
X179266530Y-141219298D01*
X179277256Y-141219733D01*
X179283909Y-141220244D01*
X179285800Y-141220687D01*
X179285499Y-141223823D01*
X179283960Y-141231297D01*
X179281387Y-141242245D01*
X179277980Y-141255802D01*
X179274254Y-141269954D01*
X179270043Y-141285653D01*
X179266210Y-141299999D01*
X179263021Y-141311993D01*
X179260742Y-141320634D01*
X179259713Y-141324620D01*
X179257869Y-141332043D01*
X179187732Y-141332043D01*
X179168910Y-141332100D01*
X179151996Y-141332260D01*
X179137701Y-141332507D01*
X179126732Y-141332826D01*
X179119799Y-141333201D01*
X179117595Y-141333583D01*
X179116916Y-141336412D01*
X179114967Y-141343964D01*
X179111877Y-141355749D01*
X179107775Y-141371276D01*
X179102793Y-141390056D01*
X179097061Y-141411596D01*
X179090707Y-141435407D01*
X179083862Y-141460999D01*
X179081151Y-141471119D01*
X179074147Y-141497310D01*
X179067585Y-141521948D01*
X179061596Y-141544539D01*
X179056310Y-141564586D01*
X179051857Y-141581590D01*
X179048369Y-141595057D01*
X179045974Y-141604489D01*
X179044804Y-141609389D01*
X179044708Y-141609956D01*
X179047256Y-141610958D01*
X179054943Y-141611741D01*
X179067831Y-141612306D01*
X179085980Y-141612656D01*
X179109453Y-141612793D01*
X179113546Y-141612796D01*
X179132184Y-141612872D01*
X179148905Y-141613085D01*
X179162995Y-141613416D01*
X179173737Y-141613842D01*
X179180416Y-141614342D01*
X179182365Y-141614821D01*
X179181668Y-141617923D01*
X179179735Y-141625418D01*
X179176781Y-141636501D01*
X179173021Y-141650366D01*
X179168670Y-141666204D01*
X179167517Y-141670372D01*
X179163061Y-141686510D01*
X179159141Y-141700809D01*
X179155971Y-141712479D01*
X179153765Y-141720730D01*
X179152737Y-141724774D01*
X179152689Y-141725038D01*
X179150092Y-141725362D01*
X179142710Y-141725631D01*
X179131155Y-141725847D01*
X179116042Y-141726011D01*
X179097984Y-141726126D01*
X179077593Y-141726193D01*
X179055485Y-141726215D01*
X179032271Y-141726193D01*
X179008566Y-141726129D01*
X178984982Y-141726025D01*
X178962134Y-141725883D01*
X178940634Y-141725706D01*
X178921096Y-141725495D01*
X178904134Y-141725251D01*
X178890360Y-141724978D01*
X178880388Y-141724677D01*
X178874832Y-141724349D01*
X178873876Y-141724152D01*
X178874382Y-141721277D01*
X178876190Y-141713606D01*
X178879191Y-141701554D01*
X178883276Y-141685537D01*
X178888339Y-141665970D01*
X178894270Y-141643270D01*
X178900963Y-141617851D01*
X178908308Y-141590129D01*
X178916198Y-141560519D01*
X178923526Y-141533159D01*
X178931864Y-141502098D01*
X178939815Y-141472463D01*
X178947267Y-141444683D01*
X178954104Y-141419186D01*
X178960211Y-141396398D01*
X178965475Y-141376748D01*
X178969780Y-141360663D01*
X178973012Y-141348571D01*
X178975056Y-141340899D01*
X178975776Y-141338166D01*
X178977297Y-141332141D01*
X178914332Y-141331418D01*
X178851367Y-141330694D01*
X178865125Y-141279402D01*
X178869472Y-141263303D01*
X178873443Y-141248787D01*
X178876793Y-141236743D01*
X178879274Y-141228056D01*
X178880640Y-141223613D01*
X178880705Y-141223437D01*
X178881724Y-141221935D01*
X178883900Y-141220773D01*
X178887887Y-141219898D01*
X178894339Y-141219254D01*
X178903911Y-141218787D01*
X178917257Y-141218441D01*
X178935032Y-141218164D01*
X178945395Y-141218038D01*
X179008264Y-141217313D01*
X179028814Y-141140376D01*
X179049364Y-141063439D01*
X179120120Y-141062719D01*
X179141487Y-141062520D01*
X179158047Y-141062436D01*
X179170391Y-141062499D01*
G37*
G36*
X180784426Y-141062729D02*
G01*
X180877622Y-141063439D01*
X180663945Y-141213264D01*
X180633479Y-141234631D01*
X180604198Y-141255178D01*
X180576413Y-141274685D01*
X180550436Y-141292933D01*
X180526580Y-141309703D01*
X180505154Y-141324776D01*
X180486471Y-141337932D01*
X180470842Y-141348952D01*
X180458579Y-141357617D01*
X180449993Y-141363708D01*
X180445397Y-141367005D01*
X180444753Y-141367487D01*
X180443818Y-141368385D01*
X180443288Y-141369564D01*
X180443358Y-141371314D01*
X180444221Y-141373928D01*
X180446073Y-141377697D01*
X180449108Y-141382912D01*
X180453520Y-141389864D01*
X180459505Y-141398846D01*
X180467256Y-141410148D01*
X180476968Y-141424062D01*
X180488835Y-141440879D01*
X180503053Y-141460891D01*
X180519815Y-141484389D01*
X180539316Y-141511665D01*
X180561751Y-141543010D01*
X180563997Y-141546147D01*
X180583556Y-141573491D01*
X180602214Y-141599622D01*
X180619730Y-141624200D01*
X180635862Y-141646884D01*
X180650371Y-141667336D01*
X180663015Y-141685213D01*
X180673554Y-141700177D01*
X180681746Y-141711887D01*
X180687351Y-141720003D01*
X180690127Y-141724185D01*
X180690382Y-141724643D01*
X180690393Y-141725845D01*
X180689042Y-141726799D01*
X180685790Y-141727531D01*
X180680099Y-141728071D01*
X180671432Y-141728447D01*
X180659250Y-141728687D01*
X180643014Y-141728819D01*
X180622188Y-141728871D01*
X180609852Y-141728876D01*
X180586653Y-141728868D01*
X180568250Y-141728817D01*
X180554041Y-141728680D01*
X180543422Y-141728416D01*
X180535792Y-141727983D01*
X180530547Y-141727339D01*
X180527085Y-141726443D01*
X180524802Y-141725252D01*
X180523097Y-141723725D01*
X180522255Y-141722802D01*
X180519678Y-141719493D01*
X180514277Y-141712218D01*
X180506362Y-141701406D01*
X180496243Y-141687487D01*
X180484233Y-141670890D01*
X180470641Y-141652044D01*
X180455780Y-141631379D01*
X180439959Y-141609323D01*
X180432278Y-141598595D01*
X180416285Y-141576314D01*
X180401222Y-141555461D01*
X180387381Y-141536432D01*
X180375055Y-141519621D01*
X180364535Y-141505424D01*
X180356112Y-141494235D01*
X180350079Y-141486450D01*
X180346728Y-141482464D01*
X180346141Y-141482025D01*
X180345137Y-141484872D01*
X180342889Y-141492417D01*
X180339542Y-141504141D01*
X180335240Y-141519523D01*
X180330126Y-141538045D01*
X180324346Y-141559187D01*
X180318043Y-141582428D01*
X180311817Y-141605557D01*
X180279097Y-141727527D01*
X180210097Y-141728247D01*
X180191356Y-141728364D01*
X180174456Y-141728320D01*
X180160129Y-141728130D01*
X180149107Y-141727806D01*
X180142120Y-141727364D01*
X180139895Y-141726897D01*
X180140430Y-141724079D01*
X180142288Y-141716364D01*
X180145385Y-141704065D01*
X180149638Y-141687499D01*
X180154964Y-141666979D01*
X180161281Y-141642822D01*
X180168506Y-141615341D01*
X180176556Y-141584853D01*
X180185348Y-141551672D01*
X180194800Y-141516113D01*
X180204828Y-141478491D01*
X180215349Y-141439122D01*
X180225957Y-141399532D01*
X180236916Y-141358675D01*
X180247503Y-141319204D01*
X180257630Y-141281440D01*
X180267212Y-141245702D01*
X180276164Y-141212312D01*
X180284399Y-141181589D01*
X180291831Y-141153855D01*
X180298375Y-141129428D01*
X180303945Y-141108630D01*
X180308455Y-141091781D01*
X180311819Y-141079202D01*
X180313951Y-141071212D01*
X180314758Y-141068163D01*
X180316295Y-141062089D01*
X180386432Y-141062089D01*
X180405254Y-141062144D01*
X180422168Y-141062299D01*
X180436463Y-141062539D01*
X180447432Y-141062848D01*
X180454365Y-141063212D01*
X180456569Y-141063583D01*
X180455899Y-141066467D01*
X180454021Y-141073826D01*
X180451130Y-141084923D01*
X180447425Y-141099020D01*
X180443101Y-141115379D01*
X180438355Y-141133263D01*
X180433383Y-141151933D01*
X180428382Y-141170651D01*
X180423549Y-141188682D01*
X180419080Y-141205285D01*
X180415171Y-141219725D01*
X180412020Y-141231262D01*
X180409823Y-141239159D01*
X180409289Y-141241019D01*
X180407628Y-141247994D01*
X180407442Y-141251946D01*
X180408159Y-141252294D01*
X180410810Y-141250537D01*
X180417550Y-141246026D01*
X180427993Y-141239023D01*
X180441750Y-141229789D01*
X180458432Y-141218585D01*
X180477651Y-141205671D01*
X180499017Y-141191309D01*
X180522144Y-141175759D01*
X180546641Y-141159283D01*
X180551015Y-141156340D01*
X180691229Y-141062019D01*
X180784426Y-141062729D01*
G37*
G36*
X174649869Y-141367174D02*
G01*
X174655003Y-141369228D01*
X174658962Y-141372223D01*
X174665252Y-141381486D01*
X174669012Y-141394434D01*
X174670007Y-141409862D01*
X174668773Y-141422478D01*
X174667344Y-141431321D01*
X174666362Y-141437875D01*
X174666064Y-141440394D01*
X174668461Y-141441755D01*
X174674576Y-141443293D01*
X174678808Y-141444025D01*
X174692955Y-141447576D01*
X174705660Y-141453368D01*
X174714987Y-141460512D01*
X174715213Y-141460758D01*
X174722714Y-141472795D01*
X174726997Y-141488099D01*
X174727863Y-141505461D01*
X174725432Y-141522361D01*
X174724450Y-141528862D01*
X174723476Y-141539499D01*
X174722601Y-141553011D01*
X174721915Y-141568137D01*
X174721695Y-141575002D01*
X174720331Y-141602966D01*
X174717768Y-141634910D01*
X174714172Y-141669590D01*
X174709707Y-141705762D01*
X174704541Y-141742184D01*
X174698838Y-141777610D01*
X174692764Y-141810798D01*
X174686486Y-141840503D01*
X174686081Y-141842257D01*
X174679167Y-141868681D01*
X174670319Y-141897365D01*
X174660165Y-141926532D01*
X174649334Y-141954404D01*
X174638454Y-141979204D01*
X174635495Y-141985333D01*
X174618807Y-142019077D01*
X174553343Y-142019800D01*
X174535188Y-142019908D01*
X174518967Y-142019828D01*
X174505413Y-142019578D01*
X174495260Y-142019176D01*
X174489241Y-142018640D01*
X174487879Y-142018180D01*
X174489345Y-142014777D01*
X174493068Y-142008791D01*
X174495498Y-142005310D01*
X174517529Y-141971285D01*
X174537765Y-141932809D01*
X174555934Y-141890612D01*
X174571765Y-141845422D01*
X174584987Y-141797969D01*
X174595327Y-141748981D01*
X174598774Y-141727937D01*
X174601099Y-141711703D01*
X174602485Y-141700075D01*
X174602977Y-141692351D01*
X174602618Y-141687828D01*
X174601454Y-141685804D01*
X174601420Y-141685783D01*
X174597718Y-141684718D01*
X174590249Y-141683340D01*
X174580344Y-141681820D01*
X174569333Y-141680329D01*
X174558545Y-141679038D01*
X174549311Y-141678119D01*
X174542960Y-141677744D01*
X174540826Y-141677973D01*
X174540143Y-141680841D01*
X174538766Y-141688038D01*
X174536878Y-141698565D01*
X174534661Y-141711425D01*
X174533994Y-141715379D01*
X174522893Y-141770873D01*
X174508904Y-141821992D01*
X174491914Y-141868991D01*
X174471811Y-141912126D01*
X174448483Y-141951651D01*
X174421818Y-141987821D01*
X174406683Y-142005295D01*
X174392853Y-142020427D01*
X174308088Y-142020427D01*
X174287314Y-142020360D01*
X174268385Y-142020170D01*
X174251945Y-142019873D01*
X174238640Y-142019487D01*
X174229115Y-142019028D01*
X174224014Y-142018512D01*
X174223324Y-142018232D01*
X174225123Y-142015181D01*
X174229638Y-142010148D01*
X174231725Y-142008109D01*
X174240025Y-141999521D01*
X174250434Y-141987627D01*
X174262030Y-141973586D01*
X174273891Y-141958561D01*
X174285094Y-141943712D01*
X174294716Y-141930200D01*
X174300040Y-141922124D01*
X174325808Y-141876026D01*
X174346821Y-141827462D01*
X174363015Y-141776641D01*
X174374326Y-141723771D01*
X174380688Y-141669063D01*
X174381268Y-141659681D01*
X174381719Y-141645169D01*
X174381648Y-141629423D01*
X174381125Y-141613462D01*
X174380218Y-141598307D01*
X174378996Y-141584977D01*
X174377526Y-141574493D01*
X174375878Y-141567875D01*
X174375005Y-141566330D01*
X174371050Y-141565277D01*
X174362423Y-141564908D01*
X174349807Y-141565236D01*
X174342397Y-141565655D01*
X174312409Y-141567598D01*
X174312409Y-141619754D01*
X174311713Y-141656827D01*
X174309551Y-141689697D01*
X174305813Y-141719387D01*
X174300388Y-141746921D01*
X174297463Y-141758530D01*
X174282472Y-141804102D01*
X174262569Y-141848041D01*
X174238168Y-141889493D01*
X174225463Y-141907603D01*
X174214927Y-141920846D01*
X174201370Y-141936431D01*
X174185894Y-141953211D01*
X174169598Y-141970039D01*
X174153583Y-141985767D01*
X174138950Y-141999249D01*
X174131239Y-142005824D01*
X174113391Y-142020427D01*
X173986138Y-142020427D01*
X173858885Y-142020427D01*
X173858885Y-141999262D01*
X173859952Y-141979595D01*
X173863352Y-141960397D01*
X173869387Y-141940948D01*
X173878356Y-141920529D01*
X173879480Y-141918492D01*
X173961822Y-141918492D01*
X173975758Y-141946513D01*
X173981477Y-141957550D01*
X173986572Y-141966539D01*
X173990467Y-141972519D01*
X173992519Y-141974535D01*
X173996014Y-141973271D01*
X174002906Y-141969901D01*
X174011935Y-141965053D01*
X174015674Y-141962949D01*
X174050636Y-141939969D01*
X174082373Y-141912898D01*
X174110634Y-141882149D01*
X174135170Y-141848134D01*
X174155731Y-141811269D01*
X174172065Y-141771965D01*
X174183923Y-141730638D01*
X174191055Y-141687699D01*
X174192501Y-141670629D01*
X174192822Y-141659668D01*
X174192648Y-141646871D01*
X174192065Y-141633443D01*
X174191156Y-141620588D01*
X174190008Y-141609510D01*
X174188706Y-141601414D01*
X174187335Y-141597504D01*
X174187326Y-141597494D01*
X174184445Y-141597510D01*
X174177339Y-141598271D01*
X174167110Y-141599642D01*
X174156080Y-141601297D01*
X174125783Y-141606047D01*
X174124967Y-141645190D01*
X174122327Y-141684524D01*
X174115932Y-141720648D01*
X174105486Y-141754496D01*
X174090697Y-141787001D01*
X174071270Y-141819096D01*
X174069249Y-141822047D01*
X174056982Y-141837810D01*
X174041348Y-141854918D01*
X174023692Y-141872078D01*
X174005361Y-141888000D01*
X173987699Y-141901393D01*
X173983835Y-141904005D01*
X173961822Y-141918492D01*
X173879480Y-141918492D01*
X173890559Y-141898418D01*
X173906298Y-141873896D01*
X173918416Y-141856532D01*
X173928668Y-141841761D01*
X173938980Y-141826119D01*
X173948393Y-141811114D01*
X173955947Y-141798254D01*
X173958434Y-141793665D01*
X173972654Y-141763146D01*
X173984682Y-141730124D01*
X173994652Y-141694041D01*
X174002704Y-141654340D01*
X174008973Y-141610461D01*
X174012756Y-141572482D01*
X174013916Y-141559606D01*
X174015056Y-141548803D01*
X174016051Y-141541147D01*
X174016776Y-141537710D01*
X174016821Y-141537646D01*
X174019568Y-141536737D01*
X174027107Y-141534513D01*
X174039025Y-141531090D01*
X174054908Y-141526583D01*
X174074344Y-141521109D01*
X174096919Y-141514785D01*
X174122220Y-141507726D01*
X174149833Y-141500048D01*
X174179344Y-141491868D01*
X174206419Y-141484384D01*
X174251875Y-141471835D01*
X174292474Y-141460625D01*
X174328564Y-141450658D01*
X174360492Y-141441836D01*
X174388606Y-141434063D01*
X174413255Y-141427242D01*
X174434784Y-141421274D01*
X174453543Y-141416065D01*
X174469878Y-141411516D01*
X174484137Y-141407531D01*
X174496668Y-141404012D01*
X174507819Y-141400863D01*
X174517937Y-141397987D01*
X174527370Y-141395286D01*
X174536466Y-141392664D01*
X174545571Y-141390024D01*
X174555034Y-141387268D01*
X174565203Y-141384300D01*
X174566166Y-141384019D01*
X174589412Y-141377358D01*
X174608141Y-141372340D01*
X174622951Y-141368889D01*
X174634442Y-141366929D01*
X174643215Y-141366382D01*
X174649869Y-141367174D01*
G37*
G36*
X174139957Y-142155387D02*
G01*
X174225373Y-142155391D01*
X174305838Y-142155399D01*
X174381500Y-142155411D01*
X174452507Y-142155429D01*
X174519010Y-142155452D01*
X174581158Y-142155482D01*
X174639098Y-142155518D01*
X174692981Y-142155561D01*
X174742956Y-142155612D01*
X174789170Y-142155671D01*
X174831775Y-142155740D01*
X174870918Y-142155817D01*
X174906748Y-142155904D01*
X174939415Y-142156002D01*
X174969068Y-142156110D01*
X174995855Y-142156230D01*
X175019927Y-142156362D01*
X175041431Y-142156507D01*
X175060517Y-142156664D01*
X175077334Y-142156835D01*
X175092031Y-142157020D01*
X175104757Y-142157220D01*
X175115661Y-142157435D01*
X175124892Y-142157665D01*
X175132599Y-142157912D01*
X175138932Y-142158176D01*
X175144039Y-142158456D01*
X175148069Y-142158755D01*
X175151171Y-142159072D01*
X175153495Y-142159407D01*
X175154743Y-142159655D01*
X175171595Y-142165075D01*
X175183978Y-142172836D01*
X175192465Y-142183338D01*
X175194593Y-142187673D01*
X175196771Y-142195819D01*
X175198451Y-142208173D01*
X175199615Y-142223564D01*
X175200240Y-142240822D01*
X175200308Y-142258777D01*
X175199799Y-142276257D01*
X175198691Y-142292093D01*
X175196965Y-142305115D01*
X175196644Y-142306792D01*
X175188980Y-142333918D01*
X175177775Y-142357014D01*
X175163066Y-142376040D01*
X175144889Y-142390956D01*
X175123282Y-142401721D01*
X175105595Y-142406885D01*
X175098090Y-142407863D01*
X175085294Y-142408680D01*
X175067310Y-142409334D01*
X175044244Y-142409821D01*
X175016200Y-142410138D01*
X174987901Y-142410273D01*
X174884575Y-142410511D01*
X174881853Y-142421309D01*
X174869585Y-142459233D01*
X174852571Y-142494619D01*
X174830908Y-142527296D01*
X174805289Y-142556500D01*
X174776070Y-142582211D01*
X174744752Y-142602957D01*
X174711196Y-142618805D01*
X174675266Y-142629819D01*
X174639053Y-142635841D01*
X174627477Y-142636973D01*
X174617678Y-142637782D01*
X174611075Y-142638157D01*
X174609358Y-142638143D01*
X174603978Y-142637631D01*
X174596407Y-142636910D01*
X174595861Y-142636858D01*
X174554522Y-142630637D01*
X174515985Y-142620182D01*
X174480479Y-142605610D01*
X174448232Y-142587038D01*
X174419474Y-142564585D01*
X174394432Y-142538367D01*
X174387846Y-142530008D01*
X174366779Y-142497580D01*
X174349889Y-142461787D01*
X174337236Y-142422756D01*
X174336693Y-142420634D01*
X174333797Y-142409161D01*
X173959320Y-142409161D01*
X173584843Y-142409161D01*
X173578602Y-142431432D01*
X173565707Y-142467754D01*
X173548297Y-142501415D01*
X173526718Y-142532100D01*
X173501321Y-142559492D01*
X173472451Y-142583275D01*
X173440458Y-142603133D01*
X173405690Y-142618751D01*
X173368494Y-142629811D01*
X173357776Y-142632032D01*
X173336606Y-142634714D01*
X173312371Y-142635663D01*
X173287057Y-142634947D01*
X173262648Y-142632632D01*
X173241126Y-142628785D01*
X173237991Y-142628007D01*
X173202884Y-142616177D01*
X173168970Y-142599416D01*
X173137046Y-142578177D01*
X173110186Y-142555140D01*
X173088147Y-142531396D01*
X173070023Y-142506230D01*
X173055324Y-142478732D01*
X173043562Y-142447994D01*
X173034558Y-142414495D01*
X173033028Y-142407681D01*
X173002557Y-142409915D01*
X172986663Y-142410776D01*
X172967826Y-142411301D01*
X172946932Y-142411512D01*
X172924865Y-142411430D01*
X172902510Y-142411076D01*
X172880753Y-142410473D01*
X172860477Y-142409641D01*
X172842569Y-142408601D01*
X172827913Y-142407377D01*
X172817394Y-142405987D01*
X172814396Y-142405354D01*
X172792378Y-142397755D01*
X172773520Y-142386693D01*
X172756463Y-142371495D01*
X172746350Y-142360029D01*
X172742865Y-142355068D01*
X173192577Y-142355068D01*
X173193506Y-142376722D01*
X173198718Y-142398211D01*
X173208463Y-142418962D01*
X173222993Y-142438405D01*
X173223976Y-142439467D01*
X173242129Y-142455795D01*
X173261668Y-142467155D01*
X173283249Y-142473814D01*
X173307530Y-142476040D01*
X173313578Y-142475953D01*
X173326880Y-142475285D01*
X173336827Y-142473994D01*
X173345458Y-142471645D01*
X173354813Y-142467802D01*
X173357468Y-142466573D01*
X173378728Y-142453897D01*
X173396231Y-142437972D01*
X173409847Y-142419455D01*
X173419445Y-142399001D01*
X173424894Y-142377266D01*
X173425232Y-142370816D01*
X174493581Y-142370816D01*
X174497605Y-142393163D01*
X174506411Y-142415158D01*
X174512122Y-142424949D01*
X174527298Y-142444279D01*
X174544910Y-142458919D01*
X174565192Y-142468984D01*
X174588374Y-142474592D01*
X174613654Y-142475888D01*
X174626649Y-142475412D01*
X174636109Y-142474484D01*
X174643900Y-142472686D01*
X174651886Y-142469598D01*
X174661140Y-142465190D01*
X174682376Y-142451938D01*
X174699636Y-142435064D01*
X174713139Y-142414344D01*
X174715365Y-142409811D01*
X174722667Y-142388152D01*
X174725521Y-142364688D01*
X174723844Y-142340791D01*
X174720382Y-142325993D01*
X174710872Y-142303572D01*
X174697150Y-142284100D01*
X174679799Y-142268036D01*
X174659398Y-142255840D01*
X174636529Y-142247975D01*
X174618513Y-142245224D01*
X174594241Y-142245821D01*
X174571802Y-142251049D01*
X174551523Y-142260355D01*
X174533733Y-142273184D01*
X174518759Y-142288985D01*
X174506929Y-142307201D01*
X174498571Y-142327281D01*
X174494013Y-142348671D01*
X174493581Y-142370816D01*
X173425232Y-142370816D01*
X173426065Y-142354907D01*
X173422827Y-142332580D01*
X173415048Y-142310940D01*
X173402600Y-142290645D01*
X173394376Y-142280986D01*
X173375903Y-142264589D01*
X173356005Y-142253229D01*
X173334020Y-142246624D01*
X173309323Y-142244489D01*
X173284993Y-142246884D01*
X173262944Y-142253687D01*
X173243427Y-142264327D01*
X173226692Y-142278232D01*
X173212990Y-142294831D01*
X173202569Y-142313551D01*
X173195682Y-142333820D01*
X173192577Y-142355068D01*
X172742865Y-142355068D01*
X172738387Y-142348692D01*
X172732336Y-142336643D01*
X172727961Y-142323037D01*
X172725024Y-142307033D01*
X172723288Y-142287786D01*
X172722517Y-142264455D01*
X172722418Y-142250455D01*
X172722462Y-142232504D01*
X172722678Y-142219056D01*
X172723146Y-142209218D01*
X172723943Y-142202095D01*
X172725146Y-142196792D01*
X172726834Y-142192414D01*
X172727618Y-142190810D01*
X172736050Y-142178788D01*
X172747784Y-142167881D01*
X172760775Y-142159957D01*
X172761915Y-142159463D01*
X172763144Y-142159135D01*
X172765315Y-142158825D01*
X172768573Y-142158533D01*
X172773064Y-142158258D01*
X172778935Y-142157999D01*
X172786329Y-142157755D01*
X172795393Y-142157528D01*
X172806272Y-142157315D01*
X172819112Y-142157117D01*
X172834057Y-142156932D01*
X172851255Y-142156761D01*
X172870849Y-142156603D01*
X172892986Y-142156457D01*
X172917811Y-142156323D01*
X172945469Y-142156201D01*
X172976107Y-142156090D01*
X173009869Y-142155989D01*
X173046901Y-142155898D01*
X173087348Y-142155816D01*
X173131357Y-142155743D01*
X173179071Y-142155679D01*
X173230638Y-142155623D01*
X173286202Y-142155574D01*
X173345910Y-142155532D01*
X173409905Y-142155497D01*
X173478334Y-142155467D01*
X173551343Y-142155443D01*
X173629077Y-142155424D01*
X173711681Y-142155410D01*
X173799301Y-142155399D01*
X173892082Y-142155392D01*
X173953672Y-142155389D01*
X174049439Y-142155386D01*
X174139957Y-142155387D01*
G37*
G36*
X173865376Y-140271117D02*
G01*
X173915483Y-140271122D01*
X173934473Y-140271123D01*
X173986448Y-140271120D01*
X174033309Y-140271119D01*
X174075343Y-140271132D01*
X174112833Y-140271168D01*
X174146066Y-140271240D01*
X174175326Y-140271359D01*
X174200900Y-140271535D01*
X174223072Y-140271781D01*
X174242128Y-140272107D01*
X174258353Y-140272524D01*
X174272033Y-140273045D01*
X174283453Y-140273679D01*
X174292898Y-140274438D01*
X174300654Y-140275333D01*
X174307006Y-140276376D01*
X174312239Y-140277577D01*
X174316640Y-140278949D01*
X174320492Y-140280501D01*
X174324083Y-140282246D01*
X174327696Y-140284194D01*
X174331617Y-140286357D01*
X174332313Y-140286734D01*
X174341181Y-140292346D01*
X174351654Y-140300152D01*
X174361538Y-140308511D01*
X174361980Y-140308917D01*
X174379576Y-140327636D01*
X174392691Y-140347576D01*
X174401732Y-140369636D01*
X174407102Y-140394712D01*
X174408792Y-140412612D01*
X174410340Y-140439844D01*
X174451134Y-140439844D01*
X174467182Y-140439912D01*
X174478884Y-140440196D01*
X174487291Y-140440816D01*
X174493457Y-140441895D01*
X174498432Y-140443552D01*
X174503111Y-140445825D01*
X174515506Y-140454639D01*
X174526228Y-140466298D01*
X174533876Y-140479115D01*
X174536190Y-140485740D01*
X174537001Y-140491780D01*
X174537686Y-140502431D01*
X174538244Y-140516909D01*
X174538676Y-140534426D01*
X174538980Y-140554198D01*
X174539157Y-140575438D01*
X174539206Y-140597361D01*
X174539126Y-140619180D01*
X174538919Y-140640110D01*
X174538582Y-140659365D01*
X174538117Y-140676160D01*
X174537522Y-140689708D01*
X174536797Y-140699223D01*
X174536276Y-140702780D01*
X174529986Y-140719628D01*
X174519155Y-140734220D01*
X174504865Y-140745387D01*
X174499722Y-140748295D01*
X174495107Y-140750348D01*
X174489960Y-140751694D01*
X174483222Y-140752483D01*
X174473833Y-140752862D01*
X174460734Y-140752982D01*
X174450759Y-140752991D01*
X174409590Y-140752991D01*
X174409538Y-140774588D01*
X174408208Y-140803035D01*
X174404149Y-140827534D01*
X174397033Y-140848973D01*
X174386531Y-140868238D01*
X174372315Y-140886219D01*
X174365702Y-140893066D01*
X174355659Y-140902333D01*
X174345186Y-140910943D01*
X174335946Y-140917569D01*
X174332453Y-140919646D01*
X174328402Y-140921837D01*
X174324716Y-140923813D01*
X174321109Y-140925585D01*
X174317296Y-140927163D01*
X174312993Y-140928558D01*
X174307913Y-140929782D01*
X174301772Y-140930845D01*
X174294285Y-140931758D01*
X174285167Y-140932533D01*
X174274132Y-140933179D01*
X174260894Y-140933709D01*
X174245170Y-140934133D01*
X174226674Y-140934462D01*
X174205120Y-140934707D01*
X174180224Y-140934879D01*
X174151700Y-140934988D01*
X174119263Y-140935047D01*
X174082628Y-140935065D01*
X174041510Y-140935054D01*
X173995623Y-140935025D01*
X173944683Y-140934989D01*
X173933231Y-140934981D01*
X173878923Y-140934934D01*
X173829800Y-140934864D01*
X173785644Y-140934769D01*
X173746242Y-140934649D01*
X173711378Y-140934499D01*
X173680837Y-140934319D01*
X173654403Y-140934107D01*
X173631861Y-140933859D01*
X173612996Y-140933575D01*
X173597592Y-140933252D01*
X173585435Y-140932888D01*
X173576308Y-140932481D01*
X173569998Y-140932029D01*
X173566287Y-140931529D01*
X173565985Y-140931461D01*
X173546317Y-140924440D01*
X173526417Y-140913385D01*
X173507709Y-140899358D01*
X173491621Y-140883420D01*
X173480079Y-140867506D01*
X173472640Y-140853425D01*
X173467272Y-140839723D01*
X173463623Y-140824969D01*
X173461338Y-140807731D01*
X173460063Y-140786575D01*
X173460058Y-140786423D01*
X173458684Y-140749666D01*
X173447546Y-140752242D01*
X173440267Y-140753204D01*
X173429233Y-140753802D01*
X173416078Y-140753978D01*
X173405327Y-140753780D01*
X173390482Y-140753093D01*
X173379638Y-140752035D01*
X173371398Y-140750377D01*
X173364365Y-140747889D01*
X173361522Y-140746583D01*
X173347160Y-140737203D01*
X173337220Y-140725269D01*
X173332763Y-140714400D01*
X173331855Y-140708173D01*
X173331012Y-140697353D01*
X173330244Y-140682747D01*
X173329566Y-140665163D01*
X173328989Y-140645406D01*
X173328527Y-140624284D01*
X173328192Y-140602603D01*
X173327997Y-140581169D01*
X173327992Y-140578761D01*
X173637327Y-140578761D01*
X173637455Y-140596998D01*
X173637821Y-140614023D01*
X173638428Y-140628892D01*
X173639281Y-140640662D01*
X173640383Y-140648388D01*
X173640656Y-140649441D01*
X173646818Y-140662216D01*
X173656862Y-140674477D01*
X173669369Y-140684670D01*
X173676516Y-140688707D01*
X173684221Y-140692003D01*
X173691363Y-140693850D01*
X173699843Y-140694536D01*
X173711563Y-140694348D01*
X173713299Y-140694280D01*
X173725936Y-140693473D01*
X173735053Y-140691988D01*
X173742525Y-140689390D01*
X173748976Y-140685984D01*
X173763969Y-140674324D01*
X173774651Y-140659418D01*
X173779477Y-140647402D01*
X173780692Y-140640495D01*
X173781693Y-140629236D01*
X173782473Y-140614668D01*
X173783022Y-140597833D01*
X173783332Y-140579775D01*
X173783354Y-140573472D01*
X174086997Y-140573472D01*
X174087061Y-140596447D01*
X174087339Y-140614753D01*
X174087960Y-140629121D01*
X174089050Y-140640278D01*
X174090739Y-140648956D01*
X174093154Y-140655883D01*
X174096423Y-140661790D01*
X174100675Y-140667406D01*
X174104195Y-140671432D01*
X174118146Y-140683061D01*
X174135057Y-140690992D01*
X174153700Y-140694938D01*
X174172850Y-140694612D01*
X174187933Y-140691007D01*
X174204345Y-140682733D01*
X174217413Y-140670467D01*
X174224913Y-140659194D01*
X174232772Y-140645010D01*
X174233629Y-140580292D01*
X174233852Y-140557031D01*
X174233772Y-140538425D01*
X174233288Y-140523734D01*
X174232302Y-140512219D01*
X174230712Y-140503138D01*
X174228420Y-140495753D01*
X174225326Y-140489323D01*
X174221330Y-140483108D01*
X174220351Y-140481739D01*
X174208767Y-140469400D01*
X174194491Y-140461046D01*
X174176869Y-140456360D01*
X174165403Y-140455226D01*
X174145194Y-140455895D01*
X174128283Y-140460408D01*
X174113917Y-140469037D01*
X174105654Y-140476909D01*
X174100176Y-140483158D01*
X174095890Y-140488853D01*
X174092650Y-140494751D01*
X174090310Y-140501609D01*
X174088725Y-140510182D01*
X174087746Y-140521228D01*
X174087230Y-140535501D01*
X174087029Y-140553759D01*
X174086997Y-140573472D01*
X173783354Y-140573472D01*
X173783396Y-140561536D01*
X173783203Y-140544160D01*
X173782747Y-140528689D01*
X173782018Y-140516166D01*
X173781009Y-140507635D01*
X173780617Y-140505890D01*
X173774260Y-140490781D01*
X173764493Y-140476881D01*
X173752687Y-140466032D01*
X173749337Y-140463871D01*
X173734621Y-140457864D01*
X173717337Y-140454888D01*
X173699456Y-140455048D01*
X173682948Y-140458448D01*
X173678585Y-140460104D01*
X173665039Y-140468129D01*
X173652794Y-140479360D01*
X173643564Y-140492112D01*
X173641310Y-140496746D01*
X173640100Y-140502434D01*
X173639103Y-140512572D01*
X173638324Y-140526218D01*
X173637765Y-140542427D01*
X173637431Y-140560256D01*
X173637327Y-140578761D01*
X173327992Y-140578761D01*
X173327954Y-140560790D01*
X173328076Y-140542271D01*
X173328376Y-140526420D01*
X173328866Y-140514044D01*
X173329495Y-140506425D01*
X173333580Y-140485613D01*
X173340201Y-140468824D01*
X173349728Y-140455803D01*
X173362526Y-140446295D01*
X173378965Y-140440042D01*
X173399410Y-140436789D01*
X173424231Y-140436281D01*
X173429963Y-140436496D01*
X173458613Y-140437810D01*
X173460120Y-140410482D01*
X173463338Y-140383210D01*
X173470010Y-140359481D01*
X173480520Y-140338397D01*
X173495252Y-140319060D01*
X173502411Y-140311616D01*
X173512493Y-140302768D01*
X173524029Y-140294180D01*
X173533883Y-140288079D01*
X173538290Y-140285690D01*
X173542257Y-140283536D01*
X173546070Y-140281604D01*
X173550016Y-140279884D01*
X173554382Y-140278362D01*
X173559455Y-140277026D01*
X173565522Y-140275865D01*
X173572869Y-140274867D01*
X173581785Y-140274018D01*
X173592554Y-140273307D01*
X173605466Y-140272723D01*
X173620806Y-140272251D01*
X173638861Y-140271882D01*
X173659918Y-140271602D01*
X173684265Y-140271399D01*
X173712187Y-140271261D01*
X173743973Y-140271176D01*
X173779908Y-140271132D01*
X173820280Y-140271116D01*
X173865376Y-140271117D01*
G37*
D13*
%TO.C,C1*%
X141990000Y-98740000D02*
X141990000Y-99940000D01*
X141990000Y-103260000D02*
X141990000Y-102060000D01*
X145445563Y-98740000D02*
X141990000Y-98740000D01*
X145445563Y-103260000D02*
X141990000Y-103260000D01*
X146510000Y-99804437D02*
X145445563Y-98740000D01*
X146510000Y-99804437D02*
X146510000Y-99940000D01*
X146510000Y-102195563D02*
X145445563Y-103260000D01*
X146510000Y-102195563D02*
X146510000Y-102060000D01*
X147000000Y-102810000D02*
X147000000Y-102310000D01*
X147250000Y-102560000D02*
X146750000Y-102560000D01*
%TO.C,R15*%
X179137258Y-107977500D02*
X178662742Y-107977500D01*
X179137258Y-109022500D02*
X178662742Y-109022500D01*
%TO.C,C10*%
X148490000Y-103340580D02*
X148490000Y-103059420D01*
X149510000Y-103340580D02*
X149510000Y-103059420D01*
%TO.C,R8*%
X151077500Y-108262742D02*
X151077500Y-108737258D01*
X152122500Y-108262742D02*
X152122500Y-108737258D01*
%TO.C,C18*%
X147611252Y-122740000D02*
X146188748Y-122740000D01*
X147611252Y-125460000D02*
X146188748Y-125460000D01*
%TO.C,R20*%
X155359420Y-103990000D02*
X155640580Y-103990000D01*
X155359420Y-105010000D02*
X155640580Y-105010000D01*
D14*
%TO.C,Q1*%
X166885000Y-102609500D02*
X166885000Y-96409500D01*
X172085000Y-102609500D02*
X172085000Y-96409500D01*
D15*
X167603000Y-103725000D02*
G75*
G02*
X167353000Y-103725000I-125000J0D01*
G01*
X167353000Y-103725000D02*
G75*
G02*
X167603000Y-103725000I125000J0D01*
G01*
D13*
%TO.C,D1*%
X159765000Y-108915000D02*
X159765000Y-111200000D01*
X161235000Y-108915000D02*
X159765000Y-108915000D01*
X161235000Y-111200000D02*
X161235000Y-108915000D01*
%TO.C,R4*%
X152077500Y-103762742D02*
X152077500Y-104237258D01*
X153122500Y-103762742D02*
X153122500Y-104237258D01*
%TO.C,C2*%
X151290000Y-98761252D02*
X151290000Y-97338748D01*
X153110000Y-98761252D02*
X153110000Y-97338748D01*
%TO.C,J2*%
X152880000Y-143880000D02*
X163620000Y-143880000D01*
X152880000Y-147500000D02*
X154120000Y-147500000D01*
X152880000Y-148500000D02*
X154120000Y-148500000D01*
X152880000Y-149800000D02*
X154120000Y-149800000D01*
X152880000Y-151920000D02*
X152880000Y-143880000D01*
X155700000Y-151920000D02*
X152880000Y-151920000D01*
X157880000Y-147500000D02*
X159188000Y-147500000D01*
X157880000Y-148500000D02*
X159188000Y-148500000D01*
X157880000Y-149800000D02*
X160457000Y-149800000D01*
X161543000Y-149800000D02*
X163620000Y-149800000D01*
X162812000Y-147500000D02*
X163620000Y-147500000D01*
X162812000Y-148500000D02*
X163620000Y-148500000D01*
X163620000Y-143880000D02*
X163620000Y-151920000D01*
X163620000Y-151920000D02*
X156300000Y-151920000D01*
X156440000Y-152530000D02*
X155560000Y-152530000D01*
X156000000Y-151920000D01*
X156440000Y-152530000D01*
G36*
X156440000Y-152530000D02*
G01*
X155560000Y-152530000D01*
X156000000Y-151920000D01*
X156440000Y-152530000D01*
G37*
D14*
%TO.C,U1*%
X159400000Y-103800000D02*
X160050001Y-103800000D01*
X159400000Y-104049999D02*
X159400000Y-103800000D01*
X159400000Y-108700000D02*
X159400000Y-108450001D01*
X159400000Y-108700000D02*
X159650002Y-108700000D01*
X163050000Y-103800000D02*
X163300002Y-103800000D01*
X163050000Y-108700000D02*
X163300002Y-108700000D01*
X163300002Y-104049999D02*
X163300002Y-103800000D01*
X163300002Y-108700000D02*
X163300002Y-108450001D01*
%TO.C,Q2*%
X166060400Y-107390500D02*
X166060400Y-113590500D01*
X171260400Y-107390500D02*
X171260400Y-113590500D01*
D15*
X170792400Y-106275000D02*
G75*
G02*
X170542400Y-106275000I-125000J0D01*
G01*
X170542400Y-106275000D02*
G75*
G02*
X170792400Y-106275000I125000J0D01*
G01*
D13*
%TO.C,R5*%
X157437258Y-109227500D02*
X156962742Y-109227500D01*
X157437258Y-110272500D02*
X156962742Y-110272500D01*
%TO.C,R1*%
X159646359Y-112820000D02*
X159953641Y-112820000D01*
X159646359Y-113580000D02*
X159953641Y-113580000D01*
%TO.C,C9*%
X164090000Y-98761252D02*
X164090000Y-97338748D01*
X165910000Y-98761252D02*
X165910000Y-97338748D01*
%TO.C,C19*%
X147586252Y-129940000D02*
X146163748Y-129940000D01*
X147586252Y-132660000D02*
X146163748Y-132660000D01*
%TO.C,R11*%
X179762742Y-106477500D02*
X180237258Y-106477500D01*
X179762742Y-107522500D02*
X180237258Y-107522500D01*
%TO.C,R12*%
X168962742Y-103477500D02*
X169437258Y-103477500D01*
X168962742Y-104522500D02*
X169437258Y-104522500D01*
%TO.C,R13*%
X178262742Y-104977500D02*
X178737258Y-104977500D01*
X178262742Y-106022500D02*
X178737258Y-106022500D01*
%TO.C,R9*%
X152827500Y-108262742D02*
X152827500Y-108737258D01*
X153872500Y-108262742D02*
X153872500Y-108737258D01*
%TO.C,C22*%
X147686252Y-137890000D02*
X146263748Y-137890000D01*
X147686252Y-140610000D02*
X146263748Y-140610000D01*
%TO.C,C17*%
X152940580Y-105715000D02*
X152659420Y-105715000D01*
X152940580Y-106735000D02*
X152659420Y-106735000D01*
%TO.C,C16*%
X147611252Y-119140000D02*
X146188748Y-119140000D01*
X147611252Y-121860000D02*
X146188748Y-121860000D01*
%TO.C,C8*%
X155359420Y-102490000D02*
X155640580Y-102490000D01*
X155359420Y-103510000D02*
X155640580Y-103510000D01*
%TO.C,C24*%
X180690000Y-109134420D02*
X180690000Y-109415580D01*
X181710000Y-109134420D02*
X181710000Y-109415580D01*
%TO.C,R7*%
X154677500Y-107237258D02*
X154677500Y-106762742D01*
X155722500Y-107237258D02*
X155722500Y-106762742D01*
%TO.C,C20*%
X147586252Y-126340000D02*
X146163748Y-126340000D01*
X147586252Y-129060000D02*
X146163748Y-129060000D01*
%TO.C,R14*%
X168262742Y-104977500D02*
X168737258Y-104977500D01*
X168262742Y-106022500D02*
X168737258Y-106022500D01*
%TO.C,C4*%
X156390000Y-98761252D02*
X156390000Y-97338748D01*
X158210000Y-98761252D02*
X158210000Y-97338748D01*
%TO.C,R3*%
X160277500Y-103437258D02*
X160277500Y-102962742D01*
X161322500Y-103437258D02*
X161322500Y-102962742D01*
%TO.C,C6*%
X158990000Y-98761252D02*
X158990000Y-97338748D01*
X160810000Y-98761252D02*
X160810000Y-97338748D01*
%TO.C,C14*%
X157940580Y-106090000D02*
X157659420Y-106090000D01*
X157940580Y-107110000D02*
X157659420Y-107110000D01*
%TO.C,C15*%
X147611252Y-115640000D02*
X146188748Y-115640000D01*
X147611252Y-118360000D02*
X146188748Y-118360000D01*
%TO.C,R2*%
X157277500Y-104312258D02*
X157277500Y-103837742D01*
X158322500Y-104312258D02*
X158322500Y-103837742D01*
%TD*%
M02*
