%TF.GenerationSoftware,KiCad,Pcbnew,9.0.6*%
%TF.CreationDate,2026-04-05T18:25:42+02:00*%
%TF.ProjectId,Buck,4275636b-2e6b-4696-9361-645f70636258,C*%
%TF.SameCoordinates,Original*%
%TF.FileFunction,Copper,L1,Top*%
%TF.FilePolarity,Positive*%
%FSLAX46Y46*%
G04 Gerber Fmt 4.6, Leading zero omitted, Abs format (unit mm)*
G04 Created by KiCad (PCBNEW 9.0.6) date 2026-04-05 18:25:42*
%MOMM*%
%LPD*%
G01*
G04 APERTURE LIST*
G04 Aperture macros list*
%AMRoundRect*
0 Rectangle with rounded corners*
0 $1 Rounding radius*
0 $2 $3 $4 $5 $6 $7 $8 $9 X,Y pos of 4 corners*
0 Add a 4 corners polygon primitive as box body*
4,1,4,$2,$3,$4,$5,$6,$7,$8,$9,$2,$3,0*
0 Add four circle primitives for the rounded corners*
1,1,$1+$1,$2,$3*
1,1,$1+$1,$4,$5*
1,1,$1+$1,$6,$7*
1,1,$1+$1,$8,$9*
0 Add four rect primitives between the rounded corners*
20,1,$1+$1,$2,$3,$4,$5,0*
20,1,$1+$1,$4,$5,$6,$7,0*
20,1,$1+$1,$6,$7,$8,$9,0*
20,1,$1+$1,$8,$9,$2,$3,0*%
%AMFreePoly0*
4,1,5,0.000000,0.000000,-0.500000,0.000000,-0.500000,0.700000,0.000000,0.700000,0.000000,0.000000,0.000000,0.000000,$1*%
%AMFreePoly1*
4,1,5,0.750000,0.000000,0.000000,0.000000,0.000000,3.365000,0.750000,3.365000,0.750000,0.000000,0.750000,0.000000,$1*%
%AMFreePoly2*
4,1,5,0.500000,-0.700000,0.000000,-0.700000,0.000000,0.000000,0.500000,0.000000,0.500000,-0.700000,0.500000,-0.700000,$1*%
%AMFreePoly3*
4,1,5,0.000000,-4.700000,-4.534500,-4.700000,-4.534500,0.000000,0.000000,0.000000,0.000000,-4.700000,0.000000,-4.700000,$1*%
G04 Aperture macros list end*
%TA.AperFunction,SMDPad,CuDef*%
%ADD10R,1.000000X1.000000*%
%TD*%
%TA.AperFunction,SMDPad,CuDef*%
%ADD11RoundRect,0.200000X-0.200000X-0.275000X0.200000X-0.275000X0.200000X0.275000X-0.200000X0.275000X0*%
%TD*%
%TA.AperFunction,SMDPad,CuDef*%
%ADD12FreePoly0,90.000000*%
%TD*%
%TA.AperFunction,SMDPad,CuDef*%
%ADD13R,0.650000X1.250000*%
%TD*%
%TA.AperFunction,SMDPad,CuDef*%
%ADD14FreePoly1,90.000000*%
%TD*%
%TA.AperFunction,SMDPad,CuDef*%
%ADD15FreePoly2,90.000000*%
%TD*%
%TA.AperFunction,SMDPad,CuDef*%
%ADD16FreePoly3,90.000000*%
%TD*%
%TA.AperFunction,SMDPad,CuDef*%
%ADD17RoundRect,0.250000X0.650000X-0.325000X0.650000X0.325000X-0.650000X0.325000X-0.650000X-0.325000X0*%
%TD*%
%TA.AperFunction,ComponentPad*%
%ADD18RoundRect,0.250001X-1.149999X1.149999X-1.149999X-1.149999X1.149999X-1.149999X1.149999X1.149999X0*%
%TD*%
%TA.AperFunction,ComponentPad*%
%ADD19C,2.800000*%
%TD*%
%TA.AperFunction,SMDPad,CuDef*%
%ADD20RoundRect,0.225000X0.225000X0.250000X-0.225000X0.250000X-0.225000X-0.250000X0.225000X-0.250000X0*%
%TD*%
%TA.AperFunction,SMDPad,CuDef*%
%ADD21FreePoly0,180.000000*%
%TD*%
%TA.AperFunction,SMDPad,CuDef*%
%ADD22R,1.250000X0.650000*%
%TD*%
%TA.AperFunction,SMDPad,CuDef*%
%ADD23FreePoly1,180.000000*%
%TD*%
%TA.AperFunction,SMDPad,CuDef*%
%ADD24FreePoly2,180.000000*%
%TD*%
%TA.AperFunction,SMDPad,CuDef*%
%ADD25FreePoly3,180.000000*%
%TD*%
%TA.AperFunction,SMDPad,CuDef*%
%ADD26C,1.000000*%
%TD*%
%TA.AperFunction,SMDPad,CuDef*%
%ADD27RoundRect,0.250000X-0.250000X-0.475000X0.250000X-0.475000X0.250000X0.475000X-0.250000X0.475000X0*%
%TD*%
%TA.AperFunction,SMDPad,CuDef*%
%ADD28RoundRect,0.225000X-0.225000X-0.250000X0.225000X-0.250000X0.225000X0.250000X-0.225000X0.250000X0*%
%TD*%
%TA.AperFunction,SMDPad,CuDef*%
%ADD29RoundRect,0.250000X0.325000X1.100000X-0.325000X1.100000X-0.325000X-1.100000X0.325000X-1.100000X0*%
%TD*%
%TA.AperFunction,SMDPad,CuDef*%
%ADD30RoundRect,0.250000X1.050000X0.550000X-1.050000X0.550000X-1.050000X-0.550000X1.050000X-0.550000X0*%
%TD*%
%TA.AperFunction,SMDPad,CuDef*%
%ADD31RoundRect,0.200000X0.200000X0.275000X-0.200000X0.275000X-0.200000X-0.275000X0.200000X-0.275000X0*%
%TD*%
%TA.AperFunction,SMDPad,CuDef*%
%ADD32RoundRect,0.225000X0.250000X-0.225000X0.250000X0.225000X-0.250000X0.225000X-0.250000X-0.225000X0*%
%TD*%
%TA.AperFunction,SMDPad,CuDef*%
%ADD33RoundRect,0.200000X-0.275000X0.200000X-0.275000X-0.200000X0.275000X-0.200000X0.275000X0.200000X0*%
%TD*%
%TA.AperFunction,SMDPad,CuDef*%
%ADD34R,4.000000X14.000000*%
%TD*%
%TA.AperFunction,SMDPad,CuDef*%
%ADD35RoundRect,0.218750X-0.256250X0.218750X-0.256250X-0.218750X0.256250X-0.218750X0.256250X0.218750X0*%
%TD*%
%TA.AperFunction,ComponentPad*%
%ADD36RoundRect,0.250001X-1.149999X-1.149999X1.149999X-1.149999X1.149999X1.149999X-1.149999X1.149999X0*%
%TD*%
%TA.AperFunction,SMDPad,CuDef*%
%ADD37R,0.249999X0.599999*%
%TD*%
%TA.AperFunction,SMDPad,CuDef*%
%ADD38R,0.599999X0.249999*%
%TD*%
%TA.AperFunction,ComponentPad*%
%ADD39C,0.499999*%
%TD*%
%TA.AperFunction,SMDPad,CuDef*%
%ADD40R,1.699999X2.700000*%
%TD*%
%TA.AperFunction,SMDPad,CuDef*%
%ADD41FreePoly0,270.000000*%
%TD*%
%TA.AperFunction,SMDPad,CuDef*%
%ADD42FreePoly1,270.000000*%
%TD*%
%TA.AperFunction,SMDPad,CuDef*%
%ADD43FreePoly2,270.000000*%
%TD*%
%TA.AperFunction,SMDPad,CuDef*%
%ADD44FreePoly3,270.000000*%
%TD*%
%TA.AperFunction,SMDPad,CuDef*%
%ADD45RoundRect,0.135000X-0.135000X-0.185000X0.135000X-0.185000X0.135000X0.185000X-0.135000X0.185000X0*%
%TD*%
%TA.AperFunction,SMDPad,CuDef*%
%ADD46RoundRect,0.225000X-0.250000X0.225000X-0.250000X-0.225000X0.250000X-0.225000X0.250000X0.225000X0*%
%TD*%
%TA.AperFunction,SMDPad,CuDef*%
%ADD47RoundRect,0.200000X0.275000X-0.200000X0.275000X0.200000X-0.275000X0.200000X-0.275000X-0.200000X0*%
%TD*%
%TA.AperFunction,SMDPad,CuDef*%
%ADD48R,4.500000X1.650000*%
%TD*%
%TA.AperFunction,ViaPad*%
%ADD49C,0.600000*%
%TD*%
%TA.AperFunction,ViaPad*%
%ADD50C,0.800000*%
%TD*%
%TA.AperFunction,ViaPad*%
%ADD51C,0.500000*%
%TD*%
%TA.AperFunction,Conductor*%
%ADD52C,0.200000*%
%TD*%
%TA.AperFunction,Conductor*%
%ADD53C,1.000000*%
%TD*%
%TA.AperFunction,Conductor*%
%ADD54C,0.600000*%
%TD*%
%TA.AperFunction,Conductor*%
%ADD55C,0.400000*%
%TD*%
G04 APERTURE END LIST*
D10*
%TO.P,TP10,1,1*%
%TO.N,/EN*%
X150800000Y-103900000D03*
%TD*%
%TO.P,TP8,1,1*%
%TO.N,/SS*%
X159000000Y-101500000D03*
%TD*%
%TO.P,TP6,1,1*%
%TO.N,/PGOOD*%
X161800000Y-113900000D03*
%TD*%
%TO.P,TP5,1,1*%
%TO.N,Net-(U1-COMP)*%
X155200000Y-111700000D03*
%TD*%
%TO.P,TP4,1,1*%
%TO.N,Net-(U1-FB)*%
X149500000Y-107000000D03*
%TD*%
D11*
%TO.P,R10,1*%
%TO.N,/SW*%
X176175000Y-107000000D03*
%TO.P,R10,2*%
%TO.N,Net-(R10-Pad2)*%
X177825000Y-107000000D03*
%TD*%
D12*
%TO.P,Q3,1,SOURCE*%
%TO.N,/SW*%
X173689600Y-103625000D03*
D13*
X173333000Y-103500000D03*
%TO.P,Q3,2,SOURCE*%
X174704200Y-103500000D03*
D14*
%TO.P,Q3,3,SOURCE*%
X176354600Y-103625000D03*
D12*
X176354600Y-103625000D03*
D13*
X176000000Y-103500000D03*
%TO.P,Q3,4,GATE*%
%TO.N,Net-(Q3-GATE)*%
X177244200Y-103500000D03*
%TO.P,Q3,5,DRAIN*%
%TO.N,+18V*%
X177346200Y-97800000D03*
D15*
X176989600Y-97675000D03*
D13*
%TO.P,Q3,6,DRAIN*%
X176000000Y-97800000D03*
D15*
X175654600Y-97675000D03*
D13*
%TO.P,Q3,7,DRAIN*%
X174679200Y-97800000D03*
D15*
X174324600Y-97675000D03*
D13*
%TO.P,Q3,8,DRAIN*%
X173333000Y-97800000D03*
D15*
X172989600Y-97675000D03*
D16*
X172989600Y-97675000D03*
%TD*%
D17*
%TO.P,C7,1*%
%TO.N,+18V*%
X162500000Y-99525000D03*
%TO.P,C7,2*%
%TO.N,GND*%
X162500000Y-96575000D03*
%TD*%
D18*
%TO.P,J1,1,Pin_1*%
%TO.N,+18V*%
X142250000Y-107250000D03*
D19*
%TO.P,J1,2,Pin_2*%
%TO.N,GND*%
X142250000Y-112250000D03*
%TD*%
D20*
%TO.P,C13,1*%
%TO.N,Net-(U1-COMP)*%
X158375000Y-108150000D03*
%TO.P,C13,2*%
%TO.N,Net-(C13-Pad2)*%
X156825000Y-108150000D03*
%TD*%
D17*
%TO.P,C3,1*%
%TO.N,+18V*%
X154700000Y-99525000D03*
%TO.P,C3,2*%
%TO.N,GND*%
X154700000Y-96575000D03*
%TD*%
D21*
%TO.P,Q4,1,SOURCE*%
%TO.N,GND*%
X178300000Y-113900000D03*
D22*
X178175000Y-114256600D03*
%TO.P,Q4,2,SOURCE*%
X178175000Y-112885400D03*
D21*
%TO.P,Q4,3,SOURCE*%
X178300000Y-111235000D03*
D23*
X178300000Y-111235000D03*
D22*
X178175000Y-111589600D03*
%TO.P,Q4,4,GATE*%
%TO.N,Net-(Q4-GATE)*%
X178175000Y-110345400D03*
%TO.P,Q4,5,DRAIN*%
%TO.N,/SW*%
X172475000Y-110243400D03*
D24*
X172350000Y-110600000D03*
D22*
%TO.P,Q4,6,DRAIN*%
X172475000Y-111589600D03*
D24*
X172350000Y-111935000D03*
D22*
%TO.P,Q4,7,DRAIN*%
X172475000Y-112910400D03*
D24*
X172350000Y-113265000D03*
D22*
%TO.P,Q4,8,DRAIN*%
X172475000Y-114256600D03*
D24*
X172350000Y-114600000D03*
D25*
X172350000Y-114600000D03*
%TD*%
D11*
%TO.P,R6,1*%
%TO.N,/ILIM*%
X162100000Y-111200000D03*
%TO.P,R6,2*%
%TO.N,/SW*%
X163750000Y-111200000D03*
%TD*%
D26*
%TO.P,FID3,*%
%TO.N,*%
X173000000Y-151000000D03*
%TD*%
D27*
%TO.P,C5,1*%
%TO.N,GND*%
X157100000Y-111600000D03*
%TO.P,C5,2*%
%TO.N,/VCC*%
X159000000Y-111600000D03*
%TD*%
D28*
%TO.P,C11,1*%
%TO.N,/ILIM*%
X162025000Y-109500000D03*
%TO.P,C11,2*%
%TO.N,GND*%
X163575000Y-109500000D03*
%TD*%
D29*
%TO.P,C23,1*%
%TO.N,/VOUT*%
X148450000Y-135000000D03*
%TO.P,C23,2*%
%TO.N,GND*%
X145500000Y-135000000D03*
%TD*%
D28*
%TO.P,C12,1*%
%TO.N,/BST*%
X164225000Y-105750000D03*
%TO.P,C12,2*%
%TO.N,/SW*%
X165775000Y-105750000D03*
%TD*%
D30*
%TO.P,C1,1*%
%TO.N,+18V*%
X146050000Y-101000000D03*
%TO.P,C1,2*%
%TO.N,GND*%
X142450000Y-101000000D03*
%TD*%
D31*
%TO.P,R15,1*%
%TO.N,/LG*%
X179725000Y-108500000D03*
%TO.P,R15,2*%
%TO.N,Net-(Q4-GATE)*%
X178075000Y-108500000D03*
%TD*%
D32*
%TO.P,C10,1*%
%TO.N,GND*%
X149000000Y-103975000D03*
%TO.P,C10,2*%
%TO.N,+18V*%
X149000000Y-102425000D03*
%TD*%
D33*
%TO.P,R8,1*%
%TO.N,Net-(C17-Pad2)*%
X151600000Y-107675000D03*
%TO.P,R8,2*%
%TO.N,/VOUT*%
X151600000Y-109325000D03*
%TD*%
D29*
%TO.P,C18,1*%
%TO.N,/VOUT*%
X148375000Y-124100000D03*
%TO.P,C18,2*%
%TO.N,GND*%
X145425000Y-124100000D03*
%TD*%
D28*
%TO.P,R20,1*%
%TO.N,Net-(R20-Pad1)*%
X154725000Y-104500000D03*
%TO.P,R20,2*%
%TO.N,Net-(U1-FB)*%
X156275000Y-104500000D03*
%TD*%
D34*
%TO.P,L1,1,1*%
%TO.N,/SW*%
X167800000Y-121800000D03*
%TO.P,L1,2,2*%
%TO.N,/VOUT*%
X151800000Y-121800000D03*
%TD*%
D12*
%TO.P,Q1,1,SOURCE*%
%TO.N,/SW*%
X167835000Y-102500000D03*
D13*
X167478400Y-102375000D03*
%TO.P,Q1,2,SOURCE*%
X168849600Y-102375000D03*
D14*
%TO.P,Q1,3,SOURCE*%
X170500000Y-102500000D03*
D12*
X170500000Y-102500000D03*
D13*
X170145400Y-102375000D03*
%TO.P,Q1,4,GATE*%
%TO.N,Net-(Q1-GATE)*%
X171389600Y-102375000D03*
%TO.P,Q1,5,DRAIN*%
%TO.N,+18V*%
X171491600Y-96675000D03*
D15*
X171135000Y-96550000D03*
D13*
%TO.P,Q1,6,DRAIN*%
X170145400Y-96675000D03*
D15*
X169800000Y-96550000D03*
D13*
%TO.P,Q1,7,DRAIN*%
X168824600Y-96675000D03*
D15*
X168470000Y-96550000D03*
D13*
%TO.P,Q1,8,DRAIN*%
X167478400Y-96675000D03*
D15*
X167135000Y-96550000D03*
D16*
X167135000Y-96550000D03*
%TD*%
D35*
%TO.P,D1,1,K*%
%TO.N,/PGOOD*%
X160500000Y-109612500D03*
%TO.P,D1,2,A*%
%TO.N,Net-(D1-A)*%
X160500000Y-111187500D03*
%TD*%
D33*
%TO.P,R4,1*%
%TO.N,GND*%
X152600000Y-103175000D03*
%TO.P,R4,2*%
%TO.N,/EN*%
X152600000Y-104825000D03*
%TD*%
D17*
%TO.P,C2,1*%
%TO.N,+18V*%
X152200000Y-99525000D03*
%TO.P,C2,2*%
%TO.N,GND*%
X152200000Y-96575000D03*
%TD*%
D36*
%TO.P,J2,1,Pin_1*%
%TO.N,/VOUT*%
X156000000Y-148000000D03*
D19*
%TO.P,J2,2,Pin_2*%
%TO.N,GND*%
X161000000Y-148000000D03*
%TD*%
D37*
%TO.P,U1,1,EN_UVLO*%
%TO.N,/EN*%
X160600000Y-104099999D03*
D38*
%TO.P,U1,2,RT*%
%TO.N,/RT*%
X159700002Y-104500001D03*
%TO.P,U1,3,SS_TRK*%
%TO.N,/SS*%
X159700002Y-105000000D03*
%TO.P,U1,4,COMP*%
%TO.N,Net-(U1-COMP)*%
X159700002Y-105500002D03*
%TO.P,U1,5,FB*%
%TO.N,Net-(U1-FB)*%
X159700002Y-106000000D03*
%TO.P,U1,6,AGND*%
%TO.N,GND*%
X159700002Y-106500002D03*
%TO.P,U1,7,SYNCOUT*%
%TO.N,unconnected-(U1-SYNCOUT-Pad7)*%
X159700002Y-107000001D03*
%TO.P,U1,8,SYNCIN*%
%TO.N,GND*%
X159700002Y-107500000D03*
%TO.P,U1,9,NC*%
%TO.N,unconnected-(U1-NC-Pad9)*%
X159700002Y-107999999D03*
D37*
%TO.P,U1,10,PGOOD*%
%TO.N,/PGOOD*%
X160600000Y-108400001D03*
%TO.P,U1,11,ILIM*%
%TO.N,/ILIM*%
X162100002Y-108400001D03*
D39*
%TO.P,U1,12,PGND*%
%TO.N,GND*%
X160750002Y-106250000D03*
X161350001Y-105150000D03*
X161350001Y-107350000D03*
X161950000Y-106250000D03*
D38*
X163000000Y-107999999D03*
%TO.P,U1,13,LO*%
%TO.N,/LG*%
X163000000Y-107500000D03*
%TO.P,U1,14,VCC*%
%TO.N,/VCC*%
X163000000Y-106999998D03*
%TO.P,U1,15,EP*%
%TO.N,GND*%
X163000000Y-106500000D03*
%TO.P,U1,16,NC*%
%TO.N,unconnected-(U1-NC-Pad16)*%
X163000000Y-105999998D03*
%TO.P,U1,17,BST*%
%TO.N,/BST*%
X163000000Y-105499999D03*
%TO.P,U1,18,HO*%
%TO.N,Net-(U1-HO)*%
X163000000Y-105000000D03*
%TO.P,U1,19,SW*%
%TO.N,/SW*%
X163000000Y-104499998D03*
D37*
%TO.P,U1,20,VIN*%
%TO.N,+18V*%
X162100002Y-104099999D03*
D40*
%TO.P,U1,21,EP*%
%TO.N,GND*%
X161350001Y-106250000D03*
%TD*%
D41*
%TO.P,Q2,1,SOURCE*%
%TO.N,GND*%
X170310400Y-107500000D03*
D13*
X170667000Y-107625000D03*
%TO.P,Q2,2,SOURCE*%
X169295800Y-107625000D03*
D41*
%TO.P,Q2,3,SOURCE*%
X167645400Y-107500000D03*
D42*
X167645400Y-107500000D03*
D13*
X168000000Y-107625000D03*
%TO.P,Q2,4,GATE*%
%TO.N,Net-(Q2-GATE)*%
X166755800Y-107625000D03*
%TO.P,Q2,5,DRAIN*%
%TO.N,/SW*%
X166653800Y-113325000D03*
D43*
X167010400Y-113450000D03*
D13*
%TO.P,Q2,6,DRAIN*%
X168000000Y-113325000D03*
D43*
X168345400Y-113450000D03*
D13*
%TO.P,Q2,7,DRAIN*%
X169320800Y-113325000D03*
D43*
X169675400Y-113450000D03*
D13*
%TO.P,Q2,8,DRAIN*%
X170667000Y-113325000D03*
D43*
X171010400Y-113450000D03*
D44*
X171010400Y-113450000D03*
%TD*%
D31*
%TO.P,R5,1*%
%TO.N,Net-(U1-FB)*%
X158025000Y-109750000D03*
%TO.P,R5,2*%
%TO.N,GND*%
X156375000Y-109750000D03*
%TD*%
D45*
%TO.P,R1,1*%
%TO.N,/VCC*%
X159290000Y-113200000D03*
%TO.P,R1,2*%
%TO.N,Net-(D1-A)*%
X160310000Y-113200000D03*
%TD*%
D17*
%TO.P,C9,1*%
%TO.N,+18V*%
X165000000Y-99525000D03*
%TO.P,C9,2*%
%TO.N,GND*%
X165000000Y-96575000D03*
%TD*%
D29*
%TO.P,C19,1*%
%TO.N,/VOUT*%
X148350000Y-131300000D03*
%TO.P,C19,2*%
%TO.N,GND*%
X145400000Y-131300000D03*
%TD*%
D11*
%TO.P,R11,1*%
%TO.N,Net-(R10-Pad2)*%
X179175000Y-107000000D03*
%TO.P,R11,2*%
%TO.N,Net-(C24-Pad1)*%
X180825000Y-107000000D03*
%TD*%
%TO.P,R12,1*%
%TO.N,Net-(U1-HO)*%
X168375000Y-104000000D03*
%TO.P,R12,2*%
%TO.N,Net-(Q1-GATE)*%
X170025000Y-104000000D03*
%TD*%
%TO.P,R13,1*%
%TO.N,Net-(Q3-GATE)*%
X177675000Y-105500000D03*
%TO.P,R13,2*%
%TO.N,Net-(U1-HO)*%
X179325000Y-105500000D03*
%TD*%
D33*
%TO.P,R9,1*%
%TO.N,Net-(U1-FB)*%
X153350000Y-107675000D03*
%TO.P,R9,2*%
%TO.N,/VOUT*%
X153350000Y-109325000D03*
%TD*%
D29*
%TO.P,C22,1*%
%TO.N,/VOUT*%
X148450000Y-139250000D03*
%TO.P,C22,2*%
%TO.N,GND*%
X145500000Y-139250000D03*
%TD*%
D20*
%TO.P,C17,1*%
%TO.N,Net-(U1-FB)*%
X153575000Y-106225000D03*
%TO.P,C17,2*%
%TO.N,Net-(C17-Pad2)*%
X152025000Y-106225000D03*
%TD*%
D29*
%TO.P,C16,1*%
%TO.N,/VOUT*%
X148375000Y-120500000D03*
%TO.P,C16,2*%
%TO.N,GND*%
X145425000Y-120500000D03*
%TD*%
D28*
%TO.P,C8,1*%
%TO.N,GND*%
X154725000Y-103000000D03*
%TO.P,C8,2*%
%TO.N,/SS*%
X156275000Y-103000000D03*
%TD*%
D46*
%TO.P,C24,1*%
%TO.N,Net-(C24-Pad1)*%
X181200000Y-108500000D03*
%TO.P,C24,2*%
%TO.N,GND*%
X181200000Y-110050000D03*
%TD*%
D47*
%TO.P,R7,1*%
%TO.N,Net-(C13-Pad2)*%
X155200000Y-107825000D03*
%TO.P,R7,2*%
%TO.N,Net-(R20-Pad1)*%
X155200000Y-106175000D03*
%TD*%
D26*
%TO.P,FID2,*%
%TO.N,*%
X144000000Y-144000000D03*
%TD*%
D29*
%TO.P,C20,1*%
%TO.N,/VOUT*%
X148350000Y-127700000D03*
%TO.P,C20,2*%
%TO.N,GND*%
X145400000Y-127700000D03*
%TD*%
D11*
%TO.P,R14,1*%
%TO.N,/LG*%
X167675000Y-105500000D03*
%TO.P,R14,2*%
%TO.N,Net-(Q2-GATE)*%
X169325000Y-105500000D03*
%TD*%
D17*
%TO.P,C4,1*%
%TO.N,+18V*%
X157300000Y-99525000D03*
%TO.P,C4,2*%
%TO.N,GND*%
X157300000Y-96575000D03*
%TD*%
D47*
%TO.P,R3,1*%
%TO.N,/EN*%
X160800000Y-104025000D03*
%TO.P,R3,2*%
%TO.N,+18V*%
X160800000Y-102375000D03*
%TD*%
D17*
%TO.P,C6,1*%
%TO.N,+18V*%
X159900000Y-99525000D03*
%TO.P,C6,2*%
%TO.N,GND*%
X159900000Y-96575000D03*
%TD*%
D48*
%TO.P,C21,1*%
%TO.N,/VOUT*%
X153500000Y-137000000D03*
%TO.P,C21,2*%
%TO.N,GND*%
X161900000Y-137000000D03*
%TD*%
D20*
%TO.P,C14,1*%
%TO.N,Net-(U1-COMP)*%
X158575000Y-106600000D03*
%TO.P,C14,2*%
%TO.N,Net-(U1-FB)*%
X157025000Y-106600000D03*
%TD*%
D29*
%TO.P,C15,1*%
%TO.N,/VOUT*%
X148375000Y-117000000D03*
%TO.P,C15,2*%
%TO.N,GND*%
X145425000Y-117000000D03*
%TD*%
D47*
%TO.P,R2,1*%
%TO.N,GND*%
X157800000Y-104900000D03*
%TO.P,R2,2*%
%TO.N,/RT*%
X157800000Y-103250000D03*
%TD*%
D49*
%TO.N,Net-(U1-COMP)*%
X155350000Y-110695090D03*
D50*
%TO.N,GND*%
X166000000Y-94000000D03*
X175000000Y-93000000D03*
X179000000Y-124000000D03*
X143000000Y-137000000D03*
X162000000Y-143000000D03*
X181000000Y-128000000D03*
X168000000Y-107500000D03*
X148500000Y-95000000D03*
X173000000Y-124000000D03*
X172000000Y-139000000D03*
X162000000Y-140000000D03*
X177000000Y-124000000D03*
X173000000Y-131000000D03*
X172000000Y-123000000D03*
X140000000Y-141000000D03*
X171000000Y-129000000D03*
X175000000Y-126000000D03*
X169000000Y-147000000D03*
X142000000Y-126000000D03*
X143000000Y-117000000D03*
X142000000Y-132000000D03*
X174000000Y-139000000D03*
X179000000Y-129000000D03*
X180000000Y-93000000D03*
X181000000Y-123000000D03*
X139000000Y-101500000D03*
X142000000Y-116000000D03*
X172000000Y-124000000D03*
X140000000Y-131000000D03*
X169000000Y-93000000D03*
X140000000Y-123000000D03*
X180000000Y-97000000D03*
X177000000Y-135000000D03*
X171000000Y-93000000D03*
X169000000Y-145000000D03*
X155500000Y-93000000D03*
X142000000Y-117000000D03*
X143000000Y-119000000D03*
X140000000Y-121000000D03*
X178000000Y-128000000D03*
X138000000Y-102500000D03*
X162500000Y-92000000D03*
X144000000Y-130000000D03*
X175000000Y-127000000D03*
X176000000Y-116000000D03*
X179000000Y-123000000D03*
X173000000Y-120000000D03*
X167000000Y-149000000D03*
X178000000Y-132000000D03*
X178000000Y-130000000D03*
X174000000Y-133000000D03*
X171000000Y-124000000D03*
X164000000Y-139000000D03*
X161000000Y-145000000D03*
X177000000Y-116000000D03*
D51*
X157000000Y-105500000D03*
D50*
X176000000Y-130000000D03*
X181000000Y-98000000D03*
X175000000Y-128000000D03*
X171000000Y-95000000D03*
X181000000Y-113000000D03*
X174000000Y-136000000D03*
X148600000Y-105200000D03*
X165000000Y-138000000D03*
X165000000Y-142000000D03*
X173000000Y-133000000D03*
X153750000Y-103000000D03*
X175000000Y-120000000D03*
X140000000Y-133000000D03*
X140000000Y-126000000D03*
X144000000Y-125000000D03*
X178000000Y-117000000D03*
X181000000Y-121000000D03*
X181000000Y-132000000D03*
X166000000Y-145000000D03*
X143000000Y-123000000D03*
X178000000Y-93000000D03*
X176000000Y-132000000D03*
X177000000Y-133000000D03*
X172000000Y-95000000D03*
X164000000Y-143000000D03*
X177000000Y-134000000D03*
X178000000Y-118000000D03*
X161000000Y-142000000D03*
X167000000Y-144000000D03*
X175000000Y-122000000D03*
X140000000Y-117000000D03*
X171000000Y-118000000D03*
X167000000Y-136000000D03*
X162000000Y-145000000D03*
X143000000Y-136000000D03*
X172000000Y-121000000D03*
X172000000Y-94000000D03*
X178000000Y-126000000D03*
X143000000Y-120000000D03*
X172000000Y-138000000D03*
X140000000Y-118000000D03*
X175000000Y-139000000D03*
X162000000Y-139000000D03*
X161500000Y-95000000D03*
X150500000Y-94000000D03*
X180000000Y-125000000D03*
X141000000Y-134000000D03*
X180000000Y-130000000D03*
X143000000Y-135000000D03*
X142000000Y-131000000D03*
X141000000Y-123000000D03*
X178000000Y-94000000D03*
X171000000Y-116000000D03*
X179000000Y-136000000D03*
X165000000Y-141000000D03*
X169000000Y-143000000D03*
X144000000Y-137000000D03*
X160000000Y-144000000D03*
X140000000Y-128000000D03*
X177000000Y-123000000D03*
X140000000Y-122000000D03*
X171000000Y-120000000D03*
X180000000Y-120000000D03*
X153500000Y-92000000D03*
X175000000Y-129000000D03*
X177000000Y-128000000D03*
X174000000Y-120000000D03*
X143000000Y-124000000D03*
X145000000Y-95500000D03*
X163000000Y-144000000D03*
X165000000Y-140000000D03*
X171000000Y-130000000D03*
X180000000Y-115000000D03*
X176000000Y-139000000D03*
X179000000Y-128000000D03*
X177000000Y-129000000D03*
X176000000Y-134000000D03*
X173000000Y-117000000D03*
X173000000Y-95000000D03*
X160500000Y-92000000D03*
X175000000Y-117000000D03*
X158500000Y-92000000D03*
X176000000Y-120000000D03*
X157500000Y-93000000D03*
X173000000Y-130000000D03*
X160500000Y-93000000D03*
X177000000Y-95000000D03*
X139000000Y-102500000D03*
X142000000Y-133000000D03*
X176000000Y-128000000D03*
X141000000Y-127000000D03*
X172000000Y-130000000D03*
X171000000Y-138000000D03*
X172000000Y-137000000D03*
X174000000Y-129000000D03*
X165000000Y-94000000D03*
X160500000Y-95000000D03*
X168000000Y-136000000D03*
X178000000Y-120000000D03*
X178000000Y-92000000D03*
X176000000Y-95000000D03*
X140000000Y-125000000D03*
X162000000Y-142000000D03*
X142000000Y-138000000D03*
X141000000Y-122000000D03*
X180000000Y-128000000D03*
X178000000Y-127000000D03*
X144000000Y-123000000D03*
X178000000Y-131000000D03*
X173000000Y-93000000D03*
X161500000Y-93000000D03*
X143000000Y-134000000D03*
X142000000Y-129000000D03*
X141000000Y-135000000D03*
X157700000Y-112800000D03*
X168000000Y-140000000D03*
X177000000Y-136000000D03*
X173000000Y-126000000D03*
X171000000Y-92000000D03*
X146000000Y-94500000D03*
X171000000Y-119000000D03*
X175000000Y-131000000D03*
X165000000Y-95000000D03*
X147000000Y-96500000D03*
X161000000Y-143000000D03*
X141000000Y-141000000D03*
X178000000Y-121000000D03*
X167000000Y-143000000D03*
X153500000Y-94000000D03*
X181000000Y-95000000D03*
X143000000Y-129000000D03*
X176000000Y-119000000D03*
X154500000Y-93000000D03*
X175000000Y-132000000D03*
X174000000Y-94000000D03*
X151500000Y-92000000D03*
X174000000Y-134000000D03*
X181000000Y-100000000D03*
X144000000Y-139000000D03*
X181000000Y-134000000D03*
X181000000Y-103000000D03*
X181000000Y-96000000D03*
X178000000Y-119000000D03*
X174000000Y-116000000D03*
X152500000Y-92000000D03*
X174000000Y-122000000D03*
X181000000Y-99000000D03*
X144000000Y-135000000D03*
X168000000Y-146000000D03*
X166000000Y-143000000D03*
X181000000Y-94000000D03*
X179000000Y-92000000D03*
X154500000Y-92000000D03*
X161500000Y-92000000D03*
X144000000Y-131000000D03*
X166000000Y-147000000D03*
X181000000Y-125000000D03*
X169000000Y-136000000D03*
X141000000Y-138000000D03*
X164000000Y-145000000D03*
X180000000Y-137000000D03*
X140000000Y-124000000D03*
X147000000Y-97500000D03*
X169000000Y-149000000D03*
X174000000Y-131000000D03*
X166000000Y-95000000D03*
X169000000Y-142000000D03*
X166000000Y-140000000D03*
X140500000Y-101500000D03*
X165000000Y-144000000D03*
X172000000Y-129000000D03*
X180000000Y-122000000D03*
X156500000Y-92000000D03*
X142000000Y-140000000D03*
X178000000Y-134000000D03*
X162500000Y-93000000D03*
X173000000Y-116000000D03*
X140000000Y-135000000D03*
X138000000Y-100500000D03*
X170000000Y-92000000D03*
X178000000Y-129000000D03*
X174000000Y-135000000D03*
X172000000Y-134000000D03*
X141000000Y-128000000D03*
X179000000Y-125000000D03*
X144000000Y-127000000D03*
X171000000Y-121000000D03*
X179000000Y-116000000D03*
X165000000Y-148000000D03*
X150500000Y-93000000D03*
X181000000Y-114000000D03*
X162500000Y-94000000D03*
X176000000Y-135000000D03*
X178000000Y-122000000D03*
X176000000Y-138000000D03*
X145000000Y-97500000D03*
X163000000Y-141000000D03*
X160000000Y-143000000D03*
X166000000Y-136000000D03*
X161000000Y-139000000D03*
X141000000Y-133000000D03*
X144000000Y-120000000D03*
X152500000Y-93000000D03*
X141000000Y-116000000D03*
X171000000Y-128000000D03*
X171000000Y-137000000D03*
X159500000Y-92000000D03*
X168000000Y-145000000D03*
X142000000Y-139000000D03*
X144000000Y-132000000D03*
X180000000Y-136000000D03*
X141000000Y-117000000D03*
X181000000Y-115000000D03*
X177000000Y-132000000D03*
X174000000Y-132000000D03*
X148500000Y-94000000D03*
X142000000Y-130000000D03*
X178000000Y-137000000D03*
X145000000Y-96500000D03*
X143000000Y-133000000D03*
X143000000Y-140000000D03*
X143000000Y-127000000D03*
X178000000Y-114000000D03*
X140000000Y-139000000D03*
X142000000Y-136000000D03*
X181000000Y-135000000D03*
X168000000Y-138000000D03*
X142000000Y-134000000D03*
X176000000Y-133000000D03*
X176000000Y-93000000D03*
X180000000Y-113000000D03*
X147000000Y-95500000D03*
X158500000Y-95000000D03*
X181000000Y-133000000D03*
X144000000Y-124000000D03*
X178000000Y-124000000D03*
X149500000Y-95000000D03*
X178000000Y-138000000D03*
X173000000Y-134000000D03*
X163000000Y-142000000D03*
X180000000Y-111000000D03*
X180000000Y-98000000D03*
X160000000Y-142000000D03*
X146000000Y-95500000D03*
X168000000Y-147000000D03*
X178000000Y-113000000D03*
X180000000Y-118000000D03*
X181000000Y-136000000D03*
X176000000Y-129000000D03*
X143000000Y-125000000D03*
X164000000Y-142000000D03*
X176000000Y-124000000D03*
X180000000Y-94000000D03*
X181000000Y-127000000D03*
X174000000Y-121000000D03*
X159500000Y-95000000D03*
X168000000Y-141000000D03*
X142000000Y-141000000D03*
X176000000Y-122000000D03*
X172000000Y-136000000D03*
X181000000Y-119000000D03*
X174000000Y-119000000D03*
X173000000Y-118000000D03*
X156500000Y-95000000D03*
X176000000Y-125000000D03*
X144000000Y-141000000D03*
X144000000Y-117000000D03*
X178000000Y-95000000D03*
X168000000Y-92000000D03*
X142000000Y-118000000D03*
X141000000Y-125000000D03*
X142000000Y-128000000D03*
X180000000Y-100000000D03*
X167000000Y-138000000D03*
X157500000Y-92000000D03*
X172000000Y-135000000D03*
X180000000Y-121000000D03*
X180000000Y-92000000D03*
X157500000Y-95000000D03*
X177000000Y-118000000D03*
X168000000Y-93000000D03*
X180000000Y-95000000D03*
X173000000Y-132000000D03*
X178000000Y-116000000D03*
X142000000Y-120000000D03*
X162775003Y-108200000D03*
X162500000Y-95000000D03*
X176000000Y-92000000D03*
X171000000Y-134000000D03*
X163000000Y-140000000D03*
X169000000Y-141000000D03*
X166000000Y-138000000D03*
X168000000Y-144000000D03*
X180000000Y-132000000D03*
X174000000Y-117000000D03*
X141000000Y-130000000D03*
X149500000Y-93000000D03*
X179000000Y-121000000D03*
X171000000Y-133000000D03*
X138000000Y-101500000D03*
X165000000Y-143000000D03*
X171000000Y-132000000D03*
X140000000Y-137000000D03*
X180000000Y-117000000D03*
X175000000Y-137000000D03*
X141000000Y-139000000D03*
X180000000Y-103000000D03*
X176000000Y-126000000D03*
X180000000Y-131000000D03*
X180000000Y-133000000D03*
X172000000Y-119000000D03*
X166000000Y-141000000D03*
X173000000Y-119000000D03*
X156500000Y-93000000D03*
X155500000Y-95000000D03*
X181000000Y-93000000D03*
X139000000Y-100500000D03*
X165000000Y-146000000D03*
X181000000Y-117000000D03*
X171000000Y-122000000D03*
X163000000Y-139000000D03*
X162000000Y-141000000D03*
X179000000Y-119000000D03*
X161000000Y-144000000D03*
X165000000Y-93000000D03*
X163500000Y-94000000D03*
X144000000Y-121000000D03*
X144000000Y-118000000D03*
X181000000Y-126000000D03*
X152500000Y-94000000D03*
X166000000Y-92000000D03*
X147000000Y-94500000D03*
X155500000Y-92000000D03*
X169000000Y-94000000D03*
X177000000Y-126000000D03*
X170000000Y-107500000D03*
X177000000Y-93000000D03*
X144000000Y-129000000D03*
X141000000Y-121000000D03*
X154500000Y-94000000D03*
X166000000Y-139000000D03*
X141000000Y-140000000D03*
X168000000Y-137000000D03*
X164000000Y-144000000D03*
X179000000Y-95000000D03*
X172000000Y-132000000D03*
X143000000Y-122000000D03*
X141000000Y-136000000D03*
X179000000Y-139000000D03*
X165000000Y-149000000D03*
X179000000Y-132000000D03*
X172000000Y-131000000D03*
X177000000Y-127000000D03*
X169000000Y-138000000D03*
X143000000Y-141000000D03*
X166000000Y-146000000D03*
X167000000Y-139000000D03*
X143000000Y-126000000D03*
X149500000Y-94000000D03*
X169000000Y-146000000D03*
X177000000Y-130000000D03*
X166000000Y-142000000D03*
X160000000Y-141000000D03*
X165000000Y-147000000D03*
X141000000Y-118000000D03*
X179000000Y-131000000D03*
X179000000Y-126000000D03*
X181000000Y-92000000D03*
X174000000Y-118000000D03*
X172000000Y-122000000D03*
X181000000Y-137000000D03*
X167000000Y-147000000D03*
X167000000Y-137000000D03*
X171000000Y-125000000D03*
X168000000Y-94000000D03*
X179000000Y-133000000D03*
X170000000Y-95000000D03*
X142000000Y-119000000D03*
X161500000Y-94000000D03*
X167000000Y-146000000D03*
X177000000Y-131000000D03*
X142000000Y-122000000D03*
X173000000Y-123000000D03*
X143000000Y-118000000D03*
X167000000Y-94000000D03*
X180000000Y-134000000D03*
X173000000Y-127000000D03*
X174000000Y-126000000D03*
X174000000Y-130000000D03*
X175000000Y-119000000D03*
X174000000Y-95000000D03*
X157500000Y-94000000D03*
X176000000Y-123000000D03*
X181000000Y-120000000D03*
X167000000Y-95000000D03*
X179000000Y-94000000D03*
X177000000Y-117000000D03*
X179000000Y-117000000D03*
X156500000Y-94000000D03*
X175000000Y-135000000D03*
X176000000Y-131000000D03*
X172000000Y-116000000D03*
X181000000Y-129000000D03*
X175000000Y-124000000D03*
X167000000Y-141000000D03*
X177000000Y-94000000D03*
X180000000Y-126000000D03*
X160000000Y-139000000D03*
X142000000Y-127000000D03*
X170000000Y-93000000D03*
X181000000Y-131000000D03*
X172000000Y-93000000D03*
X172000000Y-117000000D03*
X163000000Y-143000000D03*
X164000000Y-141000000D03*
X171000000Y-127000000D03*
X169000000Y-137000000D03*
X143000000Y-128000000D03*
X151500000Y-94000000D03*
X178000000Y-112000000D03*
X175000000Y-121000000D03*
X178000000Y-139000000D03*
X166000000Y-149000000D03*
X141000000Y-132000000D03*
X168000000Y-148000000D03*
X173000000Y-136000000D03*
X165000000Y-139000000D03*
X169000000Y-148000000D03*
X140000000Y-134000000D03*
X179000000Y-127000000D03*
X158500000Y-94000000D03*
X144000000Y-119000000D03*
X141000000Y-129000000D03*
X173000000Y-135000000D03*
X171000000Y-123000000D03*
X175000000Y-118000000D03*
X141000000Y-137000000D03*
X171000000Y-126000000D03*
X173000000Y-125000000D03*
X178000000Y-133000000D03*
X181000000Y-138000000D03*
X171000000Y-135000000D03*
X181000000Y-122000000D03*
X171000000Y-117000000D03*
X181000000Y-118000000D03*
X140500000Y-100500000D03*
X175000000Y-94000000D03*
X172000000Y-125000000D03*
X163000000Y-145000000D03*
X169000000Y-92000000D03*
X176000000Y-117000000D03*
X180000000Y-101000000D03*
X172000000Y-133000000D03*
X180000000Y-96000000D03*
X171000000Y-131000000D03*
X142000000Y-137000000D03*
X172000000Y-128000000D03*
X143000000Y-131000000D03*
X175000000Y-123000000D03*
X159500000Y-94000000D03*
X150500000Y-92000000D03*
X167000000Y-142000000D03*
X144000000Y-138000000D03*
X142000000Y-125000000D03*
X174000000Y-124000000D03*
X167000000Y-140000000D03*
X144000000Y-128000000D03*
X171000000Y-136000000D03*
X149500000Y-92000000D03*
X174000000Y-125000000D03*
X179000000Y-93000000D03*
X177000000Y-119000000D03*
X172000000Y-120000000D03*
X172000000Y-127000000D03*
X168000000Y-149000000D03*
X178000000Y-135000000D03*
X169000000Y-140000000D03*
X176000000Y-94000000D03*
X177000000Y-122000000D03*
X140000000Y-132000000D03*
X162000000Y-144000000D03*
X142000000Y-123000000D03*
X144000000Y-140000000D03*
X141000000Y-120000000D03*
X141000000Y-124000000D03*
X173000000Y-137000000D03*
X177000000Y-121000000D03*
X151500000Y-93000000D03*
X170000000Y-94000000D03*
X160000000Y-140000000D03*
X142000000Y-135000000D03*
X180000000Y-138000000D03*
X174000000Y-92000000D03*
X171000000Y-139000000D03*
X181000000Y-97000000D03*
X167000000Y-148000000D03*
X174000000Y-93000000D03*
X171000000Y-94000000D03*
X180000000Y-119000000D03*
X165000000Y-145000000D03*
X174000000Y-128000000D03*
X176000000Y-137000000D03*
X144000000Y-122000000D03*
X179000000Y-118000000D03*
X169000000Y-144000000D03*
X153500000Y-95000000D03*
X174000000Y-127000000D03*
X140000000Y-136000000D03*
X144000000Y-134000000D03*
X180000000Y-112000000D03*
X176000000Y-118000000D03*
X172000000Y-126000000D03*
X180000000Y-124000000D03*
X160500000Y-94000000D03*
X177000000Y-120000000D03*
X140000000Y-119000000D03*
X179000000Y-120000000D03*
X143000000Y-116000000D03*
X173000000Y-129000000D03*
X173000000Y-122000000D03*
X144000000Y-136000000D03*
X175000000Y-138000000D03*
X181000000Y-124000000D03*
X146000000Y-97500000D03*
X180000000Y-99000000D03*
X181000000Y-112000000D03*
X180000000Y-139000000D03*
X180000000Y-123000000D03*
X177000000Y-125000000D03*
X143000000Y-121000000D03*
X175000000Y-125000000D03*
X166000000Y-137000000D03*
X143000000Y-132000000D03*
X160000000Y-145000000D03*
X181000000Y-116000000D03*
X150500000Y-95000000D03*
X174000000Y-123000000D03*
X177000000Y-137000000D03*
X148500000Y-92000000D03*
X140000000Y-127000000D03*
X154500000Y-95000000D03*
X167000000Y-145000000D03*
X168000000Y-143000000D03*
X179000000Y-122000000D03*
X172000000Y-92000000D03*
X179000000Y-130000000D03*
X173000000Y-138000000D03*
X179000000Y-135000000D03*
X159500000Y-93000000D03*
X142000000Y-124000000D03*
X180000000Y-116000000D03*
X179000000Y-134000000D03*
X141000000Y-131000000D03*
X161000000Y-140000000D03*
X168000000Y-95000000D03*
X166000000Y-144000000D03*
X176000000Y-121000000D03*
X178000000Y-125000000D03*
X145000000Y-94500000D03*
X173000000Y-92000000D03*
X164000000Y-140000000D03*
X166000000Y-148000000D03*
X144000000Y-133000000D03*
X176000000Y-136000000D03*
X175000000Y-116000000D03*
X144000000Y-116000000D03*
X173000000Y-94000000D03*
X169000000Y-139000000D03*
X143000000Y-138000000D03*
X175000000Y-133000000D03*
X161000000Y-141000000D03*
X174000000Y-137000000D03*
X140000000Y-120000000D03*
X165000000Y-136000000D03*
X173000000Y-121000000D03*
X177000000Y-139000000D03*
X178000000Y-136000000D03*
X158500000Y-93000000D03*
X175000000Y-136000000D03*
X148500000Y-93000000D03*
X169000000Y-107500000D03*
X180000000Y-127000000D03*
X180000000Y-129000000D03*
X181000000Y-102000000D03*
X143000000Y-130000000D03*
X176000000Y-127000000D03*
X175000000Y-95000000D03*
X163500000Y-92000000D03*
X181000000Y-130000000D03*
X180000000Y-135000000D03*
X163500000Y-95000000D03*
X177000000Y-138000000D03*
X146000000Y-96500000D03*
X142000000Y-121000000D03*
X168000000Y-139000000D03*
X181000000Y-101000000D03*
X175000000Y-92000000D03*
X172000000Y-118000000D03*
X163500000Y-93000000D03*
X175000000Y-130000000D03*
X167000000Y-92000000D03*
X167000000Y-93000000D03*
X179000000Y-137000000D03*
X175000000Y-134000000D03*
X140000000Y-116000000D03*
X153500000Y-93000000D03*
X179000000Y-138000000D03*
X173000000Y-139000000D03*
X151500000Y-95000000D03*
X180000000Y-102000000D03*
X143000000Y-139000000D03*
X141000000Y-126000000D03*
X140000000Y-130000000D03*
X144000000Y-126000000D03*
X177000000Y-92000000D03*
X174000000Y-138000000D03*
X165000000Y-137000000D03*
X173000000Y-128000000D03*
X178000000Y-123000000D03*
X155500000Y-94000000D03*
X166000000Y-93000000D03*
X141000000Y-119000000D03*
X181000000Y-139000000D03*
X165000000Y-92000000D03*
X140000000Y-138000000D03*
X152500000Y-95000000D03*
X168000000Y-142000000D03*
X140000000Y-140000000D03*
X140000000Y-129000000D03*
X169000000Y-95000000D03*
D51*
%TO.N,/VCC*%
X159150000Y-109150000D03*
X163696157Y-106838448D03*
%TO.N,Net-(U1-COMP)*%
X158800000Y-105200000D03*
X157800000Y-107200000D03*
%TO.N,/LG*%
X165750000Y-107625000D03*
D49*
X179500000Y-109750000D03*
D51*
X163706476Y-107538372D03*
%TO.N,/EN*%
X159800000Y-103800000D03*
X153800000Y-104200000D03*
D49*
%TO.N,Net-(U1-HO)*%
X178750000Y-104250000D03*
D51*
X163772965Y-104860139D03*
X166391248Y-104908752D03*
%TD*%
D52*
%TO.N,/SS*%
X159000000Y-101500000D02*
X157900000Y-102600000D01*
X157900000Y-102600000D02*
X156675000Y-102600000D01*
X156675000Y-102600000D02*
X156275000Y-103000000D01*
%TO.N,/PGOOD*%
X160500000Y-109612500D02*
X161226000Y-110338500D01*
X161226000Y-113326000D02*
X161800000Y-113900000D01*
X161226000Y-110338500D02*
X161226000Y-113326000D01*
%TO.N,Net-(U1-FB)*%
X153575000Y-106225000D02*
X152826000Y-105476000D01*
X152826000Y-105476000D02*
X151024000Y-105476000D01*
X151024000Y-105476000D02*
X149500000Y-107000000D01*
%TO.N,/EN*%
X150800000Y-103900000D02*
X151675000Y-103900000D01*
X151675000Y-103900000D02*
X152600000Y-104825000D01*
%TO.N,Net-(U1-COMP)*%
X155350000Y-110695090D02*
X155350000Y-111550000D01*
X155350000Y-111550000D02*
X155200000Y-111700000D01*
D53*
%TO.N,GND*%
X157100000Y-111600000D02*
X157725000Y-112225000D01*
X157725000Y-112225000D02*
X157725000Y-112775000D01*
X157725000Y-112775000D02*
X157700000Y-112800000D01*
X157100000Y-111600000D02*
X156300000Y-110800000D01*
X156300000Y-110800000D02*
X156300000Y-109762500D01*
X156300000Y-109762500D02*
X156287500Y-109750000D01*
D52*
X149000000Y-104800000D02*
X149000000Y-103975000D01*
X148600000Y-105200000D02*
X149000000Y-104800000D01*
X148600000Y-105200000D02*
X149500000Y-105200000D01*
X151551000Y-103175000D02*
X152600000Y-103175000D01*
X161950000Y-106250000D02*
X161950000Y-106750001D01*
X157800000Y-104900000D02*
X157600000Y-104900000D01*
X157600000Y-104900000D02*
X157000000Y-105500000D01*
X163000000Y-108000001D02*
X162599999Y-108000001D01*
X153575000Y-103175000D02*
X153750000Y-103000000D01*
X162775003Y-108200000D02*
X162800001Y-108200000D01*
D53*
X141950000Y-101500000D02*
X142450000Y-101000000D01*
D52*
X163000000Y-106500000D02*
X161600001Y-106500000D01*
X160750002Y-106250000D02*
X160750002Y-105749999D01*
X161350001Y-105650001D02*
X161950000Y-106250000D01*
X157800000Y-104525000D02*
X157800000Y-104900000D01*
X161350001Y-105150000D02*
X161350001Y-105650001D01*
X159700002Y-106500002D02*
X160500000Y-106500002D01*
D53*
X140500000Y-101500000D02*
X141950000Y-101500000D01*
D52*
X162775003Y-108200000D02*
X162900000Y-108324997D01*
X162800001Y-108200000D02*
X163000000Y-108000001D01*
X163000000Y-108000001D02*
X162599998Y-108000001D01*
X160500000Y-106500002D02*
X160750002Y-106250000D01*
X161600001Y-106500000D02*
X161350001Y-106250000D01*
X161350001Y-106641480D02*
X161350001Y-106250000D01*
X152600000Y-103175000D02*
X153575000Y-103175000D01*
X153750000Y-103000000D02*
X154725000Y-103000000D01*
X160750002Y-106750001D02*
X161350001Y-107350000D01*
X163000000Y-107999999D02*
X162708520Y-107999999D01*
X162900000Y-108324997D02*
X162900000Y-109420000D01*
X162708520Y-107999999D02*
X161350001Y-106641480D01*
D53*
X157700000Y-112800000D02*
X157700000Y-111800000D01*
D52*
X160750002Y-105749999D02*
X161350001Y-105150000D01*
X160750002Y-106250000D02*
X160750002Y-106750001D01*
X162900000Y-109420000D02*
X162980000Y-109500000D01*
X161950000Y-106750001D02*
X161350001Y-107350000D01*
X161099999Y-106500002D02*
X161350001Y-106250000D01*
D53*
X140500000Y-100500000D02*
X141950000Y-100500000D01*
D52*
X162980000Y-109500000D02*
X163575000Y-109500000D01*
D53*
X141950000Y-100500000D02*
X142450000Y-101000000D01*
D52*
%TO.N,/BST*%
X163975001Y-105500001D02*
X164225000Y-105750000D01*
X163000000Y-105500001D02*
X163975001Y-105500001D01*
D54*
%TO.N,/SW*%
X164550002Y-104250000D02*
X164507754Y-104207752D01*
D53*
X165400000Y-106400000D02*
X165400000Y-106714000D01*
X165865000Y-114500000D02*
X169865000Y-114500000D01*
D55*
X164700000Y-104250000D02*
X165200000Y-104750000D01*
D53*
X167200000Y-113450000D02*
X167200000Y-121200000D01*
D55*
X165850002Y-104250000D02*
X165387500Y-104712502D01*
X164550002Y-104250000D02*
X164550002Y-104525002D01*
X164550002Y-104525002D02*
X165200000Y-105175000D01*
D53*
X167200000Y-121200000D02*
X167800000Y-121800000D01*
X168530000Y-113450000D02*
X168530000Y-121070000D01*
D55*
X165026000Y-106026000D02*
X165375000Y-106375000D01*
X164550002Y-104250000D02*
X164700000Y-104250000D01*
D54*
X165200000Y-105175000D02*
X165387500Y-105362500D01*
D53*
X163750000Y-110750000D02*
X163750000Y-111335000D01*
X168530000Y-121070000D02*
X167800000Y-121800000D01*
D54*
X163800000Y-110700000D02*
X163750000Y-110750000D01*
D53*
X165865000Y-113450000D02*
X169865000Y-113450000D01*
X165375000Y-106375000D02*
X165400000Y-106400000D01*
X165372651Y-108536000D02*
X165400000Y-108536000D01*
D54*
X164550002Y-104250000D02*
X165783100Y-104250000D01*
D55*
X165200000Y-105175000D02*
X165026000Y-105349000D01*
D52*
X163250000Y-104250000D02*
X164550002Y-104250000D01*
D53*
X165775000Y-105750000D02*
X165775000Y-105975000D01*
X164839000Y-107247651D02*
X164839000Y-108002349D01*
D55*
X165775000Y-104325002D02*
X165775000Y-105750000D01*
X165850002Y-104250000D02*
X165775000Y-104325002D01*
D53*
X164839000Y-108002349D02*
X165372651Y-108536000D01*
X169865000Y-113450000D02*
X169865000Y-114000000D01*
X163750000Y-111335000D02*
X165865000Y-113450000D01*
D55*
X165387500Y-104712502D02*
X165387500Y-105362500D01*
D54*
X165200000Y-104250000D02*
X165200000Y-104750000D01*
D53*
X165400000Y-108536000D02*
X165400000Y-110200000D01*
D54*
X165200000Y-104750000D02*
X165200000Y-105175000D01*
D53*
X169865000Y-114500000D02*
X169865000Y-119735000D01*
D55*
X165026000Y-105724000D02*
X165026000Y-106026000D01*
D53*
X165400000Y-110200000D02*
X164850000Y-110750000D01*
X169865000Y-119735000D02*
X167800000Y-121800000D01*
X165400000Y-106714000D02*
X165372651Y-106714000D01*
X165865000Y-114000000D02*
X169865000Y-114000000D01*
D55*
X165026000Y-105349000D02*
X165026000Y-105724000D01*
D53*
X164850000Y-110750000D02*
X163750000Y-110750000D01*
X169865000Y-114000000D02*
X169865000Y-114500000D01*
X165775000Y-105975000D02*
X165375000Y-106375000D01*
D52*
X163000000Y-104500000D02*
X163250000Y-104250000D01*
D53*
X165372651Y-106714000D02*
X164839000Y-107247651D01*
D54*
X165387500Y-105362500D02*
X165775000Y-105750000D01*
D55*
X165387500Y-105362500D02*
X165026000Y-105724000D01*
D52*
%TO.N,/VCC*%
X163000000Y-107000000D02*
X163534605Y-107000000D01*
X163534605Y-107000000D02*
X163696157Y-106838448D01*
%TO.N,GND*%
X159099003Y-107574002D02*
X159173003Y-107500002D01*
%TO.N,/VCC*%
X159150000Y-109150000D02*
X159000000Y-109300000D01*
X159150000Y-109150000D02*
X159273003Y-109026997D01*
X159000000Y-112910000D02*
X159290000Y-113200000D01*
%TO.N,GND*%
X159173003Y-107500002D02*
X159700002Y-107500002D01*
%TO.N,/VCC*%
X159000000Y-111600000D02*
X159000000Y-112910000D01*
X159000000Y-109300000D02*
X159000000Y-111600000D01*
X163593978Y-107000000D02*
X163682329Y-106911649D01*
%TO.N,/ILIM*%
X162020000Y-109500000D02*
X162020000Y-110670000D01*
X162100002Y-109419998D02*
X162020000Y-109500000D01*
X162020000Y-110670000D02*
X162100000Y-110750000D01*
X162100002Y-108400003D02*
X162100002Y-109419998D01*
%TO.N,/SS*%
X158500000Y-104200000D02*
X158474000Y-104174000D01*
X159051807Y-104348193D02*
X158903613Y-104200000D01*
X157449000Y-104174000D02*
X156275000Y-103000000D01*
X159700002Y-105000000D02*
X159400000Y-105000000D01*
X159400000Y-105000000D02*
X159051807Y-104651807D01*
X159051807Y-104651807D02*
X159051807Y-104348193D01*
X158474000Y-104174000D02*
X157449000Y-104174000D01*
X158903613Y-104200000D02*
X158500000Y-104200000D01*
%TO.N,Net-(U1-COMP)*%
X158575000Y-106400000D02*
X158575000Y-107750000D01*
X157975000Y-107200000D02*
X158575000Y-106600000D01*
X157800000Y-107200000D02*
X157975000Y-107200000D01*
X157800000Y-107200000D02*
X157800000Y-107575000D01*
X159700002Y-105500002D02*
X159100002Y-105500002D01*
X157800000Y-107575000D02*
X158375000Y-108150000D01*
X158750000Y-106725000D02*
X158725000Y-106750000D01*
X158575000Y-107750000D02*
X158375000Y-107950000D01*
X158575000Y-106400000D02*
X158575000Y-106198004D01*
X159100002Y-105500002D02*
X158800000Y-105200000D01*
%TO.N,Net-(C17-Pad2)*%
X151750000Y-106500000D02*
X152025000Y-106225000D01*
X151750000Y-107525000D02*
X151750000Y-106500000D01*
X151600000Y-107675000D02*
X151750000Y-107525000D01*
%TO.N,/PGOOD*%
X160600000Y-109512500D02*
X160500000Y-109612500D01*
X160500000Y-109612500D02*
X160500000Y-109515000D01*
X160600000Y-108400003D02*
X160600000Y-109512500D01*
%TO.N,/LG*%
X179500000Y-108725000D02*
X179725000Y-108500000D01*
X179500000Y-109750000D02*
X179500000Y-108725000D01*
X166151000Y-106849000D02*
X166151000Y-107224000D01*
X167675000Y-105500000D02*
X167500000Y-105500000D01*
X167500000Y-105500000D02*
X166151000Y-106849000D01*
X163000002Y-107500000D02*
X163000000Y-107500002D01*
X163000000Y-107500002D02*
X163668106Y-107500002D01*
X166151000Y-107224000D02*
X165750000Y-107625000D01*
X163668106Y-107500002D02*
X163706476Y-107538372D01*
%TO.N,/RT*%
X158450001Y-103250000D02*
X159700002Y-104500001D01*
X157800000Y-103250000D02*
X158450001Y-103250000D01*
%TO.N,Net-(C13-Pad2)*%
X156500000Y-107825000D02*
X156825000Y-108150000D01*
X155200000Y-107825000D02*
X156500000Y-107825000D01*
%TO.N,Net-(U1-FB)*%
X156275000Y-105650000D02*
X157025000Y-106400000D01*
X158025000Y-109750000D02*
X157151000Y-108876000D01*
X157777996Y-105847004D02*
X159047007Y-105847004D01*
X156275000Y-104500000D02*
X156275000Y-105650000D01*
X153350000Y-106450000D02*
X153575000Y-106225000D01*
X153575000Y-106225000D02*
X154176000Y-106826000D01*
X157025000Y-106400000D02*
X157418352Y-106400000D01*
X154176000Y-106826000D02*
X156599000Y-106826000D01*
X154551000Y-108876000D02*
X153350000Y-107675000D01*
X157025000Y-106600000D02*
X157777996Y-105847004D01*
X153350000Y-107675000D02*
X153350000Y-106450000D01*
X156599000Y-106826000D02*
X157025000Y-106400000D01*
X157151000Y-108876000D02*
X154551000Y-108876000D01*
X159047007Y-105847004D02*
X159200003Y-106000000D01*
X159200003Y-106000000D02*
X159700002Y-106000000D01*
%TO.N,Net-(D1-A)*%
X160500000Y-113010000D02*
X160310000Y-113200000D01*
X160500000Y-111187500D02*
X160500000Y-113010000D01*
D53*
%TO.N,+18V*%
X146050000Y-105350000D02*
X146050000Y-101000000D01*
X144150000Y-107250000D02*
X146050000Y-105350000D01*
X142250000Y-107250000D02*
X144150000Y-107250000D01*
D54*
X162100002Y-104100001D02*
X162100002Y-100874998D01*
X162100002Y-100874998D02*
X162200000Y-100775000D01*
D52*
%TO.N,/EN*%
X152600000Y-104825000D02*
X153175000Y-104825000D01*
X160575000Y-103800000D02*
X160800000Y-104025000D01*
X159800000Y-103800000D02*
X160575000Y-103800000D01*
X153175000Y-104825000D02*
X153800000Y-104200000D01*
%TO.N,Net-(R20-Pad1)*%
X154725000Y-105700000D02*
X155200000Y-106175000D01*
X154725000Y-104500000D02*
X154725000Y-105700000D01*
%TO.N,Net-(C24-Pad1)*%
X181200000Y-107375000D02*
X180825000Y-107000000D01*
X181200000Y-108500000D02*
X181200000Y-107375000D01*
%TO.N,Net-(Q1-GATE)*%
X171389600Y-102375000D02*
X171389600Y-102675000D01*
X171389600Y-102675000D02*
X170064600Y-104000000D01*
%TO.N,Net-(Q2-GATE)*%
X166755800Y-107625000D02*
X166755800Y-107527560D01*
X168057360Y-106226000D02*
X168551336Y-106226000D01*
X166755800Y-107625000D02*
X166755800Y-107325000D01*
X166755800Y-107527560D02*
X168057360Y-106226000D01*
X168551336Y-106226000D02*
X169277336Y-105500000D01*
X169277336Y-105500000D02*
X169325000Y-105500000D01*
%TO.N,Net-(Q3-GATE)*%
X177244200Y-105069200D02*
X177675000Y-105500000D01*
X177244200Y-103500000D02*
X177244200Y-105069200D01*
%TO.N,Net-(Q4-GATE)*%
X178075000Y-108500000D02*
X178075000Y-110245400D01*
X178075000Y-110245400D02*
X178175000Y-110345400D01*
%TO.N,Net-(R10-Pad2)*%
X179175000Y-107000000D02*
X177825000Y-107000000D01*
%TO.N,Net-(U1-HO)*%
X178750000Y-104250000D02*
X178750000Y-104925000D01*
X166500000Y-104800000D02*
X166400000Y-104900000D01*
X167300000Y-104000000D02*
X166391248Y-104908752D01*
X163633102Y-105000002D02*
X163772965Y-104860139D01*
X168375000Y-104000000D02*
X167300000Y-104000000D01*
X163693958Y-105000002D02*
X163785208Y-104908752D01*
X178750000Y-104925000D02*
X179325000Y-105500000D01*
X163000000Y-105000002D02*
X163633102Y-105000002D01*
%TD*%
%TA.AperFunction,Conductor*%
%TO.N,/SW*%
G36*
X170885693Y-101519685D02*
G01*
X170931448Y-101572489D01*
X170941392Y-101641647D01*
X170926806Y-101679708D01*
X170927506Y-101679998D01*
X170922831Y-101691282D01*
X170914100Y-101735177D01*
X170914100Y-102744876D01*
X170894415Y-102811915D01*
X170877781Y-102832557D01*
X170369965Y-103340372D01*
X170308642Y-103373857D01*
X170264412Y-103375396D01*
X170258260Y-103374500D01*
X169791740Y-103374500D01*
X169791739Y-103374500D01*
X169723608Y-103384426D01*
X169618514Y-103435803D01*
X169535803Y-103518514D01*
X169484426Y-103623608D01*
X169474500Y-103691739D01*
X169474500Y-104308260D01*
X169484426Y-104376391D01*
X169535803Y-104481485D01*
X169618514Y-104564196D01*
X169618515Y-104564196D01*
X169618517Y-104564198D01*
X169723607Y-104615573D01*
X169757673Y-104620536D01*
X169791739Y-104625500D01*
X169791740Y-104625500D01*
X170258261Y-104625500D01*
X170280971Y-104622191D01*
X170326393Y-104615573D01*
X170431483Y-104564198D01*
X170514198Y-104481483D01*
X170565573Y-104376393D01*
X170575500Y-104308260D01*
X170575500Y-103894723D01*
X170595185Y-103827684D01*
X170611819Y-103807042D01*
X171232042Y-103186819D01*
X171293365Y-103153334D01*
X171319723Y-103150500D01*
X171729422Y-103150500D01*
X171773317Y-103141768D01*
X171773317Y-103141767D01*
X171773322Y-103141767D01*
X171823104Y-103108504D01*
X171856367Y-103058722D01*
X171865100Y-103014820D01*
X171865100Y-101735180D01*
X171865100Y-101735177D01*
X171856368Y-101691282D01*
X171856367Y-101691281D01*
X171856367Y-101691278D01*
X171856365Y-101691275D01*
X171851694Y-101679998D01*
X171853210Y-101679369D01*
X171836566Y-101626217D01*
X171855048Y-101558837D01*
X171907026Y-101512145D01*
X171960546Y-101500000D01*
X172710100Y-101500000D01*
X172777139Y-101519685D01*
X172822894Y-101572489D01*
X172834100Y-101624000D01*
X172834100Y-102209499D01*
X172854933Y-102287251D01*
X172911848Y-102344166D01*
X172911849Y-102344166D01*
X172911850Y-102344167D01*
X172989600Y-102365000D01*
X172989602Y-102365000D01*
X177126000Y-102365000D01*
X177134685Y-102367550D01*
X177143647Y-102366262D01*
X177167687Y-102377240D01*
X177193039Y-102384685D01*
X177198966Y-102391525D01*
X177207203Y-102395287D01*
X177221492Y-102417521D01*
X177238794Y-102437489D01*
X177241081Y-102448003D01*
X177244977Y-102454065D01*
X177250000Y-102489000D01*
X177250000Y-102600500D01*
X177230315Y-102667539D01*
X177177511Y-102713294D01*
X177126000Y-102724500D01*
X176904378Y-102724500D01*
X176860482Y-102733231D01*
X176860475Y-102733234D01*
X176810696Y-102766495D01*
X176810695Y-102766496D01*
X176777434Y-102816275D01*
X176777431Y-102816282D01*
X176768700Y-102860177D01*
X176768700Y-102860180D01*
X176768700Y-104139820D01*
X176768700Y-104139822D01*
X176768699Y-104139822D01*
X176777431Y-104183717D01*
X176777432Y-104183721D01*
X176777433Y-104183722D01*
X176810696Y-104233504D01*
X176860478Y-104266767D01*
X176860481Y-104266767D01*
X176860482Y-104266768D01*
X176893891Y-104273414D01*
X176955802Y-104305799D01*
X176990376Y-104366514D01*
X176993700Y-104395031D01*
X176993700Y-105119029D01*
X177031836Y-105211097D01*
X177088181Y-105267442D01*
X177121666Y-105328765D01*
X177124500Y-105355123D01*
X177124500Y-105808260D01*
X177134426Y-105876391D01*
X177185803Y-105981485D01*
X177213680Y-106009361D01*
X177247166Y-106070683D01*
X177250000Y-106097043D01*
X177250000Y-114626000D01*
X177230315Y-114693039D01*
X177177511Y-114738794D01*
X177126000Y-114750000D01*
X164374000Y-114750000D01*
X164306961Y-114730315D01*
X164261206Y-114677511D01*
X164250000Y-114626000D01*
X164250000Y-107570957D01*
X165339500Y-107570957D01*
X165339500Y-107679043D01*
X165367475Y-107783447D01*
X165367476Y-107783448D01*
X165367478Y-107783453D01*
X165421513Y-107877046D01*
X165421517Y-107877051D01*
X165421518Y-107877053D01*
X165497947Y-107953482D01*
X165497949Y-107953483D01*
X165497953Y-107953486D01*
X165591546Y-108007521D01*
X165591553Y-108007525D01*
X165695957Y-108035500D01*
X165695959Y-108035500D01*
X165804040Y-108035500D01*
X165804043Y-108035500D01*
X165908447Y-108007525D01*
X166002053Y-107953482D01*
X166068619Y-107886916D01*
X166129942Y-107853431D01*
X166199634Y-107858415D01*
X166255567Y-107900287D01*
X166279984Y-107965751D01*
X166280300Y-107974597D01*
X166280300Y-108264820D01*
X166280300Y-108264822D01*
X166280299Y-108264822D01*
X166289031Y-108308717D01*
X166289034Y-108308724D01*
X166322295Y-108358503D01*
X166322296Y-108358504D01*
X166372078Y-108391767D01*
X166372081Y-108391767D01*
X166372082Y-108391768D01*
X166415977Y-108400500D01*
X166415980Y-108400500D01*
X167095622Y-108400500D01*
X167139517Y-108391768D01*
X167139517Y-108391767D01*
X167139522Y-108391767D01*
X167189304Y-108358504D01*
X167222567Y-108308722D01*
X167231300Y-108264820D01*
X167231300Y-107700013D01*
X167236729Y-107681523D01*
X167237188Y-107662256D01*
X167246370Y-107648689D01*
X167250985Y-107632974D01*
X167265547Y-107620355D01*
X167276351Y-107604394D01*
X167291410Y-107597945D01*
X167303789Y-107587219D01*
X167322863Y-107584476D01*
X167340579Y-107576890D01*
X167356732Y-107579606D01*
X167372947Y-107577275D01*
X167390478Y-107585281D01*
X167409481Y-107588477D01*
X167421600Y-107599494D01*
X167436503Y-107606300D01*
X167446922Y-107622513D01*
X167461181Y-107635475D01*
X167473021Y-107663123D01*
X167474277Y-107665078D01*
X167475068Y-107667897D01*
X167478055Y-107679043D01*
X167485675Y-107707480D01*
X167489900Y-107739573D01*
X167489900Y-108249999D01*
X167510733Y-108327751D01*
X167567648Y-108384666D01*
X167567649Y-108384666D01*
X167567650Y-108384667D01*
X167645400Y-108405500D01*
X167645402Y-108405500D01*
X171010398Y-108405500D01*
X171010400Y-108405500D01*
X171088150Y-108384667D01*
X171145067Y-108327750D01*
X171165900Y-108250000D01*
X171165900Y-107500000D01*
X171165900Y-107000000D01*
X171145067Y-106922250D01*
X171145066Y-106922249D01*
X171145066Y-106922248D01*
X171088151Y-106865333D01*
X171029060Y-106849500D01*
X171010400Y-106844500D01*
X170310400Y-106844500D01*
X170232649Y-106865332D01*
X170182879Y-106915103D01*
X170121555Y-106948587D01*
X170102919Y-106951180D01*
X170083310Y-106952403D01*
X170072475Y-106949500D01*
X169927525Y-106949500D01*
X169866122Y-106965953D01*
X169853732Y-106966726D01*
X169831278Y-106961627D01*
X169808253Y-106961079D01*
X169797847Y-106954035D01*
X169785597Y-106951254D01*
X169769462Y-106934823D01*
X169750391Y-106921915D01*
X169742909Y-106911857D01*
X169729304Y-106891496D01*
X169729303Y-106891495D01*
X169679524Y-106858234D01*
X169679517Y-106858231D01*
X169635622Y-106849500D01*
X169635620Y-106849500D01*
X168955980Y-106849500D01*
X168955978Y-106849500D01*
X168912082Y-106858231D01*
X168912075Y-106858234D01*
X168862296Y-106891495D01*
X168862295Y-106891496D01*
X168822248Y-106951432D01*
X168818782Y-106949116D01*
X168808472Y-106969116D01*
X168792264Y-106981861D01*
X168789351Y-106985470D01*
X168780729Y-106990933D01*
X168676235Y-107051263D01*
X168608335Y-107067736D01*
X168542308Y-107044884D01*
X168499117Y-106989962D01*
X168494463Y-106975978D01*
X168480067Y-106922250D01*
X168480067Y-106922249D01*
X168423151Y-106865333D01*
X168364060Y-106849500D01*
X168345400Y-106844500D01*
X168345399Y-106844500D01*
X168092482Y-106844500D01*
X168071236Y-106838261D01*
X168049148Y-106836682D01*
X168038364Y-106828609D01*
X168025443Y-106824815D01*
X168010943Y-106808081D01*
X167993215Y-106794810D01*
X167988507Y-106782189D01*
X167979688Y-106772011D01*
X167976536Y-106750093D01*
X167968798Y-106729346D01*
X167971660Y-106716185D01*
X167969744Y-106702853D01*
X167978943Y-106682709D01*
X167983650Y-106661073D01*
X167996918Y-106643347D01*
X167998769Y-106639297D01*
X168004801Y-106632819D01*
X168124801Y-106512819D01*
X168186124Y-106479334D01*
X168212482Y-106476500D01*
X168601162Y-106476500D01*
X168601164Y-106476500D01*
X168693233Y-106438364D01*
X168972997Y-106158598D01*
X169034316Y-106125116D01*
X169078550Y-106123578D01*
X169091740Y-106125500D01*
X169091746Y-106125500D01*
X169558261Y-106125500D01*
X169580971Y-106122191D01*
X169626393Y-106115573D01*
X169731483Y-106064198D01*
X169814198Y-105981483D01*
X169865573Y-105876393D01*
X169875500Y-105808260D01*
X169875500Y-105191740D01*
X169865573Y-105123607D01*
X169814198Y-105018517D01*
X169814196Y-105018515D01*
X169814196Y-105018514D01*
X169731485Y-104935803D01*
X169626391Y-104884426D01*
X169558261Y-104874500D01*
X169558260Y-104874500D01*
X169091740Y-104874500D01*
X169091739Y-104874500D01*
X169023608Y-104884426D01*
X168918514Y-104935803D01*
X168835803Y-105018514D01*
X168784426Y-105123608D01*
X168774500Y-105191739D01*
X168774500Y-105597213D01*
X168754815Y-105664252D01*
X168738181Y-105684894D01*
X168483894Y-105939181D01*
X168456966Y-105953884D01*
X168431148Y-105970477D01*
X168424947Y-105971368D01*
X168422571Y-105972666D01*
X168396213Y-105975500D01*
X168344509Y-105975500D01*
X168277470Y-105955815D01*
X168231715Y-105903011D01*
X168221771Y-105833853D01*
X168225500Y-105808260D01*
X168225500Y-105191740D01*
X168215573Y-105123607D01*
X168164198Y-105018517D01*
X168164196Y-105018515D01*
X168164196Y-105018514D01*
X168081485Y-104935803D01*
X167976391Y-104884426D01*
X167908261Y-104874500D01*
X167908260Y-104874500D01*
X167441740Y-104874500D01*
X167441739Y-104874500D01*
X167373608Y-104884426D01*
X167268514Y-104935803D01*
X167185803Y-105018514D01*
X167134426Y-105123608D01*
X167124500Y-105191739D01*
X167124500Y-105469877D01*
X167104815Y-105536916D01*
X167088181Y-105557558D01*
X165938637Y-106707101D01*
X165938636Y-106707102D01*
X165900500Y-106799170D01*
X165900500Y-107068877D01*
X165891855Y-107098317D01*
X165885332Y-107128304D01*
X165881577Y-107133319D01*
X165880815Y-107135916D01*
X165864181Y-107156558D01*
X165842558Y-107178181D01*
X165781235Y-107211666D01*
X165754877Y-107214500D01*
X165695957Y-107214500D01*
X165591553Y-107242475D01*
X165591551Y-107242475D01*
X165591551Y-107242476D01*
X165591546Y-107242478D01*
X165497953Y-107296513D01*
X165497945Y-107296519D01*
X165421519Y-107372945D01*
X165421513Y-107372953D01*
X165367478Y-107466546D01*
X165367475Y-107466551D01*
X165367475Y-107466553D01*
X165339500Y-107570957D01*
X164250000Y-107570957D01*
X164250000Y-106499500D01*
X164269685Y-106432461D01*
X164322489Y-106386706D01*
X164374000Y-106375500D01*
X164485630Y-106375500D01*
X164485636Y-106375500D01*
X164558625Y-106364866D01*
X164623851Y-106332979D01*
X164671210Y-106309827D01*
X164759827Y-106221210D01*
X164805419Y-106127949D01*
X164814866Y-106108625D01*
X164825500Y-106035636D01*
X164825500Y-105464364D01*
X164814866Y-105391375D01*
X164798601Y-105358104D01*
X164759827Y-105278789D01*
X164671210Y-105190172D01*
X164558628Y-105135135D01*
X164558626Y-105135134D01*
X164558625Y-105135134D01*
X164485636Y-105124500D01*
X164485630Y-105124500D01*
X164374000Y-105124500D01*
X164365314Y-105121949D01*
X164356353Y-105123238D01*
X164332312Y-105112259D01*
X164306961Y-105104815D01*
X164301033Y-105097974D01*
X164292797Y-105094213D01*
X164278507Y-105071978D01*
X164261206Y-105052011D01*
X164258918Y-105041496D01*
X164255023Y-105035435D01*
X164250000Y-105000500D01*
X164250000Y-104854709D01*
X165980748Y-104854709D01*
X165980748Y-104962795D01*
X166008723Y-105067199D01*
X166008724Y-105067200D01*
X166008726Y-105067205D01*
X166062761Y-105160798D01*
X166062765Y-105160803D01*
X166062766Y-105160805D01*
X166139195Y-105237234D01*
X166139197Y-105237235D01*
X166139201Y-105237238D01*
X166161308Y-105250001D01*
X166232801Y-105291277D01*
X166337205Y-105319252D01*
X166337207Y-105319252D01*
X166445288Y-105319252D01*
X166445291Y-105319252D01*
X166549695Y-105291277D01*
X166643301Y-105237234D01*
X166719730Y-105160805D01*
X166773773Y-105067199D01*
X166801748Y-104962795D01*
X166801748Y-104903874D01*
X166821433Y-104836835D01*
X166838067Y-104816193D01*
X167367442Y-104286819D01*
X167428765Y-104253334D01*
X167455123Y-104250500D01*
X167708842Y-104250500D01*
X167775881Y-104270185D01*
X167821636Y-104322989D01*
X167831546Y-104356622D01*
X167834426Y-104376391D01*
X167885803Y-104481485D01*
X167968514Y-104564196D01*
X167968515Y-104564196D01*
X167968517Y-104564198D01*
X168073607Y-104615573D01*
X168107673Y-104620536D01*
X168141739Y-104625500D01*
X168141740Y-104625500D01*
X168608261Y-104625500D01*
X168630971Y-104622191D01*
X168676393Y-104615573D01*
X168781483Y-104564198D01*
X168864198Y-104481483D01*
X168915573Y-104376393D01*
X168925500Y-104308260D01*
X168925500Y-103691740D01*
X168915573Y-103623607D01*
X168864198Y-103518517D01*
X168864196Y-103518515D01*
X168864196Y-103518514D01*
X168781485Y-103435803D01*
X168676391Y-103384426D01*
X168608261Y-103374500D01*
X168608260Y-103374500D01*
X168141740Y-103374500D01*
X168141739Y-103374500D01*
X168073608Y-103384426D01*
X167968514Y-103435803D01*
X167885803Y-103518514D01*
X167834426Y-103623608D01*
X167831546Y-103643378D01*
X167802402Y-103706879D01*
X167743553Y-103744543D01*
X167708842Y-103749500D01*
X167250170Y-103749500D01*
X167158102Y-103787636D01*
X166483805Y-104461933D01*
X166422482Y-104495418D01*
X166396124Y-104498252D01*
X166337205Y-104498252D01*
X166232801Y-104526227D01*
X166232799Y-104526227D01*
X166232799Y-104526228D01*
X166232794Y-104526230D01*
X166139201Y-104580265D01*
X166139193Y-104580271D01*
X166062767Y-104656697D01*
X166062761Y-104656705D01*
X166008726Y-104750298D01*
X166008723Y-104750303D01*
X166008723Y-104750305D01*
X165980748Y-104854709D01*
X164250000Y-104854709D01*
X164250000Y-101624000D01*
X164269685Y-101556961D01*
X164322489Y-101511206D01*
X164374000Y-101500000D01*
X170818654Y-101500000D01*
X170885693Y-101519685D01*
G37*
%TD.AperFunction*%
%TD*%
%TA.AperFunction,Conductor*%
%TO.N,+18V*%
G36*
X148250000Y-104720114D02*
G01*
X148230315Y-104787153D01*
X148213681Y-104807795D01*
X148159493Y-104861982D01*
X148159488Y-104861988D01*
X148087017Y-104987511D01*
X148087016Y-104987515D01*
X148049500Y-105127525D01*
X148049500Y-105272475D01*
X148068102Y-105341897D01*
X148087017Y-105412488D01*
X148159488Y-105538011D01*
X148159493Y-105538017D01*
X148213681Y-105592205D01*
X148247166Y-105653528D01*
X148250000Y-105679886D01*
X148250000Y-109876000D01*
X148230315Y-109943039D01*
X148177511Y-109988794D01*
X148126000Y-110000000D01*
X139874000Y-110000000D01*
X139806961Y-109980315D01*
X139761206Y-109927511D01*
X139750000Y-109876000D01*
X139750000Y-103124000D01*
X139769685Y-103056961D01*
X139822489Y-103011206D01*
X139874000Y-103000000D01*
X144500000Y-103000000D01*
X148250000Y-103000000D01*
X148250000Y-104720114D01*
G37*
%TD.AperFunction*%
%TD*%
%TA.AperFunction,Conductor*%
%TO.N,/VOUT*%
G36*
X150800000Y-114306706D02*
G01*
X154200000Y-114306706D01*
X154200000Y-113750000D01*
X157354406Y-113750000D01*
X157383102Y-113753366D01*
X157392720Y-113755653D01*
X157408164Y-113762051D01*
X157475777Y-113775500D01*
X157536466Y-113787572D01*
X157601456Y-113800500D01*
X157601459Y-113800500D01*
X157798543Y-113800500D01*
X157841869Y-113791881D01*
X157924223Y-113775500D01*
X157991836Y-113762051D01*
X158007279Y-113755653D01*
X158016898Y-113753366D01*
X158026226Y-113753852D01*
X158045594Y-113750000D01*
X158126000Y-113750000D01*
X158193039Y-113769685D01*
X158238794Y-113822489D01*
X158250000Y-113874000D01*
X158250000Y-150376000D01*
X158230315Y-150443039D01*
X158177511Y-150488794D01*
X158126000Y-150500000D01*
X147374000Y-150500000D01*
X147306961Y-150480315D01*
X147261206Y-150427511D01*
X147250000Y-150376000D01*
X147250000Y-113874000D01*
X147269685Y-113806961D01*
X147322489Y-113761206D01*
X147374000Y-113750000D01*
X150800000Y-113750000D01*
X150800000Y-114306706D01*
G37*
%TD.AperFunction*%
%TD*%
%TA.AperFunction,Conductor*%
%TO.N,/VOUT*%
G36*
X153448148Y-108626391D02*
G01*
X153468790Y-108643025D01*
X154070478Y-109244713D01*
X154070480Y-109244716D01*
X154163682Y-109337918D01*
X154197166Y-109399239D01*
X154197165Y-109399240D01*
X154197166Y-109399241D01*
X154200000Y-109425598D01*
X154200000Y-111140826D01*
X154199572Y-111148798D01*
X154199678Y-111148804D01*
X154199500Y-111152128D01*
X154199500Y-112247863D01*
X154199679Y-112251180D01*
X154199572Y-112251185D01*
X154200000Y-112259156D01*
X154200000Y-114306706D01*
X150800000Y-114306706D01*
X150800000Y-108730706D01*
X150819685Y-108663667D01*
X150872489Y-108617912D01*
X150924000Y-108606706D01*
X153381109Y-108606706D01*
X153448148Y-108626391D01*
G37*
%TD.AperFunction*%
%TD*%
%TA.AperFunction,Conductor*%
%TO.N,+18V*%
G36*
X147986974Y-95753846D02*
G01*
X148019431Y-95762130D01*
X148021829Y-95763641D01*
X148021980Y-95763684D01*
X148022085Y-95763803D01*
X148025051Y-95765672D01*
X148073444Y-95798008D01*
X148073459Y-95798016D01*
X148143451Y-95827007D01*
X148237334Y-95865894D01*
X148237336Y-95865894D01*
X148237341Y-95865896D01*
X148411304Y-95900499D01*
X148411307Y-95900500D01*
X148411309Y-95900500D01*
X148588693Y-95900500D01*
X148588694Y-95900499D01*
X148656313Y-95887049D01*
X148762658Y-95865896D01*
X148762661Y-95865894D01*
X148762666Y-95865894D01*
X148926547Y-95798013D01*
X148931107Y-95794965D01*
X148997783Y-95774086D01*
X149065163Y-95792569D01*
X149068867Y-95794948D01*
X149073453Y-95798013D01*
X149073455Y-95798014D01*
X149073457Y-95798015D01*
X149143451Y-95827007D01*
X149237334Y-95865894D01*
X149237336Y-95865894D01*
X149237341Y-95865896D01*
X149411304Y-95900499D01*
X149411307Y-95900500D01*
X149411309Y-95900500D01*
X149588693Y-95900500D01*
X149588694Y-95900499D01*
X149656313Y-95887049D01*
X149762658Y-95865896D01*
X149762661Y-95865894D01*
X149762666Y-95865894D01*
X149926547Y-95798013D01*
X149931107Y-95794965D01*
X149997783Y-95774086D01*
X150065163Y-95792569D01*
X150068867Y-95794948D01*
X150073453Y-95798013D01*
X150073455Y-95798014D01*
X150073457Y-95798015D01*
X150143451Y-95827007D01*
X150237334Y-95865894D01*
X150237336Y-95865894D01*
X150237341Y-95865896D01*
X150411304Y-95900499D01*
X150411307Y-95900500D01*
X150411309Y-95900500D01*
X150588693Y-95900500D01*
X150686507Y-95881043D01*
X150756099Y-95887270D01*
X150811276Y-95930133D01*
X150834521Y-95996022D01*
X150828405Y-96041664D01*
X150810001Y-96097203D01*
X150810000Y-96097204D01*
X150799500Y-96199983D01*
X150799500Y-96950001D01*
X150799501Y-96950019D01*
X150810000Y-97052796D01*
X150810001Y-97052799D01*
X150821895Y-97088691D01*
X150865186Y-97219334D01*
X150957288Y-97368656D01*
X151081344Y-97492712D01*
X151230666Y-97584814D01*
X151397203Y-97639999D01*
X151499991Y-97650500D01*
X152900008Y-97650499D01*
X153002797Y-97639999D01*
X153169334Y-97584814D01*
X153318656Y-97492712D01*
X153362319Y-97449049D01*
X153423642Y-97415564D01*
X153493334Y-97420548D01*
X153537681Y-97449049D01*
X153581344Y-97492712D01*
X153730666Y-97584814D01*
X153897203Y-97639999D01*
X153999991Y-97650500D01*
X155400008Y-97650499D01*
X155502797Y-97639999D01*
X155669334Y-97584814D01*
X155818656Y-97492712D01*
X155912319Y-97399049D01*
X155973642Y-97365564D01*
X156043334Y-97370548D01*
X156087681Y-97399049D01*
X156181344Y-97492712D01*
X156330666Y-97584814D01*
X156497203Y-97639999D01*
X156599991Y-97650500D01*
X158000008Y-97650499D01*
X158102797Y-97639999D01*
X158269334Y-97584814D01*
X158418656Y-97492712D01*
X158512319Y-97399049D01*
X158573642Y-97365564D01*
X158643334Y-97370548D01*
X158687681Y-97399049D01*
X158781344Y-97492712D01*
X158930666Y-97584814D01*
X159097203Y-97639999D01*
X159199991Y-97650500D01*
X160600008Y-97650499D01*
X160702797Y-97639999D01*
X160869334Y-97584814D01*
X161018656Y-97492712D01*
X161112319Y-97399049D01*
X161173642Y-97365564D01*
X161243334Y-97370548D01*
X161287681Y-97399049D01*
X161381344Y-97492712D01*
X161530666Y-97584814D01*
X161697203Y-97639999D01*
X161799991Y-97650500D01*
X163200008Y-97650499D01*
X163302797Y-97639999D01*
X163469334Y-97584814D01*
X163618656Y-97492712D01*
X163662319Y-97449049D01*
X163723642Y-97415564D01*
X163793334Y-97420548D01*
X163837681Y-97449049D01*
X163881344Y-97492712D01*
X164030666Y-97584814D01*
X164197203Y-97639999D01*
X164299991Y-97650500D01*
X165700008Y-97650499D01*
X165802797Y-97639999D01*
X165969334Y-97584814D01*
X166118656Y-97492712D01*
X166242712Y-97368656D01*
X166334814Y-97219334D01*
X166389999Y-97052797D01*
X166400500Y-96950009D01*
X166400499Y-96199992D01*
X166389999Y-96097203D01*
X166343498Y-95956875D01*
X166342315Y-95922462D01*
X166340817Y-95888164D01*
X166341117Y-95887648D01*
X166341097Y-95887049D01*
X166358713Y-95857446D01*
X166375990Y-95827793D01*
X166376592Y-95827402D01*
X166376828Y-95827007D01*
X166404820Y-95807434D01*
X166409195Y-95805199D01*
X166426547Y-95798013D01*
X166437152Y-95790926D01*
X166443615Y-95787627D01*
X166471097Y-95782442D01*
X166497783Y-95774086D01*
X166504960Y-95776054D01*
X166512274Y-95774675D01*
X166538198Y-95785172D01*
X166565163Y-95792569D01*
X166568867Y-95794948D01*
X166573453Y-95798013D01*
X166573455Y-95798014D01*
X166573457Y-95798015D01*
X166643451Y-95827007D01*
X166737334Y-95865894D01*
X166737336Y-95865894D01*
X166737341Y-95865896D01*
X166911304Y-95900499D01*
X166911307Y-95900500D01*
X166911309Y-95900500D01*
X167088693Y-95900500D01*
X167088694Y-95900499D01*
X167156313Y-95887049D01*
X167262658Y-95865896D01*
X167262661Y-95865894D01*
X167262666Y-95865894D01*
X167426547Y-95798013D01*
X167431107Y-95794965D01*
X167497783Y-95774086D01*
X167565163Y-95792569D01*
X167568867Y-95794948D01*
X167573453Y-95798013D01*
X167573455Y-95798014D01*
X167573457Y-95798015D01*
X167643451Y-95827007D01*
X167737334Y-95865894D01*
X167737336Y-95865894D01*
X167737341Y-95865896D01*
X167911304Y-95900499D01*
X167911307Y-95900500D01*
X167911309Y-95900500D01*
X168088693Y-95900500D01*
X168088694Y-95900499D01*
X168156313Y-95887049D01*
X168262658Y-95865896D01*
X168262661Y-95865894D01*
X168262666Y-95865894D01*
X168426547Y-95798013D01*
X168431107Y-95794965D01*
X168497783Y-95774086D01*
X168565163Y-95792569D01*
X168568867Y-95794948D01*
X168573453Y-95798013D01*
X168573455Y-95798014D01*
X168573457Y-95798015D01*
X168643451Y-95827007D01*
X168737334Y-95865894D01*
X168737336Y-95865894D01*
X168737341Y-95865896D01*
X168911304Y-95900499D01*
X168911307Y-95900500D01*
X168911309Y-95900500D01*
X169088693Y-95900500D01*
X169088694Y-95900499D01*
X169156313Y-95887049D01*
X169262658Y-95865896D01*
X169262661Y-95865894D01*
X169262666Y-95865894D01*
X169426547Y-95798013D01*
X169431107Y-95794965D01*
X169497783Y-95774086D01*
X169565163Y-95792569D01*
X169568867Y-95794948D01*
X169573453Y-95798013D01*
X169573455Y-95798014D01*
X169573457Y-95798015D01*
X169643451Y-95827007D01*
X169737334Y-95865894D01*
X169737336Y-95865894D01*
X169737341Y-95865896D01*
X169911304Y-95900499D01*
X169911307Y-95900500D01*
X169911309Y-95900500D01*
X170088693Y-95900500D01*
X170088694Y-95900499D01*
X170156313Y-95887049D01*
X170262658Y-95865896D01*
X170262661Y-95865894D01*
X170262666Y-95865894D01*
X170426547Y-95798013D01*
X170431107Y-95794965D01*
X170497783Y-95774086D01*
X170565163Y-95792569D01*
X170568867Y-95794948D01*
X170573453Y-95798013D01*
X170573455Y-95798014D01*
X170573457Y-95798015D01*
X170643451Y-95827007D01*
X170737334Y-95865894D01*
X170737336Y-95865894D01*
X170737341Y-95865896D01*
X170911304Y-95900499D01*
X170911307Y-95900500D01*
X170911309Y-95900500D01*
X171088693Y-95900500D01*
X171088694Y-95900499D01*
X171156313Y-95887049D01*
X171262658Y-95865896D01*
X171262661Y-95865894D01*
X171262666Y-95865894D01*
X171426547Y-95798013D01*
X171431107Y-95794965D01*
X171497783Y-95774086D01*
X171565163Y-95792569D01*
X171568867Y-95794948D01*
X171573453Y-95798013D01*
X171573455Y-95798014D01*
X171573457Y-95798015D01*
X171643451Y-95827007D01*
X171737334Y-95865894D01*
X171737336Y-95865894D01*
X171737341Y-95865896D01*
X171911304Y-95900499D01*
X171911307Y-95900500D01*
X171911309Y-95900500D01*
X172088693Y-95900500D01*
X172088694Y-95900499D01*
X172156313Y-95887049D01*
X172262658Y-95865896D01*
X172262661Y-95865894D01*
X172262666Y-95865894D01*
X172426547Y-95798013D01*
X172431107Y-95794965D01*
X172497783Y-95774086D01*
X172565163Y-95792569D01*
X172568867Y-95794948D01*
X172573453Y-95798013D01*
X172573455Y-95798014D01*
X172573457Y-95798015D01*
X172643451Y-95827007D01*
X172737334Y-95865894D01*
X172737336Y-95865894D01*
X172737341Y-95865896D01*
X172911304Y-95900499D01*
X172911307Y-95900500D01*
X172911309Y-95900500D01*
X173088693Y-95900500D01*
X173088694Y-95900499D01*
X173156313Y-95887049D01*
X173262658Y-95865896D01*
X173262661Y-95865894D01*
X173262666Y-95865894D01*
X173426547Y-95798013D01*
X173431107Y-95794965D01*
X173497783Y-95774086D01*
X173565163Y-95792569D01*
X173568867Y-95794948D01*
X173573453Y-95798013D01*
X173573455Y-95798014D01*
X173573457Y-95798015D01*
X173643451Y-95827007D01*
X173737334Y-95865894D01*
X173737336Y-95865894D01*
X173737341Y-95865896D01*
X173911304Y-95900499D01*
X173911307Y-95900500D01*
X173911309Y-95900500D01*
X174088693Y-95900500D01*
X174088694Y-95900499D01*
X174156313Y-95887049D01*
X174262658Y-95865896D01*
X174262661Y-95865894D01*
X174262666Y-95865894D01*
X174426547Y-95798013D01*
X174431107Y-95794965D01*
X174497783Y-95774086D01*
X174565163Y-95792569D01*
X174568867Y-95794948D01*
X174573453Y-95798013D01*
X174573455Y-95798014D01*
X174573457Y-95798015D01*
X174643451Y-95827007D01*
X174737334Y-95865894D01*
X174737336Y-95865894D01*
X174737341Y-95865896D01*
X174911304Y-95900499D01*
X174911307Y-95900500D01*
X174911309Y-95900500D01*
X175088693Y-95900500D01*
X175088694Y-95900499D01*
X175156313Y-95887049D01*
X175262658Y-95865896D01*
X175262661Y-95865894D01*
X175262666Y-95865894D01*
X175426547Y-95798013D01*
X175431107Y-95794965D01*
X175497783Y-95774086D01*
X175565163Y-95792569D01*
X175568867Y-95794948D01*
X175573453Y-95798013D01*
X175573455Y-95798014D01*
X175573457Y-95798015D01*
X175643451Y-95827007D01*
X175737334Y-95865894D01*
X175737336Y-95865894D01*
X175737341Y-95865896D01*
X175911304Y-95900499D01*
X175911307Y-95900500D01*
X175911309Y-95900500D01*
X176088693Y-95900500D01*
X176088694Y-95900499D01*
X176156313Y-95887049D01*
X176262658Y-95865896D01*
X176262661Y-95865894D01*
X176262666Y-95865894D01*
X176426547Y-95798013D01*
X176431107Y-95794965D01*
X176497783Y-95774086D01*
X176565163Y-95792569D01*
X176568867Y-95794948D01*
X176573453Y-95798013D01*
X176573455Y-95798014D01*
X176573457Y-95798015D01*
X176643451Y-95827007D01*
X176737334Y-95865894D01*
X176737336Y-95865894D01*
X176737341Y-95865896D01*
X176911304Y-95900499D01*
X176911307Y-95900500D01*
X176911309Y-95900500D01*
X177088693Y-95900500D01*
X177088694Y-95900499D01*
X177156313Y-95887049D01*
X177262658Y-95865896D01*
X177262661Y-95865894D01*
X177262666Y-95865894D01*
X177426547Y-95798013D01*
X177431107Y-95794965D01*
X177497783Y-95774086D01*
X177565163Y-95792569D01*
X177568867Y-95794948D01*
X177573453Y-95798013D01*
X177573455Y-95798014D01*
X177573457Y-95798015D01*
X177643451Y-95827007D01*
X177737334Y-95865894D01*
X177737336Y-95865894D01*
X177737341Y-95865896D01*
X177911304Y-95900499D01*
X177911307Y-95900500D01*
X177911309Y-95900500D01*
X178088693Y-95900500D01*
X178088694Y-95900499D01*
X178156313Y-95887049D01*
X178262658Y-95865896D01*
X178262661Y-95865894D01*
X178262666Y-95865894D01*
X178426547Y-95798013D01*
X178431107Y-95794965D01*
X178497783Y-95774086D01*
X178565163Y-95792569D01*
X178568867Y-95794948D01*
X178573453Y-95798013D01*
X178573455Y-95798014D01*
X178573457Y-95798015D01*
X178643451Y-95827007D01*
X178737334Y-95865894D01*
X178737336Y-95865894D01*
X178737341Y-95865896D01*
X178911304Y-95900499D01*
X178911307Y-95900500D01*
X178975500Y-95900500D01*
X179042539Y-95920185D01*
X179088294Y-95972989D01*
X179099500Y-96024500D01*
X179099500Y-96088695D01*
X179134103Y-96262658D01*
X179134106Y-96262667D01*
X179201983Y-96426540D01*
X179201990Y-96426553D01*
X179205037Y-96431113D01*
X179225912Y-96497792D01*
X179207425Y-96565171D01*
X179205037Y-96568887D01*
X179201990Y-96573446D01*
X179201983Y-96573459D01*
X179134106Y-96737332D01*
X179134103Y-96737341D01*
X179099500Y-96911304D01*
X179099500Y-97088695D01*
X179134103Y-97262658D01*
X179134106Y-97262667D01*
X179201983Y-97426540D01*
X179201990Y-97426553D01*
X179205037Y-97431113D01*
X179225912Y-97497792D01*
X179207425Y-97565171D01*
X179205037Y-97568887D01*
X179201990Y-97573446D01*
X179201983Y-97573459D01*
X179134106Y-97737332D01*
X179134103Y-97737341D01*
X179099500Y-97911304D01*
X179099500Y-98088695D01*
X179134103Y-98262658D01*
X179134106Y-98262667D01*
X179201983Y-98426540D01*
X179201990Y-98426553D01*
X179205037Y-98431113D01*
X179225912Y-98497792D01*
X179207425Y-98565171D01*
X179205037Y-98568887D01*
X179201990Y-98573446D01*
X179201983Y-98573459D01*
X179134106Y-98737332D01*
X179134103Y-98737341D01*
X179099500Y-98911304D01*
X179099500Y-99088695D01*
X179134103Y-99262658D01*
X179134106Y-99262667D01*
X179201983Y-99426540D01*
X179201990Y-99426553D01*
X179205037Y-99431113D01*
X179225912Y-99497792D01*
X179207425Y-99565171D01*
X179205037Y-99568887D01*
X179201990Y-99573446D01*
X179201983Y-99573459D01*
X179134106Y-99737332D01*
X179134103Y-99737341D01*
X179099500Y-99911304D01*
X179099500Y-100088695D01*
X179134103Y-100262658D01*
X179134106Y-100262667D01*
X179201983Y-100426540D01*
X179201990Y-100426553D01*
X179205037Y-100431113D01*
X179225912Y-100497792D01*
X179207425Y-100565171D01*
X179205037Y-100568887D01*
X179201990Y-100573446D01*
X179201983Y-100573459D01*
X179134106Y-100737332D01*
X179134103Y-100737341D01*
X179099500Y-100911304D01*
X179099500Y-101088695D01*
X179134103Y-101262658D01*
X179134106Y-101262667D01*
X179201983Y-101426540D01*
X179201990Y-101426553D01*
X179205037Y-101431113D01*
X179225912Y-101497792D01*
X179207425Y-101565171D01*
X179205037Y-101568887D01*
X179201990Y-101573446D01*
X179201983Y-101573459D01*
X179134106Y-101737332D01*
X179134103Y-101737341D01*
X179099500Y-101911304D01*
X179099500Y-102088695D01*
X179134103Y-102262658D01*
X179134106Y-102262667D01*
X179201983Y-102426540D01*
X179201990Y-102426553D01*
X179205037Y-102431113D01*
X179225912Y-102497792D01*
X179207425Y-102565171D01*
X179205037Y-102568887D01*
X179201990Y-102573446D01*
X179201983Y-102573459D01*
X179134106Y-102737332D01*
X179134103Y-102737341D01*
X179101711Y-102900191D01*
X179069326Y-102962102D01*
X179008610Y-102996676D01*
X178980094Y-103000000D01*
X178193699Y-103000000D01*
X178126660Y-102980315D01*
X178080905Y-102927511D01*
X178069699Y-102876000D01*
X178069699Y-102827129D01*
X178069698Y-102827123D01*
X178067458Y-102806287D01*
X178063291Y-102767517D01*
X178061537Y-102762815D01*
X178012997Y-102632671D01*
X178012993Y-102632664D01*
X177926747Y-102517455D01*
X177926744Y-102517452D01*
X177811534Y-102431205D01*
X177809802Y-102430259D01*
X177809187Y-102430187D01*
X177808240Y-102429407D01*
X177803751Y-102426956D01*
X177804220Y-102426095D01*
X177784360Y-102409732D01*
X177758611Y-102390456D01*
X177756869Y-102387082D01*
X177755262Y-102385758D01*
X177750725Y-102375180D01*
X177739807Y-102354028D01*
X177737983Y-102348344D01*
X177729998Y-102311638D01*
X177717536Y-102284352D01*
X177698615Y-102227502D01*
X177679065Y-102197081D01*
X177672453Y-102185458D01*
X177671481Y-102183513D01*
X177670225Y-102180762D01*
X177667826Y-102177029D01*
X177646745Y-102144226D01*
X177632456Y-102121992D01*
X177632452Y-102121987D01*
X177632447Y-102121980D01*
X177631891Y-102121339D01*
X177627990Y-102116606D01*
X177624418Y-102112047D01*
X177620829Y-102106461D01*
X177603527Y-102086493D01*
X177603526Y-102086493D01*
X177598510Y-102080704D01*
X177598508Y-102080701D01*
X177575721Y-102054403D01*
X177575713Y-102054395D01*
X177575067Y-102053650D01*
X177572796Y-102051682D01*
X177571182Y-102050181D01*
X177570698Y-102049366D01*
X177561917Y-102040584D01*
X177538247Y-102013266D01*
X177538244Y-102013263D01*
X177507827Y-101993712D01*
X177507827Y-101993713D01*
X177500364Y-101988916D01*
X177466348Y-101959441D01*
X177425402Y-101940739D01*
X177417939Y-101935943D01*
X177417938Y-101935941D01*
X177417208Y-101935472D01*
X177411176Y-101932718D01*
X177411175Y-101932717D01*
X177365102Y-101911675D01*
X177365056Y-101911656D01*
X177353628Y-101906438D01*
X177347251Y-101904565D01*
X177341870Y-101902422D01*
X177341128Y-101901840D01*
X177336247Y-101900020D01*
X177335472Y-101899666D01*
X177326393Y-101896999D01*
X177316607Y-101894126D01*
X177314635Y-101893547D01*
X177310120Y-101892221D01*
X177310119Y-101892221D01*
X177307663Y-101891500D01*
X177307656Y-101891498D01*
X177268429Y-101879978D01*
X177268410Y-101879974D01*
X177267555Y-101879851D01*
X177250297Y-101876095D01*
X177215617Y-101865912D01*
X177215611Y-101865911D01*
X177179440Y-101865909D01*
X177161808Y-101864647D01*
X177126007Y-101859500D01*
X177126000Y-101859500D01*
X173463600Y-101859500D01*
X173396561Y-101839815D01*
X173350806Y-101787011D01*
X173339600Y-101735500D01*
X173339600Y-101624010D01*
X173339600Y-101624000D01*
X173328047Y-101516544D01*
X173316841Y-101465033D01*
X173316737Y-101464722D01*
X173282716Y-101362502D01*
X173282713Y-101362496D01*
X173207328Y-101245196D01*
X173204925Y-101241457D01*
X173174809Y-101206701D01*
X173159176Y-101188659D01*
X173159172Y-101188656D01*
X173159170Y-101188653D01*
X173050436Y-101094433D01*
X173050433Y-101094431D01*
X173050431Y-101094430D01*
X172919565Y-101034664D01*
X172919560Y-101034662D01*
X172919559Y-101034662D01*
X172852520Y-101014977D01*
X172852522Y-101014977D01*
X172852517Y-101014976D01*
X172790447Y-101006052D01*
X172710100Y-100994500D01*
X171960546Y-100994500D01*
X171960545Y-100994500D01*
X171848690Y-101007031D01*
X171848679Y-101007033D01*
X171795156Y-101019178D01*
X171795149Y-101019181D01*
X171688854Y-101056150D01*
X171688840Y-101056157D01*
X171569217Y-101136091D01*
X171569216Y-101136092D01*
X171526101Y-101174822D01*
X171526090Y-101174833D01*
X171517239Y-101182785D01*
X171517235Y-101182788D01*
X171497107Y-101206873D01*
X171495468Y-101208686D01*
X171467674Y-101225719D01*
X171440568Y-101243833D01*
X171437306Y-101244331D01*
X171435896Y-101245196D01*
X171432174Y-101245116D01*
X171403511Y-101249500D01*
X171377077Y-101249500D01*
X171310038Y-101229815D01*
X171283363Y-101206701D01*
X171267729Y-101188658D01*
X171267726Y-101188655D01*
X171267724Y-101188653D01*
X171158990Y-101094433D01*
X171158987Y-101094431D01*
X171158985Y-101094430D01*
X171028119Y-101034664D01*
X171028114Y-101034662D01*
X171028113Y-101034662D01*
X170961074Y-101014977D01*
X170961076Y-101014977D01*
X170961071Y-101014976D01*
X170899001Y-101006052D01*
X170818654Y-100994500D01*
X164374000Y-100994500D01*
X164373991Y-100994500D01*
X164373990Y-100994501D01*
X164266549Y-101006052D01*
X164266537Y-101006054D01*
X164215027Y-101017260D01*
X164112502Y-101051383D01*
X164112496Y-101051386D01*
X163991462Y-101129171D01*
X163991451Y-101129179D01*
X163938659Y-101174923D01*
X163844433Y-101283664D01*
X163844430Y-101283668D01*
X163784664Y-101414534D01*
X163764976Y-101481582D01*
X163759949Y-101516549D01*
X163744502Y-101623990D01*
X163744500Y-101624001D01*
X163744500Y-102876000D01*
X163724815Y-102943039D01*
X163672011Y-102988794D01*
X163620500Y-103000000D01*
X159100598Y-103000000D01*
X159071157Y-102991355D01*
X159041171Y-102984832D01*
X159036155Y-102981077D01*
X159033559Y-102980315D01*
X159012917Y-102963681D01*
X158937591Y-102888355D01*
X158937589Y-102888352D01*
X158818716Y-102769479D01*
X158813185Y-102766286D01*
X158807171Y-102762813D01*
X158789916Y-102744718D01*
X158769901Y-102729735D01*
X158766221Y-102719869D01*
X158758955Y-102712249D01*
X158754222Y-102687696D01*
X158745485Y-102664270D01*
X158747723Y-102653982D01*
X158745730Y-102643642D01*
X158755023Y-102620426D01*
X158760338Y-102595997D01*
X158769934Y-102583178D01*
X158771696Y-102578777D01*
X158781473Y-102567760D01*
X158812419Y-102536814D01*
X158873741Y-102503332D01*
X158900097Y-102500499D01*
X159547871Y-102500499D01*
X159547872Y-102500499D01*
X159607483Y-102494091D01*
X159742331Y-102443796D01*
X159857546Y-102357546D01*
X159943796Y-102242331D01*
X159994091Y-102107483D01*
X160000500Y-102047873D01*
X160000499Y-100952128D01*
X159994091Y-100892517D01*
X159943796Y-100757669D01*
X159943795Y-100757668D01*
X159943793Y-100757664D01*
X159857547Y-100642455D01*
X159857544Y-100642452D01*
X159742335Y-100556206D01*
X159742328Y-100556202D01*
X159607482Y-100505908D01*
X159607483Y-100505908D01*
X159547883Y-100499501D01*
X159547881Y-100499500D01*
X159547873Y-100499500D01*
X159547864Y-100499500D01*
X158452129Y-100499500D01*
X158452123Y-100499501D01*
X158392516Y-100505908D01*
X158257671Y-100556202D01*
X158257664Y-100556206D01*
X158142455Y-100642452D01*
X158142452Y-100642455D01*
X158056206Y-100757664D01*
X158056202Y-100757671D01*
X158005908Y-100892517D01*
X157999501Y-100952116D01*
X157999501Y-100952123D01*
X157999500Y-100952135D01*
X157999500Y-101599902D01*
X157979815Y-101666941D01*
X157963181Y-101687583D01*
X157687584Y-101963181D01*
X157626261Y-101996666D01*
X157599903Y-101999500D01*
X156595937Y-101999500D01*
X156555018Y-102010464D01*
X156555019Y-102010465D01*
X156518408Y-102020275D01*
X156486314Y-102024500D01*
X156001662Y-102024500D01*
X156001644Y-102024501D01*
X155902292Y-102034650D01*
X155902289Y-102034651D01*
X155741305Y-102087996D01*
X155741294Y-102088001D01*
X155596959Y-102177029D01*
X155596955Y-102177032D01*
X155587681Y-102186307D01*
X155526358Y-102219792D01*
X155456666Y-102214808D01*
X155412319Y-102186307D01*
X155403044Y-102177032D01*
X155403040Y-102177029D01*
X155258705Y-102088001D01*
X155258699Y-102087998D01*
X155258697Y-102087997D01*
X155175686Y-102060490D01*
X155097709Y-102034651D01*
X154998346Y-102024500D01*
X154451662Y-102024500D01*
X154451644Y-102024501D01*
X154352292Y-102034650D01*
X154352289Y-102034651D01*
X154191305Y-102087996D01*
X154191296Y-102088001D01*
X154128779Y-102126561D01*
X154061386Y-102145001D01*
X154016229Y-102135582D01*
X154012667Y-102134106D01*
X154012658Y-102134103D01*
X153838694Y-102099500D01*
X153838691Y-102099500D01*
X153661309Y-102099500D01*
X153661306Y-102099500D01*
X153487341Y-102134103D01*
X153487332Y-102134106D01*
X153323459Y-102201983D01*
X153323446Y-102201990D01*
X153189967Y-102291179D01*
X153123289Y-102312057D01*
X153084187Y-102306463D01*
X153065166Y-102300536D01*
X153002196Y-102280914D01*
X152931616Y-102274500D01*
X152268384Y-102274500D01*
X152249145Y-102276248D01*
X152197807Y-102280913D01*
X152035393Y-102331522D01*
X151889811Y-102419530D01*
X151889810Y-102419531D01*
X151771161Y-102538181D01*
X151709838Y-102571666D01*
X151683480Y-102574500D01*
X151471943Y-102574500D01*
X151319216Y-102615423D01*
X151319209Y-102615426D01*
X151182290Y-102694475D01*
X151182282Y-102694481D01*
X151070481Y-102806282D01*
X151070477Y-102806287D01*
X151052457Y-102837500D01*
X151001890Y-102885716D01*
X150945070Y-102899500D01*
X150252129Y-102899500D01*
X150252123Y-102899501D01*
X150192516Y-102905908D01*
X150057671Y-102956202D01*
X150057668Y-102956204D01*
X150032204Y-102975267D01*
X149966739Y-102999684D01*
X149957893Y-103000000D01*
X144500000Y-103000000D01*
X144500000Y-98453166D01*
X144519685Y-98386127D01*
X144572489Y-98340372D01*
X144641647Y-98330428D01*
X144671451Y-98338604D01*
X144737334Y-98365894D01*
X144737336Y-98365894D01*
X144737341Y-98365896D01*
X144911304Y-98400499D01*
X144911307Y-98400500D01*
X144911309Y-98400500D01*
X145088693Y-98400500D01*
X145088694Y-98400499D01*
X145146682Y-98388964D01*
X145262658Y-98365896D01*
X145262661Y-98365894D01*
X145262666Y-98365894D01*
X145426547Y-98298013D01*
X145431107Y-98294965D01*
X145497783Y-98274086D01*
X145565163Y-98292569D01*
X145568867Y-98294948D01*
X145573453Y-98298013D01*
X145573455Y-98298014D01*
X145573457Y-98298015D01*
X145671452Y-98338605D01*
X145737334Y-98365894D01*
X145737336Y-98365894D01*
X145737341Y-98365896D01*
X145911304Y-98400499D01*
X145911307Y-98400500D01*
X145911309Y-98400500D01*
X146088693Y-98400500D01*
X146088694Y-98400499D01*
X146146682Y-98388964D01*
X146262658Y-98365896D01*
X146262661Y-98365894D01*
X146262666Y-98365894D01*
X146426547Y-98298013D01*
X146431107Y-98294965D01*
X146497783Y-98274086D01*
X146565163Y-98292569D01*
X146568867Y-98294948D01*
X146573453Y-98298013D01*
X146573455Y-98298014D01*
X146573457Y-98298015D01*
X146671452Y-98338605D01*
X146737334Y-98365894D01*
X146737336Y-98365894D01*
X146737341Y-98365896D01*
X146911304Y-98400499D01*
X146911307Y-98400500D01*
X146911309Y-98400500D01*
X147088693Y-98400500D01*
X147088694Y-98400499D01*
X147146682Y-98388964D01*
X147262658Y-98365896D01*
X147262661Y-98365894D01*
X147262666Y-98365894D01*
X147426547Y-98298013D01*
X147574035Y-98199464D01*
X147699464Y-98074035D01*
X147798013Y-97926547D01*
X147865894Y-97762666D01*
X147870932Y-97737341D01*
X147900499Y-97588695D01*
X147900500Y-97588693D01*
X147900500Y-97411306D01*
X147900499Y-97411304D01*
X147865896Y-97237341D01*
X147865893Y-97237332D01*
X147798015Y-97073457D01*
X147798014Y-97073455D01*
X147798013Y-97073453D01*
X147794965Y-97068892D01*
X147774086Y-97002217D01*
X147792569Y-96934837D01*
X147794948Y-96931132D01*
X147798013Y-96926547D01*
X147865894Y-96762666D01*
X147870932Y-96737341D01*
X147900499Y-96588695D01*
X147900500Y-96588693D01*
X147900500Y-96411306D01*
X147900499Y-96411304D01*
X147865896Y-96237341D01*
X147865893Y-96237332D01*
X147798015Y-96073457D01*
X147798014Y-96073455D01*
X147798013Y-96073453D01*
X147794965Y-96068892D01*
X147774086Y-96002217D01*
X147784680Y-95949805D01*
X147789014Y-95940014D01*
X147798013Y-95926547D01*
X147842178Y-95819921D01*
X147842773Y-95818578D01*
X147864415Y-95793005D01*
X147885438Y-95766918D01*
X147886908Y-95766428D01*
X147887910Y-95765245D01*
X147919955Y-95755428D01*
X147951732Y-95744852D01*
X147953233Y-95745235D01*
X147954716Y-95744781D01*
X147986974Y-95753846D01*
G37*
%TD.AperFunction*%
%TD*%
%TA.AperFunction,Conductor*%
%TO.N,GND*%
G36*
X167852464Y-106887667D02*
G01*
X167895759Y-106915127D01*
X167905840Y-106924970D01*
X167905569Y-106925247D01*
X167911797Y-106930906D01*
X167912902Y-106932122D01*
X167930799Y-106943031D01*
X167940568Y-106949643D01*
X167955954Y-106961162D01*
X167961992Y-106965461D01*
X167961993Y-106965461D01*
X167961994Y-106965462D01*
X167974962Y-106969949D01*
X167981633Y-106974016D01*
X167994554Y-106977810D01*
X167994841Y-106976829D01*
X168038060Y-106991786D01*
X168038061Y-106991786D01*
X168044399Y-106993085D01*
X168048662Y-106993698D01*
X168048669Y-106993700D01*
X168092482Y-107000000D01*
X168256470Y-107000000D01*
X168323509Y-107019685D01*
X168365653Y-107065221D01*
X168376885Y-107086085D01*
X168376889Y-107086091D01*
X168420072Y-107141002D01*
X168424788Y-107146715D01*
X168491449Y-107191832D01*
X168557475Y-107214684D01*
X168563722Y-107216680D01*
X168564527Y-107216938D01*
X168644997Y-107218852D01*
X168712897Y-107202379D01*
X168753985Y-107185930D01*
X168858479Y-107125600D01*
X168863956Y-107122286D01*
X168872578Y-107116823D01*
X168872759Y-107116661D01*
X168872808Y-107116631D01*
X168878434Y-107111918D01*
X168888382Y-107104094D01*
X168888383Y-107104096D01*
X168904591Y-107091351D01*
X168935206Y-107054270D01*
X168949067Y-107039991D01*
X168951542Y-107037822D01*
X168951543Y-107037819D01*
X168953895Y-107035758D01*
X169017282Y-107006366D01*
X169035639Y-107005000D01*
X169565705Y-107005000D01*
X169632744Y-107024685D01*
X169651412Y-107039388D01*
X169663230Y-107050691D01*
X169663235Y-107050695D01*
X169667287Y-107053965D01*
X169667025Y-107054289D01*
X169676398Y-107061905D01*
X169679963Y-107065366D01*
X169679967Y-107065368D01*
X169679966Y-107065368D01*
X169696289Y-107073971D01*
X169707984Y-107080982D01*
X169710679Y-107082806D01*
X169721085Y-107089850D01*
X169727321Y-107093858D01*
X169742456Y-107098302D01*
X169751171Y-107102895D01*
X169763421Y-107105676D01*
X169763680Y-107104533D01*
X169804553Y-107116535D01*
X169804557Y-107116536D01*
X169808968Y-107117223D01*
X169815723Y-107117818D01*
X169819292Y-107118364D01*
X169819297Y-107118365D01*
X169863415Y-107121924D01*
X169875805Y-107121151D01*
X169906369Y-107116154D01*
X169925921Y-107110915D01*
X169932229Y-107109225D01*
X169964322Y-107105000D01*
X170060808Y-107105000D01*
X170073154Y-107105616D01*
X170073754Y-107105676D01*
X170092990Y-107107601D01*
X170112599Y-107106378D01*
X170124349Y-107105196D01*
X170142985Y-107102603D01*
X170196076Y-107085067D01*
X170257400Y-107051583D01*
X170292835Y-107025057D01*
X170292837Y-107025054D01*
X170293267Y-107024733D01*
X170358732Y-107000316D01*
X170367578Y-107000000D01*
X170886400Y-107000000D01*
X170953439Y-107019685D01*
X170999194Y-107072489D01*
X171010400Y-107124000D01*
X171010400Y-108126000D01*
X170990715Y-108193039D01*
X170937911Y-108238794D01*
X170886400Y-108250000D01*
X167769400Y-108250000D01*
X167702361Y-108230315D01*
X167656606Y-108177511D01*
X167645400Y-108126000D01*
X167645400Y-107739581D01*
X167645400Y-107739573D01*
X167644070Y-107719277D01*
X167639845Y-107687184D01*
X167635876Y-107667231D01*
X167625269Y-107627648D01*
X167624786Y-107625887D01*
X167623995Y-107623068D01*
X167614725Y-107602438D01*
X167615965Y-107601908D01*
X167604125Y-107574260D01*
X167569581Y-107525751D01*
X167567320Y-107522233D01*
X167563170Y-107516101D01*
X167563168Y-107516098D01*
X167542185Y-107498774D01*
X167537723Y-107494908D01*
X167514076Y-107473411D01*
X167508491Y-107468572D01*
X167508492Y-107468572D01*
X167508489Y-107468570D01*
X167508485Y-107468568D01*
X167506898Y-107467548D01*
X167506308Y-107467230D01*
X167439571Y-107436752D01*
X167439564Y-107436750D01*
X167438172Y-107436114D01*
X167385362Y-107390368D01*
X167365668Y-107323331D01*
X167385343Y-107256289D01*
X167401984Y-107235635D01*
X167721452Y-106916166D01*
X167782773Y-106882683D01*
X167852464Y-106887667D01*
G37*
%TD.AperFunction*%
%TA.AperFunction,Conductor*%
G36*
X155004487Y-102536290D02*
G01*
X155029861Y-102544698D01*
X155055943Y-102556861D01*
X155088709Y-102577071D01*
X155114115Y-102592743D01*
X155126819Y-102601726D01*
X155139023Y-102611560D01*
X155183364Y-102640057D01*
X155183366Y-102640058D01*
X155280015Y-102688437D01*
X155280021Y-102688438D01*
X155280023Y-102688439D01*
X155420595Y-102719018D01*
X155420599Y-102719018D01*
X155420607Y-102719020D01*
X155481576Y-102723380D01*
X155490297Y-102724004D01*
X155490299Y-102724004D01*
X155490300Y-102724004D01*
X155518873Y-102721960D01*
X155541654Y-102720331D01*
X155609927Y-102735183D01*
X155659332Y-102784588D01*
X155674500Y-102844015D01*
X155674500Y-103285636D01*
X155685134Y-103358625D01*
X155685134Y-103358626D01*
X155685135Y-103358628D01*
X155740172Y-103471210D01*
X155828789Y-103559827D01*
X155936572Y-103612518D01*
X155941375Y-103614866D01*
X156014364Y-103625500D01*
X156014370Y-103625500D01*
X156494877Y-103625500D01*
X156524317Y-103634144D01*
X156554304Y-103640668D01*
X156559319Y-103644422D01*
X156561916Y-103645185D01*
X156582558Y-103661819D01*
X156583558Y-103662819D01*
X156617043Y-103724142D01*
X156612059Y-103793834D01*
X156570187Y-103849767D01*
X156504723Y-103874184D01*
X156495877Y-103874500D01*
X156014364Y-103874500D01*
X155941375Y-103885134D01*
X155941373Y-103885134D01*
X155941371Y-103885135D01*
X155828789Y-103940172D01*
X155740172Y-104028789D01*
X155685135Y-104141371D01*
X155685134Y-104141373D01*
X155685134Y-104141375D01*
X155674500Y-104214364D01*
X155674500Y-104785636D01*
X155685134Y-104858625D01*
X155685134Y-104858626D01*
X155685135Y-104858628D01*
X155740172Y-104971210D01*
X155828789Y-105059827D01*
X155950026Y-105119096D01*
X155948912Y-105121373D01*
X155995339Y-105152135D01*
X156023473Y-105216091D01*
X156024500Y-105232020D01*
X156024500Y-105699829D01*
X156062636Y-105791897D01*
X156400930Y-106130191D01*
X156417187Y-106159964D01*
X156433953Y-106189472D01*
X156434009Y-106190770D01*
X156434415Y-106191514D01*
X156437065Y-106224629D01*
X156436278Y-106239032D01*
X156435134Y-106241375D01*
X156424500Y-106314364D01*
X156424500Y-106454885D01*
X156424316Y-106458257D01*
X156413739Y-106488144D01*
X156404815Y-106518539D01*
X156402174Y-106520826D01*
X156401008Y-106524124D01*
X156375948Y-106543552D01*
X156352011Y-106564294D01*
X156348095Y-106565145D01*
X156345789Y-106566934D01*
X156335819Y-106567816D01*
X156300500Y-106575500D01*
X155944509Y-106575500D01*
X155877470Y-106555815D01*
X155831715Y-106503011D01*
X155821771Y-106433853D01*
X155825500Y-106408260D01*
X155825500Y-105941740D01*
X155824981Y-105938181D01*
X155815979Y-105876393D01*
X155815573Y-105873607D01*
X155764198Y-105768517D01*
X155764196Y-105768515D01*
X155764196Y-105768514D01*
X155681485Y-105685803D01*
X155576391Y-105634426D01*
X155508261Y-105624500D01*
X155508260Y-105624500D01*
X155099500Y-105624500D01*
X155032461Y-105604815D01*
X154986706Y-105552011D01*
X154975500Y-105500500D01*
X154975500Y-105232020D01*
X154995185Y-105164981D01*
X155047989Y-105119226D01*
X155055779Y-105116257D01*
X155058624Y-105114866D01*
X155058625Y-105114866D01*
X155122534Y-105083623D01*
X155171210Y-105059827D01*
X155259827Y-104971210D01*
X155302252Y-104884427D01*
X155314866Y-104858625D01*
X155325500Y-104785636D01*
X155325500Y-104214364D01*
X155314866Y-104141375D01*
X155282961Y-104076112D01*
X155259827Y-104028789D01*
X155171210Y-103940172D01*
X155058628Y-103885135D01*
X155058626Y-103885134D01*
X155058625Y-103885134D01*
X154985636Y-103874500D01*
X154464364Y-103874500D01*
X154391375Y-103885134D01*
X154391373Y-103885134D01*
X154391371Y-103885135D01*
X154278790Y-103940172D01*
X154272029Y-103945000D01*
X154206031Y-103967933D01*
X154138110Y-103951544D01*
X154112297Y-103931762D01*
X154052054Y-103871519D01*
X154052046Y-103871513D01*
X153958453Y-103817478D01*
X153958450Y-103817476D01*
X153958447Y-103817475D01*
X153854043Y-103789500D01*
X153745957Y-103789500D01*
X153641553Y-103817475D01*
X153641551Y-103817475D01*
X153641551Y-103817476D01*
X153641546Y-103817478D01*
X153547953Y-103871513D01*
X153547945Y-103871519D01*
X153471519Y-103947945D01*
X153471513Y-103947953D01*
X153417478Y-104041546D01*
X153417475Y-104041551D01*
X153417475Y-104041553D01*
X153389500Y-104145957D01*
X153389500Y-104145959D01*
X153389500Y-104204876D01*
X153380855Y-104234313D01*
X153374332Y-104264304D01*
X153370576Y-104269320D01*
X153369815Y-104271915D01*
X153353185Y-104292552D01*
X153317746Y-104327992D01*
X153283390Y-104362348D01*
X153222066Y-104395832D01*
X153152375Y-104390847D01*
X153108028Y-104362347D01*
X153081483Y-104335802D01*
X152976393Y-104284427D01*
X152976391Y-104284426D01*
X152908261Y-104274500D01*
X152908260Y-104274500D01*
X152455122Y-104274500D01*
X152388083Y-104254815D01*
X152367441Y-104238181D01*
X152102647Y-103973387D01*
X151816897Y-103687636D01*
X151724829Y-103649500D01*
X151724828Y-103649500D01*
X151574500Y-103649500D01*
X151507461Y-103629815D01*
X151461706Y-103577011D01*
X151450500Y-103525500D01*
X151450500Y-103385177D01*
X151441768Y-103341282D01*
X151441767Y-103341281D01*
X151441767Y-103341278D01*
X151423336Y-103313694D01*
X151415974Y-103290182D01*
X151404681Y-103268280D01*
X151405717Y-103257423D01*
X151402459Y-103247018D01*
X151408977Y-103223258D01*
X151411318Y-103198727D01*
X151419682Y-103184237D01*
X151420944Y-103179638D01*
X151428958Y-103168166D01*
X151444562Y-103148322D01*
X151454338Y-103137308D01*
X151475330Y-103116317D01*
X151536654Y-103082833D01*
X151563009Y-103080000D01*
X151683482Y-103080000D01*
X151693628Y-103079455D01*
X151737520Y-103077103D01*
X151737528Y-103077102D01*
X151737530Y-103077102D01*
X151737531Y-103077102D01*
X151744524Y-103076349D01*
X151763878Y-103074269D01*
X151763888Y-103074267D01*
X151763891Y-103074267D01*
X151773490Y-103072711D01*
X151817290Y-103065614D01*
X151952099Y-103015332D01*
X152003692Y-102987159D01*
X152009983Y-102984421D01*
X152013419Y-102981848D01*
X152013422Y-102981847D01*
X152013423Y-102981847D01*
X152128605Y-102895622D01*
X152193213Y-102831012D01*
X152216735Y-102812584D01*
X152231499Y-102803658D01*
X152258756Y-102791392D01*
X152277306Y-102785612D01*
X152314189Y-102780000D01*
X152885808Y-102780000D01*
X152922698Y-102785615D01*
X152933798Y-102789074D01*
X152933800Y-102789074D01*
X152933802Y-102789075D01*
X152957658Y-102794462D01*
X153012583Y-102806865D01*
X153012588Y-102806865D01*
X153012598Y-102806868D01*
X153051700Y-102812462D01*
X153132310Y-102817476D01*
X153248104Y-102798712D01*
X153274333Y-102794463D01*
X153274334Y-102794462D01*
X153274338Y-102794462D01*
X153322196Y-102779476D01*
X153337561Y-102774666D01*
X153339624Y-102774085D01*
X153341005Y-102773587D01*
X153341016Y-102773584D01*
X153341020Y-102773583D01*
X153470810Y-102711485D01*
X153552745Y-102656736D01*
X153574172Y-102645282D01*
X153623509Y-102624847D01*
X153646761Y-102617795D01*
X153678124Y-102611557D01*
X153699116Y-102607382D01*
X153723304Y-102605000D01*
X153776689Y-102605000D01*
X153800878Y-102607381D01*
X153821884Y-102611560D01*
X153899939Y-102627085D01*
X153912306Y-102630214D01*
X153913012Y-102630432D01*
X153913020Y-102630433D01*
X153913021Y-102630434D01*
X153918314Y-102631538D01*
X153958169Y-102639851D01*
X154052026Y-102650414D01*
X154194796Y-102632579D01*
X154262189Y-102614139D01*
X154394147Y-102556805D01*
X154394152Y-102556801D01*
X154398076Y-102554753D01*
X154398175Y-102554943D01*
X154420139Y-102544697D01*
X154445507Y-102536291D01*
X154484505Y-102530000D01*
X154965495Y-102530000D01*
X155004487Y-102536290D01*
G37*
%TD.AperFunction*%
%TA.AperFunction,Conductor*%
G36*
X157080703Y-104160409D02*
G01*
X157087181Y-104166441D01*
X157229565Y-104308825D01*
X157229568Y-104308829D01*
X157307104Y-104386365D01*
X157328027Y-104395031D01*
X157343176Y-104401305D01*
X157343178Y-104401307D01*
X157343179Y-104401307D01*
X157399173Y-104424501D01*
X157399174Y-104424501D01*
X157513262Y-104424501D01*
X157513270Y-104424500D01*
X158362739Y-104424500D01*
X158378605Y-104425519D01*
X158394956Y-104427628D01*
X158396240Y-104428160D01*
X158450173Y-104450501D01*
X158549828Y-104450501D01*
X158549830Y-104450500D01*
X158677307Y-104450500D01*
X158744346Y-104470185D01*
X158790101Y-104522989D01*
X158801307Y-104574500D01*
X158801307Y-104679520D01*
X158781622Y-104746559D01*
X158728818Y-104792314D01*
X158709402Y-104799294D01*
X158641557Y-104817473D01*
X158641546Y-104817478D01*
X158547953Y-104871513D01*
X158547945Y-104871519D01*
X158471519Y-104947945D01*
X158471513Y-104947953D01*
X158417478Y-105041546D01*
X158417475Y-105041551D01*
X158417475Y-105041553D01*
X158389500Y-105145957D01*
X158389500Y-105254043D01*
X158417475Y-105358447D01*
X158417476Y-105358448D01*
X158417476Y-105358449D01*
X158447530Y-105410504D01*
X158464003Y-105478404D01*
X158441150Y-105544431D01*
X158386229Y-105587622D01*
X158340143Y-105596504D01*
X157728166Y-105596504D01*
X157636098Y-105634640D01*
X157332557Y-105938181D01*
X157305629Y-105952884D01*
X157279811Y-105969477D01*
X157273610Y-105970368D01*
X157271234Y-105971666D01*
X157244876Y-105974500D01*
X157005123Y-105974500D01*
X156938084Y-105954815D01*
X156917442Y-105938181D01*
X156561819Y-105582558D01*
X156528334Y-105521235D01*
X156525500Y-105494877D01*
X156525500Y-105232020D01*
X156545185Y-105164981D01*
X156597989Y-105119226D01*
X156605779Y-105116257D01*
X156608624Y-105114866D01*
X156608625Y-105114866D01*
X156672534Y-105083623D01*
X156721210Y-105059827D01*
X156809827Y-104971210D01*
X156852252Y-104884427D01*
X156864866Y-104858625D01*
X156875500Y-104785636D01*
X156875500Y-104254122D01*
X156895185Y-104187083D01*
X156947989Y-104141328D01*
X157017147Y-104131384D01*
X157080703Y-104160409D01*
G37*
%TD.AperFunction*%
%TA.AperFunction,Conductor*%
G36*
X181642539Y-91320185D02*
G01*
X181688294Y-91372989D01*
X181699500Y-91424500D01*
X181699500Y-107787283D01*
X181694440Y-107804515D01*
X181694401Y-107822477D01*
X181684800Y-107837345D01*
X181679815Y-107854322D01*
X181666243Y-107866081D01*
X181656499Y-107881172D01*
X181640383Y-107888489D01*
X181627011Y-107900077D01*
X181609234Y-107902633D01*
X181592880Y-107910059D01*
X181558116Y-107909983D01*
X181557853Y-107910021D01*
X181557586Y-107909982D01*
X181556586Y-107909836D01*
X181493094Y-107880673D01*
X181455447Y-107821813D01*
X181450500Y-107787137D01*
X181450500Y-107325173D01*
X181450499Y-107325170D01*
X181449596Y-107322989D01*
X181412364Y-107233103D01*
X181411819Y-107232558D01*
X181411011Y-107231080D01*
X181405579Y-107222949D01*
X181406306Y-107222462D01*
X181378334Y-107171235D01*
X181375500Y-107144877D01*
X181375500Y-106691739D01*
X181365573Y-106623608D01*
X181365573Y-106623607D01*
X181314198Y-106518517D01*
X181314196Y-106518515D01*
X181314196Y-106518514D01*
X181231485Y-106435803D01*
X181126391Y-106384426D01*
X181058261Y-106374500D01*
X181058260Y-106374500D01*
X180591740Y-106374500D01*
X180591739Y-106374500D01*
X180523608Y-106384426D01*
X180418514Y-106435803D01*
X180335803Y-106518514D01*
X180284426Y-106623608D01*
X180274500Y-106691739D01*
X180274500Y-107308260D01*
X180284426Y-107376391D01*
X180335803Y-107481485D01*
X180418514Y-107564196D01*
X180418515Y-107564196D01*
X180418517Y-107564198D01*
X180523607Y-107615573D01*
X180547142Y-107619002D01*
X180591739Y-107625500D01*
X180591740Y-107625500D01*
X180825500Y-107625500D01*
X180834185Y-107628050D01*
X180843147Y-107626762D01*
X180867187Y-107637740D01*
X180892539Y-107645185D01*
X180898466Y-107652025D01*
X180906703Y-107655787D01*
X180920992Y-107678021D01*
X180938294Y-107697989D01*
X180940581Y-107708503D01*
X180944477Y-107714565D01*
X180949500Y-107749500D01*
X180949500Y-107787137D01*
X180929815Y-107854176D01*
X180877011Y-107899931D01*
X180843386Y-107909840D01*
X180841378Y-107910132D01*
X180841372Y-107910134D01*
X180728789Y-107965172D01*
X180640172Y-108053789D01*
X180585135Y-108166371D01*
X180585134Y-108166373D01*
X180585134Y-108166375D01*
X180574500Y-108239364D01*
X180574500Y-108760636D01*
X180585134Y-108833625D01*
X180585134Y-108833626D01*
X180585135Y-108833628D01*
X180640172Y-108946210D01*
X180728789Y-109034827D01*
X180819758Y-109079298D01*
X180841375Y-109089866D01*
X180914364Y-109100500D01*
X180914370Y-109100500D01*
X181485630Y-109100500D01*
X181485636Y-109100500D01*
X181557626Y-109090011D01*
X181626800Y-109099825D01*
X181679689Y-109145481D01*
X181699500Y-109212483D01*
X181699500Y-152575500D01*
X181679815Y-152642539D01*
X181627011Y-152688294D01*
X181575500Y-152699500D01*
X137424500Y-152699500D01*
X137357461Y-152679815D01*
X137311706Y-152627011D01*
X137300500Y-152575500D01*
X137300500Y-148878048D01*
X139139500Y-148878048D01*
X139139500Y-149121951D01*
X139166013Y-149323333D01*
X139171334Y-149363744D01*
X139171335Y-149363746D01*
X139234456Y-149599320D01*
X139234459Y-149599330D01*
X139327786Y-149824640D01*
X139327791Y-149824651D01*
X139449727Y-150035848D01*
X139449738Y-150035864D01*
X139598199Y-150229343D01*
X139598205Y-150229350D01*
X139770649Y-150401794D01*
X139770656Y-150401800D01*
X139908431Y-150507518D01*
X139964144Y-150550268D01*
X139964151Y-150550272D01*
X140175348Y-150672208D01*
X140175353Y-150672210D01*
X140175356Y-150672212D01*
X140281869Y-150716331D01*
X140383762Y-150758537D01*
X140400679Y-150765544D01*
X140636256Y-150828666D01*
X140878056Y-150860500D01*
X140878063Y-150860500D01*
X141121937Y-150860500D01*
X141121944Y-150860500D01*
X141363744Y-150828666D01*
X141599321Y-150765544D01*
X141824644Y-150672212D01*
X142035856Y-150550268D01*
X142229345Y-150401799D01*
X142401799Y-150229345D01*
X142550268Y-150035856D01*
X142672212Y-149824644D01*
X142765544Y-149599321D01*
X142828666Y-149363744D01*
X142860500Y-149121944D01*
X142860500Y-148878056D01*
X142828666Y-148636256D01*
X142765544Y-148400679D01*
X142672212Y-148175356D01*
X142672210Y-148175353D01*
X142672208Y-148175348D01*
X142550272Y-147964151D01*
X142550268Y-147964144D01*
X142401799Y-147770655D01*
X142401794Y-147770649D01*
X142229350Y-147598205D01*
X142229343Y-147598199D01*
X142035864Y-147449738D01*
X142035862Y-147449736D01*
X142035856Y-147449732D01*
X142035851Y-147449729D01*
X142035848Y-147449727D01*
X141824651Y-147327791D01*
X141824640Y-147327786D01*
X141599330Y-147234459D01*
X141599323Y-147234457D01*
X141599321Y-147234456D01*
X141363744Y-147171334D01*
X141323333Y-147166013D01*
X141121951Y-147139500D01*
X141121944Y-147139500D01*
X140878056Y-147139500D01*
X140878048Y-147139500D01*
X140647896Y-147169801D01*
X140636256Y-147171334D01*
X140400679Y-147234456D01*
X140400669Y-147234459D01*
X140175359Y-147327786D01*
X140175348Y-147327791D01*
X139964151Y-147449727D01*
X139964135Y-147449738D01*
X139770656Y-147598199D01*
X139770649Y-147598205D01*
X139598205Y-147770649D01*
X139598199Y-147770656D01*
X139449738Y-147964135D01*
X139449727Y-147964151D01*
X139327791Y-148175348D01*
X139327786Y-148175359D01*
X139234459Y-148400669D01*
X139234456Y-148400679D01*
X139171335Y-148636253D01*
X139171333Y-148636264D01*
X139139500Y-148878048D01*
X137300500Y-148878048D01*
X137300500Y-143913389D01*
X142899500Y-143913389D01*
X142899500Y-144086611D01*
X142926598Y-144257701D01*
X142980127Y-144422445D01*
X143058768Y-144576788D01*
X143160586Y-144716928D01*
X143283072Y-144839414D01*
X143423212Y-144941232D01*
X143577555Y-145019873D01*
X143742299Y-145073402D01*
X143913389Y-145100500D01*
X143913390Y-145100500D01*
X144086610Y-145100500D01*
X144086611Y-145100500D01*
X144257701Y-145073402D01*
X144422445Y-145019873D01*
X144576788Y-144941232D01*
X144716928Y-144839414D01*
X144839414Y-144716928D01*
X144941232Y-144576788D01*
X145019873Y-144422445D01*
X145073402Y-144257701D01*
X145100500Y-144086611D01*
X145100500Y-143913389D01*
X145073402Y-143742299D01*
X145019873Y-143577555D01*
X144941232Y-143423212D01*
X144839414Y-143283072D01*
X144716928Y-143160586D01*
X144576788Y-143058768D01*
X144422445Y-142980127D01*
X144257701Y-142926598D01*
X144257699Y-142926597D01*
X144257698Y-142926597D01*
X144126271Y-142905781D01*
X144086611Y-142899500D01*
X143913389Y-142899500D01*
X143873728Y-142905781D01*
X143742302Y-142926597D01*
X143577552Y-142980128D01*
X143423211Y-143058768D01*
X143343256Y-143116859D01*
X143283072Y-143160586D01*
X143283070Y-143160588D01*
X143283069Y-143160588D01*
X143160588Y-143283069D01*
X143160588Y-143283070D01*
X143160586Y-143283072D01*
X143116859Y-143343256D01*
X143058768Y-143423211D01*
X142980128Y-143577552D01*
X142926597Y-143742302D01*
X142899500Y-143913389D01*
X137300500Y-143913389D01*
X137300500Y-103123996D01*
X139594500Y-103123996D01*
X139594500Y-109876008D01*
X139598054Y-109909055D01*
X139609260Y-109960566D01*
X139643686Y-110029342D01*
X139689436Y-110082139D01*
X139694422Y-110087623D01*
X139763145Y-110129513D01*
X139763150Y-110129516D01*
X139830189Y-110149201D01*
X139874000Y-110155500D01*
X139874003Y-110155500D01*
X148125991Y-110155500D01*
X148126000Y-110155500D01*
X148159055Y-110151946D01*
X148210566Y-110140740D01*
X148279342Y-110106313D01*
X148332146Y-110060558D01*
X148337621Y-110055580D01*
X148379516Y-109986850D01*
X148399201Y-109919811D01*
X148405500Y-109876000D01*
X148405500Y-105679886D01*
X148404609Y-105663263D01*
X148404128Y-105658792D01*
X148401775Y-105636904D01*
X148401774Y-105636902D01*
X148400999Y-105634426D01*
X148383645Y-105579005D01*
X148375004Y-105563181D01*
X148350163Y-105517687D01*
X148350159Y-105517681D01*
X148323641Y-105482256D01*
X148323628Y-105482241D01*
X148295463Y-105454076D01*
X148275757Y-105428395D01*
X148240082Y-105366604D01*
X148227694Y-105336697D01*
X148209225Y-105267769D01*
X148205000Y-105235676D01*
X148205000Y-105164322D01*
X148209225Y-105132229D01*
X148227694Y-105063300D01*
X148240080Y-105033397D01*
X148275758Y-104971599D01*
X148295464Y-104945920D01*
X148323635Y-104917751D01*
X148334761Y-104905365D01*
X148351395Y-104884723D01*
X148379516Y-104830964D01*
X148383478Y-104817473D01*
X148385605Y-104810224D01*
X148399201Y-104763925D01*
X148405500Y-104720114D01*
X148405500Y-103629500D01*
X148425185Y-103562461D01*
X148477989Y-103516706D01*
X148529500Y-103505500D01*
X149957912Y-103505500D01*
X149975895Y-103505179D01*
X149975906Y-103505178D01*
X149975939Y-103505178D01*
X149984785Y-103504862D01*
X150002800Y-103503896D01*
X150002807Y-103503894D01*
X150007738Y-103503231D01*
X150008021Y-103505337D01*
X150068782Y-103509656D01*
X150124734Y-103551503D01*
X150149180Y-103616956D01*
X150149500Y-103625857D01*
X150149500Y-104414820D01*
X150149500Y-104414822D01*
X150149499Y-104414822D01*
X150158231Y-104458717D01*
X150158234Y-104458724D01*
X150191493Y-104508500D01*
X150191496Y-104508504D01*
X150241278Y-104541767D01*
X150241281Y-104541767D01*
X150241282Y-104541768D01*
X150285177Y-104550500D01*
X150285180Y-104550500D01*
X151314822Y-104550500D01*
X151358717Y-104541768D01*
X151358717Y-104541767D01*
X151358722Y-104541767D01*
X151408504Y-104508504D01*
X151441767Y-104458722D01*
X151441768Y-104458717D01*
X151450500Y-104414822D01*
X151450500Y-104329123D01*
X151470185Y-104262084D01*
X151522989Y-104216329D01*
X151592147Y-104206385D01*
X151655703Y-104235410D01*
X151662181Y-104241442D01*
X151938181Y-104517442D01*
X151971666Y-104578765D01*
X151974500Y-104605123D01*
X151974500Y-105058260D01*
X151978195Y-105083625D01*
X151968382Y-105152800D01*
X151922726Y-105205689D01*
X151855724Y-105225500D01*
X150974170Y-105225500D01*
X150882102Y-105263636D01*
X150882101Y-105263637D01*
X149832558Y-106313181D01*
X149771235Y-106346666D01*
X149744877Y-106349500D01*
X148985178Y-106349500D01*
X148941282Y-106358231D01*
X148941275Y-106358234D01*
X148891496Y-106391495D01*
X148891495Y-106391496D01*
X148858234Y-106441275D01*
X148858231Y-106441282D01*
X148849500Y-106485177D01*
X148849500Y-106485180D01*
X148849500Y-107514820D01*
X148849500Y-107514822D01*
X148849499Y-107514822D01*
X148858231Y-107558717D01*
X148858234Y-107558724D01*
X148887362Y-107602317D01*
X148891496Y-107608504D01*
X148941278Y-107641767D01*
X148941281Y-107641767D01*
X148941282Y-107641768D01*
X148985177Y-107650500D01*
X148985180Y-107650500D01*
X150014822Y-107650500D01*
X150058717Y-107641768D01*
X150058717Y-107641767D01*
X150058722Y-107641767D01*
X150108504Y-107608504D01*
X150141767Y-107558722D01*
X150147604Y-107529378D01*
X150150500Y-107514822D01*
X150150500Y-106755123D01*
X150170185Y-106688084D01*
X150186819Y-106667442D01*
X151091442Y-105762819D01*
X151118369Y-105748115D01*
X151144188Y-105731523D01*
X151150388Y-105730631D01*
X151152765Y-105729334D01*
X151179123Y-105726500D01*
X151312138Y-105726500D01*
X151379177Y-105746185D01*
X151424932Y-105798989D01*
X151434875Y-105868146D01*
X151424500Y-105939364D01*
X151424500Y-106510636D01*
X151431064Y-106555689D01*
X151435134Y-106583627D01*
X151486900Y-106689514D01*
X151499500Y-106743975D01*
X151499500Y-107000500D01*
X151479815Y-107067539D01*
X151427011Y-107113294D01*
X151375500Y-107124500D01*
X151291739Y-107124500D01*
X151223608Y-107134426D01*
X151118514Y-107185803D01*
X151035803Y-107268514D01*
X150984426Y-107373608D01*
X150975227Y-107436750D01*
X150974500Y-107441740D01*
X150974500Y-107908260D01*
X150978307Y-107934391D01*
X150982837Y-107965482D01*
X150973022Y-108034659D01*
X150927366Y-108087548D01*
X150873389Y-108106647D01*
X150816546Y-108112758D01*
X150816537Y-108112760D01*
X150765027Y-108123966D01*
X150662502Y-108158089D01*
X150662496Y-108158092D01*
X150541462Y-108235877D01*
X150541451Y-108235885D01*
X150488659Y-108281629D01*
X150394433Y-108390370D01*
X150394430Y-108390374D01*
X150334664Y-108521240D01*
X150314976Y-108588288D01*
X150294500Y-108730707D01*
X150294500Y-113120500D01*
X150274815Y-113187539D01*
X150222011Y-113233294D01*
X150170500Y-113244500D01*
X147374000Y-113244500D01*
X147373991Y-113244500D01*
X147373990Y-113244501D01*
X147266549Y-113256052D01*
X147266537Y-113256054D01*
X147215027Y-113267260D01*
X147112502Y-113301383D01*
X147112496Y-113301386D01*
X146991462Y-113379171D01*
X146991451Y-113379179D01*
X146938659Y-113424923D01*
X146844433Y-113533664D01*
X146844430Y-113533668D01*
X146784664Y-113664534D01*
X146764976Y-113731582D01*
X146759949Y-113766549D01*
X146744500Y-113874000D01*
X146744500Y-150376000D01*
X146744501Y-150376009D01*
X146756052Y-150483450D01*
X146756054Y-150483462D01*
X146767260Y-150534972D01*
X146801383Y-150637497D01*
X146801386Y-150637503D01*
X146879171Y-150758537D01*
X146879179Y-150758548D01*
X146924923Y-150811340D01*
X146924926Y-150811343D01*
X146924930Y-150811347D01*
X147033664Y-150905567D01*
X147033667Y-150905568D01*
X147033668Y-150905569D01*
X147127925Y-150948616D01*
X147164541Y-150965338D01*
X147231580Y-150985023D01*
X147231584Y-150985024D01*
X147374000Y-151005500D01*
X147374003Y-151005500D01*
X158125990Y-151005500D01*
X158126000Y-151005500D01*
X158233456Y-150993947D01*
X158284967Y-150982741D01*
X158319197Y-150971347D01*
X158387497Y-150948616D01*
X158387501Y-150948613D01*
X158387504Y-150948613D01*
X158442313Y-150913389D01*
X171899500Y-150913389D01*
X171899500Y-151086611D01*
X171926598Y-151257701D01*
X171980127Y-151422445D01*
X172058768Y-151576788D01*
X172160586Y-151716928D01*
X172283072Y-151839414D01*
X172423212Y-151941232D01*
X172577555Y-152019873D01*
X172742299Y-152073402D01*
X172913389Y-152100500D01*
X172913390Y-152100500D01*
X173086610Y-152100500D01*
X173086611Y-152100500D01*
X173257701Y-152073402D01*
X173422445Y-152019873D01*
X173576788Y-151941232D01*
X173716928Y-151839414D01*
X173839414Y-151716928D01*
X173941232Y-151576788D01*
X174019873Y-151422445D01*
X174073402Y-151257701D01*
X174100500Y-151086611D01*
X174100500Y-150913389D01*
X174073402Y-150742299D01*
X174019873Y-150577555D01*
X173941232Y-150423212D01*
X173839414Y-150283072D01*
X173716928Y-150160586D01*
X173576788Y-150058768D01*
X173422445Y-149980127D01*
X173257701Y-149926598D01*
X173257699Y-149926597D01*
X173257698Y-149926597D01*
X173126271Y-149905781D01*
X173086611Y-149899500D01*
X172913389Y-149899500D01*
X172873728Y-149905781D01*
X172742302Y-149926597D01*
X172577552Y-149980128D01*
X172423211Y-150058768D01*
X172343256Y-150116859D01*
X172283072Y-150160586D01*
X172283070Y-150160588D01*
X172283069Y-150160588D01*
X172160588Y-150283069D01*
X172160588Y-150283070D01*
X172160586Y-150283072D01*
X172116859Y-150343256D01*
X172058768Y-150423211D01*
X171980128Y-150577552D01*
X171926597Y-150742302D01*
X171912919Y-150828664D01*
X171899500Y-150913389D01*
X158442313Y-150913389D01*
X158508543Y-150870825D01*
X158561347Y-150825070D01*
X158655567Y-150716336D01*
X158715338Y-150585459D01*
X158735023Y-150518420D01*
X158735024Y-150518416D01*
X158755500Y-150376000D01*
X158755500Y-148878048D01*
X176139500Y-148878048D01*
X176139500Y-149121951D01*
X176166013Y-149323333D01*
X176171334Y-149363744D01*
X176171335Y-149363746D01*
X176234456Y-149599320D01*
X176234459Y-149599330D01*
X176327786Y-149824640D01*
X176327791Y-149824651D01*
X176449727Y-150035848D01*
X176449738Y-150035864D01*
X176598199Y-150229343D01*
X176598205Y-150229350D01*
X176770649Y-150401794D01*
X176770656Y-150401800D01*
X176908431Y-150507518D01*
X176964144Y-150550268D01*
X176964151Y-150550272D01*
X177175348Y-150672208D01*
X177175353Y-150672210D01*
X177175356Y-150672212D01*
X177281869Y-150716331D01*
X177383762Y-150758537D01*
X177400679Y-150765544D01*
X177636256Y-150828666D01*
X177878056Y-150860500D01*
X177878063Y-150860500D01*
X178121937Y-150860500D01*
X178121944Y-150860500D01*
X178363744Y-150828666D01*
X178599321Y-150765544D01*
X178824644Y-150672212D01*
X179035856Y-150550268D01*
X179229345Y-150401799D01*
X179401799Y-150229345D01*
X179550268Y-150035856D01*
X179672212Y-149824644D01*
X179765544Y-149599321D01*
X179828666Y-149363744D01*
X179860500Y-149121944D01*
X179860500Y-148878056D01*
X179828666Y-148636256D01*
X179765544Y-148400679D01*
X179672212Y-148175356D01*
X179672210Y-148175353D01*
X179672208Y-148175348D01*
X179550272Y-147964151D01*
X179550268Y-147964144D01*
X179401799Y-147770655D01*
X179401794Y-147770649D01*
X179229350Y-147598205D01*
X179229343Y-147598199D01*
X179035864Y-147449738D01*
X179035862Y-147449736D01*
X179035856Y-147449732D01*
X179035851Y-147449729D01*
X179035848Y-147449727D01*
X178824651Y-147327791D01*
X178824640Y-147327786D01*
X178599330Y-147234459D01*
X178599323Y-147234457D01*
X178599321Y-147234456D01*
X178363744Y-147171334D01*
X178323333Y-147166013D01*
X178121951Y-147139500D01*
X178121944Y-147139500D01*
X177878056Y-147139500D01*
X177878048Y-147139500D01*
X177647896Y-147169801D01*
X177636256Y-147171334D01*
X177400679Y-147234456D01*
X177400669Y-147234459D01*
X177175359Y-147327786D01*
X177175348Y-147327791D01*
X176964151Y-147449727D01*
X176964135Y-147449738D01*
X176770656Y-147598199D01*
X176770649Y-147598205D01*
X176598205Y-147770649D01*
X176598199Y-147770656D01*
X176449738Y-147964135D01*
X176449727Y-147964151D01*
X176327791Y-148175348D01*
X176327786Y-148175359D01*
X176234459Y-148400669D01*
X176234456Y-148400679D01*
X176171335Y-148636253D01*
X176171333Y-148636264D01*
X176139500Y-148878048D01*
X158755500Y-148878048D01*
X158755500Y-113874000D01*
X158743947Y-113766544D01*
X158732741Y-113715033D01*
X158698613Y-113612496D01*
X158620825Y-113491457D01*
X158620820Y-113491451D01*
X158575076Y-113438659D01*
X158575072Y-113438656D01*
X158575070Y-113438653D01*
X158466336Y-113344433D01*
X158466333Y-113344431D01*
X158466331Y-113344430D01*
X158335465Y-113284664D01*
X158335460Y-113284662D01*
X158335459Y-113284662D01*
X158268420Y-113264977D01*
X158268422Y-113264977D01*
X158268417Y-113264976D01*
X158206347Y-113256052D01*
X158126000Y-113244500D01*
X158045594Y-113244500D01*
X158031815Y-113245856D01*
X157946997Y-113254208D01*
X157946992Y-113254209D01*
X157925993Y-113258385D01*
X157919600Y-113259789D01*
X157899971Y-113261575D01*
X157890352Y-113263862D01*
X157867728Y-113271185D01*
X157861850Y-113272477D01*
X157861475Y-113272451D01*
X157859440Y-113272981D01*
X157821915Y-113280446D01*
X157821916Y-113280447D01*
X157821911Y-113280448D01*
X157821785Y-113280473D01*
X157760736Y-113292617D01*
X157736544Y-113295000D01*
X157663460Y-113295000D01*
X157639268Y-113292617D01*
X157540566Y-113272983D01*
X157526567Y-113269338D01*
X157509680Y-113263871D01*
X157509648Y-113263862D01*
X157500047Y-113261579D01*
X157441996Y-113251308D01*
X157413303Y-113247942D01*
X157389740Y-113246565D01*
X157354406Y-113244500D01*
X157354397Y-113244500D01*
X154829500Y-113244500D01*
X154762461Y-113224815D01*
X154716706Y-113172011D01*
X154705500Y-113120500D01*
X154705500Y-112474500D01*
X154725185Y-112407461D01*
X154777989Y-112361706D01*
X154829500Y-112350500D01*
X155714822Y-112350500D01*
X155758717Y-112341768D01*
X155758717Y-112341767D01*
X155758722Y-112341767D01*
X155808504Y-112308504D01*
X155841767Y-112258722D01*
X155850500Y-112214820D01*
X155850500Y-111185180D01*
X155850500Y-111185177D01*
X155841768Y-111141282D01*
X155841767Y-111141281D01*
X155841767Y-111141278D01*
X155808504Y-111091496D01*
X155784431Y-111075411D01*
X155739626Y-111021798D01*
X155730919Y-110952473D01*
X155745936Y-110910307D01*
X155756656Y-110891740D01*
X155769799Y-110868976D01*
X155800500Y-110754399D01*
X155800500Y-110635781D01*
X155769799Y-110521204D01*
X155710489Y-110418477D01*
X155626613Y-110334601D01*
X155523886Y-110275291D01*
X155409309Y-110244590D01*
X155290691Y-110244590D01*
X155176114Y-110275291D01*
X155176112Y-110275291D01*
X155176112Y-110275292D01*
X155073387Y-110334601D01*
X155073384Y-110334603D01*
X154989513Y-110418474D01*
X154989507Y-110418483D01*
X154936886Y-110509623D01*
X154886319Y-110557838D01*
X154817712Y-110571060D01*
X154752847Y-110545092D01*
X154712319Y-110488177D01*
X154705500Y-110447622D01*
X154705500Y-109425595D01*
X154704237Y-109402046D01*
X154702603Y-109371556D01*
X154699769Y-109345199D01*
X154695643Y-109319740D01*
X154691114Y-109291790D01*
X154689555Y-109285899D01*
X154691275Y-109285443D01*
X154686894Y-109224135D01*
X154720383Y-109162814D01*
X154781708Y-109129332D01*
X154808059Y-109126500D01*
X156995877Y-109126500D01*
X157062916Y-109146185D01*
X157083558Y-109162819D01*
X157438181Y-109517441D01*
X157471666Y-109578764D01*
X157474500Y-109605122D01*
X157474500Y-110058260D01*
X157484426Y-110126391D01*
X157535803Y-110231485D01*
X157618514Y-110314196D01*
X157618515Y-110314196D01*
X157618517Y-110314198D01*
X157723607Y-110365573D01*
X157757673Y-110370536D01*
X157791739Y-110375500D01*
X157791740Y-110375500D01*
X158258261Y-110375500D01*
X158280971Y-110372191D01*
X158326393Y-110365573D01*
X158431483Y-110314198D01*
X158514198Y-110231483D01*
X158514198Y-110231481D01*
X158520168Y-110223122D01*
X158521230Y-110223880D01*
X158561223Y-110180104D01*
X158628756Y-110162187D01*
X158695255Y-110183625D01*
X158739608Y-110237612D01*
X158749500Y-110286144D01*
X158749500Y-110613681D01*
X158729815Y-110680720D01*
X158677011Y-110726475D01*
X158644897Y-110736154D01*
X158624700Y-110739352D01*
X158624699Y-110739352D01*
X158569297Y-110767580D01*
X158511658Y-110796950D01*
X158511657Y-110796951D01*
X158511652Y-110796954D01*
X158421954Y-110886652D01*
X158421951Y-110886657D01*
X158421950Y-110886658D01*
X158419361Y-110891740D01*
X158364352Y-110999698D01*
X158349500Y-111093475D01*
X158349500Y-112106517D01*
X158360292Y-112174657D01*
X158364354Y-112200304D01*
X158421950Y-112313342D01*
X158421952Y-112313344D01*
X158421954Y-112313347D01*
X158511652Y-112403045D01*
X158511654Y-112403046D01*
X158511658Y-112403050D01*
X158624696Y-112460646D01*
X158644897Y-112463845D01*
X158708032Y-112493774D01*
X158744963Y-112553085D01*
X158749500Y-112586319D01*
X158749500Y-112959829D01*
X158787636Y-113051897D01*
X158833181Y-113097442D01*
X158866666Y-113158765D01*
X158869500Y-113185122D01*
X158869500Y-113425817D01*
X158869500Y-113425819D01*
X158869501Y-113427622D01*
X158872270Y-113451498D01*
X158915384Y-113549141D01*
X158990859Y-113624616D01*
X158990862Y-113624617D01*
X158990863Y-113624618D01*
X159088499Y-113667729D01*
X159088500Y-113667729D01*
X159088502Y-113667730D01*
X159112377Y-113670500D01*
X159467622Y-113670499D01*
X159491498Y-113667730D01*
X159589135Y-113624619D01*
X159589136Y-113624618D01*
X159589141Y-113624616D01*
X159664616Y-113549141D01*
X159686566Y-113499430D01*
X159731651Y-113446054D01*
X159798438Y-113425526D01*
X159865720Y-113444364D01*
X159912136Y-113496587D01*
X159913434Y-113499430D01*
X159935384Y-113549141D01*
X160010859Y-113624616D01*
X160010862Y-113624617D01*
X160010863Y-113624618D01*
X160108499Y-113667729D01*
X160108500Y-113667729D01*
X160108502Y-113667730D01*
X160132377Y-113670500D01*
X160487622Y-113670499D01*
X160511498Y-113667730D01*
X160609135Y-113624619D01*
X160609136Y-113624618D01*
X160609141Y-113624616D01*
X160684616Y-113549141D01*
X160727730Y-113451498D01*
X160730500Y-113427623D01*
X160730499Y-113403123D01*
X160750181Y-113336087D01*
X160802984Y-113290330D01*
X160872142Y-113280385D01*
X160935698Y-113309407D01*
X160973475Y-113368184D01*
X160975140Y-113374959D01*
X160975500Y-113375828D01*
X161013636Y-113467897D01*
X161079407Y-113533668D01*
X161113181Y-113567441D01*
X161146666Y-113628764D01*
X161149500Y-113655123D01*
X161149500Y-114414820D01*
X161149500Y-114414822D01*
X161149499Y-114414822D01*
X161158231Y-114458717D01*
X161158232Y-114458721D01*
X161158233Y-114458722D01*
X161191496Y-114508504D01*
X161241278Y-114541767D01*
X161241281Y-114541767D01*
X161241282Y-114541768D01*
X161285177Y-114550500D01*
X161285180Y-114550500D01*
X162314822Y-114550500D01*
X162358717Y-114541768D01*
X162358717Y-114541767D01*
X162358722Y-114541767D01*
X162408504Y-114508504D01*
X162441767Y-114458722D01*
X162450500Y-114414820D01*
X162450500Y-113385180D01*
X162450500Y-113385177D01*
X162441768Y-113341282D01*
X162441767Y-113341281D01*
X162441767Y-113341278D01*
X162408504Y-113291496D01*
X162406759Y-113290330D01*
X162358724Y-113258234D01*
X162358717Y-113258231D01*
X162314822Y-113249500D01*
X162314820Y-113249500D01*
X161600500Y-113249500D01*
X161533461Y-113229815D01*
X161487706Y-113177011D01*
X161476500Y-113125500D01*
X161476500Y-111846544D01*
X161496185Y-111779505D01*
X161548989Y-111733750D01*
X161618147Y-111723806D01*
X161681703Y-111752831D01*
X161688181Y-111758863D01*
X161693514Y-111764196D01*
X161693515Y-111764196D01*
X161693517Y-111764198D01*
X161798607Y-111815573D01*
X161832673Y-111820536D01*
X161866739Y-111825500D01*
X161866740Y-111825500D01*
X162333261Y-111825500D01*
X162355971Y-111822191D01*
X162401393Y-111815573D01*
X162506483Y-111764198D01*
X162589198Y-111681483D01*
X162640573Y-111576393D01*
X162650500Y-111508260D01*
X162650500Y-110891740D01*
X162649759Y-110886657D01*
X162640573Y-110823608D01*
X162640573Y-110823607D01*
X162589198Y-110718517D01*
X162589196Y-110718515D01*
X162589196Y-110718514D01*
X162506485Y-110635803D01*
X162401391Y-110584426D01*
X162376620Y-110580817D01*
X162345035Y-110566320D01*
X162313297Y-110551826D01*
X162313230Y-110551722D01*
X162313120Y-110551672D01*
X162294433Y-110522473D01*
X162275523Y-110493048D01*
X162275500Y-110492889D01*
X162275457Y-110492822D01*
X162270500Y-110458113D01*
X162270500Y-110233565D01*
X162290185Y-110166526D01*
X162342989Y-110120771D01*
X162357898Y-110115090D01*
X162358619Y-110114866D01*
X162358625Y-110114866D01*
X162358629Y-110114863D01*
X162358632Y-110114863D01*
X162471210Y-110059827D01*
X162559827Y-109971210D01*
X162603673Y-109881520D01*
X162614866Y-109858625D01*
X162625500Y-109785636D01*
X162625500Y-109214364D01*
X162614866Y-109141375D01*
X162594905Y-109100544D01*
X162559827Y-109028789D01*
X162471213Y-108940175D01*
X162471207Y-108940172D01*
X162426550Y-108918340D01*
X162374970Y-108871214D01*
X162357055Y-108803680D01*
X162366453Y-108759484D01*
X162366765Y-108758728D01*
X162366769Y-108758723D01*
X162375502Y-108714821D01*
X162375502Y-108085181D01*
X162375502Y-108085178D01*
X162366770Y-108041283D01*
X162366769Y-108041282D01*
X162366769Y-108041279D01*
X162333506Y-107991497D01*
X162319049Y-107981837D01*
X162283726Y-107958235D01*
X162283719Y-107958232D01*
X162239824Y-107949501D01*
X162239822Y-107949501D01*
X161960182Y-107949501D01*
X161960180Y-107949501D01*
X161916284Y-107958232D01*
X161916277Y-107958235D01*
X161866498Y-107991496D01*
X161866497Y-107991497D01*
X161833236Y-108041276D01*
X161833233Y-108041283D01*
X161824502Y-108085178D01*
X161824502Y-108714820D01*
X161828201Y-108733415D01*
X161821975Y-108803007D01*
X161779113Y-108858185D01*
X161724462Y-108880313D01*
X161691375Y-108885133D01*
X161691372Y-108885134D01*
X161578789Y-108940172D01*
X161490172Y-109028789D01*
X161435135Y-109141371D01*
X161435134Y-109141373D01*
X161435134Y-109141375D01*
X161424500Y-109214364D01*
X161424500Y-109785636D01*
X161433909Y-109850215D01*
X161435135Y-109858630D01*
X161437060Y-109864860D01*
X161438041Y-109934723D01*
X161401096Y-109994025D01*
X161337954Y-110023940D01*
X161268662Y-110014969D01*
X161230904Y-109989143D01*
X161161818Y-109920057D01*
X161128333Y-109858734D01*
X161125499Y-109832384D01*
X161125499Y-109358706D01*
X161115043Y-109286933D01*
X161060919Y-109176220D01*
X161060917Y-109176218D01*
X161060917Y-109176217D01*
X160973781Y-109089081D01*
X160920039Y-109062808D01*
X160908059Y-109051862D01*
X160893297Y-109045121D01*
X160882795Y-109028780D01*
X160868457Y-109015680D01*
X160863904Y-108999384D01*
X160855523Y-108986343D01*
X160850500Y-108951408D01*
X160850500Y-108820683D01*
X160865022Y-108771223D01*
X160862092Y-108770010D01*
X160866763Y-108758727D01*
X160866767Y-108758723D01*
X160875500Y-108714821D01*
X160875500Y-108085181D01*
X160875500Y-108085178D01*
X160866768Y-108041283D01*
X160866767Y-108041282D01*
X160866767Y-108041279D01*
X160833504Y-107991497D01*
X160819047Y-107981837D01*
X160783724Y-107958235D01*
X160783717Y-107958232D01*
X160739822Y-107949501D01*
X160739820Y-107949501D01*
X160460180Y-107949501D01*
X160460178Y-107949501D01*
X160416282Y-107958232D01*
X160416275Y-107958235D01*
X160366496Y-107991496D01*
X160362183Y-107995810D01*
X160300860Y-108029295D01*
X160231168Y-108024311D01*
X160175235Y-107982439D01*
X160150818Y-107916975D01*
X160150502Y-107908129D01*
X160150502Y-107860176D01*
X160141770Y-107816281D01*
X160141769Y-107816280D01*
X160141769Y-107816277D01*
X160108506Y-107766495D01*
X160104862Y-107764060D01*
X160058726Y-107733233D01*
X160058719Y-107733230D01*
X160014824Y-107724499D01*
X160014822Y-107724499D01*
X159385182Y-107724499D01*
X159385180Y-107724499D01*
X159341284Y-107733230D01*
X159341277Y-107733233D01*
X159291498Y-107766494D01*
X159291497Y-107766495D01*
X159258236Y-107816274D01*
X159258233Y-107816281D01*
X159249502Y-107860176D01*
X159249502Y-107860179D01*
X159249502Y-108139819D01*
X159249502Y-108139821D01*
X159249501Y-108139821D01*
X159258233Y-108183716D01*
X159258236Y-108183723D01*
X159291497Y-108233502D01*
X159291498Y-108233503D01*
X159341280Y-108266766D01*
X159341283Y-108266766D01*
X159341284Y-108266767D01*
X159385179Y-108275499D01*
X159385182Y-108275499D01*
X160014824Y-108275499D01*
X160058719Y-108266767D01*
X160058719Y-108266766D01*
X160058724Y-108266766D01*
X160108506Y-108233503D01*
X160108508Y-108233499D01*
X160112819Y-108229190D01*
X160174142Y-108195705D01*
X160243834Y-108200689D01*
X160299767Y-108242561D01*
X160324184Y-108308025D01*
X160324500Y-108316871D01*
X160324500Y-108714821D01*
X160333233Y-108758723D01*
X160333233Y-108758724D01*
X160333234Y-108758725D01*
X160337908Y-108770010D01*
X160335108Y-108771169D01*
X160344477Y-108785748D01*
X160348925Y-108816686D01*
X160349480Y-108818457D01*
X160349500Y-108820683D01*
X160349500Y-108900500D01*
X160329815Y-108967539D01*
X160277011Y-109013294D01*
X160225506Y-109024500D01*
X160208713Y-109024500D01*
X160136932Y-109034957D01*
X160026217Y-109089082D01*
X159939082Y-109176217D01*
X159893961Y-109268515D01*
X159884957Y-109286933D01*
X159874500Y-109358705D01*
X159874500Y-109358709D01*
X159874500Y-109358710D01*
X159874500Y-109866293D01*
X159884957Y-109938067D01*
X159939082Y-110048782D01*
X160026217Y-110135917D01*
X160026218Y-110135917D01*
X160026220Y-110135919D01*
X160136933Y-110190043D01*
X160208705Y-110200500D01*
X160682376Y-110200499D01*
X160711822Y-110209145D01*
X160741803Y-110215667D01*
X160746816Y-110219419D01*
X160749415Y-110220183D01*
X160770057Y-110236818D01*
X160926702Y-110393463D01*
X160960187Y-110454786D01*
X160955203Y-110524478D01*
X160913331Y-110580411D01*
X160847867Y-110604828D01*
X160821146Y-110603849D01*
X160811282Y-110602412D01*
X160791295Y-110599500D01*
X160791292Y-110599500D01*
X160208706Y-110599500D01*
X160136932Y-110609957D01*
X160026217Y-110664082D01*
X159939082Y-110751217D01*
X159903693Y-110823608D01*
X159884957Y-110861933D01*
X159874500Y-110933705D01*
X159874500Y-110933709D01*
X159874500Y-110933710D01*
X159874500Y-110951977D01*
X159854815Y-111019016D01*
X159802011Y-111064771D01*
X159732853Y-111074715D01*
X159669297Y-111045690D01*
X159640015Y-111008272D01*
X159635646Y-110999698D01*
X159635646Y-110999696D01*
X159578050Y-110886658D01*
X159578046Y-110886654D01*
X159578045Y-110886652D01*
X159488347Y-110796954D01*
X159488344Y-110796952D01*
X159488342Y-110796950D01*
X159375304Y-110739354D01*
X159375302Y-110739353D01*
X159375301Y-110739353D01*
X159355100Y-110736153D01*
X159291965Y-110706222D01*
X159255035Y-110646910D01*
X159250500Y-110613680D01*
X159250500Y-109637572D01*
X159270185Y-109570533D01*
X159312499Y-109530185D01*
X159402053Y-109478482D01*
X159478482Y-109402053D01*
X159532525Y-109308447D01*
X159560500Y-109204043D01*
X159560500Y-109095957D01*
X159532525Y-108991553D01*
X159525748Y-108979815D01*
X159518576Y-108965275D01*
X159485367Y-108885100D01*
X159414900Y-108814633D01*
X159414899Y-108814632D01*
X159334726Y-108781422D01*
X159320186Y-108774252D01*
X159308450Y-108767477D01*
X159308451Y-108767477D01*
X159308447Y-108767475D01*
X159204043Y-108739500D01*
X159095957Y-108739500D01*
X159095952Y-108739500D01*
X159078360Y-108744214D01*
X159008511Y-108742548D01*
X158950650Y-108703384D01*
X158923148Y-108639154D01*
X158934738Y-108570252D01*
X158964866Y-108508625D01*
X158975500Y-108435636D01*
X158975500Y-107864364D01*
X158964866Y-107791375D01*
X158957105Y-107775500D01*
X158909827Y-107678789D01*
X158861819Y-107630781D01*
X158847115Y-107603853D01*
X158830523Y-107578035D01*
X158829631Y-107571834D01*
X158828334Y-107569458D01*
X158825500Y-107543100D01*
X158825500Y-107332020D01*
X158845185Y-107264981D01*
X158897989Y-107219226D01*
X158905779Y-107216257D01*
X158908624Y-107214866D01*
X158908625Y-107214866D01*
X158955742Y-107191832D01*
X159021210Y-107159827D01*
X159021210Y-107159826D01*
X159021211Y-107159826D01*
X159050904Y-107130133D01*
X159112226Y-107096647D01*
X159181918Y-107101631D01*
X159237852Y-107143501D01*
X159251194Y-107173416D01*
X159253560Y-107172437D01*
X159258236Y-107183725D01*
X159291229Y-107233103D01*
X159291498Y-107233505D01*
X159341280Y-107266768D01*
X159341283Y-107266768D01*
X159341284Y-107266769D01*
X159385179Y-107275501D01*
X159385182Y-107275501D01*
X160014824Y-107275501D01*
X160058719Y-107266769D01*
X160058719Y-107266768D01*
X160058724Y-107266768D01*
X160108506Y-107233505D01*
X160141769Y-107183723D01*
X160144646Y-107169261D01*
X160150502Y-107139823D01*
X160150502Y-106860178D01*
X160141770Y-106816283D01*
X160141769Y-106816280D01*
X160141769Y-106816279D01*
X160108506Y-106766497D01*
X160108502Y-106766494D01*
X160058726Y-106733235D01*
X160058719Y-106733232D01*
X160014824Y-106724501D01*
X160014822Y-106724501D01*
X159385182Y-106724501D01*
X159385180Y-106724501D01*
X159329302Y-106735616D01*
X159328750Y-106732841D01*
X159314328Y-106734390D01*
X159281853Y-106739060D01*
X159279758Y-106738103D01*
X159277470Y-106738349D01*
X159248150Y-106723668D01*
X159218297Y-106710035D01*
X159217051Y-106708097D01*
X159214994Y-106707067D01*
X159198257Y-106678853D01*
X159180523Y-106651257D01*
X159180086Y-106648219D01*
X159179348Y-106646975D01*
X159175500Y-106616322D01*
X159175500Y-106383677D01*
X159195185Y-106316638D01*
X159247989Y-106270883D01*
X159317147Y-106260939D01*
X159330755Y-106264672D01*
X159341277Y-106266765D01*
X159341280Y-106266767D01*
X159385182Y-106275500D01*
X160014824Y-106275500D01*
X160058719Y-106266768D01*
X160058719Y-106266767D01*
X160058724Y-106266767D01*
X160108506Y-106233504D01*
X160141769Y-106183722D01*
X160145009Y-106167436D01*
X160150502Y-106139822D01*
X160150502Y-105860177D01*
X160141770Y-105816282D01*
X160141769Y-105816280D01*
X160141769Y-105816278D01*
X160141767Y-105816275D01*
X160137096Y-105804998D01*
X160138927Y-105804239D01*
X160122637Y-105752217D01*
X160138205Y-105695463D01*
X160137096Y-105695004D01*
X160140752Y-105686178D01*
X160141120Y-105684837D01*
X160141648Y-105684014D01*
X160141766Y-105683728D01*
X160141769Y-105683724D01*
X160145459Y-105665174D01*
X160150502Y-105639824D01*
X160150502Y-105360179D01*
X160141770Y-105316284D01*
X160141769Y-105316281D01*
X160141769Y-105316280D01*
X160141767Y-105316277D01*
X160137096Y-105305000D01*
X160138927Y-105304241D01*
X160122635Y-105252225D01*
X160138202Y-105195460D01*
X160137096Y-105195002D01*
X160140741Y-105186202D01*
X160141114Y-105184843D01*
X160141649Y-105184010D01*
X160141766Y-105183726D01*
X160141769Y-105183722D01*
X160147920Y-105152800D01*
X160150502Y-105139822D01*
X160150502Y-104860177D01*
X160141770Y-104816282D01*
X160141769Y-104816281D01*
X160141769Y-104816278D01*
X160141767Y-104816275D01*
X160137096Y-104804998D01*
X160138927Y-104804239D01*
X160122636Y-104752220D01*
X160125871Y-104721775D01*
X160130997Y-104699843D01*
X160141769Y-104683723D01*
X160150502Y-104639821D01*
X160150502Y-104616403D01*
X160153757Y-104602479D01*
X160164210Y-104584017D01*
X160170187Y-104563665D01*
X160181079Y-104554226D01*
X160188184Y-104541680D01*
X160206961Y-104531799D01*
X160222991Y-104517910D01*
X160237257Y-104515858D01*
X160250017Y-104509145D01*
X160271152Y-104510985D01*
X160292149Y-104507966D01*
X160314089Y-104514723D01*
X160319623Y-104515205D01*
X160322252Y-104517237D01*
X160328959Y-104519302D01*
X160409323Y-104558590D01*
X160423607Y-104565573D01*
X160491739Y-104575500D01*
X160491740Y-104575500D01*
X161108261Y-104575500D01*
X161130971Y-104572191D01*
X161176393Y-104565573D01*
X161281483Y-104514198D01*
X161364198Y-104431483D01*
X161415573Y-104326393D01*
X161425500Y-104258260D01*
X161425500Y-104258241D01*
X161425684Y-104255712D01*
X161425990Y-104254891D01*
X161426147Y-104253820D01*
X161426379Y-104253853D01*
X161450162Y-104190270D01*
X161506134Y-104148451D01*
X161575831Y-104143531D01*
X161637123Y-104177073D01*
X161669134Y-104232577D01*
X161680203Y-104273887D01*
X161690983Y-104292558D01*
X161739512Y-104376613D01*
X161823388Y-104460489D01*
X161829772Y-104465387D01*
X161857394Y-104494878D01*
X161866495Y-104508500D01*
X161866497Y-104508501D01*
X161866498Y-104508503D01*
X161916280Y-104541766D01*
X161916283Y-104541766D01*
X161916284Y-104541767D01*
X161960179Y-104550499D01*
X161960182Y-104550499D01*
X162040686Y-104550499D01*
X162040693Y-104550501D01*
X162159311Y-104550501D01*
X162159318Y-104550499D01*
X162239822Y-104550499D01*
X162239824Y-104550499D01*
X162283719Y-104541767D01*
X162283719Y-104541766D01*
X162283724Y-104541766D01*
X162333506Y-104508503D01*
X162333510Y-104508496D01*
X162337815Y-104504193D01*
X162399137Y-104470706D01*
X162468829Y-104475688D01*
X162524764Y-104517557D01*
X162547616Y-104570336D01*
X162549500Y-104581019D01*
X162549500Y-104639818D01*
X162558233Y-104683720D01*
X162570974Y-104702788D01*
X162575502Y-104728464D01*
X162574402Y-104738322D01*
X162577366Y-104747787D01*
X162570595Y-104772466D01*
X162567759Y-104797903D01*
X162562224Y-104804715D01*
X162562906Y-104804998D01*
X162559248Y-104813826D01*
X162558881Y-104815167D01*
X162558353Y-104815987D01*
X162558231Y-104816282D01*
X162549500Y-104860177D01*
X162549500Y-104860180D01*
X162549500Y-105139820D01*
X162549500Y-105139822D01*
X162549499Y-105139822D01*
X162558231Y-105183717D01*
X162562906Y-105195002D01*
X162561075Y-105195760D01*
X162577364Y-105247794D01*
X162561793Y-105304536D01*
X162562906Y-105304997D01*
X162559236Y-105313854D01*
X162558875Y-105315173D01*
X162558356Y-105315980D01*
X162558231Y-105316281D01*
X162549500Y-105360176D01*
X162549500Y-105360179D01*
X162549500Y-105639819D01*
X162549500Y-105639821D01*
X162549499Y-105639821D01*
X162558231Y-105683716D01*
X162562906Y-105695001D01*
X162561075Y-105695759D01*
X162577364Y-105747793D01*
X162561793Y-105804535D01*
X162562906Y-105804996D01*
X162559236Y-105813853D01*
X162558875Y-105815172D01*
X162558356Y-105815979D01*
X162558231Y-105816280D01*
X162549500Y-105860175D01*
X162549500Y-105860177D01*
X162549500Y-105860178D01*
X162549500Y-106139818D01*
X162549500Y-106139820D01*
X162549499Y-106139820D01*
X162558231Y-106183715D01*
X162558234Y-106183722D01*
X162579796Y-106215992D01*
X162591496Y-106233502D01*
X162641278Y-106266765D01*
X162641281Y-106266765D01*
X162641282Y-106266766D01*
X162685177Y-106275498D01*
X162685180Y-106275498D01*
X163314822Y-106275498D01*
X163358717Y-106266766D01*
X163358717Y-106266765D01*
X163358722Y-106266765D01*
X163408504Y-106233502D01*
X163441767Y-106183720D01*
X163441768Y-106183713D01*
X163442084Y-106182953D01*
X163443230Y-106181530D01*
X163448552Y-106173566D01*
X163449264Y-106174042D01*
X163450644Y-106172330D01*
X163454989Y-106159399D01*
X163472137Y-106145659D01*
X163485926Y-106128550D01*
X163498870Y-106124241D01*
X163509517Y-106115712D01*
X163531370Y-106113425D01*
X163552220Y-106106486D01*
X163565438Y-106109859D01*
X163579007Y-106108440D01*
X163598628Y-106118331D01*
X163619920Y-106123766D01*
X163630544Y-106134421D01*
X163641397Y-106139892D01*
X163656855Y-106160807D01*
X163663465Y-106167436D01*
X163665925Y-106171609D01*
X163690174Y-106221211D01*
X163702334Y-106233371D01*
X163710336Y-106246945D01*
X163715183Y-106266162D01*
X163724682Y-106283558D01*
X163723552Y-106299345D01*
X163727424Y-106314693D01*
X163721111Y-106333480D01*
X163719698Y-106353250D01*
X163710212Y-106365920D01*
X163705172Y-106380924D01*
X163689703Y-106393317D01*
X163677826Y-106409183D01*
X163657693Y-106418963D01*
X163650644Y-106424611D01*
X163644810Y-106425221D01*
X163635611Y-106429690D01*
X163612803Y-106435802D01*
X163537708Y-106455923D01*
X163537703Y-106455926D01*
X163444110Y-106509961D01*
X163444102Y-106509967D01*
X163367676Y-106586393D01*
X163367672Y-106586398D01*
X163323737Y-106662498D01*
X163273171Y-106710713D01*
X163216350Y-106724498D01*
X162685178Y-106724498D01*
X162641282Y-106733229D01*
X162641275Y-106733232D01*
X162591496Y-106766493D01*
X162591495Y-106766494D01*
X162558234Y-106816273D01*
X162558231Y-106816280D01*
X162549500Y-106860175D01*
X162549500Y-106860178D01*
X162549500Y-107139818D01*
X162549500Y-107139820D01*
X162549499Y-107139820D01*
X162558231Y-107183715D01*
X162562906Y-107195000D01*
X162561075Y-107195758D01*
X162577366Y-107247787D01*
X162561796Y-107304538D01*
X162562906Y-107304998D01*
X162559248Y-107313826D01*
X162558881Y-107315167D01*
X162558353Y-107315987D01*
X162558231Y-107316282D01*
X162549500Y-107360177D01*
X162549500Y-107360180D01*
X162549500Y-107639820D01*
X162549500Y-107639822D01*
X162549499Y-107639822D01*
X162558231Y-107683717D01*
X162558234Y-107683724D01*
X162589141Y-107729980D01*
X162591496Y-107733504D01*
X162641278Y-107766767D01*
X162641281Y-107766767D01*
X162641282Y-107766768D01*
X162685177Y-107775500D01*
X163311707Y-107775500D01*
X163378746Y-107795185D01*
X163399388Y-107811819D01*
X163454423Y-107866854D01*
X163454425Y-107866855D01*
X163454429Y-107866858D01*
X163529125Y-107909983D01*
X163548029Y-107920897D01*
X163652433Y-107948872D01*
X163652435Y-107948872D01*
X163760516Y-107948872D01*
X163760519Y-107948872D01*
X163864923Y-107920897D01*
X163908500Y-107895737D01*
X163976400Y-107879265D01*
X164042427Y-107902118D01*
X164085618Y-107957039D01*
X164094500Y-108003125D01*
X164094500Y-109975500D01*
X164074815Y-110042539D01*
X164022011Y-110088294D01*
X163970500Y-110099500D01*
X163685929Y-110099500D01*
X163560261Y-110124497D01*
X163560255Y-110124499D01*
X163441875Y-110173533D01*
X163441866Y-110173538D01*
X163335331Y-110244723D01*
X163335327Y-110244726D01*
X163244726Y-110335327D01*
X163244723Y-110335331D01*
X163173538Y-110441866D01*
X163173533Y-110441875D01*
X163124499Y-110560255D01*
X163124497Y-110560261D01*
X163099500Y-110685928D01*
X163099500Y-111399069D01*
X163107900Y-111441294D01*
X163107900Y-111441297D01*
X163122559Y-111514995D01*
X163124499Y-111524744D01*
X163173535Y-111643127D01*
X163244723Y-111749669D01*
X163244726Y-111749673D01*
X163244727Y-111749674D01*
X164058181Y-112563127D01*
X164091666Y-112624450D01*
X164094500Y-112650808D01*
X164094500Y-114626008D01*
X164098054Y-114659055D01*
X164109260Y-114710566D01*
X164143686Y-114779342D01*
X164189436Y-114832139D01*
X164194422Y-114837623D01*
X164263145Y-114879513D01*
X164263150Y-114879516D01*
X164330189Y-114899201D01*
X164374000Y-114905500D01*
X165299192Y-114905500D01*
X165366231Y-114925185D01*
X165386873Y-114941819D01*
X165450327Y-115005273D01*
X165450335Y-115005279D01*
X165556862Y-115076458D01*
X165556866Y-115076460D01*
X165556873Y-115076465D01*
X165572952Y-115083125D01*
X165627355Y-115126965D01*
X165649421Y-115193259D01*
X165649500Y-115197686D01*
X165649500Y-128814820D01*
X165649500Y-128814822D01*
X165649499Y-128814822D01*
X165658231Y-128858717D01*
X165658232Y-128858721D01*
X165658233Y-128858722D01*
X165691496Y-128908504D01*
X165741278Y-128941767D01*
X165741281Y-128941767D01*
X165741282Y-128941768D01*
X165785177Y-128950500D01*
X165785180Y-128950500D01*
X169814822Y-128950500D01*
X169858717Y-128941768D01*
X169858717Y-128941767D01*
X169858722Y-128941767D01*
X169908504Y-128908504D01*
X169941767Y-128858722D01*
X169950500Y-128814820D01*
X169950500Y-120620808D01*
X169970185Y-120553769D01*
X169986819Y-120533127D01*
X170370273Y-120149673D01*
X170370277Y-120149669D01*
X170441465Y-120043127D01*
X170490501Y-119924744D01*
X170515500Y-119799069D01*
X170515500Y-115029500D01*
X170535185Y-114962461D01*
X170587989Y-114916706D01*
X170639500Y-114905500D01*
X177125991Y-114905500D01*
X177126000Y-114905500D01*
X177159055Y-114901946D01*
X177210566Y-114890740D01*
X177279342Y-114856313D01*
X177332146Y-114810558D01*
X177337621Y-114805580D01*
X177379516Y-114736850D01*
X177399201Y-114669811D01*
X177405500Y-114626000D01*
X177405500Y-110944900D01*
X177425185Y-110877861D01*
X177477989Y-110832106D01*
X177529500Y-110820900D01*
X178814822Y-110820900D01*
X178858717Y-110812168D01*
X178858717Y-110812167D01*
X178858722Y-110812167D01*
X178908504Y-110778904D01*
X178941767Y-110729122D01*
X178950359Y-110685931D01*
X178950500Y-110685222D01*
X178950500Y-110136964D01*
X178970185Y-110069925D01*
X179022989Y-110024170D01*
X179092147Y-110014226D01*
X179155703Y-110043251D01*
X179162181Y-110049283D01*
X179223387Y-110110489D01*
X179326114Y-110169799D01*
X179440691Y-110200500D01*
X179440694Y-110200500D01*
X179559306Y-110200500D01*
X179559309Y-110200500D01*
X179673886Y-110169799D01*
X179776613Y-110110489D01*
X179860489Y-110026613D01*
X179919799Y-109923886D01*
X179950500Y-109809309D01*
X179950500Y-109690691D01*
X179919799Y-109576114D01*
X179860489Y-109473387D01*
X179786818Y-109399716D01*
X179772113Y-109372785D01*
X179755523Y-109346970D01*
X179754631Y-109340767D01*
X179753334Y-109338392D01*
X179750500Y-109312035D01*
X179750500Y-109249500D01*
X179770185Y-109182461D01*
X179822989Y-109136706D01*
X179874500Y-109125500D01*
X179958261Y-109125500D01*
X179980971Y-109122191D01*
X180026393Y-109115573D01*
X180131483Y-109064198D01*
X180214198Y-108981483D01*
X180265573Y-108876393D01*
X180275500Y-108808260D01*
X180275500Y-108191740D01*
X180265573Y-108123607D01*
X180214198Y-108018517D01*
X180214196Y-108018515D01*
X180214196Y-108018514D01*
X180131485Y-107935803D01*
X180101685Y-107921235D01*
X180026393Y-107884427D01*
X180026391Y-107884426D01*
X179958261Y-107874500D01*
X179958260Y-107874500D01*
X179491740Y-107874500D01*
X179491739Y-107874500D01*
X179423608Y-107884426D01*
X179318514Y-107935803D01*
X179235803Y-108018514D01*
X179184426Y-108123608D01*
X179174500Y-108191739D01*
X179174500Y-108808260D01*
X179184426Y-108876391D01*
X179184427Y-108876393D01*
X179235802Y-108981483D01*
X179236901Y-108983730D01*
X179249500Y-109038190D01*
X179249500Y-109312035D01*
X179229815Y-109379074D01*
X179213182Y-109399716D01*
X179139511Y-109473387D01*
X179080201Y-109576114D01*
X179049500Y-109690691D01*
X179049500Y-109690693D01*
X179049500Y-109774119D01*
X179029815Y-109841158D01*
X178977011Y-109886913D01*
X178907853Y-109896857D01*
X178870342Y-109882484D01*
X178870002Y-109883306D01*
X178858717Y-109878631D01*
X178814822Y-109869900D01*
X178814820Y-109869900D01*
X178449500Y-109869900D01*
X178382461Y-109850215D01*
X178336706Y-109797411D01*
X178325500Y-109745900D01*
X178325500Y-109217857D01*
X178345185Y-109150818D01*
X178395039Y-109106457D01*
X178481483Y-109064198D01*
X178564198Y-108981483D01*
X178615573Y-108876393D01*
X178625500Y-108808260D01*
X178625500Y-108191740D01*
X178615573Y-108123607D01*
X178564198Y-108018517D01*
X178564196Y-108018515D01*
X178564196Y-108018514D01*
X178481485Y-107935803D01*
X178451685Y-107921235D01*
X178376393Y-107884427D01*
X178376391Y-107884426D01*
X178308261Y-107874500D01*
X178308260Y-107874500D01*
X177841740Y-107874500D01*
X177841739Y-107874500D01*
X177773608Y-107884426D01*
X177668514Y-107935803D01*
X177617181Y-107987137D01*
X177597744Y-107997749D01*
X177581011Y-108012250D01*
X177567679Y-108014166D01*
X177555858Y-108020622D01*
X177533771Y-108019042D01*
X177511853Y-108022194D01*
X177499601Y-108016598D01*
X177486166Y-108015638D01*
X177468439Y-108002367D01*
X177448297Y-107993169D01*
X177441014Y-107981837D01*
X177430233Y-107973766D01*
X177422495Y-107953020D01*
X177410523Y-107934391D01*
X177407371Y-107912472D01*
X177405816Y-107908302D01*
X177405500Y-107899456D01*
X177405500Y-107741740D01*
X177425185Y-107674701D01*
X177477989Y-107628946D01*
X177547144Y-107619002D01*
X177591740Y-107625500D01*
X177591741Y-107625500D01*
X178058261Y-107625500D01*
X178090154Y-107620853D01*
X178126393Y-107615573D01*
X178231483Y-107564198D01*
X178314198Y-107481483D01*
X178365573Y-107376393D01*
X178368454Y-107356622D01*
X178382911Y-107325120D01*
X178397445Y-107293297D01*
X178397547Y-107293231D01*
X178397598Y-107293121D01*
X178426969Y-107274323D01*
X178456223Y-107255523D01*
X178456378Y-107255500D01*
X178456447Y-107255457D01*
X178491158Y-107250500D01*
X178508842Y-107250500D01*
X178575881Y-107270185D01*
X178621636Y-107322989D01*
X178631546Y-107356622D01*
X178634426Y-107376391D01*
X178685803Y-107481485D01*
X178768514Y-107564196D01*
X178768515Y-107564196D01*
X178768517Y-107564198D01*
X178873607Y-107615573D01*
X178897142Y-107619002D01*
X178941739Y-107625500D01*
X178941740Y-107625500D01*
X179408261Y-107625500D01*
X179440154Y-107620853D01*
X179476393Y-107615573D01*
X179581483Y-107564198D01*
X179664198Y-107481483D01*
X179715573Y-107376393D01*
X179725500Y-107308260D01*
X179725500Y-106691740D01*
X179715573Y-106623607D01*
X179664198Y-106518517D01*
X179664196Y-106518515D01*
X179664196Y-106518514D01*
X179581485Y-106435803D01*
X179476391Y-106384426D01*
X179408261Y-106374500D01*
X179408260Y-106374500D01*
X178941740Y-106374500D01*
X178941739Y-106374500D01*
X178873608Y-106384426D01*
X178768514Y-106435803D01*
X178685803Y-106518514D01*
X178634426Y-106623608D01*
X178631546Y-106643378D01*
X178617088Y-106674879D01*
X178602555Y-106706703D01*
X178602452Y-106706768D01*
X178602402Y-106706879D01*
X178573030Y-106725676D01*
X178543777Y-106744477D01*
X178543621Y-106744499D01*
X178543553Y-106744543D01*
X178508842Y-106749500D01*
X178491158Y-106749500D01*
X178424119Y-106729815D01*
X178378364Y-106677011D01*
X178368454Y-106643378D01*
X178365573Y-106623608D01*
X178365573Y-106623607D01*
X178314198Y-106518517D01*
X178314196Y-106518515D01*
X178314196Y-106518514D01*
X178231485Y-106435803D01*
X178126391Y-106384426D01*
X178058261Y-106374500D01*
X178058260Y-106374500D01*
X177591740Y-106374500D01*
X177547375Y-106380963D01*
X177478200Y-106371150D01*
X177425310Y-106325494D01*
X177405500Y-106258491D01*
X177405500Y-106249500D01*
X177425185Y-106182461D01*
X177477989Y-106136706D01*
X177529500Y-106125500D01*
X177908261Y-106125500D01*
X177930971Y-106122191D01*
X177976393Y-106115573D01*
X178081483Y-106064198D01*
X178164198Y-105981483D01*
X178215573Y-105876393D01*
X178225500Y-105808260D01*
X178225500Y-105191740D01*
X178215573Y-105123607D01*
X178164198Y-105018517D01*
X178164196Y-105018515D01*
X178164196Y-105018514D01*
X178081485Y-104935803D01*
X178044544Y-104917744D01*
X177977005Y-104884726D01*
X177976391Y-104884426D01*
X177908261Y-104874500D01*
X177908260Y-104874500D01*
X177618700Y-104874500D01*
X177551661Y-104854815D01*
X177505906Y-104802011D01*
X177494700Y-104750500D01*
X177494700Y-104395031D01*
X177514385Y-104327992D01*
X177567189Y-104282237D01*
X177594509Y-104273414D01*
X177627917Y-104266768D01*
X177627917Y-104266767D01*
X177627922Y-104266767D01*
X177677704Y-104233504D01*
X177706311Y-104190691D01*
X178299500Y-104190691D01*
X178299500Y-104309309D01*
X178330201Y-104423886D01*
X178389511Y-104526613D01*
X178389513Y-104526615D01*
X178463181Y-104600283D01*
X178496666Y-104661606D01*
X178499500Y-104687964D01*
X178499500Y-104974829D01*
X178536146Y-105063300D01*
X178537636Y-105066897D01*
X178738182Y-105267442D01*
X178771666Y-105328763D01*
X178774500Y-105355122D01*
X178774500Y-105808260D01*
X178784426Y-105876391D01*
X178835803Y-105981485D01*
X178918514Y-106064196D01*
X178918515Y-106064196D01*
X178918517Y-106064198D01*
X179023607Y-106115573D01*
X179055494Y-106120219D01*
X179091739Y-106125500D01*
X179091740Y-106125500D01*
X179558261Y-106125500D01*
X179580971Y-106122191D01*
X179626393Y-106115573D01*
X179731483Y-106064198D01*
X179814198Y-105981483D01*
X179865573Y-105876393D01*
X179875500Y-105808260D01*
X179875500Y-105191740D01*
X179865573Y-105123607D01*
X179814198Y-105018517D01*
X179814196Y-105018515D01*
X179814196Y-105018514D01*
X179731485Y-104935803D01*
X179694544Y-104917744D01*
X179627005Y-104884726D01*
X179626391Y-104884426D01*
X179558261Y-104874500D01*
X179558260Y-104874500D01*
X179124500Y-104874500D01*
X179115814Y-104871949D01*
X179106853Y-104873238D01*
X179082812Y-104862259D01*
X179057461Y-104854815D01*
X179051533Y-104847974D01*
X179043297Y-104844213D01*
X179029007Y-104821978D01*
X179011706Y-104802011D01*
X179009418Y-104791496D01*
X179005523Y-104785435D01*
X179000500Y-104750500D01*
X179000500Y-104687964D01*
X179020185Y-104620925D01*
X179036819Y-104600283D01*
X179073437Y-104563665D01*
X179110489Y-104526613D01*
X179169799Y-104423886D01*
X179200500Y-104309309D01*
X179200500Y-104190691D01*
X179169799Y-104076114D01*
X179110489Y-103973387D01*
X179026613Y-103889511D01*
X178923886Y-103830201D01*
X178809309Y-103799500D01*
X178690691Y-103799500D01*
X178576114Y-103830201D01*
X178576112Y-103830201D01*
X178576112Y-103830202D01*
X178473387Y-103889511D01*
X178473384Y-103889513D01*
X178389513Y-103973384D01*
X178389511Y-103973387D01*
X178349081Y-104043414D01*
X178330201Y-104076114D01*
X178299500Y-104190691D01*
X177706311Y-104190691D01*
X177710967Y-104183722D01*
X177715039Y-104163252D01*
X177716010Y-104158373D01*
X177716010Y-104158371D01*
X177719700Y-104139821D01*
X177719700Y-103537473D01*
X177739385Y-103470434D01*
X177792189Y-103424679D01*
X177861347Y-103414735D01*
X177895208Y-103424677D01*
X177984240Y-103465338D01*
X178051279Y-103485023D01*
X178051283Y-103485024D01*
X178193699Y-103505500D01*
X178193702Y-103505500D01*
X178980104Y-103505500D01*
X179038592Y-103502102D01*
X179038597Y-103502101D01*
X179038622Y-103502100D01*
X179067138Y-103498776D01*
X179124859Y-103488628D01*
X179258749Y-103435949D01*
X179316564Y-103403026D01*
X179318405Y-103402043D01*
X179319470Y-103401372D01*
X179364105Y-103366698D01*
X179433092Y-103313107D01*
X179517246Y-103196404D01*
X179549631Y-103134493D01*
X179549632Y-103134491D01*
X179597498Y-102998807D01*
X179617795Y-102896758D01*
X179624190Y-102875129D01*
X179624512Y-102874318D01*
X179669006Y-102766900D01*
X179667480Y-102766268D01*
X179686699Y-102717941D01*
X179687376Y-102717074D01*
X179688227Y-102714272D01*
X179694909Y-102698924D01*
X179713396Y-102631545D01*
X179731332Y-102488794D01*
X179708324Y-102346765D01*
X179687449Y-102280086D01*
X179687439Y-102280055D01*
X179687396Y-102279966D01*
X179668398Y-102233350D01*
X179669006Y-102233099D01*
X179624727Y-102126199D01*
X179624584Y-102125847D01*
X179624548Y-102125498D01*
X179617795Y-102103237D01*
X179607382Y-102050884D01*
X179605000Y-102026694D01*
X179605000Y-101973303D01*
X179607382Y-101949113D01*
X179617795Y-101896760D01*
X179624850Y-101873502D01*
X179669006Y-101766900D01*
X179669005Y-101766899D01*
X179681169Y-101737534D01*
X179688227Y-101714272D01*
X179694909Y-101698924D01*
X179713396Y-101631545D01*
X179731332Y-101488794D01*
X179708324Y-101346765D01*
X179687449Y-101280086D01*
X179687439Y-101280055D01*
X179687396Y-101279966D01*
X179668398Y-101233350D01*
X179669006Y-101233099D01*
X179624727Y-101126199D01*
X179624584Y-101125847D01*
X179624548Y-101125498D01*
X179617795Y-101103237D01*
X179607382Y-101050884D01*
X179605000Y-101026694D01*
X179605000Y-100973303D01*
X179607382Y-100949113D01*
X179617795Y-100896760D01*
X179624850Y-100873502D01*
X179669006Y-100766900D01*
X179669005Y-100766899D01*
X179681169Y-100737534D01*
X179688227Y-100714272D01*
X179694909Y-100698924D01*
X179713396Y-100631545D01*
X179731332Y-100488794D01*
X179708324Y-100346765D01*
X179687449Y-100280086D01*
X179687439Y-100280055D01*
X179687396Y-100279966D01*
X179668398Y-100233350D01*
X179669006Y-100233099D01*
X179624727Y-100126199D01*
X179624584Y-100125847D01*
X179624548Y-100125498D01*
X179617795Y-100103237D01*
X179607382Y-100050884D01*
X179605000Y-100026694D01*
X179605000Y-99973303D01*
X179607382Y-99949113D01*
X179617795Y-99896760D01*
X179624850Y-99873502D01*
X179669006Y-99766900D01*
X179669005Y-99766899D01*
X179681169Y-99737534D01*
X179688227Y-99714272D01*
X179694909Y-99698924D01*
X179713396Y-99631545D01*
X179731332Y-99488794D01*
X179708324Y-99346765D01*
X179687449Y-99280086D01*
X179687439Y-99280055D01*
X179687396Y-99279966D01*
X179668398Y-99233350D01*
X179669006Y-99233099D01*
X179624727Y-99126199D01*
X179624584Y-99125847D01*
X179624548Y-99125498D01*
X179617795Y-99103237D01*
X179607382Y-99050884D01*
X179605000Y-99026694D01*
X179605000Y-98973303D01*
X179607382Y-98949113D01*
X179617795Y-98896760D01*
X179624850Y-98873502D01*
X179669006Y-98766900D01*
X179669005Y-98766899D01*
X179681169Y-98737534D01*
X179688227Y-98714272D01*
X179694909Y-98698924D01*
X179713396Y-98631545D01*
X179731332Y-98488794D01*
X179708324Y-98346765D01*
X179687449Y-98280086D01*
X179687439Y-98280055D01*
X179687396Y-98279966D01*
X179668398Y-98233350D01*
X179669006Y-98233099D01*
X179624727Y-98126199D01*
X179624584Y-98125847D01*
X179624548Y-98125498D01*
X179617795Y-98103237D01*
X179607382Y-98050884D01*
X179605000Y-98026694D01*
X179605000Y-97973303D01*
X179607382Y-97949113D01*
X179617795Y-97896760D01*
X179624850Y-97873502D01*
X179669006Y-97766900D01*
X179669005Y-97766899D01*
X179681169Y-97737534D01*
X179688227Y-97714272D01*
X179694909Y-97698924D01*
X179713396Y-97631545D01*
X179731332Y-97488794D01*
X179708324Y-97346765D01*
X179687449Y-97280086D01*
X179687439Y-97280055D01*
X179687396Y-97279966D01*
X179668398Y-97233350D01*
X179669006Y-97233099D01*
X179624727Y-97126199D01*
X179624584Y-97125847D01*
X179624548Y-97125498D01*
X179617795Y-97103237D01*
X179607382Y-97050884D01*
X179605000Y-97026694D01*
X179605000Y-96973303D01*
X179607382Y-96949113D01*
X179608142Y-96945294D01*
X179617795Y-96896758D01*
X179624850Y-96873502D01*
X179669006Y-96766900D01*
X179669005Y-96766899D01*
X179681169Y-96737534D01*
X179688227Y-96714272D01*
X179694909Y-96698924D01*
X179713396Y-96631545D01*
X179731332Y-96488794D01*
X179708324Y-96346765D01*
X179687449Y-96280086D01*
X179687439Y-96280055D01*
X179687396Y-96279966D01*
X179668398Y-96233350D01*
X179669006Y-96233099D01*
X179624727Y-96126199D01*
X179624584Y-96125847D01*
X179624548Y-96125498D01*
X179617795Y-96103237D01*
X179607382Y-96050884D01*
X179605000Y-96026694D01*
X179605000Y-96024510D01*
X179605000Y-96024500D01*
X179593447Y-95917044D01*
X179582241Y-95865533D01*
X179582137Y-95865222D01*
X179548116Y-95763002D01*
X179548113Y-95762996D01*
X179470328Y-95641962D01*
X179470325Y-95641957D01*
X179463840Y-95634473D01*
X179424576Y-95589159D01*
X179424572Y-95589156D01*
X179424570Y-95589153D01*
X179315836Y-95494933D01*
X179315833Y-95494931D01*
X179315831Y-95494930D01*
X179184965Y-95435164D01*
X179184960Y-95435162D01*
X179184959Y-95435162D01*
X179117920Y-95415477D01*
X179117922Y-95415477D01*
X179117917Y-95415476D01*
X179061446Y-95407357D01*
X178975500Y-95395000D01*
X178975498Y-95395000D01*
X178973309Y-95395000D01*
X178949117Y-95392617D01*
X178896755Y-95382201D01*
X178873497Y-95375145D01*
X178791413Y-95341146D01*
X178737595Y-95318854D01*
X178714283Y-95311778D01*
X178698890Y-95305078D01*
X178698887Y-95305077D01*
X178631507Y-95286594D01*
X178613579Y-95284342D01*
X178488749Y-95268666D01*
X178373397Y-95287362D01*
X178346723Y-95291685D01*
X178346721Y-95291685D01*
X178346718Y-95291686D01*
X178282283Y-95311862D01*
X178282237Y-95311878D01*
X178280047Y-95312564D01*
X178279976Y-95312586D01*
X178279255Y-95312931D01*
X178275610Y-95314218D01*
X178273297Y-95314342D01*
X178126492Y-95375147D01*
X178103237Y-95382202D01*
X178081315Y-95386563D01*
X178050879Y-95392617D01*
X178026691Y-95395000D01*
X177973310Y-95395000D01*
X177949118Y-95392617D01*
X177896756Y-95382201D01*
X177873496Y-95375145D01*
X177737587Y-95318850D01*
X177714283Y-95311778D01*
X177698890Y-95305078D01*
X177698887Y-95305077D01*
X177631507Y-95286594D01*
X177613579Y-95284342D01*
X177488749Y-95268666D01*
X177373397Y-95287362D01*
X177346723Y-95291685D01*
X177346721Y-95291685D01*
X177346718Y-95291686D01*
X177282283Y-95311862D01*
X177282237Y-95311878D01*
X177280047Y-95312564D01*
X177279976Y-95312586D01*
X177279255Y-95312931D01*
X177275610Y-95314218D01*
X177273297Y-95314342D01*
X177126492Y-95375147D01*
X177103237Y-95382202D01*
X177081315Y-95386563D01*
X177050879Y-95392617D01*
X177026691Y-95395000D01*
X176973310Y-95395000D01*
X176949118Y-95392617D01*
X176896756Y-95382201D01*
X176873496Y-95375145D01*
X176737587Y-95318850D01*
X176714283Y-95311778D01*
X176698890Y-95305078D01*
X176698887Y-95305077D01*
X176631507Y-95286594D01*
X176613579Y-95284342D01*
X176488749Y-95268666D01*
X176373397Y-95287362D01*
X176346723Y-95291685D01*
X176346721Y-95291685D01*
X176346718Y-95291686D01*
X176282283Y-95311862D01*
X176282237Y-95311878D01*
X176280047Y-95312564D01*
X176279976Y-95312586D01*
X176279255Y-95312931D01*
X176275610Y-95314218D01*
X176273297Y-95314342D01*
X176126492Y-95375147D01*
X176103237Y-95382202D01*
X176081315Y-95386563D01*
X176050879Y-95392617D01*
X176026691Y-95395000D01*
X175973310Y-95395000D01*
X175949118Y-95392617D01*
X175896756Y-95382201D01*
X175873496Y-95375145D01*
X175737587Y-95318850D01*
X175714283Y-95311778D01*
X175698890Y-95305078D01*
X175698887Y-95305077D01*
X175631507Y-95286594D01*
X175613579Y-95284342D01*
X175488749Y-95268666D01*
X175373397Y-95287362D01*
X175346723Y-95291685D01*
X175346721Y-95291685D01*
X175346718Y-95291686D01*
X175282283Y-95311862D01*
X175282237Y-95311878D01*
X175280047Y-95312564D01*
X175279976Y-95312586D01*
X175279255Y-95312931D01*
X175275610Y-95314218D01*
X175273297Y-95314342D01*
X175126492Y-95375147D01*
X175103237Y-95382202D01*
X175081315Y-95386563D01*
X175050879Y-95392617D01*
X175026691Y-95395000D01*
X174973310Y-95395000D01*
X174949118Y-95392617D01*
X174896756Y-95382201D01*
X174873496Y-95375145D01*
X174737587Y-95318850D01*
X174714283Y-95311778D01*
X174698890Y-95305078D01*
X174698887Y-95305077D01*
X174631507Y-95286594D01*
X174613579Y-95284342D01*
X174488749Y-95268666D01*
X174373397Y-95287362D01*
X174346723Y-95291685D01*
X174346721Y-95291685D01*
X174346718Y-95291686D01*
X174282283Y-95311862D01*
X174282237Y-95311878D01*
X174280047Y-95312564D01*
X174279976Y-95312586D01*
X174279255Y-95312931D01*
X174275610Y-95314218D01*
X174273297Y-95314342D01*
X174126492Y-95375147D01*
X174103237Y-95382202D01*
X174081315Y-95386563D01*
X174050879Y-95392617D01*
X174026691Y-95395000D01*
X173973310Y-95395000D01*
X173949118Y-95392617D01*
X173896756Y-95382201D01*
X173873496Y-95375145D01*
X173737587Y-95318850D01*
X173714283Y-95311778D01*
X173698890Y-95305078D01*
X173698887Y-95305077D01*
X173631507Y-95286594D01*
X173613579Y-95284342D01*
X173488749Y-95268666D01*
X173373397Y-95287362D01*
X173346723Y-95291685D01*
X173346721Y-95291685D01*
X173346718Y-95291686D01*
X173282283Y-95311862D01*
X173282237Y-95311878D01*
X173280047Y-95312564D01*
X173279976Y-95312586D01*
X173279255Y-95312931D01*
X173275610Y-95314218D01*
X173273297Y-95314342D01*
X173126492Y-95375147D01*
X173103237Y-95382202D01*
X173081315Y-95386563D01*
X173050879Y-95392617D01*
X173026691Y-95395000D01*
X172973310Y-95395000D01*
X172949118Y-95392617D01*
X172896756Y-95382201D01*
X172873496Y-95375145D01*
X172737587Y-95318850D01*
X172714283Y-95311778D01*
X172698890Y-95305078D01*
X172698887Y-95305077D01*
X172631507Y-95286594D01*
X172613579Y-95284342D01*
X172488749Y-95268666D01*
X172373397Y-95287362D01*
X172346723Y-95291685D01*
X172346721Y-95291685D01*
X172346718Y-95291686D01*
X172282283Y-95311862D01*
X172282237Y-95311878D01*
X172280047Y-95312564D01*
X172279976Y-95312586D01*
X172279255Y-95312931D01*
X172275610Y-95314218D01*
X172273297Y-95314342D01*
X172126492Y-95375147D01*
X172103237Y-95382202D01*
X172081315Y-95386563D01*
X172050879Y-95392617D01*
X172026691Y-95395000D01*
X171973310Y-95395000D01*
X171949118Y-95392617D01*
X171896756Y-95382201D01*
X171873496Y-95375145D01*
X171737587Y-95318850D01*
X171714283Y-95311778D01*
X171698890Y-95305078D01*
X171698887Y-95305077D01*
X171631507Y-95286594D01*
X171613579Y-95284342D01*
X171488749Y-95268666D01*
X171373397Y-95287362D01*
X171346723Y-95291685D01*
X171346721Y-95291685D01*
X171346718Y-95291686D01*
X171282283Y-95311862D01*
X171282237Y-95311878D01*
X171280047Y-95312564D01*
X171279976Y-95312586D01*
X171279255Y-95312931D01*
X171275610Y-95314218D01*
X171273297Y-95314342D01*
X171126492Y-95375147D01*
X171103237Y-95382202D01*
X171081315Y-95386563D01*
X171050879Y-95392617D01*
X171026691Y-95395000D01*
X170973310Y-95395000D01*
X170949118Y-95392617D01*
X170896756Y-95382201D01*
X170873496Y-95375145D01*
X170737587Y-95318850D01*
X170714283Y-95311778D01*
X170698890Y-95305078D01*
X170698887Y-95305077D01*
X170631507Y-95286594D01*
X170613579Y-95284342D01*
X170488749Y-95268666D01*
X170373397Y-95287362D01*
X170346723Y-95291685D01*
X170346721Y-95291685D01*
X170346718Y-95291686D01*
X170282283Y-95311862D01*
X170282237Y-95311878D01*
X170280047Y-95312564D01*
X170279976Y-95312586D01*
X170279255Y-95312931D01*
X170275610Y-95314218D01*
X170273297Y-95314342D01*
X170126492Y-95375147D01*
X170103237Y-95382202D01*
X170081315Y-95386563D01*
X170050879Y-95392617D01*
X170026691Y-95395000D01*
X169973310Y-95395000D01*
X169949118Y-95392617D01*
X169896756Y-95382201D01*
X169873496Y-95375145D01*
X169737587Y-95318850D01*
X169714283Y-95311778D01*
X169698890Y-95305078D01*
X169698887Y-95305077D01*
X169631507Y-95286594D01*
X169613579Y-95284342D01*
X169488749Y-95268666D01*
X169373397Y-95287362D01*
X169346723Y-95291685D01*
X169346721Y-95291685D01*
X169346718Y-95291686D01*
X169282283Y-95311862D01*
X169282237Y-95311878D01*
X169280047Y-95312564D01*
X169279976Y-95312586D01*
X169279255Y-95312931D01*
X169275610Y-95314218D01*
X169273297Y-95314342D01*
X169126492Y-95375147D01*
X169103237Y-95382202D01*
X169081315Y-95386563D01*
X169050879Y-95392617D01*
X169026691Y-95395000D01*
X168973310Y-95395000D01*
X168949118Y-95392617D01*
X168896756Y-95382201D01*
X168873496Y-95375145D01*
X168737587Y-95318850D01*
X168714283Y-95311778D01*
X168698890Y-95305078D01*
X168698887Y-95305077D01*
X168631507Y-95286594D01*
X168613579Y-95284342D01*
X168488749Y-95268666D01*
X168373397Y-95287362D01*
X168346723Y-95291685D01*
X168346721Y-95291685D01*
X168346718Y-95291686D01*
X168282283Y-95311862D01*
X168282237Y-95311878D01*
X168280047Y-95312564D01*
X168279976Y-95312586D01*
X168279255Y-95312931D01*
X168275610Y-95314218D01*
X168273297Y-95314342D01*
X168126492Y-95375147D01*
X168103237Y-95382202D01*
X168081315Y-95386563D01*
X168050879Y-95392617D01*
X168026691Y-95395000D01*
X167973310Y-95395000D01*
X167949118Y-95392617D01*
X167896756Y-95382201D01*
X167873496Y-95375145D01*
X167737587Y-95318850D01*
X167714283Y-95311778D01*
X167698890Y-95305078D01*
X167698887Y-95305077D01*
X167631507Y-95286594D01*
X167613579Y-95284342D01*
X167488749Y-95268666D01*
X167373397Y-95287362D01*
X167346723Y-95291685D01*
X167346721Y-95291685D01*
X167346718Y-95291686D01*
X167282283Y-95311862D01*
X167282237Y-95311878D01*
X167280047Y-95312564D01*
X167279976Y-95312586D01*
X167279255Y-95312931D01*
X167275610Y-95314218D01*
X167273297Y-95314342D01*
X167126492Y-95375147D01*
X167103237Y-95382202D01*
X167081315Y-95386563D01*
X167050879Y-95392617D01*
X167026691Y-95395000D01*
X166973310Y-95395000D01*
X166949118Y-95392617D01*
X166896756Y-95382201D01*
X166873496Y-95375145D01*
X166733579Y-95317190D01*
X166719509Y-95313209D01*
X166718749Y-95312912D01*
X166701995Y-95306128D01*
X166700397Y-95305733D01*
X166698891Y-95305078D01*
X166698271Y-95304907D01*
X166698261Y-95304904D01*
X166688182Y-95302140D01*
X166688169Y-95302132D01*
X166642874Y-95289711D01*
X166638616Y-95288628D01*
X166638638Y-95288550D01*
X166631461Y-95286582D01*
X166629700Y-95286360D01*
X166629697Y-95286360D01*
X166621042Y-95285273D01*
X166606788Y-95282627D01*
X166562361Y-95271661D01*
X166562360Y-95271661D01*
X166535892Y-95272815D01*
X166515050Y-95271967D01*
X166488758Y-95268666D01*
X166443573Y-95275989D01*
X166430801Y-95277385D01*
X166429991Y-95277431D01*
X166418616Y-95277927D01*
X166417450Y-95278146D01*
X166417445Y-95278147D01*
X166415065Y-95278596D01*
X166415059Y-95278597D01*
X166362124Y-95288578D01*
X166361763Y-95288652D01*
X166349896Y-95290891D01*
X166348458Y-95291381D01*
X166347993Y-95291477D01*
X166346731Y-95291682D01*
X166346227Y-95291839D01*
X166346216Y-95291842D01*
X166290069Y-95309423D01*
X166272548Y-95317317D01*
X166213799Y-95337389D01*
X166207338Y-95340686D01*
X166201576Y-95344066D01*
X166190833Y-95349678D01*
X166179249Y-95355026D01*
X166174861Y-95357268D01*
X166174842Y-95357279D01*
X166115153Y-95393160D01*
X166115148Y-95393162D01*
X166115147Y-95393164D01*
X166096307Y-95406338D01*
X166087151Y-95412740D01*
X166087134Y-95412753D01*
X166036631Y-95453461D01*
X166036627Y-95453465D01*
X166033504Y-95455983D01*
X166031868Y-95458000D01*
X166028606Y-95460568D01*
X165976825Y-95525878D01*
X165976022Y-95526867D01*
X165976009Y-95526884D01*
X165942885Y-95567732D01*
X165942846Y-95567787D01*
X165940489Y-95571708D01*
X165939218Y-95573312D01*
X165929471Y-95590038D01*
X165929045Y-95590749D01*
X165928961Y-95590825D01*
X165924820Y-95597949D01*
X165924072Y-95599218D01*
X165916806Y-95611379D01*
X165916452Y-95612145D01*
X165906690Y-95628551D01*
X165906226Y-95629475D01*
X165904576Y-95632522D01*
X165903805Y-95634096D01*
X165884541Y-95681734D01*
X165884061Y-95682904D01*
X165851589Y-95760902D01*
X165850658Y-95764517D01*
X165850646Y-95764567D01*
X165850062Y-95766832D01*
X165841742Y-95850453D01*
X165841704Y-95850849D01*
X165841659Y-95851302D01*
X165835879Y-95903918D01*
X165835899Y-95904517D01*
X165836366Y-95904501D01*
X165835798Y-95910221D01*
X165835866Y-95911787D01*
X165835866Y-95911792D01*
X165837009Y-95937965D01*
X165837058Y-95939234D01*
X165837595Y-95955335D01*
X165837661Y-95955800D01*
X165838296Y-95974238D01*
X165838296Y-95974254D01*
X165863657Y-96115884D01*
X165888470Y-96190763D01*
X165894121Y-96217152D01*
X165894356Y-96219450D01*
X165894999Y-96232065D01*
X165894999Y-96917933D01*
X165894356Y-96930542D01*
X165894121Y-96932841D01*
X165888470Y-96959236D01*
X165878113Y-96990491D01*
X165865947Y-97016580D01*
X165865946Y-97016583D01*
X165851096Y-97040659D01*
X165833238Y-97063244D01*
X165813244Y-97083238D01*
X165790659Y-97101096D01*
X165766583Y-97115946D01*
X165740492Y-97128112D01*
X165709238Y-97138469D01*
X165682848Y-97144121D01*
X165681399Y-97144269D01*
X165680548Y-97144356D01*
X165667935Y-97144999D01*
X164332065Y-97144999D01*
X164319456Y-97144356D01*
X164317157Y-97144121D01*
X164290762Y-97138470D01*
X164259507Y-97128113D01*
X164233414Y-97115945D01*
X164205574Y-97098773D01*
X164192864Y-97089786D01*
X164110982Y-97023800D01*
X164110983Y-97023800D01*
X164110981Y-97023799D01*
X164066634Y-96995298D01*
X164066635Y-96995298D01*
X164066628Y-96995294D01*
X163969987Y-96946920D01*
X163969986Y-96946919D01*
X163969985Y-96946919D01*
X163969983Y-96946918D01*
X163969976Y-96946916D01*
X163829404Y-96916337D01*
X163829393Y-96916336D01*
X163806162Y-96914674D01*
X163759703Y-96911352D01*
X163759700Y-96911352D01*
X163616189Y-96921616D01*
X163481385Y-96971896D01*
X163420057Y-97005383D01*
X163420055Y-97005384D01*
X163303878Y-97092354D01*
X163294663Y-97098627D01*
X163266582Y-97115947D01*
X163240492Y-97128112D01*
X163209238Y-97138469D01*
X163182848Y-97144121D01*
X163181399Y-97144269D01*
X163180548Y-97144356D01*
X163167935Y-97144999D01*
X161832065Y-97144999D01*
X161819456Y-97144356D01*
X161817157Y-97144121D01*
X161790762Y-97138470D01*
X161759507Y-97128113D01*
X161733415Y-97115946D01*
X161709339Y-97101096D01*
X161686754Y-97083238D01*
X161645126Y-97041610D01*
X161645108Y-97041593D01*
X161560990Y-96973806D01*
X161560985Y-96973802D01*
X161560983Y-96973801D01*
X161560981Y-96973799D01*
X161516634Y-96945298D01*
X161516635Y-96945298D01*
X161516628Y-96945294D01*
X161419987Y-96896920D01*
X161419986Y-96896919D01*
X161419985Y-96896919D01*
X161419983Y-96896918D01*
X161419976Y-96896916D01*
X161279404Y-96866337D01*
X161279393Y-96866336D01*
X161256162Y-96864674D01*
X161209703Y-96861352D01*
X161209700Y-96861352D01*
X161066189Y-96871616D01*
X160931385Y-96921896D01*
X160870060Y-96955381D01*
X160754882Y-97041603D01*
X160754869Y-97041614D01*
X160713242Y-97083240D01*
X160690659Y-97101096D01*
X160666583Y-97115946D01*
X160640492Y-97128112D01*
X160609238Y-97138469D01*
X160582848Y-97144121D01*
X160581399Y-97144269D01*
X160580548Y-97144356D01*
X160567935Y-97144999D01*
X159232065Y-97144999D01*
X159219456Y-97144356D01*
X159217157Y-97144121D01*
X159190762Y-97138470D01*
X159159507Y-97128113D01*
X159133415Y-97115946D01*
X159109339Y-97101096D01*
X159086754Y-97083238D01*
X159045126Y-97041610D01*
X159045108Y-97041593D01*
X158960990Y-96973806D01*
X158960985Y-96973802D01*
X158960983Y-96973801D01*
X158960981Y-96973799D01*
X158916634Y-96945298D01*
X158916635Y-96945298D01*
X158916628Y-96945294D01*
X158819987Y-96896920D01*
X158819986Y-96896919D01*
X158819985Y-96896919D01*
X158819983Y-96896918D01*
X158819976Y-96896916D01*
X158679404Y-96866337D01*
X158679393Y-96866336D01*
X158656162Y-96864674D01*
X158609703Y-96861352D01*
X158609700Y-96861352D01*
X158466189Y-96871616D01*
X158331385Y-96921896D01*
X158270060Y-96955381D01*
X158154882Y-97041603D01*
X158154869Y-97041614D01*
X158113242Y-97083240D01*
X158090659Y-97101096D01*
X158066583Y-97115946D01*
X158040492Y-97128112D01*
X158009238Y-97138469D01*
X157982848Y-97144121D01*
X157981399Y-97144269D01*
X157980548Y-97144356D01*
X157967935Y-97144999D01*
X156632065Y-97144999D01*
X156619456Y-97144356D01*
X156617157Y-97144121D01*
X156590762Y-97138470D01*
X156559507Y-97128113D01*
X156533415Y-97115946D01*
X156509339Y-97101096D01*
X156486754Y-97083238D01*
X156445126Y-97041610D01*
X156445108Y-97041593D01*
X156360990Y-96973806D01*
X156360985Y-96973802D01*
X156360983Y-96973801D01*
X156360981Y-96973799D01*
X156316634Y-96945298D01*
X156316635Y-96945298D01*
X156316628Y-96945294D01*
X156219987Y-96896920D01*
X156219986Y-96896919D01*
X156219985Y-96896919D01*
X156219983Y-96896918D01*
X156219976Y-96896916D01*
X156079404Y-96866337D01*
X156079393Y-96866336D01*
X156056162Y-96864674D01*
X156009703Y-96861352D01*
X156009700Y-96861352D01*
X155866189Y-96871616D01*
X155731385Y-96921896D01*
X155670060Y-96955381D01*
X155554882Y-97041603D01*
X155554869Y-97041614D01*
X155513242Y-97083240D01*
X155490659Y-97101096D01*
X155466583Y-97115946D01*
X155440492Y-97128112D01*
X155409238Y-97138469D01*
X155382848Y-97144121D01*
X155381399Y-97144269D01*
X155380548Y-97144356D01*
X155367935Y-97144999D01*
X154032065Y-97144999D01*
X154019456Y-97144356D01*
X154017157Y-97144121D01*
X153990762Y-97138470D01*
X153959507Y-97128113D01*
X153933414Y-97115945D01*
X153905574Y-97098773D01*
X153892864Y-97089786D01*
X153810982Y-97023800D01*
X153810983Y-97023800D01*
X153810981Y-97023799D01*
X153766634Y-96995298D01*
X153766635Y-96995298D01*
X153766628Y-96995294D01*
X153669987Y-96946920D01*
X153669986Y-96946919D01*
X153669985Y-96946919D01*
X153669983Y-96946918D01*
X153669976Y-96946916D01*
X153529404Y-96916337D01*
X153529393Y-96916336D01*
X153506162Y-96914674D01*
X153459703Y-96911352D01*
X153459700Y-96911352D01*
X153316189Y-96921616D01*
X153181385Y-96971896D01*
X153120057Y-97005383D01*
X153120055Y-97005384D01*
X153003878Y-97092354D01*
X152994663Y-97098627D01*
X152966582Y-97115947D01*
X152940492Y-97128112D01*
X152909238Y-97138469D01*
X152882848Y-97144121D01*
X152881399Y-97144269D01*
X152880548Y-97144356D01*
X152867935Y-97144999D01*
X151532065Y-97144999D01*
X151519456Y-97144356D01*
X151517157Y-97144121D01*
X151490762Y-97138470D01*
X151459507Y-97128113D01*
X151433415Y-97115946D01*
X151409339Y-97101096D01*
X151386754Y-97083238D01*
X151366760Y-97063244D01*
X151348901Y-97040657D01*
X151334051Y-97016580D01*
X151321886Y-96990493D01*
X151311529Y-96959240D01*
X151305874Y-96932810D01*
X151305637Y-96930491D01*
X151305000Y-96917936D01*
X151305000Y-96232056D01*
X151305641Y-96219465D01*
X151305877Y-96217152D01*
X151306229Y-96213705D01*
X151308753Y-96198465D01*
X151329427Y-96108801D01*
X151335543Y-96063159D01*
X151339296Y-95968961D01*
X151336678Y-95955800D01*
X151311225Y-95827844D01*
X151311224Y-95827842D01*
X151288349Y-95763002D01*
X151287980Y-95761956D01*
X151258224Y-95705071D01*
X151221295Y-95634473D01*
X151221292Y-95634469D01*
X151121393Y-95530938D01*
X151121391Y-95530936D01*
X151121387Y-95530932D01*
X151114881Y-95525878D01*
X151066891Y-95488597D01*
X151066282Y-95488117D01*
X151066208Y-95488066D01*
X150979216Y-95438531D01*
X150941175Y-95416869D01*
X150801150Y-95383782D01*
X150731558Y-95377555D01*
X150731554Y-95377555D01*
X150731553Y-95377555D01*
X150587890Y-95385256D01*
X150587883Y-95385257D01*
X150550886Y-95392617D01*
X150526694Y-95395000D01*
X150473310Y-95395000D01*
X150449118Y-95392617D01*
X150396756Y-95382201D01*
X150373496Y-95375145D01*
X150237587Y-95318850D01*
X150214283Y-95311778D01*
X150198890Y-95305078D01*
X150198887Y-95305077D01*
X150131507Y-95286594D01*
X150113579Y-95284342D01*
X149988749Y-95268666D01*
X149873397Y-95287362D01*
X149846723Y-95291685D01*
X149846721Y-95291685D01*
X149846718Y-95291686D01*
X149782283Y-95311862D01*
X149782237Y-95311878D01*
X149780047Y-95312564D01*
X149779976Y-95312586D01*
X149779255Y-95312931D01*
X149775610Y-95314218D01*
X149773297Y-95314342D01*
X149626492Y-95375147D01*
X149603237Y-95382202D01*
X149581315Y-95386563D01*
X149550879Y-95392617D01*
X149526691Y-95395000D01*
X149473310Y-95395000D01*
X149449118Y-95392617D01*
X149396756Y-95382201D01*
X149373496Y-95375145D01*
X149237587Y-95318850D01*
X149214283Y-95311778D01*
X149198890Y-95305078D01*
X149198887Y-95305077D01*
X149131507Y-95286594D01*
X149113579Y-95284342D01*
X148988749Y-95268666D01*
X148873397Y-95287362D01*
X148846723Y-95291685D01*
X148846721Y-95291685D01*
X148846718Y-95291686D01*
X148782283Y-95311862D01*
X148782237Y-95311878D01*
X148780047Y-95312564D01*
X148779976Y-95312586D01*
X148779255Y-95312931D01*
X148775610Y-95314218D01*
X148773297Y-95314342D01*
X148626492Y-95375147D01*
X148603237Y-95382202D01*
X148581315Y-95386563D01*
X148550879Y-95392617D01*
X148526691Y-95395000D01*
X148473312Y-95395000D01*
X148449119Y-95392617D01*
X148434536Y-95389716D01*
X148396754Y-95382200D01*
X148373498Y-95375145D01*
X148324865Y-95355002D01*
X148306201Y-95345344D01*
X148299540Y-95341146D01*
X148299124Y-95340841D01*
X148286265Y-95332723D01*
X148285000Y-95332057D01*
X148277373Y-95327392D01*
X148277371Y-95327391D01*
X148223499Y-95305078D01*
X148204564Y-95297235D01*
X148160426Y-95277512D01*
X148160275Y-95277469D01*
X148159913Y-95278740D01*
X148159567Y-95278597D01*
X148153271Y-95275989D01*
X148144438Y-95272330D01*
X148128014Y-95268138D01*
X148127953Y-95268122D01*
X148124650Y-95267277D01*
X148124646Y-95267274D01*
X148121428Y-95266407D01*
X148112678Y-95263916D01*
X148111084Y-95263641D01*
X148091471Y-95258130D01*
X148087127Y-95257238D01*
X148087137Y-95257187D01*
X148078818Y-95255582D01*
X148076723Y-95255047D01*
X148076716Y-95255046D01*
X148031805Y-95250217D01*
X148028838Y-95249862D01*
X147948915Y-95239313D01*
X147948908Y-95239314D01*
X147941322Y-95240493D01*
X147933695Y-95239674D01*
X147853088Y-95254216D01*
X147851591Y-95254449D01*
X147806748Y-95261422D01*
X147806727Y-95261427D01*
X147804585Y-95262083D01*
X147803868Y-95262300D01*
X147797176Y-95264303D01*
X147792101Y-95265219D01*
X147774050Y-95271225D01*
X147773346Y-95271437D01*
X147767100Y-95273520D01*
X147764195Y-95274449D01*
X147756271Y-95276874D01*
X147756186Y-95276909D01*
X147739839Y-95281917D01*
X147735711Y-95283512D01*
X147735692Y-95283465D01*
X147727874Y-95286595D01*
X147725596Y-95287354D01*
X147725578Y-95287362D01*
X147684994Y-95307686D01*
X147682273Y-95309007D01*
X147609852Y-95343090D01*
X147603437Y-95347315D01*
X147597142Y-95351688D01*
X147538440Y-95406337D01*
X147538441Y-95406338D01*
X147537316Y-95407385D01*
X147502179Y-95438531D01*
X147501177Y-95439714D01*
X147501917Y-95440341D01*
X147491850Y-95449714D01*
X147491835Y-95449730D01*
X147475953Y-95469436D01*
X147474211Y-95471548D01*
X147468172Y-95478711D01*
X147468122Y-95478743D01*
X147468026Y-95478884D01*
X147456910Y-95492019D01*
X147456900Y-95492032D01*
X147380600Y-95613816D01*
X147380009Y-95615151D01*
X147375155Y-95626477D01*
X147342601Y-95705071D01*
X147336688Y-95717381D01*
X147326777Y-95735397D01*
X147326769Y-95735413D01*
X147322444Y-95745184D01*
X147289198Y-95849660D01*
X147289197Y-95849662D01*
X147278606Y-95902058D01*
X147278604Y-95902071D01*
X147268666Y-96011251D01*
X147291685Y-96153280D01*
X147312558Y-96219937D01*
X147312616Y-96220103D01*
X147331589Y-96266647D01*
X147330990Y-96266896D01*
X147375214Y-96373667D01*
X147375412Y-96374152D01*
X147375446Y-96374492D01*
X147382203Y-96396765D01*
X147392617Y-96449113D01*
X147395000Y-96473307D01*
X147395000Y-96526688D01*
X147392617Y-96550882D01*
X147382201Y-96603240D01*
X147375146Y-96626497D01*
X147318829Y-96762465D01*
X147311774Y-96785724D01*
X147305082Y-96801100D01*
X147305073Y-96801125D01*
X147286595Y-96868484D01*
X147286594Y-96868492D01*
X147268666Y-97011252D01*
X147291685Y-97153280D01*
X147312558Y-97219937D01*
X147312616Y-97220103D01*
X147331589Y-97266647D01*
X147330990Y-97266896D01*
X147375214Y-97373667D01*
X147375412Y-97374152D01*
X147375446Y-97374492D01*
X147382203Y-97396765D01*
X147392617Y-97449113D01*
X147395000Y-97473307D01*
X147395000Y-97526688D01*
X147392617Y-97550881D01*
X147382201Y-97603241D01*
X147375145Y-97626500D01*
X147354717Y-97675818D01*
X147343258Y-97697257D01*
X147313599Y-97741645D01*
X147298178Y-97760435D01*
X147260435Y-97798178D01*
X147241644Y-97813600D01*
X147197260Y-97843256D01*
X147175822Y-97854714D01*
X147126492Y-97875147D01*
X147103237Y-97882202D01*
X147103233Y-97882203D01*
X147050880Y-97892617D01*
X147026691Y-97895000D01*
X146973310Y-97895000D01*
X146949118Y-97892617D01*
X146896756Y-97882201D01*
X146873496Y-97875145D01*
X146737587Y-97818850D01*
X146714283Y-97811778D01*
X146698890Y-97805078D01*
X146698887Y-97805077D01*
X146631507Y-97786594D01*
X146613579Y-97784342D01*
X146488749Y-97768666D01*
X146366646Y-97788456D01*
X146346723Y-97791685D01*
X146346721Y-97791685D01*
X146346718Y-97791686D01*
X146282283Y-97811862D01*
X146282237Y-97811878D01*
X146280047Y-97812564D01*
X146279976Y-97812586D01*
X146279255Y-97812931D01*
X146275610Y-97814218D01*
X146273297Y-97814342D01*
X146126492Y-97875147D01*
X146103237Y-97882202D01*
X146081315Y-97886563D01*
X146050879Y-97892617D01*
X146026691Y-97895000D01*
X145973310Y-97895000D01*
X145949118Y-97892617D01*
X145896756Y-97882201D01*
X145873496Y-97875145D01*
X145737587Y-97818850D01*
X145714283Y-97811778D01*
X145698890Y-97805078D01*
X145698887Y-97805077D01*
X145631507Y-97786594D01*
X145613579Y-97784342D01*
X145488749Y-97768666D01*
X145366646Y-97788456D01*
X145346723Y-97791685D01*
X145346721Y-97791685D01*
X145346718Y-97791686D01*
X145282283Y-97811862D01*
X145282237Y-97811878D01*
X145280047Y-97812564D01*
X145279976Y-97812586D01*
X145279255Y-97812931D01*
X145275610Y-97814218D01*
X145273297Y-97814342D01*
X145126492Y-97875147D01*
X145103237Y-97882202D01*
X145081315Y-97886563D01*
X145050879Y-97892617D01*
X145026691Y-97895000D01*
X144973312Y-97895000D01*
X144949120Y-97892617D01*
X144896758Y-97882201D01*
X144873508Y-97875149D01*
X144864900Y-97871584D01*
X144864899Y-97871583D01*
X144864895Y-97871582D01*
X144805167Y-97851109D01*
X144775392Y-97842941D01*
X144775382Y-97842938D01*
X144725942Y-97832646D01*
X144713583Y-97830073D01*
X144713582Y-97830073D01*
X144569706Y-97830073D01*
X144541585Y-97834117D01*
X144500545Y-97840018D01*
X144500540Y-97840019D01*
X144500536Y-97840020D01*
X144362498Y-97880552D01*
X144362492Y-97880555D01*
X144241462Y-97958337D01*
X144241451Y-97958345D01*
X144188659Y-98004089D01*
X144094433Y-98112830D01*
X144094430Y-98112834D01*
X144034664Y-98243700D01*
X144014976Y-98310748D01*
X143994500Y-98453167D01*
X143994500Y-102720500D01*
X143974815Y-102787539D01*
X143922011Y-102833294D01*
X143870500Y-102844500D01*
X139873991Y-102844500D01*
X139840944Y-102848054D01*
X139789433Y-102859260D01*
X139720657Y-102893686D01*
X139667860Y-102939436D01*
X139662376Y-102944422D01*
X139620486Y-103013145D01*
X139620483Y-103013151D01*
X139600799Y-103080187D01*
X139600797Y-103080197D01*
X139594500Y-103123996D01*
X137300500Y-103123996D01*
X137300500Y-94878048D01*
X139139500Y-94878048D01*
X139139500Y-95121951D01*
X139165424Y-95318854D01*
X139171334Y-95363744D01*
X139234456Y-95599320D01*
X139234459Y-95599330D01*
X139327786Y-95824640D01*
X139327791Y-95824651D01*
X139449727Y-96035848D01*
X139449738Y-96035864D01*
X139598199Y-96229343D01*
X139598205Y-96229350D01*
X139770649Y-96401794D01*
X139770655Y-96401799D01*
X139964144Y-96550268D01*
X139977416Y-96557931D01*
X140175348Y-96672208D01*
X140175353Y-96672210D01*
X140175356Y-96672212D01*
X140276876Y-96714263D01*
X140393245Y-96762465D01*
X140400679Y-96765544D01*
X140636256Y-96828666D01*
X140878056Y-96860500D01*
X140878063Y-96860500D01*
X141121937Y-96860500D01*
X141121944Y-96860500D01*
X141363744Y-96828666D01*
X141599321Y-96765544D01*
X141824644Y-96672212D01*
X142035856Y-96550268D01*
X142229345Y-96401799D01*
X142401799Y-96229345D01*
X142550268Y-96035856D01*
X142670364Y-95827845D01*
X142672208Y-95824651D01*
X142672208Y-95824650D01*
X142672212Y-95824644D01*
X142765544Y-95599321D01*
X142828666Y-95363744D01*
X142860500Y-95121944D01*
X142860500Y-94878056D01*
X142828666Y-94636256D01*
X142765544Y-94400679D01*
X142672212Y-94175356D01*
X142672210Y-94175353D01*
X142672208Y-94175348D01*
X142550272Y-93964151D01*
X142550268Y-93964144D01*
X142401799Y-93770655D01*
X142401794Y-93770649D01*
X142229350Y-93598205D01*
X142229343Y-93598199D01*
X142035864Y-93449738D01*
X142035862Y-93449736D01*
X142035856Y-93449732D01*
X142035851Y-93449729D01*
X142035848Y-93449727D01*
X141824651Y-93327791D01*
X141824640Y-93327786D01*
X141599330Y-93234459D01*
X141599323Y-93234457D01*
X141599321Y-93234456D01*
X141363744Y-93171334D01*
X141323333Y-93166013D01*
X141121951Y-93139500D01*
X141121944Y-93139500D01*
X140878056Y-93139500D01*
X140878048Y-93139500D01*
X140647896Y-93169801D01*
X140636256Y-93171334D01*
X140400679Y-93234456D01*
X140400669Y-93234459D01*
X140175359Y-93327786D01*
X140175348Y-93327791D01*
X139964151Y-93449727D01*
X139964135Y-93449738D01*
X139770656Y-93598199D01*
X139770649Y-93598205D01*
X139598205Y-93770649D01*
X139598199Y-93770656D01*
X139449738Y-93964135D01*
X139449727Y-93964151D01*
X139327791Y-94175348D01*
X139327786Y-94175359D01*
X139234459Y-94400669D01*
X139234456Y-94400679D01*
X139171335Y-94636253D01*
X139171333Y-94636264D01*
X139139500Y-94878048D01*
X137300500Y-94878048D01*
X137300500Y-91424500D01*
X137320185Y-91357461D01*
X137372989Y-91311706D01*
X137424500Y-91300500D01*
X181575500Y-91300500D01*
X181642539Y-91320185D01*
G37*
%TD.AperFunction*%
%TD*%
M02*
