%TF.GenerationSoftware,KiCad,Pcbnew,9.0.6*%
%TF.CreationDate,2026-01-16T13:55:08+01:00*%
%TF.ProjectId,Buck,4275636b-2e6b-4696-9361-645f70636258,rev?*%
%TF.SameCoordinates,Original*%
%TF.FileFunction,Paste,Top*%
%TF.FilePolarity,Positive*%
%FSLAX46Y46*%
G04 Gerber Fmt 4.6, Leading zero omitted, Abs format (unit mm)*
G04 Created by KiCad (PCBNEW 9.0.6) date 2026-01-16 13:55:08*
%MOMM*%
%LPD*%
G01*
G04 APERTURE LIST*
G04 Aperture macros list*
%AMRoundRect*
0 Rectangle with rounded corners*
0 $1 Rounding radius*
0 $2 $3 $4 $5 $6 $7 $8 $9 X,Y pos of 4 corners*
0 Add a 4 corners polygon primitive as box body*
4,1,4,$2,$3,$4,$5,$6,$7,$8,$9,$2,$3,0*
0 Add four circle primitives for the rounded corners*
1,1,$1+$1,$2,$3*
1,1,$1+$1,$4,$5*
1,1,$1+$1,$6,$7*
1,1,$1+$1,$8,$9*
0 Add four rect primitives between the rounded corners*
20,1,$1+$1,$2,$3,$4,$5,0*
20,1,$1+$1,$4,$5,$6,$7,0*
20,1,$1+$1,$6,$7,$8,$9,0*
20,1,$1+$1,$8,$9,$2,$3,0*%
%AMFreePoly0*
4,1,9,0.000001,0.700000,0.000001,0.000000,0.000000,-0.000001,-0.500000,-0.000001,-0.500001,0.000000,-0.500001,0.700000,-0.500000,0.700001,0.000000,0.700001,0.000001,0.700000,0.000001,0.700000,$1*%
%AMFreePoly1*
4,1,9,0.750001,3.365000,0.750001,0.000000,0.750000,-0.000001,0.000000,-0.000001,-0.000001,0.000000,-0.000001,3.365000,0.000000,3.365001,0.750000,3.365001,0.750001,3.365000,0.750001,3.365000,$1*%
%AMFreePoly2*
4,1,9,0.500001,0.000000,0.500001,-0.700000,0.500000,-0.700001,0.000000,-0.700001,-0.000001,-0.700000,-0.000001,0.000000,0.000000,0.000001,0.500000,0.000001,0.500001,0.000000,0.500001,0.000000,$1*%
%AMFreePoly3*
4,1,9,0.000001,0.000000,0.000001,-4.700000,0.000000,-4.700001,-4.534500,-4.700001,-4.534501,-4.700000,-4.534501,0.000000,-4.534500,0.000001,0.000000,0.000001,0.000001,0.000000,0.000001,0.000000,$1*%
G04 Aperture macros list end*
%ADD10C,0.000000*%
%ADD11RoundRect,0.200000X0.275000X-0.200000X0.275000X0.200000X-0.275000X0.200000X-0.275000X-0.200000X0*%
%ADD12R,0.399999X0.700001*%
%ADD13R,0.635000X1.854200*%
%ADD14R,6.045200X5.105400*%
%ADD15R,10.109200X5.105400*%
%ADD16RoundRect,0.200000X-0.200000X-0.275000X0.200000X-0.275000X0.200000X0.275000X-0.200000X0.275000X0*%
%ADD17RoundRect,0.200000X-0.275000X0.200000X-0.275000X-0.200000X0.275000X-0.200000X0.275000X0.200000X0*%
%ADD18RoundRect,0.225000X0.250000X-0.225000X0.250000X0.225000X-0.250000X0.225000X-0.250000X-0.225000X0*%
%ADD19RoundRect,0.250000X0.650000X-0.325000X0.650000X0.325000X-0.650000X0.325000X-0.650000X-0.325000X0*%
%ADD20RoundRect,0.225000X0.225000X0.250000X-0.225000X0.250000X-0.225000X-0.250000X0.225000X-0.250000X0*%
%ADD21RoundRect,0.250000X0.325000X1.100000X-0.325000X1.100000X-0.325000X-1.100000X0.325000X-1.100000X0*%
%ADD22RoundRect,0.225000X-0.225000X-0.250000X0.225000X-0.250000X0.225000X0.250000X-0.225000X0.250000X0*%
%ADD23RoundRect,0.140000X-0.140000X-0.170000X0.140000X-0.170000X0.140000X0.170000X-0.140000X0.170000X0*%
%ADD24RoundRect,0.250000X1.050000X0.550000X-1.050000X0.550000X-1.050000X-0.550000X1.050000X-0.550000X0*%
%ADD25R,4.000000X14.000000*%
%ADD26R,0.431800X0.660400*%
%ADD27R,0.127000X0.127000*%
%ADD28RoundRect,0.147500X-0.172500X0.147500X-0.172500X-0.147500X0.172500X-0.147500X0.172500X0.147500X0*%
%ADD29R,0.249999X0.599999*%
%ADD30R,0.599999X0.249999*%
%ADD31FreePoly0,270.000000*%
%ADD32R,0.650000X1.250000*%
%ADD33FreePoly1,270.000000*%
%ADD34FreePoly2,270.000000*%
%ADD35FreePoly3,270.000000*%
%ADD36RoundRect,0.250000X0.262500X0.450000X-0.262500X0.450000X-0.262500X-0.450000X0.262500X-0.450000X0*%
%ADD37RoundRect,0.135000X-0.135000X-0.185000X0.135000X-0.185000X0.135000X0.185000X-0.135000X0.185000X0*%
%ADD38R,4.500000X1.650000*%
G04 APERTURE END LIST*
D10*
%TO.C,U3*%
G36*
X207400280Y-123140951D02*
G01*
X207409539Y-123143757D01*
X207418070Y-123148319D01*
X207425548Y-123154456D01*
X207431685Y-123161933D01*
X207436247Y-123170465D01*
X207439053Y-123179724D01*
X207440001Y-123189353D01*
X207440001Y-123795651D01*
X207439053Y-123805280D01*
X207436247Y-123814538D01*
X207431685Y-123823070D01*
X207425548Y-123830548D01*
X207418070Y-123836684D01*
X207409539Y-123841246D01*
X207400280Y-123844053D01*
X207390651Y-123845003D01*
X206364354Y-123845003D01*
X206354725Y-123844053D01*
X206345467Y-123841246D01*
X206336935Y-123836684D01*
X206329457Y-123830548D01*
X206323320Y-123823070D01*
X206318758Y-123814538D01*
X206315952Y-123805280D01*
X206315002Y-123795651D01*
X206315002Y-123189353D01*
X206315952Y-123179724D01*
X206318758Y-123170465D01*
X206323320Y-123161933D01*
X206329457Y-123154456D01*
X206336935Y-123148319D01*
X206345467Y-123143757D01*
X206354725Y-123140951D01*
X206364354Y-123140003D01*
X207390651Y-123140003D01*
X207400280Y-123140951D01*
G37*
G36*
X206075284Y-123140951D02*
G01*
X206084543Y-123143757D01*
X206093074Y-123148319D01*
X206100552Y-123154456D01*
X206106689Y-123161933D01*
X206111251Y-123170465D01*
X206114057Y-123179724D01*
X206115007Y-123189353D01*
X206115007Y-123795651D01*
X206114057Y-123805280D01*
X206111251Y-123814538D01*
X206106689Y-123823070D01*
X206100552Y-123830548D01*
X206093074Y-123836684D01*
X206084543Y-123841246D01*
X206075284Y-123844053D01*
X206065655Y-123845003D01*
X205039358Y-123845003D01*
X205029729Y-123844053D01*
X205020470Y-123841246D01*
X205011939Y-123836684D01*
X205004461Y-123830548D01*
X204998324Y-123823070D01*
X204993762Y-123814538D01*
X204990956Y-123805280D01*
X204990008Y-123795651D01*
X204990008Y-123189353D01*
X204990956Y-123179724D01*
X204993762Y-123170465D01*
X204998324Y-123161933D01*
X205004461Y-123154456D01*
X205011939Y-123148319D01*
X205020470Y-123143757D01*
X205029729Y-123140951D01*
X205039358Y-123140003D01*
X206065655Y-123140003D01*
X206075284Y-123140951D01*
G37*
G36*
X207400280Y-124045950D02*
G01*
X207409539Y-124048757D01*
X207418070Y-124053319D01*
X207425548Y-124059455D01*
X207431685Y-124066933D01*
X207436247Y-124075465D01*
X207439053Y-124084723D01*
X207440001Y-124094352D01*
X207440001Y-124700650D01*
X207439053Y-124710279D01*
X207436247Y-124719538D01*
X207431685Y-124728070D01*
X207425548Y-124735547D01*
X207418070Y-124741684D01*
X207409539Y-124746246D01*
X207400280Y-124749052D01*
X207390651Y-124750002D01*
X206364354Y-124750002D01*
X206354725Y-124749052D01*
X206345467Y-124746246D01*
X206336935Y-124741684D01*
X206329457Y-124735547D01*
X206323320Y-124728070D01*
X206318758Y-124719538D01*
X206315952Y-124710279D01*
X206315002Y-124700650D01*
X206315002Y-124094352D01*
X206315952Y-124084723D01*
X206318758Y-124075465D01*
X206323320Y-124066933D01*
X206329457Y-124059455D01*
X206336935Y-124053319D01*
X206345467Y-124048757D01*
X206354725Y-124045950D01*
X206364354Y-124045003D01*
X207390651Y-124045003D01*
X207400280Y-124045950D01*
G37*
G36*
X206075284Y-124045950D02*
G01*
X206084543Y-124048757D01*
X206093074Y-124053319D01*
X206100552Y-124059455D01*
X206106689Y-124066933D01*
X206111251Y-124075465D01*
X206114057Y-124084723D01*
X206115007Y-124094352D01*
X206115007Y-124700650D01*
X206114057Y-124710279D01*
X206111251Y-124719538D01*
X206106689Y-124728070D01*
X206100552Y-124735547D01*
X206093074Y-124741684D01*
X206084543Y-124746246D01*
X206075284Y-124749052D01*
X206065655Y-124750002D01*
X205039358Y-124750002D01*
X205029729Y-124749052D01*
X205020470Y-124746246D01*
X205011939Y-124741684D01*
X205004461Y-124735547D01*
X204998324Y-124728070D01*
X204993762Y-124719538D01*
X204990956Y-124710279D01*
X204990008Y-124700650D01*
X204990008Y-124094352D01*
X204990956Y-124084723D01*
X204993762Y-124075465D01*
X204998324Y-124066933D01*
X205004461Y-124059455D01*
X205011939Y-124053319D01*
X205020470Y-124048757D01*
X205029729Y-124045950D01*
X205039358Y-124045003D01*
X206065655Y-124045003D01*
X206075284Y-124045950D01*
G37*
%TO.C,Q1*%
G36*
X164765901Y-101449800D02*
G01*
X164984100Y-101449800D01*
X164984100Y-100979800D01*
X165415900Y-100979800D01*
X165415900Y-101449800D01*
X165634102Y-101449800D01*
X165634102Y-100979800D01*
X166065902Y-100979800D01*
X166065902Y-101449800D01*
X166284100Y-101449800D01*
X166284100Y-100979800D01*
X166715900Y-100979800D01*
X166715905Y-102529500D01*
X167254905Y-102529500D01*
X167254905Y-103099500D01*
X166715905Y-103099500D01*
X166715905Y-103279500D01*
X164334097Y-103279500D01*
X164334097Y-103099500D01*
X163795097Y-103099500D01*
X163795097Y-102529500D01*
X164334097Y-102529500D01*
X164334102Y-100979800D01*
X164765901Y-100979800D01*
X164765901Y-101449800D01*
G37*
%TO.C,U1*%
G36*
X161210761Y-104940937D02*
G01*
X161219907Y-104943711D01*
X161228335Y-104948217D01*
X161235724Y-104954277D01*
X161241784Y-104961666D01*
X161246290Y-104970094D01*
X161249064Y-104979241D01*
X161250001Y-104988750D01*
X161250001Y-106101250D01*
X161249064Y-106110760D01*
X161246290Y-106119906D01*
X161241784Y-106128334D01*
X161235724Y-106135723D01*
X161228335Y-106141783D01*
X161219907Y-106146289D01*
X161210761Y-106149063D01*
X161201251Y-106150000D01*
X160548750Y-106150000D01*
X160539241Y-106149063D01*
X160530094Y-106146289D01*
X160521666Y-106141783D01*
X160514277Y-106135723D01*
X160508217Y-106128334D01*
X160503711Y-106119906D01*
X160500937Y-106110760D01*
X160500000Y-106101250D01*
X160500000Y-104988750D01*
X160500937Y-104979241D01*
X160503711Y-104970094D01*
X160508217Y-104961666D01*
X160514277Y-104954277D01*
X160521666Y-104948217D01*
X160530094Y-104943711D01*
X160539241Y-104940937D01*
X160548750Y-104940000D01*
X161201251Y-104940000D01*
X161210761Y-104940937D01*
G37*
G36*
X161210761Y-106350937D02*
G01*
X161219907Y-106353711D01*
X161228335Y-106358217D01*
X161235724Y-106364277D01*
X161241784Y-106371666D01*
X161246290Y-106380094D01*
X161249064Y-106389240D01*
X161250001Y-106398750D01*
X161250001Y-107511250D01*
X161249064Y-107520759D01*
X161246290Y-107529906D01*
X161241784Y-107538334D01*
X161235724Y-107545723D01*
X161228335Y-107551783D01*
X161219907Y-107556289D01*
X161210761Y-107559063D01*
X161201251Y-107560000D01*
X160548750Y-107560000D01*
X160539241Y-107559063D01*
X160530094Y-107556289D01*
X160521666Y-107551783D01*
X160514277Y-107545723D01*
X160508217Y-107538334D01*
X160503711Y-107529906D01*
X160500937Y-107520759D01*
X160500000Y-107511250D01*
X160500000Y-106398750D01*
X160500937Y-106389240D01*
X160503711Y-106380094D01*
X160508217Y-106371666D01*
X160514277Y-106364277D01*
X160521666Y-106358217D01*
X160530094Y-106353711D01*
X160539241Y-106350937D01*
X160548750Y-106350000D01*
X161201251Y-106350000D01*
X161210761Y-106350937D01*
G37*
G36*
X162160761Y-104940937D02*
G01*
X162169908Y-104943711D01*
X162178336Y-104948217D01*
X162185725Y-104954277D01*
X162191785Y-104961666D01*
X162196291Y-104970094D01*
X162199065Y-104979241D01*
X162200002Y-104988750D01*
X162200002Y-106101250D01*
X162199065Y-106110760D01*
X162196291Y-106119906D01*
X162191785Y-106128334D01*
X162185725Y-106135723D01*
X162178336Y-106141783D01*
X162169908Y-106146289D01*
X162160761Y-106149063D01*
X162151252Y-106150000D01*
X161498751Y-106150000D01*
X161489241Y-106149063D01*
X161480095Y-106146289D01*
X161471667Y-106141783D01*
X161464278Y-106135723D01*
X161458218Y-106128334D01*
X161453712Y-106119906D01*
X161450938Y-106110760D01*
X161450001Y-106101250D01*
X161450001Y-104988750D01*
X161450938Y-104979241D01*
X161453712Y-104970094D01*
X161458218Y-104961666D01*
X161464278Y-104954277D01*
X161471667Y-104948217D01*
X161480095Y-104943711D01*
X161489241Y-104940937D01*
X161498751Y-104940000D01*
X162151252Y-104940000D01*
X162160761Y-104940937D01*
G37*
G36*
X162160761Y-106350937D02*
G01*
X162169908Y-106353711D01*
X162178336Y-106358217D01*
X162185725Y-106364277D01*
X162191785Y-106371666D01*
X162196291Y-106380094D01*
X162199065Y-106389240D01*
X162200002Y-106398750D01*
X162200002Y-107511250D01*
X162199065Y-107520759D01*
X162196291Y-107529906D01*
X162191785Y-107538334D01*
X162185725Y-107545723D01*
X162178336Y-107551783D01*
X162169908Y-107556289D01*
X162160761Y-107559063D01*
X162151252Y-107560000D01*
X161498751Y-107560000D01*
X161489241Y-107559063D01*
X161480095Y-107556289D01*
X161471667Y-107551783D01*
X161464278Y-107545723D01*
X161458218Y-107538334D01*
X161453712Y-107529906D01*
X161450938Y-107520759D01*
X161450001Y-107511250D01*
X161450001Y-106398750D01*
X161450938Y-106389240D01*
X161453712Y-106380094D01*
X161458218Y-106371666D01*
X161464278Y-106364277D01*
X161471667Y-106358217D01*
X161480095Y-106353711D01*
X161489241Y-106350937D01*
X161498751Y-106350000D01*
X162151252Y-106350000D01*
X162160761Y-106350937D01*
G37*
%TD*%
D11*
%TO.C,R15*%
X213440000Y-119115000D03*
X213440000Y-120765000D03*
%TD*%
%TO.C,R18*%
X210240000Y-120765000D03*
X210240000Y-119115000D03*
%TD*%
D12*
%TO.C,U3*%
X205240003Y-122640002D03*
X205890001Y-122640002D03*
X206540003Y-122640002D03*
X207190001Y-122640002D03*
X207190001Y-125740000D03*
X206540000Y-125740000D03*
X205890001Y-125740000D03*
X205240000Y-125740000D03*
%TD*%
D13*
%TO.C,U2*%
X216302401Y-127590000D03*
X215311801Y-127590000D03*
X214321201Y-127590000D03*
X213330601Y-127590000D03*
X212340001Y-127590000D03*
X211349401Y-127590000D03*
X210358801Y-127590000D03*
X209368201Y-127590000D03*
X208377601Y-127590000D03*
X207387001Y-127590000D03*
X206396401Y-127590000D03*
X205405801Y-127590000D03*
X204415201Y-127590000D03*
X203424601Y-127590000D03*
X202434001Y-127590000D03*
X202434001Y-145598600D03*
X203424601Y-145598600D03*
X204415201Y-145598600D03*
X205405801Y-145598600D03*
X206396401Y-145598600D03*
X207387001Y-145598600D03*
X208377601Y-145598600D03*
X209368201Y-145598600D03*
X210358801Y-145598600D03*
X211349401Y-145598600D03*
X212340001Y-145598600D03*
X213330601Y-145598600D03*
X214321201Y-145598600D03*
X215311801Y-145598600D03*
X216302401Y-145598600D03*
D14*
X213440801Y-139572000D03*
X205295565Y-139572000D03*
D15*
X209368201Y-133616658D03*
%TD*%
D11*
%TO.C,R17*%
X204240000Y-98965000D03*
X204240000Y-97315000D03*
%TD*%
D16*
%TO.C,R16*%
X205915000Y-98890000D03*
X207565000Y-98890000D03*
%TD*%
D17*
%TO.C,R14*%
X211840000Y-119115000D03*
X211840000Y-120765000D03*
%TD*%
%TO.C,R13*%
X208640000Y-119115000D03*
X208640000Y-120765000D03*
%TD*%
%TO.C,R12*%
X206840000Y-119115000D03*
X206840000Y-120765000D03*
%TD*%
%TO.C,R11*%
X204240000Y-118940000D03*
X204240000Y-120590000D03*
%TD*%
%TO.C,R10*%
X199240000Y-118990000D03*
X199240000Y-120640000D03*
%TD*%
D18*
%TO.C,C22*%
X209240000Y-98915000D03*
X209240000Y-97365000D03*
%TD*%
D19*
%TO.C,C7*%
X159700000Y-100775000D03*
X159700000Y-97825000D03*
%TD*%
D20*
%TO.C,C13*%
X158375000Y-107950000D03*
X156825000Y-107950000D03*
%TD*%
D19*
%TO.C,C3*%
X151900000Y-100775000D03*
X151900000Y-97825000D03*
%TD*%
D16*
%TO.C,R6*%
X162100000Y-110750000D03*
X163750000Y-110750000D03*
%TD*%
D21*
%TO.C,C19*%
X148375000Y-127600000D03*
X145425000Y-127600000D03*
%TD*%
D22*
%TO.C,C5*%
X157725000Y-111500000D03*
X159275000Y-111500000D03*
%TD*%
D23*
%TO.C,C11*%
X162020000Y-109500000D03*
X162980000Y-109500000D03*
%TD*%
D22*
%TO.C,C12*%
X164225000Y-105750000D03*
X165775000Y-105750000D03*
%TD*%
D24*
%TO.C,C1*%
X146050000Y-101000000D03*
X142450000Y-101000000D03*
%TD*%
D18*
%TO.C,C10*%
X152250000Y-104025000D03*
X152250000Y-102475000D03*
%TD*%
D17*
%TO.C,R8*%
X151600000Y-106950000D03*
X151600000Y-108600000D03*
%TD*%
D21*
%TO.C,C18*%
X148375000Y-124000000D03*
X145425000Y-124000000D03*
%TD*%
D25*
%TO.C,L1*%
X167800000Y-121800000D03*
X151800000Y-121800000D03*
%TD*%
D26*
%TO.C,Q1*%
X164550002Y-104250000D03*
X165200000Y-104250000D03*
X165850002Y-104250000D03*
X166500000Y-104250000D03*
D27*
X166500000Y-101310000D03*
X165850002Y-101310000D03*
X165200000Y-101310000D03*
X164550002Y-101310000D03*
%TD*%
D21*
%TO.C,C20*%
X148375000Y-131200000D03*
X145425000Y-131200000D03*
%TD*%
D28*
%TO.C,D1*%
X160500000Y-110485000D03*
X160500000Y-109515000D03*
%TD*%
D11*
%TO.C,R4*%
X149500000Y-103900000D03*
X149500000Y-102250000D03*
%TD*%
D19*
%TO.C,C2*%
X149400000Y-100775000D03*
X149400000Y-97825000D03*
%TD*%
D29*
%TO.C,U1*%
X160600000Y-104099999D03*
D30*
X159700002Y-104500001D03*
X159700002Y-105000000D03*
X159700002Y-105500002D03*
X159700002Y-106000000D03*
X159700002Y-106500002D03*
X159700002Y-107000001D03*
X159700002Y-107500000D03*
X159700002Y-107999999D03*
D29*
X160600000Y-108400001D03*
X162100002Y-108400001D03*
D30*
X163000000Y-107999999D03*
X163000000Y-107500000D03*
X163000000Y-106999998D03*
X163000000Y-106500000D03*
X163000000Y-105999998D03*
X163000000Y-105499999D03*
X163000000Y-105000000D03*
X163000000Y-104499998D03*
D29*
X162100002Y-104099999D03*
%TD*%
D31*
%TO.C,Q2*%
X170310400Y-107500000D03*
D32*
X170667000Y-107625000D03*
X169295800Y-107625000D03*
D31*
X167645400Y-107500000D03*
D33*
X167645400Y-107500000D03*
D32*
X168000000Y-107625000D03*
X166755800Y-107625000D03*
X166653800Y-113325000D03*
D34*
X167010400Y-113450000D03*
D32*
X168000000Y-113325000D03*
D34*
X168345400Y-113450000D03*
D32*
X169320800Y-113325000D03*
D34*
X169675400Y-113450000D03*
D32*
X170667000Y-113325000D03*
D35*
X171010400Y-113450000D03*
D34*
X171010400Y-113450000D03*
%TD*%
D36*
%TO.C,R5*%
X158112500Y-109750000D03*
X156287500Y-109750000D03*
%TD*%
D37*
%TO.C,R1*%
X159490000Y-112800000D03*
X160510000Y-112800000D03*
%TD*%
D19*
%TO.C,C9*%
X162200000Y-100775000D03*
X162200000Y-97825000D03*
%TD*%
D17*
%TO.C,R9*%
X153350000Y-106950000D03*
X153350000Y-108600000D03*
%TD*%
D20*
%TO.C,C17*%
X153575000Y-105500000D03*
X152025000Y-105500000D03*
%TD*%
D21*
%TO.C,C16*%
X148375000Y-120500000D03*
X145425000Y-120500000D03*
%TD*%
D23*
%TO.C,C8*%
X154795000Y-104000000D03*
X155755000Y-104000000D03*
%TD*%
D11*
%TO.C,R7*%
X155200000Y-107075000D03*
X155200000Y-105425000D03*
%TD*%
D19*
%TO.C,C4*%
X154500000Y-100775000D03*
X154500000Y-97825000D03*
%TD*%
D11*
%TO.C,R3*%
X157000000Y-103950000D03*
X157000000Y-102300000D03*
%TD*%
D19*
%TO.C,C6*%
X157100000Y-100775000D03*
X157100000Y-97825000D03*
%TD*%
D38*
%TO.C,C21*%
X153500000Y-137000000D03*
X161900000Y-137000000D03*
%TD*%
D20*
%TO.C,C14*%
X158575000Y-106400000D03*
X157025000Y-106400000D03*
%TD*%
D21*
%TO.C,C15*%
X148375000Y-117000000D03*
X145425000Y-117000000D03*
%TD*%
D11*
%TO.C,R2*%
X158500000Y-104900000D03*
X158500000Y-103250000D03*
%TD*%
M02*
