%TF.GenerationSoftware,KiCad,Pcbnew,9.0.6*%
%TF.CreationDate,2026-01-16T13:55:07+01:00*%
%TF.ProjectId,Buck,4275636b-2e6b-4696-9361-645f70636258,rev?*%
%TF.SameCoordinates,Original*%
%TF.FileFunction,Copper,L1,Top*%
%TF.FilePolarity,Positive*%
%FSLAX46Y46*%
G04 Gerber Fmt 4.6, Leading zero omitted, Abs format (unit mm)*
G04 Created by KiCad (PCBNEW 9.0.6) date 2026-01-16 13:55:07*
%MOMM*%
%LPD*%
G01*
G04 APERTURE LIST*
G04 Aperture macros list*
%AMRoundRect*
0 Rectangle with rounded corners*
0 $1 Rounding radius*
0 $2 $3 $4 $5 $6 $7 $8 $9 X,Y pos of 4 corners*
0 Add a 4 corners polygon primitive as box body*
4,1,4,$2,$3,$4,$5,$6,$7,$8,$9,$2,$3,0*
0 Add four circle primitives for the rounded corners*
1,1,$1+$1,$2,$3*
1,1,$1+$1,$4,$5*
1,1,$1+$1,$6,$7*
1,1,$1+$1,$8,$9*
0 Add four rect primitives between the rounded corners*
20,1,$1+$1,$2,$3,$4,$5,0*
20,1,$1+$1,$4,$5,$6,$7,0*
20,1,$1+$1,$6,$7,$8,$9,0*
20,1,$1+$1,$8,$9,$2,$3,0*%
%AMFreePoly0*
4,1,5,0.000000,0.000000,-0.500000,0.000000,-0.500000,0.700000,0.000000,0.700000,0.000000,0.000000,0.000000,0.000000,$1*%
%AMFreePoly1*
4,1,5,0.750000,0.000000,0.000000,0.000000,0.000000,3.365000,0.750000,3.365000,0.750000,0.000000,0.750000,0.000000,$1*%
%AMFreePoly2*
4,1,5,0.500000,-0.700000,0.000000,-0.700000,0.000000,0.000000,0.500000,0.000000,0.500000,-0.700000,0.500000,-0.700000,$1*%
%AMFreePoly3*
4,1,5,0.000000,-4.700000,-4.534500,-4.700000,-4.534500,0.000000,0.000000,0.000000,0.000000,-4.700000,0.000000,-4.700000,$1*%
G04 Aperture macros list end*
%TA.AperFunction,ComponentPad*%
%ADD10RoundRect,0.250001X1.149999X-1.149999X1.149999X1.149999X-1.149999X1.149999X-1.149999X-1.149999X0*%
%TD*%
%TA.AperFunction,ComponentPad*%
%ADD11C,2.800000*%
%TD*%
%TA.AperFunction,SMDPad,CuDef*%
%ADD12RoundRect,0.200000X0.275000X-0.200000X0.275000X0.200000X-0.275000X0.200000X-0.275000X-0.200000X0*%
%TD*%
%TA.AperFunction,ComponentPad*%
%ADD13C,0.499999*%
%TD*%
%TA.AperFunction,SMDPad,CuDef*%
%ADD14R,2.550000X2.510000*%
%TD*%
%TA.AperFunction,SMDPad,CuDef*%
%ADD15R,0.399999X0.700001*%
%TD*%
%TA.AperFunction,SMDPad,CuDef*%
%ADD16R,0.635000X1.854200*%
%TD*%
%TA.AperFunction,SMDPad,CuDef*%
%ADD17R,6.045200X5.105400*%
%TD*%
%TA.AperFunction,SMDPad,CuDef*%
%ADD18R,10.109200X5.105400*%
%TD*%
%TA.AperFunction,SMDPad,CuDef*%
%ADD19RoundRect,0.200000X-0.200000X-0.275000X0.200000X-0.275000X0.200000X0.275000X-0.200000X0.275000X0*%
%TD*%
%TA.AperFunction,SMDPad,CuDef*%
%ADD20RoundRect,0.200000X-0.275000X0.200000X-0.275000X-0.200000X0.275000X-0.200000X0.275000X0.200000X0*%
%TD*%
%TA.AperFunction,ComponentPad*%
%ADD21RoundRect,0.250001X-1.149999X-1.149999X1.149999X-1.149999X1.149999X1.149999X-1.149999X1.149999X0*%
%TD*%
%TA.AperFunction,ComponentPad*%
%ADD22RoundRect,0.250001X-1.149999X1.149999X-1.149999X-1.149999X1.149999X-1.149999X1.149999X1.149999X0*%
%TD*%
%TA.AperFunction,SMDPad,CuDef*%
%ADD23C,1.000000*%
%TD*%
%TA.AperFunction,SMDPad,CuDef*%
%ADD24RoundRect,0.225000X0.250000X-0.225000X0.250000X0.225000X-0.250000X0.225000X-0.250000X-0.225000X0*%
%TD*%
%TA.AperFunction,ComponentPad*%
%ADD25O,1.600000X1.600000*%
%TD*%
%TA.AperFunction,ComponentPad*%
%ADD26R,1.600000X1.600000*%
%TD*%
%TA.AperFunction,SMDPad,CuDef*%
%ADD27RoundRect,0.250000X0.650000X-0.325000X0.650000X0.325000X-0.650000X0.325000X-0.650000X-0.325000X0*%
%TD*%
%TA.AperFunction,SMDPad,CuDef*%
%ADD28RoundRect,0.225000X0.225000X0.250000X-0.225000X0.250000X-0.225000X-0.250000X0.225000X-0.250000X0*%
%TD*%
%TA.AperFunction,SMDPad,CuDef*%
%ADD29RoundRect,0.250000X0.325000X1.100000X-0.325000X1.100000X-0.325000X-1.100000X0.325000X-1.100000X0*%
%TD*%
%TA.AperFunction,SMDPad,CuDef*%
%ADD30RoundRect,0.225000X-0.225000X-0.250000X0.225000X-0.250000X0.225000X0.250000X-0.225000X0.250000X0*%
%TD*%
%TA.AperFunction,SMDPad,CuDef*%
%ADD31RoundRect,0.140000X-0.140000X-0.170000X0.140000X-0.170000X0.140000X0.170000X-0.140000X0.170000X0*%
%TD*%
%TA.AperFunction,SMDPad,CuDef*%
%ADD32RoundRect,0.250000X1.050000X0.550000X-1.050000X0.550000X-1.050000X-0.550000X1.050000X-0.550000X0*%
%TD*%
%TA.AperFunction,SMDPad,CuDef*%
%ADD33R,4.000000X14.000000*%
%TD*%
%TA.AperFunction,SMDPad,CuDef*%
%ADD34R,0.431800X0.660400*%
%TD*%
%TA.AperFunction,SMDPad,CuDef*%
%ADD35R,0.127000X0.127000*%
%TD*%
%TA.AperFunction,SMDPad,CuDef*%
%ADD36RoundRect,0.147500X-0.172500X0.147500X-0.172500X-0.147500X0.172500X-0.147500X0.172500X0.147500X0*%
%TD*%
%TA.AperFunction,SMDPad,CuDef*%
%ADD37R,0.249999X0.599999*%
%TD*%
%TA.AperFunction,SMDPad,CuDef*%
%ADD38R,0.599999X0.249999*%
%TD*%
%TA.AperFunction,SMDPad,CuDef*%
%ADD39R,1.699999X2.700000*%
%TD*%
%TA.AperFunction,SMDPad,CuDef*%
%ADD40FreePoly0,270.000000*%
%TD*%
%TA.AperFunction,SMDPad,CuDef*%
%ADD41R,0.650000X1.250000*%
%TD*%
%TA.AperFunction,SMDPad,CuDef*%
%ADD42FreePoly1,270.000000*%
%TD*%
%TA.AperFunction,SMDPad,CuDef*%
%ADD43FreePoly2,270.000000*%
%TD*%
%TA.AperFunction,SMDPad,CuDef*%
%ADD44FreePoly3,270.000000*%
%TD*%
%TA.AperFunction,SMDPad,CuDef*%
%ADD45RoundRect,0.250000X0.262500X0.450000X-0.262500X0.450000X-0.262500X-0.450000X0.262500X-0.450000X0*%
%TD*%
%TA.AperFunction,SMDPad,CuDef*%
%ADD46RoundRect,0.135000X-0.135000X-0.185000X0.135000X-0.185000X0.135000X0.185000X-0.135000X0.185000X0*%
%TD*%
%TA.AperFunction,SMDPad,CuDef*%
%ADD47R,4.500000X1.650000*%
%TD*%
%TA.AperFunction,ViaPad*%
%ADD48C,0.600000*%
%TD*%
%TA.AperFunction,ViaPad*%
%ADD49C,0.800000*%
%TD*%
%TA.AperFunction,ViaPad*%
%ADD50C,0.500000*%
%TD*%
%TA.AperFunction,Conductor*%
%ADD51C,0.600000*%
%TD*%
%TA.AperFunction,Conductor*%
%ADD52C,0.200000*%
%TD*%
%TA.AperFunction,Conductor*%
%ADD53C,0.400000*%
%TD*%
%TA.AperFunction,Conductor*%
%ADD54C,1.000000*%
%TD*%
G04 APERTURE END LIST*
D10*
%TO.P,J3,1,Pin_1*%
%TO.N,VIN_A*%
X223500000Y-126500000D03*
D11*
%TO.P,J3,2,Pin_2*%
%TO.N,GND*%
X223500000Y-121500000D03*
%TD*%
D12*
%TO.P,R15,2*%
%TO.N,/ENA{slash}DIAGA*%
X213440000Y-119115000D03*
%TO.P,R15,1*%
%TO.N,VIN_A*%
X213440000Y-120765000D03*
%TD*%
%TO.P,R18,1*%
%TO.N,VIN_A*%
X210240000Y-120765000D03*
%TO.P,R18,2*%
%TO.N,/ENB{slash}DIAGB*%
X210240000Y-119115000D03*
%TD*%
D13*
%TO.P,U3,V*%
%TO.N,VCC_M*%
X206215002Y-122587502D03*
X207190001Y-123040001D03*
X205240003Y-123040001D03*
X206215002Y-123492502D03*
X207190001Y-123945000D03*
X205240003Y-123945000D03*
X206215002Y-124397501D03*
D14*
%TO.P,U3,9,D*%
X206215002Y-123545001D03*
D15*
%TO.P,U3,8,D*%
X205240003Y-122640002D03*
%TO.P,U3,7,D*%
X205890001Y-122640002D03*
%TO.P,U3,6,D*%
X206540003Y-122640002D03*
%TO.P,U3,5,D*%
X207190001Y-122640002D03*
%TO.P,U3,4,G*%
%TO.N,/CP*%
X207190001Y-125740000D03*
%TO.P,U3,3,S*%
%TO.N,/VBAT*%
X206540000Y-125740000D03*
%TO.P,U3,2,S*%
X205890001Y-125740000D03*
%TO.P,U3,1,S*%
X205240000Y-125740000D03*
%TD*%
D16*
%TO.P,U2,1,OUTA*%
%TO.N,OUTA*%
X216302401Y-127590000D03*
%TO.P,U2,2,N.C.*%
%TO.N,unconnected-(U2-N.C.-Pad2)*%
X215311801Y-127590000D03*
%TO.P,U2,3,VCC*%
%TO.N,VCC_M*%
X214321201Y-127590000D03*
%TO.P,U2,4,INA*%
%TO.N,Net-(U2-INA)*%
X213330601Y-127590000D03*
%TO.P,U2,5,ENA/DIAGA*%
%TO.N,Net-(U2-ENA{slash}DIAGA)*%
X212340001Y-127590000D03*
%TO.P,U2,6,CS_DIS*%
%TO.N,GND*%
X211349401Y-127590000D03*
%TO.P,U2,7,PWM*%
%TO.N,Net-(U2-PWM)*%
X210358801Y-127590000D03*
%TO.P,U2,8,CS*%
%TO.N,Net-(U2-CS)*%
X209368201Y-127590000D03*
%TO.P,U2,9,ENB/DIAGB*%
%TO.N,Net-(U2-ENB{slash}DIAGB)*%
X208377601Y-127590000D03*
%TO.P,U2,10,INB*%
%TO.N,Net-(U2-INB)*%
X207387001Y-127590000D03*
%TO.P,U2,11,CP*%
%TO.N,/CP*%
X206396401Y-127590000D03*
%TO.P,U2,12,VBAT*%
%TO.N,/VBAT*%
X205405801Y-127590000D03*
%TO.P,U2,13,VCC*%
%TO.N,VCC_M*%
X204415201Y-127590000D03*
%TO.P,U2,14,NC*%
%TO.N,unconnected-(U2-NC-Pad14)*%
X203424601Y-127590000D03*
%TO.P,U2,15,OUTB*%
%TO.N,OUTB*%
X202434001Y-127590000D03*
%TO.P,U2,16,OUTB*%
X202434001Y-145598600D03*
%TO.P,U2,17,N.C*%
%TO.N,unconnected-(U2-N.C-Pad17)*%
X203424601Y-145598600D03*
%TO.P,U2,18,GNDB*%
%TO.N,GND*%
X204415201Y-145598600D03*
%TO.P,U2,19,GNDB*%
X205405801Y-145598600D03*
%TO.P,U2,20,GNDB*%
X206396401Y-145598600D03*
%TO.P,U2,21,OUTB*%
%TO.N,OUTB*%
X207387001Y-145598600D03*
%TO.P,U2,22,NC*%
%TO.N,unconnected-(U2-NC-Pad22)*%
X208377601Y-145598600D03*
%TO.P,U2,23,VCC*%
%TO.N,VCC_M*%
X209368201Y-145598600D03*
%TO.P,U2,24,N.C.*%
%TO.N,unconnected-(U2-N.C.-Pad24)*%
X210358801Y-145598600D03*
%TO.P,U2,25,OUTA*%
%TO.N,OUTA*%
X211349401Y-145598600D03*
%TO.P,U2,26,GNDA*%
%TO.N,GND*%
X212340001Y-145598600D03*
%TO.P,U2,27,GNDA*%
X213330601Y-145598600D03*
%TO.P,U2,28,GNDA*%
X214321201Y-145598600D03*
%TO.P,U2,29,N.C.*%
%TO.N,unconnected-(U2-N.C.-Pad29)*%
X215311801Y-145598600D03*
%TO.P,U2,30,OUTA*%
%TO.N,OUTA*%
X216302401Y-145598600D03*
D17*
%TO.P,U2,31,OUTA*%
X213440801Y-139572000D03*
%TO.P,U2,32,OUTB*%
%TO.N,OUTB*%
X205295565Y-139572000D03*
D18*
%TO.P,U2,33,VCC*%
%TO.N,VCC_M*%
X209368201Y-133616658D03*
%TD*%
D12*
%TO.P,R17,1*%
%TO.N,Net-(U2-CS)*%
X204240000Y-98965000D03*
%TO.P,R17,2*%
%TO.N,GND*%
X204240000Y-97315000D03*
%TD*%
D19*
%TO.P,R16,1*%
%TO.N,Net-(U2-CS)*%
X205915000Y-98890000D03*
%TO.P,R16,2*%
%TO.N,Net-(A1-A0)*%
X207565000Y-98890000D03*
%TD*%
D20*
%TO.P,R14,1*%
%TO.N,/ENA{slash}DIAGA*%
X211840000Y-119115000D03*
%TO.P,R14,2*%
%TO.N,Net-(U2-ENA{slash}DIAGA)*%
X211840000Y-120765000D03*
%TD*%
%TO.P,R13,1*%
%TO.N,/ENB{slash}DIAGB*%
X208640000Y-119115000D03*
%TO.P,R13,2*%
%TO.N,Net-(U2-ENB{slash}DIAGB)*%
X208640000Y-120765000D03*
%TD*%
%TO.P,R12,1*%
%TO.N,/INA_A*%
X206840000Y-119115000D03*
%TO.P,R12,2*%
%TO.N,Net-(U2-INA)*%
X206840000Y-120765000D03*
%TD*%
%TO.P,R11,1*%
%TO.N,/INB_A*%
X204240000Y-118940000D03*
%TO.P,R11,2*%
%TO.N,Net-(U2-INB)*%
X204240000Y-120590000D03*
%TD*%
%TO.P,R10,1*%
%TO.N,/PWM_A*%
X199240000Y-118990000D03*
%TO.P,R10,2*%
%TO.N,Net-(U2-PWM)*%
X199240000Y-120640000D03*
%TD*%
D21*
%TO.P,J5,1,Pin_1*%
%TO.N,OUTB*%
X207500000Y-151750000D03*
D11*
%TO.P,J5,2,Pin_2*%
%TO.N,OUTA*%
X212500000Y-151750000D03*
%TD*%
D22*
%TO.P,J4,1,Pin_1*%
%TO.N,/VBAT*%
X195640000Y-129790000D03*
D11*
%TO.P,J4,2,Pin_2*%
%TO.N,GND*%
X195640000Y-134790000D03*
%TD*%
D23*
%TO.P,FID6,*%
%TO.N,*%
X224000000Y-154000000D03*
%TD*%
%TO.P,FID5,*%
%TO.N,*%
X176000000Y-154000000D03*
%TD*%
%TO.P,FID4,*%
%TO.N,*%
X176000000Y-98000000D03*
%TD*%
D24*
%TO.P,C22,1*%
%TO.N,Net-(A1-A0)*%
X209240000Y-98915000D03*
%TO.P,C22,2*%
%TO.N,GND*%
X209240000Y-97365000D03*
%TD*%
D25*
%TO.P,A1,30,VIN*%
%TO.N,VIN_A*%
X181440000Y-101510000D03*
%TO.P,A1,29,GND*%
%TO.N,GND*%
X183980000Y-101510000D03*
%TO.P,A1,28,~{RESET}*%
%TO.N,unconnected-(A1-~{RESET}-Pad28)*%
X186520000Y-101510000D03*
%TO.P,A1,27,+5V*%
%TO.N,unconnected-(A1-+5V-Pad27)*%
X189060000Y-101510000D03*
%TO.P,A1,26,A7*%
%TO.N,unconnected-(A1-A7-Pad26)*%
X191600000Y-101510000D03*
%TO.P,A1,25,A6*%
%TO.N,unconnected-(A1-A6-Pad25)*%
X194140000Y-101510000D03*
%TO.P,A1,24,SCL/A5*%
%TO.N,unconnected-(A1-SCL{slash}A5-Pad24)*%
X196680000Y-101510000D03*
%TO.P,A1,23,SDA/A4*%
%TO.N,unconnected-(A1-SDA{slash}A4-Pad23)*%
X199220000Y-101510000D03*
%TO.P,A1,22,A3*%
%TO.N,unconnected-(A1-A3-Pad22)*%
X201760000Y-101510000D03*
%TO.P,A1,21,A2*%
%TO.N,unconnected-(A1-A2-Pad21)*%
X204300000Y-101510000D03*
%TO.P,A1,20,A1*%
%TO.N,unconnected-(A1-A1-Pad20)*%
X206840000Y-101510000D03*
%TO.P,A1,19,A0*%
%TO.N,Net-(A1-A0)*%
X209380000Y-101510000D03*
%TO.P,A1,18,AREF*%
%TO.N,unconnected-(A1-AREF-Pad18)*%
X211920000Y-101510000D03*
%TO.P,A1,17,3V3*%
%TO.N,unconnected-(A1-3V3-Pad17)*%
X214460000Y-101510000D03*
%TO.P,A1,16,SCK*%
%TO.N,unconnected-(A1-SCK-Pad16)*%
X217000000Y-101510000D03*
%TO.P,A1,15,MISO*%
%TO.N,unconnected-(A1-MISO-Pad15)*%
X217000000Y-116750000D03*
%TO.P,A1,14,MOSI*%
%TO.N,unconnected-(A1-MOSI-Pad14)*%
X214460000Y-116750000D03*
%TO.P,A1,13,D10*%
%TO.N,/ENA{slash}DIAGA*%
X211920000Y-116750000D03*
%TO.P,A1,12,D9*%
%TO.N,/ENB{slash}DIAGB*%
X209380000Y-116750000D03*
%TO.P,A1,11,D8*%
%TO.N,/INA_A*%
X206840000Y-116750000D03*
%TO.P,A1,10,D7*%
%TO.N,/INB_A*%
X204300000Y-116750000D03*
%TO.P,A1,9,D6*%
%TO.N,unconnected-(A1-D6-Pad9)*%
X201760000Y-116750000D03*
%TO.P,A1,8,D5*%
%TO.N,/PWM_A*%
X199220000Y-116750000D03*
%TO.P,A1,7,D4*%
%TO.N,unconnected-(A1-D4-Pad7)*%
X196680000Y-116750000D03*
%TO.P,A1,6,D3*%
%TO.N,unconnected-(A1-D3-Pad6)*%
X194140000Y-116750000D03*
%TO.P,A1,5,D2*%
%TO.N,unconnected-(A1-D2-Pad5)*%
X191600000Y-116750000D03*
%TO.P,A1,4,GND*%
%TO.N,GND*%
X189060000Y-116750000D03*
%TO.P,A1,3,~{RESET}*%
%TO.N,unconnected-(A1-~{RESET}-Pad3)*%
X186520000Y-116750000D03*
%TO.P,A1,2,RX1*%
%TO.N,unconnected-(A1-RX1-Pad2)*%
X183980000Y-116750000D03*
D26*
%TO.P,A1,1,TX1*%
%TO.N,unconnected-(A1-TX1-Pad1)*%
X181440000Y-116750000D03*
%TD*%
D27*
%TO.P,C7,1*%
%TO.N,+24V*%
X159700000Y-100775000D03*
%TO.P,C7,2*%
%TO.N,GND*%
X159700000Y-97825000D03*
%TD*%
D22*
%TO.P,J1,1,Pin_1*%
%TO.N,+24V*%
X142250000Y-107250000D03*
D11*
%TO.P,J1,2,Pin_2*%
%TO.N,GND*%
X142250000Y-112250000D03*
%TD*%
D28*
%TO.P,C13,1*%
%TO.N,/COMP*%
X158375000Y-107950000D03*
%TO.P,C13,2*%
%TO.N,Net-(C13-Pad2)*%
X156825000Y-107950000D03*
%TD*%
D23*
%TO.P,FID1,*%
%TO.N,*%
X139000000Y-98000000D03*
%TD*%
D27*
%TO.P,C3,1*%
%TO.N,+24V*%
X151900000Y-100775000D03*
%TO.P,C3,2*%
%TO.N,GND*%
X151900000Y-97825000D03*
%TD*%
D19*
%TO.P,R6,1*%
%TO.N,/ILIM*%
X162100000Y-110750000D03*
%TO.P,R6,2*%
%TO.N,/SW*%
X163750000Y-110750000D03*
%TD*%
D23*
%TO.P,FID3,*%
%TO.N,*%
X170000000Y-151000000D03*
%TD*%
D29*
%TO.P,C19,1*%
%TO.N,/VOUT*%
X148375000Y-127600000D03*
%TO.P,C19,2*%
%TO.N,GND*%
X145425000Y-127600000D03*
%TD*%
D30*
%TO.P,C5,1*%
%TO.N,GND*%
X157725000Y-111500000D03*
%TO.P,C5,2*%
%TO.N,/SYNCIN*%
X159275000Y-111500000D03*
%TD*%
D31*
%TO.P,C11,1*%
%TO.N,/ILIM*%
X162020000Y-109500000D03*
%TO.P,C11,2*%
%TO.N,GND*%
X162980000Y-109500000D03*
%TD*%
D30*
%TO.P,C12,1*%
%TO.N,/BST*%
X164225000Y-105750000D03*
%TO.P,C12,2*%
%TO.N,/SW*%
X165775000Y-105750000D03*
%TD*%
D32*
%TO.P,C1,1*%
%TO.N,+24V*%
X146050000Y-101000000D03*
%TO.P,C1,2*%
%TO.N,GND*%
X142450000Y-101000000D03*
%TD*%
D24*
%TO.P,C10,1*%
%TO.N,GND*%
X152250000Y-104025000D03*
%TO.P,C10,2*%
%TO.N,+24V*%
X152250000Y-102475000D03*
%TD*%
D20*
%TO.P,R8,1*%
%TO.N,Net-(C17-Pad2)*%
X151600000Y-106950000D03*
%TO.P,R8,2*%
%TO.N,/VOUT*%
X151600000Y-108600000D03*
%TD*%
D29*
%TO.P,C18,1*%
%TO.N,/VOUT*%
X148375000Y-124000000D03*
%TO.P,C18,2*%
%TO.N,GND*%
X145425000Y-124000000D03*
%TD*%
D33*
%TO.P,L1,1,1*%
%TO.N,/SW*%
X167800000Y-121800000D03*
%TO.P,L1,2,2*%
%TO.N,/VOUT*%
X151800000Y-121800000D03*
%TD*%
D34*
%TO.P,Q1,1,1*%
%TO.N,/SW*%
X164550002Y-104250000D03*
%TO.P,Q1,2,2*%
X165200000Y-104250000D03*
%TO.P,Q1,3,3*%
X165850002Y-104250000D03*
%TO.P,Q1,4,4*%
%TO.N,/HG*%
X166500000Y-104250000D03*
D35*
%TO.P,Q1,5,5*%
%TO.N,+24V*%
X166500000Y-101310000D03*
%TO.P,Q1,6,6*%
X165850002Y-101310000D03*
%TO.P,Q1,7,7*%
X165200000Y-101310000D03*
%TO.P,Q1,8,8*%
X164550002Y-101310000D03*
%TD*%
D29*
%TO.P,C20,1*%
%TO.N,/VOUT*%
X148375000Y-131200000D03*
%TO.P,C20,2*%
%TO.N,GND*%
X145425000Y-131200000D03*
%TD*%
D36*
%TO.P,D1,2,A*%
%TO.N,Net-(D1-A)*%
X160500000Y-110485000D03*
%TO.P,D1,1,K*%
%TO.N,/PGOOD*%
X160500000Y-109515000D03*
%TD*%
D12*
%TO.P,R4,1*%
%TO.N,GND*%
X149500000Y-103900000D03*
%TO.P,R4,2*%
%TO.N,+24V*%
X149500000Y-102250000D03*
%TD*%
D27*
%TO.P,C2,1*%
%TO.N,+24V*%
X149400000Y-100775000D03*
%TO.P,C2,2*%
%TO.N,GND*%
X149400000Y-97825000D03*
%TD*%
D21*
%TO.P,J2,1,Pin_1*%
%TO.N,/VOUT*%
X156000000Y-148000000D03*
D11*
%TO.P,J2,2,Pin_2*%
%TO.N,GND*%
X161000000Y-148000000D03*
%TD*%
D37*
%TO.P,U1,1,EN_UVLO*%
%TO.N,+24V*%
X160600000Y-104099999D03*
D38*
%TO.P,U1,2,RT*%
%TO.N,/RT*%
X159700002Y-104500001D03*
%TO.P,U1,3,SS_TRK*%
%TO.N,/SS*%
X159700002Y-105000000D03*
%TO.P,U1,4,COMP*%
%TO.N,/COMP*%
X159700002Y-105500002D03*
%TO.P,U1,5,FB*%
X159700002Y-106000000D03*
%TO.P,U1,6,AGND*%
%TO.N,GND*%
X159700002Y-106500002D03*
%TO.P,U1,7,SYNCOUT*%
%TO.N,unconnected-(U1-SYNCOUT-Pad7)*%
X159700002Y-107000001D03*
%TO.P,U1,8,SYNCIN*%
%TO.N,/SYNCIN*%
X159700002Y-107500000D03*
%TO.P,U1,9,NC*%
%TO.N,unconnected-(U1-NC-Pad9)*%
X159700002Y-107999999D03*
D37*
%TO.P,U1,10,PGOOD*%
%TO.N,/PGOOD*%
X160600000Y-108400001D03*
%TO.P,U1,11,ILIM*%
%TO.N,/ILIM*%
X162100002Y-108400001D03*
D38*
%TO.P,U1,12,PGND*%
%TO.N,GND*%
X163000000Y-107999999D03*
%TO.P,U1,13,LO*%
%TO.N,/LG*%
X163000000Y-107500000D03*
%TO.P,U1,14,VCC*%
%TO.N,/SYNCIN*%
X163000000Y-106999998D03*
%TO.P,U1,15,EP*%
%TO.N,GND*%
X163000000Y-106500000D03*
%TO.P,U1,16,NC*%
%TO.N,unconnected-(U1-NC-Pad16)*%
X163000000Y-105999998D03*
%TO.P,U1,17,BST*%
%TO.N,/BST*%
X163000000Y-105499999D03*
%TO.P,U1,18,HO*%
%TO.N,/HG*%
X163000000Y-105000000D03*
%TO.P,U1,19,SW*%
%TO.N,/SW*%
X163000000Y-104499998D03*
D37*
%TO.P,U1,20,VIN*%
%TO.N,+24V*%
X162100002Y-104099999D03*
D39*
%TO.P,U1,21,EP*%
%TO.N,GND*%
X161350001Y-106250000D03*
D13*
%TO.P,U1,V*%
X160750002Y-106250000D03*
X161350001Y-105150000D03*
X161350001Y-107350000D03*
X161950000Y-106250000D03*
%TD*%
D40*
%TO.P,Q2,1,SOURCE*%
%TO.N,GND*%
X170310400Y-107500000D03*
D41*
X170667000Y-107625000D03*
%TO.P,Q2,2,SOURCE*%
X169295800Y-107625000D03*
D40*
%TO.P,Q2,3,SOURCE*%
X167645400Y-107500000D03*
D42*
X167645400Y-107500000D03*
D41*
X168000000Y-107625000D03*
%TO.P,Q2,4,GATE*%
%TO.N,/LG*%
X166755800Y-107625000D03*
%TO.P,Q2,5,DRAIN*%
%TO.N,/SW*%
X166653800Y-113325000D03*
D43*
X167010400Y-113450000D03*
D41*
%TO.P,Q2,6,DRAIN*%
X168000000Y-113325000D03*
D43*
X168345400Y-113450000D03*
D41*
%TO.P,Q2,7,DRAIN*%
X169320800Y-113325000D03*
D43*
X169675400Y-113450000D03*
D41*
%TO.P,Q2,8,DRAIN*%
X170667000Y-113325000D03*
D44*
X171010400Y-113450000D03*
D43*
X171010400Y-113450000D03*
%TD*%
D45*
%TO.P,R5,1*%
%TO.N,/COMP*%
X158112500Y-109750000D03*
%TO.P,R5,2*%
%TO.N,GND*%
X156287500Y-109750000D03*
%TD*%
D46*
%TO.P,R1,1*%
%TO.N,/SYNCIN*%
X159490000Y-112800000D03*
%TO.P,R1,2*%
%TO.N,Net-(D1-A)*%
X160510000Y-112800000D03*
%TD*%
D27*
%TO.P,C9,1*%
%TO.N,+24V*%
X162200000Y-100775000D03*
%TO.P,C9,2*%
%TO.N,GND*%
X162200000Y-97825000D03*
%TD*%
D20*
%TO.P,R9,1*%
%TO.N,Net-(C17-Pad2)*%
X153350000Y-106950000D03*
%TO.P,R9,2*%
%TO.N,/VOUT*%
X153350000Y-108600000D03*
%TD*%
D28*
%TO.P,C17,1*%
%TO.N,Net-(C14-Pad2)*%
X153575000Y-105500000D03*
%TO.P,C17,2*%
%TO.N,Net-(C17-Pad2)*%
X152025000Y-105500000D03*
%TD*%
D29*
%TO.P,C16,1*%
%TO.N,/VOUT*%
X148375000Y-120500000D03*
%TO.P,C16,2*%
%TO.N,GND*%
X145425000Y-120500000D03*
%TD*%
D31*
%TO.P,C8,1*%
%TO.N,GND*%
X154795000Y-104000000D03*
%TO.P,C8,2*%
%TO.N,/SS*%
X155755000Y-104000000D03*
%TD*%
D12*
%TO.P,R7,1*%
%TO.N,Net-(C13-Pad2)*%
X155200000Y-107075000D03*
%TO.P,R7,2*%
%TO.N,Net-(C14-Pad2)*%
X155200000Y-105425000D03*
%TD*%
D23*
%TO.P,FID2,*%
%TO.N,*%
X139000000Y-151000000D03*
%TD*%
D27*
%TO.P,C4,1*%
%TO.N,+24V*%
X154500000Y-100775000D03*
%TO.P,C4,2*%
%TO.N,GND*%
X154500000Y-97825000D03*
%TD*%
D12*
%TO.P,R3,1*%
%TO.N,GND*%
X157000000Y-103950000D03*
%TO.P,R3,2*%
%TO.N,+24V*%
X157000000Y-102300000D03*
%TD*%
D27*
%TO.P,C6,1*%
%TO.N,+24V*%
X157100000Y-100775000D03*
%TO.P,C6,2*%
%TO.N,GND*%
X157100000Y-97825000D03*
%TD*%
D47*
%TO.P,C21,1*%
%TO.N,/VOUT*%
X153500000Y-137000000D03*
%TO.P,C21,2*%
%TO.N,GND*%
X161900000Y-137000000D03*
%TD*%
D28*
%TO.P,C14,1*%
%TO.N,/COMP*%
X158575000Y-106400000D03*
%TO.P,C14,2*%
%TO.N,Net-(C14-Pad2)*%
X157025000Y-106400000D03*
%TD*%
D29*
%TO.P,C15,1*%
%TO.N,/VOUT*%
X148375000Y-117000000D03*
%TO.P,C15,2*%
%TO.N,GND*%
X145425000Y-117000000D03*
%TD*%
D12*
%TO.P,R2,1*%
%TO.N,/SS*%
X158500000Y-104900000D03*
%TO.P,R2,2*%
%TO.N,/RT*%
X158500000Y-103250000D03*
%TD*%
D48*
%TO.N,GND*%
X220722500Y-120490000D03*
X220722500Y-121240000D03*
X220722500Y-121990000D03*
X220722500Y-119740000D03*
D49*
%TO.N,/VBAT*%
X205500000Y-129500000D03*
X201500000Y-130000000D03*
D50*
%TO.N,Net-(U2-INA)*%
X207750000Y-121250000D03*
X213000000Y-125750000D03*
%TO.N,Net-(U2-ENB{slash}DIAGB)*%
X208500000Y-122000000D03*
X208500000Y-123750000D03*
%TO.N,VIN_A*%
X209750000Y-122000000D03*
X211750000Y-122250000D03*
X213000000Y-122250000D03*
%TO.N,Net-(U2-CS)*%
X209250000Y-124500000D03*
X209750000Y-104000000D03*
%TO.N,Net-(U2-INB)*%
X204172500Y-121490000D03*
X207922500Y-125990000D03*
D48*
%TO.N,GND*%
X198222500Y-134490000D03*
X198222500Y-135240000D03*
X198222500Y-135990000D03*
X198222500Y-133740000D03*
X192972500Y-133740000D03*
X192972500Y-134490000D03*
X192972500Y-135990000D03*
X192972500Y-135240000D03*
X204422500Y-144240000D03*
X205422500Y-144240000D03*
X206422500Y-144240000D03*
X212500000Y-144240000D03*
X213500000Y-144240000D03*
X214500000Y-144240000D03*
X211422500Y-125990000D03*
D49*
X183922500Y-99490000D03*
X188922500Y-118740000D03*
D48*
X202922500Y-97240000D03*
X210422500Y-97490000D03*
D49*
X162000000Y-143000000D03*
X162000000Y-140000000D03*
X142000000Y-126000000D03*
X143000000Y-117000000D03*
X142000000Y-132000000D03*
X142000000Y-116000000D03*
X140000000Y-131000000D03*
X140000000Y-123000000D03*
X142000000Y-117000000D03*
X143000000Y-119000000D03*
X140000000Y-121000000D03*
X144000000Y-130000000D03*
X164000000Y-139000000D03*
X161000000Y-145000000D03*
X150900000Y-104000000D03*
X153750000Y-104000000D03*
X140000000Y-133000000D03*
X140000000Y-126000000D03*
X144000000Y-125000000D03*
X143000000Y-123000000D03*
X164000000Y-143000000D03*
X161000000Y-142000000D03*
X140000000Y-117000000D03*
X162000000Y-145000000D03*
X143000000Y-120000000D03*
X140000000Y-118000000D03*
X162000000Y-139000000D03*
X142000000Y-131000000D03*
X141000000Y-123000000D03*
X160000000Y-144000000D03*
X140000000Y-128000000D03*
X140000000Y-122000000D03*
X143000000Y-124000000D03*
X163000000Y-144000000D03*
X142000000Y-133000000D03*
X141000000Y-127000000D03*
X140000000Y-125000000D03*
X162000000Y-142000000D03*
X141000000Y-122000000D03*
X144000000Y-123000000D03*
X142000000Y-129000000D03*
X157700000Y-112800000D03*
X161000000Y-143000000D03*
X143000000Y-129000000D03*
X164000000Y-97500000D03*
X144000000Y-131000000D03*
X164000000Y-145000000D03*
X140000000Y-124000000D03*
X140500000Y-101500000D03*
X141000000Y-128000000D03*
X144000000Y-127000000D03*
X163000000Y-141000000D03*
X160000000Y-143000000D03*
X161000000Y-139000000D03*
X141000000Y-133000000D03*
X144000000Y-120000000D03*
X141000000Y-116000000D03*
X144000000Y-132000000D03*
X141000000Y-117000000D03*
X142000000Y-130000000D03*
X143000000Y-133000000D03*
X143000000Y-127000000D03*
X144000000Y-124000000D03*
X163000000Y-142000000D03*
X160000000Y-142000000D03*
X143000000Y-125000000D03*
X164000000Y-142000000D03*
X144000000Y-117000000D03*
X142000000Y-118000000D03*
X141000000Y-125000000D03*
X142000000Y-128000000D03*
X142000000Y-120000000D03*
X162900000Y-108700000D03*
X163000000Y-140000000D03*
X141000000Y-130000000D03*
X164000000Y-98500000D03*
X163000000Y-139000000D03*
X162000000Y-141000000D03*
X161000000Y-144000000D03*
X144000000Y-121000000D03*
X144000000Y-118000000D03*
X144000000Y-129000000D03*
X141000000Y-121000000D03*
X164000000Y-144000000D03*
X143000000Y-122000000D03*
X143000000Y-126000000D03*
X160000000Y-141000000D03*
X141000000Y-118000000D03*
X142000000Y-119000000D03*
X142000000Y-122000000D03*
X143000000Y-118000000D03*
X156300000Y-111500000D03*
X160000000Y-139000000D03*
X142000000Y-127000000D03*
X163000000Y-143000000D03*
X164000000Y-141000000D03*
X143000000Y-128000000D03*
X141000000Y-132000000D03*
X144000000Y-119000000D03*
X141000000Y-129000000D03*
X140500000Y-100500000D03*
X163000000Y-145000000D03*
X143000000Y-131000000D03*
X142000000Y-125000000D03*
X144000000Y-128000000D03*
X140000000Y-132000000D03*
X162000000Y-144000000D03*
X142000000Y-123000000D03*
X141000000Y-120000000D03*
X141000000Y-124000000D03*
X160000000Y-140000000D03*
X144000000Y-122000000D03*
X140000000Y-119000000D03*
X143000000Y-116000000D03*
X143000000Y-121000000D03*
X143000000Y-132000000D03*
X160000000Y-145000000D03*
X140000000Y-127000000D03*
X142000000Y-124000000D03*
X141000000Y-131000000D03*
X161000000Y-140000000D03*
X164000000Y-140000000D03*
X144000000Y-133000000D03*
X144000000Y-116000000D03*
X161000000Y-141000000D03*
X140000000Y-120000000D03*
X143000000Y-130000000D03*
X142000000Y-121000000D03*
X140000000Y-116000000D03*
X141000000Y-126000000D03*
X140000000Y-130000000D03*
X144000000Y-126000000D03*
X141000000Y-119000000D03*
X168250000Y-106250000D03*
X140000000Y-129000000D03*
D50*
%TO.N,/SYNCIN*%
X159700000Y-108600000D03*
X163696157Y-106838448D03*
%TO.N,/LG*%
X165750000Y-107625000D03*
X163706476Y-107538372D03*
%TO.N,/HG*%
X163772965Y-104860139D03*
X166391248Y-104908752D03*
%TD*%
D51*
%TO.N,VIN_A*%
X223500000Y-126500000D02*
X223000000Y-126500000D01*
X223000000Y-126500000D02*
X217265000Y-120765000D01*
X217265000Y-120765000D02*
X213440000Y-120765000D01*
%TO.N,GND*%
X211422500Y-125990000D02*
X211422500Y-127516901D01*
X211422500Y-127516901D02*
X211349401Y-127590000D01*
%TO.N,/VBAT*%
X205500000Y-127684199D02*
X205405801Y-127590000D01*
X195640000Y-129790000D02*
X201290000Y-129790000D01*
X205500000Y-129500000D02*
X205500000Y-127684199D01*
X201290000Y-129790000D02*
X201500000Y-130000000D01*
%TO.N,VCC_M*%
X204415201Y-127590000D02*
X204415201Y-130415201D01*
X204415201Y-130415201D02*
X207616658Y-133616658D01*
X207616658Y-133616658D02*
X209368201Y-133616658D01*
%TO.N,OUTB*%
X202434001Y-127590000D02*
X202434001Y-136710436D01*
X202434001Y-136710436D02*
X205295565Y-139572000D01*
D52*
%TO.N,Net-(U2-INA)*%
X213330601Y-127590000D02*
X213330601Y-126080601D01*
X207750000Y-121250000D02*
X207325000Y-121250000D01*
X213330601Y-126080601D02*
X213000000Y-125750000D01*
X207325000Y-121250000D02*
X206840000Y-120765000D01*
%TO.N,Net-(U2-ENB{slash}DIAGB)*%
X208500000Y-120905000D02*
X208640000Y-120765000D01*
X208377601Y-127590000D02*
X208500000Y-127467601D01*
X208500000Y-127467601D02*
X208500000Y-123750000D01*
X208500000Y-122000000D02*
X208500000Y-120905000D01*
%TO.N,/PWM_A*%
X199240000Y-118990000D02*
X199240000Y-116770000D01*
X199240000Y-116770000D02*
X199220000Y-116750000D01*
%TO.N,/INB_A*%
X204240000Y-118940000D02*
X204240000Y-116810000D01*
X204240000Y-116810000D02*
X204300000Y-116750000D01*
%TO.N,/INA_A*%
X206840000Y-119115000D02*
X206840000Y-116750000D01*
%TO.N,/ENB{slash}DIAGB*%
X208640000Y-119115000D02*
X208640000Y-117490000D01*
X208640000Y-117490000D02*
X209380000Y-116750000D01*
X210240000Y-119115000D02*
X208640000Y-119115000D01*
%TO.N,/ENA{slash}DIAGA*%
X213440000Y-119115000D02*
X211840000Y-119115000D01*
X211840000Y-119115000D02*
X211840000Y-116830000D01*
X211840000Y-116830000D02*
X211920000Y-116750000D01*
%TO.N,GND*%
X183922500Y-99490000D02*
X183980000Y-99547500D01*
X183980000Y-99547500D02*
X183980000Y-101510000D01*
%TO.N,VIN_A*%
X210240000Y-121510000D02*
X209750000Y-122000000D01*
X210240000Y-120765000D02*
X210240000Y-121510000D01*
X211750000Y-122250000D02*
X210265000Y-120765000D01*
X210265000Y-120765000D02*
X210240000Y-120765000D01*
X213440000Y-120765000D02*
X213440000Y-121810000D01*
X213440000Y-121810000D02*
X213000000Y-122250000D01*
%TO.N,Net-(A1-A0)*%
X207565000Y-98890000D02*
X209215000Y-98890000D01*
X209215000Y-98890000D02*
X209240000Y-98915000D01*
X209380000Y-101510000D02*
X209380000Y-99055000D01*
X209380000Y-99055000D02*
X209240000Y-98915000D01*
%TO.N,GND*%
X209240000Y-97365000D02*
X210297500Y-97365000D01*
X210297500Y-97365000D02*
X210422500Y-97490000D01*
X204240000Y-97315000D02*
X202997500Y-97315000D01*
X202997500Y-97315000D02*
X202922500Y-97240000D01*
%TO.N,Net-(U2-CS)*%
X205915000Y-98890000D02*
X204315000Y-98890000D01*
X204315000Y-98890000D02*
X204240000Y-98965000D01*
X209368201Y-127590000D02*
X209368201Y-124618201D01*
X207891000Y-102141000D02*
X207891000Y-100866000D01*
X209368201Y-124618201D02*
X209250000Y-124500000D01*
X209750000Y-104000000D02*
X207891000Y-102141000D01*
X207891000Y-100866000D02*
X205915000Y-98890000D01*
D51*
%TO.N,OUTB*%
X207387001Y-145598600D02*
X207387001Y-151637001D01*
X207387001Y-151637001D02*
X207500000Y-151750000D01*
%TO.N,OUTA*%
X211349401Y-145598600D02*
X211349401Y-150599401D01*
X211349401Y-150599401D02*
X212500000Y-151750000D01*
%TO.N,VCC_M*%
X214321201Y-127590000D02*
X214321201Y-128663658D01*
X214321201Y-128663658D02*
X209368201Y-133616658D01*
D53*
%TO.N,OUTB*%
X207387001Y-145598600D02*
X207387001Y-146137001D01*
X207387001Y-146137001D02*
X207500000Y-146250000D01*
D51*
%TO.N,VCC_M*%
X209368201Y-145598600D02*
X209368201Y-133616658D01*
%TO.N,OUTB*%
X202434001Y-145598600D02*
X202434001Y-142433564D01*
X202434001Y-142433564D02*
X205295565Y-139572000D01*
X207387001Y-145598600D02*
X207387001Y-141663436D01*
X207387001Y-141663436D02*
X205295565Y-139572000D01*
%TO.N,OUTA*%
X216302401Y-145598600D02*
X216302401Y-142433600D01*
X216302401Y-142433600D02*
X213440801Y-139572000D01*
X213440801Y-139572000D02*
X211349401Y-141663400D01*
X211349401Y-141663400D02*
X211349401Y-145598600D01*
X216302401Y-127590000D02*
X216302401Y-136710400D01*
X216302401Y-136710400D02*
X213440801Y-139572000D01*
D52*
%TO.N,Net-(U2-ENA{slash}DIAGA)*%
X212340001Y-127590000D02*
X212340001Y-121265001D01*
X212340001Y-121265001D02*
X211840000Y-120765000D01*
%TO.N,Net-(U2-PWM)*%
X210358801Y-127590000D02*
X210358801Y-124656800D01*
X204384164Y-122001000D02*
X200601000Y-122001000D01*
X210358801Y-124656800D02*
X207641001Y-121939000D01*
X207641001Y-121939000D02*
X204446164Y-121939000D01*
X200601000Y-122001000D02*
X199240000Y-120640000D01*
X204446164Y-121939000D02*
X204384164Y-122001000D01*
%TO.N,Net-(U2-INB)*%
X207387001Y-127590000D02*
X207387001Y-126525499D01*
X207387001Y-126525499D02*
X207922500Y-125990000D01*
X204172500Y-121490000D02*
X204172500Y-120657500D01*
X204172500Y-120657500D02*
X204240000Y-120590000D01*
%TO.N,/CP*%
X207190001Y-125740000D02*
X207190001Y-126040400D01*
X207190001Y-126040400D02*
X206396401Y-126834000D01*
X206396401Y-126834000D02*
X206396401Y-127590000D01*
D53*
%TO.N,/VBAT*%
X205240000Y-125740000D02*
X206540000Y-125740000D01*
X205405801Y-127590000D02*
X205405801Y-125905801D01*
X205405801Y-125905801D02*
X205240000Y-125740000D01*
D54*
%TO.N,+24V*%
X146050000Y-105350000D02*
X146050000Y-101000000D01*
X144150000Y-107250000D02*
X146050000Y-105350000D01*
X142250000Y-107250000D02*
X144150000Y-107250000D01*
D51*
X162100002Y-104100001D02*
X162100002Y-100874998D01*
X162100002Y-100874998D02*
X162200000Y-100775000D01*
X160600000Y-101675000D02*
X159700000Y-100775000D01*
X160600000Y-104100001D02*
X160600000Y-101675000D01*
D52*
%TO.N,GND*%
X159700002Y-106500002D02*
X161099999Y-106500002D01*
D54*
X157725000Y-111500000D02*
X157725000Y-112775000D01*
D52*
X155406000Y-103389000D02*
X154795000Y-104000000D01*
X163000000Y-108000001D02*
X162599999Y-108000001D01*
X156900000Y-103950000D02*
X156339000Y-103389000D01*
D54*
X141950000Y-101500000D02*
X142450000Y-101000000D01*
D52*
X163000000Y-106500000D02*
X161600001Y-106500000D01*
D54*
X157725000Y-112775000D02*
X157700000Y-112800000D01*
D52*
X162900000Y-108700000D02*
X162900000Y-109420000D01*
X156339000Y-103389000D02*
X155406000Y-103389000D01*
X162900000Y-109420000D02*
X162980000Y-109500000D01*
D54*
X140500000Y-101500000D02*
X141950000Y-101500000D01*
D52*
X163000000Y-108000001D02*
X162599998Y-108000001D01*
D54*
X156300000Y-109762500D02*
X156287500Y-109750000D01*
X156300000Y-111500000D02*
X156300000Y-109762500D01*
D52*
X161600001Y-106500000D02*
X161350001Y-106250000D01*
X161350001Y-106641480D02*
X161350001Y-106250000D01*
X163000000Y-108000001D02*
X163000000Y-108600000D01*
X163000000Y-107999999D02*
X162708520Y-107999999D01*
X162708520Y-107999999D02*
X161350001Y-106641480D01*
D54*
X157700000Y-112800000D02*
X157700000Y-111800000D01*
D52*
X163000000Y-108600000D02*
X162900000Y-108700000D01*
X161099999Y-106500002D02*
X161350001Y-106250000D01*
D54*
X140500000Y-100500000D02*
X141950000Y-100500000D01*
X141950000Y-100500000D02*
X142450000Y-101000000D01*
D52*
%TO.N,/BST*%
X163975001Y-105500001D02*
X164225000Y-105750000D01*
X163000000Y-105500001D02*
X163975001Y-105500001D01*
D51*
%TO.N,/SW*%
X164550002Y-104250000D02*
X164507754Y-104207752D01*
D54*
X165865000Y-114500000D02*
X169865000Y-114500000D01*
D53*
X164700000Y-104250000D02*
X165200000Y-104750000D01*
D54*
X167200000Y-113450000D02*
X167200000Y-121200000D01*
D53*
X165850002Y-104250000D02*
X165387500Y-104712502D01*
X164550002Y-104250000D02*
X164550002Y-104525002D01*
X164550002Y-104525002D02*
X165200000Y-105175000D01*
D54*
X167200000Y-121200000D02*
X167800000Y-121800000D01*
X168530000Y-113450000D02*
X168530000Y-121070000D01*
D53*
X165026000Y-106026000D02*
X165375000Y-106375000D01*
X164550002Y-104250000D02*
X164700000Y-104250000D01*
D51*
X165200000Y-105175000D02*
X165387500Y-105362500D01*
D54*
X163750000Y-110750000D02*
X163750000Y-111335000D01*
X164617476Y-107132524D02*
X164617476Y-109882524D01*
X168530000Y-121070000D02*
X167800000Y-121800000D01*
D51*
X163800000Y-110700000D02*
X163750000Y-110750000D01*
D54*
X165865000Y-113450000D02*
X169865000Y-113450000D01*
D51*
X164550002Y-104250000D02*
X165783100Y-104250000D01*
D53*
X165200000Y-105175000D02*
X165026000Y-105349000D01*
D52*
X163250000Y-104250000D02*
X164550002Y-104250000D01*
D54*
X165775000Y-105750000D02*
X165775000Y-105975000D01*
X165375000Y-106375000D02*
X164617476Y-107132524D01*
D53*
X165775000Y-104325002D02*
X165775000Y-105750000D01*
X165850002Y-104250000D02*
X165775000Y-104325002D01*
D54*
X169865000Y-113450000D02*
X169865000Y-114000000D01*
X163750000Y-111335000D02*
X165865000Y-113450000D01*
D53*
X165387500Y-104712502D02*
X165387500Y-105362500D01*
D51*
X165200000Y-104250000D02*
X165200000Y-104750000D01*
X165200000Y-104750000D02*
X165200000Y-105175000D01*
D54*
X169865000Y-114500000D02*
X169865000Y-119735000D01*
D53*
X165026000Y-105724000D02*
X165026000Y-106026000D01*
D54*
X169865000Y-119735000D02*
X167800000Y-121800000D01*
X165865000Y-114000000D02*
X169865000Y-114000000D01*
D53*
X165026000Y-105349000D02*
X165026000Y-105724000D01*
D54*
X164617476Y-109882524D02*
X163750000Y-110750000D01*
X169865000Y-114000000D02*
X169865000Y-114500000D01*
X165775000Y-105975000D02*
X165375000Y-106375000D01*
D52*
X163000000Y-104500000D02*
X163250000Y-104250000D01*
D51*
X165387500Y-105362500D02*
X165775000Y-105750000D01*
D53*
X165387500Y-105362500D02*
X165026000Y-105724000D01*
D52*
%TO.N,/SYNCIN*%
X159173003Y-107500002D02*
X159700002Y-107500002D01*
X163000000Y-107000000D02*
X163534605Y-107000000D01*
X159275000Y-112585000D02*
X159490000Y-112800000D01*
X163534605Y-107000000D02*
X163696157Y-106838448D01*
X159275000Y-110500000D02*
X159275000Y-111585000D01*
X159099003Y-108426000D02*
X159099003Y-107574002D01*
X159275000Y-111585000D02*
X159490000Y-111800000D01*
X159275000Y-109025000D02*
X159275000Y-110500000D01*
X159700000Y-108600000D02*
X159273003Y-108600000D01*
X159275000Y-111500000D02*
X159275000Y-112585000D01*
X159099003Y-107574002D02*
X159173003Y-107500002D01*
X159273003Y-108600000D02*
X159099003Y-108426000D01*
X159700000Y-108600000D02*
X159275000Y-109025000D01*
X163593978Y-107000000D02*
X163682329Y-106911649D01*
%TO.N,/ILIM*%
X162020000Y-109500000D02*
X162020000Y-110670000D01*
X162100002Y-109419998D02*
X162020000Y-109500000D01*
X162020000Y-110670000D02*
X162100000Y-110750000D01*
X162100002Y-108400003D02*
X162100002Y-109419998D01*
%TO.N,/SS*%
X158600002Y-105000002D02*
X158500000Y-104900000D01*
X158251000Y-104651000D02*
X156406000Y-104651000D01*
X156406000Y-104651000D02*
X155755000Y-104000000D01*
X158500000Y-104900000D02*
X158251000Y-104651000D01*
X159700002Y-105000002D02*
X158600002Y-105000002D01*
%TO.N,/COMP*%
X159700002Y-106000002D02*
X158974998Y-106000002D01*
X159474998Y-105500002D02*
X158575000Y-106400000D01*
X158575000Y-106400000D02*
X158575000Y-107750000D01*
X158974998Y-106000002D02*
X158575000Y-106400000D01*
X158375000Y-107950000D02*
X158375000Y-109487500D01*
X158750000Y-106725000D02*
X158725000Y-106750000D01*
X158375000Y-109487500D02*
X158112500Y-109750000D01*
X158575000Y-107750000D02*
X158375000Y-107950000D01*
X158750000Y-106000000D02*
X158750000Y-106725000D01*
X159700002Y-105500002D02*
X159474998Y-105500002D01*
X158750002Y-106000002D02*
X158750000Y-106000000D01*
%TO.N,Net-(C17-Pad2)*%
X152025000Y-106525000D02*
X151600000Y-106950000D01*
X151600000Y-106950000D02*
X153350000Y-106950000D01*
X152025000Y-105500000D02*
X152025000Y-106525000D01*
%TO.N,/PGOOD*%
X160600000Y-108400003D02*
X160600000Y-109415000D01*
X160600000Y-109415000D02*
X160500000Y-109515000D01*
%TO.N,/LG*%
X163000002Y-107500000D02*
X163000000Y-107500002D01*
X166755800Y-107625000D02*
X165750000Y-107625000D01*
X163000000Y-107500002D02*
X163668106Y-107500002D01*
X163668106Y-107500002D02*
X163706476Y-107538372D01*
%TO.N,/HG*%
X166500000Y-104800000D02*
X166400000Y-104900000D01*
X163633102Y-105000002D02*
X163772965Y-104860139D01*
X166500000Y-104250000D02*
X166500000Y-104800000D01*
X163693958Y-105000002D02*
X163785208Y-104908752D01*
X163000000Y-105000002D02*
X163633102Y-105000002D01*
%TO.N,/RT*%
X159350000Y-103250000D02*
X158500000Y-103250000D01*
X159700002Y-104500003D02*
X159700002Y-103600002D01*
X159700002Y-103600002D02*
X159350000Y-103250000D01*
%TO.N,Net-(C13-Pad2)*%
X156075000Y-107950000D02*
X155200000Y-107075000D01*
X156825000Y-107950000D02*
X156075000Y-107950000D01*
%TO.N,Net-(C14-Pad2)*%
X155200000Y-105425000D02*
X153650000Y-105425000D01*
X155250000Y-105425000D02*
X155175000Y-105500000D01*
X156175000Y-106400000D02*
X155200000Y-105425000D01*
X157025000Y-106400000D02*
X156175000Y-106400000D01*
X153650000Y-105425000D02*
X153575000Y-105500000D01*
X153625000Y-105500000D02*
X153625000Y-105875000D01*
%TO.N,Net-(D1-A)*%
X160510000Y-111800000D02*
X160510000Y-112800000D01*
X160500000Y-110485000D02*
X160500000Y-111790000D01*
X160500000Y-111790000D02*
X160510000Y-111800000D01*
D51*
%TO.N,VCC_M*%
X204522498Y-122640002D02*
X205240003Y-122640002D01*
X204415201Y-122747299D02*
X204522498Y-122640002D01*
X204415201Y-127590000D02*
X204415201Y-122747299D01*
%TD*%
%TA.AperFunction,Conductor*%
%TO.N,GND*%
G36*
X164743039Y-131919685D02*
G01*
X164788794Y-131972489D01*
X164800000Y-132024000D01*
X164800000Y-150076000D01*
X164780315Y-150143039D01*
X164727511Y-150188794D01*
X164676000Y-150200000D01*
X158924000Y-150200000D01*
X158856961Y-150180315D01*
X158811206Y-150127511D01*
X158800000Y-150076000D01*
X158800000Y-132024000D01*
X158819685Y-131956961D01*
X158872489Y-131911206D01*
X158924000Y-131900000D01*
X164676000Y-131900000D01*
X164743039Y-131919685D01*
G37*
%TD.AperFunction*%
%TD*%
%TA.AperFunction,Conductor*%
%TO.N,GND*%
G36*
X146443039Y-110019685D02*
G01*
X146488794Y-110072489D01*
X146500000Y-110124000D01*
X146500000Y-134126000D01*
X146480315Y-134193039D01*
X146427511Y-134238794D01*
X146376000Y-134250000D01*
X139374000Y-134250000D01*
X139306961Y-134230315D01*
X139261206Y-134177511D01*
X139250000Y-134126000D01*
X139250000Y-110124000D01*
X139269685Y-110056961D01*
X139322489Y-110011206D01*
X139374000Y-110000000D01*
X146376000Y-110000000D01*
X146443039Y-110019685D01*
G37*
%TD.AperFunction*%
%TD*%
%TA.AperFunction,Conductor*%
%TO.N,/VOUT*%
G36*
X150800000Y-114306706D02*
G01*
X154200000Y-114306706D01*
X154200000Y-113750000D01*
X157354406Y-113750000D01*
X157383102Y-113753366D01*
X157392720Y-113755653D01*
X157408164Y-113762051D01*
X157475777Y-113775500D01*
X157536466Y-113787572D01*
X157601456Y-113800500D01*
X157601459Y-113800500D01*
X157798543Y-113800500D01*
X157841869Y-113791881D01*
X157924223Y-113775500D01*
X157991836Y-113762051D01*
X158007279Y-113755653D01*
X158016898Y-113753366D01*
X158026226Y-113753852D01*
X158045594Y-113750000D01*
X158126000Y-113750000D01*
X158193039Y-113769685D01*
X158238794Y-113822489D01*
X158250000Y-113874000D01*
X158250000Y-150376000D01*
X158230315Y-150443039D01*
X158177511Y-150488794D01*
X158126000Y-150500000D01*
X147374000Y-150500000D01*
X147306961Y-150480315D01*
X147261206Y-150427511D01*
X147250000Y-150376000D01*
X147250000Y-113874000D01*
X147269685Y-113806961D01*
X147322489Y-113761206D01*
X147374000Y-113750000D01*
X150800000Y-113750000D01*
X150800000Y-114306706D01*
G37*
%TD.AperFunction*%
%TD*%
%TA.AperFunction,Conductor*%
%TO.N,/VOUT*%
G36*
X152556726Y-107626391D02*
G01*
X152577363Y-107643020D01*
X152639815Y-107705472D01*
X152785394Y-107793478D01*
X152947804Y-107844086D01*
X153018384Y-107850500D01*
X153018387Y-107850500D01*
X153681613Y-107850500D01*
X153681616Y-107850500D01*
X153752196Y-107844086D01*
X153914606Y-107793478D01*
X154011851Y-107734690D01*
X154079404Y-107716855D01*
X154145878Y-107738372D01*
X154190166Y-107792413D01*
X154200000Y-107840808D01*
X154200000Y-114306706D01*
X150800000Y-114306706D01*
X150800000Y-107871034D01*
X150819685Y-107803995D01*
X150872489Y-107758240D01*
X150941647Y-107748296D01*
X150988149Y-107764917D01*
X151035394Y-107793478D01*
X151197804Y-107844086D01*
X151268384Y-107850500D01*
X151268387Y-107850500D01*
X151931613Y-107850500D01*
X151931616Y-107850500D01*
X152002196Y-107844086D01*
X152164606Y-107793478D01*
X152310185Y-107705472D01*
X152372633Y-107643023D01*
X152399564Y-107628317D01*
X152425378Y-107611729D01*
X152431577Y-107610837D01*
X152433954Y-107609540D01*
X152460313Y-107606706D01*
X152489687Y-107606706D01*
X152556726Y-107626391D01*
G37*
%TD.AperFunction*%
%TD*%
%TA.AperFunction,Conductor*%
%TO.N,+24V*%
G36*
X167943039Y-99519685D02*
G01*
X167988794Y-99572489D01*
X168000000Y-99624000D01*
X168000000Y-102376000D01*
X167980315Y-102443039D01*
X167927511Y-102488794D01*
X167876000Y-102500000D01*
X159253804Y-102500000D01*
X159189655Y-102482117D01*
X159064606Y-102406522D01*
X158902196Y-102355914D01*
X158902194Y-102355913D01*
X158902192Y-102355913D01*
X158852778Y-102351423D01*
X158831616Y-102349500D01*
X158168384Y-102349500D01*
X158149145Y-102351248D01*
X158097807Y-102355913D01*
X157935393Y-102406522D01*
X157900674Y-102427511D01*
X157810344Y-102482117D01*
X157746196Y-102500000D01*
X144624000Y-102500000D01*
X144556961Y-102480315D01*
X144511206Y-102427511D01*
X144500000Y-102376000D01*
X144500000Y-99624000D01*
X144519685Y-99556961D01*
X144572489Y-99511206D01*
X144624000Y-99500000D01*
X167876000Y-99500000D01*
X167943039Y-99519685D01*
G37*
%TD.AperFunction*%
%TD*%
%TA.AperFunction,Conductor*%
%TO.N,GND*%
G36*
X164443039Y-97019685D02*
G01*
X164488794Y-97072489D01*
X164500000Y-97124000D01*
X164500000Y-98870500D01*
X164480315Y-98937539D01*
X164427511Y-98983294D01*
X164376000Y-98994500D01*
X148124000Y-98994500D01*
X148056961Y-98974815D01*
X148011206Y-98922011D01*
X148000000Y-98870500D01*
X148000000Y-97124000D01*
X148019685Y-97056961D01*
X148072489Y-97011206D01*
X148124000Y-97000000D01*
X164376000Y-97000000D01*
X164443039Y-97019685D01*
G37*
%TD.AperFunction*%
%TD*%
%TA.AperFunction,Conductor*%
%TO.N,GND*%
G36*
X169943039Y-105769685D02*
G01*
X169988794Y-105822489D01*
X170000000Y-105874000D01*
X170000000Y-108286000D01*
X169980315Y-108353039D01*
X169927511Y-108398794D01*
X169876000Y-108410000D01*
X167705300Y-108410000D01*
X167638261Y-108390315D01*
X167592506Y-108337511D01*
X167581300Y-108286000D01*
X167581299Y-106952129D01*
X167581298Y-106952123D01*
X167574891Y-106892516D01*
X167524597Y-106757671D01*
X167524593Y-106757664D01*
X167438347Y-106642455D01*
X167438344Y-106642452D01*
X167323135Y-106556206D01*
X167323128Y-106556202D01*
X167188282Y-106505908D01*
X167188283Y-106505908D01*
X167128683Y-106499501D01*
X167128681Y-106499500D01*
X167128673Y-106499500D01*
X167128665Y-106499500D01*
X166826257Y-106499500D01*
X166759218Y-106479815D01*
X166713463Y-106427011D01*
X166703519Y-106357853D01*
X166711696Y-106328047D01*
X166737051Y-106266836D01*
X166775500Y-106073541D01*
X166775500Y-105876460D01*
X166775500Y-105874000D01*
X166795185Y-105806961D01*
X166847989Y-105761206D01*
X166899500Y-105750000D01*
X169876000Y-105750000D01*
X169943039Y-105769685D01*
G37*
%TD.AperFunction*%
%TD*%
%TA.AperFunction,Conductor*%
%TO.N,GND*%
G36*
X151540702Y-103269349D02*
G01*
X151540809Y-103269177D01*
X151541437Y-103269564D01*
X151541847Y-103269685D01*
X151543206Y-103270655D01*
X151691294Y-103361998D01*
X151691297Y-103361999D01*
X151691303Y-103362003D01*
X151852292Y-103415349D01*
X151951655Y-103425500D01*
X152548344Y-103425499D01*
X152548352Y-103425498D01*
X152548355Y-103425498D01*
X152602760Y-103419940D01*
X152647708Y-103415349D01*
X152808697Y-103362003D01*
X152876984Y-103319883D01*
X152959191Y-103269177D01*
X152960750Y-103271705D01*
X153013061Y-103250595D01*
X153025192Y-103250000D01*
X154876000Y-103250000D01*
X154943039Y-103269685D01*
X154988794Y-103322489D01*
X155000000Y-103374000D01*
X155000000Y-103633423D01*
X154995076Y-103668019D01*
X154977357Y-103729005D01*
X154977356Y-103729008D01*
X154974500Y-103765302D01*
X154974500Y-104234697D01*
X154977356Y-104270991D01*
X154977357Y-104270994D01*
X154995076Y-104331980D01*
X155000000Y-104366576D01*
X155000000Y-104400500D01*
X154980315Y-104467539D01*
X154927511Y-104513294D01*
X154876000Y-104524500D01*
X154868384Y-104524500D01*
X154849145Y-104526248D01*
X154797807Y-104530913D01*
X154635393Y-104581522D01*
X154489811Y-104669530D01*
X154489810Y-104669531D01*
X154455358Y-104703984D01*
X154394035Y-104737469D01*
X154324343Y-104732485D01*
X154279996Y-104703984D01*
X154253044Y-104677032D01*
X154253040Y-104677029D01*
X154108705Y-104588001D01*
X154108699Y-104587998D01*
X154108697Y-104587997D01*
X154089157Y-104581522D01*
X153947709Y-104534651D01*
X153848346Y-104524500D01*
X153301662Y-104524500D01*
X153301644Y-104524501D01*
X153202292Y-104534650D01*
X153202289Y-104534651D01*
X153041305Y-104587996D01*
X153041294Y-104588001D01*
X152896959Y-104677029D01*
X152896955Y-104677032D01*
X152887681Y-104686307D01*
X152826358Y-104719792D01*
X152756666Y-104714808D01*
X152712319Y-104686307D01*
X152703044Y-104677032D01*
X152703040Y-104677029D01*
X152558705Y-104588001D01*
X152558699Y-104587998D01*
X152558697Y-104587997D01*
X152539157Y-104581522D01*
X152397709Y-104534651D01*
X152298346Y-104524500D01*
X151751662Y-104524500D01*
X151751644Y-104524501D01*
X151652292Y-104534650D01*
X151652289Y-104534651D01*
X151491305Y-104587996D01*
X151491294Y-104588001D01*
X151346959Y-104677029D01*
X151346955Y-104677032D01*
X151227032Y-104796955D01*
X151227029Y-104796959D01*
X151138124Y-104941097D01*
X151086176Y-104987822D01*
X151032586Y-105000000D01*
X148624000Y-105000000D01*
X148556961Y-104980315D01*
X148511206Y-104927511D01*
X148500000Y-104876000D01*
X148500000Y-103374000D01*
X148519685Y-103306961D01*
X148572489Y-103261206D01*
X148624000Y-103250000D01*
X151474808Y-103250000D01*
X151540702Y-103269349D01*
G37*
%TD.AperFunction*%
%TD*%
%TA.AperFunction,Conductor*%
%TO.N,VCC_M*%
G36*
X207407943Y-122559185D02*
G01*
X207428585Y-122575819D01*
X207886181Y-123033415D01*
X207900884Y-123060342D01*
X207917477Y-123086161D01*
X207918368Y-123092361D01*
X207919666Y-123094738D01*
X207922500Y-123121096D01*
X207922500Y-123225811D01*
X207902815Y-123292850D01*
X207901602Y-123294702D01*
X207834919Y-123394498D01*
X207834912Y-123394511D01*
X207778343Y-123531082D01*
X207778340Y-123531092D01*
X207749500Y-123676079D01*
X207749500Y-123676082D01*
X207749500Y-123823918D01*
X207749500Y-123823920D01*
X207749499Y-123823920D01*
X207778340Y-123968907D01*
X207778343Y-123968917D01*
X207834912Y-124105488D01*
X207834919Y-124105501D01*
X207878602Y-124170876D01*
X207899480Y-124237553D01*
X207899500Y-124239767D01*
X207899500Y-124866000D01*
X207896949Y-124874685D01*
X207898238Y-124883647D01*
X207887259Y-124907687D01*
X207879815Y-124933039D01*
X207872974Y-124938966D01*
X207869213Y-124947203D01*
X207846978Y-124961492D01*
X207827011Y-124978794D01*
X207816496Y-124981081D01*
X207810435Y-124984977D01*
X207775500Y-124990000D01*
X207732109Y-124990000D01*
X207665070Y-124970315D01*
X207657798Y-124965267D01*
X207632331Y-124946202D01*
X207632329Y-124946201D01*
X207497487Y-124895909D01*
X207497486Y-124895908D01*
X207497484Y-124895908D01*
X207437874Y-124889499D01*
X207437864Y-124889499D01*
X206942130Y-124889499D01*
X206942121Y-124889500D01*
X206878249Y-124896366D01*
X206851743Y-124896366D01*
X206847483Y-124895908D01*
X206787873Y-124889499D01*
X206787865Y-124889499D01*
X206292129Y-124889499D01*
X206292120Y-124889500D01*
X206228249Y-124896366D01*
X206201743Y-124896366D01*
X206197484Y-124895908D01*
X206137874Y-124889499D01*
X206137865Y-124889499D01*
X205642130Y-124889499D01*
X205642121Y-124889500D01*
X205578249Y-124896366D01*
X205551743Y-124896366D01*
X205547483Y-124895908D01*
X205487873Y-124889499D01*
X205487865Y-124889499D01*
X204992129Y-124889499D01*
X204992123Y-124889500D01*
X204932516Y-124895907D01*
X204797671Y-124946201D01*
X204797669Y-124946202D01*
X204772203Y-124965267D01*
X204751454Y-124973005D01*
X204732827Y-124984977D01*
X204710910Y-124988128D01*
X204706739Y-124989684D01*
X204697892Y-124990000D01*
X204546500Y-124990000D01*
X204479461Y-124970315D01*
X204433706Y-124917511D01*
X204422500Y-124866000D01*
X204422500Y-122707560D01*
X204442185Y-122640521D01*
X204494989Y-122594766D01*
X204514397Y-122587788D01*
X204615949Y-122560577D01*
X204615952Y-122560575D01*
X204623682Y-122556113D01*
X204685682Y-122539500D01*
X207340904Y-122539500D01*
X207407943Y-122559185D01*
G37*
%TD.AperFunction*%
%TD*%
%TA.AperFunction,Conductor*%
%TO.N,GND*%
G36*
X199693039Y-133019685D02*
G01*
X199738794Y-133072489D01*
X199750000Y-133124000D01*
X199750000Y-137376000D01*
X199730315Y-137443039D01*
X199677511Y-137488794D01*
X199626000Y-137500000D01*
X191824000Y-137500000D01*
X191756961Y-137480315D01*
X191711206Y-137427511D01*
X191700000Y-137376000D01*
X191700000Y-133124000D01*
X191719685Y-133056961D01*
X191772489Y-133011206D01*
X191824000Y-133000000D01*
X199626000Y-133000000D01*
X199693039Y-133019685D01*
G37*
%TD.AperFunction*%
%TD*%
%TA.AperFunction,Conductor*%
%TO.N,GND*%
G36*
X206529540Y-143769685D02*
G01*
X206575295Y-143822489D01*
X206586501Y-143874000D01*
X206586501Y-144511908D01*
X206578683Y-144555241D01*
X206575409Y-144564017D01*
X206569002Y-144623616D01*
X206569002Y-144623623D01*
X206569001Y-144623635D01*
X206569001Y-146573570D01*
X206569002Y-146573576D01*
X206575410Y-146633187D01*
X206577193Y-146640731D01*
X206575818Y-146641055D01*
X206580200Y-146702364D01*
X206546712Y-146763685D01*
X206485387Y-146797167D01*
X206459035Y-146800000D01*
X204352567Y-146800000D01*
X204285528Y-146780315D01*
X204239773Y-146727511D01*
X204229829Y-146658353D01*
X204235440Y-146636365D01*
X204236192Y-146633183D01*
X204242601Y-146573573D01*
X204242600Y-144623628D01*
X204236192Y-144564017D01*
X204185897Y-144429169D01*
X204185896Y-144429168D01*
X204185894Y-144429164D01*
X204099649Y-144313957D01*
X204099647Y-144313954D01*
X204099643Y-144313951D01*
X204099640Y-144313948D01*
X204049689Y-144276554D01*
X204007818Y-144220620D01*
X204000000Y-144177288D01*
X204000000Y-143874000D01*
X204019685Y-143806961D01*
X204072489Y-143761206D01*
X204124000Y-143750000D01*
X206462501Y-143750000D01*
X206529540Y-143769685D01*
G37*
%TD.AperFunction*%
%TD*%
%TA.AperFunction,Conductor*%
%TO.N,GND*%
G36*
X214693039Y-143769685D02*
G01*
X214738794Y-143822489D01*
X214750000Y-143874000D01*
X214750000Y-144167109D01*
X214730315Y-144234148D01*
X214700311Y-144266376D01*
X214636757Y-144313952D01*
X214636752Y-144313957D01*
X214550507Y-144429164D01*
X214550503Y-144429171D01*
X214500209Y-144564017D01*
X214493802Y-144623616D01*
X214493802Y-144623623D01*
X214493801Y-144623635D01*
X214493801Y-146573570D01*
X214493802Y-146573576D01*
X214500210Y-146633187D01*
X214501993Y-146640731D01*
X214500618Y-146641055D01*
X214505000Y-146702364D01*
X214471512Y-146763685D01*
X214410187Y-146797167D01*
X214383835Y-146800000D01*
X212277366Y-146800000D01*
X212210327Y-146780315D01*
X212164572Y-146727511D01*
X212154628Y-146658353D01*
X212160238Y-146636372D01*
X212160989Y-146633189D01*
X212160992Y-146633183D01*
X212167401Y-146573573D01*
X212167400Y-144623628D01*
X212160992Y-144564017D01*
X212157718Y-144555241D01*
X212149901Y-144511909D01*
X212149901Y-143874000D01*
X212169586Y-143806961D01*
X212222390Y-143761206D01*
X212273901Y-143750000D01*
X214626000Y-143750000D01*
X214693039Y-143769685D01*
G37*
%TD.AperFunction*%
%TD*%
%TA.AperFunction,Conductor*%
%TO.N,GND*%
G36*
X225642539Y-119019685D02*
G01*
X225688294Y-119072489D01*
X225699500Y-119124000D01*
X225699500Y-123376000D01*
X225679815Y-123443039D01*
X225627011Y-123488794D01*
X225575500Y-123500000D01*
X221183440Y-123500000D01*
X221116401Y-123480315D01*
X221095759Y-123463681D01*
X219486319Y-121854241D01*
X219452834Y-121792918D01*
X219450000Y-121766560D01*
X219450000Y-119124000D01*
X219469685Y-119056961D01*
X219522489Y-119011206D01*
X219574000Y-119000000D01*
X225575500Y-119000000D01*
X225642539Y-119019685D01*
G37*
%TD.AperFunction*%
%TD*%
M02*
