%TF.GenerationSoftware,KiCad,Pcbnew,9.0.6*%
%TF.CreationDate,2026-03-15T12:29:34+01:00*%
%TF.ProjectId,Microver2026_Control_Final,4d696372-6f76-4657-9232-3032365f436f,A*%
%TF.SameCoordinates,Original*%
%TF.FileFunction,Soldermask,Bot*%
%TF.FilePolarity,Negative*%
%FSLAX46Y46*%
G04 Gerber Fmt 4.6, Leading zero omitted, Abs format (unit mm)*
G04 Created by KiCad (PCBNEW 9.0.6) date 2026-03-15 12:29:34*
%MOMM*%
%LPD*%
G01*
G04 APERTURE LIST*
%ADD10R,1.600000X1.600000*%
%ADD11O,1.600000X1.600000*%
%ADD12R,1.700000X1.700000*%
%ADD13C,1.700000*%
G04 APERTURE END LIST*
D10*
%TO.C,A1*%
X81280000Y-111760000D03*
D11*
X83820000Y-111760000D03*
X86360000Y-111760000D03*
X88900000Y-111760000D03*
X91440000Y-111760000D03*
X93980000Y-111760000D03*
X96520000Y-111760000D03*
X99060000Y-111760000D03*
X101600000Y-111760000D03*
X104140000Y-111760000D03*
X106680000Y-111760000D03*
X109220000Y-111760000D03*
X111760000Y-111760000D03*
X114300000Y-111760000D03*
X116840000Y-111760000D03*
X116840000Y-96520000D03*
X114300000Y-96520000D03*
X111760000Y-96520000D03*
X109220000Y-96520000D03*
X106680000Y-96520000D03*
X104140000Y-96520000D03*
X101600000Y-96520000D03*
X99060000Y-96520000D03*
X96520000Y-96520000D03*
X93980000Y-96520000D03*
X91440000Y-96520000D03*
X88900000Y-96520000D03*
X86360000Y-96520000D03*
X83820000Y-96520000D03*
X81280000Y-96520000D03*
%TD*%
D12*
%TO.C,J15*%
X127000000Y-83820000D03*
D13*
X129540000Y-83820000D03*
X127000000Y-86360000D03*
X129540000Y-86360000D03*
X127000000Y-88900000D03*
X129540000Y-88900000D03*
X127000000Y-91440000D03*
X129540000Y-91440000D03*
X127000000Y-93980000D03*
X129540000Y-93980000D03*
X127000000Y-96520000D03*
X129540000Y-96520000D03*
X127000000Y-99060000D03*
X129540000Y-99060000D03*
X127000000Y-101600000D03*
X129540000Y-101600000D03*
X127000000Y-104140000D03*
X129540000Y-104140000D03*
X127000000Y-106680000D03*
X129540000Y-106680000D03*
%TD*%
D12*
%TO.C,J14*%
X71120000Y-83820000D03*
D13*
X73660000Y-83820000D03*
X71120000Y-86360000D03*
X73660000Y-86360000D03*
X71120000Y-88900000D03*
X73660000Y-88900000D03*
X71120000Y-91440000D03*
X73660000Y-91440000D03*
X71120000Y-93980000D03*
X73660000Y-93980000D03*
X71120000Y-96520000D03*
X73660000Y-96520000D03*
X71120000Y-99060000D03*
X73660000Y-99060000D03*
X71120000Y-101600000D03*
X73660000Y-101600000D03*
X71120000Y-104140000D03*
X73660000Y-104140000D03*
X71120000Y-106680000D03*
X73660000Y-106680000D03*
%TD*%
D10*
%TO.C,A2*%
X81280000Y-92430000D03*
D11*
X83820000Y-92430000D03*
X86360000Y-92430000D03*
X88900000Y-92430000D03*
X91440000Y-92430000D03*
X93980000Y-92430000D03*
X96520000Y-92430000D03*
X99060000Y-92430000D03*
X101600000Y-92430000D03*
X104140000Y-92430000D03*
X106680000Y-92430000D03*
X109220000Y-92430000D03*
X111760000Y-92430000D03*
X114300000Y-92430000D03*
X116840000Y-92430000D03*
X116840000Y-77190000D03*
X114300000Y-77190000D03*
X111760000Y-77190000D03*
X109220000Y-77190000D03*
X106680000Y-77190000D03*
X104140000Y-77190000D03*
X101600000Y-77190000D03*
X99060000Y-77190000D03*
X96520000Y-77190000D03*
X93980000Y-77190000D03*
X91440000Y-77190000D03*
X88900000Y-77190000D03*
X86360000Y-77190000D03*
X83820000Y-77190000D03*
X81280000Y-77190000D03*
%TD*%
M02*
