M48
; DRILL file {KiCad 9.0.6} date 2026-03-15T12:29:30+0100
; FORMAT={-:-/ absolute / metric / decimal}
; #@! TF.CreationDate,2026-03-15T12:29:30+01:00
; #@! TF.GenerationSoftware,Kicad,Pcbnew,9.0.6
; #@! TF.FileFunction,Plated,1,4,PTH
FMAT,2
METRIC
; #@! TA.AperFunction,Plated,PTH,ViaDrill
T1C0.300
; #@! TA.AperFunction,Plated,PTH,ComponentDrill
T2C1.000
%
G90
G05
T1
X67.749Y-105.0
X74.02Y-85.069
X74.211Y-109.0
X76.0Y-92.0
X76.03Y-97.97
X76.5Y-91.349
X78.3Y-97.27
X79.0Y-92.5
X79.0Y-100.65
X82.0Y-99.0
X85.0Y-75.0
X85.0Y-95.0
X86.0Y-86.0
X87.0Y-104.0
X92.286Y-93.35
X92.5Y-80.0
X92.858Y-76.639
X93.5Y-109.0
X94.0Y-73.0
X94.0Y-94.65
X95.0Y-76.639
X96.0Y-81.0
X96.0Y-87.5
X96.96Y-108.04
X99.0Y-72.0
X99.0Y-94.0
X102.422Y-97.853
X102.5Y-108.84
X103.0Y-99.35
X104.0Y-74.0
X104.0Y-101.0
X105.0Y-75.65
X105.0Y-94.0
X105.0Y-99.35
X106.0Y-91.0
X108.0Y-99.35
X119.5Y-100.5
X121.5Y-76.49
X121.5Y-93.13
X122.0Y-106.0
X123.219Y-83.17
X124.0Y-102.0
X125.0Y-103.0
X131.441Y-94.0
X132.042Y-100.0
X133.0Y-102.0
X133.0Y-105.0
T2
X71.12Y-83.82
X71.12Y-86.36
X71.12Y-88.9
X71.12Y-91.44
X71.12Y-93.98
X71.12Y-96.52
X71.12Y-99.06
X71.12Y-101.6
X71.12Y-104.14
X71.12Y-106.68
X73.66Y-83.82
X73.66Y-86.36
X73.66Y-88.9
X73.66Y-91.44
X73.66Y-93.98
X73.66Y-96.52
X73.66Y-99.06
X73.66Y-101.6
X73.66Y-104.14
X73.66Y-106.68
X81.28Y-77.19
X81.28Y-92.43
X81.28Y-96.52
X81.28Y-111.76
X83.82Y-77.19
X83.82Y-92.43
X83.82Y-96.52
X83.82Y-111.76
X86.36Y-77.19
X86.36Y-92.43
X86.36Y-96.52
X86.36Y-111.76
X88.9Y-77.19
X88.9Y-92.43
X88.9Y-96.52
X88.9Y-111.76
X91.44Y-77.19
X91.44Y-92.43
X91.44Y-96.52
X91.44Y-111.76
X93.98Y-77.19
X93.98Y-92.43
X93.98Y-96.52
X93.98Y-111.76
X96.52Y-77.19
X96.52Y-92.43
X96.52Y-96.52
X96.52Y-111.76
X99.06Y-77.19
X99.06Y-92.43
X99.06Y-96.52
X99.06Y-111.76
X101.6Y-77.19
X101.6Y-92.43
X101.6Y-96.52
X101.6Y-111.76
X104.14Y-77.19
X104.14Y-92.43
X104.14Y-96.52
X104.14Y-111.76
X106.68Y-77.19
X106.68Y-92.43
X106.68Y-96.52
X106.68Y-111.76
X109.22Y-77.19
X109.22Y-92.43
X109.22Y-96.52
X109.22Y-111.76
X111.76Y-77.19
X111.76Y-92.43
X111.76Y-96.52
X111.76Y-111.76
X114.3Y-77.19
X114.3Y-92.43
X114.3Y-96.52
X114.3Y-111.76
X116.84Y-77.19
X116.84Y-92.43
X116.84Y-96.52
X116.84Y-111.76
X127.0Y-83.82
X127.0Y-86.36
X127.0Y-88.9
X127.0Y-91.44
X127.0Y-93.98
X127.0Y-96.52
X127.0Y-99.06
X127.0Y-101.6
X127.0Y-104.14
X127.0Y-106.68
X129.54Y-83.82
X129.54Y-86.36
X129.54Y-88.9
X129.54Y-91.44
X129.54Y-93.98
X129.54Y-96.52
X129.54Y-99.06
X129.54Y-101.6
X129.54Y-104.14
X129.54Y-106.68
M30
