%TF.GenerationSoftware,KiCad,Pcbnew,9.0.6*%
%TF.CreationDate,2026-03-15T12:29:34+01:00*%
%TF.ProjectId,Microver2026_Control_Final,4d696372-6f76-4657-9232-3032365f436f,A*%
%TF.SameCoordinates,Original*%
%TF.FileFunction,Copper,L4,Bot*%
%TF.FilePolarity,Positive*%
%FSLAX46Y46*%
G04 Gerber Fmt 4.6, Leading zero omitted, Abs format (unit mm)*
G04 Created by KiCad (PCBNEW 9.0.6) date 2026-03-15 12:29:34*
%MOMM*%
%LPD*%
G01*
G04 APERTURE LIST*
%TA.AperFunction,ComponentPad*%
%ADD10R,1.600000X1.600000*%
%TD*%
%TA.AperFunction,ComponentPad*%
%ADD11O,1.600000X1.600000*%
%TD*%
%TA.AperFunction,ComponentPad*%
%ADD12R,1.700000X1.700000*%
%TD*%
%TA.AperFunction,ComponentPad*%
%ADD13C,1.700000*%
%TD*%
%TA.AperFunction,ViaPad*%
%ADD14C,0.500000*%
%TD*%
%TA.AperFunction,ViaPad*%
%ADD15C,0.600000*%
%TD*%
%TA.AperFunction,Conductor*%
%ADD16C,0.400000*%
%TD*%
G04 APERTURE END LIST*
D10*
%TO.P,A1,1,TX1*%
%TO.N,unconnected-(A1-TX1-Pad1)*%
X81280000Y-111760000D03*
D11*
%TO.P,A1,2,RX1*%
%TO.N,unconnected-(A1-RX1-Pad2)*%
X83820000Y-111760000D03*
%TO.P,A1,3,~{RESET}*%
%TO.N,unconnected-(A1-~{RESET}-Pad3)*%
X86360000Y-111760000D03*
%TO.P,A1,4,GND*%
%TO.N,GND*%
X88900000Y-111760000D03*
%TO.P,A1,5,D2*%
%TO.N,Net-(A1-D2)*%
X91440000Y-111760000D03*
%TO.P,A1,6,D3*%
%TO.N,Net-(A1-D3)*%
X93980000Y-111760000D03*
%TO.P,A1,7,D4*%
%TO.N,Net-(A1-D4)*%
X96520000Y-111760000D03*
%TO.P,A1,8,D5*%
%TO.N,Net-(A1-D5)*%
X99060000Y-111760000D03*
%TO.P,A1,9,D6*%
%TO.N,Net-(A1-D6)*%
X101600000Y-111760000D03*
%TO.P,A1,10,D7*%
%TO.N,Net-(A1-D7)*%
X104140000Y-111760000D03*
%TO.P,A1,11,D8*%
%TO.N,Net-(A1-D8)*%
X106680000Y-111760000D03*
%TO.P,A1,12,D9*%
%TO.N,Net-(A1-D9)*%
X109220000Y-111760000D03*
%TO.P,A1,13,D10*%
%TO.N,Net-(A1-D10)*%
X111760000Y-111760000D03*
%TO.P,A1,14,MOSI_D11*%
%TO.N,Net-(A1-MOSI_D11)*%
X114300000Y-111760000D03*
%TO.P,A1,15,MISO_D12*%
%TO.N,Net-(A1-MISO_D12)*%
X116840000Y-111760000D03*
%TO.P,A1,16,SCK_D13*%
%TO.N,Net-(A1-SCK_D13)*%
X116840000Y-96520000D03*
%TO.P,A1,17,3V3*%
%TO.N,unconnected-(A1-3V3-Pad17)*%
X114300000Y-96520000D03*
%TO.P,A1,18,AREF*%
%TO.N,unconnected-(A1-AREF-Pad18)*%
X111760000Y-96520000D03*
%TO.P,A1,19,A0*%
%TO.N,Net-(A1-A0)*%
X109220000Y-96520000D03*
%TO.P,A1,20,A1*%
%TO.N,Net-(A1-A1)*%
X106680000Y-96520000D03*
%TO.P,A1,21,A2*%
%TO.N,Net-(A1-A2)*%
X104140000Y-96520000D03*
%TO.P,A1,22,A3*%
%TO.N,Net-(A1-A3)*%
X101600000Y-96520000D03*
%TO.P,A1,23,SDA/A4*%
%TO.N,Net-(A1-SDA{slash}A4)*%
X99060000Y-96520000D03*
%TO.P,A1,24,SCL/A5*%
%TO.N,Net-(A1-SCL{slash}A5)*%
X96520000Y-96520000D03*
%TO.P,A1,25,A6*%
%TO.N,Net-(A1-A6)*%
X93980000Y-96520000D03*
%TO.P,A1,26,A7*%
%TO.N,Net-(A1-A7)*%
X91440000Y-96520000D03*
%TO.P,A1,27,+5V*%
%TO.N,unconnected-(A1-+5V-Pad27)*%
X88900000Y-96520000D03*
%TO.P,A1,28,~{RESET}*%
%TO.N,unconnected-(A1-~{RESET}-Pad28)*%
X86360000Y-96520000D03*
%TO.P,A1,29,GND*%
%TO.N,GND*%
X83820000Y-96520000D03*
%TO.P,A1,30,VIN*%
%TO.N,+5V*%
X81280000Y-96520000D03*
%TD*%
D12*
%TO.P,J15,1,Pin_1a*%
%TO.N,Net-(J15-Pin_1a)*%
X127000000Y-83820000D03*
D13*
%TO.P,J15,2,Pin_1b*%
%TO.N,+5V*%
X129540000Y-83820000D03*
%TO.P,J15,3,Pin_2a*%
%TO.N,Net-(J15-Pin_2a)*%
X127000000Y-86360000D03*
%TO.P,J15,4,Pin_2b*%
%TO.N,GND*%
X129540000Y-86360000D03*
%TO.P,J15,5,Pin_3a*%
%TO.N,Net-(J15-Pin_3a)*%
X127000000Y-88900000D03*
%TO.P,J15,6,Pin_3b*%
%TO.N,Net-(J15-Pin_3b)*%
X129540000Y-88900000D03*
%TO.P,J15,7,Pin_4a*%
%TO.N,Net-(J15-Pin_4a)*%
X127000000Y-91440000D03*
%TO.P,J15,8,Pin_4b*%
%TO.N,Net-(A1-D8)*%
X129540000Y-91440000D03*
%TO.P,J15,9,Pin_5a*%
%TO.N,Net-(J15-Pin_5a)*%
X127000000Y-93980000D03*
%TO.P,J15,10,Pin_5b*%
%TO.N,Net-(A1-SCK_D13)*%
X129540000Y-93980000D03*
%TO.P,J15,11,Pin_6a*%
%TO.N,Net-(J15-Pin_6a)*%
X127000000Y-96520000D03*
%TO.P,J15,12,Pin_6b*%
%TO.N,Net-(A1-A1)*%
X129540000Y-96520000D03*
%TO.P,J15,13,Pin_7a*%
%TO.N,Net-(J15-Pin_7a)*%
X127000000Y-99060000D03*
%TO.P,J15,14,Pin_7b*%
%TO.N,Net-(J15-Pin_7b)*%
X129540000Y-99060000D03*
%TO.P,J15,15,Pin_8a*%
%TO.N,Net-(J15-Pin_8a)*%
X127000000Y-101600000D03*
%TO.P,J15,16,Pin_8b*%
%TO.N,Net-(J15-Pin_8b)*%
X129540000Y-101600000D03*
%TO.P,J15,17,Pin_9a*%
%TO.N,Net-(J15-Pin_9a)*%
X127000000Y-104140000D03*
%TO.P,J15,18,Pin_9b*%
%TO.N,Net-(A2-A7)*%
X129540000Y-104140000D03*
%TO.P,J15,19,Pin_10a*%
%TO.N,Net-(J15-Pin_10a)*%
X127000000Y-106680000D03*
%TO.P,J15,20,Pin_10b*%
%TO.N,Net-(A2-A6)*%
X129540000Y-106680000D03*
%TD*%
D12*
%TO.P,J14,1,Pin_1a*%
%TO.N,Net-(J14-Pin_1a)*%
X71120000Y-83820000D03*
D13*
%TO.P,J14,2,Pin_1b*%
%TO.N,+5V*%
X73660000Y-83820000D03*
%TO.P,J14,3,Pin_2a*%
%TO.N,Net-(J14-Pin_2a)*%
X71120000Y-86360000D03*
%TO.P,J14,4,Pin_2b*%
%TO.N,GND*%
X73660000Y-86360000D03*
%TO.P,J14,5,Pin_3a*%
%TO.N,Net-(J14-Pin_3a)*%
X71120000Y-88900000D03*
%TO.P,J14,6,Pin_3b*%
%TO.N,Net-(J14-Pin_3b)*%
X73660000Y-88900000D03*
%TO.P,J14,7,Pin_4a*%
%TO.N,Net-(J14-Pin_4a)*%
X71120000Y-91440000D03*
%TO.P,J14,8,Pin_4b*%
%TO.N,Net-(A1-A6)*%
X73660000Y-91440000D03*
%TO.P,J14,9,Pin_5a*%
%TO.N,Net-(J14-Pin_5a)*%
X71120000Y-93980000D03*
%TO.P,J14,10,Pin_5b*%
%TO.N,Net-(A1-A7)*%
X73660000Y-93980000D03*
%TO.P,J14,11,Pin_6a*%
%TO.N,Net-(J14-Pin_6a)*%
X71120000Y-96520000D03*
%TO.P,J14,12,Pin_6b*%
%TO.N,Net-(A1-A0)*%
X73660000Y-96520000D03*
%TO.P,J14,13,Pin_7a*%
%TO.N,Net-(J14-Pin_7a)*%
X71120000Y-99060000D03*
%TO.P,J14,14,Pin_7b*%
%TO.N,Net-(J14-Pin_7b)*%
X73660000Y-99060000D03*
%TO.P,J14,15,Pin_8a*%
%TO.N,Net-(A1-D2)*%
X71120000Y-101600000D03*
%TO.P,J14,16,Pin_8b*%
%TO.N,Net-(J14-Pin_8b)*%
X73660000Y-101600000D03*
%TO.P,J14,17,Pin_9a*%
%TO.N,Net-(J14-Pin_9a)*%
X71120000Y-104140000D03*
%TO.P,J14,18,Pin_9b*%
%TO.N,Net-(A2-A3)*%
X73660000Y-104140000D03*
%TO.P,J14,19,Pin_10a*%
%TO.N,Net-(A2-A1)*%
X71120000Y-106680000D03*
%TO.P,J14,20,Pin_10b*%
%TO.N,Net-(A2-A2)*%
X73660000Y-106680000D03*
%TD*%
D10*
%TO.P,A2,1,TX1*%
%TO.N,unconnected-(A2-TX1-Pad1)*%
X81280000Y-92430000D03*
D11*
%TO.P,A2,2,RX1*%
%TO.N,unconnected-(A2-RX1-Pad2)*%
X83820000Y-92430000D03*
%TO.P,A2,3,~{RESET}*%
%TO.N,unconnected-(A2-~{RESET}-Pad3)*%
X86360000Y-92430000D03*
%TO.P,A2,4,GND*%
%TO.N,GND*%
X88900000Y-92430000D03*
%TO.P,A2,5,D2*%
%TO.N,Net-(A2-D2)*%
X91440000Y-92430000D03*
%TO.P,A2,6,D3*%
%TO.N,Net-(A2-D3)*%
X93980000Y-92430000D03*
%TO.P,A2,7,D4*%
%TO.N,Net-(A2-D4)*%
X96520000Y-92430000D03*
%TO.P,A2,8,D5*%
%TO.N,Net-(A2-D5)*%
X99060000Y-92430000D03*
%TO.P,A2,9,D6*%
%TO.N,Net-(A2-D6)*%
X101600000Y-92430000D03*
%TO.P,A2,10,D7*%
%TO.N,Net-(A2-D7)*%
X104140000Y-92430000D03*
%TO.P,A2,11,D8*%
%TO.N,Net-(A2-D8)*%
X106680000Y-92430000D03*
%TO.P,A2,12,D9*%
%TO.N,Net-(A2-D9)*%
X109220000Y-92430000D03*
%TO.P,A2,13,D10*%
%TO.N,Net-(A2-D10)*%
X111760000Y-92430000D03*
%TO.P,A2,14,MOSI_D11*%
%TO.N,Net-(A2-MOSI_D11)*%
X114300000Y-92430000D03*
%TO.P,A2,15,MISO_D12*%
%TO.N,Net-(A2-MISO_D12)*%
X116840000Y-92430000D03*
%TO.P,A2,16,SCK_D13*%
%TO.N,Net-(A2-SCK_D13)*%
X116840000Y-77190000D03*
%TO.P,A2,17,3V3*%
%TO.N,unconnected-(A2-3V3-Pad17)*%
X114300000Y-77190000D03*
%TO.P,A2,18,AREF*%
%TO.N,unconnected-(A2-AREF-Pad18)*%
X111760000Y-77190000D03*
%TO.P,A2,19,A0*%
%TO.N,Net-(A2-A0)*%
X109220000Y-77190000D03*
%TO.P,A2,20,A1*%
%TO.N,Net-(A2-A1)*%
X106680000Y-77190000D03*
%TO.P,A2,21,A2*%
%TO.N,Net-(A2-A2)*%
X104140000Y-77190000D03*
%TO.P,A2,22,A3*%
%TO.N,Net-(A2-A3)*%
X101600000Y-77190000D03*
%TO.P,A2,23,SDA/A4*%
%TO.N,Net-(A1-SDA{slash}A4)*%
X99060000Y-77190000D03*
%TO.P,A2,24,SCL/A5*%
%TO.N,Net-(A1-SCL{slash}A5)*%
X96520000Y-77190000D03*
%TO.P,A2,25,A6*%
%TO.N,Net-(A2-A6)*%
X93980000Y-77190000D03*
%TO.P,A2,26,A7*%
%TO.N,Net-(A2-A7)*%
X91440000Y-77190000D03*
%TO.P,A2,27,+5V*%
%TO.N,unconnected-(A2-+5V-Pad27)*%
X88900000Y-77190000D03*
%TO.P,A2,28,~{RESET}*%
%TO.N,unconnected-(A2-~{RESET}-Pad28)*%
X86360000Y-77190000D03*
%TO.P,A2,29,GND*%
%TO.N,GND*%
X83820000Y-77190000D03*
%TO.P,A2,30,VIN*%
%TO.N,+5V*%
X81280000Y-77190000D03*
%TD*%
D14*
%TO.N,Net-(J15-Pin_6a)*%
X123219000Y-83170000D03*
%TO.N,Net-(A2-D6)*%
X79000000Y-92500000D03*
X99000000Y-94000000D03*
%TO.N,Net-(J14-Pin_5a)*%
X76500000Y-91349000D03*
%TO.N,+5V*%
X96000000Y-81000000D03*
X92500000Y-80000000D03*
%TO.N,GND*%
X119500000Y-100500000D03*
X82000000Y-99000000D03*
D15*
%TO.N,+5V*%
X121500000Y-93130000D03*
X121500000Y-76490000D03*
X93500000Y-109000000D03*
X102500000Y-108839620D03*
X74210818Y-109000000D03*
X78300000Y-97270380D03*
D14*
%TO.N,GND*%
X94000000Y-94650000D03*
X85000000Y-95000000D03*
X92286226Y-93350000D03*
%TO.N,+5V*%
X85000000Y-75000000D03*
%TO.N,Net-(J15-Pin_8b)*%
X132042000Y-100000000D03*
%TO.N,Net-(A1-D8)*%
X131441000Y-94000000D03*
%TO.N,Net-(J15-Pin_7b)*%
X96960380Y-108039620D03*
X125000000Y-103000000D03*
%TO.N,Net-(J14-Pin_3b)*%
X76000000Y-92000000D03*
X79000000Y-100650000D03*
%TO.N,Net-(A1-A3)*%
X104000000Y-101000000D03*
X103000000Y-99350000D03*
%TO.N,Net-(A1-A2)*%
X105000000Y-99350000D03*
X108000000Y-99350000D03*
%TO.N,Net-(J15-Pin_7a)*%
X122000000Y-106000000D03*
X124000000Y-102000000D03*
%TO.N,Net-(A2-A3)*%
X105000000Y-94000000D03*
%TO.N,Net-(A2-D9)*%
X102422422Y-97853182D03*
X87000000Y-104000000D03*
%TO.N,Net-(A2-A6)*%
X95000000Y-76639000D03*
X133000000Y-105000000D03*
X99000000Y-72000000D03*
%TO.N,Net-(A2-A7)*%
X94000000Y-73000000D03*
X92857992Y-76639000D03*
X133000000Y-102000000D03*
%TO.N,Net-(J14-Pin_6a)*%
X76029620Y-97970380D03*
%TO.N,Net-(A2-A1)*%
X67749000Y-105000000D03*
X104000000Y-74000000D03*
X105000000Y-75650000D03*
%TO.N,Net-(A2-A2)*%
X106000000Y-91000000D03*
%TO.N,Net-(J14-Pin_3a)*%
X96000000Y-87500000D03*
%TO.N,Net-(J14-Pin_2a)*%
X86000000Y-86000000D03*
%TO.N,Net-(J14-Pin_1a)*%
X74019934Y-85069181D03*
%TD*%
D16*
%TO.N,+5V*%
X78300000Y-97270380D02*
X78300000Y-98767182D01*
X72409000Y-107198182D02*
X74210818Y-109000000D01*
X78300000Y-98767182D02*
X74178182Y-102889000D01*
X74178182Y-102889000D02*
X73141818Y-102889000D01*
X73141818Y-102889000D02*
X72409000Y-103621818D01*
X72409000Y-103621818D02*
X72409000Y-107198182D01*
%TO.N,Net-(J15-Pin_6a)*%
X123219000Y-83170000D02*
X123219000Y-92739000D01*
X123219000Y-92739000D02*
X127000000Y-96520000D01*
%TO.N,Net-(A2-D6)*%
X80601000Y-94000000D02*
X80500000Y-94000000D01*
X80500000Y-94000000D02*
X79000000Y-92500000D01*
X99000000Y-94000000D02*
X80601000Y-94000000D01*
%TO.N,Net-(J14-Pin_5a)*%
X76500000Y-91349000D02*
X75730346Y-91349000D01*
%TO.N,Net-(J14-Pin_3a)*%
X95331000Y-88169000D02*
X95331000Y-89500000D01*
X95331000Y-89500000D02*
X94680000Y-90151000D01*
X96000000Y-87500000D02*
X95331000Y-88169000D01*
X94680000Y-90151000D02*
X72371000Y-90151000D01*
X72371000Y-90151000D02*
X71120000Y-88900000D01*
%TO.N,+5V*%
X95000000Y-80000000D02*
X92500000Y-80000000D01*
X96000000Y-81000000D02*
X95000000Y-80000000D01*
X92500000Y-80000000D02*
X89873529Y-80000000D01*
X89873529Y-80000000D02*
X87561000Y-77687471D01*
X87561000Y-77687471D02*
X87561000Y-76692529D01*
X87561000Y-76692529D02*
X85868471Y-75000000D01*
X85868471Y-75000000D02*
X85000000Y-75000000D01*
X121500000Y-93130000D02*
X121500000Y-76490000D01*
X101049000Y-107388620D02*
X95111380Y-107388620D01*
X102500000Y-108839620D02*
X101049000Y-107388620D01*
X95111380Y-107388620D02*
X93500000Y-109000000D01*
%TO.N,Net-(J15-Pin_7b)*%
X98460380Y-109539620D02*
X119381034Y-109539620D01*
X125000000Y-103920654D02*
X125000000Y-103000000D01*
X119381034Y-109539620D02*
X125000000Y-103920654D01*
X96960380Y-108039620D02*
X98460380Y-109539620D01*
%TO.N,GND*%
X92641000Y-92995226D02*
X92641000Y-91932529D01*
X85350000Y-94650000D02*
X94000000Y-94650000D01*
X90101000Y-91229000D02*
X88900000Y-92430000D01*
X85000000Y-95000000D02*
X85350000Y-94650000D01*
X92286226Y-93350000D02*
X92641000Y-92995226D01*
X91937471Y-91229000D02*
X90101000Y-91229000D01*
X92641000Y-91932529D02*
X91937471Y-91229000D01*
%TO.N,+5V*%
X85000000Y-75000000D02*
X83470000Y-75000000D01*
X83470000Y-75000000D02*
X81280000Y-77190000D01*
%TO.N,Net-(J15-Pin_8b)*%
X131140000Y-100000000D02*
X129540000Y-101600000D01*
X132042000Y-100000000D02*
X131140000Y-100000000D01*
%TO.N,Net-(A1-D8)*%
X131441000Y-94000000D02*
X131100000Y-93659000D01*
X131100000Y-93000000D02*
X129540000Y-91440000D01*
X131100000Y-93659000D02*
X131100000Y-93000000D01*
%TO.N,Net-(J14-Pin_3b)*%
X79000000Y-100650000D02*
X79000000Y-95000000D01*
X79000000Y-95000000D02*
X76000000Y-92000000D01*
%TO.N,Net-(A1-A3)*%
X103000000Y-99350000D02*
X103000000Y-100000000D01*
X103000000Y-100000000D02*
X104000000Y-101000000D01*
%TO.N,Net-(A1-A2)*%
X108000000Y-99350000D02*
X105000000Y-99350000D01*
%TO.N,Net-(J15-Pin_7a)*%
X124000000Y-104000000D02*
X124000000Y-102000000D01*
X122000000Y-106000000D02*
X124000000Y-104000000D01*
%TO.N,Net-(A2-A3)*%
X85021000Y-97017471D02*
X77898471Y-104140000D01*
X103681000Y-95319000D02*
X85724529Y-95319000D01*
X105000000Y-94000000D02*
X103681000Y-95319000D01*
X85724529Y-95319000D02*
X85021000Y-96022529D01*
X77898471Y-104140000D02*
X73660000Y-104140000D01*
X85021000Y-96022529D02*
X85021000Y-97017471D01*
%TO.N,Net-(J14-Pin_5a)*%
X75730346Y-91349000D02*
X74350346Y-92729000D01*
X72371000Y-92729000D02*
X71120000Y-93980000D01*
X74350346Y-92729000D02*
X72371000Y-92729000D01*
%TO.N,Net-(A2-D9)*%
X102422422Y-97853182D02*
X93146818Y-97853182D01*
X93146818Y-97853182D02*
X87000000Y-104000000D01*
%TO.N,Net-(A2-A6)*%
X98000000Y-73639000D02*
X95000000Y-76639000D01*
X98000000Y-73000000D02*
X98000000Y-73639000D01*
X99000000Y-72000000D02*
X98000000Y-73000000D01*
X131220000Y-105000000D02*
X129540000Y-106680000D01*
X133000000Y-105000000D02*
X131220000Y-105000000D01*
%TO.N,Net-(A2-A7)*%
X131680000Y-102000000D02*
X129540000Y-104140000D01*
X92857992Y-74142008D02*
X94000000Y-73000000D01*
X92857992Y-76639000D02*
X92857992Y-74142008D01*
X133000000Y-102000000D02*
X131680000Y-102000000D01*
%TO.N,Net-(J14-Pin_6a)*%
X72409000Y-97809000D02*
X71120000Y-96520000D01*
X76029620Y-97970380D02*
X75868240Y-97809000D01*
X75868240Y-97809000D02*
X72409000Y-97809000D01*
%TO.N,Net-(A2-A1)*%
X105000000Y-75650000D02*
X105000000Y-75000000D01*
X67749000Y-105000000D02*
X69440000Y-105000000D01*
X104000000Y-74000000D02*
X105000000Y-75000000D01*
X69440000Y-105000000D02*
X71120000Y-106680000D01*
%TO.N,Net-(A2-A2)*%
X105651000Y-95712529D02*
X105341000Y-96022529D01*
X94683529Y-106680000D02*
X73660000Y-106680000D01*
X105341000Y-97017471D02*
X104637471Y-97721000D01*
X104637471Y-97721000D02*
X103642529Y-97721000D01*
X105341000Y-91659000D02*
X105341000Y-93420346D01*
X106000000Y-91000000D02*
X105341000Y-91659000D01*
X105651000Y-93730346D02*
X105651000Y-95712529D01*
X103642529Y-97721000D02*
X94683529Y-106680000D01*
X105341000Y-93420346D02*
X105651000Y-93730346D01*
X105341000Y-96022529D02*
X105341000Y-97017471D01*
%TO.N,Net-(J14-Pin_2a)*%
X86000000Y-86000000D02*
X84389000Y-87611000D01*
X84389000Y-87611000D02*
X72371000Y-87611000D01*
X72371000Y-87611000D02*
X71120000Y-86360000D01*
%TO.N,Net-(J14-Pin_1a)*%
X73980115Y-85109000D02*
X72409000Y-85109000D01*
X72409000Y-85109000D02*
X71120000Y-83820000D01*
X74019934Y-85069181D02*
X73980115Y-85109000D01*
%TD*%
%TA.AperFunction,Conductor*%
%TO.N,GND*%
G36*
X134642539Y-70320185D02*
G01*
X134688294Y-70372989D01*
X134699500Y-70424500D01*
X134699500Y-114575500D01*
X134679815Y-114642539D01*
X134627011Y-114688294D01*
X134575500Y-114699500D01*
X65424500Y-114699500D01*
X65357461Y-114679815D01*
X65311706Y-114627011D01*
X65300500Y-114575500D01*
X65300500Y-110940247D01*
X80279500Y-110940247D01*
X80279500Y-112579752D01*
X80291131Y-112638229D01*
X80291132Y-112638230D01*
X80335447Y-112704552D01*
X80401769Y-112748867D01*
X80401770Y-112748868D01*
X80460247Y-112760499D01*
X80460250Y-112760500D01*
X80460252Y-112760500D01*
X82099750Y-112760500D01*
X82099751Y-112760499D01*
X82114568Y-112757552D01*
X82158229Y-112748868D01*
X82158229Y-112748867D01*
X82158231Y-112748867D01*
X82224552Y-112704552D01*
X82268867Y-112638231D01*
X82268867Y-112638229D01*
X82268868Y-112638229D01*
X82280499Y-112579752D01*
X82280500Y-112579750D01*
X82280500Y-111858543D01*
X82819499Y-111858543D01*
X82857947Y-112051829D01*
X82857950Y-112051839D01*
X82933364Y-112233907D01*
X82933371Y-112233920D01*
X83042860Y-112397781D01*
X83042863Y-112397785D01*
X83182214Y-112537136D01*
X83182218Y-112537139D01*
X83346079Y-112646628D01*
X83346092Y-112646635D01*
X83485918Y-112704552D01*
X83528165Y-112722051D01*
X83528169Y-112722051D01*
X83528170Y-112722052D01*
X83721456Y-112760500D01*
X83721459Y-112760500D01*
X83918543Y-112760500D01*
X84048582Y-112734632D01*
X84111835Y-112722051D01*
X84293914Y-112646632D01*
X84457782Y-112537139D01*
X84597139Y-112397782D01*
X84706632Y-112233914D01*
X84782051Y-112051835D01*
X84820500Y-111858543D01*
X85359499Y-111858543D01*
X85397947Y-112051829D01*
X85397950Y-112051839D01*
X85473364Y-112233907D01*
X85473371Y-112233920D01*
X85582860Y-112397781D01*
X85582863Y-112397785D01*
X85722214Y-112537136D01*
X85722218Y-112537139D01*
X85886079Y-112646628D01*
X85886092Y-112646635D01*
X86025918Y-112704552D01*
X86068165Y-112722051D01*
X86068169Y-112722051D01*
X86068170Y-112722052D01*
X86261456Y-112760500D01*
X86261459Y-112760500D01*
X86458543Y-112760500D01*
X86588582Y-112734632D01*
X86651835Y-112722051D01*
X86833914Y-112646632D01*
X86997782Y-112537139D01*
X87137139Y-112397782D01*
X87246632Y-112233914D01*
X87322051Y-112051835D01*
X87360500Y-111858543D01*
X90439499Y-111858543D01*
X90477947Y-112051829D01*
X90477950Y-112051839D01*
X90553364Y-112233907D01*
X90553371Y-112233920D01*
X90662860Y-112397781D01*
X90662863Y-112397785D01*
X90802214Y-112537136D01*
X90802218Y-112537139D01*
X90966079Y-112646628D01*
X90966092Y-112646635D01*
X91105918Y-112704552D01*
X91148165Y-112722051D01*
X91148169Y-112722051D01*
X91148170Y-112722052D01*
X91341456Y-112760500D01*
X91341459Y-112760500D01*
X91538543Y-112760500D01*
X91668582Y-112734632D01*
X91731835Y-112722051D01*
X91913914Y-112646632D01*
X92077782Y-112537139D01*
X92217139Y-112397782D01*
X92326632Y-112233914D01*
X92402051Y-112051835D01*
X92440500Y-111858543D01*
X92979499Y-111858543D01*
X93017947Y-112051829D01*
X93017950Y-112051839D01*
X93093364Y-112233907D01*
X93093371Y-112233920D01*
X93202860Y-112397781D01*
X93202863Y-112397785D01*
X93342214Y-112537136D01*
X93342218Y-112537139D01*
X93506079Y-112646628D01*
X93506092Y-112646635D01*
X93645918Y-112704552D01*
X93688165Y-112722051D01*
X93688169Y-112722051D01*
X93688170Y-112722052D01*
X93881456Y-112760500D01*
X93881459Y-112760500D01*
X94078543Y-112760500D01*
X94208582Y-112734632D01*
X94271835Y-112722051D01*
X94453914Y-112646632D01*
X94617782Y-112537139D01*
X94757139Y-112397782D01*
X94866632Y-112233914D01*
X94942051Y-112051835D01*
X94980500Y-111858543D01*
X95519499Y-111858543D01*
X95557947Y-112051829D01*
X95557950Y-112051839D01*
X95633364Y-112233907D01*
X95633371Y-112233920D01*
X95742860Y-112397781D01*
X95742863Y-112397785D01*
X95882214Y-112537136D01*
X95882218Y-112537139D01*
X96046079Y-112646628D01*
X96046092Y-112646635D01*
X96185918Y-112704552D01*
X96228165Y-112722051D01*
X96228169Y-112722051D01*
X96228170Y-112722052D01*
X96421456Y-112760500D01*
X96421459Y-112760500D01*
X96618543Y-112760500D01*
X96748582Y-112734632D01*
X96811835Y-112722051D01*
X96993914Y-112646632D01*
X97157782Y-112537139D01*
X97297139Y-112397782D01*
X97406632Y-112233914D01*
X97482051Y-112051835D01*
X97520500Y-111858543D01*
X98059499Y-111858543D01*
X98097947Y-112051829D01*
X98097950Y-112051839D01*
X98173364Y-112233907D01*
X98173371Y-112233920D01*
X98282860Y-112397781D01*
X98282863Y-112397785D01*
X98422214Y-112537136D01*
X98422218Y-112537139D01*
X98586079Y-112646628D01*
X98586092Y-112646635D01*
X98725918Y-112704552D01*
X98768165Y-112722051D01*
X98768169Y-112722051D01*
X98768170Y-112722052D01*
X98961456Y-112760500D01*
X98961459Y-112760500D01*
X99158543Y-112760500D01*
X99288582Y-112734632D01*
X99351835Y-112722051D01*
X99533914Y-112646632D01*
X99697782Y-112537139D01*
X99837139Y-112397782D01*
X99946632Y-112233914D01*
X100022051Y-112051835D01*
X100060500Y-111858543D01*
X100599499Y-111858543D01*
X100637947Y-112051829D01*
X100637950Y-112051839D01*
X100713364Y-112233907D01*
X100713371Y-112233920D01*
X100822860Y-112397781D01*
X100822863Y-112397785D01*
X100962214Y-112537136D01*
X100962218Y-112537139D01*
X101126079Y-112646628D01*
X101126092Y-112646635D01*
X101265918Y-112704552D01*
X101308165Y-112722051D01*
X101308169Y-112722051D01*
X101308170Y-112722052D01*
X101501456Y-112760500D01*
X101501459Y-112760500D01*
X101698543Y-112760500D01*
X101828582Y-112734632D01*
X101891835Y-112722051D01*
X102073914Y-112646632D01*
X102237782Y-112537139D01*
X102377139Y-112397782D01*
X102486632Y-112233914D01*
X102562051Y-112051835D01*
X102600500Y-111858543D01*
X103139499Y-111858543D01*
X103177947Y-112051829D01*
X103177950Y-112051839D01*
X103253364Y-112233907D01*
X103253371Y-112233920D01*
X103362860Y-112397781D01*
X103362863Y-112397785D01*
X103502214Y-112537136D01*
X103502218Y-112537139D01*
X103666079Y-112646628D01*
X103666092Y-112646635D01*
X103805918Y-112704552D01*
X103848165Y-112722051D01*
X103848169Y-112722051D01*
X103848170Y-112722052D01*
X104041456Y-112760500D01*
X104041459Y-112760500D01*
X104238543Y-112760500D01*
X104368582Y-112734632D01*
X104431835Y-112722051D01*
X104613914Y-112646632D01*
X104777782Y-112537139D01*
X104917139Y-112397782D01*
X105026632Y-112233914D01*
X105102051Y-112051835D01*
X105140500Y-111858543D01*
X105679499Y-111858543D01*
X105717947Y-112051829D01*
X105717950Y-112051839D01*
X105793364Y-112233907D01*
X105793371Y-112233920D01*
X105902860Y-112397781D01*
X105902863Y-112397785D01*
X106042214Y-112537136D01*
X106042218Y-112537139D01*
X106206079Y-112646628D01*
X106206092Y-112646635D01*
X106345918Y-112704552D01*
X106388165Y-112722051D01*
X106388169Y-112722051D01*
X106388170Y-112722052D01*
X106581456Y-112760500D01*
X106581459Y-112760500D01*
X106778543Y-112760500D01*
X106908582Y-112734632D01*
X106971835Y-112722051D01*
X107153914Y-112646632D01*
X107317782Y-112537139D01*
X107457139Y-112397782D01*
X107566632Y-112233914D01*
X107642051Y-112051835D01*
X107680500Y-111858543D01*
X108219499Y-111858543D01*
X108257947Y-112051829D01*
X108257950Y-112051839D01*
X108333364Y-112233907D01*
X108333371Y-112233920D01*
X108442860Y-112397781D01*
X108442863Y-112397785D01*
X108582214Y-112537136D01*
X108582218Y-112537139D01*
X108746079Y-112646628D01*
X108746092Y-112646635D01*
X108885918Y-112704552D01*
X108928165Y-112722051D01*
X108928169Y-112722051D01*
X108928170Y-112722052D01*
X109121456Y-112760500D01*
X109121459Y-112760500D01*
X109318543Y-112760500D01*
X109448582Y-112734632D01*
X109511835Y-112722051D01*
X109693914Y-112646632D01*
X109857782Y-112537139D01*
X109997139Y-112397782D01*
X110106632Y-112233914D01*
X110182051Y-112051835D01*
X110220500Y-111858543D01*
X110759499Y-111858543D01*
X110797947Y-112051829D01*
X110797950Y-112051839D01*
X110873364Y-112233907D01*
X110873371Y-112233920D01*
X110982860Y-112397781D01*
X110982863Y-112397785D01*
X111122214Y-112537136D01*
X111122218Y-112537139D01*
X111286079Y-112646628D01*
X111286092Y-112646635D01*
X111425918Y-112704552D01*
X111468165Y-112722051D01*
X111468169Y-112722051D01*
X111468170Y-112722052D01*
X111661456Y-112760500D01*
X111661459Y-112760500D01*
X111858543Y-112760500D01*
X111988582Y-112734632D01*
X112051835Y-112722051D01*
X112233914Y-112646632D01*
X112397782Y-112537139D01*
X112537139Y-112397782D01*
X112646632Y-112233914D01*
X112722051Y-112051835D01*
X112760500Y-111858543D01*
X113299499Y-111858543D01*
X113337947Y-112051829D01*
X113337950Y-112051839D01*
X113413364Y-112233907D01*
X113413371Y-112233920D01*
X113522860Y-112397781D01*
X113522863Y-112397785D01*
X113662214Y-112537136D01*
X113662218Y-112537139D01*
X113826079Y-112646628D01*
X113826092Y-112646635D01*
X113965918Y-112704552D01*
X114008165Y-112722051D01*
X114008169Y-112722051D01*
X114008170Y-112722052D01*
X114201456Y-112760500D01*
X114201459Y-112760500D01*
X114398543Y-112760500D01*
X114528582Y-112734632D01*
X114591835Y-112722051D01*
X114773914Y-112646632D01*
X114937782Y-112537139D01*
X115077139Y-112397782D01*
X115186632Y-112233914D01*
X115262051Y-112051835D01*
X115300500Y-111858543D01*
X115839499Y-111858543D01*
X115877947Y-112051829D01*
X115877950Y-112051839D01*
X115953364Y-112233907D01*
X115953371Y-112233920D01*
X116062860Y-112397781D01*
X116062863Y-112397785D01*
X116202214Y-112537136D01*
X116202218Y-112537139D01*
X116366079Y-112646628D01*
X116366092Y-112646635D01*
X116505918Y-112704552D01*
X116548165Y-112722051D01*
X116548169Y-112722051D01*
X116548170Y-112722052D01*
X116741456Y-112760500D01*
X116741459Y-112760500D01*
X116938543Y-112760500D01*
X117068582Y-112734632D01*
X117131835Y-112722051D01*
X117313914Y-112646632D01*
X117477782Y-112537139D01*
X117617139Y-112397782D01*
X117726632Y-112233914D01*
X117802051Y-112051835D01*
X117840500Y-111858541D01*
X117840500Y-111661459D01*
X117840500Y-111661456D01*
X117802052Y-111468170D01*
X117802051Y-111468169D01*
X117802051Y-111468165D01*
X117802049Y-111468160D01*
X117726635Y-111286092D01*
X117726628Y-111286079D01*
X117617139Y-111122218D01*
X117617136Y-111122214D01*
X117477785Y-110982863D01*
X117477781Y-110982860D01*
X117313920Y-110873371D01*
X117313907Y-110873364D01*
X117131839Y-110797950D01*
X117131829Y-110797947D01*
X116938543Y-110759500D01*
X116938541Y-110759500D01*
X116741459Y-110759500D01*
X116741457Y-110759500D01*
X116548170Y-110797947D01*
X116548160Y-110797950D01*
X116366092Y-110873364D01*
X116366079Y-110873371D01*
X116202218Y-110982860D01*
X116202214Y-110982863D01*
X116062863Y-111122214D01*
X116062860Y-111122218D01*
X115953371Y-111286079D01*
X115953364Y-111286092D01*
X115877950Y-111468160D01*
X115877947Y-111468170D01*
X115839500Y-111661456D01*
X115839500Y-111661459D01*
X115839500Y-111858541D01*
X115839500Y-111858543D01*
X115839499Y-111858543D01*
X115300500Y-111858543D01*
X115300500Y-111858541D01*
X115300500Y-111661459D01*
X115300500Y-111661456D01*
X115262052Y-111468170D01*
X115262051Y-111468169D01*
X115262051Y-111468165D01*
X115262049Y-111468160D01*
X115186635Y-111286092D01*
X115186628Y-111286079D01*
X115077139Y-111122218D01*
X115077136Y-111122214D01*
X114937785Y-110982863D01*
X114937781Y-110982860D01*
X114773920Y-110873371D01*
X114773907Y-110873364D01*
X114591839Y-110797950D01*
X114591829Y-110797947D01*
X114398543Y-110759500D01*
X114398541Y-110759500D01*
X114201459Y-110759500D01*
X114201457Y-110759500D01*
X114008170Y-110797947D01*
X114008160Y-110797950D01*
X113826092Y-110873364D01*
X113826079Y-110873371D01*
X113662218Y-110982860D01*
X113662214Y-110982863D01*
X113522863Y-111122214D01*
X113522860Y-111122218D01*
X113413371Y-111286079D01*
X113413364Y-111286092D01*
X113337950Y-111468160D01*
X113337947Y-111468170D01*
X113299500Y-111661456D01*
X113299500Y-111661459D01*
X113299500Y-111858541D01*
X113299500Y-111858543D01*
X113299499Y-111858543D01*
X112760500Y-111858543D01*
X112760500Y-111858541D01*
X112760500Y-111661459D01*
X112760500Y-111661456D01*
X112722052Y-111468170D01*
X112722051Y-111468169D01*
X112722051Y-111468165D01*
X112722049Y-111468160D01*
X112646635Y-111286092D01*
X112646628Y-111286079D01*
X112537139Y-111122218D01*
X112537136Y-111122214D01*
X112397785Y-110982863D01*
X112397781Y-110982860D01*
X112233920Y-110873371D01*
X112233907Y-110873364D01*
X112051839Y-110797950D01*
X112051829Y-110797947D01*
X111858543Y-110759500D01*
X111858541Y-110759500D01*
X111661459Y-110759500D01*
X111661457Y-110759500D01*
X111468170Y-110797947D01*
X111468160Y-110797950D01*
X111286092Y-110873364D01*
X111286079Y-110873371D01*
X111122218Y-110982860D01*
X111122214Y-110982863D01*
X110982863Y-111122214D01*
X110982860Y-111122218D01*
X110873371Y-111286079D01*
X110873364Y-111286092D01*
X110797950Y-111468160D01*
X110797947Y-111468170D01*
X110759500Y-111661456D01*
X110759500Y-111661459D01*
X110759500Y-111858541D01*
X110759500Y-111858543D01*
X110759499Y-111858543D01*
X110220500Y-111858543D01*
X110220500Y-111858541D01*
X110220500Y-111661459D01*
X110220500Y-111661456D01*
X110182052Y-111468170D01*
X110182051Y-111468169D01*
X110182051Y-111468165D01*
X110182049Y-111468160D01*
X110106635Y-111286092D01*
X110106628Y-111286079D01*
X109997139Y-111122218D01*
X109997136Y-111122214D01*
X109857785Y-110982863D01*
X109857781Y-110982860D01*
X109693920Y-110873371D01*
X109693907Y-110873364D01*
X109511839Y-110797950D01*
X109511829Y-110797947D01*
X109318543Y-110759500D01*
X109318541Y-110759500D01*
X109121459Y-110759500D01*
X109121457Y-110759500D01*
X108928170Y-110797947D01*
X108928160Y-110797950D01*
X108746092Y-110873364D01*
X108746079Y-110873371D01*
X108582218Y-110982860D01*
X108582214Y-110982863D01*
X108442863Y-111122214D01*
X108442860Y-111122218D01*
X108333371Y-111286079D01*
X108333364Y-111286092D01*
X108257950Y-111468160D01*
X108257947Y-111468170D01*
X108219500Y-111661456D01*
X108219500Y-111661459D01*
X108219500Y-111858541D01*
X108219500Y-111858543D01*
X108219499Y-111858543D01*
X107680500Y-111858543D01*
X107680500Y-111858541D01*
X107680500Y-111661459D01*
X107680500Y-111661456D01*
X107642052Y-111468170D01*
X107642051Y-111468169D01*
X107642051Y-111468165D01*
X107642049Y-111468160D01*
X107566635Y-111286092D01*
X107566628Y-111286079D01*
X107457139Y-111122218D01*
X107457136Y-111122214D01*
X107317785Y-110982863D01*
X107317781Y-110982860D01*
X107153920Y-110873371D01*
X107153907Y-110873364D01*
X106971839Y-110797950D01*
X106971829Y-110797947D01*
X106778543Y-110759500D01*
X106778541Y-110759500D01*
X106581459Y-110759500D01*
X106581457Y-110759500D01*
X106388170Y-110797947D01*
X106388160Y-110797950D01*
X106206092Y-110873364D01*
X106206079Y-110873371D01*
X106042218Y-110982860D01*
X106042214Y-110982863D01*
X105902863Y-111122214D01*
X105902860Y-111122218D01*
X105793371Y-111286079D01*
X105793364Y-111286092D01*
X105717950Y-111468160D01*
X105717947Y-111468170D01*
X105679500Y-111661456D01*
X105679500Y-111661459D01*
X105679500Y-111858541D01*
X105679500Y-111858543D01*
X105679499Y-111858543D01*
X105140500Y-111858543D01*
X105140500Y-111858541D01*
X105140500Y-111661459D01*
X105140500Y-111661456D01*
X105102052Y-111468170D01*
X105102051Y-111468169D01*
X105102051Y-111468165D01*
X105102049Y-111468160D01*
X105026635Y-111286092D01*
X105026628Y-111286079D01*
X104917139Y-111122218D01*
X104917136Y-111122214D01*
X104777785Y-110982863D01*
X104777781Y-110982860D01*
X104613920Y-110873371D01*
X104613907Y-110873364D01*
X104431839Y-110797950D01*
X104431829Y-110797947D01*
X104238543Y-110759500D01*
X104238541Y-110759500D01*
X104041459Y-110759500D01*
X104041457Y-110759500D01*
X103848170Y-110797947D01*
X103848160Y-110797950D01*
X103666092Y-110873364D01*
X103666079Y-110873371D01*
X103502218Y-110982860D01*
X103502214Y-110982863D01*
X103362863Y-111122214D01*
X103362860Y-111122218D01*
X103253371Y-111286079D01*
X103253364Y-111286092D01*
X103177950Y-111468160D01*
X103177947Y-111468170D01*
X103139500Y-111661456D01*
X103139500Y-111661459D01*
X103139500Y-111858541D01*
X103139500Y-111858543D01*
X103139499Y-111858543D01*
X102600500Y-111858543D01*
X102600500Y-111858541D01*
X102600500Y-111661459D01*
X102600500Y-111661456D01*
X102562052Y-111468170D01*
X102562051Y-111468169D01*
X102562051Y-111468165D01*
X102562049Y-111468160D01*
X102486635Y-111286092D01*
X102486628Y-111286079D01*
X102377139Y-111122218D01*
X102377136Y-111122214D01*
X102237785Y-110982863D01*
X102237781Y-110982860D01*
X102073920Y-110873371D01*
X102073907Y-110873364D01*
X101891839Y-110797950D01*
X101891829Y-110797947D01*
X101698543Y-110759500D01*
X101698541Y-110759500D01*
X101501459Y-110759500D01*
X101501457Y-110759500D01*
X101308170Y-110797947D01*
X101308160Y-110797950D01*
X101126092Y-110873364D01*
X101126079Y-110873371D01*
X100962218Y-110982860D01*
X100962214Y-110982863D01*
X100822863Y-111122214D01*
X100822860Y-111122218D01*
X100713371Y-111286079D01*
X100713364Y-111286092D01*
X100637950Y-111468160D01*
X100637947Y-111468170D01*
X100599500Y-111661456D01*
X100599500Y-111661459D01*
X100599500Y-111858541D01*
X100599500Y-111858543D01*
X100599499Y-111858543D01*
X100060500Y-111858543D01*
X100060500Y-111858541D01*
X100060500Y-111661459D01*
X100060500Y-111661456D01*
X100022052Y-111468170D01*
X100022051Y-111468169D01*
X100022051Y-111468165D01*
X100022049Y-111468160D01*
X99946635Y-111286092D01*
X99946628Y-111286079D01*
X99837139Y-111122218D01*
X99837136Y-111122214D01*
X99697785Y-110982863D01*
X99697781Y-110982860D01*
X99533920Y-110873371D01*
X99533907Y-110873364D01*
X99351839Y-110797950D01*
X99351829Y-110797947D01*
X99158543Y-110759500D01*
X99158541Y-110759500D01*
X98961459Y-110759500D01*
X98961457Y-110759500D01*
X98768170Y-110797947D01*
X98768160Y-110797950D01*
X98586092Y-110873364D01*
X98586079Y-110873371D01*
X98422218Y-110982860D01*
X98422214Y-110982863D01*
X98282863Y-111122214D01*
X98282860Y-111122218D01*
X98173371Y-111286079D01*
X98173364Y-111286092D01*
X98097950Y-111468160D01*
X98097947Y-111468170D01*
X98059500Y-111661456D01*
X98059500Y-111661459D01*
X98059500Y-111858541D01*
X98059500Y-111858543D01*
X98059499Y-111858543D01*
X97520500Y-111858543D01*
X97520500Y-111858541D01*
X97520500Y-111661459D01*
X97520500Y-111661456D01*
X97482052Y-111468170D01*
X97482051Y-111468169D01*
X97482051Y-111468165D01*
X97482049Y-111468160D01*
X97406635Y-111286092D01*
X97406628Y-111286079D01*
X97297139Y-111122218D01*
X97297136Y-111122214D01*
X97157785Y-110982863D01*
X97157781Y-110982860D01*
X96993920Y-110873371D01*
X96993907Y-110873364D01*
X96811839Y-110797950D01*
X96811829Y-110797947D01*
X96618543Y-110759500D01*
X96618541Y-110759500D01*
X96421459Y-110759500D01*
X96421457Y-110759500D01*
X96228170Y-110797947D01*
X96228160Y-110797950D01*
X96046092Y-110873364D01*
X96046079Y-110873371D01*
X95882218Y-110982860D01*
X95882214Y-110982863D01*
X95742863Y-111122214D01*
X95742860Y-111122218D01*
X95633371Y-111286079D01*
X95633364Y-111286092D01*
X95557950Y-111468160D01*
X95557947Y-111468170D01*
X95519500Y-111661456D01*
X95519500Y-111661459D01*
X95519500Y-111858541D01*
X95519500Y-111858543D01*
X95519499Y-111858543D01*
X94980500Y-111858543D01*
X94980500Y-111858541D01*
X94980500Y-111661459D01*
X94980500Y-111661456D01*
X94942052Y-111468170D01*
X94942051Y-111468169D01*
X94942051Y-111468165D01*
X94942049Y-111468160D01*
X94866635Y-111286092D01*
X94866628Y-111286079D01*
X94757139Y-111122218D01*
X94757136Y-111122214D01*
X94617785Y-110982863D01*
X94617781Y-110982860D01*
X94453920Y-110873371D01*
X94453907Y-110873364D01*
X94271839Y-110797950D01*
X94271829Y-110797947D01*
X94078543Y-110759500D01*
X94078541Y-110759500D01*
X93881459Y-110759500D01*
X93881457Y-110759500D01*
X93688170Y-110797947D01*
X93688160Y-110797950D01*
X93506092Y-110873364D01*
X93506079Y-110873371D01*
X93342218Y-110982860D01*
X93342214Y-110982863D01*
X93202863Y-111122214D01*
X93202860Y-111122218D01*
X93093371Y-111286079D01*
X93093364Y-111286092D01*
X93017950Y-111468160D01*
X93017947Y-111468170D01*
X92979500Y-111661456D01*
X92979500Y-111661459D01*
X92979500Y-111858541D01*
X92979500Y-111858543D01*
X92979499Y-111858543D01*
X92440500Y-111858543D01*
X92440500Y-111858541D01*
X92440500Y-111661459D01*
X92440500Y-111661456D01*
X92402052Y-111468170D01*
X92402051Y-111468169D01*
X92402051Y-111468165D01*
X92402049Y-111468160D01*
X92326635Y-111286092D01*
X92326628Y-111286079D01*
X92217139Y-111122218D01*
X92217136Y-111122214D01*
X92077785Y-110982863D01*
X92077781Y-110982860D01*
X91913920Y-110873371D01*
X91913907Y-110873364D01*
X91731839Y-110797950D01*
X91731829Y-110797947D01*
X91538543Y-110759500D01*
X91538541Y-110759500D01*
X91341459Y-110759500D01*
X91341457Y-110759500D01*
X91148170Y-110797947D01*
X91148160Y-110797950D01*
X90966092Y-110873364D01*
X90966079Y-110873371D01*
X90802218Y-110982860D01*
X90802214Y-110982863D01*
X90662863Y-111122214D01*
X90662860Y-111122218D01*
X90553371Y-111286079D01*
X90553364Y-111286092D01*
X90477950Y-111468160D01*
X90477947Y-111468170D01*
X90439500Y-111661456D01*
X90439500Y-111661459D01*
X90439500Y-111858541D01*
X90439500Y-111858543D01*
X90439499Y-111858543D01*
X87360500Y-111858543D01*
X87360500Y-111858541D01*
X87360500Y-111661459D01*
X87360500Y-111661456D01*
X87322052Y-111468170D01*
X87322051Y-111468169D01*
X87322051Y-111468165D01*
X87322049Y-111468160D01*
X87246635Y-111286092D01*
X87246628Y-111286079D01*
X87137139Y-111122218D01*
X87137136Y-111122214D01*
X86997785Y-110982863D01*
X86997781Y-110982860D01*
X86833920Y-110873371D01*
X86833907Y-110873364D01*
X86651839Y-110797950D01*
X86651829Y-110797947D01*
X86458543Y-110759500D01*
X86458541Y-110759500D01*
X86261459Y-110759500D01*
X86261457Y-110759500D01*
X86068170Y-110797947D01*
X86068160Y-110797950D01*
X85886092Y-110873364D01*
X85886079Y-110873371D01*
X85722218Y-110982860D01*
X85722214Y-110982863D01*
X85582863Y-111122214D01*
X85582860Y-111122218D01*
X85473371Y-111286079D01*
X85473364Y-111286092D01*
X85397950Y-111468160D01*
X85397947Y-111468170D01*
X85359500Y-111661456D01*
X85359500Y-111661459D01*
X85359500Y-111858541D01*
X85359500Y-111858543D01*
X85359499Y-111858543D01*
X84820500Y-111858543D01*
X84820500Y-111858541D01*
X84820500Y-111661459D01*
X84820500Y-111661456D01*
X84782052Y-111468170D01*
X84782051Y-111468169D01*
X84782051Y-111468165D01*
X84782049Y-111468160D01*
X84706635Y-111286092D01*
X84706628Y-111286079D01*
X84597139Y-111122218D01*
X84597136Y-111122214D01*
X84457785Y-110982863D01*
X84457781Y-110982860D01*
X84293920Y-110873371D01*
X84293907Y-110873364D01*
X84111839Y-110797950D01*
X84111829Y-110797947D01*
X83918543Y-110759500D01*
X83918541Y-110759500D01*
X83721459Y-110759500D01*
X83721457Y-110759500D01*
X83528170Y-110797947D01*
X83528160Y-110797950D01*
X83346092Y-110873364D01*
X83346079Y-110873371D01*
X83182218Y-110982860D01*
X83182214Y-110982863D01*
X83042863Y-111122214D01*
X83042860Y-111122218D01*
X82933371Y-111286079D01*
X82933364Y-111286092D01*
X82857950Y-111468160D01*
X82857947Y-111468170D01*
X82819500Y-111661456D01*
X82819500Y-111661459D01*
X82819500Y-111858541D01*
X82819500Y-111858543D01*
X82819499Y-111858543D01*
X82280500Y-111858543D01*
X82280500Y-110940249D01*
X82280499Y-110940247D01*
X82268868Y-110881770D01*
X82268867Y-110881769D01*
X82224552Y-110815447D01*
X82158230Y-110771132D01*
X82158229Y-110771131D01*
X82099752Y-110759500D01*
X82099748Y-110759500D01*
X80460252Y-110759500D01*
X80460247Y-110759500D01*
X80401770Y-110771131D01*
X80401769Y-110771132D01*
X80335447Y-110815447D01*
X80291132Y-110881769D01*
X80291131Y-110881770D01*
X80279500Y-110940247D01*
X65300500Y-110940247D01*
X65300500Y-104940691D01*
X67298500Y-104940691D01*
X67298500Y-105059309D01*
X67329201Y-105173886D01*
X67388511Y-105276613D01*
X67472387Y-105360489D01*
X67575114Y-105419799D01*
X67689691Y-105450500D01*
X67689694Y-105450500D01*
X67808306Y-105450500D01*
X67808309Y-105450500D01*
X67922886Y-105419799D01*
X67927537Y-105417114D01*
X67989538Y-105400500D01*
X69222745Y-105400500D01*
X69289784Y-105420185D01*
X69310426Y-105436819D01*
X70091502Y-106217894D01*
X70124987Y-106279217D01*
X70120003Y-106348908D01*
X70118384Y-106353022D01*
X70109871Y-106373575D01*
X70109867Y-106373587D01*
X70069500Y-106576530D01*
X70069500Y-106783469D01*
X70109868Y-106986412D01*
X70109870Y-106986420D01*
X70178865Y-107152989D01*
X70189059Y-107177598D01*
X70246541Y-107263626D01*
X70304024Y-107349657D01*
X70450342Y-107495975D01*
X70450345Y-107495977D01*
X70622402Y-107610941D01*
X70813580Y-107690130D01*
X71002328Y-107727674D01*
X71016530Y-107730499D01*
X71016534Y-107730500D01*
X71016535Y-107730500D01*
X71223466Y-107730500D01*
X71223467Y-107730499D01*
X71426420Y-107690130D01*
X71617598Y-107610941D01*
X71789655Y-107495977D01*
X71883850Y-107401781D01*
X71945171Y-107368298D01*
X72014863Y-107373282D01*
X72070797Y-107415153D01*
X72078915Y-107427460D01*
X72085543Y-107438940D01*
X72088520Y-107444095D01*
X72088522Y-107444097D01*
X73686823Y-109042398D01*
X73718917Y-109097985D01*
X73744426Y-109193186D01*
X73810318Y-109307314D01*
X73903504Y-109400500D01*
X74017632Y-109466392D01*
X74144926Y-109500500D01*
X74144928Y-109500500D01*
X74276708Y-109500500D01*
X74276710Y-109500500D01*
X74404004Y-109466392D01*
X74518132Y-109400500D01*
X74611318Y-109307314D01*
X74677210Y-109193186D01*
X74711318Y-109065892D01*
X74711318Y-108934108D01*
X74677210Y-108806814D01*
X74611318Y-108692686D01*
X74518132Y-108599500D01*
X74404004Y-108533608D01*
X74308803Y-108508099D01*
X74253216Y-108476005D01*
X73714183Y-107936972D01*
X73680698Y-107875649D01*
X73685682Y-107805957D01*
X73727554Y-107750024D01*
X73777673Y-107727674D01*
X73824417Y-107718376D01*
X73966420Y-107690130D01*
X74157598Y-107610941D01*
X74329655Y-107495977D01*
X74475977Y-107349655D01*
X74590941Y-107177598D01*
X74599454Y-107157045D01*
X74643296Y-107102643D01*
X74709590Y-107080579D01*
X74714015Y-107080500D01*
X94553745Y-107080500D01*
X94620784Y-107100185D01*
X94666539Y-107152989D01*
X94676483Y-107222147D01*
X94647458Y-107285703D01*
X94641426Y-107292181D01*
X93457600Y-108476005D01*
X93402014Y-108508098D01*
X93306815Y-108533607D01*
X93306814Y-108533607D01*
X93192686Y-108599500D01*
X93192683Y-108599502D01*
X93099502Y-108692683D01*
X93099500Y-108692686D01*
X93033608Y-108806812D01*
X93007163Y-108905510D01*
X92999500Y-108934108D01*
X92999500Y-109065892D01*
X93009390Y-109102801D01*
X93033608Y-109193187D01*
X93066554Y-109250250D01*
X93099500Y-109307314D01*
X93192686Y-109400500D01*
X93306814Y-109466392D01*
X93434108Y-109500500D01*
X93434110Y-109500500D01*
X93565890Y-109500500D01*
X93565892Y-109500500D01*
X93693186Y-109466392D01*
X93807314Y-109400500D01*
X93900500Y-109307314D01*
X93966392Y-109193186D01*
X93980879Y-109139120D01*
X93991900Y-109097986D01*
X94023992Y-109042399D01*
X95240954Y-107825439D01*
X95302277Y-107791954D01*
X95328635Y-107789120D01*
X96399510Y-107789120D01*
X96466549Y-107808805D01*
X96512304Y-107861609D01*
X96522248Y-107930767D01*
X96519287Y-107945202D01*
X96509880Y-107980311D01*
X96509880Y-108098929D01*
X96540581Y-108213506D01*
X96599891Y-108316233D01*
X96683767Y-108400109D01*
X96751339Y-108439122D01*
X96786494Y-108459419D01*
X96791678Y-108460808D01*
X96847270Y-108492903D01*
X98139899Y-109785532D01*
X98139900Y-109785533D01*
X98214467Y-109860100D01*
X98305793Y-109912827D01*
X98407653Y-109940120D01*
X98407655Y-109940120D01*
X119433759Y-109940120D01*
X119433761Y-109940120D01*
X119535622Y-109912827D01*
X119626947Y-109860100D01*
X122910517Y-106576530D01*
X125949500Y-106576530D01*
X125949500Y-106783469D01*
X125989868Y-106986412D01*
X125989870Y-106986420D01*
X126058865Y-107152989D01*
X126069059Y-107177598D01*
X126126541Y-107263626D01*
X126184024Y-107349657D01*
X126330342Y-107495975D01*
X126330345Y-107495977D01*
X126502402Y-107610941D01*
X126693580Y-107690130D01*
X126882328Y-107727674D01*
X126896530Y-107730499D01*
X126896534Y-107730500D01*
X126896535Y-107730500D01*
X127103466Y-107730500D01*
X127103467Y-107730499D01*
X127306420Y-107690130D01*
X127497598Y-107610941D01*
X127669655Y-107495977D01*
X127815977Y-107349655D01*
X127930941Y-107177598D01*
X128010130Y-106986420D01*
X128050500Y-106783465D01*
X128050500Y-106576535D01*
X128050499Y-106576530D01*
X128489500Y-106576530D01*
X128489500Y-106783469D01*
X128529868Y-106986412D01*
X128529870Y-106986420D01*
X128598865Y-107152989D01*
X128609059Y-107177598D01*
X128666541Y-107263626D01*
X128724024Y-107349657D01*
X128870342Y-107495975D01*
X128870345Y-107495977D01*
X129042402Y-107610941D01*
X129233580Y-107690130D01*
X129422328Y-107727674D01*
X129436530Y-107730499D01*
X129436534Y-107730500D01*
X129436535Y-107730500D01*
X129643466Y-107730500D01*
X129643467Y-107730499D01*
X129846420Y-107690130D01*
X130037598Y-107610941D01*
X130209655Y-107495977D01*
X130355977Y-107349655D01*
X130470941Y-107177598D01*
X130550130Y-106986420D01*
X130590500Y-106783465D01*
X130590500Y-106576535D01*
X130550130Y-106373580D01*
X130550128Y-106373575D01*
X130541617Y-106353027D01*
X130534148Y-106283558D01*
X130565423Y-106221079D01*
X130568469Y-106217922D01*
X131349573Y-105436819D01*
X131410896Y-105403334D01*
X131437254Y-105400500D01*
X132759462Y-105400500D01*
X132821463Y-105417114D01*
X132826109Y-105419796D01*
X132826110Y-105419797D01*
X132826114Y-105419799D01*
X132940691Y-105450500D01*
X132940694Y-105450500D01*
X133059306Y-105450500D01*
X133059309Y-105450500D01*
X133173886Y-105419799D01*
X133276613Y-105360489D01*
X133360489Y-105276613D01*
X133419799Y-105173886D01*
X133450500Y-105059309D01*
X133450500Y-104940691D01*
X133419799Y-104826114D01*
X133360489Y-104723387D01*
X133276613Y-104639511D01*
X133173886Y-104580201D01*
X133059309Y-104549500D01*
X132940691Y-104549500D01*
X132871944Y-104567920D01*
X132826112Y-104580201D01*
X132826109Y-104580203D01*
X132821463Y-104582886D01*
X132759462Y-104599500D01*
X131167273Y-104599500D01*
X131065412Y-104626793D01*
X131065409Y-104626794D01*
X131019750Y-104653155D01*
X131019750Y-104653156D01*
X130974087Y-104679520D01*
X130974084Y-104679522D01*
X130899518Y-104754089D01*
X130002103Y-105651502D01*
X129940780Y-105684987D01*
X129871088Y-105680003D01*
X129866983Y-105678387D01*
X129846420Y-105669870D01*
X129846412Y-105669868D01*
X129643469Y-105629500D01*
X129643465Y-105629500D01*
X129436535Y-105629500D01*
X129436530Y-105629500D01*
X129233587Y-105669868D01*
X129233579Y-105669870D01*
X129042403Y-105749058D01*
X128870342Y-105864024D01*
X128724024Y-106010342D01*
X128609058Y-106182403D01*
X128529870Y-106373579D01*
X128529868Y-106373587D01*
X128489500Y-106576530D01*
X128050499Y-106576530D01*
X128010130Y-106373580D01*
X127930941Y-106182402D01*
X127815977Y-106010345D01*
X127815976Y-106010344D01*
X127815975Y-106010342D01*
X127669657Y-105864024D01*
X127503303Y-105752871D01*
X127497598Y-105749059D01*
X127435613Y-105723384D01*
X127306420Y-105669870D01*
X127306412Y-105669868D01*
X127103469Y-105629500D01*
X127103465Y-105629500D01*
X126896535Y-105629500D01*
X126896530Y-105629500D01*
X126693587Y-105669868D01*
X126693579Y-105669870D01*
X126502403Y-105749058D01*
X126330342Y-105864024D01*
X126184024Y-106010342D01*
X126069058Y-106182403D01*
X125989870Y-106373579D01*
X125989868Y-106373587D01*
X125949500Y-106576530D01*
X122910517Y-106576530D01*
X125320480Y-104166567D01*
X125373207Y-104075242D01*
X125383580Y-104036530D01*
X125949500Y-104036530D01*
X125949500Y-104243469D01*
X125989868Y-104446412D01*
X125989870Y-104446420D01*
X126069059Y-104637598D01*
X126097070Y-104679520D01*
X126184024Y-104809657D01*
X126330342Y-104955975D01*
X126330345Y-104955977D01*
X126502402Y-105070941D01*
X126693580Y-105150130D01*
X126896530Y-105190499D01*
X126896534Y-105190500D01*
X126896535Y-105190500D01*
X127103466Y-105190500D01*
X127103467Y-105190499D01*
X127306420Y-105150130D01*
X127497598Y-105070941D01*
X127669655Y-104955977D01*
X127815977Y-104809655D01*
X127930941Y-104637598D01*
X128010130Y-104446420D01*
X128050500Y-104243465D01*
X128050500Y-104036535D01*
X128050499Y-104036530D01*
X128489500Y-104036530D01*
X128489500Y-104243469D01*
X128529868Y-104446412D01*
X128529870Y-104446420D01*
X128609059Y-104637598D01*
X128637070Y-104679520D01*
X128724024Y-104809657D01*
X128870342Y-104955975D01*
X128870345Y-104955977D01*
X129042402Y-105070941D01*
X129233580Y-105150130D01*
X129436530Y-105190499D01*
X129436534Y-105190500D01*
X129436535Y-105190500D01*
X129643466Y-105190500D01*
X129643467Y-105190499D01*
X129846420Y-105150130D01*
X130037598Y-105070941D01*
X130209655Y-104955977D01*
X130355977Y-104809655D01*
X130470941Y-104637598D01*
X130550130Y-104446420D01*
X130590500Y-104243465D01*
X130590500Y-104036535D01*
X130550130Y-103833580D01*
X130550128Y-103833575D01*
X130541617Y-103813027D01*
X130534148Y-103743558D01*
X130565423Y-103681079D01*
X130568468Y-103677923D01*
X131809574Y-102436819D01*
X131870897Y-102403334D01*
X131897255Y-102400500D01*
X132759462Y-102400500D01*
X132821463Y-102417114D01*
X132826109Y-102419796D01*
X132826110Y-102419797D01*
X132826114Y-102419799D01*
X132940691Y-102450500D01*
X132940694Y-102450500D01*
X133059306Y-102450500D01*
X133059309Y-102450500D01*
X133173886Y-102419799D01*
X133276613Y-102360489D01*
X133360489Y-102276613D01*
X133419799Y-102173886D01*
X133450500Y-102059309D01*
X133450500Y-101940691D01*
X133419799Y-101826114D01*
X133360489Y-101723387D01*
X133276613Y-101639511D01*
X133173886Y-101580201D01*
X133059309Y-101549500D01*
X132940691Y-101549500D01*
X132881964Y-101565236D01*
X132826112Y-101580201D01*
X132826109Y-101580203D01*
X132821463Y-101582886D01*
X132759462Y-101599500D01*
X131627273Y-101599500D01*
X131525410Y-101626793D01*
X131434087Y-101679520D01*
X131434084Y-101679522D01*
X130002103Y-103111502D01*
X129940780Y-103144987D01*
X129871088Y-103140003D01*
X129866983Y-103138387D01*
X129846420Y-103129870D01*
X129846412Y-103129868D01*
X129643469Y-103089500D01*
X129643465Y-103089500D01*
X129436535Y-103089500D01*
X129436530Y-103089500D01*
X129233587Y-103129868D01*
X129233579Y-103129870D01*
X129042403Y-103209058D01*
X128870342Y-103324024D01*
X128724024Y-103470342D01*
X128609058Y-103642403D01*
X128529870Y-103833579D01*
X128529868Y-103833587D01*
X128489500Y-104036530D01*
X128050499Y-104036530D01*
X128010130Y-103833580D01*
X127930941Y-103642402D01*
X127815977Y-103470345D01*
X127815976Y-103470344D01*
X127815975Y-103470342D01*
X127669657Y-103324024D01*
X127544708Y-103240537D01*
X127497598Y-103209059D01*
X127493380Y-103207312D01*
X127306420Y-103129870D01*
X127306412Y-103129868D01*
X127103469Y-103089500D01*
X127103465Y-103089500D01*
X126896535Y-103089500D01*
X126896530Y-103089500D01*
X126693587Y-103129868D01*
X126693579Y-103129870D01*
X126502403Y-103209058D01*
X126330342Y-103324024D01*
X126184024Y-103470342D01*
X126069058Y-103642403D01*
X125989870Y-103833579D01*
X125989868Y-103833587D01*
X125949500Y-104036530D01*
X125383580Y-104036530D01*
X125400500Y-103973381D01*
X125400500Y-103867927D01*
X125400500Y-103240537D01*
X125417113Y-103178537D01*
X125419799Y-103173886D01*
X125450500Y-103059309D01*
X125450500Y-102940691D01*
X125419799Y-102826114D01*
X125360489Y-102723387D01*
X125276613Y-102639511D01*
X125173886Y-102580201D01*
X125059309Y-102549500D01*
X124940691Y-102549500D01*
X124826114Y-102580201D01*
X124826112Y-102580201D01*
X124826112Y-102580202D01*
X124723387Y-102639511D01*
X124723384Y-102639513D01*
X124639513Y-102723384D01*
X124639511Y-102723387D01*
X124631886Y-102736594D01*
X124581317Y-102784808D01*
X124512710Y-102798029D01*
X124447846Y-102772060D01*
X124407319Y-102715144D01*
X124400500Y-102674591D01*
X124400500Y-102240537D01*
X124417113Y-102178537D01*
X124419799Y-102173886D01*
X124450500Y-102059309D01*
X124450500Y-101940691D01*
X124419799Y-101826114D01*
X124360489Y-101723387D01*
X124276613Y-101639511D01*
X124204419Y-101597829D01*
X124204418Y-101597828D01*
X124173889Y-101580202D01*
X124173890Y-101580202D01*
X124164494Y-101577684D01*
X124059309Y-101549500D01*
X123940691Y-101549500D01*
X123826114Y-101580201D01*
X123826112Y-101580201D01*
X123826112Y-101580202D01*
X123723387Y-101639511D01*
X123723384Y-101639513D01*
X123639513Y-101723384D01*
X123639511Y-101723387D01*
X123580201Y-101826114D01*
X123549500Y-101940691D01*
X123549500Y-102059309D01*
X123580201Y-102173886D01*
X123582886Y-102178537D01*
X123599500Y-102240537D01*
X123599500Y-103782744D01*
X123579815Y-103849783D01*
X123563181Y-103870425D01*
X121886888Y-105546717D01*
X121831305Y-105578810D01*
X121826115Y-105580200D01*
X121826114Y-105580201D01*
X121723390Y-105639509D01*
X121723384Y-105639513D01*
X121639513Y-105723384D01*
X121639511Y-105723387D01*
X121604802Y-105783505D01*
X121580201Y-105826114D01*
X121549500Y-105940691D01*
X121549500Y-106059309D01*
X121580201Y-106173886D01*
X121639511Y-106276613D01*
X121723387Y-106360489D01*
X121754855Y-106378657D01*
X121803069Y-106429222D01*
X121816293Y-106497829D01*
X121790325Y-106562694D01*
X121780535Y-106573724D01*
X119251460Y-109102801D01*
X119190137Y-109136286D01*
X119163779Y-109139120D01*
X103099505Y-109139120D01*
X103032466Y-109119435D01*
X102986711Y-109066631D01*
X102976767Y-108997473D01*
X102979730Y-108983027D01*
X102979731Y-108983025D01*
X103000500Y-108905512D01*
X103000500Y-108773728D01*
X102966392Y-108646434D01*
X102900500Y-108532306D01*
X102807314Y-108439120D01*
X102693186Y-108373228D01*
X102597985Y-108347719D01*
X102542398Y-108315625D01*
X101294915Y-107068142D01*
X101294913Y-107068140D01*
X101249250Y-107041776D01*
X101203589Y-107015413D01*
X101147856Y-107000480D01*
X101101727Y-106988120D01*
X95241164Y-106988120D01*
X95174125Y-106968435D01*
X95128370Y-106915631D01*
X95118426Y-106846473D01*
X95147451Y-106782917D01*
X95153483Y-106776439D01*
X100433392Y-101496530D01*
X125949500Y-101496530D01*
X125949500Y-101703469D01*
X125989868Y-101906412D01*
X125989870Y-101906420D01*
X126069058Y-102097596D01*
X126184024Y-102269657D01*
X126330342Y-102415975D01*
X126330345Y-102415977D01*
X126502402Y-102530941D01*
X126693580Y-102610130D01*
X126896530Y-102650499D01*
X126896534Y-102650500D01*
X126896535Y-102650500D01*
X127103466Y-102650500D01*
X127103467Y-102650499D01*
X127306420Y-102610130D01*
X127497598Y-102530941D01*
X127669655Y-102415977D01*
X127815977Y-102269655D01*
X127930941Y-102097598D01*
X128010130Y-101906420D01*
X128050500Y-101703465D01*
X128050500Y-101496535D01*
X128050499Y-101496530D01*
X128489500Y-101496530D01*
X128489500Y-101703469D01*
X128529868Y-101906412D01*
X128529870Y-101906420D01*
X128609058Y-102097596D01*
X128724024Y-102269657D01*
X128870342Y-102415975D01*
X128870345Y-102415977D01*
X129042402Y-102530941D01*
X129233580Y-102610130D01*
X129436530Y-102650499D01*
X129436534Y-102650500D01*
X129436535Y-102650500D01*
X129643466Y-102650500D01*
X129643467Y-102650499D01*
X129846420Y-102610130D01*
X130037598Y-102530941D01*
X130209655Y-102415977D01*
X130355977Y-102269655D01*
X130470941Y-102097598D01*
X130550130Y-101906420D01*
X130590500Y-101703465D01*
X130590500Y-101496535D01*
X130550130Y-101293580D01*
X130541617Y-101273027D01*
X130534148Y-101203558D01*
X130565423Y-101141079D01*
X130568469Y-101137922D01*
X131269573Y-100436819D01*
X131330896Y-100403334D01*
X131357254Y-100400500D01*
X131801462Y-100400500D01*
X131863463Y-100417114D01*
X131868109Y-100419796D01*
X131868110Y-100419797D01*
X131868114Y-100419799D01*
X131982691Y-100450500D01*
X131982694Y-100450500D01*
X132101306Y-100450500D01*
X132101309Y-100450500D01*
X132215886Y-100419799D01*
X132318613Y-100360489D01*
X132402489Y-100276613D01*
X132461799Y-100173886D01*
X132492500Y-100059309D01*
X132492500Y-99940691D01*
X132461799Y-99826114D01*
X132402489Y-99723387D01*
X132318613Y-99639511D01*
X132215886Y-99580201D01*
X132101309Y-99549500D01*
X131982691Y-99549500D01*
X131913944Y-99567920D01*
X131868112Y-99580201D01*
X131868109Y-99580203D01*
X131863463Y-99582886D01*
X131801462Y-99599500D01*
X131192731Y-99599500D01*
X131192727Y-99599499D01*
X131087273Y-99599499D01*
X130986085Y-99626613D01*
X130985413Y-99626793D01*
X130983090Y-99628133D01*
X130983090Y-99628134D01*
X130894085Y-99679521D01*
X130819518Y-99754089D01*
X130002103Y-100571502D01*
X129940780Y-100604987D01*
X129871088Y-100600003D01*
X129866983Y-100598387D01*
X129846420Y-100589870D01*
X129846412Y-100589868D01*
X129643469Y-100549500D01*
X129643465Y-100549500D01*
X129436535Y-100549500D01*
X129436530Y-100549500D01*
X129233587Y-100589868D01*
X129233579Y-100589870D01*
X129042403Y-100669058D01*
X128870342Y-100784024D01*
X128724024Y-100930342D01*
X128609058Y-101102403D01*
X128529870Y-101293579D01*
X128529868Y-101293587D01*
X128489500Y-101496530D01*
X128050499Y-101496530D01*
X128010130Y-101293580D01*
X127930941Y-101102402D01*
X127815977Y-100930345D01*
X127815975Y-100930342D01*
X127669657Y-100784024D01*
X127557832Y-100709306D01*
X127497598Y-100669059D01*
X127426263Y-100639511D01*
X127306420Y-100589870D01*
X127306412Y-100589868D01*
X127103469Y-100549500D01*
X127103465Y-100549500D01*
X126896535Y-100549500D01*
X126896530Y-100549500D01*
X126693587Y-100589868D01*
X126693579Y-100589870D01*
X126502403Y-100669058D01*
X126330342Y-100784024D01*
X126184024Y-100930342D01*
X126069058Y-101102403D01*
X125989870Y-101293579D01*
X125989868Y-101293587D01*
X125949500Y-101496530D01*
X100433392Y-101496530D01*
X102387819Y-99542103D01*
X102449142Y-99508618D01*
X102518834Y-99513602D01*
X102574767Y-99555474D01*
X102599184Y-99620938D01*
X102599500Y-99629784D01*
X102599500Y-100052726D01*
X102626793Y-100154589D01*
X102637935Y-100173887D01*
X102679520Y-100245913D01*
X102679521Y-100245914D01*
X102679522Y-100245915D01*
X103546716Y-101113108D01*
X103578808Y-101168690D01*
X103580199Y-101173883D01*
X103580200Y-101173885D01*
X103593247Y-101196482D01*
X103639511Y-101276613D01*
X103723387Y-101360489D01*
X103826114Y-101419799D01*
X103940691Y-101450500D01*
X103940694Y-101450500D01*
X104059306Y-101450500D01*
X104059309Y-101450500D01*
X104173886Y-101419799D01*
X104276613Y-101360489D01*
X104360489Y-101276613D01*
X104419799Y-101173886D01*
X104450500Y-101059309D01*
X104450500Y-100940691D01*
X104419799Y-100826114D01*
X104360489Y-100723387D01*
X104276613Y-100639511D01*
X104190630Y-100589868D01*
X104173885Y-100580200D01*
X104173883Y-100580199D01*
X104168690Y-100578808D01*
X104113108Y-100546716D01*
X103436819Y-99870426D01*
X103422115Y-99843498D01*
X103405523Y-99817680D01*
X103404631Y-99811479D01*
X103403334Y-99809103D01*
X103400500Y-99782745D01*
X103400500Y-99590537D01*
X103417113Y-99528537D01*
X103419799Y-99523886D01*
X103450500Y-99409309D01*
X103450500Y-99290691D01*
X104549500Y-99290691D01*
X104549500Y-99409309D01*
X104580201Y-99523886D01*
X104639511Y-99626613D01*
X104723387Y-99710489D01*
X104826114Y-99769799D01*
X104940691Y-99800500D01*
X104940694Y-99800500D01*
X105059306Y-99800500D01*
X105059309Y-99800500D01*
X105173886Y-99769799D01*
X105178537Y-99767114D01*
X105240538Y-99750500D01*
X107759462Y-99750500D01*
X107821463Y-99767114D01*
X107826109Y-99769796D01*
X107826110Y-99769797D01*
X107826114Y-99769799D01*
X107940691Y-99800500D01*
X107940694Y-99800500D01*
X108059306Y-99800500D01*
X108059309Y-99800500D01*
X108173886Y-99769799D01*
X108276613Y-99710489D01*
X108360489Y-99626613D01*
X108419799Y-99523886D01*
X108450500Y-99409309D01*
X108450500Y-99290691D01*
X108419799Y-99176114D01*
X108360489Y-99073387D01*
X108276613Y-98989511D01*
X108219489Y-98956530D01*
X125949500Y-98956530D01*
X125949500Y-99163469D01*
X125989868Y-99366412D01*
X125989870Y-99366420D01*
X126068940Y-99557312D01*
X126069059Y-99557598D01*
X126084163Y-99580203D01*
X126184024Y-99729657D01*
X126330342Y-99875975D01*
X126330345Y-99875977D01*
X126502402Y-99990941D01*
X126693580Y-100070130D01*
X126896530Y-100110499D01*
X126896534Y-100110500D01*
X126896535Y-100110500D01*
X127103466Y-100110500D01*
X127103467Y-100110499D01*
X127306420Y-100070130D01*
X127497598Y-99990941D01*
X127669655Y-99875977D01*
X127815977Y-99729655D01*
X127930941Y-99557598D01*
X128010130Y-99366420D01*
X128050500Y-99163465D01*
X128050500Y-98956535D01*
X128050499Y-98956530D01*
X128489500Y-98956530D01*
X128489500Y-99163469D01*
X128529868Y-99366412D01*
X128529870Y-99366420D01*
X128608940Y-99557312D01*
X128609059Y-99557598D01*
X128624163Y-99580203D01*
X128724024Y-99729657D01*
X128870342Y-99875975D01*
X128870345Y-99875977D01*
X129042402Y-99990941D01*
X129233580Y-100070130D01*
X129436530Y-100110499D01*
X129436534Y-100110500D01*
X129436535Y-100110500D01*
X129643466Y-100110500D01*
X129643467Y-100110499D01*
X129846420Y-100070130D01*
X130037598Y-99990941D01*
X130209655Y-99875977D01*
X130355977Y-99729655D01*
X130470941Y-99557598D01*
X130550130Y-99366420D01*
X130590500Y-99163465D01*
X130590500Y-98956535D01*
X130550130Y-98753580D01*
X130470941Y-98562402D01*
X130355977Y-98390345D01*
X130355975Y-98390342D01*
X130209657Y-98244024D01*
X130117139Y-98182206D01*
X130037598Y-98129059D01*
X129953458Y-98094207D01*
X129846420Y-98049870D01*
X129846412Y-98049868D01*
X129643469Y-98009500D01*
X129643465Y-98009500D01*
X129436535Y-98009500D01*
X129436530Y-98009500D01*
X129233587Y-98049868D01*
X129233579Y-98049870D01*
X129042403Y-98129058D01*
X128870342Y-98244024D01*
X128724024Y-98390342D01*
X128609058Y-98562403D01*
X128529870Y-98753579D01*
X128529868Y-98753587D01*
X128489500Y-98956530D01*
X128050499Y-98956530D01*
X128010130Y-98753580D01*
X127930941Y-98562402D01*
X127815977Y-98390345D01*
X127815975Y-98390342D01*
X127669657Y-98244024D01*
X127577139Y-98182206D01*
X127497598Y-98129059D01*
X127413458Y-98094207D01*
X127306420Y-98049870D01*
X127306412Y-98049868D01*
X127103469Y-98009500D01*
X127103465Y-98009500D01*
X126896535Y-98009500D01*
X126896530Y-98009500D01*
X126693587Y-98049868D01*
X126693579Y-98049870D01*
X126502403Y-98129058D01*
X126330342Y-98244024D01*
X126184024Y-98390342D01*
X126069058Y-98562403D01*
X125989870Y-98753579D01*
X125989868Y-98753587D01*
X125949500Y-98956530D01*
X108219489Y-98956530D01*
X108173886Y-98930201D01*
X108059309Y-98899500D01*
X107940691Y-98899500D01*
X107871944Y-98917920D01*
X107826112Y-98930201D01*
X107826109Y-98930203D01*
X107821463Y-98932886D01*
X107759462Y-98949500D01*
X105240538Y-98949500D01*
X105178537Y-98932886D01*
X105173890Y-98930203D01*
X105173887Y-98930201D01*
X105145241Y-98922525D01*
X105059309Y-98899500D01*
X104940691Y-98899500D01*
X104826114Y-98930201D01*
X104826112Y-98930201D01*
X104826112Y-98930202D01*
X104723387Y-98989511D01*
X104723384Y-98989513D01*
X104639513Y-99073384D01*
X104639511Y-99073387D01*
X104580201Y-99176114D01*
X104549500Y-99290691D01*
X103450500Y-99290691D01*
X103419799Y-99176114D01*
X103360489Y-99073387D01*
X103276613Y-98989511D01*
X103276610Y-98989509D01*
X103276606Y-98989506D01*
X103203418Y-98947250D01*
X103155203Y-98896683D01*
X103141981Y-98828075D01*
X103167949Y-98763211D01*
X103177730Y-98752191D01*
X103772103Y-98157819D01*
X103833426Y-98124334D01*
X103859784Y-98121500D01*
X104690196Y-98121500D01*
X104690198Y-98121500D01*
X104792059Y-98094207D01*
X104883384Y-98041480D01*
X105661480Y-97263384D01*
X105707685Y-97183354D01*
X105758253Y-97135140D01*
X105826860Y-97121918D01*
X105891724Y-97147886D01*
X105902753Y-97157675D01*
X106042214Y-97297136D01*
X106042218Y-97297139D01*
X106206079Y-97406628D01*
X106206092Y-97406635D01*
X106383153Y-97479975D01*
X106388165Y-97482051D01*
X106388169Y-97482051D01*
X106388170Y-97482052D01*
X106581456Y-97520500D01*
X106581459Y-97520500D01*
X106778543Y-97520500D01*
X106908582Y-97494632D01*
X106971835Y-97482051D01*
X107153914Y-97406632D01*
X107317782Y-97297139D01*
X107457139Y-97157782D01*
X107566632Y-96993914D01*
X107642051Y-96811835D01*
X107679520Y-96623469D01*
X107680500Y-96618543D01*
X108219499Y-96618543D01*
X108257947Y-96811829D01*
X108257950Y-96811839D01*
X108333364Y-96993907D01*
X108333371Y-96993920D01*
X108442860Y-97157781D01*
X108442863Y-97157785D01*
X108582214Y-97297136D01*
X108582218Y-97297139D01*
X108746079Y-97406628D01*
X108746092Y-97406635D01*
X108923153Y-97479975D01*
X108928165Y-97482051D01*
X108928169Y-97482051D01*
X108928170Y-97482052D01*
X109121456Y-97520500D01*
X109121459Y-97520500D01*
X109318543Y-97520500D01*
X109448582Y-97494632D01*
X109511835Y-97482051D01*
X109693914Y-97406632D01*
X109857782Y-97297139D01*
X109997139Y-97157782D01*
X110106632Y-96993914D01*
X110182051Y-96811835D01*
X110219520Y-96623469D01*
X110220500Y-96618543D01*
X110759499Y-96618543D01*
X110797947Y-96811829D01*
X110797950Y-96811839D01*
X110873364Y-96993907D01*
X110873371Y-96993920D01*
X110982860Y-97157781D01*
X110982863Y-97157785D01*
X111122214Y-97297136D01*
X111122218Y-97297139D01*
X111286079Y-97406628D01*
X111286092Y-97406635D01*
X111463153Y-97479975D01*
X111468165Y-97482051D01*
X111468169Y-97482051D01*
X111468170Y-97482052D01*
X111661456Y-97520500D01*
X111661459Y-97520500D01*
X111858543Y-97520500D01*
X111988582Y-97494632D01*
X112051835Y-97482051D01*
X112233914Y-97406632D01*
X112397782Y-97297139D01*
X112537139Y-97157782D01*
X112646632Y-96993914D01*
X112722051Y-96811835D01*
X112759520Y-96623469D01*
X112760500Y-96618543D01*
X113299499Y-96618543D01*
X113337947Y-96811829D01*
X113337950Y-96811839D01*
X113413364Y-96993907D01*
X113413371Y-96993920D01*
X113522860Y-97157781D01*
X113522863Y-97157785D01*
X113662214Y-97297136D01*
X113662218Y-97297139D01*
X113826079Y-97406628D01*
X113826092Y-97406635D01*
X114003153Y-97479975D01*
X114008165Y-97482051D01*
X114008169Y-97482051D01*
X114008170Y-97482052D01*
X114201456Y-97520500D01*
X114201459Y-97520500D01*
X114398543Y-97520500D01*
X114528582Y-97494632D01*
X114591835Y-97482051D01*
X114773914Y-97406632D01*
X114937782Y-97297139D01*
X115077139Y-97157782D01*
X115186632Y-96993914D01*
X115262051Y-96811835D01*
X115299520Y-96623469D01*
X115300500Y-96618543D01*
X115839499Y-96618543D01*
X115877947Y-96811829D01*
X115877950Y-96811839D01*
X115953364Y-96993907D01*
X115953371Y-96993920D01*
X116062860Y-97157781D01*
X116062863Y-97157785D01*
X116202214Y-97297136D01*
X116202218Y-97297139D01*
X116366079Y-97406628D01*
X116366092Y-97406635D01*
X116543153Y-97479975D01*
X116548165Y-97482051D01*
X116548169Y-97482051D01*
X116548170Y-97482052D01*
X116741456Y-97520500D01*
X116741459Y-97520500D01*
X116938543Y-97520500D01*
X117068582Y-97494632D01*
X117131835Y-97482051D01*
X117313914Y-97406632D01*
X117477782Y-97297139D01*
X117617139Y-97157782D01*
X117726632Y-96993914D01*
X117802051Y-96811835D01*
X117839520Y-96623469D01*
X117840500Y-96618543D01*
X117840500Y-96421456D01*
X117802052Y-96228170D01*
X117802051Y-96228169D01*
X117802051Y-96228165D01*
X117755791Y-96116482D01*
X117726635Y-96046092D01*
X117726628Y-96046079D01*
X117617139Y-95882218D01*
X117617136Y-95882214D01*
X117477785Y-95742863D01*
X117477781Y-95742860D01*
X117313920Y-95633371D01*
X117313907Y-95633364D01*
X117131839Y-95557950D01*
X117131829Y-95557947D01*
X116938543Y-95519500D01*
X116938541Y-95519500D01*
X116741459Y-95519500D01*
X116741457Y-95519500D01*
X116548170Y-95557947D01*
X116548160Y-95557950D01*
X116366092Y-95633364D01*
X116366079Y-95633371D01*
X116202218Y-95742860D01*
X116202214Y-95742863D01*
X116062863Y-95882214D01*
X116062860Y-95882218D01*
X115953371Y-96046079D01*
X115953364Y-96046092D01*
X115877950Y-96228160D01*
X115877947Y-96228170D01*
X115839500Y-96421456D01*
X115839500Y-96421459D01*
X115839500Y-96618541D01*
X115839500Y-96618543D01*
X115839499Y-96618543D01*
X115300500Y-96618543D01*
X115300500Y-96421456D01*
X115262052Y-96228170D01*
X115262051Y-96228169D01*
X115262051Y-96228165D01*
X115215791Y-96116482D01*
X115186635Y-96046092D01*
X115186628Y-96046079D01*
X115077139Y-95882218D01*
X115077136Y-95882214D01*
X114937785Y-95742863D01*
X114937781Y-95742860D01*
X114773920Y-95633371D01*
X114773907Y-95633364D01*
X114591839Y-95557950D01*
X114591829Y-95557947D01*
X114398543Y-95519500D01*
X114398541Y-95519500D01*
X114201459Y-95519500D01*
X114201457Y-95519500D01*
X114008170Y-95557947D01*
X114008160Y-95557950D01*
X113826092Y-95633364D01*
X113826079Y-95633371D01*
X113662218Y-95742860D01*
X113662214Y-95742863D01*
X113522863Y-95882214D01*
X113522860Y-95882218D01*
X113413371Y-96046079D01*
X113413364Y-96046092D01*
X113337950Y-96228160D01*
X113337947Y-96228170D01*
X113299500Y-96421456D01*
X113299500Y-96421459D01*
X113299500Y-96618541D01*
X113299500Y-96618543D01*
X113299499Y-96618543D01*
X112760500Y-96618543D01*
X112760500Y-96421456D01*
X112722052Y-96228170D01*
X112722051Y-96228169D01*
X112722051Y-96228165D01*
X112675791Y-96116482D01*
X112646635Y-96046092D01*
X112646628Y-96046079D01*
X112537139Y-95882218D01*
X112537136Y-95882214D01*
X112397785Y-95742863D01*
X112397781Y-95742860D01*
X112233920Y-95633371D01*
X112233907Y-95633364D01*
X112051839Y-95557950D01*
X112051829Y-95557947D01*
X111858543Y-95519500D01*
X111858541Y-95519500D01*
X111661459Y-95519500D01*
X111661457Y-95519500D01*
X111468170Y-95557947D01*
X111468160Y-95557950D01*
X111286092Y-95633364D01*
X111286079Y-95633371D01*
X111122218Y-95742860D01*
X111122214Y-95742863D01*
X110982863Y-95882214D01*
X110982860Y-95882218D01*
X110873371Y-96046079D01*
X110873364Y-96046092D01*
X110797950Y-96228160D01*
X110797947Y-96228170D01*
X110759500Y-96421456D01*
X110759500Y-96421459D01*
X110759500Y-96618541D01*
X110759500Y-96618543D01*
X110759499Y-96618543D01*
X110220500Y-96618543D01*
X110220500Y-96421456D01*
X110182052Y-96228170D01*
X110182051Y-96228169D01*
X110182051Y-96228165D01*
X110135791Y-96116482D01*
X110106635Y-96046092D01*
X110106628Y-96046079D01*
X109997139Y-95882218D01*
X109997136Y-95882214D01*
X109857785Y-95742863D01*
X109857781Y-95742860D01*
X109693920Y-95633371D01*
X109693907Y-95633364D01*
X109511839Y-95557950D01*
X109511829Y-95557947D01*
X109318543Y-95519500D01*
X109318541Y-95519500D01*
X109121459Y-95519500D01*
X109121457Y-95519500D01*
X108928170Y-95557947D01*
X108928160Y-95557950D01*
X108746092Y-95633364D01*
X108746079Y-95633371D01*
X108582218Y-95742860D01*
X108582214Y-95742863D01*
X108442863Y-95882214D01*
X108442860Y-95882218D01*
X108333371Y-96046079D01*
X108333364Y-96046092D01*
X108257950Y-96228160D01*
X108257947Y-96228170D01*
X108219500Y-96421456D01*
X108219500Y-96421459D01*
X108219500Y-96618541D01*
X108219500Y-96618543D01*
X108219499Y-96618543D01*
X107680500Y-96618543D01*
X107680500Y-96421456D01*
X107642052Y-96228170D01*
X107642051Y-96228169D01*
X107642051Y-96228165D01*
X107595791Y-96116482D01*
X107566635Y-96046092D01*
X107566628Y-96046079D01*
X107457139Y-95882218D01*
X107457136Y-95882214D01*
X107317785Y-95742863D01*
X107317781Y-95742860D01*
X107153920Y-95633371D01*
X107153907Y-95633364D01*
X106971839Y-95557950D01*
X106971829Y-95557947D01*
X106778543Y-95519500D01*
X106778541Y-95519500D01*
X106581459Y-95519500D01*
X106581457Y-95519500D01*
X106388170Y-95557947D01*
X106388160Y-95557950D01*
X106222952Y-95626381D01*
X106153483Y-95633850D01*
X106091004Y-95602574D01*
X106055352Y-95542485D01*
X106051500Y-95511820D01*
X106051500Y-93677622D01*
X106051499Y-93677615D01*
X106038875Y-93630500D01*
X106024207Y-93575758D01*
X105971480Y-93484433D01*
X105883606Y-93396559D01*
X105850121Y-93335236D01*
X105855105Y-93265544D01*
X105896977Y-93209611D01*
X105962441Y-93185194D01*
X106030714Y-93200046D01*
X106040178Y-93205776D01*
X106206079Y-93316628D01*
X106206092Y-93316635D01*
X106360063Y-93380411D01*
X106388165Y-93392051D01*
X106388169Y-93392051D01*
X106388170Y-93392052D01*
X106581456Y-93430500D01*
X106581459Y-93430500D01*
X106778543Y-93430500D01*
X106920240Y-93402314D01*
X106971835Y-93392051D01*
X107153914Y-93316632D01*
X107317782Y-93207139D01*
X107457139Y-93067782D01*
X107566632Y-92903914D01*
X107642051Y-92721835D01*
X107674380Y-92559309D01*
X107680500Y-92528543D01*
X108219499Y-92528543D01*
X108257947Y-92721829D01*
X108257950Y-92721839D01*
X108333364Y-92903907D01*
X108333371Y-92903920D01*
X108442860Y-93067781D01*
X108442863Y-93067785D01*
X108582214Y-93207136D01*
X108582218Y-93207139D01*
X108746079Y-93316628D01*
X108746092Y-93316635D01*
X108900063Y-93380411D01*
X108928165Y-93392051D01*
X108928169Y-93392051D01*
X108928170Y-93392052D01*
X109121456Y-93430500D01*
X109121459Y-93430500D01*
X109318543Y-93430500D01*
X109460240Y-93402314D01*
X109511835Y-93392051D01*
X109693914Y-93316632D01*
X109857782Y-93207139D01*
X109997139Y-93067782D01*
X110106632Y-92903914D01*
X110182051Y-92721835D01*
X110214380Y-92559309D01*
X110220500Y-92528543D01*
X110759499Y-92528543D01*
X110797947Y-92721829D01*
X110797950Y-92721839D01*
X110873364Y-92903907D01*
X110873371Y-92903920D01*
X110982860Y-93067781D01*
X110982863Y-93067785D01*
X111122214Y-93207136D01*
X111122218Y-93207139D01*
X111286079Y-93316628D01*
X111286092Y-93316635D01*
X111440063Y-93380411D01*
X111468165Y-93392051D01*
X111468169Y-93392051D01*
X111468170Y-93392052D01*
X111661456Y-93430500D01*
X111661459Y-93430500D01*
X111858543Y-93430500D01*
X112000240Y-93402314D01*
X112051835Y-93392051D01*
X112233914Y-93316632D01*
X112397782Y-93207139D01*
X112537139Y-93067782D01*
X112646632Y-92903914D01*
X112722051Y-92721835D01*
X112754380Y-92559309D01*
X112760500Y-92528543D01*
X113299499Y-92528543D01*
X113337947Y-92721829D01*
X113337950Y-92721839D01*
X113413364Y-92903907D01*
X113413371Y-92903920D01*
X113522860Y-93067781D01*
X113522863Y-93067785D01*
X113662214Y-93207136D01*
X113662218Y-93207139D01*
X113826079Y-93316628D01*
X113826092Y-93316635D01*
X113980063Y-93380411D01*
X114008165Y-93392051D01*
X114008169Y-93392051D01*
X114008170Y-93392052D01*
X114201456Y-93430500D01*
X114201459Y-93430500D01*
X114398543Y-93430500D01*
X114540240Y-93402314D01*
X114591835Y-93392051D01*
X114773914Y-93316632D01*
X114937782Y-93207139D01*
X115077139Y-93067782D01*
X115186632Y-92903914D01*
X115262051Y-92721835D01*
X115294380Y-92559309D01*
X115300500Y-92528543D01*
X115839499Y-92528543D01*
X115877947Y-92721829D01*
X115877950Y-92721839D01*
X115953364Y-92903907D01*
X115953371Y-92903920D01*
X116062860Y-93067781D01*
X116062863Y-93067785D01*
X116202214Y-93207136D01*
X116202218Y-93207139D01*
X116366079Y-93316628D01*
X116366092Y-93316635D01*
X116520063Y-93380411D01*
X116548165Y-93392051D01*
X116548169Y-93392051D01*
X116548170Y-93392052D01*
X116741456Y-93430500D01*
X116741459Y-93430500D01*
X116938543Y-93430500D01*
X117080240Y-93402314D01*
X117131835Y-93392051D01*
X117313914Y-93316632D01*
X117477782Y-93207139D01*
X117617139Y-93067782D01*
X117726632Y-92903914D01*
X117802051Y-92721835D01*
X117834380Y-92559309D01*
X117840500Y-92528543D01*
X117840500Y-92331456D01*
X117802052Y-92138170D01*
X117802051Y-92138169D01*
X117802051Y-92138165D01*
X117741608Y-91992241D01*
X117726635Y-91956092D01*
X117726628Y-91956079D01*
X117617139Y-91792218D01*
X117617136Y-91792214D01*
X117477785Y-91652863D01*
X117477781Y-91652860D01*
X117313920Y-91543371D01*
X117313907Y-91543364D01*
X117131839Y-91467950D01*
X117131829Y-91467947D01*
X116938543Y-91429500D01*
X116938541Y-91429500D01*
X116741459Y-91429500D01*
X116741457Y-91429500D01*
X116548170Y-91467947D01*
X116548160Y-91467950D01*
X116366092Y-91543364D01*
X116366079Y-91543371D01*
X116202218Y-91652860D01*
X116202214Y-91652863D01*
X116062863Y-91792214D01*
X116062860Y-91792218D01*
X115953371Y-91956079D01*
X115953364Y-91956092D01*
X115877950Y-92138160D01*
X115877947Y-92138170D01*
X115839500Y-92331456D01*
X115839500Y-92331459D01*
X115839500Y-92528541D01*
X115839500Y-92528543D01*
X115839499Y-92528543D01*
X115300500Y-92528543D01*
X115300500Y-92331456D01*
X115262052Y-92138170D01*
X115262051Y-92138169D01*
X115262051Y-92138165D01*
X115201608Y-91992241D01*
X115186635Y-91956092D01*
X115186628Y-91956079D01*
X115077139Y-91792218D01*
X115077136Y-91792214D01*
X114937785Y-91652863D01*
X114937781Y-91652860D01*
X114773920Y-91543371D01*
X114773907Y-91543364D01*
X114591839Y-91467950D01*
X114591829Y-91467947D01*
X114398543Y-91429500D01*
X114398541Y-91429500D01*
X114201459Y-91429500D01*
X114201457Y-91429500D01*
X114008170Y-91467947D01*
X114008160Y-91467950D01*
X113826092Y-91543364D01*
X113826079Y-91543371D01*
X113662218Y-91652860D01*
X113662214Y-91652863D01*
X113522863Y-91792214D01*
X113522860Y-91792218D01*
X113413371Y-91956079D01*
X113413364Y-91956092D01*
X113337950Y-92138160D01*
X113337947Y-92138170D01*
X113299500Y-92331456D01*
X113299500Y-92331459D01*
X113299500Y-92528541D01*
X113299500Y-92528543D01*
X113299499Y-92528543D01*
X112760500Y-92528543D01*
X112760500Y-92331456D01*
X112722052Y-92138170D01*
X112722051Y-92138169D01*
X112722051Y-92138165D01*
X112661608Y-91992241D01*
X112646635Y-91956092D01*
X112646628Y-91956079D01*
X112537139Y-91792218D01*
X112537136Y-91792214D01*
X112397785Y-91652863D01*
X112397781Y-91652860D01*
X112233920Y-91543371D01*
X112233907Y-91543364D01*
X112051839Y-91467950D01*
X112051829Y-91467947D01*
X111858543Y-91429500D01*
X111858541Y-91429500D01*
X111661459Y-91429500D01*
X111661457Y-91429500D01*
X111468170Y-91467947D01*
X111468160Y-91467950D01*
X111286092Y-91543364D01*
X111286079Y-91543371D01*
X111122218Y-91652860D01*
X111122214Y-91652863D01*
X110982863Y-91792214D01*
X110982860Y-91792218D01*
X110873371Y-91956079D01*
X110873364Y-91956092D01*
X110797950Y-92138160D01*
X110797947Y-92138170D01*
X110759500Y-92331456D01*
X110759500Y-92331459D01*
X110759500Y-92528541D01*
X110759500Y-92528543D01*
X110759499Y-92528543D01*
X110220500Y-92528543D01*
X110220500Y-92331456D01*
X110182052Y-92138170D01*
X110182051Y-92138169D01*
X110182051Y-92138165D01*
X110121608Y-91992241D01*
X110106635Y-91956092D01*
X110106628Y-91956079D01*
X109997139Y-91792218D01*
X109997136Y-91792214D01*
X109857785Y-91652863D01*
X109857781Y-91652860D01*
X109693920Y-91543371D01*
X109693907Y-91543364D01*
X109511839Y-91467950D01*
X109511829Y-91467947D01*
X109318543Y-91429500D01*
X109318541Y-91429500D01*
X109121459Y-91429500D01*
X109121457Y-91429500D01*
X108928170Y-91467947D01*
X108928160Y-91467950D01*
X108746092Y-91543364D01*
X108746079Y-91543371D01*
X108582218Y-91652860D01*
X108582214Y-91652863D01*
X108442863Y-91792214D01*
X108442860Y-91792218D01*
X108333371Y-91956079D01*
X108333364Y-91956092D01*
X108257950Y-92138160D01*
X108257947Y-92138170D01*
X108219500Y-92331456D01*
X108219500Y-92331459D01*
X108219500Y-92528541D01*
X108219500Y-92528543D01*
X108219499Y-92528543D01*
X107680500Y-92528543D01*
X107680500Y-92331456D01*
X107642052Y-92138170D01*
X107642051Y-92138169D01*
X107642051Y-92138165D01*
X107581608Y-91992241D01*
X107566635Y-91956092D01*
X107566628Y-91956079D01*
X107457139Y-91792218D01*
X107457136Y-91792214D01*
X107317785Y-91652863D01*
X107317781Y-91652860D01*
X107153920Y-91543371D01*
X107153907Y-91543364D01*
X106971839Y-91467950D01*
X106971829Y-91467947D01*
X106778543Y-91429500D01*
X106778541Y-91429500D01*
X106581459Y-91429500D01*
X106581454Y-91429500D01*
X106500513Y-91445600D01*
X106430921Y-91439373D01*
X106375744Y-91396509D01*
X106352500Y-91330619D01*
X106368568Y-91262622D01*
X106368783Y-91262247D01*
X106419799Y-91173886D01*
X106450500Y-91059309D01*
X106450500Y-90940691D01*
X106419799Y-90826114D01*
X106360489Y-90723387D01*
X106276613Y-90639511D01*
X106173886Y-90580201D01*
X106059309Y-90549500D01*
X105940691Y-90549500D01*
X105826114Y-90580201D01*
X105826112Y-90580201D01*
X105826112Y-90580202D01*
X105723387Y-90639511D01*
X105723384Y-90639513D01*
X105639513Y-90723384D01*
X105639511Y-90723387D01*
X105580200Y-90826114D01*
X105578808Y-90831311D01*
X105546716Y-90886890D01*
X105020522Y-91413084D01*
X105020518Y-91413090D01*
X104967792Y-91504412D01*
X104967792Y-91504413D01*
X104967793Y-91504414D01*
X104949990Y-91570855D01*
X104913625Y-91630515D01*
X104850778Y-91661044D01*
X104781402Y-91652749D01*
X104761325Y-91641863D01*
X104613925Y-91543374D01*
X104613907Y-91543364D01*
X104431839Y-91467950D01*
X104431829Y-91467947D01*
X104238543Y-91429500D01*
X104238541Y-91429500D01*
X104041459Y-91429500D01*
X104041457Y-91429500D01*
X103848170Y-91467947D01*
X103848160Y-91467950D01*
X103666092Y-91543364D01*
X103666079Y-91543371D01*
X103502218Y-91652860D01*
X103502214Y-91652863D01*
X103362863Y-91792214D01*
X103362860Y-91792218D01*
X103253371Y-91956079D01*
X103253364Y-91956092D01*
X103177950Y-92138160D01*
X103177947Y-92138170D01*
X103139500Y-92331456D01*
X103139500Y-92331459D01*
X103139500Y-92528541D01*
X103139500Y-92528543D01*
X103139499Y-92528543D01*
X103177947Y-92721829D01*
X103177950Y-92721839D01*
X103253364Y-92903907D01*
X103253371Y-92903920D01*
X103362860Y-93067781D01*
X103362863Y-93067785D01*
X103502214Y-93207136D01*
X103502218Y-93207139D01*
X103666079Y-93316628D01*
X103666092Y-93316635D01*
X103820063Y-93380411D01*
X103848165Y-93392051D01*
X103848169Y-93392051D01*
X103848170Y-93392052D01*
X104041456Y-93430500D01*
X104041459Y-93430500D01*
X104238543Y-93430500D01*
X104380240Y-93402314D01*
X104431835Y-93392051D01*
X104613914Y-93316632D01*
X104626487Y-93308231D01*
X104747609Y-93227300D01*
X104757309Y-93224262D01*
X104764989Y-93217608D01*
X104790086Y-93213999D01*
X104814286Y-93206422D01*
X104824086Y-93209110D01*
X104834147Y-93207664D01*
X104857212Y-93218197D01*
X104881667Y-93224906D01*
X104888459Y-93232467D01*
X104897703Y-93236689D01*
X104911411Y-93258019D01*
X104928357Y-93276885D01*
X104930988Y-93288482D01*
X104935477Y-93295467D01*
X104940500Y-93330402D01*
X104940500Y-93454403D01*
X104920815Y-93521442D01*
X104868011Y-93567197D01*
X104848599Y-93574175D01*
X104826114Y-93580201D01*
X104826112Y-93580201D01*
X104826112Y-93580202D01*
X104723387Y-93639511D01*
X104723384Y-93639513D01*
X104639513Y-93723384D01*
X104639511Y-93723387D01*
X104580200Y-93826114D01*
X104578808Y-93831311D01*
X104546716Y-93886890D01*
X103551426Y-94882181D01*
X103490103Y-94915666D01*
X103463745Y-94918500D01*
X85671802Y-94918500D01*
X85569939Y-94945793D01*
X85478616Y-94998520D01*
X85478613Y-94998522D01*
X84700522Y-95776613D01*
X84700518Y-95776619D01*
X84647792Y-95867941D01*
X84647793Y-95867942D01*
X84620500Y-95969802D01*
X84620500Y-96800216D01*
X84600815Y-96867255D01*
X84584181Y-96887897D01*
X77768897Y-103703181D01*
X77707574Y-103736666D01*
X77681216Y-103739500D01*
X74714015Y-103739500D01*
X74646976Y-103719815D01*
X74601221Y-103667011D01*
X74599454Y-103662954D01*
X74590941Y-103642402D01*
X74590938Y-103642397D01*
X74590937Y-103642395D01*
X74475977Y-103470344D01*
X74405828Y-103400195D01*
X74372343Y-103338872D01*
X74377327Y-103269180D01*
X74418027Y-103214135D01*
X74424087Y-103209484D01*
X74424095Y-103209480D01*
X78387819Y-99245756D01*
X78449142Y-99212271D01*
X78518834Y-99217255D01*
X78574767Y-99259127D01*
X78599184Y-99324591D01*
X78599500Y-99333437D01*
X78599500Y-100409461D01*
X78582889Y-100471458D01*
X78580202Y-100476111D01*
X78580201Y-100476112D01*
X78564850Y-100533402D01*
X78549500Y-100590691D01*
X78549500Y-100709309D01*
X78580201Y-100823886D01*
X78639511Y-100926613D01*
X78723387Y-101010489D01*
X78826114Y-101069799D01*
X78940691Y-101100500D01*
X78940694Y-101100500D01*
X79059306Y-101100500D01*
X79059309Y-101100500D01*
X79173886Y-101069799D01*
X79276613Y-101010489D01*
X79360489Y-100926613D01*
X79419799Y-100823886D01*
X79450500Y-100709309D01*
X79450500Y-100590691D01*
X79419799Y-100476114D01*
X79417111Y-100471458D01*
X79400500Y-100409461D01*
X79400500Y-96618543D01*
X80279499Y-96618543D01*
X80317947Y-96811829D01*
X80317950Y-96811839D01*
X80393364Y-96993907D01*
X80393371Y-96993920D01*
X80502860Y-97157781D01*
X80502863Y-97157785D01*
X80642214Y-97297136D01*
X80642218Y-97297139D01*
X80806079Y-97406628D01*
X80806092Y-97406635D01*
X80983153Y-97479975D01*
X80988165Y-97482051D01*
X80988169Y-97482051D01*
X80988170Y-97482052D01*
X81181456Y-97520500D01*
X81181459Y-97520500D01*
X81378543Y-97520500D01*
X81508582Y-97494632D01*
X81571835Y-97482051D01*
X81753914Y-97406632D01*
X81917782Y-97297139D01*
X82057139Y-97157782D01*
X82166632Y-96993914D01*
X82242051Y-96811835D01*
X82279520Y-96623469D01*
X82280500Y-96618543D01*
X82280500Y-96421456D01*
X82242052Y-96228170D01*
X82242051Y-96228169D01*
X82242051Y-96228165D01*
X82195791Y-96116482D01*
X82166635Y-96046092D01*
X82166628Y-96046079D01*
X82057139Y-95882218D01*
X82057136Y-95882214D01*
X81917785Y-95742863D01*
X81917781Y-95742860D01*
X81753920Y-95633371D01*
X81753907Y-95633364D01*
X81571839Y-95557950D01*
X81571829Y-95557947D01*
X81378543Y-95519500D01*
X81378541Y-95519500D01*
X81181459Y-95519500D01*
X81181457Y-95519500D01*
X80988170Y-95557947D01*
X80988160Y-95557950D01*
X80806092Y-95633364D01*
X80806079Y-95633371D01*
X80642218Y-95742860D01*
X80642214Y-95742863D01*
X80502863Y-95882214D01*
X80502860Y-95882218D01*
X80393371Y-96046079D01*
X80393364Y-96046092D01*
X80317950Y-96228160D01*
X80317947Y-96228170D01*
X80279500Y-96421456D01*
X80279500Y-96421459D01*
X80279500Y-96618541D01*
X80279500Y-96618543D01*
X80279499Y-96618543D01*
X79400500Y-96618543D01*
X79400500Y-95062729D01*
X79400501Y-95062716D01*
X79400501Y-94947274D01*
X79392791Y-94918500D01*
X79373207Y-94845413D01*
X79344665Y-94795977D01*
X79320480Y-94754087D01*
X79245913Y-94679520D01*
X79245910Y-94679518D01*
X78162783Y-93596391D01*
X77086638Y-92520245D01*
X77007084Y-92440691D01*
X78549500Y-92440691D01*
X78549500Y-92559309D01*
X78580201Y-92673886D01*
X78639511Y-92776613D01*
X78723387Y-92860489D01*
X78798601Y-92903914D01*
X78826114Y-92919799D01*
X78831298Y-92921188D01*
X78886890Y-92953283D01*
X80179519Y-94245912D01*
X80179520Y-94245913D01*
X80254087Y-94320480D01*
X80345413Y-94373207D01*
X80447273Y-94400500D01*
X80548273Y-94400500D01*
X98759462Y-94400500D01*
X98821463Y-94417114D01*
X98826109Y-94419796D01*
X98826110Y-94419797D01*
X98826114Y-94419799D01*
X98940691Y-94450500D01*
X98940694Y-94450500D01*
X99059306Y-94450500D01*
X99059309Y-94450500D01*
X99173886Y-94419799D01*
X99276613Y-94360489D01*
X99360489Y-94276613D01*
X99419799Y-94173886D01*
X99450500Y-94059309D01*
X99450500Y-93940691D01*
X99419799Y-93826114D01*
X99360489Y-93723387D01*
X99276613Y-93639511D01*
X99276611Y-93639510D01*
X99276609Y-93639508D01*
X99262423Y-93631318D01*
X99214208Y-93580750D01*
X99200987Y-93512142D01*
X99226956Y-93447278D01*
X99283871Y-93406751D01*
X99300221Y-93402317D01*
X99351835Y-93392051D01*
X99533914Y-93316632D01*
X99697782Y-93207139D01*
X99837139Y-93067782D01*
X99946632Y-92903914D01*
X100022051Y-92721835D01*
X100054380Y-92559309D01*
X100060500Y-92528543D01*
X100599499Y-92528543D01*
X100637947Y-92721829D01*
X100637950Y-92721839D01*
X100713364Y-92903907D01*
X100713371Y-92903920D01*
X100822860Y-93067781D01*
X100822863Y-93067785D01*
X100962214Y-93207136D01*
X100962218Y-93207139D01*
X101126079Y-93316628D01*
X101126092Y-93316635D01*
X101280063Y-93380411D01*
X101308165Y-93392051D01*
X101308169Y-93392051D01*
X101308170Y-93392052D01*
X101501456Y-93430500D01*
X101501459Y-93430500D01*
X101698543Y-93430500D01*
X101840240Y-93402314D01*
X101891835Y-93392051D01*
X102073914Y-93316632D01*
X102237782Y-93207139D01*
X102377139Y-93067782D01*
X102486632Y-92903914D01*
X102562051Y-92721835D01*
X102594380Y-92559309D01*
X102600500Y-92528543D01*
X102600500Y-92331456D01*
X102562052Y-92138170D01*
X102562051Y-92138169D01*
X102562051Y-92138165D01*
X102501608Y-91992241D01*
X102486635Y-91956092D01*
X102486628Y-91956079D01*
X102377139Y-91792218D01*
X102377136Y-91792214D01*
X102237785Y-91652863D01*
X102237781Y-91652860D01*
X102073920Y-91543371D01*
X102073907Y-91543364D01*
X101891839Y-91467950D01*
X101891829Y-91467947D01*
X101698543Y-91429500D01*
X101698541Y-91429500D01*
X101501459Y-91429500D01*
X101501457Y-91429500D01*
X101308170Y-91467947D01*
X101308160Y-91467950D01*
X101126092Y-91543364D01*
X101126079Y-91543371D01*
X100962218Y-91652860D01*
X100962214Y-91652863D01*
X100822863Y-91792214D01*
X100822860Y-91792218D01*
X100713371Y-91956079D01*
X100713364Y-91956092D01*
X100637950Y-92138160D01*
X100637947Y-92138170D01*
X100599500Y-92331456D01*
X100599500Y-92331459D01*
X100599500Y-92528541D01*
X100599500Y-92528543D01*
X100599499Y-92528543D01*
X100060500Y-92528543D01*
X100060500Y-92331456D01*
X100022052Y-92138170D01*
X100022051Y-92138169D01*
X100022051Y-92138165D01*
X99961608Y-91992241D01*
X99946635Y-91956092D01*
X99946628Y-91956079D01*
X99837139Y-91792218D01*
X99837136Y-91792214D01*
X99697785Y-91652863D01*
X99697781Y-91652860D01*
X99533920Y-91543371D01*
X99533907Y-91543364D01*
X99351839Y-91467950D01*
X99351829Y-91467947D01*
X99158543Y-91429500D01*
X99158541Y-91429500D01*
X98961459Y-91429500D01*
X98961457Y-91429500D01*
X98768170Y-91467947D01*
X98768160Y-91467950D01*
X98586092Y-91543364D01*
X98586079Y-91543371D01*
X98422218Y-91652860D01*
X98422214Y-91652863D01*
X98282863Y-91792214D01*
X98282860Y-91792218D01*
X98173371Y-91956079D01*
X98173364Y-91956092D01*
X98097950Y-92138160D01*
X98097947Y-92138170D01*
X98059500Y-92331456D01*
X98059500Y-92331459D01*
X98059500Y-92528541D01*
X98059500Y-92528543D01*
X98059499Y-92528543D01*
X98097947Y-92721829D01*
X98097950Y-92721839D01*
X98173364Y-92903907D01*
X98173371Y-92903920D01*
X98282860Y-93067781D01*
X98282863Y-93067785D01*
X98422214Y-93207136D01*
X98422218Y-93207139D01*
X98586079Y-93316628D01*
X98586092Y-93316635D01*
X98693052Y-93360939D01*
X98747456Y-93404780D01*
X98769521Y-93471074D01*
X98752242Y-93538773D01*
X98701105Y-93586384D01*
X98645600Y-93599500D01*
X96934400Y-93599500D01*
X96867361Y-93579815D01*
X96821606Y-93527011D01*
X96811662Y-93457853D01*
X96840687Y-93394297D01*
X96886948Y-93360939D01*
X96993907Y-93316635D01*
X96993907Y-93316634D01*
X96993914Y-93316632D01*
X97157782Y-93207139D01*
X97297139Y-93067782D01*
X97406632Y-92903914D01*
X97482051Y-92721835D01*
X97514380Y-92559309D01*
X97520500Y-92528543D01*
X97520500Y-92331456D01*
X97482052Y-92138170D01*
X97482051Y-92138169D01*
X97482051Y-92138165D01*
X97421608Y-91992241D01*
X97406635Y-91956092D01*
X97406628Y-91956079D01*
X97297139Y-91792218D01*
X97297136Y-91792214D01*
X97157785Y-91652863D01*
X97157781Y-91652860D01*
X96993920Y-91543371D01*
X96993907Y-91543364D01*
X96811839Y-91467950D01*
X96811829Y-91467947D01*
X96618543Y-91429500D01*
X96618541Y-91429500D01*
X96421459Y-91429500D01*
X96421457Y-91429500D01*
X96228170Y-91467947D01*
X96228160Y-91467950D01*
X96046092Y-91543364D01*
X96046079Y-91543371D01*
X95882218Y-91652860D01*
X95882214Y-91652863D01*
X95742863Y-91792214D01*
X95742860Y-91792218D01*
X95633371Y-91956079D01*
X95633364Y-91956092D01*
X95557950Y-92138160D01*
X95557947Y-92138170D01*
X95519500Y-92331456D01*
X95519500Y-92331459D01*
X95519500Y-92528541D01*
X95519500Y-92528543D01*
X95519499Y-92528543D01*
X95557947Y-92721829D01*
X95557950Y-92721839D01*
X95633364Y-92903907D01*
X95633371Y-92903920D01*
X95742860Y-93067781D01*
X95742863Y-93067785D01*
X95882214Y-93207136D01*
X95882218Y-93207139D01*
X96046079Y-93316628D01*
X96046092Y-93316635D01*
X96153052Y-93360939D01*
X96207456Y-93404780D01*
X96229521Y-93471074D01*
X96212242Y-93538773D01*
X96161105Y-93586384D01*
X96105600Y-93599500D01*
X94394400Y-93599500D01*
X94327361Y-93579815D01*
X94281606Y-93527011D01*
X94271662Y-93457853D01*
X94300687Y-93394297D01*
X94346948Y-93360939D01*
X94453907Y-93316635D01*
X94453907Y-93316634D01*
X94453914Y-93316632D01*
X94617782Y-93207139D01*
X94757139Y-93067782D01*
X94866632Y-92903914D01*
X94942051Y-92721835D01*
X94974380Y-92559309D01*
X94980500Y-92528543D01*
X94980500Y-92331456D01*
X94942052Y-92138170D01*
X94942051Y-92138169D01*
X94942051Y-92138165D01*
X94881608Y-91992241D01*
X94866635Y-91956092D01*
X94866628Y-91956079D01*
X94757139Y-91792218D01*
X94757136Y-91792214D01*
X94617785Y-91652863D01*
X94617781Y-91652860D01*
X94453920Y-91543371D01*
X94453907Y-91543364D01*
X94271839Y-91467950D01*
X94271829Y-91467947D01*
X94078543Y-91429500D01*
X94078541Y-91429500D01*
X93881459Y-91429500D01*
X93881457Y-91429500D01*
X93688170Y-91467947D01*
X93688160Y-91467950D01*
X93506092Y-91543364D01*
X93506079Y-91543371D01*
X93342218Y-91652860D01*
X93342214Y-91652863D01*
X93202863Y-91792214D01*
X93202860Y-91792218D01*
X93093371Y-91956079D01*
X93093364Y-91956092D01*
X93017950Y-92138160D01*
X93017947Y-92138170D01*
X92979500Y-92331456D01*
X92979500Y-92331459D01*
X92979500Y-92528541D01*
X92979500Y-92528543D01*
X92979499Y-92528543D01*
X93017947Y-92721829D01*
X93017950Y-92721839D01*
X93093364Y-92903907D01*
X93093371Y-92903920D01*
X93202860Y-93067781D01*
X93202863Y-93067785D01*
X93342214Y-93207136D01*
X93342218Y-93207139D01*
X93506079Y-93316628D01*
X93506092Y-93316635D01*
X93613052Y-93360939D01*
X93667456Y-93404780D01*
X93689521Y-93471074D01*
X93672242Y-93538773D01*
X93621105Y-93586384D01*
X93565600Y-93599500D01*
X91854400Y-93599500D01*
X91787361Y-93579815D01*
X91741606Y-93527011D01*
X91731662Y-93457853D01*
X91760687Y-93394297D01*
X91806948Y-93360939D01*
X91913907Y-93316635D01*
X91913907Y-93316634D01*
X91913914Y-93316632D01*
X92077782Y-93207139D01*
X92217139Y-93067782D01*
X92326632Y-92903914D01*
X92402051Y-92721835D01*
X92434380Y-92559309D01*
X92440500Y-92528543D01*
X92440500Y-92331456D01*
X92402052Y-92138170D01*
X92402051Y-92138169D01*
X92402051Y-92138165D01*
X92341608Y-91992241D01*
X92326635Y-91956092D01*
X92326628Y-91956079D01*
X92217139Y-91792218D01*
X92217136Y-91792214D01*
X92077785Y-91652863D01*
X92077781Y-91652860D01*
X91913920Y-91543371D01*
X91913907Y-91543364D01*
X91731839Y-91467950D01*
X91731829Y-91467947D01*
X91538543Y-91429500D01*
X91538541Y-91429500D01*
X91341459Y-91429500D01*
X91341457Y-91429500D01*
X91148170Y-91467947D01*
X91148160Y-91467950D01*
X90966092Y-91543364D01*
X90966079Y-91543371D01*
X90802218Y-91652860D01*
X90802214Y-91652863D01*
X90662863Y-91792214D01*
X90662860Y-91792218D01*
X90553371Y-91956079D01*
X90553364Y-91956092D01*
X90477950Y-92138160D01*
X90477947Y-92138170D01*
X90439500Y-92331456D01*
X90439500Y-92331459D01*
X90439500Y-92528541D01*
X90439500Y-92528543D01*
X90439499Y-92528543D01*
X90477947Y-92721829D01*
X90477950Y-92721839D01*
X90553364Y-92903907D01*
X90553371Y-92903920D01*
X90662860Y-93067781D01*
X90662863Y-93067785D01*
X90802214Y-93207136D01*
X90802218Y-93207139D01*
X90966079Y-93316628D01*
X90966092Y-93316635D01*
X91073052Y-93360939D01*
X91127456Y-93404780D01*
X91149521Y-93471074D01*
X91132242Y-93538773D01*
X91081105Y-93586384D01*
X91025600Y-93599500D01*
X86774400Y-93599500D01*
X86707361Y-93579815D01*
X86661606Y-93527011D01*
X86651662Y-93457853D01*
X86680687Y-93394297D01*
X86726948Y-93360939D01*
X86833907Y-93316635D01*
X86833907Y-93316634D01*
X86833914Y-93316632D01*
X86997782Y-93207139D01*
X87137139Y-93067782D01*
X87246632Y-92903914D01*
X87322051Y-92721835D01*
X87354380Y-92559309D01*
X87360500Y-92528543D01*
X87360500Y-92331456D01*
X87322052Y-92138170D01*
X87322051Y-92138169D01*
X87322051Y-92138165D01*
X87261608Y-91992241D01*
X87246635Y-91956092D01*
X87246628Y-91956079D01*
X87137139Y-91792218D01*
X87137136Y-91792214D01*
X86997785Y-91652863D01*
X86997781Y-91652860D01*
X86833920Y-91543371D01*
X86833907Y-91543364D01*
X86651839Y-91467950D01*
X86651829Y-91467947D01*
X86458543Y-91429500D01*
X86458541Y-91429500D01*
X86261459Y-91429500D01*
X86261457Y-91429500D01*
X86068170Y-91467947D01*
X86068160Y-91467950D01*
X85886092Y-91543364D01*
X85886079Y-91543371D01*
X85722218Y-91652860D01*
X85722214Y-91652863D01*
X85582863Y-91792214D01*
X85582860Y-91792218D01*
X85473371Y-91956079D01*
X85473364Y-91956092D01*
X85397950Y-92138160D01*
X85397947Y-92138170D01*
X85359500Y-92331456D01*
X85359500Y-92331459D01*
X85359500Y-92528541D01*
X85359500Y-92528543D01*
X85359499Y-92528543D01*
X85397947Y-92721829D01*
X85397950Y-92721839D01*
X85473364Y-92903907D01*
X85473371Y-92903920D01*
X85582860Y-93067781D01*
X85582863Y-93067785D01*
X85722214Y-93207136D01*
X85722218Y-93207139D01*
X85886079Y-93316628D01*
X85886092Y-93316635D01*
X85993052Y-93360939D01*
X86047456Y-93404780D01*
X86069521Y-93471074D01*
X86052242Y-93538773D01*
X86001105Y-93586384D01*
X85945600Y-93599500D01*
X84234400Y-93599500D01*
X84167361Y-93579815D01*
X84121606Y-93527011D01*
X84111662Y-93457853D01*
X84140687Y-93394297D01*
X84186948Y-93360939D01*
X84293907Y-93316635D01*
X84293907Y-93316634D01*
X84293914Y-93316632D01*
X84457782Y-93207139D01*
X84597139Y-93067782D01*
X84706632Y-92903914D01*
X84782051Y-92721835D01*
X84814380Y-92559309D01*
X84820500Y-92528543D01*
X84820500Y-92331456D01*
X84782052Y-92138170D01*
X84782051Y-92138169D01*
X84782051Y-92138165D01*
X84721608Y-91992241D01*
X84706635Y-91956092D01*
X84706628Y-91956079D01*
X84597139Y-91792218D01*
X84597136Y-91792214D01*
X84457785Y-91652863D01*
X84457781Y-91652860D01*
X84293920Y-91543371D01*
X84293907Y-91543364D01*
X84111839Y-91467950D01*
X84111829Y-91467947D01*
X83918543Y-91429500D01*
X83918541Y-91429500D01*
X83721459Y-91429500D01*
X83721457Y-91429500D01*
X83528170Y-91467947D01*
X83528160Y-91467950D01*
X83346092Y-91543364D01*
X83346079Y-91543371D01*
X83182218Y-91652860D01*
X83182214Y-91652863D01*
X83042863Y-91792214D01*
X83042860Y-91792218D01*
X82933371Y-91956079D01*
X82933364Y-91956092D01*
X82857950Y-92138160D01*
X82857947Y-92138170D01*
X82819500Y-92331456D01*
X82819500Y-92331459D01*
X82819500Y-92528541D01*
X82819500Y-92528543D01*
X82819499Y-92528543D01*
X82857947Y-92721829D01*
X82857950Y-92721839D01*
X82933364Y-92903907D01*
X82933371Y-92903920D01*
X83042860Y-93067781D01*
X83042863Y-93067785D01*
X83182214Y-93207136D01*
X83182218Y-93207139D01*
X83346079Y-93316628D01*
X83346092Y-93316635D01*
X83453052Y-93360939D01*
X83507456Y-93404780D01*
X83529521Y-93471074D01*
X83512242Y-93538773D01*
X83461105Y-93586384D01*
X83405600Y-93599500D01*
X82296667Y-93599500D01*
X82229628Y-93579815D01*
X82183873Y-93527011D01*
X82173929Y-93457853D01*
X82202954Y-93394297D01*
X82218693Y-93380411D01*
X82224551Y-93374553D01*
X82224552Y-93374552D01*
X82268867Y-93308231D01*
X82268867Y-93308229D01*
X82268868Y-93308229D01*
X82280499Y-93249752D01*
X82280500Y-93249750D01*
X82280500Y-91610249D01*
X82280499Y-91610247D01*
X82268868Y-91551770D01*
X82268867Y-91551769D01*
X82224552Y-91485447D01*
X82158230Y-91441132D01*
X82158229Y-91441131D01*
X82099752Y-91429500D01*
X82099748Y-91429500D01*
X80460252Y-91429500D01*
X80460247Y-91429500D01*
X80401770Y-91441131D01*
X80401769Y-91441132D01*
X80335447Y-91485447D01*
X80291132Y-91551769D01*
X80291131Y-91551770D01*
X80279500Y-91610247D01*
X80279500Y-92913745D01*
X80259815Y-92980784D01*
X80207011Y-93026539D01*
X80137853Y-93036483D01*
X80074297Y-93007458D01*
X80067819Y-93001426D01*
X79453283Y-92386890D01*
X79421188Y-92331298D01*
X79419799Y-92326114D01*
X79391219Y-92276613D01*
X79360489Y-92223387D01*
X79276613Y-92139511D01*
X79173886Y-92080201D01*
X79059309Y-92049500D01*
X78940691Y-92049500D01*
X78826114Y-92080201D01*
X78826112Y-92080201D01*
X78826112Y-92080202D01*
X78723387Y-92139511D01*
X78723384Y-92139513D01*
X78639513Y-92223384D01*
X78639511Y-92223387D01*
X78608780Y-92276615D01*
X78580201Y-92326114D01*
X78549500Y-92440691D01*
X77007084Y-92440691D01*
X76558634Y-91992241D01*
X76525149Y-91930918D01*
X76530133Y-91861226D01*
X76572005Y-91805293D01*
X76614217Y-91784787D01*
X76673886Y-91768799D01*
X76776613Y-91709489D01*
X76860489Y-91625613D01*
X76919799Y-91522886D01*
X76950500Y-91408309D01*
X76950500Y-91289691D01*
X76919799Y-91175114D01*
X76860489Y-91072387D01*
X76776613Y-90988511D01*
X76673886Y-90929201D01*
X76559309Y-90898500D01*
X76440691Y-90898500D01*
X76371944Y-90916920D01*
X76326112Y-90929201D01*
X76326109Y-90929203D01*
X76321463Y-90931886D01*
X76259462Y-90948500D01*
X75790685Y-90948500D01*
X75790669Y-90948499D01*
X75783073Y-90948499D01*
X75677619Y-90948499D01*
X75609712Y-90966695D01*
X75575758Y-90975793D01*
X75484430Y-91028522D01*
X75409864Y-91103089D01*
X74922181Y-91590771D01*
X74860858Y-91624256D01*
X74791166Y-91619272D01*
X74735233Y-91577400D01*
X74710816Y-91511936D01*
X74710500Y-91503090D01*
X74710500Y-91336534D01*
X74710499Y-91336530D01*
X74695670Y-91261981D01*
X74670130Y-91133580D01*
X74590941Y-90942402D01*
X74475977Y-90770345D01*
X74475975Y-90770342D01*
X74468814Y-90763181D01*
X74435329Y-90701858D01*
X74440313Y-90632166D01*
X74482185Y-90576233D01*
X74547649Y-90551816D01*
X74556495Y-90551500D01*
X94732725Y-90551500D01*
X94732727Y-90551500D01*
X94834588Y-90524207D01*
X94925913Y-90471480D01*
X95651480Y-89745913D01*
X95704207Y-89654588D01*
X95731500Y-89552727D01*
X95731500Y-89447273D01*
X95731500Y-88386254D01*
X95751185Y-88319215D01*
X95767815Y-88298577D01*
X96113110Y-87953281D01*
X96168704Y-87921187D01*
X96173886Y-87919799D01*
X96276613Y-87860489D01*
X96360489Y-87776613D01*
X96419799Y-87673886D01*
X96450500Y-87559309D01*
X96450500Y-87440691D01*
X96419799Y-87326114D01*
X96360489Y-87223387D01*
X96276613Y-87139511D01*
X96173886Y-87080201D01*
X96059309Y-87049500D01*
X95940691Y-87049500D01*
X95826114Y-87080201D01*
X95826112Y-87080201D01*
X95826112Y-87080202D01*
X95723387Y-87139511D01*
X95723384Y-87139513D01*
X95639513Y-87223384D01*
X95639509Y-87223390D01*
X95580201Y-87326114D01*
X95580200Y-87326115D01*
X95578810Y-87331305D01*
X95546717Y-87386888D01*
X95010522Y-87923084D01*
X95010518Y-87923090D01*
X94957792Y-88014412D01*
X94957793Y-88014413D01*
X94930500Y-88116273D01*
X94930500Y-89282745D01*
X94910815Y-89349784D01*
X94894181Y-89370426D01*
X94550426Y-89714181D01*
X94489103Y-89747666D01*
X94462745Y-89750500D01*
X74587128Y-89750500D01*
X74520089Y-89730815D01*
X74474334Y-89678011D01*
X74464390Y-89608853D01*
X74484026Y-89557610D01*
X74590940Y-89397600D01*
X74590940Y-89397599D01*
X74590941Y-89397598D01*
X74670130Y-89206420D01*
X74710500Y-89003465D01*
X74710500Y-88796535D01*
X74670130Y-88593580D01*
X74590941Y-88402402D01*
X74475977Y-88230345D01*
X74475975Y-88230342D01*
X74468814Y-88223181D01*
X74435329Y-88161858D01*
X74440313Y-88092166D01*
X74482185Y-88036233D01*
X74547649Y-88011816D01*
X74556495Y-88011500D01*
X84441725Y-88011500D01*
X84441727Y-88011500D01*
X84543588Y-87984207D01*
X84634913Y-87931480D01*
X86113110Y-86453281D01*
X86168704Y-86421187D01*
X86173886Y-86419799D01*
X86276613Y-86360489D01*
X86360489Y-86276613D01*
X86419799Y-86173886D01*
X86450500Y-86059309D01*
X86450500Y-85940691D01*
X86419799Y-85826114D01*
X86360489Y-85723387D01*
X86276613Y-85639511D01*
X86173886Y-85580201D01*
X86059309Y-85549500D01*
X85940691Y-85549500D01*
X85826114Y-85580201D01*
X85826112Y-85580201D01*
X85826112Y-85580202D01*
X85723387Y-85639511D01*
X85723384Y-85639513D01*
X85639513Y-85723384D01*
X85639509Y-85723390D01*
X85580201Y-85826114D01*
X85580200Y-85826115D01*
X85578810Y-85831305D01*
X85546717Y-85886888D01*
X84259426Y-87174181D01*
X84198103Y-87207666D01*
X84171745Y-87210500D01*
X72588255Y-87210500D01*
X72521216Y-87190815D01*
X72500574Y-87174181D01*
X72148497Y-86822104D01*
X72115012Y-86760781D01*
X72119996Y-86691089D01*
X72121619Y-86686966D01*
X72130128Y-86666424D01*
X72130130Y-86666420D01*
X72170500Y-86463465D01*
X72170500Y-86256535D01*
X72130130Y-86053580D01*
X72050941Y-85862402D01*
X71935977Y-85690345D01*
X71935975Y-85690342D01*
X71789657Y-85544024D01*
X71618512Y-85429670D01*
X71617598Y-85429059D01*
X71426420Y-85349870D01*
X71426412Y-85349868D01*
X71223469Y-85309500D01*
X71223465Y-85309500D01*
X71016535Y-85309500D01*
X71016530Y-85309500D01*
X70813587Y-85349868D01*
X70813579Y-85349870D01*
X70622403Y-85429058D01*
X70450342Y-85544024D01*
X70304024Y-85690342D01*
X70189058Y-85862403D01*
X70109870Y-86053579D01*
X70109868Y-86053587D01*
X70069500Y-86256530D01*
X70069500Y-86463469D01*
X70109868Y-86666412D01*
X70109870Y-86666420D01*
X70189058Y-86857596D01*
X70304024Y-87029657D01*
X70450342Y-87175975D01*
X70450345Y-87175977D01*
X70622402Y-87290941D01*
X70813580Y-87370130D01*
X71016530Y-87410499D01*
X71016534Y-87410500D01*
X71016535Y-87410500D01*
X71223466Y-87410500D01*
X71223467Y-87410499D01*
X71426420Y-87370130D01*
X71446967Y-87361618D01*
X71516435Y-87354147D01*
X71578915Y-87385420D01*
X71582104Y-87388497D01*
X72125087Y-87931480D01*
X72216412Y-87984207D01*
X72318273Y-88011500D01*
X72423727Y-88011500D01*
X72763505Y-88011500D01*
X72830544Y-88031185D01*
X72876299Y-88083989D01*
X72886243Y-88153147D01*
X72857218Y-88216703D01*
X72851186Y-88223181D01*
X72844025Y-88230341D01*
X72844024Y-88230342D01*
X72729058Y-88402403D01*
X72649870Y-88593579D01*
X72649868Y-88593587D01*
X72609500Y-88796530D01*
X72609500Y-89003469D01*
X72649868Y-89206412D01*
X72649870Y-89206420D01*
X72729059Y-89397599D01*
X72729059Y-89397600D01*
X72835974Y-89557610D01*
X72839010Y-89567308D01*
X72845666Y-89574989D01*
X72849275Y-89600088D01*
X72856852Y-89624287D01*
X72854163Y-89634086D01*
X72855610Y-89644147D01*
X72845075Y-89667215D01*
X72838367Y-89691667D01*
X72830807Y-89698457D01*
X72826585Y-89707703D01*
X72805250Y-89721413D01*
X72786388Y-89738357D01*
X72774791Y-89740988D01*
X72767807Y-89745477D01*
X72732872Y-89750500D01*
X72588255Y-89750500D01*
X72521216Y-89730815D01*
X72500574Y-89714181D01*
X72148497Y-89362104D01*
X72115012Y-89300781D01*
X72119996Y-89231089D01*
X72121619Y-89226966D01*
X72130128Y-89206424D01*
X72130130Y-89206420D01*
X72170500Y-89003465D01*
X72170500Y-88796535D01*
X72130130Y-88593580D01*
X72050941Y-88402402D01*
X71935977Y-88230345D01*
X71935975Y-88230342D01*
X71789657Y-88084024D01*
X71703626Y-88026541D01*
X71617598Y-87969059D01*
X71526872Y-87931479D01*
X71426420Y-87889870D01*
X71426412Y-87889868D01*
X71223469Y-87849500D01*
X71223465Y-87849500D01*
X71016535Y-87849500D01*
X71016530Y-87849500D01*
X70813587Y-87889868D01*
X70813579Y-87889870D01*
X70622403Y-87969058D01*
X70450342Y-88084024D01*
X70304024Y-88230342D01*
X70189058Y-88402403D01*
X70109870Y-88593579D01*
X70109868Y-88593587D01*
X70069500Y-88796530D01*
X70069500Y-89003469D01*
X70109868Y-89206412D01*
X70109870Y-89206420D01*
X70189059Y-89397598D01*
X70222251Y-89447273D01*
X70304024Y-89569657D01*
X70450342Y-89715975D01*
X70450345Y-89715977D01*
X70622402Y-89830941D01*
X70813580Y-89910130D01*
X71016530Y-89950499D01*
X71016534Y-89950500D01*
X71016535Y-89950500D01*
X71223466Y-89950500D01*
X71223467Y-89950499D01*
X71426420Y-89910130D01*
X71446967Y-89901618D01*
X71516435Y-89894147D01*
X71578915Y-89925420D01*
X71582104Y-89928497D01*
X72125087Y-90471480D01*
X72216412Y-90524207D01*
X72318273Y-90551500D01*
X72423727Y-90551500D01*
X72763505Y-90551500D01*
X72830544Y-90571185D01*
X72876299Y-90623989D01*
X72886243Y-90693147D01*
X72857218Y-90756703D01*
X72851186Y-90763181D01*
X72844025Y-90770341D01*
X72844024Y-90770342D01*
X72729058Y-90942403D01*
X72649870Y-91133579D01*
X72649868Y-91133587D01*
X72609500Y-91336530D01*
X72609500Y-91543469D01*
X72649868Y-91746412D01*
X72649870Y-91746420D01*
X72729058Y-91937596D01*
X72844024Y-92109657D01*
X72851186Y-92116819D01*
X72884671Y-92178142D01*
X72879687Y-92247834D01*
X72837815Y-92303767D01*
X72772351Y-92328184D01*
X72763505Y-92328500D01*
X72318273Y-92328500D01*
X72216410Y-92355793D01*
X72125087Y-92408520D01*
X72125084Y-92408522D01*
X71582103Y-92951502D01*
X71520780Y-92984987D01*
X71451088Y-92980003D01*
X71446983Y-92978387D01*
X71426420Y-92969870D01*
X71426412Y-92969868D01*
X71223469Y-92929500D01*
X71223465Y-92929500D01*
X71016535Y-92929500D01*
X71016530Y-92929500D01*
X70813587Y-92969868D01*
X70813579Y-92969870D01*
X70622403Y-93049058D01*
X70450342Y-93164024D01*
X70304024Y-93310342D01*
X70189058Y-93482403D01*
X70109870Y-93673579D01*
X70109868Y-93673587D01*
X70069500Y-93876530D01*
X70069500Y-94083469D01*
X70109868Y-94286412D01*
X70109870Y-94286420D01*
X70177834Y-94450500D01*
X70189059Y-94477598D01*
X70246541Y-94563626D01*
X70304024Y-94649657D01*
X70450342Y-94795975D01*
X70450345Y-94795977D01*
X70622402Y-94910941D01*
X70813580Y-94990130D01*
X71016530Y-95030499D01*
X71016534Y-95030500D01*
X71016535Y-95030500D01*
X71223466Y-95030500D01*
X71223467Y-95030499D01*
X71426420Y-94990130D01*
X71617598Y-94910941D01*
X71789655Y-94795977D01*
X71935977Y-94649655D01*
X72050941Y-94477598D01*
X72130130Y-94286420D01*
X72170500Y-94083465D01*
X72170500Y-93876535D01*
X72130130Y-93673580D01*
X72121617Y-93653027D01*
X72114148Y-93583558D01*
X72145423Y-93521079D01*
X72148465Y-93517926D01*
X72500574Y-93165819D01*
X72527501Y-93151115D01*
X72553320Y-93134523D01*
X72559520Y-93133631D01*
X72561897Y-93132334D01*
X72588255Y-93129500D01*
X72732872Y-93129500D01*
X72799911Y-93149185D01*
X72845666Y-93201989D01*
X72855610Y-93271147D01*
X72835974Y-93322390D01*
X72729059Y-93482399D01*
X72729059Y-93482400D01*
X72649870Y-93673579D01*
X72649868Y-93673587D01*
X72609500Y-93876530D01*
X72609500Y-94083469D01*
X72649868Y-94286412D01*
X72649870Y-94286420D01*
X72717834Y-94450500D01*
X72729059Y-94477598D01*
X72786541Y-94563626D01*
X72844024Y-94649657D01*
X72990342Y-94795975D01*
X72990345Y-94795977D01*
X73162402Y-94910941D01*
X73353580Y-94990130D01*
X73556530Y-95030499D01*
X73556534Y-95030500D01*
X73556535Y-95030500D01*
X73763466Y-95030500D01*
X73763467Y-95030499D01*
X73966420Y-94990130D01*
X74157598Y-94910941D01*
X74329655Y-94795977D01*
X74475977Y-94649655D01*
X74590941Y-94477598D01*
X74670130Y-94286420D01*
X74710500Y-94083465D01*
X74710500Y-93876535D01*
X74670130Y-93673580D01*
X74590941Y-93482402D01*
X74475977Y-93310345D01*
X74475975Y-93310342D01*
X74468507Y-93302874D01*
X74435022Y-93241551D01*
X74440006Y-93171859D01*
X74481878Y-93115926D01*
X74498127Y-93106674D01*
X74497895Y-93106271D01*
X74504934Y-93102207D01*
X74596259Y-93049480D01*
X75426276Y-92219461D01*
X75487597Y-92185978D01*
X75557288Y-92190962D01*
X75613222Y-92232833D01*
X75621338Y-92245138D01*
X75639511Y-92276613D01*
X75723387Y-92360489D01*
X75806582Y-92408522D01*
X75826114Y-92419799D01*
X75831298Y-92421188D01*
X75886890Y-92453283D01*
X78563181Y-95129573D01*
X78596666Y-95190896D01*
X78599500Y-95217254D01*
X78599500Y-96670875D01*
X78579815Y-96737914D01*
X78527011Y-96783669D01*
X78457853Y-96793613D01*
X78443407Y-96790650D01*
X78365892Y-96769880D01*
X78234108Y-96769880D01*
X78106812Y-96803988D01*
X77992686Y-96869880D01*
X77992683Y-96869882D01*
X77899502Y-96963063D01*
X77899500Y-96963066D01*
X77833608Y-97077192D01*
X77803474Y-97189655D01*
X77799500Y-97204488D01*
X77799500Y-97336272D01*
X77833608Y-97463566D01*
X77882887Y-97548920D01*
X77899500Y-97610919D01*
X77899500Y-98549926D01*
X77879815Y-98616965D01*
X77863181Y-98637607D01*
X74922181Y-101578607D01*
X74860858Y-101612092D01*
X74791166Y-101607108D01*
X74735233Y-101565236D01*
X74711841Y-101502522D01*
X74711097Y-101502596D01*
X74710819Y-101499782D01*
X74710816Y-101499772D01*
X74710814Y-101499726D01*
X74710500Y-101496540D01*
X74710500Y-101496535D01*
X74670130Y-101293580D01*
X74590941Y-101102402D01*
X74475977Y-100930345D01*
X74475975Y-100930342D01*
X74329657Y-100784024D01*
X74217832Y-100709306D01*
X74157598Y-100669059D01*
X74086263Y-100639511D01*
X73966420Y-100589870D01*
X73966412Y-100589868D01*
X73763469Y-100549500D01*
X73763465Y-100549500D01*
X73556535Y-100549500D01*
X73556530Y-100549500D01*
X73353587Y-100589868D01*
X73353579Y-100589870D01*
X73162403Y-100669058D01*
X72990342Y-100784024D01*
X72844024Y-100930342D01*
X72729058Y-101102403D01*
X72649870Y-101293579D01*
X72649868Y-101293587D01*
X72609500Y-101496530D01*
X72609500Y-101703469D01*
X72649868Y-101906412D01*
X72649870Y-101906420D01*
X72729058Y-102097596D01*
X72844024Y-102269657D01*
X72938216Y-102363849D01*
X72971701Y-102425172D01*
X72966717Y-102494864D01*
X72924845Y-102550797D01*
X72912541Y-102558914D01*
X72895908Y-102568517D01*
X72895902Y-102568522D01*
X72088522Y-103375902D01*
X72088517Y-103375908D01*
X72078914Y-103392541D01*
X72028344Y-103440754D01*
X71959736Y-103453973D01*
X71894873Y-103428001D01*
X71883849Y-103418216D01*
X71789657Y-103324024D01*
X71664708Y-103240537D01*
X71617598Y-103209059D01*
X71613380Y-103207312D01*
X71426420Y-103129870D01*
X71426412Y-103129868D01*
X71223469Y-103089500D01*
X71223465Y-103089500D01*
X71016535Y-103089500D01*
X71016530Y-103089500D01*
X70813587Y-103129868D01*
X70813579Y-103129870D01*
X70622403Y-103209058D01*
X70450342Y-103324024D01*
X70304024Y-103470342D01*
X70189058Y-103642403D01*
X70109870Y-103833579D01*
X70109868Y-103833587D01*
X70069500Y-104036530D01*
X70069500Y-104243469D01*
X70109868Y-104446412D01*
X70109870Y-104446420D01*
X70189059Y-104637598D01*
X70217070Y-104679520D01*
X70304024Y-104809657D01*
X70450342Y-104955975D01*
X70450345Y-104955977D01*
X70622402Y-105070941D01*
X70813580Y-105150130D01*
X71016530Y-105190499D01*
X71016534Y-105190500D01*
X71016535Y-105190500D01*
X71223466Y-105190500D01*
X71223467Y-105190499D01*
X71426420Y-105150130D01*
X71617598Y-105070941D01*
X71789655Y-104955977D01*
X71791298Y-104954334D01*
X71796819Y-104948814D01*
X71858142Y-104915329D01*
X71927834Y-104920313D01*
X71983767Y-104962185D01*
X72008184Y-105027649D01*
X72008500Y-105036495D01*
X72008500Y-105783505D01*
X71988815Y-105850544D01*
X71936011Y-105896299D01*
X71866853Y-105906243D01*
X71803297Y-105877218D01*
X71796819Y-105871186D01*
X71789657Y-105864024D01*
X71623303Y-105752871D01*
X71617598Y-105749059D01*
X71555613Y-105723384D01*
X71426420Y-105669870D01*
X71426412Y-105669868D01*
X71223469Y-105629500D01*
X71223465Y-105629500D01*
X71016535Y-105629500D01*
X71016530Y-105629500D01*
X70813587Y-105669867D01*
X70813575Y-105669871D01*
X70793022Y-105678384D01*
X70723552Y-105685850D01*
X70661075Y-105654572D01*
X70657894Y-105651502D01*
X70196892Y-105190500D01*
X69685913Y-104679520D01*
X69640248Y-104653155D01*
X69594589Y-104626793D01*
X69543657Y-104613146D01*
X69492727Y-104599500D01*
X69492726Y-104599500D01*
X67989538Y-104599500D01*
X67927537Y-104582886D01*
X67922890Y-104580203D01*
X67922887Y-104580201D01*
X67894241Y-104572525D01*
X67808309Y-104549500D01*
X67689691Y-104549500D01*
X67575114Y-104580201D01*
X67575112Y-104580201D01*
X67575112Y-104580202D01*
X67472387Y-104639511D01*
X67472384Y-104639513D01*
X67388513Y-104723384D01*
X67388511Y-104723387D01*
X67338703Y-104809657D01*
X67329201Y-104826114D01*
X67298500Y-104940691D01*
X65300500Y-104940691D01*
X65300500Y-101496530D01*
X70069500Y-101496530D01*
X70069500Y-101703469D01*
X70109868Y-101906412D01*
X70109870Y-101906420D01*
X70189058Y-102097596D01*
X70304024Y-102269657D01*
X70450342Y-102415975D01*
X70450345Y-102415977D01*
X70622402Y-102530941D01*
X70813580Y-102610130D01*
X71016530Y-102650499D01*
X71016534Y-102650500D01*
X71016535Y-102650500D01*
X71223466Y-102650500D01*
X71223467Y-102650499D01*
X71426420Y-102610130D01*
X71617598Y-102530941D01*
X71789655Y-102415977D01*
X71935977Y-102269655D01*
X72050941Y-102097598D01*
X72130130Y-101906420D01*
X72170500Y-101703465D01*
X72170500Y-101496535D01*
X72130130Y-101293580D01*
X72050941Y-101102402D01*
X71935977Y-100930345D01*
X71935975Y-100930342D01*
X71789657Y-100784024D01*
X71677832Y-100709306D01*
X71617598Y-100669059D01*
X71546263Y-100639511D01*
X71426420Y-100589870D01*
X71426412Y-100589868D01*
X71223469Y-100549500D01*
X71223465Y-100549500D01*
X71016535Y-100549500D01*
X71016530Y-100549500D01*
X70813587Y-100589868D01*
X70813579Y-100589870D01*
X70622403Y-100669058D01*
X70450342Y-100784024D01*
X70304024Y-100930342D01*
X70189058Y-101102403D01*
X70109870Y-101293579D01*
X70109868Y-101293587D01*
X70069500Y-101496530D01*
X65300500Y-101496530D01*
X65300500Y-98956530D01*
X70069500Y-98956530D01*
X70069500Y-99163469D01*
X70109868Y-99366412D01*
X70109870Y-99366420D01*
X70188940Y-99557312D01*
X70189059Y-99557598D01*
X70204163Y-99580203D01*
X70304024Y-99729657D01*
X70450342Y-99875975D01*
X70450345Y-99875977D01*
X70622402Y-99990941D01*
X70813580Y-100070130D01*
X71016530Y-100110499D01*
X71016534Y-100110500D01*
X71016535Y-100110500D01*
X71223466Y-100110500D01*
X71223467Y-100110499D01*
X71426420Y-100070130D01*
X71617598Y-99990941D01*
X71789655Y-99875977D01*
X71935977Y-99729655D01*
X72050941Y-99557598D01*
X72130130Y-99366420D01*
X72170500Y-99163465D01*
X72170500Y-98956535D01*
X72130130Y-98753580D01*
X72050941Y-98562402D01*
X71935977Y-98390345D01*
X71935975Y-98390342D01*
X71789657Y-98244024D01*
X71697139Y-98182206D01*
X71617598Y-98129059D01*
X71533458Y-98094207D01*
X71426420Y-98049870D01*
X71426412Y-98049868D01*
X71223469Y-98009500D01*
X71223465Y-98009500D01*
X71016535Y-98009500D01*
X71016530Y-98009500D01*
X70813587Y-98049868D01*
X70813579Y-98049870D01*
X70622403Y-98129058D01*
X70450342Y-98244024D01*
X70304024Y-98390342D01*
X70189058Y-98562403D01*
X70109870Y-98753579D01*
X70109868Y-98753587D01*
X70069500Y-98956530D01*
X65300500Y-98956530D01*
X65300500Y-96416530D01*
X70069500Y-96416530D01*
X70069500Y-96623469D01*
X70109868Y-96826412D01*
X70109870Y-96826420D01*
X70126784Y-96867255D01*
X70189059Y-97017598D01*
X70246541Y-97103626D01*
X70304024Y-97189657D01*
X70450342Y-97335975D01*
X70451498Y-97336747D01*
X70622402Y-97450941D01*
X70813580Y-97530130D01*
X71016530Y-97570499D01*
X71016534Y-97570500D01*
X71016535Y-97570500D01*
X71223466Y-97570500D01*
X71223467Y-97570499D01*
X71426420Y-97530130D01*
X71446967Y-97521618D01*
X71516435Y-97514147D01*
X71578915Y-97545420D01*
X71582104Y-97548497D01*
X72163087Y-98129480D01*
X72254412Y-98182207D01*
X72356273Y-98209500D01*
X72732872Y-98209500D01*
X72799911Y-98229185D01*
X72845666Y-98281989D01*
X72855610Y-98351147D01*
X72835974Y-98402390D01*
X72729059Y-98562399D01*
X72729059Y-98562400D01*
X72649870Y-98753579D01*
X72649868Y-98753587D01*
X72609500Y-98956530D01*
X72609500Y-99163469D01*
X72649868Y-99366412D01*
X72649870Y-99366420D01*
X72728940Y-99557312D01*
X72729059Y-99557598D01*
X72744163Y-99580203D01*
X72844024Y-99729657D01*
X72990342Y-99875975D01*
X72990345Y-99875977D01*
X73162402Y-99990941D01*
X73353580Y-100070130D01*
X73556530Y-100110499D01*
X73556534Y-100110500D01*
X73556535Y-100110500D01*
X73763466Y-100110500D01*
X73763467Y-100110499D01*
X73966420Y-100070130D01*
X74157598Y-99990941D01*
X74329655Y-99875977D01*
X74475977Y-99729655D01*
X74590941Y-99557598D01*
X74670130Y-99366420D01*
X74710500Y-99163465D01*
X74710500Y-98956535D01*
X74670130Y-98753580D01*
X74590941Y-98562402D01*
X74590940Y-98562400D01*
X74590940Y-98562399D01*
X74484026Y-98402390D01*
X74463148Y-98335713D01*
X74481633Y-98268333D01*
X74533612Y-98221643D01*
X74587128Y-98209500D01*
X75580276Y-98209500D01*
X75647315Y-98229185D01*
X75667957Y-98245819D01*
X75669130Y-98246992D01*
X75669131Y-98246993D01*
X75753007Y-98330869D01*
X75855734Y-98390179D01*
X75970311Y-98420880D01*
X75970314Y-98420880D01*
X76088926Y-98420880D01*
X76088929Y-98420880D01*
X76203506Y-98390179D01*
X76306233Y-98330869D01*
X76390109Y-98246993D01*
X76449419Y-98144266D01*
X76480120Y-98029689D01*
X76480120Y-97911071D01*
X76449419Y-97796494D01*
X76390109Y-97693767D01*
X76306233Y-97609891D01*
X76246922Y-97575647D01*
X76203505Y-97550580D01*
X76203501Y-97550578D01*
X76198311Y-97549188D01*
X76142729Y-97517096D01*
X76114155Y-97488522D01*
X76114153Y-97488520D01*
X76068490Y-97462156D01*
X76022829Y-97435793D01*
X75971897Y-97422146D01*
X75920967Y-97408500D01*
X75920966Y-97408500D01*
X74556495Y-97408500D01*
X74489456Y-97388815D01*
X74443701Y-97336011D01*
X74433757Y-97266853D01*
X74462782Y-97203297D01*
X74468814Y-97196819D01*
X74475974Y-97189658D01*
X74475975Y-97189657D01*
X74475977Y-97189655D01*
X74590941Y-97017598D01*
X74670130Y-96826420D01*
X74710500Y-96623465D01*
X74710500Y-96416535D01*
X74670130Y-96213580D01*
X74590941Y-96022402D01*
X74475977Y-95850345D01*
X74475975Y-95850342D01*
X74329657Y-95704024D01*
X74223916Y-95633371D01*
X74157598Y-95589059D01*
X74082492Y-95557949D01*
X73966420Y-95509870D01*
X73966412Y-95509868D01*
X73763469Y-95469500D01*
X73763465Y-95469500D01*
X73556535Y-95469500D01*
X73556530Y-95469500D01*
X73353587Y-95509868D01*
X73353579Y-95509870D01*
X73162403Y-95589058D01*
X72990342Y-95704024D01*
X72844024Y-95850342D01*
X72729058Y-96022403D01*
X72649870Y-96213579D01*
X72649868Y-96213587D01*
X72609500Y-96416530D01*
X72609500Y-96623469D01*
X72649868Y-96826412D01*
X72649870Y-96826420D01*
X72666784Y-96867255D01*
X72729059Y-97017598D01*
X72786541Y-97103626D01*
X72844024Y-97189657D01*
X72851186Y-97196819D01*
X72861798Y-97216255D01*
X72876299Y-97232989D01*
X72878215Y-97246320D01*
X72884671Y-97258142D01*
X72883091Y-97280228D01*
X72886243Y-97302147D01*
X72880647Y-97314398D01*
X72879687Y-97327834D01*
X72866416Y-97345560D01*
X72857218Y-97365703D01*
X72845886Y-97372985D01*
X72837815Y-97383767D01*
X72817069Y-97391504D01*
X72798440Y-97403477D01*
X72776521Y-97406628D01*
X72772351Y-97408184D01*
X72763505Y-97408500D01*
X72626255Y-97408500D01*
X72559216Y-97388815D01*
X72538574Y-97372181D01*
X72148497Y-96982104D01*
X72115012Y-96920781D01*
X72119996Y-96851089D01*
X72121619Y-96846966D01*
X72130128Y-96826424D01*
X72130130Y-96826420D01*
X72170500Y-96623465D01*
X72170500Y-96416535D01*
X72130130Y-96213580D01*
X72050941Y-96022402D01*
X71935977Y-95850345D01*
X71935975Y-95850342D01*
X71789657Y-95704024D01*
X71683916Y-95633371D01*
X71617598Y-95589059D01*
X71542492Y-95557949D01*
X71426420Y-95509870D01*
X71426412Y-95509868D01*
X71223469Y-95469500D01*
X71223465Y-95469500D01*
X71016535Y-95469500D01*
X71016530Y-95469500D01*
X70813587Y-95509868D01*
X70813579Y-95509870D01*
X70622403Y-95589058D01*
X70450342Y-95704024D01*
X70304024Y-95850342D01*
X70189058Y-96022403D01*
X70109870Y-96213579D01*
X70109868Y-96213587D01*
X70069500Y-96416530D01*
X65300500Y-96416530D01*
X65300500Y-91336530D01*
X70069500Y-91336530D01*
X70069500Y-91543469D01*
X70109868Y-91746412D01*
X70109870Y-91746420D01*
X70189058Y-91937596D01*
X70304024Y-92109657D01*
X70450342Y-92255975D01*
X70450345Y-92255977D01*
X70622402Y-92370941D01*
X70813580Y-92450130D01*
X71016530Y-92490499D01*
X71016534Y-92490500D01*
X71016535Y-92490500D01*
X71223466Y-92490500D01*
X71223467Y-92490499D01*
X71426420Y-92450130D01*
X71617598Y-92370941D01*
X71789655Y-92255977D01*
X71935977Y-92109655D01*
X72050941Y-91937598D01*
X72130130Y-91746420D01*
X72170500Y-91543465D01*
X72170500Y-91336535D01*
X72130130Y-91133580D01*
X72050941Y-90942402D01*
X71935977Y-90770345D01*
X71935975Y-90770342D01*
X71789657Y-90624024D01*
X71678123Y-90549500D01*
X71617598Y-90509059D01*
X71526872Y-90471479D01*
X71426420Y-90429870D01*
X71426412Y-90429868D01*
X71223469Y-90389500D01*
X71223465Y-90389500D01*
X71016535Y-90389500D01*
X71016530Y-90389500D01*
X70813587Y-90429868D01*
X70813579Y-90429870D01*
X70622403Y-90509058D01*
X70450342Y-90624024D01*
X70304024Y-90770342D01*
X70189058Y-90942403D01*
X70109870Y-91133579D01*
X70109868Y-91133587D01*
X70069500Y-91336530D01*
X65300500Y-91336530D01*
X65300500Y-82950247D01*
X70069500Y-82950247D01*
X70069500Y-84689752D01*
X70081131Y-84748229D01*
X70081132Y-84748230D01*
X70125447Y-84814552D01*
X70191769Y-84858867D01*
X70191770Y-84858868D01*
X70250247Y-84870499D01*
X70250250Y-84870500D01*
X70250252Y-84870500D01*
X71552745Y-84870500D01*
X71619784Y-84890185D01*
X71640426Y-84906819D01*
X72163087Y-85429480D01*
X72254412Y-85482207D01*
X72356273Y-85509500D01*
X72461727Y-85509500D01*
X73906304Y-85509500D01*
X73938396Y-85513725D01*
X73946056Y-85515777D01*
X73960625Y-85519681D01*
X73960627Y-85519681D01*
X74079240Y-85519681D01*
X74079243Y-85519681D01*
X74193820Y-85488980D01*
X74296547Y-85429670D01*
X74380423Y-85345794D01*
X74439733Y-85243067D01*
X74470434Y-85128490D01*
X74470434Y-85009872D01*
X74439733Y-84895295D01*
X74380423Y-84792568D01*
X74364424Y-84776569D01*
X74330939Y-84715246D01*
X74335923Y-84645554D01*
X74364423Y-84601208D01*
X74475977Y-84489655D01*
X74590941Y-84317598D01*
X74670130Y-84126420D01*
X74710500Y-83923465D01*
X74710500Y-83716535D01*
X74670130Y-83513580D01*
X74590941Y-83322402D01*
X74475977Y-83150345D01*
X74475975Y-83150342D01*
X74329657Y-83004024D01*
X74164075Y-82893387D01*
X74157598Y-82889059D01*
X73966420Y-82809870D01*
X73966412Y-82809868D01*
X73763469Y-82769500D01*
X73763465Y-82769500D01*
X73556535Y-82769500D01*
X73556530Y-82769500D01*
X73353587Y-82809868D01*
X73353579Y-82809870D01*
X73162403Y-82889058D01*
X72990342Y-83004024D01*
X72844024Y-83150342D01*
X72729058Y-83322403D01*
X72649870Y-83513579D01*
X72649868Y-83513587D01*
X72609500Y-83716530D01*
X72609500Y-83923469D01*
X72649868Y-84126412D01*
X72649870Y-84126420D01*
X72729058Y-84317596D01*
X72844024Y-84489657D01*
X72851186Y-84496819D01*
X72861798Y-84516255D01*
X72876299Y-84532989D01*
X72878215Y-84546320D01*
X72884671Y-84558142D01*
X72883091Y-84580228D01*
X72886243Y-84602147D01*
X72880647Y-84614398D01*
X72879687Y-84627834D01*
X72866416Y-84645560D01*
X72857218Y-84665703D01*
X72845886Y-84672985D01*
X72837815Y-84683767D01*
X72817069Y-84691504D01*
X72798440Y-84703477D01*
X72776521Y-84706628D01*
X72772351Y-84708184D01*
X72763505Y-84708500D01*
X72626255Y-84708500D01*
X72559216Y-84688815D01*
X72538574Y-84672181D01*
X72206819Y-84340426D01*
X72173334Y-84279103D01*
X72170500Y-84252745D01*
X72170500Y-82950249D01*
X72170499Y-82950247D01*
X72158868Y-82891770D01*
X72158867Y-82891769D01*
X72114552Y-82825447D01*
X72048230Y-82781132D01*
X72048229Y-82781131D01*
X71989752Y-82769500D01*
X71989748Y-82769500D01*
X70250252Y-82769500D01*
X70250247Y-82769500D01*
X70191770Y-82781131D01*
X70191769Y-82781132D01*
X70125447Y-82825447D01*
X70081132Y-82891769D01*
X70081131Y-82891770D01*
X70069500Y-82950247D01*
X65300500Y-82950247D01*
X65300500Y-77288543D01*
X80279499Y-77288543D01*
X80317947Y-77481829D01*
X80317950Y-77481839D01*
X80393364Y-77663907D01*
X80393371Y-77663920D01*
X80502860Y-77827781D01*
X80502863Y-77827785D01*
X80642214Y-77967136D01*
X80642218Y-77967139D01*
X80806079Y-78076628D01*
X80806092Y-78076635D01*
X80960522Y-78140601D01*
X80988165Y-78152051D01*
X80988169Y-78152051D01*
X80988170Y-78152052D01*
X81181456Y-78190500D01*
X81181459Y-78190500D01*
X81378543Y-78190500D01*
X81508582Y-78164632D01*
X81571835Y-78152051D01*
X81753914Y-78076632D01*
X81917782Y-77967139D01*
X82057139Y-77827782D01*
X82166632Y-77663914D01*
X82242051Y-77481835D01*
X82280500Y-77288541D01*
X82280500Y-77091459D01*
X82280500Y-77091456D01*
X82242052Y-76898171D01*
X82242052Y-76898170D01*
X82242051Y-76898165D01*
X82242047Y-76898157D01*
X82240284Y-76892342D01*
X82242316Y-76891725D01*
X82235881Y-76831815D01*
X82267162Y-76769339D01*
X82270200Y-76766191D01*
X83599573Y-75436819D01*
X83660896Y-75403334D01*
X83687254Y-75400500D01*
X84759462Y-75400500D01*
X84821463Y-75417114D01*
X84826114Y-75419799D01*
X84940691Y-75450500D01*
X84940694Y-75450500D01*
X85059306Y-75450500D01*
X85059309Y-75450500D01*
X85173886Y-75419799D01*
X85178537Y-75417114D01*
X85240538Y-75400500D01*
X85651216Y-75400500D01*
X85718255Y-75420185D01*
X85738897Y-75436819D01*
X86289358Y-75987280D01*
X86322843Y-76048603D01*
X86317859Y-76118295D01*
X86275987Y-76174228D01*
X86225869Y-76196578D01*
X86068170Y-76227947D01*
X86068160Y-76227950D01*
X85886092Y-76303364D01*
X85886079Y-76303371D01*
X85722218Y-76412860D01*
X85722214Y-76412863D01*
X85582863Y-76552214D01*
X85582860Y-76552218D01*
X85473371Y-76716079D01*
X85473364Y-76716092D01*
X85397950Y-76898160D01*
X85397947Y-76898170D01*
X85359500Y-77091456D01*
X85359500Y-77091459D01*
X85359500Y-77288541D01*
X85359500Y-77288543D01*
X85359499Y-77288543D01*
X85397947Y-77481829D01*
X85397950Y-77481839D01*
X85473364Y-77663907D01*
X85473371Y-77663920D01*
X85582860Y-77827781D01*
X85582863Y-77827785D01*
X85722214Y-77967136D01*
X85722218Y-77967139D01*
X85886079Y-78076628D01*
X85886092Y-78076635D01*
X86040522Y-78140601D01*
X86068165Y-78152051D01*
X86068169Y-78152051D01*
X86068170Y-78152052D01*
X86261456Y-78190500D01*
X86261459Y-78190500D01*
X86458543Y-78190500D01*
X86588582Y-78164632D01*
X86651835Y-78152051D01*
X86833914Y-78076632D01*
X86997782Y-77967139D01*
X87049803Y-77915118D01*
X87111126Y-77881632D01*
X87180818Y-77886616D01*
X87235861Y-77927311D01*
X87240517Y-77933379D01*
X87240520Y-77933384D01*
X89627616Y-80320480D01*
X89718941Y-80373207D01*
X89820802Y-80400500D01*
X89926256Y-80400500D01*
X92259462Y-80400500D01*
X92321463Y-80417114D01*
X92326114Y-80419799D01*
X92440691Y-80450500D01*
X92440694Y-80450500D01*
X92559306Y-80450500D01*
X92559309Y-80450500D01*
X92673886Y-80419799D01*
X92678537Y-80417114D01*
X92740538Y-80400500D01*
X94782745Y-80400500D01*
X94849784Y-80420185D01*
X94870426Y-80436819D01*
X95546716Y-81113108D01*
X95578808Y-81168690D01*
X95580199Y-81173883D01*
X95580200Y-81173885D01*
X95605267Y-81217302D01*
X95639511Y-81276613D01*
X95723387Y-81360489D01*
X95826114Y-81419799D01*
X95940691Y-81450500D01*
X95940694Y-81450500D01*
X96059306Y-81450500D01*
X96059309Y-81450500D01*
X96173886Y-81419799D01*
X96276613Y-81360489D01*
X96360489Y-81276613D01*
X96419799Y-81173886D01*
X96450500Y-81059309D01*
X96450500Y-80940691D01*
X96419799Y-80826114D01*
X96360489Y-80723387D01*
X96276613Y-80639511D01*
X96217302Y-80605267D01*
X96173885Y-80580200D01*
X96173883Y-80580199D01*
X96168690Y-80578808D01*
X96113108Y-80546716D01*
X95245915Y-79679522D01*
X95245914Y-79679521D01*
X95245913Y-79679520D01*
X95200250Y-79653156D01*
X95154589Y-79626793D01*
X95103657Y-79613146D01*
X95052727Y-79599500D01*
X95052726Y-79599500D01*
X92740538Y-79599500D01*
X92678537Y-79582886D01*
X92673890Y-79580203D01*
X92673887Y-79580201D01*
X92645241Y-79572525D01*
X92559309Y-79549500D01*
X92440691Y-79549500D01*
X92371944Y-79567920D01*
X92326112Y-79580201D01*
X92326109Y-79580203D01*
X92321463Y-79582886D01*
X92259462Y-79599500D01*
X90090784Y-79599500D01*
X90023745Y-79579815D01*
X90003103Y-79563181D01*
X88842103Y-78402181D01*
X88808618Y-78340858D01*
X88813602Y-78271166D01*
X88855474Y-78215233D01*
X88920938Y-78190816D01*
X88929784Y-78190500D01*
X88998543Y-78190500D01*
X89128582Y-78164632D01*
X89191835Y-78152051D01*
X89373914Y-78076632D01*
X89537782Y-77967139D01*
X89677139Y-77827782D01*
X89786632Y-77663914D01*
X89862051Y-77481835D01*
X89900500Y-77288543D01*
X90439499Y-77288543D01*
X90477947Y-77481829D01*
X90477950Y-77481839D01*
X90553364Y-77663907D01*
X90553371Y-77663920D01*
X90662860Y-77827781D01*
X90662863Y-77827785D01*
X90802214Y-77967136D01*
X90802218Y-77967139D01*
X90966079Y-78076628D01*
X90966092Y-78076635D01*
X91120522Y-78140601D01*
X91148165Y-78152051D01*
X91148169Y-78152051D01*
X91148170Y-78152052D01*
X91341456Y-78190500D01*
X91341459Y-78190500D01*
X91538543Y-78190500D01*
X91668582Y-78164632D01*
X91731835Y-78152051D01*
X91913914Y-78076632D01*
X92077782Y-77967139D01*
X92217139Y-77827782D01*
X92326632Y-77663914D01*
X92402051Y-77481835D01*
X92440500Y-77288541D01*
X92440500Y-77132927D01*
X92460185Y-77065888D01*
X92512989Y-77020133D01*
X92582147Y-77010189D01*
X92626499Y-77025539D01*
X92684106Y-77058799D01*
X92798683Y-77089500D01*
X92798686Y-77089500D01*
X92855500Y-77089500D01*
X92922539Y-77109185D01*
X92968294Y-77161989D01*
X92979500Y-77213500D01*
X92979500Y-77288541D01*
X92979500Y-77288543D01*
X92979499Y-77288543D01*
X93017947Y-77481829D01*
X93017950Y-77481839D01*
X93093364Y-77663907D01*
X93093371Y-77663920D01*
X93202860Y-77827781D01*
X93202863Y-77827785D01*
X93342214Y-77967136D01*
X93342218Y-77967139D01*
X93506079Y-78076628D01*
X93506092Y-78076635D01*
X93660522Y-78140601D01*
X93688165Y-78152051D01*
X93688169Y-78152051D01*
X93688170Y-78152052D01*
X93881456Y-78190500D01*
X93881459Y-78190500D01*
X94078543Y-78190500D01*
X94208582Y-78164632D01*
X94271835Y-78152051D01*
X94453914Y-78076632D01*
X94617782Y-77967139D01*
X94757139Y-77827782D01*
X94866632Y-77663914D01*
X94942051Y-77481835D01*
X94980500Y-77288541D01*
X94980500Y-77205764D01*
X95000185Y-77138725D01*
X95052989Y-77092970D01*
X95072391Y-77085994D01*
X95173886Y-77058799D01*
X95276613Y-76999489D01*
X95313600Y-76962501D01*
X95374920Y-76929017D01*
X95444612Y-76934001D01*
X95500546Y-76975871D01*
X95524964Y-77041335D01*
X95522898Y-77074371D01*
X95519500Y-77091456D01*
X95519500Y-77091459D01*
X95519500Y-77288541D01*
X95519500Y-77288543D01*
X95519499Y-77288543D01*
X95557947Y-77481829D01*
X95557950Y-77481839D01*
X95633364Y-77663907D01*
X95633371Y-77663920D01*
X95742860Y-77827781D01*
X95742863Y-77827785D01*
X95882214Y-77967136D01*
X95882218Y-77967139D01*
X96046079Y-78076628D01*
X96046092Y-78076635D01*
X96200522Y-78140601D01*
X96228165Y-78152051D01*
X96228169Y-78152051D01*
X96228170Y-78152052D01*
X96421456Y-78190500D01*
X96421459Y-78190500D01*
X96618543Y-78190500D01*
X96748582Y-78164632D01*
X96811835Y-78152051D01*
X96993914Y-78076632D01*
X97157782Y-77967139D01*
X97297139Y-77827782D01*
X97406632Y-77663914D01*
X97482051Y-77481835D01*
X97520500Y-77288543D01*
X98059499Y-77288543D01*
X98097947Y-77481829D01*
X98097950Y-77481839D01*
X98173364Y-77663907D01*
X98173371Y-77663920D01*
X98282860Y-77827781D01*
X98282863Y-77827785D01*
X98422214Y-77967136D01*
X98422218Y-77967139D01*
X98586079Y-78076628D01*
X98586092Y-78076635D01*
X98740522Y-78140601D01*
X98768165Y-78152051D01*
X98768169Y-78152051D01*
X98768170Y-78152052D01*
X98961456Y-78190500D01*
X98961459Y-78190500D01*
X99158543Y-78190500D01*
X99288582Y-78164632D01*
X99351835Y-78152051D01*
X99533914Y-78076632D01*
X99697782Y-77967139D01*
X99837139Y-77827782D01*
X99946632Y-77663914D01*
X100022051Y-77481835D01*
X100060500Y-77288543D01*
X100599499Y-77288543D01*
X100637947Y-77481829D01*
X100637950Y-77481839D01*
X100713364Y-77663907D01*
X100713371Y-77663920D01*
X100822860Y-77827781D01*
X100822863Y-77827785D01*
X100962214Y-77967136D01*
X100962218Y-77967139D01*
X101126079Y-78076628D01*
X101126092Y-78076635D01*
X101280522Y-78140601D01*
X101308165Y-78152051D01*
X101308169Y-78152051D01*
X101308170Y-78152052D01*
X101501456Y-78190500D01*
X101501459Y-78190500D01*
X101698543Y-78190500D01*
X101828582Y-78164632D01*
X101891835Y-78152051D01*
X102073914Y-78076632D01*
X102237782Y-77967139D01*
X102377139Y-77827782D01*
X102486632Y-77663914D01*
X102562051Y-77481835D01*
X102600500Y-77288543D01*
X103139499Y-77288543D01*
X103177947Y-77481829D01*
X103177950Y-77481839D01*
X103253364Y-77663907D01*
X103253371Y-77663920D01*
X103362860Y-77827781D01*
X103362863Y-77827785D01*
X103502214Y-77967136D01*
X103502218Y-77967139D01*
X103666079Y-78076628D01*
X103666092Y-78076635D01*
X103820522Y-78140601D01*
X103848165Y-78152051D01*
X103848169Y-78152051D01*
X103848170Y-78152052D01*
X104041456Y-78190500D01*
X104041459Y-78190500D01*
X104238543Y-78190500D01*
X104368582Y-78164632D01*
X104431835Y-78152051D01*
X104613914Y-78076632D01*
X104777782Y-77967139D01*
X104917139Y-77827782D01*
X105026632Y-77663914D01*
X105102051Y-77481835D01*
X105140500Y-77288543D01*
X105679499Y-77288543D01*
X105717947Y-77481829D01*
X105717950Y-77481839D01*
X105793364Y-77663907D01*
X105793371Y-77663920D01*
X105902860Y-77827781D01*
X105902863Y-77827785D01*
X106042214Y-77967136D01*
X106042218Y-77967139D01*
X106206079Y-78076628D01*
X106206092Y-78076635D01*
X106360522Y-78140601D01*
X106388165Y-78152051D01*
X106388169Y-78152051D01*
X106388170Y-78152052D01*
X106581456Y-78190500D01*
X106581459Y-78190500D01*
X106778543Y-78190500D01*
X106908582Y-78164632D01*
X106971835Y-78152051D01*
X107153914Y-78076632D01*
X107317782Y-77967139D01*
X107457139Y-77827782D01*
X107566632Y-77663914D01*
X107642051Y-77481835D01*
X107680500Y-77288543D01*
X108219499Y-77288543D01*
X108257947Y-77481829D01*
X108257950Y-77481839D01*
X108333364Y-77663907D01*
X108333371Y-77663920D01*
X108442860Y-77827781D01*
X108442863Y-77827785D01*
X108582214Y-77967136D01*
X108582218Y-77967139D01*
X108746079Y-78076628D01*
X108746092Y-78076635D01*
X108900522Y-78140601D01*
X108928165Y-78152051D01*
X108928169Y-78152051D01*
X108928170Y-78152052D01*
X109121456Y-78190500D01*
X109121459Y-78190500D01*
X109318543Y-78190500D01*
X109448582Y-78164632D01*
X109511835Y-78152051D01*
X109693914Y-78076632D01*
X109857782Y-77967139D01*
X109997139Y-77827782D01*
X110106632Y-77663914D01*
X110182051Y-77481835D01*
X110220500Y-77288543D01*
X110759499Y-77288543D01*
X110797947Y-77481829D01*
X110797950Y-77481839D01*
X110873364Y-77663907D01*
X110873371Y-77663920D01*
X110982860Y-77827781D01*
X110982863Y-77827785D01*
X111122214Y-77967136D01*
X111122218Y-77967139D01*
X111286079Y-78076628D01*
X111286092Y-78076635D01*
X111440522Y-78140601D01*
X111468165Y-78152051D01*
X111468169Y-78152051D01*
X111468170Y-78152052D01*
X111661456Y-78190500D01*
X111661459Y-78190500D01*
X111858543Y-78190500D01*
X111988582Y-78164632D01*
X112051835Y-78152051D01*
X112233914Y-78076632D01*
X112397782Y-77967139D01*
X112537139Y-77827782D01*
X112646632Y-77663914D01*
X112722051Y-77481835D01*
X112760500Y-77288543D01*
X113299499Y-77288543D01*
X113337947Y-77481829D01*
X113337950Y-77481839D01*
X113413364Y-77663907D01*
X113413371Y-77663920D01*
X113522860Y-77827781D01*
X113522863Y-77827785D01*
X113662214Y-77967136D01*
X113662218Y-77967139D01*
X113826079Y-78076628D01*
X113826092Y-78076635D01*
X113980522Y-78140601D01*
X114008165Y-78152051D01*
X114008169Y-78152051D01*
X114008170Y-78152052D01*
X114201456Y-78190500D01*
X114201459Y-78190500D01*
X114398543Y-78190500D01*
X114528582Y-78164632D01*
X114591835Y-78152051D01*
X114773914Y-78076632D01*
X114937782Y-77967139D01*
X115077139Y-77827782D01*
X115186632Y-77663914D01*
X115262051Y-77481835D01*
X115300500Y-77288543D01*
X115839499Y-77288543D01*
X115877947Y-77481829D01*
X115877950Y-77481839D01*
X115953364Y-77663907D01*
X115953371Y-77663920D01*
X116062860Y-77827781D01*
X116062863Y-77827785D01*
X116202214Y-77967136D01*
X116202218Y-77967139D01*
X116366079Y-78076628D01*
X116366092Y-78076635D01*
X116520522Y-78140601D01*
X116548165Y-78152051D01*
X116548169Y-78152051D01*
X116548170Y-78152052D01*
X116741456Y-78190500D01*
X116741459Y-78190500D01*
X116938543Y-78190500D01*
X117068582Y-78164632D01*
X117131835Y-78152051D01*
X117313914Y-78076632D01*
X117477782Y-77967139D01*
X117617139Y-77827782D01*
X117726632Y-77663914D01*
X117802051Y-77481835D01*
X117840500Y-77288541D01*
X117840500Y-77091459D01*
X117840500Y-77091456D01*
X117802052Y-76898170D01*
X117802051Y-76898169D01*
X117802051Y-76898165D01*
X117799639Y-76892342D01*
X117726635Y-76716092D01*
X117726628Y-76716079D01*
X117617139Y-76552218D01*
X117617136Y-76552214D01*
X117489030Y-76424108D01*
X120999500Y-76424108D01*
X120999500Y-76555892D01*
X121033608Y-76683186D01*
X121082887Y-76768540D01*
X121099500Y-76830539D01*
X121099500Y-92789460D01*
X121082887Y-92851460D01*
X121033609Y-92936810D01*
X121033609Y-92936811D01*
X121033608Y-92936813D01*
X121033608Y-92936814D01*
X120999500Y-93064108D01*
X120999500Y-93195892D01*
X121011734Y-93241551D01*
X121033608Y-93323187D01*
X121037774Y-93330402D01*
X121099500Y-93437314D01*
X121192686Y-93530500D01*
X121306814Y-93596392D01*
X121434108Y-93630500D01*
X121434110Y-93630500D01*
X121565890Y-93630500D01*
X121565892Y-93630500D01*
X121693186Y-93596392D01*
X121807314Y-93530500D01*
X121900500Y-93437314D01*
X121966392Y-93323186D01*
X122000500Y-93195892D01*
X122000500Y-93064108D01*
X121966392Y-92936814D01*
X121962169Y-92929500D01*
X121917113Y-92851460D01*
X121900500Y-92789460D01*
X121900500Y-83110691D01*
X122768500Y-83110691D01*
X122768500Y-83229309D01*
X122799201Y-83343886D01*
X122801886Y-83348537D01*
X122818500Y-83410537D01*
X122818500Y-92791726D01*
X122845793Y-92893589D01*
X122866693Y-92929788D01*
X122898520Y-92984913D01*
X122898522Y-92984915D01*
X125971502Y-96057895D01*
X126004987Y-96119218D01*
X126000003Y-96188910D01*
X125998384Y-96193025D01*
X125989871Y-96213579D01*
X125989869Y-96213583D01*
X125989867Y-96213587D01*
X125949500Y-96416530D01*
X125949500Y-96623469D01*
X125989868Y-96826412D01*
X125989870Y-96826420D01*
X126006784Y-96867255D01*
X126069059Y-97017598D01*
X126126541Y-97103626D01*
X126184024Y-97189657D01*
X126330342Y-97335975D01*
X126331498Y-97336747D01*
X126502402Y-97450941D01*
X126693580Y-97530130D01*
X126896530Y-97570499D01*
X126896534Y-97570500D01*
X126896535Y-97570500D01*
X127103466Y-97570500D01*
X127103467Y-97570499D01*
X127306420Y-97530130D01*
X127497598Y-97450941D01*
X127669655Y-97335977D01*
X127815977Y-97189655D01*
X127930941Y-97017598D01*
X128010130Y-96826420D01*
X128050500Y-96623465D01*
X128050500Y-96416535D01*
X128050499Y-96416530D01*
X128489500Y-96416530D01*
X128489500Y-96623469D01*
X128529868Y-96826412D01*
X128529870Y-96826420D01*
X128546784Y-96867255D01*
X128609059Y-97017598D01*
X128666541Y-97103626D01*
X128724024Y-97189657D01*
X128870342Y-97335975D01*
X128871498Y-97336747D01*
X129042402Y-97450941D01*
X129233580Y-97530130D01*
X129436530Y-97570499D01*
X129436534Y-97570500D01*
X129436535Y-97570500D01*
X129643466Y-97570500D01*
X129643467Y-97570499D01*
X129846420Y-97530130D01*
X130037598Y-97450941D01*
X130209655Y-97335977D01*
X130355977Y-97189655D01*
X130470941Y-97017598D01*
X130550130Y-96826420D01*
X130590500Y-96623465D01*
X130590500Y-96416535D01*
X130550130Y-96213580D01*
X130470941Y-96022402D01*
X130355977Y-95850345D01*
X130355975Y-95850342D01*
X130209657Y-95704024D01*
X130103916Y-95633371D01*
X130037598Y-95589059D01*
X129962492Y-95557949D01*
X129846420Y-95509870D01*
X129846412Y-95509868D01*
X129643469Y-95469500D01*
X129643465Y-95469500D01*
X129436535Y-95469500D01*
X129436530Y-95469500D01*
X129233587Y-95509868D01*
X129233579Y-95509870D01*
X129042403Y-95589058D01*
X128870342Y-95704024D01*
X128724024Y-95850342D01*
X128609058Y-96022403D01*
X128529870Y-96213579D01*
X128529868Y-96213587D01*
X128489500Y-96416530D01*
X128050499Y-96416530D01*
X128010130Y-96213580D01*
X127930941Y-96022402D01*
X127815977Y-95850345D01*
X127815975Y-95850342D01*
X127669657Y-95704024D01*
X127563916Y-95633371D01*
X127497598Y-95589059D01*
X127422492Y-95557949D01*
X127306420Y-95509870D01*
X127306412Y-95509868D01*
X127103469Y-95469500D01*
X127103465Y-95469500D01*
X126896535Y-95469500D01*
X126896530Y-95469500D01*
X126693587Y-95509867D01*
X126693583Y-95509869D01*
X126693581Y-95509869D01*
X126693580Y-95509870D01*
X126678786Y-95515997D01*
X126673025Y-95518384D01*
X126603555Y-95525850D01*
X126541077Y-95494573D01*
X126537895Y-95491502D01*
X124922923Y-93876530D01*
X125949500Y-93876530D01*
X125949500Y-94083469D01*
X125989868Y-94286412D01*
X125989870Y-94286420D01*
X126057834Y-94450500D01*
X126069059Y-94477598D01*
X126126541Y-94563626D01*
X126184024Y-94649657D01*
X126330342Y-94795975D01*
X126330345Y-94795977D01*
X126502402Y-94910941D01*
X126693580Y-94990130D01*
X126896530Y-95030499D01*
X126896534Y-95030500D01*
X126896535Y-95030500D01*
X127103466Y-95030500D01*
X127103467Y-95030499D01*
X127306420Y-94990130D01*
X127497598Y-94910941D01*
X127669655Y-94795977D01*
X127815977Y-94649655D01*
X127930941Y-94477598D01*
X128010130Y-94286420D01*
X128050500Y-94083465D01*
X128050500Y-93876535D01*
X128010130Y-93673580D01*
X127930941Y-93482402D01*
X127815977Y-93310345D01*
X127815975Y-93310342D01*
X127669657Y-93164024D01*
X127577140Y-93102207D01*
X127497598Y-93049059D01*
X127458391Y-93032819D01*
X127306420Y-92969870D01*
X127306412Y-92969868D01*
X127103469Y-92929500D01*
X127103465Y-92929500D01*
X126896535Y-92929500D01*
X126896530Y-92929500D01*
X126693587Y-92969868D01*
X126693579Y-92969870D01*
X126502403Y-93049058D01*
X126330342Y-93164024D01*
X126184024Y-93310342D01*
X126069058Y-93482403D01*
X125989870Y-93673579D01*
X125989868Y-93673587D01*
X125949500Y-93876530D01*
X124922923Y-93876530D01*
X123655819Y-92609426D01*
X123622334Y-92548103D01*
X123619500Y-92521745D01*
X123619500Y-91336530D01*
X125949500Y-91336530D01*
X125949500Y-91543469D01*
X125989868Y-91746412D01*
X125989870Y-91746420D01*
X126069058Y-91937596D01*
X126184024Y-92109657D01*
X126330342Y-92255975D01*
X126330345Y-92255977D01*
X126502402Y-92370941D01*
X126693580Y-92450130D01*
X126896530Y-92490499D01*
X126896534Y-92490500D01*
X126896535Y-92490500D01*
X127103466Y-92490500D01*
X127103467Y-92490499D01*
X127306420Y-92450130D01*
X127497598Y-92370941D01*
X127669655Y-92255977D01*
X127815977Y-92109655D01*
X127930941Y-91937598D01*
X128010130Y-91746420D01*
X128050500Y-91543465D01*
X128050500Y-91336535D01*
X128050499Y-91336530D01*
X128489500Y-91336530D01*
X128489500Y-91543469D01*
X128529868Y-91746412D01*
X128529870Y-91746420D01*
X128609058Y-91937596D01*
X128724024Y-92109657D01*
X128870342Y-92255975D01*
X128870345Y-92255977D01*
X129042402Y-92370941D01*
X129233580Y-92450130D01*
X129436530Y-92490499D01*
X129436534Y-92490500D01*
X129436535Y-92490500D01*
X129643466Y-92490500D01*
X129643467Y-92490499D01*
X129846420Y-92450130D01*
X129866967Y-92441618D01*
X129936435Y-92434147D01*
X129998915Y-92465420D01*
X130002104Y-92468497D01*
X130663181Y-93129574D01*
X130696666Y-93190897D01*
X130699500Y-93217255D01*
X130699500Y-93415691D01*
X130679815Y-93482730D01*
X130627011Y-93528485D01*
X130557853Y-93538429D01*
X130494297Y-93509404D01*
X130472398Y-93484581D01*
X130355980Y-93310349D01*
X130355974Y-93310341D01*
X130209657Y-93164024D01*
X130117140Y-93102207D01*
X130037598Y-93049059D01*
X129998391Y-93032819D01*
X129846420Y-92969870D01*
X129846412Y-92969868D01*
X129643469Y-92929500D01*
X129643465Y-92929500D01*
X129436535Y-92929500D01*
X129436530Y-92929500D01*
X129233587Y-92969868D01*
X129233579Y-92969870D01*
X129042403Y-93049058D01*
X128870342Y-93164024D01*
X128724024Y-93310342D01*
X128609058Y-93482403D01*
X128529870Y-93673579D01*
X128529868Y-93673587D01*
X128489500Y-93876530D01*
X128489500Y-94083469D01*
X128529868Y-94286412D01*
X128529870Y-94286420D01*
X128597834Y-94450500D01*
X128609059Y-94477598D01*
X128666541Y-94563626D01*
X128724024Y-94649657D01*
X128870342Y-94795975D01*
X128870345Y-94795977D01*
X129042402Y-94910941D01*
X129233580Y-94990130D01*
X129436530Y-95030499D01*
X129436534Y-95030500D01*
X129436535Y-95030500D01*
X129643466Y-95030500D01*
X129643467Y-95030499D01*
X129846420Y-94990130D01*
X130037598Y-94910941D01*
X130209655Y-94795977D01*
X130355977Y-94649655D01*
X130470941Y-94477598D01*
X130550130Y-94286420D01*
X130590500Y-94083465D01*
X130590500Y-94015255D01*
X130610185Y-93948216D01*
X130662989Y-93902461D01*
X130732147Y-93892517D01*
X130795703Y-93921542D01*
X130802181Y-93927574D01*
X130987716Y-94113109D01*
X131019808Y-94168691D01*
X131021198Y-94173881D01*
X131021200Y-94173885D01*
X131046267Y-94217302D01*
X131080511Y-94276613D01*
X131164387Y-94360489D01*
X131267114Y-94419799D01*
X131381691Y-94450500D01*
X131381694Y-94450500D01*
X131500306Y-94450500D01*
X131500309Y-94450500D01*
X131614886Y-94419799D01*
X131717613Y-94360489D01*
X131801489Y-94276613D01*
X131860799Y-94173886D01*
X131891500Y-94059309D01*
X131891500Y-93940691D01*
X131860799Y-93826114D01*
X131801489Y-93723387D01*
X131717613Y-93639511D01*
X131648313Y-93599500D01*
X131614885Y-93580200D01*
X131614881Y-93580198D01*
X131609691Y-93578808D01*
X131595806Y-93570791D01*
X131582363Y-93567867D01*
X131554109Y-93546716D01*
X131536819Y-93529426D01*
X131503334Y-93468103D01*
X131500500Y-93441745D01*
X131500500Y-92947273D01*
X131495738Y-92929500D01*
X131473207Y-92845412D01*
X131420480Y-92754087D01*
X130568497Y-91902104D01*
X130535012Y-91840781D01*
X130539996Y-91771089D01*
X130541619Y-91766966D01*
X130550128Y-91746424D01*
X130550130Y-91746420D01*
X130590500Y-91543465D01*
X130590500Y-91336535D01*
X130550130Y-91133580D01*
X130470941Y-90942402D01*
X130355977Y-90770345D01*
X130355975Y-90770342D01*
X130209657Y-90624024D01*
X130098123Y-90549500D01*
X130037598Y-90509059D01*
X129946872Y-90471479D01*
X129846420Y-90429870D01*
X129846412Y-90429868D01*
X129643469Y-90389500D01*
X129643465Y-90389500D01*
X129436535Y-90389500D01*
X129436530Y-90389500D01*
X129233587Y-90429868D01*
X129233579Y-90429870D01*
X129042403Y-90509058D01*
X128870342Y-90624024D01*
X128724024Y-90770342D01*
X128609058Y-90942403D01*
X128529870Y-91133579D01*
X128529868Y-91133587D01*
X128489500Y-91336530D01*
X128050499Y-91336530D01*
X128010130Y-91133580D01*
X127930941Y-90942402D01*
X127815977Y-90770345D01*
X127815975Y-90770342D01*
X127669657Y-90624024D01*
X127558123Y-90549500D01*
X127497598Y-90509059D01*
X127406872Y-90471479D01*
X127306420Y-90429870D01*
X127306412Y-90429868D01*
X127103469Y-90389500D01*
X127103465Y-90389500D01*
X126896535Y-90389500D01*
X126896530Y-90389500D01*
X126693587Y-90429868D01*
X126693579Y-90429870D01*
X126502403Y-90509058D01*
X126330342Y-90624024D01*
X126184024Y-90770342D01*
X126069058Y-90942403D01*
X125989870Y-91133579D01*
X125989868Y-91133587D01*
X125949500Y-91336530D01*
X123619500Y-91336530D01*
X123619500Y-88796530D01*
X125949500Y-88796530D01*
X125949500Y-89003469D01*
X125989868Y-89206412D01*
X125989870Y-89206420D01*
X126069059Y-89397598D01*
X126102251Y-89447273D01*
X126184024Y-89569657D01*
X126330342Y-89715975D01*
X126330345Y-89715977D01*
X126502402Y-89830941D01*
X126693580Y-89910130D01*
X126896530Y-89950499D01*
X126896534Y-89950500D01*
X126896535Y-89950500D01*
X127103466Y-89950500D01*
X127103467Y-89950499D01*
X127306420Y-89910130D01*
X127497598Y-89830941D01*
X127669655Y-89715977D01*
X127815977Y-89569655D01*
X127930941Y-89397598D01*
X128010130Y-89206420D01*
X128050500Y-89003465D01*
X128050500Y-88796535D01*
X128050499Y-88796530D01*
X128489500Y-88796530D01*
X128489500Y-89003469D01*
X128529868Y-89206412D01*
X128529870Y-89206420D01*
X128609059Y-89397598D01*
X128642251Y-89447273D01*
X128724024Y-89569657D01*
X128870342Y-89715975D01*
X128870345Y-89715977D01*
X129042402Y-89830941D01*
X129233580Y-89910130D01*
X129436530Y-89950499D01*
X129436534Y-89950500D01*
X129436535Y-89950500D01*
X129643466Y-89950500D01*
X129643467Y-89950499D01*
X129846420Y-89910130D01*
X130037598Y-89830941D01*
X130209655Y-89715977D01*
X130355977Y-89569655D01*
X130470941Y-89397598D01*
X130550130Y-89206420D01*
X130590500Y-89003465D01*
X130590500Y-88796535D01*
X130550130Y-88593580D01*
X130470941Y-88402402D01*
X130355977Y-88230345D01*
X130355975Y-88230342D01*
X130209657Y-88084024D01*
X130123626Y-88026541D01*
X130037598Y-87969059D01*
X129946872Y-87931479D01*
X129846420Y-87889870D01*
X129846412Y-87889868D01*
X129643469Y-87849500D01*
X129643465Y-87849500D01*
X129436535Y-87849500D01*
X129436530Y-87849500D01*
X129233587Y-87889868D01*
X129233579Y-87889870D01*
X129042403Y-87969058D01*
X128870342Y-88084024D01*
X128724024Y-88230342D01*
X128609058Y-88402403D01*
X128529870Y-88593579D01*
X128529868Y-88593587D01*
X128489500Y-88796530D01*
X128050499Y-88796530D01*
X128010130Y-88593580D01*
X127930941Y-88402402D01*
X127815977Y-88230345D01*
X127815975Y-88230342D01*
X127669657Y-88084024D01*
X127583626Y-88026541D01*
X127497598Y-87969059D01*
X127406872Y-87931479D01*
X127306420Y-87889870D01*
X127306412Y-87889868D01*
X127103469Y-87849500D01*
X127103465Y-87849500D01*
X126896535Y-87849500D01*
X126896530Y-87849500D01*
X126693587Y-87889868D01*
X126693579Y-87889870D01*
X126502403Y-87969058D01*
X126330342Y-88084024D01*
X126184024Y-88230342D01*
X126069058Y-88402403D01*
X125989870Y-88593579D01*
X125989868Y-88593587D01*
X125949500Y-88796530D01*
X123619500Y-88796530D01*
X123619500Y-86256530D01*
X125949500Y-86256530D01*
X125949500Y-86463469D01*
X125989868Y-86666412D01*
X125989870Y-86666420D01*
X126069058Y-86857596D01*
X126184024Y-87029657D01*
X126330342Y-87175975D01*
X126330345Y-87175977D01*
X126502402Y-87290941D01*
X126693580Y-87370130D01*
X126896530Y-87410499D01*
X126896534Y-87410500D01*
X126896535Y-87410500D01*
X127103466Y-87410500D01*
X127103467Y-87410499D01*
X127306420Y-87370130D01*
X127497598Y-87290941D01*
X127669655Y-87175977D01*
X127815977Y-87029655D01*
X127930941Y-86857598D01*
X128010130Y-86666420D01*
X128050500Y-86463465D01*
X128050500Y-86256535D01*
X128010130Y-86053580D01*
X127930941Y-85862402D01*
X127815977Y-85690345D01*
X127815975Y-85690342D01*
X127669657Y-85544024D01*
X127498512Y-85429670D01*
X127497598Y-85429059D01*
X127306420Y-85349870D01*
X127306412Y-85349868D01*
X127103469Y-85309500D01*
X127103465Y-85309500D01*
X126896535Y-85309500D01*
X126896530Y-85309500D01*
X126693587Y-85349868D01*
X126693579Y-85349870D01*
X126502403Y-85429058D01*
X126330342Y-85544024D01*
X126184024Y-85690342D01*
X126069058Y-85862403D01*
X125989870Y-86053579D01*
X125989868Y-86053587D01*
X125949500Y-86256530D01*
X123619500Y-86256530D01*
X123619500Y-83410537D01*
X123636113Y-83348537D01*
X123638799Y-83343886D01*
X123669500Y-83229309D01*
X123669500Y-83110691D01*
X123638799Y-82996114D01*
X123612317Y-82950247D01*
X125949500Y-82950247D01*
X125949500Y-84689752D01*
X125961131Y-84748229D01*
X125961132Y-84748230D01*
X126005447Y-84814552D01*
X126071769Y-84858867D01*
X126071770Y-84858868D01*
X126130247Y-84870499D01*
X126130250Y-84870500D01*
X126130252Y-84870500D01*
X127869750Y-84870500D01*
X127869751Y-84870499D01*
X127884568Y-84867552D01*
X127928229Y-84858868D01*
X127928229Y-84858867D01*
X127928231Y-84858867D01*
X127994552Y-84814552D01*
X128038867Y-84748231D01*
X128038867Y-84748229D01*
X128038868Y-84748229D01*
X128050499Y-84689752D01*
X128050500Y-84689750D01*
X128050500Y-83716530D01*
X128489500Y-83716530D01*
X128489500Y-83923469D01*
X128529868Y-84126412D01*
X128529870Y-84126420D01*
X128609058Y-84317596D01*
X128724024Y-84489657D01*
X128870342Y-84635975D01*
X128870345Y-84635977D01*
X129042402Y-84750941D01*
X129233580Y-84830130D01*
X129378052Y-84858867D01*
X129436530Y-84870499D01*
X129436534Y-84870500D01*
X129436535Y-84870500D01*
X129643466Y-84870500D01*
X129643467Y-84870499D01*
X129846420Y-84830130D01*
X130037598Y-84750941D01*
X130209655Y-84635977D01*
X130355977Y-84489655D01*
X130470941Y-84317598D01*
X130550130Y-84126420D01*
X130590500Y-83923465D01*
X130590500Y-83716535D01*
X130550130Y-83513580D01*
X130470941Y-83322402D01*
X130355977Y-83150345D01*
X130355975Y-83150342D01*
X130209657Y-83004024D01*
X130044075Y-82893387D01*
X130037598Y-82889059D01*
X129846420Y-82809870D01*
X129846412Y-82809868D01*
X129643469Y-82769500D01*
X129643465Y-82769500D01*
X129436535Y-82769500D01*
X129436530Y-82769500D01*
X129233587Y-82809868D01*
X129233579Y-82809870D01*
X129042403Y-82889058D01*
X128870342Y-83004024D01*
X128724024Y-83150342D01*
X128609058Y-83322403D01*
X128529870Y-83513579D01*
X128529868Y-83513587D01*
X128489500Y-83716530D01*
X128050500Y-83716530D01*
X128050500Y-82950249D01*
X128050499Y-82950247D01*
X128038868Y-82891770D01*
X128038867Y-82891769D01*
X127994552Y-82825447D01*
X127928230Y-82781132D01*
X127928229Y-82781131D01*
X127869752Y-82769500D01*
X127869748Y-82769500D01*
X126130252Y-82769500D01*
X126130247Y-82769500D01*
X126071770Y-82781131D01*
X126071769Y-82781132D01*
X126005447Y-82825447D01*
X125961132Y-82891769D01*
X125961131Y-82891770D01*
X125949500Y-82950247D01*
X123612317Y-82950247D01*
X123579489Y-82893387D01*
X123495613Y-82809511D01*
X123392886Y-82750201D01*
X123278309Y-82719500D01*
X123159691Y-82719500D01*
X123045114Y-82750201D01*
X123045112Y-82750201D01*
X123045112Y-82750202D01*
X122942387Y-82809511D01*
X122942384Y-82809513D01*
X122858513Y-82893384D01*
X122858511Y-82893387D01*
X122825683Y-82950247D01*
X122799201Y-82996114D01*
X122768500Y-83110691D01*
X121900500Y-83110691D01*
X121900500Y-76830539D01*
X121917112Y-76768540D01*
X121966392Y-76683186D01*
X122000500Y-76555892D01*
X122000500Y-76424108D01*
X121966392Y-76296814D01*
X121900500Y-76182686D01*
X121807314Y-76089500D01*
X121750250Y-76056554D01*
X121693187Y-76023608D01*
X121609397Y-76001157D01*
X121565892Y-75989500D01*
X121434108Y-75989500D01*
X121306812Y-76023608D01*
X121192686Y-76089500D01*
X121192683Y-76089502D01*
X121099502Y-76182683D01*
X121099500Y-76182686D01*
X121033608Y-76296812D01*
X121002514Y-76412860D01*
X120999500Y-76424108D01*
X117489030Y-76424108D01*
X117477785Y-76412863D01*
X117477781Y-76412860D01*
X117313920Y-76303371D01*
X117313907Y-76303364D01*
X117131839Y-76227950D01*
X117131829Y-76227947D01*
X116938543Y-76189500D01*
X116938541Y-76189500D01*
X116741459Y-76189500D01*
X116741457Y-76189500D01*
X116548170Y-76227947D01*
X116548160Y-76227950D01*
X116366092Y-76303364D01*
X116366079Y-76303371D01*
X116202218Y-76412860D01*
X116202214Y-76412863D01*
X116062863Y-76552214D01*
X116062860Y-76552218D01*
X115953371Y-76716079D01*
X115953364Y-76716092D01*
X115877950Y-76898160D01*
X115877947Y-76898170D01*
X115839500Y-77091456D01*
X115839500Y-77091459D01*
X115839500Y-77288541D01*
X115839500Y-77288543D01*
X115839499Y-77288543D01*
X115300500Y-77288543D01*
X115300500Y-77288541D01*
X115300500Y-77091459D01*
X115300500Y-77091456D01*
X115262052Y-76898170D01*
X115262051Y-76898169D01*
X115262051Y-76898165D01*
X115259639Y-76892342D01*
X115186635Y-76716092D01*
X115186628Y-76716079D01*
X115077139Y-76552218D01*
X115077136Y-76552214D01*
X114937785Y-76412863D01*
X114937781Y-76412860D01*
X114773920Y-76303371D01*
X114773907Y-76303364D01*
X114591839Y-76227950D01*
X114591829Y-76227947D01*
X114398543Y-76189500D01*
X114398541Y-76189500D01*
X114201459Y-76189500D01*
X114201457Y-76189500D01*
X114008170Y-76227947D01*
X114008160Y-76227950D01*
X113826092Y-76303364D01*
X113826079Y-76303371D01*
X113662218Y-76412860D01*
X113662214Y-76412863D01*
X113522863Y-76552214D01*
X113522860Y-76552218D01*
X113413371Y-76716079D01*
X113413364Y-76716092D01*
X113337950Y-76898160D01*
X113337947Y-76898170D01*
X113299500Y-77091456D01*
X113299500Y-77091459D01*
X113299500Y-77288541D01*
X113299500Y-77288543D01*
X113299499Y-77288543D01*
X112760500Y-77288543D01*
X112760500Y-77288541D01*
X112760500Y-77091459D01*
X112760500Y-77091456D01*
X112722052Y-76898170D01*
X112722051Y-76898169D01*
X112722051Y-76898165D01*
X112719639Y-76892342D01*
X112646635Y-76716092D01*
X112646628Y-76716079D01*
X112537139Y-76552218D01*
X112537136Y-76552214D01*
X112397785Y-76412863D01*
X112397781Y-76412860D01*
X112233920Y-76303371D01*
X112233907Y-76303364D01*
X112051839Y-76227950D01*
X112051829Y-76227947D01*
X111858543Y-76189500D01*
X111858541Y-76189500D01*
X111661459Y-76189500D01*
X111661457Y-76189500D01*
X111468170Y-76227947D01*
X111468160Y-76227950D01*
X111286092Y-76303364D01*
X111286079Y-76303371D01*
X111122218Y-76412860D01*
X111122214Y-76412863D01*
X110982863Y-76552214D01*
X110982860Y-76552218D01*
X110873371Y-76716079D01*
X110873364Y-76716092D01*
X110797950Y-76898160D01*
X110797947Y-76898170D01*
X110759500Y-77091456D01*
X110759500Y-77091459D01*
X110759500Y-77288541D01*
X110759500Y-77288543D01*
X110759499Y-77288543D01*
X110220500Y-77288543D01*
X110220500Y-77288541D01*
X110220500Y-77091459D01*
X110220500Y-77091456D01*
X110182052Y-76898170D01*
X110182051Y-76898169D01*
X110182051Y-76898165D01*
X110179639Y-76892342D01*
X110106635Y-76716092D01*
X110106628Y-76716079D01*
X109997139Y-76552218D01*
X109997136Y-76552214D01*
X109857785Y-76412863D01*
X109857781Y-76412860D01*
X109693920Y-76303371D01*
X109693907Y-76303364D01*
X109511839Y-76227950D01*
X109511829Y-76227947D01*
X109318543Y-76189500D01*
X109318541Y-76189500D01*
X109121459Y-76189500D01*
X109121457Y-76189500D01*
X108928170Y-76227947D01*
X108928160Y-76227950D01*
X108746092Y-76303364D01*
X108746079Y-76303371D01*
X108582218Y-76412860D01*
X108582214Y-76412863D01*
X108442863Y-76552214D01*
X108442860Y-76552218D01*
X108333371Y-76716079D01*
X108333364Y-76716092D01*
X108257950Y-76898160D01*
X108257947Y-76898170D01*
X108219500Y-77091456D01*
X108219500Y-77091459D01*
X108219500Y-77288541D01*
X108219500Y-77288543D01*
X108219499Y-77288543D01*
X107680500Y-77288543D01*
X107680500Y-77288541D01*
X107680500Y-77091459D01*
X107680500Y-77091456D01*
X107642052Y-76898170D01*
X107642051Y-76898169D01*
X107642051Y-76898165D01*
X107639639Y-76892342D01*
X107566635Y-76716092D01*
X107566628Y-76716079D01*
X107457139Y-76552218D01*
X107457136Y-76552214D01*
X107317785Y-76412863D01*
X107317781Y-76412860D01*
X107153920Y-76303371D01*
X107153907Y-76303364D01*
X106971839Y-76227950D01*
X106971829Y-76227947D01*
X106778543Y-76189500D01*
X106778541Y-76189500D01*
X106581459Y-76189500D01*
X106581457Y-76189500D01*
X106388170Y-76227947D01*
X106388160Y-76227950D01*
X106206092Y-76303364D01*
X106206079Y-76303371D01*
X106042218Y-76412860D01*
X106042214Y-76412863D01*
X105902863Y-76552214D01*
X105902860Y-76552218D01*
X105793371Y-76716079D01*
X105793364Y-76716092D01*
X105717950Y-76898160D01*
X105717947Y-76898170D01*
X105679500Y-77091456D01*
X105679500Y-77091459D01*
X105679500Y-77288541D01*
X105679500Y-77288543D01*
X105679499Y-77288543D01*
X105140500Y-77288543D01*
X105140500Y-77288541D01*
X105140500Y-77091459D01*
X105140500Y-77091456D01*
X105102052Y-76898170D01*
X105102051Y-76898169D01*
X105102051Y-76898165D01*
X105099639Y-76892342D01*
X105026635Y-76716092D01*
X105026628Y-76716079D01*
X104917139Y-76552218D01*
X104917136Y-76552214D01*
X104777785Y-76412863D01*
X104777781Y-76412860D01*
X104613920Y-76303371D01*
X104613907Y-76303364D01*
X104431839Y-76227950D01*
X104431829Y-76227947D01*
X104238543Y-76189500D01*
X104238541Y-76189500D01*
X104041459Y-76189500D01*
X104041457Y-76189500D01*
X103848170Y-76227947D01*
X103848160Y-76227950D01*
X103666092Y-76303364D01*
X103666079Y-76303371D01*
X103502218Y-76412860D01*
X103502214Y-76412863D01*
X103362863Y-76552214D01*
X103362860Y-76552218D01*
X103253371Y-76716079D01*
X103253364Y-76716092D01*
X103177950Y-76898160D01*
X103177947Y-76898170D01*
X103139500Y-77091456D01*
X103139500Y-77091459D01*
X103139500Y-77288541D01*
X103139500Y-77288543D01*
X103139499Y-77288543D01*
X102600500Y-77288543D01*
X102600500Y-77288541D01*
X102600500Y-77091459D01*
X102600500Y-77091456D01*
X102562052Y-76898170D01*
X102562051Y-76898169D01*
X102562051Y-76898165D01*
X102559639Y-76892342D01*
X102486635Y-76716092D01*
X102486628Y-76716079D01*
X102377139Y-76552218D01*
X102377136Y-76552214D01*
X102237785Y-76412863D01*
X102237781Y-76412860D01*
X102073920Y-76303371D01*
X102073907Y-76303364D01*
X101891839Y-76227950D01*
X101891829Y-76227947D01*
X101698543Y-76189500D01*
X101698541Y-76189500D01*
X101501459Y-76189500D01*
X101501457Y-76189500D01*
X101308170Y-76227947D01*
X101308160Y-76227950D01*
X101126092Y-76303364D01*
X101126079Y-76303371D01*
X100962218Y-76412860D01*
X100962214Y-76412863D01*
X100822863Y-76552214D01*
X100822860Y-76552218D01*
X100713371Y-76716079D01*
X100713364Y-76716092D01*
X100637950Y-76898160D01*
X100637947Y-76898170D01*
X100599500Y-77091456D01*
X100599500Y-77091459D01*
X100599500Y-77288541D01*
X100599500Y-77288543D01*
X100599499Y-77288543D01*
X100060500Y-77288543D01*
X100060500Y-77288541D01*
X100060500Y-77091459D01*
X100060500Y-77091456D01*
X100022052Y-76898170D01*
X100022051Y-76898169D01*
X100022051Y-76898165D01*
X100019639Y-76892342D01*
X99946635Y-76716092D01*
X99946628Y-76716079D01*
X99837139Y-76552218D01*
X99837136Y-76552214D01*
X99697785Y-76412863D01*
X99697781Y-76412860D01*
X99533920Y-76303371D01*
X99533907Y-76303364D01*
X99351839Y-76227950D01*
X99351829Y-76227947D01*
X99158543Y-76189500D01*
X99158541Y-76189500D01*
X98961459Y-76189500D01*
X98961457Y-76189500D01*
X98768170Y-76227947D01*
X98768160Y-76227950D01*
X98586092Y-76303364D01*
X98586079Y-76303371D01*
X98422218Y-76412860D01*
X98422214Y-76412863D01*
X98282863Y-76552214D01*
X98282860Y-76552218D01*
X98173371Y-76716079D01*
X98173364Y-76716092D01*
X98097950Y-76898160D01*
X98097947Y-76898170D01*
X98059500Y-77091456D01*
X98059500Y-77091459D01*
X98059500Y-77288541D01*
X98059500Y-77288543D01*
X98059499Y-77288543D01*
X97520500Y-77288543D01*
X97520500Y-77288541D01*
X97520500Y-77091459D01*
X97520500Y-77091456D01*
X97482052Y-76898170D01*
X97482051Y-76898169D01*
X97482051Y-76898165D01*
X97479639Y-76892342D01*
X97406635Y-76716092D01*
X97406628Y-76716079D01*
X97297139Y-76552218D01*
X97297136Y-76552214D01*
X97157785Y-76412863D01*
X97157781Y-76412860D01*
X96993920Y-76303371D01*
X96993907Y-76303364D01*
X96811839Y-76227950D01*
X96811829Y-76227947D01*
X96618543Y-76189500D01*
X96618541Y-76189500D01*
X96421459Y-76189500D01*
X96421454Y-76189500D01*
X96316106Y-76210455D01*
X96246514Y-76204228D01*
X96191337Y-76161364D01*
X96168093Y-76095475D01*
X96184161Y-76027478D01*
X96204231Y-76001160D01*
X98245910Y-73959481D01*
X98245913Y-73959480D01*
X98264702Y-73940691D01*
X103549500Y-73940691D01*
X103549500Y-74059309D01*
X103580201Y-74173886D01*
X103639511Y-74276613D01*
X103723387Y-74360489D01*
X103826114Y-74419799D01*
X103831298Y-74421188D01*
X103886890Y-74453283D01*
X104563181Y-75129573D01*
X104577884Y-75156500D01*
X104594477Y-75182319D01*
X104595368Y-75188519D01*
X104596666Y-75190896D01*
X104599500Y-75217254D01*
X104599500Y-75409461D01*
X104582889Y-75471458D01*
X104580202Y-75476111D01*
X104580201Y-75476112D01*
X104564850Y-75533402D01*
X104549500Y-75590691D01*
X104549500Y-75709309D01*
X104580201Y-75823886D01*
X104639511Y-75926613D01*
X104723387Y-76010489D01*
X104826114Y-76069799D01*
X104940691Y-76100500D01*
X104940694Y-76100500D01*
X105059306Y-76100500D01*
X105059309Y-76100500D01*
X105173886Y-76069799D01*
X105276613Y-76010489D01*
X105360489Y-75926613D01*
X105419799Y-75823886D01*
X105450500Y-75709309D01*
X105450500Y-75590691D01*
X105419799Y-75476114D01*
X105417111Y-75471458D01*
X105400500Y-75409461D01*
X105400500Y-75062729D01*
X105400501Y-75062716D01*
X105400501Y-74947274D01*
X105400501Y-74947273D01*
X105373207Y-74845413D01*
X105323628Y-74759540D01*
X105320480Y-74754087D01*
X105245913Y-74679520D01*
X105245910Y-74679518D01*
X104858615Y-74292223D01*
X104453283Y-73886890D01*
X104421188Y-73831298D01*
X104419799Y-73826114D01*
X104401019Y-73793587D01*
X104360489Y-73723387D01*
X104276613Y-73639511D01*
X104173886Y-73580201D01*
X104059309Y-73549500D01*
X103940691Y-73549500D01*
X103826114Y-73580201D01*
X103826112Y-73580201D01*
X103826112Y-73580202D01*
X103723387Y-73639511D01*
X103723384Y-73639513D01*
X103639513Y-73723384D01*
X103639511Y-73723387D01*
X103580201Y-73826114D01*
X103549500Y-73940691D01*
X98264702Y-73940691D01*
X98320480Y-73884913D01*
X98373207Y-73793587D01*
X98400501Y-73691727D01*
X98400501Y-73586273D01*
X98400501Y-73578678D01*
X98400500Y-73578660D01*
X98400500Y-73217253D01*
X98420185Y-73150214D01*
X98436815Y-73129576D01*
X99113109Y-72453281D01*
X99168702Y-72421187D01*
X99173886Y-72419799D01*
X99276613Y-72360489D01*
X99360489Y-72276613D01*
X99419799Y-72173886D01*
X99450500Y-72059309D01*
X99450500Y-71940691D01*
X99419799Y-71826114D01*
X99360489Y-71723387D01*
X99276613Y-71639511D01*
X99173886Y-71580201D01*
X99059309Y-71549500D01*
X98940691Y-71549500D01*
X98826114Y-71580201D01*
X98826112Y-71580201D01*
X98826112Y-71580202D01*
X98723387Y-71639511D01*
X98723384Y-71639513D01*
X98639513Y-71723384D01*
X98639511Y-71723387D01*
X98580200Y-71826114D01*
X98578808Y-71831311D01*
X98546716Y-71886890D01*
X97679522Y-72754084D01*
X97679518Y-72754090D01*
X97626792Y-72845412D01*
X97626793Y-72845413D01*
X97599500Y-72947273D01*
X97599500Y-73421744D01*
X97579815Y-73488783D01*
X97563181Y-73509425D01*
X94886888Y-76185717D01*
X94831305Y-76217810D01*
X94826115Y-76219200D01*
X94826114Y-76219201D01*
X94723390Y-76278509D01*
X94723387Y-76278511D01*
X94672507Y-76329390D01*
X94611183Y-76362874D01*
X94541491Y-76357888D01*
X94515937Y-76344810D01*
X94453917Y-76303370D01*
X94453916Y-76303369D01*
X94453914Y-76303368D01*
X94453911Y-76303366D01*
X94453906Y-76303364D01*
X94271839Y-76227950D01*
X94271829Y-76227947D01*
X94078543Y-76189500D01*
X94078541Y-76189500D01*
X93881459Y-76189500D01*
X93881457Y-76189500D01*
X93688170Y-76227947D01*
X93688160Y-76227950D01*
X93506092Y-76303364D01*
X93506081Y-76303370D01*
X93451382Y-76339919D01*
X93384704Y-76360796D01*
X93317324Y-76342311D01*
X93270635Y-76290332D01*
X93258492Y-76236816D01*
X93258492Y-74359262D01*
X93278177Y-74292223D01*
X93294807Y-74271585D01*
X94113110Y-73453281D01*
X94168704Y-73421187D01*
X94173886Y-73419799D01*
X94276613Y-73360489D01*
X94360489Y-73276613D01*
X94419799Y-73173886D01*
X94450500Y-73059309D01*
X94450500Y-72940691D01*
X94419799Y-72826114D01*
X94360489Y-72723387D01*
X94276613Y-72639511D01*
X94173886Y-72580201D01*
X94059309Y-72549500D01*
X93940691Y-72549500D01*
X93826114Y-72580201D01*
X93826112Y-72580201D01*
X93826112Y-72580202D01*
X93723387Y-72639511D01*
X93723384Y-72639513D01*
X93639513Y-72723384D01*
X93639509Y-72723390D01*
X93580201Y-72826114D01*
X93580200Y-72826115D01*
X93578810Y-72831305D01*
X93546717Y-72886888D01*
X92537514Y-73896092D01*
X92537512Y-73896095D01*
X92484783Y-73987422D01*
X92466934Y-74054041D01*
X92457492Y-74089279D01*
X92457492Y-76398461D01*
X92450500Y-76439513D01*
X92446668Y-76450434D01*
X92438193Y-76465114D01*
X92427445Y-76505224D01*
X92425892Y-76509652D01*
X92408130Y-76534372D01*
X92392292Y-76560356D01*
X92387943Y-76562468D01*
X92385123Y-76566394D01*
X92356823Y-76577584D01*
X92329444Y-76590884D01*
X92324643Y-76590309D01*
X92320149Y-76592087D01*
X92290292Y-76586201D01*
X92260069Y-76582587D01*
X92255184Y-76579280D01*
X92251598Y-76578574D01*
X92245556Y-76572764D01*
X92221203Y-76556281D01*
X92077785Y-76412863D01*
X92077781Y-76412860D01*
X91913920Y-76303371D01*
X91913907Y-76303364D01*
X91731839Y-76227950D01*
X91731829Y-76227947D01*
X91538543Y-76189500D01*
X91538541Y-76189500D01*
X91341459Y-76189500D01*
X91341457Y-76189500D01*
X91148170Y-76227947D01*
X91148160Y-76227950D01*
X90966092Y-76303364D01*
X90966079Y-76303371D01*
X90802218Y-76412860D01*
X90802214Y-76412863D01*
X90662863Y-76552214D01*
X90662860Y-76552218D01*
X90553371Y-76716079D01*
X90553364Y-76716092D01*
X90477950Y-76898160D01*
X90477947Y-76898170D01*
X90439500Y-77091456D01*
X90439500Y-77091459D01*
X90439500Y-77288541D01*
X90439500Y-77288543D01*
X90439499Y-77288543D01*
X89900500Y-77288543D01*
X89900500Y-77288541D01*
X89900500Y-77091459D01*
X89900500Y-77091456D01*
X89862052Y-76898170D01*
X89862051Y-76898169D01*
X89862051Y-76898165D01*
X89859639Y-76892342D01*
X89786635Y-76716092D01*
X89786628Y-76716079D01*
X89677139Y-76552218D01*
X89677136Y-76552214D01*
X89537785Y-76412863D01*
X89537781Y-76412860D01*
X89373920Y-76303371D01*
X89373907Y-76303364D01*
X89191839Y-76227950D01*
X89191829Y-76227947D01*
X88998543Y-76189500D01*
X88998541Y-76189500D01*
X88801459Y-76189500D01*
X88801457Y-76189500D01*
X88608170Y-76227947D01*
X88608160Y-76227950D01*
X88426092Y-76303364D01*
X88426079Y-76303371D01*
X88262218Y-76412860D01*
X88122752Y-76552326D01*
X88061429Y-76585810D01*
X87991737Y-76580826D01*
X87935804Y-76538954D01*
X87927684Y-76526644D01*
X87917874Y-76509652D01*
X87881480Y-76446616D01*
X87806913Y-76372049D01*
X86114384Y-74679520D01*
X86068721Y-74653156D01*
X86023060Y-74626793D01*
X85972128Y-74613146D01*
X85921198Y-74599500D01*
X85921197Y-74599500D01*
X85240538Y-74599500D01*
X85178537Y-74582886D01*
X85173890Y-74580203D01*
X85173887Y-74580201D01*
X85145241Y-74572525D01*
X85059309Y-74549500D01*
X84940691Y-74549500D01*
X84871944Y-74567920D01*
X84826112Y-74580201D01*
X84826109Y-74580203D01*
X84821463Y-74582886D01*
X84759462Y-74599500D01*
X83530339Y-74599500D01*
X83530323Y-74599499D01*
X83522727Y-74599499D01*
X83417273Y-74599499D01*
X83349366Y-74617695D01*
X83315412Y-74626793D01*
X83253034Y-74662807D01*
X83224091Y-74679518D01*
X83224084Y-74679522D01*
X83149518Y-74754089D01*
X81703835Y-76199770D01*
X81642512Y-76233255D01*
X81577994Y-76228641D01*
X81577668Y-76229718D01*
X81572921Y-76228278D01*
X81572820Y-76228271D01*
X81572559Y-76228168D01*
X81571833Y-76227948D01*
X81378543Y-76189500D01*
X81378541Y-76189500D01*
X81181459Y-76189500D01*
X81181457Y-76189500D01*
X80988170Y-76227947D01*
X80988160Y-76227950D01*
X80806092Y-76303364D01*
X80806079Y-76303371D01*
X80642218Y-76412860D01*
X80642214Y-76412863D01*
X80502863Y-76552214D01*
X80502860Y-76552218D01*
X80393371Y-76716079D01*
X80393364Y-76716092D01*
X80317950Y-76898160D01*
X80317947Y-76898170D01*
X80279500Y-77091456D01*
X80279500Y-77091459D01*
X80279500Y-77288541D01*
X80279500Y-77288543D01*
X80279499Y-77288543D01*
X65300500Y-77288543D01*
X65300500Y-70424500D01*
X65320185Y-70357461D01*
X65372989Y-70311706D01*
X65424500Y-70300500D01*
X134575500Y-70300500D01*
X134642539Y-70320185D01*
G37*
%TD.AperFunction*%
%TD*%
M02*
