%TF.GenerationSoftware,KiCad,Pcbnew,9.0.6*%
%TF.CreationDate,2026-03-15T12:29:34+01:00*%
%TF.ProjectId,Microver2026_Control_Final,4d696372-6f76-4657-9232-3032365f436f,A*%
%TF.SameCoordinates,Original*%
%TF.FileFunction,Paste,Top*%
%TF.FilePolarity,Positive*%
%FSLAX46Y46*%
G04 Gerber Fmt 4.6, Leading zero omitted, Abs format (unit mm)*
G04 Created by KiCad (PCBNEW 9.0.6) date 2026-03-15 12:29:34*
%MOMM*%
%LPD*%
G01*
G04 APERTURE LIST*
G04 Aperture macros list*
%AMRoundRect*
0 Rectangle with rounded corners*
0 $1 Rounding radius*
0 $2 $3 $4 $5 $6 $7 $8 $9 X,Y pos of 4 corners*
0 Add a 4 corners polygon primitive as box body*
4,1,4,$2,$3,$4,$5,$6,$7,$8,$9,$2,$3,0*
0 Add four circle primitives for the rounded corners*
1,1,$1+$1,$2,$3*
1,1,$1+$1,$4,$5*
1,1,$1+$1,$6,$7*
1,1,$1+$1,$8,$9*
0 Add four rect primitives between the rounded corners*
20,1,$1+$1,$2,$3,$4,$5,0*
20,1,$1+$1,$4,$5,$6,$7,0*
20,1,$1+$1,$6,$7,$8,$9,0*
20,1,$1+$1,$8,$9,$2,$3,0*%
G04 Aperture macros list end*
%ADD10RoundRect,0.200000X0.275000X-0.200000X0.275000X0.200000X-0.275000X0.200000X-0.275000X-0.200000X0*%
%ADD11RoundRect,0.200000X-0.200000X-0.275000X0.200000X-0.275000X0.200000X0.275000X-0.200000X0.275000X0*%
%ADD12RoundRect,0.200000X0.053033X-0.335876X0.335876X-0.053033X-0.053033X0.335876X-0.335876X0.053033X0*%
%ADD13RoundRect,0.200000X-0.275000X0.200000X-0.275000X-0.200000X0.275000X-0.200000X0.275000X0.200000X0*%
%ADD14RoundRect,0.200000X-0.335876X-0.053033X-0.053033X-0.335876X0.335876X0.053033X0.053033X0.335876X0*%
G04 APERTURE END LIST*
D10*
%TO.C,R23*%
X78000000Y-93675000D03*
X78000000Y-95325000D03*
%TD*%
D11*
%TO.C,R16*%
X80408363Y-99000000D03*
X78758363Y-99000000D03*
%TD*%
D12*
%TO.C,R12*%
X124500000Y-111000000D03*
X125666726Y-109833274D03*
%TD*%
D13*
%TO.C,R2*%
X68500000Y-102325000D03*
X68500000Y-100675000D03*
%TD*%
D14*
%TO.C,R38*%
X110416637Y-79916637D03*
X111583363Y-81083363D03*
%TD*%
D11*
%TO.C,R37*%
X122000000Y-90000000D03*
X123650000Y-90000000D03*
%TD*%
%TO.C,R36*%
X79175000Y-105500000D03*
X80825000Y-105500000D03*
%TD*%
D14*
%TO.C,R35*%
X123500000Y-78416637D03*
X124666726Y-79583363D03*
%TD*%
D11*
%TO.C,R34*%
X122675000Y-92000000D03*
X124325000Y-92000000D03*
%TD*%
%TO.C,R33*%
X120675000Y-86000000D03*
X122325000Y-86000000D03*
%TD*%
D12*
%TO.C,R32*%
X111000000Y-88000000D03*
X112166726Y-86833274D03*
%TD*%
D11*
%TO.C,R31*%
X91175000Y-98500000D03*
X92825000Y-98500000D03*
%TD*%
D13*
%TO.C,R29*%
X100500000Y-85850000D03*
X100500000Y-87500000D03*
%TD*%
%TO.C,R27*%
X96500000Y-88675000D03*
X96500000Y-90325000D03*
%TD*%
D14*
%TO.C,R26*%
X90000000Y-88500000D03*
X91166726Y-89666726D03*
%TD*%
D11*
%TO.C,R25*%
X79675000Y-85000000D03*
X81325000Y-85000000D03*
%TD*%
D10*
%TO.C,R24*%
X76500000Y-96150000D03*
X76500000Y-94500000D03*
%TD*%
D11*
%TO.C,R22*%
X96175000Y-82000000D03*
X97825000Y-82000000D03*
%TD*%
%TO.C,R21*%
X93675000Y-80000000D03*
X95325000Y-80000000D03*
%TD*%
D14*
%TO.C,R20*%
X109916637Y-102333274D03*
X111083363Y-103500000D03*
%TD*%
%TO.C,R19*%
X110416637Y-100416637D03*
X111583363Y-101583363D03*
%TD*%
D13*
%TO.C,R18*%
X119500000Y-97675000D03*
X119500000Y-99325000D03*
%TD*%
%TO.C,R14*%
X123000000Y-93675000D03*
X123000000Y-95325000D03*
%TD*%
D12*
%TO.C,R11*%
X118916637Y-107083363D03*
X120083363Y-105916637D03*
%TD*%
D14*
%TO.C,R10*%
X106583363Y-106083363D03*
X105416637Y-104916637D03*
%TD*%
D13*
%TO.C,R8*%
X130500000Y-109675000D03*
X130500000Y-111325000D03*
%TD*%
D11*
%TO.C,R7*%
X104850000Y-109500000D03*
X106500000Y-109500000D03*
%TD*%
%TO.C,R6*%
X82000000Y-103000000D03*
X83650000Y-103000000D03*
%TD*%
D14*
%TO.C,R5*%
X98416637Y-105916637D03*
X99583363Y-107083363D03*
%TD*%
D10*
%TO.C,R4*%
X132500000Y-111325000D03*
X132500000Y-109675000D03*
%TD*%
%TO.C,R3*%
X96000000Y-109325000D03*
X96000000Y-107675000D03*
%TD*%
D13*
%TO.C,R1*%
X76500000Y-110825000D03*
X76500000Y-109175000D03*
%TD*%
D14*
%TO.C,R30*%
X78416637Y-89416637D03*
X79583363Y-90583363D03*
%TD*%
M02*
