%TF.GenerationSoftware,KiCad,Pcbnew,9.0.6*%
%TF.CreationDate,2026-03-15T12:29:33+01:00*%
%TF.ProjectId,Microver2026_Control_Final,4d696372-6f76-4657-9232-3032365f436f,A*%
%TF.SameCoordinates,Original*%
%TF.FileFunction,Copper,L1,Top*%
%TF.FilePolarity,Positive*%
%FSLAX46Y46*%
G04 Gerber Fmt 4.6, Leading zero omitted, Abs format (unit mm)*
G04 Created by KiCad (PCBNEW 9.0.6) date 2026-03-15 12:29:33*
%MOMM*%
%LPD*%
G01*
G04 APERTURE LIST*
G04 Aperture macros list*
%AMRoundRect*
0 Rectangle with rounded corners*
0 $1 Rounding radius*
0 $2 $3 $4 $5 $6 $7 $8 $9 X,Y pos of 4 corners*
0 Add a 4 corners polygon primitive as box body*
4,1,4,$2,$3,$4,$5,$6,$7,$8,$9,$2,$3,0*
0 Add four circle primitives for the rounded corners*
1,1,$1+$1,$2,$3*
1,1,$1+$1,$4,$5*
1,1,$1+$1,$6,$7*
1,1,$1+$1,$8,$9*
0 Add four rect primitives between the rounded corners*
20,1,$1+$1,$2,$3,$4,$5,0*
20,1,$1+$1,$4,$5,$6,$7,0*
20,1,$1+$1,$6,$7,$8,$9,0*
20,1,$1+$1,$8,$9,$2,$3,0*%
G04 Aperture macros list end*
%TA.AperFunction,SMDPad,CuDef*%
%ADD10RoundRect,0.200000X0.275000X-0.200000X0.275000X0.200000X-0.275000X0.200000X-0.275000X-0.200000X0*%
%TD*%
%TA.AperFunction,SMDPad,CuDef*%
%ADD11RoundRect,0.200000X-0.200000X-0.275000X0.200000X-0.275000X0.200000X0.275000X-0.200000X0.275000X0*%
%TD*%
%TA.AperFunction,SMDPad,CuDef*%
%ADD12RoundRect,0.200000X0.053033X-0.335876X0.335876X-0.053033X-0.053033X0.335876X-0.335876X0.053033X0*%
%TD*%
%TA.AperFunction,SMDPad,CuDef*%
%ADD13RoundRect,0.200000X-0.275000X0.200000X-0.275000X-0.200000X0.275000X-0.200000X0.275000X0.200000X0*%
%TD*%
%TA.AperFunction,ComponentPad*%
%ADD14R,1.600000X1.600000*%
%TD*%
%TA.AperFunction,ComponentPad*%
%ADD15O,1.600000X1.600000*%
%TD*%
%TA.AperFunction,SMDPad,CuDef*%
%ADD16RoundRect,0.200000X-0.335876X-0.053033X-0.053033X-0.335876X0.335876X0.053033X0.053033X0.335876X0*%
%TD*%
%TA.AperFunction,ComponentPad*%
%ADD17R,1.700000X1.700000*%
%TD*%
%TA.AperFunction,ComponentPad*%
%ADD18C,1.700000*%
%TD*%
%TA.AperFunction,ViaPad*%
%ADD19C,0.500000*%
%TD*%
%TA.AperFunction,ViaPad*%
%ADD20C,0.600000*%
%TD*%
%TA.AperFunction,Conductor*%
%ADD21C,0.400000*%
%TD*%
G04 APERTURE END LIST*
D10*
%TO.P,R23,2*%
%TO.N,Net-(A1-A6)*%
X78000000Y-93675000D03*
%TO.P,R23,1*%
%TO.N,+5V*%
X78000000Y-95325000D03*
%TD*%
D11*
%TO.P,R16,2*%
%TO.N,GND*%
X80408363Y-99000000D03*
%TO.P,R16,1*%
%TO.N,Net-(A1-A0)*%
X78758363Y-99000000D03*
%TD*%
D12*
%TO.P,R12,1*%
%TO.N,Net-(A1-MISO_D12)*%
X124500000Y-111000000D03*
%TO.P,R12,2*%
%TO.N,Net-(J15-Pin_8a)*%
X125666726Y-109833274D03*
%TD*%
D13*
%TO.P,R2,2*%
%TO.N,Net-(A1-D3)*%
X68500000Y-102325000D03*
%TO.P,R2,1*%
%TO.N,Net-(J14-Pin_7a)*%
X68500000Y-100675000D03*
%TD*%
D14*
%TO.P,A1,1,TX1*%
%TO.N,unconnected-(A1-TX1-Pad1)*%
X81280000Y-111760000D03*
D15*
%TO.P,A1,2,RX1*%
%TO.N,unconnected-(A1-RX1-Pad2)*%
X83820000Y-111760000D03*
%TO.P,A1,3,~{RESET}*%
%TO.N,unconnected-(A1-~{RESET}-Pad3)*%
X86360000Y-111760000D03*
%TO.P,A1,4,GND*%
%TO.N,GND*%
X88900000Y-111760000D03*
%TO.P,A1,5,D2*%
%TO.N,Net-(A1-D2)*%
X91440000Y-111760000D03*
%TO.P,A1,6,D3*%
%TO.N,Net-(A1-D3)*%
X93980000Y-111760000D03*
%TO.P,A1,7,D4*%
%TO.N,Net-(A1-D4)*%
X96520000Y-111760000D03*
%TO.P,A1,8,D5*%
%TO.N,Net-(A1-D5)*%
X99060000Y-111760000D03*
%TO.P,A1,9,D6*%
%TO.N,Net-(A1-D6)*%
X101600000Y-111760000D03*
%TO.P,A1,10,D7*%
%TO.N,Net-(A1-D7)*%
X104140000Y-111760000D03*
%TO.P,A1,11,D8*%
%TO.N,Net-(A1-D8)*%
X106680000Y-111760000D03*
%TO.P,A1,12,D9*%
%TO.N,Net-(A1-D9)*%
X109220000Y-111760000D03*
%TO.P,A1,13,D10*%
%TO.N,Net-(A1-D10)*%
X111760000Y-111760000D03*
%TO.P,A1,14,MOSI_D11*%
%TO.N,Net-(A1-MOSI_D11)*%
X114300000Y-111760000D03*
%TO.P,A1,15,MISO_D12*%
%TO.N,Net-(A1-MISO_D12)*%
X116840000Y-111760000D03*
%TO.P,A1,16,SCK_D13*%
%TO.N,Net-(A1-SCK_D13)*%
X116840000Y-96520000D03*
%TO.P,A1,17,3V3*%
%TO.N,unconnected-(A1-3V3-Pad17)*%
X114300000Y-96520000D03*
%TO.P,A1,18,AREF*%
%TO.N,unconnected-(A1-AREF-Pad18)*%
X111760000Y-96520000D03*
%TO.P,A1,19,A0*%
%TO.N,Net-(A1-A0)*%
X109220000Y-96520000D03*
%TO.P,A1,20,A1*%
%TO.N,Net-(A1-A1)*%
X106680000Y-96520000D03*
%TO.P,A1,21,A2*%
%TO.N,Net-(A1-A2)*%
X104140000Y-96520000D03*
%TO.P,A1,22,A3*%
%TO.N,Net-(A1-A3)*%
X101600000Y-96520000D03*
%TO.P,A1,23,SDA/A4*%
%TO.N,Net-(A1-SDA{slash}A4)*%
X99060000Y-96520000D03*
%TO.P,A1,24,SCL/A5*%
%TO.N,Net-(A1-SCL{slash}A5)*%
X96520000Y-96520000D03*
%TO.P,A1,25,A6*%
%TO.N,Net-(A1-A6)*%
X93980000Y-96520000D03*
%TO.P,A1,26,A7*%
%TO.N,Net-(A1-A7)*%
X91440000Y-96520000D03*
%TO.P,A1,27,+5V*%
%TO.N,unconnected-(A1-+5V-Pad27)*%
X88900000Y-96520000D03*
%TO.P,A1,28,~{RESET}*%
%TO.N,unconnected-(A1-~{RESET}-Pad28)*%
X86360000Y-96520000D03*
%TO.P,A1,29,GND*%
%TO.N,GND*%
X83820000Y-96520000D03*
%TO.P,A1,30,VIN*%
%TO.N,+5V*%
X81280000Y-96520000D03*
%TD*%
D16*
%TO.P,R38,1*%
%TO.N,Net-(A2-A0)*%
X110416637Y-79916637D03*
%TO.P,R38,2*%
%TO.N,Net-(J15-Pin_6a)*%
X111583363Y-81083363D03*
%TD*%
D11*
%TO.P,R37,1*%
%TO.N,Net-(A2-MOSI_D11)*%
X122000000Y-90000000D03*
%TO.P,R37,2*%
%TO.N,Net-(J15-Pin_3a)*%
X123650000Y-90000000D03*
%TD*%
%TO.P,R36,1*%
%TO.N,Net-(J14-Pin_9a)*%
X79175000Y-105500000D03*
%TO.P,R36,2*%
%TO.N,Net-(A2-D9)*%
X80825000Y-105500000D03*
%TD*%
D16*
%TO.P,R35,1*%
%TO.N,Net-(A2-SCK_D13)*%
X123500000Y-78416637D03*
%TO.P,R35,2*%
%TO.N,Net-(J15-Pin_5a)*%
X124666726Y-79583363D03*
%TD*%
D11*
%TO.P,R34,1*%
%TO.N,Net-(A2-MISO_D12)*%
X122675000Y-92000000D03*
%TO.P,R34,2*%
%TO.N,Net-(J15-Pin_4a)*%
X124325000Y-92000000D03*
%TD*%
%TO.P,R33,1*%
%TO.N,Net-(A2-D10)*%
X120675000Y-86000000D03*
%TO.P,R33,2*%
%TO.N,Net-(J15-Pin_2a)*%
X122325000Y-86000000D03*
%TD*%
D12*
%TO.P,R32,1*%
%TO.N,Net-(A2-D8)*%
X111000000Y-88000000D03*
%TO.P,R32,2*%
%TO.N,Net-(J15-Pin_1a)*%
X112166726Y-86833274D03*
%TD*%
D11*
%TO.P,R31,1*%
%TO.N,Net-(J14-Pin_6a)*%
X91175000Y-98500000D03*
%TO.P,R31,2*%
%TO.N,Net-(A2-D7)*%
X92825000Y-98500000D03*
%TD*%
D13*
%TO.P,R29,1*%
%TO.N,Net-(J14-Pin_4a)*%
X100500000Y-85850000D03*
%TO.P,R29,2*%
%TO.N,Net-(A2-D5)*%
X100500000Y-87500000D03*
%TD*%
%TO.P,R27,1*%
%TO.N,Net-(J14-Pin_3a)*%
X96500000Y-88675000D03*
%TO.P,R27,2*%
%TO.N,Net-(A2-D4)*%
X96500000Y-90325000D03*
%TD*%
D16*
%TO.P,R26,1*%
%TO.N,Net-(J14-Pin_2a)*%
X90000000Y-88500000D03*
%TO.P,R26,2*%
%TO.N,Net-(A2-D3)*%
X91166726Y-89666726D03*
%TD*%
D11*
%TO.P,R25,1*%
%TO.N,Net-(J14-Pin_1a)*%
X79675000Y-85000000D03*
%TO.P,R25,2*%
%TO.N,Net-(A2-D2)*%
X81325000Y-85000000D03*
%TD*%
D10*
%TO.P,R24,1*%
%TO.N,+5V*%
X76500000Y-96150000D03*
%TO.P,R24,2*%
%TO.N,Net-(A1-A7)*%
X76500000Y-94500000D03*
%TD*%
D11*
%TO.P,R22,1*%
%TO.N,+5V*%
X96175000Y-82000000D03*
%TO.P,R22,2*%
%TO.N,Net-(A1-SDA{slash}A4)*%
X97825000Y-82000000D03*
%TD*%
%TO.P,R21,1*%
%TO.N,+5V*%
X93675000Y-80000000D03*
%TO.P,R21,2*%
%TO.N,Net-(A1-SCL{slash}A5)*%
X95325000Y-80000000D03*
%TD*%
D16*
%TO.P,R20,1*%
%TO.N,Net-(A1-A3)*%
X109916637Y-102333274D03*
%TO.P,R20,2*%
%TO.N,Net-(J15-Pin_10a)*%
X111083363Y-103500000D03*
%TD*%
%TO.P,R19,1*%
%TO.N,Net-(A1-A2)*%
X110416637Y-100416637D03*
%TO.P,R19,2*%
%TO.N,Net-(J15-Pin_9a)*%
X111583363Y-101583363D03*
%TD*%
D13*
%TO.P,R18,1*%
%TO.N,Net-(A1-A1)*%
X119500000Y-97675000D03*
%TO.P,R18,2*%
%TO.N,GND*%
X119500000Y-99325000D03*
%TD*%
%TO.P,R14,1*%
%TO.N,+5V*%
X123000000Y-93675000D03*
%TO.P,R14,2*%
%TO.N,Net-(A1-SCK_D13)*%
X123000000Y-95325000D03*
%TD*%
D12*
%TO.P,R11,1*%
%TO.N,Net-(A1-MOSI_D11)*%
X118916637Y-107083363D03*
%TO.P,R11,2*%
%TO.N,Net-(J15-Pin_7a)*%
X120083363Y-105916637D03*
%TD*%
D16*
%TO.P,R10,2*%
%TO.N,Net-(A1-D10)*%
X106583363Y-106083363D03*
%TO.P,R10,1*%
%TO.N,Net-(J14-Pin_3b)*%
X105416637Y-104916637D03*
%TD*%
D13*
%TO.P,R8,1*%
%TO.N,Net-(J15-Pin_3b)*%
X130500000Y-109675000D03*
%TO.P,R8,2*%
%TO.N,Net-(A1-D9)*%
X130500000Y-111325000D03*
%TD*%
D11*
%TO.P,R7,1*%
%TO.N,+5V*%
X104850000Y-109500000D03*
%TO.P,R7,2*%
%TO.N,Net-(A1-D8)*%
X106500000Y-109500000D03*
%TD*%
%TO.P,R6,1*%
%TO.N,Net-(J14-Pin_7b)*%
X82000000Y-103000000D03*
%TO.P,R6,2*%
%TO.N,Net-(A1-D6)*%
X83650000Y-103000000D03*
%TD*%
D16*
%TO.P,R5,1*%
%TO.N,Net-(J14-Pin_8b)*%
X98416637Y-105916637D03*
%TO.P,R5,2*%
%TO.N,Net-(A1-D7)*%
X99583363Y-107083363D03*
%TD*%
D10*
%TO.P,R4,1*%
%TO.N,Net-(A1-D5)*%
X132500000Y-111325000D03*
%TO.P,R4,2*%
%TO.N,Net-(J15-Pin_8b)*%
X132500000Y-109675000D03*
%TD*%
%TO.P,R3,1*%
%TO.N,Net-(A1-D4)*%
X96000000Y-109325000D03*
%TO.P,R3,2*%
%TO.N,Net-(J15-Pin_7b)*%
X96000000Y-107675000D03*
%TD*%
D13*
%TO.P,R1,2*%
%TO.N,Net-(A1-D2)*%
X76500000Y-110825000D03*
%TO.P,R1,1*%
%TO.N,+5V*%
X76500000Y-109175000D03*
%TD*%
D17*
%TO.P,J15,1,Pin_1a*%
%TO.N,Net-(J15-Pin_1a)*%
X127000000Y-83820000D03*
D18*
%TO.P,J15,2,Pin_1b*%
%TO.N,+5V*%
X129540000Y-83820000D03*
%TO.P,J15,3,Pin_2a*%
%TO.N,Net-(J15-Pin_2a)*%
X127000000Y-86360000D03*
%TO.P,J15,4,Pin_2b*%
%TO.N,GND*%
X129540000Y-86360000D03*
%TO.P,J15,5,Pin_3a*%
%TO.N,Net-(J15-Pin_3a)*%
X127000000Y-88900000D03*
%TO.P,J15,6,Pin_3b*%
%TO.N,Net-(J15-Pin_3b)*%
X129540000Y-88900000D03*
%TO.P,J15,7,Pin_4a*%
%TO.N,Net-(J15-Pin_4a)*%
X127000000Y-91440000D03*
%TO.P,J15,8,Pin_4b*%
%TO.N,Net-(A1-D8)*%
X129540000Y-91440000D03*
%TO.P,J15,9,Pin_5a*%
%TO.N,Net-(J15-Pin_5a)*%
X127000000Y-93980000D03*
%TO.P,J15,10,Pin_5b*%
%TO.N,Net-(A1-SCK_D13)*%
X129540000Y-93980000D03*
%TO.P,J15,11,Pin_6a*%
%TO.N,Net-(J15-Pin_6a)*%
X127000000Y-96520000D03*
%TO.P,J15,12,Pin_6b*%
%TO.N,Net-(A1-A1)*%
X129540000Y-96520000D03*
%TO.P,J15,13,Pin_7a*%
%TO.N,Net-(J15-Pin_7a)*%
X127000000Y-99060000D03*
%TO.P,J15,14,Pin_7b*%
%TO.N,Net-(J15-Pin_7b)*%
X129540000Y-99060000D03*
%TO.P,J15,15,Pin_8a*%
%TO.N,Net-(J15-Pin_8a)*%
X127000000Y-101600000D03*
%TO.P,J15,16,Pin_8b*%
%TO.N,Net-(J15-Pin_8b)*%
X129540000Y-101600000D03*
%TO.P,J15,17,Pin_9a*%
%TO.N,Net-(J15-Pin_9a)*%
X127000000Y-104140000D03*
%TO.P,J15,18,Pin_9b*%
%TO.N,Net-(A2-A7)*%
X129540000Y-104140000D03*
%TO.P,J15,19,Pin_10a*%
%TO.N,Net-(J15-Pin_10a)*%
X127000000Y-106680000D03*
%TO.P,J15,20,Pin_10b*%
%TO.N,Net-(A2-A6)*%
X129540000Y-106680000D03*
%TD*%
D17*
%TO.P,J14,1,Pin_1a*%
%TO.N,Net-(J14-Pin_1a)*%
X71120000Y-83820000D03*
D18*
%TO.P,J14,2,Pin_1b*%
%TO.N,+5V*%
X73660000Y-83820000D03*
%TO.P,J14,3,Pin_2a*%
%TO.N,Net-(J14-Pin_2a)*%
X71120000Y-86360000D03*
%TO.P,J14,4,Pin_2b*%
%TO.N,GND*%
X73660000Y-86360000D03*
%TO.P,J14,5,Pin_3a*%
%TO.N,Net-(J14-Pin_3a)*%
X71120000Y-88900000D03*
%TO.P,J14,6,Pin_3b*%
%TO.N,Net-(J14-Pin_3b)*%
X73660000Y-88900000D03*
%TO.P,J14,7,Pin_4a*%
%TO.N,Net-(J14-Pin_4a)*%
X71120000Y-91440000D03*
%TO.P,J14,8,Pin_4b*%
%TO.N,Net-(A1-A6)*%
X73660000Y-91440000D03*
%TO.P,J14,9,Pin_5a*%
%TO.N,Net-(J14-Pin_5a)*%
X71120000Y-93980000D03*
%TO.P,J14,10,Pin_5b*%
%TO.N,Net-(A1-A7)*%
X73660000Y-93980000D03*
%TO.P,J14,11,Pin_6a*%
%TO.N,Net-(J14-Pin_6a)*%
X71120000Y-96520000D03*
%TO.P,J14,12,Pin_6b*%
%TO.N,Net-(A1-A0)*%
X73660000Y-96520000D03*
%TO.P,J14,13,Pin_7a*%
%TO.N,Net-(J14-Pin_7a)*%
X71120000Y-99060000D03*
%TO.P,J14,14,Pin_7b*%
%TO.N,Net-(J14-Pin_7b)*%
X73660000Y-99060000D03*
%TO.P,J14,15,Pin_8a*%
%TO.N,Net-(A1-D2)*%
X71120000Y-101600000D03*
%TO.P,J14,16,Pin_8b*%
%TO.N,Net-(J14-Pin_8b)*%
X73660000Y-101600000D03*
%TO.P,J14,17,Pin_9a*%
%TO.N,Net-(J14-Pin_9a)*%
X71120000Y-104140000D03*
%TO.P,J14,18,Pin_9b*%
%TO.N,Net-(A2-A3)*%
X73660000Y-104140000D03*
%TO.P,J14,19,Pin_10a*%
%TO.N,Net-(A2-A1)*%
X71120000Y-106680000D03*
%TO.P,J14,20,Pin_10b*%
%TO.N,Net-(A2-A2)*%
X73660000Y-106680000D03*
%TD*%
D16*
%TO.P,R30,1*%
%TO.N,Net-(J14-Pin_5a)*%
X78416637Y-89416637D03*
%TO.P,R30,2*%
%TO.N,Net-(A2-D6)*%
X79583363Y-90583363D03*
%TD*%
D14*
%TO.P,A2,1,TX1*%
%TO.N,unconnected-(A2-TX1-Pad1)*%
X81280000Y-92430000D03*
D15*
%TO.P,A2,2,RX1*%
%TO.N,unconnected-(A2-RX1-Pad2)*%
X83820000Y-92430000D03*
%TO.P,A2,3,~{RESET}*%
%TO.N,unconnected-(A2-~{RESET}-Pad3)*%
X86360000Y-92430000D03*
%TO.P,A2,4,GND*%
%TO.N,GND*%
X88900000Y-92430000D03*
%TO.P,A2,5,D2*%
%TO.N,Net-(A2-D2)*%
X91440000Y-92430000D03*
%TO.P,A2,6,D3*%
%TO.N,Net-(A2-D3)*%
X93980000Y-92430000D03*
%TO.P,A2,7,D4*%
%TO.N,Net-(A2-D4)*%
X96520000Y-92430000D03*
%TO.P,A2,8,D5*%
%TO.N,Net-(A2-D5)*%
X99060000Y-92430000D03*
%TO.P,A2,9,D6*%
%TO.N,Net-(A2-D6)*%
X101600000Y-92430000D03*
%TO.P,A2,10,D7*%
%TO.N,Net-(A2-D7)*%
X104140000Y-92430000D03*
%TO.P,A2,11,D8*%
%TO.N,Net-(A2-D8)*%
X106680000Y-92430000D03*
%TO.P,A2,12,D9*%
%TO.N,Net-(A2-D9)*%
X109220000Y-92430000D03*
%TO.P,A2,13,D10*%
%TO.N,Net-(A2-D10)*%
X111760000Y-92430000D03*
%TO.P,A2,14,MOSI_D11*%
%TO.N,Net-(A2-MOSI_D11)*%
X114300000Y-92430000D03*
%TO.P,A2,15,MISO_D12*%
%TO.N,Net-(A2-MISO_D12)*%
X116840000Y-92430000D03*
%TO.P,A2,16,SCK_D13*%
%TO.N,Net-(A2-SCK_D13)*%
X116840000Y-77190000D03*
%TO.P,A2,17,3V3*%
%TO.N,unconnected-(A2-3V3-Pad17)*%
X114300000Y-77190000D03*
%TO.P,A2,18,AREF*%
%TO.N,unconnected-(A2-AREF-Pad18)*%
X111760000Y-77190000D03*
%TO.P,A2,19,A0*%
%TO.N,Net-(A2-A0)*%
X109220000Y-77190000D03*
%TO.P,A2,20,A1*%
%TO.N,Net-(A2-A1)*%
X106680000Y-77190000D03*
%TO.P,A2,21,A2*%
%TO.N,Net-(A2-A2)*%
X104140000Y-77190000D03*
%TO.P,A2,22,A3*%
%TO.N,Net-(A2-A3)*%
X101600000Y-77190000D03*
%TO.P,A2,23,SDA/A4*%
%TO.N,Net-(A1-SDA{slash}A4)*%
X99060000Y-77190000D03*
%TO.P,A2,24,SCL/A5*%
%TO.N,Net-(A1-SCL{slash}A5)*%
X96520000Y-77190000D03*
%TO.P,A2,25,A6*%
%TO.N,Net-(A2-A6)*%
X93980000Y-77190000D03*
%TO.P,A2,26,A7*%
%TO.N,Net-(A2-A7)*%
X91440000Y-77190000D03*
%TO.P,A2,27,+5V*%
%TO.N,unconnected-(A2-+5V-Pad27)*%
X88900000Y-77190000D03*
%TO.P,A2,28,~{RESET}*%
%TO.N,unconnected-(A2-~{RESET}-Pad28)*%
X86360000Y-77190000D03*
%TO.P,A2,29,GND*%
%TO.N,GND*%
X83820000Y-77190000D03*
%TO.P,A2,30,VIN*%
%TO.N,+5V*%
X81280000Y-77190000D03*
%TD*%
D19*
%TO.N,Net-(J15-Pin_6a)*%
X123219000Y-83170000D03*
%TO.N,Net-(A2-D6)*%
X79000000Y-92500000D03*
X99000000Y-94000000D03*
%TO.N,Net-(J14-Pin_5a)*%
X76500000Y-91349000D03*
%TO.N,+5V*%
X96000000Y-81000000D03*
X92500000Y-80000000D03*
%TO.N,GND*%
X119500000Y-100500000D03*
X82000000Y-99000000D03*
D20*
%TO.N,+5V*%
X121500000Y-93130000D03*
X121500000Y-76490000D03*
X93500000Y-109000000D03*
X102500000Y-108839620D03*
X74210818Y-109000000D03*
X78300000Y-97270380D03*
D19*
%TO.N,GND*%
X94000000Y-94650000D03*
X85000000Y-95000000D03*
X92286226Y-93350000D03*
%TO.N,+5V*%
X85000000Y-75000000D03*
%TO.N,Net-(J15-Pin_8b)*%
X132042000Y-100000000D03*
%TO.N,Net-(A1-D8)*%
X131441000Y-94000000D03*
%TO.N,Net-(J15-Pin_7b)*%
X96960380Y-108039620D03*
X125000000Y-103000000D03*
%TO.N,Net-(J14-Pin_3b)*%
X76000000Y-92000000D03*
X79000000Y-100650000D03*
%TO.N,Net-(A1-A3)*%
X104000000Y-101000000D03*
X103000000Y-99350000D03*
%TO.N,Net-(A1-A2)*%
X105000000Y-99350000D03*
X108000000Y-99350000D03*
%TO.N,Net-(J15-Pin_7a)*%
X122000000Y-106000000D03*
X124000000Y-102000000D03*
%TO.N,Net-(A2-A3)*%
X105000000Y-94000000D03*
%TO.N,Net-(A2-D9)*%
X102422422Y-97853182D03*
X87000000Y-104000000D03*
%TO.N,Net-(A2-A6)*%
X95000000Y-76639000D03*
X133000000Y-105000000D03*
X99000000Y-72000000D03*
%TO.N,Net-(A2-A7)*%
X94000000Y-73000000D03*
X92857992Y-76639000D03*
X133000000Y-102000000D03*
%TO.N,Net-(J14-Pin_6a)*%
X76029620Y-97970380D03*
%TO.N,Net-(A2-A1)*%
X67749000Y-105000000D03*
X104000000Y-74000000D03*
X105000000Y-75650000D03*
%TO.N,Net-(A2-A2)*%
X106000000Y-91000000D03*
%TO.N,Net-(J14-Pin_3a)*%
X96000000Y-87500000D03*
%TO.N,Net-(J14-Pin_2a)*%
X86000000Y-86000000D03*
%TO.N,Net-(J14-Pin_1a)*%
X74019934Y-85069181D03*
%TD*%
D21*
%TO.N,Net-(J15-Pin_10a)*%
X111083363Y-103500000D02*
X112383363Y-104800000D01*
X112383363Y-104800000D02*
X125120000Y-104800000D01*
X125120000Y-104800000D02*
X127000000Y-106680000D01*
%TO.N,Net-(A1-MOSI_D11)*%
X118916637Y-107083363D02*
X114300000Y-111700000D01*
X114300000Y-111700000D02*
X114300000Y-111760000D01*
%TO.N,Net-(A2-D6)*%
X79000000Y-92500000D02*
X79000000Y-91166726D01*
X79000000Y-91166726D02*
X79583363Y-90583363D01*
%TO.N,Net-(J14-Pin_5a)*%
X78416637Y-89416637D02*
X78416637Y-89432363D01*
X78416637Y-89432363D02*
X76500000Y-91349000D01*
%TO.N,Net-(A1-A0)*%
X76570000Y-99430000D02*
X77000000Y-99000000D01*
X77000000Y-99000000D02*
X78758363Y-99000000D01*
%TO.N,Net-(A2-D7)*%
X100399000Y-96879471D02*
X98778471Y-98500000D01*
X98778471Y-98500000D02*
X92825000Y-98500000D01*
%TO.N,Net-(A2-A0)*%
X110416637Y-79916637D02*
X110416637Y-78386637D01*
X110416637Y-78386637D02*
X109220000Y-77190000D01*
%TO.N,Net-(J15-Pin_6a)*%
X111583363Y-81083363D02*
X113083363Y-81083363D01*
X113083363Y-81083363D02*
X115170000Y-83170000D01*
%TO.N,+5V*%
X79050380Y-96520000D02*
X81280000Y-96520000D01*
X78300000Y-97270380D02*
X79050380Y-96520000D01*
%TO.N,Net-(J15-Pin_9a)*%
X111583363Y-101583363D02*
X114140000Y-104140000D01*
X114140000Y-104140000D02*
X127000000Y-104140000D01*
%TO.N,Net-(A1-A2)*%
X110416637Y-100416637D02*
X109350000Y-99350000D01*
%TO.N,+5V*%
X74210818Y-109000000D02*
X77000000Y-109000000D01*
%TO.N,Net-(A2-MOSI_D11)*%
X122000000Y-90000000D02*
X116730000Y-90000000D01*
X116730000Y-90000000D02*
X114300000Y-92430000D01*
%TO.N,Net-(J15-Pin_3a)*%
X127000000Y-88900000D02*
X124750000Y-88900000D01*
X124750000Y-88900000D02*
X123650000Y-90000000D01*
%TO.N,Net-(A2-A1)*%
X104000000Y-74000000D02*
X77588058Y-74000000D01*
X77588058Y-74000000D02*
X67500000Y-84088058D01*
X67500000Y-104751000D02*
X67749000Y-105000000D01*
X67500000Y-84088058D02*
X67500000Y-104751000D01*
%TO.N,Net-(A1-A7)*%
X73660000Y-93980000D02*
X74204000Y-94524000D01*
X83316000Y-94232000D02*
X89152000Y-94232000D01*
X74204000Y-94524000D02*
X83024000Y-94524000D01*
X83024000Y-94524000D02*
X83316000Y-94232000D01*
%TO.N,+5V*%
X81280000Y-96520000D02*
X80910000Y-96150000D01*
X72371000Y-85109000D02*
X73660000Y-83820000D01*
X80910000Y-96150000D02*
X76500000Y-96150000D01*
X76500000Y-96150000D02*
X75581000Y-95231000D01*
X75581000Y-95231000D02*
X73141818Y-95231000D01*
X73141818Y-95231000D02*
X72371000Y-94460182D01*
X72371000Y-94460182D02*
X72371000Y-85109000D01*
%TO.N,Net-(J15-Pin_6a)*%
X115170000Y-83170000D02*
X123219000Y-83170000D01*
%TO.N,Net-(J15-Pin_3a)*%
X126900000Y-89000000D02*
X127000000Y-88900000D01*
%TO.N,Net-(J14-Pin_9a)*%
X79175000Y-105500000D02*
X79066000Y-105391000D01*
X79066000Y-105391000D02*
X72371000Y-105391000D01*
%TO.N,Net-(A2-D9)*%
X80825000Y-105500000D02*
X85500000Y-105500000D01*
X85500000Y-105500000D02*
X87000000Y-104000000D01*
%TO.N,Net-(J15-Pin_5a)*%
X124666726Y-79583363D02*
X125265363Y-79583363D01*
X125265363Y-79583363D02*
X128251000Y-82569000D01*
%TO.N,Net-(A2-SCK_D13)*%
X116840000Y-77190000D02*
X122273363Y-77190000D01*
X122273363Y-77190000D02*
X123500000Y-78416637D01*
%TO.N,Net-(J15-Pin_4a)*%
X124325000Y-92000000D02*
X126440000Y-92000000D01*
X126440000Y-92000000D02*
X127000000Y-91440000D01*
%TO.N,Net-(A2-MISO_D12)*%
X116840000Y-92430000D02*
X122245000Y-92430000D01*
X122245000Y-92430000D02*
X122675000Y-92000000D01*
%TO.N,Net-(A2-D6)*%
X100666726Y-94000000D02*
X99000000Y-94000000D01*
%TO.N,Net-(A2-D10)*%
X120675000Y-86000000D02*
X118190000Y-86000000D01*
%TO.N,Net-(J15-Pin_2a)*%
X122325000Y-86000000D02*
X125000000Y-86000000D01*
%TO.N,Net-(J15-Pin_1a)*%
X112166726Y-86833274D02*
X115180000Y-83820000D01*
X115180000Y-83820000D02*
X127000000Y-83820000D01*
%TO.N,Net-(A2-D8)*%
X106680000Y-92430000D02*
X111000000Y-88110000D01*
X111000000Y-88110000D02*
X111000000Y-88000000D01*
%TO.N,Net-(J14-Pin_6a)*%
X91175000Y-98500000D02*
X90645380Y-97970380D01*
X90645380Y-97970380D02*
X76029620Y-97970380D01*
%TO.N,Net-(A2-D6)*%
X101600000Y-92430000D02*
X101600000Y-93725000D01*
X101325000Y-94000000D02*
X100666726Y-94000000D01*
X101600000Y-93725000D02*
X101325000Y-94000000D01*
%TO.N,Net-(A2-D7)*%
X104140000Y-92430000D02*
X104030764Y-92430000D01*
X101141764Y-95319000D02*
X101102529Y-95319000D01*
X104030764Y-92430000D02*
X101141764Y-95319000D01*
X101102529Y-95319000D02*
X100399000Y-96022529D01*
X100399000Y-96022529D02*
X100399000Y-96879471D01*
%TO.N,Net-(J14-Pin_4a)*%
X100500000Y-85850000D02*
X100261000Y-85611000D01*
X100261000Y-85611000D02*
X100261000Y-76692529D01*
%TO.N,Net-(A2-D5)*%
X100500000Y-87500000D02*
X100500000Y-90990000D01*
X100500000Y-90990000D02*
X99060000Y-92430000D01*
%TO.N,Net-(J14-Pin_3a)*%
X96000000Y-87500000D02*
X96500000Y-88000000D01*
X96500000Y-88000000D02*
X96500000Y-88675000D01*
%TO.N,Net-(A2-D4)*%
X96500000Y-90325000D02*
X96500000Y-92410000D01*
X96500000Y-92410000D02*
X96520000Y-92430000D01*
%TO.N,Net-(J14-Pin_2a)*%
X90000000Y-88500000D02*
X87550000Y-86050000D01*
X87550000Y-86050000D02*
X87550000Y-86000000D01*
%TO.N,Net-(A2-D3)*%
X93980000Y-92430000D02*
X93930000Y-92430000D01*
X93930000Y-92430000D02*
X91166726Y-89666726D01*
%TO.N,Net-(A2-D2)*%
X81325000Y-85000000D02*
X84010000Y-85000000D01*
X84010000Y-85000000D02*
X91440000Y-92430000D01*
%TO.N,Net-(J14-Pin_1a)*%
X74019934Y-85069181D02*
X74430819Y-85069181D01*
X74430819Y-85069181D02*
X74500000Y-85000000D01*
X74500000Y-85000000D02*
X79675000Y-85000000D01*
%TO.N,+5V*%
X78000000Y-95325000D02*
X77325000Y-95325000D01*
X77325000Y-95325000D02*
X76500000Y-96150000D01*
X96175000Y-81175000D02*
X96000000Y-81000000D01*
X96175000Y-82000000D02*
X96175000Y-81175000D01*
X93675000Y-80000000D02*
X92500000Y-80000000D01*
%TO.N,Net-(A1-A3)*%
X109000000Y-101416637D02*
X104416637Y-101416637D01*
X104416637Y-101416637D02*
X104000000Y-101000000D01*
X109916637Y-102333274D02*
X109000000Y-101416637D01*
%TO.N,GND*%
X119500000Y-99325000D02*
X119500000Y-100500000D01*
X80408363Y-99000000D02*
X82000000Y-99000000D01*
%TO.N,Net-(A1-A0)*%
X77140000Y-100000000D02*
X76570000Y-99430000D01*
%TO.N,+5V*%
X121500000Y-76490000D02*
X121500000Y-75031942D01*
X121500000Y-75031942D02*
X121531942Y-75000000D01*
X123000000Y-93675000D02*
X122045000Y-93675000D01*
X122045000Y-93675000D02*
X121500000Y-93130000D01*
%TO.N,Net-(J15-Pin_8a)*%
X125666726Y-109833274D02*
X128251000Y-107249000D01*
X128251000Y-107249000D02*
X128251000Y-102851000D01*
X128251000Y-102851000D02*
X127000000Y-101600000D01*
%TO.N,Net-(A1-MISO_D12)*%
X124500000Y-111000000D02*
X124449182Y-111000000D01*
X124449182Y-111000000D02*
X123689182Y-111760000D01*
%TO.N,Net-(J15-Pin_7a)*%
X122000000Y-106000000D02*
X120000000Y-106000000D01*
%TO.N,Net-(A1-D10)*%
X106583363Y-106083363D02*
X111760000Y-111260000D01*
X111760000Y-111260000D02*
X111760000Y-111760000D01*
%TO.N,Net-(J14-Pin_3b)*%
X105416637Y-104916637D02*
X101101000Y-100601000D01*
X101101000Y-100601000D02*
X79049000Y-100601000D01*
X79049000Y-100601000D02*
X79000000Y-100650000D01*
%TO.N,Net-(A1-D9)*%
X130500000Y-111325000D02*
X130500000Y-112372000D01*
X129911000Y-112961000D02*
X110421000Y-112961000D01*
X130500000Y-112372000D02*
X129911000Y-112961000D01*
X110421000Y-112961000D02*
X109220000Y-111760000D01*
%TO.N,Net-(J15-Pin_3b)*%
X130500000Y-109675000D02*
X130791000Y-109384000D01*
X130791000Y-109384000D02*
X130791000Y-90151000D01*
%TO.N,+5V*%
X104850000Y-109500000D02*
X103160380Y-109500000D01*
X103160380Y-109500000D02*
X102500000Y-108839620D01*
X93500000Y-109000000D02*
X77000000Y-109000000D01*
%TO.N,Net-(A1-D8)*%
X106680000Y-111760000D02*
X106680000Y-109680000D01*
X106680000Y-109680000D02*
X106500000Y-109500000D01*
%TO.N,Net-(A1-D6)*%
X101600000Y-111760000D02*
X92840000Y-103000000D01*
X83650000Y-103000000D02*
X92840000Y-103000000D01*
%TO.N,Net-(J14-Pin_7b)*%
X82000000Y-103000000D02*
X81851000Y-102851000D01*
X81851000Y-102851000D02*
X73141818Y-102851000D01*
%TO.N,Net-(A1-D7)*%
X99583363Y-107083363D02*
X100000000Y-107500000D01*
X100000000Y-107500000D02*
X100000000Y-107620000D01*
%TO.N,Net-(J14-Pin_8b)*%
X98213274Y-105833274D02*
X93980000Y-101600000D01*
%TO.N,Net-(A1-D7)*%
X104140000Y-111760000D02*
X100000000Y-107620000D01*
%TO.N,Net-(J15-Pin_8b)*%
X132500000Y-109675000D02*
X132042000Y-109217000D01*
X132042000Y-109217000D02*
X132042000Y-100000000D01*
%TO.N,Net-(A1-D5)*%
X132500000Y-111325000D02*
X132500000Y-112862884D01*
X132500000Y-112862884D02*
X131199884Y-114163000D01*
X131199884Y-114163000D02*
X101463000Y-114163000D01*
X101463000Y-114163000D02*
X99060000Y-111760000D01*
%TO.N,Net-(A1-D4)*%
X96000000Y-109325000D02*
X96000000Y-111240000D01*
X96000000Y-111240000D02*
X96520000Y-111760000D01*
%TO.N,Net-(J15-Pin_7b)*%
X96960380Y-108039620D02*
X96364620Y-108039620D01*
X96364620Y-108039620D02*
X96000000Y-107675000D01*
%TO.N,Net-(A1-D3)*%
X68500000Y-102325000D02*
X68399000Y-102426000D01*
X68399000Y-102426000D02*
X68399000Y-106578124D01*
%TO.N,Net-(J14-Pin_7a)*%
X71120000Y-99060000D02*
X70115000Y-99060000D01*
X70115000Y-99060000D02*
X68500000Y-100675000D01*
%TO.N,Net-(J14-Pin_7b)*%
X72409000Y-102118182D02*
X72409000Y-100311000D01*
X73141818Y-102851000D02*
X72409000Y-102118182D01*
X72409000Y-100311000D02*
X73660000Y-99060000D01*
%TO.N,GND*%
X94000000Y-94650000D02*
X93586226Y-94650000D01*
X83820000Y-77190000D02*
X83820000Y-78820000D01*
X75000000Y-87700000D02*
X75000000Y-88000000D01*
X83820000Y-95180000D02*
X84000000Y-95000000D01*
X73660000Y-86360000D02*
X75000000Y-87700000D01*
X88900000Y-92430000D02*
X87470000Y-91000000D01*
X83820000Y-96520000D02*
X83820000Y-95180000D01*
X83820000Y-78820000D02*
X84000000Y-79000000D01*
X84000000Y-95000000D02*
X85000000Y-95000000D01*
X93586226Y-94650000D02*
X92286226Y-93350000D01*
X87470000Y-91000000D02*
X87000000Y-91000000D01*
%TO.N,+5V*%
X129540000Y-83820000D02*
X129540000Y-83008058D01*
X129540000Y-83008058D02*
X121531942Y-75000000D01*
X73660000Y-83820000D02*
X74650000Y-83820000D01*
X121531942Y-75000000D02*
X85000000Y-75000000D01*
X74650000Y-83820000D02*
X81280000Y-77190000D01*
%TO.N,Net-(A1-SDA{slash}A4)*%
X97859000Y-78391000D02*
X99060000Y-77190000D01*
X99060000Y-96520000D02*
X97859000Y-95319000D01*
X97859000Y-95319000D02*
X97859000Y-78391000D01*
%TO.N,Net-(A1-D8)*%
X130950942Y-113562000D02*
X108482000Y-113562000D01*
X131392000Y-113120942D02*
X130950942Y-113562000D01*
X131441000Y-94000000D02*
X131392000Y-94049000D01*
X131392000Y-94049000D02*
X131392000Y-113120942D01*
%TO.N,Net-(A1-A6)*%
X91091000Y-93631000D02*
X75851000Y-93631000D01*
X93980000Y-96520000D02*
X91091000Y-93631000D01*
X75851000Y-93631000D02*
X73660000Y-91440000D01*
%TO.N,Net-(J14-Pin_8b)*%
X93980000Y-101600000D02*
X73660000Y-101600000D01*
%TO.N,Net-(A1-D2)*%
X69000000Y-103720000D02*
X71120000Y-101600000D01*
X90239000Y-110559000D02*
X73229818Y-110559000D01*
X91440000Y-111760000D02*
X90239000Y-110559000D01*
X73229818Y-110559000D02*
X69000000Y-106329182D01*
X69000000Y-106329182D02*
X69000000Y-103720000D01*
%TO.N,Net-(A1-A7)*%
X91440000Y-96520000D02*
X89152000Y-94232000D01*
%TO.N,Net-(J15-Pin_7b)*%
X128289000Y-100311000D02*
X129540000Y-99060000D01*
X125000000Y-101830818D02*
X126519818Y-100311000D01*
%TO.N,Net-(A1-D4)*%
X96520000Y-111760000D02*
X96520000Y-111480000D01*
%TO.N,Net-(J15-Pin_7b)*%
X126519818Y-100311000D02*
X128289000Y-100311000D01*
X125000000Y-103000000D02*
X125000000Y-101830818D01*
%TO.N,Net-(A1-SCL{slash}A5)*%
X96520000Y-96520000D02*
X95181000Y-95181000D01*
X95181000Y-78529000D02*
X96520000Y-77190000D01*
X95181000Y-95181000D02*
X95181000Y-78529000D01*
%TO.N,Net-(A1-A0)*%
X109220000Y-96520000D02*
X105740000Y-100000000D01*
X105740000Y-100000000D02*
X77140000Y-100000000D01*
X76570000Y-99430000D02*
X73660000Y-96520000D01*
%TO.N,Net-(J15-Pin_3b)*%
X130791000Y-90151000D02*
X129540000Y-88900000D01*
%TO.N,Net-(J14-Pin_3b)*%
X75000000Y-90240000D02*
X73660000Y-88900000D01*
X75000000Y-91000000D02*
X75000000Y-90240000D01*
X76000000Y-92000000D02*
X75000000Y-91000000D01*
%TO.N,Net-(A1-A3)*%
X101600000Y-96520000D02*
X101600000Y-97950000D01*
X102266509Y-98616509D02*
X103000000Y-99350000D01*
X101600000Y-97950000D02*
X102266509Y-98616509D01*
%TO.N,Net-(A1-A2)*%
X104140000Y-96520000D02*
X104140000Y-98490000D01*
X108000000Y-99350000D02*
X109350000Y-99350000D01*
X104140000Y-98490000D02*
X105000000Y-99350000D01*
%TO.N,Net-(A1-MISO_D12)*%
X116840000Y-111760000D02*
X123689182Y-111760000D01*
%TO.N,Net-(J15-Pin_7a)*%
X124000000Y-102000000D02*
X124000000Y-100000000D01*
X124940000Y-99060000D02*
X127000000Y-99060000D01*
X124000000Y-100000000D02*
X124940000Y-99060000D01*
%TO.N,Net-(A1-SCK_D13)*%
X116840000Y-96520000D02*
X118091000Y-95269000D01*
X128251000Y-95269000D02*
X129540000Y-93980000D01*
X118091000Y-95269000D02*
X128251000Y-95269000D01*
%TO.N,Net-(A1-A1)*%
X115639000Y-97017471D02*
X116392529Y-97771000D01*
X114616471Y-95000000D02*
X115639000Y-96022529D01*
X106680000Y-96520000D02*
X108200000Y-95000000D01*
X115639000Y-96022529D02*
X115639000Y-97017471D01*
X116392529Y-97771000D02*
X128289000Y-97771000D01*
X128289000Y-97771000D02*
X129540000Y-96520000D01*
X108200000Y-95000000D02*
X114616471Y-95000000D01*
%TO.N,Net-(A2-A3)*%
X105341000Y-80931000D02*
X105341000Y-93659000D01*
X105341000Y-93659000D02*
X105000000Y-94000000D01*
X101600000Y-77190000D02*
X105341000Y-80931000D01*
%TO.N,Net-(J14-Pin_9a)*%
X72371000Y-105391000D02*
X71120000Y-104140000D01*
%TO.N,Net-(A2-D9)*%
X109220000Y-92430000D02*
X106331000Y-95319000D01*
X103642529Y-95319000D02*
X102801000Y-96160529D01*
X102801000Y-96160529D02*
X102801000Y-97474604D01*
X102801000Y-97474604D02*
X102422422Y-97853182D01*
X106331000Y-95319000D02*
X103642529Y-95319000D01*
%TO.N,Net-(J15-Pin_2a)*%
X125000000Y-86000000D02*
X125360000Y-86360000D01*
X125360000Y-86360000D02*
X127000000Y-86360000D01*
%TO.N,Net-(A2-D10)*%
X111760000Y-92430000D02*
X118190000Y-86000000D01*
%TO.N,Net-(J15-Pin_5a)*%
X128251000Y-82569000D02*
X128251000Y-92729000D01*
X128251000Y-92729000D02*
X127000000Y-93980000D01*
%TO.N,Net-(A2-A6)*%
X94449000Y-77190000D02*
X95000000Y-76639000D01*
X99000000Y-72000000D02*
X124849942Y-72000000D01*
X133651000Y-80801058D02*
X133651000Y-104349000D01*
X133651000Y-104349000D02*
X133000000Y-105000000D01*
X93980000Y-77190000D02*
X94449000Y-77190000D01*
X124849942Y-72000000D02*
X133651000Y-80801058D01*
%TO.N,Net-(A2-A7)*%
X92306992Y-77190000D02*
X92857992Y-76639000D01*
X133000000Y-81000000D02*
X133000000Y-102000000D01*
X125000000Y-73000000D02*
X133000000Y-81000000D01*
X91440000Y-77190000D02*
X92306992Y-77190000D01*
X94000000Y-73000000D02*
X125000000Y-73000000D01*
%TO.N,Net-(A2-A1)*%
X106680000Y-77190000D02*
X106540000Y-77190000D01*
X106540000Y-77190000D02*
X105000000Y-75650000D01*
%TO.N,Net-(A2-A2)*%
X104140000Y-77190000D02*
X106000000Y-79050000D01*
X106000000Y-79050000D02*
X106000000Y-91000000D01*
%TO.N,Net-(J14-Pin_2a)*%
X87550000Y-86000000D02*
X86000000Y-86000000D01*
%TO.N,Net-(J14-Pin_4a)*%
X69869000Y-82569000D02*
X69869000Y-90189000D01*
X76449000Y-75989000D02*
X69869000Y-82569000D01*
X100261000Y-76692529D02*
X99557471Y-75989000D01*
X69869000Y-90189000D02*
X71120000Y-91440000D01*
X99557471Y-75989000D02*
X76449000Y-75989000D01*
%TO.N,Net-(A1-D3)*%
X93980000Y-111760000D02*
X92779000Y-112961000D01*
X92779000Y-112961000D02*
X74781876Y-112961000D01*
X74781876Y-112961000D02*
X68399000Y-106578124D01*
%TO.N,Net-(A1-D8)*%
X108482000Y-113562000D02*
X106680000Y-111760000D01*
%TD*%
%TA.AperFunction,Conductor*%
%TO.N,GND*%
G36*
X134642539Y-70320185D02*
G01*
X134688294Y-70372989D01*
X134699500Y-70424500D01*
X134699500Y-114575500D01*
X134679815Y-114642539D01*
X134627011Y-114688294D01*
X134575500Y-114699500D01*
X131529139Y-114699500D01*
X131462100Y-114679815D01*
X131416345Y-114627011D01*
X131406401Y-114557853D01*
X131435426Y-114494297D01*
X131441458Y-114487819D01*
X131445797Y-114483480D01*
X132735703Y-113193571D01*
X132735708Y-113193568D01*
X132745911Y-113183364D01*
X132745913Y-113183364D01*
X132820480Y-113108797D01*
X132873207Y-113017471D01*
X132876877Y-113003773D01*
X132886905Y-112966353D01*
X132892650Y-112944907D01*
X132900501Y-112915611D01*
X132900501Y-112810157D01*
X132900501Y-112802562D01*
X132900500Y-112802544D01*
X132900500Y-111986533D01*
X132920185Y-111919494D01*
X132968203Y-111876049D01*
X133013342Y-111853050D01*
X133103050Y-111763342D01*
X133160646Y-111650304D01*
X133160646Y-111650302D01*
X133160647Y-111650301D01*
X133175499Y-111556524D01*
X133175500Y-111556519D01*
X133175499Y-111093482D01*
X133160646Y-110999696D01*
X133103050Y-110886658D01*
X133103046Y-110886654D01*
X133103045Y-110886652D01*
X133013347Y-110796954D01*
X133013344Y-110796952D01*
X133013342Y-110796950D01*
X132926116Y-110752506D01*
X132900301Y-110739352D01*
X132806524Y-110724500D01*
X132193482Y-110724500D01*
X132112519Y-110737323D01*
X132099696Y-110739354D01*
X131986658Y-110796950D01*
X131986656Y-110796951D01*
X131977963Y-110801381D01*
X131976956Y-110799404D01*
X131923567Y-110818448D01*
X131855515Y-110802617D01*
X131806825Y-110752506D01*
X131792500Y-110694650D01*
X131792500Y-110305349D01*
X131812185Y-110238310D01*
X131864989Y-110192555D01*
X131934147Y-110182611D01*
X131977212Y-110200091D01*
X131977963Y-110198619D01*
X131986656Y-110203048D01*
X131986658Y-110203050D01*
X132099694Y-110260645D01*
X132099698Y-110260647D01*
X132193475Y-110275499D01*
X132193481Y-110275500D01*
X132806518Y-110275499D01*
X132900304Y-110260646D01*
X133013342Y-110203050D01*
X133103050Y-110113342D01*
X133160646Y-110000304D01*
X133160646Y-110000302D01*
X133160647Y-110000301D01*
X133172728Y-109924023D01*
X133175500Y-109906519D01*
X133175499Y-109443482D01*
X133160646Y-109349696D01*
X133103050Y-109236658D01*
X133103046Y-109236654D01*
X133103045Y-109236652D01*
X133013347Y-109146954D01*
X133013344Y-109146952D01*
X133013342Y-109146950D01*
X132936517Y-109107805D01*
X132900301Y-109089352D01*
X132806524Y-109074500D01*
X132806519Y-109074500D01*
X132566500Y-109074500D01*
X132499461Y-109054815D01*
X132453706Y-109002011D01*
X132442500Y-108950500D01*
X132442500Y-105378964D01*
X132462185Y-105311925D01*
X132514989Y-105266170D01*
X132584147Y-105256226D01*
X132647703Y-105285251D01*
X132654181Y-105291283D01*
X132723387Y-105360489D01*
X132826114Y-105419799D01*
X132940691Y-105450500D01*
X132940694Y-105450500D01*
X133059306Y-105450500D01*
X133059309Y-105450500D01*
X133173886Y-105419799D01*
X133276613Y-105360489D01*
X133360489Y-105276613D01*
X133419799Y-105173886D01*
X133421187Y-105168704D01*
X133453281Y-105113110D01*
X133971480Y-104594913D01*
X134024207Y-104503588D01*
X134051500Y-104401727D01*
X134051500Y-104296273D01*
X134051500Y-80863787D01*
X134051501Y-80863774D01*
X134051501Y-80748332D01*
X134044816Y-80723384D01*
X134024207Y-80646471D01*
X134007466Y-80617475D01*
X133971480Y-80555145D01*
X133896913Y-80480578D01*
X133896910Y-80480576D01*
X125095855Y-71679520D01*
X125050192Y-71653156D01*
X125004531Y-71626793D01*
X124953599Y-71613146D01*
X124902669Y-71599500D01*
X124902668Y-71599500D01*
X99240538Y-71599500D01*
X99178537Y-71582886D01*
X99173890Y-71580203D01*
X99173887Y-71580201D01*
X99145241Y-71572525D01*
X99059309Y-71549500D01*
X98940691Y-71549500D01*
X98826114Y-71580201D01*
X98826112Y-71580201D01*
X98826112Y-71580202D01*
X98723387Y-71639511D01*
X98723384Y-71639513D01*
X98639513Y-71723384D01*
X98639511Y-71723387D01*
X98580201Y-71826114D01*
X98549500Y-71940691D01*
X98549500Y-72059309D01*
X98580201Y-72173886D01*
X98639511Y-72276613D01*
X98723387Y-72360489D01*
X98723388Y-72360490D01*
X98723390Y-72360491D01*
X98736592Y-72368113D01*
X98784808Y-72418680D01*
X98798030Y-72487288D01*
X98772062Y-72552152D01*
X98715148Y-72592680D01*
X98674592Y-72599500D01*
X94240538Y-72599500D01*
X94178537Y-72582886D01*
X94173890Y-72580203D01*
X94173887Y-72580201D01*
X94145241Y-72572525D01*
X94059309Y-72549500D01*
X93940691Y-72549500D01*
X93826114Y-72580201D01*
X93826112Y-72580201D01*
X93826112Y-72580202D01*
X93723387Y-72639511D01*
X93723384Y-72639513D01*
X93639513Y-72723384D01*
X93639511Y-72723387D01*
X93580201Y-72826114D01*
X93549500Y-72940691D01*
X93549500Y-73059309D01*
X93580201Y-73173886D01*
X93639511Y-73276613D01*
X93723387Y-73360489D01*
X93723388Y-73360490D01*
X93723390Y-73360491D01*
X93736592Y-73368113D01*
X93784808Y-73418680D01*
X93798030Y-73487288D01*
X93772062Y-73552152D01*
X93715148Y-73592680D01*
X93674592Y-73599500D01*
X77535331Y-73599500D01*
X77433468Y-73626793D01*
X77413250Y-73638467D01*
X77411443Y-73639511D01*
X77411440Y-73639513D01*
X77342146Y-73679519D01*
X77342143Y-73679521D01*
X67179522Y-83842142D01*
X67179518Y-83842148D01*
X67126792Y-83933470D01*
X67126793Y-83933471D01*
X67099500Y-84035331D01*
X67099500Y-104698273D01*
X67099500Y-104803727D01*
X67109046Y-104839354D01*
X67126793Y-104905589D01*
X67139178Y-104927040D01*
X67179520Y-104996913D01*
X67179522Y-104996915D01*
X67295716Y-105113109D01*
X67327808Y-105168691D01*
X67329198Y-105173881D01*
X67329200Y-105173885D01*
X67354267Y-105217302D01*
X67388511Y-105276613D01*
X67472387Y-105360489D01*
X67575114Y-105419799D01*
X67689691Y-105450500D01*
X67689694Y-105450500D01*
X67808306Y-105450500D01*
X67808309Y-105450500D01*
X67842408Y-105441363D01*
X67912256Y-105443026D01*
X67970119Y-105482188D01*
X67997623Y-105546417D01*
X67998500Y-105561138D01*
X67998500Y-106630850D01*
X68025793Y-106732713D01*
X68052156Y-106778374D01*
X68078520Y-106824037D01*
X74535963Y-113281480D01*
X74627288Y-113334207D01*
X74729149Y-113361500D01*
X74729151Y-113361500D01*
X92831725Y-113361500D01*
X92831727Y-113361500D01*
X92933588Y-113334207D01*
X93024913Y-113281480D01*
X93556165Y-112750226D01*
X93617486Y-112716743D01*
X93682016Y-112721357D01*
X93682342Y-112720284D01*
X93687073Y-112721719D01*
X93687177Y-112721727D01*
X93687442Y-112721831D01*
X93688157Y-112722047D01*
X93688165Y-112722051D01*
X93735496Y-112731465D01*
X93881456Y-112760500D01*
X93881459Y-112760500D01*
X94078543Y-112760500D01*
X94215233Y-112733310D01*
X94271835Y-112722051D01*
X94453914Y-112646632D01*
X94617782Y-112537139D01*
X94757139Y-112397782D01*
X94866632Y-112233914D01*
X94868441Y-112229548D01*
X94930187Y-112080477D01*
X94942051Y-112051835D01*
X94955041Y-111986533D01*
X94980500Y-111858543D01*
X94980500Y-111661456D01*
X94942052Y-111468170D01*
X94942051Y-111468169D01*
X94942051Y-111468165D01*
X94939501Y-111462009D01*
X94866635Y-111286092D01*
X94866628Y-111286079D01*
X94757139Y-111122218D01*
X94757136Y-111122214D01*
X94617785Y-110982863D01*
X94617781Y-110982860D01*
X94453920Y-110873371D01*
X94453907Y-110873364D01*
X94271839Y-110797950D01*
X94271829Y-110797947D01*
X94078543Y-110759500D01*
X94078541Y-110759500D01*
X93881459Y-110759500D01*
X93881457Y-110759500D01*
X93688170Y-110797947D01*
X93688160Y-110797950D01*
X93506092Y-110873364D01*
X93506079Y-110873371D01*
X93342218Y-110982860D01*
X93342214Y-110982863D01*
X93202863Y-111122214D01*
X93202860Y-111122218D01*
X93093371Y-111286079D01*
X93093364Y-111286092D01*
X93017950Y-111468160D01*
X93017947Y-111468170D01*
X92979500Y-111661456D01*
X92979500Y-111661459D01*
X92979500Y-111858541D01*
X92979500Y-111858543D01*
X92979499Y-111858543D01*
X93017948Y-112051833D01*
X93019718Y-112057668D01*
X93017684Y-112058284D01*
X93024115Y-112118190D01*
X92992831Y-112180664D01*
X92989770Y-112183835D01*
X92649426Y-112524181D01*
X92622498Y-112538884D01*
X92596680Y-112555477D01*
X92590479Y-112556368D01*
X92588103Y-112557666D01*
X92561745Y-112560500D01*
X92340402Y-112560500D01*
X92273363Y-112540815D01*
X92227608Y-112488011D01*
X92217664Y-112418853D01*
X92237300Y-112367609D01*
X92326628Y-112233920D01*
X92326628Y-112233919D01*
X92326632Y-112233914D01*
X92328441Y-112229548D01*
X92390187Y-112080477D01*
X92402051Y-112051835D01*
X92415041Y-111986533D01*
X92440500Y-111858543D01*
X92440500Y-111661456D01*
X92402052Y-111468170D01*
X92402051Y-111468169D01*
X92402051Y-111468165D01*
X92399501Y-111462009D01*
X92326635Y-111286092D01*
X92326628Y-111286079D01*
X92217139Y-111122218D01*
X92217136Y-111122214D01*
X92077785Y-110982863D01*
X92077781Y-110982860D01*
X91913920Y-110873371D01*
X91913907Y-110873364D01*
X91731839Y-110797950D01*
X91731829Y-110797947D01*
X91538543Y-110759500D01*
X91538541Y-110759500D01*
X91341459Y-110759500D01*
X91341457Y-110759500D01*
X91148166Y-110797948D01*
X91142336Y-110799717D01*
X91141719Y-110797683D01*
X91081816Y-110804118D01*
X91019340Y-110772837D01*
X91016164Y-110769771D01*
X90484915Y-110238522D01*
X90484913Y-110238520D01*
X90423478Y-110203050D01*
X90393589Y-110185793D01*
X90315269Y-110164808D01*
X90291727Y-110158500D01*
X90291726Y-110158500D01*
X73447073Y-110158500D01*
X73380034Y-110138815D01*
X73359392Y-110122181D01*
X72171319Y-108934108D01*
X73710318Y-108934108D01*
X73710318Y-109065892D01*
X73717711Y-109093482D01*
X73744426Y-109193187D01*
X73771523Y-109240120D01*
X73810318Y-109307314D01*
X73903504Y-109400500D01*
X73977951Y-109443482D01*
X74017628Y-109466390D01*
X74017632Y-109466392D01*
X74144926Y-109500500D01*
X74144928Y-109500500D01*
X74276708Y-109500500D01*
X74276710Y-109500500D01*
X74404004Y-109466392D01*
X74489358Y-109417113D01*
X74551358Y-109400500D01*
X75717640Y-109400500D01*
X75784679Y-109420185D01*
X75830434Y-109472989D01*
X75835911Y-109491157D01*
X75836337Y-109491019D01*
X75839352Y-109500300D01*
X75839353Y-109500303D01*
X75839354Y-109500304D01*
X75896950Y-109613342D01*
X75896952Y-109613344D01*
X75896954Y-109613347D01*
X75986652Y-109703045D01*
X75986654Y-109703046D01*
X75986658Y-109703050D01*
X76099694Y-109760645D01*
X76099698Y-109760647D01*
X76193475Y-109775499D01*
X76193481Y-109775500D01*
X76806518Y-109775499D01*
X76900304Y-109760646D01*
X77013342Y-109703050D01*
X77103050Y-109613342D01*
X77160646Y-109500304D01*
X77160646Y-109500302D01*
X77160647Y-109500301D01*
X77163663Y-109491020D01*
X77166174Y-109491836D01*
X77189820Y-109441963D01*
X77249134Y-109405034D01*
X77282360Y-109400500D01*
X93159460Y-109400500D01*
X93221460Y-109417113D01*
X93306814Y-109466392D01*
X93434108Y-109500500D01*
X93434110Y-109500500D01*
X93565890Y-109500500D01*
X93565892Y-109500500D01*
X93693186Y-109466392D01*
X93807314Y-109400500D01*
X93900500Y-109307314D01*
X93966392Y-109193186D01*
X93993109Y-109093475D01*
X95324500Y-109093475D01*
X95324500Y-109556517D01*
X95333500Y-109613342D01*
X95339354Y-109650304D01*
X95396950Y-109763342D01*
X95396952Y-109763344D01*
X95396954Y-109763347D01*
X95486652Y-109853045D01*
X95486654Y-109853046D01*
X95486658Y-109853050D01*
X95531796Y-109876049D01*
X95582591Y-109924023D01*
X95599500Y-109986533D01*
X95599500Y-111292730D01*
X95600829Y-111297689D01*
X95599164Y-111367539D01*
X95595616Y-111377225D01*
X95557952Y-111468159D01*
X95557948Y-111468168D01*
X95557947Y-111468171D01*
X95519500Y-111661456D01*
X95519500Y-111661459D01*
X95519500Y-111858541D01*
X95519500Y-111858543D01*
X95519499Y-111858543D01*
X95557947Y-112051829D01*
X95557950Y-112051839D01*
X95633364Y-112233907D01*
X95633371Y-112233920D01*
X95742860Y-112397781D01*
X95742863Y-112397785D01*
X95882214Y-112537136D01*
X95882218Y-112537139D01*
X96046079Y-112646628D01*
X96046092Y-112646635D01*
X96227363Y-112721719D01*
X96228165Y-112722051D01*
X96228169Y-112722051D01*
X96228170Y-112722052D01*
X96421456Y-112760500D01*
X96421459Y-112760500D01*
X96618543Y-112760500D01*
X96755233Y-112733310D01*
X96811835Y-112722051D01*
X96993914Y-112646632D01*
X97157782Y-112537139D01*
X97297139Y-112397782D01*
X97406632Y-112233914D01*
X97408441Y-112229548D01*
X97470187Y-112080477D01*
X97482051Y-112051835D01*
X97495041Y-111986533D01*
X97520500Y-111858543D01*
X97520500Y-111661456D01*
X97482052Y-111468170D01*
X97482051Y-111468169D01*
X97482051Y-111468165D01*
X97479501Y-111462009D01*
X97406635Y-111286092D01*
X97406628Y-111286079D01*
X97297139Y-111122218D01*
X97297136Y-111122214D01*
X97157785Y-110982863D01*
X97157781Y-110982860D01*
X96993920Y-110873371D01*
X96993907Y-110873364D01*
X96811839Y-110797950D01*
X96811829Y-110797947D01*
X96618543Y-110759500D01*
X96618541Y-110759500D01*
X96524500Y-110759500D01*
X96457461Y-110739815D01*
X96411706Y-110687011D01*
X96400500Y-110635500D01*
X96400500Y-109986533D01*
X96420185Y-109919494D01*
X96468203Y-109876049D01*
X96513342Y-109853050D01*
X96603050Y-109763342D01*
X96660646Y-109650304D01*
X96660646Y-109650302D01*
X96660647Y-109650301D01*
X96675499Y-109556524D01*
X96675500Y-109556519D01*
X96675499Y-109093482D01*
X96660646Y-108999696D01*
X96603050Y-108886658D01*
X96603046Y-108886654D01*
X96603045Y-108886652D01*
X96513347Y-108796954D01*
X96513344Y-108796952D01*
X96513342Y-108796950D01*
X96436517Y-108757805D01*
X96400301Y-108739352D01*
X96306524Y-108724500D01*
X95693482Y-108724500D01*
X95612519Y-108737323D01*
X95599696Y-108739354D01*
X95486658Y-108796950D01*
X95486657Y-108796951D01*
X95486652Y-108796954D01*
X95396954Y-108886652D01*
X95396951Y-108886657D01*
X95396950Y-108886658D01*
X95377751Y-108924337D01*
X95339352Y-108999698D01*
X95324500Y-109093475D01*
X93993109Y-109093475D01*
X94000500Y-109065892D01*
X94000500Y-108934108D01*
X93966392Y-108806814D01*
X93900500Y-108692686D01*
X93807314Y-108599500D01*
X93750250Y-108566554D01*
X93693187Y-108533608D01*
X93629539Y-108516554D01*
X93565892Y-108499500D01*
X93434108Y-108499500D01*
X93306814Y-108533608D01*
X93306813Y-108533608D01*
X93306811Y-108533609D01*
X93306810Y-108533609D01*
X93221460Y-108582887D01*
X93159460Y-108599500D01*
X76949987Y-108599500D01*
X76910362Y-108589986D01*
X76909588Y-108592370D01*
X76900302Y-108589353D01*
X76806524Y-108574500D01*
X76193482Y-108574500D01*
X76124847Y-108585370D01*
X76099696Y-108589354D01*
X76099694Y-108589354D01*
X76099692Y-108589355D01*
X76090413Y-108592370D01*
X76089638Y-108589986D01*
X76050014Y-108599500D01*
X74551358Y-108599500D01*
X74489358Y-108582887D01*
X74404006Y-108533609D01*
X74404005Y-108533608D01*
X74404004Y-108533608D01*
X74276710Y-108499500D01*
X74144926Y-108499500D01*
X74017630Y-108533608D01*
X73903504Y-108599500D01*
X73903501Y-108599502D01*
X73810320Y-108692683D01*
X73810318Y-108692686D01*
X73744426Y-108806812D01*
X73723032Y-108886657D01*
X73710318Y-108934108D01*
X72171319Y-108934108D01*
X71174183Y-107936972D01*
X71140698Y-107875649D01*
X71145682Y-107805957D01*
X71187554Y-107750024D01*
X71237673Y-107727674D01*
X71284417Y-107718376D01*
X71426420Y-107690130D01*
X71617598Y-107610941D01*
X71789655Y-107495977D01*
X71935977Y-107349655D01*
X72050941Y-107177598D01*
X72130130Y-106986420D01*
X72170500Y-106783465D01*
X72170500Y-106576535D01*
X72130130Y-106373580D01*
X72050941Y-106182402D01*
X71935977Y-106010345D01*
X71935975Y-106010342D01*
X71789657Y-105864024D01*
X71694087Y-105800167D01*
X71617598Y-105749059D01*
X71555613Y-105723384D01*
X71426420Y-105669870D01*
X71426412Y-105669868D01*
X71223469Y-105629500D01*
X71223465Y-105629500D01*
X71016535Y-105629500D01*
X71016530Y-105629500D01*
X70813587Y-105669868D01*
X70813579Y-105669870D01*
X70622403Y-105749058D01*
X70450342Y-105864024D01*
X70304024Y-106010342D01*
X70189058Y-106182403D01*
X70109870Y-106373579D01*
X70109868Y-106373585D01*
X70072325Y-106562327D01*
X70039940Y-106624238D01*
X69979224Y-106658812D01*
X69909455Y-106655072D01*
X69863027Y-106625816D01*
X69436819Y-106199608D01*
X69403334Y-106138285D01*
X69400500Y-106111927D01*
X69400500Y-103937253D01*
X69420185Y-103870214D01*
X69436814Y-103849577D01*
X70657896Y-102628494D01*
X70719217Y-102595011D01*
X70788909Y-102599995D01*
X70792969Y-102601592D01*
X70813580Y-102610130D01*
X71015550Y-102650304D01*
X71016530Y-102650499D01*
X71016534Y-102650500D01*
X71016535Y-102650500D01*
X71223466Y-102650500D01*
X71223467Y-102650499D01*
X71426420Y-102610130D01*
X71617598Y-102530941D01*
X71789655Y-102415977D01*
X71883850Y-102321781D01*
X71945171Y-102288298D01*
X72014863Y-102293282D01*
X72070797Y-102335153D01*
X72078915Y-102347460D01*
X72084838Y-102357718D01*
X72088520Y-102364095D01*
X72895905Y-103171480D01*
X72895906Y-103171481D01*
X72895908Y-103171482D01*
X72912537Y-103181083D01*
X72960752Y-103231651D01*
X72973973Y-103300259D01*
X72948004Y-103365123D01*
X72938217Y-103376150D01*
X72844023Y-103470344D01*
X72729058Y-103642403D01*
X72649870Y-103833579D01*
X72649868Y-103833587D01*
X72609500Y-104036530D01*
X72609500Y-104243469D01*
X72649868Y-104446412D01*
X72649870Y-104446420D01*
X72729059Y-104637599D01*
X72729059Y-104637600D01*
X72835974Y-104797610D01*
X72839010Y-104807308D01*
X72845666Y-104814989D01*
X72849275Y-104840088D01*
X72856852Y-104864287D01*
X72854163Y-104874086D01*
X72855610Y-104884147D01*
X72845075Y-104907215D01*
X72838367Y-104931667D01*
X72830807Y-104938457D01*
X72826585Y-104947703D01*
X72805250Y-104961413D01*
X72786388Y-104978357D01*
X72774791Y-104980988D01*
X72767807Y-104985477D01*
X72732872Y-104990500D01*
X72588255Y-104990500D01*
X72521216Y-104970815D01*
X72500574Y-104954181D01*
X72148497Y-104602104D01*
X72115012Y-104540781D01*
X72119996Y-104471089D01*
X72121619Y-104466966D01*
X72130128Y-104446424D01*
X72130130Y-104446420D01*
X72170500Y-104243465D01*
X72170500Y-104036535D01*
X72130130Y-103833580D01*
X72050941Y-103642402D01*
X71935977Y-103470345D01*
X71935976Y-103470344D01*
X71935975Y-103470342D01*
X71789657Y-103324024D01*
X71698134Y-103262871D01*
X71617598Y-103209059D01*
X71562083Y-103186064D01*
X71426420Y-103129870D01*
X71426412Y-103129868D01*
X71223469Y-103089500D01*
X71223465Y-103089500D01*
X71016535Y-103089500D01*
X71016530Y-103089500D01*
X70813587Y-103129868D01*
X70813579Y-103129870D01*
X70622403Y-103209058D01*
X70450342Y-103324024D01*
X70304024Y-103470342D01*
X70189058Y-103642403D01*
X70109870Y-103833579D01*
X70109868Y-103833587D01*
X70069500Y-104036530D01*
X70069500Y-104243469D01*
X70109868Y-104446412D01*
X70109870Y-104446420D01*
X70182252Y-104621166D01*
X70189059Y-104637598D01*
X70231499Y-104701115D01*
X70304024Y-104809657D01*
X70450342Y-104955975D01*
X70450345Y-104955977D01*
X70622402Y-105070941D01*
X70813580Y-105150130D01*
X70965065Y-105180262D01*
X71016530Y-105190499D01*
X71016534Y-105190500D01*
X71016535Y-105190500D01*
X71223466Y-105190500D01*
X71223467Y-105190499D01*
X71426420Y-105150130D01*
X71446967Y-105141618D01*
X71516435Y-105134147D01*
X71578915Y-105165420D01*
X71582104Y-105168497D01*
X72125087Y-105711480D01*
X72216412Y-105764207D01*
X72318273Y-105791500D01*
X72423727Y-105791500D01*
X72763505Y-105791500D01*
X72830544Y-105811185D01*
X72876299Y-105863989D01*
X72886243Y-105933147D01*
X72857218Y-105996703D01*
X72851186Y-106003181D01*
X72844025Y-106010341D01*
X72844024Y-106010342D01*
X72729058Y-106182403D01*
X72649870Y-106373579D01*
X72649868Y-106373587D01*
X72609500Y-106576530D01*
X72609500Y-106783469D01*
X72649868Y-106986412D01*
X72649870Y-106986420D01*
X72726851Y-107172269D01*
X72729059Y-107177598D01*
X72751901Y-107211784D01*
X72844024Y-107349657D01*
X72990342Y-107495975D01*
X72990345Y-107495977D01*
X73162402Y-107610941D01*
X73353580Y-107690130D01*
X73527472Y-107724719D01*
X73556530Y-107730499D01*
X73556534Y-107730500D01*
X73556535Y-107730500D01*
X73763466Y-107730500D01*
X73763467Y-107730499D01*
X73966420Y-107690130D01*
X74157598Y-107610941D01*
X74329655Y-107495977D01*
X74475977Y-107349655D01*
X74590941Y-107177598D01*
X74670130Y-106986420D01*
X74710500Y-106783465D01*
X74710500Y-106576535D01*
X74670130Y-106373580D01*
X74590941Y-106182402D01*
X74475977Y-106010345D01*
X74475975Y-106010342D01*
X74468814Y-106003181D01*
X74435329Y-105941858D01*
X74440313Y-105872166D01*
X74482185Y-105816233D01*
X74547649Y-105791816D01*
X74556495Y-105791500D01*
X78466215Y-105791500D01*
X78533254Y-105811185D01*
X78579009Y-105863989D01*
X78588688Y-105896102D01*
X78589352Y-105900300D01*
X78589353Y-105900303D01*
X78589354Y-105900304D01*
X78646950Y-106013342D01*
X78646952Y-106013344D01*
X78646954Y-106013347D01*
X78736652Y-106103045D01*
X78736654Y-106103046D01*
X78736658Y-106103050D01*
X78849694Y-106160645D01*
X78849698Y-106160647D01*
X78943475Y-106175499D01*
X78943481Y-106175500D01*
X79406518Y-106175499D01*
X79500304Y-106160646D01*
X79613342Y-106103050D01*
X79703050Y-106013342D01*
X79760646Y-105900304D01*
X79760646Y-105900302D01*
X79760647Y-105900301D01*
X79775499Y-105806524D01*
X79775500Y-105806519D01*
X79775499Y-105193482D01*
X79775498Y-105193475D01*
X80224500Y-105193475D01*
X80224500Y-105806517D01*
X80232333Y-105855974D01*
X80239354Y-105900304D01*
X80296950Y-106013342D01*
X80296952Y-106013344D01*
X80296954Y-106013347D01*
X80386652Y-106103045D01*
X80386654Y-106103046D01*
X80386658Y-106103050D01*
X80499694Y-106160645D01*
X80499698Y-106160647D01*
X80593475Y-106175499D01*
X80593481Y-106175500D01*
X81056518Y-106175499D01*
X81150304Y-106160646D01*
X81263342Y-106103050D01*
X81353050Y-106013342D01*
X81376049Y-105968203D01*
X81424023Y-105917409D01*
X81486533Y-105900500D01*
X85552725Y-105900500D01*
X85552727Y-105900500D01*
X85654588Y-105873207D01*
X85745913Y-105820480D01*
X87113110Y-104453281D01*
X87168704Y-104421187D01*
X87173886Y-104419799D01*
X87276613Y-104360489D01*
X87360489Y-104276613D01*
X87419799Y-104173886D01*
X87450500Y-104059309D01*
X87450500Y-103940691D01*
X87419799Y-103826114D01*
X87360489Y-103723387D01*
X87276613Y-103639511D01*
X87276611Y-103639510D01*
X87276609Y-103639508D01*
X87263408Y-103631887D01*
X87215192Y-103581320D01*
X87201970Y-103512712D01*
X87227938Y-103447848D01*
X87284852Y-103407320D01*
X87325408Y-103400500D01*
X92622745Y-103400500D01*
X92689784Y-103420185D01*
X92710426Y-103436819D01*
X96136426Y-106862819D01*
X96169911Y-106924142D01*
X96164927Y-106993834D01*
X96123055Y-107049767D01*
X96057591Y-107074184D01*
X96048745Y-107074500D01*
X95693482Y-107074500D01*
X95612519Y-107087323D01*
X95599696Y-107089354D01*
X95486658Y-107146950D01*
X95486657Y-107146951D01*
X95486652Y-107146954D01*
X95396954Y-107236652D01*
X95396951Y-107236657D01*
X95396950Y-107236658D01*
X95381011Y-107267940D01*
X95339352Y-107349698D01*
X95324500Y-107443475D01*
X95324500Y-107906517D01*
X95329123Y-107935703D01*
X95339354Y-108000304D01*
X95396950Y-108113342D01*
X95396952Y-108113344D01*
X95396954Y-108113347D01*
X95486652Y-108203045D01*
X95486654Y-108203046D01*
X95486658Y-108203050D01*
X95598389Y-108259980D01*
X95599698Y-108260647D01*
X95693475Y-108275499D01*
X95693481Y-108275500D01*
X95982744Y-108275499D01*
X96004186Y-108281795D01*
X96026468Y-108283464D01*
X96040335Y-108292408D01*
X96049783Y-108295183D01*
X96057388Y-108300482D01*
X96064298Y-108305691D01*
X96118707Y-108360100D01*
X96188005Y-108400109D01*
X96210031Y-108412826D01*
X96210032Y-108412826D01*
X96210033Y-108412827D01*
X96311893Y-108440121D01*
X96311895Y-108440121D01*
X96424943Y-108440121D01*
X96424959Y-108440120D01*
X96719842Y-108440120D01*
X96781843Y-108456734D01*
X96786489Y-108459416D01*
X96786490Y-108459417D01*
X96786494Y-108459419D01*
X96901071Y-108490120D01*
X96901074Y-108490120D01*
X97019686Y-108490120D01*
X97019689Y-108490120D01*
X97134266Y-108459419D01*
X97236993Y-108400109D01*
X97320869Y-108316233D01*
X97338519Y-108285661D01*
X97389084Y-108237446D01*
X97457691Y-108224222D01*
X97522556Y-108250189D01*
X97533587Y-108259980D01*
X100609771Y-111336164D01*
X100643256Y-111397487D01*
X100638641Y-111462009D01*
X100639717Y-111462336D01*
X100638279Y-111467075D01*
X100638272Y-111467179D01*
X100638166Y-111467445D01*
X100637948Y-111468166D01*
X100599500Y-111661456D01*
X100599500Y-111661459D01*
X100599500Y-111858541D01*
X100599500Y-111858543D01*
X100599499Y-111858543D01*
X100637947Y-112051829D01*
X100637950Y-112051839D01*
X100713364Y-112233907D01*
X100713371Y-112233920D01*
X100822860Y-112397781D01*
X100822863Y-112397785D01*
X100962214Y-112537136D01*
X100962218Y-112537139D01*
X101126079Y-112646628D01*
X101126092Y-112646635D01*
X101307363Y-112721719D01*
X101308165Y-112722051D01*
X101308169Y-112722051D01*
X101308170Y-112722052D01*
X101501456Y-112760500D01*
X101501459Y-112760500D01*
X101698543Y-112760500D01*
X101835233Y-112733310D01*
X101891835Y-112722051D01*
X102073914Y-112646632D01*
X102237782Y-112537139D01*
X102377139Y-112397782D01*
X102486632Y-112233914D01*
X102488441Y-112229548D01*
X102550187Y-112080477D01*
X102562051Y-112051835D01*
X102575041Y-111986533D01*
X102600500Y-111858543D01*
X102600500Y-111661456D01*
X102562052Y-111468170D01*
X102562051Y-111468169D01*
X102562051Y-111468165D01*
X102559501Y-111462009D01*
X102486635Y-111286092D01*
X102486628Y-111286079D01*
X102377139Y-111122218D01*
X102377136Y-111122214D01*
X102237785Y-110982863D01*
X102237781Y-110982860D01*
X102073920Y-110873371D01*
X102073907Y-110873364D01*
X101891839Y-110797950D01*
X101891829Y-110797947D01*
X101698543Y-110759500D01*
X101698541Y-110759500D01*
X101501459Y-110759500D01*
X101501457Y-110759500D01*
X101308166Y-110797948D01*
X101302336Y-110799717D01*
X101301719Y-110797683D01*
X101241816Y-110804118D01*
X101179340Y-110772837D01*
X101176164Y-110769771D01*
X97479352Y-107072959D01*
X98846988Y-107072959D01*
X98846988Y-107199832D01*
X98858954Y-107236658D01*
X98886191Y-107320486D01*
X98886192Y-107320488D01*
X98886194Y-107320491D01*
X98907415Y-107349698D01*
X98942003Y-107397304D01*
X98942006Y-107397307D01*
X99269421Y-107724721D01*
X99269423Y-107724723D01*
X99304468Y-107750185D01*
X99346240Y-107780535D01*
X99424483Y-107805957D01*
X99466893Y-107819737D01*
X99466894Y-107819737D01*
X99466897Y-107819738D01*
X99466900Y-107819738D01*
X99582939Y-107819738D01*
X99649978Y-107839423D01*
X99673175Y-107860763D01*
X99673773Y-107860166D01*
X103149771Y-111336164D01*
X103183256Y-111397487D01*
X103178641Y-111462009D01*
X103179717Y-111462336D01*
X103178279Y-111467075D01*
X103178272Y-111467179D01*
X103178166Y-111467445D01*
X103177948Y-111468166D01*
X103139500Y-111661456D01*
X103139500Y-111661459D01*
X103139500Y-111858541D01*
X103139500Y-111858543D01*
X103139499Y-111858543D01*
X103177947Y-112051829D01*
X103177950Y-112051839D01*
X103253364Y-112233907D01*
X103253371Y-112233920D01*
X103362860Y-112397781D01*
X103362863Y-112397785D01*
X103502214Y-112537136D01*
X103502218Y-112537139D01*
X103666079Y-112646628D01*
X103666092Y-112646635D01*
X103847363Y-112721719D01*
X103848165Y-112722051D01*
X103848169Y-112722051D01*
X103848170Y-112722052D01*
X104041456Y-112760500D01*
X104041459Y-112760500D01*
X104238543Y-112760500D01*
X104375233Y-112733310D01*
X104431835Y-112722051D01*
X104613914Y-112646632D01*
X104777782Y-112537139D01*
X104917139Y-112397782D01*
X105026632Y-112233914D01*
X105028441Y-112229548D01*
X105090187Y-112080477D01*
X105102051Y-112051835D01*
X105115041Y-111986533D01*
X105140500Y-111858543D01*
X105140500Y-111661456D01*
X105102052Y-111468170D01*
X105102051Y-111468169D01*
X105102051Y-111468165D01*
X105099501Y-111462009D01*
X105026635Y-111286092D01*
X105026628Y-111286079D01*
X104917139Y-111122218D01*
X104917136Y-111122214D01*
X104777785Y-110982863D01*
X104777781Y-110982860D01*
X104613920Y-110873371D01*
X104613907Y-110873364D01*
X104431839Y-110797950D01*
X104431829Y-110797947D01*
X104238543Y-110759500D01*
X104238541Y-110759500D01*
X104041459Y-110759500D01*
X104041457Y-110759500D01*
X103848166Y-110797948D01*
X103842336Y-110799717D01*
X103841719Y-110797683D01*
X103781816Y-110804118D01*
X103719340Y-110772837D01*
X103716164Y-110769771D01*
X103058574Y-110112181D01*
X103025089Y-110050858D01*
X103030073Y-109981166D01*
X103071945Y-109925233D01*
X103137409Y-109900816D01*
X103146255Y-109900500D01*
X103213107Y-109900500D01*
X104188467Y-109900500D01*
X104255506Y-109920185D01*
X104298950Y-109968203D01*
X104321950Y-110013342D01*
X104321952Y-110013344D01*
X104321954Y-110013347D01*
X104411652Y-110103045D01*
X104411654Y-110103046D01*
X104411658Y-110103050D01*
X104520484Y-110158500D01*
X104524698Y-110160647D01*
X104618475Y-110175499D01*
X104618481Y-110175500D01*
X105081518Y-110175499D01*
X105175304Y-110160646D01*
X105288342Y-110103050D01*
X105378050Y-110013342D01*
X105435646Y-109900304D01*
X105435646Y-109900302D01*
X105435647Y-109900301D01*
X105450499Y-109806524D01*
X105450500Y-109806519D01*
X105450499Y-109193482D01*
X105435646Y-109099696D01*
X105378050Y-108986658D01*
X105378046Y-108986654D01*
X105378045Y-108986652D01*
X105288347Y-108896954D01*
X105288344Y-108896952D01*
X105288342Y-108896950D01*
X105211517Y-108857805D01*
X105175301Y-108839352D01*
X105081524Y-108824500D01*
X104618482Y-108824500D01*
X104537519Y-108837323D01*
X104524696Y-108839354D01*
X104411658Y-108896950D01*
X104411657Y-108896951D01*
X104411652Y-108896954D01*
X104321954Y-108986652D01*
X104321951Y-108986657D01*
X104321950Y-108986658D01*
X104298950Y-109031796D01*
X104250977Y-109082591D01*
X104188467Y-109099500D01*
X103377635Y-109099500D01*
X103310596Y-109079815D01*
X103289954Y-109063181D01*
X103023993Y-108797220D01*
X102991900Y-108741634D01*
X102966392Y-108646434D01*
X102900500Y-108532306D01*
X102807314Y-108439120D01*
X102739745Y-108400109D01*
X102693187Y-108373228D01*
X102629539Y-108356174D01*
X102565892Y-108339120D01*
X102434108Y-108339120D01*
X102306812Y-108373228D01*
X102192686Y-108439120D01*
X102192683Y-108439122D01*
X102099502Y-108532303D01*
X102099500Y-108532306D01*
X102033608Y-108646432D01*
X101997397Y-108781578D01*
X101995502Y-108781070D01*
X101971543Y-108835216D01*
X101913215Y-108873681D01*
X101843350Y-108874505D01*
X101789198Y-108842805D01*
X100426496Y-107480103D01*
X100400704Y-107442421D01*
X100396868Y-107433715D01*
X100373207Y-107345413D01*
X100347985Y-107301727D01*
X100320480Y-107254087D01*
X100315543Y-107249150D01*
X100307980Y-107231985D01*
X100305319Y-107211542D01*
X100297884Y-107192315D01*
X100300207Y-107172269D01*
X100298962Y-107162700D01*
X100302081Y-107156104D01*
X100303522Y-107143669D01*
X100319738Y-107093763D01*
X100319738Y-106966897D01*
X100280535Y-106846240D01*
X100264403Y-106824037D01*
X100248457Y-106802089D01*
X100224722Y-106769421D01*
X99897305Y-106442005D01*
X99897304Y-106442004D01*
X99897302Y-106442002D01*
X99820488Y-106386192D01*
X99820486Y-106386191D01*
X99781673Y-106373580D01*
X99699832Y-106346988D01*
X99699829Y-106346988D01*
X99572963Y-106346988D01*
X99572959Y-106346988D01*
X99452306Y-106386191D01*
X99452300Y-106386194D01*
X99375493Y-106441999D01*
X99375484Y-106442006D01*
X98942004Y-106875487D01*
X98942002Y-106875489D01*
X98886192Y-106952303D01*
X98886191Y-106952306D01*
X98846988Y-107072959D01*
X97479352Y-107072959D01*
X93085915Y-102679522D01*
X93085913Y-102679520D01*
X93029965Y-102647218D01*
X92994589Y-102626793D01*
X92932403Y-102610131D01*
X92892727Y-102599500D01*
X92892726Y-102599500D01*
X84311533Y-102599500D01*
X84244494Y-102579815D01*
X84201049Y-102531796D01*
X84178050Y-102486658D01*
X84178046Y-102486654D01*
X84178045Y-102486652D01*
X84088347Y-102396954D01*
X84088344Y-102396952D01*
X84088342Y-102396950D01*
X83991213Y-102347460D01*
X83975301Y-102339352D01*
X83881524Y-102324500D01*
X83418482Y-102324500D01*
X83348210Y-102335630D01*
X83324696Y-102339354D01*
X83211658Y-102396950D01*
X83211657Y-102396951D01*
X83211652Y-102396954D01*
X83121954Y-102486652D01*
X83121951Y-102486657D01*
X83064352Y-102599698D01*
X83049500Y-102693475D01*
X83049500Y-103306517D01*
X83057354Y-103356103D01*
X83064354Y-103400304D01*
X83121950Y-103513342D01*
X83121952Y-103513344D01*
X83121954Y-103513347D01*
X83211652Y-103603045D01*
X83211654Y-103603046D01*
X83211658Y-103603050D01*
X83324694Y-103660645D01*
X83324698Y-103660647D01*
X83418475Y-103675499D01*
X83418481Y-103675500D01*
X83881518Y-103675499D01*
X83975304Y-103660646D01*
X84088342Y-103603050D01*
X84178050Y-103513342D01*
X84201049Y-103468203D01*
X84249023Y-103417409D01*
X84311533Y-103400500D01*
X86674592Y-103400500D01*
X86741631Y-103420185D01*
X86787386Y-103472989D01*
X86797330Y-103542147D01*
X86768305Y-103605703D01*
X86736592Y-103631887D01*
X86723390Y-103639508D01*
X86723384Y-103639513D01*
X86639513Y-103723384D01*
X86639509Y-103723390D01*
X86580201Y-103826114D01*
X86580200Y-103826115D01*
X86578810Y-103831305D01*
X86546717Y-103886888D01*
X85370426Y-105063181D01*
X85309103Y-105096666D01*
X85282745Y-105099500D01*
X81486533Y-105099500D01*
X81419494Y-105079815D01*
X81376049Y-105031796D01*
X81353050Y-104986658D01*
X81353046Y-104986654D01*
X81353045Y-104986652D01*
X81263347Y-104896954D01*
X81263344Y-104896952D01*
X81263342Y-104896950D01*
X81151745Y-104840088D01*
X81150301Y-104839352D01*
X81056524Y-104824500D01*
X80593482Y-104824500D01*
X80512519Y-104837323D01*
X80499696Y-104839354D01*
X80386658Y-104896950D01*
X80386657Y-104896951D01*
X80386652Y-104896954D01*
X80296954Y-104986652D01*
X80296951Y-104986657D01*
X80296950Y-104986658D01*
X80291725Y-104996913D01*
X80239352Y-105099698D01*
X80224500Y-105193475D01*
X79775498Y-105193475D01*
X79760646Y-105099696D01*
X79703050Y-104986658D01*
X79703046Y-104986654D01*
X79703045Y-104986652D01*
X79613347Y-104896954D01*
X79613344Y-104896952D01*
X79613342Y-104896950D01*
X79501745Y-104840088D01*
X79500301Y-104839352D01*
X79406524Y-104824500D01*
X78943482Y-104824500D01*
X78862519Y-104837323D01*
X78849696Y-104839354D01*
X78736658Y-104896950D01*
X78736657Y-104896951D01*
X78736656Y-104896951D01*
X78719851Y-104913757D01*
X78679425Y-104954182D01*
X78618105Y-104987666D01*
X78591746Y-104990500D01*
X74587128Y-104990500D01*
X74520089Y-104970815D01*
X74474334Y-104918011D01*
X74464390Y-104848853D01*
X74484026Y-104797610D01*
X74590940Y-104637600D01*
X74590940Y-104637599D01*
X74590941Y-104637598D01*
X74670130Y-104446420D01*
X74710500Y-104243465D01*
X74710500Y-104036535D01*
X74670130Y-103833580D01*
X74590941Y-103642402D01*
X74475977Y-103470345D01*
X74475976Y-103470344D01*
X74475975Y-103470342D01*
X74468814Y-103463181D01*
X74435329Y-103401858D01*
X74440313Y-103332166D01*
X74482185Y-103276233D01*
X74547649Y-103251816D01*
X74556495Y-103251500D01*
X81284880Y-103251500D01*
X81351919Y-103271185D01*
X81397674Y-103323989D01*
X81407353Y-103356101D01*
X81414354Y-103400304D01*
X81471950Y-103513342D01*
X81471952Y-103513344D01*
X81471954Y-103513347D01*
X81561652Y-103603045D01*
X81561654Y-103603046D01*
X81561658Y-103603050D01*
X81674694Y-103660645D01*
X81674698Y-103660647D01*
X81768475Y-103675499D01*
X81768481Y-103675500D01*
X82231518Y-103675499D01*
X82325304Y-103660646D01*
X82438342Y-103603050D01*
X82528050Y-103513342D01*
X82585646Y-103400304D01*
X82585646Y-103400302D01*
X82585647Y-103400301D01*
X82600499Y-103306524D01*
X82600500Y-103306519D01*
X82600499Y-102693482D01*
X82585646Y-102599696D01*
X82528050Y-102486658D01*
X82528046Y-102486654D01*
X82528045Y-102486652D01*
X82438347Y-102396954D01*
X82438344Y-102396952D01*
X82438342Y-102396950D01*
X82341213Y-102347460D01*
X82325301Y-102339352D01*
X82231524Y-102324500D01*
X81768482Y-102324500D01*
X81698210Y-102335630D01*
X81674696Y-102339354D01*
X81561658Y-102396950D01*
X81561657Y-102396951D01*
X81561652Y-102396954D01*
X81544426Y-102414181D01*
X81483103Y-102447666D01*
X81456745Y-102450500D01*
X74587128Y-102450500D01*
X74579060Y-102448131D01*
X74570750Y-102449414D01*
X74546032Y-102438432D01*
X74520089Y-102430815D01*
X74514583Y-102424461D01*
X74506898Y-102421047D01*
X74492039Y-102398444D01*
X74474334Y-102378011D01*
X74473137Y-102369690D01*
X74468518Y-102362663D01*
X74468238Y-102335618D01*
X74464390Y-102308853D01*
X74467864Y-102299389D01*
X74467796Y-102292797D01*
X74479987Y-102266365D01*
X74482125Y-102260542D01*
X74483049Y-102259069D01*
X74590941Y-102097598D01*
X74603453Y-102067391D01*
X74609012Y-102058542D01*
X74627666Y-102042037D01*
X74643296Y-102022643D01*
X74653381Y-102019286D01*
X74661341Y-102012244D01*
X74685956Y-102008444D01*
X74709590Y-102000579D01*
X74714015Y-102000500D01*
X93762745Y-102000500D01*
X93829784Y-102020185D01*
X93850426Y-102036819D01*
X95750860Y-103937253D01*
X97643943Y-105830335D01*
X97677428Y-105891658D01*
X97680262Y-105918016D01*
X97680262Y-106033106D01*
X97705873Y-106111927D01*
X97719465Y-106153760D01*
X97719466Y-106153762D01*
X97719468Y-106153765D01*
X97775273Y-106230572D01*
X97775280Y-106230581D01*
X98102695Y-106557995D01*
X98102697Y-106557997D01*
X98128212Y-106576535D01*
X98179514Y-106613809D01*
X98272348Y-106643972D01*
X98300167Y-106653011D01*
X98300168Y-106653011D01*
X98300171Y-106653012D01*
X98300174Y-106653012D01*
X98427034Y-106653012D01*
X98427037Y-106653012D01*
X98547694Y-106613809D01*
X98624513Y-106557996D01*
X99057995Y-106124513D01*
X99113809Y-106047694D01*
X99153012Y-105927037D01*
X99153012Y-105800171D01*
X99150297Y-105791816D01*
X99141327Y-105764207D01*
X99113809Y-105679514D01*
X99106801Y-105669869D01*
X99058000Y-105602701D01*
X99057997Y-105602697D01*
X99057996Y-105602695D01*
X98730579Y-105275279D01*
X98730578Y-105275278D01*
X98730576Y-105275276D01*
X98653762Y-105219466D01*
X98653760Y-105219465D01*
X98611041Y-105205585D01*
X98533106Y-105180262D01*
X98533103Y-105180262D01*
X98406237Y-105180262D01*
X98406235Y-105180262D01*
X98406231Y-105180263D01*
X98276298Y-105222480D01*
X98275814Y-105220991D01*
X98217854Y-105231869D01*
X98153117Y-105205585D01*
X98142563Y-105196171D01*
X96217577Y-103271185D01*
X94225913Y-101279520D01*
X94145142Y-101232886D01*
X94096928Y-101182319D01*
X94083706Y-101113712D01*
X94109674Y-101048847D01*
X94166589Y-101008320D01*
X94207144Y-101001500D01*
X100883745Y-101001500D01*
X100950784Y-101021185D01*
X100971426Y-101037819D01*
X104665665Y-104732058D01*
X104699150Y-104793381D01*
X104695916Y-104858054D01*
X104680262Y-104906236D01*
X104680262Y-105033106D01*
X104706257Y-105113108D01*
X104719465Y-105153760D01*
X104719466Y-105153762D01*
X104719468Y-105153765D01*
X104775273Y-105230572D01*
X104775280Y-105230581D01*
X105102695Y-105557995D01*
X105102697Y-105557997D01*
X105179508Y-105613805D01*
X105179514Y-105613809D01*
X105272348Y-105643972D01*
X105300167Y-105653011D01*
X105300168Y-105653011D01*
X105300171Y-105653012D01*
X105300174Y-105653012D01*
X105427034Y-105653012D01*
X105427037Y-105653012D01*
X105547694Y-105613809D01*
X105624513Y-105557996D01*
X106057995Y-105124513D01*
X106113809Y-105047694D01*
X106153012Y-104927037D01*
X106153012Y-104800171D01*
X106113809Y-104679514D01*
X106057996Y-104602695D01*
X105730579Y-104275279D01*
X105730578Y-104275278D01*
X105730576Y-104275276D01*
X105653762Y-104219466D01*
X105653760Y-104219465D01*
X105623595Y-104209664D01*
X105533106Y-104180262D01*
X105533103Y-104180262D01*
X105406237Y-104180262D01*
X105358054Y-104195916D01*
X105288212Y-104197909D01*
X105232058Y-104165665D01*
X101678574Y-100612181D01*
X101645089Y-100550858D01*
X101650073Y-100481166D01*
X101691945Y-100425233D01*
X101757409Y-100400816D01*
X101766255Y-100400500D01*
X103674592Y-100400500D01*
X103741631Y-100420185D01*
X103787386Y-100472989D01*
X103797330Y-100542147D01*
X103768305Y-100605703D01*
X103736592Y-100631887D01*
X103723390Y-100639508D01*
X103723384Y-100639513D01*
X103639513Y-100723384D01*
X103639511Y-100723387D01*
X103607769Y-100778366D01*
X103580201Y-100826114D01*
X103549500Y-100940691D01*
X103549500Y-101059309D01*
X103580201Y-101173886D01*
X103639511Y-101276613D01*
X103723387Y-101360489D01*
X103826114Y-101419799D01*
X103831299Y-101421188D01*
X103886891Y-101453283D01*
X104096155Y-101662547D01*
X104096157Y-101662550D01*
X104170724Y-101737117D01*
X104200985Y-101754588D01*
X104262050Y-101789844D01*
X104363910Y-101817138D01*
X104363912Y-101817138D01*
X104476960Y-101817138D01*
X104476976Y-101817137D01*
X108782745Y-101817137D01*
X108849784Y-101836822D01*
X108870426Y-101853456D01*
X109165665Y-102148695D01*
X109199150Y-102210018D01*
X109195916Y-102274691D01*
X109180262Y-102322873D01*
X109180262Y-102449743D01*
X109192257Y-102486658D01*
X109219465Y-102570397D01*
X109219466Y-102570399D01*
X109219468Y-102570402D01*
X109275273Y-102647209D01*
X109275280Y-102647218D01*
X109602695Y-102974632D01*
X109602697Y-102974634D01*
X109660860Y-103016893D01*
X109679514Y-103030446D01*
X109768338Y-103059306D01*
X109800167Y-103069648D01*
X109800168Y-103069648D01*
X109800171Y-103069649D01*
X109800174Y-103069649D01*
X109927034Y-103069649D01*
X109927037Y-103069649D01*
X110047694Y-103030446D01*
X110124513Y-102974633D01*
X110557995Y-102541150D01*
X110613809Y-102464331D01*
X110653012Y-102343674D01*
X110653012Y-102216808D01*
X110613809Y-102096151D01*
X110557996Y-102019332D01*
X110230579Y-101691916D01*
X110230578Y-101691915D01*
X110230576Y-101691913D01*
X110153762Y-101636103D01*
X110153760Y-101636102D01*
X110121687Y-101625681D01*
X110033106Y-101596899D01*
X110033103Y-101596899D01*
X109906237Y-101596899D01*
X109858054Y-101612553D01*
X109788212Y-101614546D01*
X109732058Y-101582302D01*
X109245915Y-101096159D01*
X109245913Y-101096157D01*
X109179817Y-101057996D01*
X109154589Y-101043430D01*
X109103657Y-101029783D01*
X109052727Y-101016137D01*
X109052726Y-101016137D01*
X104633891Y-101016137D01*
X104604450Y-101007492D01*
X104574464Y-101000969D01*
X104569448Y-100997214D01*
X104566852Y-100996452D01*
X104546210Y-100979818D01*
X104453283Y-100886891D01*
X104421188Y-100831299D01*
X104419799Y-100826114D01*
X104360489Y-100723387D01*
X104276613Y-100639511D01*
X104276611Y-100639510D01*
X104276609Y-100639508D01*
X104263408Y-100631887D01*
X104215192Y-100581320D01*
X104201970Y-100512712D01*
X104227938Y-100447848D01*
X104284852Y-100407320D01*
X104325408Y-100400500D01*
X105792725Y-100400500D01*
X105792727Y-100400500D01*
X105894588Y-100373207D01*
X105985913Y-100320480D01*
X107015701Y-99290691D01*
X107549500Y-99290691D01*
X107549500Y-99409309D01*
X107580201Y-99523886D01*
X107639511Y-99626613D01*
X107723387Y-99710489D01*
X107826114Y-99769799D01*
X107940691Y-99800500D01*
X107940694Y-99800500D01*
X108059306Y-99800500D01*
X108059309Y-99800500D01*
X108173886Y-99769799D01*
X108178537Y-99767114D01*
X108240538Y-99750500D01*
X109132745Y-99750500D01*
X109199784Y-99770185D01*
X109220426Y-99786819D01*
X109665665Y-100232058D01*
X109699150Y-100293381D01*
X109695916Y-100358054D01*
X109680262Y-100406236D01*
X109680262Y-100533106D01*
X109705955Y-100612181D01*
X109719465Y-100653760D01*
X109719466Y-100653762D01*
X109719468Y-100653765D01*
X109775273Y-100730572D01*
X109775280Y-100730581D01*
X110102695Y-101057995D01*
X110102697Y-101057997D01*
X110161196Y-101100500D01*
X110179514Y-101113809D01*
X110272348Y-101143972D01*
X110300167Y-101153011D01*
X110300168Y-101153011D01*
X110300171Y-101153012D01*
X110300174Y-101153012D01*
X110427034Y-101153012D01*
X110427037Y-101153012D01*
X110547694Y-101113809D01*
X110624513Y-101057996D01*
X111057995Y-100624513D01*
X111113809Y-100547694D01*
X111153012Y-100427037D01*
X111153012Y-100300171D01*
X111113809Y-100179514D01*
X111097023Y-100156411D01*
X111064670Y-100111881D01*
X111057996Y-100102695D01*
X110730579Y-99775279D01*
X110730578Y-99775278D01*
X110730576Y-99775276D01*
X110653762Y-99719466D01*
X110653760Y-99719465D01*
X110620680Y-99708717D01*
X110533106Y-99680262D01*
X110533103Y-99680262D01*
X110406237Y-99680262D01*
X110358054Y-99695916D01*
X110288212Y-99697909D01*
X110232058Y-99665665D01*
X109595915Y-99029522D01*
X109595913Y-99029520D01*
X109550250Y-99003156D01*
X109504589Y-98976793D01*
X109453657Y-98963146D01*
X109402727Y-98949500D01*
X109402726Y-98949500D01*
X108240538Y-98949500D01*
X108178537Y-98932886D01*
X108173890Y-98930203D01*
X108173887Y-98930201D01*
X108136603Y-98920211D01*
X108059309Y-98899500D01*
X107940691Y-98899500D01*
X107826114Y-98930201D01*
X107826112Y-98930201D01*
X107826112Y-98930202D01*
X107723387Y-98989511D01*
X107723384Y-98989513D01*
X107639513Y-99073384D01*
X107639511Y-99073387D01*
X107589132Y-99160646D01*
X107580201Y-99176114D01*
X107549500Y-99290691D01*
X107015701Y-99290691D01*
X108796165Y-97510226D01*
X108857486Y-97476743D01*
X108922016Y-97481357D01*
X108922342Y-97480284D01*
X108927073Y-97481719D01*
X108927178Y-97481727D01*
X108927446Y-97481832D01*
X108928157Y-97482047D01*
X108928165Y-97482051D01*
X108975496Y-97491465D01*
X109121456Y-97520500D01*
X109121459Y-97520500D01*
X109318543Y-97520500D01*
X109458335Y-97492693D01*
X109511835Y-97482051D01*
X109693914Y-97406632D01*
X109857782Y-97297139D01*
X109997139Y-97157782D01*
X110106632Y-96993914D01*
X110182051Y-96811835D01*
X110219520Y-96623469D01*
X110220500Y-96618543D01*
X110220500Y-96421456D01*
X110182052Y-96228170D01*
X110182051Y-96228166D01*
X110182051Y-96228165D01*
X110179501Y-96222009D01*
X110106635Y-96046092D01*
X110106628Y-96046079D01*
X109997139Y-95882218D01*
X109997136Y-95882214D01*
X109857785Y-95742863D01*
X109857781Y-95742860D01*
X109688849Y-95629983D01*
X109689657Y-95628773D01*
X109644990Y-95584900D01*
X109629527Y-95516763D01*
X109653355Y-95451083D01*
X109708911Y-95408712D01*
X109753285Y-95400500D01*
X111226715Y-95400500D01*
X111293754Y-95420185D01*
X111339509Y-95472989D01*
X111349453Y-95542147D01*
X111320428Y-95605703D01*
X111290757Y-95629394D01*
X111291151Y-95629983D01*
X111122218Y-95742860D01*
X111122214Y-95742863D01*
X110982863Y-95882214D01*
X110982860Y-95882218D01*
X110873371Y-96046079D01*
X110873364Y-96046092D01*
X110797950Y-96228160D01*
X110797947Y-96228170D01*
X110759500Y-96421456D01*
X110759500Y-96421459D01*
X110759500Y-96618541D01*
X110759500Y-96618543D01*
X110759499Y-96618543D01*
X110797947Y-96811829D01*
X110797950Y-96811839D01*
X110873364Y-96993907D01*
X110873371Y-96993920D01*
X110982860Y-97157781D01*
X110982863Y-97157785D01*
X111122214Y-97297136D01*
X111122218Y-97297139D01*
X111286079Y-97406628D01*
X111286092Y-97406635D01*
X111467363Y-97481719D01*
X111468165Y-97482051D01*
X111468169Y-97482051D01*
X111468170Y-97482052D01*
X111661456Y-97520500D01*
X111661459Y-97520500D01*
X111858543Y-97520500D01*
X111998335Y-97492693D01*
X112051835Y-97482051D01*
X112233914Y-97406632D01*
X112397782Y-97297139D01*
X112537139Y-97157782D01*
X112646632Y-96993914D01*
X112722051Y-96811835D01*
X112759520Y-96623469D01*
X112760500Y-96618543D01*
X112760500Y-96421456D01*
X112722052Y-96228170D01*
X112722051Y-96228166D01*
X112722051Y-96228165D01*
X112719501Y-96222009D01*
X112646635Y-96046092D01*
X112646628Y-96046079D01*
X112537139Y-95882218D01*
X112537136Y-95882214D01*
X112397785Y-95742863D01*
X112397781Y-95742860D01*
X112228849Y-95629983D01*
X112229657Y-95628773D01*
X112184990Y-95584900D01*
X112169527Y-95516763D01*
X112193355Y-95451083D01*
X112248911Y-95408712D01*
X112293285Y-95400500D01*
X113766715Y-95400500D01*
X113833754Y-95420185D01*
X113879509Y-95472989D01*
X113889453Y-95542147D01*
X113860428Y-95605703D01*
X113830757Y-95629394D01*
X113831151Y-95629983D01*
X113662218Y-95742860D01*
X113662214Y-95742863D01*
X113522863Y-95882214D01*
X113522860Y-95882218D01*
X113413371Y-96046079D01*
X113413364Y-96046092D01*
X113337950Y-96228160D01*
X113337947Y-96228170D01*
X113299500Y-96421456D01*
X113299500Y-96421459D01*
X113299500Y-96618541D01*
X113299500Y-96618543D01*
X113299499Y-96618543D01*
X113337947Y-96811829D01*
X113337950Y-96811839D01*
X113413364Y-96993907D01*
X113413371Y-96993920D01*
X113522860Y-97157781D01*
X113522863Y-97157785D01*
X113662214Y-97297136D01*
X113662218Y-97297139D01*
X113826079Y-97406628D01*
X113826092Y-97406635D01*
X114007363Y-97481719D01*
X114008165Y-97482051D01*
X114008169Y-97482051D01*
X114008170Y-97482052D01*
X114201456Y-97520500D01*
X114201459Y-97520500D01*
X114398543Y-97520500D01*
X114538335Y-97492693D01*
X114591835Y-97482051D01*
X114773914Y-97406632D01*
X114937782Y-97297139D01*
X115077139Y-97157782D01*
X115077141Y-97157778D01*
X115077245Y-97157675D01*
X115138568Y-97124190D01*
X115208260Y-97129174D01*
X115264194Y-97171045D01*
X115272313Y-97183354D01*
X115307494Y-97244287D01*
X115318520Y-97263384D01*
X116146616Y-98091480D01*
X116237941Y-98144207D01*
X116339802Y-98171500D01*
X118903745Y-98171500D01*
X118970784Y-98191185D01*
X118978621Y-98197500D01*
X118978759Y-98197311D01*
X118986653Y-98203045D01*
X118986658Y-98203050D01*
X119099694Y-98260645D01*
X119099698Y-98260647D01*
X119193475Y-98275499D01*
X119193481Y-98275500D01*
X119806518Y-98275499D01*
X119900304Y-98260646D01*
X120013342Y-98203050D01*
X120013349Y-98203042D01*
X120021241Y-98197311D01*
X120023108Y-98199882D01*
X120069897Y-98174334D01*
X120096255Y-98171500D01*
X126103505Y-98171500D01*
X126170544Y-98191185D01*
X126216299Y-98243989D01*
X126226243Y-98313147D01*
X126197218Y-98376703D01*
X126191186Y-98383181D01*
X126184025Y-98390341D01*
X126184022Y-98390344D01*
X126069062Y-98562395D01*
X126069059Y-98562402D01*
X126060546Y-98582954D01*
X126016704Y-98637357D01*
X125950410Y-98659421D01*
X125945985Y-98659500D01*
X125000339Y-98659500D01*
X125000323Y-98659499D01*
X124992727Y-98659499D01*
X124887273Y-98659499D01*
X124785412Y-98686793D01*
X124739750Y-98713156D01*
X124700331Y-98735915D01*
X124694087Y-98739520D01*
X124694084Y-98739522D01*
X123679522Y-99754084D01*
X123679518Y-99754090D01*
X123626792Y-99845412D01*
X123626793Y-99845413D01*
X123599500Y-99947273D01*
X123599500Y-101759461D01*
X123582889Y-101821458D01*
X123580202Y-101826111D01*
X123580201Y-101826112D01*
X123564929Y-101883108D01*
X123549500Y-101940691D01*
X123549500Y-102059309D01*
X123580201Y-102173886D01*
X123639511Y-102276613D01*
X123723387Y-102360489D01*
X123826114Y-102419799D01*
X123940691Y-102450500D01*
X123940694Y-102450500D01*
X124059306Y-102450500D01*
X124059309Y-102450500D01*
X124173886Y-102419799D01*
X124276613Y-102360489D01*
X124360489Y-102276613D01*
X124368113Y-102263408D01*
X124418680Y-102215192D01*
X124487288Y-102201970D01*
X124552152Y-102227938D01*
X124592680Y-102284852D01*
X124599500Y-102325408D01*
X124599500Y-102759461D01*
X124582889Y-102821458D01*
X124580202Y-102826111D01*
X124580201Y-102826112D01*
X124571486Y-102858639D01*
X124549500Y-102940691D01*
X124549500Y-103059309D01*
X124580201Y-103173886D01*
X124639511Y-103276613D01*
X124723387Y-103360489D01*
X124826114Y-103419799D01*
X124940691Y-103450500D01*
X124940694Y-103450500D01*
X125059306Y-103450500D01*
X125059309Y-103450500D01*
X125173886Y-103419799D01*
X125276613Y-103360489D01*
X125360489Y-103276613D01*
X125419799Y-103173886D01*
X125450500Y-103059309D01*
X125450500Y-102940691D01*
X125419799Y-102826114D01*
X125417111Y-102821458D01*
X125400500Y-102759461D01*
X125400500Y-102048072D01*
X125420185Y-101981033D01*
X125436815Y-101960395D01*
X125743030Y-101654180D01*
X125804350Y-101620697D01*
X125874041Y-101625681D01*
X125929975Y-101667552D01*
X125952325Y-101717672D01*
X125989868Y-101906412D01*
X125989870Y-101906420D01*
X126068459Y-102096151D01*
X126069059Y-102097598D01*
X126120033Y-102173886D01*
X126184024Y-102269657D01*
X126330342Y-102415975D01*
X126330345Y-102415977D01*
X126502402Y-102530941D01*
X126693580Y-102610130D01*
X126895550Y-102650304D01*
X126896530Y-102650499D01*
X126896534Y-102650500D01*
X126896535Y-102650500D01*
X127103466Y-102650500D01*
X127103467Y-102650499D01*
X127306420Y-102610130D01*
X127326967Y-102601618D01*
X127396435Y-102594147D01*
X127458915Y-102625420D01*
X127462104Y-102628497D01*
X127814181Y-102980574D01*
X127828884Y-103007501D01*
X127845477Y-103033320D01*
X127846368Y-103039520D01*
X127847666Y-103041897D01*
X127850500Y-103068255D01*
X127850500Y-103212871D01*
X127830815Y-103279910D01*
X127778011Y-103325665D01*
X127708853Y-103335609D01*
X127657610Y-103315974D01*
X127543148Y-103239494D01*
X127497598Y-103209059D01*
X127442083Y-103186064D01*
X127306420Y-103129870D01*
X127306412Y-103129868D01*
X127103469Y-103089500D01*
X127103465Y-103089500D01*
X126896535Y-103089500D01*
X126896530Y-103089500D01*
X126693587Y-103129868D01*
X126693579Y-103129870D01*
X126502403Y-103209058D01*
X126330342Y-103324024D01*
X126184022Y-103470344D01*
X126069062Y-103642395D01*
X126069059Y-103642402D01*
X126060546Y-103662954D01*
X126016704Y-103717357D01*
X125950410Y-103739421D01*
X125945985Y-103739500D01*
X114357254Y-103739500D01*
X114290215Y-103719815D01*
X114269573Y-103703181D01*
X112334334Y-101767941D01*
X112300849Y-101706618D01*
X112304084Y-101641942D01*
X112319737Y-101593766D01*
X112319736Y-101593766D01*
X112319738Y-101593763D01*
X112319738Y-101466897D01*
X112280535Y-101346240D01*
X112224722Y-101269421D01*
X111897305Y-100942005D01*
X111897304Y-100942004D01*
X111897302Y-100942002D01*
X111820488Y-100886192D01*
X111820486Y-100886191D01*
X111790321Y-100876390D01*
X111699832Y-100846988D01*
X111699829Y-100846988D01*
X111572963Y-100846988D01*
X111572959Y-100846988D01*
X111452306Y-100886191D01*
X111452300Y-100886194D01*
X111375493Y-100941999D01*
X111375484Y-100942006D01*
X110942004Y-101375487D01*
X110942002Y-101375489D01*
X110886192Y-101452303D01*
X110886191Y-101452306D01*
X110846988Y-101572959D01*
X110846988Y-101699832D01*
X110859830Y-101739354D01*
X110886191Y-101820486D01*
X110886192Y-101820488D01*
X110886194Y-101820491D01*
X110941999Y-101897298D01*
X110942006Y-101897307D01*
X111269421Y-102224721D01*
X111269423Y-102224723D01*
X111346237Y-102280533D01*
X111346240Y-102280535D01*
X111433396Y-102308853D01*
X111466893Y-102319737D01*
X111466894Y-102319737D01*
X111466897Y-102319738D01*
X111466900Y-102319738D01*
X111593760Y-102319738D01*
X111593763Y-102319738D01*
X111641942Y-102304084D01*
X111711783Y-102302089D01*
X111767941Y-102334334D01*
X112765773Y-103332166D01*
X113621427Y-104187819D01*
X113654912Y-104249142D01*
X113649928Y-104318834D01*
X113608056Y-104374767D01*
X113542592Y-104399184D01*
X113533746Y-104399500D01*
X112600617Y-104399500D01*
X112533578Y-104379815D01*
X112512936Y-104363181D01*
X112186285Y-104036530D01*
X111834331Y-103684575D01*
X111800848Y-103623255D01*
X111804082Y-103558582D01*
X111819738Y-103510400D01*
X111819738Y-103383534D01*
X111780535Y-103262877D01*
X111772887Y-103252351D01*
X111724726Y-103186064D01*
X111724722Y-103186058D01*
X111397305Y-102858642D01*
X111397304Y-102858641D01*
X111397302Y-102858639D01*
X111320488Y-102802829D01*
X111320486Y-102802828D01*
X111289275Y-102792687D01*
X111199832Y-102763625D01*
X111199829Y-102763625D01*
X111072963Y-102763625D01*
X111072959Y-102763625D01*
X110952306Y-102802828D01*
X110952300Y-102802831D01*
X110875493Y-102858636D01*
X110875484Y-102858643D01*
X110442004Y-103292124D01*
X110442002Y-103292126D01*
X110386192Y-103368940D01*
X110386191Y-103368943D01*
X110346988Y-103489596D01*
X110346988Y-103616469D01*
X110366169Y-103675500D01*
X110386191Y-103737123D01*
X110386192Y-103737125D01*
X110386194Y-103737128D01*
X110441999Y-103813935D01*
X110442006Y-103813944D01*
X110769421Y-104141358D01*
X110769423Y-104141360D01*
X110833367Y-104187819D01*
X110846240Y-104197172D01*
X110939074Y-104227335D01*
X110966893Y-104236374D01*
X110966894Y-104236374D01*
X110966897Y-104236375D01*
X110966900Y-104236375D01*
X111093760Y-104236375D01*
X111093763Y-104236375D01*
X111141945Y-104220719D01*
X111211782Y-104218724D01*
X111267938Y-104250968D01*
X112062881Y-105045910D01*
X112062883Y-105045913D01*
X112137450Y-105120480D01*
X112195093Y-105153760D01*
X112203646Y-105158698D01*
X112203651Y-105158702D01*
X112228770Y-105173204D01*
X112228773Y-105173206D01*
X112228775Y-105173206D01*
X112228776Y-105173207D01*
X112330636Y-105200501D01*
X112330638Y-105200501D01*
X112443686Y-105200501D01*
X112443702Y-105200500D01*
X119544837Y-105200500D01*
X119611876Y-105220185D01*
X119657631Y-105272989D01*
X119667575Y-105342147D01*
X119638550Y-105405703D01*
X119632518Y-105412181D01*
X119442002Y-105602697D01*
X119386192Y-105679511D01*
X119386191Y-105679514D01*
X119346988Y-105800167D01*
X119346988Y-105927040D01*
X119374055Y-106010342D01*
X119386191Y-106047694D01*
X119386192Y-106047696D01*
X119386194Y-106047699D01*
X119426410Y-106103050D01*
X119442003Y-106124512D01*
X119442006Y-106124515D01*
X119875487Y-106557995D01*
X119875489Y-106557997D01*
X119901004Y-106576535D01*
X119952306Y-106613809D01*
X120045140Y-106643972D01*
X120072959Y-106653011D01*
X120072960Y-106653011D01*
X120072963Y-106653012D01*
X120072966Y-106653012D01*
X120199826Y-106653012D01*
X120199829Y-106653012D01*
X120320486Y-106613809D01*
X120397305Y-106557996D01*
X120518482Y-106436819D01*
X120579805Y-106403334D01*
X120606163Y-106400500D01*
X121759462Y-106400500D01*
X121821463Y-106417114D01*
X121826109Y-106419796D01*
X121826110Y-106419797D01*
X121826114Y-106419799D01*
X121940691Y-106450500D01*
X121940694Y-106450500D01*
X122059306Y-106450500D01*
X122059309Y-106450500D01*
X122173886Y-106419799D01*
X122276613Y-106360489D01*
X122360489Y-106276613D01*
X122419799Y-106173886D01*
X122450500Y-106059309D01*
X122450500Y-105940691D01*
X122419799Y-105826114D01*
X122360489Y-105723387D01*
X122276613Y-105639511D01*
X122173886Y-105580201D01*
X122059309Y-105549500D01*
X121940691Y-105549500D01*
X121871944Y-105567920D01*
X121826112Y-105580201D01*
X121826109Y-105580203D01*
X121821463Y-105582886D01*
X121759462Y-105599500D01*
X120666823Y-105599500D01*
X120599784Y-105579815D01*
X120579146Y-105563185D01*
X120428139Y-105412178D01*
X120394656Y-105350858D01*
X120399640Y-105281167D01*
X120441511Y-105225233D01*
X120506976Y-105200816D01*
X120515822Y-105200500D01*
X124902745Y-105200500D01*
X124969784Y-105220185D01*
X124990426Y-105236819D01*
X125971502Y-106217895D01*
X126004987Y-106279218D01*
X126000003Y-106348910D01*
X125998384Y-106353025D01*
X125989871Y-106373579D01*
X125989869Y-106373583D01*
X125989867Y-106373587D01*
X125949500Y-106576530D01*
X125949500Y-106783469D01*
X125989868Y-106986412D01*
X125989870Y-106986420D01*
X126066851Y-107172269D01*
X126069059Y-107177598D01*
X126091901Y-107211784D01*
X126184024Y-107349657D01*
X126330342Y-107495975D01*
X126330345Y-107495977D01*
X126502402Y-107610941D01*
X126693580Y-107690130D01*
X126867472Y-107724719D01*
X126896530Y-107730499D01*
X126896534Y-107730500D01*
X126903744Y-107730500D01*
X126970783Y-107750185D01*
X127016538Y-107802989D01*
X127026482Y-107872147D01*
X126997457Y-107935703D01*
X126991425Y-107942181D01*
X125851303Y-109082302D01*
X125789980Y-109115787D01*
X125725306Y-109112553D01*
X125677127Y-109096899D01*
X125677126Y-109096899D01*
X125550260Y-109096899D01*
X125550256Y-109096899D01*
X125429603Y-109136102D01*
X125429597Y-109136105D01*
X125352790Y-109191910D01*
X125352781Y-109191917D01*
X125025367Y-109519332D01*
X125025365Y-109519334D01*
X124969555Y-109596148D01*
X124969554Y-109596151D01*
X124930351Y-109716804D01*
X124930351Y-109843677D01*
X124959753Y-109934166D01*
X124969554Y-109964331D01*
X124969555Y-109964333D01*
X124969557Y-109964336D01*
X125025362Y-110041143D01*
X125025369Y-110041152D01*
X125458850Y-110474632D01*
X125458852Y-110474634D01*
X125535663Y-110530442D01*
X125535669Y-110530446D01*
X125628503Y-110560609D01*
X125656322Y-110569648D01*
X125656323Y-110569648D01*
X125656326Y-110569649D01*
X125656329Y-110569649D01*
X125783189Y-110569649D01*
X125783192Y-110569649D01*
X125903849Y-110530446D01*
X125980668Y-110474633D01*
X126308084Y-110147216D01*
X126363898Y-110070397D01*
X126403101Y-109949740D01*
X126403101Y-109822874D01*
X126387445Y-109774691D01*
X126385451Y-109704854D01*
X126417694Y-109648697D01*
X128571480Y-107494913D01*
X128598985Y-107447273D01*
X128599644Y-107446130D01*
X128650179Y-107397884D01*
X128718778Y-107384618D01*
X128783659Y-107410545D01*
X128794750Y-107420383D01*
X128870342Y-107495975D01*
X128870345Y-107495977D01*
X129042402Y-107610941D01*
X129233580Y-107690130D01*
X129407472Y-107724719D01*
X129436530Y-107730499D01*
X129436534Y-107730500D01*
X129436535Y-107730500D01*
X129643466Y-107730500D01*
X129643467Y-107730499D01*
X129846420Y-107690130D01*
X130037598Y-107610941D01*
X130037599Y-107610940D01*
X130037600Y-107610940D01*
X130197610Y-107504026D01*
X130264287Y-107483148D01*
X130331667Y-107501633D01*
X130378357Y-107553612D01*
X130390500Y-107607128D01*
X130390500Y-108950500D01*
X130370815Y-109017539D01*
X130318011Y-109063294D01*
X130266502Y-109074500D01*
X130193483Y-109074500D01*
X130114550Y-109087001D01*
X130099696Y-109089354D01*
X129986658Y-109146950D01*
X129986657Y-109146951D01*
X129986652Y-109146954D01*
X129896954Y-109236652D01*
X129896951Y-109236657D01*
X129839352Y-109349698D01*
X129824500Y-109443475D01*
X129824500Y-109906517D01*
X129833657Y-109964330D01*
X129839354Y-110000304D01*
X129896950Y-110113342D01*
X129896952Y-110113344D01*
X129896954Y-110113347D01*
X129986652Y-110203045D01*
X129986654Y-110203046D01*
X129986658Y-110203050D01*
X130099694Y-110260645D01*
X130099698Y-110260647D01*
X130193475Y-110275499D01*
X130193481Y-110275500D01*
X130806518Y-110275499D01*
X130806521Y-110275499D01*
X130827852Y-110272120D01*
X130848102Y-110268913D01*
X130866641Y-110271308D01*
X130885147Y-110268648D01*
X130900574Y-110275693D01*
X130917395Y-110277867D01*
X130931697Y-110289906D01*
X130948703Y-110297673D01*
X130957872Y-110311940D01*
X130970847Y-110322863D01*
X130976369Y-110340723D01*
X130986477Y-110356451D01*
X130991035Y-110388152D01*
X130991487Y-110389614D01*
X130991500Y-110391386D01*
X130991500Y-110608612D01*
X130971815Y-110675651D01*
X130919011Y-110721406D01*
X130849853Y-110731350D01*
X130848103Y-110731085D01*
X130806525Y-110724500D01*
X130193482Y-110724500D01*
X130112519Y-110737323D01*
X130099696Y-110739354D01*
X129986658Y-110796950D01*
X129986657Y-110796951D01*
X129986652Y-110796954D01*
X129896954Y-110886652D01*
X129896951Y-110886657D01*
X129839352Y-110999698D01*
X129824500Y-111093475D01*
X129824500Y-111556517D01*
X129835292Y-111624657D01*
X129839354Y-111650304D01*
X129896950Y-111763342D01*
X129896952Y-111763344D01*
X129896954Y-111763347D01*
X129986652Y-111853045D01*
X129986654Y-111853046D01*
X129986658Y-111853050D01*
X130031796Y-111876049D01*
X130042859Y-111886497D01*
X130056703Y-111892820D01*
X130067744Y-111910000D01*
X130082591Y-111924023D01*
X130086832Y-111939702D01*
X130094477Y-111951598D01*
X130099500Y-111986533D01*
X130099500Y-112154745D01*
X130079815Y-112221784D01*
X130063181Y-112242426D01*
X129781426Y-112524181D01*
X129720103Y-112557666D01*
X129693745Y-112560500D01*
X117740402Y-112560500D01*
X117673363Y-112540815D01*
X117627608Y-112488011D01*
X117617664Y-112418853D01*
X117637300Y-112367609D01*
X117726628Y-112233920D01*
X117726628Y-112233919D01*
X117726632Y-112233914D01*
X117726634Y-112233907D01*
X117729502Y-112228544D01*
X117731381Y-112229548D01*
X117769159Y-112182655D01*
X117835450Y-112160580D01*
X117839895Y-112160500D01*
X123741907Y-112160500D01*
X123741909Y-112160500D01*
X123843770Y-112133207D01*
X123935095Y-112080480D01*
X124277067Y-111738506D01*
X124338388Y-111705023D01*
X124403062Y-111708257D01*
X124449596Y-111723377D01*
X124489596Y-111736374D01*
X124489597Y-111736374D01*
X124489600Y-111736375D01*
X124489603Y-111736375D01*
X124616463Y-111736375D01*
X124616466Y-111736375D01*
X124737123Y-111697172D01*
X124813942Y-111641359D01*
X125141358Y-111313942D01*
X125197172Y-111237123D01*
X125236375Y-111116466D01*
X125236375Y-110989600D01*
X125235486Y-110986865D01*
X125226595Y-110959500D01*
X125197172Y-110868943D01*
X125141359Y-110792124D01*
X124707876Y-110358642D01*
X124707875Y-110358641D01*
X124707873Y-110358639D01*
X124631059Y-110302829D01*
X124631057Y-110302828D01*
X124600892Y-110293027D01*
X124510403Y-110263625D01*
X124510400Y-110263625D01*
X124383534Y-110263625D01*
X124383530Y-110263625D01*
X124262877Y-110302828D01*
X124262871Y-110302831D01*
X124186064Y-110358636D01*
X124186055Y-110358643D01*
X123858641Y-110686058D01*
X123858639Y-110686060D01*
X123802829Y-110762874D01*
X123802828Y-110762877D01*
X123763625Y-110883530D01*
X123763625Y-111010397D01*
X123763626Y-111010405D01*
X123766816Y-111020223D01*
X123768811Y-111090065D01*
X123736566Y-111146221D01*
X123559606Y-111323182D01*
X123498286Y-111356666D01*
X123471927Y-111359500D01*
X117839895Y-111359500D01*
X117772856Y-111339815D01*
X117730493Y-111290926D01*
X117729502Y-111291456D01*
X117727166Y-111287086D01*
X117727101Y-111287011D01*
X117726990Y-111286756D01*
X117726628Y-111286079D01*
X117617139Y-111122218D01*
X117617136Y-111122214D01*
X117477785Y-110982863D01*
X117477781Y-110982860D01*
X117313920Y-110873371D01*
X117313907Y-110873364D01*
X117131839Y-110797950D01*
X117131829Y-110797947D01*
X116938543Y-110759500D01*
X116938541Y-110759500D01*
X116741459Y-110759500D01*
X116741457Y-110759500D01*
X116548170Y-110797947D01*
X116548160Y-110797950D01*
X116366092Y-110873364D01*
X116366079Y-110873371D01*
X116202218Y-110982860D01*
X116202214Y-110982863D01*
X116062863Y-111122214D01*
X116062860Y-111122218D01*
X115953371Y-111286079D01*
X115953364Y-111286092D01*
X115877950Y-111468160D01*
X115877947Y-111468170D01*
X115839500Y-111661456D01*
X115839500Y-111661459D01*
X115839500Y-111858541D01*
X115839500Y-111858543D01*
X115839499Y-111858543D01*
X115877947Y-112051829D01*
X115877950Y-112051839D01*
X115953364Y-112233907D01*
X115953371Y-112233920D01*
X116042700Y-112367609D01*
X116063578Y-112434286D01*
X116045094Y-112501667D01*
X115993115Y-112548357D01*
X115939598Y-112560500D01*
X115200402Y-112560500D01*
X115133363Y-112540815D01*
X115087608Y-112488011D01*
X115077664Y-112418853D01*
X115097300Y-112367609D01*
X115186628Y-112233920D01*
X115186628Y-112233919D01*
X115186632Y-112233914D01*
X115188441Y-112229548D01*
X115250187Y-112080477D01*
X115262051Y-112051835D01*
X115275041Y-111986533D01*
X115300500Y-111858543D01*
X115300500Y-111661456D01*
X115262052Y-111468170D01*
X115262051Y-111468169D01*
X115262051Y-111468165D01*
X115245774Y-111428871D01*
X115238305Y-111359403D01*
X115269579Y-111296923D01*
X115272626Y-111293765D01*
X118732059Y-107834331D01*
X118793380Y-107800848D01*
X118858055Y-107804082D01*
X118906237Y-107819738D01*
X118906238Y-107819738D01*
X119033100Y-107819738D01*
X119033103Y-107819738D01*
X119153760Y-107780535D01*
X119230579Y-107724722D01*
X119557995Y-107397305D01*
X119613809Y-107320486D01*
X119653012Y-107199829D01*
X119653012Y-107072963D01*
X119613809Y-106952306D01*
X119557996Y-106875487D01*
X119124513Y-106442005D01*
X119124512Y-106442004D01*
X119124510Y-106442002D01*
X119047696Y-106386192D01*
X119047694Y-106386191D01*
X119008881Y-106373580D01*
X118927040Y-106346988D01*
X118927037Y-106346988D01*
X118800171Y-106346988D01*
X118800167Y-106346988D01*
X118679514Y-106386191D01*
X118679508Y-106386194D01*
X118602701Y-106441999D01*
X118602692Y-106442006D01*
X118275278Y-106769421D01*
X118275276Y-106769423D01*
X118219466Y-106846237D01*
X118219465Y-106846240D01*
X118180262Y-106966893D01*
X118180262Y-107093764D01*
X118195916Y-107141943D01*
X118197910Y-107211784D01*
X118165665Y-107267940D01*
X114675253Y-110758352D01*
X114613930Y-110791837D01*
X114563381Y-110792288D01*
X114398545Y-110759500D01*
X114398541Y-110759500D01*
X114201459Y-110759500D01*
X114201457Y-110759500D01*
X114008170Y-110797947D01*
X114008160Y-110797950D01*
X113826092Y-110873364D01*
X113826079Y-110873371D01*
X113662218Y-110982860D01*
X113662214Y-110982863D01*
X113522863Y-111122214D01*
X113522860Y-111122218D01*
X113413371Y-111286079D01*
X113413364Y-111286092D01*
X113337950Y-111468160D01*
X113337947Y-111468170D01*
X113299500Y-111661456D01*
X113299500Y-111661459D01*
X113299500Y-111858541D01*
X113299500Y-111858543D01*
X113299499Y-111858543D01*
X113337947Y-112051829D01*
X113337950Y-112051839D01*
X113413364Y-112233907D01*
X113413371Y-112233920D01*
X113502700Y-112367609D01*
X113523578Y-112434286D01*
X113505094Y-112501667D01*
X113453115Y-112548357D01*
X113399598Y-112560500D01*
X112660402Y-112560500D01*
X112593363Y-112540815D01*
X112547608Y-112488011D01*
X112537664Y-112418853D01*
X112557300Y-112367609D01*
X112646628Y-112233920D01*
X112646628Y-112233919D01*
X112646632Y-112233914D01*
X112648441Y-112229548D01*
X112710187Y-112080477D01*
X112722051Y-112051835D01*
X112735041Y-111986533D01*
X112760500Y-111858543D01*
X112760500Y-111661456D01*
X112722052Y-111468170D01*
X112722051Y-111468169D01*
X112722051Y-111468165D01*
X112719501Y-111462009D01*
X112646635Y-111286092D01*
X112646628Y-111286079D01*
X112537139Y-111122218D01*
X112537136Y-111122214D01*
X112397785Y-110982863D01*
X112397781Y-110982860D01*
X112233920Y-110873371D01*
X112233907Y-110873364D01*
X112051839Y-110797950D01*
X112051829Y-110797947D01*
X111854676Y-110758730D01*
X111792765Y-110726345D01*
X111791187Y-110724794D01*
X107334334Y-106267941D01*
X107300849Y-106206618D01*
X107304084Y-106141942D01*
X107319737Y-106093766D01*
X107319736Y-106093766D01*
X107319738Y-106093763D01*
X107319738Y-105966897D01*
X107280535Y-105846240D01*
X107265912Y-105826114D01*
X107247063Y-105800171D01*
X107224722Y-105769421D01*
X106897305Y-105442005D01*
X106897304Y-105442004D01*
X106897302Y-105442002D01*
X106820488Y-105386192D01*
X106820486Y-105386191D01*
X106789558Y-105376142D01*
X106699832Y-105346988D01*
X106699829Y-105346988D01*
X106572963Y-105346988D01*
X106572959Y-105346988D01*
X106452306Y-105386191D01*
X106452300Y-105386194D01*
X106375493Y-105441999D01*
X106375484Y-105442006D01*
X105942004Y-105875487D01*
X105942002Y-105875489D01*
X105886192Y-105952303D01*
X105886191Y-105952306D01*
X105846988Y-106072959D01*
X105846988Y-106199832D01*
X105871936Y-106276612D01*
X105886191Y-106320486D01*
X105886192Y-106320488D01*
X105886194Y-106320491D01*
X105941999Y-106397298D01*
X105942006Y-106397307D01*
X106269421Y-106724721D01*
X106269423Y-106724723D01*
X106346237Y-106780533D01*
X106346240Y-106780535D01*
X106439074Y-106810698D01*
X106466893Y-106819737D01*
X106466894Y-106819737D01*
X106466897Y-106819738D01*
X106466900Y-106819738D01*
X106593760Y-106819738D01*
X106593763Y-106819738D01*
X106641942Y-106804084D01*
X106711783Y-106802089D01*
X106767941Y-106834334D01*
X110940127Y-111006520D01*
X110973612Y-111067843D01*
X110968628Y-111137535D01*
X110955549Y-111163091D01*
X110873370Y-111286081D01*
X110873364Y-111286092D01*
X110797950Y-111468160D01*
X110797947Y-111468170D01*
X110759500Y-111661456D01*
X110759500Y-111661459D01*
X110759500Y-111858541D01*
X110759500Y-111858543D01*
X110759499Y-111858543D01*
X110797947Y-112051829D01*
X110797950Y-112051839D01*
X110873364Y-112233907D01*
X110873371Y-112233920D01*
X110962700Y-112367609D01*
X110965737Y-112377309D01*
X110972392Y-112384989D01*
X110976000Y-112410086D01*
X110983578Y-112434286D01*
X110980889Y-112444086D01*
X110982336Y-112454147D01*
X110971802Y-112477212D01*
X110965094Y-112501667D01*
X110957532Y-112508459D01*
X110953311Y-112517703D01*
X110931980Y-112531411D01*
X110913115Y-112548357D01*
X110901517Y-112550988D01*
X110894533Y-112555477D01*
X110859598Y-112560500D01*
X110638255Y-112560500D01*
X110571216Y-112540815D01*
X110550574Y-112524181D01*
X110210228Y-112183835D01*
X110176743Y-112122512D01*
X110181357Y-112057987D01*
X110180283Y-112057662D01*
X110181719Y-112052927D01*
X110181727Y-112052820D01*
X110181835Y-112052543D01*
X110182049Y-112051839D01*
X110182051Y-112051835D01*
X110195041Y-111986533D01*
X110220500Y-111858543D01*
X110220500Y-111661456D01*
X110182052Y-111468170D01*
X110182051Y-111468169D01*
X110182051Y-111468165D01*
X110179501Y-111462009D01*
X110106635Y-111286092D01*
X110106628Y-111286079D01*
X109997139Y-111122218D01*
X109997136Y-111122214D01*
X109857785Y-110982863D01*
X109857781Y-110982860D01*
X109693920Y-110873371D01*
X109693907Y-110873364D01*
X109511839Y-110797950D01*
X109511829Y-110797947D01*
X109318543Y-110759500D01*
X109318541Y-110759500D01*
X109121459Y-110759500D01*
X109121457Y-110759500D01*
X108928170Y-110797947D01*
X108928160Y-110797950D01*
X108746092Y-110873364D01*
X108746079Y-110873371D01*
X108582218Y-110982860D01*
X108582214Y-110982863D01*
X108442863Y-111122214D01*
X108442860Y-111122218D01*
X108333371Y-111286079D01*
X108333364Y-111286092D01*
X108257950Y-111468160D01*
X108257947Y-111468170D01*
X108219500Y-111661456D01*
X108219500Y-111661459D01*
X108219500Y-111858541D01*
X108219500Y-111858543D01*
X108219499Y-111858543D01*
X108257947Y-112051829D01*
X108257950Y-112051839D01*
X108333364Y-112233907D01*
X108333371Y-112233920D01*
X108442860Y-112397781D01*
X108442863Y-112397785D01*
X108582214Y-112537136D01*
X108582218Y-112537139D01*
X108746079Y-112646628D01*
X108746092Y-112646635D01*
X108927363Y-112721719D01*
X108928165Y-112722051D01*
X108928169Y-112722051D01*
X108928170Y-112722052D01*
X109121456Y-112760500D01*
X109121459Y-112760500D01*
X109318543Y-112760500D01*
X109455233Y-112733310D01*
X109511835Y-112722051D01*
X109511842Y-112722047D01*
X109517662Y-112720283D01*
X109518281Y-112722325D01*
X109578131Y-112715872D01*
X109640620Y-112747127D01*
X109643835Y-112750228D01*
X109843426Y-112949819D01*
X109876911Y-113011142D01*
X109871927Y-113080834D01*
X109830055Y-113136767D01*
X109764591Y-113161184D01*
X109755745Y-113161500D01*
X108699255Y-113161500D01*
X108632216Y-113141815D01*
X108611574Y-113125181D01*
X107670228Y-112183835D01*
X107636743Y-112122512D01*
X107641357Y-112057987D01*
X107640283Y-112057662D01*
X107641719Y-112052927D01*
X107641727Y-112052820D01*
X107641835Y-112052543D01*
X107642049Y-112051839D01*
X107642051Y-112051835D01*
X107655041Y-111986533D01*
X107680500Y-111858543D01*
X107680500Y-111661456D01*
X107642052Y-111468170D01*
X107642051Y-111468169D01*
X107642051Y-111468165D01*
X107639501Y-111462009D01*
X107566635Y-111286092D01*
X107566628Y-111286079D01*
X107457139Y-111122218D01*
X107457136Y-111122214D01*
X107317785Y-110982863D01*
X107317781Y-110982860D01*
X107153920Y-110873371D01*
X107148544Y-110870498D01*
X107149545Y-110868625D01*
X107102631Y-110830805D01*
X107080578Y-110764507D01*
X107080500Y-110760104D01*
X107080500Y-109935782D01*
X107084581Y-109910016D01*
X107084120Y-109909943D01*
X107100499Y-109806524D01*
X107100500Y-109806519D01*
X107100499Y-109193482D01*
X107085646Y-109099696D01*
X107028050Y-108986658D01*
X107028046Y-108986654D01*
X107028045Y-108986652D01*
X106938347Y-108896954D01*
X106938344Y-108896952D01*
X106938342Y-108896950D01*
X106861517Y-108857805D01*
X106825301Y-108839352D01*
X106731524Y-108824500D01*
X106268482Y-108824500D01*
X106187519Y-108837323D01*
X106174696Y-108839354D01*
X106061658Y-108896950D01*
X106061657Y-108896951D01*
X106061652Y-108896954D01*
X105971954Y-108986652D01*
X105971951Y-108986657D01*
X105971950Y-108986658D01*
X105956215Y-109017539D01*
X105914352Y-109099698D01*
X105899500Y-109193475D01*
X105899500Y-109806517D01*
X105906870Y-109853048D01*
X105914354Y-109900304D01*
X105971950Y-110013342D01*
X105971952Y-110013344D01*
X105971954Y-110013347D01*
X106061652Y-110103045D01*
X106061654Y-110103046D01*
X106061658Y-110103050D01*
X106174696Y-110160646D01*
X106174892Y-110160677D01*
X106175112Y-110160781D01*
X106183980Y-110163663D01*
X106183607Y-110164808D01*
X106238027Y-110190602D01*
X106274962Y-110249911D01*
X106279500Y-110283151D01*
X106279500Y-110760104D01*
X106259815Y-110827143D01*
X106210925Y-110869505D01*
X106211456Y-110870498D01*
X106207083Y-110872834D01*
X106207011Y-110872898D01*
X106206766Y-110873004D01*
X106206079Y-110873371D01*
X106042218Y-110982860D01*
X106042214Y-110982863D01*
X105902863Y-111122214D01*
X105902860Y-111122218D01*
X105793371Y-111286079D01*
X105793364Y-111286092D01*
X105717950Y-111468160D01*
X105717947Y-111468170D01*
X105679500Y-111661456D01*
X105679500Y-111661459D01*
X105679500Y-111858541D01*
X105679500Y-111858543D01*
X105679499Y-111858543D01*
X105717947Y-112051829D01*
X105717950Y-112051839D01*
X105793364Y-112233907D01*
X105793371Y-112233920D01*
X105902860Y-112397781D01*
X105902863Y-112397785D01*
X106042214Y-112537136D01*
X106042218Y-112537139D01*
X106206079Y-112646628D01*
X106206092Y-112646635D01*
X106387363Y-112721719D01*
X106388165Y-112722051D01*
X106388169Y-112722051D01*
X106388170Y-112722052D01*
X106581456Y-112760500D01*
X106581459Y-112760500D01*
X106778543Y-112760500D01*
X106915233Y-112733310D01*
X106971835Y-112722051D01*
X106971842Y-112722047D01*
X106977662Y-112720283D01*
X106978281Y-112722325D01*
X107038131Y-112715872D01*
X107100620Y-112747127D01*
X107103835Y-112750228D01*
X107904426Y-113550819D01*
X107937911Y-113612142D01*
X107932927Y-113681834D01*
X107891055Y-113737767D01*
X107825591Y-113762184D01*
X107816745Y-113762500D01*
X101680255Y-113762500D01*
X101613216Y-113742815D01*
X101592574Y-113726181D01*
X100050228Y-112183835D01*
X100016743Y-112122512D01*
X100021357Y-112057987D01*
X100020283Y-112057662D01*
X100021719Y-112052927D01*
X100021727Y-112052820D01*
X100021835Y-112052543D01*
X100022049Y-112051839D01*
X100022051Y-112051835D01*
X100035041Y-111986533D01*
X100060500Y-111858543D01*
X100060500Y-111661456D01*
X100022052Y-111468170D01*
X100022051Y-111468169D01*
X100022051Y-111468165D01*
X100019501Y-111462009D01*
X99946635Y-111286092D01*
X99946628Y-111286079D01*
X99837139Y-111122218D01*
X99837136Y-111122214D01*
X99697785Y-110982863D01*
X99697781Y-110982860D01*
X99533920Y-110873371D01*
X99533907Y-110873364D01*
X99351839Y-110797950D01*
X99351829Y-110797947D01*
X99158543Y-110759500D01*
X99158541Y-110759500D01*
X98961459Y-110759500D01*
X98961457Y-110759500D01*
X98768170Y-110797947D01*
X98768160Y-110797950D01*
X98586092Y-110873364D01*
X98586079Y-110873371D01*
X98422218Y-110982860D01*
X98422214Y-110982863D01*
X98282863Y-111122214D01*
X98282860Y-111122218D01*
X98173371Y-111286079D01*
X98173364Y-111286092D01*
X98097950Y-111468160D01*
X98097947Y-111468170D01*
X98059500Y-111661456D01*
X98059500Y-111661459D01*
X98059500Y-111858541D01*
X98059500Y-111858543D01*
X98059499Y-111858543D01*
X98097947Y-112051829D01*
X98097950Y-112051839D01*
X98173364Y-112233907D01*
X98173371Y-112233920D01*
X98282860Y-112397781D01*
X98282863Y-112397785D01*
X98422214Y-112537136D01*
X98422218Y-112537139D01*
X98586079Y-112646628D01*
X98586092Y-112646635D01*
X98767363Y-112721719D01*
X98768165Y-112722051D01*
X98768169Y-112722051D01*
X98768170Y-112722052D01*
X98961456Y-112760500D01*
X98961459Y-112760500D01*
X99158543Y-112760500D01*
X99295233Y-112733310D01*
X99351835Y-112722051D01*
X99351842Y-112722047D01*
X99357662Y-112720283D01*
X99358281Y-112722325D01*
X99418131Y-112715872D01*
X99480620Y-112747127D01*
X99483835Y-112750228D01*
X101221426Y-114487819D01*
X101254911Y-114549142D01*
X101249927Y-114618834D01*
X101208055Y-114674767D01*
X101142591Y-114699184D01*
X101133745Y-114699500D01*
X65424500Y-114699500D01*
X65357461Y-114679815D01*
X65311706Y-114627011D01*
X65300500Y-114575500D01*
X65300500Y-70424500D01*
X65320185Y-70357461D01*
X65372989Y-70311706D01*
X65424500Y-70300500D01*
X134575500Y-70300500D01*
X134642539Y-70320185D01*
G37*
%TD.AperFunction*%
%TA.AperFunction,Conductor*%
G36*
X90088784Y-110979185D02*
G01*
X90109426Y-110995819D01*
X90449771Y-111336164D01*
X90483256Y-111397487D01*
X90478641Y-111462009D01*
X90479717Y-111462336D01*
X90478279Y-111467075D01*
X90478272Y-111467179D01*
X90478166Y-111467445D01*
X90477948Y-111468166D01*
X90439500Y-111661456D01*
X90439500Y-111661459D01*
X90439500Y-111858541D01*
X90439500Y-111858543D01*
X90439499Y-111858543D01*
X90477947Y-112051829D01*
X90477950Y-112051839D01*
X90553364Y-112233907D01*
X90553371Y-112233920D01*
X90642700Y-112367609D01*
X90663578Y-112434286D01*
X90645094Y-112501667D01*
X90593115Y-112548357D01*
X90539598Y-112560500D01*
X87260402Y-112560500D01*
X87193363Y-112540815D01*
X87147608Y-112488011D01*
X87137664Y-112418853D01*
X87157300Y-112367609D01*
X87246628Y-112233920D01*
X87246628Y-112233919D01*
X87246632Y-112233914D01*
X87248441Y-112229548D01*
X87310187Y-112080477D01*
X87322051Y-112051835D01*
X87335041Y-111986533D01*
X87360500Y-111858543D01*
X87360500Y-111661456D01*
X87322052Y-111468170D01*
X87322051Y-111468169D01*
X87322051Y-111468165D01*
X87319501Y-111462009D01*
X87246635Y-111286092D01*
X87246628Y-111286079D01*
X87157300Y-111152391D01*
X87136422Y-111085714D01*
X87154906Y-111018333D01*
X87206885Y-110971643D01*
X87260402Y-110959500D01*
X90021745Y-110959500D01*
X90088784Y-110979185D01*
G37*
%TD.AperFunction*%
%TA.AperFunction,Conductor*%
G36*
X124849784Y-73420185D02*
G01*
X124870426Y-73436819D01*
X132563181Y-81129574D01*
X132596666Y-81190897D01*
X132599500Y-81217255D01*
X132599500Y-99621036D01*
X132579815Y-99688075D01*
X132527011Y-99733830D01*
X132457853Y-99743774D01*
X132394297Y-99714749D01*
X132387819Y-99708717D01*
X132318615Y-99639513D01*
X132318613Y-99639511D01*
X132215886Y-99580201D01*
X132101309Y-99549500D01*
X131982691Y-99549500D01*
X131982686Y-99549500D01*
X131948591Y-99558636D01*
X131878741Y-99556972D01*
X131820880Y-99517809D01*
X131793377Y-99453580D01*
X131792500Y-99438861D01*
X131792500Y-94325408D01*
X131809112Y-94263408D01*
X131860799Y-94173886D01*
X131891500Y-94059309D01*
X131891500Y-93940691D01*
X131860799Y-93826114D01*
X131801489Y-93723387D01*
X131717613Y-93639511D01*
X131614886Y-93580201D01*
X131500309Y-93549500D01*
X131381691Y-93549500D01*
X131381686Y-93549500D01*
X131347591Y-93558636D01*
X131277741Y-93556972D01*
X131219880Y-93517809D01*
X131192377Y-93453580D01*
X131191500Y-93438861D01*
X131191500Y-90098275D01*
X131191500Y-90098273D01*
X131164207Y-89996413D01*
X131164207Y-89996412D01*
X131162866Y-89994090D01*
X131132795Y-89942006D01*
X131111480Y-89905087D01*
X130568497Y-89362104D01*
X130535012Y-89300781D01*
X130539996Y-89231089D01*
X130541619Y-89226966D01*
X130550128Y-89206424D01*
X130550130Y-89206420D01*
X130590500Y-89003465D01*
X130590500Y-88796535D01*
X130550130Y-88593580D01*
X130470941Y-88402402D01*
X130355977Y-88230345D01*
X130355976Y-88230344D01*
X130355975Y-88230342D01*
X130209657Y-88084024D01*
X130104058Y-88013466D01*
X130037598Y-87969059D01*
X129985002Y-87947273D01*
X129846420Y-87889870D01*
X129846412Y-87889868D01*
X129643469Y-87849500D01*
X129643465Y-87849500D01*
X129436535Y-87849500D01*
X129436530Y-87849500D01*
X129233587Y-87889868D01*
X129233579Y-87889870D01*
X129042403Y-87969058D01*
X128870342Y-88084024D01*
X128870341Y-88084025D01*
X128863181Y-88091186D01*
X128801858Y-88124671D01*
X128732166Y-88119687D01*
X128676233Y-88077815D01*
X128651816Y-88012351D01*
X128651500Y-88003505D01*
X128651500Y-84716495D01*
X128671185Y-84649456D01*
X128723989Y-84603701D01*
X128793147Y-84593757D01*
X128856703Y-84622782D01*
X128863181Y-84628814D01*
X128870342Y-84635975D01*
X128870345Y-84635977D01*
X129042402Y-84750941D01*
X129233580Y-84830130D01*
X129359697Y-84855216D01*
X129436530Y-84870499D01*
X129436534Y-84870500D01*
X129436535Y-84870500D01*
X129643466Y-84870500D01*
X129643467Y-84870499D01*
X129846420Y-84830130D01*
X130037598Y-84750941D01*
X130209655Y-84635977D01*
X130355977Y-84489655D01*
X130470941Y-84317598D01*
X130550130Y-84126420D01*
X130590500Y-83923465D01*
X130590500Y-83716535D01*
X130550130Y-83513580D01*
X130470941Y-83322402D01*
X130355977Y-83150345D01*
X130355975Y-83150342D01*
X130209657Y-83004024D01*
X130037597Y-82889058D01*
X129940000Y-82848632D01*
X129885597Y-82804790D01*
X129880067Y-82796071D01*
X129860480Y-82762145D01*
X121777855Y-74679520D01*
X121732192Y-74653156D01*
X121686531Y-74626793D01*
X121607819Y-74605703D01*
X121584669Y-74599500D01*
X121584668Y-74599500D01*
X104325408Y-74599500D01*
X104258369Y-74579815D01*
X104212614Y-74527011D01*
X104202670Y-74457853D01*
X104231695Y-74394297D01*
X104263408Y-74368113D01*
X104264225Y-74367641D01*
X104276613Y-74360489D01*
X104360489Y-74276613D01*
X104419799Y-74173886D01*
X104450500Y-74059309D01*
X104450500Y-73940691D01*
X104419799Y-73826114D01*
X104360489Y-73723387D01*
X104276613Y-73639511D01*
X104276611Y-73639510D01*
X104276609Y-73639508D01*
X104263408Y-73631887D01*
X104215192Y-73581320D01*
X104201970Y-73512712D01*
X104227938Y-73447848D01*
X104284852Y-73407320D01*
X104325408Y-73400500D01*
X124782745Y-73400500D01*
X124849784Y-73420185D01*
G37*
%TD.AperFunction*%
%TA.AperFunction,Conductor*%
G36*
X85526637Y-76409185D02*
G01*
X85572392Y-76461989D01*
X85582336Y-76531147D01*
X85562700Y-76582391D01*
X85473371Y-76716079D01*
X85473364Y-76716092D01*
X85397950Y-76898160D01*
X85397947Y-76898170D01*
X85359500Y-77091456D01*
X85359500Y-77091459D01*
X85359500Y-77288541D01*
X85359500Y-77288543D01*
X85359499Y-77288543D01*
X85397947Y-77481829D01*
X85397950Y-77481839D01*
X85473364Y-77663907D01*
X85473371Y-77663920D01*
X85582860Y-77827781D01*
X85582863Y-77827785D01*
X85722214Y-77967136D01*
X85722218Y-77967139D01*
X85886079Y-78076628D01*
X85886092Y-78076635D01*
X86067363Y-78151719D01*
X86068165Y-78152051D01*
X86068169Y-78152051D01*
X86068170Y-78152052D01*
X86261456Y-78190500D01*
X86261459Y-78190500D01*
X86458543Y-78190500D01*
X86588582Y-78164632D01*
X86651835Y-78152051D01*
X86833914Y-78076632D01*
X86997782Y-77967139D01*
X87137139Y-77827782D01*
X87246632Y-77663914D01*
X87248441Y-77659548D01*
X87310187Y-77510478D01*
X87322051Y-77481835D01*
X87334632Y-77418582D01*
X87360500Y-77288543D01*
X87360500Y-77091456D01*
X87322052Y-76898170D01*
X87322051Y-76898169D01*
X87322051Y-76898165D01*
X87310186Y-76869520D01*
X87246635Y-76716092D01*
X87246628Y-76716079D01*
X87157300Y-76582391D01*
X87136422Y-76515714D01*
X87154906Y-76448333D01*
X87206885Y-76401643D01*
X87260402Y-76389500D01*
X87999598Y-76389500D01*
X88066637Y-76409185D01*
X88112392Y-76461989D01*
X88122336Y-76531147D01*
X88102700Y-76582391D01*
X88013371Y-76716079D01*
X88013364Y-76716092D01*
X87937950Y-76898160D01*
X87937947Y-76898170D01*
X87899500Y-77091456D01*
X87899500Y-77091459D01*
X87899500Y-77288541D01*
X87899500Y-77288543D01*
X87899499Y-77288543D01*
X87937947Y-77481829D01*
X87937950Y-77481839D01*
X88013364Y-77663907D01*
X88013371Y-77663920D01*
X88122860Y-77827781D01*
X88122863Y-77827785D01*
X88262214Y-77967136D01*
X88262218Y-77967139D01*
X88426079Y-78076628D01*
X88426092Y-78076635D01*
X88607363Y-78151719D01*
X88608165Y-78152051D01*
X88608169Y-78152051D01*
X88608170Y-78152052D01*
X88801456Y-78190500D01*
X88801459Y-78190500D01*
X88998543Y-78190500D01*
X89128582Y-78164632D01*
X89191835Y-78152051D01*
X89373914Y-78076632D01*
X89537782Y-77967139D01*
X89677139Y-77827782D01*
X89786632Y-77663914D01*
X89788441Y-77659548D01*
X89850187Y-77510478D01*
X89862051Y-77481835D01*
X89874632Y-77418582D01*
X89900500Y-77288543D01*
X89900500Y-77091456D01*
X89862052Y-76898170D01*
X89862051Y-76898169D01*
X89862051Y-76898165D01*
X89850186Y-76869520D01*
X89786635Y-76716092D01*
X89786628Y-76716079D01*
X89697300Y-76582391D01*
X89676422Y-76515714D01*
X89694906Y-76448333D01*
X89746885Y-76401643D01*
X89800402Y-76389500D01*
X90539598Y-76389500D01*
X90606637Y-76409185D01*
X90652392Y-76461989D01*
X90662336Y-76531147D01*
X90642700Y-76582391D01*
X90553371Y-76716079D01*
X90553364Y-76716092D01*
X90477950Y-76898160D01*
X90477947Y-76898170D01*
X90439500Y-77091456D01*
X90439500Y-77091459D01*
X90439500Y-77288541D01*
X90439500Y-77288543D01*
X90439499Y-77288543D01*
X90477947Y-77481829D01*
X90477950Y-77481839D01*
X90553364Y-77663907D01*
X90553371Y-77663920D01*
X90662860Y-77827781D01*
X90662863Y-77827785D01*
X90802214Y-77967136D01*
X90802218Y-77967139D01*
X90966079Y-78076628D01*
X90966092Y-78076635D01*
X91147363Y-78151719D01*
X91148165Y-78152051D01*
X91148169Y-78152051D01*
X91148170Y-78152052D01*
X91341456Y-78190500D01*
X91341459Y-78190500D01*
X91538543Y-78190500D01*
X91668582Y-78164632D01*
X91731835Y-78152051D01*
X91913914Y-78076632D01*
X92077782Y-77967139D01*
X92217139Y-77827782D01*
X92326632Y-77663914D01*
X92333304Y-77647805D01*
X92377142Y-77593402D01*
X92415771Y-77575481D01*
X92461580Y-77563207D01*
X92552905Y-77510480D01*
X92781506Y-77281877D01*
X92842827Y-77248394D01*
X92912519Y-77253378D01*
X92968453Y-77295249D01*
X92990803Y-77345368D01*
X93017947Y-77481829D01*
X93017950Y-77481839D01*
X93093364Y-77663907D01*
X93093371Y-77663920D01*
X93202860Y-77827781D01*
X93202863Y-77827785D01*
X93342214Y-77967136D01*
X93342218Y-77967139D01*
X93506079Y-78076628D01*
X93506092Y-78076635D01*
X93687363Y-78151719D01*
X93688165Y-78152051D01*
X93688169Y-78152051D01*
X93688170Y-78152052D01*
X93881456Y-78190500D01*
X93881459Y-78190500D01*
X94078543Y-78190500D01*
X94208582Y-78164632D01*
X94271835Y-78152051D01*
X94453914Y-78076632D01*
X94617782Y-77967139D01*
X94757139Y-77827782D01*
X94866632Y-77663914D01*
X94868441Y-77659548D01*
X94930187Y-77510478D01*
X94942051Y-77481835D01*
X94954632Y-77418582D01*
X94980500Y-77288543D01*
X94980500Y-77276254D01*
X94989143Y-77246817D01*
X94995667Y-77216828D01*
X94999422Y-77211810D01*
X95000185Y-77209215D01*
X95016814Y-77188576D01*
X95113109Y-77092281D01*
X95168699Y-77060188D01*
X95173886Y-77058799D01*
X95276613Y-76999489D01*
X95313600Y-76962501D01*
X95374920Y-76929017D01*
X95444612Y-76934001D01*
X95500546Y-76975871D01*
X95524964Y-77041335D01*
X95522898Y-77074371D01*
X95519500Y-77091456D01*
X95519500Y-77091459D01*
X95519500Y-77288541D01*
X95519500Y-77288543D01*
X95519499Y-77288543D01*
X95557948Y-77481833D01*
X95559718Y-77487668D01*
X95557684Y-77488284D01*
X95564115Y-77548190D01*
X95532831Y-77610664D01*
X95529770Y-77613835D01*
X95021965Y-78121642D01*
X94860520Y-78283087D01*
X94838236Y-78321683D01*
X94807793Y-78374410D01*
X94796460Y-78416706D01*
X94782351Y-78469364D01*
X94780500Y-78476273D01*
X94780500Y-78476274D01*
X94780500Y-79489172D01*
X94766985Y-79545466D01*
X94739352Y-79599698D01*
X94724500Y-79693475D01*
X94724500Y-80306517D01*
X94739354Y-80400304D01*
X94766985Y-80454533D01*
X94780500Y-80510827D01*
X94780500Y-91529597D01*
X94760815Y-91596636D01*
X94708011Y-91642391D01*
X94638853Y-91652335D01*
X94587610Y-91632699D01*
X94453925Y-91543374D01*
X94453907Y-91543364D01*
X94271839Y-91467950D01*
X94271829Y-91467947D01*
X94078543Y-91429500D01*
X94078541Y-91429500D01*
X93881459Y-91429500D01*
X93881457Y-91429500D01*
X93688166Y-91467948D01*
X93688159Y-91467950D01*
X93655938Y-91481296D01*
X93586468Y-91488763D01*
X93523990Y-91457487D01*
X93520807Y-91454415D01*
X91917697Y-89851304D01*
X91884212Y-89789981D01*
X91887447Y-89725305D01*
X91900965Y-89683701D01*
X91903101Y-89677126D01*
X91903101Y-89550260D01*
X91902267Y-89547694D01*
X91882436Y-89486658D01*
X91863898Y-89429603D01*
X91862031Y-89427034D01*
X91835991Y-89391193D01*
X91808085Y-89352784D01*
X91480668Y-89025368D01*
X91480667Y-89025367D01*
X91480665Y-89025365D01*
X91403851Y-88969555D01*
X91403849Y-88969554D01*
X91373684Y-88959753D01*
X91283195Y-88930351D01*
X91283192Y-88930351D01*
X91156326Y-88930351D01*
X91156322Y-88930351D01*
X91035669Y-88969554D01*
X91035663Y-88969557D01*
X90958856Y-89025362D01*
X90958847Y-89025369D01*
X90525367Y-89458850D01*
X90525365Y-89458852D01*
X90469555Y-89535666D01*
X90469554Y-89535669D01*
X90430351Y-89656322D01*
X90430351Y-89783195D01*
X90445865Y-89830941D01*
X90469554Y-89903849D01*
X90469555Y-89903851D01*
X90469557Y-89903854D01*
X90525362Y-89980661D01*
X90525369Y-89980670D01*
X90852784Y-90308084D01*
X90852786Y-90308086D01*
X90929600Y-90363896D01*
X90929603Y-90363898D01*
X91008400Y-90389500D01*
X91050256Y-90403100D01*
X91050257Y-90403100D01*
X91050260Y-90403101D01*
X91050263Y-90403101D01*
X91177123Y-90403101D01*
X91177126Y-90403101D01*
X91225305Y-90387447D01*
X91295146Y-90385452D01*
X91351304Y-90417697D01*
X92980012Y-92046404D01*
X93013497Y-92107727D01*
X93013948Y-92158276D01*
X92979500Y-92331454D01*
X92979500Y-92331459D01*
X92979500Y-92528541D01*
X92979500Y-92528543D01*
X92979499Y-92528543D01*
X93017947Y-92721829D01*
X93017950Y-92721839D01*
X93093364Y-92903907D01*
X93093371Y-92903920D01*
X93202860Y-93067781D01*
X93202863Y-93067785D01*
X93342214Y-93207136D01*
X93342218Y-93207139D01*
X93506079Y-93316628D01*
X93506092Y-93316635D01*
X93687363Y-93391719D01*
X93688165Y-93392051D01*
X93688169Y-93392051D01*
X93688170Y-93392052D01*
X93881456Y-93430500D01*
X93881459Y-93430500D01*
X94078543Y-93430500D01*
X94237976Y-93398786D01*
X94271835Y-93392051D01*
X94453914Y-93316632D01*
X94485590Y-93295467D01*
X94587609Y-93227300D01*
X94654286Y-93206422D01*
X94721667Y-93224906D01*
X94768357Y-93276885D01*
X94780500Y-93330402D01*
X94780500Y-95128273D01*
X94780500Y-95233727D01*
X94794146Y-95284657D01*
X94807793Y-95335589D01*
X94827787Y-95370218D01*
X94860520Y-95426913D01*
X94860522Y-95426915D01*
X95529771Y-96096164D01*
X95563256Y-96157487D01*
X95558641Y-96222009D01*
X95559717Y-96222336D01*
X95558279Y-96227075D01*
X95558272Y-96227179D01*
X95558166Y-96227445D01*
X95557948Y-96228166D01*
X95519500Y-96421456D01*
X95519500Y-96421459D01*
X95519500Y-96618541D01*
X95519500Y-96618543D01*
X95519499Y-96618543D01*
X95557947Y-96811829D01*
X95557950Y-96811839D01*
X95633364Y-96993907D01*
X95633371Y-96993920D01*
X95742860Y-97157781D01*
X95742863Y-97157785D01*
X95882214Y-97297136D01*
X95882218Y-97297139D01*
X96046079Y-97406628D01*
X96046092Y-97406635D01*
X96227363Y-97481719D01*
X96228165Y-97482051D01*
X96228169Y-97482051D01*
X96228170Y-97482052D01*
X96421456Y-97520500D01*
X96421459Y-97520500D01*
X96618543Y-97520500D01*
X96758335Y-97492693D01*
X96811835Y-97482051D01*
X96993914Y-97406632D01*
X97157782Y-97297139D01*
X97297139Y-97157782D01*
X97406632Y-96993914D01*
X97482051Y-96811835D01*
X97519520Y-96623469D01*
X97520500Y-96618543D01*
X97520500Y-96421456D01*
X97482052Y-96228170D01*
X97482051Y-96228166D01*
X97482051Y-96228165D01*
X97479501Y-96222009D01*
X97406635Y-96046092D01*
X97406628Y-96046079D01*
X97297139Y-95882218D01*
X97297136Y-95882214D01*
X97157785Y-95742863D01*
X97157781Y-95742860D01*
X96993920Y-95633371D01*
X96993907Y-95633364D01*
X96811839Y-95557950D01*
X96811829Y-95557947D01*
X96618543Y-95519500D01*
X96618541Y-95519500D01*
X96421459Y-95519500D01*
X96421457Y-95519500D01*
X96228166Y-95557948D01*
X96222336Y-95559717D01*
X96221719Y-95557683D01*
X96161816Y-95564118D01*
X96099340Y-95532837D01*
X96096164Y-95529771D01*
X95617819Y-95051426D01*
X95584334Y-94990103D01*
X95581500Y-94963745D01*
X95581500Y-93205784D01*
X95601185Y-93138745D01*
X95653989Y-93092990D01*
X95723147Y-93083046D01*
X95786703Y-93112071D01*
X95793181Y-93118103D01*
X95882214Y-93207136D01*
X95882218Y-93207139D01*
X96046079Y-93316628D01*
X96046092Y-93316635D01*
X96227363Y-93391719D01*
X96228165Y-93392051D01*
X96228169Y-93392051D01*
X96228170Y-93392052D01*
X96421456Y-93430500D01*
X96421459Y-93430500D01*
X96618543Y-93430500D01*
X96777976Y-93398786D01*
X96811835Y-93392051D01*
X96993914Y-93316632D01*
X97157782Y-93207139D01*
X97200898Y-93164023D01*
X97246819Y-93118103D01*
X97308142Y-93084618D01*
X97377834Y-93089602D01*
X97433767Y-93131474D01*
X97458184Y-93196938D01*
X97458500Y-93205784D01*
X97458500Y-95371726D01*
X97485793Y-95473589D01*
X97508147Y-95512306D01*
X97538520Y-95564913D01*
X97538522Y-95564915D01*
X98069771Y-96096164D01*
X98103256Y-96157487D01*
X98098641Y-96222009D01*
X98099717Y-96222336D01*
X98098279Y-96227075D01*
X98098272Y-96227179D01*
X98098166Y-96227445D01*
X98097948Y-96228166D01*
X98059500Y-96421456D01*
X98059500Y-96421459D01*
X98059500Y-96618541D01*
X98059500Y-96618543D01*
X98059499Y-96618543D01*
X98097947Y-96811829D01*
X98097950Y-96811839D01*
X98173364Y-96993907D01*
X98173371Y-96993920D01*
X98282860Y-97157781D01*
X98282863Y-97157785D01*
X98422214Y-97297136D01*
X98422218Y-97297139D01*
X98586079Y-97406628D01*
X98586092Y-97406635D01*
X98767363Y-97481719D01*
X98768165Y-97482051D01*
X98768169Y-97482051D01*
X98768170Y-97482052D01*
X98925869Y-97513421D01*
X98987779Y-97545806D01*
X99022354Y-97606522D01*
X99018614Y-97676291D01*
X98989358Y-97722719D01*
X98648897Y-98063181D01*
X98587574Y-98096666D01*
X98561216Y-98099500D01*
X93486533Y-98099500D01*
X93419494Y-98079815D01*
X93376049Y-98031796D01*
X93353050Y-97986658D01*
X93353046Y-97986654D01*
X93353045Y-97986652D01*
X93263347Y-97896954D01*
X93263344Y-97896952D01*
X93263342Y-97896950D01*
X93186517Y-97857805D01*
X93150301Y-97839352D01*
X93056524Y-97824500D01*
X92593482Y-97824500D01*
X92512519Y-97837323D01*
X92499696Y-97839354D01*
X92386658Y-97896950D01*
X92386657Y-97896951D01*
X92386652Y-97896954D01*
X92296954Y-97986652D01*
X92296951Y-97986657D01*
X92296950Y-97986658D01*
X92279000Y-98021887D01*
X92239352Y-98099698D01*
X92224500Y-98193475D01*
X92224500Y-98806517D01*
X92233542Y-98863607D01*
X92239354Y-98900304D01*
X92296950Y-99013342D01*
X92296952Y-99013344D01*
X92296954Y-99013347D01*
X92386652Y-99103045D01*
X92386654Y-99103046D01*
X92386658Y-99103050D01*
X92499694Y-99160645D01*
X92499698Y-99160647D01*
X92593475Y-99175499D01*
X92593481Y-99175500D01*
X93056518Y-99175499D01*
X93150304Y-99160646D01*
X93263342Y-99103050D01*
X93353050Y-99013342D01*
X93376049Y-98968203D01*
X93424023Y-98917409D01*
X93486533Y-98900500D01*
X98831196Y-98900500D01*
X98831198Y-98900500D01*
X98933059Y-98873207D01*
X99024384Y-98820480D01*
X100667290Y-97177574D01*
X100728613Y-97144089D01*
X100798305Y-97149073D01*
X100842652Y-97177574D01*
X100962217Y-97297139D01*
X101106600Y-97393612D01*
X101126086Y-97406632D01*
X101126092Y-97406634D01*
X101131457Y-97409502D01*
X101130453Y-97411378D01*
X101177355Y-97449173D01*
X101199421Y-97515467D01*
X101199500Y-97519895D01*
X101199500Y-98002726D01*
X101226793Y-98104589D01*
X101243122Y-98132871D01*
X101279520Y-98195913D01*
X101279522Y-98195915D01*
X102471426Y-99387819D01*
X102504911Y-99449142D01*
X102499927Y-99518834D01*
X102458055Y-99574767D01*
X102392591Y-99599184D01*
X102383745Y-99599500D01*
X79444863Y-99599500D01*
X79377824Y-99579815D01*
X79332069Y-99527011D01*
X79322125Y-99457853D01*
X79334378Y-99419205D01*
X79344009Y-99400304D01*
X79344009Y-99400302D01*
X79344010Y-99400301D01*
X79358862Y-99306524D01*
X79358863Y-99306519D01*
X79358862Y-98693482D01*
X79344009Y-98599696D01*
X79319285Y-98551173D01*
X79306389Y-98482506D01*
X79332665Y-98417766D01*
X79389771Y-98377508D01*
X79429770Y-98370880D01*
X90428125Y-98370880D01*
X90457565Y-98379524D01*
X90487552Y-98386048D01*
X90492567Y-98389802D01*
X90495164Y-98390565D01*
X90515806Y-98407199D01*
X90538181Y-98429574D01*
X90571666Y-98490897D01*
X90574500Y-98517255D01*
X90574500Y-98806517D01*
X90583542Y-98863607D01*
X90589354Y-98900304D01*
X90646950Y-99013342D01*
X90646952Y-99013344D01*
X90646954Y-99013347D01*
X90736652Y-99103045D01*
X90736654Y-99103046D01*
X90736658Y-99103050D01*
X90849694Y-99160645D01*
X90849698Y-99160647D01*
X90943475Y-99175499D01*
X90943481Y-99175500D01*
X91406518Y-99175499D01*
X91500304Y-99160646D01*
X91613342Y-99103050D01*
X91703050Y-99013342D01*
X91760646Y-98900304D01*
X91760646Y-98900302D01*
X91760647Y-98900301D01*
X91775499Y-98806524D01*
X91775500Y-98806519D01*
X91775499Y-98193482D01*
X91760646Y-98099696D01*
X91703050Y-97986658D01*
X91703046Y-97986654D01*
X91703045Y-97986652D01*
X91613347Y-97896954D01*
X91613344Y-97896952D01*
X91613342Y-97896950D01*
X91536517Y-97857805D01*
X91500301Y-97839352D01*
X91406524Y-97824500D01*
X91406519Y-97824500D01*
X91117255Y-97824500D01*
X91050216Y-97804815D01*
X91029574Y-97788181D01*
X90891295Y-97649902D01*
X90891293Y-97649900D01*
X90882448Y-97644793D01*
X90841929Y-97621398D01*
X90841929Y-97621399D01*
X90840627Y-97620647D01*
X90839507Y-97620001D01*
X90839502Y-97619995D01*
X90839484Y-97619987D01*
X90824027Y-97611063D01*
X90799969Y-97597173D01*
X90723071Y-97576569D01*
X90698107Y-97569880D01*
X90698106Y-97569880D01*
X89538370Y-97569880D01*
X89471331Y-97550195D01*
X89425576Y-97497391D01*
X89415632Y-97428233D01*
X89444657Y-97364677D01*
X89469479Y-97342778D01*
X89520463Y-97308711D01*
X89537782Y-97297139D01*
X89677139Y-97157782D01*
X89786632Y-96993914D01*
X89862051Y-96811835D01*
X89899520Y-96623469D01*
X89900500Y-96618543D01*
X89900500Y-96421456D01*
X89862052Y-96228170D01*
X89862051Y-96228166D01*
X89862051Y-96228165D01*
X89859501Y-96222009D01*
X89786635Y-96046092D01*
X89786628Y-96046079D01*
X89677139Y-95882218D01*
X89677136Y-95882214D01*
X89537785Y-95742863D01*
X89537781Y-95742860D01*
X89373920Y-95633371D01*
X89373907Y-95633364D01*
X89191839Y-95557950D01*
X89191829Y-95557947D01*
X88998543Y-95519500D01*
X88998541Y-95519500D01*
X88801459Y-95519500D01*
X88801457Y-95519500D01*
X88608170Y-95557947D01*
X88608160Y-95557950D01*
X88426092Y-95633364D01*
X88426079Y-95633371D01*
X88262218Y-95742860D01*
X88262214Y-95742863D01*
X88122863Y-95882214D01*
X88122860Y-95882218D01*
X88013371Y-96046079D01*
X88013364Y-96046092D01*
X87937950Y-96228160D01*
X87937947Y-96228170D01*
X87899500Y-96421456D01*
X87899500Y-96421459D01*
X87899500Y-96618541D01*
X87899500Y-96618543D01*
X87899499Y-96618543D01*
X87937947Y-96811829D01*
X87937950Y-96811839D01*
X88013364Y-96993907D01*
X88013371Y-96993920D01*
X88122860Y-97157781D01*
X88122863Y-97157785D01*
X88262214Y-97297136D01*
X88262218Y-97297139D01*
X88330521Y-97342778D01*
X88375326Y-97396390D01*
X88384033Y-97465715D01*
X88353879Y-97528743D01*
X88294436Y-97565462D01*
X88261630Y-97569880D01*
X86998370Y-97569880D01*
X86931331Y-97550195D01*
X86885576Y-97497391D01*
X86875632Y-97428233D01*
X86904657Y-97364677D01*
X86929479Y-97342778D01*
X86980463Y-97308711D01*
X86997782Y-97297139D01*
X87137139Y-97157782D01*
X87246632Y-96993914D01*
X87322051Y-96811835D01*
X87359520Y-96623469D01*
X87360500Y-96618543D01*
X87360500Y-96421456D01*
X87322052Y-96228170D01*
X87322051Y-96228166D01*
X87322051Y-96228165D01*
X87319501Y-96222009D01*
X87246635Y-96046092D01*
X87246628Y-96046079D01*
X87137139Y-95882218D01*
X87137136Y-95882214D01*
X86997785Y-95742863D01*
X86997781Y-95742860D01*
X86833920Y-95633371D01*
X86833907Y-95633364D01*
X86651839Y-95557950D01*
X86651829Y-95557947D01*
X86458543Y-95519500D01*
X86458541Y-95519500D01*
X86261459Y-95519500D01*
X86261457Y-95519500D01*
X86068170Y-95557947D01*
X86068160Y-95557950D01*
X85886092Y-95633364D01*
X85886079Y-95633371D01*
X85722218Y-95742860D01*
X85722214Y-95742863D01*
X85582863Y-95882214D01*
X85582860Y-95882218D01*
X85473371Y-96046079D01*
X85473364Y-96046092D01*
X85397950Y-96228160D01*
X85397947Y-96228170D01*
X85359500Y-96421456D01*
X85359500Y-96421459D01*
X85359500Y-96618541D01*
X85359500Y-96618543D01*
X85359499Y-96618543D01*
X85397947Y-96811829D01*
X85397950Y-96811839D01*
X85473364Y-96993907D01*
X85473371Y-96993920D01*
X85582860Y-97157781D01*
X85582863Y-97157785D01*
X85722214Y-97297136D01*
X85722218Y-97297139D01*
X85790521Y-97342778D01*
X85835326Y-97396390D01*
X85844033Y-97465715D01*
X85813879Y-97528743D01*
X85754436Y-97565462D01*
X85721630Y-97569880D01*
X81918370Y-97569880D01*
X81851331Y-97550195D01*
X81805576Y-97497391D01*
X81795632Y-97428233D01*
X81824657Y-97364677D01*
X81849479Y-97342778D01*
X81900463Y-97308711D01*
X81917782Y-97297139D01*
X82057139Y-97157782D01*
X82166632Y-96993914D01*
X82242051Y-96811835D01*
X82279520Y-96623469D01*
X82280500Y-96618543D01*
X82280500Y-96421456D01*
X82242052Y-96228170D01*
X82242051Y-96228166D01*
X82242051Y-96228165D01*
X82239501Y-96222009D01*
X82166635Y-96046092D01*
X82166628Y-96046079D01*
X82057139Y-95882218D01*
X82057136Y-95882214D01*
X81917785Y-95742863D01*
X81917781Y-95742860D01*
X81753920Y-95633371D01*
X81753907Y-95633364D01*
X81571839Y-95557950D01*
X81571829Y-95557947D01*
X81378543Y-95519500D01*
X81378541Y-95519500D01*
X81181459Y-95519500D01*
X81181457Y-95519500D01*
X80988170Y-95557947D01*
X80988160Y-95557950D01*
X80806092Y-95633364D01*
X80806079Y-95633371D01*
X80663558Y-95728602D01*
X80596881Y-95749480D01*
X80594667Y-95749500D01*
X78790121Y-95749500D01*
X78723082Y-95729815D01*
X78677327Y-95677011D01*
X78667383Y-95607853D01*
X78667648Y-95606103D01*
X78675499Y-95556525D01*
X78675500Y-95556519D01*
X78675499Y-95093482D01*
X78671447Y-95067896D01*
X78680403Y-94998603D01*
X78725400Y-94945152D01*
X78792152Y-94924513D01*
X78793921Y-94924500D01*
X83076725Y-94924500D01*
X83076727Y-94924500D01*
X83178588Y-94897207D01*
X83269913Y-94844480D01*
X83445574Y-94668819D01*
X83506897Y-94635334D01*
X83533255Y-94632500D01*
X88934745Y-94632500D01*
X89001784Y-94652185D01*
X89022426Y-94668819D01*
X89741945Y-95388338D01*
X90449771Y-96096163D01*
X90483256Y-96157486D01*
X90478641Y-96222015D01*
X90479716Y-96222342D01*
X90478279Y-96227077D01*
X90478272Y-96227178D01*
X90478170Y-96227436D01*
X90477947Y-96228171D01*
X90439500Y-96421456D01*
X90439500Y-96421459D01*
X90439500Y-96618541D01*
X90439500Y-96618543D01*
X90439499Y-96618543D01*
X90477947Y-96811829D01*
X90477950Y-96811839D01*
X90553364Y-96993907D01*
X90553371Y-96993920D01*
X90662860Y-97157781D01*
X90662863Y-97157785D01*
X90802214Y-97297136D01*
X90802218Y-97297139D01*
X90966081Y-97406629D01*
X90966088Y-97406633D01*
X91147363Y-97481719D01*
X91148165Y-97482051D01*
X91148169Y-97482051D01*
X91148170Y-97482052D01*
X91341456Y-97520500D01*
X91341459Y-97520500D01*
X91538543Y-97520500D01*
X91678335Y-97492693D01*
X91731835Y-97482051D01*
X91913914Y-97406632D01*
X92077782Y-97297139D01*
X92217139Y-97157782D01*
X92326632Y-96993914D01*
X92402051Y-96811835D01*
X92439520Y-96623469D01*
X92440500Y-96618543D01*
X92440500Y-96421456D01*
X92402052Y-96228170D01*
X92402051Y-96228166D01*
X92402051Y-96228165D01*
X92399501Y-96222009D01*
X92326635Y-96046092D01*
X92326628Y-96046079D01*
X92217139Y-95882218D01*
X92217136Y-95882214D01*
X92077785Y-95742863D01*
X92077781Y-95742860D01*
X91913920Y-95633371D01*
X91913907Y-95633364D01*
X91731839Y-95557950D01*
X91731829Y-95557947D01*
X91538543Y-95519500D01*
X91538541Y-95519500D01*
X91341459Y-95519500D01*
X91341457Y-95519500D01*
X91148171Y-95557947D01*
X91142342Y-95559716D01*
X91141727Y-95557691D01*
X91081774Y-95564110D01*
X91019308Y-95532808D01*
X91016163Y-95529771D01*
X89729574Y-94243181D01*
X89696089Y-94181858D01*
X89701073Y-94112166D01*
X89742945Y-94056233D01*
X89808409Y-94031816D01*
X89817255Y-94031500D01*
X90873745Y-94031500D01*
X90940784Y-94051185D01*
X90961426Y-94067819D01*
X92989771Y-96096164D01*
X93023256Y-96157487D01*
X93018641Y-96222009D01*
X93019717Y-96222336D01*
X93018279Y-96227075D01*
X93018272Y-96227179D01*
X93018166Y-96227445D01*
X93017948Y-96228166D01*
X92979500Y-96421456D01*
X92979500Y-96421459D01*
X92979500Y-96618541D01*
X92979500Y-96618543D01*
X92979499Y-96618543D01*
X93017947Y-96811829D01*
X93017950Y-96811839D01*
X93093364Y-96993907D01*
X93093371Y-96993920D01*
X93202860Y-97157781D01*
X93202863Y-97157785D01*
X93342214Y-97297136D01*
X93342218Y-97297139D01*
X93506079Y-97406628D01*
X93506092Y-97406635D01*
X93687363Y-97481719D01*
X93688165Y-97482051D01*
X93688169Y-97482051D01*
X93688170Y-97482052D01*
X93881456Y-97520500D01*
X93881459Y-97520500D01*
X94078543Y-97520500D01*
X94218335Y-97492693D01*
X94271835Y-97482051D01*
X94453914Y-97406632D01*
X94617782Y-97297139D01*
X94757139Y-97157782D01*
X94866632Y-96993914D01*
X94942051Y-96811835D01*
X94979520Y-96623469D01*
X94980500Y-96618543D01*
X94980500Y-96421456D01*
X94942052Y-96228170D01*
X94942051Y-96228166D01*
X94942051Y-96228165D01*
X94939501Y-96222009D01*
X94866635Y-96046092D01*
X94866628Y-96046079D01*
X94757139Y-95882218D01*
X94757136Y-95882214D01*
X94617785Y-95742863D01*
X94617781Y-95742860D01*
X94453920Y-95633371D01*
X94453907Y-95633364D01*
X94271839Y-95557950D01*
X94271829Y-95557947D01*
X94078543Y-95519500D01*
X94078541Y-95519500D01*
X93881459Y-95519500D01*
X93881457Y-95519500D01*
X93688166Y-95557948D01*
X93682336Y-95559717D01*
X93681719Y-95557683D01*
X93621816Y-95564118D01*
X93559340Y-95532837D01*
X93556164Y-95529771D01*
X91634478Y-93608085D01*
X91600993Y-93546762D01*
X91605977Y-93477070D01*
X91647849Y-93421137D01*
X91697966Y-93398787D01*
X91731835Y-93392051D01*
X91913914Y-93316632D01*
X92077782Y-93207139D01*
X92217139Y-93067782D01*
X92326632Y-92903914D01*
X92328441Y-92899548D01*
X92348887Y-92850185D01*
X92402051Y-92721835D01*
X92425679Y-92603050D01*
X92440500Y-92528543D01*
X92440500Y-92331456D01*
X92402052Y-92138170D01*
X92402051Y-92138169D01*
X92402051Y-92138165D01*
X92399504Y-92132015D01*
X92326635Y-91956092D01*
X92326628Y-91956079D01*
X92217139Y-91792218D01*
X92217136Y-91792214D01*
X92077785Y-91652863D01*
X92077781Y-91652860D01*
X91913920Y-91543371D01*
X91913907Y-91543364D01*
X91731839Y-91467950D01*
X91731829Y-91467947D01*
X91538543Y-91429500D01*
X91538541Y-91429500D01*
X91341459Y-91429500D01*
X91341457Y-91429500D01*
X91148171Y-91467947D01*
X91142342Y-91469716D01*
X91141727Y-91467691D01*
X91081774Y-91474110D01*
X91019308Y-91442808D01*
X91016163Y-91439771D01*
X86188574Y-86612181D01*
X86155089Y-86550858D01*
X86160073Y-86481166D01*
X86201945Y-86425233D01*
X86267409Y-86400816D01*
X86276255Y-86400500D01*
X87282745Y-86400500D01*
X87349784Y-86420185D01*
X87370426Y-86436819D01*
X89249028Y-88315421D01*
X89282513Y-88376744D01*
X89279279Y-88441417D01*
X89263625Y-88489599D01*
X89263625Y-88616469D01*
X89271714Y-88641363D01*
X89302828Y-88737123D01*
X89302829Y-88737125D01*
X89302831Y-88737128D01*
X89358636Y-88813935D01*
X89358643Y-88813944D01*
X89686058Y-89141358D01*
X89686060Y-89141360D01*
X89762871Y-89197168D01*
X89762877Y-89197172D01*
X89854575Y-89226966D01*
X89883530Y-89236374D01*
X89883531Y-89236374D01*
X89883534Y-89236375D01*
X89883537Y-89236375D01*
X90010397Y-89236375D01*
X90010400Y-89236375D01*
X90131057Y-89197172D01*
X90207876Y-89141359D01*
X90641358Y-88707876D01*
X90697172Y-88631057D01*
X90736375Y-88510400D01*
X90736375Y-88383534D01*
X90697172Y-88262877D01*
X90641359Y-88186058D01*
X90313942Y-87858642D01*
X90313941Y-87858641D01*
X90313939Y-87858639D01*
X90237125Y-87802829D01*
X90237123Y-87802828D01*
X90189098Y-87787224D01*
X90116469Y-87763625D01*
X90116466Y-87763625D01*
X89989600Y-87763625D01*
X89941417Y-87779279D01*
X89871575Y-87781272D01*
X89815421Y-87749028D01*
X87948710Y-85882317D01*
X87928345Y-85851834D01*
X87927272Y-85852454D01*
X87916784Y-85834288D01*
X87870480Y-85754087D01*
X87795913Y-85679520D01*
X87704587Y-85626793D01*
X87602727Y-85599500D01*
X87602726Y-85599500D01*
X86240538Y-85599500D01*
X86178537Y-85582886D01*
X86173890Y-85580203D01*
X86173887Y-85580201D01*
X86145241Y-85572525D01*
X86059309Y-85549500D01*
X85940691Y-85549500D01*
X85826114Y-85580201D01*
X85826112Y-85580201D01*
X85826112Y-85580202D01*
X85723387Y-85639511D01*
X85723384Y-85639513D01*
X85639513Y-85723384D01*
X85639511Y-85723387D01*
X85595960Y-85798819D01*
X85545392Y-85847034D01*
X85476785Y-85860256D01*
X85411920Y-85834288D01*
X85400892Y-85824499D01*
X84255915Y-84679522D01*
X84255913Y-84679520D01*
X84203841Y-84649456D01*
X84164589Y-84626793D01*
X84113657Y-84613146D01*
X84062727Y-84599500D01*
X84062726Y-84599500D01*
X81986533Y-84599500D01*
X81919494Y-84579815D01*
X81876049Y-84531796D01*
X81853050Y-84486658D01*
X81853046Y-84486654D01*
X81853045Y-84486652D01*
X81763347Y-84396954D01*
X81763344Y-84396952D01*
X81763342Y-84396950D01*
X81660404Y-84344500D01*
X81650301Y-84339352D01*
X81556524Y-84324500D01*
X81093482Y-84324500D01*
X81012519Y-84337323D01*
X80999696Y-84339354D01*
X80886658Y-84396950D01*
X80886657Y-84396951D01*
X80886652Y-84396954D01*
X80796954Y-84486652D01*
X80796951Y-84486657D01*
X80739352Y-84599698D01*
X80724500Y-84693475D01*
X80724500Y-85306517D01*
X80735292Y-85374657D01*
X80739354Y-85400304D01*
X80796950Y-85513342D01*
X80796952Y-85513344D01*
X80796954Y-85513347D01*
X80886652Y-85603045D01*
X80886654Y-85603046D01*
X80886658Y-85603050D01*
X80999694Y-85660645D01*
X80999698Y-85660647D01*
X81093475Y-85675499D01*
X81093481Y-85675500D01*
X81556518Y-85675499D01*
X81650304Y-85660646D01*
X81763342Y-85603050D01*
X81853050Y-85513342D01*
X81876049Y-85468203D01*
X81924023Y-85417409D01*
X81986533Y-85400500D01*
X83792745Y-85400500D01*
X83859784Y-85420185D01*
X83880426Y-85436819D01*
X87167822Y-88724215D01*
X90449771Y-92006163D01*
X90483256Y-92067486D01*
X90478641Y-92132015D01*
X90479716Y-92132342D01*
X90478279Y-92137077D01*
X90478272Y-92137178D01*
X90478170Y-92137436D01*
X90477947Y-92138171D01*
X90439500Y-92331456D01*
X90439500Y-92331459D01*
X90439500Y-92528541D01*
X90439500Y-92528543D01*
X90439499Y-92528543D01*
X90477947Y-92721829D01*
X90477950Y-92721839D01*
X90553364Y-92903907D01*
X90553371Y-92903920D01*
X90642700Y-93037609D01*
X90663578Y-93104286D01*
X90645094Y-93171667D01*
X90593115Y-93218357D01*
X90539598Y-93230500D01*
X87260402Y-93230500D01*
X87193363Y-93210815D01*
X87147608Y-93158011D01*
X87137664Y-93088853D01*
X87157300Y-93037609D01*
X87246628Y-92903920D01*
X87246628Y-92903919D01*
X87246632Y-92903914D01*
X87248441Y-92899548D01*
X87268887Y-92850185D01*
X87322051Y-92721835D01*
X87345679Y-92603050D01*
X87360500Y-92528543D01*
X87360500Y-92331456D01*
X87322052Y-92138170D01*
X87322051Y-92138169D01*
X87322051Y-92138165D01*
X87319504Y-92132015D01*
X87246635Y-91956092D01*
X87246628Y-91956079D01*
X87137139Y-91792218D01*
X87137136Y-91792214D01*
X86997785Y-91652863D01*
X86997781Y-91652860D01*
X86833920Y-91543371D01*
X86833907Y-91543364D01*
X86651839Y-91467950D01*
X86651829Y-91467947D01*
X86458543Y-91429500D01*
X86458541Y-91429500D01*
X86261459Y-91429500D01*
X86261457Y-91429500D01*
X86068170Y-91467947D01*
X86068160Y-91467950D01*
X85886092Y-91543364D01*
X85886079Y-91543371D01*
X85722218Y-91652860D01*
X85722214Y-91652863D01*
X85582863Y-91792214D01*
X85582860Y-91792218D01*
X85473371Y-91956079D01*
X85473364Y-91956092D01*
X85397950Y-92138160D01*
X85397947Y-92138170D01*
X85359500Y-92331456D01*
X85359500Y-92331459D01*
X85359500Y-92528541D01*
X85359500Y-92528543D01*
X85359499Y-92528543D01*
X85397947Y-92721829D01*
X85397950Y-92721839D01*
X85473364Y-92903907D01*
X85473371Y-92903920D01*
X85562700Y-93037609D01*
X85583578Y-93104286D01*
X85565094Y-93171667D01*
X85513115Y-93218357D01*
X85459598Y-93230500D01*
X84720402Y-93230500D01*
X84653363Y-93210815D01*
X84607608Y-93158011D01*
X84597664Y-93088853D01*
X84617300Y-93037609D01*
X84706628Y-92903920D01*
X84706628Y-92903919D01*
X84706632Y-92903914D01*
X84708441Y-92899548D01*
X84728887Y-92850185D01*
X84782051Y-92721835D01*
X84805679Y-92603050D01*
X84820500Y-92528543D01*
X84820500Y-92331456D01*
X84782052Y-92138170D01*
X84782051Y-92138169D01*
X84782051Y-92138165D01*
X84779504Y-92132015D01*
X84706635Y-91956092D01*
X84706628Y-91956079D01*
X84597139Y-91792218D01*
X84597136Y-91792214D01*
X84457785Y-91652863D01*
X84457781Y-91652860D01*
X84293920Y-91543371D01*
X84293907Y-91543364D01*
X84111839Y-91467950D01*
X84111829Y-91467947D01*
X83918543Y-91429500D01*
X83918541Y-91429500D01*
X83721459Y-91429500D01*
X83721457Y-91429500D01*
X83528170Y-91467947D01*
X83528160Y-91467950D01*
X83346092Y-91543364D01*
X83346079Y-91543371D01*
X83182218Y-91652860D01*
X83182214Y-91652863D01*
X83042863Y-91792214D01*
X83042860Y-91792218D01*
X82933371Y-91956079D01*
X82933364Y-91956092D01*
X82857950Y-92138160D01*
X82857947Y-92138170D01*
X82819500Y-92331456D01*
X82819500Y-92331459D01*
X82819500Y-92528541D01*
X82819500Y-92528543D01*
X82819499Y-92528543D01*
X82857947Y-92721829D01*
X82857950Y-92721839D01*
X82933364Y-92903907D01*
X82933371Y-92903920D01*
X83022700Y-93037609D01*
X83043578Y-93104286D01*
X83025094Y-93171667D01*
X82973115Y-93218357D01*
X82919598Y-93230500D01*
X82404500Y-93230500D01*
X82337461Y-93210815D01*
X82291706Y-93158011D01*
X82280500Y-93106500D01*
X82280500Y-91610249D01*
X82280499Y-91610247D01*
X82268868Y-91551770D01*
X82268867Y-91551769D01*
X82224552Y-91485447D01*
X82158230Y-91441132D01*
X82158229Y-91441131D01*
X82099752Y-91429500D01*
X82099748Y-91429500D01*
X80460252Y-91429500D01*
X80460247Y-91429500D01*
X80401770Y-91441131D01*
X80401769Y-91441132D01*
X80335447Y-91485447D01*
X80291132Y-91551769D01*
X80291131Y-91551770D01*
X80279500Y-91610247D01*
X80279500Y-93106500D01*
X80259815Y-93173539D01*
X80207011Y-93219294D01*
X80155500Y-93230500D01*
X78648254Y-93230500D01*
X78581215Y-93210815D01*
X78560572Y-93194180D01*
X78513346Y-93146953D01*
X78513344Y-93146952D01*
X78513342Y-93146950D01*
X78429610Y-93104286D01*
X78400301Y-93089352D01*
X78306524Y-93074500D01*
X77693482Y-93074500D01*
X77612519Y-93087323D01*
X77599696Y-93089354D01*
X77486658Y-93146950D01*
X77486657Y-93146951D01*
X77486653Y-93146953D01*
X77439428Y-93194180D01*
X77378105Y-93227666D01*
X77351746Y-93230500D01*
X76068255Y-93230500D01*
X76001216Y-93210815D01*
X75980574Y-93194181D01*
X74688497Y-91902104D01*
X74655012Y-91840781D01*
X74655262Y-91786941D01*
X74657592Y-91776687D01*
X74670130Y-91746420D01*
X74709797Y-91546998D01*
X74710170Y-91545358D01*
X74726405Y-91516270D01*
X74741853Y-91486738D01*
X74743371Y-91485873D01*
X74744223Y-91484348D01*
X74773623Y-91468646D01*
X74802569Y-91452164D01*
X74804312Y-91452257D01*
X74805854Y-91451434D01*
X74839067Y-91454119D01*
X74872339Y-91455903D01*
X74873991Y-91456944D01*
X74875497Y-91457066D01*
X74881712Y-91461809D01*
X74918764Y-91485157D01*
X75143094Y-91709486D01*
X75546716Y-92113108D01*
X75578808Y-92168690D01*
X75580199Y-92173883D01*
X75580200Y-92173885D01*
X75603221Y-92213757D01*
X75639511Y-92276613D01*
X75723387Y-92360489D01*
X75826114Y-92419799D01*
X75940691Y-92450500D01*
X75940694Y-92450500D01*
X76059306Y-92450500D01*
X76059309Y-92450500D01*
X76095916Y-92440691D01*
X78549500Y-92440691D01*
X78549500Y-92559309D01*
X78580201Y-92673886D01*
X78639511Y-92776613D01*
X78723387Y-92860489D01*
X78826114Y-92919799D01*
X78940691Y-92950500D01*
X78940694Y-92950500D01*
X79059306Y-92950500D01*
X79059309Y-92950500D01*
X79173886Y-92919799D01*
X79276613Y-92860489D01*
X79360489Y-92776613D01*
X79419799Y-92673886D01*
X79450500Y-92559309D01*
X79450500Y-92440691D01*
X79419799Y-92326114D01*
X79417111Y-92321458D01*
X79400500Y-92259461D01*
X79400500Y-91443738D01*
X79420185Y-91376699D01*
X79472989Y-91330944D01*
X79524500Y-91319738D01*
X79593760Y-91319738D01*
X79593763Y-91319738D01*
X79714420Y-91280535D01*
X79791239Y-91224722D01*
X80224721Y-90791239D01*
X80280535Y-90714420D01*
X80319738Y-90593763D01*
X80319738Y-90466897D01*
X80280535Y-90346240D01*
X80278608Y-90343588D01*
X80224726Y-90269427D01*
X80224722Y-90269421D01*
X79897305Y-89942005D01*
X79897304Y-89942004D01*
X79897302Y-89942002D01*
X79820488Y-89886192D01*
X79820486Y-89886191D01*
X79790321Y-89876390D01*
X79699832Y-89846988D01*
X79699829Y-89846988D01*
X79572963Y-89846988D01*
X79572959Y-89846988D01*
X79452306Y-89886191D01*
X79452300Y-89886194D01*
X79375493Y-89941999D01*
X79375484Y-89942006D01*
X78942004Y-90375487D01*
X78942002Y-90375489D01*
X78886192Y-90452303D01*
X78886191Y-90452306D01*
X78846988Y-90572959D01*
X78846988Y-90701982D01*
X78827303Y-90769021D01*
X78810673Y-90789659D01*
X78766226Y-90834107D01*
X78679519Y-90920814D01*
X78626791Y-91012139D01*
X78615565Y-91054042D01*
X78615565Y-91054043D01*
X78599500Y-91113999D01*
X78599500Y-92259461D01*
X78599339Y-92260061D01*
X78594630Y-92293871D01*
X78590438Y-92308381D01*
X78580201Y-92326114D01*
X78549500Y-92440691D01*
X76095916Y-92440691D01*
X76173886Y-92419799D01*
X76276613Y-92360489D01*
X76360489Y-92276613D01*
X76419799Y-92173886D01*
X76450500Y-92059309D01*
X76450500Y-91940691D01*
X76450499Y-91940688D01*
X76450268Y-91938933D01*
X76450500Y-91937444D01*
X76450500Y-91932564D01*
X76451261Y-91932564D01*
X76461029Y-91869897D01*
X76507406Y-91817638D01*
X76551506Y-91801783D01*
X76551458Y-91801603D01*
X76553623Y-91801022D01*
X76557022Y-91799801D01*
X76559304Y-91799500D01*
X76559309Y-91799500D01*
X76673886Y-91768799D01*
X76776613Y-91709489D01*
X76860489Y-91625613D01*
X76919799Y-91522886D01*
X76921187Y-91517704D01*
X76953281Y-91462110D01*
X78226061Y-90189331D01*
X78287384Y-90155846D01*
X78313742Y-90153012D01*
X78427034Y-90153012D01*
X78427037Y-90153012D01*
X78547694Y-90113809D01*
X78624513Y-90057996D01*
X79057995Y-89624513D01*
X79113809Y-89547694D01*
X79153012Y-89427037D01*
X79153012Y-89300171D01*
X79113809Y-89179514D01*
X79057996Y-89102695D01*
X78730579Y-88775279D01*
X78730578Y-88775278D01*
X78730576Y-88775276D01*
X78653762Y-88719466D01*
X78653760Y-88719465D01*
X78618083Y-88707873D01*
X78533106Y-88680262D01*
X78533103Y-88680262D01*
X78406237Y-88680262D01*
X78406233Y-88680262D01*
X78285580Y-88719465D01*
X78285574Y-88719468D01*
X78208767Y-88775273D01*
X78208758Y-88775280D01*
X77775278Y-89208761D01*
X77775276Y-89208763D01*
X77719466Y-89285577D01*
X77719465Y-89285580D01*
X77680262Y-89406233D01*
X77680262Y-89542862D01*
X77678245Y-89542862D01*
X77670890Y-89599768D01*
X77645053Y-89637552D01*
X76386888Y-90895717D01*
X76331305Y-90927810D01*
X76326115Y-90929200D01*
X76326114Y-90929201D01*
X76223390Y-90988509D01*
X76223384Y-90988513D01*
X76139513Y-91072384D01*
X76139511Y-91072387D01*
X76080201Y-91175112D01*
X76069765Y-91214059D01*
X76066908Y-91224726D01*
X76064214Y-91234779D01*
X76027848Y-91294439D01*
X75965001Y-91324968D01*
X75895626Y-91316673D01*
X75856758Y-91290366D01*
X75710981Y-91144589D01*
X75436819Y-90870426D01*
X75403334Y-90809103D01*
X75400500Y-90782745D01*
X75400500Y-90187275D01*
X75400500Y-90187273D01*
X75373207Y-90085413D01*
X75373207Y-90085412D01*
X75320480Y-89994087D01*
X74688497Y-89362104D01*
X74655012Y-89300781D01*
X74659996Y-89231089D01*
X74661619Y-89226966D01*
X74670128Y-89206424D01*
X74670130Y-89206420D01*
X74710500Y-89003465D01*
X74710500Y-88796535D01*
X74670130Y-88593580D01*
X74590941Y-88402402D01*
X74475977Y-88230345D01*
X74475976Y-88230344D01*
X74475975Y-88230342D01*
X74329657Y-88084024D01*
X74224058Y-88013466D01*
X74157598Y-87969059D01*
X74105002Y-87947273D01*
X73966420Y-87889870D01*
X73966412Y-87889868D01*
X73763469Y-87849500D01*
X73763465Y-87849500D01*
X73556535Y-87849500D01*
X73556530Y-87849500D01*
X73353587Y-87889868D01*
X73353579Y-87889870D01*
X73162403Y-87969058D01*
X72990342Y-88084024D01*
X72990341Y-88084025D01*
X72983181Y-88091186D01*
X72921858Y-88124671D01*
X72852166Y-88119687D01*
X72796233Y-88077815D01*
X72771816Y-88012351D01*
X72771500Y-88003505D01*
X72771500Y-85326254D01*
X72791185Y-85259215D01*
X72807815Y-85238577D01*
X73197896Y-84848495D01*
X73259217Y-84815012D01*
X73314576Y-84815617D01*
X73324037Y-84817893D01*
X73353580Y-84830130D01*
X73476804Y-84854640D01*
X73479196Y-84855216D01*
X73507441Y-84871450D01*
X73536297Y-84886545D01*
X73537559Y-84888762D01*
X73539772Y-84890034D01*
X73554752Y-84918954D01*
X73570871Y-84947260D01*
X73570830Y-84949993D01*
X73571908Y-84952074D01*
X73570590Y-84966160D01*
X73570062Y-85001759D01*
X73570495Y-85001816D01*
X73570006Y-85005524D01*
X73569972Y-85007861D01*
X73569435Y-85009865D01*
X73569434Y-85009870D01*
X73569434Y-85009872D01*
X73569434Y-85128490D01*
X73600135Y-85243067D01*
X73659445Y-85345794D01*
X73743321Y-85429670D01*
X73846048Y-85488980D01*
X73960625Y-85519681D01*
X73960628Y-85519681D01*
X74079240Y-85519681D01*
X74079243Y-85519681D01*
X74193820Y-85488980D01*
X74197852Y-85486652D01*
X74198471Y-85486295D01*
X74260472Y-85469681D01*
X74483544Y-85469681D01*
X74483546Y-85469681D01*
X74585407Y-85442388D01*
X74629184Y-85417113D01*
X74691185Y-85400500D01*
X79013467Y-85400500D01*
X79080506Y-85420185D01*
X79123950Y-85468203D01*
X79146950Y-85513342D01*
X79146952Y-85513344D01*
X79146954Y-85513347D01*
X79236652Y-85603045D01*
X79236654Y-85603046D01*
X79236658Y-85603050D01*
X79349694Y-85660645D01*
X79349698Y-85660647D01*
X79443475Y-85675499D01*
X79443481Y-85675500D01*
X79906518Y-85675499D01*
X80000304Y-85660646D01*
X80113342Y-85603050D01*
X80203050Y-85513342D01*
X80260646Y-85400304D01*
X80260646Y-85400302D01*
X80260647Y-85400301D01*
X80275499Y-85306524D01*
X80275500Y-85306519D01*
X80275499Y-84693482D01*
X80260646Y-84599696D01*
X80203050Y-84486658D01*
X80203046Y-84486654D01*
X80203045Y-84486652D01*
X80113347Y-84396954D01*
X80113344Y-84396952D01*
X80113342Y-84396950D01*
X80010404Y-84344500D01*
X80000301Y-84339352D01*
X79906524Y-84324500D01*
X79443482Y-84324500D01*
X79362519Y-84337323D01*
X79349696Y-84339354D01*
X79236658Y-84396950D01*
X79236657Y-84396951D01*
X79236652Y-84396954D01*
X79146954Y-84486652D01*
X79146951Y-84486657D01*
X79146950Y-84486658D01*
X79123950Y-84531796D01*
X79075977Y-84582591D01*
X79013467Y-84599500D01*
X74634569Y-84599500D01*
X74627473Y-84597416D01*
X74620183Y-84598663D01*
X74594401Y-84587705D01*
X74567530Y-84579815D01*
X74562687Y-84574226D01*
X74555880Y-84571333D01*
X74540115Y-84548177D01*
X74521775Y-84527011D01*
X74520722Y-84519691D01*
X74516560Y-84513577D01*
X74515817Y-84485575D01*
X74511831Y-84457853D01*
X74514857Y-84449398D01*
X74514707Y-84443732D01*
X74525227Y-84420429D01*
X74528513Y-84411250D01*
X74529948Y-84408879D01*
X74590941Y-84317598D01*
X74603249Y-84287883D01*
X74608141Y-84279809D01*
X74627240Y-84262351D01*
X74643476Y-84242204D01*
X74653538Y-84238314D01*
X74659713Y-84232670D01*
X74674817Y-84230087D01*
X74698017Y-84221119D01*
X74702715Y-84220500D01*
X74702727Y-84220500D01*
X74804588Y-84193207D01*
X74895913Y-84140480D01*
X79095701Y-79940691D01*
X92049500Y-79940691D01*
X92049500Y-80059309D01*
X92080201Y-80173886D01*
X92139511Y-80276613D01*
X92223387Y-80360489D01*
X92326114Y-80419799D01*
X92440691Y-80450500D01*
X92440694Y-80450500D01*
X92559306Y-80450500D01*
X92559309Y-80450500D01*
X92673886Y-80419799D01*
X92678537Y-80417114D01*
X92740538Y-80400500D01*
X93013467Y-80400500D01*
X93080506Y-80420185D01*
X93123950Y-80468203D01*
X93146950Y-80513342D01*
X93146952Y-80513344D01*
X93146954Y-80513347D01*
X93236652Y-80603045D01*
X93236654Y-80603046D01*
X93236658Y-80603050D01*
X93349694Y-80660645D01*
X93349698Y-80660647D01*
X93443475Y-80675499D01*
X93443481Y-80675500D01*
X93906518Y-80675499D01*
X94000304Y-80660646D01*
X94113342Y-80603050D01*
X94203050Y-80513342D01*
X94260646Y-80400304D01*
X94260646Y-80400302D01*
X94260647Y-80400301D01*
X94275499Y-80306524D01*
X94275500Y-80306519D01*
X94275499Y-79693482D01*
X94260646Y-79599696D01*
X94203050Y-79486658D01*
X94203046Y-79486654D01*
X94203045Y-79486652D01*
X94113347Y-79396954D01*
X94113344Y-79396952D01*
X94113342Y-79396950D01*
X94036517Y-79357805D01*
X94000301Y-79339352D01*
X93906524Y-79324500D01*
X93443482Y-79324500D01*
X93362519Y-79337323D01*
X93349696Y-79339354D01*
X93236658Y-79396950D01*
X93236657Y-79396951D01*
X93236652Y-79396954D01*
X93146954Y-79486652D01*
X93146951Y-79486657D01*
X93146950Y-79486658D01*
X93123950Y-79531796D01*
X93075977Y-79582591D01*
X93013467Y-79599500D01*
X92740538Y-79599500D01*
X92678537Y-79582886D01*
X92673890Y-79580203D01*
X92673887Y-79580201D01*
X92645241Y-79572525D01*
X92559309Y-79549500D01*
X92440691Y-79549500D01*
X92326114Y-79580201D01*
X92326112Y-79580201D01*
X92326112Y-79580202D01*
X92223387Y-79639511D01*
X92223384Y-79639513D01*
X92139513Y-79723384D01*
X92139511Y-79723387D01*
X92103604Y-79785580D01*
X92080201Y-79826114D01*
X92049500Y-79940691D01*
X79095701Y-79940691D01*
X80856165Y-78180226D01*
X80917486Y-78146743D01*
X80982016Y-78151357D01*
X80982342Y-78150284D01*
X80987073Y-78151719D01*
X80987178Y-78151727D01*
X80987446Y-78151832D01*
X80988157Y-78152047D01*
X80988165Y-78152051D01*
X81035496Y-78161465D01*
X81181456Y-78190500D01*
X81181459Y-78190500D01*
X81378543Y-78190500D01*
X81508582Y-78164632D01*
X81571835Y-78152051D01*
X81753914Y-78076632D01*
X81917782Y-77967139D01*
X82057139Y-77827782D01*
X82166632Y-77663914D01*
X82168441Y-77659548D01*
X82230187Y-77510478D01*
X82242051Y-77481835D01*
X82254632Y-77418582D01*
X82280500Y-77288543D01*
X82280500Y-77091456D01*
X82242052Y-76898170D01*
X82242051Y-76898169D01*
X82242051Y-76898165D01*
X82230186Y-76869520D01*
X82166635Y-76716092D01*
X82166628Y-76716079D01*
X82077300Y-76582391D01*
X82056422Y-76515714D01*
X82074906Y-76448333D01*
X82126885Y-76401643D01*
X82180402Y-76389500D01*
X85459598Y-76389500D01*
X85526637Y-76409185D01*
G37*
%TD.AperFunction*%
%TD*%
M02*
