%TF.GenerationSoftware,KiCad,Pcbnew,9.0.6*%
%TF.CreationDate,2026-02-11T21:56:19+01:00*%
%TF.ProjectId,High Side OR ing,48696768-2053-4696-9465-204f5220696e,A*%
%TF.SameCoordinates,Original*%
%TF.FileFunction,Copper,L3,Inr*%
%TF.FilePolarity,Positive*%
%FSLAX46Y46*%
G04 Gerber Fmt 4.6, Leading zero omitted, Abs format (unit mm)*
G04 Created by KiCad (PCBNEW 9.0.6) date 2026-02-11 21:56:19*
%MOMM*%
%LPD*%
G01*
G04 APERTURE LIST*
G04 Aperture macros list*
%AMRoundRect*
0 Rectangle with rounded corners*
0 $1 Rounding radius*
0 $2 $3 $4 $5 $6 $7 $8 $9 X,Y pos of 4 corners*
0 Add a 4 corners polygon primitive as box body*
4,1,4,$2,$3,$4,$5,$6,$7,$8,$9,$2,$3,0*
0 Add four circle primitives for the rounded corners*
1,1,$1+$1,$2,$3*
1,1,$1+$1,$4,$5*
1,1,$1+$1,$6,$7*
1,1,$1+$1,$8,$9*
0 Add four rect primitives between the rounded corners*
20,1,$1+$1,$2,$3,$4,$5,0*
20,1,$1+$1,$4,$5,$6,$7,0*
20,1,$1+$1,$6,$7,$8,$9,0*
20,1,$1+$1,$8,$9,$2,$3,0*%
G04 Aperture macros list end*
%TA.AperFunction,ComponentPad*%
%ADD10R,0.850000X0.850000*%
%TD*%
%TA.AperFunction,ComponentPad*%
%ADD11RoundRect,0.250001X-1.149999X1.149999X-1.149999X-1.149999X1.149999X-1.149999X1.149999X1.149999X0*%
%TD*%
%TA.AperFunction,ComponentPad*%
%ADD12C,2.800000*%
%TD*%
%TA.AperFunction,ComponentPad*%
%ADD13RoundRect,0.250001X1.149999X-1.149999X1.149999X1.149999X-1.149999X1.149999X-1.149999X-1.149999X0*%
%TD*%
%TA.AperFunction,ViaPad*%
%ADD14C,0.800000*%
%TD*%
%TA.AperFunction,ViaPad*%
%ADD15C,0.500000*%
%TD*%
%TA.AperFunction,ViaPad*%
%ADD16C,0.600000*%
%TD*%
G04 APERTURE END LIST*
D10*
%TO.N,Net-(J5-Pin_1)*%
%TO.C,J5*%
X195000000Y-83000000D03*
%TD*%
D11*
%TO.N,GND*%
%TO.C,J1*%
X180000000Y-84500000D03*
D12*
%TO.N,/VIN_1*%
X180000000Y-89500000D03*
%TD*%
D11*
%TO.N,GND*%
%TO.C,J2*%
X179882500Y-73500000D03*
D12*
%TO.N,/VIN_2*%
X179882500Y-78500000D03*
%TD*%
D10*
%TO.N,Net-(J4-Pin_1)*%
%TO.C,J4*%
X195000000Y-93000000D03*
%TD*%
D13*
%TO.N,GND*%
%TO.C,J3*%
X204117500Y-86500000D03*
D12*
%TO.N,/VOUT*%
X204117500Y-81500000D03*
%TD*%
D14*
%TO.N,GND*%
X177500000Y-85000000D03*
X177500000Y-86000000D03*
X176500000Y-73000000D03*
X183500000Y-72000000D03*
X205500000Y-90000000D03*
X206500000Y-88000000D03*
X177500000Y-74000000D03*
X176500000Y-84000000D03*
X177500000Y-84000000D03*
X202500000Y-89000000D03*
X204500000Y-90000000D03*
X206500000Y-85000000D03*
X184000000Y-94000000D03*
X183500000Y-75000000D03*
X183500000Y-84000000D03*
X176500000Y-72000000D03*
D15*
X193500000Y-94000000D03*
D14*
X183500000Y-73000000D03*
X182500000Y-72000000D03*
X206500000Y-86000000D03*
X206500000Y-87000000D03*
X203500000Y-89000000D03*
X176500000Y-85000000D03*
X199000000Y-70000000D03*
X183500000Y-83000000D03*
X199000000Y-74000000D03*
X207500000Y-87000000D03*
X176500000Y-83000000D03*
X177500000Y-75000000D03*
X183500000Y-74000000D03*
X176500000Y-75000000D03*
X202500000Y-90000000D03*
X205500000Y-89000000D03*
D16*
X200500000Y-94500000D03*
D15*
X193500000Y-83000000D03*
D14*
X180000000Y-94000000D03*
X176500000Y-86000000D03*
X207500000Y-88000000D03*
X182500000Y-75000000D03*
X183500000Y-85000000D03*
X177500000Y-72000000D03*
X207500000Y-85000000D03*
X177500000Y-73000000D03*
X177500000Y-83000000D03*
X182500000Y-83000000D03*
X203500000Y-90000000D03*
X176500000Y-74000000D03*
X182500000Y-85000000D03*
X178000000Y-94000000D03*
X182500000Y-73000000D03*
X182500000Y-84000000D03*
X186000000Y-94000000D03*
X182500000Y-74000000D03*
X176000000Y-94000000D03*
X183500000Y-86000000D03*
X207500000Y-86000000D03*
X204500000Y-89000000D03*
X182500000Y-86000000D03*
X199000000Y-72000000D03*
X182000000Y-94000000D03*
D16*
X202250000Y-75000000D03*
%TO.N,Net-(U1-VS)*%
X198500000Y-77750000D03*
X193500000Y-84000000D03*
%TD*%
%TA.AperFunction,Conductor*%
%TO.N,GND*%
G36*
X209642539Y-67320185D02*
G01*
X209688294Y-67372989D01*
X209699500Y-67424500D01*
X209699500Y-97575500D01*
X209679815Y-97642539D01*
X209627011Y-97688294D01*
X209575500Y-97699500D01*
X174424500Y-97699500D01*
X174357461Y-97679815D01*
X174311706Y-97627011D01*
X174300500Y-97575500D01*
X174300500Y-92527135D01*
X194074500Y-92527135D01*
X194074500Y-93472870D01*
X194074501Y-93472876D01*
X194080908Y-93532483D01*
X194131202Y-93667328D01*
X194131206Y-93667335D01*
X194217452Y-93782544D01*
X194217455Y-93782547D01*
X194332664Y-93868793D01*
X194332671Y-93868797D01*
X194467517Y-93919091D01*
X194467516Y-93919091D01*
X194474444Y-93919835D01*
X194527127Y-93925500D01*
X195472872Y-93925499D01*
X195532483Y-93919091D01*
X195642525Y-93878048D01*
X204139500Y-93878048D01*
X204139500Y-94121951D01*
X204166013Y-94323333D01*
X204171334Y-94363744D01*
X204171335Y-94363746D01*
X204234456Y-94599320D01*
X204234459Y-94599330D01*
X204327786Y-94824640D01*
X204327791Y-94824651D01*
X204449727Y-95035848D01*
X204449738Y-95035864D01*
X204598199Y-95229343D01*
X204598205Y-95229350D01*
X204770649Y-95401794D01*
X204770655Y-95401799D01*
X204964144Y-95550268D01*
X204964151Y-95550272D01*
X205175348Y-95672208D01*
X205175353Y-95672210D01*
X205175356Y-95672212D01*
X205400679Y-95765544D01*
X205636256Y-95828666D01*
X205878056Y-95860500D01*
X205878063Y-95860500D01*
X206121937Y-95860500D01*
X206121944Y-95860500D01*
X206363744Y-95828666D01*
X206599321Y-95765544D01*
X206824644Y-95672212D01*
X207035856Y-95550268D01*
X207229345Y-95401799D01*
X207401799Y-95229345D01*
X207550268Y-95035856D01*
X207672212Y-94824644D01*
X207765544Y-94599321D01*
X207828666Y-94363744D01*
X207860500Y-94121944D01*
X207860500Y-93878056D01*
X207828666Y-93636256D01*
X207765544Y-93400679D01*
X207672212Y-93175356D01*
X207672210Y-93175353D01*
X207672208Y-93175348D01*
X207550272Y-92964151D01*
X207550268Y-92964144D01*
X207401799Y-92770655D01*
X207401794Y-92770649D01*
X207229350Y-92598205D01*
X207229343Y-92598199D01*
X207035864Y-92449738D01*
X207035862Y-92449736D01*
X207035856Y-92449732D01*
X207035851Y-92449729D01*
X207035848Y-92449727D01*
X206824651Y-92327791D01*
X206824640Y-92327786D01*
X206599330Y-92234459D01*
X206599323Y-92234457D01*
X206599321Y-92234456D01*
X206363744Y-92171334D01*
X206323333Y-92166013D01*
X206121951Y-92139500D01*
X206121944Y-92139500D01*
X205878056Y-92139500D01*
X205878048Y-92139500D01*
X205647896Y-92169801D01*
X205636256Y-92171334D01*
X205464132Y-92217454D01*
X205400679Y-92234456D01*
X205400669Y-92234459D01*
X205175359Y-92327786D01*
X205175348Y-92327791D01*
X204964151Y-92449727D01*
X204964135Y-92449738D01*
X204770656Y-92598199D01*
X204770649Y-92598205D01*
X204598205Y-92770649D01*
X204598199Y-92770656D01*
X204449738Y-92964135D01*
X204449727Y-92964151D01*
X204327791Y-93175348D01*
X204327786Y-93175359D01*
X204234459Y-93400669D01*
X204234456Y-93400679D01*
X204171335Y-93636253D01*
X204171333Y-93636264D01*
X204139500Y-93878048D01*
X195642525Y-93878048D01*
X195667331Y-93868796D01*
X195782546Y-93782546D01*
X195868796Y-93667331D01*
X195919091Y-93532483D01*
X195925500Y-93472873D01*
X195925499Y-92527128D01*
X195919091Y-92467517D01*
X195868796Y-92332669D01*
X195868795Y-92332668D01*
X195868793Y-92332664D01*
X195782547Y-92217455D01*
X195782544Y-92217452D01*
X195667335Y-92131206D01*
X195667328Y-92131202D01*
X195532482Y-92080908D01*
X195532483Y-92080908D01*
X195472883Y-92074501D01*
X195472881Y-92074500D01*
X195472873Y-92074500D01*
X195472864Y-92074500D01*
X194527129Y-92074500D01*
X194527123Y-92074501D01*
X194467516Y-92080908D01*
X194332671Y-92131202D01*
X194332664Y-92131206D01*
X194217455Y-92217452D01*
X194217452Y-92217455D01*
X194131206Y-92332664D01*
X194131202Y-92332671D01*
X194080908Y-92467517D01*
X194074501Y-92527116D01*
X194074501Y-92527123D01*
X194074500Y-92527135D01*
X174300500Y-92527135D01*
X174300500Y-89375441D01*
X178099500Y-89375441D01*
X178099500Y-89624558D01*
X178099501Y-89624575D01*
X178132017Y-89871561D01*
X178196498Y-90112207D01*
X178291830Y-90342361D01*
X178291837Y-90342376D01*
X178416400Y-90558126D01*
X178568060Y-90755774D01*
X178568066Y-90755781D01*
X178744218Y-90931933D01*
X178744225Y-90931939D01*
X178941873Y-91083599D01*
X179157623Y-91208162D01*
X179157638Y-91208169D01*
X179256825Y-91249253D01*
X179387793Y-91303502D01*
X179628435Y-91367982D01*
X179875435Y-91400500D01*
X179875442Y-91400500D01*
X180124558Y-91400500D01*
X180124565Y-91400500D01*
X180371565Y-91367982D01*
X180612207Y-91303502D01*
X180842373Y-91208164D01*
X181058127Y-91083599D01*
X181255776Y-90931938D01*
X181431938Y-90755776D01*
X181583599Y-90558127D01*
X181708164Y-90342373D01*
X181803502Y-90112207D01*
X181867982Y-89871565D01*
X181900500Y-89624565D01*
X181900500Y-89375435D01*
X181867982Y-89128435D01*
X181803502Y-88887793D01*
X181708164Y-88657627D01*
X181583599Y-88441873D01*
X181551468Y-88399999D01*
X181431939Y-88244225D01*
X181431933Y-88244218D01*
X181255781Y-88068066D01*
X181255774Y-88068060D01*
X181058126Y-87916400D01*
X180842376Y-87791837D01*
X180842361Y-87791830D01*
X180612207Y-87696498D01*
X180371561Y-87632017D01*
X180124575Y-87599501D01*
X180124570Y-87599500D01*
X180124565Y-87599500D01*
X179875435Y-87599500D01*
X179875429Y-87599500D01*
X179875424Y-87599501D01*
X179628438Y-87632017D01*
X179387792Y-87696498D01*
X179157638Y-87791830D01*
X179157623Y-87791837D01*
X178941873Y-87916400D01*
X178744225Y-88068060D01*
X178744218Y-88068066D01*
X178568066Y-88244218D01*
X178568060Y-88244225D01*
X178416400Y-88441873D01*
X178291837Y-88657623D01*
X178291830Y-88657638D01*
X178196498Y-88887792D01*
X178132017Y-89128438D01*
X178099501Y-89375424D01*
X178099500Y-89375441D01*
X174300500Y-89375441D01*
X174300500Y-83300014D01*
X178100000Y-83300014D01*
X178100000Y-84250000D01*
X179345879Y-84250000D01*
X179326901Y-84295818D01*
X179300000Y-84431056D01*
X179300000Y-84568944D01*
X179326901Y-84704182D01*
X179345879Y-84750000D01*
X178100000Y-84750000D01*
X178100000Y-85699985D01*
X178110493Y-85802689D01*
X178110494Y-85802696D01*
X178165641Y-85969118D01*
X178165643Y-85969123D01*
X178257684Y-86118344D01*
X178381655Y-86242315D01*
X178530876Y-86334356D01*
X178530881Y-86334358D01*
X178697303Y-86389505D01*
X178697310Y-86389506D01*
X178800014Y-86399999D01*
X178800027Y-86400000D01*
X179750000Y-86400000D01*
X179750000Y-85154120D01*
X179795818Y-85173099D01*
X179931056Y-85200000D01*
X180068944Y-85200000D01*
X180204182Y-85173099D01*
X180250000Y-85154120D01*
X180250000Y-86400000D01*
X181199973Y-86400000D01*
X181199985Y-86399999D01*
X181302689Y-86389506D01*
X181302696Y-86389505D01*
X181469118Y-86334358D01*
X181469123Y-86334356D01*
X181618344Y-86242315D01*
X181742315Y-86118344D01*
X181834356Y-85969123D01*
X181834358Y-85969118D01*
X181889505Y-85802696D01*
X181889506Y-85802689D01*
X181899999Y-85699985D01*
X181900000Y-85699972D01*
X181900000Y-85300014D01*
X202217500Y-85300014D01*
X202217500Y-86250000D01*
X203463379Y-86250000D01*
X203444401Y-86295818D01*
X203417500Y-86431056D01*
X203417500Y-86568944D01*
X203444401Y-86704182D01*
X203463379Y-86750000D01*
X202217500Y-86750000D01*
X202217500Y-87699985D01*
X202227993Y-87802689D01*
X202227994Y-87802696D01*
X202283141Y-87969118D01*
X202283143Y-87969123D01*
X202375184Y-88118344D01*
X202499155Y-88242315D01*
X202648376Y-88334356D01*
X202648381Y-88334358D01*
X202814803Y-88389505D01*
X202814810Y-88389506D01*
X202917514Y-88399999D01*
X202917527Y-88400000D01*
X203867500Y-88400000D01*
X203867500Y-87154120D01*
X203913318Y-87173099D01*
X204048556Y-87200000D01*
X204186444Y-87200000D01*
X204321682Y-87173099D01*
X204367500Y-87154120D01*
X204367500Y-88400000D01*
X205317473Y-88400000D01*
X205317485Y-88399999D01*
X205420189Y-88389506D01*
X205420196Y-88389505D01*
X205586618Y-88334358D01*
X205586623Y-88334356D01*
X205735844Y-88242315D01*
X205859815Y-88118344D01*
X205951856Y-87969123D01*
X205951858Y-87969118D01*
X206007005Y-87802696D01*
X206007006Y-87802689D01*
X206017499Y-87699985D01*
X206017500Y-87699972D01*
X206017500Y-86750000D01*
X204771621Y-86750000D01*
X204790599Y-86704182D01*
X204817500Y-86568944D01*
X204817500Y-86431056D01*
X204790599Y-86295818D01*
X204771621Y-86250000D01*
X206017500Y-86250000D01*
X206017500Y-85300027D01*
X206017499Y-85300014D01*
X206007006Y-85197310D01*
X206007005Y-85197303D01*
X205951858Y-85030881D01*
X205951856Y-85030876D01*
X205859815Y-84881655D01*
X205735844Y-84757684D01*
X205586623Y-84665643D01*
X205586618Y-84665641D01*
X205420196Y-84610494D01*
X205420189Y-84610493D01*
X205317485Y-84600000D01*
X204367500Y-84600000D01*
X204367500Y-85845879D01*
X204321682Y-85826901D01*
X204186444Y-85800000D01*
X204048556Y-85800000D01*
X203913318Y-85826901D01*
X203867500Y-85845879D01*
X203867500Y-84600000D01*
X202917514Y-84600000D01*
X202814810Y-84610493D01*
X202814803Y-84610494D01*
X202648381Y-84665641D01*
X202648376Y-84665643D01*
X202499155Y-84757684D01*
X202375184Y-84881655D01*
X202283143Y-85030876D01*
X202283141Y-85030881D01*
X202227994Y-85197303D01*
X202227993Y-85197310D01*
X202217500Y-85300014D01*
X181900000Y-85300014D01*
X181900000Y-84750000D01*
X180654121Y-84750000D01*
X180673099Y-84704182D01*
X180700000Y-84568944D01*
X180700000Y-84431056D01*
X180673099Y-84295818D01*
X180654121Y-84250000D01*
X181900000Y-84250000D01*
X181900000Y-83921153D01*
X192699500Y-83921153D01*
X192699500Y-84078846D01*
X192730261Y-84233489D01*
X192730264Y-84233501D01*
X192790602Y-84379172D01*
X192790609Y-84379185D01*
X192878210Y-84510288D01*
X192878213Y-84510292D01*
X192989707Y-84621786D01*
X192989711Y-84621789D01*
X193120814Y-84709390D01*
X193120827Y-84709397D01*
X193218853Y-84750000D01*
X193266503Y-84769737D01*
X193421153Y-84800499D01*
X193421156Y-84800500D01*
X193421158Y-84800500D01*
X193578844Y-84800500D01*
X193578845Y-84800499D01*
X193733497Y-84769737D01*
X193879179Y-84709394D01*
X194010289Y-84621789D01*
X194121789Y-84510289D01*
X194209394Y-84379179D01*
X194269737Y-84233497D01*
X194300500Y-84078842D01*
X194300500Y-84035391D01*
X194320185Y-83968352D01*
X194372989Y-83922597D01*
X194442147Y-83912653D01*
X194465577Y-83918633D01*
X194467516Y-83919091D01*
X194474444Y-83919835D01*
X194527127Y-83925500D01*
X195472872Y-83925499D01*
X195532483Y-83919091D01*
X195667331Y-83868796D01*
X195782546Y-83782546D01*
X195868796Y-83667331D01*
X195919091Y-83532483D01*
X195925500Y-83472873D01*
X195925499Y-82527128D01*
X195919091Y-82467517D01*
X195872416Y-82342376D01*
X195868797Y-82332671D01*
X195868793Y-82332664D01*
X195782547Y-82217455D01*
X195782544Y-82217452D01*
X195667335Y-82131206D01*
X195667328Y-82131202D01*
X195532482Y-82080908D01*
X195532483Y-82080908D01*
X195472883Y-82074501D01*
X195472881Y-82074500D01*
X195472873Y-82074500D01*
X195472864Y-82074500D01*
X194527129Y-82074500D01*
X194527123Y-82074501D01*
X194467516Y-82080908D01*
X194332671Y-82131202D01*
X194332664Y-82131206D01*
X194217455Y-82217452D01*
X194217452Y-82217455D01*
X194131206Y-82332664D01*
X194131202Y-82332671D01*
X194080908Y-82467517D01*
X194074501Y-82527116D01*
X194074501Y-82527123D01*
X194074500Y-82527135D01*
X194074500Y-83189127D01*
X194054815Y-83256166D01*
X194002011Y-83301921D01*
X193932853Y-83311865D01*
X193884607Y-83293378D01*
X193884554Y-83293479D01*
X193883750Y-83293049D01*
X193881609Y-83292229D01*
X193879185Y-83290609D01*
X193879172Y-83290602D01*
X193733501Y-83230264D01*
X193733489Y-83230261D01*
X193578845Y-83199500D01*
X193578842Y-83199500D01*
X193421158Y-83199500D01*
X193421155Y-83199500D01*
X193266510Y-83230261D01*
X193266498Y-83230264D01*
X193120827Y-83290602D01*
X193120814Y-83290609D01*
X192989711Y-83378210D01*
X192989707Y-83378213D01*
X192878213Y-83489707D01*
X192878210Y-83489711D01*
X192790609Y-83620814D01*
X192790602Y-83620827D01*
X192730264Y-83766498D01*
X192730261Y-83766510D01*
X192699500Y-83921153D01*
X181900000Y-83921153D01*
X181900000Y-83300027D01*
X181899999Y-83300014D01*
X181889506Y-83197310D01*
X181889505Y-83197303D01*
X181834358Y-83030881D01*
X181834356Y-83030876D01*
X181742315Y-82881655D01*
X181618344Y-82757684D01*
X181469123Y-82665643D01*
X181469118Y-82665641D01*
X181302696Y-82610494D01*
X181302689Y-82610493D01*
X181199985Y-82600000D01*
X180250000Y-82600000D01*
X180250000Y-83845879D01*
X180204182Y-83826901D01*
X180068944Y-83800000D01*
X179931056Y-83800000D01*
X179795818Y-83826901D01*
X179750000Y-83845879D01*
X179750000Y-82600000D01*
X178800014Y-82600000D01*
X178697310Y-82610493D01*
X178697303Y-82610494D01*
X178530881Y-82665641D01*
X178530876Y-82665643D01*
X178381655Y-82757684D01*
X178257684Y-82881655D01*
X178165643Y-83030876D01*
X178165641Y-83030881D01*
X178110494Y-83197303D01*
X178110493Y-83197310D01*
X178100000Y-83300014D01*
X174300500Y-83300014D01*
X174300500Y-81375441D01*
X202217000Y-81375441D01*
X202217000Y-81624558D01*
X202217001Y-81624575D01*
X202249517Y-81871561D01*
X202313998Y-82112207D01*
X202409330Y-82342361D01*
X202409337Y-82342376D01*
X202533900Y-82558126D01*
X202685560Y-82755774D01*
X202685566Y-82755781D01*
X202861718Y-82931933D01*
X202861725Y-82931939D01*
X203059373Y-83083599D01*
X203275123Y-83208162D01*
X203275138Y-83208169D01*
X203328481Y-83230264D01*
X203505293Y-83303502D01*
X203745935Y-83367982D01*
X203992935Y-83400500D01*
X203992942Y-83400500D01*
X204242058Y-83400500D01*
X204242065Y-83400500D01*
X204489065Y-83367982D01*
X204729707Y-83303502D01*
X204959873Y-83208164D01*
X205175627Y-83083599D01*
X205373276Y-82931938D01*
X205549438Y-82755776D01*
X205701099Y-82558127D01*
X205825664Y-82342373D01*
X205921002Y-82112207D01*
X205985482Y-81871565D01*
X206018000Y-81624565D01*
X206018000Y-81375435D01*
X205985482Y-81128435D01*
X205921002Y-80887793D01*
X205825664Y-80657627D01*
X205701099Y-80441873D01*
X205549439Y-80244225D01*
X205549433Y-80244218D01*
X205373281Y-80068066D01*
X205373274Y-80068060D01*
X205175626Y-79916400D01*
X204959876Y-79791837D01*
X204959861Y-79791830D01*
X204729707Y-79696498D01*
X204489061Y-79632017D01*
X204242075Y-79599501D01*
X204242070Y-79599500D01*
X204242065Y-79599500D01*
X203992935Y-79599500D01*
X203992929Y-79599500D01*
X203992924Y-79599501D01*
X203745938Y-79632017D01*
X203505292Y-79696498D01*
X203275138Y-79791830D01*
X203275123Y-79791837D01*
X203059373Y-79916400D01*
X202861725Y-80068060D01*
X202861718Y-80068066D01*
X202685566Y-80244218D01*
X202685560Y-80244225D01*
X202533900Y-80441873D01*
X202409337Y-80657623D01*
X202409330Y-80657638D01*
X202313998Y-80887792D01*
X202249517Y-81128438D01*
X202217001Y-81375424D01*
X202217000Y-81375441D01*
X174300500Y-81375441D01*
X174300500Y-78375441D01*
X177982000Y-78375441D01*
X177982000Y-78624558D01*
X177982001Y-78624575D01*
X178014517Y-78871561D01*
X178078998Y-79112207D01*
X178174330Y-79342361D01*
X178174337Y-79342376D01*
X178298900Y-79558126D01*
X178450560Y-79755774D01*
X178450566Y-79755781D01*
X178626718Y-79931933D01*
X178626725Y-79931939D01*
X178824373Y-80083599D01*
X179040123Y-80208162D01*
X179040138Y-80208169D01*
X179127169Y-80244218D01*
X179270293Y-80303502D01*
X179510935Y-80367982D01*
X179757935Y-80400500D01*
X179757942Y-80400500D01*
X180007058Y-80400500D01*
X180007065Y-80400500D01*
X180254065Y-80367982D01*
X180494707Y-80303502D01*
X180724873Y-80208164D01*
X180940627Y-80083599D01*
X181138276Y-79931938D01*
X181314438Y-79755776D01*
X181466099Y-79558127D01*
X181590664Y-79342373D01*
X181686002Y-79112207D01*
X181750482Y-78871565D01*
X181783000Y-78624565D01*
X181783000Y-78375435D01*
X181750482Y-78128435D01*
X181686002Y-77887793D01*
X181596269Y-77671158D01*
X181596267Y-77671153D01*
X197699500Y-77671153D01*
X197699500Y-77828846D01*
X197730261Y-77983489D01*
X197730264Y-77983501D01*
X197790602Y-78129172D01*
X197790609Y-78129185D01*
X197878210Y-78260288D01*
X197878213Y-78260292D01*
X197989707Y-78371786D01*
X197989711Y-78371789D01*
X198120814Y-78459390D01*
X198120827Y-78459397D01*
X198266498Y-78519735D01*
X198266503Y-78519737D01*
X198421153Y-78550499D01*
X198421156Y-78550500D01*
X198421158Y-78550500D01*
X198578844Y-78550500D01*
X198578845Y-78550499D01*
X198733497Y-78519737D01*
X198879179Y-78459394D01*
X199010289Y-78371789D01*
X199121789Y-78260289D01*
X199209394Y-78129179D01*
X199269737Y-77983497D01*
X199300500Y-77828842D01*
X199300500Y-77671158D01*
X199300500Y-77671155D01*
X199300499Y-77671153D01*
X199269738Y-77516510D01*
X199269737Y-77516503D01*
X199269735Y-77516498D01*
X199209397Y-77370827D01*
X199209390Y-77370814D01*
X199121789Y-77239711D01*
X199121786Y-77239707D01*
X199010292Y-77128213D01*
X199010288Y-77128210D01*
X198879185Y-77040609D01*
X198879172Y-77040602D01*
X198733501Y-76980264D01*
X198733489Y-76980261D01*
X198578845Y-76949500D01*
X198578842Y-76949500D01*
X198421158Y-76949500D01*
X198421155Y-76949500D01*
X198266510Y-76980261D01*
X198266498Y-76980264D01*
X198120827Y-77040602D01*
X198120814Y-77040609D01*
X197989711Y-77128210D01*
X197989707Y-77128213D01*
X197878213Y-77239707D01*
X197878210Y-77239711D01*
X197790609Y-77370814D01*
X197790602Y-77370827D01*
X197730264Y-77516498D01*
X197730261Y-77516510D01*
X197699500Y-77671153D01*
X181596267Y-77671153D01*
X181590669Y-77657638D01*
X181590662Y-77657623D01*
X181466099Y-77441873D01*
X181314439Y-77244225D01*
X181314433Y-77244218D01*
X181138281Y-77068066D01*
X181138274Y-77068060D01*
X180940626Y-76916400D01*
X180724876Y-76791837D01*
X180724861Y-76791830D01*
X180494707Y-76696498D01*
X180254061Y-76632017D01*
X180007075Y-76599501D01*
X180007070Y-76599500D01*
X180007065Y-76599500D01*
X179757935Y-76599500D01*
X179757929Y-76599500D01*
X179757924Y-76599501D01*
X179510938Y-76632017D01*
X179270292Y-76696498D01*
X179040138Y-76791830D01*
X179040123Y-76791837D01*
X178824373Y-76916400D01*
X178626725Y-77068060D01*
X178626718Y-77068066D01*
X178450566Y-77244218D01*
X178450560Y-77244225D01*
X178298900Y-77441873D01*
X178174337Y-77657623D01*
X178174330Y-77657638D01*
X178078998Y-77887792D01*
X178014517Y-78128438D01*
X177982001Y-78375424D01*
X177982000Y-78375441D01*
X174300500Y-78375441D01*
X174300500Y-72300014D01*
X177982500Y-72300014D01*
X177982500Y-73250000D01*
X179228379Y-73250000D01*
X179209401Y-73295818D01*
X179182500Y-73431056D01*
X179182500Y-73568944D01*
X179209401Y-73704182D01*
X179228379Y-73750000D01*
X177982500Y-73750000D01*
X177982500Y-74699985D01*
X177992993Y-74802689D01*
X177992994Y-74802696D01*
X178048141Y-74969118D01*
X178048143Y-74969123D01*
X178140184Y-75118344D01*
X178264155Y-75242315D01*
X178413376Y-75334356D01*
X178413381Y-75334358D01*
X178579803Y-75389505D01*
X178579810Y-75389506D01*
X178682514Y-75399999D01*
X178682527Y-75400000D01*
X179632500Y-75400000D01*
X179632500Y-74154120D01*
X179678318Y-74173099D01*
X179813556Y-74200000D01*
X179951444Y-74200000D01*
X180086682Y-74173099D01*
X180132500Y-74154120D01*
X180132500Y-75400000D01*
X181082473Y-75400000D01*
X181082485Y-75399999D01*
X181185189Y-75389506D01*
X181185196Y-75389505D01*
X181351618Y-75334358D01*
X181351623Y-75334356D01*
X181500844Y-75242315D01*
X181624815Y-75118344D01*
X181716856Y-74969123D01*
X181716858Y-74969118D01*
X181772005Y-74802696D01*
X181772006Y-74802689D01*
X181782499Y-74699985D01*
X181782500Y-74699972D01*
X181782500Y-73750000D01*
X180536621Y-73750000D01*
X180555599Y-73704182D01*
X180582500Y-73568944D01*
X180582500Y-73431056D01*
X180555599Y-73295818D01*
X180536621Y-73250000D01*
X181782500Y-73250000D01*
X181782500Y-72300027D01*
X181782499Y-72300014D01*
X181772006Y-72197310D01*
X181772005Y-72197303D01*
X181716858Y-72030881D01*
X181716856Y-72030876D01*
X181624815Y-71881655D01*
X181500844Y-71757684D01*
X181351623Y-71665643D01*
X181351618Y-71665641D01*
X181185196Y-71610494D01*
X181185189Y-71610493D01*
X181082485Y-71600000D01*
X180132500Y-71600000D01*
X180132500Y-72845879D01*
X180086682Y-72826901D01*
X179951444Y-72800000D01*
X179813556Y-72800000D01*
X179678318Y-72826901D01*
X179632500Y-72845879D01*
X179632500Y-71600000D01*
X178682514Y-71600000D01*
X178579810Y-71610493D01*
X178579803Y-71610494D01*
X178413381Y-71665641D01*
X178413376Y-71665643D01*
X178264155Y-71757684D01*
X178140184Y-71881655D01*
X178048143Y-72030876D01*
X178048141Y-72030881D01*
X177992994Y-72197303D01*
X177992993Y-72197310D01*
X177982500Y-72300014D01*
X174300500Y-72300014D01*
X174300500Y-70878048D01*
X204139500Y-70878048D01*
X204139500Y-71121951D01*
X204166013Y-71323333D01*
X204171334Y-71363744D01*
X204171335Y-71363746D01*
X204234456Y-71599320D01*
X204234459Y-71599330D01*
X204327786Y-71824640D01*
X204327791Y-71824651D01*
X204449727Y-72035848D01*
X204449738Y-72035864D01*
X204598199Y-72229343D01*
X204598205Y-72229350D01*
X204770649Y-72401794D01*
X204770655Y-72401799D01*
X204964144Y-72550268D01*
X204964151Y-72550272D01*
X205175348Y-72672208D01*
X205175353Y-72672210D01*
X205175356Y-72672212D01*
X205400679Y-72765544D01*
X205636256Y-72828666D01*
X205878056Y-72860500D01*
X205878063Y-72860500D01*
X206121937Y-72860500D01*
X206121944Y-72860500D01*
X206363744Y-72828666D01*
X206599321Y-72765544D01*
X206824644Y-72672212D01*
X207035856Y-72550268D01*
X207229345Y-72401799D01*
X207401799Y-72229345D01*
X207550268Y-72035856D01*
X207672212Y-71824644D01*
X207765544Y-71599321D01*
X207828666Y-71363744D01*
X207860500Y-71121944D01*
X207860500Y-70878056D01*
X207828666Y-70636256D01*
X207765544Y-70400679D01*
X207672212Y-70175356D01*
X207672210Y-70175353D01*
X207672208Y-70175348D01*
X207550272Y-69964151D01*
X207550268Y-69964144D01*
X207401799Y-69770655D01*
X207401794Y-69770649D01*
X207229350Y-69598205D01*
X207229343Y-69598199D01*
X207035864Y-69449738D01*
X207035862Y-69449736D01*
X207035856Y-69449732D01*
X207035851Y-69449729D01*
X207035848Y-69449727D01*
X206824651Y-69327791D01*
X206824640Y-69327786D01*
X206599330Y-69234459D01*
X206599323Y-69234457D01*
X206599321Y-69234456D01*
X206363744Y-69171334D01*
X206323333Y-69166013D01*
X206121951Y-69139500D01*
X206121944Y-69139500D01*
X205878056Y-69139500D01*
X205878048Y-69139500D01*
X205647896Y-69169801D01*
X205636256Y-69171334D01*
X205400679Y-69234456D01*
X205400669Y-69234459D01*
X205175359Y-69327786D01*
X205175348Y-69327791D01*
X204964151Y-69449727D01*
X204964135Y-69449738D01*
X204770656Y-69598199D01*
X204770649Y-69598205D01*
X204598205Y-69770649D01*
X204598199Y-69770656D01*
X204449738Y-69964135D01*
X204449727Y-69964151D01*
X204327791Y-70175348D01*
X204327786Y-70175359D01*
X204234459Y-70400669D01*
X204234456Y-70400679D01*
X204171335Y-70636253D01*
X204171333Y-70636264D01*
X204139500Y-70878048D01*
X174300500Y-70878048D01*
X174300500Y-67424500D01*
X174320185Y-67357461D01*
X174372989Y-67311706D01*
X174424500Y-67300500D01*
X209575500Y-67300500D01*
X209642539Y-67320185D01*
G37*
%TD.AperFunction*%
%TD*%
M02*
