M48
; DRILL file {KiCad 9.0.6} date 2026-02-11T21:56:17+0100
; FORMAT={-:-/ absolute / metric / decimal}
; #@! TF.CreationDate,2026-02-11T21:56:17+01:00
; #@! TF.GenerationSoftware,Kicad,Pcbnew,9.0.6
; #@! TF.FileFunction,Plated,1,4,PTH
FMAT,2
METRIC
; #@! TA.AperFunction,Plated,PTH,ViaDrill
T1C0.300
; #@! TA.AperFunction,Plated,PTH,ViaDrill
T2C0.400
; #@! TA.AperFunction,Plated,PTH,ComponentDrill
T3C0.500
; #@! TA.AperFunction,Plated,PTH,ComponentDrill
T4C1.400
%
G90
G05
T1
X193.5Y-83.0
X193.5Y-84.0
X193.5Y-94.0
X198.5Y-77.75
X200.5Y-94.5
X202.25Y-75.0
T2
X176.0Y-94.0
X176.5Y-72.0
X176.5Y-73.0
X176.5Y-74.0
X176.5Y-75.0
X176.5Y-83.0
X176.5Y-84.0
X176.5Y-85.0
X176.5Y-86.0
X177.5Y-72.0
X177.5Y-73.0
X177.5Y-74.0
X177.5Y-75.0
X177.5Y-83.0
X177.5Y-84.0
X177.5Y-85.0
X177.5Y-86.0
X178.0Y-94.0
X180.0Y-94.0
X182.0Y-94.0
X182.5Y-72.0
X182.5Y-73.0
X182.5Y-74.0
X182.5Y-75.0
X182.5Y-83.0
X182.5Y-84.0
X182.5Y-85.0
X182.5Y-86.0
X183.5Y-72.0
X183.5Y-73.0
X183.5Y-74.0
X183.5Y-75.0
X183.5Y-83.0
X183.5Y-84.0
X183.5Y-85.0
X183.5Y-86.0
X184.0Y-94.0
X186.0Y-94.0
X199.0Y-70.0
X199.0Y-72.0
X199.0Y-74.0
X202.5Y-89.0
X202.5Y-90.0
X203.5Y-89.0
X203.5Y-90.0
X204.5Y-89.0
X204.5Y-90.0
X205.5Y-89.0
X205.5Y-90.0
X206.5Y-85.0
X206.5Y-86.0
X206.5Y-87.0
X206.5Y-88.0
X207.5Y-85.0
X207.5Y-86.0
X207.5Y-87.0
X207.5Y-88.0
T3
X195.0Y-83.0
X195.0Y-93.0
T4
X179.882Y-73.5
X179.882Y-78.5
X180.0Y-84.5
X180.0Y-89.5
X204.117Y-81.5
X204.117Y-86.5
M30
