%TF.GenerationSoftware,KiCad,Pcbnew,9.0.6*%
%TF.CreationDate,2026-02-11T21:56:19+01:00*%
%TF.ProjectId,High Side OR ing,48696768-2053-4696-9465-204f5220696e,A*%
%TF.SameCoordinates,Original*%
%TF.FileFunction,Paste,Top*%
%TF.FilePolarity,Positive*%
%FSLAX46Y46*%
G04 Gerber Fmt 4.6, Leading zero omitted, Abs format (unit mm)*
G04 Created by KiCad (PCBNEW 9.0.6) date 2026-02-11 21:56:19*
%MOMM*%
%LPD*%
G01*
G04 APERTURE LIST*
G04 Aperture macros list*
%AMRoundRect*
0 Rectangle with rounded corners*
0 $1 Rounding radius*
0 $2 $3 $4 $5 $6 $7 $8 $9 X,Y pos of 4 corners*
0 Add a 4 corners polygon primitive as box body*
4,1,4,$2,$3,$4,$5,$6,$7,$8,$9,$2,$3,0*
0 Add four circle primitives for the rounded corners*
1,1,$1+$1,$2,$3*
1,1,$1+$1,$4,$5*
1,1,$1+$1,$6,$7*
1,1,$1+$1,$8,$9*
0 Add four rect primitives between the rounded corners*
20,1,$1+$1,$2,$3,$4,$5,0*
20,1,$1+$1,$4,$5,$6,$7,0*
20,1,$1+$1,$6,$7,$8,$9,0*
20,1,$1+$1,$8,$9,$2,$3,0*%
G04 Aperture macros list end*
%ADD10C,0.000000*%
%ADD11RoundRect,0.225000X0.250000X-0.225000X0.250000X0.225000X-0.250000X0.225000X-0.250000X-0.225000X0*%
%ADD12R,1.016000X0.457200*%
%ADD13RoundRect,0.472875X-1.103375X-1.544625X1.103375X-1.544625X1.103375X1.544625X-1.103375X1.544625X0*%
%ADD14RoundRect,0.250000X0.250000X0.475000X-0.250000X0.475000X-0.250000X-0.475000X0.250000X-0.475000X0*%
%ADD15R,1.219200X0.533400*%
%ADD16RoundRect,0.225000X0.225000X0.250000X-0.225000X0.250000X-0.225000X-0.250000X0.225000X-0.250000X0*%
G04 APERTURE END LIST*
D10*
%TO.C,Q1*%
G36*
X192608400Y-88153067D02*
G01*
X191005000Y-88153067D01*
X191005000Y-87049200D01*
X192608400Y-87049200D01*
X192608400Y-88153067D01*
G37*
G36*
X192608400Y-89456934D02*
G01*
X191005000Y-89456934D01*
X191005000Y-88353066D01*
X192608400Y-88353066D01*
X192608400Y-89456934D01*
G37*
G36*
X192608400Y-90760800D02*
G01*
X191005000Y-90760800D01*
X191005000Y-89656933D01*
X192608400Y-89656933D01*
X192608400Y-90760800D01*
G37*
G36*
X194411800Y-88153067D02*
G01*
X192808400Y-88153067D01*
X192808400Y-87049200D01*
X194411800Y-87049200D01*
X194411800Y-88153067D01*
G37*
G36*
X194411800Y-89456934D02*
G01*
X192808400Y-89456934D01*
X192808400Y-88353066D01*
X194411800Y-88353066D01*
X194411800Y-89456934D01*
G37*
G36*
X194411800Y-90760800D02*
G01*
X192808400Y-90760800D01*
X192808400Y-89656933D01*
X194411800Y-89656933D01*
X194411800Y-90760800D01*
G37*
%TO.C,Q2*%
G36*
X192608400Y-77613067D02*
G01*
X191005000Y-77613067D01*
X191005000Y-76509200D01*
X192608400Y-76509200D01*
X192608400Y-77613067D01*
G37*
G36*
X192608400Y-78916934D02*
G01*
X191005000Y-78916934D01*
X191005000Y-77813066D01*
X192608400Y-77813066D01*
X192608400Y-78916934D01*
G37*
G36*
X192608400Y-80220800D02*
G01*
X191005000Y-80220800D01*
X191005000Y-79116933D01*
X192608400Y-79116933D01*
X192608400Y-80220800D01*
G37*
G36*
X194411800Y-77613067D02*
G01*
X192808400Y-77613067D01*
X192808400Y-76509200D01*
X194411800Y-76509200D01*
X194411800Y-77613067D01*
G37*
G36*
X194411800Y-78916934D02*
G01*
X192808400Y-78916934D01*
X192808400Y-77813066D01*
X194411800Y-77813066D01*
X194411800Y-78916934D01*
G37*
G36*
X194411800Y-80220800D02*
G01*
X192808400Y-80220800D01*
X192808400Y-79116933D01*
X194411800Y-79116933D01*
X194411800Y-80220800D01*
G37*
%TD*%
D11*
%TO.C,R2*%
X197500000Y-92500000D03*
X197500000Y-90950000D03*
%TD*%
D12*
%TO.C,Q1*%
X189000000Y-87000000D03*
X189000000Y-88270000D03*
X189000000Y-89540000D03*
X189000000Y-90810000D03*
X194892800Y-90810000D03*
D13*
X192570150Y-88887500D03*
D12*
X194892800Y-89540000D03*
X194892800Y-88270000D03*
X194892800Y-87000000D03*
%TD*%
D14*
%TO.C,C2*%
X199250000Y-94500000D03*
X197350000Y-94500000D03*
%TD*%
D15*
%TO.C,U2*%
X192336800Y-94900002D03*
X192336800Y-93950001D03*
X192336800Y-93000000D03*
X190000000Y-93000000D03*
X190000000Y-93950001D03*
X190000000Y-94900002D03*
%TD*%
D14*
%TO.C,C1*%
X202150000Y-76500000D03*
X200250000Y-76500000D03*
%TD*%
D16*
%TO.C,R1*%
X198550000Y-76500000D03*
X197000000Y-76500000D03*
%TD*%
D12*
%TO.C,Q2*%
X189000000Y-76460000D03*
X189000000Y-77730000D03*
X189000000Y-79000000D03*
X189000000Y-80270000D03*
X194892800Y-80270000D03*
D13*
X192570150Y-78347500D03*
D12*
X194892800Y-79000000D03*
X194892800Y-77730000D03*
X194892800Y-76460000D03*
%TD*%
D15*
%TO.C,U1*%
X192336800Y-84000000D03*
X192336800Y-83049999D03*
X192336800Y-82099998D03*
X190000000Y-82099998D03*
X190000000Y-83049999D03*
X190000000Y-84000000D03*
%TD*%
M02*
