%TF.GenerationSoftware,KiCad,Pcbnew,9.0.6*%
%TF.CreationDate,2026-02-11T18:38:51+01:00*%
%TF.ProjectId,Boost converter,426f6f73-7420-4636-9f6e-766572746572,B*%
%TF.SameCoordinates,Original*%
%TF.FileFunction,Legend,Top*%
%TF.FilePolarity,Positive*%
%FSLAX46Y46*%
G04 Gerber Fmt 4.6, Leading zero omitted, Abs format (unit mm)*
G04 Created by KiCad (PCBNEW 9.0.6) date 2026-02-11 18:38:51*
%MOMM*%
%LPD*%
G01*
G04 APERTURE LIST*
%ADD10C,0.100000*%
%ADD11C,0.400000*%
%ADD12C,0.125000*%
%ADD13C,0.150000*%
%ADD14C,0.200000*%
%ADD15C,0.120000*%
%ADD16C,0.152400*%
%ADD17C,0.000000*%
G04 APERTURE END LIST*
D10*
X150744360Y-155122419D02*
X150934836Y-155122419D01*
X150934836Y-155122419D02*
X151030074Y-155170038D01*
X151030074Y-155170038D02*
X151125312Y-155265276D01*
X151125312Y-155265276D02*
X151172931Y-155455752D01*
X151172931Y-155455752D02*
X151172931Y-155789085D01*
X151172931Y-155789085D02*
X151125312Y-155979561D01*
X151125312Y-155979561D02*
X151030074Y-156074800D01*
X151030074Y-156074800D02*
X150934836Y-156122419D01*
X150934836Y-156122419D02*
X150744360Y-156122419D01*
X150744360Y-156122419D02*
X150649122Y-156074800D01*
X150649122Y-156074800D02*
X150553884Y-155979561D01*
X150553884Y-155979561D02*
X150506265Y-155789085D01*
X150506265Y-155789085D02*
X150506265Y-155455752D01*
X150506265Y-155455752D02*
X150553884Y-155265276D01*
X150553884Y-155265276D02*
X150649122Y-155170038D01*
X150649122Y-155170038D02*
X150744360Y-155122419D01*
X151601503Y-156122419D02*
X151601503Y-155122419D01*
X151601503Y-155122419D02*
X152172931Y-156122419D01*
X152172931Y-156122419D02*
X152172931Y-155122419D01*
X153363407Y-155074800D02*
X152506265Y-156360514D01*
X153887217Y-155122419D02*
X154077693Y-155122419D01*
X154077693Y-155122419D02*
X154172931Y-155170038D01*
X154172931Y-155170038D02*
X154268169Y-155265276D01*
X154268169Y-155265276D02*
X154315788Y-155455752D01*
X154315788Y-155455752D02*
X154315788Y-155789085D01*
X154315788Y-155789085D02*
X154268169Y-155979561D01*
X154268169Y-155979561D02*
X154172931Y-156074800D01*
X154172931Y-156074800D02*
X154077693Y-156122419D01*
X154077693Y-156122419D02*
X153887217Y-156122419D01*
X153887217Y-156122419D02*
X153791979Y-156074800D01*
X153791979Y-156074800D02*
X153696741Y-155979561D01*
X153696741Y-155979561D02*
X153649122Y-155789085D01*
X153649122Y-155789085D02*
X153649122Y-155455752D01*
X153649122Y-155455752D02*
X153696741Y-155265276D01*
X153696741Y-155265276D02*
X153791979Y-155170038D01*
X153791979Y-155170038D02*
X153887217Y-155122419D01*
X155077693Y-155598609D02*
X154744360Y-155598609D01*
X154744360Y-156122419D02*
X154744360Y-155122419D01*
X154744360Y-155122419D02*
X155220550Y-155122419D01*
X155934836Y-155598609D02*
X155601503Y-155598609D01*
X155601503Y-156122419D02*
X155601503Y-155122419D01*
X155601503Y-155122419D02*
X156077693Y-155122419D01*
D11*
X180700000Y-133500000D02*
G75*
G02*
X180300000Y-133500000I-200000J0D01*
G01*
X180300000Y-133500000D02*
G75*
G02*
X180700000Y-133500000I200000J0D01*
G01*
X164200000Y-141000000D02*
G75*
G02*
X163800000Y-141000000I-200000J0D01*
G01*
X163800000Y-141000000D02*
G75*
G02*
X164200000Y-141000000I200000J0D01*
G01*
X173900000Y-146000000D02*
G75*
G02*
X173500000Y-146000000I-200000J0D01*
G01*
X173500000Y-146000000D02*
G75*
G02*
X173900000Y-146000000I200000J0D01*
G01*
D10*
X206109595Y-149663576D02*
X205842928Y-149282623D01*
X205652452Y-149663576D02*
X205652452Y-148863576D01*
X205652452Y-148863576D02*
X205957214Y-148863576D01*
X205957214Y-148863576D02*
X206033404Y-148901671D01*
X206033404Y-148901671D02*
X206071499Y-148939766D01*
X206071499Y-148939766D02*
X206109595Y-149015957D01*
X206109595Y-149015957D02*
X206109595Y-149130242D01*
X206109595Y-149130242D02*
X206071499Y-149206433D01*
X206071499Y-149206433D02*
X206033404Y-149244528D01*
X206033404Y-149244528D02*
X205957214Y-149282623D01*
X205957214Y-149282623D02*
X205652452Y-149282623D01*
X206452452Y-149244528D02*
X206719118Y-149244528D01*
X206833404Y-149663576D02*
X206452452Y-149663576D01*
X206452452Y-149663576D02*
X206452452Y-148863576D01*
X206452452Y-148863576D02*
X206833404Y-148863576D01*
X207061976Y-148863576D02*
X207328643Y-149663576D01*
X207328643Y-149663576D02*
X207595309Y-148863576D01*
X208738166Y-149244528D02*
X208852452Y-149282623D01*
X208852452Y-149282623D02*
X208890547Y-149320719D01*
X208890547Y-149320719D02*
X208928643Y-149396909D01*
X208928643Y-149396909D02*
X208928643Y-149511195D01*
X208928643Y-149511195D02*
X208890547Y-149587385D01*
X208890547Y-149587385D02*
X208852452Y-149625481D01*
X208852452Y-149625481D02*
X208776262Y-149663576D01*
X208776262Y-149663576D02*
X208471500Y-149663576D01*
X208471500Y-149663576D02*
X208471500Y-148863576D01*
X208471500Y-148863576D02*
X208738166Y-148863576D01*
X208738166Y-148863576D02*
X208814357Y-148901671D01*
X208814357Y-148901671D02*
X208852452Y-148939766D01*
X208852452Y-148939766D02*
X208890547Y-149015957D01*
X208890547Y-149015957D02*
X208890547Y-149092147D01*
X208890547Y-149092147D02*
X208852452Y-149168338D01*
X208852452Y-149168338D02*
X208814357Y-149206433D01*
X208814357Y-149206433D02*
X208738166Y-149244528D01*
X208738166Y-149244528D02*
X208471500Y-149244528D01*
X203785784Y-150532483D02*
X203519118Y-150532483D01*
X203519118Y-150951531D02*
X203519118Y-150151531D01*
X203519118Y-150151531D02*
X203900070Y-150151531D01*
X204509594Y-150913436D02*
X204433403Y-150951531D01*
X204433403Y-150951531D02*
X204281022Y-150951531D01*
X204281022Y-150951531D02*
X204204832Y-150913436D01*
X204204832Y-150913436D02*
X204166736Y-150837245D01*
X204166736Y-150837245D02*
X204166736Y-150532483D01*
X204166736Y-150532483D02*
X204204832Y-150456293D01*
X204204832Y-150456293D02*
X204281022Y-150418197D01*
X204281022Y-150418197D02*
X204433403Y-150418197D01*
X204433403Y-150418197D02*
X204509594Y-150456293D01*
X204509594Y-150456293D02*
X204547689Y-150532483D01*
X204547689Y-150532483D02*
X204547689Y-150608674D01*
X204547689Y-150608674D02*
X204166736Y-150684864D01*
X204890546Y-150951531D02*
X204890546Y-150151531D01*
X204890546Y-150456293D02*
X204966736Y-150418197D01*
X204966736Y-150418197D02*
X205119117Y-150418197D01*
X205119117Y-150418197D02*
X205195308Y-150456293D01*
X205195308Y-150456293D02*
X205233403Y-150494388D01*
X205233403Y-150494388D02*
X205271498Y-150570578D01*
X205271498Y-150570578D02*
X205271498Y-150799150D01*
X205271498Y-150799150D02*
X205233403Y-150875340D01*
X205233403Y-150875340D02*
X205195308Y-150913436D01*
X205195308Y-150913436D02*
X205119117Y-150951531D01*
X205119117Y-150951531D02*
X204966736Y-150951531D01*
X204966736Y-150951531D02*
X204890546Y-150913436D01*
X206642927Y-150951531D02*
X206185784Y-150951531D01*
X206414356Y-150951531D02*
X206414356Y-150151531D01*
X206414356Y-150151531D02*
X206338165Y-150265816D01*
X206338165Y-150265816D02*
X206261975Y-150342007D01*
X206261975Y-150342007D02*
X206185784Y-150380102D01*
X207404832Y-150951531D02*
X206947689Y-150951531D01*
X207176261Y-150951531D02*
X207176261Y-150151531D01*
X207176261Y-150151531D02*
X207100070Y-150265816D01*
X207100070Y-150265816D02*
X207023880Y-150342007D01*
X207023880Y-150342007D02*
X206947689Y-150380102D01*
X208319118Y-150227721D02*
X208357214Y-150189626D01*
X208357214Y-150189626D02*
X208433404Y-150151531D01*
X208433404Y-150151531D02*
X208623880Y-150151531D01*
X208623880Y-150151531D02*
X208700071Y-150189626D01*
X208700071Y-150189626D02*
X208738166Y-150227721D01*
X208738166Y-150227721D02*
X208776261Y-150303912D01*
X208776261Y-150303912D02*
X208776261Y-150380102D01*
X208776261Y-150380102D02*
X208738166Y-150494388D01*
X208738166Y-150494388D02*
X208281023Y-150951531D01*
X208281023Y-150951531D02*
X208776261Y-150951531D01*
X209271500Y-150151531D02*
X209347690Y-150151531D01*
X209347690Y-150151531D02*
X209423881Y-150189626D01*
X209423881Y-150189626D02*
X209461976Y-150227721D01*
X209461976Y-150227721D02*
X209500071Y-150303912D01*
X209500071Y-150303912D02*
X209538166Y-150456293D01*
X209538166Y-150456293D02*
X209538166Y-150646769D01*
X209538166Y-150646769D02*
X209500071Y-150799150D01*
X209500071Y-150799150D02*
X209461976Y-150875340D01*
X209461976Y-150875340D02*
X209423881Y-150913436D01*
X209423881Y-150913436D02*
X209347690Y-150951531D01*
X209347690Y-150951531D02*
X209271500Y-150951531D01*
X209271500Y-150951531D02*
X209195309Y-150913436D01*
X209195309Y-150913436D02*
X209157214Y-150875340D01*
X209157214Y-150875340D02*
X209119119Y-150799150D01*
X209119119Y-150799150D02*
X209081023Y-150646769D01*
X209081023Y-150646769D02*
X209081023Y-150456293D01*
X209081023Y-150456293D02*
X209119119Y-150303912D01*
X209119119Y-150303912D02*
X209157214Y-150227721D01*
X209157214Y-150227721D02*
X209195309Y-150189626D01*
X209195309Y-150189626D02*
X209271500Y-150151531D01*
X209842928Y-150227721D02*
X209881024Y-150189626D01*
X209881024Y-150189626D02*
X209957214Y-150151531D01*
X209957214Y-150151531D02*
X210147690Y-150151531D01*
X210147690Y-150151531D02*
X210223881Y-150189626D01*
X210223881Y-150189626D02*
X210261976Y-150227721D01*
X210261976Y-150227721D02*
X210300071Y-150303912D01*
X210300071Y-150303912D02*
X210300071Y-150380102D01*
X210300071Y-150380102D02*
X210261976Y-150494388D01*
X210261976Y-150494388D02*
X209804833Y-150951531D01*
X209804833Y-150951531D02*
X210300071Y-150951531D01*
X211023881Y-150151531D02*
X210642929Y-150151531D01*
X210642929Y-150151531D02*
X210604833Y-150532483D01*
X210604833Y-150532483D02*
X210642929Y-150494388D01*
X210642929Y-150494388D02*
X210719119Y-150456293D01*
X210719119Y-150456293D02*
X210909595Y-150456293D01*
X210909595Y-150456293D02*
X210985786Y-150494388D01*
X210985786Y-150494388D02*
X211023881Y-150532483D01*
X211023881Y-150532483D02*
X211061976Y-150608674D01*
X211061976Y-150608674D02*
X211061976Y-150799150D01*
X211061976Y-150799150D02*
X211023881Y-150875340D01*
X211023881Y-150875340D02*
X210985786Y-150913436D01*
X210985786Y-150913436D02*
X210909595Y-150951531D01*
X210909595Y-150951531D02*
X210719119Y-150951531D01*
X210719119Y-150951531D02*
X210642929Y-150913436D01*
X210642929Y-150913436D02*
X210604833Y-150875340D01*
X209027693Y-124920038D02*
X208932455Y-124872419D01*
X208932455Y-124872419D02*
X208789598Y-124872419D01*
X208789598Y-124872419D02*
X208646741Y-124920038D01*
X208646741Y-124920038D02*
X208551503Y-125015276D01*
X208551503Y-125015276D02*
X208503884Y-125110514D01*
X208503884Y-125110514D02*
X208456265Y-125300990D01*
X208456265Y-125300990D02*
X208456265Y-125443847D01*
X208456265Y-125443847D02*
X208503884Y-125634323D01*
X208503884Y-125634323D02*
X208551503Y-125729561D01*
X208551503Y-125729561D02*
X208646741Y-125824800D01*
X208646741Y-125824800D02*
X208789598Y-125872419D01*
X208789598Y-125872419D02*
X208884836Y-125872419D01*
X208884836Y-125872419D02*
X209027693Y-125824800D01*
X209027693Y-125824800D02*
X209075312Y-125777180D01*
X209075312Y-125777180D02*
X209075312Y-125443847D01*
X209075312Y-125443847D02*
X208884836Y-125443847D01*
X209503884Y-125872419D02*
X209503884Y-124872419D01*
X209503884Y-124872419D02*
X210075312Y-125872419D01*
X210075312Y-125872419D02*
X210075312Y-124872419D01*
X210551503Y-125872419D02*
X210551503Y-124872419D01*
X210551503Y-124872419D02*
X210789598Y-124872419D01*
X210789598Y-124872419D02*
X210932455Y-124920038D01*
X210932455Y-124920038D02*
X211027693Y-125015276D01*
X211027693Y-125015276D02*
X211075312Y-125110514D01*
X211075312Y-125110514D02*
X211122931Y-125300990D01*
X211122931Y-125300990D02*
X211122931Y-125443847D01*
X211122931Y-125443847D02*
X211075312Y-125634323D01*
X211075312Y-125634323D02*
X211027693Y-125729561D01*
X211027693Y-125729561D02*
X210932455Y-125824800D01*
X210932455Y-125824800D02*
X210789598Y-125872419D01*
X210789598Y-125872419D02*
X210551503Y-125872419D01*
X141627693Y-133120038D02*
X141532455Y-133072419D01*
X141532455Y-133072419D02*
X141389598Y-133072419D01*
X141389598Y-133072419D02*
X141246741Y-133120038D01*
X141246741Y-133120038D02*
X141151503Y-133215276D01*
X141151503Y-133215276D02*
X141103884Y-133310514D01*
X141103884Y-133310514D02*
X141056265Y-133500990D01*
X141056265Y-133500990D02*
X141056265Y-133643847D01*
X141056265Y-133643847D02*
X141103884Y-133834323D01*
X141103884Y-133834323D02*
X141151503Y-133929561D01*
X141151503Y-133929561D02*
X141246741Y-134024800D01*
X141246741Y-134024800D02*
X141389598Y-134072419D01*
X141389598Y-134072419D02*
X141484836Y-134072419D01*
X141484836Y-134072419D02*
X141627693Y-134024800D01*
X141627693Y-134024800D02*
X141675312Y-133977180D01*
X141675312Y-133977180D02*
X141675312Y-133643847D01*
X141675312Y-133643847D02*
X141484836Y-133643847D01*
X142103884Y-134072419D02*
X142103884Y-133072419D01*
X142103884Y-133072419D02*
X142675312Y-134072419D01*
X142675312Y-134072419D02*
X142675312Y-133072419D01*
X143151503Y-134072419D02*
X143151503Y-133072419D01*
X143151503Y-133072419D02*
X143389598Y-133072419D01*
X143389598Y-133072419D02*
X143532455Y-133120038D01*
X143532455Y-133120038D02*
X143627693Y-133215276D01*
X143627693Y-133215276D02*
X143675312Y-133310514D01*
X143675312Y-133310514D02*
X143722931Y-133500990D01*
X143722931Y-133500990D02*
X143722931Y-133643847D01*
X143722931Y-133643847D02*
X143675312Y-133834323D01*
X143675312Y-133834323D02*
X143627693Y-133929561D01*
X143627693Y-133929561D02*
X143532455Y-134024800D01*
X143532455Y-134024800D02*
X143389598Y-134072419D01*
X143389598Y-134072419D02*
X143151503Y-134072419D01*
X140961027Y-145872419D02*
X141294360Y-146872419D01*
X141294360Y-146872419D02*
X141627693Y-145872419D01*
X141961027Y-146872419D02*
X141961027Y-145872419D01*
X142437217Y-146872419D02*
X142437217Y-145872419D01*
X142437217Y-145872419D02*
X143008645Y-146872419D01*
X143008645Y-146872419D02*
X143008645Y-145872419D01*
X203561027Y-137472419D02*
X203894360Y-138472419D01*
X203894360Y-138472419D02*
X204227693Y-137472419D01*
X204751503Y-137472419D02*
X204941979Y-137472419D01*
X204941979Y-137472419D02*
X205037217Y-137520038D01*
X205037217Y-137520038D02*
X205132455Y-137615276D01*
X205132455Y-137615276D02*
X205180074Y-137805752D01*
X205180074Y-137805752D02*
X205180074Y-138139085D01*
X205180074Y-138139085D02*
X205132455Y-138329561D01*
X205132455Y-138329561D02*
X205037217Y-138424800D01*
X205037217Y-138424800D02*
X204941979Y-138472419D01*
X204941979Y-138472419D02*
X204751503Y-138472419D01*
X204751503Y-138472419D02*
X204656265Y-138424800D01*
X204656265Y-138424800D02*
X204561027Y-138329561D01*
X204561027Y-138329561D02*
X204513408Y-138139085D01*
X204513408Y-138139085D02*
X204513408Y-137805752D01*
X204513408Y-137805752D02*
X204561027Y-137615276D01*
X204561027Y-137615276D02*
X204656265Y-137520038D01*
X204656265Y-137520038D02*
X204751503Y-137472419D01*
X205608646Y-137472419D02*
X205608646Y-138281942D01*
X205608646Y-138281942D02*
X205656265Y-138377180D01*
X205656265Y-138377180D02*
X205703884Y-138424800D01*
X205703884Y-138424800D02*
X205799122Y-138472419D01*
X205799122Y-138472419D02*
X205989598Y-138472419D01*
X205989598Y-138472419D02*
X206084836Y-138424800D01*
X206084836Y-138424800D02*
X206132455Y-138377180D01*
X206132455Y-138377180D02*
X206180074Y-138281942D01*
X206180074Y-138281942D02*
X206180074Y-137472419D01*
X206513408Y-137472419D02*
X207084836Y-137472419D01*
X206799122Y-138472419D02*
X206799122Y-137472419D01*
X208465789Y-138853371D02*
X208418170Y-138805752D01*
X208418170Y-138805752D02*
X208322932Y-138662895D01*
X208322932Y-138662895D02*
X208275313Y-138567657D01*
X208275313Y-138567657D02*
X208227694Y-138424800D01*
X208227694Y-138424800D02*
X208180075Y-138186704D01*
X208180075Y-138186704D02*
X208180075Y-137996228D01*
X208180075Y-137996228D02*
X208227694Y-137758133D01*
X208227694Y-137758133D02*
X208275313Y-137615276D01*
X208275313Y-137615276D02*
X208322932Y-137520038D01*
X208322932Y-137520038D02*
X208418170Y-137377180D01*
X208418170Y-137377180D02*
X208465789Y-137329561D01*
X208751504Y-137472419D02*
X209370551Y-137472419D01*
X209370551Y-137472419D02*
X209037218Y-137853371D01*
X209037218Y-137853371D02*
X209180075Y-137853371D01*
X209180075Y-137853371D02*
X209275313Y-137900990D01*
X209275313Y-137900990D02*
X209322932Y-137948609D01*
X209322932Y-137948609D02*
X209370551Y-138043847D01*
X209370551Y-138043847D02*
X209370551Y-138281942D01*
X209370551Y-138281942D02*
X209322932Y-138377180D01*
X209322932Y-138377180D02*
X209275313Y-138424800D01*
X209275313Y-138424800D02*
X209180075Y-138472419D01*
X209180075Y-138472419D02*
X208894361Y-138472419D01*
X208894361Y-138472419D02*
X208799123Y-138424800D01*
X208799123Y-138424800D02*
X208751504Y-138377180D01*
X210227694Y-137472419D02*
X210037218Y-137472419D01*
X210037218Y-137472419D02*
X209941980Y-137520038D01*
X209941980Y-137520038D02*
X209894361Y-137567657D01*
X209894361Y-137567657D02*
X209799123Y-137710514D01*
X209799123Y-137710514D02*
X209751504Y-137900990D01*
X209751504Y-137900990D02*
X209751504Y-138281942D01*
X209751504Y-138281942D02*
X209799123Y-138377180D01*
X209799123Y-138377180D02*
X209846742Y-138424800D01*
X209846742Y-138424800D02*
X209941980Y-138472419D01*
X209941980Y-138472419D02*
X210132456Y-138472419D01*
X210132456Y-138472419D02*
X210227694Y-138424800D01*
X210227694Y-138424800D02*
X210275313Y-138377180D01*
X210275313Y-138377180D02*
X210322932Y-138281942D01*
X210322932Y-138281942D02*
X210322932Y-138043847D01*
X210322932Y-138043847D02*
X210275313Y-137948609D01*
X210275313Y-137948609D02*
X210227694Y-137900990D01*
X210227694Y-137900990D02*
X210132456Y-137853371D01*
X210132456Y-137853371D02*
X209941980Y-137853371D01*
X209941980Y-137853371D02*
X209846742Y-137900990D01*
X209846742Y-137900990D02*
X209799123Y-137948609D01*
X209799123Y-137948609D02*
X209751504Y-138043847D01*
X210608647Y-137472419D02*
X210941980Y-138472419D01*
X210941980Y-138472419D02*
X211275313Y-137472419D01*
X211513409Y-138853371D02*
X211561028Y-138805752D01*
X211561028Y-138805752D02*
X211656266Y-138662895D01*
X211656266Y-138662895D02*
X211703885Y-138567657D01*
X211703885Y-138567657D02*
X211751504Y-138424800D01*
X211751504Y-138424800D02*
X211799123Y-138186704D01*
X211799123Y-138186704D02*
X211799123Y-137996228D01*
X211799123Y-137996228D02*
X211751504Y-137758133D01*
X211751504Y-137758133D02*
X211703885Y-137615276D01*
X211703885Y-137615276D02*
X211656266Y-137520038D01*
X211656266Y-137520038D02*
X211561028Y-137377180D01*
X211561028Y-137377180D02*
X211513409Y-137329561D01*
D12*
X183022379Y-136867428D02*
X182974760Y-136843619D01*
X182974760Y-136843619D02*
X182927141Y-136796000D01*
X182927141Y-136796000D02*
X182855713Y-136724571D01*
X182855713Y-136724571D02*
X182808094Y-136700761D01*
X182808094Y-136700761D02*
X182760475Y-136700761D01*
X182784284Y-136819809D02*
X182736665Y-136796000D01*
X182736665Y-136796000D02*
X182689046Y-136748380D01*
X182689046Y-136748380D02*
X182665237Y-136653142D01*
X182665237Y-136653142D02*
X182665237Y-136486476D01*
X182665237Y-136486476D02*
X182689046Y-136391238D01*
X182689046Y-136391238D02*
X182736665Y-136343619D01*
X182736665Y-136343619D02*
X182784284Y-136319809D01*
X182784284Y-136319809D02*
X182879522Y-136319809D01*
X182879522Y-136319809D02*
X182927141Y-136343619D01*
X182927141Y-136343619D02*
X182974760Y-136391238D01*
X182974760Y-136391238D02*
X182998570Y-136486476D01*
X182998570Y-136486476D02*
X182998570Y-136653142D01*
X182998570Y-136653142D02*
X182974760Y-136748380D01*
X182974760Y-136748380D02*
X182927141Y-136796000D01*
X182927141Y-136796000D02*
X182879522Y-136819809D01*
X182879522Y-136819809D02*
X182784284Y-136819809D01*
X183189047Y-136367428D02*
X183212856Y-136343619D01*
X183212856Y-136343619D02*
X183260475Y-136319809D01*
X183260475Y-136319809D02*
X183379523Y-136319809D01*
X183379523Y-136319809D02*
X183427142Y-136343619D01*
X183427142Y-136343619D02*
X183450951Y-136367428D01*
X183450951Y-136367428D02*
X183474761Y-136415047D01*
X183474761Y-136415047D02*
X183474761Y-136462666D01*
X183474761Y-136462666D02*
X183450951Y-136534095D01*
X183450951Y-136534095D02*
X183165237Y-136819809D01*
X183165237Y-136819809D02*
X183474761Y-136819809D01*
X176772428Y-142797619D02*
X176748619Y-142845238D01*
X176748619Y-142845238D02*
X176701000Y-142892857D01*
X176701000Y-142892857D02*
X176629571Y-142964285D01*
X176629571Y-142964285D02*
X176605761Y-143011904D01*
X176605761Y-143011904D02*
X176605761Y-143059523D01*
X176724809Y-143035714D02*
X176701000Y-143083333D01*
X176701000Y-143083333D02*
X176653380Y-143130952D01*
X176653380Y-143130952D02*
X176558142Y-143154761D01*
X176558142Y-143154761D02*
X176391476Y-143154761D01*
X176391476Y-143154761D02*
X176296238Y-143130952D01*
X176296238Y-143130952D02*
X176248619Y-143083333D01*
X176248619Y-143083333D02*
X176224809Y-143035714D01*
X176224809Y-143035714D02*
X176224809Y-142940476D01*
X176224809Y-142940476D02*
X176248619Y-142892857D01*
X176248619Y-142892857D02*
X176296238Y-142845238D01*
X176296238Y-142845238D02*
X176391476Y-142821428D01*
X176391476Y-142821428D02*
X176558142Y-142821428D01*
X176558142Y-142821428D02*
X176653380Y-142845238D01*
X176653380Y-142845238D02*
X176701000Y-142892857D01*
X176701000Y-142892857D02*
X176724809Y-142940476D01*
X176724809Y-142940476D02*
X176724809Y-143035714D01*
X176724809Y-142345237D02*
X176724809Y-142630951D01*
X176724809Y-142488094D02*
X176224809Y-142488094D01*
X176224809Y-142488094D02*
X176296238Y-142535713D01*
X176296238Y-142535713D02*
X176343857Y-142583332D01*
X176343857Y-142583332D02*
X176367666Y-142630951D01*
D13*
X172890819Y-150964666D02*
X171890819Y-150964666D01*
X171890819Y-150964666D02*
X171890819Y-150726571D01*
X171890819Y-150726571D02*
X171938438Y-150583714D01*
X171938438Y-150583714D02*
X172033676Y-150488476D01*
X172033676Y-150488476D02*
X172128914Y-150440857D01*
X172128914Y-150440857D02*
X172319390Y-150393238D01*
X172319390Y-150393238D02*
X172462247Y-150393238D01*
X172462247Y-150393238D02*
X172652723Y-150440857D01*
X172652723Y-150440857D02*
X172747961Y-150488476D01*
X172747961Y-150488476D02*
X172843200Y-150583714D01*
X172843200Y-150583714D02*
X172890819Y-150726571D01*
X172890819Y-150726571D02*
X172890819Y-150964666D01*
X172843200Y-149583714D02*
X172890819Y-149678952D01*
X172890819Y-149678952D02*
X172890819Y-149869428D01*
X172890819Y-149869428D02*
X172843200Y-149964666D01*
X172843200Y-149964666D02*
X172747961Y-150012285D01*
X172747961Y-150012285D02*
X172367009Y-150012285D01*
X172367009Y-150012285D02*
X172271771Y-149964666D01*
X172271771Y-149964666D02*
X172224152Y-149869428D01*
X172224152Y-149869428D02*
X172224152Y-149678952D01*
X172224152Y-149678952D02*
X172271771Y-149583714D01*
X172271771Y-149583714D02*
X172367009Y-149536095D01*
X172367009Y-149536095D02*
X172462247Y-149536095D01*
X172462247Y-149536095D02*
X172557485Y-150012285D01*
X172843200Y-149155142D02*
X172890819Y-149059904D01*
X172890819Y-149059904D02*
X172890819Y-148869428D01*
X172890819Y-148869428D02*
X172843200Y-148774190D01*
X172843200Y-148774190D02*
X172747961Y-148726571D01*
X172747961Y-148726571D02*
X172700342Y-148726571D01*
X172700342Y-148726571D02*
X172605104Y-148774190D01*
X172605104Y-148774190D02*
X172557485Y-148869428D01*
X172557485Y-148869428D02*
X172557485Y-149012285D01*
X172557485Y-149012285D02*
X172509866Y-149107523D01*
X172509866Y-149107523D02*
X172414628Y-149155142D01*
X172414628Y-149155142D02*
X172367009Y-149155142D01*
X172367009Y-149155142D02*
X172271771Y-149107523D01*
X172271771Y-149107523D02*
X172224152Y-149012285D01*
X172224152Y-149012285D02*
X172224152Y-148869428D01*
X172224152Y-148869428D02*
X172271771Y-148774190D01*
X172890819Y-148297999D02*
X172224152Y-148297999D01*
X171890819Y-148297999D02*
X171938438Y-148345618D01*
X171938438Y-148345618D02*
X171986057Y-148297999D01*
X171986057Y-148297999D02*
X171938438Y-148250380D01*
X171938438Y-148250380D02*
X171890819Y-148297999D01*
X171890819Y-148297999D02*
X171986057Y-148297999D01*
X172224152Y-147393238D02*
X173033676Y-147393238D01*
X173033676Y-147393238D02*
X173128914Y-147440857D01*
X173128914Y-147440857D02*
X173176533Y-147488476D01*
X173176533Y-147488476D02*
X173224152Y-147583714D01*
X173224152Y-147583714D02*
X173224152Y-147726571D01*
X173224152Y-147726571D02*
X173176533Y-147821809D01*
X172843200Y-147393238D02*
X172890819Y-147488476D01*
X172890819Y-147488476D02*
X172890819Y-147678952D01*
X172890819Y-147678952D02*
X172843200Y-147774190D01*
X172843200Y-147774190D02*
X172795580Y-147821809D01*
X172795580Y-147821809D02*
X172700342Y-147869428D01*
X172700342Y-147869428D02*
X172414628Y-147869428D01*
X172414628Y-147869428D02*
X172319390Y-147821809D01*
X172319390Y-147821809D02*
X172271771Y-147774190D01*
X172271771Y-147774190D02*
X172224152Y-147678952D01*
X172224152Y-147678952D02*
X172224152Y-147488476D01*
X172224152Y-147488476D02*
X172271771Y-147393238D01*
X172224152Y-146917047D02*
X172890819Y-146917047D01*
X172319390Y-146917047D02*
X172271771Y-146869428D01*
X172271771Y-146869428D02*
X172224152Y-146774190D01*
X172224152Y-146774190D02*
X172224152Y-146631333D01*
X172224152Y-146631333D02*
X172271771Y-146536095D01*
X172271771Y-146536095D02*
X172367009Y-146488476D01*
X172367009Y-146488476D02*
X172890819Y-146488476D01*
X172890819Y-145583714D02*
X172367009Y-145583714D01*
X172367009Y-145583714D02*
X172271771Y-145631333D01*
X172271771Y-145631333D02*
X172224152Y-145726571D01*
X172224152Y-145726571D02*
X172224152Y-145917047D01*
X172224152Y-145917047D02*
X172271771Y-146012285D01*
X172843200Y-145583714D02*
X172890819Y-145678952D01*
X172890819Y-145678952D02*
X172890819Y-145917047D01*
X172890819Y-145917047D02*
X172843200Y-146012285D01*
X172843200Y-146012285D02*
X172747961Y-146059904D01*
X172747961Y-146059904D02*
X172652723Y-146059904D01*
X172652723Y-146059904D02*
X172557485Y-146012285D01*
X172557485Y-146012285D02*
X172509866Y-145917047D01*
X172509866Y-145917047D02*
X172509866Y-145678952D01*
X172509866Y-145678952D02*
X172462247Y-145583714D01*
X172224152Y-145250380D02*
X172224152Y-144869428D01*
X171890819Y-145107523D02*
X172747961Y-145107523D01*
X172747961Y-145107523D02*
X172843200Y-145059904D01*
X172843200Y-145059904D02*
X172890819Y-144964666D01*
X172890819Y-144964666D02*
X172890819Y-144869428D01*
X172890819Y-144393237D02*
X172843200Y-144488475D01*
X172843200Y-144488475D02*
X172795580Y-144536094D01*
X172795580Y-144536094D02*
X172700342Y-144583713D01*
X172700342Y-144583713D02*
X172414628Y-144583713D01*
X172414628Y-144583713D02*
X172319390Y-144536094D01*
X172319390Y-144536094D02*
X172271771Y-144488475D01*
X172271771Y-144488475D02*
X172224152Y-144393237D01*
X172224152Y-144393237D02*
X172224152Y-144250380D01*
X172224152Y-144250380D02*
X172271771Y-144155142D01*
X172271771Y-144155142D02*
X172319390Y-144107523D01*
X172319390Y-144107523D02*
X172414628Y-144059904D01*
X172414628Y-144059904D02*
X172700342Y-144059904D01*
X172700342Y-144059904D02*
X172795580Y-144107523D01*
X172795580Y-144107523D02*
X172843200Y-144155142D01*
X172843200Y-144155142D02*
X172890819Y-144250380D01*
X172890819Y-144250380D02*
X172890819Y-144393237D01*
X172890819Y-143631332D02*
X172224152Y-143631332D01*
X172414628Y-143631332D02*
X172319390Y-143583713D01*
X172319390Y-143583713D02*
X172271771Y-143536094D01*
X172271771Y-143536094D02*
X172224152Y-143440856D01*
X172224152Y-143440856D02*
X172224152Y-143345618D01*
X172890819Y-142488475D02*
X172890819Y-143059903D01*
X172890819Y-142774189D02*
X171890819Y-142774189D01*
X171890819Y-142774189D02*
X172033676Y-142869427D01*
X172033676Y-142869427D02*
X172128914Y-142964665D01*
X172128914Y-142964665D02*
X172176533Y-143059903D01*
X171890819Y-141869427D02*
X171890819Y-141774189D01*
X171890819Y-141774189D02*
X171938438Y-141678951D01*
X171938438Y-141678951D02*
X171986057Y-141631332D01*
X171986057Y-141631332D02*
X172081295Y-141583713D01*
X172081295Y-141583713D02*
X172271771Y-141536094D01*
X172271771Y-141536094D02*
X172509866Y-141536094D01*
X172509866Y-141536094D02*
X172700342Y-141583713D01*
X172700342Y-141583713D02*
X172795580Y-141631332D01*
X172795580Y-141631332D02*
X172843200Y-141678951D01*
X172843200Y-141678951D02*
X172890819Y-141774189D01*
X172890819Y-141774189D02*
X172890819Y-141869427D01*
X172890819Y-141869427D02*
X172843200Y-141964665D01*
X172843200Y-141964665D02*
X172795580Y-142012284D01*
X172795580Y-142012284D02*
X172700342Y-142059903D01*
X172700342Y-142059903D02*
X172509866Y-142107522D01*
X172509866Y-142107522D02*
X172271771Y-142107522D01*
X172271771Y-142107522D02*
X172081295Y-142059903D01*
X172081295Y-142059903D02*
X171986057Y-142012284D01*
X171986057Y-142012284D02*
X171938438Y-141964665D01*
X171938438Y-141964665D02*
X171890819Y-141869427D01*
X172890819Y-141059903D02*
X172890819Y-140869427D01*
X172890819Y-140869427D02*
X172843200Y-140774189D01*
X172843200Y-140774189D02*
X172795580Y-140726570D01*
X172795580Y-140726570D02*
X172652723Y-140631332D01*
X172652723Y-140631332D02*
X172462247Y-140583713D01*
X172462247Y-140583713D02*
X172081295Y-140583713D01*
X172081295Y-140583713D02*
X171986057Y-140631332D01*
X171986057Y-140631332D02*
X171938438Y-140678951D01*
X171938438Y-140678951D02*
X171890819Y-140774189D01*
X171890819Y-140774189D02*
X171890819Y-140964665D01*
X171890819Y-140964665D02*
X171938438Y-141059903D01*
X171938438Y-141059903D02*
X171986057Y-141107522D01*
X171986057Y-141107522D02*
X172081295Y-141155141D01*
X172081295Y-141155141D02*
X172319390Y-141155141D01*
X172319390Y-141155141D02*
X172414628Y-141107522D01*
X172414628Y-141107522D02*
X172462247Y-141059903D01*
X172462247Y-141059903D02*
X172509866Y-140964665D01*
X172509866Y-140964665D02*
X172509866Y-140774189D01*
X172509866Y-140774189D02*
X172462247Y-140678951D01*
X172462247Y-140678951D02*
X172414628Y-140631332D01*
X172414628Y-140631332D02*
X172319390Y-140583713D01*
D12*
X162916666Y-156474809D02*
X162750000Y-156236714D01*
X162630952Y-156474809D02*
X162630952Y-155974809D01*
X162630952Y-155974809D02*
X162821428Y-155974809D01*
X162821428Y-155974809D02*
X162869047Y-155998619D01*
X162869047Y-155998619D02*
X162892857Y-156022428D01*
X162892857Y-156022428D02*
X162916666Y-156070047D01*
X162916666Y-156070047D02*
X162916666Y-156141476D01*
X162916666Y-156141476D02*
X162892857Y-156189095D01*
X162892857Y-156189095D02*
X162869047Y-156212904D01*
X162869047Y-156212904D02*
X162821428Y-156236714D01*
X162821428Y-156236714D02*
X162630952Y-156236714D01*
X163345238Y-155974809D02*
X163250000Y-155974809D01*
X163250000Y-155974809D02*
X163202381Y-155998619D01*
X163202381Y-155998619D02*
X163178571Y-156022428D01*
X163178571Y-156022428D02*
X163130952Y-156093857D01*
X163130952Y-156093857D02*
X163107143Y-156189095D01*
X163107143Y-156189095D02*
X163107143Y-156379571D01*
X163107143Y-156379571D02*
X163130952Y-156427190D01*
X163130952Y-156427190D02*
X163154762Y-156451000D01*
X163154762Y-156451000D02*
X163202381Y-156474809D01*
X163202381Y-156474809D02*
X163297619Y-156474809D01*
X163297619Y-156474809D02*
X163345238Y-156451000D01*
X163345238Y-156451000D02*
X163369047Y-156427190D01*
X163369047Y-156427190D02*
X163392857Y-156379571D01*
X163392857Y-156379571D02*
X163392857Y-156260523D01*
X163392857Y-156260523D02*
X163369047Y-156212904D01*
X163369047Y-156212904D02*
X163345238Y-156189095D01*
X163345238Y-156189095D02*
X163297619Y-156165285D01*
X163297619Y-156165285D02*
X163202381Y-156165285D01*
X163202381Y-156165285D02*
X163154762Y-156189095D01*
X163154762Y-156189095D02*
X163130952Y-156212904D01*
X163130952Y-156212904D02*
X163107143Y-156260523D01*
X159741666Y-156474809D02*
X159575000Y-156236714D01*
X159455952Y-156474809D02*
X159455952Y-155974809D01*
X159455952Y-155974809D02*
X159646428Y-155974809D01*
X159646428Y-155974809D02*
X159694047Y-155998619D01*
X159694047Y-155998619D02*
X159717857Y-156022428D01*
X159717857Y-156022428D02*
X159741666Y-156070047D01*
X159741666Y-156070047D02*
X159741666Y-156141476D01*
X159741666Y-156141476D02*
X159717857Y-156189095D01*
X159717857Y-156189095D02*
X159694047Y-156212904D01*
X159694047Y-156212904D02*
X159646428Y-156236714D01*
X159646428Y-156236714D02*
X159455952Y-156236714D01*
X159908333Y-155974809D02*
X160217857Y-155974809D01*
X160217857Y-155974809D02*
X160051190Y-156165285D01*
X160051190Y-156165285D02*
X160122619Y-156165285D01*
X160122619Y-156165285D02*
X160170238Y-156189095D01*
X160170238Y-156189095D02*
X160194047Y-156212904D01*
X160194047Y-156212904D02*
X160217857Y-156260523D01*
X160217857Y-156260523D02*
X160217857Y-156379571D01*
X160217857Y-156379571D02*
X160194047Y-156427190D01*
X160194047Y-156427190D02*
X160170238Y-156451000D01*
X160170238Y-156451000D02*
X160122619Y-156474809D01*
X160122619Y-156474809D02*
X159979762Y-156474809D01*
X159979762Y-156474809D02*
X159932143Y-156451000D01*
X159932143Y-156451000D02*
X159908333Y-156427190D01*
X163964286Y-153724809D02*
X163964286Y-153224809D01*
X163964286Y-153224809D02*
X164130953Y-153581952D01*
X164130953Y-153581952D02*
X164297619Y-153224809D01*
X164297619Y-153224809D02*
X164297619Y-153724809D01*
X164630953Y-153224809D02*
X164726191Y-153224809D01*
X164726191Y-153224809D02*
X164773810Y-153248619D01*
X164773810Y-153248619D02*
X164821429Y-153296238D01*
X164821429Y-153296238D02*
X164845239Y-153391476D01*
X164845239Y-153391476D02*
X164845239Y-153558142D01*
X164845239Y-153558142D02*
X164821429Y-153653380D01*
X164821429Y-153653380D02*
X164773810Y-153701000D01*
X164773810Y-153701000D02*
X164726191Y-153724809D01*
X164726191Y-153724809D02*
X164630953Y-153724809D01*
X164630953Y-153724809D02*
X164583334Y-153701000D01*
X164583334Y-153701000D02*
X164535715Y-153653380D01*
X164535715Y-153653380D02*
X164511906Y-153558142D01*
X164511906Y-153558142D02*
X164511906Y-153391476D01*
X164511906Y-153391476D02*
X164535715Y-153296238D01*
X164535715Y-153296238D02*
X164583334Y-153248619D01*
X164583334Y-153248619D02*
X164630953Y-153224809D01*
X165035716Y-153701000D02*
X165107144Y-153724809D01*
X165107144Y-153724809D02*
X165226192Y-153724809D01*
X165226192Y-153724809D02*
X165273811Y-153701000D01*
X165273811Y-153701000D02*
X165297620Y-153677190D01*
X165297620Y-153677190D02*
X165321430Y-153629571D01*
X165321430Y-153629571D02*
X165321430Y-153581952D01*
X165321430Y-153581952D02*
X165297620Y-153534333D01*
X165297620Y-153534333D02*
X165273811Y-153510523D01*
X165273811Y-153510523D02*
X165226192Y-153486714D01*
X165226192Y-153486714D02*
X165130954Y-153462904D01*
X165130954Y-153462904D02*
X165083335Y-153439095D01*
X165083335Y-153439095D02*
X165059525Y-153415285D01*
X165059525Y-153415285D02*
X165035716Y-153367666D01*
X165035716Y-153367666D02*
X165035716Y-153320047D01*
X165035716Y-153320047D02*
X165059525Y-153272428D01*
X165059525Y-153272428D02*
X165083335Y-153248619D01*
X165083335Y-153248619D02*
X165130954Y-153224809D01*
X165130954Y-153224809D02*
X165250001Y-153224809D01*
X165250001Y-153224809D02*
X165321430Y-153248619D01*
X165702382Y-153462904D02*
X165535715Y-153462904D01*
X165535715Y-153724809D02*
X165535715Y-153224809D01*
X165535715Y-153224809D02*
X165773810Y-153224809D01*
X165964286Y-153462904D02*
X166130953Y-153462904D01*
X166202381Y-153724809D02*
X165964286Y-153724809D01*
X165964286Y-153724809D02*
X165964286Y-153224809D01*
X165964286Y-153224809D02*
X166202381Y-153224809D01*
X166345239Y-153224809D02*
X166630953Y-153224809D01*
X166488096Y-153724809D02*
X166488096Y-153224809D01*
X167059524Y-153724809D02*
X166773810Y-153724809D01*
X166916667Y-153724809D02*
X166916667Y-153224809D01*
X166916667Y-153224809D02*
X166869048Y-153296238D01*
X166869048Y-153296238D02*
X166821429Y-153343857D01*
X166821429Y-153343857D02*
X166773810Y-153367666D01*
X156833333Y-153114809D02*
X156833333Y-153471952D01*
X156833333Y-153471952D02*
X156809524Y-153543380D01*
X156809524Y-153543380D02*
X156761905Y-153591000D01*
X156761905Y-153591000D02*
X156690476Y-153614809D01*
X156690476Y-153614809D02*
X156642857Y-153614809D01*
X157023809Y-153114809D02*
X157333333Y-153114809D01*
X157333333Y-153114809D02*
X157166666Y-153305285D01*
X157166666Y-153305285D02*
X157238095Y-153305285D01*
X157238095Y-153305285D02*
X157285714Y-153329095D01*
X157285714Y-153329095D02*
X157309523Y-153352904D01*
X157309523Y-153352904D02*
X157333333Y-153400523D01*
X157333333Y-153400523D02*
X157333333Y-153519571D01*
X157333333Y-153519571D02*
X157309523Y-153567190D01*
X157309523Y-153567190D02*
X157285714Y-153591000D01*
X157285714Y-153591000D02*
X157238095Y-153614809D01*
X157238095Y-153614809D02*
X157095238Y-153614809D01*
X157095238Y-153614809D02*
X157047619Y-153591000D01*
X157047619Y-153591000D02*
X157023809Y-153567190D01*
X175678571Y-152254809D02*
X175511905Y-152016714D01*
X175392857Y-152254809D02*
X175392857Y-151754809D01*
X175392857Y-151754809D02*
X175583333Y-151754809D01*
X175583333Y-151754809D02*
X175630952Y-151778619D01*
X175630952Y-151778619D02*
X175654762Y-151802428D01*
X175654762Y-151802428D02*
X175678571Y-151850047D01*
X175678571Y-151850047D02*
X175678571Y-151921476D01*
X175678571Y-151921476D02*
X175654762Y-151969095D01*
X175654762Y-151969095D02*
X175630952Y-151992904D01*
X175630952Y-151992904D02*
X175583333Y-152016714D01*
X175583333Y-152016714D02*
X175392857Y-152016714D01*
X176154762Y-152254809D02*
X175869048Y-152254809D01*
X176011905Y-152254809D02*
X176011905Y-151754809D01*
X176011905Y-151754809D02*
X175964286Y-151826238D01*
X175964286Y-151826238D02*
X175916667Y-151873857D01*
X175916667Y-151873857D02*
X175869048Y-151897666D01*
X176583333Y-151921476D02*
X176583333Y-152254809D01*
X176464285Y-151731000D02*
X176345238Y-152088142D01*
X176345238Y-152088142D02*
X176654761Y-152088142D01*
X195997190Y-131771428D02*
X196021000Y-131795237D01*
X196021000Y-131795237D02*
X196044809Y-131866666D01*
X196044809Y-131866666D02*
X196044809Y-131914285D01*
X196044809Y-131914285D02*
X196021000Y-131985713D01*
X196021000Y-131985713D02*
X195973380Y-132033332D01*
X195973380Y-132033332D02*
X195925761Y-132057142D01*
X195925761Y-132057142D02*
X195830523Y-132080951D01*
X195830523Y-132080951D02*
X195759095Y-132080951D01*
X195759095Y-132080951D02*
X195663857Y-132057142D01*
X195663857Y-132057142D02*
X195616238Y-132033332D01*
X195616238Y-132033332D02*
X195568619Y-131985713D01*
X195568619Y-131985713D02*
X195544809Y-131914285D01*
X195544809Y-131914285D02*
X195544809Y-131866666D01*
X195544809Y-131866666D02*
X195568619Y-131795237D01*
X195568619Y-131795237D02*
X195592428Y-131771428D01*
X196044809Y-131295237D02*
X196044809Y-131580951D01*
X196044809Y-131438094D02*
X195544809Y-131438094D01*
X195544809Y-131438094D02*
X195616238Y-131485713D01*
X195616238Y-131485713D02*
X195663857Y-131533332D01*
X195663857Y-131533332D02*
X195687666Y-131580951D01*
X195759095Y-131009523D02*
X195735285Y-131057142D01*
X195735285Y-131057142D02*
X195711476Y-131080952D01*
X195711476Y-131080952D02*
X195663857Y-131104761D01*
X195663857Y-131104761D02*
X195640047Y-131104761D01*
X195640047Y-131104761D02*
X195592428Y-131080952D01*
X195592428Y-131080952D02*
X195568619Y-131057142D01*
X195568619Y-131057142D02*
X195544809Y-131009523D01*
X195544809Y-131009523D02*
X195544809Y-130914285D01*
X195544809Y-130914285D02*
X195568619Y-130866666D01*
X195568619Y-130866666D02*
X195592428Y-130842857D01*
X195592428Y-130842857D02*
X195640047Y-130819047D01*
X195640047Y-130819047D02*
X195663857Y-130819047D01*
X195663857Y-130819047D02*
X195711476Y-130842857D01*
X195711476Y-130842857D02*
X195735285Y-130866666D01*
X195735285Y-130866666D02*
X195759095Y-130914285D01*
X195759095Y-130914285D02*
X195759095Y-131009523D01*
X195759095Y-131009523D02*
X195782904Y-131057142D01*
X195782904Y-131057142D02*
X195806714Y-131080952D01*
X195806714Y-131080952D02*
X195854333Y-131104761D01*
X195854333Y-131104761D02*
X195949571Y-131104761D01*
X195949571Y-131104761D02*
X195997190Y-131080952D01*
X195997190Y-131080952D02*
X196021000Y-131057142D01*
X196021000Y-131057142D02*
X196044809Y-131009523D01*
X196044809Y-131009523D02*
X196044809Y-130914285D01*
X196044809Y-130914285D02*
X196021000Y-130866666D01*
X196021000Y-130866666D02*
X195997190Y-130842857D01*
X195997190Y-130842857D02*
X195949571Y-130819047D01*
X195949571Y-130819047D02*
X195854333Y-130819047D01*
X195854333Y-130819047D02*
X195806714Y-130842857D01*
X195806714Y-130842857D02*
X195782904Y-130866666D01*
X195782904Y-130866666D02*
X195759095Y-130914285D01*
X202172309Y-131866666D02*
X202529452Y-131866666D01*
X202529452Y-131866666D02*
X202600880Y-131890475D01*
X202600880Y-131890475D02*
X202648500Y-131938094D01*
X202648500Y-131938094D02*
X202672309Y-132009523D01*
X202672309Y-132009523D02*
X202672309Y-132057142D01*
X202219928Y-131652380D02*
X202196119Y-131628571D01*
X202196119Y-131628571D02*
X202172309Y-131580952D01*
X202172309Y-131580952D02*
X202172309Y-131461904D01*
X202172309Y-131461904D02*
X202196119Y-131414285D01*
X202196119Y-131414285D02*
X202219928Y-131390476D01*
X202219928Y-131390476D02*
X202267547Y-131366666D01*
X202267547Y-131366666D02*
X202315166Y-131366666D01*
X202315166Y-131366666D02*
X202386595Y-131390476D01*
X202386595Y-131390476D02*
X202672309Y-131676190D01*
X202672309Y-131676190D02*
X202672309Y-131366666D01*
X155078571Y-142777190D02*
X155054762Y-142801000D01*
X155054762Y-142801000D02*
X154983333Y-142824809D01*
X154983333Y-142824809D02*
X154935714Y-142824809D01*
X154935714Y-142824809D02*
X154864286Y-142801000D01*
X154864286Y-142801000D02*
X154816667Y-142753380D01*
X154816667Y-142753380D02*
X154792857Y-142705761D01*
X154792857Y-142705761D02*
X154769048Y-142610523D01*
X154769048Y-142610523D02*
X154769048Y-142539095D01*
X154769048Y-142539095D02*
X154792857Y-142443857D01*
X154792857Y-142443857D02*
X154816667Y-142396238D01*
X154816667Y-142396238D02*
X154864286Y-142348619D01*
X154864286Y-142348619D02*
X154935714Y-142324809D01*
X154935714Y-142324809D02*
X154983333Y-142324809D01*
X154983333Y-142324809D02*
X155054762Y-142348619D01*
X155054762Y-142348619D02*
X155078571Y-142372428D01*
X155554762Y-142824809D02*
X155269048Y-142824809D01*
X155411905Y-142824809D02*
X155411905Y-142324809D01*
X155411905Y-142324809D02*
X155364286Y-142396238D01*
X155364286Y-142396238D02*
X155316667Y-142443857D01*
X155316667Y-142443857D02*
X155269048Y-142467666D01*
X155983333Y-142324809D02*
X155888095Y-142324809D01*
X155888095Y-142324809D02*
X155840476Y-142348619D01*
X155840476Y-142348619D02*
X155816666Y-142372428D01*
X155816666Y-142372428D02*
X155769047Y-142443857D01*
X155769047Y-142443857D02*
X155745238Y-142539095D01*
X155745238Y-142539095D02*
X155745238Y-142729571D01*
X155745238Y-142729571D02*
X155769047Y-142777190D01*
X155769047Y-142777190D02*
X155792857Y-142801000D01*
X155792857Y-142801000D02*
X155840476Y-142824809D01*
X155840476Y-142824809D02*
X155935714Y-142824809D01*
X155935714Y-142824809D02*
X155983333Y-142801000D01*
X155983333Y-142801000D02*
X156007142Y-142777190D01*
X156007142Y-142777190D02*
X156030952Y-142729571D01*
X156030952Y-142729571D02*
X156030952Y-142610523D01*
X156030952Y-142610523D02*
X156007142Y-142562904D01*
X156007142Y-142562904D02*
X155983333Y-142539095D01*
X155983333Y-142539095D02*
X155935714Y-142515285D01*
X155935714Y-142515285D02*
X155840476Y-142515285D01*
X155840476Y-142515285D02*
X155792857Y-142539095D01*
X155792857Y-142539095D02*
X155769047Y-142562904D01*
X155769047Y-142562904D02*
X155745238Y-142610523D01*
X177478571Y-149424809D02*
X177311905Y-149186714D01*
X177192857Y-149424809D02*
X177192857Y-148924809D01*
X177192857Y-148924809D02*
X177383333Y-148924809D01*
X177383333Y-148924809D02*
X177430952Y-148948619D01*
X177430952Y-148948619D02*
X177454762Y-148972428D01*
X177454762Y-148972428D02*
X177478571Y-149020047D01*
X177478571Y-149020047D02*
X177478571Y-149091476D01*
X177478571Y-149091476D02*
X177454762Y-149139095D01*
X177454762Y-149139095D02*
X177430952Y-149162904D01*
X177430952Y-149162904D02*
X177383333Y-149186714D01*
X177383333Y-149186714D02*
X177192857Y-149186714D01*
X177954762Y-149424809D02*
X177669048Y-149424809D01*
X177811905Y-149424809D02*
X177811905Y-148924809D01*
X177811905Y-148924809D02*
X177764286Y-148996238D01*
X177764286Y-148996238D02*
X177716667Y-149043857D01*
X177716667Y-149043857D02*
X177669048Y-149067666D01*
X178121428Y-148924809D02*
X178430952Y-148924809D01*
X178430952Y-148924809D02*
X178264285Y-149115285D01*
X178264285Y-149115285D02*
X178335714Y-149115285D01*
X178335714Y-149115285D02*
X178383333Y-149139095D01*
X178383333Y-149139095D02*
X178407142Y-149162904D01*
X178407142Y-149162904D02*
X178430952Y-149210523D01*
X178430952Y-149210523D02*
X178430952Y-149329571D01*
X178430952Y-149329571D02*
X178407142Y-149377190D01*
X178407142Y-149377190D02*
X178383333Y-149401000D01*
X178383333Y-149401000D02*
X178335714Y-149424809D01*
X178335714Y-149424809D02*
X178192857Y-149424809D01*
X178192857Y-149424809D02*
X178145238Y-149401000D01*
X178145238Y-149401000D02*
X178121428Y-149377190D01*
X157916666Y-138224809D02*
X157750000Y-137986714D01*
X157630952Y-138224809D02*
X157630952Y-137724809D01*
X157630952Y-137724809D02*
X157821428Y-137724809D01*
X157821428Y-137724809D02*
X157869047Y-137748619D01*
X157869047Y-137748619D02*
X157892857Y-137772428D01*
X157892857Y-137772428D02*
X157916666Y-137820047D01*
X157916666Y-137820047D02*
X157916666Y-137891476D01*
X157916666Y-137891476D02*
X157892857Y-137939095D01*
X157892857Y-137939095D02*
X157869047Y-137962904D01*
X157869047Y-137962904D02*
X157821428Y-137986714D01*
X157821428Y-137986714D02*
X157630952Y-137986714D01*
X158369047Y-137724809D02*
X158130952Y-137724809D01*
X158130952Y-137724809D02*
X158107143Y-137962904D01*
X158107143Y-137962904D02*
X158130952Y-137939095D01*
X158130952Y-137939095D02*
X158178571Y-137915285D01*
X158178571Y-137915285D02*
X158297619Y-137915285D01*
X158297619Y-137915285D02*
X158345238Y-137939095D01*
X158345238Y-137939095D02*
X158369047Y-137962904D01*
X158369047Y-137962904D02*
X158392857Y-138010523D01*
X158392857Y-138010523D02*
X158392857Y-138129571D01*
X158392857Y-138129571D02*
X158369047Y-138177190D01*
X158369047Y-138177190D02*
X158345238Y-138201000D01*
X158345238Y-138201000D02*
X158297619Y-138224809D01*
X158297619Y-138224809D02*
X158178571Y-138224809D01*
X158178571Y-138224809D02*
X158130952Y-138201000D01*
X158130952Y-138201000D02*
X158107143Y-138177190D01*
X155278571Y-137577190D02*
X155254762Y-137601000D01*
X155254762Y-137601000D02*
X155183333Y-137624809D01*
X155183333Y-137624809D02*
X155135714Y-137624809D01*
X155135714Y-137624809D02*
X155064286Y-137601000D01*
X155064286Y-137601000D02*
X155016667Y-137553380D01*
X155016667Y-137553380D02*
X154992857Y-137505761D01*
X154992857Y-137505761D02*
X154969048Y-137410523D01*
X154969048Y-137410523D02*
X154969048Y-137339095D01*
X154969048Y-137339095D02*
X154992857Y-137243857D01*
X154992857Y-137243857D02*
X155016667Y-137196238D01*
X155016667Y-137196238D02*
X155064286Y-137148619D01*
X155064286Y-137148619D02*
X155135714Y-137124809D01*
X155135714Y-137124809D02*
X155183333Y-137124809D01*
X155183333Y-137124809D02*
X155254762Y-137148619D01*
X155254762Y-137148619D02*
X155278571Y-137172428D01*
X155754762Y-137624809D02*
X155469048Y-137624809D01*
X155611905Y-137624809D02*
X155611905Y-137124809D01*
X155611905Y-137124809D02*
X155564286Y-137196238D01*
X155564286Y-137196238D02*
X155516667Y-137243857D01*
X155516667Y-137243857D02*
X155469048Y-137267666D01*
X156207142Y-137124809D02*
X155969047Y-137124809D01*
X155969047Y-137124809D02*
X155945238Y-137362904D01*
X155945238Y-137362904D02*
X155969047Y-137339095D01*
X155969047Y-137339095D02*
X156016666Y-137315285D01*
X156016666Y-137315285D02*
X156135714Y-137315285D01*
X156135714Y-137315285D02*
X156183333Y-137339095D01*
X156183333Y-137339095D02*
X156207142Y-137362904D01*
X156207142Y-137362904D02*
X156230952Y-137410523D01*
X156230952Y-137410523D02*
X156230952Y-137529571D01*
X156230952Y-137529571D02*
X156207142Y-137577190D01*
X156207142Y-137577190D02*
X156183333Y-137601000D01*
X156183333Y-137601000D02*
X156135714Y-137624809D01*
X156135714Y-137624809D02*
X156016666Y-137624809D01*
X156016666Y-137624809D02*
X155969047Y-137601000D01*
X155969047Y-137601000D02*
X155945238Y-137577190D01*
X171878571Y-154024809D02*
X171711905Y-153786714D01*
X171592857Y-154024809D02*
X171592857Y-153524809D01*
X171592857Y-153524809D02*
X171783333Y-153524809D01*
X171783333Y-153524809D02*
X171830952Y-153548619D01*
X171830952Y-153548619D02*
X171854762Y-153572428D01*
X171854762Y-153572428D02*
X171878571Y-153620047D01*
X171878571Y-153620047D02*
X171878571Y-153691476D01*
X171878571Y-153691476D02*
X171854762Y-153739095D01*
X171854762Y-153739095D02*
X171830952Y-153762904D01*
X171830952Y-153762904D02*
X171783333Y-153786714D01*
X171783333Y-153786714D02*
X171592857Y-153786714D01*
X172354762Y-154024809D02*
X172069048Y-154024809D01*
X172211905Y-154024809D02*
X172211905Y-153524809D01*
X172211905Y-153524809D02*
X172164286Y-153596238D01*
X172164286Y-153596238D02*
X172116667Y-153643857D01*
X172116667Y-153643857D02*
X172069048Y-153667666D01*
X172830952Y-154024809D02*
X172545238Y-154024809D01*
X172688095Y-154024809D02*
X172688095Y-153524809D01*
X172688095Y-153524809D02*
X172640476Y-153596238D01*
X172640476Y-153596238D02*
X172592857Y-153643857D01*
X172592857Y-153643857D02*
X172545238Y-153667666D01*
X160716666Y-145577190D02*
X160692857Y-145601000D01*
X160692857Y-145601000D02*
X160621428Y-145624809D01*
X160621428Y-145624809D02*
X160573809Y-145624809D01*
X160573809Y-145624809D02*
X160502381Y-145601000D01*
X160502381Y-145601000D02*
X160454762Y-145553380D01*
X160454762Y-145553380D02*
X160430952Y-145505761D01*
X160430952Y-145505761D02*
X160407143Y-145410523D01*
X160407143Y-145410523D02*
X160407143Y-145339095D01*
X160407143Y-145339095D02*
X160430952Y-145243857D01*
X160430952Y-145243857D02*
X160454762Y-145196238D01*
X160454762Y-145196238D02*
X160502381Y-145148619D01*
X160502381Y-145148619D02*
X160573809Y-145124809D01*
X160573809Y-145124809D02*
X160621428Y-145124809D01*
X160621428Y-145124809D02*
X160692857Y-145148619D01*
X160692857Y-145148619D02*
X160716666Y-145172428D01*
X160883333Y-145124809D02*
X161192857Y-145124809D01*
X161192857Y-145124809D02*
X161026190Y-145315285D01*
X161026190Y-145315285D02*
X161097619Y-145315285D01*
X161097619Y-145315285D02*
X161145238Y-145339095D01*
X161145238Y-145339095D02*
X161169047Y-145362904D01*
X161169047Y-145362904D02*
X161192857Y-145410523D01*
X161192857Y-145410523D02*
X161192857Y-145529571D01*
X161192857Y-145529571D02*
X161169047Y-145577190D01*
X161169047Y-145577190D02*
X161145238Y-145601000D01*
X161145238Y-145601000D02*
X161097619Y-145624809D01*
X161097619Y-145624809D02*
X160954762Y-145624809D01*
X160954762Y-145624809D02*
X160907143Y-145601000D01*
X160907143Y-145601000D02*
X160883333Y-145577190D01*
X164641666Y-151607190D02*
X164617857Y-151631000D01*
X164617857Y-151631000D02*
X164546428Y-151654809D01*
X164546428Y-151654809D02*
X164498809Y-151654809D01*
X164498809Y-151654809D02*
X164427381Y-151631000D01*
X164427381Y-151631000D02*
X164379762Y-151583380D01*
X164379762Y-151583380D02*
X164355952Y-151535761D01*
X164355952Y-151535761D02*
X164332143Y-151440523D01*
X164332143Y-151440523D02*
X164332143Y-151369095D01*
X164332143Y-151369095D02*
X164355952Y-151273857D01*
X164355952Y-151273857D02*
X164379762Y-151226238D01*
X164379762Y-151226238D02*
X164427381Y-151178619D01*
X164427381Y-151178619D02*
X164498809Y-151154809D01*
X164498809Y-151154809D02*
X164546428Y-151154809D01*
X164546428Y-151154809D02*
X164617857Y-151178619D01*
X164617857Y-151178619D02*
X164641666Y-151202428D01*
X165117857Y-151654809D02*
X164832143Y-151654809D01*
X164975000Y-151654809D02*
X164975000Y-151154809D01*
X164975000Y-151154809D02*
X164927381Y-151226238D01*
X164927381Y-151226238D02*
X164879762Y-151273857D01*
X164879762Y-151273857D02*
X164832143Y-151297666D01*
X161216666Y-149824809D02*
X161050000Y-149586714D01*
X160930952Y-149824809D02*
X160930952Y-149324809D01*
X160930952Y-149324809D02*
X161121428Y-149324809D01*
X161121428Y-149324809D02*
X161169047Y-149348619D01*
X161169047Y-149348619D02*
X161192857Y-149372428D01*
X161192857Y-149372428D02*
X161216666Y-149420047D01*
X161216666Y-149420047D02*
X161216666Y-149491476D01*
X161216666Y-149491476D02*
X161192857Y-149539095D01*
X161192857Y-149539095D02*
X161169047Y-149562904D01*
X161169047Y-149562904D02*
X161121428Y-149586714D01*
X161121428Y-149586714D02*
X160930952Y-149586714D01*
X161383333Y-149324809D02*
X161716666Y-149324809D01*
X161716666Y-149324809D02*
X161502381Y-149824809D01*
X171916666Y-139977190D02*
X171892857Y-140001000D01*
X171892857Y-140001000D02*
X171821428Y-140024809D01*
X171821428Y-140024809D02*
X171773809Y-140024809D01*
X171773809Y-140024809D02*
X171702381Y-140001000D01*
X171702381Y-140001000D02*
X171654762Y-139953380D01*
X171654762Y-139953380D02*
X171630952Y-139905761D01*
X171630952Y-139905761D02*
X171607143Y-139810523D01*
X171607143Y-139810523D02*
X171607143Y-139739095D01*
X171607143Y-139739095D02*
X171630952Y-139643857D01*
X171630952Y-139643857D02*
X171654762Y-139596238D01*
X171654762Y-139596238D02*
X171702381Y-139548619D01*
X171702381Y-139548619D02*
X171773809Y-139524809D01*
X171773809Y-139524809D02*
X171821428Y-139524809D01*
X171821428Y-139524809D02*
X171892857Y-139548619D01*
X171892857Y-139548619D02*
X171916666Y-139572428D01*
X172345238Y-139691476D02*
X172345238Y-140024809D01*
X172226190Y-139501000D02*
X172107143Y-139858142D01*
X172107143Y-139858142D02*
X172416666Y-139858142D01*
X187678571Y-137224809D02*
X187511905Y-136986714D01*
X187392857Y-137224809D02*
X187392857Y-136724809D01*
X187392857Y-136724809D02*
X187583333Y-136724809D01*
X187583333Y-136724809D02*
X187630952Y-136748619D01*
X187630952Y-136748619D02*
X187654762Y-136772428D01*
X187654762Y-136772428D02*
X187678571Y-136820047D01*
X187678571Y-136820047D02*
X187678571Y-136891476D01*
X187678571Y-136891476D02*
X187654762Y-136939095D01*
X187654762Y-136939095D02*
X187630952Y-136962904D01*
X187630952Y-136962904D02*
X187583333Y-136986714D01*
X187583333Y-136986714D02*
X187392857Y-136986714D01*
X188154762Y-137224809D02*
X187869048Y-137224809D01*
X188011905Y-137224809D02*
X188011905Y-136724809D01*
X188011905Y-136724809D02*
X187964286Y-136796238D01*
X187964286Y-136796238D02*
X187916667Y-136843857D01*
X187916667Y-136843857D02*
X187869048Y-136867666D01*
X188607142Y-136724809D02*
X188369047Y-136724809D01*
X188369047Y-136724809D02*
X188345238Y-136962904D01*
X188345238Y-136962904D02*
X188369047Y-136939095D01*
X188369047Y-136939095D02*
X188416666Y-136915285D01*
X188416666Y-136915285D02*
X188535714Y-136915285D01*
X188535714Y-136915285D02*
X188583333Y-136939095D01*
X188583333Y-136939095D02*
X188607142Y-136962904D01*
X188607142Y-136962904D02*
X188630952Y-137010523D01*
X188630952Y-137010523D02*
X188630952Y-137129571D01*
X188630952Y-137129571D02*
X188607142Y-137177190D01*
X188607142Y-137177190D02*
X188583333Y-137201000D01*
X188583333Y-137201000D02*
X188535714Y-137224809D01*
X188535714Y-137224809D02*
X188416666Y-137224809D01*
X188416666Y-137224809D02*
X188369047Y-137201000D01*
X188369047Y-137201000D02*
X188345238Y-137177190D01*
X197997190Y-131771428D02*
X198021000Y-131795237D01*
X198021000Y-131795237D02*
X198044809Y-131866666D01*
X198044809Y-131866666D02*
X198044809Y-131914285D01*
X198044809Y-131914285D02*
X198021000Y-131985713D01*
X198021000Y-131985713D02*
X197973380Y-132033332D01*
X197973380Y-132033332D02*
X197925761Y-132057142D01*
X197925761Y-132057142D02*
X197830523Y-132080951D01*
X197830523Y-132080951D02*
X197759095Y-132080951D01*
X197759095Y-132080951D02*
X197663857Y-132057142D01*
X197663857Y-132057142D02*
X197616238Y-132033332D01*
X197616238Y-132033332D02*
X197568619Y-131985713D01*
X197568619Y-131985713D02*
X197544809Y-131914285D01*
X197544809Y-131914285D02*
X197544809Y-131866666D01*
X197544809Y-131866666D02*
X197568619Y-131795237D01*
X197568619Y-131795237D02*
X197592428Y-131771428D01*
X198044809Y-131295237D02*
X198044809Y-131580951D01*
X198044809Y-131438094D02*
X197544809Y-131438094D01*
X197544809Y-131438094D02*
X197616238Y-131485713D01*
X197616238Y-131485713D02*
X197663857Y-131533332D01*
X197663857Y-131533332D02*
X197687666Y-131580951D01*
X198044809Y-131057142D02*
X198044809Y-130961904D01*
X198044809Y-130961904D02*
X198021000Y-130914285D01*
X198021000Y-130914285D02*
X197997190Y-130890476D01*
X197997190Y-130890476D02*
X197925761Y-130842857D01*
X197925761Y-130842857D02*
X197830523Y-130819047D01*
X197830523Y-130819047D02*
X197640047Y-130819047D01*
X197640047Y-130819047D02*
X197592428Y-130842857D01*
X197592428Y-130842857D02*
X197568619Y-130866666D01*
X197568619Y-130866666D02*
X197544809Y-130914285D01*
X197544809Y-130914285D02*
X197544809Y-131009523D01*
X197544809Y-131009523D02*
X197568619Y-131057142D01*
X197568619Y-131057142D02*
X197592428Y-131080952D01*
X197592428Y-131080952D02*
X197640047Y-131104761D01*
X197640047Y-131104761D02*
X197759095Y-131104761D01*
X197759095Y-131104761D02*
X197806714Y-131080952D01*
X197806714Y-131080952D02*
X197830523Y-131057142D01*
X197830523Y-131057142D02*
X197854333Y-131009523D01*
X197854333Y-131009523D02*
X197854333Y-130914285D01*
X197854333Y-130914285D02*
X197830523Y-130866666D01*
X197830523Y-130866666D02*
X197806714Y-130842857D01*
X197806714Y-130842857D02*
X197759095Y-130819047D01*
X193997190Y-131583333D02*
X194021000Y-131607142D01*
X194021000Y-131607142D02*
X194044809Y-131678571D01*
X194044809Y-131678571D02*
X194044809Y-131726190D01*
X194044809Y-131726190D02*
X194021000Y-131797618D01*
X194021000Y-131797618D02*
X193973380Y-131845237D01*
X193973380Y-131845237D02*
X193925761Y-131869047D01*
X193925761Y-131869047D02*
X193830523Y-131892856D01*
X193830523Y-131892856D02*
X193759095Y-131892856D01*
X193759095Y-131892856D02*
X193663857Y-131869047D01*
X193663857Y-131869047D02*
X193616238Y-131845237D01*
X193616238Y-131845237D02*
X193568619Y-131797618D01*
X193568619Y-131797618D02*
X193544809Y-131726190D01*
X193544809Y-131726190D02*
X193544809Y-131678571D01*
X193544809Y-131678571D02*
X193568619Y-131607142D01*
X193568619Y-131607142D02*
X193592428Y-131583333D01*
X194044809Y-131345237D02*
X194044809Y-131249999D01*
X194044809Y-131249999D02*
X194021000Y-131202380D01*
X194021000Y-131202380D02*
X193997190Y-131178571D01*
X193997190Y-131178571D02*
X193925761Y-131130952D01*
X193925761Y-131130952D02*
X193830523Y-131107142D01*
X193830523Y-131107142D02*
X193640047Y-131107142D01*
X193640047Y-131107142D02*
X193592428Y-131130952D01*
X193592428Y-131130952D02*
X193568619Y-131154761D01*
X193568619Y-131154761D02*
X193544809Y-131202380D01*
X193544809Y-131202380D02*
X193544809Y-131297618D01*
X193544809Y-131297618D02*
X193568619Y-131345237D01*
X193568619Y-131345237D02*
X193592428Y-131369047D01*
X193592428Y-131369047D02*
X193640047Y-131392856D01*
X193640047Y-131392856D02*
X193759095Y-131392856D01*
X193759095Y-131392856D02*
X193806714Y-131369047D01*
X193806714Y-131369047D02*
X193830523Y-131345237D01*
X193830523Y-131345237D02*
X193854333Y-131297618D01*
X193854333Y-131297618D02*
X193854333Y-131202380D01*
X193854333Y-131202380D02*
X193830523Y-131154761D01*
X193830523Y-131154761D02*
X193806714Y-131130952D01*
X193806714Y-131130952D02*
X193759095Y-131107142D01*
X171316666Y-148224809D02*
X171150000Y-147986714D01*
X171030952Y-148224809D02*
X171030952Y-147724809D01*
X171030952Y-147724809D02*
X171221428Y-147724809D01*
X171221428Y-147724809D02*
X171269047Y-147748619D01*
X171269047Y-147748619D02*
X171292857Y-147772428D01*
X171292857Y-147772428D02*
X171316666Y-147820047D01*
X171316666Y-147820047D02*
X171316666Y-147891476D01*
X171316666Y-147891476D02*
X171292857Y-147939095D01*
X171292857Y-147939095D02*
X171269047Y-147962904D01*
X171269047Y-147962904D02*
X171221428Y-147986714D01*
X171221428Y-147986714D02*
X171030952Y-147986714D01*
X171602381Y-147939095D02*
X171554762Y-147915285D01*
X171554762Y-147915285D02*
X171530952Y-147891476D01*
X171530952Y-147891476D02*
X171507143Y-147843857D01*
X171507143Y-147843857D02*
X171507143Y-147820047D01*
X171507143Y-147820047D02*
X171530952Y-147772428D01*
X171530952Y-147772428D02*
X171554762Y-147748619D01*
X171554762Y-147748619D02*
X171602381Y-147724809D01*
X171602381Y-147724809D02*
X171697619Y-147724809D01*
X171697619Y-147724809D02*
X171745238Y-147748619D01*
X171745238Y-147748619D02*
X171769047Y-147772428D01*
X171769047Y-147772428D02*
X171792857Y-147820047D01*
X171792857Y-147820047D02*
X171792857Y-147843857D01*
X171792857Y-147843857D02*
X171769047Y-147891476D01*
X171769047Y-147891476D02*
X171745238Y-147915285D01*
X171745238Y-147915285D02*
X171697619Y-147939095D01*
X171697619Y-147939095D02*
X171602381Y-147939095D01*
X171602381Y-147939095D02*
X171554762Y-147962904D01*
X171554762Y-147962904D02*
X171530952Y-147986714D01*
X171530952Y-147986714D02*
X171507143Y-148034333D01*
X171507143Y-148034333D02*
X171507143Y-148129571D01*
X171507143Y-148129571D02*
X171530952Y-148177190D01*
X171530952Y-148177190D02*
X171554762Y-148201000D01*
X171554762Y-148201000D02*
X171602381Y-148224809D01*
X171602381Y-148224809D02*
X171697619Y-148224809D01*
X171697619Y-148224809D02*
X171745238Y-148201000D01*
X171745238Y-148201000D02*
X171769047Y-148177190D01*
X171769047Y-148177190D02*
X171792857Y-148129571D01*
X171792857Y-148129571D02*
X171792857Y-148034333D01*
X171792857Y-148034333D02*
X171769047Y-147986714D01*
X171769047Y-147986714D02*
X171745238Y-147962904D01*
X171745238Y-147962904D02*
X171697619Y-147939095D01*
X175078571Y-148224809D02*
X174911905Y-147986714D01*
X174792857Y-148224809D02*
X174792857Y-147724809D01*
X174792857Y-147724809D02*
X174983333Y-147724809D01*
X174983333Y-147724809D02*
X175030952Y-147748619D01*
X175030952Y-147748619D02*
X175054762Y-147772428D01*
X175054762Y-147772428D02*
X175078571Y-147820047D01*
X175078571Y-147820047D02*
X175078571Y-147891476D01*
X175078571Y-147891476D02*
X175054762Y-147939095D01*
X175054762Y-147939095D02*
X175030952Y-147962904D01*
X175030952Y-147962904D02*
X174983333Y-147986714D01*
X174983333Y-147986714D02*
X174792857Y-147986714D01*
X175554762Y-148224809D02*
X175269048Y-148224809D01*
X175411905Y-148224809D02*
X175411905Y-147724809D01*
X175411905Y-147724809D02*
X175364286Y-147796238D01*
X175364286Y-147796238D02*
X175316667Y-147843857D01*
X175316667Y-147843857D02*
X175269048Y-147867666D01*
X175864285Y-147724809D02*
X175911904Y-147724809D01*
X175911904Y-147724809D02*
X175959523Y-147748619D01*
X175959523Y-147748619D02*
X175983333Y-147772428D01*
X175983333Y-147772428D02*
X176007142Y-147820047D01*
X176007142Y-147820047D02*
X176030952Y-147915285D01*
X176030952Y-147915285D02*
X176030952Y-148034333D01*
X176030952Y-148034333D02*
X176007142Y-148129571D01*
X176007142Y-148129571D02*
X175983333Y-148177190D01*
X175983333Y-148177190D02*
X175959523Y-148201000D01*
X175959523Y-148201000D02*
X175911904Y-148224809D01*
X175911904Y-148224809D02*
X175864285Y-148224809D01*
X175864285Y-148224809D02*
X175816666Y-148201000D01*
X175816666Y-148201000D02*
X175792857Y-148177190D01*
X175792857Y-148177190D02*
X175769047Y-148129571D01*
X175769047Y-148129571D02*
X175745238Y-148034333D01*
X175745238Y-148034333D02*
X175745238Y-147915285D01*
X175745238Y-147915285D02*
X175769047Y-147820047D01*
X175769047Y-147820047D02*
X175792857Y-147772428D01*
X175792857Y-147772428D02*
X175816666Y-147748619D01*
X175816666Y-147748619D02*
X175864285Y-147724809D01*
X154394809Y-144983333D02*
X154156714Y-145149999D01*
X154394809Y-145269047D02*
X153894809Y-145269047D01*
X153894809Y-145269047D02*
X153894809Y-145078571D01*
X153894809Y-145078571D02*
X153918619Y-145030952D01*
X153918619Y-145030952D02*
X153942428Y-145007142D01*
X153942428Y-145007142D02*
X153990047Y-144983333D01*
X153990047Y-144983333D02*
X154061476Y-144983333D01*
X154061476Y-144983333D02*
X154109095Y-145007142D01*
X154109095Y-145007142D02*
X154132904Y-145030952D01*
X154132904Y-145030952D02*
X154156714Y-145078571D01*
X154156714Y-145078571D02*
X154156714Y-145269047D01*
X153942428Y-144792856D02*
X153918619Y-144769047D01*
X153918619Y-144769047D02*
X153894809Y-144721428D01*
X153894809Y-144721428D02*
X153894809Y-144602380D01*
X153894809Y-144602380D02*
X153918619Y-144554761D01*
X153918619Y-144554761D02*
X153942428Y-144530952D01*
X153942428Y-144530952D02*
X153990047Y-144507142D01*
X153990047Y-144507142D02*
X154037666Y-144507142D01*
X154037666Y-144507142D02*
X154109095Y-144530952D01*
X154109095Y-144530952D02*
X154394809Y-144816666D01*
X154394809Y-144816666D02*
X154394809Y-144507142D01*
X160716666Y-144224809D02*
X160550000Y-143986714D01*
X160430952Y-144224809D02*
X160430952Y-143724809D01*
X160430952Y-143724809D02*
X160621428Y-143724809D01*
X160621428Y-143724809D02*
X160669047Y-143748619D01*
X160669047Y-143748619D02*
X160692857Y-143772428D01*
X160692857Y-143772428D02*
X160716666Y-143820047D01*
X160716666Y-143820047D02*
X160716666Y-143891476D01*
X160716666Y-143891476D02*
X160692857Y-143939095D01*
X160692857Y-143939095D02*
X160669047Y-143962904D01*
X160669047Y-143962904D02*
X160621428Y-143986714D01*
X160621428Y-143986714D02*
X160430952Y-143986714D01*
X161145238Y-143891476D02*
X161145238Y-144224809D01*
X161026190Y-143701000D02*
X160907143Y-144058142D01*
X160907143Y-144058142D02*
X161216666Y-144058142D01*
X151478571Y-137177190D02*
X151454762Y-137201000D01*
X151454762Y-137201000D02*
X151383333Y-137224809D01*
X151383333Y-137224809D02*
X151335714Y-137224809D01*
X151335714Y-137224809D02*
X151264286Y-137201000D01*
X151264286Y-137201000D02*
X151216667Y-137153380D01*
X151216667Y-137153380D02*
X151192857Y-137105761D01*
X151192857Y-137105761D02*
X151169048Y-137010523D01*
X151169048Y-137010523D02*
X151169048Y-136939095D01*
X151169048Y-136939095D02*
X151192857Y-136843857D01*
X151192857Y-136843857D02*
X151216667Y-136796238D01*
X151216667Y-136796238D02*
X151264286Y-136748619D01*
X151264286Y-136748619D02*
X151335714Y-136724809D01*
X151335714Y-136724809D02*
X151383333Y-136724809D01*
X151383333Y-136724809D02*
X151454762Y-136748619D01*
X151454762Y-136748619D02*
X151478571Y-136772428D01*
X151954762Y-137224809D02*
X151669048Y-137224809D01*
X151811905Y-137224809D02*
X151811905Y-136724809D01*
X151811905Y-136724809D02*
X151764286Y-136796238D01*
X151764286Y-136796238D02*
X151716667Y-136843857D01*
X151716667Y-136843857D02*
X151669048Y-136867666D01*
X152383333Y-136891476D02*
X152383333Y-137224809D01*
X152264285Y-136701000D02*
X152145238Y-137058142D01*
X152145238Y-137058142D02*
X152454761Y-137058142D01*
X172166666Y-144577190D02*
X172142857Y-144601000D01*
X172142857Y-144601000D02*
X172071428Y-144624809D01*
X172071428Y-144624809D02*
X172023809Y-144624809D01*
X172023809Y-144624809D02*
X171952381Y-144601000D01*
X171952381Y-144601000D02*
X171904762Y-144553380D01*
X171904762Y-144553380D02*
X171880952Y-144505761D01*
X171880952Y-144505761D02*
X171857143Y-144410523D01*
X171857143Y-144410523D02*
X171857143Y-144339095D01*
X171857143Y-144339095D02*
X171880952Y-144243857D01*
X171880952Y-144243857D02*
X171904762Y-144196238D01*
X171904762Y-144196238D02*
X171952381Y-144148619D01*
X171952381Y-144148619D02*
X172023809Y-144124809D01*
X172023809Y-144124809D02*
X172071428Y-144124809D01*
X172071428Y-144124809D02*
X172142857Y-144148619D01*
X172142857Y-144148619D02*
X172166666Y-144172428D01*
X172619047Y-144124809D02*
X172380952Y-144124809D01*
X172380952Y-144124809D02*
X172357143Y-144362904D01*
X172357143Y-144362904D02*
X172380952Y-144339095D01*
X172380952Y-144339095D02*
X172428571Y-144315285D01*
X172428571Y-144315285D02*
X172547619Y-144315285D01*
X172547619Y-144315285D02*
X172595238Y-144339095D01*
X172595238Y-144339095D02*
X172619047Y-144362904D01*
X172619047Y-144362904D02*
X172642857Y-144410523D01*
X172642857Y-144410523D02*
X172642857Y-144529571D01*
X172642857Y-144529571D02*
X172619047Y-144577190D01*
X172619047Y-144577190D02*
X172595238Y-144601000D01*
X172595238Y-144601000D02*
X172547619Y-144624809D01*
X172547619Y-144624809D02*
X172428571Y-144624809D01*
X172428571Y-144624809D02*
X172380952Y-144601000D01*
X172380952Y-144601000D02*
X172357143Y-144577190D01*
X166463847Y-144399809D02*
X166463847Y-144804571D01*
X166463847Y-144804571D02*
X166487657Y-144852190D01*
X166487657Y-144852190D02*
X166511466Y-144876000D01*
X166511466Y-144876000D02*
X166559085Y-144899809D01*
X166559085Y-144899809D02*
X166654323Y-144899809D01*
X166654323Y-144899809D02*
X166701942Y-144876000D01*
X166701942Y-144876000D02*
X166725752Y-144852190D01*
X166725752Y-144852190D02*
X166749561Y-144804571D01*
X166749561Y-144804571D02*
X166749561Y-144399809D01*
X167249562Y-144899809D02*
X166963848Y-144899809D01*
X167106705Y-144899809D02*
X167106705Y-144399809D01*
X167106705Y-144399809D02*
X167059086Y-144471238D01*
X167059086Y-144471238D02*
X167011467Y-144518857D01*
X167011467Y-144518857D02*
X166963848Y-144542666D01*
D13*
X163746000Y-139706218D02*
X163746000Y-139944313D01*
X163507905Y-139849075D02*
X163746000Y-139944313D01*
X163746000Y-139944313D02*
X163984095Y-139849075D01*
X163603143Y-140134789D02*
X163746000Y-139944313D01*
X163746000Y-139944313D02*
X163888857Y-140134789D01*
X163746000Y-139706218D02*
X163746000Y-139944313D01*
X163507905Y-139849075D02*
X163746000Y-139944313D01*
X163746000Y-139944313D02*
X163984095Y-139849075D01*
X163603143Y-140134789D02*
X163746000Y-139944313D01*
X163746000Y-139944313D02*
X163888857Y-140134789D01*
D12*
X202227190Y-142421428D02*
X202251000Y-142445237D01*
X202251000Y-142445237D02*
X202274809Y-142516666D01*
X202274809Y-142516666D02*
X202274809Y-142564285D01*
X202274809Y-142564285D02*
X202251000Y-142635713D01*
X202251000Y-142635713D02*
X202203380Y-142683332D01*
X202203380Y-142683332D02*
X202155761Y-142707142D01*
X202155761Y-142707142D02*
X202060523Y-142730951D01*
X202060523Y-142730951D02*
X201989095Y-142730951D01*
X201989095Y-142730951D02*
X201893857Y-142707142D01*
X201893857Y-142707142D02*
X201846238Y-142683332D01*
X201846238Y-142683332D02*
X201798619Y-142635713D01*
X201798619Y-142635713D02*
X201774809Y-142564285D01*
X201774809Y-142564285D02*
X201774809Y-142516666D01*
X201774809Y-142516666D02*
X201798619Y-142445237D01*
X201798619Y-142445237D02*
X201822428Y-142421428D01*
X202274809Y-141945237D02*
X202274809Y-142230951D01*
X202274809Y-142088094D02*
X201774809Y-142088094D01*
X201774809Y-142088094D02*
X201846238Y-142135713D01*
X201846238Y-142135713D02*
X201893857Y-142183332D01*
X201893857Y-142183332D02*
X201917666Y-142230951D01*
X201774809Y-141635714D02*
X201774809Y-141588095D01*
X201774809Y-141588095D02*
X201798619Y-141540476D01*
X201798619Y-141540476D02*
X201822428Y-141516666D01*
X201822428Y-141516666D02*
X201870047Y-141492857D01*
X201870047Y-141492857D02*
X201965285Y-141469047D01*
X201965285Y-141469047D02*
X202084333Y-141469047D01*
X202084333Y-141469047D02*
X202179571Y-141492857D01*
X202179571Y-141492857D02*
X202227190Y-141516666D01*
X202227190Y-141516666D02*
X202251000Y-141540476D01*
X202251000Y-141540476D02*
X202274809Y-141588095D01*
X202274809Y-141588095D02*
X202274809Y-141635714D01*
X202274809Y-141635714D02*
X202251000Y-141683333D01*
X202251000Y-141683333D02*
X202227190Y-141707142D01*
X202227190Y-141707142D02*
X202179571Y-141730952D01*
X202179571Y-141730952D02*
X202084333Y-141754761D01*
X202084333Y-141754761D02*
X201965285Y-141754761D01*
X201965285Y-141754761D02*
X201870047Y-141730952D01*
X201870047Y-141730952D02*
X201822428Y-141707142D01*
X201822428Y-141707142D02*
X201798619Y-141683333D01*
X201798619Y-141683333D02*
X201774809Y-141635714D01*
X151078571Y-144777190D02*
X151054762Y-144801000D01*
X151054762Y-144801000D02*
X150983333Y-144824809D01*
X150983333Y-144824809D02*
X150935714Y-144824809D01*
X150935714Y-144824809D02*
X150864286Y-144801000D01*
X150864286Y-144801000D02*
X150816667Y-144753380D01*
X150816667Y-144753380D02*
X150792857Y-144705761D01*
X150792857Y-144705761D02*
X150769048Y-144610523D01*
X150769048Y-144610523D02*
X150769048Y-144539095D01*
X150769048Y-144539095D02*
X150792857Y-144443857D01*
X150792857Y-144443857D02*
X150816667Y-144396238D01*
X150816667Y-144396238D02*
X150864286Y-144348619D01*
X150864286Y-144348619D02*
X150935714Y-144324809D01*
X150935714Y-144324809D02*
X150983333Y-144324809D01*
X150983333Y-144324809D02*
X151054762Y-144348619D01*
X151054762Y-144348619D02*
X151078571Y-144372428D01*
X151554762Y-144824809D02*
X151269048Y-144824809D01*
X151411905Y-144824809D02*
X151411905Y-144324809D01*
X151411905Y-144324809D02*
X151364286Y-144396238D01*
X151364286Y-144396238D02*
X151316667Y-144443857D01*
X151316667Y-144443857D02*
X151269048Y-144467666D01*
X151721428Y-144324809D02*
X152030952Y-144324809D01*
X152030952Y-144324809D02*
X151864285Y-144515285D01*
X151864285Y-144515285D02*
X151935714Y-144515285D01*
X151935714Y-144515285D02*
X151983333Y-144539095D01*
X151983333Y-144539095D02*
X152007142Y-144562904D01*
X152007142Y-144562904D02*
X152030952Y-144610523D01*
X152030952Y-144610523D02*
X152030952Y-144729571D01*
X152030952Y-144729571D02*
X152007142Y-144777190D01*
X152007142Y-144777190D02*
X151983333Y-144801000D01*
X151983333Y-144801000D02*
X151935714Y-144824809D01*
X151935714Y-144824809D02*
X151792857Y-144824809D01*
X151792857Y-144824809D02*
X151745238Y-144801000D01*
X151745238Y-144801000D02*
X151721428Y-144777190D01*
X168741666Y-150607190D02*
X168717857Y-150631000D01*
X168717857Y-150631000D02*
X168646428Y-150654809D01*
X168646428Y-150654809D02*
X168598809Y-150654809D01*
X168598809Y-150654809D02*
X168527381Y-150631000D01*
X168527381Y-150631000D02*
X168479762Y-150583380D01*
X168479762Y-150583380D02*
X168455952Y-150535761D01*
X168455952Y-150535761D02*
X168432143Y-150440523D01*
X168432143Y-150440523D02*
X168432143Y-150369095D01*
X168432143Y-150369095D02*
X168455952Y-150273857D01*
X168455952Y-150273857D02*
X168479762Y-150226238D01*
X168479762Y-150226238D02*
X168527381Y-150178619D01*
X168527381Y-150178619D02*
X168598809Y-150154809D01*
X168598809Y-150154809D02*
X168646428Y-150154809D01*
X168646428Y-150154809D02*
X168717857Y-150178619D01*
X168717857Y-150178619D02*
X168741666Y-150202428D01*
X169170238Y-150154809D02*
X169075000Y-150154809D01*
X169075000Y-150154809D02*
X169027381Y-150178619D01*
X169027381Y-150178619D02*
X169003571Y-150202428D01*
X169003571Y-150202428D02*
X168955952Y-150273857D01*
X168955952Y-150273857D02*
X168932143Y-150369095D01*
X168932143Y-150369095D02*
X168932143Y-150559571D01*
X168932143Y-150559571D02*
X168955952Y-150607190D01*
X168955952Y-150607190D02*
X168979762Y-150631000D01*
X168979762Y-150631000D02*
X169027381Y-150654809D01*
X169027381Y-150654809D02*
X169122619Y-150654809D01*
X169122619Y-150654809D02*
X169170238Y-150631000D01*
X169170238Y-150631000D02*
X169194047Y-150607190D01*
X169194047Y-150607190D02*
X169217857Y-150559571D01*
X169217857Y-150559571D02*
X169217857Y-150440523D01*
X169217857Y-150440523D02*
X169194047Y-150392904D01*
X169194047Y-150392904D02*
X169170238Y-150369095D01*
X169170238Y-150369095D02*
X169122619Y-150345285D01*
X169122619Y-150345285D02*
X169027381Y-150345285D01*
X169027381Y-150345285D02*
X168979762Y-150369095D01*
X168979762Y-150369095D02*
X168955952Y-150392904D01*
X168955952Y-150392904D02*
X168932143Y-150440523D01*
X156836666Y-148377190D02*
X156812857Y-148401000D01*
X156812857Y-148401000D02*
X156741428Y-148424809D01*
X156741428Y-148424809D02*
X156693809Y-148424809D01*
X156693809Y-148424809D02*
X156622381Y-148401000D01*
X156622381Y-148401000D02*
X156574762Y-148353380D01*
X156574762Y-148353380D02*
X156550952Y-148305761D01*
X156550952Y-148305761D02*
X156527143Y-148210523D01*
X156527143Y-148210523D02*
X156527143Y-148139095D01*
X156527143Y-148139095D02*
X156550952Y-148043857D01*
X156550952Y-148043857D02*
X156574762Y-147996238D01*
X156574762Y-147996238D02*
X156622381Y-147948619D01*
X156622381Y-147948619D02*
X156693809Y-147924809D01*
X156693809Y-147924809D02*
X156741428Y-147924809D01*
X156741428Y-147924809D02*
X156812857Y-147948619D01*
X156812857Y-147948619D02*
X156836666Y-147972428D01*
X157027143Y-147972428D02*
X157050952Y-147948619D01*
X157050952Y-147948619D02*
X157098571Y-147924809D01*
X157098571Y-147924809D02*
X157217619Y-147924809D01*
X157217619Y-147924809D02*
X157265238Y-147948619D01*
X157265238Y-147948619D02*
X157289047Y-147972428D01*
X157289047Y-147972428D02*
X157312857Y-148020047D01*
X157312857Y-148020047D02*
X157312857Y-148067666D01*
X157312857Y-148067666D02*
X157289047Y-148139095D01*
X157289047Y-148139095D02*
X157003333Y-148424809D01*
X157003333Y-148424809D02*
X157312857Y-148424809D01*
X182516666Y-148777190D02*
X182492857Y-148801000D01*
X182492857Y-148801000D02*
X182421428Y-148824809D01*
X182421428Y-148824809D02*
X182373809Y-148824809D01*
X182373809Y-148824809D02*
X182302381Y-148801000D01*
X182302381Y-148801000D02*
X182254762Y-148753380D01*
X182254762Y-148753380D02*
X182230952Y-148705761D01*
X182230952Y-148705761D02*
X182207143Y-148610523D01*
X182207143Y-148610523D02*
X182207143Y-148539095D01*
X182207143Y-148539095D02*
X182230952Y-148443857D01*
X182230952Y-148443857D02*
X182254762Y-148396238D01*
X182254762Y-148396238D02*
X182302381Y-148348619D01*
X182302381Y-148348619D02*
X182373809Y-148324809D01*
X182373809Y-148324809D02*
X182421428Y-148324809D01*
X182421428Y-148324809D02*
X182492857Y-148348619D01*
X182492857Y-148348619D02*
X182516666Y-148372428D01*
X182802381Y-148539095D02*
X182754762Y-148515285D01*
X182754762Y-148515285D02*
X182730952Y-148491476D01*
X182730952Y-148491476D02*
X182707143Y-148443857D01*
X182707143Y-148443857D02*
X182707143Y-148420047D01*
X182707143Y-148420047D02*
X182730952Y-148372428D01*
X182730952Y-148372428D02*
X182754762Y-148348619D01*
X182754762Y-148348619D02*
X182802381Y-148324809D01*
X182802381Y-148324809D02*
X182897619Y-148324809D01*
X182897619Y-148324809D02*
X182945238Y-148348619D01*
X182945238Y-148348619D02*
X182969047Y-148372428D01*
X182969047Y-148372428D02*
X182992857Y-148420047D01*
X182992857Y-148420047D02*
X182992857Y-148443857D01*
X182992857Y-148443857D02*
X182969047Y-148491476D01*
X182969047Y-148491476D02*
X182945238Y-148515285D01*
X182945238Y-148515285D02*
X182897619Y-148539095D01*
X182897619Y-148539095D02*
X182802381Y-148539095D01*
X182802381Y-148539095D02*
X182754762Y-148562904D01*
X182754762Y-148562904D02*
X182730952Y-148586714D01*
X182730952Y-148586714D02*
X182707143Y-148634333D01*
X182707143Y-148634333D02*
X182707143Y-148729571D01*
X182707143Y-148729571D02*
X182730952Y-148777190D01*
X182730952Y-148777190D02*
X182754762Y-148801000D01*
X182754762Y-148801000D02*
X182802381Y-148824809D01*
X182802381Y-148824809D02*
X182897619Y-148824809D01*
X182897619Y-148824809D02*
X182945238Y-148801000D01*
X182945238Y-148801000D02*
X182969047Y-148777190D01*
X182969047Y-148777190D02*
X182992857Y-148729571D01*
X182992857Y-148729571D02*
X182992857Y-148634333D01*
X182992857Y-148634333D02*
X182969047Y-148586714D01*
X182969047Y-148586714D02*
X182945238Y-148562904D01*
X182945238Y-148562904D02*
X182897619Y-148539095D01*
X189278571Y-137024809D02*
X189111905Y-136786714D01*
X188992857Y-137024809D02*
X188992857Y-136524809D01*
X188992857Y-136524809D02*
X189183333Y-136524809D01*
X189183333Y-136524809D02*
X189230952Y-136548619D01*
X189230952Y-136548619D02*
X189254762Y-136572428D01*
X189254762Y-136572428D02*
X189278571Y-136620047D01*
X189278571Y-136620047D02*
X189278571Y-136691476D01*
X189278571Y-136691476D02*
X189254762Y-136739095D01*
X189254762Y-136739095D02*
X189230952Y-136762904D01*
X189230952Y-136762904D02*
X189183333Y-136786714D01*
X189183333Y-136786714D02*
X188992857Y-136786714D01*
X189754762Y-137024809D02*
X189469048Y-137024809D01*
X189611905Y-137024809D02*
X189611905Y-136524809D01*
X189611905Y-136524809D02*
X189564286Y-136596238D01*
X189564286Y-136596238D02*
X189516667Y-136643857D01*
X189516667Y-136643857D02*
X189469048Y-136667666D01*
X189945238Y-136572428D02*
X189969047Y-136548619D01*
X189969047Y-136548619D02*
X190016666Y-136524809D01*
X190016666Y-136524809D02*
X190135714Y-136524809D01*
X190135714Y-136524809D02*
X190183333Y-136548619D01*
X190183333Y-136548619D02*
X190207142Y-136572428D01*
X190207142Y-136572428D02*
X190230952Y-136620047D01*
X190230952Y-136620047D02*
X190230952Y-136667666D01*
X190230952Y-136667666D02*
X190207142Y-136739095D01*
X190207142Y-136739095D02*
X189921428Y-137024809D01*
X189921428Y-137024809D02*
X190230952Y-137024809D01*
X153427190Y-151453751D02*
X153451000Y-151477560D01*
X153451000Y-151477560D02*
X153474809Y-151548989D01*
X153474809Y-151548989D02*
X153474809Y-151596608D01*
X153474809Y-151596608D02*
X153451000Y-151668036D01*
X153451000Y-151668036D02*
X153403380Y-151715655D01*
X153403380Y-151715655D02*
X153355761Y-151739465D01*
X153355761Y-151739465D02*
X153260523Y-151763274D01*
X153260523Y-151763274D02*
X153189095Y-151763274D01*
X153189095Y-151763274D02*
X153093857Y-151739465D01*
X153093857Y-151739465D02*
X153046238Y-151715655D01*
X153046238Y-151715655D02*
X152998619Y-151668036D01*
X152998619Y-151668036D02*
X152974809Y-151596608D01*
X152974809Y-151596608D02*
X152974809Y-151548989D01*
X152974809Y-151548989D02*
X152998619Y-151477560D01*
X152998619Y-151477560D02*
X153022428Y-151453751D01*
X153474809Y-150977560D02*
X153474809Y-151263274D01*
X153474809Y-151120417D02*
X152974809Y-151120417D01*
X152974809Y-151120417D02*
X153046238Y-151168036D01*
X153046238Y-151168036D02*
X153093857Y-151215655D01*
X153093857Y-151215655D02*
X153117666Y-151263274D01*
X153022428Y-150787084D02*
X152998619Y-150763275D01*
X152998619Y-150763275D02*
X152974809Y-150715656D01*
X152974809Y-150715656D02*
X152974809Y-150596608D01*
X152974809Y-150596608D02*
X152998619Y-150548989D01*
X152998619Y-150548989D02*
X153022428Y-150525180D01*
X153022428Y-150525180D02*
X153070047Y-150501370D01*
X153070047Y-150501370D02*
X153117666Y-150501370D01*
X153117666Y-150501370D02*
X153189095Y-150525180D01*
X153189095Y-150525180D02*
X153474809Y-150810894D01*
X153474809Y-150810894D02*
X153474809Y-150501370D01*
X183380952Y-141824809D02*
X183380952Y-141324809D01*
X183380952Y-141324809D02*
X183500000Y-141324809D01*
X183500000Y-141324809D02*
X183571428Y-141348619D01*
X183571428Y-141348619D02*
X183619047Y-141396238D01*
X183619047Y-141396238D02*
X183642857Y-141443857D01*
X183642857Y-141443857D02*
X183666666Y-141539095D01*
X183666666Y-141539095D02*
X183666666Y-141610523D01*
X183666666Y-141610523D02*
X183642857Y-141705761D01*
X183642857Y-141705761D02*
X183619047Y-141753380D01*
X183619047Y-141753380D02*
X183571428Y-141801000D01*
X183571428Y-141801000D02*
X183500000Y-141824809D01*
X183500000Y-141824809D02*
X183380952Y-141824809D01*
X184142857Y-141824809D02*
X183857143Y-141824809D01*
X184000000Y-141824809D02*
X184000000Y-141324809D01*
X184000000Y-141324809D02*
X183952381Y-141396238D01*
X183952381Y-141396238D02*
X183904762Y-141443857D01*
X183904762Y-141443857D02*
X183857143Y-141467666D01*
X152678571Y-147377190D02*
X152654762Y-147401000D01*
X152654762Y-147401000D02*
X152583333Y-147424809D01*
X152583333Y-147424809D02*
X152535714Y-147424809D01*
X152535714Y-147424809D02*
X152464286Y-147401000D01*
X152464286Y-147401000D02*
X152416667Y-147353380D01*
X152416667Y-147353380D02*
X152392857Y-147305761D01*
X152392857Y-147305761D02*
X152369048Y-147210523D01*
X152369048Y-147210523D02*
X152369048Y-147139095D01*
X152369048Y-147139095D02*
X152392857Y-147043857D01*
X152392857Y-147043857D02*
X152416667Y-146996238D01*
X152416667Y-146996238D02*
X152464286Y-146948619D01*
X152464286Y-146948619D02*
X152535714Y-146924809D01*
X152535714Y-146924809D02*
X152583333Y-146924809D01*
X152583333Y-146924809D02*
X152654762Y-146948619D01*
X152654762Y-146948619D02*
X152678571Y-146972428D01*
X153154762Y-147424809D02*
X152869048Y-147424809D01*
X153011905Y-147424809D02*
X153011905Y-146924809D01*
X153011905Y-146924809D02*
X152964286Y-146996238D01*
X152964286Y-146996238D02*
X152916667Y-147043857D01*
X152916667Y-147043857D02*
X152869048Y-147067666D01*
X153321428Y-146924809D02*
X153654761Y-146924809D01*
X153654761Y-146924809D02*
X153440476Y-147424809D01*
X191997190Y-131821428D02*
X192021000Y-131845237D01*
X192021000Y-131845237D02*
X192044809Y-131916666D01*
X192044809Y-131916666D02*
X192044809Y-131964285D01*
X192044809Y-131964285D02*
X192021000Y-132035713D01*
X192021000Y-132035713D02*
X191973380Y-132083332D01*
X191973380Y-132083332D02*
X191925761Y-132107142D01*
X191925761Y-132107142D02*
X191830523Y-132130951D01*
X191830523Y-132130951D02*
X191759095Y-132130951D01*
X191759095Y-132130951D02*
X191663857Y-132107142D01*
X191663857Y-132107142D02*
X191616238Y-132083332D01*
X191616238Y-132083332D02*
X191568619Y-132035713D01*
X191568619Y-132035713D02*
X191544809Y-131964285D01*
X191544809Y-131964285D02*
X191544809Y-131916666D01*
X191544809Y-131916666D02*
X191568619Y-131845237D01*
X191568619Y-131845237D02*
X191592428Y-131821428D01*
X192044809Y-131345237D02*
X192044809Y-131630951D01*
X192044809Y-131488094D02*
X191544809Y-131488094D01*
X191544809Y-131488094D02*
X191616238Y-131535713D01*
X191616238Y-131535713D02*
X191663857Y-131583332D01*
X191663857Y-131583332D02*
X191687666Y-131630951D01*
X192044809Y-130869047D02*
X192044809Y-131154761D01*
X192044809Y-131011904D02*
X191544809Y-131011904D01*
X191544809Y-131011904D02*
X191616238Y-131059523D01*
X191616238Y-131059523D02*
X191663857Y-131107142D01*
X191663857Y-131107142D02*
X191687666Y-131154761D01*
X158854809Y-144883333D02*
X158616714Y-145049999D01*
X158854809Y-145169047D02*
X158354809Y-145169047D01*
X158354809Y-145169047D02*
X158354809Y-144978571D01*
X158354809Y-144978571D02*
X158378619Y-144930952D01*
X158378619Y-144930952D02*
X158402428Y-144907142D01*
X158402428Y-144907142D02*
X158450047Y-144883333D01*
X158450047Y-144883333D02*
X158521476Y-144883333D01*
X158521476Y-144883333D02*
X158569095Y-144907142D01*
X158569095Y-144907142D02*
X158592904Y-144930952D01*
X158592904Y-144930952D02*
X158616714Y-144978571D01*
X158616714Y-144978571D02*
X158616714Y-145169047D01*
X158854809Y-144407142D02*
X158854809Y-144692856D01*
X158854809Y-144549999D02*
X158354809Y-144549999D01*
X158354809Y-144549999D02*
X158426238Y-144597618D01*
X158426238Y-144597618D02*
X158473857Y-144645237D01*
X158473857Y-144645237D02*
X158497666Y-144692856D01*
X171116666Y-150577190D02*
X171092857Y-150601000D01*
X171092857Y-150601000D02*
X171021428Y-150624809D01*
X171021428Y-150624809D02*
X170973809Y-150624809D01*
X170973809Y-150624809D02*
X170902381Y-150601000D01*
X170902381Y-150601000D02*
X170854762Y-150553380D01*
X170854762Y-150553380D02*
X170830952Y-150505761D01*
X170830952Y-150505761D02*
X170807143Y-150410523D01*
X170807143Y-150410523D02*
X170807143Y-150339095D01*
X170807143Y-150339095D02*
X170830952Y-150243857D01*
X170830952Y-150243857D02*
X170854762Y-150196238D01*
X170854762Y-150196238D02*
X170902381Y-150148619D01*
X170902381Y-150148619D02*
X170973809Y-150124809D01*
X170973809Y-150124809D02*
X171021428Y-150124809D01*
X171021428Y-150124809D02*
X171092857Y-150148619D01*
X171092857Y-150148619D02*
X171116666Y-150172428D01*
X171283333Y-150124809D02*
X171616666Y-150124809D01*
X171616666Y-150124809D02*
X171402381Y-150624809D01*
X151077309Y-140166666D02*
X151434452Y-140166666D01*
X151434452Y-140166666D02*
X151505880Y-140190475D01*
X151505880Y-140190475D02*
X151553500Y-140238094D01*
X151553500Y-140238094D02*
X151577309Y-140309523D01*
X151577309Y-140309523D02*
X151577309Y-140357142D01*
X151577309Y-139666666D02*
X151577309Y-139952380D01*
X151577309Y-139809523D02*
X151077309Y-139809523D01*
X151077309Y-139809523D02*
X151148738Y-139857142D01*
X151148738Y-139857142D02*
X151196357Y-139904761D01*
X151196357Y-139904761D02*
X151220166Y-139952380D01*
D13*
X157335000Y-134616119D02*
X157335000Y-134854214D01*
X157096905Y-134758976D02*
X157335000Y-134854214D01*
X157335000Y-134854214D02*
X157573095Y-134758976D01*
X157192143Y-135044690D02*
X157335000Y-134854214D01*
X157335000Y-134854214D02*
X157477857Y-135044690D01*
D12*
X199997190Y-131771428D02*
X200021000Y-131795237D01*
X200021000Y-131795237D02*
X200044809Y-131866666D01*
X200044809Y-131866666D02*
X200044809Y-131914285D01*
X200044809Y-131914285D02*
X200021000Y-131985713D01*
X200021000Y-131985713D02*
X199973380Y-132033332D01*
X199973380Y-132033332D02*
X199925761Y-132057142D01*
X199925761Y-132057142D02*
X199830523Y-132080951D01*
X199830523Y-132080951D02*
X199759095Y-132080951D01*
X199759095Y-132080951D02*
X199663857Y-132057142D01*
X199663857Y-132057142D02*
X199616238Y-132033332D01*
X199616238Y-132033332D02*
X199568619Y-131985713D01*
X199568619Y-131985713D02*
X199544809Y-131914285D01*
X199544809Y-131914285D02*
X199544809Y-131866666D01*
X199544809Y-131866666D02*
X199568619Y-131795237D01*
X199568619Y-131795237D02*
X199592428Y-131771428D01*
X199592428Y-131580951D02*
X199568619Y-131557142D01*
X199568619Y-131557142D02*
X199544809Y-131509523D01*
X199544809Y-131509523D02*
X199544809Y-131390475D01*
X199544809Y-131390475D02*
X199568619Y-131342856D01*
X199568619Y-131342856D02*
X199592428Y-131319047D01*
X199592428Y-131319047D02*
X199640047Y-131295237D01*
X199640047Y-131295237D02*
X199687666Y-131295237D01*
X199687666Y-131295237D02*
X199759095Y-131319047D01*
X199759095Y-131319047D02*
X200044809Y-131604761D01*
X200044809Y-131604761D02*
X200044809Y-131295237D01*
X199544809Y-130985714D02*
X199544809Y-130938095D01*
X199544809Y-130938095D02*
X199568619Y-130890476D01*
X199568619Y-130890476D02*
X199592428Y-130866666D01*
X199592428Y-130866666D02*
X199640047Y-130842857D01*
X199640047Y-130842857D02*
X199735285Y-130819047D01*
X199735285Y-130819047D02*
X199854333Y-130819047D01*
X199854333Y-130819047D02*
X199949571Y-130842857D01*
X199949571Y-130842857D02*
X199997190Y-130866666D01*
X199997190Y-130866666D02*
X200021000Y-130890476D01*
X200021000Y-130890476D02*
X200044809Y-130938095D01*
X200044809Y-130938095D02*
X200044809Y-130985714D01*
X200044809Y-130985714D02*
X200021000Y-131033333D01*
X200021000Y-131033333D02*
X199997190Y-131057142D01*
X199997190Y-131057142D02*
X199949571Y-131080952D01*
X199949571Y-131080952D02*
X199854333Y-131104761D01*
X199854333Y-131104761D02*
X199735285Y-131104761D01*
X199735285Y-131104761D02*
X199640047Y-131080952D01*
X199640047Y-131080952D02*
X199592428Y-131057142D01*
X199592428Y-131057142D02*
X199568619Y-131033333D01*
X199568619Y-131033333D02*
X199544809Y-130985714D01*
D14*
%TO.C,Q2*%
X179869998Y-133895000D02*
X181069998Y-133895000D01*
X179869998Y-134095000D02*
X179869998Y-133895000D01*
X179869998Y-139295000D02*
X179869998Y-139095000D01*
X179869998Y-139295000D02*
X180070000Y-139295000D01*
X186069998Y-133895000D02*
X186270000Y-133895000D01*
X186069998Y-139295000D02*
X186270000Y-139295000D01*
X186270000Y-134095000D02*
X186270000Y-133895000D01*
X186270000Y-139295000D02*
X186270000Y-139095000D01*
%TO.C,Q1*%
X173800000Y-145950001D02*
X173800000Y-144750001D01*
X174000000Y-145950001D02*
X173800000Y-145950001D01*
X179200000Y-145950001D02*
X179000000Y-145950001D01*
X179200000Y-145950001D02*
X179200000Y-145749999D01*
X173800000Y-139750001D02*
X173800000Y-139549999D01*
X179200000Y-139750001D02*
X179200000Y-139549999D01*
X174000000Y-139549999D02*
X173800000Y-139549999D01*
X179200000Y-139549999D02*
X179000000Y-139549999D01*
D15*
%TO.C,R6*%
X163237258Y-155522500D02*
X162762742Y-155522500D01*
X163237258Y-154477500D02*
X162762742Y-154477500D01*
%TO.C,R3*%
X160062258Y-155522500D02*
X159587742Y-155522500D01*
X160062258Y-154477500D02*
X159587742Y-154477500D01*
D16*
%TO.C,MOSFET1*%
X160349000Y-151133100D02*
X160349000Y-152784100D01*
X161387860Y-151133100D02*
X160349000Y-151133100D01*
X161659640Y-152784100D02*
X162340360Y-152784100D01*
X163651000Y-151133100D02*
X162612140Y-151133100D01*
X163651000Y-152784100D02*
X163651000Y-151133100D01*
X159333000Y-153279400D02*
G75*
G02*
X159079000Y-153279400I-127000J0D01*
G01*
X159079000Y-153279400D02*
G75*
G02*
X159333000Y-153279400I127000J0D01*
G01*
D15*
%TO.C,J3*%
X156255000Y-154265000D02*
X157000000Y-154265000D01*
X156255000Y-155000000D02*
X156255000Y-154265000D01*
X156255000Y-155735000D02*
X156255000Y-155610000D01*
X156255000Y-155735000D02*
X156314435Y-155735000D01*
X156255000Y-155735000D02*
X157745000Y-155735000D01*
X157685565Y-155735000D02*
X157745000Y-155735000D01*
X157745000Y-155735000D02*
X157745000Y-155610000D01*
%TO.C,R14*%
X175737258Y-150077500D02*
X175262742Y-150077500D01*
X175737258Y-151122500D02*
X175262742Y-151122500D01*
%TO.C,C18*%
X196765000Y-131711252D02*
X196765000Y-131188748D01*
X198235000Y-131711252D02*
X198235000Y-131188748D01*
%TO.C,J2*%
X203447500Y-126580000D02*
X211687500Y-126580000D01*
X203447500Y-136820000D02*
X203447500Y-126580000D01*
X205567500Y-136820000D02*
X205567500Y-126580000D01*
X209567500Y-136820000D02*
X209567500Y-126580000D01*
X211687500Y-126580000D02*
X211687500Y-133900000D01*
X211687500Y-134500000D02*
X211687500Y-136820000D01*
X211687500Y-136820000D02*
X203447500Y-136820000D01*
X212297500Y-134640000D02*
X211687500Y-134200000D01*
X212297500Y-133760000D01*
X212297500Y-134640000D01*
G36*
X212297500Y-134640000D02*
G01*
X211687500Y-134200000D01*
X212297500Y-133760000D01*
X212297500Y-134640000D01*
G37*
%TO.C,C16*%
X153065000Y-142238748D02*
X153065000Y-142761252D01*
X154535000Y-142238748D02*
X154535000Y-142761252D01*
%TO.C,R13*%
X175262742Y-148477500D02*
X175737258Y-148477500D01*
X175262742Y-149522500D02*
X175737258Y-149522500D01*
%TO.C,R5*%
X156822936Y-138540000D02*
X161177064Y-138540000D01*
X156822936Y-141960000D02*
X161177064Y-141960000D01*
%TO.C,C15*%
X153065000Y-139261252D02*
X153065000Y-138738748D01*
X154535000Y-139261252D02*
X154535000Y-138738748D01*
%TO.C,R11*%
X171962742Y-151977500D02*
X172437258Y-151977500D01*
X171962742Y-153022500D02*
X172437258Y-153022500D01*
%TO.C,C3*%
X161159420Y-145990000D02*
X161440580Y-145990000D01*
X161159420Y-147010000D02*
X161440580Y-147010000D01*
%TO.C,C1*%
X164865580Y-149490000D02*
X164584420Y-149490000D01*
X164865580Y-150510000D02*
X164584420Y-150510000D01*
%TO.C,R7*%
X161062742Y-147577500D02*
X161537258Y-147577500D01*
X161062742Y-148622500D02*
X161537258Y-148622500D01*
%TO.C,C4*%
X171665000Y-141538748D02*
X171665000Y-142061252D01*
X173135000Y-141538748D02*
X173135000Y-142061252D01*
%TO.C,R15*%
X187447500Y-138887742D02*
X187447500Y-139362258D01*
X188492500Y-138887742D02*
X188492500Y-139362258D01*
%TO.C,C19*%
X198765000Y-131711252D02*
X198765000Y-131188748D01*
X200235000Y-131711252D02*
X200235000Y-131188748D01*
%TO.C,C9*%
X194765000Y-131761252D02*
X194765000Y-131238748D01*
X196235000Y-131761252D02*
X196235000Y-131238748D01*
%TO.C,R8*%
X172137742Y-146477500D02*
X172612258Y-146477500D01*
X172137742Y-147522500D02*
X172612258Y-147522500D01*
%TO.C,R10*%
X175162742Y-146477500D02*
X175637258Y-146477500D01*
X175162742Y-147522500D02*
X175637258Y-147522500D01*
%TO.C,R2*%
X155077500Y-145137258D02*
X155077500Y-144662742D01*
X156122500Y-145137258D02*
X156122500Y-144662742D01*
%TO.C,R4*%
X161477500Y-143562742D02*
X161477500Y-144037258D01*
X162522500Y-143562742D02*
X162522500Y-144037258D01*
%TO.C,C14*%
X151065000Y-139261252D02*
X151065000Y-138738748D01*
X152535000Y-139261252D02*
X152535000Y-138738748D01*
%TO.C,C5*%
X172109420Y-144990000D02*
X172390580Y-144990000D01*
X172109420Y-146010000D02*
X172390580Y-146010000D01*
D16*
%TO.C,U1*%
X164776836Y-148104000D02*
X168912751Y-148104000D01*
X168912764Y-141246000D02*
X164776849Y-141246000D01*
D17*
G36*
X163034800Y-147790498D02*
G01*
X162780800Y-147790498D01*
X162780800Y-147409498D01*
X163034800Y-147409498D01*
X163034800Y-147790498D01*
G37*
G36*
X170908800Y-141940502D02*
G01*
X170654800Y-141940502D01*
X170654800Y-141559502D01*
X170908800Y-141559502D01*
X170908800Y-141940502D01*
G37*
D15*
%TO.C,C10*%
X194560000Y-143380000D02*
X190883000Y-143380000D01*
X194560000Y-143420000D02*
X190893000Y-143420000D01*
X194560000Y-143460000D02*
X190904000Y-143460000D01*
X194560000Y-143500000D02*
X190915000Y-143500000D01*
X194560000Y-143540000D02*
X190927000Y-143540000D01*
X194560000Y-143580000D02*
X190939000Y-143580000D01*
X194560000Y-143620000D02*
X190951000Y-143620000D01*
X194560000Y-143660000D02*
X190963000Y-143660000D01*
X194560000Y-143700000D02*
X190976000Y-143700000D01*
X194560000Y-143740000D02*
X190990000Y-143740000D01*
X194560000Y-143780000D02*
X191003000Y-143780000D01*
X194560000Y-143820000D02*
X191018000Y-143820000D01*
X194560000Y-143860000D02*
X191032000Y-143860000D01*
X194560000Y-143900000D02*
X191047000Y-143900000D01*
X194560000Y-143940000D02*
X191062000Y-143940000D01*
X194560000Y-143980000D02*
X191078000Y-143980000D01*
X194560000Y-144020000D02*
X191094000Y-144020000D01*
X194560000Y-144060000D02*
X191110000Y-144060000D01*
X194560000Y-144100000D02*
X191127000Y-144100000D01*
X194560000Y-144140000D02*
X191144000Y-144140000D01*
X194560000Y-144180000D02*
X191162000Y-144180000D01*
X194560000Y-144220000D02*
X191180000Y-144220000D01*
X194560000Y-144260000D02*
X191198000Y-144260000D01*
X194560000Y-144300000D02*
X191217000Y-144300000D01*
X194560000Y-144340000D02*
X191236000Y-144340000D01*
X194560000Y-144380000D02*
X191256000Y-144380000D01*
X194560000Y-144420000D02*
X191276000Y-144420000D01*
X194560000Y-144460000D02*
X191296000Y-144460000D01*
X194560000Y-144500000D02*
X191317000Y-144500000D01*
X194560000Y-144540000D02*
X191339000Y-144540000D01*
X194560000Y-144580000D02*
X191361000Y-144580000D01*
X194560000Y-144620000D02*
X191383000Y-144620000D01*
X194560000Y-144660000D02*
X191406000Y-144660000D01*
X194560000Y-144700000D02*
X191429000Y-144700000D01*
X194560000Y-144740000D02*
X191453000Y-144740000D01*
X194560000Y-144780000D02*
X191477000Y-144780000D01*
X194560000Y-144820000D02*
X191502000Y-144820000D01*
X194560000Y-144860000D02*
X191528000Y-144860000D01*
X194560000Y-144900000D02*
X191553000Y-144900000D01*
X194560000Y-144940000D02*
X191580000Y-144940000D01*
X194560000Y-144980000D02*
X191607000Y-144980000D01*
X194560000Y-145020000D02*
X191634000Y-145020000D01*
X194560000Y-145060000D02*
X191662000Y-145060000D01*
X194560000Y-145100000D02*
X191691000Y-145100000D01*
X194560000Y-145140000D02*
X191720000Y-145140000D01*
X194560000Y-145180000D02*
X191750000Y-145180000D01*
X194560000Y-145220000D02*
X191780000Y-145220000D01*
X194560000Y-145260000D02*
X191812000Y-145260000D01*
X194560000Y-145300000D02*
X191843000Y-145300000D01*
X194560000Y-145340000D02*
X191876000Y-145340000D01*
X194560000Y-145380000D02*
X191909000Y-145380000D01*
X194560000Y-145420000D02*
X191942000Y-145420000D01*
X194560000Y-145460000D02*
X191977000Y-145460000D01*
X194560000Y-145500000D02*
X192012000Y-145500000D01*
X194560000Y-145540000D02*
X192048000Y-145540000D01*
X194560000Y-145580000D02*
X192084000Y-145580000D01*
X194560000Y-145620000D02*
X192122000Y-145620000D01*
X194560000Y-145660000D02*
X192160000Y-145660000D01*
X194560000Y-145700000D02*
X192199000Y-145700000D01*
X194560000Y-145740000D02*
X192239000Y-145740000D01*
X194560000Y-145780000D02*
X192280000Y-145780000D01*
X194560000Y-145820000D02*
X192322000Y-145820000D01*
X196399000Y-147180000D02*
X195201000Y-147180000D01*
X196662000Y-147140000D02*
X194938000Y-147140000D01*
X196862000Y-147100000D02*
X194738000Y-147100000D01*
X197030000Y-147060000D02*
X194570000Y-147060000D01*
X197177000Y-147020000D02*
X194423000Y-147020000D01*
X197309000Y-146980000D02*
X194291000Y-146980000D01*
X197430000Y-146940000D02*
X194170000Y-146940000D01*
X197542000Y-146900000D02*
X194058000Y-146900000D01*
X197646000Y-146860000D02*
X193954000Y-146860000D01*
X197744000Y-146820000D02*
X193856000Y-146820000D01*
X197837000Y-146780000D02*
X193763000Y-146780000D01*
X197924000Y-146740000D02*
X193676000Y-146740000D01*
X198008000Y-146700000D02*
X193592000Y-146700000D01*
X198088000Y-146660000D02*
X193512000Y-146660000D01*
X198165000Y-146620000D02*
X193435000Y-146620000D01*
X198239000Y-146580000D02*
X193361000Y-146580000D01*
X198310000Y-146540000D02*
X193290000Y-146540000D01*
X198378000Y-146500000D02*
X193222000Y-146500000D01*
X198444000Y-146460000D02*
X193156000Y-146460000D01*
X198508000Y-146420000D02*
X193092000Y-146420000D01*
X198570000Y-146380000D02*
X193030000Y-146380000D01*
X198630000Y-146340000D02*
X192970000Y-146340000D01*
X198675000Y-136620354D02*
X198675000Y-137620354D01*
X198688000Y-146300000D02*
X192912000Y-146300000D01*
X198745000Y-146260000D02*
X192855000Y-146260000D01*
X198800000Y-146220000D02*
X192800000Y-146220000D01*
X198853000Y-146180000D02*
X192747000Y-146180000D01*
X198905000Y-146140000D02*
X192695000Y-146140000D01*
X198956000Y-146100000D02*
X192644000Y-146100000D01*
X199005000Y-146060000D02*
X192595000Y-146060000D01*
X199054000Y-146020000D02*
X192546000Y-146020000D01*
X199101000Y-145980000D02*
X192499000Y-145980000D01*
X199147000Y-145940000D02*
X192453000Y-145940000D01*
X199175000Y-137120354D02*
X198175000Y-137120354D01*
X199191000Y-145900000D02*
X192409000Y-145900000D01*
X199235000Y-145860000D02*
X192365000Y-145860000D01*
X199278000Y-145820000D02*
X197040000Y-145820000D01*
X199320000Y-145780000D02*
X197040000Y-145780000D01*
X199361000Y-145740000D02*
X197040000Y-145740000D01*
X199401000Y-145700000D02*
X197040000Y-145700000D01*
X199440000Y-145660000D02*
X197040000Y-145660000D01*
X199478000Y-145620000D02*
X197040000Y-145620000D01*
X199516000Y-145580000D02*
X197040000Y-145580000D01*
X199552000Y-145540000D02*
X197040000Y-145540000D01*
X199588000Y-145500000D02*
X197040000Y-145500000D01*
X199623000Y-145460000D02*
X197040000Y-145460000D01*
X199658000Y-145420000D02*
X197040000Y-145420000D01*
X199691000Y-145380000D02*
X197040000Y-145380000D01*
X199724000Y-145340000D02*
X197040000Y-145340000D01*
X199757000Y-145300000D02*
X197040000Y-145300000D01*
X199788000Y-145260000D02*
X197040000Y-145260000D01*
X199820000Y-145220000D02*
X197040000Y-145220000D01*
X199850000Y-145180000D02*
X197040000Y-145180000D01*
X199880000Y-145140000D02*
X197040000Y-145140000D01*
X199909000Y-145100000D02*
X197040000Y-145100000D01*
X199938000Y-145060000D02*
X197040000Y-145060000D01*
X199966000Y-145020000D02*
X197040000Y-145020000D01*
X199993000Y-144980000D02*
X197040000Y-144980000D01*
X200020000Y-144940000D02*
X197040000Y-144940000D01*
X200047000Y-144900000D02*
X197040000Y-144900000D01*
X200072000Y-144860000D02*
X197040000Y-144860000D01*
X200098000Y-144820000D02*
X197040000Y-144820000D01*
X200123000Y-144780000D02*
X197040000Y-144780000D01*
X200147000Y-144740000D02*
X197040000Y-144740000D01*
X200171000Y-144700000D02*
X197040000Y-144700000D01*
X200194000Y-144660000D02*
X197040000Y-144660000D01*
X200217000Y-144620000D02*
X197040000Y-144620000D01*
X200239000Y-144580000D02*
X197040000Y-144580000D01*
X200261000Y-144540000D02*
X197040000Y-144540000D01*
X200283000Y-144500000D02*
X197040000Y-144500000D01*
X200304000Y-144460000D02*
X197040000Y-144460000D01*
X200324000Y-144420000D02*
X197040000Y-144420000D01*
X200344000Y-144380000D02*
X197040000Y-144380000D01*
X200364000Y-144340000D02*
X197040000Y-144340000D01*
X200383000Y-144300000D02*
X197040000Y-144300000D01*
X200402000Y-144260000D02*
X197040000Y-144260000D01*
X200420000Y-144220000D02*
X197040000Y-144220000D01*
X200438000Y-144180000D02*
X197040000Y-144180000D01*
X200456000Y-144140000D02*
X197040000Y-144140000D01*
X200473000Y-144100000D02*
X197040000Y-144100000D01*
X200490000Y-144060000D02*
X197040000Y-144060000D01*
X200506000Y-144020000D02*
X197040000Y-144020000D01*
X200522000Y-143980000D02*
X197040000Y-143980000D01*
X200538000Y-143940000D02*
X197040000Y-143940000D01*
X200553000Y-143900000D02*
X197040000Y-143900000D01*
X200568000Y-143860000D02*
X197040000Y-143860000D01*
X200582000Y-143820000D02*
X197040000Y-143820000D01*
X200597000Y-143780000D02*
X197040000Y-143780000D01*
X200610000Y-143740000D02*
X197040000Y-143740000D01*
X200624000Y-143700000D02*
X197040000Y-143700000D01*
X200637000Y-143660000D02*
X197040000Y-143660000D01*
X200649000Y-143620000D02*
X197040000Y-143620000D01*
X200661000Y-143580000D02*
X197040000Y-143580000D01*
X200673000Y-143540000D02*
X197040000Y-143540000D01*
X200685000Y-143500000D02*
X197040000Y-143500000D01*
X200696000Y-143460000D02*
X197040000Y-143460000D01*
X200707000Y-143420000D02*
X197040000Y-143420000D01*
X200717000Y-143380000D02*
X197040000Y-143380000D01*
X200728000Y-143340000D02*
X190872000Y-143340000D01*
X200737000Y-143300000D02*
X190863000Y-143300000D01*
X200747000Y-143260000D02*
X190853000Y-143260000D01*
X200756000Y-143220000D02*
X190844000Y-143220000D01*
X200765000Y-143180000D02*
X190835000Y-143180000D01*
X200773000Y-143140000D02*
X190827000Y-143140000D01*
X200781000Y-143100000D02*
X190819000Y-143100000D01*
X200789000Y-143060000D02*
X190811000Y-143060000D01*
X200797000Y-143020000D02*
X190803000Y-143020000D01*
X200804000Y-142980000D02*
X190796000Y-142980000D01*
X200811000Y-142940000D02*
X190789000Y-142940000D01*
X200817000Y-142900000D02*
X190783000Y-142900000D01*
X200823000Y-142860000D02*
X190777000Y-142860000D01*
X200829000Y-142820000D02*
X190771000Y-142820000D01*
X200835000Y-142780000D02*
X190765000Y-142780000D01*
X200840000Y-142740000D02*
X190760000Y-142740000D01*
X200845000Y-142700000D02*
X190755000Y-142700000D01*
X200849000Y-142660000D02*
X190751000Y-142660000D01*
X200854000Y-142620000D02*
X190746000Y-142620000D01*
X200857000Y-142580000D02*
X190743000Y-142580000D01*
X200861000Y-142540000D02*
X190739000Y-142540000D01*
X200864000Y-142500000D02*
X190736000Y-142500000D01*
X200867000Y-142460000D02*
X190733000Y-142460000D01*
X200870000Y-142420000D02*
X190730000Y-142420000D01*
X200872000Y-142380000D02*
X190728000Y-142380000D01*
X200874000Y-142340000D02*
X190726000Y-142340000D01*
X200876000Y-142300000D02*
X190724000Y-142300000D01*
X200877000Y-142260000D02*
X190723000Y-142260000D01*
X200879000Y-142180000D02*
X190721000Y-142180000D01*
X200879000Y-142220000D02*
X190721000Y-142220000D01*
X200880000Y-142100000D02*
X190720000Y-142100000D01*
X200880000Y-142140000D02*
X190720000Y-142140000D01*
X200920000Y-142100000D02*
G75*
G02*
X190680000Y-142100000I-5120000J0D01*
G01*
X190680000Y-142100000D02*
G75*
G02*
X200920000Y-142100000I5120000J0D01*
G01*
%TO.C,C13*%
X151065000Y-142238748D02*
X151065000Y-142761252D01*
X152535000Y-142238748D02*
X152535000Y-142761252D01*
D17*
%TO.C,G\u002A\u002A\u002A*%
G36*
X207931311Y-146069513D02*
G01*
X207929796Y-146074352D01*
X207927028Y-146083432D01*
X207923289Y-146095816D01*
X207918863Y-146110570D01*
X207914030Y-146126756D01*
X207913592Y-146128228D01*
X207908762Y-146144278D01*
X207904303Y-146158761D01*
X207900496Y-146170799D01*
X207897617Y-146179515D01*
X207895945Y-146184031D01*
X207895841Y-146184243D01*
X207894688Y-146185696D01*
X207892522Y-146186819D01*
X207888709Y-146187653D01*
X207882617Y-146188241D01*
X207873610Y-146188624D01*
X207861057Y-146188845D01*
X207844323Y-146188945D01*
X207824615Y-146188968D01*
X207805985Y-146188892D01*
X207789267Y-146188678D01*
X207775178Y-146188347D01*
X207764435Y-146187920D01*
X207757756Y-146187419D01*
X207755808Y-146186943D01*
X207756531Y-146183889D01*
X207758593Y-146176406D01*
X207761782Y-146165236D01*
X207765884Y-146151121D01*
X207770685Y-146134803D01*
X207774030Y-146123537D01*
X207792316Y-146062155D01*
X207863038Y-146062122D01*
X207933761Y-146062089D01*
X207931311Y-146069513D01*
G37*
G36*
X205452439Y-145757274D02*
G01*
X205456409Y-145764306D01*
X205461492Y-145774263D01*
X205467231Y-145786144D01*
X205473171Y-145798952D01*
X205478855Y-145811688D01*
X205483827Y-145823354D01*
X205487629Y-145832952D01*
X205489806Y-145839482D01*
X205490094Y-145841777D01*
X205487415Y-145843652D01*
X205480516Y-145847356D01*
X205470124Y-145852555D01*
X205456967Y-145858916D01*
X205441771Y-145866105D01*
X205425265Y-145873790D01*
X205408175Y-145881637D01*
X205391229Y-145889314D01*
X205375155Y-145896486D01*
X205360679Y-145902821D01*
X205348529Y-145907986D01*
X205339432Y-145911647D01*
X205334116Y-145913471D01*
X205333273Y-145913614D01*
X205329161Y-145911045D01*
X205324408Y-145903665D01*
X205322396Y-145899442D01*
X205318353Y-145890442D01*
X205312966Y-145878603D01*
X205307173Y-145865979D01*
X205304998Y-145861271D01*
X205300202Y-145850397D01*
X205296448Y-145840901D01*
X205294248Y-145834140D01*
X205293888Y-145832045D01*
X205294798Y-145830086D01*
X205297814Y-145827400D01*
X205303369Y-145823748D01*
X205311895Y-145818888D01*
X205323824Y-145812578D01*
X205339588Y-145804579D01*
X205359619Y-145794647D01*
X205370151Y-145789479D01*
X205392439Y-145778686D01*
X205411583Y-145769663D01*
X205427252Y-145762555D01*
X205439114Y-145757511D01*
X205446836Y-145754675D01*
X205450039Y-145754163D01*
X205452439Y-145757274D01*
G37*
G36*
X205530561Y-146012555D02*
G01*
X205534683Y-146015522D01*
X205537126Y-146020022D01*
X205540582Y-146028523D01*
X205544656Y-146039811D01*
X205548955Y-146052675D01*
X205553087Y-146065901D01*
X205556656Y-146078278D01*
X205559270Y-146088592D01*
X205560464Y-146094965D01*
X205561673Y-146104895D01*
X205541837Y-146110810D01*
X205507670Y-146120991D01*
X205478327Y-146129715D01*
X205453462Y-146137084D01*
X205432727Y-146143197D01*
X205415777Y-146148156D01*
X205402265Y-146152059D01*
X205391846Y-146155008D01*
X205384172Y-146157102D01*
X205378897Y-146158441D01*
X205375675Y-146159127D01*
X205374386Y-146159273D01*
X205371362Y-146157752D01*
X205368385Y-146152673D01*
X205365044Y-146143262D01*
X205363974Y-146139701D01*
X205360211Y-146126930D01*
X205355827Y-146112160D01*
X205351761Y-146098559D01*
X205351711Y-146098394D01*
X205348689Y-146087837D01*
X205346408Y-146078922D01*
X205345251Y-146073175D01*
X205345180Y-146072298D01*
X205346416Y-146070635D01*
X205350384Y-146068304D01*
X205357472Y-146065155D01*
X205368071Y-146061040D01*
X205382569Y-146055807D01*
X205401357Y-146049308D01*
X205424822Y-146041394D01*
X205430891Y-146039368D01*
X205451629Y-146032523D01*
X205470979Y-146026267D01*
X205488283Y-146020801D01*
X205502884Y-146016329D01*
X205514124Y-146013052D01*
X205521348Y-146011173D01*
X205523607Y-146010798D01*
X205530561Y-146012555D01*
G37*
G36*
X207837510Y-146218761D02*
G01*
X207855800Y-146219045D01*
X207870053Y-146219501D01*
X207879876Y-146220114D01*
X207884877Y-146220870D01*
X207885450Y-146221264D01*
X207884765Y-146224230D01*
X207882776Y-146232030D01*
X207879585Y-146244290D01*
X207875292Y-146260633D01*
X207869998Y-146280684D01*
X207863802Y-146304068D01*
X207856807Y-146330409D01*
X207849111Y-146359332D01*
X207840817Y-146390461D01*
X207832023Y-146423421D01*
X207822832Y-146457835D01*
X207813344Y-146493330D01*
X207803659Y-146529529D01*
X207793877Y-146566056D01*
X207784100Y-146602537D01*
X207774428Y-146638596D01*
X207764961Y-146673857D01*
X207755800Y-146707944D01*
X207747046Y-146740483D01*
X207738800Y-146771098D01*
X207731161Y-146799413D01*
X207724230Y-146825053D01*
X207718109Y-146847642D01*
X207712897Y-146866805D01*
X207708696Y-146882166D01*
X207705605Y-146893351D01*
X207703725Y-146899982D01*
X207703167Y-146901750D01*
X207700274Y-146902224D01*
X207692639Y-146902660D01*
X207680922Y-146903057D01*
X207665778Y-146903411D01*
X207647867Y-146903718D01*
X207627846Y-146903975D01*
X207606372Y-146904180D01*
X207584104Y-146904330D01*
X207561700Y-146904420D01*
X207539816Y-146904447D01*
X207519112Y-146904410D01*
X207500244Y-146904303D01*
X207483870Y-146904125D01*
X207470649Y-146903872D01*
X207461238Y-146903541D01*
X207456295Y-146903128D01*
X207455724Y-146902949D01*
X207455854Y-146899961D01*
X207457216Y-146892807D01*
X207459585Y-146882518D01*
X207462738Y-146870127D01*
X207463164Y-146868529D01*
X207467262Y-146853200D01*
X207471533Y-146837192D01*
X207475418Y-146822601D01*
X207477905Y-146813237D01*
X207483809Y-146790966D01*
X207538234Y-146790966D01*
X207592658Y-146790966D01*
X207667612Y-146510888D01*
X207677751Y-146473000D01*
X207687515Y-146436510D01*
X207696811Y-146401763D01*
X207705547Y-146369108D01*
X207713630Y-146338891D01*
X207720967Y-146311458D01*
X207727465Y-146287156D01*
X207733032Y-146266332D01*
X207737575Y-146249332D01*
X207741001Y-146236504D01*
X207743217Y-146228193D01*
X207744132Y-146224747D01*
X207744135Y-146224737D01*
X207745703Y-146218663D01*
X207815577Y-146218663D01*
X207837510Y-146218761D01*
G37*
G36*
X210470298Y-146074912D02*
G01*
X210468232Y-146082277D01*
X210465178Y-146093479D01*
X210461510Y-146107130D01*
X210457603Y-146121843D01*
X210456653Y-146125447D01*
X210452918Y-146139460D01*
X210449479Y-146152020D01*
X210446655Y-146161995D01*
X210444760Y-146168252D01*
X210444391Y-146169315D01*
X210442051Y-146175470D01*
X210253686Y-146175470D01*
X210065321Y-146175470D01*
X210007873Y-146389409D01*
X209998994Y-146422478D01*
X209990496Y-146454129D01*
X209982488Y-146483963D01*
X209975076Y-146511580D01*
X209968369Y-146536579D01*
X209962472Y-146558560D01*
X209957493Y-146577124D01*
X209953541Y-146591871D01*
X209950721Y-146602400D01*
X209949142Y-146608311D01*
X209948853Y-146609403D01*
X209947280Y-146615459D01*
X210136044Y-146616152D01*
X210324808Y-146616845D01*
X210311051Y-146668137D01*
X210306703Y-146684241D01*
X210302729Y-146698764D01*
X210299375Y-146710819D01*
X210296889Y-146719519D01*
X210295518Y-146723976D01*
X210295453Y-146724152D01*
X210294917Y-146724942D01*
X210293750Y-146725640D01*
X210291634Y-146726250D01*
X210288248Y-146726778D01*
X210283273Y-146727231D01*
X210276389Y-146727614D01*
X210267278Y-146727932D01*
X210255618Y-146728193D01*
X210241092Y-146728401D01*
X210223380Y-146728562D01*
X210202161Y-146728683D01*
X210177117Y-146728768D01*
X210147928Y-146728825D01*
X210114275Y-146728857D01*
X210075837Y-146728873D01*
X210035720Y-146728876D01*
X209991031Y-146728863D01*
X209951471Y-146728822D01*
X209916772Y-146728748D01*
X209886663Y-146728639D01*
X209860875Y-146728491D01*
X209839139Y-146728300D01*
X209821185Y-146728063D01*
X209806744Y-146727777D01*
X209795546Y-146727437D01*
X209787322Y-146727040D01*
X209781802Y-146726584D01*
X209778718Y-146726063D01*
X209777797Y-146725502D01*
X209778479Y-146722521D01*
X209780479Y-146714640D01*
X209783711Y-146702173D01*
X209788094Y-146685436D01*
X209793544Y-146664742D01*
X209799977Y-146640407D01*
X209807310Y-146612744D01*
X209815459Y-146582068D01*
X209824343Y-146548694D01*
X209833876Y-146512935D01*
X209843975Y-146475108D01*
X209854558Y-146435525D01*
X209865540Y-146394502D01*
X209866182Y-146392108D01*
X209954598Y-146062089D01*
X210214309Y-146062089D01*
X210474020Y-146062089D01*
X210470298Y-146074912D01*
G37*
G36*
X207451582Y-146219233D02*
G01*
X207483455Y-146219326D01*
X207511160Y-146219477D01*
X207534499Y-146219686D01*
X207553276Y-146219951D01*
X207567292Y-146220270D01*
X207576350Y-146220643D01*
X207580254Y-146221067D01*
X207580401Y-146221173D01*
X207579714Y-146224205D01*
X207577732Y-146232009D01*
X207574572Y-146244146D01*
X207570353Y-146260177D01*
X207565192Y-146279663D01*
X207559209Y-146302167D01*
X207552520Y-146327248D01*
X207545245Y-146354468D01*
X207537500Y-146383388D01*
X207529405Y-146413570D01*
X207521077Y-146444574D01*
X207512635Y-146475961D01*
X207504196Y-146507294D01*
X207495878Y-146538133D01*
X207487800Y-146568039D01*
X207480080Y-146596573D01*
X207472836Y-146623297D01*
X207466186Y-146647772D01*
X207460248Y-146669558D01*
X207455139Y-146688218D01*
X207450979Y-146703312D01*
X207447886Y-146714401D01*
X207445976Y-146721047D01*
X207445415Y-146722802D01*
X207442840Y-146728876D01*
X207197283Y-146728876D01*
X207161353Y-146728855D01*
X207126980Y-146728791D01*
X207094546Y-146728690D01*
X207064431Y-146728553D01*
X207037018Y-146728384D01*
X207012686Y-146728187D01*
X206991819Y-146727963D01*
X206974796Y-146727717D01*
X206962000Y-146727452D01*
X206953811Y-146727170D01*
X206950611Y-146726874D01*
X206950583Y-146726852D01*
X206951108Y-146724013D01*
X206952951Y-146716322D01*
X206956017Y-146704136D01*
X206960213Y-146687814D01*
X206965444Y-146667713D01*
X206971617Y-146644192D01*
X206978636Y-146617609D01*
X206979197Y-146615495D01*
X207119662Y-146615495D01*
X207226693Y-146615495D01*
X207333724Y-146615495D01*
X207371106Y-146477144D01*
X207378255Y-146450703D01*
X207385002Y-146425793D01*
X207391210Y-146402909D01*
X207396746Y-146382544D01*
X207401475Y-146365194D01*
X207405261Y-146351354D01*
X207407971Y-146341519D01*
X207409469Y-146336183D01*
X207409710Y-146335387D01*
X207409033Y-146334511D01*
X207406033Y-146333807D01*
X207400296Y-146333265D01*
X207391408Y-146332874D01*
X207378954Y-146332623D01*
X207362521Y-146332503D01*
X207341695Y-146332502D01*
X207316060Y-146332611D01*
X207303587Y-146332687D01*
X207196242Y-146333393D01*
X207157952Y-146474444D01*
X207119662Y-146615495D01*
X206979197Y-146615495D01*
X206986408Y-146588323D01*
X206994839Y-146556691D01*
X207003835Y-146523072D01*
X207013301Y-146487825D01*
X207017449Y-146472420D01*
X207085458Y-146220012D01*
X207332930Y-146219323D01*
X207376122Y-146219231D01*
X207415739Y-146219201D01*
X207451582Y-146219233D01*
G37*
G36*
X206763536Y-146224737D02*
G01*
X206761539Y-146231326D01*
X206758671Y-146241349D01*
X206755178Y-146253878D01*
X206751311Y-146267987D01*
X206747318Y-146282750D01*
X206743448Y-146297239D01*
X206739949Y-146310528D01*
X206737069Y-146321689D01*
X206735058Y-146329797D01*
X206734164Y-146333924D01*
X206734155Y-146334252D01*
X206736322Y-146332786D01*
X206742130Y-146328232D01*
X206751096Y-146320984D01*
X206762737Y-146311438D01*
X206776570Y-146299991D01*
X206792110Y-146287036D01*
X206804220Y-146276887D01*
X206873527Y-146218663D01*
X206950261Y-146218663D01*
X206969987Y-146218704D01*
X206987835Y-146218819D01*
X207003128Y-146218998D01*
X207015187Y-146219231D01*
X207023335Y-146219506D01*
X207026894Y-146219812D01*
X207026995Y-146219875D01*
X207024978Y-146221757D01*
X207019132Y-146226852D01*
X207009759Y-146234903D01*
X206997165Y-146245651D01*
X206981655Y-146258836D01*
X206963533Y-146274202D01*
X206943103Y-146291489D01*
X206920670Y-146310439D01*
X206896539Y-146330794D01*
X206871015Y-146352296D01*
X206856249Y-146364722D01*
X206685503Y-146508356D01*
X206658003Y-146608493D01*
X206651747Y-146631255D01*
X206645834Y-146652731D01*
X206640443Y-146672282D01*
X206635748Y-146689267D01*
X206631929Y-146703045D01*
X206629161Y-146712976D01*
X206627622Y-146718421D01*
X206627525Y-146718753D01*
X206624546Y-146728876D01*
X206557166Y-146728876D01*
X206536106Y-146728840D01*
X206519850Y-146728706D01*
X206507805Y-146728439D01*
X206499378Y-146728003D01*
X206493974Y-146727363D01*
X206491000Y-146726483D01*
X206489861Y-146725327D01*
X206489786Y-146724823D01*
X206490480Y-146721899D01*
X206492483Y-146714205D01*
X206495675Y-146702178D01*
X206499938Y-146686255D01*
X206505152Y-146666873D01*
X206511199Y-146644468D01*
X206517959Y-146619477D01*
X206525314Y-146592338D01*
X206533145Y-146563487D01*
X206541332Y-146533361D01*
X206549756Y-146502397D01*
X206558299Y-146471031D01*
X206566842Y-146439702D01*
X206575265Y-146408845D01*
X206583449Y-146378897D01*
X206591276Y-146350296D01*
X206598626Y-146323477D01*
X206605381Y-146298880D01*
X206611421Y-146276939D01*
X206616627Y-146258091D01*
X206620881Y-146242775D01*
X206624063Y-146231426D01*
X206626055Y-146224482D01*
X206626383Y-146223387D01*
X206627192Y-146221937D01*
X206629040Y-146220817D01*
X206632551Y-146219983D01*
X206638348Y-146219396D01*
X206647055Y-146219012D01*
X206659295Y-146218790D01*
X206675692Y-146218687D01*
X206696665Y-146218663D01*
X206765503Y-146218663D01*
X206763536Y-146224737D01*
G37*
G36*
X205200877Y-146284053D02*
G01*
X205202765Y-146286316D01*
X205204660Y-146290899D01*
X205206765Y-146298471D01*
X205209279Y-146309700D01*
X205212404Y-146325252D01*
X205214236Y-146334743D01*
X205216601Y-146347302D01*
X205218385Y-146357749D01*
X205219649Y-146367128D01*
X205220452Y-146376486D01*
X205220853Y-146386870D01*
X205220912Y-146399325D01*
X205220688Y-146414898D01*
X205220241Y-146434635D01*
X205220142Y-146438675D01*
X205218593Y-146480675D01*
X205215991Y-146525797D01*
X205212446Y-146573003D01*
X205208070Y-146621255D01*
X205202974Y-146669514D01*
X205197269Y-146716743D01*
X205191066Y-146761902D01*
X205184478Y-146803953D01*
X205177614Y-146841857D01*
X205176186Y-146849006D01*
X205172179Y-146867573D01*
X205167172Y-146889020D01*
X205161505Y-146912031D01*
X205155519Y-146935290D01*
X205149553Y-146957482D01*
X205143947Y-146977291D01*
X205139042Y-146993402D01*
X205138153Y-146996131D01*
X205130566Y-147019077D01*
X205052954Y-147019793D01*
X205033112Y-147019908D01*
X205015144Y-147019879D01*
X204999724Y-147019719D01*
X204987525Y-147019439D01*
X204979222Y-147019051D01*
X204975487Y-147018568D01*
X204975346Y-147018444D01*
X204976311Y-147015297D01*
X204978949Y-147008163D01*
X204982875Y-146998048D01*
X204987705Y-146985958D01*
X204988565Y-146983836D01*
X205000637Y-146952197D01*
X205011352Y-146919850D01*
X205020970Y-146885810D01*
X205029752Y-146849092D01*
X205037959Y-146808714D01*
X205044007Y-146774769D01*
X205051719Y-146725203D01*
X205058296Y-146674763D01*
X205063615Y-146624711D01*
X205067555Y-146576312D01*
X205069991Y-146530829D01*
X205070756Y-146499652D01*
X205070877Y-146483592D01*
X205070777Y-146471818D01*
X205070320Y-146463221D01*
X205069370Y-146456690D01*
X205067791Y-146451113D01*
X205065445Y-146445380D01*
X205063600Y-146441375D01*
X205055591Y-146426688D01*
X205046274Y-146415173D01*
X205034014Y-146404970D01*
X205027879Y-146400814D01*
X205021551Y-146396538D01*
X205017216Y-146392676D01*
X205014074Y-146387913D01*
X205011322Y-146380935D01*
X205008159Y-146370427D01*
X205007111Y-146366744D01*
X205003761Y-146354216D01*
X205002098Y-146345889D01*
X205001998Y-146340879D01*
X205003166Y-146338454D01*
X205006290Y-146337184D01*
X205013914Y-146334706D01*
X205025328Y-146331221D01*
X205039820Y-146326928D01*
X205056678Y-146322028D01*
X205075190Y-146316721D01*
X205094646Y-146311207D01*
X205114334Y-146305686D01*
X205133542Y-146300358D01*
X205151559Y-146295423D01*
X205167673Y-146291081D01*
X205181173Y-146287532D01*
X205191347Y-146284977D01*
X205197484Y-146283615D01*
X205198796Y-146283444D01*
X205200877Y-146284053D01*
G37*
G36*
X205263231Y-145849211D02*
G01*
X205267349Y-145855725D01*
X205272538Y-145865163D01*
X205278333Y-145876538D01*
X205284269Y-145888863D01*
X205289879Y-145901151D01*
X205294699Y-145912414D01*
X205298262Y-145921667D01*
X205300103Y-145927921D01*
X205300040Y-145930086D01*
X205297227Y-145931543D01*
X205289689Y-145935105D01*
X205277635Y-145940680D01*
X205261272Y-145948174D01*
X205240805Y-145957495D01*
X205216444Y-145968549D01*
X205188395Y-145981243D01*
X205156865Y-145995483D01*
X205122061Y-146011178D01*
X205084191Y-146028234D01*
X205043461Y-146046557D01*
X205000079Y-146066055D01*
X204954253Y-146086634D01*
X204906188Y-146108202D01*
X204856094Y-146130665D01*
X204804175Y-146153930D01*
X204750641Y-146177904D01*
X204695698Y-146202494D01*
X204639553Y-146227607D01*
X204582413Y-146253150D01*
X204524486Y-146279030D01*
X204465978Y-146305153D01*
X204407097Y-146331427D01*
X204381443Y-146342869D01*
X204348290Y-146357655D01*
X204316239Y-146371953D01*
X204285675Y-146385590D01*
X204256983Y-146398394D01*
X204230547Y-146410194D01*
X204206754Y-146420817D01*
X204185988Y-146430092D01*
X204168633Y-146437847D01*
X204155077Y-146443909D01*
X204145702Y-146448108D01*
X204141034Y-146450207D01*
X204129042Y-146455504D01*
X204120737Y-146458705D01*
X204114968Y-146460104D01*
X204110580Y-146459993D01*
X204106941Y-146458878D01*
X204100297Y-146453614D01*
X204096215Y-146445305D01*
X204095179Y-146435887D01*
X204097674Y-146427298D01*
X204098666Y-146425816D01*
X204101728Y-146423751D01*
X204109155Y-146419605D01*
X204120442Y-146413635D01*
X204135087Y-146406097D01*
X204152587Y-146397249D01*
X204172440Y-146387346D01*
X204194142Y-146376646D01*
X204212722Y-146367576D01*
X204226696Y-146360744D01*
X204245182Y-146351642D01*
X204267869Y-146340426D01*
X204294445Y-146327251D01*
X204324597Y-146312273D01*
X204358015Y-146295647D01*
X204394387Y-146277529D01*
X204433400Y-146258074D01*
X204474744Y-146237438D01*
X204518107Y-146215776D01*
X204563176Y-146193243D01*
X204609641Y-146169996D01*
X204657189Y-146146189D01*
X204705509Y-146121978D01*
X204754290Y-146097519D01*
X204789711Y-146079747D01*
X204836829Y-146056115D01*
X204882687Y-146033148D01*
X204927048Y-146010962D01*
X204969677Y-145989674D01*
X205010340Y-145969400D01*
X205048800Y-145950257D01*
X205084823Y-145932360D01*
X205118174Y-145915827D01*
X205148616Y-145900774D01*
X205175916Y-145887317D01*
X205199837Y-145875573D01*
X205220145Y-145865658D01*
X205236605Y-145857688D01*
X205248980Y-145851781D01*
X205257036Y-145848052D01*
X205260538Y-145846618D01*
X205260652Y-145846607D01*
X205263231Y-145849211D01*
G37*
G36*
X206245477Y-146062154D02*
G01*
X206518131Y-146062163D01*
X206536299Y-146091458D01*
X206543320Y-146102897D01*
X206549338Y-146112920D01*
X206553750Y-146120508D01*
X206555952Y-146124640D01*
X206556024Y-146124814D01*
X206555612Y-146128080D01*
X206553885Y-146136091D01*
X206550962Y-146148385D01*
X206546959Y-146164500D01*
X206541995Y-146183977D01*
X206536187Y-146206353D01*
X206529652Y-146231167D01*
X206522510Y-146257958D01*
X206514876Y-146286265D01*
X206514453Y-146287824D01*
X206506679Y-146316477D01*
X206499258Y-146343844D01*
X206492321Y-146369434D01*
X206486002Y-146392757D01*
X206480432Y-146413324D01*
X206475746Y-146430642D01*
X206472075Y-146444223D01*
X206469553Y-146453575D01*
X206468313Y-146458209D01*
X206468311Y-146458214D01*
X206466985Y-146462452D01*
X206465026Y-146466240D01*
X206461786Y-146470167D01*
X206456618Y-146474823D01*
X206448873Y-146480798D01*
X206437902Y-146488681D01*
X206424538Y-146498033D01*
X206383776Y-146526411D01*
X206187149Y-146526411D01*
X205990521Y-146526411D01*
X205986509Y-146540583D01*
X205984819Y-146546718D01*
X205981955Y-146557299D01*
X205978125Y-146571554D01*
X205973536Y-146588709D01*
X205968394Y-146607992D01*
X205962907Y-146628628D01*
X205960661Y-146637092D01*
X205955246Y-146657494D01*
X205950230Y-146676355D01*
X205945795Y-146693003D01*
X205942117Y-146706769D01*
X205939377Y-146716981D01*
X205937753Y-146722969D01*
X205937421Y-146724152D01*
X205936632Y-146725588D01*
X205934814Y-146726701D01*
X205931349Y-146727532D01*
X205925621Y-146728122D01*
X205917013Y-146728510D01*
X205904910Y-146728739D01*
X205888693Y-146728847D01*
X205867748Y-146728876D01*
X205865695Y-146728876D01*
X205795374Y-146728876D01*
X205796958Y-146722802D01*
X205797840Y-146719475D01*
X205800026Y-146711250D01*
X205803431Y-146698447D01*
X205807970Y-146681386D01*
X205813558Y-146660385D01*
X205820110Y-146635765D01*
X205827541Y-146607845D01*
X205835766Y-146576945D01*
X205844699Y-146543383D01*
X205854257Y-146507481D01*
X205864353Y-146469557D01*
X205874902Y-146429930D01*
X205879390Y-146413072D01*
X206020507Y-146413072D01*
X206181556Y-146412376D01*
X206342606Y-146411680D01*
X206364914Y-146327994D01*
X206370882Y-146305607D01*
X206376872Y-146283140D01*
X206382615Y-146261596D01*
X206387844Y-146241980D01*
X206392292Y-146225298D01*
X206395689Y-146212554D01*
X206396400Y-146209889D01*
X206405577Y-146175470D01*
X206244541Y-146175485D01*
X206083505Y-146175501D01*
X206062228Y-146255797D01*
X206056314Y-146278111D01*
X206050294Y-146300824D01*
X206044458Y-146322833D01*
X206039101Y-146343034D01*
X206034514Y-146360323D01*
X206030990Y-146373599D01*
X206030729Y-146374582D01*
X206020507Y-146413072D01*
X205879390Y-146413072D01*
X205885683Y-146389437D01*
X205972824Y-146062146D01*
X206245477Y-146062154D01*
G37*
G36*
X205310629Y-146082800D02*
G01*
X205313720Y-146088494D01*
X205317768Y-146098447D01*
X205322935Y-146113038D01*
X205326275Y-146123064D01*
X205330850Y-146137357D01*
X205334664Y-146149931D01*
X205337454Y-146159862D01*
X205338955Y-146166227D01*
X205339106Y-146168044D01*
X205336358Y-146169514D01*
X205329078Y-146172218D01*
X205317938Y-146175940D01*
X205303607Y-146180464D01*
X205286755Y-146185574D01*
X205268052Y-146191055D01*
X205265397Y-146191818D01*
X205208316Y-146208195D01*
X205156069Y-146223181D01*
X205108301Y-146236877D01*
X205064660Y-146249386D01*
X205024789Y-146260807D01*
X204988335Y-146271242D01*
X204954943Y-146280793D01*
X204924259Y-146289561D01*
X204895929Y-146297647D01*
X204869597Y-146305153D01*
X204844910Y-146312179D01*
X204821513Y-146318828D01*
X204799051Y-146325199D01*
X204777171Y-146331396D01*
X204760729Y-146336045D01*
X204729787Y-146344798D01*
X204695135Y-146354614D01*
X204658253Y-146365073D01*
X204620624Y-146375754D01*
X204583728Y-146386237D01*
X204549046Y-146396101D01*
X204518059Y-146404926D01*
X204517770Y-146405009D01*
X204490981Y-146412638D01*
X204463997Y-146420309D01*
X204437636Y-146427791D01*
X204412715Y-146434851D01*
X204390052Y-146441259D01*
X204370465Y-146446783D01*
X204354771Y-146451191D01*
X204347699Y-146453166D01*
X204331736Y-146457612D01*
X204311864Y-146463151D01*
X204289373Y-146469421D01*
X204265554Y-146476064D01*
X204241697Y-146482720D01*
X204221151Y-146488454D01*
X204201241Y-146493952D01*
X204182770Y-146498940D01*
X204166447Y-146503235D01*
X204152978Y-146506656D01*
X204143071Y-146509020D01*
X204137433Y-146510145D01*
X204136668Y-146510213D01*
X204130287Y-146508355D01*
X204123787Y-146503855D01*
X204123514Y-146503587D01*
X204118324Y-146495625D01*
X204116686Y-146486796D01*
X204118634Y-146478816D01*
X204122962Y-146474090D01*
X204126570Y-146472572D01*
X204134846Y-146469544D01*
X204147321Y-146465165D01*
X204163528Y-146459594D01*
X204182999Y-146452989D01*
X204205267Y-146445509D01*
X204229863Y-146437312D01*
X204256321Y-146428558D01*
X204282910Y-146419818D01*
X204302900Y-146413254D01*
X204327610Y-146405120D01*
X204356634Y-146395547D01*
X204389570Y-146384670D01*
X204426013Y-146372622D01*
X204465559Y-146359538D01*
X204507805Y-146345552D01*
X204552347Y-146330796D01*
X204598782Y-146315404D01*
X204646704Y-146299512D01*
X204695711Y-146283251D01*
X204745398Y-146266756D01*
X204795363Y-146250161D01*
X204845200Y-146233600D01*
X204870488Y-146225193D01*
X204917277Y-146209643D01*
X204962707Y-146194561D01*
X205006512Y-146180034D01*
X205048425Y-146166150D01*
X205088179Y-146152997D01*
X205125507Y-146140662D01*
X205160142Y-146129234D01*
X205191817Y-146118800D01*
X205220266Y-146109449D01*
X205245222Y-146101269D01*
X205266417Y-146094346D01*
X205283585Y-146088769D01*
X205296460Y-146084627D01*
X205304773Y-146082006D01*
X205308259Y-146080995D01*
X205308334Y-146080986D01*
X205310629Y-146082800D01*
G37*
G36*
X204397982Y-146014013D02*
G01*
X204436907Y-146014052D01*
X204473168Y-146014115D01*
X204506471Y-146014202D01*
X204536524Y-146014312D01*
X204563035Y-146014443D01*
X204585709Y-146014595D01*
X204604254Y-146014767D01*
X204618378Y-146014958D01*
X204627787Y-146015167D01*
X204632188Y-146015392D01*
X204632492Y-146015472D01*
X204630119Y-146016911D01*
X204623202Y-146020589D01*
X204612039Y-146026355D01*
X204596927Y-146034060D01*
X204578164Y-146043553D01*
X204556050Y-146054687D01*
X204530882Y-146067310D01*
X204502957Y-146081274D01*
X204472575Y-146096428D01*
X204440032Y-146112624D01*
X204405628Y-146129711D01*
X204369660Y-146147541D01*
X204346083Y-146159209D01*
X204301216Y-146181417D01*
X204260965Y-146201374D01*
X204225096Y-146219202D01*
X204193375Y-146235019D01*
X204165565Y-146248947D01*
X204141434Y-146261106D01*
X204120746Y-146271616D01*
X204103266Y-146280597D01*
X204088761Y-146288169D01*
X204076996Y-146294454D01*
X204067736Y-146299570D01*
X204060746Y-146303638D01*
X204055792Y-146306779D01*
X204052640Y-146309113D01*
X204051444Y-146310256D01*
X204045960Y-146317685D01*
X204039805Y-146327780D01*
X204034829Y-146337315D01*
X204030782Y-146346406D01*
X204028294Y-146354070D01*
X204026995Y-146362213D01*
X204026518Y-146372744D01*
X204026473Y-146380635D01*
X204026659Y-146393365D01*
X204027451Y-146402642D01*
X204029235Y-146410407D01*
X204032397Y-146418601D01*
X204035259Y-146424834D01*
X204041152Y-146436272D01*
X204047891Y-146447839D01*
X204053508Y-146456304D01*
X204062196Y-146471843D01*
X204068345Y-146490159D01*
X204076118Y-146512908D01*
X204086939Y-146531493D01*
X204101207Y-146546298D01*
X204119325Y-146557705D01*
X204141693Y-146566099D01*
X204150031Y-146568262D01*
X204166283Y-146571377D01*
X204179087Y-146571979D01*
X204189813Y-146569992D01*
X204199493Y-146565539D01*
X204206292Y-146562038D01*
X204210965Y-146560534D01*
X204212108Y-146560815D01*
X204212344Y-146564545D01*
X204211838Y-146572602D01*
X204210715Y-146583984D01*
X204209099Y-146597689D01*
X204207114Y-146612714D01*
X204204886Y-146628058D01*
X204202539Y-146642718D01*
X204200527Y-146653979D01*
X204193445Y-146685811D01*
X204184650Y-146714645D01*
X204173535Y-146741904D01*
X204159492Y-146769011D01*
X204141914Y-146797390D01*
X204134833Y-146807857D01*
X204115040Y-146837490D01*
X204098757Y-146864051D01*
X204085674Y-146888281D01*
X204075481Y-146910923D01*
X204067867Y-146932720D01*
X204062523Y-146954413D01*
X204059138Y-146976746D01*
X204057833Y-146992082D01*
X204056148Y-147019077D01*
X203867824Y-147019770D01*
X203679499Y-147020464D01*
X203680205Y-146571646D01*
X203680912Y-146122829D01*
X203688040Y-146107626D01*
X203694909Y-146096095D01*
X203705141Y-146082820D01*
X203717591Y-146069027D01*
X203731113Y-146055943D01*
X203744562Y-146044796D01*
X203750800Y-146040398D01*
X203761856Y-146034048D01*
X203775297Y-146027604D01*
X203788304Y-146022413D01*
X203788893Y-146022210D01*
X203810490Y-146014847D01*
X204221495Y-146014122D01*
X204268149Y-146014053D01*
X204313310Y-146014012D01*
X204356685Y-146013999D01*
X204397982Y-146014013D01*
G37*
G36*
X208881500Y-146218665D02*
G01*
X208916668Y-146218677D01*
X208947111Y-146218706D01*
X208973168Y-146218761D01*
X208995174Y-146218849D01*
X209013468Y-146218979D01*
X209028387Y-146219157D01*
X209040268Y-146219393D01*
X209049449Y-146219693D01*
X209056266Y-146220066D01*
X209061057Y-146220520D01*
X209064160Y-146221062D01*
X209065911Y-146221701D01*
X209066648Y-146222444D01*
X209066709Y-146223299D01*
X209066543Y-146223927D01*
X209065349Y-146228097D01*
X209063121Y-146236244D01*
X209060111Y-146247412D01*
X209056571Y-146260646D01*
X209052757Y-146274990D01*
X209048919Y-146289488D01*
X209045313Y-146303184D01*
X209042191Y-146315123D01*
X209039806Y-146324348D01*
X209038411Y-146329904D01*
X209038155Y-146331085D01*
X209035534Y-146331260D01*
X209027990Y-146331425D01*
X209015997Y-146331576D01*
X209000031Y-146331711D01*
X208980567Y-146331827D01*
X208958080Y-146331921D01*
X208933045Y-146331991D01*
X208905937Y-146332032D01*
X208882024Y-146332043D01*
X208725893Y-146332043D01*
X208695388Y-146446099D01*
X208688670Y-146471217D01*
X208682111Y-146495733D01*
X208675903Y-146518937D01*
X208670236Y-146540114D01*
X208665301Y-146558551D01*
X208661289Y-146573537D01*
X208658390Y-146584358D01*
X208657460Y-146587825D01*
X208650037Y-146615495D01*
X208805893Y-146615495D01*
X208961748Y-146615495D01*
X208947666Y-146667962D01*
X208943283Y-146684206D01*
X208939292Y-146698833D01*
X208935932Y-146710977D01*
X208933444Y-146719775D01*
X208932066Y-146724362D01*
X208931963Y-146724653D01*
X208931262Y-146725412D01*
X208929553Y-146726075D01*
X208926502Y-146726649D01*
X208921769Y-146727141D01*
X208915019Y-146727555D01*
X208905915Y-146727899D01*
X208894119Y-146728179D01*
X208879295Y-146728402D01*
X208861105Y-146728573D01*
X208839213Y-146728698D01*
X208813282Y-146728785D01*
X208782974Y-146728840D01*
X208747954Y-146728868D01*
X208707883Y-146728876D01*
X208706355Y-146728876D01*
X208672066Y-146728852D01*
X208639347Y-146728783D01*
X208608599Y-146728673D01*
X208580222Y-146728524D01*
X208554615Y-146728340D01*
X208532177Y-146728126D01*
X208513309Y-146727885D01*
X208498411Y-146727619D01*
X208487881Y-146727334D01*
X208482120Y-146727032D01*
X208481121Y-146726852D01*
X208481627Y-146724012D01*
X208483442Y-146716317D01*
X208486474Y-146704129D01*
X208490627Y-146687805D01*
X208495810Y-146667705D01*
X208501928Y-146644189D01*
X208508887Y-146617616D01*
X208516594Y-146588346D01*
X208524955Y-146556738D01*
X208533876Y-146523152D01*
X208543265Y-146487947D01*
X208547056Y-146473769D01*
X208556617Y-146438022D01*
X208565772Y-146403753D01*
X208574426Y-146371322D01*
X208582485Y-146341089D01*
X208589851Y-146313412D01*
X208596430Y-146288653D01*
X208602127Y-146267171D01*
X208606845Y-146249324D01*
X208610489Y-146235473D01*
X208612963Y-146225977D01*
X208614173Y-146221196D01*
X208614281Y-146220687D01*
X208616922Y-146220380D01*
X208624568Y-146220086D01*
X208636824Y-146219811D01*
X208653296Y-146219556D01*
X208673590Y-146219326D01*
X208697312Y-146219125D01*
X208724068Y-146218955D01*
X208753462Y-146218821D01*
X208785101Y-146218726D01*
X208818591Y-146218673D01*
X208841270Y-146218663D01*
X208881500Y-146218665D01*
G37*
G36*
X203477096Y-146836831D02*
G01*
X203477096Y-147050114D01*
X204436109Y-147050793D01*
X205395121Y-147051472D01*
X205395857Y-147100738D01*
X205396593Y-147150005D01*
X204224930Y-147150005D01*
X203053268Y-147150005D01*
X203053268Y-147125709D01*
X203053268Y-147101413D01*
X203023573Y-147101413D01*
X202993878Y-147101413D01*
X202993878Y-147094664D01*
X202993878Y-147087915D01*
X204158731Y-147087915D01*
X204267702Y-147087909D01*
X204371346Y-147087890D01*
X204469658Y-147087859D01*
X204562635Y-147087815D01*
X204650274Y-147087759D01*
X204732570Y-147087691D01*
X204809520Y-147087609D01*
X204881121Y-147087516D01*
X204947369Y-147087410D01*
X205008260Y-147087291D01*
X205063791Y-147087160D01*
X205113958Y-147087017D01*
X205158757Y-147086861D01*
X205198186Y-147086693D01*
X205232240Y-147086513D01*
X205260916Y-147086320D01*
X205284210Y-147086114D01*
X205302119Y-147085897D01*
X205314638Y-147085667D01*
X205321766Y-147085424D01*
X205323583Y-147085216D01*
X205320885Y-147084963D01*
X205312790Y-147084723D01*
X205299304Y-147084495D01*
X205280429Y-147084280D01*
X205256170Y-147084077D01*
X205226529Y-147083886D01*
X205191511Y-147083708D01*
X205151119Y-147083542D01*
X205105357Y-147083388D01*
X205054228Y-147083247D01*
X204997736Y-147083118D01*
X204935884Y-147083002D01*
X204868676Y-147082898D01*
X204796116Y-147082807D01*
X204718207Y-147082728D01*
X204634952Y-147082662D01*
X204546356Y-147082608D01*
X204452422Y-147082566D01*
X204353154Y-147082537D01*
X204248555Y-147082521D01*
X204158731Y-147082516D01*
X202993878Y-147082516D01*
X202993878Y-147017727D01*
X202993878Y-146952938D01*
X203232787Y-146952938D01*
X203274532Y-146952930D01*
X203311198Y-146952903D01*
X203343106Y-146952850D01*
X203370576Y-146952767D01*
X203393928Y-146952647D01*
X203413483Y-146952487D01*
X203429561Y-146952279D01*
X203442483Y-146952019D01*
X203452569Y-146951702D01*
X203460140Y-146951322D01*
X203465515Y-146950873D01*
X203469016Y-146950350D01*
X203470962Y-146949747D01*
X203471674Y-146949060D01*
X203471697Y-146948889D01*
X203471224Y-146948181D01*
X203469590Y-146947560D01*
X203466476Y-146947019D01*
X203461561Y-146946554D01*
X203454524Y-146946158D01*
X203445046Y-146945826D01*
X203432805Y-146945554D01*
X203417482Y-146945335D01*
X203398756Y-146945164D01*
X203376306Y-146945036D01*
X203349813Y-146944944D01*
X203318956Y-146944885D01*
X203283414Y-146944852D01*
X203242867Y-146944840D01*
X203232787Y-146944840D01*
X202993878Y-146944840D01*
X202993878Y-146924593D01*
X202993878Y-146904347D01*
X203232787Y-146904347D01*
X203274532Y-146904339D01*
X203311198Y-146904311D01*
X203343106Y-146904258D01*
X203370576Y-146904175D01*
X203393928Y-146904056D01*
X203413483Y-146903895D01*
X203429561Y-146903687D01*
X203442483Y-146903428D01*
X203452569Y-146903110D01*
X203460140Y-146902730D01*
X203465515Y-146902281D01*
X203469016Y-146901758D01*
X203470962Y-146901155D01*
X203471674Y-146900468D01*
X203471697Y-146900297D01*
X203471224Y-146899590D01*
X203469590Y-146898968D01*
X203466476Y-146898427D01*
X203461561Y-146897962D01*
X203454524Y-146897566D01*
X203445046Y-146897235D01*
X203432805Y-146896962D01*
X203417482Y-146896743D01*
X203398756Y-146896572D01*
X203376306Y-146896444D01*
X203349813Y-146896353D01*
X203318956Y-146896293D01*
X203283414Y-146896260D01*
X203242867Y-146896248D01*
X203232787Y-146896248D01*
X202993878Y-146896248D01*
X202993878Y-146830109D01*
X202993878Y-146763970D01*
X203088316Y-146763970D01*
X203182755Y-146763970D01*
X203183475Y-146694457D01*
X203184196Y-146624944D01*
X203330646Y-146624246D01*
X203477096Y-146623548D01*
X203477096Y-146836831D01*
G37*
G36*
X208466971Y-146246548D02*
G01*
X208473827Y-146257617D01*
X208479432Y-146267268D01*
X208483219Y-146274480D01*
X208484619Y-146278230D01*
X208484618Y-146278268D01*
X208483908Y-146281611D01*
X208481932Y-146289612D01*
X208478835Y-146301716D01*
X208474760Y-146317369D01*
X208469853Y-146336016D01*
X208464259Y-146357104D01*
X208458123Y-146380078D01*
X208454108Y-146395030D01*
X208423728Y-146507958D01*
X208388774Y-146530007D01*
X208353820Y-146552056D01*
X208210914Y-146553406D01*
X208068008Y-146554756D01*
X208061895Y-146579052D01*
X208059008Y-146590522D01*
X208056477Y-146600579D01*
X208054695Y-146607656D01*
X208054250Y-146609421D01*
X208052719Y-146615495D01*
X208234989Y-146615495D01*
X208272188Y-146615514D01*
X208304306Y-146615575D01*
X208331660Y-146615684D01*
X208354569Y-146615847D01*
X208373351Y-146616069D01*
X208388323Y-146616357D01*
X208399803Y-146616716D01*
X208408110Y-146617153D01*
X208413560Y-146617672D01*
X208416473Y-146618281D01*
X208417190Y-146618870D01*
X208416494Y-146622408D01*
X208414593Y-146630311D01*
X208411700Y-146641737D01*
X208408031Y-146655842D01*
X208403799Y-146671783D01*
X208402966Y-146674885D01*
X208388812Y-146727527D01*
X208135781Y-146728215D01*
X208094054Y-146728303D01*
X208055330Y-146728332D01*
X208019860Y-146728304D01*
X207987893Y-146728221D01*
X207959680Y-146728085D01*
X207935471Y-146727897D01*
X207915514Y-146727660D01*
X207900061Y-146727374D01*
X207889361Y-146727043D01*
X207883664Y-146726667D01*
X207882750Y-146726427D01*
X207883428Y-146723625D01*
X207885384Y-146716043D01*
X207888502Y-146704118D01*
X207892666Y-146688286D01*
X207897759Y-146668983D01*
X207903667Y-146646645D01*
X207910271Y-146621710D01*
X207917458Y-146594613D01*
X207925109Y-146565791D01*
X207933109Y-146535679D01*
X207941343Y-146504715D01*
X207949693Y-146473334D01*
X207958044Y-146441974D01*
X207959463Y-146436651D01*
X208101432Y-146436651D01*
X208102532Y-146437546D01*
X208106119Y-146438279D01*
X208112603Y-146438864D01*
X208122396Y-146439313D01*
X208135910Y-146439641D01*
X208153556Y-146439860D01*
X208175745Y-146439983D01*
X208202889Y-146440025D01*
X208205242Y-146440025D01*
X208309070Y-146440025D01*
X208311764Y-146429902D01*
X208313410Y-146423743D01*
X208316135Y-146413576D01*
X208319617Y-146400608D01*
X208323530Y-146386043D01*
X208325347Y-146379285D01*
X208329107Y-146365100D01*
X208332307Y-146352636D01*
X208334703Y-146342878D01*
X208336050Y-146336812D01*
X208336255Y-146335418D01*
X208335154Y-146334522D01*
X208331568Y-146333789D01*
X208325084Y-146333205D01*
X208315290Y-146332755D01*
X208301777Y-146332428D01*
X208284131Y-146332209D01*
X208261942Y-146332085D01*
X208234798Y-146332044D01*
X208232445Y-146332043D01*
X208128617Y-146332043D01*
X208125923Y-146342167D01*
X208124277Y-146348326D01*
X208121551Y-146358493D01*
X208118070Y-146371461D01*
X208114157Y-146386025D01*
X208112340Y-146392783D01*
X208108580Y-146406969D01*
X208105379Y-146419433D01*
X208102983Y-146429191D01*
X208101636Y-146435257D01*
X208101432Y-146436651D01*
X207959463Y-146436651D01*
X207966280Y-146411069D01*
X207974284Y-146381057D01*
X207981941Y-146352374D01*
X207989133Y-146325456D01*
X207995746Y-146300739D01*
X208001663Y-146278660D01*
X208006767Y-146259655D01*
X208010943Y-146244161D01*
X208014075Y-146232613D01*
X208016046Y-146225449D01*
X208016639Y-146223387D01*
X208017140Y-146222527D01*
X208018312Y-146221778D01*
X208020504Y-146221132D01*
X208024066Y-146220582D01*
X208029346Y-146220120D01*
X208036694Y-146219738D01*
X208046458Y-146219429D01*
X208058989Y-146219185D01*
X208074636Y-146218998D01*
X208093747Y-146218862D01*
X208116671Y-146218768D01*
X208143759Y-146218709D01*
X208175358Y-146218677D01*
X208211820Y-146218664D01*
X208233643Y-146218663D01*
X208449195Y-146218663D01*
X208466971Y-146246548D01*
G37*
G36*
X209441891Y-146062499D02*
G01*
X209450612Y-146062746D01*
X209456299Y-146063210D01*
X209459545Y-146063926D01*
X209460941Y-146064928D01*
X209461078Y-146066252D01*
X209460947Y-146066768D01*
X209459436Y-146072119D01*
X209456894Y-146081449D01*
X209453536Y-146093951D01*
X209449573Y-146108819D01*
X209445218Y-146125246D01*
X209440683Y-146142423D01*
X209436181Y-146159545D01*
X209431924Y-146175805D01*
X209428125Y-146190394D01*
X209424996Y-146202506D01*
X209422749Y-146211334D01*
X209421598Y-146216072D01*
X209421491Y-146216638D01*
X209424070Y-146217192D01*
X209431323Y-146217688D01*
X209442529Y-146218105D01*
X209456962Y-146218420D01*
X209473900Y-146218612D01*
X209488819Y-146218663D01*
X209507321Y-146218740D01*
X209523972Y-146218959D01*
X209538030Y-146219298D01*
X209548756Y-146219733D01*
X209555409Y-146220244D01*
X209557300Y-146220687D01*
X209556999Y-146223823D01*
X209555460Y-146231297D01*
X209552887Y-146242245D01*
X209549480Y-146255802D01*
X209545754Y-146269954D01*
X209541543Y-146285653D01*
X209537710Y-146299999D01*
X209534521Y-146311993D01*
X209532242Y-146320634D01*
X209531213Y-146324620D01*
X209529369Y-146332043D01*
X209459232Y-146332043D01*
X209440410Y-146332100D01*
X209423496Y-146332260D01*
X209409201Y-146332507D01*
X209398232Y-146332826D01*
X209391299Y-146333201D01*
X209389095Y-146333583D01*
X209388416Y-146336412D01*
X209386467Y-146343964D01*
X209383377Y-146355749D01*
X209379275Y-146371276D01*
X209374293Y-146390056D01*
X209368561Y-146411596D01*
X209362207Y-146435407D01*
X209355362Y-146460999D01*
X209352651Y-146471119D01*
X209345647Y-146497310D01*
X209339085Y-146521948D01*
X209333096Y-146544539D01*
X209327810Y-146564586D01*
X209323357Y-146581590D01*
X209319869Y-146595057D01*
X209317474Y-146604489D01*
X209316304Y-146609389D01*
X209316208Y-146609956D01*
X209318756Y-146610958D01*
X209326443Y-146611741D01*
X209339331Y-146612306D01*
X209357480Y-146612656D01*
X209380953Y-146612793D01*
X209385046Y-146612796D01*
X209403684Y-146612872D01*
X209420405Y-146613085D01*
X209434495Y-146613416D01*
X209445237Y-146613842D01*
X209451916Y-146614342D01*
X209453865Y-146614821D01*
X209453168Y-146617923D01*
X209451235Y-146625418D01*
X209448281Y-146636501D01*
X209444521Y-146650366D01*
X209440170Y-146666204D01*
X209439017Y-146670372D01*
X209434561Y-146686510D01*
X209430641Y-146700809D01*
X209427471Y-146712479D01*
X209425265Y-146720730D01*
X209424237Y-146724774D01*
X209424189Y-146725038D01*
X209421592Y-146725362D01*
X209414210Y-146725631D01*
X209402655Y-146725847D01*
X209387542Y-146726011D01*
X209369484Y-146726126D01*
X209349093Y-146726193D01*
X209326985Y-146726215D01*
X209303771Y-146726193D01*
X209280066Y-146726129D01*
X209256482Y-146726025D01*
X209233634Y-146725883D01*
X209212134Y-146725706D01*
X209192596Y-146725495D01*
X209175634Y-146725251D01*
X209161860Y-146724978D01*
X209151888Y-146724677D01*
X209146332Y-146724349D01*
X209145376Y-146724152D01*
X209145882Y-146721277D01*
X209147690Y-146713606D01*
X209150691Y-146701554D01*
X209154776Y-146685537D01*
X209159839Y-146665970D01*
X209165770Y-146643270D01*
X209172463Y-146617851D01*
X209179808Y-146590129D01*
X209187698Y-146560519D01*
X209195026Y-146533159D01*
X209203364Y-146502098D01*
X209211315Y-146472463D01*
X209218767Y-146444683D01*
X209225604Y-146419186D01*
X209231711Y-146396398D01*
X209236975Y-146376748D01*
X209241280Y-146360663D01*
X209244512Y-146348571D01*
X209246556Y-146340899D01*
X209247276Y-146338166D01*
X209248797Y-146332141D01*
X209185832Y-146331418D01*
X209122867Y-146330694D01*
X209136625Y-146279402D01*
X209140972Y-146263303D01*
X209144943Y-146248787D01*
X209148293Y-146236743D01*
X209150774Y-146228056D01*
X209152140Y-146223613D01*
X209152205Y-146223437D01*
X209153224Y-146221935D01*
X209155400Y-146220773D01*
X209159387Y-146219898D01*
X209165839Y-146219254D01*
X209175411Y-146218787D01*
X209188757Y-146218441D01*
X209206532Y-146218164D01*
X209216895Y-146218038D01*
X209279764Y-146217313D01*
X209300314Y-146140376D01*
X209320864Y-146063439D01*
X209391620Y-146062719D01*
X209412987Y-146062520D01*
X209429547Y-146062436D01*
X209441891Y-146062499D01*
G37*
G36*
X211055926Y-146062729D02*
G01*
X211149122Y-146063439D01*
X210935445Y-146213264D01*
X210904979Y-146234631D01*
X210875698Y-146255178D01*
X210847913Y-146274685D01*
X210821936Y-146292933D01*
X210798080Y-146309703D01*
X210776654Y-146324776D01*
X210757971Y-146337932D01*
X210742342Y-146348952D01*
X210730079Y-146357617D01*
X210721493Y-146363708D01*
X210716897Y-146367005D01*
X210716253Y-146367487D01*
X210715318Y-146368385D01*
X210714788Y-146369564D01*
X210714858Y-146371314D01*
X210715721Y-146373928D01*
X210717573Y-146377697D01*
X210720608Y-146382912D01*
X210725020Y-146389864D01*
X210731005Y-146398846D01*
X210738756Y-146410148D01*
X210748468Y-146424062D01*
X210760335Y-146440879D01*
X210774553Y-146460891D01*
X210791315Y-146484389D01*
X210810816Y-146511665D01*
X210833251Y-146543010D01*
X210835497Y-146546147D01*
X210855056Y-146573491D01*
X210873714Y-146599622D01*
X210891230Y-146624200D01*
X210907362Y-146646884D01*
X210921871Y-146667336D01*
X210934515Y-146685213D01*
X210945054Y-146700177D01*
X210953246Y-146711887D01*
X210958851Y-146720003D01*
X210961627Y-146724185D01*
X210961882Y-146724643D01*
X210961893Y-146725845D01*
X210960542Y-146726799D01*
X210957290Y-146727531D01*
X210951599Y-146728071D01*
X210942932Y-146728447D01*
X210930750Y-146728687D01*
X210914514Y-146728819D01*
X210893688Y-146728871D01*
X210881352Y-146728876D01*
X210858153Y-146728868D01*
X210839750Y-146728817D01*
X210825541Y-146728680D01*
X210814922Y-146728416D01*
X210807292Y-146727983D01*
X210802047Y-146727339D01*
X210798585Y-146726443D01*
X210796302Y-146725252D01*
X210794597Y-146723725D01*
X210793755Y-146722802D01*
X210791178Y-146719493D01*
X210785777Y-146712218D01*
X210777862Y-146701406D01*
X210767743Y-146687487D01*
X210755733Y-146670890D01*
X210742141Y-146652044D01*
X210727280Y-146631379D01*
X210711459Y-146609323D01*
X210703778Y-146598595D01*
X210687785Y-146576314D01*
X210672722Y-146555461D01*
X210658881Y-146536432D01*
X210646555Y-146519621D01*
X210636035Y-146505424D01*
X210627612Y-146494235D01*
X210621579Y-146486450D01*
X210618228Y-146482464D01*
X210617641Y-146482025D01*
X210616637Y-146484872D01*
X210614389Y-146492417D01*
X210611042Y-146504141D01*
X210606740Y-146519523D01*
X210601626Y-146538045D01*
X210595846Y-146559187D01*
X210589543Y-146582428D01*
X210583317Y-146605557D01*
X210550597Y-146727527D01*
X210481597Y-146728247D01*
X210462856Y-146728364D01*
X210445956Y-146728320D01*
X210431629Y-146728130D01*
X210420607Y-146727806D01*
X210413620Y-146727364D01*
X210411395Y-146726897D01*
X210411930Y-146724079D01*
X210413788Y-146716364D01*
X210416885Y-146704065D01*
X210421138Y-146687499D01*
X210426464Y-146666979D01*
X210432781Y-146642822D01*
X210440006Y-146615341D01*
X210448056Y-146584853D01*
X210456848Y-146551672D01*
X210466300Y-146516113D01*
X210476328Y-146478491D01*
X210486849Y-146439122D01*
X210497457Y-146399532D01*
X210508416Y-146358675D01*
X210519003Y-146319204D01*
X210529130Y-146281440D01*
X210538712Y-146245702D01*
X210547664Y-146212312D01*
X210555899Y-146181589D01*
X210563331Y-146153855D01*
X210569875Y-146129428D01*
X210575445Y-146108630D01*
X210579955Y-146091781D01*
X210583319Y-146079202D01*
X210585451Y-146071212D01*
X210586258Y-146068163D01*
X210587795Y-146062089D01*
X210657932Y-146062089D01*
X210676754Y-146062144D01*
X210693668Y-146062299D01*
X210707963Y-146062539D01*
X210718932Y-146062848D01*
X210725865Y-146063212D01*
X210728069Y-146063583D01*
X210727399Y-146066467D01*
X210725521Y-146073826D01*
X210722630Y-146084923D01*
X210718925Y-146099020D01*
X210714601Y-146115379D01*
X210709855Y-146133263D01*
X210704883Y-146151933D01*
X210699882Y-146170651D01*
X210695049Y-146188682D01*
X210690580Y-146205285D01*
X210686671Y-146219725D01*
X210683520Y-146231262D01*
X210681323Y-146239159D01*
X210680789Y-146241019D01*
X210679128Y-146247994D01*
X210678942Y-146251946D01*
X210679659Y-146252294D01*
X210682310Y-146250537D01*
X210689050Y-146246026D01*
X210699493Y-146239023D01*
X210713250Y-146229789D01*
X210729932Y-146218585D01*
X210749151Y-146205671D01*
X210770517Y-146191309D01*
X210793644Y-146175759D01*
X210818141Y-146159283D01*
X210822515Y-146156340D01*
X210962729Y-146062019D01*
X211055926Y-146062729D01*
G37*
G36*
X204921369Y-146367174D02*
G01*
X204926503Y-146369228D01*
X204930462Y-146372223D01*
X204936752Y-146381486D01*
X204940512Y-146394434D01*
X204941507Y-146409862D01*
X204940273Y-146422478D01*
X204938844Y-146431321D01*
X204937862Y-146437875D01*
X204937564Y-146440394D01*
X204939961Y-146441755D01*
X204946076Y-146443293D01*
X204950308Y-146444025D01*
X204964455Y-146447576D01*
X204977160Y-146453368D01*
X204986487Y-146460512D01*
X204986713Y-146460758D01*
X204994214Y-146472795D01*
X204998497Y-146488099D01*
X204999363Y-146505461D01*
X204996932Y-146522361D01*
X204995950Y-146528862D01*
X204994976Y-146539499D01*
X204994101Y-146553011D01*
X204993415Y-146568137D01*
X204993195Y-146575002D01*
X204991831Y-146602966D01*
X204989268Y-146634910D01*
X204985672Y-146669590D01*
X204981207Y-146705762D01*
X204976041Y-146742184D01*
X204970338Y-146777610D01*
X204964264Y-146810798D01*
X204957986Y-146840503D01*
X204957581Y-146842257D01*
X204950667Y-146868681D01*
X204941819Y-146897365D01*
X204931665Y-146926532D01*
X204920834Y-146954404D01*
X204909954Y-146979204D01*
X204906995Y-146985333D01*
X204890307Y-147019077D01*
X204824843Y-147019800D01*
X204806688Y-147019908D01*
X204790467Y-147019828D01*
X204776913Y-147019578D01*
X204766760Y-147019176D01*
X204760741Y-147018640D01*
X204759379Y-147018180D01*
X204760845Y-147014777D01*
X204764568Y-147008791D01*
X204766998Y-147005310D01*
X204789029Y-146971285D01*
X204809265Y-146932809D01*
X204827434Y-146890612D01*
X204843265Y-146845422D01*
X204856487Y-146797969D01*
X204866827Y-146748981D01*
X204870274Y-146727937D01*
X204872599Y-146711703D01*
X204873985Y-146700075D01*
X204874477Y-146692351D01*
X204874118Y-146687828D01*
X204872954Y-146685804D01*
X204872920Y-146685783D01*
X204869218Y-146684718D01*
X204861749Y-146683340D01*
X204851844Y-146681820D01*
X204840833Y-146680329D01*
X204830045Y-146679038D01*
X204820811Y-146678119D01*
X204814460Y-146677744D01*
X204812326Y-146677973D01*
X204811643Y-146680841D01*
X204810266Y-146688038D01*
X204808378Y-146698565D01*
X204806161Y-146711425D01*
X204805494Y-146715379D01*
X204794393Y-146770873D01*
X204780404Y-146821992D01*
X204763414Y-146868991D01*
X204743311Y-146912126D01*
X204719983Y-146951651D01*
X204693318Y-146987821D01*
X204678183Y-147005295D01*
X204664353Y-147020427D01*
X204579588Y-147020427D01*
X204558814Y-147020360D01*
X204539885Y-147020170D01*
X204523445Y-147019873D01*
X204510140Y-147019487D01*
X204500615Y-147019028D01*
X204495514Y-147018512D01*
X204494824Y-147018232D01*
X204496623Y-147015181D01*
X204501138Y-147010148D01*
X204503225Y-147008109D01*
X204511525Y-146999521D01*
X204521934Y-146987627D01*
X204533530Y-146973586D01*
X204545391Y-146958561D01*
X204556594Y-146943712D01*
X204566216Y-146930200D01*
X204571540Y-146922124D01*
X204597308Y-146876026D01*
X204618321Y-146827462D01*
X204634515Y-146776641D01*
X204645826Y-146723771D01*
X204652188Y-146669063D01*
X204652768Y-146659681D01*
X204653219Y-146645169D01*
X204653148Y-146629423D01*
X204652625Y-146613462D01*
X204651718Y-146598307D01*
X204650496Y-146584977D01*
X204649026Y-146574493D01*
X204647378Y-146567875D01*
X204646505Y-146566330D01*
X204642550Y-146565277D01*
X204633923Y-146564908D01*
X204621307Y-146565236D01*
X204613897Y-146565655D01*
X204583909Y-146567598D01*
X204583909Y-146619754D01*
X204583213Y-146656827D01*
X204581051Y-146689697D01*
X204577313Y-146719387D01*
X204571888Y-146746921D01*
X204568963Y-146758530D01*
X204553972Y-146804102D01*
X204534069Y-146848041D01*
X204509668Y-146889493D01*
X204496963Y-146907603D01*
X204486427Y-146920846D01*
X204472870Y-146936431D01*
X204457394Y-146953211D01*
X204441098Y-146970039D01*
X204425083Y-146985767D01*
X204410450Y-146999249D01*
X204402739Y-147005824D01*
X204384891Y-147020427D01*
X204257638Y-147020427D01*
X204130385Y-147020427D01*
X204130385Y-146999262D01*
X204131452Y-146979595D01*
X204134852Y-146960397D01*
X204140887Y-146940948D01*
X204149856Y-146920529D01*
X204150980Y-146918492D01*
X204233322Y-146918492D01*
X204247258Y-146946513D01*
X204252977Y-146957550D01*
X204258072Y-146966539D01*
X204261967Y-146972519D01*
X204264019Y-146974535D01*
X204267514Y-146973271D01*
X204274406Y-146969901D01*
X204283435Y-146965053D01*
X204287174Y-146962949D01*
X204322136Y-146939969D01*
X204353873Y-146912898D01*
X204382134Y-146882149D01*
X204406670Y-146848134D01*
X204427231Y-146811269D01*
X204443565Y-146771965D01*
X204455423Y-146730638D01*
X204462555Y-146687699D01*
X204464001Y-146670629D01*
X204464322Y-146659668D01*
X204464148Y-146646871D01*
X204463565Y-146633443D01*
X204462656Y-146620588D01*
X204461508Y-146609510D01*
X204460206Y-146601414D01*
X204458835Y-146597504D01*
X204458826Y-146597494D01*
X204455945Y-146597510D01*
X204448839Y-146598271D01*
X204438610Y-146599642D01*
X204427580Y-146601297D01*
X204397283Y-146606047D01*
X204396467Y-146645190D01*
X204393827Y-146684524D01*
X204387432Y-146720648D01*
X204376986Y-146754496D01*
X204362197Y-146787001D01*
X204342770Y-146819096D01*
X204340749Y-146822047D01*
X204328482Y-146837810D01*
X204312848Y-146854918D01*
X204295192Y-146872078D01*
X204276861Y-146888000D01*
X204259199Y-146901393D01*
X204255335Y-146904005D01*
X204233322Y-146918492D01*
X204150980Y-146918492D01*
X204162059Y-146898418D01*
X204177798Y-146873896D01*
X204189916Y-146856532D01*
X204200168Y-146841761D01*
X204210480Y-146826119D01*
X204219893Y-146811114D01*
X204227447Y-146798254D01*
X204229934Y-146793665D01*
X204244154Y-146763146D01*
X204256182Y-146730124D01*
X204266152Y-146694041D01*
X204274204Y-146654340D01*
X204280473Y-146610461D01*
X204284256Y-146572482D01*
X204285416Y-146559606D01*
X204286556Y-146548803D01*
X204287551Y-146541147D01*
X204288276Y-146537710D01*
X204288321Y-146537646D01*
X204291068Y-146536737D01*
X204298607Y-146534513D01*
X204310525Y-146531090D01*
X204326408Y-146526583D01*
X204345844Y-146521109D01*
X204368419Y-146514785D01*
X204393720Y-146507726D01*
X204421333Y-146500048D01*
X204450844Y-146491868D01*
X204477919Y-146484384D01*
X204523375Y-146471835D01*
X204563974Y-146460625D01*
X204600064Y-146450658D01*
X204631992Y-146441836D01*
X204660106Y-146434063D01*
X204684755Y-146427242D01*
X204706284Y-146421274D01*
X204725043Y-146416065D01*
X204741378Y-146411516D01*
X204755637Y-146407531D01*
X204768168Y-146404012D01*
X204779319Y-146400863D01*
X204789437Y-146397987D01*
X204798870Y-146395286D01*
X204807966Y-146392664D01*
X204817071Y-146390024D01*
X204826534Y-146387268D01*
X204836703Y-146384300D01*
X204837666Y-146384019D01*
X204860912Y-146377358D01*
X204879641Y-146372340D01*
X204894451Y-146368889D01*
X204905942Y-146366929D01*
X204914715Y-146366382D01*
X204921369Y-146367174D01*
G37*
G36*
X204411457Y-147155387D02*
G01*
X204496873Y-147155391D01*
X204577338Y-147155399D01*
X204653000Y-147155411D01*
X204724007Y-147155429D01*
X204790510Y-147155452D01*
X204852658Y-147155482D01*
X204910598Y-147155518D01*
X204964481Y-147155561D01*
X205014456Y-147155612D01*
X205060670Y-147155671D01*
X205103275Y-147155740D01*
X205142418Y-147155817D01*
X205178248Y-147155904D01*
X205210915Y-147156002D01*
X205240568Y-147156110D01*
X205267355Y-147156230D01*
X205291427Y-147156362D01*
X205312931Y-147156507D01*
X205332017Y-147156664D01*
X205348834Y-147156835D01*
X205363531Y-147157020D01*
X205376257Y-147157220D01*
X205387161Y-147157435D01*
X205396392Y-147157665D01*
X205404099Y-147157912D01*
X205410432Y-147158176D01*
X205415539Y-147158456D01*
X205419569Y-147158755D01*
X205422671Y-147159072D01*
X205424995Y-147159407D01*
X205426243Y-147159655D01*
X205443095Y-147165075D01*
X205455478Y-147172836D01*
X205463965Y-147183338D01*
X205466093Y-147187673D01*
X205468271Y-147195819D01*
X205469951Y-147208173D01*
X205471115Y-147223564D01*
X205471740Y-147240822D01*
X205471808Y-147258777D01*
X205471299Y-147276257D01*
X205470191Y-147292093D01*
X205468465Y-147305115D01*
X205468144Y-147306792D01*
X205460480Y-147333918D01*
X205449275Y-147357014D01*
X205434566Y-147376040D01*
X205416389Y-147390956D01*
X205394782Y-147401721D01*
X205377095Y-147406885D01*
X205369590Y-147407863D01*
X205356794Y-147408680D01*
X205338810Y-147409334D01*
X205315744Y-147409821D01*
X205287700Y-147410138D01*
X205259401Y-147410273D01*
X205156075Y-147410511D01*
X205153353Y-147421309D01*
X205141085Y-147459233D01*
X205124071Y-147494619D01*
X205102408Y-147527296D01*
X205076789Y-147556500D01*
X205047570Y-147582211D01*
X205016252Y-147602957D01*
X204982696Y-147618805D01*
X204946766Y-147629819D01*
X204910553Y-147635841D01*
X204898977Y-147636973D01*
X204889178Y-147637782D01*
X204882575Y-147638157D01*
X204880858Y-147638143D01*
X204875478Y-147637631D01*
X204867907Y-147636910D01*
X204867361Y-147636858D01*
X204826022Y-147630637D01*
X204787485Y-147620182D01*
X204751979Y-147605610D01*
X204719732Y-147587038D01*
X204690974Y-147564585D01*
X204665932Y-147538367D01*
X204659346Y-147530008D01*
X204638279Y-147497580D01*
X204621389Y-147461787D01*
X204608736Y-147422756D01*
X204608193Y-147420634D01*
X204605297Y-147409161D01*
X204230820Y-147409161D01*
X203856343Y-147409161D01*
X203850102Y-147431432D01*
X203837207Y-147467754D01*
X203819797Y-147501415D01*
X203798218Y-147532100D01*
X203772821Y-147559492D01*
X203743951Y-147583275D01*
X203711958Y-147603133D01*
X203677190Y-147618751D01*
X203639994Y-147629811D01*
X203629276Y-147632032D01*
X203608106Y-147634714D01*
X203583871Y-147635663D01*
X203558557Y-147634947D01*
X203534148Y-147632632D01*
X203512626Y-147628785D01*
X203509491Y-147628007D01*
X203474384Y-147616177D01*
X203440470Y-147599416D01*
X203408546Y-147578177D01*
X203381686Y-147555140D01*
X203359647Y-147531396D01*
X203341523Y-147506230D01*
X203326824Y-147478732D01*
X203315062Y-147447994D01*
X203306058Y-147414495D01*
X203304528Y-147407681D01*
X203274057Y-147409915D01*
X203258163Y-147410776D01*
X203239326Y-147411301D01*
X203218432Y-147411512D01*
X203196365Y-147411430D01*
X203174010Y-147411076D01*
X203152253Y-147410473D01*
X203131977Y-147409641D01*
X203114069Y-147408601D01*
X203099413Y-147407377D01*
X203088894Y-147405987D01*
X203085896Y-147405354D01*
X203063878Y-147397755D01*
X203045020Y-147386693D01*
X203027963Y-147371495D01*
X203017850Y-147360029D01*
X203014365Y-147355068D01*
X203464077Y-147355068D01*
X203465006Y-147376722D01*
X203470218Y-147398211D01*
X203479963Y-147418962D01*
X203494493Y-147438405D01*
X203495476Y-147439467D01*
X203513629Y-147455795D01*
X203533168Y-147467155D01*
X203554749Y-147473814D01*
X203579030Y-147476040D01*
X203585078Y-147475953D01*
X203598380Y-147475285D01*
X203608327Y-147473994D01*
X203616958Y-147471645D01*
X203626313Y-147467802D01*
X203628968Y-147466573D01*
X203650228Y-147453897D01*
X203667731Y-147437972D01*
X203681347Y-147419455D01*
X203690945Y-147399001D01*
X203696394Y-147377266D01*
X203696732Y-147370816D01*
X204765081Y-147370816D01*
X204769105Y-147393163D01*
X204777911Y-147415158D01*
X204783622Y-147424949D01*
X204798798Y-147444279D01*
X204816410Y-147458919D01*
X204836692Y-147468984D01*
X204859874Y-147474592D01*
X204885154Y-147475888D01*
X204898149Y-147475412D01*
X204907609Y-147474484D01*
X204915400Y-147472686D01*
X204923386Y-147469598D01*
X204932640Y-147465190D01*
X204953876Y-147451938D01*
X204971136Y-147435064D01*
X204984639Y-147414344D01*
X204986865Y-147409811D01*
X204994167Y-147388152D01*
X204997021Y-147364688D01*
X204995344Y-147340791D01*
X204991882Y-147325993D01*
X204982372Y-147303572D01*
X204968650Y-147284100D01*
X204951299Y-147268036D01*
X204930898Y-147255840D01*
X204908029Y-147247975D01*
X204890013Y-147245224D01*
X204865741Y-147245821D01*
X204843302Y-147251049D01*
X204823023Y-147260355D01*
X204805233Y-147273184D01*
X204790259Y-147288985D01*
X204778429Y-147307201D01*
X204770071Y-147327281D01*
X204765513Y-147348671D01*
X204765081Y-147370816D01*
X203696732Y-147370816D01*
X203697565Y-147354907D01*
X203694327Y-147332580D01*
X203686548Y-147310940D01*
X203674100Y-147290645D01*
X203665876Y-147280986D01*
X203647403Y-147264589D01*
X203627505Y-147253229D01*
X203605520Y-147246624D01*
X203580823Y-147244489D01*
X203556493Y-147246884D01*
X203534444Y-147253687D01*
X203514927Y-147264327D01*
X203498192Y-147278232D01*
X203484490Y-147294831D01*
X203474069Y-147313551D01*
X203467182Y-147333820D01*
X203464077Y-147355068D01*
X203014365Y-147355068D01*
X203009887Y-147348692D01*
X203003836Y-147336643D01*
X202999461Y-147323037D01*
X202996524Y-147307033D01*
X202994788Y-147287786D01*
X202994017Y-147264455D01*
X202993918Y-147250455D01*
X202993962Y-147232504D01*
X202994178Y-147219056D01*
X202994646Y-147209218D01*
X202995443Y-147202095D01*
X202996646Y-147196792D01*
X202998334Y-147192414D01*
X202999118Y-147190810D01*
X203007550Y-147178788D01*
X203019284Y-147167881D01*
X203032275Y-147159957D01*
X203033415Y-147159463D01*
X203034644Y-147159135D01*
X203036815Y-147158825D01*
X203040073Y-147158533D01*
X203044564Y-147158258D01*
X203050435Y-147157999D01*
X203057829Y-147157755D01*
X203066893Y-147157528D01*
X203077772Y-147157315D01*
X203090612Y-147157117D01*
X203105557Y-147156932D01*
X203122755Y-147156761D01*
X203142349Y-147156603D01*
X203164486Y-147156457D01*
X203189311Y-147156323D01*
X203216969Y-147156201D01*
X203247607Y-147156090D01*
X203281369Y-147155989D01*
X203318401Y-147155898D01*
X203358848Y-147155816D01*
X203402857Y-147155743D01*
X203450571Y-147155679D01*
X203502138Y-147155623D01*
X203557702Y-147155574D01*
X203617410Y-147155532D01*
X203681405Y-147155497D01*
X203749834Y-147155467D01*
X203822843Y-147155443D01*
X203900577Y-147155424D01*
X203983181Y-147155410D01*
X204070801Y-147155399D01*
X204163582Y-147155392D01*
X204225172Y-147155389D01*
X204320939Y-147155386D01*
X204411457Y-147155387D01*
G37*
G36*
X204136876Y-145271117D02*
G01*
X204186983Y-145271122D01*
X204205973Y-145271123D01*
X204257948Y-145271120D01*
X204304809Y-145271119D01*
X204346843Y-145271132D01*
X204384333Y-145271168D01*
X204417566Y-145271240D01*
X204446826Y-145271359D01*
X204472400Y-145271535D01*
X204494572Y-145271781D01*
X204513628Y-145272107D01*
X204529853Y-145272524D01*
X204543533Y-145273045D01*
X204554953Y-145273679D01*
X204564398Y-145274438D01*
X204572154Y-145275333D01*
X204578506Y-145276376D01*
X204583739Y-145277577D01*
X204588140Y-145278949D01*
X204591992Y-145280501D01*
X204595583Y-145282246D01*
X204599196Y-145284194D01*
X204603117Y-145286357D01*
X204603813Y-145286734D01*
X204612681Y-145292346D01*
X204623154Y-145300152D01*
X204633038Y-145308511D01*
X204633480Y-145308917D01*
X204651076Y-145327636D01*
X204664191Y-145347576D01*
X204673232Y-145369636D01*
X204678602Y-145394712D01*
X204680292Y-145412612D01*
X204681840Y-145439844D01*
X204722634Y-145439844D01*
X204738682Y-145439912D01*
X204750384Y-145440196D01*
X204758791Y-145440816D01*
X204764957Y-145441895D01*
X204769932Y-145443552D01*
X204774611Y-145445825D01*
X204787006Y-145454639D01*
X204797728Y-145466298D01*
X204805376Y-145479115D01*
X204807690Y-145485740D01*
X204808501Y-145491780D01*
X204809186Y-145502431D01*
X204809744Y-145516909D01*
X204810176Y-145534426D01*
X204810480Y-145554198D01*
X204810657Y-145575438D01*
X204810706Y-145597361D01*
X204810626Y-145619180D01*
X204810419Y-145640110D01*
X204810082Y-145659365D01*
X204809617Y-145676160D01*
X204809022Y-145689708D01*
X204808297Y-145699223D01*
X204807776Y-145702780D01*
X204801486Y-145719628D01*
X204790655Y-145734220D01*
X204776365Y-145745387D01*
X204771222Y-145748295D01*
X204766607Y-145750348D01*
X204761460Y-145751694D01*
X204754722Y-145752483D01*
X204745333Y-145752862D01*
X204732234Y-145752982D01*
X204722259Y-145752991D01*
X204681090Y-145752991D01*
X204681038Y-145774588D01*
X204679708Y-145803035D01*
X204675649Y-145827534D01*
X204668533Y-145848973D01*
X204658031Y-145868238D01*
X204643815Y-145886219D01*
X204637202Y-145893066D01*
X204627159Y-145902333D01*
X204616686Y-145910943D01*
X204607446Y-145917569D01*
X204603953Y-145919646D01*
X204599902Y-145921837D01*
X204596216Y-145923813D01*
X204592609Y-145925585D01*
X204588796Y-145927163D01*
X204584493Y-145928558D01*
X204579413Y-145929782D01*
X204573272Y-145930845D01*
X204565785Y-145931758D01*
X204556667Y-145932533D01*
X204545632Y-145933179D01*
X204532394Y-145933709D01*
X204516670Y-145934133D01*
X204498174Y-145934462D01*
X204476620Y-145934707D01*
X204451724Y-145934879D01*
X204423200Y-145934988D01*
X204390763Y-145935047D01*
X204354128Y-145935065D01*
X204313010Y-145935054D01*
X204267123Y-145935025D01*
X204216183Y-145934989D01*
X204204731Y-145934981D01*
X204150423Y-145934934D01*
X204101300Y-145934864D01*
X204057144Y-145934769D01*
X204017742Y-145934649D01*
X203982878Y-145934499D01*
X203952337Y-145934319D01*
X203925903Y-145934107D01*
X203903361Y-145933859D01*
X203884496Y-145933575D01*
X203869092Y-145933252D01*
X203856935Y-145932888D01*
X203847808Y-145932481D01*
X203841498Y-145932029D01*
X203837787Y-145931529D01*
X203837485Y-145931461D01*
X203817817Y-145924440D01*
X203797917Y-145913385D01*
X203779209Y-145899358D01*
X203763121Y-145883420D01*
X203751579Y-145867506D01*
X203744140Y-145853425D01*
X203738772Y-145839723D01*
X203735123Y-145824969D01*
X203732838Y-145807731D01*
X203731563Y-145786575D01*
X203731558Y-145786423D01*
X203730184Y-145749666D01*
X203719046Y-145752242D01*
X203711767Y-145753204D01*
X203700733Y-145753802D01*
X203687578Y-145753978D01*
X203676827Y-145753780D01*
X203661982Y-145753093D01*
X203651138Y-145752035D01*
X203642898Y-145750377D01*
X203635865Y-145747889D01*
X203633022Y-145746583D01*
X203618660Y-145737203D01*
X203608720Y-145725269D01*
X203604263Y-145714400D01*
X203603355Y-145708173D01*
X203602512Y-145697353D01*
X203601744Y-145682747D01*
X203601066Y-145665163D01*
X203600489Y-145645406D01*
X203600027Y-145624284D01*
X203599692Y-145602603D01*
X203599497Y-145581169D01*
X203599492Y-145578761D01*
X203908827Y-145578761D01*
X203908955Y-145596998D01*
X203909321Y-145614023D01*
X203909928Y-145628892D01*
X203910781Y-145640662D01*
X203911883Y-145648388D01*
X203912156Y-145649441D01*
X203918318Y-145662216D01*
X203928362Y-145674477D01*
X203940869Y-145684670D01*
X203948016Y-145688707D01*
X203955721Y-145692003D01*
X203962863Y-145693850D01*
X203971343Y-145694536D01*
X203983063Y-145694348D01*
X203984799Y-145694280D01*
X203997436Y-145693473D01*
X204006553Y-145691988D01*
X204014025Y-145689390D01*
X204020476Y-145685984D01*
X204035469Y-145674324D01*
X204046151Y-145659418D01*
X204050977Y-145647402D01*
X204052192Y-145640495D01*
X204053193Y-145629236D01*
X204053973Y-145614668D01*
X204054522Y-145597833D01*
X204054832Y-145579775D01*
X204054854Y-145573472D01*
X204358497Y-145573472D01*
X204358561Y-145596447D01*
X204358839Y-145614753D01*
X204359460Y-145629121D01*
X204360550Y-145640278D01*
X204362239Y-145648956D01*
X204364654Y-145655883D01*
X204367923Y-145661790D01*
X204372175Y-145667406D01*
X204375695Y-145671432D01*
X204389646Y-145683061D01*
X204406557Y-145690992D01*
X204425200Y-145694938D01*
X204444350Y-145694612D01*
X204459433Y-145691007D01*
X204475845Y-145682733D01*
X204488913Y-145670467D01*
X204496413Y-145659194D01*
X204504272Y-145645010D01*
X204505129Y-145580292D01*
X204505352Y-145557031D01*
X204505272Y-145538425D01*
X204504788Y-145523734D01*
X204503802Y-145512219D01*
X204502212Y-145503138D01*
X204499920Y-145495753D01*
X204496826Y-145489323D01*
X204492830Y-145483108D01*
X204491851Y-145481739D01*
X204480267Y-145469400D01*
X204465991Y-145461046D01*
X204448369Y-145456360D01*
X204436903Y-145455226D01*
X204416694Y-145455895D01*
X204399783Y-145460408D01*
X204385417Y-145469037D01*
X204377154Y-145476909D01*
X204371676Y-145483158D01*
X204367390Y-145488853D01*
X204364150Y-145494751D01*
X204361810Y-145501609D01*
X204360225Y-145510182D01*
X204359246Y-145521228D01*
X204358730Y-145535501D01*
X204358529Y-145553759D01*
X204358497Y-145573472D01*
X204054854Y-145573472D01*
X204054896Y-145561536D01*
X204054703Y-145544160D01*
X204054247Y-145528689D01*
X204053518Y-145516166D01*
X204052509Y-145507635D01*
X204052117Y-145505890D01*
X204045760Y-145490781D01*
X204035993Y-145476881D01*
X204024187Y-145466032D01*
X204020837Y-145463871D01*
X204006121Y-145457864D01*
X203988837Y-145454888D01*
X203970956Y-145455048D01*
X203954448Y-145458448D01*
X203950085Y-145460104D01*
X203936539Y-145468129D01*
X203924294Y-145479360D01*
X203915064Y-145492112D01*
X203912810Y-145496746D01*
X203911600Y-145502434D01*
X203910603Y-145512572D01*
X203909824Y-145526218D01*
X203909265Y-145542427D01*
X203908931Y-145560256D01*
X203908827Y-145578761D01*
X203599492Y-145578761D01*
X203599454Y-145560790D01*
X203599576Y-145542271D01*
X203599876Y-145526420D01*
X203600366Y-145514044D01*
X203600995Y-145506425D01*
X203605080Y-145485613D01*
X203611701Y-145468824D01*
X203621228Y-145455803D01*
X203634026Y-145446295D01*
X203650465Y-145440042D01*
X203670910Y-145436789D01*
X203695731Y-145436281D01*
X203701463Y-145436496D01*
X203730113Y-145437810D01*
X203731620Y-145410482D01*
X203734838Y-145383210D01*
X203741510Y-145359481D01*
X203752020Y-145338397D01*
X203766752Y-145319060D01*
X203773911Y-145311616D01*
X203783993Y-145302768D01*
X203795529Y-145294180D01*
X203805383Y-145288079D01*
X203809790Y-145285690D01*
X203813757Y-145283536D01*
X203817570Y-145281604D01*
X203821516Y-145279884D01*
X203825882Y-145278362D01*
X203830955Y-145277026D01*
X203837022Y-145275865D01*
X203844369Y-145274867D01*
X203853285Y-145274018D01*
X203864054Y-145273307D01*
X203876966Y-145272723D01*
X203892306Y-145272251D01*
X203910361Y-145271882D01*
X203931418Y-145271602D01*
X203955765Y-145271399D01*
X203983687Y-145271261D01*
X204015473Y-145271176D01*
X204051408Y-145271132D01*
X204091780Y-145271116D01*
X204136876Y-145271117D01*
G37*
D15*
%TO.C,C6*%
X168965580Y-148490000D02*
X168684420Y-148490000D01*
X168965580Y-149510000D02*
X168684420Y-149510000D01*
%TO.C,C2*%
X157865000Y-148461252D02*
X157865000Y-147938748D01*
X159335000Y-148461252D02*
X159335000Y-147938748D01*
%TO.C,C8*%
X180461252Y-147665000D02*
X179938748Y-147665000D01*
X180461252Y-149135000D02*
X179938748Y-149135000D01*
%TO.C,R12*%
X188977500Y-138887742D02*
X188977500Y-139362258D01*
X190022500Y-138887742D02*
X190022500Y-139362258D01*
%TO.C,C12*%
X145760000Y-152412323D02*
X142083000Y-152412323D01*
X145760000Y-152452323D02*
X142093000Y-152452323D01*
X145760000Y-152492323D02*
X142104000Y-152492323D01*
X145760000Y-152532323D02*
X142115000Y-152532323D01*
X145760000Y-152572323D02*
X142127000Y-152572323D01*
X145760000Y-152612323D02*
X142139000Y-152612323D01*
X145760000Y-152652323D02*
X142151000Y-152652323D01*
X145760000Y-152692323D02*
X142163000Y-152692323D01*
X145760000Y-152732323D02*
X142176000Y-152732323D01*
X145760000Y-152772323D02*
X142190000Y-152772323D01*
X145760000Y-152812323D02*
X142203000Y-152812323D01*
X145760000Y-152852323D02*
X142218000Y-152852323D01*
X145760000Y-152892323D02*
X142232000Y-152892323D01*
X145760000Y-152932323D02*
X142247000Y-152932323D01*
X145760000Y-152972323D02*
X142262000Y-152972323D01*
X145760000Y-153012323D02*
X142278000Y-153012323D01*
X145760000Y-153052323D02*
X142294000Y-153052323D01*
X145760000Y-153092323D02*
X142310000Y-153092323D01*
X145760000Y-153132323D02*
X142327000Y-153132323D01*
X145760000Y-153172323D02*
X142344000Y-153172323D01*
X145760000Y-153212323D02*
X142362000Y-153212323D01*
X145760000Y-153252323D02*
X142380000Y-153252323D01*
X145760000Y-153292323D02*
X142398000Y-153292323D01*
X145760000Y-153332323D02*
X142417000Y-153332323D01*
X145760000Y-153372323D02*
X142436000Y-153372323D01*
X145760000Y-153412323D02*
X142456000Y-153412323D01*
X145760000Y-153452323D02*
X142476000Y-153452323D01*
X145760000Y-153492323D02*
X142496000Y-153492323D01*
X145760000Y-153532323D02*
X142517000Y-153532323D01*
X145760000Y-153572323D02*
X142539000Y-153572323D01*
X145760000Y-153612323D02*
X142561000Y-153612323D01*
X145760000Y-153652323D02*
X142583000Y-153652323D01*
X145760000Y-153692323D02*
X142606000Y-153692323D01*
X145760000Y-153732323D02*
X142629000Y-153732323D01*
X145760000Y-153772323D02*
X142653000Y-153772323D01*
X145760000Y-153812323D02*
X142677000Y-153812323D01*
X145760000Y-153852323D02*
X142702000Y-153852323D01*
X145760000Y-153892323D02*
X142728000Y-153892323D01*
X145760000Y-153932323D02*
X142753000Y-153932323D01*
X145760000Y-153972323D02*
X142780000Y-153972323D01*
X145760000Y-154012323D02*
X142807000Y-154012323D01*
X145760000Y-154052323D02*
X142834000Y-154052323D01*
X145760000Y-154092323D02*
X142862000Y-154092323D01*
X145760000Y-154132323D02*
X142891000Y-154132323D01*
X145760000Y-154172323D02*
X142920000Y-154172323D01*
X145760000Y-154212323D02*
X142950000Y-154212323D01*
X145760000Y-154252323D02*
X142980000Y-154252323D01*
X145760000Y-154292323D02*
X143012000Y-154292323D01*
X145760000Y-154332323D02*
X143043000Y-154332323D01*
X145760000Y-154372323D02*
X143076000Y-154372323D01*
X145760000Y-154412323D02*
X143109000Y-154412323D01*
X145760000Y-154452323D02*
X143142000Y-154452323D01*
X145760000Y-154492323D02*
X143177000Y-154492323D01*
X145760000Y-154532323D02*
X143212000Y-154532323D01*
X145760000Y-154572323D02*
X143248000Y-154572323D01*
X145760000Y-154612323D02*
X143284000Y-154612323D01*
X145760000Y-154652323D02*
X143322000Y-154652323D01*
X145760000Y-154692323D02*
X143360000Y-154692323D01*
X145760000Y-154732323D02*
X143399000Y-154732323D01*
X145760000Y-154772323D02*
X143439000Y-154772323D01*
X145760000Y-154812323D02*
X143480000Y-154812323D01*
X145760000Y-154852323D02*
X143522000Y-154852323D01*
X147599000Y-156212323D02*
X146401000Y-156212323D01*
X147862000Y-156172323D02*
X146138000Y-156172323D01*
X148062000Y-156132323D02*
X145938000Y-156132323D01*
X148230000Y-156092323D02*
X145770000Y-156092323D01*
X148377000Y-156052323D02*
X145623000Y-156052323D01*
X148509000Y-156012323D02*
X145491000Y-156012323D01*
X148630000Y-155972323D02*
X145370000Y-155972323D01*
X148742000Y-155932323D02*
X145258000Y-155932323D01*
X148846000Y-155892323D02*
X145154000Y-155892323D01*
X148944000Y-155852323D02*
X145056000Y-155852323D01*
X149037000Y-155812323D02*
X144963000Y-155812323D01*
X149124000Y-155772323D02*
X144876000Y-155772323D01*
X149208000Y-155732323D02*
X144792000Y-155732323D01*
X149288000Y-155692323D02*
X144712000Y-155692323D01*
X149365000Y-155652323D02*
X144635000Y-155652323D01*
X149439000Y-155612323D02*
X144561000Y-155612323D01*
X149510000Y-155572323D02*
X144490000Y-155572323D01*
X149578000Y-155532323D02*
X144422000Y-155532323D01*
X149644000Y-155492323D02*
X144356000Y-155492323D01*
X149708000Y-155452323D02*
X144292000Y-155452323D01*
X149770000Y-155412323D02*
X144230000Y-155412323D01*
X149830000Y-155372323D02*
X144170000Y-155372323D01*
X149875000Y-145652677D02*
X149875000Y-146652677D01*
X149888000Y-155332323D02*
X144112000Y-155332323D01*
X149945000Y-155292323D02*
X144055000Y-155292323D01*
X150000000Y-155252323D02*
X144000000Y-155252323D01*
X150053000Y-155212323D02*
X143947000Y-155212323D01*
X150105000Y-155172323D02*
X143895000Y-155172323D01*
X150156000Y-155132323D02*
X143844000Y-155132323D01*
X150205000Y-155092323D02*
X143795000Y-155092323D01*
X150254000Y-155052323D02*
X143746000Y-155052323D01*
X150301000Y-155012323D02*
X143699000Y-155012323D01*
X150347000Y-154972323D02*
X143653000Y-154972323D01*
X150375000Y-146152677D02*
X149375000Y-146152677D01*
X150391000Y-154932323D02*
X143609000Y-154932323D01*
X150435000Y-154892323D02*
X143565000Y-154892323D01*
X150478000Y-154852323D02*
X148240000Y-154852323D01*
X150520000Y-154812323D02*
X148240000Y-154812323D01*
X150561000Y-154772323D02*
X148240000Y-154772323D01*
X150601000Y-154732323D02*
X148240000Y-154732323D01*
X150640000Y-154692323D02*
X148240000Y-154692323D01*
X150678000Y-154652323D02*
X148240000Y-154652323D01*
X150716000Y-154612323D02*
X148240000Y-154612323D01*
X150752000Y-154572323D02*
X148240000Y-154572323D01*
X150788000Y-154532323D02*
X148240000Y-154532323D01*
X150823000Y-154492323D02*
X148240000Y-154492323D01*
X150858000Y-154452323D02*
X148240000Y-154452323D01*
X150891000Y-154412323D02*
X148240000Y-154412323D01*
X150924000Y-154372323D02*
X148240000Y-154372323D01*
X150957000Y-154332323D02*
X148240000Y-154332323D01*
X150988000Y-154292323D02*
X148240000Y-154292323D01*
X151020000Y-154252323D02*
X148240000Y-154252323D01*
X151050000Y-154212323D02*
X148240000Y-154212323D01*
X151080000Y-154172323D02*
X148240000Y-154172323D01*
X151109000Y-154132323D02*
X148240000Y-154132323D01*
X151138000Y-154092323D02*
X148240000Y-154092323D01*
X151166000Y-154052323D02*
X148240000Y-154052323D01*
X151193000Y-154012323D02*
X148240000Y-154012323D01*
X151220000Y-153972323D02*
X148240000Y-153972323D01*
X151247000Y-153932323D02*
X148240000Y-153932323D01*
X151272000Y-153892323D02*
X148240000Y-153892323D01*
X151298000Y-153852323D02*
X148240000Y-153852323D01*
X151323000Y-153812323D02*
X148240000Y-153812323D01*
X151347000Y-153772323D02*
X148240000Y-153772323D01*
X151371000Y-153732323D02*
X148240000Y-153732323D01*
X151394000Y-153692323D02*
X148240000Y-153692323D01*
X151417000Y-153652323D02*
X148240000Y-153652323D01*
X151439000Y-153612323D02*
X148240000Y-153612323D01*
X151461000Y-153572323D02*
X148240000Y-153572323D01*
X151483000Y-153532323D02*
X148240000Y-153532323D01*
X151504000Y-153492323D02*
X148240000Y-153492323D01*
X151524000Y-153452323D02*
X148240000Y-153452323D01*
X151544000Y-153412323D02*
X148240000Y-153412323D01*
X151564000Y-153372323D02*
X148240000Y-153372323D01*
X151583000Y-153332323D02*
X148240000Y-153332323D01*
X151602000Y-153292323D02*
X148240000Y-153292323D01*
X151620000Y-153252323D02*
X148240000Y-153252323D01*
X151638000Y-153212323D02*
X148240000Y-153212323D01*
X151656000Y-153172323D02*
X148240000Y-153172323D01*
X151673000Y-153132323D02*
X148240000Y-153132323D01*
X151690000Y-153092323D02*
X148240000Y-153092323D01*
X151706000Y-153052323D02*
X148240000Y-153052323D01*
X151722000Y-153012323D02*
X148240000Y-153012323D01*
X151738000Y-152972323D02*
X148240000Y-152972323D01*
X151753000Y-152932323D02*
X148240000Y-152932323D01*
X151768000Y-152892323D02*
X148240000Y-152892323D01*
X151782000Y-152852323D02*
X148240000Y-152852323D01*
X151797000Y-152812323D02*
X148240000Y-152812323D01*
X151810000Y-152772323D02*
X148240000Y-152772323D01*
X151824000Y-152732323D02*
X148240000Y-152732323D01*
X151837000Y-152692323D02*
X148240000Y-152692323D01*
X151849000Y-152652323D02*
X148240000Y-152652323D01*
X151861000Y-152612323D02*
X148240000Y-152612323D01*
X151873000Y-152572323D02*
X148240000Y-152572323D01*
X151885000Y-152532323D02*
X148240000Y-152532323D01*
X151896000Y-152492323D02*
X148240000Y-152492323D01*
X151907000Y-152452323D02*
X148240000Y-152452323D01*
X151917000Y-152412323D02*
X148240000Y-152412323D01*
X151928000Y-152372323D02*
X142072000Y-152372323D01*
X151937000Y-152332323D02*
X142063000Y-152332323D01*
X151947000Y-152292323D02*
X142053000Y-152292323D01*
X151956000Y-152252323D02*
X142044000Y-152252323D01*
X151965000Y-152212323D02*
X142035000Y-152212323D01*
X151973000Y-152172323D02*
X142027000Y-152172323D01*
X151981000Y-152132323D02*
X142019000Y-152132323D01*
X151989000Y-152092323D02*
X142011000Y-152092323D01*
X151997000Y-152052323D02*
X142003000Y-152052323D01*
X152004000Y-152012323D02*
X141996000Y-152012323D01*
X152011000Y-151972323D02*
X141989000Y-151972323D01*
X152017000Y-151932323D02*
X141983000Y-151932323D01*
X152023000Y-151892323D02*
X141977000Y-151892323D01*
X152029000Y-151852323D02*
X141971000Y-151852323D01*
X152035000Y-151812323D02*
X141965000Y-151812323D01*
X152040000Y-151772323D02*
X141960000Y-151772323D01*
X152045000Y-151732323D02*
X141955000Y-151732323D01*
X152049000Y-151692323D02*
X141951000Y-151692323D01*
X152054000Y-151652323D02*
X141946000Y-151652323D01*
X152057000Y-151612323D02*
X141943000Y-151612323D01*
X152061000Y-151572323D02*
X141939000Y-151572323D01*
X152064000Y-151532323D02*
X141936000Y-151532323D01*
X152067000Y-151492323D02*
X141933000Y-151492323D01*
X152070000Y-151452323D02*
X141930000Y-151452323D01*
X152072000Y-151412323D02*
X141928000Y-151412323D01*
X152074000Y-151372323D02*
X141926000Y-151372323D01*
X152076000Y-151332323D02*
X141924000Y-151332323D01*
X152077000Y-151292323D02*
X141923000Y-151292323D01*
X152079000Y-151212323D02*
X141921000Y-151212323D01*
X152079000Y-151252323D02*
X141921000Y-151252323D01*
X152080000Y-151132323D02*
X141920000Y-151132323D01*
X152080000Y-151172323D02*
X141920000Y-151172323D01*
X152120000Y-151132323D02*
G75*
G02*
X141880000Y-151132323I-5120000J0D01*
G01*
X141880000Y-151132323D02*
G75*
G02*
X152120000Y-151132323I5120000J0D01*
G01*
%TO.C,D1*%
X179600000Y-139990000D02*
X179600000Y-145500000D01*
X182900000Y-139990000D02*
X179600000Y-139990000D01*
X182900000Y-139990000D02*
X182900000Y-145500000D01*
%TO.C,C17*%
X152738748Y-145265000D02*
X153261252Y-145265000D01*
X152738748Y-146735000D02*
X153261252Y-146735000D01*
%TO.C,C11*%
X192765000Y-131761252D02*
X192765000Y-131238748D01*
X194235000Y-131761252D02*
X194235000Y-131238748D01*
%TO.C,R1*%
X156677500Y-144562742D02*
X156677500Y-145037258D01*
X157722500Y-144562742D02*
X157722500Y-145037258D01*
%TO.C,C7*%
X172265000Y-150061252D02*
X172265000Y-149538748D01*
X173735000Y-150061252D02*
X173735000Y-149538748D01*
%TO.C,J1*%
X142112500Y-134880000D02*
X150352500Y-134880000D01*
X142112500Y-137200000D02*
X142112500Y-134880000D01*
X142112500Y-145120000D02*
X142112500Y-137800000D01*
X144232500Y-134880000D02*
X144232500Y-145120000D01*
X148232500Y-134880000D02*
X148232500Y-145120000D01*
X150352500Y-134880000D02*
X150352500Y-145120000D01*
X150352500Y-145120000D02*
X142112500Y-145120000D01*
X142112500Y-137500000D02*
X141502500Y-137940000D01*
X141502500Y-137060000D01*
X142112500Y-137500000D01*
G36*
X142112500Y-137500000D02*
G01*
X141502500Y-137940000D01*
X141502500Y-137060000D01*
X142112500Y-137500000D01*
G37*
D16*
%TO.C,L1*%
X154303000Y-110773300D02*
X154303000Y-130839300D01*
X154303000Y-130839300D02*
X182497000Y-130839300D01*
X164892260Y-110773300D02*
X154303000Y-110773300D01*
X182497000Y-110773300D02*
X171907740Y-110773300D01*
X182497000Y-130839300D02*
X182497000Y-110773300D01*
D15*
%TO.C,C20*%
X200765000Y-131711252D02*
X200765000Y-131188748D01*
X202235000Y-131711252D02*
X202235000Y-131188748D01*
%TD*%
M02*
