M48
; DRILL file {KiCad 9.0.6} date 2026-02-11T18:38:49+0100
; FORMAT={-:-/ absolute / metric / decimal}
; #@! TF.CreationDate,2026-02-11T18:38:49+01:00
; #@! TF.GenerationSoftware,Kicad,Pcbnew,9.0.6
; #@! TF.FileFunction,Plated,1,4,PTH
FMAT,2
METRIC
; #@! TA.AperFunction,Plated,PTH,ViaDrill
T1C0.300
; #@! TA.AperFunction,Plated,PTH,ViaDrill
T2C0.400
; #@! TA.AperFunction,Plated,PTH,ComponentDrill
T3C0.500
; #@! TA.AperFunction,Plated,PTH,ComponentDrill
T4C1.000
; #@! TA.AperFunction,Plated,PTH,ComponentDrill
T5C1.300
%
G90
G05
T1
X168.8Y-149.8
X170.7Y-142.4
X172.0Y-149.1
X173.4Y-140.9
X175.3Y-148.5
X179.8Y-141.75
X181.0Y-139.5
X185.1Y-142.1
T2
X142.5Y-112.5
X142.5Y-115.0
X142.5Y-117.5
X142.5Y-120.0
X142.5Y-122.5
X142.5Y-125.0
X142.5Y-127.5
X142.5Y-130.0
X142.5Y-132.5
X142.5Y-136.5
X142.5Y-137.5
X142.5Y-138.5
X142.5Y-139.5
X143.5Y-136.5
X143.5Y-137.5
X143.5Y-138.5
X143.5Y-139.5
X143.5Y-152.5
X143.5Y-153.5
X143.5Y-154.5
X143.5Y-155.5
X144.5Y-134.0
X144.5Y-135.0
X144.5Y-152.5
X144.5Y-153.5
X144.5Y-154.5
X144.5Y-155.5
X145.0Y-112.5
X145.0Y-115.0
X145.0Y-117.5
X145.0Y-120.0
X145.0Y-122.5
X145.0Y-125.0
X145.0Y-127.5
X145.0Y-130.0
X145.0Y-132.5
X145.5Y-134.0
X145.5Y-135.0
X146.5Y-134.0
X146.5Y-135.0
X147.5Y-112.5
X147.5Y-115.0
X147.5Y-117.5
X147.5Y-120.0
X147.5Y-122.5
X147.5Y-125.0
X147.5Y-127.5
X147.5Y-130.0
X147.5Y-132.5
X147.5Y-134.0
X147.5Y-135.0
X148.5Y-136.0
X148.5Y-137.0
X148.5Y-138.0
X149.0Y-152.5
X149.0Y-153.5
X149.0Y-154.5
X149.0Y-155.5
X149.5Y-136.0
X149.5Y-137.0
X149.5Y-138.0
X150.0Y-112.5
X150.0Y-115.0
X150.0Y-117.5
X150.0Y-120.0
X150.0Y-122.5
X150.0Y-125.0
X150.0Y-127.5
X150.0Y-130.0
X150.0Y-132.5
X150.0Y-152.5
X150.0Y-153.5
X150.0Y-154.5
X150.0Y-155.5
X151.5Y-135.5
X151.5Y-136.5
X152.5Y-112.5
X152.5Y-115.0
X152.5Y-117.5
X152.5Y-120.0
X152.5Y-122.5
X152.5Y-125.0
X152.5Y-127.5
X152.5Y-130.0
X152.5Y-132.5
X152.5Y-135.5
X152.5Y-136.5
X152.5Y-148.0
X152.5Y-149.0
X152.5Y-150.5
X152.5Y-152.5
X152.5Y-154.5
X153.5Y-111.0
X153.5Y-112.0
X153.5Y-113.0
X153.5Y-114.0
X153.5Y-115.0
X153.5Y-116.0
X153.5Y-117.0
X153.5Y-118.0
X153.5Y-119.0
X153.5Y-120.0
X153.5Y-121.0
X153.5Y-122.0
X153.5Y-123.0
X153.5Y-124.0
X153.5Y-125.0
X153.5Y-126.0
X153.5Y-127.0
X153.5Y-128.0
X153.5Y-129.0
X153.5Y-130.0
X153.5Y-131.0
X153.5Y-135.5
X153.5Y-136.5
X153.5Y-148.0
X153.5Y-149.0
X154.1Y-144.075
X154.5Y-131.5
X154.5Y-135.5
X154.5Y-136.5
X154.5Y-148.0
X154.5Y-149.0
X155.0Y-150.5
X155.0Y-152.5
X155.0Y-154.5
X155.5Y-131.5
X155.5Y-148.0
X155.5Y-149.0
X156.5Y-131.5
X157.5Y-131.5
X157.5Y-142.6
X157.5Y-150.5
X157.5Y-152.5
X158.5Y-131.5
X158.515Y-146.325
X158.6Y-144.8
X159.5Y-131.5
X159.5Y-132.5
X159.5Y-133.5
X159.5Y-134.5
X159.5Y-135.5
X159.5Y-136.5
X159.5Y-137.5
X160.0Y-150.5
X163.5Y-139.0
X164.5Y-139.0
X165.0Y-152.5
X165.0Y-154.5
X165.5Y-139.0
X165.8Y-144.2
X165.8Y-145.2
X166.5Y-131.5
X166.5Y-132.5
X166.5Y-133.5
X166.5Y-134.5
X166.5Y-135.5
X166.5Y-136.5
X166.5Y-137.5
X166.5Y-139.0
X166.8Y-143.2
X166.8Y-144.7
X166.8Y-146.2
X167.5Y-152.5
X167.5Y-154.5
X167.8Y-144.2
X167.8Y-145.2
X168.0Y-131.5
X169.0Y-131.5
X170.0Y-131.5
X170.0Y-132.5
X170.0Y-133.5
X170.0Y-134.5
X170.0Y-135.5
X170.0Y-136.5
X170.0Y-137.5
X170.0Y-139.0
X170.0Y-154.5
X171.0Y-139.0
X172.0Y-139.0
X172.5Y-154.5
X173.0Y-139.0
X174.75Y-151.75
X175.0Y-154.5
X177.5Y-131.5
X177.5Y-147.25
X177.5Y-154.5
X178.0Y-150.0
X178.0Y-151.0
X178.5Y-131.5
X179.0Y-150.0
X179.0Y-151.0
X179.5Y-131.5
X180.0Y-150.0
X180.0Y-151.0
X180.0Y-154.5
X180.5Y-131.5
X181.0Y-150.0
X181.0Y-151.0
X181.5Y-131.5
X182.5Y-154.5
X183.0Y-111.0
X183.0Y-112.0
X183.0Y-113.0
X183.0Y-114.0
X183.0Y-115.0
X183.0Y-116.0
X183.0Y-117.0
X183.0Y-118.0
X183.0Y-119.0
X183.0Y-120.0
X183.0Y-121.0
X183.0Y-122.0
X183.0Y-123.0
X183.0Y-124.0
X183.0Y-125.0
X183.0Y-126.0
X183.0Y-127.0
X183.0Y-128.0
X183.0Y-129.0
X183.0Y-130.0
X183.0Y-131.0
X185.0Y-112.5
X185.0Y-115.0
X185.0Y-117.5
X185.0Y-120.0
X185.0Y-122.5
X185.0Y-125.0
X185.0Y-127.0
X185.0Y-147.5
X185.0Y-150.0
X185.0Y-152.5
X185.0Y-154.5
X187.5Y-112.5
X187.5Y-115.0
X187.5Y-117.5
X187.5Y-120.0
X187.5Y-122.5
X187.5Y-125.0
X187.5Y-127.0
X187.5Y-147.5
X187.5Y-150.0
X187.5Y-152.5
X187.5Y-154.5
X190.0Y-112.5
X190.0Y-115.0
X190.0Y-117.5
X190.0Y-120.0
X190.0Y-122.5
X190.0Y-125.0
X190.0Y-127.0
X190.0Y-147.5
X190.0Y-150.0
X190.0Y-152.5
X190.0Y-154.5
X191.5Y-128.0
X191.5Y-129.0
X192.5Y-112.5
X192.5Y-115.0
X192.5Y-117.5
X192.5Y-120.0
X192.5Y-122.5
X192.5Y-125.0
X192.5Y-127.0
X192.5Y-128.0
X192.5Y-129.0
X192.5Y-147.5
X192.5Y-150.0
X192.5Y-152.5
X192.5Y-154.5
X192.8Y-143.6
X192.8Y-144.6
X192.8Y-145.6
X192.8Y-146.6
X193.5Y-128.0
X193.5Y-129.0
X193.8Y-143.6
X193.8Y-144.6
X193.8Y-145.6
X193.8Y-146.6
X194.5Y-128.0
X194.5Y-129.0
X195.0Y-112.5
X195.0Y-115.0
X195.0Y-117.5
X195.0Y-120.0
X195.0Y-122.5
X195.0Y-125.0
X195.0Y-127.0
X195.0Y-150.0
X195.0Y-152.5
X195.0Y-154.5
X195.5Y-128.0
X195.5Y-129.0
X196.5Y-128.0
X196.5Y-129.0
X197.5Y-112.5
X197.5Y-115.0
X197.5Y-117.5
X197.5Y-120.0
X197.5Y-122.5
X197.5Y-125.0
X197.5Y-127.0
X197.5Y-128.0
X197.5Y-129.0
X197.5Y-150.0
X197.5Y-152.5
X197.5Y-154.5
X197.8Y-143.4
X197.8Y-144.4
X197.8Y-145.4
X197.8Y-146.4
X198.5Y-128.0
X198.5Y-129.0
X198.8Y-143.4
X198.8Y-144.4
X198.8Y-145.4
X198.8Y-146.4
X199.5Y-128.0
X199.5Y-129.0
X200.0Y-112.5
X200.0Y-115.0
X200.0Y-117.5
X200.0Y-120.0
X200.0Y-122.5
X200.0Y-125.0
X200.0Y-127.0
X200.0Y-150.0
X200.0Y-152.5
X200.0Y-154.5
X200.5Y-128.0
X200.5Y-129.0
X201.5Y-128.0
X201.5Y-129.0
X202.5Y-112.5
X202.5Y-115.0
X202.5Y-117.5
X202.5Y-120.0
X202.5Y-122.5
X202.5Y-125.0
X202.5Y-128.0
X202.5Y-129.0
X202.5Y-152.5
X202.5Y-154.5
X204.0Y-128.0
X204.0Y-129.0
X204.0Y-130.0
X204.0Y-131.0
X205.0Y-112.5
X205.0Y-115.0
X205.0Y-117.5
X205.0Y-120.0
X205.0Y-122.5
X205.0Y-125.0
X205.0Y-128.0
X205.0Y-129.0
X205.0Y-130.0
X205.0Y-131.0
X205.0Y-152.5
X205.0Y-154.5
X207.5Y-112.5
X207.5Y-115.0
X207.5Y-117.5
X207.5Y-120.0
X207.5Y-122.5
X207.5Y-125.0
X207.5Y-152.5
X207.5Y-154.5
X209.5Y-152.5
X209.5Y-154.5
X210.0Y-112.5
X210.0Y-115.0
X210.0Y-117.5
X210.0Y-120.0
X210.0Y-122.5
X210.0Y-127.5
X210.0Y-128.5
X210.0Y-129.5
X210.0Y-130.5
X211.0Y-127.5
X211.0Y-128.5
X211.0Y-129.5
X211.0Y-130.5
X212.0Y-152.5
X212.0Y-154.5
T3
X157.0Y-155.0
T4
X147.0Y-148.632
X147.0Y-153.632
X195.8Y-139.6
X195.8Y-144.6
T5
X146.232Y-137.5
X146.232Y-142.5
X207.567Y-129.2
X207.567Y-134.2
M30
