%TF.GenerationSoftware,KiCad,Pcbnew,9.0.6*%
%TF.CreationDate,2026-03-07T17:21:35+01:00*%
%TF.ProjectId,Buck,4275636b-2e6b-4696-9361-645f70636258,B*%
%TF.SameCoordinates,Original*%
%TF.FileFunction,Copper,L4,Bot*%
%TF.FilePolarity,Positive*%
%FSLAX46Y46*%
G04 Gerber Fmt 4.6, Leading zero omitted, Abs format (unit mm)*
G04 Created by KiCad (PCBNEW 9.0.6) date 2026-03-07 17:21:35*
%MOMM*%
%LPD*%
G01*
G04 APERTURE LIST*
G04 Aperture macros list*
%AMRoundRect*
0 Rectangle with rounded corners*
0 $1 Rounding radius*
0 $2 $3 $4 $5 $6 $7 $8 $9 X,Y pos of 4 corners*
0 Add a 4 corners polygon primitive as box body*
4,1,4,$2,$3,$4,$5,$6,$7,$8,$9,$2,$3,0*
0 Add four circle primitives for the rounded corners*
1,1,$1+$1,$2,$3*
1,1,$1+$1,$4,$5*
1,1,$1+$1,$6,$7*
1,1,$1+$1,$8,$9*
0 Add four rect primitives between the rounded corners*
20,1,$1+$1,$2,$3,$4,$5,0*
20,1,$1+$1,$4,$5,$6,$7,0*
20,1,$1+$1,$6,$7,$8,$9,0*
20,1,$1+$1,$8,$9,$2,$3,0*%
G04 Aperture macros list end*
%TA.AperFunction,ComponentPad*%
%ADD10RoundRect,0.250001X-1.149999X1.149999X-1.149999X-1.149999X1.149999X-1.149999X1.149999X1.149999X0*%
%TD*%
%TA.AperFunction,ComponentPad*%
%ADD11C,2.800000*%
%TD*%
%TA.AperFunction,ComponentPad*%
%ADD12RoundRect,0.250001X-1.149999X-1.149999X1.149999X-1.149999X1.149999X1.149999X-1.149999X1.149999X0*%
%TD*%
%TA.AperFunction,ComponentPad*%
%ADD13C,0.499999*%
%TD*%
%TA.AperFunction,ViaPad*%
%ADD14C,0.800000*%
%TD*%
%TA.AperFunction,ViaPad*%
%ADD15C,0.500000*%
%TD*%
%TA.AperFunction,Conductor*%
%ADD16C,0.200000*%
%TD*%
G04 APERTURE END LIST*
D10*
%TO.P,J1,1,Pin_1*%
%TO.N,+18V*%
X142250000Y-107250000D03*
D11*
%TO.P,J1,2,Pin_2*%
%TO.N,GND*%
X142250000Y-112250000D03*
%TD*%
D12*
%TO.P,J2,1,Pin_1*%
%TO.N,/VOUT*%
X156000000Y-148000000D03*
D11*
%TO.P,J2,2,Pin_2*%
%TO.N,GND*%
X161000000Y-148000000D03*
%TD*%
D13*
%TO.P,U1,12,PGND*%
%TO.N,GND*%
X160750002Y-106250000D03*
X161350001Y-105150000D03*
X161350001Y-107350000D03*
X161950000Y-106250000D03*
%TD*%
D14*
%TO.N,GND*%
X143000000Y-137000000D03*
X162000000Y-143000000D03*
X162000000Y-140000000D03*
X140000000Y-141000000D03*
X169000000Y-147000000D03*
X142000000Y-126000000D03*
X143000000Y-117000000D03*
X142000000Y-132000000D03*
X164500000Y-97500000D03*
X139000000Y-101500000D03*
X142000000Y-116000000D03*
X140000000Y-131000000D03*
X140000000Y-123000000D03*
X169000000Y-145000000D03*
X142000000Y-117000000D03*
X143000000Y-119000000D03*
X140000000Y-121000000D03*
X138000000Y-102500000D03*
X144000000Y-130000000D03*
X167000000Y-149000000D03*
X164000000Y-139000000D03*
X161000000Y-145000000D03*
D15*
X157000000Y-105500000D03*
D14*
X150200000Y-104500000D03*
X165000000Y-138000000D03*
X165000000Y-142000000D03*
X153750000Y-103000000D03*
X140000000Y-133000000D03*
X140000000Y-126000000D03*
X144000000Y-125000000D03*
X166000000Y-145000000D03*
X143000000Y-123000000D03*
X164000000Y-143000000D03*
X143000000Y-96500000D03*
X161000000Y-142000000D03*
X167000000Y-144000000D03*
X140000000Y-117000000D03*
X167000000Y-136000000D03*
X162000000Y-145000000D03*
X143000000Y-136000000D03*
X143000000Y-120000000D03*
X140000000Y-118000000D03*
X162000000Y-139000000D03*
X150500000Y-95500000D03*
X143000000Y-95500000D03*
X167500000Y-96500000D03*
X171000000Y-103250000D03*
X141000000Y-134000000D03*
X143000000Y-135000000D03*
X142000000Y-131000000D03*
X141000000Y-123000000D03*
X165000000Y-141000000D03*
X169000000Y-143000000D03*
X144000000Y-137000000D03*
X160000000Y-144000000D03*
X144000000Y-97500000D03*
X140000000Y-128000000D03*
X140000000Y-122000000D03*
X143000000Y-124000000D03*
X145000000Y-95500000D03*
X163000000Y-144000000D03*
X165000000Y-140000000D03*
X144000000Y-96500000D03*
X139000000Y-102500000D03*
X142000000Y-133000000D03*
X141000000Y-127000000D03*
X169000000Y-104250000D03*
X168000000Y-136000000D03*
X140000000Y-125000000D03*
X162000000Y-142000000D03*
X142000000Y-138000000D03*
X141000000Y-122000000D03*
X165500000Y-96500000D03*
X144000000Y-123000000D03*
X143000000Y-134000000D03*
X142000000Y-129000000D03*
X141000000Y-135000000D03*
X157700000Y-112800000D03*
X168000000Y-140000000D03*
X147000000Y-96500000D03*
X161000000Y-143000000D03*
X141000000Y-141000000D03*
X167000000Y-143000000D03*
X153500000Y-95500000D03*
X143000000Y-129000000D03*
X144000000Y-139000000D03*
X169000000Y-103250000D03*
X144000000Y-135000000D03*
X168000000Y-146000000D03*
X166000000Y-143000000D03*
X144000000Y-131000000D03*
X166000000Y-147000000D03*
X169000000Y-136000000D03*
X141000000Y-138000000D03*
X164000000Y-145000000D03*
X140000000Y-124000000D03*
X147000000Y-97500000D03*
X169000000Y-149000000D03*
X169000000Y-142000000D03*
X166000000Y-140000000D03*
X140500000Y-101500000D03*
X165000000Y-144000000D03*
X142000000Y-140000000D03*
X169000000Y-105250000D03*
X140000000Y-135000000D03*
X138000000Y-100500000D03*
X141000000Y-128000000D03*
X144000000Y-127000000D03*
X165000000Y-148000000D03*
X162500000Y-95500000D03*
X167500000Y-95500000D03*
X145000000Y-97500000D03*
X163000000Y-141000000D03*
X160000000Y-143000000D03*
X166000000Y-136000000D03*
X161000000Y-139000000D03*
X141000000Y-133000000D03*
X144000000Y-120000000D03*
X141000000Y-116000000D03*
X166500000Y-96500000D03*
X170000000Y-102250000D03*
X168000000Y-145000000D03*
X168000000Y-105250000D03*
X142000000Y-139000000D03*
X167500000Y-97500000D03*
X144000000Y-132000000D03*
X141000000Y-117000000D03*
X148500000Y-95500000D03*
X142000000Y-130000000D03*
X145000000Y-96500000D03*
X143000000Y-133000000D03*
X143000000Y-140000000D03*
X143000000Y-127000000D03*
X140000000Y-139000000D03*
X142000000Y-136000000D03*
X168000000Y-138000000D03*
X142000000Y-134000000D03*
X147000000Y-95500000D03*
X144000000Y-124000000D03*
X163000000Y-142000000D03*
X160000000Y-142000000D03*
X146000000Y-95500000D03*
X168000000Y-147000000D03*
X143000000Y-125000000D03*
X164000000Y-142000000D03*
X168000000Y-141000000D03*
X142000000Y-141000000D03*
X144000000Y-141000000D03*
X144000000Y-117000000D03*
X142000000Y-118000000D03*
X141000000Y-125000000D03*
X142000000Y-128000000D03*
X171000000Y-104250000D03*
X167000000Y-138000000D03*
X142000000Y-120000000D03*
X162775003Y-108200000D03*
X163000000Y-140000000D03*
X169000000Y-141000000D03*
X165500000Y-97500000D03*
X166000000Y-138000000D03*
X168000000Y-144000000D03*
X141000000Y-130000000D03*
X138000000Y-101500000D03*
X165000000Y-143000000D03*
X171000000Y-105250000D03*
X140000000Y-137000000D03*
X141000000Y-139000000D03*
X166000000Y-141000000D03*
X139000000Y-100500000D03*
X165000000Y-146000000D03*
X163000000Y-139000000D03*
X162000000Y-141000000D03*
X161000000Y-144000000D03*
X163500000Y-95500000D03*
X144000000Y-121000000D03*
X144000000Y-118000000D03*
X152500000Y-95500000D03*
X144000000Y-129000000D03*
X141000000Y-121000000D03*
X154500000Y-95500000D03*
X166000000Y-139000000D03*
X141000000Y-140000000D03*
X168000000Y-137000000D03*
X164000000Y-144000000D03*
X143000000Y-122000000D03*
X141000000Y-136000000D03*
X165000000Y-149000000D03*
X169000000Y-138000000D03*
X143000000Y-141000000D03*
X166000000Y-146000000D03*
X167000000Y-139000000D03*
X164500000Y-95500000D03*
X143000000Y-126000000D03*
X149500000Y-95500000D03*
X169000000Y-146000000D03*
X166000000Y-142000000D03*
X160000000Y-141000000D03*
X165000000Y-147000000D03*
X141000000Y-118000000D03*
X167000000Y-147000000D03*
X167000000Y-137000000D03*
X142000000Y-119000000D03*
X161500000Y-95500000D03*
X165500000Y-95500000D03*
X167000000Y-146000000D03*
X142000000Y-122000000D03*
X143000000Y-118000000D03*
X156300000Y-111500000D03*
X168000000Y-104250000D03*
X157500000Y-95500000D03*
X156500000Y-95500000D03*
X167000000Y-141000000D03*
X160000000Y-139000000D03*
X142000000Y-127000000D03*
X163000000Y-143000000D03*
X164000000Y-141000000D03*
X170000000Y-104250000D03*
X169000000Y-137000000D03*
X143000000Y-128000000D03*
X151500000Y-95500000D03*
X166000000Y-149000000D03*
X141000000Y-132000000D03*
X168000000Y-148000000D03*
X144000000Y-95500000D03*
X165000000Y-139000000D03*
X169000000Y-148000000D03*
X140000000Y-134000000D03*
X158500000Y-95500000D03*
X144000000Y-119000000D03*
X141000000Y-129000000D03*
X141000000Y-137000000D03*
X140500000Y-100500000D03*
X170000000Y-105250000D03*
X163000000Y-145000000D03*
X164500000Y-96500000D03*
X142000000Y-137000000D03*
X143000000Y-131000000D03*
X159500000Y-95500000D03*
X167000000Y-142000000D03*
X144000000Y-138000000D03*
X142000000Y-125000000D03*
X167000000Y-140000000D03*
X144000000Y-128000000D03*
X170000000Y-103250000D03*
X168000000Y-149000000D03*
X169000000Y-140000000D03*
X140000000Y-132000000D03*
X162000000Y-144000000D03*
X142000000Y-123000000D03*
X144000000Y-140000000D03*
X141000000Y-120000000D03*
X141000000Y-124000000D03*
X160000000Y-140000000D03*
X142000000Y-135000000D03*
X167000000Y-148000000D03*
X166500000Y-97500000D03*
X165000000Y-145000000D03*
X166500000Y-95500000D03*
X144000000Y-122000000D03*
X169000000Y-144000000D03*
X140000000Y-136000000D03*
X144000000Y-134000000D03*
X160500000Y-95500000D03*
X140000000Y-119000000D03*
X143000000Y-116000000D03*
X171000000Y-102250000D03*
X144000000Y-136000000D03*
X146000000Y-97500000D03*
X143000000Y-121000000D03*
X166000000Y-137000000D03*
X143000000Y-132000000D03*
X160000000Y-145000000D03*
X140000000Y-127000000D03*
X167000000Y-145000000D03*
X143000000Y-97500000D03*
X168000000Y-143000000D03*
X142000000Y-124000000D03*
X141000000Y-131000000D03*
X161000000Y-140000000D03*
X166000000Y-144000000D03*
X164000000Y-140000000D03*
X166000000Y-148000000D03*
X144000000Y-133000000D03*
X144000000Y-116000000D03*
X169000000Y-139000000D03*
X143000000Y-138000000D03*
X161000000Y-141000000D03*
X140000000Y-120000000D03*
X165000000Y-136000000D03*
X143000000Y-130000000D03*
X146000000Y-96500000D03*
X142000000Y-121000000D03*
X168000000Y-139000000D03*
X140000000Y-116000000D03*
X169000000Y-102250000D03*
X143000000Y-139000000D03*
X141000000Y-126000000D03*
X140000000Y-130000000D03*
X144000000Y-126000000D03*
X165000000Y-137000000D03*
X155500000Y-95500000D03*
X141000000Y-119000000D03*
X140000000Y-138000000D03*
X169500000Y-106250000D03*
X168000000Y-142000000D03*
X140000000Y-140000000D03*
X140000000Y-129000000D03*
D15*
%TO.N,/SYNCIN*%
X159150000Y-109150000D03*
X163696157Y-106838448D03*
%TO.N,Net-(U1-COMP)*%
X158800000Y-105200000D03*
X157800000Y-107200000D03*
%TO.N,/LG*%
X165750000Y-107625000D03*
X163706476Y-107538372D03*
%TO.N,/HG*%
X163772965Y-104860139D03*
X166391248Y-104908752D03*
%TO.N,/EN*%
X159800000Y-103800000D03*
X153800000Y-104200000D03*
%TD*%
D16*
%TO.N,/SYNCIN*%
X161025001Y-108600000D02*
X162713352Y-106911649D01*
X159700000Y-108600000D02*
X161025001Y-108600000D01*
X159150000Y-109150000D02*
X159700000Y-108600000D01*
X162713352Y-106911649D02*
X163682329Y-106911649D01*
%TO.N,Net-(U1-COMP)*%
X158800000Y-105200000D02*
X157800000Y-106200000D01*
X157800000Y-106200000D02*
X157800000Y-107200000D01*
%TO.N,/LG*%
X164532475Y-107625000D02*
X164500000Y-107657475D01*
X164500000Y-107657475D02*
X163957475Y-107657475D01*
X165750000Y-107625000D02*
X164532475Y-107625000D01*
X163957475Y-107657475D02*
X163800000Y-107500000D01*
%TO.N,/HG*%
X163785208Y-104908752D02*
X166391248Y-104908752D01*
X166400000Y-104900000D02*
X166391248Y-104908752D01*
%TO.N,/EN*%
X153800000Y-104200000D02*
X159400000Y-104200000D01*
X159400000Y-104200000D02*
X159800000Y-103800000D01*
%TD*%
%TA.AperFunction,Conductor*%
%TO.N,GND*%
G36*
X175142539Y-94320185D02*
G01*
X175188294Y-94372989D01*
X175199500Y-94424500D01*
X175199500Y-155325500D01*
X175179815Y-155392539D01*
X175127011Y-155438294D01*
X175075500Y-155449500D01*
X137424500Y-155449500D01*
X137357461Y-155429815D01*
X137311706Y-155377011D01*
X137300500Y-155325500D01*
X137300500Y-151878048D01*
X139139500Y-151878048D01*
X139139500Y-152121951D01*
X139166013Y-152323333D01*
X139171334Y-152363744D01*
X139171335Y-152363746D01*
X139234456Y-152599320D01*
X139234459Y-152599330D01*
X139327786Y-152824640D01*
X139327791Y-152824651D01*
X139449727Y-153035848D01*
X139449738Y-153035864D01*
X139598199Y-153229343D01*
X139598205Y-153229350D01*
X139770649Y-153401794D01*
X139770656Y-153401800D01*
X139797258Y-153422212D01*
X139964144Y-153550268D01*
X139964151Y-153550272D01*
X140175348Y-153672208D01*
X140175353Y-153672210D01*
X140175356Y-153672212D01*
X140400679Y-153765544D01*
X140636256Y-153828666D01*
X140878056Y-153860500D01*
X140878063Y-153860500D01*
X141121937Y-153860500D01*
X141121944Y-153860500D01*
X141363744Y-153828666D01*
X141599321Y-153765544D01*
X141824644Y-153672212D01*
X142035856Y-153550268D01*
X142229345Y-153401799D01*
X142401799Y-153229345D01*
X142550268Y-153035856D01*
X142672212Y-152824644D01*
X142765544Y-152599321D01*
X142828666Y-152363744D01*
X142860500Y-152121944D01*
X142860500Y-151878056D01*
X142828666Y-151636256D01*
X142826467Y-151628048D01*
X169889500Y-151628048D01*
X169889500Y-151871951D01*
X169890305Y-151878062D01*
X169921334Y-152113744D01*
X169923533Y-152121951D01*
X169984456Y-152349320D01*
X169984459Y-152349330D01*
X170077786Y-152574640D01*
X170077791Y-152574651D01*
X170199727Y-152785848D01*
X170199738Y-152785864D01*
X170348199Y-152979343D01*
X170348205Y-152979350D01*
X170520649Y-153151794D01*
X170520656Y-153151800D01*
X170621715Y-153229345D01*
X170714144Y-153300268D01*
X170714151Y-153300272D01*
X170925348Y-153422208D01*
X170925353Y-153422210D01*
X170925356Y-153422212D01*
X171150679Y-153515544D01*
X171386256Y-153578666D01*
X171628056Y-153610500D01*
X171628063Y-153610500D01*
X171871937Y-153610500D01*
X171871944Y-153610500D01*
X172113744Y-153578666D01*
X172349321Y-153515544D01*
X172574644Y-153422212D01*
X172785856Y-153300268D01*
X172979345Y-153151799D01*
X173151799Y-152979345D01*
X173300268Y-152785856D01*
X173422212Y-152574644D01*
X173515544Y-152349321D01*
X173578666Y-152113744D01*
X173610500Y-151871944D01*
X173610500Y-151628056D01*
X173578666Y-151386256D01*
X173515544Y-151150679D01*
X173422212Y-150925356D01*
X173422210Y-150925353D01*
X173422208Y-150925348D01*
X173300272Y-150714151D01*
X173300268Y-150714144D01*
X173211302Y-150598201D01*
X173151800Y-150520656D01*
X173151794Y-150520649D01*
X172979350Y-150348205D01*
X172979343Y-150348199D01*
X172785864Y-150199738D01*
X172785862Y-150199736D01*
X172785856Y-150199732D01*
X172785851Y-150199729D01*
X172785848Y-150199727D01*
X172574651Y-150077791D01*
X172574640Y-150077786D01*
X172349330Y-149984459D01*
X172349323Y-149984457D01*
X172349321Y-149984456D01*
X172113744Y-149921334D01*
X172073333Y-149916013D01*
X171871951Y-149889500D01*
X171871944Y-149889500D01*
X171628056Y-149889500D01*
X171628048Y-149889500D01*
X171397896Y-149919801D01*
X171386256Y-149921334D01*
X171150679Y-149984456D01*
X171150669Y-149984459D01*
X170925359Y-150077786D01*
X170925348Y-150077791D01*
X170714151Y-150199727D01*
X170714135Y-150199738D01*
X170520656Y-150348199D01*
X170520649Y-150348205D01*
X170348205Y-150520649D01*
X170348199Y-150520656D01*
X170199738Y-150714135D01*
X170199727Y-150714151D01*
X170077791Y-150925348D01*
X170077786Y-150925359D01*
X169984459Y-151150669D01*
X169984456Y-151150679D01*
X169921335Y-151386253D01*
X169921333Y-151386264D01*
X169889500Y-151628048D01*
X142826467Y-151628048D01*
X142765544Y-151400679D01*
X142672212Y-151175356D01*
X142672210Y-151175353D01*
X142672208Y-151175348D01*
X142550272Y-150964151D01*
X142550268Y-150964144D01*
X142401799Y-150770655D01*
X142401794Y-150770649D01*
X142229350Y-150598205D01*
X142229343Y-150598199D01*
X142035864Y-150449738D01*
X142035862Y-150449736D01*
X142035856Y-150449732D01*
X142035851Y-150449729D01*
X142035848Y-150449727D01*
X141824651Y-150327791D01*
X141824640Y-150327786D01*
X141599330Y-150234459D01*
X141599323Y-150234457D01*
X141599321Y-150234456D01*
X141363744Y-150171334D01*
X141323333Y-150166013D01*
X141121951Y-150139500D01*
X141121944Y-150139500D01*
X140878056Y-150139500D01*
X140878048Y-150139500D01*
X140647896Y-150169801D01*
X140636256Y-150171334D01*
X140530250Y-150199738D01*
X140400679Y-150234456D01*
X140400669Y-150234459D01*
X140175359Y-150327786D01*
X140175348Y-150327791D01*
X139964151Y-150449727D01*
X139964135Y-150449738D01*
X139770656Y-150598199D01*
X139770649Y-150598205D01*
X139598205Y-150770649D01*
X139598199Y-150770656D01*
X139449738Y-150964135D01*
X139449727Y-150964151D01*
X139327791Y-151175348D01*
X139327786Y-151175359D01*
X139234459Y-151400669D01*
X139234456Y-151400679D01*
X139171334Y-151636256D01*
X139171333Y-151636264D01*
X139139500Y-151878048D01*
X137300500Y-151878048D01*
X137300500Y-146818476D01*
X154449500Y-146818476D01*
X154449500Y-149181523D01*
X154464352Y-149275298D01*
X154464353Y-149275301D01*
X154464354Y-149275303D01*
X154521950Y-149388342D01*
X154521951Y-149388343D01*
X154521954Y-149388347D01*
X154611652Y-149478045D01*
X154611656Y-149478048D01*
X154611658Y-149478050D01*
X154724697Y-149535646D01*
X154724699Y-149535646D01*
X154724701Y-149535647D01*
X154818477Y-149550500D01*
X154818482Y-149550500D01*
X157181523Y-149550500D01*
X157275298Y-149535647D01*
X157275298Y-149535646D01*
X157275303Y-149535646D01*
X157388342Y-149478050D01*
X157478050Y-149388342D01*
X157535646Y-149275303D01*
X157535647Y-149275298D01*
X157550500Y-149181523D01*
X157550500Y-146818476D01*
X157535647Y-146724701D01*
X157535646Y-146724699D01*
X157535646Y-146724697D01*
X157478050Y-146611658D01*
X157478048Y-146611656D01*
X157478045Y-146611652D01*
X157388347Y-146521954D01*
X157388343Y-146521951D01*
X157388342Y-146521950D01*
X157275303Y-146464354D01*
X157275301Y-146464353D01*
X157275298Y-146464352D01*
X157181523Y-146449500D01*
X157181518Y-146449500D01*
X154818482Y-146449500D01*
X154818477Y-146449500D01*
X154724701Y-146464352D01*
X154611656Y-146521951D01*
X154611652Y-146521954D01*
X154521954Y-146611652D01*
X154521951Y-146611656D01*
X154464352Y-146724701D01*
X154449500Y-146818476D01*
X137300500Y-146818476D01*
X137300500Y-109095957D01*
X158739500Y-109095957D01*
X158739500Y-109204043D01*
X158767475Y-109308447D01*
X158767476Y-109308448D01*
X158767478Y-109308453D01*
X158821513Y-109402046D01*
X158821517Y-109402051D01*
X158821518Y-109402053D01*
X158897947Y-109478482D01*
X158897949Y-109478483D01*
X158897953Y-109478486D01*
X158991546Y-109532521D01*
X158991553Y-109532525D01*
X159095957Y-109560500D01*
X159095959Y-109560500D01*
X159204040Y-109560500D01*
X159204043Y-109560500D01*
X159308447Y-109532525D01*
X159402053Y-109478482D01*
X159478482Y-109402053D01*
X159532525Y-109308447D01*
X159560500Y-109204043D01*
X159560500Y-109145122D01*
X159569144Y-109115681D01*
X159575668Y-109085695D01*
X159579422Y-109080679D01*
X159580185Y-109078083D01*
X159596819Y-109057441D01*
X159767442Y-108886819D01*
X159828765Y-108853334D01*
X159855123Y-108850500D01*
X161074827Y-108850500D01*
X161074829Y-108850500D01*
X161166898Y-108812364D01*
X162780793Y-107198467D01*
X162842116Y-107164983D01*
X162868474Y-107162149D01*
X163234910Y-107162149D01*
X163301949Y-107181834D01*
X163347704Y-107234638D01*
X163357648Y-107303796D01*
X163342297Y-107348149D01*
X163323952Y-107379922D01*
X163323952Y-107379923D01*
X163323951Y-107379925D01*
X163295976Y-107484329D01*
X163295976Y-107592415D01*
X163323951Y-107696819D01*
X163323952Y-107696820D01*
X163323954Y-107696825D01*
X163377989Y-107790418D01*
X163377993Y-107790423D01*
X163377994Y-107790425D01*
X163454423Y-107866854D01*
X163454425Y-107866855D01*
X163454429Y-107866858D01*
X163548022Y-107920893D01*
X163548029Y-107920897D01*
X163652433Y-107948872D01*
X163652435Y-107948872D01*
X163760517Y-107948872D01*
X163760519Y-107948872D01*
X163864923Y-107920897D01*
X163864925Y-107920895D01*
X163864927Y-107920895D01*
X163872435Y-107917786D01*
X163873583Y-107920559D01*
X163920531Y-107907975D01*
X164549826Y-107907975D01*
X164549828Y-107907975D01*
X164605442Y-107884938D01*
X164652895Y-107875500D01*
X165368603Y-107875500D01*
X165435642Y-107895185D01*
X165456284Y-107911819D01*
X165497947Y-107953482D01*
X165497949Y-107953483D01*
X165497953Y-107953486D01*
X165591546Y-108007521D01*
X165591553Y-108007525D01*
X165695957Y-108035500D01*
X165695959Y-108035500D01*
X165804040Y-108035500D01*
X165804043Y-108035500D01*
X165908447Y-108007525D01*
X166002053Y-107953482D01*
X166078482Y-107877053D01*
X166132525Y-107783447D01*
X166160500Y-107679043D01*
X166160500Y-107570957D01*
X166132525Y-107466553D01*
X166124154Y-107452054D01*
X166078486Y-107372953D01*
X166078480Y-107372945D01*
X166002054Y-107296519D01*
X166002046Y-107296513D01*
X165908453Y-107242478D01*
X165908450Y-107242476D01*
X165908447Y-107242475D01*
X165804043Y-107214500D01*
X165695957Y-107214500D01*
X165591553Y-107242475D01*
X165591551Y-107242475D01*
X165591551Y-107242476D01*
X165591546Y-107242478D01*
X165497953Y-107296513D01*
X165497945Y-107296519D01*
X165456284Y-107338181D01*
X165394961Y-107371666D01*
X165368603Y-107374500D01*
X164582305Y-107374500D01*
X164582303Y-107374499D01*
X164482648Y-107374499D01*
X164428715Y-107396839D01*
X164414537Y-107402711D01*
X164399353Y-107404951D01*
X164393722Y-107404162D01*
X164379579Y-107406975D01*
X164176210Y-107406975D01*
X164109171Y-107387290D01*
X164068823Y-107344974D01*
X164034962Y-107286325D01*
X164034956Y-107286317D01*
X164019570Y-107270931D01*
X163986085Y-107209608D01*
X163991069Y-107139916D01*
X164019572Y-107095567D01*
X164024639Y-107090501D01*
X164078682Y-106996895D01*
X164106657Y-106892491D01*
X164106657Y-106784405D01*
X164078682Y-106680001D01*
X164059840Y-106647365D01*
X164024643Y-106586401D01*
X164024637Y-106586393D01*
X163948211Y-106509967D01*
X163948203Y-106509961D01*
X163854610Y-106455926D01*
X163854607Y-106455924D01*
X163854604Y-106455923D01*
X163750200Y-106427948D01*
X163642114Y-106427948D01*
X163537710Y-106455923D01*
X163537708Y-106455923D01*
X163537708Y-106455924D01*
X163537703Y-106455926D01*
X163444110Y-106509961D01*
X163444102Y-106509967D01*
X163367676Y-106586393D01*
X163367672Y-106586398D01*
X163360311Y-106599149D01*
X163309744Y-106647365D01*
X163252924Y-106661149D01*
X162663522Y-106661149D01*
X162571454Y-106699285D01*
X162571453Y-106699286D01*
X160957559Y-108313181D01*
X160896236Y-108346666D01*
X160869878Y-108349500D01*
X159650170Y-108349500D01*
X159558102Y-108387636D01*
X159242557Y-108703181D01*
X159181234Y-108736666D01*
X159154876Y-108739500D01*
X159095957Y-108739500D01*
X158991553Y-108767475D01*
X158991551Y-108767475D01*
X158991551Y-108767476D01*
X158991546Y-108767478D01*
X158897953Y-108821513D01*
X158897945Y-108821519D01*
X158821519Y-108897945D01*
X158821513Y-108897953D01*
X158767478Y-108991546D01*
X158767475Y-108991551D01*
X158767475Y-108991553D01*
X158739500Y-109095957D01*
X137300500Y-109095957D01*
X137300500Y-106068476D01*
X140699500Y-106068476D01*
X140699500Y-108431523D01*
X140714352Y-108525298D01*
X140714353Y-108525301D01*
X140714354Y-108525303D01*
X140771950Y-108638342D01*
X140771951Y-108638343D01*
X140771954Y-108638347D01*
X140861652Y-108728045D01*
X140861656Y-108728048D01*
X140861658Y-108728050D01*
X140974697Y-108785646D01*
X140974699Y-108785646D01*
X140974701Y-108785647D01*
X141068477Y-108800500D01*
X141068482Y-108800500D01*
X143431523Y-108800500D01*
X143525298Y-108785647D01*
X143525298Y-108785646D01*
X143525303Y-108785646D01*
X143638342Y-108728050D01*
X143728050Y-108638342D01*
X143785646Y-108525303D01*
X143785647Y-108525298D01*
X143800500Y-108431523D01*
X143800500Y-107145957D01*
X157389500Y-107145957D01*
X157389500Y-107254043D01*
X157417475Y-107358447D01*
X157417476Y-107358448D01*
X157417478Y-107358453D01*
X157471513Y-107452046D01*
X157471517Y-107452051D01*
X157471518Y-107452053D01*
X157547947Y-107528482D01*
X157547949Y-107528483D01*
X157547953Y-107528486D01*
X157621516Y-107570957D01*
X157641553Y-107582525D01*
X157745957Y-107610500D01*
X157745959Y-107610500D01*
X157854040Y-107610500D01*
X157854043Y-107610500D01*
X157958447Y-107582525D01*
X158052053Y-107528482D01*
X158128482Y-107452053D01*
X158182525Y-107358447D01*
X158210500Y-107254043D01*
X158210500Y-107145957D01*
X158182525Y-107041553D01*
X158182521Y-107041546D01*
X158128486Y-106947953D01*
X158128480Y-106947945D01*
X158086819Y-106906284D01*
X158053334Y-106844961D01*
X158050500Y-106818603D01*
X158050500Y-106355121D01*
X158070185Y-106288082D01*
X158086815Y-106267444D01*
X158707440Y-105646818D01*
X158768763Y-105613334D01*
X158795121Y-105610500D01*
X158854040Y-105610500D01*
X158854043Y-105610500D01*
X158958447Y-105582525D01*
X159052053Y-105528482D01*
X159128482Y-105452053D01*
X159182525Y-105358447D01*
X159210500Y-105254043D01*
X159210500Y-105145957D01*
X159182525Y-105041553D01*
X159169265Y-105018586D01*
X159128486Y-104947953D01*
X159128480Y-104947945D01*
X159052054Y-104871519D01*
X159052046Y-104871513D01*
X158958453Y-104817478D01*
X158958450Y-104817476D01*
X158958447Y-104817475D01*
X158915980Y-104806096D01*
X163362465Y-104806096D01*
X163362465Y-104914182D01*
X163390440Y-105018586D01*
X163390441Y-105018587D01*
X163390443Y-105018592D01*
X163444478Y-105112185D01*
X163444482Y-105112190D01*
X163444483Y-105112192D01*
X163520912Y-105188621D01*
X163520914Y-105188622D01*
X163520918Y-105188625D01*
X163605109Y-105237232D01*
X163614518Y-105242664D01*
X163718922Y-105270639D01*
X163718924Y-105270639D01*
X163827005Y-105270639D01*
X163827008Y-105270639D01*
X163931412Y-105242664D01*
X163978215Y-105215642D01*
X164025012Y-105188625D01*
X164025014Y-105188622D01*
X164025018Y-105188621D01*
X164025020Y-105188618D01*
X164029894Y-105184879D01*
X164095062Y-105159682D01*
X164105384Y-105159252D01*
X166009851Y-105159252D01*
X166076890Y-105178937D01*
X166097532Y-105195571D01*
X166139195Y-105237234D01*
X166139197Y-105237235D01*
X166139201Y-105237238D01*
X166232794Y-105291273D01*
X166232801Y-105291277D01*
X166337205Y-105319252D01*
X166337207Y-105319252D01*
X166445288Y-105319252D01*
X166445291Y-105319252D01*
X166549695Y-105291277D01*
X166643301Y-105237234D01*
X166719730Y-105160805D01*
X166773773Y-105067199D01*
X166801748Y-104962795D01*
X166801748Y-104854709D01*
X166773773Y-104750305D01*
X166745707Y-104701692D01*
X166719734Y-104656705D01*
X166719728Y-104656697D01*
X166643302Y-104580271D01*
X166643294Y-104580265D01*
X166549701Y-104526230D01*
X166549698Y-104526228D01*
X166549695Y-104526227D01*
X166445291Y-104498252D01*
X166337205Y-104498252D01*
X166232801Y-104526227D01*
X166232799Y-104526227D01*
X166232799Y-104526228D01*
X166232794Y-104526230D01*
X166139201Y-104580265D01*
X166139193Y-104580271D01*
X166097532Y-104621933D01*
X166036209Y-104655418D01*
X166009851Y-104658252D01*
X164201091Y-104658252D01*
X164134052Y-104638567D01*
X164102719Y-104609743D01*
X164101448Y-104608087D01*
X164025019Y-104531658D01*
X164025011Y-104531652D01*
X163931418Y-104477617D01*
X163931415Y-104477615D01*
X163931412Y-104477614D01*
X163827008Y-104449639D01*
X163718922Y-104449639D01*
X163614518Y-104477614D01*
X163614516Y-104477614D01*
X163614516Y-104477615D01*
X163614511Y-104477617D01*
X163520918Y-104531652D01*
X163520910Y-104531658D01*
X163444484Y-104608084D01*
X163444478Y-104608092D01*
X163390443Y-104701685D01*
X163390440Y-104701690D01*
X163390440Y-104701692D01*
X163362465Y-104806096D01*
X158915980Y-104806096D01*
X158854043Y-104789500D01*
X158745957Y-104789500D01*
X158641553Y-104817475D01*
X158641551Y-104817475D01*
X158641551Y-104817476D01*
X158641546Y-104817478D01*
X158547953Y-104871513D01*
X158547945Y-104871519D01*
X158471519Y-104947945D01*
X158471513Y-104947953D01*
X158417478Y-105041546D01*
X158417475Y-105041551D01*
X158417475Y-105041553D01*
X158389500Y-105145957D01*
X158389500Y-105145959D01*
X158389500Y-105204876D01*
X158369815Y-105271915D01*
X158353181Y-105292557D01*
X157640661Y-106005076D01*
X157640662Y-106005077D01*
X157587636Y-106058103D01*
X157549500Y-106150170D01*
X157549500Y-106818603D01*
X157529815Y-106885642D01*
X157513181Y-106906284D01*
X157471519Y-106947945D01*
X157471513Y-106947953D01*
X157417478Y-107041546D01*
X157417475Y-107041551D01*
X157417475Y-107041553D01*
X157389500Y-107145957D01*
X143800500Y-107145957D01*
X143800500Y-106068476D01*
X143785647Y-105974701D01*
X143785646Y-105974699D01*
X143785646Y-105974697D01*
X143728050Y-105861658D01*
X143728048Y-105861656D01*
X143728045Y-105861652D01*
X143638347Y-105771954D01*
X143638343Y-105771951D01*
X143638342Y-105771950D01*
X143525303Y-105714354D01*
X143525301Y-105714353D01*
X143525298Y-105714352D01*
X143431523Y-105699500D01*
X143431518Y-105699500D01*
X141068482Y-105699500D01*
X141068477Y-105699500D01*
X140974701Y-105714352D01*
X140861656Y-105771951D01*
X140861652Y-105771954D01*
X140771954Y-105861652D01*
X140771951Y-105861656D01*
X140714352Y-105974701D01*
X140699500Y-106068476D01*
X137300500Y-106068476D01*
X137300500Y-104145957D01*
X153389500Y-104145957D01*
X153389500Y-104254043D01*
X153417475Y-104358447D01*
X153417476Y-104358448D01*
X153417478Y-104358453D01*
X153471513Y-104452046D01*
X153471517Y-104452051D01*
X153471518Y-104452053D01*
X153547947Y-104528482D01*
X153547949Y-104528483D01*
X153547953Y-104528486D01*
X153637647Y-104580270D01*
X153641553Y-104582525D01*
X153745957Y-104610500D01*
X153745959Y-104610500D01*
X153854040Y-104610500D01*
X153854043Y-104610500D01*
X153958447Y-104582525D01*
X154052053Y-104528482D01*
X154093716Y-104486819D01*
X154155039Y-104453334D01*
X154181397Y-104450500D01*
X159449826Y-104450500D01*
X159449828Y-104450500D01*
X159541897Y-104412364D01*
X159707442Y-104246817D01*
X159768763Y-104213334D01*
X159795122Y-104210500D01*
X159854040Y-104210500D01*
X159854043Y-104210500D01*
X159958447Y-104182525D01*
X160052053Y-104128482D01*
X160128482Y-104052053D01*
X160182525Y-103958447D01*
X160210500Y-103854043D01*
X160210500Y-103745957D01*
X160182525Y-103641553D01*
X160182521Y-103641546D01*
X160128486Y-103547953D01*
X160128480Y-103547945D01*
X160052054Y-103471519D01*
X160052046Y-103471513D01*
X159958453Y-103417478D01*
X159958450Y-103417476D01*
X159958447Y-103417475D01*
X159854043Y-103389500D01*
X159745957Y-103389500D01*
X159641553Y-103417475D01*
X159641551Y-103417475D01*
X159641551Y-103417476D01*
X159641546Y-103417478D01*
X159547953Y-103471513D01*
X159547945Y-103471519D01*
X159471519Y-103547945D01*
X159471513Y-103547953D01*
X159417478Y-103641546D01*
X159417475Y-103641551D01*
X159417475Y-103641553D01*
X159389500Y-103745957D01*
X159389500Y-103745959D01*
X159389500Y-103804875D01*
X159380856Y-103834309D01*
X159374334Y-103864299D01*
X159370577Y-103869317D01*
X159369815Y-103871914D01*
X159353183Y-103892554D01*
X159332559Y-103913179D01*
X159271237Y-103946666D01*
X159244876Y-103949500D01*
X154181397Y-103949500D01*
X154114358Y-103929815D01*
X154093716Y-103913181D01*
X154052054Y-103871519D01*
X154052046Y-103871513D01*
X153958453Y-103817478D01*
X153958450Y-103817476D01*
X153958447Y-103817475D01*
X153854043Y-103789500D01*
X153745957Y-103789500D01*
X153641553Y-103817475D01*
X153641551Y-103817475D01*
X153641551Y-103817476D01*
X153641546Y-103817478D01*
X153547953Y-103871513D01*
X153547945Y-103871519D01*
X153471519Y-103947945D01*
X153471513Y-103947953D01*
X153417478Y-104041546D01*
X153417475Y-104041551D01*
X153417475Y-104041553D01*
X153389500Y-104145957D01*
X137300500Y-104145957D01*
X137300500Y-97878048D01*
X169639500Y-97878048D01*
X169639500Y-98121951D01*
X169666013Y-98323333D01*
X169671334Y-98363744D01*
X169671335Y-98363746D01*
X169734456Y-98599320D01*
X169734459Y-98599330D01*
X169827786Y-98824640D01*
X169827791Y-98824651D01*
X169949727Y-99035848D01*
X169949738Y-99035864D01*
X170098199Y-99229343D01*
X170098205Y-99229350D01*
X170270649Y-99401794D01*
X170270655Y-99401799D01*
X170464144Y-99550268D01*
X170464151Y-99550272D01*
X170675348Y-99672208D01*
X170675353Y-99672210D01*
X170675356Y-99672212D01*
X170900679Y-99765544D01*
X171136256Y-99828666D01*
X171378056Y-99860500D01*
X171378063Y-99860500D01*
X171621937Y-99860500D01*
X171621944Y-99860500D01*
X171863744Y-99828666D01*
X172099321Y-99765544D01*
X172324644Y-99672212D01*
X172535856Y-99550268D01*
X172729345Y-99401799D01*
X172901799Y-99229345D01*
X173050268Y-99035856D01*
X173172212Y-98824644D01*
X173265544Y-98599321D01*
X173328666Y-98363744D01*
X173360500Y-98121944D01*
X173360500Y-97878056D01*
X173328666Y-97636256D01*
X173265544Y-97400679D01*
X173172212Y-97175356D01*
X173172210Y-97175353D01*
X173172208Y-97175348D01*
X173050272Y-96964151D01*
X173050268Y-96964144D01*
X172901799Y-96770655D01*
X172901794Y-96770649D01*
X172729350Y-96598205D01*
X172729343Y-96598199D01*
X172535864Y-96449738D01*
X172535862Y-96449736D01*
X172535856Y-96449732D01*
X172535851Y-96449729D01*
X172535848Y-96449727D01*
X172324651Y-96327791D01*
X172324640Y-96327786D01*
X172099330Y-96234459D01*
X172099323Y-96234457D01*
X172099321Y-96234456D01*
X171863744Y-96171334D01*
X171823333Y-96166013D01*
X171621951Y-96139500D01*
X171621944Y-96139500D01*
X171378056Y-96139500D01*
X171378048Y-96139500D01*
X171147896Y-96169801D01*
X171136256Y-96171334D01*
X170900679Y-96234456D01*
X170900669Y-96234459D01*
X170675359Y-96327786D01*
X170675348Y-96327791D01*
X170464151Y-96449727D01*
X170464135Y-96449738D01*
X170270656Y-96598199D01*
X170270649Y-96598205D01*
X170098205Y-96770649D01*
X170098199Y-96770656D01*
X169949738Y-96964135D01*
X169949727Y-96964151D01*
X169827791Y-97175348D01*
X169827786Y-97175359D01*
X169734459Y-97400669D01*
X169734456Y-97400679D01*
X169671335Y-97636253D01*
X169671333Y-97636264D01*
X169639500Y-97878048D01*
X137300500Y-97878048D01*
X137300500Y-94424500D01*
X137320185Y-94357461D01*
X137372989Y-94311706D01*
X137424500Y-94300500D01*
X175075500Y-94300500D01*
X175142539Y-94320185D01*
G37*
%TD.AperFunction*%
%TD*%
M02*
