%TF.GenerationSoftware,KiCad,Pcbnew,9.0.6*%
%TF.CreationDate,2026-02-08T18:04:31+01:00*%
%TF.ProjectId,Buck,4275636b-2e6b-4696-9361-645f70636258,B*%
%TF.SameCoordinates,Original*%
%TF.FileFunction,Copper,L1,Top*%
%TF.FilePolarity,Positive*%
%FSLAX46Y46*%
G04 Gerber Fmt 4.6, Leading zero omitted, Abs format (unit mm)*
G04 Created by KiCad (PCBNEW 9.0.6) date 2026-02-08 18:04:31*
%MOMM*%
%LPD*%
G01*
G04 APERTURE LIST*
G04 Aperture macros list*
%AMRoundRect*
0 Rectangle with rounded corners*
0 $1 Rounding radius*
0 $2 $3 $4 $5 $6 $7 $8 $9 X,Y pos of 4 corners*
0 Add a 4 corners polygon primitive as box body*
4,1,4,$2,$3,$4,$5,$6,$7,$8,$9,$2,$3,0*
0 Add four circle primitives for the rounded corners*
1,1,$1+$1,$2,$3*
1,1,$1+$1,$4,$5*
1,1,$1+$1,$6,$7*
1,1,$1+$1,$8,$9*
0 Add four rect primitives between the rounded corners*
20,1,$1+$1,$2,$3,$4,$5,0*
20,1,$1+$1,$4,$5,$6,$7,0*
20,1,$1+$1,$6,$7,$8,$9,0*
20,1,$1+$1,$8,$9,$2,$3,0*%
%AMFreePoly0*
4,1,5,0.000000,0.000000,-0.500000,0.000000,-0.500000,0.700000,0.000000,0.700000,0.000000,0.000000,0.000000,0.000000,$1*%
%AMFreePoly1*
4,1,5,0.750000,0.000000,0.000000,0.000000,0.000000,3.365000,0.750000,3.365000,0.750000,0.000000,0.750000,0.000000,$1*%
%AMFreePoly2*
4,1,5,0.500000,-0.700000,0.000000,-0.700000,0.000000,0.000000,0.500000,0.000000,0.500000,-0.700000,0.500000,-0.700000,$1*%
%AMFreePoly3*
4,1,5,0.000000,-4.700000,-4.534500,-4.700000,-4.534500,0.000000,0.000000,0.000000,0.000000,-4.700000,0.000000,-4.700000,$1*%
G04 Aperture macros list end*
%TA.AperFunction,EtchedComponent*%
%ADD10C,0.000000*%
%TD*%
%TA.AperFunction,SMDPad,CuDef*%
%ADD11RoundRect,0.250000X0.650000X-0.325000X0.650000X0.325000X-0.650000X0.325000X-0.650000X-0.325000X0*%
%TD*%
%TA.AperFunction,ComponentPad*%
%ADD12RoundRect,0.250001X-1.149999X1.149999X-1.149999X-1.149999X1.149999X-1.149999X1.149999X1.149999X0*%
%TD*%
%TA.AperFunction,ComponentPad*%
%ADD13C,2.800000*%
%TD*%
%TA.AperFunction,SMDPad,CuDef*%
%ADD14RoundRect,0.225000X0.225000X0.250000X-0.225000X0.250000X-0.225000X-0.250000X0.225000X-0.250000X0*%
%TD*%
%TA.AperFunction,SMDPad,CuDef*%
%ADD15C,1.000000*%
%TD*%
%TA.AperFunction,SMDPad,CuDef*%
%ADD16RoundRect,0.200000X-0.200000X-0.275000X0.200000X-0.275000X0.200000X0.275000X-0.200000X0.275000X0*%
%TD*%
%TA.AperFunction,SMDPad,CuDef*%
%ADD17RoundRect,0.250000X-0.250000X-0.475000X0.250000X-0.475000X0.250000X0.475000X-0.250000X0.475000X0*%
%TD*%
%TA.AperFunction,SMDPad,CuDef*%
%ADD18RoundRect,0.225000X-0.225000X-0.250000X0.225000X-0.250000X0.225000X0.250000X-0.225000X0.250000X0*%
%TD*%
%TA.AperFunction,SMDPad,CuDef*%
%ADD19RoundRect,0.250000X0.325000X1.100000X-0.325000X1.100000X-0.325000X-1.100000X0.325000X-1.100000X0*%
%TD*%
%TA.AperFunction,SMDPad,CuDef*%
%ADD20RoundRect,0.250000X1.050000X0.550000X-1.050000X0.550000X-1.050000X-0.550000X1.050000X-0.550000X0*%
%TD*%
%TA.AperFunction,SMDPad,CuDef*%
%ADD21RoundRect,0.225000X0.250000X-0.225000X0.250000X0.225000X-0.250000X0.225000X-0.250000X-0.225000X0*%
%TD*%
%TA.AperFunction,SMDPad,CuDef*%
%ADD22RoundRect,0.200000X-0.275000X0.200000X-0.275000X-0.200000X0.275000X-0.200000X0.275000X0.200000X0*%
%TD*%
%TA.AperFunction,SMDPad,CuDef*%
%ADD23R,4.000000X14.000000*%
%TD*%
%TA.AperFunction,SMDPad,CuDef*%
%ADD24R,0.431800X0.660400*%
%TD*%
%TA.AperFunction,SMDPad,CuDef*%
%ADD25R,0.300000X0.400000*%
%TD*%
%TA.AperFunction,SMDPad,CuDef*%
%ADD26RoundRect,0.218750X-0.256250X0.218750X-0.256250X-0.218750X0.256250X-0.218750X0.256250X0.218750X0*%
%TD*%
%TA.AperFunction,ComponentPad*%
%ADD27RoundRect,0.250001X-1.149999X-1.149999X1.149999X-1.149999X1.149999X1.149999X-1.149999X1.149999X0*%
%TD*%
%TA.AperFunction,SMDPad,CuDef*%
%ADD28R,0.249999X0.599999*%
%TD*%
%TA.AperFunction,SMDPad,CuDef*%
%ADD29R,0.599999X0.249999*%
%TD*%
%TA.AperFunction,ComponentPad*%
%ADD30C,0.499999*%
%TD*%
%TA.AperFunction,SMDPad,CuDef*%
%ADD31R,1.699999X2.700000*%
%TD*%
%TA.AperFunction,SMDPad,CuDef*%
%ADD32FreePoly0,270.000000*%
%TD*%
%TA.AperFunction,SMDPad,CuDef*%
%ADD33R,0.650000X1.250000*%
%TD*%
%TA.AperFunction,SMDPad,CuDef*%
%ADD34FreePoly1,270.000000*%
%TD*%
%TA.AperFunction,SMDPad,CuDef*%
%ADD35FreePoly2,270.000000*%
%TD*%
%TA.AperFunction,SMDPad,CuDef*%
%ADD36FreePoly3,270.000000*%
%TD*%
%TA.AperFunction,SMDPad,CuDef*%
%ADD37RoundRect,0.200000X0.200000X0.275000X-0.200000X0.275000X-0.200000X-0.275000X0.200000X-0.275000X0*%
%TD*%
%TA.AperFunction,SMDPad,CuDef*%
%ADD38RoundRect,0.135000X-0.135000X-0.185000X0.135000X-0.185000X0.135000X0.185000X-0.135000X0.185000X0*%
%TD*%
%TA.AperFunction,SMDPad,CuDef*%
%ADD39RoundRect,0.200000X0.275000X-0.200000X0.275000X0.200000X-0.275000X0.200000X-0.275000X-0.200000X0*%
%TD*%
%TA.AperFunction,SMDPad,CuDef*%
%ADD40R,4.500000X1.650000*%
%TD*%
%TA.AperFunction,ViaPad*%
%ADD41C,0.800000*%
%TD*%
%TA.AperFunction,ViaPad*%
%ADD42C,0.500000*%
%TD*%
%TA.AperFunction,Conductor*%
%ADD43C,0.200000*%
%TD*%
%TA.AperFunction,Conductor*%
%ADD44C,1.000000*%
%TD*%
%TA.AperFunction,Conductor*%
%ADD45C,0.600000*%
%TD*%
%TA.AperFunction,Conductor*%
%ADD46C,0.400000*%
%TD*%
G04 APERTURE END LIST*
D10*
%TA.AperFunction,EtchedComponent*%
%TO.C,Q1*%
G36*
X164765901Y-102049800D02*
G01*
X164984100Y-102049800D01*
X164984100Y-101979800D01*
X165415900Y-101979800D01*
X165415900Y-102049800D01*
X165634102Y-102049800D01*
X165634102Y-101979800D01*
X166065902Y-101979800D01*
X166065902Y-102049800D01*
X166284100Y-102049800D01*
X166284100Y-101979800D01*
X166715903Y-101979800D01*
X166715905Y-102529500D01*
X167254905Y-102529500D01*
X167254905Y-103099500D01*
X166715905Y-103099500D01*
X166715905Y-103279500D01*
X164334097Y-103279500D01*
X164334097Y-103099500D01*
X163795097Y-103099500D01*
X163795097Y-102529500D01*
X164334097Y-102529500D01*
X164334099Y-101979800D01*
X164765901Y-101979800D01*
X164765901Y-102049800D01*
G37*
%TD.AperFunction*%
%TD*%
D11*
%TO.P,C7,1*%
%TO.N,+18V*%
X159700000Y-100775000D03*
%TO.P,C7,2*%
%TO.N,GND*%
X159700000Y-97825000D03*
%TD*%
D12*
%TO.P,J1,1,Pin_1*%
%TO.N,+18V*%
X142250000Y-107250000D03*
D13*
%TO.P,J1,2,Pin_2*%
%TO.N,GND*%
X142250000Y-112250000D03*
%TD*%
D14*
%TO.P,C13,1*%
%TO.N,Net-(U1-COMP)*%
X158375000Y-108150000D03*
%TO.P,C13,2*%
%TO.N,Net-(C13-Pad2)*%
X156825000Y-108150000D03*
%TD*%
D15*
%TO.P,FID1,*%
%TO.N,*%
X139500000Y-97000000D03*
%TD*%
D11*
%TO.P,C3,1*%
%TO.N,+18V*%
X151900000Y-100775000D03*
%TO.P,C3,2*%
%TO.N,GND*%
X151900000Y-97825000D03*
%TD*%
D16*
%TO.P,R6,1*%
%TO.N,/ILIM*%
X162100000Y-111200000D03*
%TO.P,R6,2*%
%TO.N,/SW*%
X163750000Y-111200000D03*
%TD*%
D15*
%TO.P,FID3,*%
%TO.N,*%
X172750000Y-144750000D03*
%TD*%
D17*
%TO.P,C5,1*%
%TO.N,GND*%
X157100000Y-111600000D03*
%TO.P,C5,2*%
%TO.N,/SYNCIN*%
X159000000Y-111600000D03*
%TD*%
D18*
%TO.P,C11,1*%
%TO.N,/ILIM*%
X162025000Y-109500000D03*
%TO.P,C11,2*%
%TO.N,GND*%
X163575000Y-109500000D03*
%TD*%
D19*
%TO.P,C23,1*%
%TO.N,/VOUT*%
X148450000Y-135000000D03*
%TO.P,C23,2*%
%TO.N,GND*%
X145500000Y-135000000D03*
%TD*%
D18*
%TO.P,C12,1*%
%TO.N,/BST*%
X164225000Y-105750000D03*
%TO.P,C12,2*%
%TO.N,/SW*%
X165775000Y-105750000D03*
%TD*%
D20*
%TO.P,C1,1*%
%TO.N,+18V*%
X146050000Y-101000000D03*
%TO.P,C1,2*%
%TO.N,GND*%
X142450000Y-101000000D03*
%TD*%
D21*
%TO.P,C10,1*%
%TO.N,GND*%
X149000000Y-103975000D03*
%TO.P,C10,2*%
%TO.N,+18V*%
X149000000Y-102425000D03*
%TD*%
D22*
%TO.P,R8,1*%
%TO.N,Net-(C17-Pad2)*%
X151600000Y-107675000D03*
%TO.P,R8,2*%
%TO.N,/VOUT*%
X151600000Y-109325000D03*
%TD*%
D19*
%TO.P,C18,1*%
%TO.N,/VOUT*%
X148375000Y-124000000D03*
%TO.P,C18,2*%
%TO.N,GND*%
X145425000Y-124000000D03*
%TD*%
D18*
%TO.P,R20,1*%
%TO.N,Net-(R20-Pad1)*%
X154725000Y-104500000D03*
%TO.P,R20,2*%
%TO.N,Net-(U1-FB)*%
X156275000Y-104500000D03*
%TD*%
D23*
%TO.P,L1,1,1*%
%TO.N,/SW*%
X167800000Y-121800000D03*
%TO.P,L1,2,2*%
%TO.N,/VOUT*%
X151800000Y-121800000D03*
%TD*%
D24*
%TO.P,Q1,1,1*%
%TO.N,/SW*%
X164550002Y-104250000D03*
%TO.P,Q1,2,2*%
X165200000Y-104250000D03*
%TO.P,Q1,3,3*%
X165850002Y-104250000D03*
%TO.P,Q1,4,4*%
%TO.N,/HG*%
X166500000Y-104250000D03*
D25*
%TO.P,Q1,5,5*%
%TO.N,+18V*%
X166500000Y-101180000D03*
%TO.P,Q1,6,6*%
X165850002Y-101180000D03*
%TO.P,Q1,7,7*%
X165200000Y-101180000D03*
%TO.P,Q1,8,8*%
X164550002Y-101180000D03*
%TD*%
D26*
%TO.P,D1,1,K*%
%TO.N,/PGOOD*%
X160500000Y-109212500D03*
%TO.P,D1,2,A*%
%TO.N,Net-(D1-A)*%
X160500000Y-110787500D03*
%TD*%
D22*
%TO.P,R4,1*%
%TO.N,GND*%
X152600000Y-103175000D03*
%TO.P,R4,2*%
%TO.N,/EN*%
X152600000Y-104825000D03*
%TD*%
D11*
%TO.P,C2,1*%
%TO.N,+18V*%
X149400000Y-100775000D03*
%TO.P,C2,2*%
%TO.N,GND*%
X149400000Y-97825000D03*
%TD*%
D27*
%TO.P,J2,1,Pin_1*%
%TO.N,/VOUT*%
X156000000Y-148000000D03*
D13*
%TO.P,J2,2,Pin_2*%
%TO.N,GND*%
X161000000Y-148000000D03*
%TD*%
D28*
%TO.P,U1,1,EN_UVLO*%
%TO.N,/EN*%
X160600000Y-104099999D03*
D29*
%TO.P,U1,2,RT*%
%TO.N,/RT*%
X159700002Y-104500001D03*
%TO.P,U1,3,SS_TRK*%
%TO.N,/SS*%
X159700002Y-105000000D03*
%TO.P,U1,4,COMP*%
%TO.N,Net-(U1-COMP)*%
X159700002Y-105500002D03*
%TO.P,U1,5,FB*%
%TO.N,Net-(U1-FB)*%
X159700002Y-106000000D03*
%TO.P,U1,6,AGND*%
%TO.N,GND*%
X159700002Y-106500002D03*
%TO.P,U1,7,SYNCOUT*%
%TO.N,unconnected-(U1-SYNCOUT-Pad7)*%
X159700002Y-107000001D03*
%TO.P,U1,8,SYNCIN*%
%TO.N,/SYNCIN*%
X159700002Y-107500000D03*
%TO.P,U1,9,NC*%
%TO.N,unconnected-(U1-NC-Pad9)*%
X159700002Y-107999999D03*
D28*
%TO.P,U1,10,PGOOD*%
%TO.N,/PGOOD*%
X160600000Y-108400001D03*
%TO.P,U1,11,ILIM*%
%TO.N,/ILIM*%
X162100002Y-108400001D03*
D30*
%TO.P,U1,12,PGND*%
%TO.N,GND*%
X160750002Y-106250000D03*
X161350001Y-105150000D03*
X161350001Y-107350000D03*
X161950000Y-106250000D03*
D29*
X163000000Y-107999999D03*
%TO.P,U1,13,LO*%
%TO.N,/LG*%
X163000000Y-107500000D03*
%TO.P,U1,14,VCC*%
%TO.N,/SYNCIN*%
X163000000Y-106999998D03*
%TO.P,U1,15,EP*%
%TO.N,GND*%
X163000000Y-106500000D03*
%TO.P,U1,16,NC*%
%TO.N,unconnected-(U1-NC-Pad16)*%
X163000000Y-105999998D03*
%TO.P,U1,17,BST*%
%TO.N,/BST*%
X163000000Y-105499999D03*
%TO.P,U1,18,HO*%
%TO.N,/HG*%
X163000000Y-105000000D03*
%TO.P,U1,19,SW*%
%TO.N,/SW*%
X163000000Y-104499998D03*
D28*
%TO.P,U1,20,VIN*%
%TO.N,+18V*%
X162100002Y-104099999D03*
D31*
%TO.P,U1,21,EP*%
%TO.N,GND*%
X161350001Y-106250000D03*
%TD*%
D32*
%TO.P,Q2,1,SOURCE*%
%TO.N,GND*%
X170310400Y-107500000D03*
D33*
X170667000Y-107625000D03*
%TO.P,Q2,2,SOURCE*%
X169295800Y-107625000D03*
D32*
%TO.P,Q2,3,SOURCE*%
X167645400Y-107500000D03*
D34*
X167645400Y-107500000D03*
D33*
X168000000Y-107625000D03*
%TO.P,Q2,4,GATE*%
%TO.N,/LG*%
X166755800Y-107625000D03*
%TO.P,Q2,5,DRAIN*%
%TO.N,/SW*%
X166653800Y-113325000D03*
D35*
X167010400Y-113450000D03*
D33*
%TO.P,Q2,6,DRAIN*%
X168000000Y-113325000D03*
D35*
X168345400Y-113450000D03*
D33*
%TO.P,Q2,7,DRAIN*%
X169320800Y-113325000D03*
D35*
X169675400Y-113450000D03*
D33*
%TO.P,Q2,8,DRAIN*%
X170667000Y-113325000D03*
D35*
X171010400Y-113450000D03*
D36*
X171010400Y-113450000D03*
%TD*%
D37*
%TO.P,R5,1*%
%TO.N,Net-(U1-FB)*%
X158025000Y-109750000D03*
%TO.P,R5,2*%
%TO.N,GND*%
X156375000Y-109750000D03*
%TD*%
D38*
%TO.P,R1,1*%
%TO.N,/SYNCIN*%
X159290000Y-113200000D03*
%TO.P,R1,2*%
%TO.N,Net-(D1-A)*%
X160310000Y-113200000D03*
%TD*%
D11*
%TO.P,C9,1*%
%TO.N,+18V*%
X162200000Y-100775000D03*
%TO.P,C9,2*%
%TO.N,GND*%
X162200000Y-97825000D03*
%TD*%
D19*
%TO.P,C19,1*%
%TO.N,/VOUT*%
X148350000Y-131200000D03*
%TO.P,C19,2*%
%TO.N,GND*%
X145400000Y-131200000D03*
%TD*%
D22*
%TO.P,R9,1*%
%TO.N,Net-(U1-FB)*%
X153350000Y-107675000D03*
%TO.P,R9,2*%
%TO.N,/VOUT*%
X153350000Y-109325000D03*
%TD*%
D19*
%TO.P,C22,1*%
%TO.N,/VOUT*%
X148450000Y-139250000D03*
%TO.P,C22,2*%
%TO.N,GND*%
X145500000Y-139250000D03*
%TD*%
D14*
%TO.P,C17,1*%
%TO.N,Net-(U1-FB)*%
X153575000Y-106225000D03*
%TO.P,C17,2*%
%TO.N,Net-(C17-Pad2)*%
X152025000Y-106225000D03*
%TD*%
D19*
%TO.P,C16,1*%
%TO.N,/VOUT*%
X148375000Y-120500000D03*
%TO.P,C16,2*%
%TO.N,GND*%
X145425000Y-120500000D03*
%TD*%
D18*
%TO.P,C8,1*%
%TO.N,GND*%
X154725000Y-103000000D03*
%TO.P,C8,2*%
%TO.N,/SS*%
X156275000Y-103000000D03*
%TD*%
D39*
%TO.P,R7,1*%
%TO.N,Net-(C13-Pad2)*%
X155200000Y-107825000D03*
%TO.P,R7,2*%
%TO.N,Net-(R20-Pad1)*%
X155200000Y-106175000D03*
%TD*%
D15*
%TO.P,FID2,*%
%TO.N,*%
X146750000Y-153700000D03*
%TD*%
D19*
%TO.P,C20,1*%
%TO.N,/VOUT*%
X148350000Y-127600000D03*
%TO.P,C20,2*%
%TO.N,GND*%
X145400000Y-127600000D03*
%TD*%
D11*
%TO.P,C4,1*%
%TO.N,+18V*%
X154500000Y-100775000D03*
%TO.P,C4,2*%
%TO.N,GND*%
X154500000Y-97825000D03*
%TD*%
D39*
%TO.P,R3,1*%
%TO.N,/EN*%
X160800000Y-104025000D03*
%TO.P,R3,2*%
%TO.N,+18V*%
X160800000Y-102375000D03*
%TD*%
D11*
%TO.P,C6,1*%
%TO.N,+18V*%
X157100000Y-100775000D03*
%TO.P,C6,2*%
%TO.N,GND*%
X157100000Y-97825000D03*
%TD*%
D40*
%TO.P,C21,1*%
%TO.N,/VOUT*%
X153500000Y-137000000D03*
%TO.P,C21,2*%
%TO.N,GND*%
X161900000Y-137000000D03*
%TD*%
D14*
%TO.P,C14,1*%
%TO.N,Net-(U1-COMP)*%
X158575000Y-106600000D03*
%TO.P,C14,2*%
%TO.N,Net-(U1-FB)*%
X157025000Y-106600000D03*
%TD*%
D19*
%TO.P,C15,1*%
%TO.N,/VOUT*%
X148375000Y-117000000D03*
%TO.P,C15,2*%
%TO.N,GND*%
X145425000Y-117000000D03*
%TD*%
D39*
%TO.P,R2,1*%
%TO.N,GND*%
X157800000Y-104900000D03*
%TO.P,R2,2*%
%TO.N,/RT*%
X157800000Y-103250000D03*
%TD*%
D41*
%TO.N,GND*%
X143000000Y-137000000D03*
X162000000Y-143000000D03*
X162000000Y-140000000D03*
X140000000Y-141000000D03*
X169000000Y-147000000D03*
X142000000Y-126000000D03*
X143000000Y-117000000D03*
X142000000Y-132000000D03*
X150500000Y-96500000D03*
X164500000Y-97500000D03*
X139000000Y-101500000D03*
X142000000Y-116000000D03*
X140000000Y-131000000D03*
X140000000Y-123000000D03*
X169000000Y-145000000D03*
X142000000Y-117000000D03*
X143000000Y-119000000D03*
X140000000Y-121000000D03*
X138000000Y-102500000D03*
X144000000Y-130000000D03*
X167000000Y-149000000D03*
X164000000Y-139000000D03*
X161000000Y-145000000D03*
D42*
X157000000Y-105500000D03*
D41*
X150200000Y-104500000D03*
X165000000Y-138000000D03*
X165000000Y-142000000D03*
X153750000Y-103000000D03*
X140000000Y-133000000D03*
X140000000Y-126000000D03*
X144000000Y-125000000D03*
X166000000Y-145000000D03*
X143000000Y-123000000D03*
X164000000Y-143000000D03*
X143000000Y-96500000D03*
X161000000Y-142000000D03*
X167000000Y-144000000D03*
X140000000Y-117000000D03*
X167000000Y-136000000D03*
X162000000Y-145000000D03*
X143000000Y-136000000D03*
X143000000Y-120000000D03*
X140000000Y-118000000D03*
X162000000Y-139000000D03*
X150500000Y-95500000D03*
X143000000Y-95500000D03*
X167500000Y-96500000D03*
X171000000Y-103250000D03*
X141000000Y-134000000D03*
X143000000Y-135000000D03*
X142000000Y-131000000D03*
X141000000Y-123000000D03*
X165000000Y-141000000D03*
X169000000Y-143000000D03*
X144000000Y-137000000D03*
X160000000Y-144000000D03*
X144000000Y-97500000D03*
X140000000Y-128000000D03*
X140000000Y-122000000D03*
X143000000Y-124000000D03*
X145000000Y-95500000D03*
X163000000Y-144000000D03*
X165000000Y-140000000D03*
X144000000Y-96500000D03*
X139000000Y-102500000D03*
X142000000Y-133000000D03*
X141000000Y-127000000D03*
X169000000Y-104250000D03*
X159500000Y-96500000D03*
X168000000Y-136000000D03*
X140000000Y-125000000D03*
X162000000Y-142000000D03*
X142000000Y-138000000D03*
X141000000Y-122000000D03*
X165500000Y-96500000D03*
X144000000Y-123000000D03*
X143000000Y-134000000D03*
X142000000Y-129000000D03*
X141000000Y-135000000D03*
X157700000Y-112800000D03*
X168000000Y-140000000D03*
X147000000Y-96500000D03*
X161000000Y-143000000D03*
X141000000Y-141000000D03*
X167000000Y-143000000D03*
X153500000Y-95500000D03*
X143000000Y-129000000D03*
X144000000Y-139000000D03*
X169000000Y-103250000D03*
X144000000Y-135000000D03*
X168000000Y-146000000D03*
X166000000Y-143000000D03*
X144000000Y-131000000D03*
X166000000Y-147000000D03*
X169000000Y-136000000D03*
X141000000Y-138000000D03*
X164000000Y-145000000D03*
X140000000Y-124000000D03*
X147000000Y-97500000D03*
X169000000Y-149000000D03*
X169000000Y-142000000D03*
X166000000Y-140000000D03*
X148500000Y-96500000D03*
X140500000Y-101500000D03*
X165000000Y-144000000D03*
X161500000Y-96500000D03*
X142000000Y-140000000D03*
X169000000Y-105250000D03*
X140000000Y-135000000D03*
X138000000Y-100500000D03*
X141000000Y-128000000D03*
X144000000Y-127000000D03*
X165000000Y-148000000D03*
X162500000Y-95500000D03*
X167500000Y-95500000D03*
X145000000Y-97500000D03*
X163000000Y-141000000D03*
X160000000Y-143000000D03*
X166000000Y-136000000D03*
X161000000Y-139000000D03*
X141000000Y-133000000D03*
X144000000Y-120000000D03*
X141000000Y-116000000D03*
X166500000Y-96500000D03*
X170000000Y-102250000D03*
X168000000Y-145000000D03*
X168000000Y-105250000D03*
X142000000Y-139000000D03*
X167500000Y-97500000D03*
X144000000Y-132000000D03*
X141000000Y-117000000D03*
X148500000Y-95500000D03*
X142000000Y-130000000D03*
X145000000Y-96500000D03*
X143000000Y-133000000D03*
X143000000Y-140000000D03*
X143000000Y-127000000D03*
X140000000Y-139000000D03*
X142000000Y-136000000D03*
X168000000Y-138000000D03*
X142000000Y-134000000D03*
X147000000Y-95500000D03*
X144000000Y-124000000D03*
X163000000Y-142000000D03*
X149500000Y-96500000D03*
X160000000Y-142000000D03*
X146000000Y-95500000D03*
X168000000Y-147000000D03*
X143000000Y-125000000D03*
X164000000Y-142000000D03*
X155500000Y-96500000D03*
X168000000Y-141000000D03*
X142000000Y-141000000D03*
X144000000Y-141000000D03*
X144000000Y-117000000D03*
X142000000Y-118000000D03*
X141000000Y-125000000D03*
X142000000Y-128000000D03*
X171000000Y-104250000D03*
X167000000Y-138000000D03*
X142000000Y-120000000D03*
X162900000Y-108700000D03*
X163000000Y-140000000D03*
X169000000Y-141000000D03*
X165500000Y-97500000D03*
X166000000Y-138000000D03*
X168000000Y-144000000D03*
X154500000Y-96500000D03*
X141000000Y-130000000D03*
X138000000Y-101500000D03*
X165000000Y-143000000D03*
X171000000Y-105250000D03*
X140000000Y-137000000D03*
X141000000Y-139000000D03*
X166000000Y-141000000D03*
X139000000Y-100500000D03*
X165000000Y-146000000D03*
X163000000Y-139000000D03*
X162000000Y-141000000D03*
X161000000Y-144000000D03*
X163500000Y-95500000D03*
X144000000Y-121000000D03*
X144000000Y-118000000D03*
X152500000Y-95500000D03*
X144000000Y-129000000D03*
X141000000Y-121000000D03*
X154500000Y-95500000D03*
X166000000Y-139000000D03*
X141000000Y-140000000D03*
X168000000Y-137000000D03*
X164000000Y-144000000D03*
X143000000Y-122000000D03*
X141000000Y-136000000D03*
X165000000Y-149000000D03*
X169000000Y-138000000D03*
X143000000Y-141000000D03*
X166000000Y-146000000D03*
X167000000Y-139000000D03*
X164500000Y-95500000D03*
X143000000Y-126000000D03*
X149500000Y-95500000D03*
X169000000Y-146000000D03*
X166000000Y-142000000D03*
X160000000Y-141000000D03*
X165000000Y-147000000D03*
X141000000Y-118000000D03*
X156500000Y-96500000D03*
X167000000Y-147000000D03*
X167000000Y-137000000D03*
X142000000Y-119000000D03*
X161500000Y-95500000D03*
X165500000Y-95500000D03*
X167000000Y-146000000D03*
X142000000Y-122000000D03*
X143000000Y-118000000D03*
X156300000Y-111500000D03*
X168000000Y-104250000D03*
X157500000Y-95500000D03*
X156500000Y-95500000D03*
X167000000Y-141000000D03*
X160000000Y-139000000D03*
X142000000Y-127000000D03*
X163000000Y-143000000D03*
X164000000Y-141000000D03*
X170000000Y-104250000D03*
X169000000Y-137000000D03*
X143000000Y-128000000D03*
X151500000Y-95500000D03*
X166000000Y-149000000D03*
X141000000Y-132000000D03*
X168000000Y-148000000D03*
X144000000Y-95500000D03*
X165000000Y-139000000D03*
X169000000Y-148000000D03*
X163500000Y-96500000D03*
X140000000Y-134000000D03*
X158500000Y-95500000D03*
X144000000Y-119000000D03*
X141000000Y-129000000D03*
X141000000Y-137000000D03*
X140500000Y-100500000D03*
X170000000Y-105250000D03*
X163000000Y-145000000D03*
X164500000Y-96500000D03*
X142000000Y-137000000D03*
X143000000Y-131000000D03*
X159500000Y-95500000D03*
X167000000Y-142000000D03*
X144000000Y-138000000D03*
X142000000Y-125000000D03*
X157500000Y-96500000D03*
X167000000Y-140000000D03*
X144000000Y-128000000D03*
X170000000Y-103250000D03*
X160500000Y-96500000D03*
X168000000Y-149000000D03*
X169000000Y-140000000D03*
X162500000Y-96500000D03*
X140000000Y-132000000D03*
X162000000Y-144000000D03*
X142000000Y-123000000D03*
X144000000Y-140000000D03*
X141000000Y-120000000D03*
X141000000Y-124000000D03*
X160000000Y-140000000D03*
X142000000Y-135000000D03*
X167000000Y-148000000D03*
X153500000Y-96500000D03*
X166500000Y-97500000D03*
X165000000Y-145000000D03*
X166500000Y-95500000D03*
X144000000Y-122000000D03*
X169000000Y-144000000D03*
X140000000Y-136000000D03*
X144000000Y-134000000D03*
X160500000Y-95500000D03*
X140000000Y-119000000D03*
X143000000Y-116000000D03*
X158500000Y-96500000D03*
X171000000Y-102250000D03*
X144000000Y-136000000D03*
X146000000Y-97500000D03*
X143000000Y-121000000D03*
X166000000Y-137000000D03*
X143000000Y-132000000D03*
X160000000Y-145000000D03*
X140000000Y-127000000D03*
X167000000Y-145000000D03*
X143000000Y-97500000D03*
X151500000Y-96500000D03*
X168000000Y-143000000D03*
X142000000Y-124000000D03*
X141000000Y-131000000D03*
X161000000Y-140000000D03*
X166000000Y-144000000D03*
X152500000Y-96500000D03*
X164000000Y-140000000D03*
X166000000Y-148000000D03*
X144000000Y-133000000D03*
X144000000Y-116000000D03*
X169000000Y-139000000D03*
X143000000Y-138000000D03*
X161000000Y-141000000D03*
X140000000Y-120000000D03*
X165000000Y-136000000D03*
X143000000Y-130000000D03*
X146000000Y-96500000D03*
X142000000Y-121000000D03*
X168000000Y-139000000D03*
X140000000Y-116000000D03*
X169000000Y-102250000D03*
X143000000Y-139000000D03*
X141000000Y-126000000D03*
X140000000Y-130000000D03*
X144000000Y-126000000D03*
X165000000Y-137000000D03*
X155500000Y-95500000D03*
X141000000Y-119000000D03*
X140000000Y-138000000D03*
X168250000Y-106250000D03*
X168000000Y-142000000D03*
X140000000Y-140000000D03*
X140000000Y-129000000D03*
D42*
%TO.N,/SYNCIN*%
X159700000Y-108600000D03*
X163696157Y-106838448D03*
%TO.N,Net-(U1-COMP)*%
X158800000Y-105200000D03*
X157800000Y-107200000D03*
%TO.N,/LG*%
X165750000Y-107625000D03*
X163706476Y-107538372D03*
%TO.N,/HG*%
X163772965Y-104860139D03*
X166391248Y-104908752D03*
%TO.N,/EN*%
X159800000Y-103800000D03*
X153800000Y-104200000D03*
%TD*%
D43*
%TO.N,GND*%
X161950000Y-106250000D02*
X161950000Y-106750001D01*
X157800000Y-104900000D02*
X157600000Y-104900000D01*
D44*
X157725000Y-112225000D02*
X157725000Y-112775000D01*
D43*
X162900000Y-109420000D02*
X162980000Y-109500000D01*
X157600000Y-104900000D02*
X157000000Y-105500000D01*
D44*
X157725000Y-112775000D02*
X157700000Y-112800000D01*
D43*
X163000000Y-108000001D02*
X162599999Y-108000001D01*
X149525000Y-104500000D02*
X149000000Y-103975000D01*
X153575000Y-103175000D02*
X153750000Y-103000000D01*
D44*
X157000000Y-111500000D02*
X157725000Y-112225000D01*
X141950000Y-101500000D02*
X142450000Y-101000000D01*
D43*
X163000000Y-106500000D02*
X161600001Y-106500000D01*
X160750002Y-106250000D02*
X160750002Y-105749999D01*
X161350001Y-105650001D02*
X161950000Y-106250000D01*
X157800000Y-104525000D02*
X157800000Y-104900000D01*
D44*
X156300000Y-111500000D02*
X157000000Y-111500000D01*
D43*
X161350001Y-105150000D02*
X161350001Y-105650001D01*
X159700002Y-106500002D02*
X160500000Y-106500002D01*
D44*
X140500000Y-101500000D02*
X141950000Y-101500000D01*
D43*
X162900000Y-108700000D02*
X162900000Y-109420000D01*
X163000000Y-108000001D02*
X162599998Y-108000001D01*
D44*
X156300000Y-109762500D02*
X156287500Y-109750000D01*
X156300000Y-111500000D02*
X156300000Y-109762500D01*
D43*
X150200000Y-104500000D02*
X149525000Y-104500000D01*
X160500000Y-106500002D02*
X160750002Y-106250000D01*
X161600001Y-106500000D02*
X161350001Y-106250000D01*
X161350001Y-106641480D02*
X161350001Y-106250000D01*
X163000000Y-108000001D02*
X163000000Y-108600000D01*
X150200000Y-104500000D02*
X151525000Y-103175000D01*
X152600000Y-103175000D02*
X153575000Y-103175000D01*
X153750000Y-103000000D02*
X154725000Y-103000000D01*
X160750002Y-106750001D02*
X161350001Y-107350000D01*
X163000000Y-107999999D02*
X162708520Y-107999999D01*
X162708520Y-107999999D02*
X161350001Y-106641480D01*
D44*
X157700000Y-112800000D02*
X157700000Y-111800000D01*
D43*
X162980000Y-109500000D02*
X163575000Y-109500000D01*
X160750002Y-105749999D02*
X161350001Y-105150000D01*
X163000000Y-108600000D02*
X162900000Y-108700000D01*
X160750002Y-106250000D02*
X160750002Y-106750001D01*
X161950000Y-106750001D02*
X161350001Y-107350000D01*
X161099999Y-106500002D02*
X161350001Y-106250000D01*
D44*
X140500000Y-100500000D02*
X141950000Y-100500000D01*
D43*
X151525000Y-103175000D02*
X152600000Y-103175000D01*
D44*
X141950000Y-100500000D02*
X142450000Y-101000000D01*
D43*
%TO.N,/BST*%
X163975001Y-105500001D02*
X164225000Y-105750000D01*
X163000000Y-105500001D02*
X163975001Y-105500001D01*
D45*
%TO.N,/SW*%
X164550002Y-104250000D02*
X164507754Y-104207752D01*
D44*
X165400000Y-106400000D02*
X165400000Y-106714000D01*
X165865000Y-114500000D02*
X169865000Y-114500000D01*
D46*
X164700000Y-104250000D02*
X165200000Y-104750000D01*
D44*
X167200000Y-113450000D02*
X167200000Y-121200000D01*
D46*
X165850002Y-104250000D02*
X165387500Y-104712502D01*
X164550002Y-104250000D02*
X164550002Y-104525002D01*
X164550002Y-104525002D02*
X165200000Y-105175000D01*
D44*
X167200000Y-121200000D02*
X167800000Y-121800000D01*
X168530000Y-113450000D02*
X168530000Y-121070000D01*
D46*
X165026000Y-106026000D02*
X165375000Y-106375000D01*
X164550002Y-104250000D02*
X164700000Y-104250000D01*
D45*
X165200000Y-105175000D02*
X165387500Y-105362500D01*
D44*
X163750000Y-110750000D02*
X163750000Y-111335000D01*
X168530000Y-121070000D02*
X167800000Y-121800000D01*
D45*
X163800000Y-110700000D02*
X163750000Y-110750000D01*
D44*
X165865000Y-113450000D02*
X169865000Y-113450000D01*
X165375000Y-106375000D02*
X165400000Y-106400000D01*
X165372651Y-108536000D02*
X165400000Y-108536000D01*
D45*
X164550002Y-104250000D02*
X165783100Y-104250000D01*
D46*
X165200000Y-105175000D02*
X165026000Y-105349000D01*
D43*
X163250000Y-104250000D02*
X164550002Y-104250000D01*
D44*
X165775000Y-105750000D02*
X165775000Y-105975000D01*
X164839000Y-107247651D02*
X164839000Y-108002349D01*
D46*
X165775000Y-104325002D02*
X165775000Y-105750000D01*
X165850002Y-104250000D02*
X165775000Y-104325002D01*
D44*
X164839000Y-108002349D02*
X165372651Y-108536000D01*
X169865000Y-113450000D02*
X169865000Y-114000000D01*
X163750000Y-111335000D02*
X165865000Y-113450000D01*
D46*
X165387500Y-104712502D02*
X165387500Y-105362500D01*
D45*
X165200000Y-104250000D02*
X165200000Y-104750000D01*
D44*
X165400000Y-108536000D02*
X165400000Y-110200000D01*
D45*
X165200000Y-104750000D02*
X165200000Y-105175000D01*
D44*
X169865000Y-114500000D02*
X169865000Y-119735000D01*
D46*
X165026000Y-105724000D02*
X165026000Y-106026000D01*
D44*
X165400000Y-110200000D02*
X164850000Y-110750000D01*
X169865000Y-119735000D02*
X167800000Y-121800000D01*
X165400000Y-106714000D02*
X165372651Y-106714000D01*
X165865000Y-114000000D02*
X169865000Y-114000000D01*
D46*
X165026000Y-105349000D02*
X165026000Y-105724000D01*
D44*
X164850000Y-110750000D02*
X163750000Y-110750000D01*
X169865000Y-114000000D02*
X169865000Y-114500000D01*
X165775000Y-105975000D02*
X165375000Y-106375000D01*
D43*
X163000000Y-104500000D02*
X163250000Y-104250000D01*
D44*
X165372651Y-106714000D02*
X164839000Y-107247651D01*
D45*
X165387500Y-105362500D02*
X165775000Y-105750000D01*
D46*
X165387500Y-105362500D02*
X165026000Y-105724000D01*
D43*
%TO.N,/SYNCIN*%
X159173003Y-107500002D02*
X159700002Y-107500002D01*
X163000000Y-107000000D02*
X163534605Y-107000000D01*
X163534605Y-107000000D02*
X163696157Y-106838448D01*
X159099003Y-108426000D02*
X159099003Y-107574002D01*
X159700000Y-108600000D02*
X159000000Y-109300000D01*
X159700000Y-108600000D02*
X159273003Y-108600000D01*
X159000000Y-112910000D02*
X159290000Y-113200000D01*
X159000000Y-109300000D02*
X159000000Y-111600000D01*
X159099003Y-107574002D02*
X159173003Y-107500002D01*
X159273003Y-108600000D02*
X159099003Y-108426000D01*
X159000000Y-111600000D02*
X159000000Y-112910000D01*
X163593978Y-107000000D02*
X163682329Y-106911649D01*
%TO.N,/ILIM*%
X162020000Y-109500000D02*
X162020000Y-110670000D01*
X162100002Y-109419998D02*
X162020000Y-109500000D01*
X162020000Y-110670000D02*
X162100000Y-110750000D01*
X162100002Y-108400003D02*
X162100002Y-109419998D01*
%TO.N,/SS*%
X158500000Y-104200000D02*
X158474000Y-104174000D01*
X159051807Y-104348193D02*
X158903613Y-104200000D01*
X157449000Y-104174000D02*
X156275000Y-103000000D01*
X159700002Y-105000000D02*
X159400000Y-105000000D01*
X159400000Y-105000000D02*
X159051807Y-104651807D01*
X159051807Y-104651807D02*
X159051807Y-104348193D01*
X158474000Y-104174000D02*
X157449000Y-104174000D01*
X158903613Y-104200000D02*
X158500000Y-104200000D01*
%TO.N,Net-(U1-COMP)*%
X158575000Y-106400000D02*
X158575000Y-107750000D01*
X157975000Y-107200000D02*
X158575000Y-106600000D01*
X157800000Y-107200000D02*
X157975000Y-107200000D01*
X157800000Y-107200000D02*
X157800000Y-107575000D01*
X159700002Y-105500002D02*
X159100002Y-105500002D01*
X157800000Y-107575000D02*
X158375000Y-108150000D01*
X158750000Y-106725000D02*
X158725000Y-106750000D01*
X158575000Y-107750000D02*
X158375000Y-107950000D01*
X158575000Y-106400000D02*
X158575000Y-106198004D01*
X159100002Y-105500002D02*
X158800000Y-105200000D01*
%TO.N,Net-(C17-Pad2)*%
X151750000Y-106500000D02*
X152025000Y-106225000D01*
X151750000Y-107525000D02*
X151750000Y-106500000D01*
X151600000Y-107675000D02*
X151750000Y-107525000D01*
%TO.N,/PGOOD*%
X160600000Y-108400003D02*
X160600000Y-109415000D01*
X160600000Y-109415000D02*
X160500000Y-109515000D01*
%TO.N,/LG*%
X163000002Y-107500000D02*
X163000000Y-107500002D01*
X166755800Y-107625000D02*
X165750000Y-107625000D01*
X163000000Y-107500002D02*
X163668106Y-107500002D01*
X163668106Y-107500002D02*
X163706476Y-107538372D01*
%TO.N,/HG*%
X166500000Y-104800000D02*
X166400000Y-104900000D01*
X163633102Y-105000002D02*
X163772965Y-104860139D01*
X166500000Y-104250000D02*
X166500000Y-104800000D01*
X163693958Y-105000002D02*
X163785208Y-104908752D01*
X163000000Y-105000002D02*
X163633102Y-105000002D01*
%TO.N,/RT*%
X158450001Y-103250000D02*
X159700002Y-104500001D01*
X157800000Y-103250000D02*
X158450001Y-103250000D01*
%TO.N,Net-(C13-Pad2)*%
X156500000Y-107825000D02*
X156825000Y-108150000D01*
X155200000Y-107825000D02*
X156500000Y-107825000D01*
%TO.N,Net-(U1-FB)*%
X156275000Y-105650000D02*
X157025000Y-106400000D01*
X158025000Y-109750000D02*
X157151000Y-108876000D01*
X157777996Y-105847004D02*
X159047007Y-105847004D01*
X156275000Y-104500000D02*
X156275000Y-105650000D01*
X153350000Y-106450000D02*
X153575000Y-106225000D01*
X153575000Y-106225000D02*
X154176000Y-106826000D01*
X157025000Y-106400000D02*
X157418352Y-106400000D01*
X154176000Y-106826000D02*
X156599000Y-106826000D01*
X154551000Y-108876000D02*
X153350000Y-107675000D01*
X157025000Y-106600000D02*
X157777996Y-105847004D01*
X153350000Y-107675000D02*
X153350000Y-106450000D01*
X156599000Y-106826000D02*
X157025000Y-106400000D01*
X157151000Y-108876000D02*
X154551000Y-108876000D01*
X159047007Y-105847004D02*
X159200003Y-106000000D01*
X159200003Y-106000000D02*
X159700002Y-106000000D01*
%TO.N,Net-(D1-A)*%
X160500000Y-113010000D02*
X160310000Y-113200000D01*
X160500000Y-110787500D02*
X160500000Y-113010000D01*
D44*
%TO.N,+18V*%
X146050000Y-105350000D02*
X146050000Y-101000000D01*
X144150000Y-107250000D02*
X146050000Y-105350000D01*
X142250000Y-107250000D02*
X144150000Y-107250000D01*
D45*
X162100002Y-104100001D02*
X162100002Y-100874998D01*
X162100002Y-100874998D02*
X162200000Y-100775000D01*
D43*
%TO.N,/EN*%
X152600000Y-104825000D02*
X153175000Y-104825000D01*
X160575000Y-103800000D02*
X160800000Y-104025000D01*
X159800000Y-103800000D02*
X160575000Y-103800000D01*
X153175000Y-104825000D02*
X153800000Y-104200000D01*
%TO.N,Net-(R20-Pad1)*%
X154725000Y-105700000D02*
X155200000Y-106175000D01*
X154725000Y-104500000D02*
X154725000Y-105700000D01*
%TD*%
%TA.AperFunction,Conductor*%
%TO.N,/VOUT*%
G36*
X150800000Y-114306706D02*
G01*
X154200000Y-114306706D01*
X154200000Y-113750000D01*
X157354406Y-113750000D01*
X157383102Y-113753366D01*
X157392720Y-113755653D01*
X157408164Y-113762051D01*
X157475777Y-113775500D01*
X157536466Y-113787572D01*
X157601456Y-113800500D01*
X157601459Y-113800500D01*
X157798543Y-113800500D01*
X157841869Y-113791881D01*
X157924223Y-113775500D01*
X157991836Y-113762051D01*
X158007279Y-113755653D01*
X158016898Y-113753366D01*
X158026226Y-113753852D01*
X158045594Y-113750000D01*
X158126000Y-113750000D01*
X158193039Y-113769685D01*
X158238794Y-113822489D01*
X158250000Y-113874000D01*
X158250000Y-150376000D01*
X158230315Y-150443039D01*
X158177511Y-150488794D01*
X158126000Y-150500000D01*
X147374000Y-150500000D01*
X147306961Y-150480315D01*
X147261206Y-150427511D01*
X147250000Y-150376000D01*
X147250000Y-113874000D01*
X147269685Y-113806961D01*
X147322489Y-113761206D01*
X147374000Y-113750000D01*
X150800000Y-113750000D01*
X150800000Y-114306706D01*
G37*
%TD.AperFunction*%
%TD*%
%TA.AperFunction,Conductor*%
%TO.N,/VOUT*%
G36*
X153448148Y-108626391D02*
G01*
X153468790Y-108643025D01*
X154070478Y-109244713D01*
X154070480Y-109244716D01*
X154163682Y-109337918D01*
X154197166Y-109399239D01*
X154197165Y-109399240D01*
X154197166Y-109399241D01*
X154200000Y-109425598D01*
X154200000Y-114306706D01*
X150800000Y-114306706D01*
X150800000Y-108730706D01*
X150819685Y-108663667D01*
X150872489Y-108617912D01*
X150924000Y-108606706D01*
X153381109Y-108606706D01*
X153448148Y-108626391D01*
G37*
%TD.AperFunction*%
%TD*%
%TA.AperFunction,Conductor*%
%TO.N,+18V*%
G36*
X167943039Y-99919685D02*
G01*
X167988794Y-99972489D01*
X168000000Y-100024000D01*
X168000000Y-102376000D01*
X167997449Y-102384685D01*
X167998738Y-102393647D01*
X167987759Y-102417687D01*
X167980315Y-102443039D01*
X167973474Y-102448966D01*
X167969713Y-102457203D01*
X167947478Y-102471492D01*
X167927511Y-102488794D01*
X167916996Y-102491081D01*
X167910935Y-102494977D01*
X167876000Y-102500000D01*
X167860547Y-102500000D01*
X167793508Y-102480315D01*
X167747753Y-102427511D01*
X167741570Y-102410936D01*
X167733862Y-102384685D01*
X167714724Y-102319508D01*
X167647437Y-102214808D01*
X167636937Y-102198469D01*
X167636933Y-102198465D01*
X167528204Y-102104250D01*
X167528202Y-102104248D01*
X167528199Y-102104246D01*
X167517807Y-102099500D01*
X167397324Y-102044476D01*
X167397320Y-102044475D01*
X167323157Y-102033813D01*
X167259602Y-102004788D01*
X167221827Y-101946010D01*
X167217120Y-101919916D01*
X167216258Y-101907860D01*
X167195564Y-101837384D01*
X167175722Y-101769808D01*
X167135040Y-101706506D01*
X167097935Y-101648769D01*
X167097931Y-101648765D01*
X166989202Y-101554550D01*
X166989200Y-101554548D01*
X166989197Y-101554546D01*
X166989193Y-101554544D01*
X166858322Y-101494776D01*
X166858317Y-101494775D01*
X166715903Y-101474300D01*
X166284100Y-101474300D01*
X166284097Y-101474300D01*
X166212161Y-101479444D01*
X166212158Y-101479445D01*
X166201723Y-101482509D01*
X166149149Y-101486268D01*
X166065904Y-101474300D01*
X166065902Y-101474300D01*
X165634102Y-101474300D01*
X165634099Y-101474300D01*
X165562167Y-101479444D01*
X165562155Y-101479446D01*
X165551720Y-101482510D01*
X165499150Y-101486268D01*
X165415903Y-101474300D01*
X165415900Y-101474300D01*
X164984100Y-101474300D01*
X164984097Y-101474300D01*
X164912161Y-101479444D01*
X164912152Y-101479446D01*
X164901720Y-101482509D01*
X164849148Y-101486268D01*
X164765903Y-101474300D01*
X164765901Y-101474300D01*
X164334099Y-101474300D01*
X164334096Y-101474300D01*
X164262158Y-101479445D01*
X164124112Y-101519978D01*
X164124109Y-101519979D01*
X164124108Y-101519980D01*
X164076562Y-101550536D01*
X164003069Y-101597766D01*
X163908846Y-101706505D01*
X163908845Y-101706506D01*
X163849076Y-101837380D01*
X163849075Y-101837384D01*
X163836746Y-101923131D01*
X163807720Y-101986686D01*
X163748941Y-102024460D01*
X163729689Y-102027933D01*
X163729695Y-102027965D01*
X163723160Y-102029143D01*
X163585102Y-102069682D01*
X163464066Y-102147467D01*
X163464062Y-102147471D01*
X163369847Y-102256200D01*
X163369841Y-102256209D01*
X163310072Y-102387083D01*
X163309129Y-102393648D01*
X163280103Y-102457204D01*
X163221325Y-102494977D01*
X163186391Y-102500000D01*
X158553804Y-102500000D01*
X158489655Y-102482117D01*
X158364606Y-102406522D01*
X158202196Y-102355914D01*
X158202194Y-102355913D01*
X158202192Y-102355913D01*
X158152778Y-102351423D01*
X158131616Y-102349500D01*
X157468384Y-102349500D01*
X157397804Y-102355914D01*
X157305473Y-102384685D01*
X157247736Y-102402676D01*
X157177876Y-102403826D01*
X157118484Y-102367025D01*
X157105309Y-102349388D01*
X157072968Y-102296956D01*
X156953044Y-102177032D01*
X156953040Y-102177029D01*
X156808705Y-102088001D01*
X156808699Y-102087998D01*
X156808697Y-102087997D01*
X156808694Y-102087996D01*
X156647709Y-102034651D01*
X156548346Y-102024500D01*
X156001662Y-102024500D01*
X156001644Y-102024501D01*
X155902292Y-102034650D01*
X155902289Y-102034651D01*
X155741305Y-102087996D01*
X155741294Y-102088001D01*
X155596959Y-102177029D01*
X155596955Y-102177032D01*
X155587681Y-102186307D01*
X155526358Y-102219792D01*
X155456666Y-102214808D01*
X155412319Y-102186307D01*
X155403044Y-102177032D01*
X155403040Y-102177029D01*
X155258705Y-102088001D01*
X155258699Y-102087998D01*
X155258697Y-102087997D01*
X155258694Y-102087996D01*
X155097709Y-102034651D01*
X154998346Y-102024500D01*
X154451662Y-102024500D01*
X154451644Y-102024501D01*
X154352292Y-102034650D01*
X154352289Y-102034651D01*
X154191305Y-102087996D01*
X154191296Y-102088001D01*
X154128779Y-102126561D01*
X154061386Y-102145001D01*
X154016229Y-102135582D01*
X154012667Y-102134106D01*
X154012658Y-102134103D01*
X153838694Y-102099500D01*
X153838691Y-102099500D01*
X153661309Y-102099500D01*
X153661306Y-102099500D01*
X153487341Y-102134103D01*
X153487332Y-102134106D01*
X153323459Y-102201983D01*
X153323446Y-102201990D01*
X153189967Y-102291179D01*
X153123289Y-102312057D01*
X153084187Y-102306463D01*
X153053677Y-102296956D01*
X153002196Y-102280914D01*
X152931616Y-102274500D01*
X152268384Y-102274500D01*
X152249145Y-102276248D01*
X152197807Y-102280913D01*
X152035393Y-102331522D01*
X151889811Y-102419530D01*
X151889810Y-102419531D01*
X151845663Y-102463680D01*
X151784340Y-102497166D01*
X151757981Y-102500000D01*
X144624000Y-102500000D01*
X144556961Y-102480315D01*
X144511206Y-102427511D01*
X144500000Y-102376000D01*
X144500000Y-100024000D01*
X144519685Y-99956961D01*
X144572489Y-99911206D01*
X144624000Y-99900000D01*
X167876000Y-99900000D01*
X167943039Y-99919685D01*
G37*
%TD.AperFunction*%
%TD*%
%TA.AperFunction,Conductor*%
%TO.N,GND*%
G36*
X155366168Y-109280625D02*
G01*
X155380794Y-109279861D01*
X155399021Y-109290272D01*
X155419157Y-109296185D01*
X155428746Y-109307251D01*
X155441464Y-109314516D01*
X155451168Y-109333128D01*
X155464912Y-109348989D01*
X155467572Y-109364589D01*
X155473767Y-109376470D01*
X155475610Y-109411716D01*
X155475000Y-109418432D01*
X155475000Y-109500000D01*
X156251000Y-109500000D01*
X156318039Y-109519685D01*
X156363794Y-109572489D01*
X156375000Y-109624000D01*
X156375000Y-109876000D01*
X156355315Y-109943039D01*
X156302511Y-109988794D01*
X156251000Y-110000000D01*
X155475001Y-110000000D01*
X155475001Y-110081582D01*
X155481408Y-110152102D01*
X155481409Y-110152107D01*
X155531981Y-110314396D01*
X155619927Y-110459877D01*
X155740122Y-110580072D01*
X155885604Y-110668019D01*
X155885603Y-110668019D01*
X156054159Y-110720543D01*
X156053798Y-110721700D01*
X156109739Y-110750959D01*
X156144315Y-110811673D01*
X156141346Y-110879199D01*
X156110494Y-110972302D01*
X156110493Y-110972309D01*
X156100000Y-111075013D01*
X156100000Y-111350000D01*
X156976000Y-111350000D01*
X157043039Y-111369685D01*
X157088794Y-111422489D01*
X157100000Y-111474000D01*
X157100000Y-111600000D01*
X157226000Y-111600000D01*
X157293039Y-111619685D01*
X157338794Y-111672489D01*
X157350000Y-111724000D01*
X157350000Y-112824999D01*
X157399972Y-112824999D01*
X157399986Y-112824998D01*
X157502697Y-112814505D01*
X157669119Y-112759358D01*
X157669124Y-112759356D01*
X157818345Y-112667315D01*
X157942315Y-112543345D01*
X158034356Y-112394124D01*
X158034357Y-112394120D01*
X158041606Y-112372245D01*
X158081377Y-112314799D01*
X158145892Y-112287974D01*
X158214668Y-112300287D01*
X158259167Y-112341605D01*
X158260514Y-112340584D01*
X158357077Y-112467922D01*
X158475718Y-112557890D01*
X158477658Y-112559361D01*
X158520990Y-112576448D01*
X158576134Y-112619354D01*
X158599327Y-112685261D01*
X158599500Y-112691803D01*
X158599500Y-112962726D01*
X158626793Y-113064589D01*
X158642705Y-113092148D01*
X158679520Y-113155913D01*
X158679522Y-113155915D01*
X158683181Y-113159574D01*
X158697884Y-113186501D01*
X158714477Y-113212320D01*
X158715368Y-113218520D01*
X158716666Y-113220897D01*
X158719500Y-113247255D01*
X158719500Y-113292279D01*
X158699815Y-113359318D01*
X158647011Y-113405073D01*
X158577853Y-113415017D01*
X158514297Y-113385992D01*
X158466335Y-113344432D01*
X158466331Y-113344430D01*
X158335465Y-113284664D01*
X158335460Y-113284662D01*
X158335459Y-113284662D01*
X158268420Y-113264977D01*
X158268422Y-113264977D01*
X158268417Y-113264976D01*
X158206347Y-113256052D01*
X158126000Y-113244500D01*
X158045594Y-113244500D01*
X158031815Y-113245856D01*
X157946997Y-113254208D01*
X157946992Y-113254209D01*
X157925993Y-113258385D01*
X157919600Y-113259789D01*
X157899971Y-113261575D01*
X157890352Y-113263862D01*
X157867728Y-113271185D01*
X157861850Y-113272477D01*
X157861475Y-113272451D01*
X157859440Y-113272981D01*
X157821915Y-113280446D01*
X157821916Y-113280447D01*
X157821911Y-113280448D01*
X157821785Y-113280473D01*
X157760736Y-113292617D01*
X157736544Y-113295000D01*
X157663460Y-113295000D01*
X157639268Y-113292617D01*
X157540566Y-113272983D01*
X157526567Y-113269338D01*
X157509680Y-113263871D01*
X157509648Y-113263862D01*
X157500047Y-113261579D01*
X157441996Y-113251308D01*
X157413303Y-113247942D01*
X157389740Y-113246565D01*
X157354406Y-113244500D01*
X157354397Y-113244500D01*
X154829500Y-113244500D01*
X154762461Y-113224815D01*
X154716706Y-113172011D01*
X154705500Y-113120500D01*
X154705500Y-112124986D01*
X156100001Y-112124986D01*
X156110494Y-112227697D01*
X156165641Y-112394119D01*
X156165643Y-112394124D01*
X156257684Y-112543345D01*
X156381654Y-112667315D01*
X156530875Y-112759356D01*
X156530880Y-112759358D01*
X156697302Y-112814505D01*
X156697309Y-112814506D01*
X156800019Y-112824999D01*
X156849999Y-112824998D01*
X156850000Y-112824998D01*
X156850000Y-111850000D01*
X156100001Y-111850000D01*
X156100001Y-112124986D01*
X154705500Y-112124986D01*
X154705500Y-109425599D01*
X154705116Y-109418432D01*
X154704510Y-109407138D01*
X154720576Y-109339144D01*
X154770854Y-109290626D01*
X154828332Y-109276500D01*
X155352118Y-109276500D01*
X155366168Y-109280625D01*
G37*
%TD.AperFunction*%
%TA.AperFunction,Conductor*%
G36*
X161547857Y-105510151D02*
G01*
X161592204Y-105538652D01*
X162039095Y-105985543D01*
X162072580Y-106046866D01*
X162067596Y-106116558D01*
X162039095Y-106160905D01*
X162021842Y-106178158D01*
X162007552Y-106163868D01*
X161970209Y-106148400D01*
X161929791Y-106148400D01*
X161892448Y-106163868D01*
X161863868Y-106192448D01*
X161848400Y-106229791D01*
X161848400Y-106270209D01*
X161863868Y-106307552D01*
X161892448Y-106336132D01*
X161929791Y-106351600D01*
X161970209Y-106351600D01*
X162007552Y-106336132D01*
X162021842Y-106321842D01*
X162039095Y-106339095D01*
X162072580Y-106400418D01*
X162067596Y-106470110D01*
X162039095Y-106514457D01*
X161600001Y-106953550D01*
X161600001Y-108100000D01*
X161636320Y-108136319D01*
X161633981Y-108138657D01*
X161663296Y-108172489D01*
X161674502Y-108224000D01*
X161674502Y-108650210D01*
X161654817Y-108717249D01*
X161615973Y-108755517D01*
X161606434Y-108761447D01*
X161540025Y-108787636D01*
X161429509Y-108871443D01*
X161424620Y-108874483D01*
X161396267Y-108882349D01*
X161368762Y-108892803D01*
X161362983Y-108891583D01*
X161357293Y-108893162D01*
X161329193Y-108884452D01*
X161300398Y-108878375D01*
X161296195Y-108874223D01*
X161290556Y-108872476D01*
X161271624Y-108849956D01*
X161250688Y-108829277D01*
X161246142Y-108819642D01*
X161245596Y-108818993D01*
X161245506Y-108818294D01*
X161243797Y-108814673D01*
X161213115Y-108736868D01*
X161208442Y-108730706D01*
X161126866Y-108623131D01*
X161074573Y-108583476D01*
X161033050Y-108527284D01*
X161025499Y-108484673D01*
X161025499Y-108224000D01*
X161045184Y-108156961D01*
X161066153Y-108138790D01*
X161063682Y-108136319D01*
X161100001Y-108100000D01*
X161100001Y-107329791D01*
X161248401Y-107329791D01*
X161248401Y-107370209D01*
X161263869Y-107407552D01*
X161292449Y-107436132D01*
X161329792Y-107451600D01*
X161370210Y-107451600D01*
X161407553Y-107436132D01*
X161436133Y-107407552D01*
X161451601Y-107370209D01*
X161451601Y-107329791D01*
X161436133Y-107292448D01*
X161407553Y-107263868D01*
X161370210Y-107248400D01*
X161329792Y-107248400D01*
X161292449Y-107263868D01*
X161263869Y-107292448D01*
X161248401Y-107329791D01*
X161100001Y-107329791D01*
X161100001Y-106953551D01*
X160660907Y-106514457D01*
X160627422Y-106453134D01*
X160632406Y-106383442D01*
X160642691Y-106362265D01*
X160671421Y-106315103D01*
X160692450Y-106336132D01*
X160729793Y-106351600D01*
X160770211Y-106351600D01*
X160807554Y-106336132D01*
X160836134Y-106307552D01*
X160851602Y-106270209D01*
X160851602Y-106249999D01*
X161103553Y-106249999D01*
X161103554Y-106250000D01*
X161596448Y-106250000D01*
X161596448Y-106249999D01*
X161350001Y-106003553D01*
X161103553Y-106249999D01*
X160851602Y-106249999D01*
X160851602Y-106229791D01*
X160836134Y-106192448D01*
X160807554Y-106163868D01*
X160770211Y-106148400D01*
X160729793Y-106148400D01*
X160692450Y-106163868D01*
X160678160Y-106178158D01*
X160660907Y-106160905D01*
X160627422Y-106099582D01*
X160632406Y-106029890D01*
X160660907Y-105985543D01*
X161107798Y-105538652D01*
X161169121Y-105505167D01*
X161238813Y-105510151D01*
X161283160Y-105538652D01*
X161350001Y-105605493D01*
X161416842Y-105538652D01*
X161478165Y-105505167D01*
X161547857Y-105510151D01*
G37*
%TD.AperFunction*%
%TA.AperFunction,Conductor*%
G36*
X175142539Y-94320185D02*
G01*
X175188294Y-94372989D01*
X175199500Y-94424500D01*
X175199500Y-155325500D01*
X175179815Y-155392539D01*
X175127011Y-155438294D01*
X175075500Y-155449500D01*
X137424500Y-155449500D01*
X137357461Y-155429815D01*
X137311706Y-155377011D01*
X137300500Y-155325500D01*
X137300500Y-151878048D01*
X139139500Y-151878048D01*
X139139500Y-152121951D01*
X139166013Y-152323333D01*
X139171334Y-152363744D01*
X139171335Y-152363746D01*
X139234456Y-152599320D01*
X139234459Y-152599330D01*
X139327786Y-152824640D01*
X139327791Y-152824651D01*
X139449727Y-153035848D01*
X139449738Y-153035864D01*
X139598199Y-153229343D01*
X139598205Y-153229350D01*
X139770649Y-153401794D01*
X139770656Y-153401800D01*
X139908431Y-153507518D01*
X139964144Y-153550268D01*
X139964151Y-153550272D01*
X140175348Y-153672208D01*
X140175353Y-153672210D01*
X140175356Y-153672212D01*
X140400679Y-153765544D01*
X140636256Y-153828666D01*
X140878056Y-153860500D01*
X140878063Y-153860500D01*
X141121937Y-153860500D01*
X141121944Y-153860500D01*
X141363744Y-153828666D01*
X141599321Y-153765544D01*
X141824644Y-153672212D01*
X141926528Y-153613389D01*
X145649500Y-153613389D01*
X145649500Y-153786611D01*
X145676598Y-153957701D01*
X145730127Y-154122445D01*
X145808768Y-154276788D01*
X145910586Y-154416928D01*
X146033072Y-154539414D01*
X146173212Y-154641232D01*
X146327555Y-154719873D01*
X146492299Y-154773402D01*
X146663389Y-154800500D01*
X146663390Y-154800500D01*
X146836610Y-154800500D01*
X146836611Y-154800500D01*
X147007701Y-154773402D01*
X147172445Y-154719873D01*
X147326788Y-154641232D01*
X147466928Y-154539414D01*
X147589414Y-154416928D01*
X147691232Y-154276788D01*
X147769873Y-154122445D01*
X147823402Y-153957701D01*
X147850500Y-153786611D01*
X147850500Y-153613389D01*
X147823402Y-153442299D01*
X147769873Y-153277555D01*
X147691232Y-153123212D01*
X147589414Y-152983072D01*
X147466928Y-152860586D01*
X147326788Y-152758768D01*
X147172445Y-152680127D01*
X147007701Y-152626598D01*
X147007699Y-152626597D01*
X147007698Y-152626597D01*
X146876271Y-152605781D01*
X146836611Y-152599500D01*
X146663389Y-152599500D01*
X146623728Y-152605781D01*
X146492302Y-152626597D01*
X146327552Y-152680128D01*
X146173211Y-152758768D01*
X146093256Y-152816859D01*
X146033072Y-152860586D01*
X146033070Y-152860588D01*
X146033069Y-152860588D01*
X145910588Y-152983069D01*
X145910588Y-152983070D01*
X145910586Y-152983072D01*
X145872242Y-153035848D01*
X145808768Y-153123211D01*
X145730128Y-153277552D01*
X145676597Y-153442302D01*
X145649958Y-153610499D01*
X145649500Y-153613389D01*
X141926528Y-153613389D01*
X142035856Y-153550268D01*
X142229345Y-153401799D01*
X142401799Y-153229345D01*
X142550268Y-153035856D01*
X142672212Y-152824644D01*
X142765544Y-152599321D01*
X142828666Y-152363744D01*
X142860500Y-152121944D01*
X142860500Y-151878056D01*
X142828666Y-151636256D01*
X142826467Y-151628048D01*
X169889500Y-151628048D01*
X169889500Y-151871951D01*
X169890305Y-151878062D01*
X169921334Y-152113744D01*
X169923533Y-152121951D01*
X169984456Y-152349320D01*
X169984459Y-152349330D01*
X170077786Y-152574640D01*
X170077791Y-152574651D01*
X170199727Y-152785848D01*
X170199738Y-152785864D01*
X170348199Y-152979343D01*
X170348205Y-152979350D01*
X170520649Y-153151794D01*
X170520656Y-153151800D01*
X170621715Y-153229345D01*
X170714144Y-153300268D01*
X170714151Y-153300272D01*
X170925348Y-153422208D01*
X170925353Y-153422210D01*
X170925356Y-153422212D01*
X171150679Y-153515544D01*
X171386256Y-153578666D01*
X171628056Y-153610500D01*
X171628063Y-153610500D01*
X171871937Y-153610500D01*
X171871944Y-153610500D01*
X172113744Y-153578666D01*
X172349321Y-153515544D01*
X172574644Y-153422212D01*
X172785856Y-153300268D01*
X172979345Y-153151799D01*
X173151799Y-152979345D01*
X173300268Y-152785856D01*
X173422212Y-152574644D01*
X173515544Y-152349321D01*
X173578666Y-152113744D01*
X173610500Y-151871944D01*
X173610500Y-151628056D01*
X173578666Y-151386256D01*
X173515544Y-151150679D01*
X173422212Y-150925356D01*
X173422210Y-150925353D01*
X173422208Y-150925348D01*
X173300272Y-150714151D01*
X173300268Y-150714144D01*
X173211302Y-150598201D01*
X173151800Y-150520656D01*
X173151794Y-150520649D01*
X172979350Y-150348205D01*
X172979343Y-150348199D01*
X172785864Y-150199738D01*
X172785862Y-150199736D01*
X172785856Y-150199732D01*
X172785851Y-150199729D01*
X172785848Y-150199727D01*
X172574651Y-150077791D01*
X172574640Y-150077786D01*
X172349330Y-149984459D01*
X172349323Y-149984457D01*
X172349321Y-149984456D01*
X172113744Y-149921334D01*
X172073333Y-149916013D01*
X171871951Y-149889500D01*
X171871944Y-149889500D01*
X171628056Y-149889500D01*
X171628048Y-149889500D01*
X171397896Y-149919801D01*
X171386256Y-149921334D01*
X171150679Y-149984456D01*
X171150669Y-149984459D01*
X170925359Y-150077786D01*
X170925348Y-150077791D01*
X170714151Y-150199727D01*
X170714135Y-150199738D01*
X170520656Y-150348199D01*
X170520649Y-150348205D01*
X170348205Y-150520649D01*
X170348199Y-150520656D01*
X170199738Y-150714135D01*
X170199727Y-150714151D01*
X170077791Y-150925348D01*
X170077786Y-150925359D01*
X169984459Y-151150669D01*
X169984456Y-151150679D01*
X169921335Y-151386253D01*
X169921333Y-151386264D01*
X169889500Y-151628048D01*
X142826467Y-151628048D01*
X142765544Y-151400679D01*
X142672212Y-151175356D01*
X142672210Y-151175353D01*
X142672208Y-151175348D01*
X142550272Y-150964151D01*
X142550268Y-150964144D01*
X142401799Y-150770655D01*
X142401794Y-150770649D01*
X142229350Y-150598205D01*
X142229343Y-150598199D01*
X142035864Y-150449738D01*
X142035862Y-150449736D01*
X142035856Y-150449732D01*
X142035851Y-150449729D01*
X142035848Y-150449727D01*
X141824651Y-150327791D01*
X141824640Y-150327786D01*
X141599330Y-150234459D01*
X141599323Y-150234457D01*
X141599321Y-150234456D01*
X141363744Y-150171334D01*
X141323333Y-150166013D01*
X141121951Y-150139500D01*
X141121944Y-150139500D01*
X140878056Y-150139500D01*
X140878048Y-150139500D01*
X140647896Y-150169801D01*
X140636256Y-150171334D01*
X140530250Y-150199738D01*
X140400679Y-150234456D01*
X140400669Y-150234459D01*
X140175359Y-150327786D01*
X140175348Y-150327791D01*
X139964151Y-150449727D01*
X139964135Y-150449738D01*
X139770656Y-150598199D01*
X139770649Y-150598205D01*
X139598205Y-150770649D01*
X139598199Y-150770656D01*
X139449738Y-150964135D01*
X139449727Y-150964151D01*
X139327791Y-151175348D01*
X139327786Y-151175359D01*
X139234459Y-151400669D01*
X139234456Y-151400679D01*
X139171334Y-151636256D01*
X139171333Y-151636264D01*
X139139500Y-151878048D01*
X137300500Y-151878048D01*
X137300500Y-140399986D01*
X144425001Y-140399986D01*
X144435494Y-140502697D01*
X144490641Y-140669119D01*
X144490643Y-140669124D01*
X144582684Y-140818345D01*
X144706654Y-140942315D01*
X144855875Y-141034356D01*
X144855880Y-141034358D01*
X145022302Y-141089505D01*
X145022309Y-141089506D01*
X145125019Y-141099999D01*
X145249999Y-141099999D01*
X145250000Y-141099998D01*
X145250000Y-139500000D01*
X144425001Y-139500000D01*
X144425001Y-140399986D01*
X137300500Y-140399986D01*
X137300500Y-138100013D01*
X144425000Y-138100013D01*
X144425000Y-139000000D01*
X145250000Y-139000000D01*
X145250000Y-137400000D01*
X145125027Y-137400000D01*
X145125012Y-137400001D01*
X145022302Y-137410494D01*
X144855880Y-137465641D01*
X144855875Y-137465643D01*
X144706654Y-137557684D01*
X144582684Y-137681654D01*
X144490643Y-137830875D01*
X144490641Y-137830880D01*
X144435494Y-137997302D01*
X144435493Y-137997309D01*
X144425000Y-138100013D01*
X137300500Y-138100013D01*
X137300500Y-136149986D01*
X144425001Y-136149986D01*
X144435494Y-136252697D01*
X144490641Y-136419119D01*
X144490643Y-136419124D01*
X144582684Y-136568345D01*
X144706654Y-136692315D01*
X144855875Y-136784356D01*
X144855880Y-136784358D01*
X145022302Y-136839505D01*
X145022309Y-136839506D01*
X145125019Y-136849999D01*
X145249999Y-136849999D01*
X145250000Y-136849998D01*
X145250000Y-135250000D01*
X144425001Y-135250000D01*
X144425001Y-136149986D01*
X137300500Y-136149986D01*
X137300500Y-132349986D01*
X144325001Y-132349986D01*
X144335494Y-132452697D01*
X144390641Y-132619119D01*
X144390643Y-132619124D01*
X144482684Y-132768345D01*
X144606654Y-132892315D01*
X144755875Y-132984356D01*
X144755882Y-132984359D01*
X144812434Y-133003098D01*
X144869879Y-133042870D01*
X144896703Y-133107385D01*
X144884389Y-133176161D01*
X144838528Y-133226342D01*
X144706659Y-133307680D01*
X144706655Y-133307683D01*
X144582684Y-133431654D01*
X144490643Y-133580875D01*
X144490641Y-133580880D01*
X144435494Y-133747302D01*
X144435493Y-133747309D01*
X144425000Y-133850013D01*
X144425000Y-134750000D01*
X145250000Y-134750000D01*
X145250000Y-133180000D01*
X145240023Y-133170023D01*
X145206961Y-133160315D01*
X145161206Y-133107511D01*
X145150000Y-133056000D01*
X145150000Y-131450000D01*
X144325001Y-131450000D01*
X144325001Y-132349986D01*
X137300500Y-132349986D01*
X137300500Y-130050013D01*
X144325000Y-130050013D01*
X144325000Y-130950000D01*
X145150000Y-130950000D01*
X145650000Y-130950000D01*
X146474999Y-130950000D01*
X146474999Y-130050028D01*
X146474998Y-130050013D01*
X146464505Y-129947302D01*
X146409358Y-129780880D01*
X146409356Y-129780875D01*
X146317315Y-129631654D01*
X146193343Y-129507682D01*
X146189868Y-129505539D01*
X146187984Y-129503445D01*
X146187677Y-129503202D01*
X146187718Y-129503149D01*
X146143143Y-129453592D01*
X146131920Y-129384629D01*
X146159763Y-129320547D01*
X146189868Y-129294461D01*
X146193343Y-129292317D01*
X146317315Y-129168345D01*
X146409356Y-129019124D01*
X146409358Y-129019119D01*
X146464505Y-128852697D01*
X146464506Y-128852690D01*
X146474999Y-128749986D01*
X146475000Y-128749973D01*
X146475000Y-127850000D01*
X145650000Y-127850000D01*
X145650000Y-130950000D01*
X145150000Y-130950000D01*
X145150000Y-127850000D01*
X144325001Y-127850000D01*
X144325001Y-128749986D01*
X144335494Y-128852697D01*
X144390641Y-129019119D01*
X144390643Y-129019124D01*
X144482684Y-129168345D01*
X144606655Y-129292316D01*
X144606658Y-129292318D01*
X144610136Y-129294464D01*
X144612018Y-129296557D01*
X144612323Y-129296798D01*
X144612281Y-129296849D01*
X144656858Y-129346413D01*
X144668078Y-129415376D01*
X144640232Y-129479457D01*
X144610136Y-129505536D01*
X144606658Y-129507681D01*
X144606655Y-129507683D01*
X144482684Y-129631654D01*
X144390643Y-129780875D01*
X144390641Y-129780880D01*
X144335494Y-129947302D01*
X144335493Y-129947309D01*
X144325000Y-130050013D01*
X137300500Y-130050013D01*
X137300500Y-126450013D01*
X144325000Y-126450013D01*
X144325000Y-127350000D01*
X145150000Y-127350000D01*
X145150000Y-125696362D01*
X145169685Y-125629323D01*
X145175000Y-125622727D01*
X145175000Y-124250000D01*
X144350001Y-124250000D01*
X144350001Y-125149986D01*
X144360494Y-125252697D01*
X144415641Y-125419119D01*
X144415643Y-125419124D01*
X144507684Y-125568345D01*
X144631654Y-125692315D01*
X144634798Y-125694801D01*
X144636394Y-125697055D01*
X144636763Y-125697424D01*
X144636700Y-125697486D01*
X144675177Y-125751822D01*
X144678318Y-125821621D01*
X144643225Y-125882037D01*
X144622991Y-125897607D01*
X144606655Y-125907683D01*
X144482684Y-126031654D01*
X144390643Y-126180875D01*
X144390641Y-126180880D01*
X144335494Y-126347302D01*
X144335493Y-126347309D01*
X144325000Y-126450013D01*
X137300500Y-126450013D01*
X137300500Y-122850013D01*
X144350000Y-122850013D01*
X144350000Y-123750000D01*
X145175000Y-123750000D01*
X145175000Y-120750000D01*
X144350001Y-120750000D01*
X144350001Y-121649986D01*
X144360494Y-121752697D01*
X144415641Y-121919119D01*
X144415643Y-121919124D01*
X144507684Y-122068345D01*
X144601658Y-122162319D01*
X144635143Y-122223642D01*
X144630159Y-122293334D01*
X144601658Y-122337681D01*
X144507684Y-122431654D01*
X144415643Y-122580875D01*
X144415641Y-122580880D01*
X144360494Y-122747302D01*
X144360493Y-122747309D01*
X144350000Y-122850013D01*
X137300500Y-122850013D01*
X137300500Y-119350013D01*
X144350000Y-119350013D01*
X144350000Y-120250000D01*
X145175000Y-120250000D01*
X145175000Y-117250000D01*
X144350001Y-117250000D01*
X144350001Y-118149986D01*
X144360494Y-118252697D01*
X144415641Y-118419119D01*
X144415643Y-118419124D01*
X144507684Y-118568345D01*
X144601658Y-118662319D01*
X144635143Y-118723642D01*
X144630159Y-118793334D01*
X144601658Y-118837681D01*
X144507684Y-118931654D01*
X144415643Y-119080875D01*
X144415641Y-119080880D01*
X144360494Y-119247302D01*
X144360493Y-119247309D01*
X144350000Y-119350013D01*
X137300500Y-119350013D01*
X137300500Y-115850013D01*
X144350000Y-115850013D01*
X144350000Y-116750000D01*
X145175000Y-116750000D01*
X145175000Y-115150000D01*
X145050027Y-115150000D01*
X145050012Y-115150001D01*
X144947302Y-115160494D01*
X144780880Y-115215641D01*
X144780875Y-115215643D01*
X144631654Y-115307684D01*
X144507684Y-115431654D01*
X144415643Y-115580875D01*
X144415641Y-115580880D01*
X144360494Y-115747302D01*
X144360493Y-115747309D01*
X144350000Y-115850013D01*
X137300500Y-115850013D01*
X137300500Y-112125466D01*
X140350000Y-112125466D01*
X140350000Y-112374533D01*
X140382508Y-112621463D01*
X140446973Y-112862049D01*
X140542283Y-113092148D01*
X140542288Y-113092159D01*
X140666813Y-113307841D01*
X140666819Y-113307849D01*
X140741400Y-113405045D01*
X141648958Y-112497487D01*
X141673978Y-112557890D01*
X141745112Y-112664351D01*
X141835649Y-112754888D01*
X141942110Y-112826022D01*
X142002511Y-112851041D01*
X141094953Y-113758598D01*
X141192150Y-113833180D01*
X141192158Y-113833186D01*
X141407840Y-113957711D01*
X141407851Y-113957716D01*
X141637950Y-114053026D01*
X141878536Y-114117491D01*
X142125466Y-114150000D01*
X142374534Y-114150000D01*
X142621463Y-114117491D01*
X142862049Y-114053026D01*
X143092148Y-113957716D01*
X143092159Y-113957711D01*
X143307855Y-113833178D01*
X143405045Y-113758600D01*
X143405045Y-113758597D01*
X142497488Y-112851041D01*
X142557890Y-112826022D01*
X142664351Y-112754888D01*
X142754888Y-112664351D01*
X142826022Y-112557890D01*
X142851041Y-112497489D01*
X143758597Y-113405045D01*
X143758600Y-113405045D01*
X143833178Y-113307855D01*
X143957711Y-113092159D01*
X143957716Y-113092148D01*
X144053026Y-112862049D01*
X144117491Y-112621463D01*
X144150000Y-112374533D01*
X144150000Y-112125466D01*
X144117491Y-111878536D01*
X144053026Y-111637950D01*
X143957716Y-111407851D01*
X143957711Y-111407840D01*
X143833186Y-111192158D01*
X143833180Y-111192150D01*
X143758598Y-111094953D01*
X142851041Y-112002510D01*
X142826022Y-111942110D01*
X142754888Y-111835649D01*
X142664351Y-111745112D01*
X142557890Y-111673978D01*
X142497487Y-111648957D01*
X143405045Y-110741400D01*
X143307849Y-110666819D01*
X143307841Y-110666813D01*
X143092159Y-110542288D01*
X143092148Y-110542283D01*
X142862049Y-110446973D01*
X142621463Y-110382508D01*
X142374534Y-110350000D01*
X142125466Y-110350000D01*
X141878536Y-110382508D01*
X141637950Y-110446973D01*
X141407851Y-110542283D01*
X141407847Y-110542285D01*
X141192143Y-110666823D01*
X141094953Y-110741399D01*
X141094953Y-110741400D01*
X142002511Y-111648958D01*
X141942110Y-111673978D01*
X141835649Y-111745112D01*
X141745112Y-111835649D01*
X141673978Y-111942110D01*
X141648958Y-112002511D01*
X140741400Y-111094953D01*
X140741399Y-111094953D01*
X140666823Y-111192143D01*
X140542285Y-111407847D01*
X140542283Y-111407851D01*
X140446973Y-111637950D01*
X140382508Y-111878536D01*
X140350000Y-112125466D01*
X137300500Y-112125466D01*
X137300500Y-106056900D01*
X140549500Y-106056900D01*
X140549500Y-108443091D01*
X140560123Y-108531562D01*
X140615639Y-108672342D01*
X140615640Y-108672344D01*
X140707077Y-108792922D01*
X140827655Y-108884359D01*
X140827658Y-108884361D01*
X140968436Y-108939876D01*
X141056901Y-108950500D01*
X143443098Y-108950499D01*
X143531564Y-108939876D01*
X143672342Y-108884361D01*
X143792922Y-108792922D01*
X143884361Y-108672342D01*
X143939876Y-108531564D01*
X143950500Y-108443099D01*
X143950500Y-108174500D01*
X143970185Y-108107461D01*
X144022989Y-108061706D01*
X144074500Y-108050500D01*
X144228844Y-108050500D01*
X144228845Y-108050499D01*
X144383497Y-108019737D01*
X144529179Y-107959394D01*
X144660289Y-107871789D01*
X146671789Y-105860289D01*
X146759394Y-105729179D01*
X146819738Y-105583497D01*
X146850500Y-105428842D01*
X146850500Y-105271157D01*
X146850500Y-104248322D01*
X148025001Y-104248322D01*
X148035144Y-104347607D01*
X148088452Y-104508481D01*
X148088457Y-104508492D01*
X148177424Y-104652728D01*
X148177427Y-104652732D01*
X148297267Y-104772572D01*
X148297271Y-104772575D01*
X148441507Y-104861542D01*
X148441518Y-104861547D01*
X148602393Y-104914855D01*
X148701683Y-104924999D01*
X149250000Y-104924999D01*
X149298308Y-104924999D01*
X149298322Y-104924998D01*
X149397607Y-104914855D01*
X149558481Y-104861547D01*
X149558492Y-104861542D01*
X149702728Y-104772575D01*
X149702732Y-104772572D01*
X149822572Y-104652732D01*
X149822575Y-104652728D01*
X149911542Y-104508492D01*
X149911547Y-104508481D01*
X149964855Y-104347606D01*
X149974999Y-104248322D01*
X149975000Y-104248309D01*
X149975000Y-104225000D01*
X149250000Y-104225000D01*
X149250000Y-104924999D01*
X148701683Y-104924999D01*
X148749999Y-104924998D01*
X148750000Y-104924998D01*
X148750000Y-104225000D01*
X148025001Y-104225000D01*
X148025001Y-104248322D01*
X146850500Y-104248322D01*
X146850500Y-103129500D01*
X146870185Y-103062461D01*
X146922989Y-103016706D01*
X146974500Y-103005500D01*
X148169833Y-103005500D01*
X148236872Y-103025185D01*
X148282627Y-103077989D01*
X148292571Y-103147147D01*
X148263546Y-103210703D01*
X148257514Y-103217181D01*
X148177427Y-103297267D01*
X148177424Y-103297271D01*
X148088457Y-103441507D01*
X148088452Y-103441518D01*
X148035144Y-103602393D01*
X148025000Y-103701677D01*
X148025000Y-103725000D01*
X149974999Y-103725000D01*
X149974999Y-103701692D01*
X149974998Y-103701677D01*
X149964855Y-103602392D01*
X149911547Y-103441518D01*
X149911542Y-103441507D01*
X149822575Y-103297271D01*
X149822572Y-103297267D01*
X149742486Y-103217181D01*
X149709001Y-103155858D01*
X149713985Y-103086166D01*
X149755857Y-103030233D01*
X149821321Y-103005816D01*
X149830167Y-103005500D01*
X151757982Y-103005500D01*
X151765044Y-103005121D01*
X151812019Y-103002603D01*
X151812025Y-103002602D01*
X151812031Y-103002602D01*
X151820805Y-103001658D01*
X151838378Y-102999769D01*
X151891799Y-102991112D01*
X152026607Y-102940829D01*
X152027821Y-102940165D01*
X152028357Y-102940029D01*
X152030637Y-102938988D01*
X152030824Y-102939399D01*
X152087245Y-102925000D01*
X153574999Y-102925000D01*
X153574999Y-102918417D01*
X153569168Y-102854241D01*
X153582705Y-102785696D01*
X153631153Y-102735350D01*
X153699128Y-102719190D01*
X153765049Y-102742345D01*
X153774057Y-102750000D01*
X154601000Y-102750000D01*
X154668039Y-102769685D01*
X154713794Y-102822489D01*
X154725000Y-102874000D01*
X154725000Y-103126000D01*
X154705315Y-103193039D01*
X154652511Y-103238794D01*
X154601000Y-103250000D01*
X153775001Y-103250000D01*
X153775001Y-103298324D01*
X153776749Y-103315428D01*
X153763979Y-103384120D01*
X153716098Y-103435005D01*
X153648308Y-103451925D01*
X153582132Y-103429509D01*
X153576766Y-103425000D01*
X151625001Y-103425000D01*
X151625001Y-103431582D01*
X151631408Y-103502102D01*
X151631409Y-103502107D01*
X151681981Y-103664396D01*
X151769927Y-103809877D01*
X151890122Y-103930072D01*
X152024834Y-104011508D01*
X152072021Y-104063036D01*
X152083860Y-104131895D01*
X152056591Y-104196224D01*
X152034996Y-104216891D01*
X151967452Y-104267455D01*
X151881206Y-104382664D01*
X151881202Y-104382671D01*
X151839501Y-104494480D01*
X151830909Y-104517517D01*
X151824500Y-104577127D01*
X151824500Y-104577134D01*
X151824500Y-104577135D01*
X151824500Y-105072870D01*
X151824501Y-105072876D01*
X151830908Y-105132483D01*
X151884303Y-105275641D01*
X151882724Y-105276229D01*
X151895370Y-105334338D01*
X151870957Y-105399804D01*
X151815026Y-105441679D01*
X151771685Y-105449500D01*
X151758856Y-105449500D01*
X151720841Y-105454065D01*
X151674411Y-105459640D01*
X151540023Y-105512636D01*
X151424921Y-105599921D01*
X151337636Y-105715023D01*
X151284640Y-105849411D01*
X151283334Y-105860292D01*
X151274500Y-105933856D01*
X151274500Y-106516144D01*
X151282147Y-106579820D01*
X151284641Y-106600591D01*
X151340748Y-106742867D01*
X151338214Y-106743865D01*
X151344477Y-106753610D01*
X151349500Y-106788545D01*
X151349500Y-106855336D01*
X151329815Y-106922375D01*
X151277011Y-106968130D01*
X151238754Y-106978626D01*
X151217516Y-106980909D01*
X151082671Y-107031202D01*
X151082664Y-107031206D01*
X150967455Y-107117452D01*
X150967452Y-107117455D01*
X150881206Y-107232664D01*
X150881202Y-107232671D01*
X150830910Y-107367513D01*
X150830909Y-107367517D01*
X150824500Y-107427127D01*
X150824500Y-107427134D01*
X150824500Y-107427135D01*
X150824500Y-107922870D01*
X150824501Y-107922876D01*
X150830909Y-107982490D01*
X150831022Y-107982966D01*
X150831001Y-107983345D01*
X150831738Y-107990196D01*
X150830627Y-107990315D01*
X150827280Y-108052735D01*
X150786412Y-108109406D01*
X150749505Y-108129132D01*
X150662500Y-108158090D01*
X150662496Y-108158092D01*
X150541462Y-108235877D01*
X150541451Y-108235885D01*
X150488659Y-108281629D01*
X150394433Y-108390370D01*
X150394430Y-108390374D01*
X150334664Y-108521240D01*
X150314976Y-108588288D01*
X150294500Y-108730707D01*
X150294500Y-113120500D01*
X150274815Y-113187539D01*
X150222011Y-113233294D01*
X150170500Y-113244500D01*
X147374000Y-113244500D01*
X147373991Y-113244500D01*
X147373990Y-113244501D01*
X147266549Y-113256052D01*
X147266537Y-113256054D01*
X147215027Y-113267260D01*
X147112502Y-113301383D01*
X147112496Y-113301386D01*
X146991462Y-113379171D01*
X146991451Y-113379179D01*
X146938659Y-113424923D01*
X146844433Y-113533664D01*
X146844430Y-113533668D01*
X146784664Y-113664534D01*
X146764976Y-113731582D01*
X146744500Y-113874001D01*
X146744500Y-115809451D01*
X146724815Y-115876490D01*
X146672011Y-115922245D01*
X146602853Y-115932189D01*
X146539297Y-115903164D01*
X146501523Y-115844386D01*
X146497142Y-115822053D01*
X146489505Y-115747302D01*
X146434358Y-115580880D01*
X146434356Y-115580875D01*
X146342315Y-115431654D01*
X146218345Y-115307684D01*
X146069124Y-115215643D01*
X146069119Y-115215641D01*
X145902697Y-115160494D01*
X145902690Y-115160493D01*
X145799986Y-115150000D01*
X145675000Y-115150000D01*
X145675000Y-125903638D01*
X145655315Y-125970677D01*
X145650000Y-125977272D01*
X145650000Y-127350000D01*
X146474999Y-127350000D01*
X146474999Y-126450028D01*
X146474998Y-126450013D01*
X146464505Y-126347302D01*
X146409358Y-126180880D01*
X146409356Y-126180875D01*
X146317315Y-126031654D01*
X146193347Y-125907686D01*
X146190199Y-125905197D01*
X146188600Y-125902939D01*
X146188237Y-125902576D01*
X146188299Y-125902513D01*
X146149821Y-125848176D01*
X146146681Y-125778377D01*
X146181776Y-125717960D01*
X146202014Y-125702389D01*
X146218342Y-125692317D01*
X146218344Y-125692316D01*
X146342315Y-125568345D01*
X146434356Y-125419124D01*
X146434358Y-125419119D01*
X146489505Y-125252697D01*
X146489506Y-125252690D01*
X146497142Y-125177954D01*
X146523538Y-125113263D01*
X146580719Y-125073111D01*
X146650530Y-125070248D01*
X146710807Y-125105582D01*
X146742412Y-125167895D01*
X146744500Y-125190557D01*
X146744500Y-133525814D01*
X146724815Y-133592853D01*
X146672011Y-133638608D01*
X146602853Y-133648552D01*
X146539297Y-133619527D01*
X146514251Y-133586344D01*
X146513149Y-133587025D01*
X146417315Y-133431654D01*
X146293345Y-133307684D01*
X146144124Y-133215643D01*
X146144119Y-133215641D01*
X146087564Y-133196901D01*
X146030119Y-133157128D01*
X146003296Y-133092613D01*
X146015611Y-133023837D01*
X146061471Y-132973656D01*
X146193345Y-132892315D01*
X146317315Y-132768345D01*
X146409356Y-132619124D01*
X146409358Y-132619119D01*
X146464505Y-132452697D01*
X146464506Y-132452690D01*
X146474999Y-132349986D01*
X146475000Y-132349973D01*
X146475000Y-131450000D01*
X145650000Y-131450000D01*
X145650000Y-133020000D01*
X145659976Y-133029976D01*
X145693039Y-133039685D01*
X145738794Y-133092489D01*
X145750000Y-133144000D01*
X145750000Y-136849999D01*
X145874972Y-136849999D01*
X145874986Y-136849998D01*
X145977697Y-136839505D01*
X146144119Y-136784358D01*
X146144124Y-136784356D01*
X146293345Y-136692315D01*
X146417315Y-136568345D01*
X146513149Y-136412975D01*
X146514915Y-136414064D01*
X146554278Y-136369349D01*
X146621470Y-136350189D01*
X146688353Y-136370397D01*
X146733694Y-136423557D01*
X146744500Y-136474185D01*
X146744500Y-137775814D01*
X146724815Y-137842853D01*
X146672011Y-137888608D01*
X146602853Y-137898552D01*
X146539297Y-137869527D01*
X146514251Y-137836344D01*
X146513149Y-137837025D01*
X146417315Y-137681654D01*
X146293345Y-137557684D01*
X146144124Y-137465643D01*
X146144119Y-137465641D01*
X145977697Y-137410494D01*
X145977690Y-137410493D01*
X145874986Y-137400000D01*
X145750000Y-137400000D01*
X145750000Y-141099999D01*
X145874972Y-141099999D01*
X145874986Y-141099998D01*
X145977697Y-141089505D01*
X146144119Y-141034358D01*
X146144124Y-141034356D01*
X146293345Y-140942315D01*
X146417315Y-140818345D01*
X146513149Y-140662975D01*
X146514915Y-140664064D01*
X146554278Y-140619349D01*
X146621470Y-140600189D01*
X146688353Y-140620397D01*
X146733694Y-140673557D01*
X146744500Y-140724185D01*
X146744500Y-150376000D01*
X146744501Y-150376009D01*
X146756052Y-150483450D01*
X146756054Y-150483462D01*
X146767260Y-150534972D01*
X146801383Y-150637497D01*
X146801386Y-150637503D01*
X146879171Y-150758537D01*
X146879179Y-150758548D01*
X146924923Y-150811340D01*
X146924926Y-150811343D01*
X146924930Y-150811347D01*
X147033664Y-150905567D01*
X147033667Y-150905568D01*
X147033668Y-150905569D01*
X147161941Y-150964151D01*
X147164541Y-150965338D01*
X147231580Y-150985023D01*
X147231584Y-150985024D01*
X147374000Y-151005500D01*
X147374003Y-151005500D01*
X158125990Y-151005500D01*
X158126000Y-151005500D01*
X158233456Y-150993947D01*
X158284967Y-150982741D01*
X158319197Y-150971347D01*
X158387497Y-150948616D01*
X158387501Y-150948613D01*
X158387504Y-150948613D01*
X158508543Y-150870825D01*
X158561347Y-150825070D01*
X158655567Y-150716336D01*
X158715338Y-150585459D01*
X158735023Y-150518420D01*
X158735024Y-150518416D01*
X158755500Y-150376000D01*
X158755500Y-147875466D01*
X159100000Y-147875466D01*
X159100000Y-148124533D01*
X159132508Y-148371463D01*
X159196973Y-148612049D01*
X159292283Y-148842148D01*
X159292288Y-148842159D01*
X159416813Y-149057841D01*
X159416819Y-149057849D01*
X159491400Y-149155045D01*
X160398958Y-148247487D01*
X160423978Y-148307890D01*
X160495112Y-148414351D01*
X160585649Y-148504888D01*
X160692110Y-148576022D01*
X160752511Y-148601041D01*
X159844953Y-149508598D01*
X159942150Y-149583180D01*
X159942158Y-149583186D01*
X160157840Y-149707711D01*
X160157851Y-149707716D01*
X160387950Y-149803026D01*
X160628536Y-149867491D01*
X160875466Y-149900000D01*
X161124534Y-149900000D01*
X161371463Y-149867491D01*
X161612049Y-149803026D01*
X161842148Y-149707716D01*
X161842159Y-149707711D01*
X162057855Y-149583178D01*
X162155045Y-149508600D01*
X162155045Y-149508597D01*
X161247488Y-148601041D01*
X161307890Y-148576022D01*
X161414351Y-148504888D01*
X161504888Y-148414351D01*
X161576022Y-148307890D01*
X161601041Y-148247489D01*
X162508597Y-149155045D01*
X162508600Y-149155045D01*
X162583178Y-149057855D01*
X162707711Y-148842159D01*
X162707716Y-148842148D01*
X162803026Y-148612049D01*
X162867491Y-148371463D01*
X162900000Y-148124533D01*
X162900000Y-147875466D01*
X162867491Y-147628536D01*
X162803026Y-147387950D01*
X162707716Y-147157851D01*
X162707711Y-147157840D01*
X162583186Y-146942158D01*
X162583180Y-146942150D01*
X162508598Y-146844953D01*
X161601041Y-147752510D01*
X161576022Y-147692110D01*
X161504888Y-147585649D01*
X161414351Y-147495112D01*
X161307890Y-147423978D01*
X161247487Y-147398957D01*
X162155045Y-146491400D01*
X162057849Y-146416819D01*
X162057841Y-146416813D01*
X161842159Y-146292288D01*
X161842148Y-146292283D01*
X161612049Y-146196973D01*
X161371463Y-146132508D01*
X161124534Y-146100000D01*
X160875466Y-146100000D01*
X160628536Y-146132508D01*
X160387950Y-146196973D01*
X160157851Y-146292283D01*
X160157847Y-146292285D01*
X159942143Y-146416823D01*
X159844953Y-146491399D01*
X159844953Y-146491400D01*
X160752511Y-147398958D01*
X160692110Y-147423978D01*
X160585649Y-147495112D01*
X160495112Y-147585649D01*
X160423978Y-147692110D01*
X160398958Y-147752511D01*
X159491400Y-146844953D01*
X159491399Y-146844953D01*
X159416823Y-146942143D01*
X159292285Y-147157847D01*
X159292283Y-147157851D01*
X159196973Y-147387950D01*
X159132508Y-147628536D01*
X159100000Y-147875466D01*
X158755500Y-147875466D01*
X158755500Y-144663389D01*
X171649500Y-144663389D01*
X171649500Y-144836611D01*
X171676598Y-145007701D01*
X171730127Y-145172445D01*
X171808768Y-145326788D01*
X171910586Y-145466928D01*
X172033072Y-145589414D01*
X172173212Y-145691232D01*
X172327555Y-145769873D01*
X172492299Y-145823402D01*
X172663389Y-145850500D01*
X172663390Y-145850500D01*
X172836610Y-145850500D01*
X172836611Y-145850500D01*
X173007701Y-145823402D01*
X173172445Y-145769873D01*
X173326788Y-145691232D01*
X173466928Y-145589414D01*
X173589414Y-145466928D01*
X173691232Y-145326788D01*
X173769873Y-145172445D01*
X173823402Y-145007701D01*
X173850500Y-144836611D01*
X173850500Y-144663389D01*
X173823402Y-144492299D01*
X173769873Y-144327555D01*
X173691232Y-144173212D01*
X173589414Y-144033072D01*
X173466928Y-143910586D01*
X173326788Y-143808768D01*
X173172445Y-143730127D01*
X173007701Y-143676598D01*
X173007699Y-143676597D01*
X173007698Y-143676597D01*
X172876271Y-143655781D01*
X172836611Y-143649500D01*
X172663389Y-143649500D01*
X172623728Y-143655781D01*
X172492302Y-143676597D01*
X172327552Y-143730128D01*
X172173211Y-143808768D01*
X172093256Y-143866859D01*
X172033072Y-143910586D01*
X172033070Y-143910588D01*
X172033069Y-143910588D01*
X171910588Y-144033069D01*
X171910588Y-144033070D01*
X171910586Y-144033072D01*
X171866859Y-144093256D01*
X171808768Y-144173211D01*
X171730128Y-144327552D01*
X171676597Y-144492302D01*
X171649500Y-144663389D01*
X158755500Y-144663389D01*
X158755500Y-137872844D01*
X159150000Y-137872844D01*
X159156401Y-137932372D01*
X159156403Y-137932379D01*
X159206645Y-138067086D01*
X159206649Y-138067093D01*
X159292809Y-138182187D01*
X159292812Y-138182190D01*
X159407906Y-138268350D01*
X159407913Y-138268354D01*
X159542620Y-138318596D01*
X159542627Y-138318598D01*
X159602155Y-138324999D01*
X159602172Y-138325000D01*
X161650000Y-138325000D01*
X162150000Y-138325000D01*
X164197828Y-138325000D01*
X164197844Y-138324999D01*
X164257372Y-138318598D01*
X164257379Y-138318596D01*
X164392086Y-138268354D01*
X164392093Y-138268350D01*
X164507187Y-138182190D01*
X164507190Y-138182187D01*
X164593350Y-138067093D01*
X164593354Y-138067086D01*
X164643596Y-137932379D01*
X164643598Y-137932372D01*
X164649999Y-137872844D01*
X164650000Y-137872827D01*
X164650000Y-137250000D01*
X162150000Y-137250000D01*
X162150000Y-138325000D01*
X161650000Y-138325000D01*
X161650000Y-137250000D01*
X159150000Y-137250000D01*
X159150000Y-137872844D01*
X158755500Y-137872844D01*
X158755500Y-136127155D01*
X159150000Y-136127155D01*
X159150000Y-136750000D01*
X161650000Y-136750000D01*
X162150000Y-136750000D01*
X164650000Y-136750000D01*
X164650000Y-136127172D01*
X164649999Y-136127155D01*
X164643598Y-136067627D01*
X164643596Y-136067620D01*
X164593354Y-135932913D01*
X164593350Y-135932906D01*
X164507190Y-135817812D01*
X164507187Y-135817809D01*
X164392093Y-135731649D01*
X164392086Y-135731645D01*
X164257379Y-135681403D01*
X164257372Y-135681401D01*
X164197844Y-135675000D01*
X162150000Y-135675000D01*
X162150000Y-136750000D01*
X161650000Y-136750000D01*
X161650000Y-135675000D01*
X159602155Y-135675000D01*
X159542627Y-135681401D01*
X159542620Y-135681403D01*
X159407913Y-135731645D01*
X159407906Y-135731649D01*
X159292812Y-135817809D01*
X159292809Y-135817812D01*
X159206649Y-135932906D01*
X159206645Y-135932913D01*
X159156403Y-136067620D01*
X159156401Y-136067627D01*
X159150000Y-136127155D01*
X158755500Y-136127155D01*
X158755500Y-113877049D01*
X158775185Y-113810010D01*
X158827989Y-113764255D01*
X158897147Y-113754311D01*
X158940007Y-113771897D01*
X158940990Y-113770039D01*
X158949203Y-113774379D01*
X158949206Y-113774381D01*
X159008878Y-113795261D01*
X159073119Y-113817741D01*
X159080796Y-113818460D01*
X159102543Y-113820500D01*
X159477456Y-113820499D01*
X159506879Y-113817741D01*
X159630794Y-113774381D01*
X159726367Y-113703844D01*
X159791995Y-113679874D01*
X159860165Y-113695189D01*
X159873629Y-113703842D01*
X159969206Y-113774381D01*
X160010511Y-113788834D01*
X160093119Y-113817741D01*
X160100796Y-113818460D01*
X160122543Y-113820500D01*
X160497456Y-113820499D01*
X160526879Y-113817741D01*
X160650794Y-113774381D01*
X160756423Y-113696423D01*
X160834381Y-113590794D01*
X160869141Y-113491457D01*
X160877741Y-113466881D01*
X160877741Y-113466879D01*
X160880500Y-113437457D01*
X160880499Y-113153694D01*
X160881091Y-113141599D01*
X160882085Y-113131449D01*
X160900501Y-113062727D01*
X160900501Y-112957273D01*
X160900500Y-112957269D01*
X160900500Y-111591925D01*
X160920185Y-111524886D01*
X160972989Y-111479131D01*
X160978995Y-111476576D01*
X161013132Y-111463115D01*
X161126867Y-111376867D01*
X161130720Y-111371786D01*
X161176696Y-111311158D01*
X161232888Y-111269634D01*
X161302609Y-111265082D01*
X161363723Y-111298946D01*
X161396827Y-111360476D01*
X161399500Y-111386081D01*
X161399500Y-111522869D01*
X161399501Y-111522876D01*
X161405908Y-111582483D01*
X161456202Y-111717328D01*
X161456206Y-111717335D01*
X161542452Y-111832544D01*
X161542455Y-111832547D01*
X161657664Y-111918793D01*
X161657671Y-111918797D01*
X161702618Y-111935561D01*
X161792517Y-111969091D01*
X161852127Y-111975500D01*
X162347872Y-111975499D01*
X162407483Y-111969091D01*
X162542331Y-111918796D01*
X162657546Y-111832546D01*
X162743796Y-111717331D01*
X162744970Y-111714185D01*
X162774909Y-111633913D01*
X162816779Y-111577979D01*
X162882244Y-111553561D01*
X162950517Y-111568412D01*
X162999923Y-111617817D01*
X163005652Y-111629793D01*
X163040602Y-111714172D01*
X163040609Y-111714185D01*
X163128210Y-111845288D01*
X163128213Y-111845292D01*
X165040790Y-113757868D01*
X165074275Y-113819191D01*
X165074727Y-113869738D01*
X165064500Y-113921157D01*
X165064500Y-114078846D01*
X165093733Y-114225809D01*
X165093733Y-114274191D01*
X165064500Y-114421153D01*
X165064500Y-114578846D01*
X165095261Y-114733489D01*
X165095264Y-114733501D01*
X165155602Y-114879172D01*
X165155609Y-114879185D01*
X165243210Y-115010288D01*
X165243213Y-115010292D01*
X165354708Y-115121787D01*
X165354711Y-115121789D01*
X165444391Y-115181711D01*
X165489196Y-115235323D01*
X165499500Y-115284813D01*
X165499500Y-128844856D01*
X165499502Y-128844882D01*
X165502413Y-128869987D01*
X165502415Y-128869991D01*
X165547793Y-128972764D01*
X165547794Y-128972765D01*
X165627235Y-129052206D01*
X165730009Y-129097585D01*
X165755135Y-129100500D01*
X169844864Y-129100499D01*
X169844879Y-129100497D01*
X169844882Y-129100497D01*
X169869987Y-129097586D01*
X169869988Y-129097585D01*
X169869991Y-129097585D01*
X169972765Y-129052206D01*
X170052206Y-128972765D01*
X170097585Y-128869991D01*
X170100500Y-128844865D01*
X170100499Y-120682939D01*
X170120184Y-120615901D01*
X170136818Y-120595259D01*
X170486786Y-120245292D01*
X170486786Y-120245291D01*
X170486789Y-120245289D01*
X170574394Y-120114179D01*
X170634737Y-119968497D01*
X170665500Y-119813842D01*
X170665500Y-119656158D01*
X170665500Y-114421158D01*
X170665500Y-114379500D01*
X170685185Y-114312461D01*
X170737989Y-114266706D01*
X170789500Y-114255500D01*
X171010398Y-114255500D01*
X171010400Y-114255500D01*
X171038588Y-114254197D01*
X171061712Y-114247617D01*
X171061991Y-114247585D01*
X171062289Y-114247453D01*
X171146573Y-114223472D01*
X171236167Y-114155814D01*
X171295270Y-114060359D01*
X171315900Y-113950000D01*
X171315900Y-113450000D01*
X171315900Y-108915500D01*
X171314597Y-108887312D01*
X171283872Y-108779327D01*
X171283871Y-108779326D01*
X171282379Y-108774080D01*
X171282965Y-108704213D01*
X171321232Y-108645754D01*
X171334614Y-108635824D01*
X171341105Y-108631653D01*
X171435232Y-108523023D01*
X171435233Y-108523022D01*
X171494943Y-108392278D01*
X171494944Y-108392274D01*
X171515399Y-108249998D01*
X171515400Y-108249997D01*
X171515400Y-107875000D01*
X168124000Y-107875000D01*
X168056961Y-107855315D01*
X168011206Y-107802511D01*
X168000000Y-107751000D01*
X168000000Y-107625000D01*
X167874000Y-107625000D01*
X167806961Y-107605315D01*
X167761206Y-107552511D01*
X167750000Y-107501000D01*
X167750000Y-107375000D01*
X168250000Y-107375000D01*
X169045800Y-107375000D01*
X169045800Y-106500000D01*
X169545800Y-106500000D01*
X169545800Y-107375000D01*
X170417000Y-107375000D01*
X170917000Y-107375000D01*
X171515400Y-107375000D01*
X171515400Y-107000000D01*
X171515399Y-106999997D01*
X171510259Y-106928129D01*
X171469765Y-106790218D01*
X171392054Y-106669296D01*
X171283423Y-106575167D01*
X171283422Y-106575166D01*
X171152675Y-106515455D01*
X171118638Y-106510562D01*
X171058851Y-106501966D01*
X171058850Y-106501965D01*
X171010401Y-106495000D01*
X170917000Y-106495000D01*
X170917000Y-107375000D01*
X170417000Y-107375000D01*
X170417000Y-106495000D01*
X170310397Y-106495000D01*
X170238529Y-106500140D01*
X170100619Y-106540634D01*
X170033619Y-106583691D01*
X169966579Y-106603374D01*
X169899540Y-106583688D01*
X169892271Y-106578642D01*
X169862888Y-106556646D01*
X169862886Y-106556645D01*
X169728179Y-106506403D01*
X169728172Y-106506401D01*
X169668644Y-106500000D01*
X169545800Y-106500000D01*
X169045800Y-106500000D01*
X168922955Y-106500000D01*
X168863427Y-106506401D01*
X168863420Y-106506403D01*
X168728713Y-106556645D01*
X168720932Y-106560895D01*
X168720560Y-106560214D01*
X168716373Y-106564464D01*
X168690154Y-106570370D01*
X168664972Y-106579759D01*
X168654804Y-106578334D01*
X168648212Y-106579820D01*
X168626559Y-106574378D01*
X168613670Y-106572573D01*
X168432090Y-106506371D01*
X168404163Y-106503368D01*
X168399777Y-106502817D01*
X168345404Y-106495000D01*
X168250000Y-106495000D01*
X168250000Y-107375000D01*
X167750000Y-107375000D01*
X167750000Y-106495000D01*
X167645397Y-106495000D01*
X167573529Y-106500140D01*
X167435618Y-106540634D01*
X167314695Y-106618345D01*
X167275524Y-106663551D01*
X167216745Y-106701325D01*
X167160240Y-106701889D01*
X167160055Y-106703490D01*
X167150791Y-106702415D01*
X167141396Y-106701325D01*
X167125668Y-106699500D01*
X166481940Y-106699500D01*
X166467030Y-106695121D01*
X166451501Y-106695706D01*
X166434189Y-106685478D01*
X166414901Y-106679815D01*
X166404725Y-106668072D01*
X166391345Y-106660167D01*
X166382310Y-106642204D01*
X166369146Y-106627011D01*
X166366934Y-106611630D01*
X166359952Y-106597747D01*
X166362063Y-106577753D01*
X166359202Y-106557853D01*
X166365760Y-106542747D01*
X166367290Y-106528263D01*
X166380928Y-106507810D01*
X166385242Y-106497876D01*
X166389473Y-106492604D01*
X166396788Y-106485290D01*
X166400932Y-106479088D01*
X166484394Y-106354179D01*
X166537159Y-106226793D01*
X166544737Y-106208498D01*
X166575500Y-106053843D01*
X166575500Y-105896158D01*
X166575500Y-105671158D01*
X166575500Y-105671155D01*
X166551301Y-105549501D01*
X166551241Y-105549200D01*
X166557468Y-105479609D01*
X166600331Y-105424432D01*
X166610852Y-105417625D01*
X166729263Y-105349261D01*
X166831757Y-105246767D01*
X166904232Y-105121237D01*
X166941748Y-104981227D01*
X166941748Y-104836277D01*
X166941748Y-104829840D01*
X166961433Y-104762801D01*
X166963451Y-104759759D01*
X166968101Y-104752969D01*
X166968106Y-104752965D01*
X167013485Y-104650191D01*
X167016400Y-104625065D01*
X167016399Y-103874936D01*
X167014897Y-103861985D01*
X167013486Y-103849812D01*
X167013485Y-103849810D01*
X167013485Y-103849809D01*
X166968106Y-103747035D01*
X166908379Y-103687308D01*
X166874894Y-103625985D01*
X166879878Y-103556293D01*
X166904438Y-103516072D01*
X166912171Y-103507591D01*
X166941672Y-103485314D01*
X166961095Y-103453944D01*
X166968846Y-103445445D01*
X166989272Y-103433038D01*
X167007069Y-103417087D01*
X167020566Y-103414031D01*
X167028563Y-103409175D01*
X167040666Y-103409482D01*
X167060468Y-103405000D01*
X167254903Y-103405000D01*
X167254905Y-103405000D01*
X167283093Y-103403697D01*
X167391078Y-103372972D01*
X167480672Y-103305314D01*
X167539775Y-103209859D01*
X167560405Y-103099500D01*
X167560405Y-103099496D01*
X167560934Y-103093791D01*
X167563439Y-103094023D01*
X167580090Y-103037317D01*
X167632894Y-102991562D01*
X167702052Y-102981618D01*
X167715017Y-102984442D01*
X167715023Y-102984414D01*
X167715640Y-102984535D01*
X167715672Y-102984410D01*
X167718121Y-102985021D01*
X167718127Y-102985023D01*
X167718131Y-102985024D01*
X167860547Y-103005500D01*
X167860550Y-103005500D01*
X167876000Y-103005500D01*
X167947942Y-103000355D01*
X167982877Y-102995332D01*
X168053398Y-102979987D01*
X168080680Y-102967524D01*
X168137510Y-102948610D01*
X168175416Y-102924248D01*
X168184270Y-102920204D01*
X168190331Y-102916308D01*
X168190330Y-102916307D01*
X168220764Y-102896751D01*
X168242999Y-102882462D01*
X168243037Y-102882437D01*
X168243681Y-102881878D01*
X168257862Y-102871262D01*
X168258549Y-102870821D01*
X168278516Y-102853519D01*
X168278515Y-102853518D01*
X168304482Y-102831018D01*
X168311323Y-102825091D01*
X168311347Y-102825070D01*
X168313344Y-102822765D01*
X168314794Y-102821205D01*
X168315609Y-102820720D01*
X168324420Y-102811908D01*
X168344551Y-102794462D01*
X168351768Y-102788208D01*
X168376097Y-102750345D01*
X168405569Y-102716333D01*
X168424281Y-102675356D01*
X168429072Y-102667901D01*
X168429074Y-102667898D01*
X168429081Y-102667887D01*
X168429547Y-102667162D01*
X168433308Y-102658925D01*
X168433567Y-102658358D01*
X168433571Y-102658349D01*
X168447575Y-102627683D01*
X168447576Y-102627684D01*
X168458555Y-102603644D01*
X168458568Y-102603616D01*
X168460027Y-102598644D01*
X168461526Y-102594603D01*
X168462203Y-102593694D01*
X168464996Y-102586204D01*
X168465339Y-102585454D01*
X168472783Y-102560102D01*
X168472782Y-102560101D01*
X168482577Y-102526747D01*
X168482850Y-102525815D01*
X168485011Y-102518460D01*
X168485013Y-102518455D01*
X168485015Y-102518455D01*
X168485020Y-102518427D01*
X168485024Y-102518416D01*
X168485146Y-102517564D01*
X168488908Y-102500265D01*
X168493845Y-102483450D01*
X168499096Y-102465562D01*
X168499093Y-102429425D01*
X168500356Y-102411773D01*
X168500921Y-102407839D01*
X168505500Y-102376000D01*
X168505500Y-100024000D01*
X168493947Y-99916544D01*
X168482741Y-99865033D01*
X168469364Y-99824842D01*
X168448616Y-99762502D01*
X168448613Y-99762496D01*
X168370828Y-99641462D01*
X168370825Y-99641457D01*
X168370820Y-99641451D01*
X168325076Y-99588659D01*
X168325072Y-99588656D01*
X168325070Y-99588653D01*
X168216336Y-99494433D01*
X168216333Y-99494431D01*
X168216331Y-99494430D01*
X168085465Y-99434664D01*
X168085460Y-99434662D01*
X168085459Y-99434662D01*
X168018420Y-99414977D01*
X168018422Y-99414977D01*
X168018417Y-99414976D01*
X167926766Y-99401799D01*
X167876000Y-99394500D01*
X144624000Y-99394500D01*
X144623991Y-99394500D01*
X144623990Y-99394501D01*
X144516549Y-99406052D01*
X144516537Y-99406054D01*
X144465027Y-99417260D01*
X144362502Y-99451383D01*
X144362496Y-99451386D01*
X144241462Y-99529171D01*
X144241451Y-99529179D01*
X144188659Y-99574923D01*
X144094433Y-99683664D01*
X144094429Y-99683669D01*
X144063060Y-99752356D01*
X144017304Y-99805159D01*
X143950265Y-99824842D01*
X143885170Y-99806381D01*
X143819124Y-99765643D01*
X143819119Y-99765641D01*
X143652697Y-99710494D01*
X143652690Y-99710493D01*
X143549986Y-99700000D01*
X142700000Y-99700000D01*
X142700000Y-102299999D01*
X143549972Y-102299999D01*
X143549986Y-102299998D01*
X143652697Y-102289505D01*
X143825977Y-102232086D01*
X143826467Y-102233565D01*
X143887165Y-102224343D01*
X143950950Y-102252858D01*
X143989194Y-102311332D01*
X143994500Y-102347218D01*
X143994500Y-102376000D01*
X143994501Y-102376005D01*
X143994501Y-102376009D01*
X144006052Y-102483450D01*
X144006054Y-102483462D01*
X144017260Y-102534972D01*
X144051383Y-102637497D01*
X144051386Y-102637503D01*
X144129171Y-102758537D01*
X144129179Y-102758548D01*
X144174923Y-102811340D01*
X144174926Y-102811343D01*
X144174930Y-102811347D01*
X144283664Y-102905567D01*
X144283667Y-102905568D01*
X144283668Y-102905569D01*
X144377912Y-102948610D01*
X144414541Y-102965338D01*
X144481580Y-102985023D01*
X144481584Y-102985024D01*
X144624000Y-103005500D01*
X145125500Y-103005500D01*
X145192539Y-103025185D01*
X145238294Y-103077989D01*
X145249500Y-103129500D01*
X145249500Y-104967059D01*
X145229815Y-105034098D01*
X145213181Y-105054740D01*
X144158810Y-106109110D01*
X144097487Y-106142595D01*
X144027795Y-106137611D01*
X143971862Y-106095739D01*
X143948014Y-106036214D01*
X143939876Y-105968436D01*
X143884361Y-105827658D01*
X143867186Y-105805009D01*
X143792922Y-105707077D01*
X143672344Y-105615640D01*
X143672342Y-105615639D01*
X143531564Y-105560124D01*
X143531561Y-105560123D01*
X143443099Y-105549500D01*
X141056908Y-105549500D01*
X140968437Y-105560123D01*
X140827657Y-105615639D01*
X140827655Y-105615640D01*
X140707077Y-105707077D01*
X140615640Y-105827655D01*
X140602771Y-105860289D01*
X140573761Y-105933856D01*
X140560124Y-105968437D01*
X140560123Y-105968438D01*
X140549500Y-106056900D01*
X137300500Y-106056900D01*
X137300500Y-101599986D01*
X140650001Y-101599986D01*
X140660494Y-101702697D01*
X140715641Y-101869119D01*
X140715643Y-101869124D01*
X140807684Y-102018345D01*
X140931654Y-102142315D01*
X141080875Y-102234356D01*
X141080880Y-102234358D01*
X141247302Y-102289505D01*
X141247309Y-102289506D01*
X141350019Y-102299999D01*
X142199999Y-102299999D01*
X142200000Y-102299998D01*
X142200000Y-101250000D01*
X140650001Y-101250000D01*
X140650001Y-101599986D01*
X137300500Y-101599986D01*
X137300500Y-100400013D01*
X140650000Y-100400013D01*
X140650000Y-100750000D01*
X142200000Y-100750000D01*
X142200000Y-99700000D01*
X141350028Y-99700000D01*
X141350012Y-99700001D01*
X141247302Y-99710494D01*
X141080880Y-99765641D01*
X141080875Y-99765643D01*
X140931654Y-99857684D01*
X140807684Y-99981654D01*
X140715643Y-100130875D01*
X140715641Y-100130880D01*
X140660494Y-100297302D01*
X140660493Y-100297309D01*
X140650000Y-100400013D01*
X137300500Y-100400013D01*
X137300500Y-98199986D01*
X148000001Y-98199986D01*
X148010494Y-98302697D01*
X148065641Y-98469119D01*
X148065643Y-98469124D01*
X148157684Y-98618345D01*
X148281654Y-98742315D01*
X148430875Y-98834356D01*
X148430880Y-98834358D01*
X148597302Y-98889505D01*
X148597309Y-98889506D01*
X148700019Y-98899999D01*
X149149999Y-98899999D01*
X149650000Y-98899999D01*
X150099972Y-98899999D01*
X150099986Y-98899998D01*
X150202697Y-98889505D01*
X150369119Y-98834358D01*
X150369124Y-98834356D01*
X150518345Y-98742315D01*
X150562319Y-98698342D01*
X150623642Y-98664857D01*
X150693334Y-98669841D01*
X150737681Y-98698342D01*
X150781654Y-98742315D01*
X150930875Y-98834356D01*
X150930880Y-98834358D01*
X151097302Y-98889505D01*
X151097309Y-98889506D01*
X151200019Y-98899999D01*
X151649999Y-98899999D01*
X152150000Y-98899999D01*
X152599972Y-98899999D01*
X152599986Y-98899998D01*
X152702697Y-98889505D01*
X152869119Y-98834358D01*
X152869124Y-98834356D01*
X153018345Y-98742315D01*
X153112319Y-98648342D01*
X153173642Y-98614857D01*
X153243334Y-98619841D01*
X153287681Y-98648342D01*
X153381654Y-98742315D01*
X153530875Y-98834356D01*
X153530880Y-98834358D01*
X153697302Y-98889505D01*
X153697309Y-98889506D01*
X153800019Y-98899999D01*
X154249999Y-98899999D01*
X154750000Y-98899999D01*
X155199972Y-98899999D01*
X155199986Y-98899998D01*
X155302697Y-98889505D01*
X155469119Y-98834358D01*
X155469124Y-98834356D01*
X155618345Y-98742315D01*
X155712319Y-98648342D01*
X155773642Y-98614857D01*
X155843334Y-98619841D01*
X155887681Y-98648342D01*
X155981654Y-98742315D01*
X156130875Y-98834356D01*
X156130880Y-98834358D01*
X156297302Y-98889505D01*
X156297309Y-98889506D01*
X156400019Y-98899999D01*
X156849999Y-98899999D01*
X157350000Y-98899999D01*
X157799972Y-98899999D01*
X157799986Y-98899998D01*
X157902697Y-98889505D01*
X158069119Y-98834358D01*
X158069124Y-98834356D01*
X158218345Y-98742315D01*
X158312319Y-98648342D01*
X158373642Y-98614857D01*
X158443334Y-98619841D01*
X158487681Y-98648342D01*
X158581654Y-98742315D01*
X158730875Y-98834356D01*
X158730880Y-98834358D01*
X158897302Y-98889505D01*
X158897309Y-98889506D01*
X159000019Y-98899999D01*
X159449999Y-98899999D01*
X159950000Y-98899999D01*
X160399972Y-98899999D01*
X160399986Y-98899998D01*
X160502697Y-98889505D01*
X160669119Y-98834358D01*
X160669124Y-98834356D01*
X160818345Y-98742315D01*
X160862319Y-98698342D01*
X160923642Y-98664857D01*
X160993334Y-98669841D01*
X161037681Y-98698342D01*
X161081654Y-98742315D01*
X161230875Y-98834356D01*
X161230880Y-98834358D01*
X161397302Y-98889505D01*
X161397309Y-98889506D01*
X161500019Y-98899999D01*
X161949999Y-98899999D01*
X162450000Y-98899999D01*
X162899972Y-98899999D01*
X162899986Y-98899998D01*
X163002697Y-98889505D01*
X163169119Y-98834358D01*
X163169124Y-98834356D01*
X163318345Y-98742315D01*
X163442315Y-98618345D01*
X163534356Y-98469124D01*
X163534358Y-98469119D01*
X163589505Y-98302697D01*
X163589506Y-98302690D01*
X163599999Y-98199986D01*
X163600000Y-98199973D01*
X163600000Y-98075000D01*
X162450000Y-98075000D01*
X162450000Y-98899999D01*
X161949999Y-98899999D01*
X161950000Y-98899998D01*
X161950000Y-98075000D01*
X159950000Y-98075000D01*
X159950000Y-98899999D01*
X159449999Y-98899999D01*
X159450000Y-98899998D01*
X159450000Y-98075000D01*
X157350000Y-98075000D01*
X157350000Y-98899999D01*
X156849999Y-98899999D01*
X156850000Y-98899998D01*
X156850000Y-98075000D01*
X154750000Y-98075000D01*
X154750000Y-98899999D01*
X154249999Y-98899999D01*
X154250000Y-98899998D01*
X154250000Y-98075000D01*
X152150000Y-98075000D01*
X152150000Y-98899999D01*
X151649999Y-98899999D01*
X151650000Y-98899998D01*
X151650000Y-98075000D01*
X149650000Y-98075000D01*
X149650000Y-98899999D01*
X149149999Y-98899999D01*
X149150000Y-98899998D01*
X149150000Y-98075000D01*
X148000001Y-98075000D01*
X148000001Y-98199986D01*
X137300500Y-98199986D01*
X137300500Y-96913389D01*
X138399500Y-96913389D01*
X138399500Y-97086610D01*
X138426597Y-97257697D01*
X138426597Y-97257699D01*
X138426598Y-97257701D01*
X138480127Y-97422445D01*
X138558768Y-97576788D01*
X138660586Y-97716928D01*
X138783072Y-97839414D01*
X138923212Y-97941232D01*
X139077555Y-98019873D01*
X139242299Y-98073402D01*
X139413389Y-98100500D01*
X139413390Y-98100500D01*
X139586610Y-98100500D01*
X139586611Y-98100500D01*
X139757701Y-98073402D01*
X139922445Y-98019873D01*
X140076788Y-97941232D01*
X140163753Y-97878048D01*
X169639500Y-97878048D01*
X169639500Y-98121951D01*
X169663296Y-98302690D01*
X169671334Y-98363744D01*
X169734456Y-98599320D01*
X169734459Y-98599330D01*
X169827786Y-98824640D01*
X169827791Y-98824651D01*
X169949727Y-99035848D01*
X169949738Y-99035864D01*
X170098199Y-99229343D01*
X170098205Y-99229350D01*
X170270649Y-99401794D01*
X170270656Y-99401800D01*
X170335274Y-99451383D01*
X170464144Y-99550268D01*
X170464151Y-99550272D01*
X170675348Y-99672208D01*
X170675353Y-99672210D01*
X170675356Y-99672212D01*
X170900679Y-99765544D01*
X171136256Y-99828666D01*
X171378056Y-99860500D01*
X171378063Y-99860500D01*
X171621937Y-99860500D01*
X171621944Y-99860500D01*
X171863744Y-99828666D01*
X172099321Y-99765544D01*
X172324644Y-99672212D01*
X172535856Y-99550268D01*
X172729345Y-99401799D01*
X172901799Y-99229345D01*
X173050268Y-99035856D01*
X173172212Y-98824644D01*
X173265544Y-98599321D01*
X173328666Y-98363744D01*
X173360500Y-98121944D01*
X173360500Y-97878056D01*
X173328666Y-97636256D01*
X173265544Y-97400679D01*
X173243434Y-97347302D01*
X173172213Y-97175359D01*
X173172208Y-97175348D01*
X173050272Y-96964151D01*
X173050268Y-96964144D01*
X173006945Y-96907684D01*
X172901800Y-96770656D01*
X172901794Y-96770649D01*
X172729350Y-96598205D01*
X172729343Y-96598199D01*
X172535864Y-96449738D01*
X172535862Y-96449736D01*
X172535856Y-96449732D01*
X172535851Y-96449729D01*
X172535848Y-96449727D01*
X172324651Y-96327791D01*
X172324640Y-96327786D01*
X172099330Y-96234459D01*
X172099323Y-96234457D01*
X172099321Y-96234456D01*
X171863744Y-96171334D01*
X171823333Y-96166013D01*
X171621951Y-96139500D01*
X171621944Y-96139500D01*
X171378056Y-96139500D01*
X171378048Y-96139500D01*
X171147896Y-96169801D01*
X171136256Y-96171334D01*
X170900679Y-96234456D01*
X170900669Y-96234459D01*
X170675359Y-96327786D01*
X170675348Y-96327791D01*
X170464151Y-96449727D01*
X170464135Y-96449738D01*
X170270656Y-96598199D01*
X170270649Y-96598205D01*
X170098205Y-96770649D01*
X170098199Y-96770656D01*
X169949738Y-96964135D01*
X169949727Y-96964151D01*
X169827791Y-97175348D01*
X169827786Y-97175359D01*
X169734459Y-97400669D01*
X169734456Y-97400679D01*
X169671335Y-97636253D01*
X169671333Y-97636264D01*
X169639500Y-97878048D01*
X140163753Y-97878048D01*
X140216928Y-97839414D01*
X140339414Y-97716928D01*
X140441232Y-97576788D01*
X140505827Y-97450013D01*
X148000000Y-97450013D01*
X148000000Y-97575000D01*
X149150000Y-97575000D01*
X149650000Y-97575000D01*
X151650000Y-97575000D01*
X152150000Y-97575000D01*
X154250000Y-97575000D01*
X154750000Y-97575000D01*
X156850000Y-97575000D01*
X157350000Y-97575000D01*
X159450000Y-97575000D01*
X159950000Y-97575000D01*
X161950000Y-97575000D01*
X162450000Y-97575000D01*
X163599999Y-97575000D01*
X163599999Y-97450028D01*
X163599998Y-97450013D01*
X163589505Y-97347302D01*
X163534358Y-97180880D01*
X163534356Y-97180875D01*
X163442315Y-97031654D01*
X163318345Y-96907684D01*
X163169124Y-96815643D01*
X163169119Y-96815641D01*
X163002697Y-96760494D01*
X163002690Y-96760493D01*
X162899986Y-96750000D01*
X162450000Y-96750000D01*
X162450000Y-97575000D01*
X161950000Y-97575000D01*
X161950000Y-96750000D01*
X161500028Y-96750000D01*
X161500012Y-96750001D01*
X161397302Y-96760494D01*
X161230880Y-96815641D01*
X161230875Y-96815643D01*
X161081654Y-96907684D01*
X161037681Y-96951658D01*
X160976358Y-96985143D01*
X160906666Y-96980159D01*
X160862319Y-96951658D01*
X160818345Y-96907684D01*
X160669124Y-96815643D01*
X160669119Y-96815641D01*
X160502697Y-96760494D01*
X160502690Y-96760493D01*
X160399986Y-96750000D01*
X159950000Y-96750000D01*
X159950000Y-97575000D01*
X159450000Y-97575000D01*
X159450000Y-96750000D01*
X159000028Y-96750000D01*
X159000012Y-96750001D01*
X158897302Y-96760494D01*
X158730880Y-96815641D01*
X158730875Y-96815643D01*
X158581654Y-96907684D01*
X158487681Y-97001658D01*
X158426358Y-97035143D01*
X158356666Y-97030159D01*
X158312319Y-97001658D01*
X158218345Y-96907684D01*
X158069124Y-96815643D01*
X158069119Y-96815641D01*
X157902697Y-96760494D01*
X157902690Y-96760493D01*
X157799986Y-96750000D01*
X157350000Y-96750000D01*
X157350000Y-97575000D01*
X156850000Y-97575000D01*
X156850000Y-96750000D01*
X156400028Y-96750000D01*
X156400012Y-96750001D01*
X156297302Y-96760494D01*
X156130880Y-96815641D01*
X156130875Y-96815643D01*
X155981654Y-96907684D01*
X155887681Y-97001658D01*
X155826358Y-97035143D01*
X155756666Y-97030159D01*
X155712319Y-97001658D01*
X155618345Y-96907684D01*
X155469124Y-96815643D01*
X155469119Y-96815641D01*
X155302697Y-96760494D01*
X155302690Y-96760493D01*
X155199986Y-96750000D01*
X154750000Y-96750000D01*
X154750000Y-97575000D01*
X154250000Y-97575000D01*
X154250000Y-96750000D01*
X153800028Y-96750000D01*
X153800012Y-96750001D01*
X153697302Y-96760494D01*
X153530880Y-96815641D01*
X153530875Y-96815643D01*
X153381654Y-96907684D01*
X153287681Y-97001658D01*
X153226358Y-97035143D01*
X153156666Y-97030159D01*
X153112319Y-97001658D01*
X153018345Y-96907684D01*
X152869124Y-96815643D01*
X152869119Y-96815641D01*
X152702697Y-96760494D01*
X152702690Y-96760493D01*
X152599986Y-96750000D01*
X152150000Y-96750000D01*
X152150000Y-97575000D01*
X151650000Y-97575000D01*
X151650000Y-96750000D01*
X151200028Y-96750000D01*
X151200012Y-96750001D01*
X151097302Y-96760494D01*
X150930880Y-96815641D01*
X150930875Y-96815643D01*
X150781654Y-96907684D01*
X150737681Y-96951658D01*
X150676358Y-96985143D01*
X150606666Y-96980159D01*
X150562319Y-96951658D01*
X150518345Y-96907684D01*
X150369124Y-96815643D01*
X150369119Y-96815641D01*
X150202697Y-96760494D01*
X150202690Y-96760493D01*
X150099986Y-96750000D01*
X149650000Y-96750000D01*
X149650000Y-97575000D01*
X149150000Y-97575000D01*
X149150000Y-96750000D01*
X148700028Y-96750000D01*
X148700012Y-96750001D01*
X148597302Y-96760494D01*
X148430880Y-96815641D01*
X148430875Y-96815643D01*
X148281654Y-96907684D01*
X148157684Y-97031654D01*
X148065643Y-97180875D01*
X148065641Y-97180880D01*
X148010494Y-97347302D01*
X148010493Y-97347309D01*
X148000000Y-97450013D01*
X140505827Y-97450013D01*
X140519873Y-97422445D01*
X140573402Y-97257701D01*
X140600500Y-97086611D01*
X140600500Y-96913389D01*
X140573402Y-96742299D01*
X140519873Y-96577555D01*
X140441232Y-96423212D01*
X140339414Y-96283072D01*
X140216928Y-96160586D01*
X140076788Y-96058768D01*
X139922445Y-95980127D01*
X139757701Y-95926598D01*
X139757699Y-95926597D01*
X139757698Y-95926597D01*
X139626271Y-95905781D01*
X139586611Y-95899500D01*
X139413389Y-95899500D01*
X139373728Y-95905781D01*
X139242302Y-95926597D01*
X139077552Y-95980128D01*
X138923211Y-96058768D01*
X138843256Y-96116859D01*
X138783072Y-96160586D01*
X138783070Y-96160588D01*
X138783069Y-96160588D01*
X138660588Y-96283069D01*
X138660588Y-96283070D01*
X138660586Y-96283072D01*
X138628099Y-96327786D01*
X138558768Y-96423211D01*
X138480128Y-96577552D01*
X138426597Y-96742302D01*
X138399500Y-96913389D01*
X137300500Y-96913389D01*
X137300500Y-94424500D01*
X137320185Y-94357461D01*
X137372989Y-94311706D01*
X137424500Y-94300500D01*
X175075500Y-94300500D01*
X175142539Y-94320185D01*
G37*
%TD.AperFunction*%
%TD*%
M02*
