%TF.GenerationSoftware,KiCad,Pcbnew,9.0.6*%
%TF.CreationDate,2026-02-08T18:04:32+01:00*%
%TF.ProjectId,Buck,4275636b-2e6b-4696-9361-645f70636258,B*%
%TF.SameCoordinates,Original*%
%TF.FileFunction,Legend,Top*%
%TF.FilePolarity,Positive*%
%FSLAX46Y46*%
G04 Gerber Fmt 4.6, Leading zero omitted, Abs format (unit mm)*
G04 Created by KiCad (PCBNEW 9.0.6) date 2026-02-08 18:04:32*
%MOMM*%
%LPD*%
G01*
G04 APERTURE LIST*
%ADD10C,0.150000*%
%ADD11C,0.100000*%
%ADD12C,0.125000*%
%ADD13C,0.120000*%
%ADD14C,0.000000*%
%ADD15C,0.152400*%
%ADD16C,0.200000*%
%ADD17C,0.250000*%
G04 APERTURE END LIST*
D10*
X160075000Y-103000000D02*
G75*
G02*
X159925000Y-103000000I-75000J0D01*
G01*
X159925000Y-103000000D02*
G75*
G02*
X160075000Y-103000000I75000J0D01*
G01*
X164525000Y-105000000D02*
G75*
G02*
X164375000Y-105000000I-75000J0D01*
G01*
X164375000Y-105000000D02*
G75*
G02*
X164525000Y-105000000I75000J0D01*
G01*
D11*
X144911027Y-150872419D02*
X145244360Y-151872419D01*
X145244360Y-151872419D02*
X145577693Y-150872419D01*
X146101503Y-150872419D02*
X146291979Y-150872419D01*
X146291979Y-150872419D02*
X146387217Y-150920038D01*
X146387217Y-150920038D02*
X146482455Y-151015276D01*
X146482455Y-151015276D02*
X146530074Y-151205752D01*
X146530074Y-151205752D02*
X146530074Y-151539085D01*
X146530074Y-151539085D02*
X146482455Y-151729561D01*
X146482455Y-151729561D02*
X146387217Y-151824800D01*
X146387217Y-151824800D02*
X146291979Y-151872419D01*
X146291979Y-151872419D02*
X146101503Y-151872419D01*
X146101503Y-151872419D02*
X146006265Y-151824800D01*
X146006265Y-151824800D02*
X145911027Y-151729561D01*
X145911027Y-151729561D02*
X145863408Y-151539085D01*
X145863408Y-151539085D02*
X145863408Y-151205752D01*
X145863408Y-151205752D02*
X145911027Y-151015276D01*
X145911027Y-151015276D02*
X146006265Y-150920038D01*
X146006265Y-150920038D02*
X146101503Y-150872419D01*
X146958646Y-150872419D02*
X146958646Y-151681942D01*
X146958646Y-151681942D02*
X147006265Y-151777180D01*
X147006265Y-151777180D02*
X147053884Y-151824800D01*
X147053884Y-151824800D02*
X147149122Y-151872419D01*
X147149122Y-151872419D02*
X147339598Y-151872419D01*
X147339598Y-151872419D02*
X147434836Y-151824800D01*
X147434836Y-151824800D02*
X147482455Y-151777180D01*
X147482455Y-151777180D02*
X147530074Y-151681942D01*
X147530074Y-151681942D02*
X147530074Y-150872419D01*
X147863408Y-150872419D02*
X148434836Y-150872419D01*
X148149122Y-151872419D02*
X148149122Y-150872419D01*
X149815789Y-152253371D02*
X149768170Y-152205752D01*
X149768170Y-152205752D02*
X149672932Y-152062895D01*
X149672932Y-152062895D02*
X149625313Y-151967657D01*
X149625313Y-151967657D02*
X149577694Y-151824800D01*
X149577694Y-151824800D02*
X149530075Y-151586704D01*
X149530075Y-151586704D02*
X149530075Y-151396228D01*
X149530075Y-151396228D02*
X149577694Y-151158133D01*
X149577694Y-151158133D02*
X149625313Y-151015276D01*
X149625313Y-151015276D02*
X149672932Y-150920038D01*
X149672932Y-150920038D02*
X149768170Y-150777180D01*
X149768170Y-150777180D02*
X149815789Y-150729561D01*
X150672932Y-150872419D02*
X150196742Y-150872419D01*
X150196742Y-150872419D02*
X150149123Y-151348609D01*
X150149123Y-151348609D02*
X150196742Y-151300990D01*
X150196742Y-151300990D02*
X150291980Y-151253371D01*
X150291980Y-151253371D02*
X150530075Y-151253371D01*
X150530075Y-151253371D02*
X150625313Y-151300990D01*
X150625313Y-151300990D02*
X150672932Y-151348609D01*
X150672932Y-151348609D02*
X150720551Y-151443847D01*
X150720551Y-151443847D02*
X150720551Y-151681942D01*
X150720551Y-151681942D02*
X150672932Y-151777180D01*
X150672932Y-151777180D02*
X150625313Y-151824800D01*
X150625313Y-151824800D02*
X150530075Y-151872419D01*
X150530075Y-151872419D02*
X150291980Y-151872419D01*
X150291980Y-151872419D02*
X150196742Y-151824800D01*
X150196742Y-151824800D02*
X150149123Y-151777180D01*
X151006266Y-150872419D02*
X151339599Y-151872419D01*
X151339599Y-151872419D02*
X151672932Y-150872419D01*
X151911028Y-152253371D02*
X151958647Y-152205752D01*
X151958647Y-152205752D02*
X152053885Y-152062895D01*
X152053885Y-152062895D02*
X152101504Y-151967657D01*
X152101504Y-151967657D02*
X152149123Y-151824800D01*
X152149123Y-151824800D02*
X152196742Y-151586704D01*
X152196742Y-151586704D02*
X152196742Y-151396228D01*
X152196742Y-151396228D02*
X152149123Y-151158133D01*
X152149123Y-151158133D02*
X152101504Y-151015276D01*
X152101504Y-151015276D02*
X152053885Y-150920038D01*
X152053885Y-150920038D02*
X151958647Y-150777180D01*
X151958647Y-150777180D02*
X151911028Y-150729561D01*
X148127580Y-103661027D02*
X147127580Y-103994360D01*
X147127580Y-103994360D02*
X148127580Y-104327693D01*
X147127580Y-104661027D02*
X148127580Y-104661027D01*
X147127580Y-105137217D02*
X148127580Y-105137217D01*
X148127580Y-105137217D02*
X147127580Y-105708645D01*
X147127580Y-105708645D02*
X148127580Y-105708645D01*
X146746628Y-107232455D02*
X146794247Y-107184836D01*
X146794247Y-107184836D02*
X146937104Y-107089598D01*
X146937104Y-107089598D02*
X147032342Y-107041979D01*
X147032342Y-107041979D02*
X147175200Y-106994360D01*
X147175200Y-106994360D02*
X147413295Y-106946741D01*
X147413295Y-106946741D02*
X147603771Y-106946741D01*
X147603771Y-106946741D02*
X147841866Y-106994360D01*
X147841866Y-106994360D02*
X147984723Y-107041979D01*
X147984723Y-107041979D02*
X148079961Y-107089598D01*
X148079961Y-107089598D02*
X148222819Y-107184836D01*
X148222819Y-107184836D02*
X148270438Y-107232455D01*
X147127580Y-108137217D02*
X147127580Y-107565789D01*
X147127580Y-107851503D02*
X148127580Y-107851503D01*
X148127580Y-107851503D02*
X147984723Y-107756265D01*
X147984723Y-107756265D02*
X147889485Y-107661027D01*
X147889485Y-107661027D02*
X147841866Y-107565789D01*
X147699009Y-108708646D02*
X147746628Y-108613408D01*
X147746628Y-108613408D02*
X147794247Y-108565789D01*
X147794247Y-108565789D02*
X147889485Y-108518170D01*
X147889485Y-108518170D02*
X147937104Y-108518170D01*
X147937104Y-108518170D02*
X148032342Y-108565789D01*
X148032342Y-108565789D02*
X148079961Y-108613408D01*
X148079961Y-108613408D02*
X148127580Y-108708646D01*
X148127580Y-108708646D02*
X148127580Y-108899122D01*
X148127580Y-108899122D02*
X148079961Y-108994360D01*
X148079961Y-108994360D02*
X148032342Y-109041979D01*
X148032342Y-109041979D02*
X147937104Y-109089598D01*
X147937104Y-109089598D02*
X147889485Y-109089598D01*
X147889485Y-109089598D02*
X147794247Y-109041979D01*
X147794247Y-109041979D02*
X147746628Y-108994360D01*
X147746628Y-108994360D02*
X147699009Y-108899122D01*
X147699009Y-108899122D02*
X147699009Y-108708646D01*
X147699009Y-108708646D02*
X147651390Y-108613408D01*
X147651390Y-108613408D02*
X147603771Y-108565789D01*
X147603771Y-108565789D02*
X147508533Y-108518170D01*
X147508533Y-108518170D02*
X147318057Y-108518170D01*
X147318057Y-108518170D02*
X147222819Y-108565789D01*
X147222819Y-108565789D02*
X147175200Y-108613408D01*
X147175200Y-108613408D02*
X147127580Y-108708646D01*
X147127580Y-108708646D02*
X147127580Y-108899122D01*
X147127580Y-108899122D02*
X147175200Y-108994360D01*
X147175200Y-108994360D02*
X147222819Y-109041979D01*
X147222819Y-109041979D02*
X147318057Y-109089598D01*
X147318057Y-109089598D02*
X147508533Y-109089598D01*
X147508533Y-109089598D02*
X147603771Y-109041979D01*
X147603771Y-109041979D02*
X147651390Y-108994360D01*
X147651390Y-108994360D02*
X147699009Y-108899122D01*
X148127580Y-109375313D02*
X147127580Y-109708646D01*
X147127580Y-109708646D02*
X148127580Y-110041979D01*
X146746628Y-110280075D02*
X146794247Y-110327694D01*
X146794247Y-110327694D02*
X146937104Y-110422932D01*
X146937104Y-110422932D02*
X147032342Y-110470551D01*
X147032342Y-110470551D02*
X147175200Y-110518170D01*
X147175200Y-110518170D02*
X147413295Y-110565789D01*
X147413295Y-110565789D02*
X147603771Y-110565789D01*
X147603771Y-110565789D02*
X147841866Y-110518170D01*
X147841866Y-110518170D02*
X147984723Y-110470551D01*
X147984723Y-110470551D02*
X148079961Y-110422932D01*
X148079961Y-110422932D02*
X148222819Y-110327694D01*
X148222819Y-110327694D02*
X148270438Y-110280075D01*
X165327693Y-150920038D02*
X165232455Y-150872419D01*
X165232455Y-150872419D02*
X165089598Y-150872419D01*
X165089598Y-150872419D02*
X164946741Y-150920038D01*
X164946741Y-150920038D02*
X164851503Y-151015276D01*
X164851503Y-151015276D02*
X164803884Y-151110514D01*
X164803884Y-151110514D02*
X164756265Y-151300990D01*
X164756265Y-151300990D02*
X164756265Y-151443847D01*
X164756265Y-151443847D02*
X164803884Y-151634323D01*
X164803884Y-151634323D02*
X164851503Y-151729561D01*
X164851503Y-151729561D02*
X164946741Y-151824800D01*
X164946741Y-151824800D02*
X165089598Y-151872419D01*
X165089598Y-151872419D02*
X165184836Y-151872419D01*
X165184836Y-151872419D02*
X165327693Y-151824800D01*
X165327693Y-151824800D02*
X165375312Y-151777180D01*
X165375312Y-151777180D02*
X165375312Y-151443847D01*
X165375312Y-151443847D02*
X165184836Y-151443847D01*
X165803884Y-151872419D02*
X165803884Y-150872419D01*
X165803884Y-150872419D02*
X166375312Y-151872419D01*
X166375312Y-151872419D02*
X166375312Y-150872419D01*
X166851503Y-151872419D02*
X166851503Y-150872419D01*
X166851503Y-150872419D02*
X167089598Y-150872419D01*
X167089598Y-150872419D02*
X167232455Y-150920038D01*
X167232455Y-150920038D02*
X167327693Y-151015276D01*
X167327693Y-151015276D02*
X167375312Y-151110514D01*
X167375312Y-151110514D02*
X167422931Y-151300990D01*
X167422931Y-151300990D02*
X167422931Y-151443847D01*
X167422931Y-151443847D02*
X167375312Y-151634323D01*
X167375312Y-151634323D02*
X167327693Y-151729561D01*
X167327693Y-151729561D02*
X167232455Y-151824800D01*
X167232455Y-151824800D02*
X167089598Y-151872419D01*
X167089598Y-151872419D02*
X166851503Y-151872419D01*
X148079961Y-112827693D02*
X148127580Y-112732455D01*
X148127580Y-112732455D02*
X148127580Y-112589598D01*
X148127580Y-112589598D02*
X148079961Y-112446741D01*
X148079961Y-112446741D02*
X147984723Y-112351503D01*
X147984723Y-112351503D02*
X147889485Y-112303884D01*
X147889485Y-112303884D02*
X147699009Y-112256265D01*
X147699009Y-112256265D02*
X147556152Y-112256265D01*
X147556152Y-112256265D02*
X147365676Y-112303884D01*
X147365676Y-112303884D02*
X147270438Y-112351503D01*
X147270438Y-112351503D02*
X147175200Y-112446741D01*
X147175200Y-112446741D02*
X147127580Y-112589598D01*
X147127580Y-112589598D02*
X147127580Y-112684836D01*
X147127580Y-112684836D02*
X147175200Y-112827693D01*
X147175200Y-112827693D02*
X147222819Y-112875312D01*
X147222819Y-112875312D02*
X147556152Y-112875312D01*
X147556152Y-112875312D02*
X147556152Y-112684836D01*
X147127580Y-113303884D02*
X148127580Y-113303884D01*
X148127580Y-113303884D02*
X147127580Y-113875312D01*
X147127580Y-113875312D02*
X148127580Y-113875312D01*
X147127580Y-114351503D02*
X148127580Y-114351503D01*
X148127580Y-114351503D02*
X148127580Y-114589598D01*
X148127580Y-114589598D02*
X148079961Y-114732455D01*
X148079961Y-114732455D02*
X147984723Y-114827693D01*
X147984723Y-114827693D02*
X147889485Y-114875312D01*
X147889485Y-114875312D02*
X147699009Y-114922931D01*
X147699009Y-114922931D02*
X147556152Y-114922931D01*
X147556152Y-114922931D02*
X147365676Y-114875312D01*
X147365676Y-114875312D02*
X147270438Y-114827693D01*
X147270438Y-114827693D02*
X147175200Y-114732455D01*
X147175200Y-114732455D02*
X147127580Y-114589598D01*
X147127580Y-114589598D02*
X147127580Y-114351503D01*
X139079961Y-116827693D02*
X139127580Y-116732455D01*
X139127580Y-116732455D02*
X139127580Y-116589598D01*
X139127580Y-116589598D02*
X139079961Y-116446741D01*
X139079961Y-116446741D02*
X138984723Y-116351503D01*
X138984723Y-116351503D02*
X138889485Y-116303884D01*
X138889485Y-116303884D02*
X138699009Y-116256265D01*
X138699009Y-116256265D02*
X138556152Y-116256265D01*
X138556152Y-116256265D02*
X138365676Y-116303884D01*
X138365676Y-116303884D02*
X138270438Y-116351503D01*
X138270438Y-116351503D02*
X138175200Y-116446741D01*
X138175200Y-116446741D02*
X138127580Y-116589598D01*
X138127580Y-116589598D02*
X138127580Y-116684836D01*
X138127580Y-116684836D02*
X138175200Y-116827693D01*
X138175200Y-116827693D02*
X138222819Y-116875312D01*
X138222819Y-116875312D02*
X138556152Y-116875312D01*
X138556152Y-116875312D02*
X138556152Y-116684836D01*
X138127580Y-117303884D02*
X139127580Y-117303884D01*
X139127580Y-117303884D02*
X138127580Y-117875312D01*
X138127580Y-117875312D02*
X139127580Y-117875312D01*
X138127580Y-118351503D02*
X139127580Y-118351503D01*
X139127580Y-118351503D02*
X139127580Y-118589598D01*
X139127580Y-118589598D02*
X139079961Y-118732455D01*
X139079961Y-118732455D02*
X138984723Y-118827693D01*
X138984723Y-118827693D02*
X138889485Y-118875312D01*
X138889485Y-118875312D02*
X138699009Y-118922931D01*
X138699009Y-118922931D02*
X138556152Y-118922931D01*
X138556152Y-118922931D02*
X138365676Y-118875312D01*
X138365676Y-118875312D02*
X138270438Y-118827693D01*
X138270438Y-118827693D02*
X138175200Y-118732455D01*
X138175200Y-118732455D02*
X138127580Y-118589598D01*
X138127580Y-118589598D02*
X138127580Y-118351503D01*
X141438095Y-146608940D02*
X141171428Y-146227987D01*
X140980952Y-146608940D02*
X140980952Y-145808940D01*
X140980952Y-145808940D02*
X141285714Y-145808940D01*
X141285714Y-145808940D02*
X141361904Y-145847035D01*
X141361904Y-145847035D02*
X141399999Y-145885130D01*
X141399999Y-145885130D02*
X141438095Y-145961321D01*
X141438095Y-145961321D02*
X141438095Y-146075606D01*
X141438095Y-146075606D02*
X141399999Y-146151797D01*
X141399999Y-146151797D02*
X141361904Y-146189892D01*
X141361904Y-146189892D02*
X141285714Y-146227987D01*
X141285714Y-146227987D02*
X140980952Y-146227987D01*
X141780952Y-146189892D02*
X142047618Y-146189892D01*
X142161904Y-146608940D02*
X141780952Y-146608940D01*
X141780952Y-146608940D02*
X141780952Y-145808940D01*
X141780952Y-145808940D02*
X142161904Y-145808940D01*
X142390476Y-145808940D02*
X142657143Y-146608940D01*
X142657143Y-146608940D02*
X142923809Y-145808940D01*
X144066666Y-146189892D02*
X144180952Y-146227987D01*
X144180952Y-146227987D02*
X144219047Y-146266083D01*
X144219047Y-146266083D02*
X144257143Y-146342273D01*
X144257143Y-146342273D02*
X144257143Y-146456559D01*
X144257143Y-146456559D02*
X144219047Y-146532749D01*
X144219047Y-146532749D02*
X144180952Y-146570845D01*
X144180952Y-146570845D02*
X144104762Y-146608940D01*
X144104762Y-146608940D02*
X143800000Y-146608940D01*
X143800000Y-146608940D02*
X143800000Y-145808940D01*
X143800000Y-145808940D02*
X144066666Y-145808940D01*
X144066666Y-145808940D02*
X144142857Y-145847035D01*
X144142857Y-145847035D02*
X144180952Y-145885130D01*
X144180952Y-145885130D02*
X144219047Y-145961321D01*
X144219047Y-145961321D02*
X144219047Y-146037511D01*
X144219047Y-146037511D02*
X144180952Y-146113702D01*
X144180952Y-146113702D02*
X144142857Y-146151797D01*
X144142857Y-146151797D02*
X144066666Y-146189892D01*
X144066666Y-146189892D02*
X143800000Y-146189892D01*
X139571428Y-147096895D02*
X139419047Y-147096895D01*
X139419047Y-147096895D02*
X139342856Y-147134990D01*
X139342856Y-147134990D02*
X139304761Y-147173085D01*
X139304761Y-147173085D02*
X139228571Y-147287371D01*
X139228571Y-147287371D02*
X139190475Y-147439752D01*
X139190475Y-147439752D02*
X139190475Y-147744514D01*
X139190475Y-147744514D02*
X139228571Y-147820704D01*
X139228571Y-147820704D02*
X139266666Y-147858800D01*
X139266666Y-147858800D02*
X139342856Y-147896895D01*
X139342856Y-147896895D02*
X139495237Y-147896895D01*
X139495237Y-147896895D02*
X139571428Y-147858800D01*
X139571428Y-147858800D02*
X139609523Y-147820704D01*
X139609523Y-147820704D02*
X139647618Y-147744514D01*
X139647618Y-147744514D02*
X139647618Y-147554038D01*
X139647618Y-147554038D02*
X139609523Y-147477847D01*
X139609523Y-147477847D02*
X139571428Y-147439752D01*
X139571428Y-147439752D02*
X139495237Y-147401657D01*
X139495237Y-147401657D02*
X139342856Y-147401657D01*
X139342856Y-147401657D02*
X139266666Y-147439752D01*
X139266666Y-147439752D02*
X139228571Y-147477847D01*
X139228571Y-147477847D02*
X139190475Y-147554038D01*
X140866666Y-147477847D02*
X140600000Y-147477847D01*
X140600000Y-147896895D02*
X140600000Y-147096895D01*
X140600000Y-147096895D02*
X140980952Y-147096895D01*
X141590476Y-147858800D02*
X141514285Y-147896895D01*
X141514285Y-147896895D02*
X141361904Y-147896895D01*
X141361904Y-147896895D02*
X141285714Y-147858800D01*
X141285714Y-147858800D02*
X141247618Y-147782609D01*
X141247618Y-147782609D02*
X141247618Y-147477847D01*
X141247618Y-147477847D02*
X141285714Y-147401657D01*
X141285714Y-147401657D02*
X141361904Y-147363561D01*
X141361904Y-147363561D02*
X141514285Y-147363561D01*
X141514285Y-147363561D02*
X141590476Y-147401657D01*
X141590476Y-147401657D02*
X141628571Y-147477847D01*
X141628571Y-147477847D02*
X141628571Y-147554038D01*
X141628571Y-147554038D02*
X141247618Y-147630228D01*
X141971428Y-147896895D02*
X141971428Y-147096895D01*
X141971428Y-147401657D02*
X142047618Y-147363561D01*
X142047618Y-147363561D02*
X142199999Y-147363561D01*
X142199999Y-147363561D02*
X142276190Y-147401657D01*
X142276190Y-147401657D02*
X142314285Y-147439752D01*
X142314285Y-147439752D02*
X142352380Y-147515942D01*
X142352380Y-147515942D02*
X142352380Y-147744514D01*
X142352380Y-147744514D02*
X142314285Y-147820704D01*
X142314285Y-147820704D02*
X142276190Y-147858800D01*
X142276190Y-147858800D02*
X142199999Y-147896895D01*
X142199999Y-147896895D02*
X142047618Y-147896895D01*
X142047618Y-147896895D02*
X141971428Y-147858800D01*
X143266666Y-147173085D02*
X143304762Y-147134990D01*
X143304762Y-147134990D02*
X143380952Y-147096895D01*
X143380952Y-147096895D02*
X143571428Y-147096895D01*
X143571428Y-147096895D02*
X143647619Y-147134990D01*
X143647619Y-147134990D02*
X143685714Y-147173085D01*
X143685714Y-147173085D02*
X143723809Y-147249276D01*
X143723809Y-147249276D02*
X143723809Y-147325466D01*
X143723809Y-147325466D02*
X143685714Y-147439752D01*
X143685714Y-147439752D02*
X143228571Y-147896895D01*
X143228571Y-147896895D02*
X143723809Y-147896895D01*
X144219048Y-147096895D02*
X144295238Y-147096895D01*
X144295238Y-147096895D02*
X144371429Y-147134990D01*
X144371429Y-147134990D02*
X144409524Y-147173085D01*
X144409524Y-147173085D02*
X144447619Y-147249276D01*
X144447619Y-147249276D02*
X144485714Y-147401657D01*
X144485714Y-147401657D02*
X144485714Y-147592133D01*
X144485714Y-147592133D02*
X144447619Y-147744514D01*
X144447619Y-147744514D02*
X144409524Y-147820704D01*
X144409524Y-147820704D02*
X144371429Y-147858800D01*
X144371429Y-147858800D02*
X144295238Y-147896895D01*
X144295238Y-147896895D02*
X144219048Y-147896895D01*
X144219048Y-147896895D02*
X144142857Y-147858800D01*
X144142857Y-147858800D02*
X144104762Y-147820704D01*
X144104762Y-147820704D02*
X144066667Y-147744514D01*
X144066667Y-147744514D02*
X144028571Y-147592133D01*
X144028571Y-147592133D02*
X144028571Y-147401657D01*
X144028571Y-147401657D02*
X144066667Y-147249276D01*
X144066667Y-147249276D02*
X144104762Y-147173085D01*
X144104762Y-147173085D02*
X144142857Y-147134990D01*
X144142857Y-147134990D02*
X144219048Y-147096895D01*
X144790476Y-147173085D02*
X144828572Y-147134990D01*
X144828572Y-147134990D02*
X144904762Y-147096895D01*
X144904762Y-147096895D02*
X145095238Y-147096895D01*
X145095238Y-147096895D02*
X145171429Y-147134990D01*
X145171429Y-147134990D02*
X145209524Y-147173085D01*
X145209524Y-147173085D02*
X145247619Y-147249276D01*
X145247619Y-147249276D02*
X145247619Y-147325466D01*
X145247619Y-147325466D02*
X145209524Y-147439752D01*
X145209524Y-147439752D02*
X144752381Y-147896895D01*
X144752381Y-147896895D02*
X145247619Y-147896895D01*
X145971429Y-147096895D02*
X145590477Y-147096895D01*
X145590477Y-147096895D02*
X145552381Y-147477847D01*
X145552381Y-147477847D02*
X145590477Y-147439752D01*
X145590477Y-147439752D02*
X145666667Y-147401657D01*
X145666667Y-147401657D02*
X145857143Y-147401657D01*
X145857143Y-147401657D02*
X145933334Y-147439752D01*
X145933334Y-147439752D02*
X145971429Y-147477847D01*
X145971429Y-147477847D02*
X146009524Y-147554038D01*
X146009524Y-147554038D02*
X146009524Y-147744514D01*
X146009524Y-147744514D02*
X145971429Y-147820704D01*
X145971429Y-147820704D02*
X145933334Y-147858800D01*
X145933334Y-147858800D02*
X145857143Y-147896895D01*
X145857143Y-147896895D02*
X145666667Y-147896895D01*
X145666667Y-147896895D02*
X145590477Y-147858800D01*
X145590477Y-147858800D02*
X145552381Y-147820704D01*
D12*
X158027190Y-99383333D02*
X158051000Y-99407142D01*
X158051000Y-99407142D02*
X158074809Y-99478571D01*
X158074809Y-99478571D02*
X158074809Y-99526190D01*
X158074809Y-99526190D02*
X158051000Y-99597618D01*
X158051000Y-99597618D02*
X158003380Y-99645237D01*
X158003380Y-99645237D02*
X157955761Y-99669047D01*
X157955761Y-99669047D02*
X157860523Y-99692856D01*
X157860523Y-99692856D02*
X157789095Y-99692856D01*
X157789095Y-99692856D02*
X157693857Y-99669047D01*
X157693857Y-99669047D02*
X157646238Y-99645237D01*
X157646238Y-99645237D02*
X157598619Y-99597618D01*
X157598619Y-99597618D02*
X157574809Y-99526190D01*
X157574809Y-99526190D02*
X157574809Y-99478571D01*
X157574809Y-99478571D02*
X157598619Y-99407142D01*
X157598619Y-99407142D02*
X157622428Y-99383333D01*
X157574809Y-99216666D02*
X157574809Y-98883333D01*
X157574809Y-98883333D02*
X158074809Y-99097618D01*
X140333333Y-102974809D02*
X140333333Y-103331952D01*
X140333333Y-103331952D02*
X140309524Y-103403380D01*
X140309524Y-103403380D02*
X140261905Y-103451000D01*
X140261905Y-103451000D02*
X140190476Y-103474809D01*
X140190476Y-103474809D02*
X140142857Y-103474809D01*
X140833333Y-103474809D02*
X140547619Y-103474809D01*
X140690476Y-103474809D02*
X140690476Y-102974809D01*
X140690476Y-102974809D02*
X140642857Y-103046238D01*
X140642857Y-103046238D02*
X140595238Y-103093857D01*
X140595238Y-103093857D02*
X140547619Y-103117666D01*
D10*
X173238095Y-102454819D02*
X173238095Y-101454819D01*
X173238095Y-101931009D02*
X173809523Y-101931009D01*
X173809523Y-102454819D02*
X173809523Y-101454819D01*
X174190476Y-101454819D02*
X174809523Y-101454819D01*
X174809523Y-101454819D02*
X174476190Y-101835771D01*
X174476190Y-101835771D02*
X174619047Y-101835771D01*
X174619047Y-101835771D02*
X174714285Y-101883390D01*
X174714285Y-101883390D02*
X174761904Y-101931009D01*
X174761904Y-101931009D02*
X174809523Y-102026247D01*
X174809523Y-102026247D02*
X174809523Y-102264342D01*
X174809523Y-102264342D02*
X174761904Y-102359580D01*
X174761904Y-102359580D02*
X174714285Y-102407200D01*
X174714285Y-102407200D02*
X174619047Y-102454819D01*
X174619047Y-102454819D02*
X174333333Y-102454819D01*
X174333333Y-102454819D02*
X174238095Y-102407200D01*
X174238095Y-102407200D02*
X174190476Y-102359580D01*
D12*
X157278571Y-109757190D02*
X157254762Y-109781000D01*
X157254762Y-109781000D02*
X157183333Y-109804809D01*
X157183333Y-109804809D02*
X157135714Y-109804809D01*
X157135714Y-109804809D02*
X157064286Y-109781000D01*
X157064286Y-109781000D02*
X157016667Y-109733380D01*
X157016667Y-109733380D02*
X156992857Y-109685761D01*
X156992857Y-109685761D02*
X156969048Y-109590523D01*
X156969048Y-109590523D02*
X156969048Y-109519095D01*
X156969048Y-109519095D02*
X156992857Y-109423857D01*
X156992857Y-109423857D02*
X157016667Y-109376238D01*
X157016667Y-109376238D02*
X157064286Y-109328619D01*
X157064286Y-109328619D02*
X157135714Y-109304809D01*
X157135714Y-109304809D02*
X157183333Y-109304809D01*
X157183333Y-109304809D02*
X157254762Y-109328619D01*
X157254762Y-109328619D02*
X157278571Y-109352428D01*
X157754762Y-109804809D02*
X157469048Y-109804809D01*
X157611905Y-109804809D02*
X157611905Y-109304809D01*
X157611905Y-109304809D02*
X157564286Y-109376238D01*
X157564286Y-109376238D02*
X157516667Y-109423857D01*
X157516667Y-109423857D02*
X157469048Y-109447666D01*
X157921428Y-109304809D02*
X158230952Y-109304809D01*
X158230952Y-109304809D02*
X158064285Y-109495285D01*
X158064285Y-109495285D02*
X158135714Y-109495285D01*
X158135714Y-109495285D02*
X158183333Y-109519095D01*
X158183333Y-109519095D02*
X158207142Y-109542904D01*
X158207142Y-109542904D02*
X158230952Y-109590523D01*
X158230952Y-109590523D02*
X158230952Y-109709571D01*
X158230952Y-109709571D02*
X158207142Y-109757190D01*
X158207142Y-109757190D02*
X158183333Y-109781000D01*
X158183333Y-109781000D02*
X158135714Y-109804809D01*
X158135714Y-109804809D02*
X157992857Y-109804809D01*
X157992857Y-109804809D02*
X157945238Y-109781000D01*
X157945238Y-109781000D02*
X157921428Y-109757190D01*
X140464286Y-95462904D02*
X140297619Y-95462904D01*
X140297619Y-95724809D02*
X140297619Y-95224809D01*
X140297619Y-95224809D02*
X140535714Y-95224809D01*
X140726190Y-95724809D02*
X140726190Y-95224809D01*
X140964285Y-95724809D02*
X140964285Y-95224809D01*
X140964285Y-95224809D02*
X141083333Y-95224809D01*
X141083333Y-95224809D02*
X141154761Y-95248619D01*
X141154761Y-95248619D02*
X141202380Y-95296238D01*
X141202380Y-95296238D02*
X141226190Y-95343857D01*
X141226190Y-95343857D02*
X141249999Y-95439095D01*
X141249999Y-95439095D02*
X141249999Y-95510523D01*
X141249999Y-95510523D02*
X141226190Y-95605761D01*
X141226190Y-95605761D02*
X141202380Y-95653380D01*
X141202380Y-95653380D02*
X141154761Y-95701000D01*
X141154761Y-95701000D02*
X141083333Y-95724809D01*
X141083333Y-95724809D02*
X140964285Y-95724809D01*
X141726190Y-95724809D02*
X141440476Y-95724809D01*
X141583333Y-95724809D02*
X141583333Y-95224809D01*
X141583333Y-95224809D02*
X141535714Y-95296238D01*
X141535714Y-95296238D02*
X141488095Y-95343857D01*
X141488095Y-95343857D02*
X141440476Y-95367666D01*
X150227190Y-99383333D02*
X150251000Y-99407142D01*
X150251000Y-99407142D02*
X150274809Y-99478571D01*
X150274809Y-99478571D02*
X150274809Y-99526190D01*
X150274809Y-99526190D02*
X150251000Y-99597618D01*
X150251000Y-99597618D02*
X150203380Y-99645237D01*
X150203380Y-99645237D02*
X150155761Y-99669047D01*
X150155761Y-99669047D02*
X150060523Y-99692856D01*
X150060523Y-99692856D02*
X149989095Y-99692856D01*
X149989095Y-99692856D02*
X149893857Y-99669047D01*
X149893857Y-99669047D02*
X149846238Y-99645237D01*
X149846238Y-99645237D02*
X149798619Y-99597618D01*
X149798619Y-99597618D02*
X149774809Y-99526190D01*
X149774809Y-99526190D02*
X149774809Y-99478571D01*
X149774809Y-99478571D02*
X149798619Y-99407142D01*
X149798619Y-99407142D02*
X149822428Y-99383333D01*
X149774809Y-99216666D02*
X149774809Y-98907142D01*
X149774809Y-98907142D02*
X149965285Y-99073809D01*
X149965285Y-99073809D02*
X149965285Y-99002380D01*
X149965285Y-99002380D02*
X149989095Y-98954761D01*
X149989095Y-98954761D02*
X150012904Y-98930952D01*
X150012904Y-98930952D02*
X150060523Y-98907142D01*
X150060523Y-98907142D02*
X150179571Y-98907142D01*
X150179571Y-98907142D02*
X150227190Y-98930952D01*
X150227190Y-98930952D02*
X150251000Y-98954761D01*
X150251000Y-98954761D02*
X150274809Y-99002380D01*
X150274809Y-99002380D02*
X150274809Y-99145237D01*
X150274809Y-99145237D02*
X150251000Y-99192856D01*
X150251000Y-99192856D02*
X150227190Y-99216666D01*
D10*
X144238095Y-150454819D02*
X144238095Y-149454819D01*
X144238095Y-149931009D02*
X144809523Y-149931009D01*
X144809523Y-150454819D02*
X144809523Y-149454819D01*
X145238095Y-149550057D02*
X145285714Y-149502438D01*
X145285714Y-149502438D02*
X145380952Y-149454819D01*
X145380952Y-149454819D02*
X145619047Y-149454819D01*
X145619047Y-149454819D02*
X145714285Y-149502438D01*
X145714285Y-149502438D02*
X145761904Y-149550057D01*
X145761904Y-149550057D02*
X145809523Y-149645295D01*
X145809523Y-149645295D02*
X145809523Y-149740533D01*
X145809523Y-149740533D02*
X145761904Y-149883390D01*
X145761904Y-149883390D02*
X145190476Y-150454819D01*
X145190476Y-150454819D02*
X145809523Y-150454819D01*
D12*
X162841666Y-112724809D02*
X162675000Y-112486714D01*
X162555952Y-112724809D02*
X162555952Y-112224809D01*
X162555952Y-112224809D02*
X162746428Y-112224809D01*
X162746428Y-112224809D02*
X162794047Y-112248619D01*
X162794047Y-112248619D02*
X162817857Y-112272428D01*
X162817857Y-112272428D02*
X162841666Y-112320047D01*
X162841666Y-112320047D02*
X162841666Y-112391476D01*
X162841666Y-112391476D02*
X162817857Y-112439095D01*
X162817857Y-112439095D02*
X162794047Y-112462904D01*
X162794047Y-112462904D02*
X162746428Y-112486714D01*
X162746428Y-112486714D02*
X162555952Y-112486714D01*
X163270238Y-112224809D02*
X163175000Y-112224809D01*
X163175000Y-112224809D02*
X163127381Y-112248619D01*
X163127381Y-112248619D02*
X163103571Y-112272428D01*
X163103571Y-112272428D02*
X163055952Y-112343857D01*
X163055952Y-112343857D02*
X163032143Y-112439095D01*
X163032143Y-112439095D02*
X163032143Y-112629571D01*
X163032143Y-112629571D02*
X163055952Y-112677190D01*
X163055952Y-112677190D02*
X163079762Y-112701000D01*
X163079762Y-112701000D02*
X163127381Y-112724809D01*
X163127381Y-112724809D02*
X163222619Y-112724809D01*
X163222619Y-112724809D02*
X163270238Y-112701000D01*
X163270238Y-112701000D02*
X163294047Y-112677190D01*
X163294047Y-112677190D02*
X163317857Y-112629571D01*
X163317857Y-112629571D02*
X163317857Y-112510523D01*
X163317857Y-112510523D02*
X163294047Y-112462904D01*
X163294047Y-112462904D02*
X163270238Y-112439095D01*
X163270238Y-112439095D02*
X163222619Y-112415285D01*
X163222619Y-112415285D02*
X163127381Y-112415285D01*
X163127381Y-112415285D02*
X163079762Y-112439095D01*
X163079762Y-112439095D02*
X163055952Y-112462904D01*
X163055952Y-112462904D02*
X163032143Y-112510523D01*
X172214286Y-142712904D02*
X172047619Y-142712904D01*
X172047619Y-142974809D02*
X172047619Y-142474809D01*
X172047619Y-142474809D02*
X172285714Y-142474809D01*
X172476190Y-142974809D02*
X172476190Y-142474809D01*
X172714285Y-142974809D02*
X172714285Y-142474809D01*
X172714285Y-142474809D02*
X172833333Y-142474809D01*
X172833333Y-142474809D02*
X172904761Y-142498619D01*
X172904761Y-142498619D02*
X172952380Y-142546238D01*
X172952380Y-142546238D02*
X172976190Y-142593857D01*
X172976190Y-142593857D02*
X172999999Y-142689095D01*
X172999999Y-142689095D02*
X172999999Y-142760523D01*
X172999999Y-142760523D02*
X172976190Y-142855761D01*
X172976190Y-142855761D02*
X172952380Y-142903380D01*
X172952380Y-142903380D02*
X172904761Y-142951000D01*
X172904761Y-142951000D02*
X172833333Y-142974809D01*
X172833333Y-142974809D02*
X172714285Y-142974809D01*
X173166666Y-142474809D02*
X173476190Y-142474809D01*
X173476190Y-142474809D02*
X173309523Y-142665285D01*
X173309523Y-142665285D02*
X173380952Y-142665285D01*
X173380952Y-142665285D02*
X173428571Y-142689095D01*
X173428571Y-142689095D02*
X173452380Y-142712904D01*
X173452380Y-142712904D02*
X173476190Y-142760523D01*
X173476190Y-142760523D02*
X173476190Y-142879571D01*
X173476190Y-142879571D02*
X173452380Y-142927190D01*
X173452380Y-142927190D02*
X173428571Y-142951000D01*
X173428571Y-142951000D02*
X173380952Y-142974809D01*
X173380952Y-142974809D02*
X173238095Y-142974809D01*
X173238095Y-142974809D02*
X173190476Y-142951000D01*
X173190476Y-142951000D02*
X173166666Y-142927190D01*
X156416666Y-113177190D02*
X156392857Y-113201000D01*
X156392857Y-113201000D02*
X156321428Y-113224809D01*
X156321428Y-113224809D02*
X156273809Y-113224809D01*
X156273809Y-113224809D02*
X156202381Y-113201000D01*
X156202381Y-113201000D02*
X156154762Y-113153380D01*
X156154762Y-113153380D02*
X156130952Y-113105761D01*
X156130952Y-113105761D02*
X156107143Y-113010523D01*
X156107143Y-113010523D02*
X156107143Y-112939095D01*
X156107143Y-112939095D02*
X156130952Y-112843857D01*
X156130952Y-112843857D02*
X156154762Y-112796238D01*
X156154762Y-112796238D02*
X156202381Y-112748619D01*
X156202381Y-112748619D02*
X156273809Y-112724809D01*
X156273809Y-112724809D02*
X156321428Y-112724809D01*
X156321428Y-112724809D02*
X156392857Y-112748619D01*
X156392857Y-112748619D02*
X156416666Y-112772428D01*
X156869047Y-112724809D02*
X156630952Y-112724809D01*
X156630952Y-112724809D02*
X156607143Y-112962904D01*
X156607143Y-112962904D02*
X156630952Y-112939095D01*
X156630952Y-112939095D02*
X156678571Y-112915285D01*
X156678571Y-112915285D02*
X156797619Y-112915285D01*
X156797619Y-112915285D02*
X156845238Y-112939095D01*
X156845238Y-112939095D02*
X156869047Y-112962904D01*
X156869047Y-112962904D02*
X156892857Y-113010523D01*
X156892857Y-113010523D02*
X156892857Y-113129571D01*
X156892857Y-113129571D02*
X156869047Y-113177190D01*
X156869047Y-113177190D02*
X156845238Y-113201000D01*
X156845238Y-113201000D02*
X156797619Y-113224809D01*
X156797619Y-113224809D02*
X156678571Y-113224809D01*
X156678571Y-113224809D02*
X156630952Y-113201000D01*
X156630952Y-113201000D02*
X156607143Y-113177190D01*
X163678571Y-108677190D02*
X163654762Y-108701000D01*
X163654762Y-108701000D02*
X163583333Y-108724809D01*
X163583333Y-108724809D02*
X163535714Y-108724809D01*
X163535714Y-108724809D02*
X163464286Y-108701000D01*
X163464286Y-108701000D02*
X163416667Y-108653380D01*
X163416667Y-108653380D02*
X163392857Y-108605761D01*
X163392857Y-108605761D02*
X163369048Y-108510523D01*
X163369048Y-108510523D02*
X163369048Y-108439095D01*
X163369048Y-108439095D02*
X163392857Y-108343857D01*
X163392857Y-108343857D02*
X163416667Y-108296238D01*
X163416667Y-108296238D02*
X163464286Y-108248619D01*
X163464286Y-108248619D02*
X163535714Y-108224809D01*
X163535714Y-108224809D02*
X163583333Y-108224809D01*
X163583333Y-108224809D02*
X163654762Y-108248619D01*
X163654762Y-108248619D02*
X163678571Y-108272428D01*
X164154762Y-108724809D02*
X163869048Y-108724809D01*
X164011905Y-108724809D02*
X164011905Y-108224809D01*
X164011905Y-108224809D02*
X163964286Y-108296238D01*
X163964286Y-108296238D02*
X163916667Y-108343857D01*
X163916667Y-108343857D02*
X163869048Y-108367666D01*
X164630952Y-108724809D02*
X164345238Y-108724809D01*
X164488095Y-108724809D02*
X164488095Y-108224809D01*
X164488095Y-108224809D02*
X164440476Y-108296238D01*
X164440476Y-108296238D02*
X164392857Y-108343857D01*
X164392857Y-108343857D02*
X164345238Y-108367666D01*
X146653571Y-137477190D02*
X146629762Y-137501000D01*
X146629762Y-137501000D02*
X146558333Y-137524809D01*
X146558333Y-137524809D02*
X146510714Y-137524809D01*
X146510714Y-137524809D02*
X146439286Y-137501000D01*
X146439286Y-137501000D02*
X146391667Y-137453380D01*
X146391667Y-137453380D02*
X146367857Y-137405761D01*
X146367857Y-137405761D02*
X146344048Y-137310523D01*
X146344048Y-137310523D02*
X146344048Y-137239095D01*
X146344048Y-137239095D02*
X146367857Y-137143857D01*
X146367857Y-137143857D02*
X146391667Y-137096238D01*
X146391667Y-137096238D02*
X146439286Y-137048619D01*
X146439286Y-137048619D02*
X146510714Y-137024809D01*
X146510714Y-137024809D02*
X146558333Y-137024809D01*
X146558333Y-137024809D02*
X146629762Y-137048619D01*
X146629762Y-137048619D02*
X146653571Y-137072428D01*
X146844048Y-137072428D02*
X146867857Y-137048619D01*
X146867857Y-137048619D02*
X146915476Y-137024809D01*
X146915476Y-137024809D02*
X147034524Y-137024809D01*
X147034524Y-137024809D02*
X147082143Y-137048619D01*
X147082143Y-137048619D02*
X147105952Y-137072428D01*
X147105952Y-137072428D02*
X147129762Y-137120047D01*
X147129762Y-137120047D02*
X147129762Y-137167666D01*
X147129762Y-137167666D02*
X147105952Y-137239095D01*
X147105952Y-137239095D02*
X146820238Y-137524809D01*
X146820238Y-137524809D02*
X147129762Y-137524809D01*
X147296428Y-137024809D02*
X147605952Y-137024809D01*
X147605952Y-137024809D02*
X147439285Y-137215285D01*
X147439285Y-137215285D02*
X147510714Y-137215285D01*
X147510714Y-137215285D02*
X147558333Y-137239095D01*
X147558333Y-137239095D02*
X147582142Y-137262904D01*
X147582142Y-137262904D02*
X147605952Y-137310523D01*
X147605952Y-137310523D02*
X147605952Y-137429571D01*
X147605952Y-137429571D02*
X147582142Y-137477190D01*
X147582142Y-137477190D02*
X147558333Y-137501000D01*
X147558333Y-137501000D02*
X147510714Y-137524809D01*
X147510714Y-137524809D02*
X147367857Y-137524809D01*
X147367857Y-137524809D02*
X147320238Y-137501000D01*
X147320238Y-137501000D02*
X147296428Y-137477190D01*
X164678571Y-104497190D02*
X164654762Y-104521000D01*
X164654762Y-104521000D02*
X164583333Y-104544809D01*
X164583333Y-104544809D02*
X164535714Y-104544809D01*
X164535714Y-104544809D02*
X164464286Y-104521000D01*
X164464286Y-104521000D02*
X164416667Y-104473380D01*
X164416667Y-104473380D02*
X164392857Y-104425761D01*
X164392857Y-104425761D02*
X164369048Y-104330523D01*
X164369048Y-104330523D02*
X164369048Y-104259095D01*
X164369048Y-104259095D02*
X164392857Y-104163857D01*
X164392857Y-104163857D02*
X164416667Y-104116238D01*
X164416667Y-104116238D02*
X164464286Y-104068619D01*
X164464286Y-104068619D02*
X164535714Y-104044809D01*
X164535714Y-104044809D02*
X164583333Y-104044809D01*
X164583333Y-104044809D02*
X164654762Y-104068619D01*
X164654762Y-104068619D02*
X164678571Y-104092428D01*
X165154762Y-104544809D02*
X164869048Y-104544809D01*
X165011905Y-104544809D02*
X165011905Y-104044809D01*
X165011905Y-104044809D02*
X164964286Y-104116238D01*
X164964286Y-104116238D02*
X164916667Y-104163857D01*
X164916667Y-104163857D02*
X164869048Y-104187666D01*
X165345238Y-104092428D02*
X165369047Y-104068619D01*
X165369047Y-104068619D02*
X165416666Y-104044809D01*
X165416666Y-104044809D02*
X165535714Y-104044809D01*
X165535714Y-104044809D02*
X165583333Y-104068619D01*
X165583333Y-104068619D02*
X165607142Y-104092428D01*
X165607142Y-104092428D02*
X165630952Y-104140047D01*
X165630952Y-104140047D02*
X165630952Y-104187666D01*
X165630952Y-104187666D02*
X165607142Y-104259095D01*
X165607142Y-104259095D02*
X165321428Y-104544809D01*
X165321428Y-104544809D02*
X165630952Y-104544809D01*
X144166666Y-104377190D02*
X144142857Y-104401000D01*
X144142857Y-104401000D02*
X144071428Y-104424809D01*
X144071428Y-104424809D02*
X144023809Y-104424809D01*
X144023809Y-104424809D02*
X143952381Y-104401000D01*
X143952381Y-104401000D02*
X143904762Y-104353380D01*
X143904762Y-104353380D02*
X143880952Y-104305761D01*
X143880952Y-104305761D02*
X143857143Y-104210523D01*
X143857143Y-104210523D02*
X143857143Y-104139095D01*
X143857143Y-104139095D02*
X143880952Y-104043857D01*
X143880952Y-104043857D02*
X143904762Y-103996238D01*
X143904762Y-103996238D02*
X143952381Y-103948619D01*
X143952381Y-103948619D02*
X144023809Y-103924809D01*
X144023809Y-103924809D02*
X144071428Y-103924809D01*
X144071428Y-103924809D02*
X144142857Y-103948619D01*
X144142857Y-103948619D02*
X144166666Y-103972428D01*
X144642857Y-104424809D02*
X144357143Y-104424809D01*
X144500000Y-104424809D02*
X144500000Y-103924809D01*
X144500000Y-103924809D02*
X144452381Y-103996238D01*
X144452381Y-103996238D02*
X144404762Y-104043857D01*
X144404762Y-104043857D02*
X144357143Y-104067666D01*
X149178571Y-105427190D02*
X149154762Y-105451000D01*
X149154762Y-105451000D02*
X149083333Y-105474809D01*
X149083333Y-105474809D02*
X149035714Y-105474809D01*
X149035714Y-105474809D02*
X148964286Y-105451000D01*
X148964286Y-105451000D02*
X148916667Y-105403380D01*
X148916667Y-105403380D02*
X148892857Y-105355761D01*
X148892857Y-105355761D02*
X148869048Y-105260523D01*
X148869048Y-105260523D02*
X148869048Y-105189095D01*
X148869048Y-105189095D02*
X148892857Y-105093857D01*
X148892857Y-105093857D02*
X148916667Y-105046238D01*
X148916667Y-105046238D02*
X148964286Y-104998619D01*
X148964286Y-104998619D02*
X149035714Y-104974809D01*
X149035714Y-104974809D02*
X149083333Y-104974809D01*
X149083333Y-104974809D02*
X149154762Y-104998619D01*
X149154762Y-104998619D02*
X149178571Y-105022428D01*
X149654762Y-105474809D02*
X149369048Y-105474809D01*
X149511905Y-105474809D02*
X149511905Y-104974809D01*
X149511905Y-104974809D02*
X149464286Y-105046238D01*
X149464286Y-105046238D02*
X149416667Y-105093857D01*
X149416667Y-105093857D02*
X149369048Y-105117666D01*
X149964285Y-104974809D02*
X150011904Y-104974809D01*
X150011904Y-104974809D02*
X150059523Y-104998619D01*
X150059523Y-104998619D02*
X150083333Y-105022428D01*
X150083333Y-105022428D02*
X150107142Y-105070047D01*
X150107142Y-105070047D02*
X150130952Y-105165285D01*
X150130952Y-105165285D02*
X150130952Y-105284333D01*
X150130952Y-105284333D02*
X150107142Y-105379571D01*
X150107142Y-105379571D02*
X150083333Y-105427190D01*
X150083333Y-105427190D02*
X150059523Y-105451000D01*
X150059523Y-105451000D02*
X150011904Y-105474809D01*
X150011904Y-105474809D02*
X149964285Y-105474809D01*
X149964285Y-105474809D02*
X149916666Y-105451000D01*
X149916666Y-105451000D02*
X149892857Y-105427190D01*
X149892857Y-105427190D02*
X149869047Y-105379571D01*
X149869047Y-105379571D02*
X149845238Y-105284333D01*
X149845238Y-105284333D02*
X149845238Y-105165285D01*
X149845238Y-105165285D02*
X149869047Y-105070047D01*
X149869047Y-105070047D02*
X149892857Y-105022428D01*
X149892857Y-105022428D02*
X149916666Y-104998619D01*
X149916666Y-104998619D02*
X149964285Y-104974809D01*
X150416666Y-108724809D02*
X150250000Y-108486714D01*
X150130952Y-108724809D02*
X150130952Y-108224809D01*
X150130952Y-108224809D02*
X150321428Y-108224809D01*
X150321428Y-108224809D02*
X150369047Y-108248619D01*
X150369047Y-108248619D02*
X150392857Y-108272428D01*
X150392857Y-108272428D02*
X150416666Y-108320047D01*
X150416666Y-108320047D02*
X150416666Y-108391476D01*
X150416666Y-108391476D02*
X150392857Y-108439095D01*
X150392857Y-108439095D02*
X150369047Y-108462904D01*
X150369047Y-108462904D02*
X150321428Y-108486714D01*
X150321428Y-108486714D02*
X150130952Y-108486714D01*
X150702381Y-108439095D02*
X150654762Y-108415285D01*
X150654762Y-108415285D02*
X150630952Y-108391476D01*
X150630952Y-108391476D02*
X150607143Y-108343857D01*
X150607143Y-108343857D02*
X150607143Y-108320047D01*
X150607143Y-108320047D02*
X150630952Y-108272428D01*
X150630952Y-108272428D02*
X150654762Y-108248619D01*
X150654762Y-108248619D02*
X150702381Y-108224809D01*
X150702381Y-108224809D02*
X150797619Y-108224809D01*
X150797619Y-108224809D02*
X150845238Y-108248619D01*
X150845238Y-108248619D02*
X150869047Y-108272428D01*
X150869047Y-108272428D02*
X150892857Y-108320047D01*
X150892857Y-108320047D02*
X150892857Y-108343857D01*
X150892857Y-108343857D02*
X150869047Y-108391476D01*
X150869047Y-108391476D02*
X150845238Y-108415285D01*
X150845238Y-108415285D02*
X150797619Y-108439095D01*
X150797619Y-108439095D02*
X150702381Y-108439095D01*
X150702381Y-108439095D02*
X150654762Y-108462904D01*
X150654762Y-108462904D02*
X150630952Y-108486714D01*
X150630952Y-108486714D02*
X150607143Y-108534333D01*
X150607143Y-108534333D02*
X150607143Y-108629571D01*
X150607143Y-108629571D02*
X150630952Y-108677190D01*
X150630952Y-108677190D02*
X150654762Y-108701000D01*
X150654762Y-108701000D02*
X150702381Y-108724809D01*
X150702381Y-108724809D02*
X150797619Y-108724809D01*
X150797619Y-108724809D02*
X150845238Y-108701000D01*
X150845238Y-108701000D02*
X150869047Y-108677190D01*
X150869047Y-108677190D02*
X150892857Y-108629571D01*
X150892857Y-108629571D02*
X150892857Y-108534333D01*
X150892857Y-108534333D02*
X150869047Y-108486714D01*
X150869047Y-108486714D02*
X150845238Y-108462904D01*
X150845238Y-108462904D02*
X150797619Y-108439095D01*
X146578571Y-126477190D02*
X146554762Y-126501000D01*
X146554762Y-126501000D02*
X146483333Y-126524809D01*
X146483333Y-126524809D02*
X146435714Y-126524809D01*
X146435714Y-126524809D02*
X146364286Y-126501000D01*
X146364286Y-126501000D02*
X146316667Y-126453380D01*
X146316667Y-126453380D02*
X146292857Y-126405761D01*
X146292857Y-126405761D02*
X146269048Y-126310523D01*
X146269048Y-126310523D02*
X146269048Y-126239095D01*
X146269048Y-126239095D02*
X146292857Y-126143857D01*
X146292857Y-126143857D02*
X146316667Y-126096238D01*
X146316667Y-126096238D02*
X146364286Y-126048619D01*
X146364286Y-126048619D02*
X146435714Y-126024809D01*
X146435714Y-126024809D02*
X146483333Y-126024809D01*
X146483333Y-126024809D02*
X146554762Y-126048619D01*
X146554762Y-126048619D02*
X146578571Y-126072428D01*
X147054762Y-126524809D02*
X146769048Y-126524809D01*
X146911905Y-126524809D02*
X146911905Y-126024809D01*
X146911905Y-126024809D02*
X146864286Y-126096238D01*
X146864286Y-126096238D02*
X146816667Y-126143857D01*
X146816667Y-126143857D02*
X146769048Y-126167666D01*
X147340476Y-126239095D02*
X147292857Y-126215285D01*
X147292857Y-126215285D02*
X147269047Y-126191476D01*
X147269047Y-126191476D02*
X147245238Y-126143857D01*
X147245238Y-126143857D02*
X147245238Y-126120047D01*
X147245238Y-126120047D02*
X147269047Y-126072428D01*
X147269047Y-126072428D02*
X147292857Y-126048619D01*
X147292857Y-126048619D02*
X147340476Y-126024809D01*
X147340476Y-126024809D02*
X147435714Y-126024809D01*
X147435714Y-126024809D02*
X147483333Y-126048619D01*
X147483333Y-126048619D02*
X147507142Y-126072428D01*
X147507142Y-126072428D02*
X147530952Y-126120047D01*
X147530952Y-126120047D02*
X147530952Y-126143857D01*
X147530952Y-126143857D02*
X147507142Y-126191476D01*
X147507142Y-126191476D02*
X147483333Y-126215285D01*
X147483333Y-126215285D02*
X147435714Y-126239095D01*
X147435714Y-126239095D02*
X147340476Y-126239095D01*
X147340476Y-126239095D02*
X147292857Y-126262904D01*
X147292857Y-126262904D02*
X147269047Y-126286714D01*
X147269047Y-126286714D02*
X147245238Y-126334333D01*
X147245238Y-126334333D02*
X147245238Y-126429571D01*
X147245238Y-126429571D02*
X147269047Y-126477190D01*
X147269047Y-126477190D02*
X147292857Y-126501000D01*
X147292857Y-126501000D02*
X147340476Y-126524809D01*
X147340476Y-126524809D02*
X147435714Y-126524809D01*
X147435714Y-126524809D02*
X147483333Y-126501000D01*
X147483333Y-126501000D02*
X147507142Y-126477190D01*
X147507142Y-126477190D02*
X147530952Y-126429571D01*
X147530952Y-126429571D02*
X147530952Y-126334333D01*
X147530952Y-126334333D02*
X147507142Y-126286714D01*
X147507142Y-126286714D02*
X147483333Y-126262904D01*
X147483333Y-126262904D02*
X147435714Y-126239095D01*
X154678571Y-105224809D02*
X154511905Y-104986714D01*
X154392857Y-105224809D02*
X154392857Y-104724809D01*
X154392857Y-104724809D02*
X154583333Y-104724809D01*
X154583333Y-104724809D02*
X154630952Y-104748619D01*
X154630952Y-104748619D02*
X154654762Y-104772428D01*
X154654762Y-104772428D02*
X154678571Y-104820047D01*
X154678571Y-104820047D02*
X154678571Y-104891476D01*
X154678571Y-104891476D02*
X154654762Y-104939095D01*
X154654762Y-104939095D02*
X154630952Y-104962904D01*
X154630952Y-104962904D02*
X154583333Y-104986714D01*
X154583333Y-104986714D02*
X154392857Y-104986714D01*
X154869048Y-104772428D02*
X154892857Y-104748619D01*
X154892857Y-104748619D02*
X154940476Y-104724809D01*
X154940476Y-104724809D02*
X155059524Y-104724809D01*
X155059524Y-104724809D02*
X155107143Y-104748619D01*
X155107143Y-104748619D02*
X155130952Y-104772428D01*
X155130952Y-104772428D02*
X155154762Y-104820047D01*
X155154762Y-104820047D02*
X155154762Y-104867666D01*
X155154762Y-104867666D02*
X155130952Y-104939095D01*
X155130952Y-104939095D02*
X154845238Y-105224809D01*
X154845238Y-105224809D02*
X155154762Y-105224809D01*
X155464285Y-104724809D02*
X155511904Y-104724809D01*
X155511904Y-104724809D02*
X155559523Y-104748619D01*
X155559523Y-104748619D02*
X155583333Y-104772428D01*
X155583333Y-104772428D02*
X155607142Y-104820047D01*
X155607142Y-104820047D02*
X155630952Y-104915285D01*
X155630952Y-104915285D02*
X155630952Y-105034333D01*
X155630952Y-105034333D02*
X155607142Y-105129571D01*
X155607142Y-105129571D02*
X155583333Y-105177190D01*
X155583333Y-105177190D02*
X155559523Y-105201000D01*
X155559523Y-105201000D02*
X155511904Y-105224809D01*
X155511904Y-105224809D02*
X155464285Y-105224809D01*
X155464285Y-105224809D02*
X155416666Y-105201000D01*
X155416666Y-105201000D02*
X155392857Y-105177190D01*
X155392857Y-105177190D02*
X155369047Y-105129571D01*
X155369047Y-105129571D02*
X155345238Y-105034333D01*
X155345238Y-105034333D02*
X155345238Y-104915285D01*
X155345238Y-104915285D02*
X155369047Y-104820047D01*
X155369047Y-104820047D02*
X155392857Y-104772428D01*
X155392857Y-104772428D02*
X155416666Y-104748619D01*
X155416666Y-104748619D02*
X155464285Y-104724809D01*
X160416666Y-130724809D02*
X160178571Y-130724809D01*
X160178571Y-130724809D02*
X160178571Y-130224809D01*
X160845238Y-130724809D02*
X160559524Y-130724809D01*
X160702381Y-130724809D02*
X160702381Y-130224809D01*
X160702381Y-130224809D02*
X160654762Y-130296238D01*
X160654762Y-130296238D02*
X160607143Y-130343857D01*
X160607143Y-130343857D02*
X160559524Y-130367666D01*
X164952380Y-99772428D02*
X164904761Y-99748619D01*
X164904761Y-99748619D02*
X164857142Y-99701000D01*
X164857142Y-99701000D02*
X164785714Y-99629571D01*
X164785714Y-99629571D02*
X164738095Y-99605761D01*
X164738095Y-99605761D02*
X164690476Y-99605761D01*
X164714285Y-99724809D02*
X164666666Y-99701000D01*
X164666666Y-99701000D02*
X164619047Y-99653380D01*
X164619047Y-99653380D02*
X164595238Y-99558142D01*
X164595238Y-99558142D02*
X164595238Y-99391476D01*
X164595238Y-99391476D02*
X164619047Y-99296238D01*
X164619047Y-99296238D02*
X164666666Y-99248619D01*
X164666666Y-99248619D02*
X164714285Y-99224809D01*
X164714285Y-99224809D02*
X164809523Y-99224809D01*
X164809523Y-99224809D02*
X164857142Y-99248619D01*
X164857142Y-99248619D02*
X164904761Y-99296238D01*
X164904761Y-99296238D02*
X164928571Y-99391476D01*
X164928571Y-99391476D02*
X164928571Y-99558142D01*
X164928571Y-99558142D02*
X164904761Y-99653380D01*
X164904761Y-99653380D02*
X164857142Y-99701000D01*
X164857142Y-99701000D02*
X164809523Y-99724809D01*
X164809523Y-99724809D02*
X164714285Y-99724809D01*
X165404762Y-99724809D02*
X165119048Y-99724809D01*
X165261905Y-99724809D02*
X165261905Y-99224809D01*
X165261905Y-99224809D02*
X165214286Y-99296238D01*
X165214286Y-99296238D02*
X165166667Y-99343857D01*
X165166667Y-99343857D02*
X165119048Y-99367666D01*
X160130952Y-112224809D02*
X160130952Y-111724809D01*
X160130952Y-111724809D02*
X160250000Y-111724809D01*
X160250000Y-111724809D02*
X160321428Y-111748619D01*
X160321428Y-111748619D02*
X160369047Y-111796238D01*
X160369047Y-111796238D02*
X160392857Y-111843857D01*
X160392857Y-111843857D02*
X160416666Y-111939095D01*
X160416666Y-111939095D02*
X160416666Y-112010523D01*
X160416666Y-112010523D02*
X160392857Y-112105761D01*
X160392857Y-112105761D02*
X160369047Y-112153380D01*
X160369047Y-112153380D02*
X160321428Y-112201000D01*
X160321428Y-112201000D02*
X160250000Y-112224809D01*
X160250000Y-112224809D02*
X160130952Y-112224809D01*
X160892857Y-112224809D02*
X160607143Y-112224809D01*
X160750000Y-112224809D02*
X160750000Y-111724809D01*
X160750000Y-111724809D02*
X160702381Y-111796238D01*
X160702381Y-111796238D02*
X160654762Y-111843857D01*
X160654762Y-111843857D02*
X160607143Y-111867666D01*
X154254809Y-104083333D02*
X154016714Y-104249999D01*
X154254809Y-104369047D02*
X153754809Y-104369047D01*
X153754809Y-104369047D02*
X153754809Y-104178571D01*
X153754809Y-104178571D02*
X153778619Y-104130952D01*
X153778619Y-104130952D02*
X153802428Y-104107142D01*
X153802428Y-104107142D02*
X153850047Y-104083333D01*
X153850047Y-104083333D02*
X153921476Y-104083333D01*
X153921476Y-104083333D02*
X153969095Y-104107142D01*
X153969095Y-104107142D02*
X153992904Y-104130952D01*
X153992904Y-104130952D02*
X154016714Y-104178571D01*
X154016714Y-104178571D02*
X154016714Y-104369047D01*
X153921476Y-103654761D02*
X154254809Y-103654761D01*
X153731000Y-103773809D02*
X154088142Y-103892856D01*
X154088142Y-103892856D02*
X154088142Y-103583333D01*
X147727190Y-99383333D02*
X147751000Y-99407142D01*
X147751000Y-99407142D02*
X147774809Y-99478571D01*
X147774809Y-99478571D02*
X147774809Y-99526190D01*
X147774809Y-99526190D02*
X147751000Y-99597618D01*
X147751000Y-99597618D02*
X147703380Y-99645237D01*
X147703380Y-99645237D02*
X147655761Y-99669047D01*
X147655761Y-99669047D02*
X147560523Y-99692856D01*
X147560523Y-99692856D02*
X147489095Y-99692856D01*
X147489095Y-99692856D02*
X147393857Y-99669047D01*
X147393857Y-99669047D02*
X147346238Y-99645237D01*
X147346238Y-99645237D02*
X147298619Y-99597618D01*
X147298619Y-99597618D02*
X147274809Y-99526190D01*
X147274809Y-99526190D02*
X147274809Y-99478571D01*
X147274809Y-99478571D02*
X147298619Y-99407142D01*
X147298619Y-99407142D02*
X147322428Y-99383333D01*
X147322428Y-99192856D02*
X147298619Y-99169047D01*
X147298619Y-99169047D02*
X147274809Y-99121428D01*
X147274809Y-99121428D02*
X147274809Y-99002380D01*
X147274809Y-99002380D02*
X147298619Y-98954761D01*
X147298619Y-98954761D02*
X147322428Y-98930952D01*
X147322428Y-98930952D02*
X147370047Y-98907142D01*
X147370047Y-98907142D02*
X147417666Y-98907142D01*
X147417666Y-98907142D02*
X147489095Y-98930952D01*
X147489095Y-98930952D02*
X147774809Y-99216666D01*
X147774809Y-99216666D02*
X147774809Y-98907142D01*
X158083333Y-142604809D02*
X158083333Y-142961952D01*
X158083333Y-142961952D02*
X158059524Y-143033380D01*
X158059524Y-143033380D02*
X158011905Y-143081000D01*
X158011905Y-143081000D02*
X157940476Y-143104809D01*
X157940476Y-143104809D02*
X157892857Y-143104809D01*
X158297619Y-142652428D02*
X158321428Y-142628619D01*
X158321428Y-142628619D02*
X158369047Y-142604809D01*
X158369047Y-142604809D02*
X158488095Y-142604809D01*
X158488095Y-142604809D02*
X158535714Y-142628619D01*
X158535714Y-142628619D02*
X158559523Y-142652428D01*
X158559523Y-142652428D02*
X158583333Y-142700047D01*
X158583333Y-142700047D02*
X158583333Y-142747666D01*
X158583333Y-142747666D02*
X158559523Y-142819095D01*
X158559523Y-142819095D02*
X158273809Y-143104809D01*
X158273809Y-143104809D02*
X158583333Y-143104809D01*
X162619047Y-102724809D02*
X162619047Y-103129571D01*
X162619047Y-103129571D02*
X162642857Y-103177190D01*
X162642857Y-103177190D02*
X162666666Y-103201000D01*
X162666666Y-103201000D02*
X162714285Y-103224809D01*
X162714285Y-103224809D02*
X162809523Y-103224809D01*
X162809523Y-103224809D02*
X162857142Y-103201000D01*
X162857142Y-103201000D02*
X162880952Y-103177190D01*
X162880952Y-103177190D02*
X162904761Y-103129571D01*
X162904761Y-103129571D02*
X162904761Y-102724809D01*
X163404762Y-103224809D02*
X163119048Y-103224809D01*
X163261905Y-103224809D02*
X163261905Y-102724809D01*
X163261905Y-102724809D02*
X163214286Y-102796238D01*
X163214286Y-102796238D02*
X163166667Y-102843857D01*
X163166667Y-102843857D02*
X163119048Y-102867666D01*
X170952380Y-115272428D02*
X170904761Y-115248619D01*
X170904761Y-115248619D02*
X170857142Y-115201000D01*
X170857142Y-115201000D02*
X170785714Y-115129571D01*
X170785714Y-115129571D02*
X170738095Y-115105761D01*
X170738095Y-115105761D02*
X170690476Y-115105761D01*
X170714285Y-115224809D02*
X170666666Y-115201000D01*
X170666666Y-115201000D02*
X170619047Y-115153380D01*
X170619047Y-115153380D02*
X170595238Y-115058142D01*
X170595238Y-115058142D02*
X170595238Y-114891476D01*
X170595238Y-114891476D02*
X170619047Y-114796238D01*
X170619047Y-114796238D02*
X170666666Y-114748619D01*
X170666666Y-114748619D02*
X170714285Y-114724809D01*
X170714285Y-114724809D02*
X170809523Y-114724809D01*
X170809523Y-114724809D02*
X170857142Y-114748619D01*
X170857142Y-114748619D02*
X170904761Y-114796238D01*
X170904761Y-114796238D02*
X170928571Y-114891476D01*
X170928571Y-114891476D02*
X170928571Y-115058142D01*
X170928571Y-115058142D02*
X170904761Y-115153380D01*
X170904761Y-115153380D02*
X170857142Y-115201000D01*
X170857142Y-115201000D02*
X170809523Y-115224809D01*
X170809523Y-115224809D02*
X170714285Y-115224809D01*
X171119048Y-114772428D02*
X171142857Y-114748619D01*
X171142857Y-114748619D02*
X171190476Y-114724809D01*
X171190476Y-114724809D02*
X171309524Y-114724809D01*
X171309524Y-114724809D02*
X171357143Y-114748619D01*
X171357143Y-114748619D02*
X171380952Y-114772428D01*
X171380952Y-114772428D02*
X171404762Y-114820047D01*
X171404762Y-114820047D02*
X171404762Y-114867666D01*
X171404762Y-114867666D02*
X171380952Y-114939095D01*
X171380952Y-114939095D02*
X171095238Y-115224809D01*
X171095238Y-115224809D02*
X171404762Y-115224809D01*
X154916666Y-110224809D02*
X154750000Y-109986714D01*
X154630952Y-110224809D02*
X154630952Y-109724809D01*
X154630952Y-109724809D02*
X154821428Y-109724809D01*
X154821428Y-109724809D02*
X154869047Y-109748619D01*
X154869047Y-109748619D02*
X154892857Y-109772428D01*
X154892857Y-109772428D02*
X154916666Y-109820047D01*
X154916666Y-109820047D02*
X154916666Y-109891476D01*
X154916666Y-109891476D02*
X154892857Y-109939095D01*
X154892857Y-109939095D02*
X154869047Y-109962904D01*
X154869047Y-109962904D02*
X154821428Y-109986714D01*
X154821428Y-109986714D02*
X154630952Y-109986714D01*
X155369047Y-109724809D02*
X155130952Y-109724809D01*
X155130952Y-109724809D02*
X155107143Y-109962904D01*
X155107143Y-109962904D02*
X155130952Y-109939095D01*
X155130952Y-109939095D02*
X155178571Y-109915285D01*
X155178571Y-109915285D02*
X155297619Y-109915285D01*
X155297619Y-109915285D02*
X155345238Y-109939095D01*
X155345238Y-109939095D02*
X155369047Y-109962904D01*
X155369047Y-109962904D02*
X155392857Y-110010523D01*
X155392857Y-110010523D02*
X155392857Y-110129571D01*
X155392857Y-110129571D02*
X155369047Y-110177190D01*
X155369047Y-110177190D02*
X155345238Y-110201000D01*
X155345238Y-110201000D02*
X155297619Y-110224809D01*
X155297619Y-110224809D02*
X155178571Y-110224809D01*
X155178571Y-110224809D02*
X155130952Y-110201000D01*
X155130952Y-110201000D02*
X155107143Y-110177190D01*
X159716666Y-114724809D02*
X159550000Y-114486714D01*
X159430952Y-114724809D02*
X159430952Y-114224809D01*
X159430952Y-114224809D02*
X159621428Y-114224809D01*
X159621428Y-114224809D02*
X159669047Y-114248619D01*
X159669047Y-114248619D02*
X159692857Y-114272428D01*
X159692857Y-114272428D02*
X159716666Y-114320047D01*
X159716666Y-114320047D02*
X159716666Y-114391476D01*
X159716666Y-114391476D02*
X159692857Y-114439095D01*
X159692857Y-114439095D02*
X159669047Y-114462904D01*
X159669047Y-114462904D02*
X159621428Y-114486714D01*
X159621428Y-114486714D02*
X159430952Y-114486714D01*
X160192857Y-114724809D02*
X159907143Y-114724809D01*
X160050000Y-114724809D02*
X160050000Y-114224809D01*
X160050000Y-114224809D02*
X160002381Y-114296238D01*
X160002381Y-114296238D02*
X159954762Y-114343857D01*
X159954762Y-114343857D02*
X159907143Y-114367666D01*
X160527190Y-99383333D02*
X160551000Y-99407142D01*
X160551000Y-99407142D02*
X160574809Y-99478571D01*
X160574809Y-99478571D02*
X160574809Y-99526190D01*
X160574809Y-99526190D02*
X160551000Y-99597618D01*
X160551000Y-99597618D02*
X160503380Y-99645237D01*
X160503380Y-99645237D02*
X160455761Y-99669047D01*
X160455761Y-99669047D02*
X160360523Y-99692856D01*
X160360523Y-99692856D02*
X160289095Y-99692856D01*
X160289095Y-99692856D02*
X160193857Y-99669047D01*
X160193857Y-99669047D02*
X160146238Y-99645237D01*
X160146238Y-99645237D02*
X160098619Y-99597618D01*
X160098619Y-99597618D02*
X160074809Y-99526190D01*
X160074809Y-99526190D02*
X160074809Y-99478571D01*
X160074809Y-99478571D02*
X160098619Y-99407142D01*
X160098619Y-99407142D02*
X160122428Y-99383333D01*
X160574809Y-99145237D02*
X160574809Y-99049999D01*
X160574809Y-99049999D02*
X160551000Y-99002380D01*
X160551000Y-99002380D02*
X160527190Y-98978571D01*
X160527190Y-98978571D02*
X160455761Y-98930952D01*
X160455761Y-98930952D02*
X160360523Y-98907142D01*
X160360523Y-98907142D02*
X160170047Y-98907142D01*
X160170047Y-98907142D02*
X160122428Y-98930952D01*
X160122428Y-98930952D02*
X160098619Y-98954761D01*
X160098619Y-98954761D02*
X160074809Y-99002380D01*
X160074809Y-99002380D02*
X160074809Y-99097618D01*
X160074809Y-99097618D02*
X160098619Y-99145237D01*
X160098619Y-99145237D02*
X160122428Y-99169047D01*
X160122428Y-99169047D02*
X160170047Y-99192856D01*
X160170047Y-99192856D02*
X160289095Y-99192856D01*
X160289095Y-99192856D02*
X160336714Y-99169047D01*
X160336714Y-99169047D02*
X160360523Y-99145237D01*
X160360523Y-99145237D02*
X160384333Y-99097618D01*
X160384333Y-99097618D02*
X160384333Y-99002380D01*
X160384333Y-99002380D02*
X160360523Y-98954761D01*
X160360523Y-98954761D02*
X160336714Y-98930952D01*
X160336714Y-98930952D02*
X160289095Y-98907142D01*
X146553571Y-133677190D02*
X146529762Y-133701000D01*
X146529762Y-133701000D02*
X146458333Y-133724809D01*
X146458333Y-133724809D02*
X146410714Y-133724809D01*
X146410714Y-133724809D02*
X146339286Y-133701000D01*
X146339286Y-133701000D02*
X146291667Y-133653380D01*
X146291667Y-133653380D02*
X146267857Y-133605761D01*
X146267857Y-133605761D02*
X146244048Y-133510523D01*
X146244048Y-133510523D02*
X146244048Y-133439095D01*
X146244048Y-133439095D02*
X146267857Y-133343857D01*
X146267857Y-133343857D02*
X146291667Y-133296238D01*
X146291667Y-133296238D02*
X146339286Y-133248619D01*
X146339286Y-133248619D02*
X146410714Y-133224809D01*
X146410714Y-133224809D02*
X146458333Y-133224809D01*
X146458333Y-133224809D02*
X146529762Y-133248619D01*
X146529762Y-133248619D02*
X146553571Y-133272428D01*
X147029762Y-133724809D02*
X146744048Y-133724809D01*
X146886905Y-133724809D02*
X146886905Y-133224809D01*
X146886905Y-133224809D02*
X146839286Y-133296238D01*
X146839286Y-133296238D02*
X146791667Y-133343857D01*
X146791667Y-133343857D02*
X146744048Y-133367666D01*
X147267857Y-133724809D02*
X147363095Y-133724809D01*
X147363095Y-133724809D02*
X147410714Y-133701000D01*
X147410714Y-133701000D02*
X147434523Y-133677190D01*
X147434523Y-133677190D02*
X147482142Y-133605761D01*
X147482142Y-133605761D02*
X147505952Y-133510523D01*
X147505952Y-133510523D02*
X147505952Y-133320047D01*
X147505952Y-133320047D02*
X147482142Y-133272428D01*
X147482142Y-133272428D02*
X147458333Y-133248619D01*
X147458333Y-133248619D02*
X147410714Y-133224809D01*
X147410714Y-133224809D02*
X147315476Y-133224809D01*
X147315476Y-133224809D02*
X147267857Y-133248619D01*
X147267857Y-133248619D02*
X147244047Y-133272428D01*
X147244047Y-133272428D02*
X147220238Y-133320047D01*
X147220238Y-133320047D02*
X147220238Y-133439095D01*
X147220238Y-133439095D02*
X147244047Y-133486714D01*
X147244047Y-133486714D02*
X147267857Y-133510523D01*
X147267857Y-133510523D02*
X147315476Y-133534333D01*
X147315476Y-133534333D02*
X147410714Y-133534333D01*
X147410714Y-133534333D02*
X147458333Y-133510523D01*
X147458333Y-133510523D02*
X147482142Y-133486714D01*
X147482142Y-133486714D02*
X147505952Y-133439095D01*
X154416666Y-109224809D02*
X154250000Y-108986714D01*
X154130952Y-109224809D02*
X154130952Y-108724809D01*
X154130952Y-108724809D02*
X154321428Y-108724809D01*
X154321428Y-108724809D02*
X154369047Y-108748619D01*
X154369047Y-108748619D02*
X154392857Y-108772428D01*
X154392857Y-108772428D02*
X154416666Y-108820047D01*
X154416666Y-108820047D02*
X154416666Y-108891476D01*
X154416666Y-108891476D02*
X154392857Y-108939095D01*
X154392857Y-108939095D02*
X154369047Y-108962904D01*
X154369047Y-108962904D02*
X154321428Y-108986714D01*
X154321428Y-108986714D02*
X154130952Y-108986714D01*
X154654762Y-109224809D02*
X154750000Y-109224809D01*
X154750000Y-109224809D02*
X154797619Y-109201000D01*
X154797619Y-109201000D02*
X154821428Y-109177190D01*
X154821428Y-109177190D02*
X154869047Y-109105761D01*
X154869047Y-109105761D02*
X154892857Y-109010523D01*
X154892857Y-109010523D02*
X154892857Y-108820047D01*
X154892857Y-108820047D02*
X154869047Y-108772428D01*
X154869047Y-108772428D02*
X154845238Y-108748619D01*
X154845238Y-108748619D02*
X154797619Y-108724809D01*
X154797619Y-108724809D02*
X154702381Y-108724809D01*
X154702381Y-108724809D02*
X154654762Y-108748619D01*
X154654762Y-108748619D02*
X154630952Y-108772428D01*
X154630952Y-108772428D02*
X154607143Y-108820047D01*
X154607143Y-108820047D02*
X154607143Y-108939095D01*
X154607143Y-108939095D02*
X154630952Y-108986714D01*
X154630952Y-108986714D02*
X154654762Y-109010523D01*
X154654762Y-109010523D02*
X154702381Y-109034333D01*
X154702381Y-109034333D02*
X154797619Y-109034333D01*
X154797619Y-109034333D02*
X154845238Y-109010523D01*
X154845238Y-109010523D02*
X154869047Y-108986714D01*
X154869047Y-108986714D02*
X154892857Y-108939095D01*
D10*
X170988095Y-148054819D02*
X170988095Y-147054819D01*
X170988095Y-147531009D02*
X171559523Y-147531009D01*
X171559523Y-148054819D02*
X171559523Y-147054819D01*
X172559523Y-148054819D02*
X171988095Y-148054819D01*
X172273809Y-148054819D02*
X172273809Y-147054819D01*
X172273809Y-147054819D02*
X172178571Y-147197676D01*
X172178571Y-147197676D02*
X172083333Y-147292914D01*
X172083333Y-147292914D02*
X171988095Y-147340533D01*
D12*
X146653571Y-141727190D02*
X146629762Y-141751000D01*
X146629762Y-141751000D02*
X146558333Y-141774809D01*
X146558333Y-141774809D02*
X146510714Y-141774809D01*
X146510714Y-141774809D02*
X146439286Y-141751000D01*
X146439286Y-141751000D02*
X146391667Y-141703380D01*
X146391667Y-141703380D02*
X146367857Y-141655761D01*
X146367857Y-141655761D02*
X146344048Y-141560523D01*
X146344048Y-141560523D02*
X146344048Y-141489095D01*
X146344048Y-141489095D02*
X146367857Y-141393857D01*
X146367857Y-141393857D02*
X146391667Y-141346238D01*
X146391667Y-141346238D02*
X146439286Y-141298619D01*
X146439286Y-141298619D02*
X146510714Y-141274809D01*
X146510714Y-141274809D02*
X146558333Y-141274809D01*
X146558333Y-141274809D02*
X146629762Y-141298619D01*
X146629762Y-141298619D02*
X146653571Y-141322428D01*
X146844048Y-141322428D02*
X146867857Y-141298619D01*
X146867857Y-141298619D02*
X146915476Y-141274809D01*
X146915476Y-141274809D02*
X147034524Y-141274809D01*
X147034524Y-141274809D02*
X147082143Y-141298619D01*
X147082143Y-141298619D02*
X147105952Y-141322428D01*
X147105952Y-141322428D02*
X147129762Y-141370047D01*
X147129762Y-141370047D02*
X147129762Y-141417666D01*
X147129762Y-141417666D02*
X147105952Y-141489095D01*
X147105952Y-141489095D02*
X146820238Y-141774809D01*
X146820238Y-141774809D02*
X147129762Y-141774809D01*
X147320238Y-141322428D02*
X147344047Y-141298619D01*
X147344047Y-141298619D02*
X147391666Y-141274809D01*
X147391666Y-141274809D02*
X147510714Y-141274809D01*
X147510714Y-141274809D02*
X147558333Y-141298619D01*
X147558333Y-141298619D02*
X147582142Y-141322428D01*
X147582142Y-141322428D02*
X147605952Y-141370047D01*
X147605952Y-141370047D02*
X147605952Y-141417666D01*
X147605952Y-141417666D02*
X147582142Y-141489095D01*
X147582142Y-141489095D02*
X147296428Y-141774809D01*
X147296428Y-141774809D02*
X147605952Y-141774809D01*
X150178571Y-106177190D02*
X150154762Y-106201000D01*
X150154762Y-106201000D02*
X150083333Y-106224809D01*
X150083333Y-106224809D02*
X150035714Y-106224809D01*
X150035714Y-106224809D02*
X149964286Y-106201000D01*
X149964286Y-106201000D02*
X149916667Y-106153380D01*
X149916667Y-106153380D02*
X149892857Y-106105761D01*
X149892857Y-106105761D02*
X149869048Y-106010523D01*
X149869048Y-106010523D02*
X149869048Y-105939095D01*
X149869048Y-105939095D02*
X149892857Y-105843857D01*
X149892857Y-105843857D02*
X149916667Y-105796238D01*
X149916667Y-105796238D02*
X149964286Y-105748619D01*
X149964286Y-105748619D02*
X150035714Y-105724809D01*
X150035714Y-105724809D02*
X150083333Y-105724809D01*
X150083333Y-105724809D02*
X150154762Y-105748619D01*
X150154762Y-105748619D02*
X150178571Y-105772428D01*
X150654762Y-106224809D02*
X150369048Y-106224809D01*
X150511905Y-106224809D02*
X150511905Y-105724809D01*
X150511905Y-105724809D02*
X150464286Y-105796238D01*
X150464286Y-105796238D02*
X150416667Y-105843857D01*
X150416667Y-105843857D02*
X150369048Y-105867666D01*
X150821428Y-105724809D02*
X151154761Y-105724809D01*
X151154761Y-105724809D02*
X150940476Y-106224809D01*
X146578571Y-122977190D02*
X146554762Y-123001000D01*
X146554762Y-123001000D02*
X146483333Y-123024809D01*
X146483333Y-123024809D02*
X146435714Y-123024809D01*
X146435714Y-123024809D02*
X146364286Y-123001000D01*
X146364286Y-123001000D02*
X146316667Y-122953380D01*
X146316667Y-122953380D02*
X146292857Y-122905761D01*
X146292857Y-122905761D02*
X146269048Y-122810523D01*
X146269048Y-122810523D02*
X146269048Y-122739095D01*
X146269048Y-122739095D02*
X146292857Y-122643857D01*
X146292857Y-122643857D02*
X146316667Y-122596238D01*
X146316667Y-122596238D02*
X146364286Y-122548619D01*
X146364286Y-122548619D02*
X146435714Y-122524809D01*
X146435714Y-122524809D02*
X146483333Y-122524809D01*
X146483333Y-122524809D02*
X146554762Y-122548619D01*
X146554762Y-122548619D02*
X146578571Y-122572428D01*
X147054762Y-123024809D02*
X146769048Y-123024809D01*
X146911905Y-123024809D02*
X146911905Y-122524809D01*
X146911905Y-122524809D02*
X146864286Y-122596238D01*
X146864286Y-122596238D02*
X146816667Y-122643857D01*
X146816667Y-122643857D02*
X146769048Y-122667666D01*
X147483333Y-122524809D02*
X147388095Y-122524809D01*
X147388095Y-122524809D02*
X147340476Y-122548619D01*
X147340476Y-122548619D02*
X147316666Y-122572428D01*
X147316666Y-122572428D02*
X147269047Y-122643857D01*
X147269047Y-122643857D02*
X147245238Y-122739095D01*
X147245238Y-122739095D02*
X147245238Y-122929571D01*
X147245238Y-122929571D02*
X147269047Y-122977190D01*
X147269047Y-122977190D02*
X147292857Y-123001000D01*
X147292857Y-123001000D02*
X147340476Y-123024809D01*
X147340476Y-123024809D02*
X147435714Y-123024809D01*
X147435714Y-123024809D02*
X147483333Y-123001000D01*
X147483333Y-123001000D02*
X147507142Y-122977190D01*
X147507142Y-122977190D02*
X147530952Y-122929571D01*
X147530952Y-122929571D02*
X147530952Y-122810523D01*
X147530952Y-122810523D02*
X147507142Y-122762904D01*
X147507142Y-122762904D02*
X147483333Y-122739095D01*
X147483333Y-122739095D02*
X147435714Y-122715285D01*
X147435714Y-122715285D02*
X147340476Y-122715285D01*
X147340476Y-122715285D02*
X147292857Y-122739095D01*
X147292857Y-122739095D02*
X147269047Y-122762904D01*
X147269047Y-122762904D02*
X147245238Y-122810523D01*
X155416666Y-101747190D02*
X155392857Y-101771000D01*
X155392857Y-101771000D02*
X155321428Y-101794809D01*
X155321428Y-101794809D02*
X155273809Y-101794809D01*
X155273809Y-101794809D02*
X155202381Y-101771000D01*
X155202381Y-101771000D02*
X155154762Y-101723380D01*
X155154762Y-101723380D02*
X155130952Y-101675761D01*
X155130952Y-101675761D02*
X155107143Y-101580523D01*
X155107143Y-101580523D02*
X155107143Y-101509095D01*
X155107143Y-101509095D02*
X155130952Y-101413857D01*
X155130952Y-101413857D02*
X155154762Y-101366238D01*
X155154762Y-101366238D02*
X155202381Y-101318619D01*
X155202381Y-101318619D02*
X155273809Y-101294809D01*
X155273809Y-101294809D02*
X155321428Y-101294809D01*
X155321428Y-101294809D02*
X155392857Y-101318619D01*
X155392857Y-101318619D02*
X155416666Y-101342428D01*
X155702381Y-101509095D02*
X155654762Y-101485285D01*
X155654762Y-101485285D02*
X155630952Y-101461476D01*
X155630952Y-101461476D02*
X155607143Y-101413857D01*
X155607143Y-101413857D02*
X155607143Y-101390047D01*
X155607143Y-101390047D02*
X155630952Y-101342428D01*
X155630952Y-101342428D02*
X155654762Y-101318619D01*
X155654762Y-101318619D02*
X155702381Y-101294809D01*
X155702381Y-101294809D02*
X155797619Y-101294809D01*
X155797619Y-101294809D02*
X155845238Y-101318619D01*
X155845238Y-101318619D02*
X155869047Y-101342428D01*
X155869047Y-101342428D02*
X155892857Y-101390047D01*
X155892857Y-101390047D02*
X155892857Y-101413857D01*
X155892857Y-101413857D02*
X155869047Y-101461476D01*
X155869047Y-101461476D02*
X155845238Y-101485285D01*
X155845238Y-101485285D02*
X155797619Y-101509095D01*
X155797619Y-101509095D02*
X155702381Y-101509095D01*
X155702381Y-101509095D02*
X155654762Y-101532904D01*
X155654762Y-101532904D02*
X155630952Y-101556714D01*
X155630952Y-101556714D02*
X155607143Y-101604333D01*
X155607143Y-101604333D02*
X155607143Y-101699571D01*
X155607143Y-101699571D02*
X155630952Y-101747190D01*
X155630952Y-101747190D02*
X155654762Y-101771000D01*
X155654762Y-101771000D02*
X155702381Y-101794809D01*
X155702381Y-101794809D02*
X155797619Y-101794809D01*
X155797619Y-101794809D02*
X155845238Y-101771000D01*
X155845238Y-101771000D02*
X155869047Y-101747190D01*
X155869047Y-101747190D02*
X155892857Y-101699571D01*
X155892857Y-101699571D02*
X155892857Y-101604333D01*
X155892857Y-101604333D02*
X155869047Y-101556714D01*
X155869047Y-101556714D02*
X155845238Y-101532904D01*
X155845238Y-101532904D02*
X155797619Y-101509095D01*
X148714286Y-153462904D02*
X148547619Y-153462904D01*
X148547619Y-153724809D02*
X148547619Y-153224809D01*
X148547619Y-153224809D02*
X148785714Y-153224809D01*
X148976190Y-153724809D02*
X148976190Y-153224809D01*
X149214285Y-153724809D02*
X149214285Y-153224809D01*
X149214285Y-153224809D02*
X149333333Y-153224809D01*
X149333333Y-153224809D02*
X149404761Y-153248619D01*
X149404761Y-153248619D02*
X149452380Y-153296238D01*
X149452380Y-153296238D02*
X149476190Y-153343857D01*
X149476190Y-153343857D02*
X149499999Y-153439095D01*
X149499999Y-153439095D02*
X149499999Y-153510523D01*
X149499999Y-153510523D02*
X149476190Y-153605761D01*
X149476190Y-153605761D02*
X149452380Y-153653380D01*
X149452380Y-153653380D02*
X149404761Y-153701000D01*
X149404761Y-153701000D02*
X149333333Y-153724809D01*
X149333333Y-153724809D02*
X149214285Y-153724809D01*
X149690476Y-153272428D02*
X149714285Y-153248619D01*
X149714285Y-153248619D02*
X149761904Y-153224809D01*
X149761904Y-153224809D02*
X149880952Y-153224809D01*
X149880952Y-153224809D02*
X149928571Y-153248619D01*
X149928571Y-153248619D02*
X149952380Y-153272428D01*
X149952380Y-153272428D02*
X149976190Y-153320047D01*
X149976190Y-153320047D02*
X149976190Y-153367666D01*
X149976190Y-153367666D02*
X149952380Y-153439095D01*
X149952380Y-153439095D02*
X149666666Y-153724809D01*
X149666666Y-153724809D02*
X149976190Y-153724809D01*
X146553571Y-130077190D02*
X146529762Y-130101000D01*
X146529762Y-130101000D02*
X146458333Y-130124809D01*
X146458333Y-130124809D02*
X146410714Y-130124809D01*
X146410714Y-130124809D02*
X146339286Y-130101000D01*
X146339286Y-130101000D02*
X146291667Y-130053380D01*
X146291667Y-130053380D02*
X146267857Y-130005761D01*
X146267857Y-130005761D02*
X146244048Y-129910523D01*
X146244048Y-129910523D02*
X146244048Y-129839095D01*
X146244048Y-129839095D02*
X146267857Y-129743857D01*
X146267857Y-129743857D02*
X146291667Y-129696238D01*
X146291667Y-129696238D02*
X146339286Y-129648619D01*
X146339286Y-129648619D02*
X146410714Y-129624809D01*
X146410714Y-129624809D02*
X146458333Y-129624809D01*
X146458333Y-129624809D02*
X146529762Y-129648619D01*
X146529762Y-129648619D02*
X146553571Y-129672428D01*
X146744048Y-129672428D02*
X146767857Y-129648619D01*
X146767857Y-129648619D02*
X146815476Y-129624809D01*
X146815476Y-129624809D02*
X146934524Y-129624809D01*
X146934524Y-129624809D02*
X146982143Y-129648619D01*
X146982143Y-129648619D02*
X147005952Y-129672428D01*
X147005952Y-129672428D02*
X147029762Y-129720047D01*
X147029762Y-129720047D02*
X147029762Y-129767666D01*
X147029762Y-129767666D02*
X147005952Y-129839095D01*
X147005952Y-129839095D02*
X146720238Y-130124809D01*
X146720238Y-130124809D02*
X147029762Y-130124809D01*
X147339285Y-129624809D02*
X147386904Y-129624809D01*
X147386904Y-129624809D02*
X147434523Y-129648619D01*
X147434523Y-129648619D02*
X147458333Y-129672428D01*
X147458333Y-129672428D02*
X147482142Y-129720047D01*
X147482142Y-129720047D02*
X147505952Y-129815285D01*
X147505952Y-129815285D02*
X147505952Y-129934333D01*
X147505952Y-129934333D02*
X147482142Y-130029571D01*
X147482142Y-130029571D02*
X147458333Y-130077190D01*
X147458333Y-130077190D02*
X147434523Y-130101000D01*
X147434523Y-130101000D02*
X147386904Y-130124809D01*
X147386904Y-130124809D02*
X147339285Y-130124809D01*
X147339285Y-130124809D02*
X147291666Y-130101000D01*
X147291666Y-130101000D02*
X147267857Y-130077190D01*
X147267857Y-130077190D02*
X147244047Y-130029571D01*
X147244047Y-130029571D02*
X147220238Y-129934333D01*
X147220238Y-129934333D02*
X147220238Y-129815285D01*
X147220238Y-129815285D02*
X147244047Y-129720047D01*
X147244047Y-129720047D02*
X147267857Y-129672428D01*
X147267857Y-129672428D02*
X147291666Y-129648619D01*
X147291666Y-129648619D02*
X147339285Y-129624809D01*
X152827190Y-99383333D02*
X152851000Y-99407142D01*
X152851000Y-99407142D02*
X152874809Y-99478571D01*
X152874809Y-99478571D02*
X152874809Y-99526190D01*
X152874809Y-99526190D02*
X152851000Y-99597618D01*
X152851000Y-99597618D02*
X152803380Y-99645237D01*
X152803380Y-99645237D02*
X152755761Y-99669047D01*
X152755761Y-99669047D02*
X152660523Y-99692856D01*
X152660523Y-99692856D02*
X152589095Y-99692856D01*
X152589095Y-99692856D02*
X152493857Y-99669047D01*
X152493857Y-99669047D02*
X152446238Y-99645237D01*
X152446238Y-99645237D02*
X152398619Y-99597618D01*
X152398619Y-99597618D02*
X152374809Y-99526190D01*
X152374809Y-99526190D02*
X152374809Y-99478571D01*
X152374809Y-99478571D02*
X152398619Y-99407142D01*
X152398619Y-99407142D02*
X152422428Y-99383333D01*
X152541476Y-98954761D02*
X152874809Y-98954761D01*
X152351000Y-99073809D02*
X152708142Y-99192856D01*
X152708142Y-99192856D02*
X152708142Y-98883333D01*
X159286666Y-102724809D02*
X159120000Y-102486714D01*
X159000952Y-102724809D02*
X159000952Y-102224809D01*
X159000952Y-102224809D02*
X159191428Y-102224809D01*
X159191428Y-102224809D02*
X159239047Y-102248619D01*
X159239047Y-102248619D02*
X159262857Y-102272428D01*
X159262857Y-102272428D02*
X159286666Y-102320047D01*
X159286666Y-102320047D02*
X159286666Y-102391476D01*
X159286666Y-102391476D02*
X159262857Y-102439095D01*
X159262857Y-102439095D02*
X159239047Y-102462904D01*
X159239047Y-102462904D02*
X159191428Y-102486714D01*
X159191428Y-102486714D02*
X159000952Y-102486714D01*
X159453333Y-102224809D02*
X159762857Y-102224809D01*
X159762857Y-102224809D02*
X159596190Y-102415285D01*
X159596190Y-102415285D02*
X159667619Y-102415285D01*
X159667619Y-102415285D02*
X159715238Y-102439095D01*
X159715238Y-102439095D02*
X159739047Y-102462904D01*
X159739047Y-102462904D02*
X159762857Y-102510523D01*
X159762857Y-102510523D02*
X159762857Y-102629571D01*
X159762857Y-102629571D02*
X159739047Y-102677190D01*
X159739047Y-102677190D02*
X159715238Y-102701000D01*
X159715238Y-102701000D02*
X159667619Y-102724809D01*
X159667619Y-102724809D02*
X159524762Y-102724809D01*
X159524762Y-102724809D02*
X159477143Y-102701000D01*
X159477143Y-102701000D02*
X159453333Y-102677190D01*
X155427190Y-99383333D02*
X155451000Y-99407142D01*
X155451000Y-99407142D02*
X155474809Y-99478571D01*
X155474809Y-99478571D02*
X155474809Y-99526190D01*
X155474809Y-99526190D02*
X155451000Y-99597618D01*
X155451000Y-99597618D02*
X155403380Y-99645237D01*
X155403380Y-99645237D02*
X155355761Y-99669047D01*
X155355761Y-99669047D02*
X155260523Y-99692856D01*
X155260523Y-99692856D02*
X155189095Y-99692856D01*
X155189095Y-99692856D02*
X155093857Y-99669047D01*
X155093857Y-99669047D02*
X155046238Y-99645237D01*
X155046238Y-99645237D02*
X154998619Y-99597618D01*
X154998619Y-99597618D02*
X154974809Y-99526190D01*
X154974809Y-99526190D02*
X154974809Y-99478571D01*
X154974809Y-99478571D02*
X154998619Y-99407142D01*
X154998619Y-99407142D02*
X155022428Y-99383333D01*
X154974809Y-98954761D02*
X154974809Y-99049999D01*
X154974809Y-99049999D02*
X154998619Y-99097618D01*
X154998619Y-99097618D02*
X155022428Y-99121428D01*
X155022428Y-99121428D02*
X155093857Y-99169047D01*
X155093857Y-99169047D02*
X155189095Y-99192856D01*
X155189095Y-99192856D02*
X155379571Y-99192856D01*
X155379571Y-99192856D02*
X155427190Y-99169047D01*
X155427190Y-99169047D02*
X155451000Y-99145237D01*
X155451000Y-99145237D02*
X155474809Y-99097618D01*
X155474809Y-99097618D02*
X155474809Y-99002380D01*
X155474809Y-99002380D02*
X155451000Y-98954761D01*
X155451000Y-98954761D02*
X155427190Y-98930952D01*
X155427190Y-98930952D02*
X155379571Y-98907142D01*
X155379571Y-98907142D02*
X155260523Y-98907142D01*
X155260523Y-98907142D02*
X155212904Y-98930952D01*
X155212904Y-98930952D02*
X155189095Y-98954761D01*
X155189095Y-98954761D02*
X155165285Y-99002380D01*
X155165285Y-99002380D02*
X155165285Y-99097618D01*
X155165285Y-99097618D02*
X155189095Y-99145237D01*
X155189095Y-99145237D02*
X155212904Y-99169047D01*
X155212904Y-99169047D02*
X155260523Y-99192856D01*
X157378571Y-136677190D02*
X157354762Y-136701000D01*
X157354762Y-136701000D02*
X157283333Y-136724809D01*
X157283333Y-136724809D02*
X157235714Y-136724809D01*
X157235714Y-136724809D02*
X157164286Y-136701000D01*
X157164286Y-136701000D02*
X157116667Y-136653380D01*
X157116667Y-136653380D02*
X157092857Y-136605761D01*
X157092857Y-136605761D02*
X157069048Y-136510523D01*
X157069048Y-136510523D02*
X157069048Y-136439095D01*
X157069048Y-136439095D02*
X157092857Y-136343857D01*
X157092857Y-136343857D02*
X157116667Y-136296238D01*
X157116667Y-136296238D02*
X157164286Y-136248619D01*
X157164286Y-136248619D02*
X157235714Y-136224809D01*
X157235714Y-136224809D02*
X157283333Y-136224809D01*
X157283333Y-136224809D02*
X157354762Y-136248619D01*
X157354762Y-136248619D02*
X157378571Y-136272428D01*
X157569048Y-136272428D02*
X157592857Y-136248619D01*
X157592857Y-136248619D02*
X157640476Y-136224809D01*
X157640476Y-136224809D02*
X157759524Y-136224809D01*
X157759524Y-136224809D02*
X157807143Y-136248619D01*
X157807143Y-136248619D02*
X157830952Y-136272428D01*
X157830952Y-136272428D02*
X157854762Y-136320047D01*
X157854762Y-136320047D02*
X157854762Y-136367666D01*
X157854762Y-136367666D02*
X157830952Y-136439095D01*
X157830952Y-136439095D02*
X157545238Y-136724809D01*
X157545238Y-136724809D02*
X157854762Y-136724809D01*
X158330952Y-136724809D02*
X158045238Y-136724809D01*
X158188095Y-136724809D02*
X158188095Y-136224809D01*
X158188095Y-136224809D02*
X158140476Y-136296238D01*
X158140476Y-136296238D02*
X158092857Y-136343857D01*
X158092857Y-136343857D02*
X158045238Y-136367666D01*
X156478571Y-106577190D02*
X156454762Y-106601000D01*
X156454762Y-106601000D02*
X156383333Y-106624809D01*
X156383333Y-106624809D02*
X156335714Y-106624809D01*
X156335714Y-106624809D02*
X156264286Y-106601000D01*
X156264286Y-106601000D02*
X156216667Y-106553380D01*
X156216667Y-106553380D02*
X156192857Y-106505761D01*
X156192857Y-106505761D02*
X156169048Y-106410523D01*
X156169048Y-106410523D02*
X156169048Y-106339095D01*
X156169048Y-106339095D02*
X156192857Y-106243857D01*
X156192857Y-106243857D02*
X156216667Y-106196238D01*
X156216667Y-106196238D02*
X156264286Y-106148619D01*
X156264286Y-106148619D02*
X156335714Y-106124809D01*
X156335714Y-106124809D02*
X156383333Y-106124809D01*
X156383333Y-106124809D02*
X156454762Y-106148619D01*
X156454762Y-106148619D02*
X156478571Y-106172428D01*
X156954762Y-106624809D02*
X156669048Y-106624809D01*
X156811905Y-106624809D02*
X156811905Y-106124809D01*
X156811905Y-106124809D02*
X156764286Y-106196238D01*
X156764286Y-106196238D02*
X156716667Y-106243857D01*
X156716667Y-106243857D02*
X156669048Y-106267666D01*
X157383333Y-106291476D02*
X157383333Y-106624809D01*
X157264285Y-106101000D02*
X157145238Y-106458142D01*
X157145238Y-106458142D02*
X157454761Y-106458142D01*
X146578571Y-119477190D02*
X146554762Y-119501000D01*
X146554762Y-119501000D02*
X146483333Y-119524809D01*
X146483333Y-119524809D02*
X146435714Y-119524809D01*
X146435714Y-119524809D02*
X146364286Y-119501000D01*
X146364286Y-119501000D02*
X146316667Y-119453380D01*
X146316667Y-119453380D02*
X146292857Y-119405761D01*
X146292857Y-119405761D02*
X146269048Y-119310523D01*
X146269048Y-119310523D02*
X146269048Y-119239095D01*
X146269048Y-119239095D02*
X146292857Y-119143857D01*
X146292857Y-119143857D02*
X146316667Y-119096238D01*
X146316667Y-119096238D02*
X146364286Y-119048619D01*
X146364286Y-119048619D02*
X146435714Y-119024809D01*
X146435714Y-119024809D02*
X146483333Y-119024809D01*
X146483333Y-119024809D02*
X146554762Y-119048619D01*
X146554762Y-119048619D02*
X146578571Y-119072428D01*
X147054762Y-119524809D02*
X146769048Y-119524809D01*
X146911905Y-119524809D02*
X146911905Y-119024809D01*
X146911905Y-119024809D02*
X146864286Y-119096238D01*
X146864286Y-119096238D02*
X146816667Y-119143857D01*
X146816667Y-119143857D02*
X146769048Y-119167666D01*
X147507142Y-119024809D02*
X147269047Y-119024809D01*
X147269047Y-119024809D02*
X147245238Y-119262904D01*
X147245238Y-119262904D02*
X147269047Y-119239095D01*
X147269047Y-119239095D02*
X147316666Y-119215285D01*
X147316666Y-119215285D02*
X147435714Y-119215285D01*
X147435714Y-119215285D02*
X147483333Y-119239095D01*
X147483333Y-119239095D02*
X147507142Y-119262904D01*
X147507142Y-119262904D02*
X147530952Y-119310523D01*
X147530952Y-119310523D02*
X147530952Y-119429571D01*
X147530952Y-119429571D02*
X147507142Y-119477190D01*
X147507142Y-119477190D02*
X147483333Y-119501000D01*
X147483333Y-119501000D02*
X147435714Y-119524809D01*
X147435714Y-119524809D02*
X147316666Y-119524809D01*
X147316666Y-119524809D02*
X147269047Y-119501000D01*
X147269047Y-119501000D02*
X147245238Y-119477190D01*
X156594809Y-104158333D02*
X156356714Y-104324999D01*
X156594809Y-104444047D02*
X156094809Y-104444047D01*
X156094809Y-104444047D02*
X156094809Y-104253571D01*
X156094809Y-104253571D02*
X156118619Y-104205952D01*
X156118619Y-104205952D02*
X156142428Y-104182142D01*
X156142428Y-104182142D02*
X156190047Y-104158333D01*
X156190047Y-104158333D02*
X156261476Y-104158333D01*
X156261476Y-104158333D02*
X156309095Y-104182142D01*
X156309095Y-104182142D02*
X156332904Y-104205952D01*
X156332904Y-104205952D02*
X156356714Y-104253571D01*
X156356714Y-104253571D02*
X156356714Y-104444047D01*
X156142428Y-103967856D02*
X156118619Y-103944047D01*
X156118619Y-103944047D02*
X156094809Y-103896428D01*
X156094809Y-103896428D02*
X156094809Y-103777380D01*
X156094809Y-103777380D02*
X156118619Y-103729761D01*
X156118619Y-103729761D02*
X156142428Y-103705952D01*
X156142428Y-103705952D02*
X156190047Y-103682142D01*
X156190047Y-103682142D02*
X156237666Y-103682142D01*
X156237666Y-103682142D02*
X156309095Y-103705952D01*
X156309095Y-103705952D02*
X156594809Y-103991666D01*
X156594809Y-103991666D02*
X156594809Y-103682142D01*
D13*
%TO.C,C7*%
X158790000Y-100011252D02*
X158790000Y-98588748D01*
X160610000Y-100011252D02*
X160610000Y-98588748D01*
%TO.C,J1*%
X138330000Y-104130000D02*
X146370000Y-104130000D01*
X138330000Y-106950000D02*
X138330000Y-104130000D01*
X138330000Y-114870000D02*
X138330000Y-107550000D01*
X140450000Y-104130000D02*
X140450000Y-105370000D01*
X140450000Y-109130000D02*
X140450000Y-111707000D01*
X140450000Y-112793000D02*
X140450000Y-114870000D01*
X141750000Y-104130000D02*
X141750000Y-105370000D01*
X141750000Y-109130000D02*
X141750000Y-110438000D01*
X141750000Y-114062000D02*
X141750000Y-114870000D01*
X142750000Y-104130000D02*
X142750000Y-105370000D01*
X142750000Y-109130000D02*
X142750000Y-110438000D01*
X142750000Y-114062000D02*
X142750000Y-114870000D01*
X146370000Y-104130000D02*
X146370000Y-114870000D01*
X146370000Y-114870000D02*
X138330000Y-114870000D01*
X138330000Y-107250000D02*
X137720000Y-107690000D01*
X137720000Y-106810000D01*
X138330000Y-107250000D01*
G36*
X138330000Y-107250000D02*
G01*
X137720000Y-107690000D01*
X137720000Y-106810000D01*
X138330000Y-107250000D01*
G37*
%TO.C,C13*%
X157740580Y-107640000D02*
X157459420Y-107640000D01*
X157740580Y-108660000D02*
X157459420Y-108660000D01*
%TO.C,C3*%
X150990000Y-100011252D02*
X150990000Y-98588748D01*
X152810000Y-100011252D02*
X152810000Y-98588748D01*
%TO.C,R6*%
X162687742Y-110677500D02*
X163162258Y-110677500D01*
X162687742Y-111722500D02*
X163162258Y-111722500D01*
%TO.C,C5*%
X157788748Y-110865000D02*
X158311252Y-110865000D01*
X157788748Y-112335000D02*
X158311252Y-112335000D01*
%TO.C,C11*%
X162659420Y-108990000D02*
X162940580Y-108990000D01*
X162659420Y-110010000D02*
X162940580Y-110010000D01*
%TO.C,C23*%
X147686252Y-133640000D02*
X146263748Y-133640000D01*
X147686252Y-136360000D02*
X146263748Y-136360000D01*
%TO.C,C12*%
X164859420Y-105240000D02*
X165140580Y-105240000D01*
X164859420Y-106260000D02*
X165140580Y-106260000D01*
D14*
%TO.C,G\u002A\u002A\u002A*%
G36*
X143259811Y-143569513D02*
G01*
X143258296Y-143574352D01*
X143255528Y-143583432D01*
X143251789Y-143595816D01*
X143247363Y-143610570D01*
X143242530Y-143626756D01*
X143242092Y-143628228D01*
X143237262Y-143644278D01*
X143232803Y-143658761D01*
X143228996Y-143670799D01*
X143226117Y-143679515D01*
X143224445Y-143684031D01*
X143224341Y-143684243D01*
X143223188Y-143685696D01*
X143221022Y-143686819D01*
X143217209Y-143687653D01*
X143211117Y-143688241D01*
X143202110Y-143688624D01*
X143189557Y-143688845D01*
X143172823Y-143688945D01*
X143153115Y-143688968D01*
X143134485Y-143688892D01*
X143117767Y-143688678D01*
X143103678Y-143688347D01*
X143092935Y-143687920D01*
X143086256Y-143687419D01*
X143084308Y-143686943D01*
X143085031Y-143683889D01*
X143087093Y-143676406D01*
X143090282Y-143665236D01*
X143094384Y-143651121D01*
X143099185Y-143634803D01*
X143102530Y-143623537D01*
X143120816Y-143562155D01*
X143191538Y-143562122D01*
X143262261Y-143562089D01*
X143259811Y-143569513D01*
G37*
G36*
X140780939Y-143257274D02*
G01*
X140784909Y-143264306D01*
X140789992Y-143274263D01*
X140795731Y-143286144D01*
X140801671Y-143298952D01*
X140807355Y-143311688D01*
X140812327Y-143323354D01*
X140816129Y-143332952D01*
X140818306Y-143339482D01*
X140818594Y-143341777D01*
X140815915Y-143343652D01*
X140809016Y-143347356D01*
X140798624Y-143352555D01*
X140785467Y-143358916D01*
X140770271Y-143366105D01*
X140753765Y-143373790D01*
X140736675Y-143381637D01*
X140719729Y-143389314D01*
X140703655Y-143396486D01*
X140689179Y-143402821D01*
X140677029Y-143407986D01*
X140667932Y-143411647D01*
X140662616Y-143413471D01*
X140661773Y-143413614D01*
X140657661Y-143411045D01*
X140652908Y-143403665D01*
X140650896Y-143399442D01*
X140646853Y-143390442D01*
X140641466Y-143378603D01*
X140635673Y-143365979D01*
X140633498Y-143361271D01*
X140628702Y-143350397D01*
X140624948Y-143340901D01*
X140622748Y-143334140D01*
X140622388Y-143332045D01*
X140623298Y-143330086D01*
X140626314Y-143327400D01*
X140631869Y-143323748D01*
X140640395Y-143318888D01*
X140652324Y-143312578D01*
X140668088Y-143304579D01*
X140688119Y-143294647D01*
X140698651Y-143289479D01*
X140720939Y-143278686D01*
X140740083Y-143269663D01*
X140755752Y-143262555D01*
X140767614Y-143257511D01*
X140775336Y-143254675D01*
X140778539Y-143254163D01*
X140780939Y-143257274D01*
G37*
G36*
X140859061Y-143512555D02*
G01*
X140863183Y-143515522D01*
X140865626Y-143520022D01*
X140869082Y-143528523D01*
X140873156Y-143539811D01*
X140877455Y-143552675D01*
X140881587Y-143565901D01*
X140885156Y-143578278D01*
X140887770Y-143588592D01*
X140888964Y-143594965D01*
X140890173Y-143604895D01*
X140870337Y-143610810D01*
X140836170Y-143620991D01*
X140806827Y-143629715D01*
X140781962Y-143637084D01*
X140761227Y-143643197D01*
X140744277Y-143648156D01*
X140730765Y-143652059D01*
X140720346Y-143655008D01*
X140712672Y-143657102D01*
X140707397Y-143658441D01*
X140704175Y-143659127D01*
X140702886Y-143659273D01*
X140699862Y-143657752D01*
X140696885Y-143652673D01*
X140693544Y-143643262D01*
X140692474Y-143639701D01*
X140688711Y-143626930D01*
X140684327Y-143612160D01*
X140680261Y-143598559D01*
X140680211Y-143598394D01*
X140677189Y-143587837D01*
X140674908Y-143578922D01*
X140673751Y-143573175D01*
X140673680Y-143572298D01*
X140674916Y-143570635D01*
X140678884Y-143568304D01*
X140685972Y-143565155D01*
X140696571Y-143561040D01*
X140711069Y-143555807D01*
X140729857Y-143549308D01*
X140753322Y-143541394D01*
X140759391Y-143539368D01*
X140780129Y-143532523D01*
X140799479Y-143526267D01*
X140816783Y-143520801D01*
X140831384Y-143516329D01*
X140842624Y-143513052D01*
X140849848Y-143511173D01*
X140852107Y-143510798D01*
X140859061Y-143512555D01*
G37*
G36*
X143166010Y-143718761D02*
G01*
X143184300Y-143719045D01*
X143198553Y-143719501D01*
X143208376Y-143720114D01*
X143213377Y-143720870D01*
X143213950Y-143721264D01*
X143213265Y-143724230D01*
X143211276Y-143732030D01*
X143208085Y-143744290D01*
X143203792Y-143760633D01*
X143198498Y-143780684D01*
X143192302Y-143804068D01*
X143185307Y-143830409D01*
X143177611Y-143859332D01*
X143169317Y-143890461D01*
X143160523Y-143923421D01*
X143151332Y-143957835D01*
X143141844Y-143993330D01*
X143132159Y-144029529D01*
X143122377Y-144066056D01*
X143112600Y-144102537D01*
X143102928Y-144138596D01*
X143093461Y-144173857D01*
X143084300Y-144207944D01*
X143075546Y-144240483D01*
X143067300Y-144271098D01*
X143059661Y-144299413D01*
X143052730Y-144325053D01*
X143046609Y-144347642D01*
X143041397Y-144366805D01*
X143037196Y-144382166D01*
X143034105Y-144393351D01*
X143032225Y-144399982D01*
X143031667Y-144401750D01*
X143028774Y-144402224D01*
X143021139Y-144402660D01*
X143009422Y-144403057D01*
X142994278Y-144403411D01*
X142976367Y-144403718D01*
X142956346Y-144403975D01*
X142934872Y-144404180D01*
X142912604Y-144404330D01*
X142890200Y-144404420D01*
X142868316Y-144404447D01*
X142847612Y-144404410D01*
X142828744Y-144404303D01*
X142812370Y-144404125D01*
X142799149Y-144403872D01*
X142789738Y-144403541D01*
X142784795Y-144403128D01*
X142784224Y-144402949D01*
X142784354Y-144399961D01*
X142785716Y-144392807D01*
X142788085Y-144382518D01*
X142791238Y-144370127D01*
X142791664Y-144368529D01*
X142795762Y-144353200D01*
X142800033Y-144337192D01*
X142803918Y-144322601D01*
X142806405Y-144313237D01*
X142812309Y-144290966D01*
X142866734Y-144290966D01*
X142921158Y-144290966D01*
X142996112Y-144010888D01*
X143006251Y-143973000D01*
X143016015Y-143936510D01*
X143025311Y-143901763D01*
X143034047Y-143869108D01*
X143042130Y-143838891D01*
X143049467Y-143811458D01*
X143055965Y-143787156D01*
X143061532Y-143766332D01*
X143066075Y-143749332D01*
X143069501Y-143736504D01*
X143071717Y-143728193D01*
X143072632Y-143724747D01*
X143072635Y-143724737D01*
X143074203Y-143718663D01*
X143144077Y-143718663D01*
X143166010Y-143718761D01*
G37*
G36*
X145798798Y-143574912D02*
G01*
X145796732Y-143582277D01*
X145793678Y-143593479D01*
X145790010Y-143607130D01*
X145786103Y-143621843D01*
X145785153Y-143625447D01*
X145781418Y-143639460D01*
X145777979Y-143652020D01*
X145775155Y-143661995D01*
X145773260Y-143668252D01*
X145772891Y-143669315D01*
X145770551Y-143675470D01*
X145582186Y-143675470D01*
X145393821Y-143675470D01*
X145336373Y-143889409D01*
X145327494Y-143922478D01*
X145318996Y-143954129D01*
X145310988Y-143983963D01*
X145303576Y-144011580D01*
X145296869Y-144036579D01*
X145290972Y-144058560D01*
X145285993Y-144077124D01*
X145282041Y-144091871D01*
X145279221Y-144102400D01*
X145277642Y-144108311D01*
X145277353Y-144109403D01*
X145275780Y-144115459D01*
X145464544Y-144116152D01*
X145653308Y-144116845D01*
X145639551Y-144168137D01*
X145635203Y-144184241D01*
X145631229Y-144198764D01*
X145627875Y-144210819D01*
X145625389Y-144219519D01*
X145624018Y-144223976D01*
X145623953Y-144224152D01*
X145623417Y-144224942D01*
X145622250Y-144225640D01*
X145620134Y-144226250D01*
X145616748Y-144226778D01*
X145611773Y-144227231D01*
X145604889Y-144227614D01*
X145595778Y-144227932D01*
X145584118Y-144228193D01*
X145569592Y-144228401D01*
X145551880Y-144228562D01*
X145530661Y-144228683D01*
X145505617Y-144228768D01*
X145476428Y-144228825D01*
X145442775Y-144228857D01*
X145404337Y-144228873D01*
X145364220Y-144228876D01*
X145319531Y-144228863D01*
X145279971Y-144228822D01*
X145245272Y-144228748D01*
X145215163Y-144228639D01*
X145189375Y-144228491D01*
X145167639Y-144228300D01*
X145149685Y-144228063D01*
X145135244Y-144227777D01*
X145124046Y-144227437D01*
X145115822Y-144227040D01*
X145110302Y-144226584D01*
X145107218Y-144226063D01*
X145106297Y-144225502D01*
X145106979Y-144222521D01*
X145108979Y-144214640D01*
X145112211Y-144202173D01*
X145116594Y-144185436D01*
X145122044Y-144164742D01*
X145128477Y-144140407D01*
X145135810Y-144112744D01*
X145143959Y-144082068D01*
X145152843Y-144048694D01*
X145162376Y-144012935D01*
X145172475Y-143975108D01*
X145183058Y-143935525D01*
X145194040Y-143894502D01*
X145194682Y-143892108D01*
X145283098Y-143562089D01*
X145542809Y-143562089D01*
X145802520Y-143562089D01*
X145798798Y-143574912D01*
G37*
G36*
X142780082Y-143719233D02*
G01*
X142811955Y-143719326D01*
X142839660Y-143719477D01*
X142862999Y-143719686D01*
X142881776Y-143719951D01*
X142895792Y-143720270D01*
X142904850Y-143720643D01*
X142908754Y-143721067D01*
X142908901Y-143721173D01*
X142908214Y-143724205D01*
X142906232Y-143732009D01*
X142903072Y-143744146D01*
X142898853Y-143760177D01*
X142893692Y-143779663D01*
X142887709Y-143802167D01*
X142881020Y-143827248D01*
X142873745Y-143854468D01*
X142866000Y-143883388D01*
X142857905Y-143913570D01*
X142849577Y-143944574D01*
X142841135Y-143975961D01*
X142832696Y-144007294D01*
X142824378Y-144038133D01*
X142816300Y-144068039D01*
X142808580Y-144096573D01*
X142801336Y-144123297D01*
X142794686Y-144147772D01*
X142788748Y-144169558D01*
X142783639Y-144188218D01*
X142779479Y-144203312D01*
X142776386Y-144214401D01*
X142774476Y-144221047D01*
X142773915Y-144222802D01*
X142771340Y-144228876D01*
X142525783Y-144228876D01*
X142489853Y-144228855D01*
X142455480Y-144228791D01*
X142423046Y-144228690D01*
X142392931Y-144228553D01*
X142365518Y-144228384D01*
X142341186Y-144228187D01*
X142320319Y-144227963D01*
X142303296Y-144227717D01*
X142290500Y-144227452D01*
X142282311Y-144227170D01*
X142279111Y-144226874D01*
X142279083Y-144226852D01*
X142279608Y-144224013D01*
X142281451Y-144216322D01*
X142284517Y-144204136D01*
X142288713Y-144187814D01*
X142293944Y-144167713D01*
X142300117Y-144144192D01*
X142307136Y-144117609D01*
X142307697Y-144115495D01*
X142448162Y-144115495D01*
X142555193Y-144115495D01*
X142662224Y-144115495D01*
X142699606Y-143977144D01*
X142706755Y-143950703D01*
X142713502Y-143925793D01*
X142719710Y-143902909D01*
X142725246Y-143882544D01*
X142729975Y-143865194D01*
X142733761Y-143851354D01*
X142736471Y-143841519D01*
X142737969Y-143836183D01*
X142738210Y-143835387D01*
X142737533Y-143834511D01*
X142734533Y-143833807D01*
X142728796Y-143833265D01*
X142719908Y-143832874D01*
X142707454Y-143832623D01*
X142691021Y-143832503D01*
X142670195Y-143832502D01*
X142644560Y-143832611D01*
X142632087Y-143832687D01*
X142524742Y-143833393D01*
X142486452Y-143974444D01*
X142448162Y-144115495D01*
X142307697Y-144115495D01*
X142314908Y-144088323D01*
X142323339Y-144056691D01*
X142332335Y-144023072D01*
X142341801Y-143987825D01*
X142345949Y-143972420D01*
X142413958Y-143720012D01*
X142661430Y-143719323D01*
X142704622Y-143719231D01*
X142744239Y-143719201D01*
X142780082Y-143719233D01*
G37*
G36*
X142092036Y-143724737D02*
G01*
X142090039Y-143731326D01*
X142087171Y-143741349D01*
X142083678Y-143753878D01*
X142079811Y-143767987D01*
X142075818Y-143782750D01*
X142071948Y-143797239D01*
X142068449Y-143810528D01*
X142065569Y-143821689D01*
X142063558Y-143829797D01*
X142062664Y-143833924D01*
X142062655Y-143834252D01*
X142064822Y-143832786D01*
X142070630Y-143828232D01*
X142079596Y-143820984D01*
X142091237Y-143811438D01*
X142105070Y-143799991D01*
X142120610Y-143787036D01*
X142132720Y-143776887D01*
X142202027Y-143718663D01*
X142278761Y-143718663D01*
X142298487Y-143718704D01*
X142316335Y-143718819D01*
X142331628Y-143718998D01*
X142343687Y-143719231D01*
X142351835Y-143719506D01*
X142355394Y-143719812D01*
X142355495Y-143719875D01*
X142353478Y-143721757D01*
X142347632Y-143726852D01*
X142338259Y-143734903D01*
X142325665Y-143745651D01*
X142310155Y-143758836D01*
X142292033Y-143774202D01*
X142271603Y-143791489D01*
X142249170Y-143810439D01*
X142225039Y-143830794D01*
X142199515Y-143852296D01*
X142184749Y-143864722D01*
X142014003Y-144008356D01*
X141986503Y-144108493D01*
X141980247Y-144131255D01*
X141974334Y-144152731D01*
X141968943Y-144172282D01*
X141964248Y-144189267D01*
X141960429Y-144203045D01*
X141957661Y-144212976D01*
X141956122Y-144218421D01*
X141956025Y-144218753D01*
X141953046Y-144228876D01*
X141885666Y-144228876D01*
X141864606Y-144228840D01*
X141848350Y-144228706D01*
X141836305Y-144228439D01*
X141827878Y-144228003D01*
X141822474Y-144227363D01*
X141819500Y-144226483D01*
X141818361Y-144225327D01*
X141818286Y-144224823D01*
X141818980Y-144221899D01*
X141820983Y-144214205D01*
X141824175Y-144202178D01*
X141828438Y-144186255D01*
X141833652Y-144166873D01*
X141839699Y-144144468D01*
X141846459Y-144119477D01*
X141853814Y-144092338D01*
X141861645Y-144063487D01*
X141869832Y-144033361D01*
X141878256Y-144002397D01*
X141886799Y-143971031D01*
X141895342Y-143939702D01*
X141903765Y-143908845D01*
X141911949Y-143878897D01*
X141919776Y-143850296D01*
X141927126Y-143823477D01*
X141933881Y-143798880D01*
X141939921Y-143776939D01*
X141945127Y-143758091D01*
X141949381Y-143742775D01*
X141952563Y-143731426D01*
X141954555Y-143724482D01*
X141954883Y-143723387D01*
X141955692Y-143721937D01*
X141957540Y-143720817D01*
X141961051Y-143719983D01*
X141966848Y-143719396D01*
X141975555Y-143719012D01*
X141987795Y-143718790D01*
X142004192Y-143718687D01*
X142025165Y-143718663D01*
X142094003Y-143718663D01*
X142092036Y-143724737D01*
G37*
G36*
X140529377Y-143784053D02*
G01*
X140531265Y-143786316D01*
X140533160Y-143790899D01*
X140535265Y-143798471D01*
X140537779Y-143809700D01*
X140540904Y-143825252D01*
X140542736Y-143834743D01*
X140545101Y-143847302D01*
X140546885Y-143857749D01*
X140548149Y-143867128D01*
X140548952Y-143876486D01*
X140549353Y-143886870D01*
X140549412Y-143899325D01*
X140549188Y-143914898D01*
X140548741Y-143934635D01*
X140548642Y-143938675D01*
X140547093Y-143980675D01*
X140544491Y-144025797D01*
X140540946Y-144073003D01*
X140536570Y-144121255D01*
X140531474Y-144169514D01*
X140525769Y-144216743D01*
X140519566Y-144261902D01*
X140512978Y-144303953D01*
X140506114Y-144341857D01*
X140504686Y-144349006D01*
X140500679Y-144367573D01*
X140495672Y-144389020D01*
X140490005Y-144412031D01*
X140484019Y-144435290D01*
X140478053Y-144457482D01*
X140472447Y-144477291D01*
X140467542Y-144493402D01*
X140466653Y-144496131D01*
X140459066Y-144519077D01*
X140381454Y-144519793D01*
X140361612Y-144519908D01*
X140343644Y-144519879D01*
X140328224Y-144519719D01*
X140316025Y-144519439D01*
X140307722Y-144519051D01*
X140303987Y-144518568D01*
X140303846Y-144518444D01*
X140304811Y-144515297D01*
X140307449Y-144508163D01*
X140311375Y-144498048D01*
X140316205Y-144485958D01*
X140317065Y-144483836D01*
X140329137Y-144452197D01*
X140339852Y-144419850D01*
X140349470Y-144385810D01*
X140358252Y-144349092D01*
X140366459Y-144308714D01*
X140372507Y-144274769D01*
X140380219Y-144225203D01*
X140386796Y-144174763D01*
X140392115Y-144124711D01*
X140396055Y-144076312D01*
X140398491Y-144030829D01*
X140399256Y-143999652D01*
X140399377Y-143983592D01*
X140399277Y-143971818D01*
X140398820Y-143963221D01*
X140397870Y-143956690D01*
X140396291Y-143951113D01*
X140393945Y-143945380D01*
X140392100Y-143941375D01*
X140384091Y-143926688D01*
X140374774Y-143915173D01*
X140362514Y-143904970D01*
X140356379Y-143900814D01*
X140350051Y-143896538D01*
X140345716Y-143892676D01*
X140342574Y-143887913D01*
X140339822Y-143880935D01*
X140336659Y-143870427D01*
X140335611Y-143866744D01*
X140332261Y-143854216D01*
X140330598Y-143845889D01*
X140330498Y-143840879D01*
X140331666Y-143838454D01*
X140334790Y-143837184D01*
X140342414Y-143834706D01*
X140353828Y-143831221D01*
X140368320Y-143826928D01*
X140385178Y-143822028D01*
X140403690Y-143816721D01*
X140423146Y-143811207D01*
X140442834Y-143805686D01*
X140462042Y-143800358D01*
X140480059Y-143795423D01*
X140496173Y-143791081D01*
X140509673Y-143787532D01*
X140519847Y-143784977D01*
X140525984Y-143783615D01*
X140527296Y-143783444D01*
X140529377Y-143784053D01*
G37*
G36*
X140591731Y-143349211D02*
G01*
X140595849Y-143355725D01*
X140601038Y-143365163D01*
X140606833Y-143376538D01*
X140612769Y-143388863D01*
X140618379Y-143401151D01*
X140623199Y-143412414D01*
X140626762Y-143421667D01*
X140628603Y-143427921D01*
X140628540Y-143430086D01*
X140625727Y-143431543D01*
X140618189Y-143435105D01*
X140606135Y-143440680D01*
X140589772Y-143448174D01*
X140569305Y-143457495D01*
X140544944Y-143468549D01*
X140516895Y-143481243D01*
X140485365Y-143495483D01*
X140450561Y-143511178D01*
X140412691Y-143528234D01*
X140371961Y-143546557D01*
X140328579Y-143566055D01*
X140282753Y-143586634D01*
X140234688Y-143608202D01*
X140184594Y-143630665D01*
X140132675Y-143653930D01*
X140079141Y-143677904D01*
X140024198Y-143702494D01*
X139968053Y-143727607D01*
X139910913Y-143753150D01*
X139852986Y-143779030D01*
X139794478Y-143805153D01*
X139735597Y-143831427D01*
X139709943Y-143842869D01*
X139676790Y-143857655D01*
X139644739Y-143871953D01*
X139614175Y-143885590D01*
X139585483Y-143898394D01*
X139559047Y-143910194D01*
X139535254Y-143920817D01*
X139514488Y-143930092D01*
X139497133Y-143937847D01*
X139483577Y-143943909D01*
X139474202Y-143948108D01*
X139469534Y-143950207D01*
X139457542Y-143955504D01*
X139449237Y-143958705D01*
X139443468Y-143960104D01*
X139439080Y-143959993D01*
X139435441Y-143958878D01*
X139428797Y-143953614D01*
X139424715Y-143945305D01*
X139423679Y-143935887D01*
X139426174Y-143927298D01*
X139427166Y-143925816D01*
X139430228Y-143923751D01*
X139437655Y-143919605D01*
X139448942Y-143913635D01*
X139463587Y-143906097D01*
X139481087Y-143897249D01*
X139500940Y-143887346D01*
X139522642Y-143876646D01*
X139541222Y-143867576D01*
X139555196Y-143860744D01*
X139573682Y-143851642D01*
X139596369Y-143840426D01*
X139622945Y-143827251D01*
X139653097Y-143812273D01*
X139686515Y-143795647D01*
X139722887Y-143777529D01*
X139761900Y-143758074D01*
X139803244Y-143737438D01*
X139846607Y-143715776D01*
X139891676Y-143693243D01*
X139938141Y-143669996D01*
X139985689Y-143646189D01*
X140034009Y-143621978D01*
X140082790Y-143597519D01*
X140118211Y-143579747D01*
X140165329Y-143556115D01*
X140211187Y-143533148D01*
X140255548Y-143510962D01*
X140298177Y-143489674D01*
X140338840Y-143469400D01*
X140377300Y-143450257D01*
X140413323Y-143432360D01*
X140446674Y-143415827D01*
X140477116Y-143400774D01*
X140504416Y-143387317D01*
X140528337Y-143375573D01*
X140548645Y-143365658D01*
X140565105Y-143357688D01*
X140577480Y-143351781D01*
X140585536Y-143348052D01*
X140589038Y-143346618D01*
X140589152Y-143346607D01*
X140591731Y-143349211D01*
G37*
G36*
X141573977Y-143562154D02*
G01*
X141846631Y-143562163D01*
X141864799Y-143591458D01*
X141871820Y-143602897D01*
X141877838Y-143612920D01*
X141882250Y-143620508D01*
X141884452Y-143624640D01*
X141884524Y-143624814D01*
X141884112Y-143628080D01*
X141882385Y-143636091D01*
X141879462Y-143648385D01*
X141875459Y-143664500D01*
X141870495Y-143683977D01*
X141864687Y-143706353D01*
X141858152Y-143731167D01*
X141851010Y-143757958D01*
X141843376Y-143786265D01*
X141842953Y-143787824D01*
X141835179Y-143816477D01*
X141827758Y-143843844D01*
X141820821Y-143869434D01*
X141814502Y-143892757D01*
X141808932Y-143913324D01*
X141804246Y-143930642D01*
X141800575Y-143944223D01*
X141798053Y-143953575D01*
X141796813Y-143958209D01*
X141796811Y-143958214D01*
X141795485Y-143962452D01*
X141793526Y-143966240D01*
X141790286Y-143970167D01*
X141785118Y-143974823D01*
X141777373Y-143980798D01*
X141766402Y-143988681D01*
X141753038Y-143998033D01*
X141712276Y-144026411D01*
X141515649Y-144026411D01*
X141319021Y-144026411D01*
X141315009Y-144040583D01*
X141313319Y-144046718D01*
X141310455Y-144057299D01*
X141306625Y-144071554D01*
X141302036Y-144088709D01*
X141296894Y-144107992D01*
X141291407Y-144128628D01*
X141289161Y-144137092D01*
X141283746Y-144157494D01*
X141278730Y-144176355D01*
X141274295Y-144193003D01*
X141270617Y-144206769D01*
X141267877Y-144216981D01*
X141266253Y-144222969D01*
X141265921Y-144224152D01*
X141265132Y-144225588D01*
X141263314Y-144226701D01*
X141259849Y-144227532D01*
X141254121Y-144228122D01*
X141245513Y-144228510D01*
X141233410Y-144228739D01*
X141217193Y-144228847D01*
X141196248Y-144228876D01*
X141194195Y-144228876D01*
X141123874Y-144228876D01*
X141125458Y-144222802D01*
X141126340Y-144219475D01*
X141128526Y-144211250D01*
X141131931Y-144198447D01*
X141136470Y-144181386D01*
X141142058Y-144160385D01*
X141148610Y-144135765D01*
X141156041Y-144107845D01*
X141164266Y-144076945D01*
X141173199Y-144043383D01*
X141182757Y-144007481D01*
X141192853Y-143969557D01*
X141203402Y-143929930D01*
X141207890Y-143913072D01*
X141349007Y-143913072D01*
X141510056Y-143912376D01*
X141671106Y-143911680D01*
X141693414Y-143827994D01*
X141699382Y-143805607D01*
X141705372Y-143783140D01*
X141711115Y-143761596D01*
X141716344Y-143741980D01*
X141720792Y-143725298D01*
X141724189Y-143712554D01*
X141724900Y-143709889D01*
X141734077Y-143675470D01*
X141573041Y-143675485D01*
X141412005Y-143675501D01*
X141390728Y-143755797D01*
X141384814Y-143778111D01*
X141378794Y-143800824D01*
X141372958Y-143822833D01*
X141367601Y-143843034D01*
X141363014Y-143860323D01*
X141359490Y-143873599D01*
X141359229Y-143874582D01*
X141349007Y-143913072D01*
X141207890Y-143913072D01*
X141214183Y-143889437D01*
X141301324Y-143562146D01*
X141573977Y-143562154D01*
G37*
G36*
X140639129Y-143582800D02*
G01*
X140642220Y-143588494D01*
X140646268Y-143598447D01*
X140651435Y-143613038D01*
X140654775Y-143623064D01*
X140659350Y-143637357D01*
X140663164Y-143649931D01*
X140665954Y-143659862D01*
X140667455Y-143666227D01*
X140667606Y-143668044D01*
X140664858Y-143669514D01*
X140657578Y-143672218D01*
X140646438Y-143675940D01*
X140632107Y-143680464D01*
X140615255Y-143685574D01*
X140596552Y-143691055D01*
X140593897Y-143691818D01*
X140536816Y-143708195D01*
X140484569Y-143723181D01*
X140436801Y-143736877D01*
X140393160Y-143749386D01*
X140353289Y-143760807D01*
X140316835Y-143771242D01*
X140283443Y-143780793D01*
X140252759Y-143789561D01*
X140224429Y-143797647D01*
X140198097Y-143805153D01*
X140173410Y-143812179D01*
X140150013Y-143818828D01*
X140127551Y-143825199D01*
X140105671Y-143831396D01*
X140089229Y-143836045D01*
X140058287Y-143844798D01*
X140023635Y-143854614D01*
X139986753Y-143865073D01*
X139949124Y-143875754D01*
X139912228Y-143886237D01*
X139877546Y-143896101D01*
X139846559Y-143904926D01*
X139846270Y-143905009D01*
X139819481Y-143912638D01*
X139792497Y-143920309D01*
X139766136Y-143927791D01*
X139741215Y-143934851D01*
X139718552Y-143941259D01*
X139698965Y-143946783D01*
X139683271Y-143951191D01*
X139676199Y-143953166D01*
X139660236Y-143957612D01*
X139640364Y-143963151D01*
X139617873Y-143969421D01*
X139594054Y-143976064D01*
X139570197Y-143982720D01*
X139549651Y-143988454D01*
X139529741Y-143993952D01*
X139511270Y-143998940D01*
X139494947Y-144003235D01*
X139481478Y-144006656D01*
X139471571Y-144009020D01*
X139465933Y-144010145D01*
X139465168Y-144010213D01*
X139458787Y-144008355D01*
X139452287Y-144003855D01*
X139452014Y-144003587D01*
X139446824Y-143995625D01*
X139445186Y-143986796D01*
X139447134Y-143978816D01*
X139451462Y-143974090D01*
X139455070Y-143972572D01*
X139463346Y-143969544D01*
X139475821Y-143965165D01*
X139492028Y-143959594D01*
X139511499Y-143952989D01*
X139533767Y-143945509D01*
X139558363Y-143937312D01*
X139584821Y-143928558D01*
X139611410Y-143919818D01*
X139631400Y-143913254D01*
X139656110Y-143905120D01*
X139685134Y-143895547D01*
X139718070Y-143884670D01*
X139754513Y-143872622D01*
X139794059Y-143859538D01*
X139836305Y-143845552D01*
X139880847Y-143830796D01*
X139927282Y-143815404D01*
X139975204Y-143799512D01*
X140024211Y-143783251D01*
X140073898Y-143766756D01*
X140123863Y-143750161D01*
X140173700Y-143733600D01*
X140198988Y-143725193D01*
X140245777Y-143709643D01*
X140291207Y-143694561D01*
X140335012Y-143680034D01*
X140376925Y-143666150D01*
X140416679Y-143652997D01*
X140454007Y-143640662D01*
X140488642Y-143629234D01*
X140520317Y-143618800D01*
X140548766Y-143609449D01*
X140573722Y-143601269D01*
X140594917Y-143594346D01*
X140612085Y-143588769D01*
X140624960Y-143584627D01*
X140633273Y-143582006D01*
X140636759Y-143580995D01*
X140636834Y-143580986D01*
X140639129Y-143582800D01*
G37*
G36*
X139726482Y-143514013D02*
G01*
X139765407Y-143514052D01*
X139801668Y-143514115D01*
X139834971Y-143514202D01*
X139865024Y-143514312D01*
X139891535Y-143514443D01*
X139914209Y-143514595D01*
X139932754Y-143514767D01*
X139946878Y-143514958D01*
X139956287Y-143515167D01*
X139960688Y-143515392D01*
X139960992Y-143515472D01*
X139958619Y-143516911D01*
X139951702Y-143520589D01*
X139940539Y-143526355D01*
X139925427Y-143534060D01*
X139906664Y-143543553D01*
X139884550Y-143554687D01*
X139859382Y-143567310D01*
X139831457Y-143581274D01*
X139801075Y-143596428D01*
X139768532Y-143612624D01*
X139734128Y-143629711D01*
X139698160Y-143647541D01*
X139674583Y-143659209D01*
X139629716Y-143681417D01*
X139589465Y-143701374D01*
X139553596Y-143719202D01*
X139521875Y-143735019D01*
X139494065Y-143748947D01*
X139469934Y-143761106D01*
X139449246Y-143771616D01*
X139431766Y-143780597D01*
X139417261Y-143788169D01*
X139405496Y-143794454D01*
X139396236Y-143799570D01*
X139389246Y-143803638D01*
X139384292Y-143806779D01*
X139381140Y-143809113D01*
X139379944Y-143810256D01*
X139374460Y-143817685D01*
X139368305Y-143827780D01*
X139363329Y-143837315D01*
X139359282Y-143846406D01*
X139356794Y-143854070D01*
X139355495Y-143862213D01*
X139355018Y-143872744D01*
X139354973Y-143880635D01*
X139355159Y-143893365D01*
X139355951Y-143902642D01*
X139357735Y-143910407D01*
X139360897Y-143918601D01*
X139363759Y-143924834D01*
X139369652Y-143936272D01*
X139376391Y-143947839D01*
X139382008Y-143956304D01*
X139390696Y-143971843D01*
X139396845Y-143990159D01*
X139404618Y-144012908D01*
X139415439Y-144031493D01*
X139429707Y-144046298D01*
X139447825Y-144057705D01*
X139470193Y-144066099D01*
X139478531Y-144068262D01*
X139494783Y-144071377D01*
X139507587Y-144071979D01*
X139518313Y-144069992D01*
X139527993Y-144065539D01*
X139534792Y-144062038D01*
X139539465Y-144060534D01*
X139540608Y-144060815D01*
X139540844Y-144064545D01*
X139540338Y-144072602D01*
X139539215Y-144083984D01*
X139537599Y-144097689D01*
X139535614Y-144112714D01*
X139533386Y-144128058D01*
X139531039Y-144142718D01*
X139529027Y-144153979D01*
X139521945Y-144185811D01*
X139513150Y-144214645D01*
X139502035Y-144241904D01*
X139487992Y-144269011D01*
X139470414Y-144297390D01*
X139463333Y-144307857D01*
X139443540Y-144337490D01*
X139427257Y-144364051D01*
X139414174Y-144388281D01*
X139403981Y-144410923D01*
X139396367Y-144432720D01*
X139391023Y-144454413D01*
X139387638Y-144476746D01*
X139386333Y-144492082D01*
X139384648Y-144519077D01*
X139196324Y-144519770D01*
X139007999Y-144520464D01*
X139008705Y-144071646D01*
X139009412Y-143622829D01*
X139016540Y-143607626D01*
X139023409Y-143596095D01*
X139033641Y-143582820D01*
X139046091Y-143569027D01*
X139059613Y-143555943D01*
X139073062Y-143544796D01*
X139079300Y-143540398D01*
X139090356Y-143534048D01*
X139103797Y-143527604D01*
X139116804Y-143522413D01*
X139117393Y-143522210D01*
X139138990Y-143514847D01*
X139549995Y-143514122D01*
X139596649Y-143514053D01*
X139641810Y-143514012D01*
X139685185Y-143513999D01*
X139726482Y-143514013D01*
G37*
G36*
X144210000Y-143718665D02*
G01*
X144245168Y-143718677D01*
X144275611Y-143718706D01*
X144301668Y-143718761D01*
X144323674Y-143718849D01*
X144341968Y-143718979D01*
X144356887Y-143719157D01*
X144368768Y-143719393D01*
X144377949Y-143719693D01*
X144384766Y-143720066D01*
X144389557Y-143720520D01*
X144392660Y-143721062D01*
X144394411Y-143721701D01*
X144395148Y-143722444D01*
X144395209Y-143723299D01*
X144395043Y-143723927D01*
X144393849Y-143728097D01*
X144391621Y-143736244D01*
X144388611Y-143747412D01*
X144385071Y-143760646D01*
X144381257Y-143774990D01*
X144377419Y-143789488D01*
X144373813Y-143803184D01*
X144370691Y-143815123D01*
X144368306Y-143824348D01*
X144366911Y-143829904D01*
X144366655Y-143831085D01*
X144364034Y-143831260D01*
X144356490Y-143831425D01*
X144344497Y-143831576D01*
X144328531Y-143831711D01*
X144309067Y-143831827D01*
X144286580Y-143831921D01*
X144261545Y-143831991D01*
X144234437Y-143832032D01*
X144210524Y-143832043D01*
X144054393Y-143832043D01*
X144023888Y-143946099D01*
X144017170Y-143971217D01*
X144010611Y-143995733D01*
X144004403Y-144018937D01*
X143998736Y-144040114D01*
X143993801Y-144058551D01*
X143989789Y-144073537D01*
X143986890Y-144084358D01*
X143985960Y-144087825D01*
X143978537Y-144115495D01*
X144134393Y-144115495D01*
X144290248Y-144115495D01*
X144276166Y-144167962D01*
X144271783Y-144184206D01*
X144267792Y-144198833D01*
X144264432Y-144210977D01*
X144261944Y-144219775D01*
X144260566Y-144224362D01*
X144260463Y-144224653D01*
X144259762Y-144225412D01*
X144258053Y-144226075D01*
X144255002Y-144226649D01*
X144250269Y-144227141D01*
X144243519Y-144227555D01*
X144234415Y-144227899D01*
X144222619Y-144228179D01*
X144207795Y-144228402D01*
X144189605Y-144228573D01*
X144167713Y-144228698D01*
X144141782Y-144228785D01*
X144111474Y-144228840D01*
X144076454Y-144228868D01*
X144036383Y-144228876D01*
X144034855Y-144228876D01*
X144000566Y-144228852D01*
X143967847Y-144228783D01*
X143937099Y-144228673D01*
X143908722Y-144228524D01*
X143883115Y-144228340D01*
X143860677Y-144228126D01*
X143841809Y-144227885D01*
X143826911Y-144227619D01*
X143816381Y-144227334D01*
X143810620Y-144227032D01*
X143809621Y-144226852D01*
X143810127Y-144224012D01*
X143811942Y-144216317D01*
X143814974Y-144204129D01*
X143819127Y-144187805D01*
X143824310Y-144167705D01*
X143830428Y-144144189D01*
X143837387Y-144117616D01*
X143845094Y-144088346D01*
X143853455Y-144056738D01*
X143862376Y-144023152D01*
X143871765Y-143987947D01*
X143875556Y-143973769D01*
X143885117Y-143938022D01*
X143894272Y-143903753D01*
X143902926Y-143871322D01*
X143910985Y-143841089D01*
X143918351Y-143813412D01*
X143924930Y-143788653D01*
X143930627Y-143767171D01*
X143935345Y-143749324D01*
X143938989Y-143735473D01*
X143941463Y-143725977D01*
X143942673Y-143721196D01*
X143942781Y-143720687D01*
X143945422Y-143720380D01*
X143953068Y-143720086D01*
X143965324Y-143719811D01*
X143981796Y-143719556D01*
X144002090Y-143719326D01*
X144025812Y-143719125D01*
X144052568Y-143718955D01*
X144081962Y-143718821D01*
X144113601Y-143718726D01*
X144147091Y-143718673D01*
X144169770Y-143718663D01*
X144210000Y-143718665D01*
G37*
G36*
X138805596Y-144336831D02*
G01*
X138805596Y-144550114D01*
X139764609Y-144550793D01*
X140723621Y-144551472D01*
X140724357Y-144600738D01*
X140725093Y-144650005D01*
X139553430Y-144650005D01*
X138381768Y-144650005D01*
X138381768Y-144625709D01*
X138381768Y-144601413D01*
X138352073Y-144601413D01*
X138322378Y-144601413D01*
X138322378Y-144594664D01*
X138322378Y-144587915D01*
X139487231Y-144587915D01*
X139596202Y-144587909D01*
X139699846Y-144587890D01*
X139798158Y-144587859D01*
X139891135Y-144587815D01*
X139978774Y-144587759D01*
X140061070Y-144587691D01*
X140138020Y-144587609D01*
X140209621Y-144587516D01*
X140275869Y-144587410D01*
X140336760Y-144587291D01*
X140392291Y-144587160D01*
X140442458Y-144587017D01*
X140487257Y-144586861D01*
X140526686Y-144586693D01*
X140560740Y-144586513D01*
X140589416Y-144586320D01*
X140612710Y-144586114D01*
X140630619Y-144585897D01*
X140643138Y-144585667D01*
X140650266Y-144585424D01*
X140652083Y-144585216D01*
X140649385Y-144584963D01*
X140641290Y-144584723D01*
X140627804Y-144584495D01*
X140608929Y-144584280D01*
X140584670Y-144584077D01*
X140555029Y-144583886D01*
X140520011Y-144583708D01*
X140479619Y-144583542D01*
X140433857Y-144583388D01*
X140382728Y-144583247D01*
X140326236Y-144583118D01*
X140264384Y-144583002D01*
X140197176Y-144582898D01*
X140124616Y-144582807D01*
X140046707Y-144582728D01*
X139963452Y-144582662D01*
X139874856Y-144582608D01*
X139780922Y-144582566D01*
X139681654Y-144582537D01*
X139577055Y-144582521D01*
X139487231Y-144582516D01*
X138322378Y-144582516D01*
X138322378Y-144517727D01*
X138322378Y-144452938D01*
X138561287Y-144452938D01*
X138603032Y-144452930D01*
X138639698Y-144452903D01*
X138671606Y-144452850D01*
X138699076Y-144452767D01*
X138722428Y-144452647D01*
X138741983Y-144452487D01*
X138758061Y-144452279D01*
X138770983Y-144452019D01*
X138781069Y-144451702D01*
X138788640Y-144451322D01*
X138794015Y-144450873D01*
X138797516Y-144450350D01*
X138799462Y-144449747D01*
X138800174Y-144449060D01*
X138800197Y-144448889D01*
X138799724Y-144448181D01*
X138798090Y-144447560D01*
X138794976Y-144447019D01*
X138790061Y-144446554D01*
X138783024Y-144446158D01*
X138773546Y-144445826D01*
X138761305Y-144445554D01*
X138745982Y-144445335D01*
X138727256Y-144445164D01*
X138704806Y-144445036D01*
X138678313Y-144444944D01*
X138647456Y-144444885D01*
X138611914Y-144444852D01*
X138571367Y-144444840D01*
X138561287Y-144444840D01*
X138322378Y-144444840D01*
X138322378Y-144424593D01*
X138322378Y-144404347D01*
X138561287Y-144404347D01*
X138603032Y-144404339D01*
X138639698Y-144404311D01*
X138671606Y-144404258D01*
X138699076Y-144404175D01*
X138722428Y-144404056D01*
X138741983Y-144403895D01*
X138758061Y-144403687D01*
X138770983Y-144403428D01*
X138781069Y-144403110D01*
X138788640Y-144402730D01*
X138794015Y-144402281D01*
X138797516Y-144401758D01*
X138799462Y-144401155D01*
X138800174Y-144400468D01*
X138800197Y-144400297D01*
X138799724Y-144399590D01*
X138798090Y-144398968D01*
X138794976Y-144398427D01*
X138790061Y-144397962D01*
X138783024Y-144397566D01*
X138773546Y-144397235D01*
X138761305Y-144396962D01*
X138745982Y-144396743D01*
X138727256Y-144396572D01*
X138704806Y-144396444D01*
X138678313Y-144396353D01*
X138647456Y-144396293D01*
X138611914Y-144396260D01*
X138571367Y-144396248D01*
X138561287Y-144396248D01*
X138322378Y-144396248D01*
X138322378Y-144330109D01*
X138322378Y-144263970D01*
X138416816Y-144263970D01*
X138511255Y-144263970D01*
X138511975Y-144194457D01*
X138512696Y-144124944D01*
X138659146Y-144124246D01*
X138805596Y-144123548D01*
X138805596Y-144336831D01*
G37*
G36*
X143795471Y-143746548D02*
G01*
X143802327Y-143757617D01*
X143807932Y-143767268D01*
X143811719Y-143774480D01*
X143813119Y-143778230D01*
X143813118Y-143778268D01*
X143812408Y-143781611D01*
X143810432Y-143789612D01*
X143807335Y-143801716D01*
X143803260Y-143817369D01*
X143798353Y-143836016D01*
X143792759Y-143857104D01*
X143786623Y-143880078D01*
X143782608Y-143895030D01*
X143752228Y-144007958D01*
X143717274Y-144030007D01*
X143682320Y-144052056D01*
X143539414Y-144053406D01*
X143396508Y-144054756D01*
X143390395Y-144079052D01*
X143387508Y-144090522D01*
X143384977Y-144100579D01*
X143383195Y-144107656D01*
X143382750Y-144109421D01*
X143381219Y-144115495D01*
X143563489Y-144115495D01*
X143600688Y-144115514D01*
X143632806Y-144115575D01*
X143660160Y-144115684D01*
X143683069Y-144115847D01*
X143701851Y-144116069D01*
X143716823Y-144116357D01*
X143728303Y-144116716D01*
X143736610Y-144117153D01*
X143742060Y-144117672D01*
X143744973Y-144118281D01*
X143745690Y-144118870D01*
X143744994Y-144122408D01*
X143743093Y-144130311D01*
X143740200Y-144141737D01*
X143736531Y-144155842D01*
X143732299Y-144171783D01*
X143731466Y-144174885D01*
X143717312Y-144227527D01*
X143464281Y-144228215D01*
X143422554Y-144228303D01*
X143383830Y-144228332D01*
X143348360Y-144228304D01*
X143316393Y-144228221D01*
X143288180Y-144228085D01*
X143263971Y-144227897D01*
X143244014Y-144227660D01*
X143228561Y-144227374D01*
X143217861Y-144227043D01*
X143212164Y-144226667D01*
X143211250Y-144226427D01*
X143211928Y-144223625D01*
X143213884Y-144216043D01*
X143217002Y-144204118D01*
X143221166Y-144188286D01*
X143226259Y-144168983D01*
X143232167Y-144146645D01*
X143238771Y-144121710D01*
X143245958Y-144094613D01*
X143253609Y-144065791D01*
X143261609Y-144035679D01*
X143269843Y-144004715D01*
X143278193Y-143973334D01*
X143286544Y-143941974D01*
X143287963Y-143936651D01*
X143429932Y-143936651D01*
X143431032Y-143937546D01*
X143434619Y-143938279D01*
X143441103Y-143938864D01*
X143450896Y-143939313D01*
X143464410Y-143939641D01*
X143482056Y-143939860D01*
X143504245Y-143939983D01*
X143531389Y-143940025D01*
X143533742Y-143940025D01*
X143637570Y-143940025D01*
X143640264Y-143929902D01*
X143641910Y-143923743D01*
X143644635Y-143913576D01*
X143648117Y-143900608D01*
X143652030Y-143886043D01*
X143653847Y-143879285D01*
X143657607Y-143865100D01*
X143660807Y-143852636D01*
X143663203Y-143842878D01*
X143664550Y-143836812D01*
X143664755Y-143835418D01*
X143663654Y-143834522D01*
X143660068Y-143833789D01*
X143653584Y-143833205D01*
X143643790Y-143832755D01*
X143630277Y-143832428D01*
X143612631Y-143832209D01*
X143590442Y-143832085D01*
X143563298Y-143832044D01*
X143560945Y-143832043D01*
X143457117Y-143832043D01*
X143454423Y-143842167D01*
X143452777Y-143848326D01*
X143450051Y-143858493D01*
X143446570Y-143871461D01*
X143442657Y-143886025D01*
X143440840Y-143892783D01*
X143437080Y-143906969D01*
X143433879Y-143919433D01*
X143431483Y-143929191D01*
X143430136Y-143935257D01*
X143429932Y-143936651D01*
X143287963Y-143936651D01*
X143294780Y-143911069D01*
X143302784Y-143881057D01*
X143310441Y-143852374D01*
X143317633Y-143825456D01*
X143324246Y-143800739D01*
X143330163Y-143778660D01*
X143335267Y-143759655D01*
X143339443Y-143744161D01*
X143342575Y-143732613D01*
X143344546Y-143725449D01*
X143345139Y-143723387D01*
X143345640Y-143722527D01*
X143346812Y-143721778D01*
X143349004Y-143721132D01*
X143352566Y-143720582D01*
X143357846Y-143720120D01*
X143365194Y-143719738D01*
X143374958Y-143719429D01*
X143387489Y-143719185D01*
X143403136Y-143718998D01*
X143422247Y-143718862D01*
X143445171Y-143718768D01*
X143472259Y-143718709D01*
X143503858Y-143718677D01*
X143540320Y-143718664D01*
X143562143Y-143718663D01*
X143777695Y-143718663D01*
X143795471Y-143746548D01*
G37*
G36*
X144770391Y-143562499D02*
G01*
X144779112Y-143562746D01*
X144784799Y-143563210D01*
X144788045Y-143563926D01*
X144789441Y-143564928D01*
X144789578Y-143566252D01*
X144789447Y-143566768D01*
X144787936Y-143572119D01*
X144785394Y-143581449D01*
X144782036Y-143593951D01*
X144778073Y-143608819D01*
X144773718Y-143625246D01*
X144769183Y-143642423D01*
X144764681Y-143659545D01*
X144760424Y-143675805D01*
X144756625Y-143690394D01*
X144753496Y-143702506D01*
X144751249Y-143711334D01*
X144750098Y-143716072D01*
X144749991Y-143716638D01*
X144752570Y-143717192D01*
X144759823Y-143717688D01*
X144771029Y-143718105D01*
X144785462Y-143718420D01*
X144802400Y-143718612D01*
X144817319Y-143718663D01*
X144835821Y-143718740D01*
X144852472Y-143718959D01*
X144866530Y-143719298D01*
X144877256Y-143719733D01*
X144883909Y-143720244D01*
X144885800Y-143720687D01*
X144885499Y-143723823D01*
X144883960Y-143731297D01*
X144881387Y-143742245D01*
X144877980Y-143755802D01*
X144874254Y-143769954D01*
X144870043Y-143785653D01*
X144866210Y-143799999D01*
X144863021Y-143811993D01*
X144860742Y-143820634D01*
X144859713Y-143824620D01*
X144857869Y-143832043D01*
X144787732Y-143832043D01*
X144768910Y-143832100D01*
X144751996Y-143832260D01*
X144737701Y-143832507D01*
X144726732Y-143832826D01*
X144719799Y-143833201D01*
X144717595Y-143833583D01*
X144716916Y-143836412D01*
X144714967Y-143843964D01*
X144711877Y-143855749D01*
X144707775Y-143871276D01*
X144702793Y-143890056D01*
X144697061Y-143911596D01*
X144690707Y-143935407D01*
X144683862Y-143960999D01*
X144681151Y-143971119D01*
X144674147Y-143997310D01*
X144667585Y-144021948D01*
X144661596Y-144044539D01*
X144656310Y-144064586D01*
X144651857Y-144081590D01*
X144648369Y-144095057D01*
X144645974Y-144104489D01*
X144644804Y-144109389D01*
X144644708Y-144109956D01*
X144647256Y-144110958D01*
X144654943Y-144111741D01*
X144667831Y-144112306D01*
X144685980Y-144112656D01*
X144709453Y-144112793D01*
X144713546Y-144112796D01*
X144732184Y-144112872D01*
X144748905Y-144113085D01*
X144762995Y-144113416D01*
X144773737Y-144113842D01*
X144780416Y-144114342D01*
X144782365Y-144114821D01*
X144781668Y-144117923D01*
X144779735Y-144125418D01*
X144776781Y-144136501D01*
X144773021Y-144150366D01*
X144768670Y-144166204D01*
X144767517Y-144170372D01*
X144763061Y-144186510D01*
X144759141Y-144200809D01*
X144755971Y-144212479D01*
X144753765Y-144220730D01*
X144752737Y-144224774D01*
X144752689Y-144225038D01*
X144750092Y-144225362D01*
X144742710Y-144225631D01*
X144731155Y-144225847D01*
X144716042Y-144226011D01*
X144697984Y-144226126D01*
X144677593Y-144226193D01*
X144655485Y-144226215D01*
X144632271Y-144226193D01*
X144608566Y-144226129D01*
X144584982Y-144226025D01*
X144562134Y-144225883D01*
X144540634Y-144225706D01*
X144521096Y-144225495D01*
X144504134Y-144225251D01*
X144490360Y-144224978D01*
X144480388Y-144224677D01*
X144474832Y-144224349D01*
X144473876Y-144224152D01*
X144474382Y-144221277D01*
X144476190Y-144213606D01*
X144479191Y-144201554D01*
X144483276Y-144185537D01*
X144488339Y-144165970D01*
X144494270Y-144143270D01*
X144500963Y-144117851D01*
X144508308Y-144090129D01*
X144516198Y-144060519D01*
X144523526Y-144033159D01*
X144531864Y-144002098D01*
X144539815Y-143972463D01*
X144547267Y-143944683D01*
X144554104Y-143919186D01*
X144560211Y-143896398D01*
X144565475Y-143876748D01*
X144569780Y-143860663D01*
X144573012Y-143848571D01*
X144575056Y-143840899D01*
X144575776Y-143838166D01*
X144577297Y-143832141D01*
X144514332Y-143831418D01*
X144451367Y-143830694D01*
X144465125Y-143779402D01*
X144469472Y-143763303D01*
X144473443Y-143748787D01*
X144476793Y-143736743D01*
X144479274Y-143728056D01*
X144480640Y-143723613D01*
X144480705Y-143723437D01*
X144481724Y-143721935D01*
X144483900Y-143720773D01*
X144487887Y-143719898D01*
X144494339Y-143719254D01*
X144503911Y-143718787D01*
X144517257Y-143718441D01*
X144535032Y-143718164D01*
X144545395Y-143718038D01*
X144608264Y-143717313D01*
X144628814Y-143640376D01*
X144649364Y-143563439D01*
X144720120Y-143562719D01*
X144741487Y-143562520D01*
X144758047Y-143562436D01*
X144770391Y-143562499D01*
G37*
G36*
X146384426Y-143562729D02*
G01*
X146477622Y-143563439D01*
X146263945Y-143713264D01*
X146233479Y-143734631D01*
X146204198Y-143755178D01*
X146176413Y-143774685D01*
X146150436Y-143792933D01*
X146126580Y-143809703D01*
X146105154Y-143824776D01*
X146086471Y-143837932D01*
X146070842Y-143848952D01*
X146058579Y-143857617D01*
X146049993Y-143863708D01*
X146045397Y-143867005D01*
X146044753Y-143867487D01*
X146043818Y-143868385D01*
X146043288Y-143869564D01*
X146043358Y-143871314D01*
X146044221Y-143873928D01*
X146046073Y-143877697D01*
X146049108Y-143882912D01*
X146053520Y-143889864D01*
X146059505Y-143898846D01*
X146067256Y-143910148D01*
X146076968Y-143924062D01*
X146088835Y-143940879D01*
X146103053Y-143960891D01*
X146119815Y-143984389D01*
X146139316Y-144011665D01*
X146161751Y-144043010D01*
X146163997Y-144046147D01*
X146183556Y-144073491D01*
X146202214Y-144099622D01*
X146219730Y-144124200D01*
X146235862Y-144146884D01*
X146250371Y-144167336D01*
X146263015Y-144185213D01*
X146273554Y-144200177D01*
X146281746Y-144211887D01*
X146287351Y-144220003D01*
X146290127Y-144224185D01*
X146290382Y-144224643D01*
X146290393Y-144225845D01*
X146289042Y-144226799D01*
X146285790Y-144227531D01*
X146280099Y-144228071D01*
X146271432Y-144228447D01*
X146259250Y-144228687D01*
X146243014Y-144228819D01*
X146222188Y-144228871D01*
X146209852Y-144228876D01*
X146186653Y-144228868D01*
X146168250Y-144228817D01*
X146154041Y-144228680D01*
X146143422Y-144228416D01*
X146135792Y-144227983D01*
X146130547Y-144227339D01*
X146127085Y-144226443D01*
X146124802Y-144225252D01*
X146123097Y-144223725D01*
X146122255Y-144222802D01*
X146119678Y-144219493D01*
X146114277Y-144212218D01*
X146106362Y-144201406D01*
X146096243Y-144187487D01*
X146084233Y-144170890D01*
X146070641Y-144152044D01*
X146055780Y-144131379D01*
X146039959Y-144109323D01*
X146032278Y-144098595D01*
X146016285Y-144076314D01*
X146001222Y-144055461D01*
X145987381Y-144036432D01*
X145975055Y-144019621D01*
X145964535Y-144005424D01*
X145956112Y-143994235D01*
X145950079Y-143986450D01*
X145946728Y-143982464D01*
X145946141Y-143982025D01*
X145945137Y-143984872D01*
X145942889Y-143992417D01*
X145939542Y-144004141D01*
X145935240Y-144019523D01*
X145930126Y-144038045D01*
X145924346Y-144059187D01*
X145918043Y-144082428D01*
X145911817Y-144105557D01*
X145879097Y-144227527D01*
X145810097Y-144228247D01*
X145791356Y-144228364D01*
X145774456Y-144228320D01*
X145760129Y-144228130D01*
X145749107Y-144227806D01*
X145742120Y-144227364D01*
X145739895Y-144226897D01*
X145740430Y-144224079D01*
X145742288Y-144216364D01*
X145745385Y-144204065D01*
X145749638Y-144187499D01*
X145754964Y-144166979D01*
X145761281Y-144142822D01*
X145768506Y-144115341D01*
X145776556Y-144084853D01*
X145785348Y-144051672D01*
X145794800Y-144016113D01*
X145804828Y-143978491D01*
X145815349Y-143939122D01*
X145825957Y-143899532D01*
X145836916Y-143858675D01*
X145847503Y-143819204D01*
X145857630Y-143781440D01*
X145867212Y-143745702D01*
X145876164Y-143712312D01*
X145884399Y-143681589D01*
X145891831Y-143653855D01*
X145898375Y-143629428D01*
X145903945Y-143608630D01*
X145908455Y-143591781D01*
X145911819Y-143579202D01*
X145913951Y-143571212D01*
X145914758Y-143568163D01*
X145916295Y-143562089D01*
X145986432Y-143562089D01*
X146005254Y-143562144D01*
X146022168Y-143562299D01*
X146036463Y-143562539D01*
X146047432Y-143562848D01*
X146054365Y-143563212D01*
X146056569Y-143563583D01*
X146055899Y-143566467D01*
X146054021Y-143573826D01*
X146051130Y-143584923D01*
X146047425Y-143599020D01*
X146043101Y-143615379D01*
X146038355Y-143633263D01*
X146033383Y-143651933D01*
X146028382Y-143670651D01*
X146023549Y-143688682D01*
X146019080Y-143705285D01*
X146015171Y-143719725D01*
X146012020Y-143731262D01*
X146009823Y-143739159D01*
X146009289Y-143741019D01*
X146007628Y-143747994D01*
X146007442Y-143751946D01*
X146008159Y-143752294D01*
X146010810Y-143750537D01*
X146017550Y-143746026D01*
X146027993Y-143739023D01*
X146041750Y-143729789D01*
X146058432Y-143718585D01*
X146077651Y-143705671D01*
X146099017Y-143691309D01*
X146122144Y-143675759D01*
X146146641Y-143659283D01*
X146151015Y-143656340D01*
X146291229Y-143562019D01*
X146384426Y-143562729D01*
G37*
G36*
X140249869Y-143867174D02*
G01*
X140255003Y-143869228D01*
X140258962Y-143872223D01*
X140265252Y-143881486D01*
X140269012Y-143894434D01*
X140270007Y-143909862D01*
X140268773Y-143922478D01*
X140267344Y-143931321D01*
X140266362Y-143937875D01*
X140266064Y-143940394D01*
X140268461Y-143941755D01*
X140274576Y-143943293D01*
X140278808Y-143944025D01*
X140292955Y-143947576D01*
X140305660Y-143953368D01*
X140314987Y-143960512D01*
X140315213Y-143960758D01*
X140322714Y-143972795D01*
X140326997Y-143988099D01*
X140327863Y-144005461D01*
X140325432Y-144022361D01*
X140324450Y-144028862D01*
X140323476Y-144039499D01*
X140322601Y-144053011D01*
X140321915Y-144068137D01*
X140321695Y-144075002D01*
X140320331Y-144102966D01*
X140317768Y-144134910D01*
X140314172Y-144169590D01*
X140309707Y-144205762D01*
X140304541Y-144242184D01*
X140298838Y-144277610D01*
X140292764Y-144310798D01*
X140286486Y-144340503D01*
X140286081Y-144342257D01*
X140279167Y-144368681D01*
X140270319Y-144397365D01*
X140260165Y-144426532D01*
X140249334Y-144454404D01*
X140238454Y-144479204D01*
X140235495Y-144485333D01*
X140218807Y-144519077D01*
X140153343Y-144519800D01*
X140135188Y-144519908D01*
X140118967Y-144519828D01*
X140105413Y-144519578D01*
X140095260Y-144519176D01*
X140089241Y-144518640D01*
X140087879Y-144518180D01*
X140089345Y-144514777D01*
X140093068Y-144508791D01*
X140095498Y-144505310D01*
X140117529Y-144471285D01*
X140137765Y-144432809D01*
X140155934Y-144390612D01*
X140171765Y-144345422D01*
X140184987Y-144297969D01*
X140195327Y-144248981D01*
X140198774Y-144227937D01*
X140201099Y-144211703D01*
X140202485Y-144200075D01*
X140202977Y-144192351D01*
X140202618Y-144187828D01*
X140201454Y-144185804D01*
X140201420Y-144185783D01*
X140197718Y-144184718D01*
X140190249Y-144183340D01*
X140180344Y-144181820D01*
X140169333Y-144180329D01*
X140158545Y-144179038D01*
X140149311Y-144178119D01*
X140142960Y-144177744D01*
X140140826Y-144177973D01*
X140140143Y-144180841D01*
X140138766Y-144188038D01*
X140136878Y-144198565D01*
X140134661Y-144211425D01*
X140133994Y-144215379D01*
X140122893Y-144270873D01*
X140108904Y-144321992D01*
X140091914Y-144368991D01*
X140071811Y-144412126D01*
X140048483Y-144451651D01*
X140021818Y-144487821D01*
X140006683Y-144505295D01*
X139992853Y-144520427D01*
X139908088Y-144520427D01*
X139887314Y-144520360D01*
X139868385Y-144520170D01*
X139851945Y-144519873D01*
X139838640Y-144519487D01*
X139829115Y-144519028D01*
X139824014Y-144518512D01*
X139823324Y-144518232D01*
X139825123Y-144515181D01*
X139829638Y-144510148D01*
X139831725Y-144508109D01*
X139840025Y-144499521D01*
X139850434Y-144487627D01*
X139862030Y-144473586D01*
X139873891Y-144458561D01*
X139885094Y-144443712D01*
X139894716Y-144430200D01*
X139900040Y-144422124D01*
X139925808Y-144376026D01*
X139946821Y-144327462D01*
X139963015Y-144276641D01*
X139974326Y-144223771D01*
X139980688Y-144169063D01*
X139981268Y-144159681D01*
X139981719Y-144145169D01*
X139981648Y-144129423D01*
X139981125Y-144113462D01*
X139980218Y-144098307D01*
X139978996Y-144084977D01*
X139977526Y-144074493D01*
X139975878Y-144067875D01*
X139975005Y-144066330D01*
X139971050Y-144065277D01*
X139962423Y-144064908D01*
X139949807Y-144065236D01*
X139942397Y-144065655D01*
X139912409Y-144067598D01*
X139912409Y-144119754D01*
X139911713Y-144156827D01*
X139909551Y-144189697D01*
X139905813Y-144219387D01*
X139900388Y-144246921D01*
X139897463Y-144258530D01*
X139882472Y-144304102D01*
X139862569Y-144348041D01*
X139838168Y-144389493D01*
X139825463Y-144407603D01*
X139814927Y-144420846D01*
X139801370Y-144436431D01*
X139785894Y-144453211D01*
X139769598Y-144470039D01*
X139753583Y-144485767D01*
X139738950Y-144499249D01*
X139731239Y-144505824D01*
X139713391Y-144520427D01*
X139586138Y-144520427D01*
X139458885Y-144520427D01*
X139458885Y-144499262D01*
X139459952Y-144479595D01*
X139463352Y-144460397D01*
X139469387Y-144440948D01*
X139478356Y-144420529D01*
X139479480Y-144418492D01*
X139561822Y-144418492D01*
X139575758Y-144446513D01*
X139581477Y-144457550D01*
X139586572Y-144466539D01*
X139590467Y-144472519D01*
X139592519Y-144474535D01*
X139596014Y-144473271D01*
X139602906Y-144469901D01*
X139611935Y-144465053D01*
X139615674Y-144462949D01*
X139650636Y-144439969D01*
X139682373Y-144412898D01*
X139710634Y-144382149D01*
X139735170Y-144348134D01*
X139755731Y-144311269D01*
X139772065Y-144271965D01*
X139783923Y-144230638D01*
X139791055Y-144187699D01*
X139792501Y-144170629D01*
X139792822Y-144159668D01*
X139792648Y-144146871D01*
X139792065Y-144133443D01*
X139791156Y-144120588D01*
X139790008Y-144109510D01*
X139788706Y-144101414D01*
X139787335Y-144097504D01*
X139787326Y-144097494D01*
X139784445Y-144097510D01*
X139777339Y-144098271D01*
X139767110Y-144099642D01*
X139756080Y-144101297D01*
X139725783Y-144106047D01*
X139724967Y-144145190D01*
X139722327Y-144184524D01*
X139715932Y-144220648D01*
X139705486Y-144254496D01*
X139690697Y-144287001D01*
X139671270Y-144319096D01*
X139669249Y-144322047D01*
X139656982Y-144337810D01*
X139641348Y-144354918D01*
X139623692Y-144372078D01*
X139605361Y-144388000D01*
X139587699Y-144401393D01*
X139583835Y-144404005D01*
X139561822Y-144418492D01*
X139479480Y-144418492D01*
X139490559Y-144398418D01*
X139506298Y-144373896D01*
X139518416Y-144356532D01*
X139528668Y-144341761D01*
X139538980Y-144326119D01*
X139548393Y-144311114D01*
X139555947Y-144298254D01*
X139558434Y-144293665D01*
X139572654Y-144263146D01*
X139584682Y-144230124D01*
X139594652Y-144194041D01*
X139602704Y-144154340D01*
X139608973Y-144110461D01*
X139612756Y-144072482D01*
X139613916Y-144059606D01*
X139615056Y-144048803D01*
X139616051Y-144041147D01*
X139616776Y-144037710D01*
X139616821Y-144037646D01*
X139619568Y-144036737D01*
X139627107Y-144034513D01*
X139639025Y-144031090D01*
X139654908Y-144026583D01*
X139674344Y-144021109D01*
X139696919Y-144014785D01*
X139722220Y-144007726D01*
X139749833Y-144000048D01*
X139779344Y-143991868D01*
X139806419Y-143984384D01*
X139851875Y-143971835D01*
X139892474Y-143960625D01*
X139928564Y-143950658D01*
X139960492Y-143941836D01*
X139988606Y-143934063D01*
X140013255Y-143927242D01*
X140034784Y-143921274D01*
X140053543Y-143916065D01*
X140069878Y-143911516D01*
X140084137Y-143907531D01*
X140096668Y-143904012D01*
X140107819Y-143900863D01*
X140117937Y-143897987D01*
X140127370Y-143895286D01*
X140136466Y-143892664D01*
X140145571Y-143890024D01*
X140155034Y-143887268D01*
X140165203Y-143884300D01*
X140166166Y-143884019D01*
X140189412Y-143877358D01*
X140208141Y-143872340D01*
X140222951Y-143868889D01*
X140234442Y-143866929D01*
X140243215Y-143866382D01*
X140249869Y-143867174D01*
G37*
G36*
X139739957Y-144655387D02*
G01*
X139825373Y-144655391D01*
X139905838Y-144655399D01*
X139981500Y-144655411D01*
X140052507Y-144655429D01*
X140119010Y-144655452D01*
X140181158Y-144655482D01*
X140239098Y-144655518D01*
X140292981Y-144655561D01*
X140342956Y-144655612D01*
X140389170Y-144655671D01*
X140431775Y-144655740D01*
X140470918Y-144655817D01*
X140506748Y-144655904D01*
X140539415Y-144656002D01*
X140569068Y-144656110D01*
X140595855Y-144656230D01*
X140619927Y-144656362D01*
X140641431Y-144656507D01*
X140660517Y-144656664D01*
X140677334Y-144656835D01*
X140692031Y-144657020D01*
X140704757Y-144657220D01*
X140715661Y-144657435D01*
X140724892Y-144657665D01*
X140732599Y-144657912D01*
X140738932Y-144658176D01*
X140744039Y-144658456D01*
X140748069Y-144658755D01*
X140751171Y-144659072D01*
X140753495Y-144659407D01*
X140754743Y-144659655D01*
X140771595Y-144665075D01*
X140783978Y-144672836D01*
X140792465Y-144683338D01*
X140794593Y-144687673D01*
X140796771Y-144695819D01*
X140798451Y-144708173D01*
X140799615Y-144723564D01*
X140800240Y-144740822D01*
X140800308Y-144758777D01*
X140799799Y-144776257D01*
X140798691Y-144792093D01*
X140796965Y-144805115D01*
X140796644Y-144806792D01*
X140788980Y-144833918D01*
X140777775Y-144857014D01*
X140763066Y-144876040D01*
X140744889Y-144890956D01*
X140723282Y-144901721D01*
X140705595Y-144906885D01*
X140698090Y-144907863D01*
X140685294Y-144908680D01*
X140667310Y-144909334D01*
X140644244Y-144909821D01*
X140616200Y-144910138D01*
X140587901Y-144910273D01*
X140484575Y-144910511D01*
X140481853Y-144921309D01*
X140469585Y-144959233D01*
X140452571Y-144994619D01*
X140430908Y-145027296D01*
X140405289Y-145056500D01*
X140376070Y-145082211D01*
X140344752Y-145102957D01*
X140311196Y-145118805D01*
X140275266Y-145129819D01*
X140239053Y-145135841D01*
X140227477Y-145136973D01*
X140217678Y-145137782D01*
X140211075Y-145138157D01*
X140209358Y-145138143D01*
X140203978Y-145137631D01*
X140196407Y-145136910D01*
X140195861Y-145136858D01*
X140154522Y-145130637D01*
X140115985Y-145120182D01*
X140080479Y-145105610D01*
X140048232Y-145087038D01*
X140019474Y-145064585D01*
X139994432Y-145038367D01*
X139987846Y-145030008D01*
X139966779Y-144997580D01*
X139949889Y-144961787D01*
X139937236Y-144922756D01*
X139936693Y-144920634D01*
X139933797Y-144909161D01*
X139559320Y-144909161D01*
X139184843Y-144909161D01*
X139178602Y-144931432D01*
X139165707Y-144967754D01*
X139148297Y-145001415D01*
X139126718Y-145032100D01*
X139101321Y-145059492D01*
X139072451Y-145083275D01*
X139040458Y-145103133D01*
X139005690Y-145118751D01*
X138968494Y-145129811D01*
X138957776Y-145132032D01*
X138936606Y-145134714D01*
X138912371Y-145135663D01*
X138887057Y-145134947D01*
X138862648Y-145132632D01*
X138841126Y-145128785D01*
X138837991Y-145128007D01*
X138802884Y-145116177D01*
X138768970Y-145099416D01*
X138737046Y-145078177D01*
X138710186Y-145055140D01*
X138688147Y-145031396D01*
X138670023Y-145006230D01*
X138655324Y-144978732D01*
X138643562Y-144947994D01*
X138634558Y-144914495D01*
X138633028Y-144907681D01*
X138602557Y-144909915D01*
X138586663Y-144910776D01*
X138567826Y-144911301D01*
X138546932Y-144911512D01*
X138524865Y-144911430D01*
X138502510Y-144911076D01*
X138480753Y-144910473D01*
X138460477Y-144909641D01*
X138442569Y-144908601D01*
X138427913Y-144907377D01*
X138417394Y-144905987D01*
X138414396Y-144905354D01*
X138392378Y-144897755D01*
X138373520Y-144886693D01*
X138356463Y-144871495D01*
X138346350Y-144860029D01*
X138342865Y-144855068D01*
X138792577Y-144855068D01*
X138793506Y-144876722D01*
X138798718Y-144898211D01*
X138808463Y-144918962D01*
X138822993Y-144938405D01*
X138823976Y-144939467D01*
X138842129Y-144955795D01*
X138861668Y-144967155D01*
X138883249Y-144973814D01*
X138907530Y-144976040D01*
X138913578Y-144975953D01*
X138926880Y-144975285D01*
X138936827Y-144973994D01*
X138945458Y-144971645D01*
X138954813Y-144967802D01*
X138957468Y-144966573D01*
X138978728Y-144953897D01*
X138996231Y-144937972D01*
X139009847Y-144919455D01*
X139019445Y-144899001D01*
X139024894Y-144877266D01*
X139025232Y-144870816D01*
X140093581Y-144870816D01*
X140097605Y-144893163D01*
X140106411Y-144915158D01*
X140112122Y-144924949D01*
X140127298Y-144944279D01*
X140144910Y-144958919D01*
X140165192Y-144968984D01*
X140188374Y-144974592D01*
X140213654Y-144975888D01*
X140226649Y-144975412D01*
X140236109Y-144974484D01*
X140243900Y-144972686D01*
X140251886Y-144969598D01*
X140261140Y-144965190D01*
X140282376Y-144951938D01*
X140299636Y-144935064D01*
X140313139Y-144914344D01*
X140315365Y-144909811D01*
X140322667Y-144888152D01*
X140325521Y-144864688D01*
X140323844Y-144840791D01*
X140320382Y-144825993D01*
X140310872Y-144803572D01*
X140297150Y-144784100D01*
X140279799Y-144768036D01*
X140259398Y-144755840D01*
X140236529Y-144747975D01*
X140218513Y-144745224D01*
X140194241Y-144745821D01*
X140171802Y-144751049D01*
X140151523Y-144760355D01*
X140133733Y-144773184D01*
X140118759Y-144788985D01*
X140106929Y-144807201D01*
X140098571Y-144827281D01*
X140094013Y-144848671D01*
X140093581Y-144870816D01*
X139025232Y-144870816D01*
X139026065Y-144854907D01*
X139022827Y-144832580D01*
X139015048Y-144810940D01*
X139002600Y-144790645D01*
X138994376Y-144780986D01*
X138975903Y-144764589D01*
X138956005Y-144753229D01*
X138934020Y-144746624D01*
X138909323Y-144744489D01*
X138884993Y-144746884D01*
X138862944Y-144753687D01*
X138843427Y-144764327D01*
X138826692Y-144778232D01*
X138812990Y-144794831D01*
X138802569Y-144813551D01*
X138795682Y-144833820D01*
X138792577Y-144855068D01*
X138342865Y-144855068D01*
X138338387Y-144848692D01*
X138332336Y-144836643D01*
X138327961Y-144823037D01*
X138325024Y-144807033D01*
X138323288Y-144787786D01*
X138322517Y-144764455D01*
X138322418Y-144750455D01*
X138322462Y-144732504D01*
X138322678Y-144719056D01*
X138323146Y-144709218D01*
X138323943Y-144702095D01*
X138325146Y-144696792D01*
X138326834Y-144692414D01*
X138327618Y-144690810D01*
X138336050Y-144678788D01*
X138347784Y-144667881D01*
X138360775Y-144659957D01*
X138361915Y-144659463D01*
X138363144Y-144659135D01*
X138365315Y-144658825D01*
X138368573Y-144658533D01*
X138373064Y-144658258D01*
X138378935Y-144657999D01*
X138386329Y-144657755D01*
X138395393Y-144657528D01*
X138406272Y-144657315D01*
X138419112Y-144657117D01*
X138434057Y-144656932D01*
X138451255Y-144656761D01*
X138470849Y-144656603D01*
X138492986Y-144656457D01*
X138517811Y-144656323D01*
X138545469Y-144656201D01*
X138576107Y-144656090D01*
X138609869Y-144655989D01*
X138646901Y-144655898D01*
X138687348Y-144655816D01*
X138731357Y-144655743D01*
X138779071Y-144655679D01*
X138830638Y-144655623D01*
X138886202Y-144655574D01*
X138945910Y-144655532D01*
X139009905Y-144655497D01*
X139078334Y-144655467D01*
X139151343Y-144655443D01*
X139229077Y-144655424D01*
X139311681Y-144655410D01*
X139399301Y-144655399D01*
X139492082Y-144655392D01*
X139553672Y-144655389D01*
X139649439Y-144655386D01*
X139739957Y-144655387D01*
G37*
G36*
X139465376Y-142771117D02*
G01*
X139515483Y-142771122D01*
X139534473Y-142771123D01*
X139586448Y-142771120D01*
X139633309Y-142771119D01*
X139675343Y-142771132D01*
X139712833Y-142771168D01*
X139746066Y-142771240D01*
X139775326Y-142771359D01*
X139800900Y-142771535D01*
X139823072Y-142771781D01*
X139842128Y-142772107D01*
X139858353Y-142772524D01*
X139872033Y-142773045D01*
X139883453Y-142773679D01*
X139892898Y-142774438D01*
X139900654Y-142775333D01*
X139907006Y-142776376D01*
X139912239Y-142777577D01*
X139916640Y-142778949D01*
X139920492Y-142780501D01*
X139924083Y-142782246D01*
X139927696Y-142784194D01*
X139931617Y-142786357D01*
X139932313Y-142786734D01*
X139941181Y-142792346D01*
X139951654Y-142800152D01*
X139961538Y-142808511D01*
X139961980Y-142808917D01*
X139979576Y-142827636D01*
X139992691Y-142847576D01*
X140001732Y-142869636D01*
X140007102Y-142894712D01*
X140008792Y-142912612D01*
X140010340Y-142939844D01*
X140051134Y-142939844D01*
X140067182Y-142939912D01*
X140078884Y-142940196D01*
X140087291Y-142940816D01*
X140093457Y-142941895D01*
X140098432Y-142943552D01*
X140103111Y-142945825D01*
X140115506Y-142954639D01*
X140126228Y-142966298D01*
X140133876Y-142979115D01*
X140136190Y-142985740D01*
X140137001Y-142991780D01*
X140137686Y-143002431D01*
X140138244Y-143016909D01*
X140138676Y-143034426D01*
X140138980Y-143054198D01*
X140139157Y-143075438D01*
X140139206Y-143097361D01*
X140139126Y-143119180D01*
X140138919Y-143140110D01*
X140138582Y-143159365D01*
X140138117Y-143176160D01*
X140137522Y-143189708D01*
X140136797Y-143199223D01*
X140136276Y-143202780D01*
X140129986Y-143219628D01*
X140119155Y-143234220D01*
X140104865Y-143245387D01*
X140099722Y-143248295D01*
X140095107Y-143250348D01*
X140089960Y-143251694D01*
X140083222Y-143252483D01*
X140073833Y-143252862D01*
X140060734Y-143252982D01*
X140050759Y-143252991D01*
X140009590Y-143252991D01*
X140009538Y-143274588D01*
X140008208Y-143303035D01*
X140004149Y-143327534D01*
X139997033Y-143348973D01*
X139986531Y-143368238D01*
X139972315Y-143386219D01*
X139965702Y-143393066D01*
X139955659Y-143402333D01*
X139945186Y-143410943D01*
X139935946Y-143417569D01*
X139932453Y-143419646D01*
X139928402Y-143421837D01*
X139924716Y-143423813D01*
X139921109Y-143425585D01*
X139917296Y-143427163D01*
X139912993Y-143428558D01*
X139907913Y-143429782D01*
X139901772Y-143430845D01*
X139894285Y-143431758D01*
X139885167Y-143432533D01*
X139874132Y-143433179D01*
X139860894Y-143433709D01*
X139845170Y-143434133D01*
X139826674Y-143434462D01*
X139805120Y-143434707D01*
X139780224Y-143434879D01*
X139751700Y-143434988D01*
X139719263Y-143435047D01*
X139682628Y-143435065D01*
X139641510Y-143435054D01*
X139595623Y-143435025D01*
X139544683Y-143434989D01*
X139533231Y-143434981D01*
X139478923Y-143434934D01*
X139429800Y-143434864D01*
X139385644Y-143434769D01*
X139346242Y-143434649D01*
X139311378Y-143434499D01*
X139280837Y-143434319D01*
X139254403Y-143434107D01*
X139231861Y-143433859D01*
X139212996Y-143433575D01*
X139197592Y-143433252D01*
X139185435Y-143432888D01*
X139176308Y-143432481D01*
X139169998Y-143432029D01*
X139166287Y-143431529D01*
X139165985Y-143431461D01*
X139146317Y-143424440D01*
X139126417Y-143413385D01*
X139107709Y-143399358D01*
X139091621Y-143383420D01*
X139080079Y-143367506D01*
X139072640Y-143353425D01*
X139067272Y-143339723D01*
X139063623Y-143324969D01*
X139061338Y-143307731D01*
X139060063Y-143286575D01*
X139060058Y-143286423D01*
X139058684Y-143249666D01*
X139047546Y-143252242D01*
X139040267Y-143253204D01*
X139029233Y-143253802D01*
X139016078Y-143253978D01*
X139005327Y-143253780D01*
X138990482Y-143253093D01*
X138979638Y-143252035D01*
X138971398Y-143250377D01*
X138964365Y-143247889D01*
X138961522Y-143246583D01*
X138947160Y-143237203D01*
X138937220Y-143225269D01*
X138932763Y-143214400D01*
X138931855Y-143208173D01*
X138931012Y-143197353D01*
X138930244Y-143182747D01*
X138929566Y-143165163D01*
X138928989Y-143145406D01*
X138928527Y-143124284D01*
X138928192Y-143102603D01*
X138927997Y-143081169D01*
X138927992Y-143078761D01*
X139237327Y-143078761D01*
X139237455Y-143096998D01*
X139237821Y-143114023D01*
X139238428Y-143128892D01*
X139239281Y-143140662D01*
X139240383Y-143148388D01*
X139240656Y-143149441D01*
X139246818Y-143162216D01*
X139256862Y-143174477D01*
X139269369Y-143184670D01*
X139276516Y-143188707D01*
X139284221Y-143192003D01*
X139291363Y-143193850D01*
X139299843Y-143194536D01*
X139311563Y-143194348D01*
X139313299Y-143194280D01*
X139325936Y-143193473D01*
X139335053Y-143191988D01*
X139342525Y-143189390D01*
X139348976Y-143185984D01*
X139363969Y-143174324D01*
X139374651Y-143159418D01*
X139379477Y-143147402D01*
X139380692Y-143140495D01*
X139381693Y-143129236D01*
X139382473Y-143114668D01*
X139383022Y-143097833D01*
X139383332Y-143079775D01*
X139383354Y-143073472D01*
X139686997Y-143073472D01*
X139687061Y-143096447D01*
X139687339Y-143114753D01*
X139687960Y-143129121D01*
X139689050Y-143140278D01*
X139690739Y-143148956D01*
X139693154Y-143155883D01*
X139696423Y-143161790D01*
X139700675Y-143167406D01*
X139704195Y-143171432D01*
X139718146Y-143183061D01*
X139735057Y-143190992D01*
X139753700Y-143194938D01*
X139772850Y-143194612D01*
X139787933Y-143191007D01*
X139804345Y-143182733D01*
X139817413Y-143170467D01*
X139824913Y-143159194D01*
X139832772Y-143145010D01*
X139833629Y-143080292D01*
X139833852Y-143057031D01*
X139833772Y-143038425D01*
X139833288Y-143023734D01*
X139832302Y-143012219D01*
X139830712Y-143003138D01*
X139828420Y-142995753D01*
X139825326Y-142989323D01*
X139821330Y-142983108D01*
X139820351Y-142981739D01*
X139808767Y-142969400D01*
X139794491Y-142961046D01*
X139776869Y-142956360D01*
X139765403Y-142955226D01*
X139745194Y-142955895D01*
X139728283Y-142960408D01*
X139713917Y-142969037D01*
X139705654Y-142976909D01*
X139700176Y-142983158D01*
X139695890Y-142988853D01*
X139692650Y-142994751D01*
X139690310Y-143001609D01*
X139688725Y-143010182D01*
X139687746Y-143021228D01*
X139687230Y-143035501D01*
X139687029Y-143053759D01*
X139686997Y-143073472D01*
X139383354Y-143073472D01*
X139383396Y-143061536D01*
X139383203Y-143044160D01*
X139382747Y-143028689D01*
X139382018Y-143016166D01*
X139381009Y-143007635D01*
X139380617Y-143005890D01*
X139374260Y-142990781D01*
X139364493Y-142976881D01*
X139352687Y-142966032D01*
X139349337Y-142963871D01*
X139334621Y-142957864D01*
X139317337Y-142954888D01*
X139299456Y-142955048D01*
X139282948Y-142958448D01*
X139278585Y-142960104D01*
X139265039Y-142968129D01*
X139252794Y-142979360D01*
X139243564Y-142992112D01*
X139241310Y-142996746D01*
X139240100Y-143002434D01*
X139239103Y-143012572D01*
X139238324Y-143026218D01*
X139237765Y-143042427D01*
X139237431Y-143060256D01*
X139237327Y-143078761D01*
X138927992Y-143078761D01*
X138927954Y-143060790D01*
X138928076Y-143042271D01*
X138928376Y-143026420D01*
X138928866Y-143014044D01*
X138929495Y-143006425D01*
X138933580Y-142985613D01*
X138940201Y-142968824D01*
X138949728Y-142955803D01*
X138962526Y-142946295D01*
X138978965Y-142940042D01*
X138999410Y-142936789D01*
X139024231Y-142936281D01*
X139029963Y-142936496D01*
X139058613Y-142937810D01*
X139060120Y-142910482D01*
X139063338Y-142883210D01*
X139070010Y-142859481D01*
X139080520Y-142838397D01*
X139095252Y-142819060D01*
X139102411Y-142811616D01*
X139112493Y-142802768D01*
X139124029Y-142794180D01*
X139133883Y-142788079D01*
X139138290Y-142785690D01*
X139142257Y-142783536D01*
X139146070Y-142781604D01*
X139150016Y-142779884D01*
X139154382Y-142778362D01*
X139159455Y-142777026D01*
X139165522Y-142775865D01*
X139172869Y-142774867D01*
X139181785Y-142774018D01*
X139192554Y-142773307D01*
X139205466Y-142772723D01*
X139220806Y-142772251D01*
X139238861Y-142771882D01*
X139259918Y-142771602D01*
X139284265Y-142771399D01*
X139312187Y-142771261D01*
X139343973Y-142771176D01*
X139379908Y-142771132D01*
X139420280Y-142771116D01*
X139465376Y-142771117D01*
G37*
D13*
%TO.C,C1*%
X141990000Y-98740000D02*
X141990000Y-99940000D01*
X141990000Y-103260000D02*
X141990000Y-102060000D01*
X145445563Y-98740000D02*
X141990000Y-98740000D01*
X145445563Y-103260000D02*
X141990000Y-103260000D01*
X146510000Y-99804437D02*
X145445563Y-98740000D01*
X146510000Y-99804437D02*
X146510000Y-99940000D01*
X146510000Y-102195563D02*
X145445563Y-103260000D01*
X146510000Y-102195563D02*
X146510000Y-102060000D01*
X147000000Y-102810000D02*
X147000000Y-102310000D01*
X147250000Y-102560000D02*
X146750000Y-102560000D01*
%TO.C,C10*%
X148490000Y-103340580D02*
X148490000Y-103059420D01*
X149510000Y-103340580D02*
X149510000Y-103059420D01*
%TO.C,R8*%
X151077500Y-108262742D02*
X151077500Y-108737258D01*
X152122500Y-108262742D02*
X152122500Y-108737258D01*
%TO.C,C18*%
X147611252Y-122640000D02*
X146188748Y-122640000D01*
X147611252Y-125360000D02*
X146188748Y-125360000D01*
%TO.C,R20*%
X155359420Y-103990000D02*
X155640580Y-103990000D01*
X155359420Y-105010000D02*
X155640580Y-105010000D01*
D15*
%TO.C,Q1*%
X163823201Y-101078200D02*
X164001361Y-101078200D01*
X163823201Y-102196760D02*
X163823201Y-101078200D01*
X163823201Y-104481800D02*
X163823201Y-103432240D01*
X164001362Y-104481800D02*
X163823201Y-104481800D01*
X167048641Y-101078200D02*
X167226801Y-101078200D01*
X167226801Y-101078200D02*
X167226801Y-102196760D01*
X167226801Y-103432240D02*
X167226801Y-104481800D01*
X167226801Y-104481800D02*
X167048640Y-104481800D01*
D13*
%TO.C,D1*%
X159765000Y-108515000D02*
X159765000Y-110800000D01*
X161235000Y-108515000D02*
X159765000Y-108515000D01*
X161235000Y-110800000D02*
X161235000Y-108515000D01*
%TO.C,R4*%
X152077500Y-103762742D02*
X152077500Y-104237258D01*
X153122500Y-103762742D02*
X153122500Y-104237258D01*
%TO.C,C2*%
X148490000Y-100011252D02*
X148490000Y-98588748D01*
X150310000Y-100011252D02*
X150310000Y-98588748D01*
%TO.C,J2*%
X152880000Y-143880000D02*
X163620000Y-143880000D01*
X152880000Y-147500000D02*
X154120000Y-147500000D01*
X152880000Y-148500000D02*
X154120000Y-148500000D01*
X152880000Y-149800000D02*
X154120000Y-149800000D01*
X152880000Y-151920000D02*
X152880000Y-143880000D01*
X155700000Y-151920000D02*
X152880000Y-151920000D01*
X157880000Y-147500000D02*
X159188000Y-147500000D01*
X157880000Y-148500000D02*
X159188000Y-148500000D01*
X157880000Y-149800000D02*
X160457000Y-149800000D01*
X161543000Y-149800000D02*
X163620000Y-149800000D01*
X162812000Y-147500000D02*
X163620000Y-147500000D01*
X162812000Y-148500000D02*
X163620000Y-148500000D01*
X163620000Y-143880000D02*
X163620000Y-151920000D01*
X163620000Y-151920000D02*
X156300000Y-151920000D01*
X156440000Y-152530000D02*
X155560000Y-152530000D01*
X156000000Y-151920000D01*
X156440000Y-152530000D01*
G36*
X156440000Y-152530000D02*
G01*
X155560000Y-152530000D01*
X156000000Y-151920000D01*
X156440000Y-152530000D01*
G37*
D16*
%TO.C,U1*%
X159400000Y-103800000D02*
X160050001Y-103800000D01*
X159400000Y-104049999D02*
X159400000Y-103800000D01*
X159400000Y-108700000D02*
X159400000Y-108450001D01*
X159400000Y-108700000D02*
X159650002Y-108700000D01*
X163050000Y-103800000D02*
X163300002Y-103800000D01*
X163050000Y-108700000D02*
X163300002Y-108700000D01*
X163300002Y-104049999D02*
X163300002Y-103800000D01*
X163300002Y-108700000D02*
X163300002Y-108450001D01*
%TO.C,Q2*%
X166060400Y-107390500D02*
X166060400Y-113590500D01*
X171260400Y-107390500D02*
X171260400Y-113590500D01*
D17*
X170792400Y-106275000D02*
G75*
G02*
X170542400Y-106275000I-125000J0D01*
G01*
X170542400Y-106275000D02*
G75*
G02*
X170792400Y-106275000I125000J0D01*
G01*
D13*
%TO.C,R5*%
X157437258Y-109227500D02*
X156962742Y-109227500D01*
X157437258Y-110272500D02*
X156962742Y-110272500D01*
%TO.C,R1*%
X159646359Y-112820000D02*
X159953641Y-112820000D01*
X159646359Y-113580000D02*
X159953641Y-113580000D01*
%TO.C,C9*%
X161290000Y-100011252D02*
X161290000Y-98588748D01*
X163110000Y-100011252D02*
X163110000Y-98588748D01*
%TO.C,C19*%
X147586252Y-129840000D02*
X146163748Y-129840000D01*
X147586252Y-132560000D02*
X146163748Y-132560000D01*
%TO.C,R9*%
X152827500Y-108262742D02*
X152827500Y-108737258D01*
X153872500Y-108262742D02*
X153872500Y-108737258D01*
%TO.C,C22*%
X147686252Y-137890000D02*
X146263748Y-137890000D01*
X147686252Y-140610000D02*
X146263748Y-140610000D01*
%TO.C,C17*%
X152940580Y-105715000D02*
X152659420Y-105715000D01*
X152940580Y-106735000D02*
X152659420Y-106735000D01*
%TO.C,C16*%
X147611252Y-119140000D02*
X146188748Y-119140000D01*
X147611252Y-121860000D02*
X146188748Y-121860000D01*
%TO.C,C8*%
X155359420Y-102490000D02*
X155640580Y-102490000D01*
X155359420Y-103510000D02*
X155640580Y-103510000D01*
%TO.C,R7*%
X154677500Y-107237258D02*
X154677500Y-106762742D01*
X155722500Y-107237258D02*
X155722500Y-106762742D01*
%TO.C,C20*%
X147586252Y-126240000D02*
X146163748Y-126240000D01*
X147586252Y-128960000D02*
X146163748Y-128960000D01*
%TO.C,C4*%
X153590000Y-100011252D02*
X153590000Y-98588748D01*
X155410000Y-100011252D02*
X155410000Y-98588748D01*
%TO.C,R3*%
X160277500Y-103437258D02*
X160277500Y-102962742D01*
X161322500Y-103437258D02*
X161322500Y-102962742D01*
%TO.C,C6*%
X156190000Y-100011252D02*
X156190000Y-98588748D01*
X158010000Y-100011252D02*
X158010000Y-98588748D01*
%TO.C,C14*%
X157940580Y-106090000D02*
X157659420Y-106090000D01*
X157940580Y-107110000D02*
X157659420Y-107110000D01*
%TO.C,C15*%
X147611252Y-115640000D02*
X146188748Y-115640000D01*
X147611252Y-118360000D02*
X146188748Y-118360000D01*
%TO.C,R2*%
X157277500Y-104312258D02*
X157277500Y-103837742D01*
X158322500Y-104312258D02*
X158322500Y-103837742D01*
%TD*%
M02*
