%TF.GenerationSoftware,KiCad,Pcbnew,9.0.6*%
%TF.CreationDate,2026-02-08T21:35:38+01:00*%
%TF.ProjectId,Boost converter,426f6f73-7420-4636-9f6e-766572746572,B*%
%TF.SameCoordinates,Original*%
%TF.FileFunction,Paste,Top*%
%TF.FilePolarity,Positive*%
%FSLAX46Y46*%
G04 Gerber Fmt 4.6, Leading zero omitted, Abs format (unit mm)*
G04 Created by KiCad (PCBNEW 9.0.6) date 2026-02-08 21:35:38*
%MOMM*%
%LPD*%
G01*
G04 APERTURE LIST*
G04 Aperture macros list*
%AMRoundRect*
0 Rectangle with rounded corners*
0 $1 Rounding radius*
0 $2 $3 $4 $5 $6 $7 $8 $9 X,Y pos of 4 corners*
0 Add a 4 corners polygon primitive as box body*
4,1,4,$2,$3,$4,$5,$6,$7,$8,$9,$2,$3,0*
0 Add four circle primitives for the rounded corners*
1,1,$1+$1,$2,$3*
1,1,$1+$1,$4,$5*
1,1,$1+$1,$6,$7*
1,1,$1+$1,$8,$9*
0 Add four rect primitives between the rounded corners*
20,1,$1+$1,$2,$3,$4,$5,0*
20,1,$1+$1,$4,$5,$6,$7,0*
20,1,$1+$1,$6,$7,$8,$9,0*
20,1,$1+$1,$8,$9,$2,$3,0*%
G04 Aperture macros list end*
%ADD10C,0.000000*%
%ADD11RoundRect,0.200000X0.200000X0.275000X-0.200000X0.275000X-0.200000X-0.275000X0.200000X-0.275000X0*%
%ADD12RoundRect,0.250000X0.475000X-0.250000X0.475000X0.250000X-0.475000X0.250000X-0.475000X-0.250000X0*%
%ADD13RoundRect,0.250000X-0.475000X0.250000X-0.475000X-0.250000X0.475000X-0.250000X0.475000X0.250000X0*%
%ADD14RoundRect,0.200000X-0.200000X-0.275000X0.200000X-0.275000X0.200000X0.275000X-0.200000X0.275000X0*%
%ADD15RoundRect,0.250000X-0.362500X-1.425000X0.362500X-1.425000X0.362500X1.425000X-0.362500X1.425000X0*%
%ADD16RoundRect,0.225000X-0.225000X-0.250000X0.225000X-0.250000X0.225000X0.250000X-0.225000X0.250000X0*%
%ADD17RoundRect,0.225000X0.225000X0.250000X-0.225000X0.250000X-0.225000X-0.250000X0.225000X-0.250000X0*%
%ADD18RoundRect,0.200000X-0.275000X0.200000X-0.275000X-0.200000X0.275000X-0.200000X0.275000X0.200000X0*%
%ADD19RoundRect,0.200000X0.275000X-0.200000X0.275000X0.200000X-0.275000X0.200000X-0.275000X-0.200000X0*%
%ADD20R,1.422400X0.355600*%
%ADD21R,0.509999X0.860001*%
%ADD22RoundRect,0.250000X0.250000X0.475000X-0.250000X0.475000X-0.250000X-0.475000X0.250000X-0.475000X0*%
%ADD23R,0.860001X0.509999*%
%ADD24RoundRect,0.250000X-0.650000X1.000000X-0.650000X-1.000000X0.650000X-1.000000X0.650000X1.000000X0*%
%ADD25RoundRect,0.250000X-0.250000X-0.475000X0.250000X-0.475000X0.250000X0.475000X-0.250000X0.475000X0*%
%ADD26R,5.334000X5.588000*%
%ADD27R,6.350000X5.283200*%
G04 APERTURE END LIST*
D10*
%TO.C,U1*%
G36*
X166744800Y-143876500D02*
G01*
X165446200Y-143876500D01*
X165446200Y-142679500D01*
X166744800Y-142679500D01*
X166744800Y-143876500D01*
G37*
G36*
X166744800Y-145273500D02*
G01*
X165446200Y-145273500D01*
X165446200Y-144076500D01*
X166744800Y-144076500D01*
X166744800Y-145273500D01*
G37*
G36*
X166744800Y-146670500D02*
G01*
X165446200Y-146670500D01*
X165446200Y-145473500D01*
X166744800Y-145473500D01*
X166744800Y-146670500D01*
G37*
G36*
X168243400Y-143876500D02*
G01*
X166944800Y-143876500D01*
X166944800Y-142679500D01*
X168243400Y-142679500D01*
X168243400Y-143876500D01*
G37*
G36*
X168243400Y-145273500D02*
G01*
X166944800Y-145273500D01*
X166944800Y-144076500D01*
X168243400Y-144076500D01*
X168243400Y-145273500D01*
G37*
G36*
X168243400Y-146670500D02*
G01*
X166944800Y-146670500D01*
X166944800Y-145473500D01*
X168243400Y-145473500D01*
X168243400Y-146670500D01*
G37*
%TO.C,Q1*%
G36*
X175624111Y-140510977D02*
G01*
X175633642Y-140513868D01*
X175642422Y-140518562D01*
X175650121Y-140524879D01*
X175656438Y-140532577D01*
X175661135Y-140541361D01*
X175664025Y-140550891D01*
X175665000Y-140560799D01*
X175665000Y-141939199D01*
X175664025Y-141949110D01*
X175661135Y-141958640D01*
X175656438Y-141967423D01*
X175650121Y-141975122D01*
X175642422Y-141981439D01*
X175633642Y-141986133D01*
X175624111Y-141989024D01*
X175614200Y-141989999D01*
X174445800Y-141989999D01*
X174435889Y-141989024D01*
X174426359Y-141986133D01*
X174417578Y-141981439D01*
X174409880Y-141975122D01*
X174403563Y-141967423D01*
X174398866Y-141958640D01*
X174395976Y-141949110D01*
X174395000Y-141939199D01*
X174395000Y-140560799D01*
X174395976Y-140550891D01*
X174398866Y-140541361D01*
X174403563Y-140532577D01*
X174409880Y-140524879D01*
X174417578Y-140518562D01*
X174426359Y-140513868D01*
X174435889Y-140510977D01*
X174445800Y-140509999D01*
X175614200Y-140509999D01*
X175624111Y-140510977D01*
G37*
G36*
X175624111Y-142190976D02*
G01*
X175633642Y-142193867D01*
X175642422Y-142198561D01*
X175650121Y-142204878D01*
X175656438Y-142212577D01*
X175661135Y-142221360D01*
X175664025Y-142230890D01*
X175665000Y-142240801D01*
X175665000Y-143619201D01*
X175664025Y-143629109D01*
X175661135Y-143638639D01*
X175656438Y-143647423D01*
X175650121Y-143655121D01*
X175642422Y-143661438D01*
X175633642Y-143666132D01*
X175624111Y-143669023D01*
X175614200Y-143670001D01*
X174445800Y-143670001D01*
X174435889Y-143669023D01*
X174426359Y-143666132D01*
X174417578Y-143661438D01*
X174409880Y-143655121D01*
X174403563Y-143647423D01*
X174398866Y-143638639D01*
X174395976Y-143629109D01*
X174395000Y-143619201D01*
X174395000Y-142240801D01*
X174395976Y-142230890D01*
X174398866Y-142221360D01*
X174403563Y-142212577D01*
X174409880Y-142204878D01*
X174417578Y-142198561D01*
X174426359Y-142193867D01*
X174435889Y-142190976D01*
X174445800Y-142190001D01*
X175614200Y-142190001D01*
X175624111Y-142190976D01*
G37*
G36*
X177094111Y-140510977D02*
G01*
X177103641Y-140513868D01*
X177112422Y-140518562D01*
X177120121Y-140524879D01*
X177126438Y-140532577D01*
X177131134Y-140541361D01*
X177134025Y-140550891D01*
X177135000Y-140560799D01*
X177135000Y-141939199D01*
X177134025Y-141949110D01*
X177131134Y-141958640D01*
X177126438Y-141967423D01*
X177120121Y-141975122D01*
X177112422Y-141981439D01*
X177103641Y-141986133D01*
X177094111Y-141989024D01*
X177084200Y-141989999D01*
X175915800Y-141989999D01*
X175905889Y-141989024D01*
X175896359Y-141986133D01*
X175887578Y-141981439D01*
X175879879Y-141975122D01*
X175873562Y-141967423D01*
X175868866Y-141958640D01*
X175865975Y-141949110D01*
X175865000Y-141939199D01*
X175865000Y-140560799D01*
X175865975Y-140550891D01*
X175868866Y-140541361D01*
X175873562Y-140532577D01*
X175879879Y-140524879D01*
X175887578Y-140518562D01*
X175896359Y-140513868D01*
X175905889Y-140510977D01*
X175915800Y-140509999D01*
X177084200Y-140509999D01*
X177094111Y-140510977D01*
G37*
G36*
X177094111Y-142190976D02*
G01*
X177103641Y-142193867D01*
X177112422Y-142198561D01*
X177120121Y-142204878D01*
X177126438Y-142212577D01*
X177131134Y-142221360D01*
X177134025Y-142230890D01*
X177135000Y-142240801D01*
X177135000Y-143619201D01*
X177134025Y-143629109D01*
X177131134Y-143638639D01*
X177126438Y-143647423D01*
X177120121Y-143655121D01*
X177112422Y-143661438D01*
X177103641Y-143666132D01*
X177094111Y-143669023D01*
X177084200Y-143670001D01*
X175915800Y-143670001D01*
X175905889Y-143669023D01*
X175896359Y-143666132D01*
X175887578Y-143661438D01*
X175879879Y-143655121D01*
X175873562Y-143647423D01*
X175868866Y-143638639D01*
X175865975Y-143629109D01*
X175865000Y-143619201D01*
X175865000Y-142240801D01*
X175865975Y-142230890D01*
X175868866Y-142221360D01*
X175873562Y-142212577D01*
X175879879Y-142204878D01*
X175887578Y-142198561D01*
X175896359Y-142193867D01*
X175905889Y-142190976D01*
X175915800Y-142190001D01*
X177084200Y-142190001D01*
X177094111Y-142190976D01*
G37*
G36*
X178564111Y-140510977D02*
G01*
X178573641Y-140513868D01*
X178582422Y-140518562D01*
X178590120Y-140524879D01*
X178596437Y-140532577D01*
X178601134Y-140541361D01*
X178604024Y-140550891D01*
X178605000Y-140560799D01*
X178605000Y-141939199D01*
X178604024Y-141949110D01*
X178601134Y-141958640D01*
X178596437Y-141967423D01*
X178590120Y-141975122D01*
X178582422Y-141981439D01*
X178573641Y-141986133D01*
X178564111Y-141989024D01*
X178554200Y-141989999D01*
X177385800Y-141989999D01*
X177375889Y-141989024D01*
X177366358Y-141986133D01*
X177357578Y-141981439D01*
X177349879Y-141975122D01*
X177343562Y-141967423D01*
X177338865Y-141958640D01*
X177335975Y-141949110D01*
X177335000Y-141939199D01*
X177335000Y-140560799D01*
X177335975Y-140550891D01*
X177338865Y-140541361D01*
X177343562Y-140532577D01*
X177349879Y-140524879D01*
X177357578Y-140518562D01*
X177366358Y-140513868D01*
X177375889Y-140510977D01*
X177385800Y-140509999D01*
X178554200Y-140509999D01*
X178564111Y-140510977D01*
G37*
G36*
X178564111Y-142190976D02*
G01*
X178573641Y-142193867D01*
X178582422Y-142198561D01*
X178590120Y-142204878D01*
X178596437Y-142212577D01*
X178601134Y-142221360D01*
X178604024Y-142230890D01*
X178605000Y-142240801D01*
X178605000Y-143619201D01*
X178604024Y-143629109D01*
X178601134Y-143638639D01*
X178596437Y-143647423D01*
X178590120Y-143655121D01*
X178582422Y-143661438D01*
X178573641Y-143666132D01*
X178564111Y-143669023D01*
X178554200Y-143670001D01*
X177385800Y-143670001D01*
X177375889Y-143669023D01*
X177366358Y-143666132D01*
X177357578Y-143661438D01*
X177349879Y-143655121D01*
X177343562Y-143647423D01*
X177338865Y-143638639D01*
X177335975Y-143629109D01*
X177335000Y-143619201D01*
X177335000Y-142240801D01*
X177335975Y-142230890D01*
X177338865Y-142221360D01*
X177343562Y-142212577D01*
X177349879Y-142204878D01*
X177357578Y-142198561D01*
X177366358Y-142193867D01*
X177375889Y-142190976D01*
X177385800Y-142190001D01*
X178554200Y-142190001D01*
X178564111Y-142190976D01*
G37*
%TO.C,Q2*%
G36*
X183589109Y-134490976D02*
G01*
X183598639Y-134493866D01*
X183607422Y-134498563D01*
X183615121Y-134504880D01*
X183621438Y-134512578D01*
X183626132Y-134521359D01*
X183629023Y-134530889D01*
X183629998Y-134540800D01*
X183629998Y-135709200D01*
X183629023Y-135719111D01*
X183626132Y-135728642D01*
X183621438Y-135737422D01*
X183615121Y-135745121D01*
X183607422Y-135751438D01*
X183598639Y-135756135D01*
X183589109Y-135759025D01*
X183579198Y-135760000D01*
X182200798Y-135760000D01*
X182190890Y-135759025D01*
X182181360Y-135756135D01*
X182172576Y-135751438D01*
X182164878Y-135745121D01*
X182158561Y-135737422D01*
X182153867Y-135728642D01*
X182150976Y-135719111D01*
X182149998Y-135709200D01*
X182149998Y-134540800D01*
X182150976Y-134530889D01*
X182153867Y-134521359D01*
X182158561Y-134512578D01*
X182164878Y-134504880D01*
X182172576Y-134498563D01*
X182181360Y-134493866D01*
X182190890Y-134490976D01*
X182200798Y-134490000D01*
X183579198Y-134490000D01*
X183589109Y-134490976D01*
G37*
G36*
X183589109Y-135960975D02*
G01*
X183598639Y-135963866D01*
X183607422Y-135968562D01*
X183615121Y-135974879D01*
X183621438Y-135982578D01*
X183626132Y-135991359D01*
X183629023Y-136000889D01*
X183629998Y-136010800D01*
X183629998Y-137179200D01*
X183629023Y-137189111D01*
X183626132Y-137198641D01*
X183621438Y-137207422D01*
X183615121Y-137215121D01*
X183607422Y-137221438D01*
X183598639Y-137226134D01*
X183589109Y-137229025D01*
X183579198Y-137230000D01*
X182200798Y-137230000D01*
X182190890Y-137229025D01*
X182181360Y-137226134D01*
X182172576Y-137221438D01*
X182164878Y-137215121D01*
X182158561Y-137207422D01*
X182153867Y-137198641D01*
X182150976Y-137189111D01*
X182149998Y-137179200D01*
X182149998Y-136010800D01*
X182150976Y-136000889D01*
X182153867Y-135991359D01*
X182158561Y-135982578D01*
X182164878Y-135974879D01*
X182172576Y-135968562D01*
X182181360Y-135963866D01*
X182190890Y-135960975D01*
X182200798Y-135960000D01*
X183579198Y-135960000D01*
X183589109Y-135960975D01*
G37*
G36*
X183589109Y-137430975D02*
G01*
X183598639Y-137433865D01*
X183607422Y-137438562D01*
X183615121Y-137444879D01*
X183621438Y-137452578D01*
X183626132Y-137461358D01*
X183629023Y-137470889D01*
X183629998Y-137480800D01*
X183629998Y-138649200D01*
X183629023Y-138659111D01*
X183626132Y-138668641D01*
X183621438Y-138677422D01*
X183615121Y-138685120D01*
X183607422Y-138691437D01*
X183598639Y-138696134D01*
X183589109Y-138699024D01*
X183579198Y-138700000D01*
X182200798Y-138700000D01*
X182190890Y-138699024D01*
X182181360Y-138696134D01*
X182172576Y-138691437D01*
X182164878Y-138685120D01*
X182158561Y-138677422D01*
X182153867Y-138668641D01*
X182150976Y-138659111D01*
X182149998Y-138649200D01*
X182149998Y-137480800D01*
X182150976Y-137470889D01*
X182153867Y-137461358D01*
X182158561Y-137452578D01*
X182164878Y-137444879D01*
X182172576Y-137438562D01*
X182181360Y-137433865D01*
X182190890Y-137430975D01*
X182200798Y-137430000D01*
X183579198Y-137430000D01*
X183589109Y-137430975D01*
G37*
G36*
X185269108Y-134490976D02*
G01*
X185278638Y-134493866D01*
X185287422Y-134498563D01*
X185295120Y-134504880D01*
X185301437Y-134512578D01*
X185306131Y-134521359D01*
X185309022Y-134530889D01*
X185310000Y-134540800D01*
X185310000Y-135709200D01*
X185309022Y-135719111D01*
X185306131Y-135728642D01*
X185301437Y-135737422D01*
X185295120Y-135745121D01*
X185287422Y-135751438D01*
X185278638Y-135756135D01*
X185269108Y-135759025D01*
X185259200Y-135760000D01*
X183880800Y-135760000D01*
X183870889Y-135759025D01*
X183861359Y-135756135D01*
X183852576Y-135751438D01*
X183844877Y-135745121D01*
X183838560Y-135737422D01*
X183833866Y-135728642D01*
X183830975Y-135719111D01*
X183830000Y-135709200D01*
X183830000Y-134540800D01*
X183830975Y-134530889D01*
X183833866Y-134521359D01*
X183838560Y-134512578D01*
X183844877Y-134504880D01*
X183852576Y-134498563D01*
X183861359Y-134493866D01*
X183870889Y-134490976D01*
X183880800Y-134490000D01*
X185259200Y-134490000D01*
X185269108Y-134490976D01*
G37*
G36*
X185269108Y-135960975D02*
G01*
X185278638Y-135963866D01*
X185287422Y-135968562D01*
X185295120Y-135974879D01*
X185301437Y-135982578D01*
X185306131Y-135991359D01*
X185309022Y-136000889D01*
X185310000Y-136010800D01*
X185310000Y-137179200D01*
X185309022Y-137189111D01*
X185306131Y-137198641D01*
X185301437Y-137207422D01*
X185295120Y-137215121D01*
X185287422Y-137221438D01*
X185278638Y-137226134D01*
X185269108Y-137229025D01*
X185259200Y-137230000D01*
X183880800Y-137230000D01*
X183870889Y-137229025D01*
X183861359Y-137226134D01*
X183852576Y-137221438D01*
X183844877Y-137215121D01*
X183838560Y-137207422D01*
X183833866Y-137198641D01*
X183830975Y-137189111D01*
X183830000Y-137179200D01*
X183830000Y-136010800D01*
X183830975Y-136000889D01*
X183833866Y-135991359D01*
X183838560Y-135982578D01*
X183844877Y-135974879D01*
X183852576Y-135968562D01*
X183861359Y-135963866D01*
X183870889Y-135960975D01*
X183880800Y-135960000D01*
X185259200Y-135960000D01*
X185269108Y-135960975D01*
G37*
G36*
X185269108Y-137430975D02*
G01*
X185278638Y-137433865D01*
X185287422Y-137438562D01*
X185295120Y-137444879D01*
X185301437Y-137452578D01*
X185306131Y-137461358D01*
X185309022Y-137470889D01*
X185310000Y-137480800D01*
X185310000Y-138649200D01*
X185309022Y-138659111D01*
X185306131Y-138668641D01*
X185301437Y-138677422D01*
X185295120Y-138685120D01*
X185287422Y-138691437D01*
X185278638Y-138696134D01*
X185269108Y-138699024D01*
X185259200Y-138700000D01*
X183880800Y-138700000D01*
X183870889Y-138699024D01*
X183861359Y-138696134D01*
X183852576Y-138691437D01*
X183844877Y-138685120D01*
X183838560Y-138677422D01*
X183833866Y-138668641D01*
X183830975Y-138659111D01*
X183830000Y-138649200D01*
X183830000Y-137480800D01*
X183830975Y-137470889D01*
X183833866Y-137461358D01*
X183838560Y-137452578D01*
X183844877Y-137444879D01*
X183852576Y-137438562D01*
X183861359Y-137433865D01*
X183870889Y-137430975D01*
X183880800Y-137430000D01*
X185259200Y-137430000D01*
X185269108Y-137430975D01*
G37*
%TD*%
D11*
%TO.C,R14*%
X176325000Y-150600000D03*
X174675000Y-150600000D03*
%TD*%
D12*
%TO.C,C18*%
X197500000Y-132400000D03*
X197500000Y-130500000D03*
%TD*%
D13*
%TO.C,C16*%
X153800000Y-141550000D03*
X153800000Y-143450000D03*
%TD*%
D14*
%TO.C,R13*%
X174675000Y-149000000D03*
X176325000Y-149000000D03*
%TD*%
D15*
%TO.C,R5*%
X156037500Y-140250000D03*
X161962500Y-140250000D03*
%TD*%
D12*
%TO.C,C15*%
X153800000Y-139950000D03*
X153800000Y-138050000D03*
%TD*%
D14*
%TO.C,R11*%
X171375000Y-152500000D03*
X173025000Y-152500000D03*
%TD*%
D16*
%TO.C,C3*%
X160525000Y-146500000D03*
X162075000Y-146500000D03*
%TD*%
D17*
%TO.C,C1*%
X165500000Y-150000000D03*
X163950000Y-150000000D03*
%TD*%
D14*
%TO.C,R7*%
X160475000Y-148100000D03*
X162125000Y-148100000D03*
%TD*%
D13*
%TO.C,C4*%
X172400000Y-140850000D03*
X172400000Y-142750000D03*
%TD*%
D18*
%TO.C,R15*%
X187970000Y-138300000D03*
X187970000Y-139950000D03*
%TD*%
D12*
%TO.C,C19*%
X199500000Y-132400000D03*
X199500000Y-130500000D03*
%TD*%
%TO.C,C9*%
X195500000Y-132450000D03*
X195500000Y-130550000D03*
%TD*%
D14*
%TO.C,R8*%
X171550000Y-147000000D03*
X173200000Y-147000000D03*
%TD*%
%TO.C,R10*%
X174575000Y-147000000D03*
X176225000Y-147000000D03*
%TD*%
D19*
%TO.C,R2*%
X155600000Y-145725000D03*
X155600000Y-144075000D03*
%TD*%
D18*
%TO.C,R4*%
X162000000Y-142975000D03*
X162000000Y-144625000D03*
%TD*%
D12*
%TO.C,C14*%
X151800000Y-139950000D03*
X151800000Y-138050000D03*
%TD*%
D16*
%TO.C,C5*%
X171475000Y-145500000D03*
X173025000Y-145500000D03*
%TD*%
D20*
%TO.C,U1*%
X164000000Y-141750000D03*
X164000000Y-142400001D03*
X164000000Y-143049999D03*
X164000000Y-143700001D03*
X164000000Y-144349999D03*
X164000000Y-144999998D03*
X164000000Y-145649999D03*
X164000000Y-146299998D03*
X164000000Y-146949999D03*
X164000000Y-147599998D03*
X169689600Y-147600000D03*
X169689600Y-146950002D03*
X169689600Y-146300001D03*
X169689600Y-145650002D03*
X169689600Y-145000001D03*
X169689600Y-144350002D03*
X169689600Y-143700001D03*
X169689600Y-143050002D03*
X169689600Y-142400001D03*
X169689600Y-141750002D03*
%TD*%
D13*
%TO.C,C13*%
X151800000Y-141550000D03*
X151800000Y-143450000D03*
%TD*%
D21*
%TO.C,Q1*%
X174595000Y-145569999D03*
X175865000Y-145569999D03*
X177135000Y-145569999D03*
X178405000Y-145569999D03*
X178405000Y-139930001D03*
X177135000Y-139930001D03*
X175865000Y-139930001D03*
X174595000Y-139930001D03*
%TD*%
D17*
%TO.C,C6*%
X169600000Y-149000000D03*
X168050000Y-149000000D03*
%TD*%
D12*
%TO.C,C2*%
X158600000Y-149150000D03*
X158600000Y-147250000D03*
%TD*%
D22*
%TO.C,C8*%
X181150000Y-148400000D03*
X179250000Y-148400000D03*
%TD*%
D18*
%TO.C,R12*%
X189500000Y-138300000D03*
X189500000Y-139950000D03*
%TD*%
D23*
%TO.C,Q2*%
X180250000Y-134690000D03*
X180250000Y-135960000D03*
X180250000Y-137230000D03*
X180250000Y-138500000D03*
X185889998Y-138500000D03*
X185889998Y-137230000D03*
X185889998Y-135960000D03*
X185889998Y-134690000D03*
%TD*%
D24*
%TO.C,D1*%
X181250000Y-141500000D03*
X181250000Y-145500000D03*
%TD*%
D25*
%TO.C,C17*%
X152050000Y-146000000D03*
X153950000Y-146000000D03*
%TD*%
D12*
%TO.C,C11*%
X193500000Y-132450000D03*
X193500000Y-130550000D03*
%TD*%
D18*
%TO.C,R1*%
X157200000Y-143975000D03*
X157200000Y-145625000D03*
%TD*%
D12*
%TO.C,C7*%
X173000000Y-150750000D03*
X173000000Y-148850000D03*
%TD*%
D26*
%TO.C,L1*%
X163184999Y-135161301D03*
X173614998Y-135161301D03*
D27*
X168400000Y-113086300D03*
%TD*%
D12*
%TO.C,C20*%
X201500000Y-132400000D03*
X201500000Y-130500000D03*
%TD*%
M02*
