%TF.GenerationSoftware,KiCad,Pcbnew,9.0.6*%
%TF.CreationDate,2026-04-13T23:22:44+02:00*%
%TF.ProjectId,Boost converter,426f6f73-7420-4636-9f6e-766572746572,C*%
%TF.SameCoordinates,Original*%
%TF.FileFunction,Copper,L2,Inr*%
%TF.FilePolarity,Positive*%
%FSLAX46Y46*%
G04 Gerber Fmt 4.6, Leading zero omitted, Abs format (unit mm)*
G04 Created by KiCad (PCBNEW 9.0.6) date 2026-04-13 23:22:44*
%MOMM*%
%LPD*%
G01*
G04 APERTURE LIST*
G04 Aperture macros list*
%AMRoundRect*
0 Rectangle with rounded corners*
0 $1 Rounding radius*
0 $2 $3 $4 $5 $6 $7 $8 $9 X,Y pos of 4 corners*
0 Add a 4 corners polygon primitive as box body*
4,1,4,$2,$3,$4,$5,$6,$7,$8,$9,$2,$3,0*
0 Add four circle primitives for the rounded corners*
1,1,$1+$1,$2,$3*
1,1,$1+$1,$4,$5*
1,1,$1+$1,$6,$7*
1,1,$1+$1,$8,$9*
0 Add four rect primitives between the rounded corners*
20,1,$1+$1,$2,$3,$4,$5,0*
20,1,$1+$1,$4,$5,$6,$7,0*
20,1,$1+$1,$6,$7,$8,$9,0*
20,1,$1+$1,$8,$9,$2,$3,0*%
G04 Aperture macros list end*
%TA.AperFunction,ComponentPad*%
%ADD10RoundRect,0.250000X1.000000X-1.000000X1.000000X1.000000X-1.000000X1.000000X-1.000000X-1.000000X0*%
%TD*%
%TA.AperFunction,ComponentPad*%
%ADD11C,2.500000*%
%TD*%
%TA.AperFunction,ComponentPad*%
%ADD12RoundRect,0.250000X-0.750000X0.750000X-0.750000X-0.750000X0.750000X-0.750000X0.750000X0.750000X0*%
%TD*%
%TA.AperFunction,ComponentPad*%
%ADD13C,2.000000*%
%TD*%
%TA.AperFunction,ComponentPad*%
%ADD14R,1.700000X1.700000*%
%TD*%
%TA.AperFunction,ComponentPad*%
%ADD15C,1.700000*%
%TD*%
%TA.AperFunction,ComponentPad*%
%ADD16RoundRect,0.250000X-1.000000X1.000000X-1.000000X-1.000000X1.000000X-1.000000X1.000000X1.000000X0*%
%TD*%
%TA.AperFunction,ViaPad*%
%ADD17C,0.800000*%
%TD*%
%TA.AperFunction,ViaPad*%
%ADD18C,0.600000*%
%TD*%
%TA.AperFunction,ViaPad*%
%ADD19C,0.500000*%
%TD*%
G04 APERTURE END LIST*
D10*
%TO.N,+36V*%
%TO.C,J2*%
X207567500Y-134200000D03*
D11*
%TO.N,GND*%
X207567500Y-129200000D03*
%TD*%
D12*
%TO.N,+36V*%
%TO.C,C10*%
X196400000Y-142700000D03*
D13*
%TO.N,GND*%
X196400000Y-147700000D03*
%TD*%
D14*
%TO.N,Net-(J4-Pin_1)*%
%TO.C,J4*%
X156000000Y-154540000D03*
D15*
%TO.N,GND*%
X156000000Y-152000000D03*
%TD*%
D12*
%TO.N,+18V*%
%TO.C,C12*%
X147000000Y-148632323D03*
D13*
%TO.N,GND*%
X147000000Y-153632323D03*
%TD*%
D16*
%TO.N,GND*%
%TO.C,J1*%
X146232500Y-137500000D03*
D11*
%TO.N,+18V*%
X146232500Y-142500000D03*
%TD*%
D17*
%TO.N,GND*%
X200000000Y-127000000D03*
X152500000Y-120000000D03*
X187500000Y-154500000D03*
X183000000Y-130000000D03*
X180500000Y-130700000D03*
X183000000Y-114000000D03*
X183000000Y-117000000D03*
X195500000Y-128000000D03*
X167500000Y-152500000D03*
D18*
X175000000Y-145000000D03*
D17*
X192500000Y-125000000D03*
X200000000Y-154500000D03*
X149000000Y-154500000D03*
X180500000Y-129800000D03*
X183000000Y-116000000D03*
X145000000Y-122500000D03*
X155500000Y-149000000D03*
X210000000Y-122500000D03*
X198400000Y-149500000D03*
X144500000Y-135000000D03*
X164500000Y-139000000D03*
X177500000Y-154500000D03*
X211000000Y-129500000D03*
X145000000Y-130000000D03*
X145000000Y-125000000D03*
X182500000Y-154500000D03*
X194400000Y-146700000D03*
D18*
X175100000Y-145700000D03*
D17*
X211000000Y-127500000D03*
X175000000Y-154500000D03*
X158500000Y-131500000D03*
X195000000Y-115000000D03*
X197500000Y-128000000D03*
X200500000Y-129000000D03*
X207500000Y-120000000D03*
X152500000Y-122500000D03*
X154500000Y-135500000D03*
X200000000Y-125000000D03*
X179500000Y-130700000D03*
X201500000Y-128000000D03*
X195500000Y-129000000D03*
X146500000Y-134000000D03*
X159500000Y-134500000D03*
X192500000Y-120000000D03*
X165000000Y-154500000D03*
X195000000Y-117500000D03*
X171000000Y-139000000D03*
X185000000Y-115000000D03*
X153500000Y-131000000D03*
X200000000Y-152500000D03*
X154500000Y-149000000D03*
X199500000Y-129000000D03*
X200000000Y-115000000D03*
X187500000Y-125000000D03*
X168000000Y-131500000D03*
X148500000Y-138000000D03*
X185000000Y-127000000D03*
X187500000Y-120000000D03*
X174750000Y-151750000D03*
X166500000Y-131500000D03*
X147500000Y-132500000D03*
X152500000Y-148000000D03*
X198400000Y-148500000D03*
X183000000Y-127000000D03*
X159500000Y-137500000D03*
X202500000Y-128000000D03*
X193400000Y-147700000D03*
X143500000Y-138500000D03*
X153500000Y-117000000D03*
X199400000Y-148500000D03*
X185000000Y-154500000D03*
X145500000Y-134000000D03*
X190000000Y-120000000D03*
X205000000Y-131000000D03*
X192500000Y-128000000D03*
X152500000Y-117500000D03*
X152500000Y-125000000D03*
X142500000Y-132500000D03*
X205000000Y-152500000D03*
X170000000Y-154500000D03*
X205000000Y-154500000D03*
X152500000Y-149000000D03*
X190000000Y-152500000D03*
X181500000Y-130700000D03*
X153500000Y-116000000D03*
X149000000Y-152500000D03*
X147500000Y-130000000D03*
X147500000Y-125000000D03*
X193400000Y-146700000D03*
X183000000Y-123000000D03*
X166500000Y-132500000D03*
X154500000Y-136500000D03*
X205000000Y-120000000D03*
X183000000Y-124000000D03*
X152500000Y-112500000D03*
X144500000Y-153500000D03*
X210000000Y-120000000D03*
X147500000Y-122500000D03*
X202500000Y-125000000D03*
X179500000Y-129800000D03*
X202500000Y-117500000D03*
X197500000Y-122500000D03*
X153500000Y-113000000D03*
X197500000Y-152500000D03*
X195000000Y-127000000D03*
X153500000Y-119000000D03*
X183000000Y-129000000D03*
X170000000Y-139000000D03*
X194400000Y-148700000D03*
X145500000Y-135000000D03*
X192500000Y-154500000D03*
X183000000Y-119000000D03*
X153500000Y-122000000D03*
X152500000Y-135500000D03*
X148500000Y-137000000D03*
X167800000Y-144200000D03*
X153500000Y-118000000D03*
X187500000Y-152500000D03*
X149000000Y-155500000D03*
X166500000Y-133500000D03*
X197500000Y-154500000D03*
X149500000Y-138000000D03*
X185000000Y-117500000D03*
X197500000Y-129000000D03*
X160000000Y-150500000D03*
X190000000Y-127000000D03*
X195000000Y-125000000D03*
X153500000Y-149000000D03*
X145000000Y-120000000D03*
X152500000Y-136500000D03*
X152500000Y-130000000D03*
X143500000Y-137500000D03*
X159500000Y-131500000D03*
X145000000Y-132500000D03*
X153500000Y-130000000D03*
X202500000Y-120000000D03*
X205000000Y-122500000D03*
X197500000Y-115000000D03*
X150000000Y-112500000D03*
X143500000Y-152500000D03*
X198500000Y-128000000D03*
X153500000Y-135500000D03*
X202500000Y-154500000D03*
X170000000Y-132500000D03*
X195000000Y-122500000D03*
X183000000Y-118000000D03*
X194400000Y-147700000D03*
X142500000Y-125000000D03*
D18*
X177135000Y-145569999D03*
D17*
X181500000Y-131500000D03*
X197500000Y-127000000D03*
X149500000Y-136000000D03*
X180500000Y-131500000D03*
X187500000Y-117500000D03*
X153500000Y-111000000D03*
X170000000Y-135500000D03*
X200000000Y-112500000D03*
X204000000Y-129000000D03*
X183000000Y-121000000D03*
X183000000Y-120000000D03*
X198500000Y-129000000D03*
X202500000Y-115000000D03*
X195000000Y-154500000D03*
X183000000Y-113000000D03*
X153500000Y-136500000D03*
X166500000Y-137500000D03*
X163500000Y-139000000D03*
X190000000Y-115000000D03*
X155500000Y-131500000D03*
D18*
X172600000Y-146000000D03*
D17*
X165800000Y-144200000D03*
X152500000Y-115000000D03*
X150000000Y-120000000D03*
X150000000Y-154500000D03*
X195000000Y-120000000D03*
X201500000Y-129000000D03*
X185000000Y-120000000D03*
X193500000Y-128000000D03*
X150000000Y-152500000D03*
X205000000Y-129000000D03*
X142500000Y-138500000D03*
X165000000Y-152500000D03*
X153500000Y-126000000D03*
X202500000Y-122500000D03*
X183000000Y-112000000D03*
D18*
X179350000Y-152050000D03*
D17*
X197500000Y-125000000D03*
X143500000Y-136500000D03*
X150000000Y-117500000D03*
X144500000Y-152500000D03*
X181500000Y-129800000D03*
X202500000Y-112500000D03*
X150000000Y-153500000D03*
X144500000Y-154500000D03*
X195000000Y-112500000D03*
X145000000Y-127500000D03*
X190000000Y-154500000D03*
X151500000Y-136500000D03*
X157500000Y-131500000D03*
X170000000Y-131500000D03*
X159500000Y-132500000D03*
X169000000Y-131500000D03*
X200500000Y-128000000D03*
X153500000Y-114000000D03*
X167800000Y-145200000D03*
X147500000Y-127500000D03*
X153500000Y-112000000D03*
X195000000Y-152500000D03*
X170000000Y-136500000D03*
X197500000Y-120000000D03*
X153500000Y-124000000D03*
X192500000Y-127000000D03*
X202500000Y-129000000D03*
X183000000Y-115000000D03*
X205000000Y-128000000D03*
X159500000Y-135500000D03*
X150000000Y-115000000D03*
X191500000Y-129000000D03*
X166800000Y-146200000D03*
X154500000Y-148000000D03*
X200000000Y-120000000D03*
X172500000Y-154500000D03*
X166800000Y-144700000D03*
X143500000Y-155500000D03*
X192500000Y-152500000D03*
X156500000Y-131500000D03*
X170000000Y-137500000D03*
X185000000Y-122500000D03*
X155500000Y-148000000D03*
X166500000Y-139000000D03*
X199500000Y-128000000D03*
X150000000Y-132500000D03*
X159500000Y-133500000D03*
X199400000Y-147500000D03*
X192500000Y-122500000D03*
X187500000Y-122500000D03*
X192500000Y-129000000D03*
X196500000Y-128000000D03*
X193400000Y-148700000D03*
X152500000Y-154500000D03*
X190000000Y-122500000D03*
X191500000Y-128000000D03*
X144500000Y-155500000D03*
X207500000Y-122500000D03*
X144500000Y-134000000D03*
X167500000Y-154500000D03*
X192500000Y-115000000D03*
X165500000Y-139000000D03*
X153500000Y-123000000D03*
X142500000Y-137500000D03*
X187500000Y-127000000D03*
X153500000Y-128000000D03*
X151500000Y-135500000D03*
X211000000Y-128500000D03*
X142500000Y-136500000D03*
X183000000Y-122000000D03*
X211000000Y-130500000D03*
X166500000Y-134500000D03*
X187500000Y-115000000D03*
X192500000Y-112500000D03*
X147500000Y-135000000D03*
X153500000Y-148000000D03*
X153500000Y-115000000D03*
X194500000Y-128000000D03*
X172000000Y-139000000D03*
X150000000Y-130000000D03*
X149000000Y-153500000D03*
X183000000Y-111000000D03*
X183000000Y-128000000D03*
X142500000Y-130000000D03*
X146500000Y-135000000D03*
X150000000Y-127500000D03*
X152500000Y-150500000D03*
X199400000Y-146500000D03*
D18*
X177750000Y-144750000D03*
D17*
X154100000Y-144075000D03*
X192500000Y-117500000D03*
X204000000Y-130000000D03*
X173000000Y-139000000D03*
X200000000Y-117500000D03*
X204000000Y-131000000D03*
X190000000Y-112500000D03*
X143500000Y-153500000D03*
X210000000Y-128500000D03*
X205000000Y-130000000D03*
X170000000Y-134500000D03*
X150000000Y-122500000D03*
X142500000Y-122500000D03*
X150000000Y-125000000D03*
X142500000Y-127500000D03*
X153500000Y-121000000D03*
X152500000Y-127500000D03*
D18*
X176400000Y-147500000D03*
D17*
X180000000Y-154500000D03*
X190000000Y-125000000D03*
X153500000Y-127000000D03*
X185000000Y-152500000D03*
X185000000Y-125000000D03*
X210000000Y-127500000D03*
X204000000Y-128000000D03*
X165800000Y-145200000D03*
X166500000Y-136500000D03*
X143500000Y-139500000D03*
X166800000Y-143200000D03*
X147500000Y-120000000D03*
X153500000Y-120000000D03*
X202500000Y-152500000D03*
X196500000Y-129000000D03*
D18*
X175865000Y-145569999D03*
D17*
X153500000Y-125000000D03*
X148500000Y-136000000D03*
X154500000Y-131500000D03*
X153500000Y-129000000D03*
X193500000Y-129000000D03*
X152500000Y-132500000D03*
X149500000Y-137000000D03*
X142500000Y-139500000D03*
X190000000Y-117500000D03*
X194500000Y-129000000D03*
X187500000Y-112500000D03*
X150000000Y-155500000D03*
X166500000Y-135500000D03*
X185000000Y-112500000D03*
X142500000Y-120000000D03*
X210000000Y-130500000D03*
X152500000Y-152500000D03*
X183000000Y-126000000D03*
X159500000Y-136500000D03*
X143500000Y-154500000D03*
X207500000Y-125000000D03*
X170000000Y-133500000D03*
X147500000Y-134000000D03*
X197500000Y-112500000D03*
X198400000Y-146500000D03*
X200000000Y-122500000D03*
X197500000Y-117500000D03*
X205000000Y-125000000D03*
X179500000Y-131500000D03*
X183000000Y-125000000D03*
X198400000Y-147500000D03*
X210000000Y-129500000D03*
D19*
%TO.N,/HO*%
X170700000Y-142400002D03*
D18*
X184100000Y-146725000D03*
D17*
%TO.N,/VIN*%
X158515431Y-146325000D03*
X158600000Y-144800000D03*
D18*
%TO.N,/BST*%
X181250000Y-145400000D03*
D19*
X173400000Y-140900000D03*
D18*
%TO.N,FB*%
X187400000Y-147100000D03*
D19*
X168800000Y-149800000D03*
X175300000Y-148500000D03*
X172000000Y-149100000D03*
D18*
%TO.N,Net-(Q4-Gate)*%
X177695000Y-131780001D03*
X183200000Y-145600000D03*
%TD*%
%TA.AperFunction,Conductor*%
%TO.N,GND*%
G36*
X212642539Y-109320185D02*
G01*
X212688294Y-109372989D01*
X212699500Y-109424500D01*
X212699500Y-156575500D01*
X212679815Y-156642539D01*
X212627011Y-156688294D01*
X212575500Y-156699500D01*
X140424500Y-156699500D01*
X140357461Y-156679815D01*
X140311706Y-156627011D01*
X140300500Y-156575500D01*
X140300500Y-153670247D01*
X154949500Y-153670247D01*
X154949500Y-155409752D01*
X154961131Y-155468229D01*
X154961132Y-155468230D01*
X155005447Y-155534552D01*
X155071769Y-155578867D01*
X155071770Y-155578868D01*
X155130247Y-155590499D01*
X155130250Y-155590500D01*
X155130252Y-155590500D01*
X156869750Y-155590500D01*
X156869751Y-155590499D01*
X156884568Y-155587552D01*
X156928229Y-155578868D01*
X156928229Y-155578867D01*
X156928231Y-155578867D01*
X156994552Y-155534552D01*
X157038867Y-155468231D01*
X157038867Y-155468229D01*
X157038868Y-155468229D01*
X157050499Y-155409752D01*
X157050500Y-155409750D01*
X157050500Y-153670249D01*
X157050499Y-153670247D01*
X157038868Y-153611770D01*
X157038867Y-153611769D01*
X156994552Y-153545447D01*
X156928230Y-153501132D01*
X156928229Y-153501131D01*
X156869752Y-153489500D01*
X156869748Y-153489500D01*
X155130252Y-153489500D01*
X155130247Y-153489500D01*
X155071770Y-153501131D01*
X155071769Y-153501132D01*
X155005447Y-153545447D01*
X154961132Y-153611769D01*
X154961131Y-153611770D01*
X154949500Y-153670247D01*
X140300500Y-153670247D01*
X140300500Y-152878048D01*
X207139500Y-152878048D01*
X207139500Y-153121951D01*
X207166013Y-153323333D01*
X207171334Y-153363744D01*
X207208147Y-153501132D01*
X207234456Y-153599320D01*
X207234459Y-153599330D01*
X207327786Y-153824640D01*
X207327791Y-153824651D01*
X207449727Y-154035848D01*
X207449738Y-154035864D01*
X207598199Y-154229343D01*
X207598205Y-154229350D01*
X207770649Y-154401794D01*
X207770655Y-154401799D01*
X207964144Y-154550268D01*
X207964151Y-154550272D01*
X208175348Y-154672208D01*
X208175353Y-154672210D01*
X208175356Y-154672212D01*
X208400679Y-154765544D01*
X208636256Y-154828666D01*
X208878056Y-154860500D01*
X208878063Y-154860500D01*
X209121937Y-154860500D01*
X209121944Y-154860500D01*
X209363744Y-154828666D01*
X209599321Y-154765544D01*
X209824644Y-154672212D01*
X210035856Y-154550268D01*
X210229345Y-154401799D01*
X210401799Y-154229345D01*
X210550268Y-154035856D01*
X210672212Y-153824644D01*
X210765544Y-153599321D01*
X210828666Y-153363744D01*
X210860500Y-153121944D01*
X210860500Y-152878056D01*
X210828666Y-152636256D01*
X210765544Y-152400679D01*
X210672212Y-152175356D01*
X210672210Y-152175353D01*
X210672208Y-152175348D01*
X210550272Y-151964151D01*
X210550268Y-151964144D01*
X210401799Y-151770655D01*
X210401794Y-151770649D01*
X210229350Y-151598205D01*
X210229343Y-151598199D01*
X210035864Y-151449738D01*
X210035862Y-151449736D01*
X210035856Y-151449732D01*
X210035851Y-151449729D01*
X210035848Y-151449727D01*
X209824651Y-151327791D01*
X209824640Y-151327786D01*
X209599330Y-151234459D01*
X209599323Y-151234457D01*
X209599321Y-151234456D01*
X209363744Y-151171334D01*
X209323333Y-151166013D01*
X209121951Y-151139500D01*
X209121944Y-151139500D01*
X208878056Y-151139500D01*
X208878048Y-151139500D01*
X208647896Y-151169801D01*
X208636256Y-151171334D01*
X208400679Y-151234456D01*
X208400669Y-151234459D01*
X208175359Y-151327786D01*
X208175348Y-151327791D01*
X207964151Y-151449727D01*
X207964135Y-151449738D01*
X207770656Y-151598199D01*
X207770649Y-151598205D01*
X207598205Y-151770649D01*
X207598199Y-151770656D01*
X207449738Y-151964135D01*
X207449727Y-151964151D01*
X207327791Y-152175348D01*
X207327786Y-152175359D01*
X207234459Y-152400669D01*
X207234456Y-152400679D01*
X207171335Y-152636253D01*
X207171333Y-152636264D01*
X207139500Y-152878048D01*
X140300500Y-152878048D01*
X140300500Y-147828053D01*
X145799500Y-147828053D01*
X145799500Y-149436592D01*
X145802353Y-149467022D01*
X145802353Y-149467024D01*
X145847206Y-149595203D01*
X145847207Y-149595205D01*
X145927850Y-149704473D01*
X146037118Y-149785116D01*
X146079845Y-149800067D01*
X146165299Y-149829969D01*
X146195730Y-149832823D01*
X146195734Y-149832823D01*
X147804270Y-149832823D01*
X147834699Y-149829969D01*
X147834701Y-149829969D01*
X147898790Y-149807542D01*
X147962882Y-149785116D01*
X148023076Y-149740691D01*
X168349500Y-149740691D01*
X168349500Y-149859309D01*
X168380201Y-149973886D01*
X168439511Y-150076613D01*
X168523387Y-150160489D01*
X168626114Y-150219799D01*
X168740691Y-150250500D01*
X168740694Y-150250500D01*
X168859306Y-150250500D01*
X168859309Y-150250500D01*
X168973886Y-150219799D01*
X169076613Y-150160489D01*
X169160489Y-150076613D01*
X169219799Y-149973886D01*
X169250500Y-149859309D01*
X169250500Y-149740691D01*
X169219799Y-149626114D01*
X169160489Y-149523387D01*
X169076613Y-149439511D01*
X168973886Y-149380201D01*
X168859309Y-149349500D01*
X168740691Y-149349500D01*
X168626114Y-149380201D01*
X168626112Y-149380201D01*
X168626112Y-149380202D01*
X168523387Y-149439511D01*
X168523384Y-149439513D01*
X168439513Y-149523384D01*
X168439511Y-149523387D01*
X168380201Y-149626114D01*
X168349500Y-149740691D01*
X148023076Y-149740691D01*
X148072150Y-149704473D01*
X148152793Y-149595205D01*
X148179179Y-149519797D01*
X148197646Y-149467024D01*
X148197646Y-149467022D01*
X148200500Y-149436592D01*
X148200500Y-149040691D01*
X171549500Y-149040691D01*
X171549500Y-149159309D01*
X171580201Y-149273886D01*
X171639511Y-149376613D01*
X171723387Y-149460489D01*
X171826114Y-149519799D01*
X171940691Y-149550500D01*
X171940694Y-149550500D01*
X172059306Y-149550500D01*
X172059309Y-149550500D01*
X172173886Y-149519799D01*
X172276613Y-149460489D01*
X172360489Y-149376613D01*
X172419799Y-149273886D01*
X172450500Y-149159309D01*
X172450500Y-149040691D01*
X172419799Y-148926114D01*
X172360489Y-148823387D01*
X172276613Y-148739511D01*
X172173886Y-148680201D01*
X172059309Y-148649500D01*
X171940691Y-148649500D01*
X171826114Y-148680201D01*
X171826112Y-148680201D01*
X171826112Y-148680202D01*
X171723387Y-148739511D01*
X171723384Y-148739513D01*
X171639513Y-148823384D01*
X171639511Y-148823387D01*
X171618091Y-148860488D01*
X171580201Y-148926114D01*
X171549500Y-149040691D01*
X148200500Y-149040691D01*
X148200500Y-148440691D01*
X174849500Y-148440691D01*
X174849500Y-148559309D01*
X174880201Y-148673886D01*
X174939511Y-148776613D01*
X175023387Y-148860489D01*
X175126114Y-148919799D01*
X175240691Y-148950500D01*
X175240694Y-148950500D01*
X175359306Y-148950500D01*
X175359309Y-148950500D01*
X175473886Y-148919799D01*
X175576613Y-148860489D01*
X175660489Y-148776613D01*
X175719799Y-148673886D01*
X175750500Y-148559309D01*
X175750500Y-148440691D01*
X175719799Y-148326114D01*
X175660489Y-148223387D01*
X175576613Y-148139511D01*
X175473886Y-148080201D01*
X175359309Y-148049500D01*
X175240691Y-148049500D01*
X175126114Y-148080201D01*
X175126112Y-148080201D01*
X175126112Y-148080202D01*
X175023387Y-148139511D01*
X175023384Y-148139513D01*
X174939513Y-148223384D01*
X174939511Y-148223387D01*
X174880201Y-148326114D01*
X174849500Y-148440691D01*
X148200500Y-148440691D01*
X148200500Y-147828053D01*
X148197646Y-147797623D01*
X148197646Y-147797621D01*
X148152793Y-147669442D01*
X148152792Y-147669440D01*
X148072150Y-147560173D01*
X147962882Y-147479530D01*
X147962880Y-147479529D01*
X147834700Y-147434676D01*
X147804270Y-147431823D01*
X147804266Y-147431823D01*
X146195734Y-147431823D01*
X146195730Y-147431823D01*
X146165300Y-147434676D01*
X146165298Y-147434676D01*
X146037119Y-147479529D01*
X146037117Y-147479530D01*
X145927850Y-147560173D01*
X145847207Y-147669440D01*
X145847206Y-147669442D01*
X145802353Y-147797621D01*
X145802353Y-147797623D01*
X145799500Y-147828053D01*
X140300500Y-147828053D01*
X140300500Y-146245943D01*
X157914931Y-146245943D01*
X157914931Y-146404057D01*
X157949164Y-146531814D01*
X157955854Y-146556783D01*
X157955857Y-146556790D01*
X158034906Y-146693709D01*
X158034910Y-146693714D01*
X158034911Y-146693716D01*
X158146715Y-146805520D01*
X158146717Y-146805521D01*
X158146721Y-146805524D01*
X158283640Y-146884573D01*
X158283647Y-146884577D01*
X158436374Y-146925500D01*
X158436376Y-146925500D01*
X158594486Y-146925500D01*
X158594488Y-146925500D01*
X158747215Y-146884577D01*
X158884147Y-146805520D01*
X158995951Y-146693716D01*
X159015932Y-146659108D01*
X183599500Y-146659108D01*
X183599500Y-146790891D01*
X183633608Y-146918187D01*
X183660046Y-146963978D01*
X183699500Y-147032314D01*
X183792686Y-147125500D01*
X183906814Y-147191392D01*
X184034108Y-147225500D01*
X184034110Y-147225500D01*
X184165890Y-147225500D01*
X184165892Y-147225500D01*
X184293186Y-147191392D01*
X184407314Y-147125500D01*
X184498706Y-147034108D01*
X186899500Y-147034108D01*
X186899500Y-147165892D01*
X186915472Y-147225500D01*
X186933608Y-147293187D01*
X186966554Y-147350250D01*
X186999500Y-147407314D01*
X187092686Y-147500500D01*
X187206814Y-147566392D01*
X187334108Y-147600500D01*
X187334110Y-147600500D01*
X187465890Y-147600500D01*
X187465892Y-147600500D01*
X187593186Y-147566392D01*
X187707314Y-147500500D01*
X187800500Y-147407314D01*
X187866392Y-147293186D01*
X187900500Y-147165892D01*
X187900500Y-147034108D01*
X187866392Y-146906814D01*
X187800500Y-146792686D01*
X187707314Y-146699500D01*
X187637353Y-146659108D01*
X187593187Y-146633608D01*
X187529539Y-146616554D01*
X187465892Y-146599500D01*
X187334108Y-146599500D01*
X187206812Y-146633608D01*
X187092686Y-146699500D01*
X187092683Y-146699502D01*
X186999502Y-146792683D01*
X186999500Y-146792686D01*
X186933608Y-146906812D01*
X186899981Y-147032313D01*
X186899500Y-147034108D01*
X184498706Y-147034108D01*
X184500500Y-147032314D01*
X184566392Y-146918186D01*
X184600500Y-146790892D01*
X184600500Y-146659108D01*
X184566392Y-146531814D01*
X184500500Y-146417686D01*
X184407314Y-146324500D01*
X184350250Y-146291554D01*
X184293187Y-146258608D01*
X184229539Y-146241554D01*
X184165892Y-146224500D01*
X184034108Y-146224500D01*
X183906812Y-146258608D01*
X183792686Y-146324500D01*
X183792683Y-146324502D01*
X183699502Y-146417683D01*
X183699500Y-146417686D01*
X183633608Y-146531812D01*
X183599500Y-146659108D01*
X159015932Y-146659108D01*
X159075008Y-146556784D01*
X159115931Y-146404057D01*
X159115931Y-146245943D01*
X159075008Y-146093216D01*
X159021479Y-146000500D01*
X158995955Y-145956290D01*
X158995949Y-145956282D01*
X158884148Y-145844481D01*
X158884140Y-145844475D01*
X158747221Y-145765426D01*
X158747217Y-145765424D01*
X158747215Y-145765423D01*
X158594488Y-145724500D01*
X158436374Y-145724500D01*
X158283647Y-145765423D01*
X158283640Y-145765426D01*
X158146721Y-145844475D01*
X158146713Y-145844481D01*
X158034912Y-145956282D01*
X158034906Y-145956290D01*
X157955857Y-146093209D01*
X157955854Y-146093216D01*
X157914931Y-146245943D01*
X140300500Y-146245943D01*
X140300500Y-144720943D01*
X157999500Y-144720943D01*
X157999500Y-144879056D01*
X158040423Y-145031783D01*
X158040426Y-145031790D01*
X158119475Y-145168709D01*
X158119479Y-145168714D01*
X158119480Y-145168716D01*
X158231284Y-145280520D01*
X158231286Y-145280521D01*
X158231290Y-145280524D01*
X158252356Y-145292686D01*
X158368216Y-145359577D01*
X158520943Y-145400500D01*
X158520945Y-145400500D01*
X158679055Y-145400500D01*
X158679057Y-145400500D01*
X158831784Y-145359577D01*
X158875898Y-145334108D01*
X180749500Y-145334108D01*
X180749500Y-145465892D01*
X180766554Y-145529539D01*
X180783608Y-145593187D01*
X180816554Y-145650250D01*
X180849500Y-145707314D01*
X180942686Y-145800500D01*
X181056814Y-145866392D01*
X181184108Y-145900500D01*
X181184110Y-145900500D01*
X181315890Y-145900500D01*
X181315892Y-145900500D01*
X181443186Y-145866392D01*
X181557314Y-145800500D01*
X181650500Y-145707314D01*
X181716392Y-145593186D01*
X181732222Y-145534108D01*
X182699500Y-145534108D01*
X182699500Y-145665892D01*
X182715204Y-145724500D01*
X182733608Y-145793187D01*
X182763220Y-145844475D01*
X182799500Y-145907314D01*
X182892686Y-146000500D01*
X183006814Y-146066392D01*
X183134108Y-146100500D01*
X183134110Y-146100500D01*
X183265890Y-146100500D01*
X183265892Y-146100500D01*
X183393186Y-146066392D01*
X183507314Y-146000500D01*
X183600500Y-145907314D01*
X183666392Y-145793186D01*
X183700500Y-145665892D01*
X183700500Y-145534108D01*
X183666392Y-145406814D01*
X183600500Y-145292686D01*
X183507314Y-145199500D01*
X183450250Y-145166554D01*
X183393187Y-145133608D01*
X183329539Y-145116554D01*
X183265892Y-145099500D01*
X183134108Y-145099500D01*
X183006812Y-145133608D01*
X182892686Y-145199500D01*
X182892683Y-145199502D01*
X182799502Y-145292683D01*
X182799500Y-145292686D01*
X182733608Y-145406812D01*
X182717778Y-145465892D01*
X182699500Y-145534108D01*
X181732222Y-145534108D01*
X181750500Y-145465892D01*
X181750500Y-145334108D01*
X181716392Y-145206814D01*
X181650500Y-145092686D01*
X181557314Y-144999500D01*
X181500250Y-144966554D01*
X181443187Y-144933608D01*
X181379539Y-144916554D01*
X181315892Y-144899500D01*
X181184108Y-144899500D01*
X181056812Y-144933608D01*
X180942686Y-144999500D01*
X180942683Y-144999502D01*
X180849502Y-145092683D01*
X180849500Y-145092686D01*
X180783608Y-145206812D01*
X180760600Y-145292683D01*
X180749500Y-145334108D01*
X158875898Y-145334108D01*
X158968716Y-145280520D01*
X159080520Y-145168716D01*
X159159577Y-145031784D01*
X159200500Y-144879057D01*
X159200500Y-144720943D01*
X159159577Y-144568216D01*
X159159573Y-144568209D01*
X159080524Y-144431290D01*
X159080518Y-144431282D01*
X158968717Y-144319481D01*
X158968709Y-144319475D01*
X158831790Y-144240426D01*
X158831786Y-144240424D01*
X158831784Y-144240423D01*
X158679057Y-144199500D01*
X158520943Y-144199500D01*
X158368216Y-144240423D01*
X158368209Y-144240426D01*
X158231290Y-144319475D01*
X158231282Y-144319481D01*
X158119481Y-144431282D01*
X158119475Y-144431290D01*
X158040426Y-144568209D01*
X158040423Y-144568216D01*
X157999500Y-144720943D01*
X140300500Y-144720943D01*
X140300500Y-142385837D01*
X144782000Y-142385837D01*
X144782000Y-142614162D01*
X144817715Y-142839660D01*
X144888270Y-143056803D01*
X144991921Y-143260228D01*
X145126121Y-143444937D01*
X145287563Y-143606379D01*
X145472272Y-143740579D01*
X145534232Y-143772149D01*
X145675696Y-143844229D01*
X145675698Y-143844229D01*
X145675701Y-143844231D01*
X145792092Y-143882049D01*
X145892839Y-143914784D01*
X146118338Y-143950500D01*
X146118343Y-143950500D01*
X146346662Y-143950500D01*
X146572160Y-143914784D01*
X146624905Y-143897646D01*
X146789299Y-143844231D01*
X146992728Y-143740579D01*
X147177437Y-143606379D01*
X147338879Y-143444937D01*
X147473079Y-143260228D01*
X147576731Y-143056799D01*
X147647284Y-142839660D01*
X147659823Y-142760491D01*
X147683000Y-142614162D01*
X147683000Y-142385837D01*
X147677635Y-142351964D01*
X147675850Y-142340693D01*
X170249500Y-142340693D01*
X170249500Y-142459311D01*
X170280201Y-142573888D01*
X170339511Y-142676615D01*
X170423387Y-142760491D01*
X170526114Y-142819801D01*
X170640691Y-142850502D01*
X170640694Y-142850502D01*
X170759306Y-142850502D01*
X170759309Y-142850502D01*
X170873886Y-142819801D01*
X170976613Y-142760491D01*
X171060489Y-142676615D01*
X171119799Y-142573888D01*
X171150500Y-142459311D01*
X171150500Y-142340693D01*
X171119799Y-142226116D01*
X171060489Y-142123389D01*
X170976613Y-142039513D01*
X170873886Y-141980203D01*
X170759309Y-141949502D01*
X170640691Y-141949502D01*
X170526114Y-141980203D01*
X170526112Y-141980203D01*
X170526112Y-141980204D01*
X170423387Y-142039513D01*
X170423384Y-142039515D01*
X170339513Y-142123386D01*
X170339511Y-142123389D01*
X170280201Y-142226116D01*
X170249500Y-142340693D01*
X147675850Y-142340693D01*
X147647284Y-142160339D01*
X147588754Y-141980204D01*
X147576731Y-141943201D01*
X147576729Y-141943198D01*
X147576729Y-141943196D01*
X147552544Y-141895730D01*
X195199500Y-141895730D01*
X195199500Y-143504269D01*
X195202353Y-143534699D01*
X195202353Y-143534701D01*
X195247206Y-143662880D01*
X195247207Y-143662882D01*
X195327850Y-143772150D01*
X195437118Y-143852793D01*
X195479845Y-143867744D01*
X195565299Y-143897646D01*
X195595730Y-143900500D01*
X195595734Y-143900500D01*
X197204270Y-143900500D01*
X197234699Y-143897646D01*
X197234701Y-143897646D01*
X197298790Y-143875219D01*
X197362882Y-143852793D01*
X197472150Y-143772150D01*
X197552793Y-143662882D01*
X197575219Y-143598790D01*
X197597646Y-143534701D01*
X197597646Y-143534699D01*
X197600500Y-143504269D01*
X197600500Y-141895730D01*
X197597646Y-141865300D01*
X197597646Y-141865298D01*
X197564006Y-141769163D01*
X197552793Y-141737118D01*
X197472150Y-141627850D01*
X197362882Y-141547207D01*
X197362880Y-141547206D01*
X197234700Y-141502353D01*
X197204270Y-141499500D01*
X197204266Y-141499500D01*
X195595734Y-141499500D01*
X195595730Y-141499500D01*
X195565300Y-141502353D01*
X195565298Y-141502353D01*
X195437119Y-141547206D01*
X195437117Y-141547207D01*
X195327850Y-141627850D01*
X195247207Y-141737117D01*
X195247206Y-141737119D01*
X195202353Y-141865298D01*
X195202353Y-141865300D01*
X195199500Y-141895730D01*
X147552544Y-141895730D01*
X147473078Y-141739771D01*
X147471151Y-141737119D01*
X147338879Y-141555063D01*
X147177437Y-141393621D01*
X146992728Y-141259421D01*
X146789303Y-141155770D01*
X146572160Y-141085215D01*
X146346662Y-141049500D01*
X146346657Y-141049500D01*
X146118343Y-141049500D01*
X146118338Y-141049500D01*
X145892839Y-141085215D01*
X145675696Y-141155770D01*
X145472271Y-141259421D01*
X145287561Y-141393622D01*
X145126122Y-141555061D01*
X144991921Y-141739771D01*
X144888270Y-141943196D01*
X144817715Y-142160339D01*
X144782000Y-142385837D01*
X140300500Y-142385837D01*
X140300500Y-140840691D01*
X172949500Y-140840691D01*
X172949500Y-140959309D01*
X172980201Y-141073886D01*
X173039511Y-141176613D01*
X173123387Y-141260489D01*
X173226114Y-141319799D01*
X173340691Y-141350500D01*
X173340694Y-141350500D01*
X173459306Y-141350500D01*
X173459309Y-141350500D01*
X173573886Y-141319799D01*
X173676613Y-141260489D01*
X173760489Y-141176613D01*
X173819799Y-141073886D01*
X173850500Y-140959309D01*
X173850500Y-140840691D01*
X173819799Y-140726114D01*
X173760489Y-140623387D01*
X173676613Y-140539511D01*
X173573886Y-140480201D01*
X173459309Y-140449500D01*
X173340691Y-140449500D01*
X173226114Y-140480201D01*
X173226112Y-140480201D01*
X173226112Y-140480202D01*
X173123387Y-140539511D01*
X173123384Y-140539513D01*
X173039513Y-140623384D01*
X173039511Y-140623387D01*
X172980201Y-140726114D01*
X172949500Y-140840691D01*
X140300500Y-140840691D01*
X140300500Y-133145730D01*
X206117000Y-133145730D01*
X206117000Y-135254269D01*
X206119853Y-135284699D01*
X206119853Y-135284701D01*
X206164706Y-135412880D01*
X206164707Y-135412882D01*
X206245350Y-135522150D01*
X206354618Y-135602793D01*
X206397345Y-135617744D01*
X206482799Y-135647646D01*
X206513230Y-135650500D01*
X206513234Y-135650500D01*
X208621770Y-135650500D01*
X208652199Y-135647646D01*
X208652201Y-135647646D01*
X208716290Y-135625219D01*
X208780382Y-135602793D01*
X208889650Y-135522150D01*
X208970293Y-135412882D01*
X208992719Y-135348790D01*
X209015146Y-135284701D01*
X209015146Y-135284699D01*
X209018000Y-135254269D01*
X209018000Y-133145730D01*
X209015146Y-133115300D01*
X209015146Y-133115298D01*
X208970293Y-132987119D01*
X208970292Y-132987117D01*
X208889650Y-132877850D01*
X208780382Y-132797207D01*
X208780380Y-132797206D01*
X208652200Y-132752353D01*
X208621770Y-132749500D01*
X208621766Y-132749500D01*
X206513234Y-132749500D01*
X206513230Y-132749500D01*
X206482800Y-132752353D01*
X206482798Y-132752353D01*
X206354619Y-132797206D01*
X206354617Y-132797207D01*
X206245350Y-132877850D01*
X206164707Y-132987117D01*
X206164706Y-132987119D01*
X206119853Y-133115298D01*
X206119853Y-133115300D01*
X206117000Y-133145730D01*
X140300500Y-133145730D01*
X140300500Y-131714109D01*
X177194500Y-131714109D01*
X177194500Y-131845892D01*
X177228608Y-131973188D01*
X177261554Y-132030251D01*
X177294500Y-132087315D01*
X177387686Y-132180501D01*
X177501814Y-132246393D01*
X177629108Y-132280501D01*
X177629110Y-132280501D01*
X177760890Y-132280501D01*
X177760892Y-132280501D01*
X177888186Y-132246393D01*
X178002314Y-132180501D01*
X178095500Y-132087315D01*
X178161392Y-131973187D01*
X178195500Y-131845893D01*
X178195500Y-131714109D01*
X178161392Y-131586815D01*
X178095500Y-131472687D01*
X178002314Y-131379501D01*
X177945250Y-131346555D01*
X177888187Y-131313609D01*
X177824539Y-131296555D01*
X177760892Y-131279501D01*
X177629108Y-131279501D01*
X177501812Y-131313609D01*
X177387686Y-131379501D01*
X177387683Y-131379503D01*
X177294502Y-131472684D01*
X177294500Y-131472687D01*
X177228608Y-131586813D01*
X177194500Y-131714109D01*
X140300500Y-131714109D01*
X140300500Y-113878048D01*
X142139500Y-113878048D01*
X142139500Y-114121951D01*
X142166013Y-114323333D01*
X142171334Y-114363744D01*
X142171335Y-114363746D01*
X142234456Y-114599320D01*
X142234459Y-114599330D01*
X142327786Y-114824640D01*
X142327791Y-114824651D01*
X142449727Y-115035848D01*
X142449738Y-115035864D01*
X142598199Y-115229343D01*
X142598205Y-115229350D01*
X142770649Y-115401794D01*
X142770655Y-115401799D01*
X142964144Y-115550268D01*
X142964151Y-115550272D01*
X143175348Y-115672208D01*
X143175353Y-115672210D01*
X143175356Y-115672212D01*
X143400679Y-115765544D01*
X143636256Y-115828666D01*
X143878056Y-115860500D01*
X143878063Y-115860500D01*
X144121937Y-115860500D01*
X144121944Y-115860500D01*
X144363744Y-115828666D01*
X144599321Y-115765544D01*
X144824644Y-115672212D01*
X145035856Y-115550268D01*
X145229345Y-115401799D01*
X145401799Y-115229345D01*
X145550268Y-115035856D01*
X145672212Y-114824644D01*
X145765544Y-114599321D01*
X145828666Y-114363744D01*
X145860500Y-114121944D01*
X145860500Y-113878056D01*
X145860499Y-113878048D01*
X207139500Y-113878048D01*
X207139500Y-114121951D01*
X207166013Y-114323333D01*
X207171334Y-114363744D01*
X207171335Y-114363746D01*
X207234456Y-114599320D01*
X207234459Y-114599330D01*
X207327786Y-114824640D01*
X207327791Y-114824651D01*
X207449727Y-115035848D01*
X207449738Y-115035864D01*
X207598199Y-115229343D01*
X207598205Y-115229350D01*
X207770649Y-115401794D01*
X207770655Y-115401799D01*
X207964144Y-115550268D01*
X207964151Y-115550272D01*
X208175348Y-115672208D01*
X208175353Y-115672210D01*
X208175356Y-115672212D01*
X208400679Y-115765544D01*
X208636256Y-115828666D01*
X208878056Y-115860500D01*
X208878063Y-115860500D01*
X209121937Y-115860500D01*
X209121944Y-115860500D01*
X209363744Y-115828666D01*
X209599321Y-115765544D01*
X209824644Y-115672212D01*
X210035856Y-115550268D01*
X210229345Y-115401799D01*
X210401799Y-115229345D01*
X210550268Y-115035856D01*
X210672212Y-114824644D01*
X210765544Y-114599321D01*
X210828666Y-114363744D01*
X210860500Y-114121944D01*
X210860500Y-113878056D01*
X210828666Y-113636256D01*
X210765544Y-113400679D01*
X210672212Y-113175356D01*
X210672210Y-113175353D01*
X210672208Y-113175348D01*
X210550272Y-112964151D01*
X210550268Y-112964144D01*
X210401799Y-112770655D01*
X210401794Y-112770649D01*
X210229350Y-112598205D01*
X210229343Y-112598199D01*
X210035864Y-112449738D01*
X210035862Y-112449736D01*
X210035856Y-112449732D01*
X210035851Y-112449729D01*
X210035848Y-112449727D01*
X209824651Y-112327791D01*
X209824640Y-112327786D01*
X209599330Y-112234459D01*
X209599323Y-112234457D01*
X209599321Y-112234456D01*
X209363744Y-112171334D01*
X209323333Y-112166013D01*
X209121951Y-112139500D01*
X209121944Y-112139500D01*
X208878056Y-112139500D01*
X208878048Y-112139500D01*
X208647896Y-112169801D01*
X208636256Y-112171334D01*
X208400679Y-112234456D01*
X208400669Y-112234459D01*
X208175359Y-112327786D01*
X208175348Y-112327791D01*
X207964151Y-112449727D01*
X207964135Y-112449738D01*
X207770656Y-112598199D01*
X207770649Y-112598205D01*
X207598205Y-112770649D01*
X207598199Y-112770656D01*
X207449738Y-112964135D01*
X207449727Y-112964151D01*
X207327791Y-113175348D01*
X207327786Y-113175359D01*
X207234459Y-113400669D01*
X207234456Y-113400679D01*
X207171335Y-113636253D01*
X207171333Y-113636264D01*
X207139500Y-113878048D01*
X145860499Y-113878048D01*
X145828666Y-113636256D01*
X145765544Y-113400679D01*
X145672212Y-113175356D01*
X145672210Y-113175353D01*
X145672208Y-113175348D01*
X145550272Y-112964151D01*
X145550268Y-112964144D01*
X145401799Y-112770655D01*
X145401794Y-112770649D01*
X145229350Y-112598205D01*
X145229343Y-112598199D01*
X145035864Y-112449738D01*
X145035862Y-112449736D01*
X145035856Y-112449732D01*
X145035851Y-112449729D01*
X145035848Y-112449727D01*
X144824651Y-112327791D01*
X144824640Y-112327786D01*
X144599330Y-112234459D01*
X144599323Y-112234457D01*
X144599321Y-112234456D01*
X144363744Y-112171334D01*
X144323333Y-112166013D01*
X144121951Y-112139500D01*
X144121944Y-112139500D01*
X143878056Y-112139500D01*
X143878048Y-112139500D01*
X143647896Y-112169801D01*
X143636256Y-112171334D01*
X143400679Y-112234456D01*
X143400669Y-112234459D01*
X143175359Y-112327786D01*
X143175348Y-112327791D01*
X142964151Y-112449727D01*
X142964135Y-112449738D01*
X142770656Y-112598199D01*
X142770649Y-112598205D01*
X142598205Y-112770649D01*
X142598199Y-112770656D01*
X142449738Y-112964135D01*
X142449727Y-112964151D01*
X142327791Y-113175348D01*
X142327786Y-113175359D01*
X142234459Y-113400669D01*
X142234456Y-113400679D01*
X142171335Y-113636253D01*
X142171333Y-113636264D01*
X142139500Y-113878048D01*
X140300500Y-113878048D01*
X140300500Y-109424500D01*
X140320185Y-109357461D01*
X140372989Y-109311706D01*
X140424500Y-109300500D01*
X212575500Y-109300500D01*
X212642539Y-109320185D01*
G37*
%TD.AperFunction*%
%TD*%
M02*
