%TF.GenerationSoftware,KiCad,Pcbnew,9.0.6*%
%TF.CreationDate,2026-04-13T23:22:44+02:00*%
%TF.ProjectId,Boost converter,426f6f73-7420-4636-9f6e-766572746572,C*%
%TF.SameCoordinates,Original*%
%TF.FileFunction,Paste,Top*%
%TF.FilePolarity,Positive*%
%FSLAX46Y46*%
G04 Gerber Fmt 4.6, Leading zero omitted, Abs format (unit mm)*
G04 Created by KiCad (PCBNEW 9.0.6) date 2026-04-13 23:22:44*
%MOMM*%
%LPD*%
G01*
G04 APERTURE LIST*
G04 Aperture macros list*
%AMRoundRect*
0 Rectangle with rounded corners*
0 $1 Rounding radius*
0 $2 $3 $4 $5 $6 $7 $8 $9 X,Y pos of 4 corners*
0 Add a 4 corners polygon primitive as box body*
4,1,4,$2,$3,$4,$5,$6,$7,$8,$9,$2,$3,0*
0 Add four circle primitives for the rounded corners*
1,1,$1+$1,$2,$3*
1,1,$1+$1,$4,$5*
1,1,$1+$1,$6,$7*
1,1,$1+$1,$8,$9*
0 Add four rect primitives between the rounded corners*
20,1,$1+$1,$2,$3,$4,$5,0*
20,1,$1+$1,$4,$5,$6,$7,0*
20,1,$1+$1,$6,$7,$8,$9,0*
20,1,$1+$1,$8,$9,$2,$3,0*%
G04 Aperture macros list end*
%ADD10C,0.000000*%
%ADD11RoundRect,0.200000X0.200000X0.275000X-0.200000X0.275000X-0.200000X-0.275000X0.200000X-0.275000X0*%
%ADD12RoundRect,0.250000X0.475000X-0.250000X0.475000X0.250000X-0.475000X0.250000X-0.475000X-0.250000X0*%
%ADD13RoundRect,0.250000X-0.475000X0.250000X-0.475000X-0.250000X0.475000X-0.250000X0.475000X0.250000X0*%
%ADD14RoundRect,0.200000X-0.200000X-0.275000X0.200000X-0.275000X0.200000X0.275000X-0.200000X0.275000X0*%
%ADD15RoundRect,0.250000X-0.362500X-1.425000X0.362500X-1.425000X0.362500X1.425000X-0.362500X1.425000X0*%
%ADD16RoundRect,0.200000X-0.275000X0.200000X-0.275000X-0.200000X0.275000X-0.200000X0.275000X0.200000X0*%
%ADD17RoundRect,0.225000X-0.225000X-0.250000X0.225000X-0.250000X0.225000X0.250000X-0.225000X0.250000X0*%
%ADD18RoundRect,0.225000X0.225000X0.250000X-0.225000X0.250000X-0.225000X-0.250000X0.225000X-0.250000X0*%
%ADD19RoundRect,0.200000X0.275000X-0.200000X0.275000X0.200000X-0.275000X0.200000X-0.275000X-0.200000X0*%
%ADD20R,0.509999X0.860001*%
%ADD21RoundRect,0.466380X-1.634336X1.088220X-1.634336X-1.088220X1.634336X-1.088220X1.634336X1.088220X0*%
%ADD22R,1.422400X0.355600*%
%ADD23R,0.860001X0.509999*%
%ADD24RoundRect,0.466380X-1.088220X-1.634336X1.088220X-1.634336X1.088220X1.634336X-1.088220X1.634336X0*%
%ADD25RoundRect,0.466380X1.634336X-1.088220X1.634336X1.088220X-1.634336X1.088220X-1.634336X-1.088220X0*%
%ADD26RoundRect,0.250000X0.250000X0.475000X-0.250000X0.475000X-0.250000X-0.475000X0.250000X-0.475000X0*%
%ADD27RoundRect,0.250000X-0.650000X1.000000X-0.650000X-1.000000X0.650000X-1.000000X0.650000X1.000000X0*%
%ADD28RoundRect,0.250000X-0.250000X-0.475000X0.250000X-0.475000X0.250000X0.475000X-0.250000X0.475000X0*%
%ADD29R,0.558800X1.270000*%
%ADD30R,5.334000X5.588000*%
%ADD31R,6.350000X5.283200*%
G04 APERTURE END LIST*
D10*
%TO.C,Q4*%
G36*
X178724111Y-133680977D02*
G01*
X178733642Y-133683868D01*
X178742422Y-133688562D01*
X178750121Y-133694879D01*
X178756438Y-133702577D01*
X178761135Y-133711361D01*
X178764025Y-133720891D01*
X178765000Y-133730799D01*
X178765000Y-135109199D01*
X178764025Y-135119110D01*
X178761135Y-135128640D01*
X178756438Y-135137423D01*
X178750121Y-135145122D01*
X178742422Y-135151439D01*
X178733642Y-135156133D01*
X178724111Y-135159024D01*
X178714200Y-135159999D01*
X177545800Y-135159999D01*
X177535889Y-135159024D01*
X177526359Y-135156133D01*
X177517578Y-135151439D01*
X177509880Y-135145122D01*
X177503563Y-135137423D01*
X177498866Y-135128640D01*
X177495976Y-135119110D01*
X177495000Y-135109199D01*
X177495000Y-133730799D01*
X177495976Y-133720891D01*
X177498866Y-133711361D01*
X177503563Y-133702577D01*
X177509880Y-133694879D01*
X177517578Y-133688562D01*
X177526359Y-133683868D01*
X177535889Y-133680977D01*
X177545800Y-133679999D01*
X178714200Y-133679999D01*
X178724111Y-133680977D01*
G37*
G36*
X178724111Y-135360976D02*
G01*
X178733642Y-135363867D01*
X178742422Y-135368561D01*
X178750121Y-135374878D01*
X178756438Y-135382577D01*
X178761135Y-135391360D01*
X178764025Y-135400890D01*
X178765000Y-135410801D01*
X178765000Y-136789201D01*
X178764025Y-136799109D01*
X178761135Y-136808639D01*
X178756438Y-136817423D01*
X178750121Y-136825121D01*
X178742422Y-136831438D01*
X178733642Y-136836132D01*
X178724111Y-136839023D01*
X178714200Y-136840001D01*
X177545800Y-136840001D01*
X177535889Y-136839023D01*
X177526359Y-136836132D01*
X177517578Y-136831438D01*
X177509880Y-136825121D01*
X177503563Y-136817423D01*
X177498866Y-136808639D01*
X177495976Y-136799109D01*
X177495000Y-136789201D01*
X177495000Y-135410801D01*
X177495976Y-135400890D01*
X177498866Y-135391360D01*
X177503563Y-135382577D01*
X177509880Y-135374878D01*
X177517578Y-135368561D01*
X177526359Y-135363867D01*
X177535889Y-135360976D01*
X177545800Y-135360001D01*
X178714200Y-135360001D01*
X178724111Y-135360976D01*
G37*
G36*
X180194111Y-133680977D02*
G01*
X180203641Y-133683868D01*
X180212422Y-133688562D01*
X180220121Y-133694879D01*
X180226438Y-133702577D01*
X180231134Y-133711361D01*
X180234025Y-133720891D01*
X180235000Y-133730799D01*
X180235000Y-135109199D01*
X180234025Y-135119110D01*
X180231134Y-135128640D01*
X180226438Y-135137423D01*
X180220121Y-135145122D01*
X180212422Y-135151439D01*
X180203641Y-135156133D01*
X180194111Y-135159024D01*
X180184200Y-135159999D01*
X179015800Y-135159999D01*
X179005889Y-135159024D01*
X178996359Y-135156133D01*
X178987578Y-135151439D01*
X178979879Y-135145122D01*
X178973562Y-135137423D01*
X178968866Y-135128640D01*
X178965975Y-135119110D01*
X178965000Y-135109199D01*
X178965000Y-133730799D01*
X178965975Y-133720891D01*
X178968866Y-133711361D01*
X178973562Y-133702577D01*
X178979879Y-133694879D01*
X178987578Y-133688562D01*
X178996359Y-133683868D01*
X179005889Y-133680977D01*
X179015800Y-133679999D01*
X180184200Y-133679999D01*
X180194111Y-133680977D01*
G37*
G36*
X180194111Y-135360976D02*
G01*
X180203641Y-135363867D01*
X180212422Y-135368561D01*
X180220121Y-135374878D01*
X180226438Y-135382577D01*
X180231134Y-135391360D01*
X180234025Y-135400890D01*
X180235000Y-135410801D01*
X180235000Y-136789201D01*
X180234025Y-136799109D01*
X180231134Y-136808639D01*
X180226438Y-136817423D01*
X180220121Y-136825121D01*
X180212422Y-136831438D01*
X180203641Y-136836132D01*
X180194111Y-136839023D01*
X180184200Y-136840001D01*
X179015800Y-136840001D01*
X179005889Y-136839023D01*
X178996359Y-136836132D01*
X178987578Y-136831438D01*
X178979879Y-136825121D01*
X178973562Y-136817423D01*
X178968866Y-136808639D01*
X178965975Y-136799109D01*
X178965000Y-136789201D01*
X178965000Y-135410801D01*
X178965975Y-135400890D01*
X178968866Y-135391360D01*
X178973562Y-135382577D01*
X178979879Y-135374878D01*
X178987578Y-135368561D01*
X178996359Y-135363867D01*
X179005889Y-135360976D01*
X179015800Y-135360001D01*
X180184200Y-135360001D01*
X180194111Y-135360976D01*
G37*
G36*
X181664111Y-133680977D02*
G01*
X181673641Y-133683868D01*
X181682422Y-133688562D01*
X181690120Y-133694879D01*
X181696437Y-133702577D01*
X181701134Y-133711361D01*
X181704024Y-133720891D01*
X181705000Y-133730799D01*
X181705000Y-135109199D01*
X181704024Y-135119110D01*
X181701134Y-135128640D01*
X181696437Y-135137423D01*
X181690120Y-135145122D01*
X181682422Y-135151439D01*
X181673641Y-135156133D01*
X181664111Y-135159024D01*
X181654200Y-135159999D01*
X180485800Y-135159999D01*
X180475889Y-135159024D01*
X180466358Y-135156133D01*
X180457578Y-135151439D01*
X180449879Y-135145122D01*
X180443562Y-135137423D01*
X180438865Y-135128640D01*
X180435975Y-135119110D01*
X180435000Y-135109199D01*
X180435000Y-133730799D01*
X180435975Y-133720891D01*
X180438865Y-133711361D01*
X180443562Y-133702577D01*
X180449879Y-133694879D01*
X180457578Y-133688562D01*
X180466358Y-133683868D01*
X180475889Y-133680977D01*
X180485800Y-133679999D01*
X181654200Y-133679999D01*
X181664111Y-133680977D01*
G37*
G36*
X181664111Y-135360976D02*
G01*
X181673641Y-135363867D01*
X181682422Y-135368561D01*
X181690120Y-135374878D01*
X181696437Y-135382577D01*
X181701134Y-135391360D01*
X181704024Y-135400890D01*
X181705000Y-135410801D01*
X181705000Y-136789201D01*
X181704024Y-136799109D01*
X181701134Y-136808639D01*
X181696437Y-136817423D01*
X181690120Y-136825121D01*
X181682422Y-136831438D01*
X181673641Y-136836132D01*
X181664111Y-136839023D01*
X181654200Y-136840001D01*
X180485800Y-136840001D01*
X180475889Y-136839023D01*
X180466358Y-136836132D01*
X180457578Y-136831438D01*
X180449879Y-136825121D01*
X180443562Y-136817423D01*
X180438865Y-136808639D01*
X180435975Y-136799109D01*
X180435000Y-136789201D01*
X180435000Y-135410801D01*
X180435975Y-135400890D01*
X180438865Y-135391360D01*
X180443562Y-135382577D01*
X180449879Y-135374878D01*
X180457578Y-135368561D01*
X180466358Y-135363867D01*
X180475889Y-135360976D01*
X180485800Y-135360001D01*
X181654200Y-135360001D01*
X181664111Y-135360976D01*
G37*
%TO.C,U1*%
G36*
X166744800Y-143876500D02*
G01*
X165446200Y-143876500D01*
X165446200Y-142679500D01*
X166744800Y-142679500D01*
X166744800Y-143876500D01*
G37*
G36*
X166744800Y-145273500D02*
G01*
X165446200Y-145273500D01*
X165446200Y-144076500D01*
X166744800Y-144076500D01*
X166744800Y-145273500D01*
G37*
G36*
X166744800Y-146670500D02*
G01*
X165446200Y-146670500D01*
X165446200Y-145473500D01*
X166744800Y-145473500D01*
X166744800Y-146670500D01*
G37*
G36*
X168243400Y-143876500D02*
G01*
X166944800Y-143876500D01*
X166944800Y-142679500D01*
X168243400Y-142679500D01*
X168243400Y-143876500D01*
G37*
G36*
X168243400Y-145273500D02*
G01*
X166944800Y-145273500D01*
X166944800Y-144076500D01*
X168243400Y-144076500D01*
X168243400Y-145273500D01*
G37*
G36*
X168243400Y-146670500D02*
G01*
X166944800Y-146670500D01*
X166944800Y-145473500D01*
X168243400Y-145473500D01*
X168243400Y-146670500D01*
G37*
%TO.C,Q3*%
G36*
X184219110Y-138795976D02*
G01*
X184228640Y-138798866D01*
X184237423Y-138803563D01*
X184245122Y-138809880D01*
X184251439Y-138817578D01*
X184256133Y-138826359D01*
X184259024Y-138835889D01*
X184259999Y-138845800D01*
X184259999Y-140014200D01*
X184259024Y-140024111D01*
X184256133Y-140033642D01*
X184251439Y-140042422D01*
X184245122Y-140050121D01*
X184237423Y-140056438D01*
X184228640Y-140061135D01*
X184219110Y-140064025D01*
X184209199Y-140065000D01*
X182830799Y-140065000D01*
X182820891Y-140064025D01*
X182811361Y-140061135D01*
X182802577Y-140056438D01*
X182794879Y-140050121D01*
X182788562Y-140042422D01*
X182783868Y-140033642D01*
X182780977Y-140024111D01*
X182779999Y-140014200D01*
X182779999Y-138845800D01*
X182780977Y-138835889D01*
X182783868Y-138826359D01*
X182788562Y-138817578D01*
X182794879Y-138809880D01*
X182802577Y-138803563D01*
X182811361Y-138798866D01*
X182820891Y-138795976D01*
X182830799Y-138795000D01*
X184209199Y-138795000D01*
X184219110Y-138795976D01*
G37*
G36*
X184219110Y-140265975D02*
G01*
X184228640Y-140268866D01*
X184237423Y-140273562D01*
X184245122Y-140279879D01*
X184251439Y-140287578D01*
X184256133Y-140296359D01*
X184259024Y-140305889D01*
X184259999Y-140315800D01*
X184259999Y-141484200D01*
X184259024Y-141494111D01*
X184256133Y-141503641D01*
X184251439Y-141512422D01*
X184245122Y-141520121D01*
X184237423Y-141526438D01*
X184228640Y-141531134D01*
X184219110Y-141534025D01*
X184209199Y-141535000D01*
X182830799Y-141535000D01*
X182820891Y-141534025D01*
X182811361Y-141531134D01*
X182802577Y-141526438D01*
X182794879Y-141520121D01*
X182788562Y-141512422D01*
X182783868Y-141503641D01*
X182780977Y-141494111D01*
X182779999Y-141484200D01*
X182779999Y-140315800D01*
X182780977Y-140305889D01*
X182783868Y-140296359D01*
X182788562Y-140287578D01*
X182794879Y-140279879D01*
X182802577Y-140273562D01*
X182811361Y-140268866D01*
X182820891Y-140265975D01*
X182830799Y-140265000D01*
X184209199Y-140265000D01*
X184219110Y-140265975D01*
G37*
G36*
X184219110Y-141735975D02*
G01*
X184228640Y-141738865D01*
X184237423Y-141743562D01*
X184245122Y-141749879D01*
X184251439Y-141757578D01*
X184256133Y-141766358D01*
X184259024Y-141775889D01*
X184259999Y-141785800D01*
X184259999Y-142954200D01*
X184259024Y-142964111D01*
X184256133Y-142973641D01*
X184251439Y-142982422D01*
X184245122Y-142990120D01*
X184237423Y-142996437D01*
X184228640Y-143001134D01*
X184219110Y-143004024D01*
X184209199Y-143005000D01*
X182830799Y-143005000D01*
X182820891Y-143004024D01*
X182811361Y-143001134D01*
X182802577Y-142996437D01*
X182794879Y-142990120D01*
X182788562Y-142982422D01*
X182783868Y-142973641D01*
X182780977Y-142964111D01*
X182779999Y-142954200D01*
X182779999Y-141785800D01*
X182780977Y-141775889D01*
X182783868Y-141766358D01*
X182788562Y-141757578D01*
X182794879Y-141749879D01*
X182802577Y-141743562D01*
X182811361Y-141738865D01*
X182820891Y-141735975D01*
X182830799Y-141735000D01*
X184209199Y-141735000D01*
X184219110Y-141735975D01*
G37*
G36*
X185899109Y-138795976D02*
G01*
X185908639Y-138798866D01*
X185917423Y-138803563D01*
X185925121Y-138809880D01*
X185931438Y-138817578D01*
X185936132Y-138826359D01*
X185939023Y-138835889D01*
X185940001Y-138845800D01*
X185940001Y-140014200D01*
X185939023Y-140024111D01*
X185936132Y-140033642D01*
X185931438Y-140042422D01*
X185925121Y-140050121D01*
X185917423Y-140056438D01*
X185908639Y-140061135D01*
X185899109Y-140064025D01*
X185889201Y-140065000D01*
X184510801Y-140065000D01*
X184500890Y-140064025D01*
X184491360Y-140061135D01*
X184482577Y-140056438D01*
X184474878Y-140050121D01*
X184468561Y-140042422D01*
X184463867Y-140033642D01*
X184460976Y-140024111D01*
X184460001Y-140014200D01*
X184460001Y-138845800D01*
X184460976Y-138835889D01*
X184463867Y-138826359D01*
X184468561Y-138817578D01*
X184474878Y-138809880D01*
X184482577Y-138803563D01*
X184491360Y-138798866D01*
X184500890Y-138795976D01*
X184510801Y-138795000D01*
X185889201Y-138795000D01*
X185899109Y-138795976D01*
G37*
G36*
X185899109Y-140265975D02*
G01*
X185908639Y-140268866D01*
X185917423Y-140273562D01*
X185925121Y-140279879D01*
X185931438Y-140287578D01*
X185936132Y-140296359D01*
X185939023Y-140305889D01*
X185940001Y-140315800D01*
X185940001Y-141484200D01*
X185939023Y-141494111D01*
X185936132Y-141503641D01*
X185931438Y-141512422D01*
X185925121Y-141520121D01*
X185917423Y-141526438D01*
X185908639Y-141531134D01*
X185899109Y-141534025D01*
X185889201Y-141535000D01*
X184510801Y-141535000D01*
X184500890Y-141534025D01*
X184491360Y-141531134D01*
X184482577Y-141526438D01*
X184474878Y-141520121D01*
X184468561Y-141512422D01*
X184463867Y-141503641D01*
X184460976Y-141494111D01*
X184460001Y-141484200D01*
X184460001Y-140315800D01*
X184460976Y-140305889D01*
X184463867Y-140296359D01*
X184468561Y-140287578D01*
X184474878Y-140279879D01*
X184482577Y-140273562D01*
X184491360Y-140268866D01*
X184500890Y-140265975D01*
X184510801Y-140265000D01*
X185889201Y-140265000D01*
X185899109Y-140265975D01*
G37*
G36*
X185899109Y-141735975D02*
G01*
X185908639Y-141738865D01*
X185917423Y-141743562D01*
X185925121Y-141749879D01*
X185931438Y-141757578D01*
X185936132Y-141766358D01*
X185939023Y-141775889D01*
X185940001Y-141785800D01*
X185940001Y-142954200D01*
X185939023Y-142964111D01*
X185936132Y-142973641D01*
X185931438Y-142982422D01*
X185925121Y-142990120D01*
X185917423Y-142996437D01*
X185908639Y-143001134D01*
X185899109Y-143004024D01*
X185889201Y-143005000D01*
X184510801Y-143005000D01*
X184500890Y-143004024D01*
X184491360Y-143001134D01*
X184482577Y-142996437D01*
X184474878Y-142990120D01*
X184468561Y-142982422D01*
X184463867Y-142973641D01*
X184460976Y-142964111D01*
X184460001Y-142954200D01*
X184460001Y-141785800D01*
X184460976Y-141775889D01*
X184463867Y-141766358D01*
X184468561Y-141757578D01*
X184474878Y-141749879D01*
X184482577Y-141743562D01*
X184491360Y-141738865D01*
X184500890Y-141735975D01*
X184510801Y-141735000D01*
X185889201Y-141735000D01*
X185899109Y-141735975D01*
G37*
%TO.C,Q1*%
G36*
X175624111Y-140510977D02*
G01*
X175633642Y-140513868D01*
X175642422Y-140518562D01*
X175650121Y-140524879D01*
X175656438Y-140532577D01*
X175661135Y-140541361D01*
X175664025Y-140550891D01*
X175665000Y-140560799D01*
X175665000Y-141939199D01*
X175664025Y-141949110D01*
X175661135Y-141958640D01*
X175656438Y-141967423D01*
X175650121Y-141975122D01*
X175642422Y-141981439D01*
X175633642Y-141986133D01*
X175624111Y-141989024D01*
X175614200Y-141989999D01*
X174445800Y-141989999D01*
X174435889Y-141989024D01*
X174426359Y-141986133D01*
X174417578Y-141981439D01*
X174409880Y-141975122D01*
X174403563Y-141967423D01*
X174398866Y-141958640D01*
X174395976Y-141949110D01*
X174395000Y-141939199D01*
X174395000Y-140560799D01*
X174395976Y-140550891D01*
X174398866Y-140541361D01*
X174403563Y-140532577D01*
X174409880Y-140524879D01*
X174417578Y-140518562D01*
X174426359Y-140513868D01*
X174435889Y-140510977D01*
X174445800Y-140509999D01*
X175614200Y-140509999D01*
X175624111Y-140510977D01*
G37*
G36*
X175624111Y-142190976D02*
G01*
X175633642Y-142193867D01*
X175642422Y-142198561D01*
X175650121Y-142204878D01*
X175656438Y-142212577D01*
X175661135Y-142221360D01*
X175664025Y-142230890D01*
X175665000Y-142240801D01*
X175665000Y-143619201D01*
X175664025Y-143629109D01*
X175661135Y-143638639D01*
X175656438Y-143647423D01*
X175650121Y-143655121D01*
X175642422Y-143661438D01*
X175633642Y-143666132D01*
X175624111Y-143669023D01*
X175614200Y-143670001D01*
X174445800Y-143670001D01*
X174435889Y-143669023D01*
X174426359Y-143666132D01*
X174417578Y-143661438D01*
X174409880Y-143655121D01*
X174403563Y-143647423D01*
X174398866Y-143638639D01*
X174395976Y-143629109D01*
X174395000Y-143619201D01*
X174395000Y-142240801D01*
X174395976Y-142230890D01*
X174398866Y-142221360D01*
X174403563Y-142212577D01*
X174409880Y-142204878D01*
X174417578Y-142198561D01*
X174426359Y-142193867D01*
X174435889Y-142190976D01*
X174445800Y-142190001D01*
X175614200Y-142190001D01*
X175624111Y-142190976D01*
G37*
G36*
X177094111Y-140510977D02*
G01*
X177103641Y-140513868D01*
X177112422Y-140518562D01*
X177120121Y-140524879D01*
X177126438Y-140532577D01*
X177131134Y-140541361D01*
X177134025Y-140550891D01*
X177135000Y-140560799D01*
X177135000Y-141939199D01*
X177134025Y-141949110D01*
X177131134Y-141958640D01*
X177126438Y-141967423D01*
X177120121Y-141975122D01*
X177112422Y-141981439D01*
X177103641Y-141986133D01*
X177094111Y-141989024D01*
X177084200Y-141989999D01*
X175915800Y-141989999D01*
X175905889Y-141989024D01*
X175896359Y-141986133D01*
X175887578Y-141981439D01*
X175879879Y-141975122D01*
X175873562Y-141967423D01*
X175868866Y-141958640D01*
X175865975Y-141949110D01*
X175865000Y-141939199D01*
X175865000Y-140560799D01*
X175865975Y-140550891D01*
X175868866Y-140541361D01*
X175873562Y-140532577D01*
X175879879Y-140524879D01*
X175887578Y-140518562D01*
X175896359Y-140513868D01*
X175905889Y-140510977D01*
X175915800Y-140509999D01*
X177084200Y-140509999D01*
X177094111Y-140510977D01*
G37*
G36*
X177094111Y-142190976D02*
G01*
X177103641Y-142193867D01*
X177112422Y-142198561D01*
X177120121Y-142204878D01*
X177126438Y-142212577D01*
X177131134Y-142221360D01*
X177134025Y-142230890D01*
X177135000Y-142240801D01*
X177135000Y-143619201D01*
X177134025Y-143629109D01*
X177131134Y-143638639D01*
X177126438Y-143647423D01*
X177120121Y-143655121D01*
X177112422Y-143661438D01*
X177103641Y-143666132D01*
X177094111Y-143669023D01*
X177084200Y-143670001D01*
X175915800Y-143670001D01*
X175905889Y-143669023D01*
X175896359Y-143666132D01*
X175887578Y-143661438D01*
X175879879Y-143655121D01*
X175873562Y-143647423D01*
X175868866Y-143638639D01*
X175865975Y-143629109D01*
X175865000Y-143619201D01*
X175865000Y-142240801D01*
X175865975Y-142230890D01*
X175868866Y-142221360D01*
X175873562Y-142212577D01*
X175879879Y-142204878D01*
X175887578Y-142198561D01*
X175896359Y-142193867D01*
X175905889Y-142190976D01*
X175915800Y-142190001D01*
X177084200Y-142190001D01*
X177094111Y-142190976D01*
G37*
G36*
X178564111Y-140510977D02*
G01*
X178573641Y-140513868D01*
X178582422Y-140518562D01*
X178590120Y-140524879D01*
X178596437Y-140532577D01*
X178601134Y-140541361D01*
X178604024Y-140550891D01*
X178605000Y-140560799D01*
X178605000Y-141939199D01*
X178604024Y-141949110D01*
X178601134Y-141958640D01*
X178596437Y-141967423D01*
X178590120Y-141975122D01*
X178582422Y-141981439D01*
X178573641Y-141986133D01*
X178564111Y-141989024D01*
X178554200Y-141989999D01*
X177385800Y-141989999D01*
X177375889Y-141989024D01*
X177366358Y-141986133D01*
X177357578Y-141981439D01*
X177349879Y-141975122D01*
X177343562Y-141967423D01*
X177338865Y-141958640D01*
X177335975Y-141949110D01*
X177335000Y-141939199D01*
X177335000Y-140560799D01*
X177335975Y-140550891D01*
X177338865Y-140541361D01*
X177343562Y-140532577D01*
X177349879Y-140524879D01*
X177357578Y-140518562D01*
X177366358Y-140513868D01*
X177375889Y-140510977D01*
X177385800Y-140509999D01*
X178554200Y-140509999D01*
X178564111Y-140510977D01*
G37*
G36*
X178564111Y-142190976D02*
G01*
X178573641Y-142193867D01*
X178582422Y-142198561D01*
X178590120Y-142204878D01*
X178596437Y-142212577D01*
X178601134Y-142221360D01*
X178604024Y-142230890D01*
X178605000Y-142240801D01*
X178605000Y-143619201D01*
X178604024Y-143629109D01*
X178601134Y-143638639D01*
X178596437Y-143647423D01*
X178590120Y-143655121D01*
X178582422Y-143661438D01*
X178573641Y-143666132D01*
X178564111Y-143669023D01*
X178554200Y-143670001D01*
X177385800Y-143670001D01*
X177375889Y-143669023D01*
X177366358Y-143666132D01*
X177357578Y-143661438D01*
X177349879Y-143655121D01*
X177343562Y-143647423D01*
X177338865Y-143638639D01*
X177335975Y-143629109D01*
X177335000Y-143619201D01*
X177335000Y-142240801D01*
X177335975Y-142230890D01*
X177338865Y-142221360D01*
X177343562Y-142212577D01*
X177349879Y-142204878D01*
X177357578Y-142198561D01*
X177366358Y-142193867D01*
X177375889Y-142190976D01*
X177385800Y-142190001D01*
X178554200Y-142190001D01*
X178564111Y-142190976D01*
G37*
%TO.C,Q2*%
G36*
X186519110Y-132995976D02*
G01*
X186528640Y-132998866D01*
X186537423Y-133003563D01*
X186545122Y-133009880D01*
X186551439Y-133017578D01*
X186556133Y-133026359D01*
X186559024Y-133035889D01*
X186559999Y-133045800D01*
X186559999Y-134214200D01*
X186559024Y-134224111D01*
X186556133Y-134233642D01*
X186551439Y-134242422D01*
X186545122Y-134250121D01*
X186537423Y-134256438D01*
X186528640Y-134261135D01*
X186519110Y-134264025D01*
X186509199Y-134265000D01*
X185130799Y-134265000D01*
X185120891Y-134264025D01*
X185111361Y-134261135D01*
X185102577Y-134256438D01*
X185094879Y-134250121D01*
X185088562Y-134242422D01*
X185083868Y-134233642D01*
X185080977Y-134224111D01*
X185079999Y-134214200D01*
X185079999Y-133045800D01*
X185080977Y-133035889D01*
X185083868Y-133026359D01*
X185088562Y-133017578D01*
X185094879Y-133009880D01*
X185102577Y-133003563D01*
X185111361Y-132998866D01*
X185120891Y-132995976D01*
X185130799Y-132995000D01*
X186509199Y-132995000D01*
X186519110Y-132995976D01*
G37*
G36*
X186519110Y-134465975D02*
G01*
X186528640Y-134468866D01*
X186537423Y-134473562D01*
X186545122Y-134479879D01*
X186551439Y-134487578D01*
X186556133Y-134496359D01*
X186559024Y-134505889D01*
X186559999Y-134515800D01*
X186559999Y-135684200D01*
X186559024Y-135694111D01*
X186556133Y-135703641D01*
X186551439Y-135712422D01*
X186545122Y-135720121D01*
X186537423Y-135726438D01*
X186528640Y-135731134D01*
X186519110Y-135734025D01*
X186509199Y-135735000D01*
X185130799Y-135735000D01*
X185120891Y-135734025D01*
X185111361Y-135731134D01*
X185102577Y-135726438D01*
X185094879Y-135720121D01*
X185088562Y-135712422D01*
X185083868Y-135703641D01*
X185080977Y-135694111D01*
X185079999Y-135684200D01*
X185079999Y-134515800D01*
X185080977Y-134505889D01*
X185083868Y-134496359D01*
X185088562Y-134487578D01*
X185094879Y-134479879D01*
X185102577Y-134473562D01*
X185111361Y-134468866D01*
X185120891Y-134465975D01*
X185130799Y-134465000D01*
X186509199Y-134465000D01*
X186519110Y-134465975D01*
G37*
G36*
X186519110Y-135935975D02*
G01*
X186528640Y-135938865D01*
X186537423Y-135943562D01*
X186545122Y-135949879D01*
X186551439Y-135957578D01*
X186556133Y-135966358D01*
X186559024Y-135975889D01*
X186559999Y-135985800D01*
X186559999Y-137154200D01*
X186559024Y-137164111D01*
X186556133Y-137173641D01*
X186551439Y-137182422D01*
X186545122Y-137190120D01*
X186537423Y-137196437D01*
X186528640Y-137201134D01*
X186519110Y-137204024D01*
X186509199Y-137205000D01*
X185130799Y-137205000D01*
X185120891Y-137204024D01*
X185111361Y-137201134D01*
X185102577Y-137196437D01*
X185094879Y-137190120D01*
X185088562Y-137182422D01*
X185083868Y-137173641D01*
X185080977Y-137164111D01*
X185079999Y-137154200D01*
X185079999Y-135985800D01*
X185080977Y-135975889D01*
X185083868Y-135966358D01*
X185088562Y-135957578D01*
X185094879Y-135949879D01*
X185102577Y-135943562D01*
X185111361Y-135938865D01*
X185120891Y-135935975D01*
X185130799Y-135935000D01*
X186509199Y-135935000D01*
X186519110Y-135935975D01*
G37*
G36*
X188199109Y-132995976D02*
G01*
X188208639Y-132998866D01*
X188217423Y-133003563D01*
X188225121Y-133009880D01*
X188231438Y-133017578D01*
X188236132Y-133026359D01*
X188239023Y-133035889D01*
X188240001Y-133045800D01*
X188240001Y-134214200D01*
X188239023Y-134224111D01*
X188236132Y-134233642D01*
X188231438Y-134242422D01*
X188225121Y-134250121D01*
X188217423Y-134256438D01*
X188208639Y-134261135D01*
X188199109Y-134264025D01*
X188189201Y-134265000D01*
X186810801Y-134265000D01*
X186800890Y-134264025D01*
X186791360Y-134261135D01*
X186782577Y-134256438D01*
X186774878Y-134250121D01*
X186768561Y-134242422D01*
X186763867Y-134233642D01*
X186760976Y-134224111D01*
X186760001Y-134214200D01*
X186760001Y-133045800D01*
X186760976Y-133035889D01*
X186763867Y-133026359D01*
X186768561Y-133017578D01*
X186774878Y-133009880D01*
X186782577Y-133003563D01*
X186791360Y-132998866D01*
X186800890Y-132995976D01*
X186810801Y-132995000D01*
X188189201Y-132995000D01*
X188199109Y-132995976D01*
G37*
G36*
X188199109Y-134465975D02*
G01*
X188208639Y-134468866D01*
X188217423Y-134473562D01*
X188225121Y-134479879D01*
X188231438Y-134487578D01*
X188236132Y-134496359D01*
X188239023Y-134505889D01*
X188240001Y-134515800D01*
X188240001Y-135684200D01*
X188239023Y-135694111D01*
X188236132Y-135703641D01*
X188231438Y-135712422D01*
X188225121Y-135720121D01*
X188217423Y-135726438D01*
X188208639Y-135731134D01*
X188199109Y-135734025D01*
X188189201Y-135735000D01*
X186810801Y-135735000D01*
X186800890Y-135734025D01*
X186791360Y-135731134D01*
X186782577Y-135726438D01*
X186774878Y-135720121D01*
X186768561Y-135712422D01*
X186763867Y-135703641D01*
X186760976Y-135694111D01*
X186760001Y-135684200D01*
X186760001Y-134515800D01*
X186760976Y-134505889D01*
X186763867Y-134496359D01*
X186768561Y-134487578D01*
X186774878Y-134479879D01*
X186782577Y-134473562D01*
X186791360Y-134468866D01*
X186800890Y-134465975D01*
X186810801Y-134465000D01*
X188189201Y-134465000D01*
X188199109Y-134465975D01*
G37*
G36*
X188199109Y-135935975D02*
G01*
X188208639Y-135938865D01*
X188217423Y-135943562D01*
X188225121Y-135949879D01*
X188231438Y-135957578D01*
X188236132Y-135966358D01*
X188239023Y-135975889D01*
X188240001Y-135985800D01*
X188240001Y-137154200D01*
X188239023Y-137164111D01*
X188236132Y-137173641D01*
X188231438Y-137182422D01*
X188225121Y-137190120D01*
X188217423Y-137196437D01*
X188208639Y-137201134D01*
X188199109Y-137204024D01*
X188189201Y-137205000D01*
X186810801Y-137205000D01*
X186800890Y-137204024D01*
X186791360Y-137201134D01*
X186782577Y-137196437D01*
X186774878Y-137190120D01*
X186768561Y-137182422D01*
X186763867Y-137173641D01*
X186760976Y-137164111D01*
X186760001Y-137154200D01*
X186760001Y-135985800D01*
X186760976Y-135975889D01*
X186763867Y-135966358D01*
X186768561Y-135957578D01*
X186774878Y-135949879D01*
X186782577Y-135943562D01*
X186791360Y-135938865D01*
X186800890Y-135935975D01*
X186810801Y-135935000D01*
X188189201Y-135935000D01*
X188199109Y-135935975D01*
G37*
%TD*%
D11*
%TO.C,R14*%
X176325000Y-150600000D03*
X174675000Y-150600000D03*
%TD*%
D12*
%TO.C,C18*%
X197500000Y-132400000D03*
X197500000Y-130500000D03*
%TD*%
D13*
%TO.C,C16*%
X153800000Y-141550000D03*
X153800000Y-143450000D03*
%TD*%
D14*
%TO.C,R13*%
X174675000Y-149000000D03*
X176325000Y-149000000D03*
%TD*%
D15*
%TO.C,R5*%
X156037500Y-140250000D03*
X161962500Y-140250000D03*
%TD*%
D11*
%TO.C,R6*%
X163825000Y-155000000D03*
X162175000Y-155000000D03*
%TD*%
D12*
%TO.C,C15*%
X153800000Y-139950000D03*
X153800000Y-138050000D03*
%TD*%
D16*
%TO.C,R18*%
X178400000Y-147575000D03*
X178400000Y-149225000D03*
%TD*%
D14*
%TO.C,R11*%
X171375000Y-152500000D03*
X173025000Y-152500000D03*
%TD*%
D17*
%TO.C,C3*%
X160525000Y-146500000D03*
X162075000Y-146500000D03*
%TD*%
D18*
%TO.C,C1*%
X165500000Y-150000000D03*
X163950000Y-150000000D03*
%TD*%
D14*
%TO.C,R7*%
X160475000Y-148100000D03*
X162125000Y-148100000D03*
%TD*%
D13*
%TO.C,C4*%
X172400000Y-140850000D03*
X172400000Y-142750000D03*
%TD*%
D16*
%TO.C,R15*%
X187470000Y-144350000D03*
X187470000Y-146000000D03*
%TD*%
D12*
%TO.C,C19*%
X199500000Y-132400000D03*
X199500000Y-130500000D03*
%TD*%
D16*
%TO.C,R9*%
X185900000Y-145075000D03*
X185900000Y-146725000D03*
%TD*%
D12*
%TO.C,C9*%
X195500000Y-132450000D03*
X195500000Y-130550000D03*
%TD*%
D11*
%TO.C,R17*%
X185625000Y-148200000D03*
X183975000Y-148200000D03*
%TD*%
D14*
%TO.C,R8*%
X171550000Y-147000000D03*
X173200000Y-147000000D03*
%TD*%
%TO.C,R10*%
X174575000Y-147000000D03*
X176225000Y-147000000D03*
%TD*%
D19*
%TO.C,R2*%
X155600000Y-145725000D03*
X155600000Y-144075000D03*
%TD*%
D16*
%TO.C,R4*%
X162000000Y-142975000D03*
X162000000Y-144625000D03*
%TD*%
D20*
%TO.C,Q4*%
X181505000Y-131780001D03*
X180235000Y-131780001D03*
X178965000Y-131780001D03*
X177695000Y-131780001D03*
X177695000Y-137419999D03*
X178965000Y-137419999D03*
X180235000Y-137419999D03*
D21*
X179604279Y-135285399D03*
D20*
X181505000Y-137419999D03*
%TD*%
D12*
%TO.C,C14*%
X151800000Y-139950000D03*
X151800000Y-138050000D03*
%TD*%
D17*
%TO.C,C5*%
X171475000Y-145500000D03*
X173025000Y-145500000D03*
%TD*%
D22*
%TO.C,U1*%
X164000000Y-141750000D03*
X164000000Y-142400001D03*
X164000000Y-143049999D03*
X164000000Y-143700001D03*
X164000000Y-144349999D03*
X164000000Y-144999998D03*
X164000000Y-145649999D03*
X164000000Y-146299998D03*
X164000000Y-146949999D03*
X164000000Y-147599998D03*
X169689600Y-147600000D03*
X169689600Y-146950002D03*
X169689600Y-146300001D03*
X169689600Y-145650002D03*
X169689600Y-145000001D03*
X169689600Y-144350002D03*
X169689600Y-143700001D03*
X169689600Y-143050002D03*
X169689600Y-142400001D03*
X169689600Y-141750002D03*
%TD*%
D23*
%TO.C,Q3*%
X180880001Y-138995000D03*
X180880001Y-140265000D03*
X180880001Y-141535000D03*
X180880001Y-142805000D03*
X186519999Y-142805000D03*
X186519999Y-141535000D03*
X186519999Y-140265000D03*
D24*
X184385399Y-140895721D03*
D23*
X186519999Y-138995000D03*
%TD*%
D13*
%TO.C,C13*%
X151800000Y-141550000D03*
X151800000Y-143450000D03*
%TD*%
D20*
%TO.C,Q1*%
X174595000Y-145569999D03*
X175865000Y-145569999D03*
X177135000Y-145569999D03*
X178405000Y-145569999D03*
X178405000Y-139930001D03*
X177135000Y-139930001D03*
X175865000Y-139930001D03*
D25*
X176495721Y-142064601D03*
D20*
X174595000Y-139930001D03*
%TD*%
D16*
%TO.C,R16*%
X184100000Y-145075000D03*
X184100000Y-146725000D03*
%TD*%
D18*
%TO.C,C6*%
X169600000Y-149000000D03*
X168050000Y-149000000D03*
%TD*%
D12*
%TO.C,C2*%
X158600000Y-149150000D03*
X158600000Y-147250000D03*
%TD*%
D11*
%TO.C,R3*%
X160650000Y-155000000D03*
X159000000Y-155000000D03*
%TD*%
D26*
%TO.C,C8*%
X181250000Y-152050000D03*
X179350000Y-152050000D03*
%TD*%
D16*
%TO.C,R12*%
X189000000Y-144350000D03*
X189000000Y-146000000D03*
%TD*%
D23*
%TO.C,Q2*%
X183180001Y-133195000D03*
X183180001Y-134465000D03*
X183180001Y-135735000D03*
X183180001Y-137005000D03*
X188819999Y-137005000D03*
X188819999Y-135735000D03*
X188819999Y-134465000D03*
D24*
X186685399Y-135095721D03*
D23*
X188819999Y-133195000D03*
%TD*%
D27*
%TO.C,D1*%
X181250000Y-145400000D03*
X181250000Y-149400000D03*
%TD*%
D28*
%TO.C,C17*%
X152050000Y-146000000D03*
X153950000Y-146000000D03*
%TD*%
D12*
%TO.C,C11*%
X193500000Y-132450000D03*
X193500000Y-130550000D03*
%TD*%
D16*
%TO.C,R1*%
X157200000Y-143975000D03*
X157200000Y-145625000D03*
%TD*%
D12*
%TO.C,C7*%
X173000000Y-150750000D03*
X173000000Y-148850000D03*
%TD*%
D29*
%TO.C,MOSFET1*%
X161047500Y-153000000D03*
X162952500Y-153000000D03*
X162000000Y-150917200D03*
%TD*%
D30*
%TO.C,L1*%
X163184999Y-135161301D03*
X173614998Y-135161301D03*
D31*
X168400000Y-113086300D03*
%TD*%
D12*
%TO.C,C20*%
X201500000Y-132400000D03*
X201500000Y-130500000D03*
%TD*%
M02*
