%TF.GenerationSoftware,KiCad,Pcbnew,9.0.6*%
%TF.CreationDate,2026-01-24T10:26:07+01:00*%
%TF.ProjectId,Protection,50726f74-6563-4746-996f-6e2e6b696361,rev?*%
%TF.SameCoordinates,Original*%
%TF.FileFunction,Copper,L3,Inr*%
%TF.FilePolarity,Positive*%
%FSLAX46Y46*%
G04 Gerber Fmt 4.6, Leading zero omitted, Abs format (unit mm)*
G04 Created by KiCad (PCBNEW 9.0.6) date 2026-01-24 10:26:07*
%MOMM*%
%LPD*%
G01*
G04 APERTURE LIST*
G04 Aperture macros list*
%AMRoundRect*
0 Rectangle with rounded corners*
0 $1 Rounding radius*
0 $2 $3 $4 $5 $6 $7 $8 $9 X,Y pos of 4 corners*
0 Add a 4 corners polygon primitive as box body*
4,1,4,$2,$3,$4,$5,$6,$7,$8,$9,$2,$3,0*
0 Add four circle primitives for the rounded corners*
1,1,$1+$1,$2,$3*
1,1,$1+$1,$4,$5*
1,1,$1+$1,$6,$7*
1,1,$1+$1,$8,$9*
0 Add four rect primitives between the rounded corners*
20,1,$1+$1,$2,$3,$4,$5,0*
20,1,$1+$1,$4,$5,$6,$7,0*
20,1,$1+$1,$6,$7,$8,$9,0*
20,1,$1+$1,$8,$9,$2,$3,0*%
G04 Aperture macros list end*
%TA.AperFunction,ComponentPad*%
%ADD10RoundRect,0.250000X-0.750000X0.750000X-0.750000X-0.750000X0.750000X-0.750000X0.750000X0.750000X0*%
%TD*%
%TA.AperFunction,ComponentPad*%
%ADD11C,2.000000*%
%TD*%
%TA.AperFunction,ComponentPad*%
%ADD12RoundRect,0.250000X0.750000X0.750000X-0.750000X0.750000X-0.750000X-0.750000X0.750000X-0.750000X0*%
%TD*%
%TA.AperFunction,ComponentPad*%
%ADD13RoundRect,0.250001X-1.149999X1.149999X-1.149999X-1.149999X1.149999X-1.149999X1.149999X1.149999X0*%
%TD*%
%TA.AperFunction,ComponentPad*%
%ADD14C,2.800000*%
%TD*%
%TA.AperFunction,ComponentPad*%
%ADD15RoundRect,0.250000X0.750000X-0.750000X0.750000X0.750000X-0.750000X0.750000X-0.750000X-0.750000X0*%
%TD*%
%TA.AperFunction,ComponentPad*%
%ADD16R,1.700000X1.700000*%
%TD*%
%TA.AperFunction,ComponentPad*%
%ADD17C,1.700000*%
%TD*%
%TA.AperFunction,ViaPad*%
%ADD18C,0.800000*%
%TD*%
%TA.AperFunction,ViaPad*%
%ADD19C,0.500000*%
%TD*%
G04 APERTURE END LIST*
D10*
%TO.N,/OUT*%
%TO.C,C7*%
X121750000Y-101382323D03*
D11*
%TO.N,GND*%
X121750000Y-106382323D03*
%TD*%
D12*
%TO.N,/VIN*%
%TO.C,C4*%
X87040000Y-75850000D03*
D11*
%TO.N,GND*%
X82040000Y-75850000D03*
%TD*%
D13*
%TO.N,GND*%
%TO.C,J1*%
X119000000Y-59250000D03*
D14*
%TO.N,/VIN_74700*%
X119000000Y-64250000D03*
%TD*%
D15*
%TO.N,/VIN_74700*%
%TO.C,C1*%
X102300000Y-64000000D03*
D11*
%TO.N,GND*%
X102300000Y-59000000D03*
%TD*%
D13*
%TO.N,/OUT*%
%TO.C,J3*%
X108750000Y-101750000D03*
D14*
%TO.N,GND*%
X108750000Y-106750000D03*
%TD*%
D16*
%TO.N,GND*%
%TO.C,J2*%
X111240000Y-77500000D03*
D17*
%TO.N,Net-(J2-Pin_2)*%
X108700000Y-77500000D03*
%TD*%
D18*
%TO.N,GND*%
X82000000Y-74000000D03*
X87000000Y-59000000D03*
X113500000Y-77750000D03*
X126000000Y-74000000D03*
X124000000Y-60000000D03*
X130000000Y-68000000D03*
X83000000Y-98000000D03*
X122000000Y-78000000D03*
X85000000Y-59000000D03*
X81000000Y-55000000D03*
X130000000Y-62000000D03*
X83000000Y-100000000D03*
X134000000Y-64000000D03*
X95000000Y-106000000D03*
X126000000Y-62000000D03*
X101000000Y-96000000D03*
X91000000Y-102000000D03*
X128000000Y-72000000D03*
X93000000Y-106000000D03*
X83000000Y-96000000D03*
X89000000Y-57000000D03*
X81000000Y-61000000D03*
X120000000Y-72000000D03*
X103000000Y-110000000D03*
X83000000Y-94000000D03*
X83000000Y-59000000D03*
X121317500Y-59440000D03*
X126000000Y-56000000D03*
X113500000Y-78750000D03*
X114000000Y-74000000D03*
X83000000Y-63000000D03*
X126000000Y-76000000D03*
D19*
X101700000Y-90100000D03*
D18*
X102250000Y-56250000D03*
X101000000Y-108000000D03*
X87000000Y-102000000D03*
X83000000Y-57000000D03*
X124000000Y-78000000D03*
X132000000Y-68000000D03*
X108000000Y-72000000D03*
X97000000Y-112000000D03*
X114000000Y-70000000D03*
X120750000Y-108250000D03*
X110000000Y-72000000D03*
X85000000Y-102000000D03*
X118000000Y-74000000D03*
X126000000Y-64000000D03*
X97000000Y-102000000D03*
X128000000Y-70000000D03*
X116000000Y-70000000D03*
X93000000Y-104000000D03*
X124000000Y-64000000D03*
X134000000Y-62000000D03*
X97000000Y-104000000D03*
X83000000Y-92000000D03*
X87000000Y-98000000D03*
X81000000Y-59000000D03*
X95000000Y-102000000D03*
X89000000Y-59000000D03*
D19*
X101700000Y-89100000D03*
D18*
X99000000Y-102000000D03*
X132000000Y-110000000D03*
X130000000Y-70000000D03*
X91000000Y-98000000D03*
X126000000Y-72000000D03*
D19*
X88500000Y-93500000D03*
D18*
X81250000Y-86500000D03*
X121317500Y-60440000D03*
X122000000Y-70000000D03*
X93000000Y-102000000D03*
X81250000Y-84500000D03*
X128000000Y-66000000D03*
X93000000Y-96000000D03*
X128000000Y-76000000D03*
X110500000Y-57750000D03*
X101000000Y-110000000D03*
X122000000Y-72000000D03*
X99000000Y-110000000D03*
X131000000Y-110000000D03*
X134000000Y-58000000D03*
X85000000Y-94000000D03*
X120000000Y-76000000D03*
X111500000Y-57750000D03*
X97000000Y-96000000D03*
X126000000Y-66000000D03*
D19*
X105000000Y-94500000D03*
D18*
X126000000Y-70000000D03*
X85000000Y-100000000D03*
X128000000Y-68000000D03*
X103000000Y-100000000D03*
X95000000Y-100000000D03*
X89000000Y-98000000D03*
D19*
X92300000Y-62900000D03*
D18*
X85000000Y-61000000D03*
X97000000Y-110000000D03*
D19*
X108250000Y-84250000D03*
D18*
X81000000Y-98000000D03*
X124000000Y-74000000D03*
X103000000Y-108000000D03*
X112000000Y-70000000D03*
X134000000Y-76000000D03*
X128000000Y-64000000D03*
X122000000Y-74000000D03*
X97000000Y-106000000D03*
X128000000Y-60000000D03*
D19*
X83460000Y-82150000D03*
D18*
X110000000Y-74000000D03*
X126000000Y-60000000D03*
X112000000Y-74000000D03*
X85000000Y-96000000D03*
X83000000Y-74000000D03*
X132000000Y-76000000D03*
X116000000Y-78000000D03*
X89000000Y-63000000D03*
X134000000Y-70000000D03*
X130000000Y-72000000D03*
X85000000Y-92000000D03*
X83000000Y-61000000D03*
X116000000Y-72000000D03*
X103000000Y-106000000D03*
X93000000Y-108000000D03*
X130000000Y-64000000D03*
X83000000Y-90000000D03*
X99000000Y-100000000D03*
X101000000Y-104000000D03*
X97000000Y-100000000D03*
D19*
X91750000Y-57250000D03*
D18*
X87000000Y-100000000D03*
X87000000Y-57000000D03*
D19*
X101700000Y-91000000D03*
D18*
X120000000Y-70000000D03*
X124000000Y-76000000D03*
X134000000Y-56000000D03*
D19*
X93000000Y-62900000D03*
D18*
X83000000Y-102000000D03*
X81000000Y-96000000D03*
X122750000Y-108250000D03*
X112000000Y-72000000D03*
X120000000Y-78000000D03*
X101250000Y-56250000D03*
X132000000Y-74000000D03*
X81000000Y-100000000D03*
X101000000Y-98000000D03*
X99000000Y-98000000D03*
X118000000Y-72000000D03*
X118000000Y-78000000D03*
X132000000Y-78000000D03*
X95000000Y-96000000D03*
X85000000Y-57000000D03*
X124000000Y-68000000D03*
X111250000Y-106750000D03*
D19*
X99250000Y-91500000D03*
D18*
X97000000Y-98000000D03*
X87000000Y-92000000D03*
X114000000Y-72000000D03*
X126000000Y-58000000D03*
X130000000Y-66000000D03*
X93000000Y-100000000D03*
X132000000Y-60000000D03*
X132000000Y-64000000D03*
X108000000Y-74000000D03*
X113500000Y-76750000D03*
X116000000Y-74000000D03*
X132000000Y-66000000D03*
X85000000Y-98000000D03*
X116000000Y-76000000D03*
X95000000Y-112000000D03*
X87000000Y-94000000D03*
X124000000Y-62000000D03*
X83000000Y-55000000D03*
X89000000Y-100000000D03*
X95000000Y-110000000D03*
X132000000Y-56000000D03*
X130000000Y-78000000D03*
X81000000Y-102000000D03*
X87000000Y-96000000D03*
D19*
X93500000Y-60500000D03*
D18*
X101000000Y-102000000D03*
X118000000Y-76000000D03*
X99000000Y-112000000D03*
X110000000Y-70000000D03*
X87000000Y-63000000D03*
D19*
X100700000Y-89100000D03*
D18*
X134000000Y-72000000D03*
X111250000Y-107750000D03*
X121317500Y-58440000D03*
X124000000Y-56000000D03*
X87000000Y-55000000D03*
X108000000Y-70000000D03*
X89000000Y-96000000D03*
X128000000Y-56000000D03*
X128000000Y-62000000D03*
D19*
X97250000Y-94500000D03*
D18*
X126000000Y-78000000D03*
X103000000Y-112000000D03*
X93000000Y-98000000D03*
X93000000Y-112000000D03*
D19*
X115000000Y-105500000D03*
D18*
X134000000Y-78000000D03*
X99000000Y-108000000D03*
X85000000Y-90000000D03*
D19*
X105000000Y-82250000D03*
D18*
X132000000Y-62000000D03*
X124000000Y-58000000D03*
X130000000Y-56000000D03*
X89000000Y-102000000D03*
D19*
X107000000Y-92000000D03*
D18*
X134000000Y-60000000D03*
X89000000Y-61000000D03*
X134000000Y-66000000D03*
X91000000Y-100000000D03*
X111250000Y-105750000D03*
X99000000Y-106000000D03*
X130000000Y-110000000D03*
X130000000Y-60000000D03*
X103250000Y-56250000D03*
X124000000Y-66000000D03*
X103000000Y-98000000D03*
X130000000Y-58000000D03*
X95000000Y-104000000D03*
X128000000Y-74000000D03*
X85000000Y-63000000D03*
X126000000Y-68000000D03*
X132000000Y-72000000D03*
X118000000Y-70000000D03*
X103000000Y-104000000D03*
X91000000Y-96000000D03*
X132000000Y-70000000D03*
X101000000Y-112000000D03*
X87000000Y-90000000D03*
X81000000Y-63000000D03*
X93000000Y-110000000D03*
X95000000Y-98000000D03*
X130000000Y-74000000D03*
X124000000Y-72000000D03*
X112500000Y-57750000D03*
D19*
X101750000Y-81500000D03*
D18*
X99000000Y-96000000D03*
X81000000Y-74000000D03*
X85000000Y-55000000D03*
X81000000Y-92000000D03*
X101000000Y-106000000D03*
X89000000Y-55000000D03*
X122000000Y-76000000D03*
X120000000Y-74000000D03*
X124000000Y-70000000D03*
X81000000Y-57000000D03*
X95000000Y-108000000D03*
X132000000Y-58000000D03*
X128000000Y-78000000D03*
D19*
X100700000Y-90100000D03*
D18*
X121750000Y-108250000D03*
X101000000Y-100000000D03*
X128000000Y-58000000D03*
X81250000Y-85500000D03*
X134000000Y-68000000D03*
X99000000Y-104000000D03*
X103000000Y-102000000D03*
X87000000Y-61000000D03*
X81000000Y-94000000D03*
D19*
X100700000Y-91000000D03*
D18*
X81000000Y-90000000D03*
X97000000Y-108000000D03*
X134000000Y-74000000D03*
X130000000Y-76000000D03*
D19*
%TO.N,Net-(J2-Pin_2)*%
X109987239Y-76449288D03*
X108500000Y-88250000D03*
%TO.N,Net-(R5-Pad2)*%
X94000000Y-90876000D03*
X94000000Y-89750000D03*
%TD*%
%TA.AperFunction,Conductor*%
%TO.N,GND*%
G36*
X134642539Y-53320185D02*
G01*
X134688294Y-53372989D01*
X134699500Y-53424500D01*
X134699500Y-113575500D01*
X134679815Y-113642539D01*
X134627011Y-113688294D01*
X134575500Y-113699500D01*
X79424500Y-113699500D01*
X79357461Y-113679815D01*
X79311706Y-113627011D01*
X79300500Y-113575500D01*
X79300500Y-106625466D01*
X106850000Y-106625466D01*
X106850000Y-106874533D01*
X106882508Y-107121463D01*
X106946973Y-107362049D01*
X107042283Y-107592148D01*
X107042288Y-107592159D01*
X107166813Y-107807841D01*
X107166819Y-107807849D01*
X107241400Y-107905045D01*
X108148958Y-106997487D01*
X108173978Y-107057890D01*
X108245112Y-107164351D01*
X108335649Y-107254888D01*
X108442110Y-107326022D01*
X108502511Y-107351041D01*
X107594953Y-108258598D01*
X107692150Y-108333180D01*
X107692158Y-108333186D01*
X107907840Y-108457711D01*
X107907851Y-108457716D01*
X108137950Y-108553026D01*
X108378536Y-108617491D01*
X108625466Y-108650000D01*
X108874534Y-108650000D01*
X109121463Y-108617491D01*
X109362049Y-108553026D01*
X109592148Y-108457716D01*
X109592159Y-108457711D01*
X109807855Y-108333178D01*
X109905045Y-108258600D01*
X109905045Y-108258597D01*
X108997488Y-107351041D01*
X109057890Y-107326022D01*
X109164351Y-107254888D01*
X109254888Y-107164351D01*
X109326022Y-107057890D01*
X109351041Y-106997489D01*
X110258597Y-107905045D01*
X110258600Y-107905045D01*
X110333178Y-107807855D01*
X110457711Y-107592159D01*
X110457719Y-107592143D01*
X110491632Y-107510270D01*
X110491632Y-107510269D01*
X110553026Y-107362049D01*
X110617491Y-107121463D01*
X110650000Y-106874533D01*
X110650000Y-106625466D01*
X110617491Y-106378534D01*
X110594168Y-106291491D01*
X110586874Y-106264270D01*
X120250000Y-106264270D01*
X120250000Y-106500375D01*
X120286934Y-106733570D01*
X120359897Y-106958125D01*
X120467087Y-107168497D01*
X120527338Y-107251427D01*
X120527340Y-107251428D01*
X121267037Y-106511731D01*
X121284075Y-106575316D01*
X121349901Y-106689330D01*
X121442993Y-106782422D01*
X121557007Y-106848248D01*
X121620590Y-106865285D01*
X120880893Y-107604981D01*
X120963828Y-107665237D01*
X121174197Y-107772425D01*
X121398752Y-107845388D01*
X121398751Y-107845388D01*
X121631948Y-107882323D01*
X121868052Y-107882323D01*
X122101247Y-107845388D01*
X122325802Y-107772425D01*
X122536163Y-107665241D01*
X122536169Y-107665237D01*
X122619104Y-107604981D01*
X122619105Y-107604981D01*
X121879408Y-106865285D01*
X121942993Y-106848248D01*
X122057007Y-106782422D01*
X122150099Y-106689330D01*
X122215925Y-106575316D01*
X122232962Y-106511731D01*
X122972658Y-107251428D01*
X122972658Y-107251427D01*
X123032914Y-107168492D01*
X123032918Y-107168486D01*
X123140102Y-106958125D01*
X123213065Y-106733570D01*
X123250000Y-106500375D01*
X123250000Y-106264270D01*
X123213065Y-106031075D01*
X123140102Y-105806520D01*
X123032914Y-105596151D01*
X122972658Y-105513217D01*
X122972658Y-105513216D01*
X122232962Y-106252913D01*
X122215925Y-106189330D01*
X122150099Y-106075316D01*
X122057007Y-105982224D01*
X121942993Y-105916398D01*
X121879409Y-105899360D01*
X122619105Y-105159663D01*
X122619104Y-105159661D01*
X122536174Y-105099410D01*
X122325802Y-104992220D01*
X122101247Y-104919257D01*
X122101248Y-104919257D01*
X121868052Y-104882323D01*
X121631948Y-104882323D01*
X121398752Y-104919257D01*
X121174197Y-104992220D01*
X120963830Y-105099407D01*
X120880894Y-105159663D01*
X121620591Y-105899360D01*
X121557007Y-105916398D01*
X121442993Y-105982224D01*
X121349901Y-106075316D01*
X121284075Y-106189330D01*
X121267037Y-106252914D01*
X120527340Y-105513217D01*
X120467084Y-105596153D01*
X120359897Y-105806520D01*
X120286934Y-106031075D01*
X120250000Y-106264270D01*
X110586874Y-106264270D01*
X110553026Y-106137950D01*
X110457716Y-105907851D01*
X110457711Y-105907840D01*
X110333186Y-105692158D01*
X110333180Y-105692150D01*
X110258598Y-105594953D01*
X109351041Y-106502510D01*
X109326022Y-106442110D01*
X109254888Y-106335649D01*
X109164351Y-106245112D01*
X109057890Y-106173978D01*
X108997487Y-106148957D01*
X109905045Y-105241400D01*
X109807849Y-105166819D01*
X109807841Y-105166813D01*
X109592159Y-105042288D01*
X109592148Y-105042283D01*
X109362049Y-104946973D01*
X109121463Y-104882508D01*
X108874534Y-104850000D01*
X108625466Y-104850000D01*
X108378536Y-104882508D01*
X108137950Y-104946973D01*
X107907851Y-105042283D01*
X107907847Y-105042285D01*
X107692143Y-105166823D01*
X107594953Y-105241399D01*
X107594953Y-105241400D01*
X108502511Y-106148958D01*
X108442110Y-106173978D01*
X108335649Y-106245112D01*
X108245112Y-106335649D01*
X108173978Y-106442110D01*
X108148958Y-106502511D01*
X107241400Y-105594953D01*
X107241399Y-105594953D01*
X107166823Y-105692143D01*
X107042285Y-105907847D01*
X107042283Y-105907851D01*
X106946973Y-106137950D01*
X106882508Y-106378536D01*
X106850000Y-106625466D01*
X79300500Y-106625466D01*
X79300500Y-100549984D01*
X106849500Y-100549984D01*
X106849500Y-102950015D01*
X106860000Y-103052795D01*
X106860001Y-103052796D01*
X106915186Y-103219335D01*
X106915187Y-103219337D01*
X107007286Y-103368651D01*
X107007289Y-103368655D01*
X107131344Y-103492710D01*
X107131348Y-103492713D01*
X107280662Y-103584812D01*
X107280664Y-103584813D01*
X107280666Y-103584814D01*
X107447203Y-103639999D01*
X107549992Y-103650500D01*
X107549997Y-103650500D01*
X109950003Y-103650500D01*
X109950008Y-103650500D01*
X110052797Y-103639999D01*
X110219334Y-103584814D01*
X110368655Y-103492711D01*
X110492711Y-103368655D01*
X110584814Y-103219334D01*
X110639999Y-103052797D01*
X110650500Y-102950008D01*
X110650500Y-100582306D01*
X120249500Y-100582306D01*
X120249500Y-102182324D01*
X120249501Y-102182341D01*
X120260000Y-102285119D01*
X120260001Y-102285122D01*
X120315185Y-102451654D01*
X120315186Y-102451657D01*
X120407288Y-102600979D01*
X120531344Y-102725035D01*
X120680666Y-102817137D01*
X120847203Y-102872322D01*
X120949991Y-102882823D01*
X122550008Y-102882822D01*
X122652797Y-102872322D01*
X122819334Y-102817137D01*
X122968656Y-102725035D01*
X123092712Y-102600979D01*
X123184814Y-102451657D01*
X123239999Y-102285120D01*
X123250500Y-102182332D01*
X123250499Y-100582315D01*
X123239999Y-100479526D01*
X123184814Y-100312989D01*
X123092712Y-100163667D01*
X122968656Y-100039611D01*
X122819334Y-99947509D01*
X122652797Y-99892324D01*
X122652795Y-99892323D01*
X122550010Y-99881823D01*
X120949998Y-99881823D01*
X120949981Y-99881824D01*
X120847203Y-99892323D01*
X120847200Y-99892324D01*
X120680668Y-99947508D01*
X120680663Y-99947510D01*
X120531342Y-100039612D01*
X120407289Y-100163665D01*
X120315187Y-100312986D01*
X120315186Y-100312989D01*
X120260001Y-100479526D01*
X120260001Y-100479527D01*
X120260000Y-100479527D01*
X120249500Y-100582306D01*
X110650500Y-100582306D01*
X110650500Y-100549992D01*
X110639999Y-100447203D01*
X110584814Y-100280666D01*
X110512646Y-100163665D01*
X110492713Y-100131348D01*
X110492710Y-100131344D01*
X110368655Y-100007289D01*
X110368651Y-100007286D01*
X110219337Y-99915187D01*
X110219335Y-99915186D01*
X110118651Y-99881823D01*
X110052797Y-99860001D01*
X110052795Y-99860000D01*
X109950015Y-99849500D01*
X109950008Y-99849500D01*
X107549992Y-99849500D01*
X107549984Y-99849500D01*
X107447204Y-99860000D01*
X107447203Y-99860001D01*
X107280664Y-99915186D01*
X107280662Y-99915187D01*
X107131348Y-100007286D01*
X107131344Y-100007289D01*
X107007289Y-100131344D01*
X107007286Y-100131348D01*
X106915187Y-100280662D01*
X106915186Y-100280664D01*
X106860001Y-100447203D01*
X106860000Y-100447204D01*
X106849500Y-100549984D01*
X79300500Y-100549984D01*
X79300500Y-89823920D01*
X93249499Y-89823920D01*
X93278340Y-89968907D01*
X93278343Y-89968917D01*
X93334912Y-90105488D01*
X93334919Y-90105501D01*
X93417048Y-90228415D01*
X93420914Y-90233126D01*
X93419049Y-90234656D01*
X93447436Y-90286642D01*
X93442452Y-90356334D01*
X93419640Y-90391828D01*
X93420914Y-90392874D01*
X93417048Y-90397584D01*
X93334919Y-90520498D01*
X93334912Y-90520511D01*
X93278343Y-90657082D01*
X93278340Y-90657092D01*
X93249500Y-90802079D01*
X93249500Y-90802082D01*
X93249500Y-90949918D01*
X93249500Y-90949920D01*
X93249499Y-90949920D01*
X93278340Y-91094907D01*
X93278343Y-91094917D01*
X93334912Y-91231488D01*
X93334919Y-91231501D01*
X93417048Y-91354415D01*
X93417051Y-91354419D01*
X93521580Y-91458948D01*
X93521584Y-91458951D01*
X93644498Y-91541080D01*
X93644511Y-91541087D01*
X93781082Y-91597656D01*
X93781087Y-91597658D01*
X93781091Y-91597658D01*
X93781092Y-91597659D01*
X93926079Y-91626500D01*
X93926082Y-91626500D01*
X94073920Y-91626500D01*
X94171462Y-91607096D01*
X94218913Y-91597658D01*
X94355495Y-91541084D01*
X94478416Y-91458951D01*
X94582951Y-91354416D01*
X94665084Y-91231495D01*
X94721658Y-91094913D01*
X94750500Y-90949918D01*
X94750500Y-90802082D01*
X94750500Y-90802079D01*
X94721659Y-90657092D01*
X94721658Y-90657091D01*
X94721658Y-90657087D01*
X94721656Y-90657082D01*
X94665087Y-90520511D01*
X94665080Y-90520498D01*
X94582951Y-90397584D01*
X94579086Y-90392874D01*
X94580957Y-90391337D01*
X94552574Y-90339408D01*
X94557529Y-90269714D01*
X94580367Y-90234177D01*
X94579086Y-90233126D01*
X94582946Y-90228420D01*
X94582951Y-90228416D01*
X94665084Y-90105495D01*
X94721658Y-89968913D01*
X94750500Y-89823918D01*
X94750500Y-89676082D01*
X94750500Y-89676079D01*
X94721659Y-89531092D01*
X94721658Y-89531091D01*
X94721658Y-89531087D01*
X94721656Y-89531082D01*
X94665087Y-89394511D01*
X94665080Y-89394498D01*
X94582951Y-89271584D01*
X94582948Y-89271580D01*
X94478419Y-89167051D01*
X94478415Y-89167048D01*
X94355501Y-89084919D01*
X94355488Y-89084912D01*
X94218917Y-89028343D01*
X94218907Y-89028340D01*
X94073920Y-88999500D01*
X94073918Y-88999500D01*
X93926082Y-88999500D01*
X93926080Y-88999500D01*
X93781092Y-89028340D01*
X93781082Y-89028343D01*
X93644511Y-89084912D01*
X93644498Y-89084919D01*
X93521584Y-89167048D01*
X93521580Y-89167051D01*
X93417051Y-89271580D01*
X93417048Y-89271584D01*
X93334919Y-89394498D01*
X93334912Y-89394511D01*
X93278343Y-89531082D01*
X93278340Y-89531092D01*
X93249500Y-89676079D01*
X93249500Y-89676082D01*
X93249500Y-89823918D01*
X93249500Y-89823920D01*
X93249499Y-89823920D01*
X79300500Y-89823920D01*
X79300500Y-88323920D01*
X107749499Y-88323920D01*
X107778340Y-88468907D01*
X107778343Y-88468917D01*
X107834912Y-88605488D01*
X107834919Y-88605501D01*
X107917048Y-88728415D01*
X107917051Y-88728419D01*
X108021580Y-88832948D01*
X108021584Y-88832951D01*
X108144498Y-88915080D01*
X108144511Y-88915087D01*
X108281082Y-88971656D01*
X108281087Y-88971658D01*
X108281091Y-88971658D01*
X108281092Y-88971659D01*
X108426079Y-89000500D01*
X108426082Y-89000500D01*
X108573920Y-89000500D01*
X108671462Y-88981096D01*
X108718913Y-88971658D01*
X108855495Y-88915084D01*
X108978416Y-88832951D01*
X109082951Y-88728416D01*
X109165084Y-88605495D01*
X109221658Y-88468913D01*
X109250500Y-88323918D01*
X109250500Y-88176082D01*
X109250500Y-88176079D01*
X109221659Y-88031092D01*
X109221658Y-88031091D01*
X109221658Y-88031087D01*
X109221656Y-88031082D01*
X109165087Y-87894511D01*
X109165080Y-87894498D01*
X109082951Y-87771584D01*
X109082948Y-87771580D01*
X108978419Y-87667051D01*
X108978415Y-87667048D01*
X108855501Y-87584919D01*
X108855488Y-87584912D01*
X108718917Y-87528343D01*
X108718907Y-87528340D01*
X108573920Y-87499500D01*
X108573918Y-87499500D01*
X108426082Y-87499500D01*
X108426080Y-87499500D01*
X108281092Y-87528340D01*
X108281082Y-87528343D01*
X108144511Y-87584912D01*
X108144498Y-87584919D01*
X108021584Y-87667048D01*
X108021580Y-87667051D01*
X107917051Y-87771580D01*
X107917048Y-87771584D01*
X107834919Y-87894498D01*
X107834912Y-87894511D01*
X107778343Y-88031082D01*
X107778340Y-88031092D01*
X107749500Y-88176079D01*
X107749500Y-88176082D01*
X107749500Y-88323918D01*
X107749500Y-88323920D01*
X107749499Y-88323920D01*
X79300500Y-88323920D01*
X79300500Y-77393713D01*
X107349500Y-77393713D01*
X107349500Y-77606286D01*
X107382753Y-77816239D01*
X107448444Y-78018414D01*
X107544951Y-78207820D01*
X107669890Y-78379786D01*
X107820213Y-78530109D01*
X107992179Y-78655048D01*
X107992181Y-78655049D01*
X107992184Y-78655051D01*
X108181588Y-78751557D01*
X108383757Y-78817246D01*
X108593713Y-78850500D01*
X108593714Y-78850500D01*
X108806286Y-78850500D01*
X108806287Y-78850500D01*
X109016243Y-78817246D01*
X109218412Y-78751557D01*
X109407816Y-78655051D01*
X109494478Y-78592088D01*
X109579784Y-78530110D01*
X109579784Y-78530109D01*
X109579792Y-78530104D01*
X109693717Y-78416178D01*
X109755036Y-78382696D01*
X109824728Y-78387680D01*
X109880662Y-78429551D01*
X109897577Y-78460528D01*
X109946646Y-78592088D01*
X109946649Y-78592093D01*
X110032809Y-78707187D01*
X110032812Y-78707190D01*
X110147906Y-78793350D01*
X110147913Y-78793354D01*
X110282620Y-78843596D01*
X110282627Y-78843598D01*
X110342155Y-78849999D01*
X110342172Y-78850000D01*
X110990000Y-78850000D01*
X110990000Y-77933012D01*
X111047007Y-77965925D01*
X111174174Y-78000000D01*
X111305826Y-78000000D01*
X111432993Y-77965925D01*
X111490000Y-77933012D01*
X111490000Y-78850000D01*
X112137828Y-78850000D01*
X112137844Y-78849999D01*
X112197372Y-78843598D01*
X112197379Y-78843596D01*
X112332086Y-78793354D01*
X112332093Y-78793350D01*
X112447187Y-78707190D01*
X112447190Y-78707187D01*
X112533350Y-78592093D01*
X112533354Y-78592086D01*
X112583596Y-78457379D01*
X112583598Y-78457372D01*
X112589999Y-78397844D01*
X112590000Y-78397827D01*
X112590000Y-77750000D01*
X111673012Y-77750000D01*
X111705925Y-77692993D01*
X111740000Y-77565826D01*
X111740000Y-77434174D01*
X111705925Y-77307007D01*
X111673012Y-77250000D01*
X112590000Y-77250000D01*
X112590000Y-76602172D01*
X112589999Y-76602155D01*
X112583598Y-76542627D01*
X112583596Y-76542620D01*
X112533354Y-76407913D01*
X112533350Y-76407906D01*
X112447190Y-76292812D01*
X112447187Y-76292809D01*
X112332093Y-76206649D01*
X112332086Y-76206645D01*
X112197379Y-76156403D01*
X112197372Y-76156401D01*
X112137844Y-76150000D01*
X111490000Y-76150000D01*
X111490000Y-77066988D01*
X111432993Y-77034075D01*
X111305826Y-77000000D01*
X111174174Y-77000000D01*
X111047007Y-77034075D01*
X110990000Y-77066988D01*
X110990000Y-76150000D01*
X110756159Y-76150000D01*
X110689120Y-76130315D01*
X110653057Y-76094891D01*
X110570190Y-75970871D01*
X110465658Y-75866339D01*
X110465654Y-75866336D01*
X110342740Y-75784207D01*
X110342727Y-75784200D01*
X110206156Y-75727631D01*
X110206146Y-75727628D01*
X110061159Y-75698788D01*
X110061157Y-75698788D01*
X109913321Y-75698788D01*
X109913319Y-75698788D01*
X109768331Y-75727628D01*
X109768321Y-75727631D01*
X109631750Y-75784200D01*
X109631737Y-75784207D01*
X109508823Y-75866336D01*
X109508819Y-75866339D01*
X109404290Y-75970868D01*
X109404287Y-75970872D01*
X109322158Y-76093786D01*
X109322150Y-76093801D01*
X109297252Y-76153910D01*
X109253411Y-76208313D01*
X109187116Y-76230377D01*
X109144376Y-76224387D01*
X109016243Y-76182754D01*
X109016241Y-76182753D01*
X109016240Y-76182753D01*
X108853684Y-76157007D01*
X108806287Y-76149500D01*
X108593713Y-76149500D01*
X108546316Y-76157007D01*
X108383760Y-76182753D01*
X108181585Y-76248444D01*
X107992179Y-76344951D01*
X107820213Y-76469890D01*
X107669890Y-76620213D01*
X107544951Y-76792179D01*
X107448444Y-76981585D01*
X107382753Y-77183760D01*
X107349500Y-77393713D01*
X79300500Y-77393713D01*
X79300500Y-75731947D01*
X80540000Y-75731947D01*
X80540000Y-75968052D01*
X80576934Y-76201247D01*
X80649897Y-76425802D01*
X80757087Y-76636174D01*
X80817338Y-76719104D01*
X80817340Y-76719105D01*
X81557037Y-75979408D01*
X81574075Y-76042993D01*
X81639901Y-76157007D01*
X81732993Y-76250099D01*
X81847007Y-76315925D01*
X81910590Y-76332962D01*
X81170893Y-77072658D01*
X81253828Y-77132914D01*
X81464197Y-77240102D01*
X81688752Y-77313065D01*
X81688751Y-77313065D01*
X81921948Y-77350000D01*
X82158052Y-77350000D01*
X82391247Y-77313065D01*
X82615802Y-77240102D01*
X82826163Y-77132918D01*
X82826169Y-77132914D01*
X82909104Y-77072658D01*
X82909105Y-77072658D01*
X82169408Y-76332962D01*
X82232993Y-76315925D01*
X82347007Y-76250099D01*
X82440099Y-76157007D01*
X82505925Y-76042993D01*
X82522962Y-75979408D01*
X83262658Y-76719105D01*
X83262658Y-76719104D01*
X83322914Y-76636169D01*
X83322918Y-76636163D01*
X83430102Y-76425802D01*
X83503065Y-76201247D01*
X83540000Y-75968052D01*
X83540000Y-75731947D01*
X83503065Y-75498752D01*
X83430102Y-75274197D01*
X83342939Y-75103129D01*
X83342938Y-75103127D01*
X83322916Y-75063830D01*
X83312855Y-75049983D01*
X85539500Y-75049983D01*
X85539500Y-76650001D01*
X85539501Y-76650018D01*
X85550000Y-76752796D01*
X85550001Y-76752799D01*
X85605185Y-76919331D01*
X85605187Y-76919336D01*
X85640069Y-76975888D01*
X85697288Y-77068656D01*
X85821344Y-77192712D01*
X85970666Y-77284814D01*
X86137203Y-77339999D01*
X86239991Y-77350500D01*
X87840008Y-77350499D01*
X87942797Y-77339999D01*
X88109334Y-77284814D01*
X88110779Y-77283922D01*
X88111781Y-77283305D01*
X88111785Y-77283302D01*
X88258656Y-77192712D01*
X88382712Y-77068656D01*
X88474814Y-76919334D01*
X88529999Y-76752797D01*
X88540500Y-76650009D01*
X88540499Y-75049992D01*
X88533440Y-74980893D01*
X88529999Y-74947203D01*
X88529998Y-74947200D01*
X88474814Y-74780666D01*
X88382712Y-74631344D01*
X88258656Y-74507288D01*
X88109334Y-74415186D01*
X87942797Y-74360001D01*
X87942795Y-74360000D01*
X87840010Y-74349500D01*
X86239998Y-74349500D01*
X86239981Y-74349501D01*
X86137203Y-74360000D01*
X86137200Y-74360001D01*
X85970668Y-74415185D01*
X85970663Y-74415187D01*
X85821342Y-74507289D01*
X85697289Y-74631342D01*
X85605187Y-74780663D01*
X85605186Y-74780666D01*
X85550001Y-74947203D01*
X85550001Y-74947204D01*
X85550000Y-74947204D01*
X85539500Y-75049983D01*
X83312855Y-75049983D01*
X83262658Y-74980894D01*
X83262658Y-74980893D01*
X82522962Y-75720590D01*
X82505925Y-75657007D01*
X82440099Y-75542993D01*
X82347007Y-75449901D01*
X82232993Y-75384075D01*
X82169409Y-75367037D01*
X82909105Y-74627340D01*
X82909104Y-74627338D01*
X82826174Y-74567087D01*
X82615802Y-74459897D01*
X82391247Y-74386934D01*
X82391248Y-74386934D01*
X82158052Y-74350000D01*
X81921948Y-74350000D01*
X81688752Y-74386934D01*
X81464197Y-74459897D01*
X81253830Y-74567084D01*
X81170894Y-74627340D01*
X81910591Y-75367037D01*
X81847007Y-75384075D01*
X81732993Y-75449901D01*
X81639901Y-75542993D01*
X81574075Y-75657007D01*
X81557037Y-75720591D01*
X80817340Y-74980894D01*
X80757084Y-75063830D01*
X80649897Y-75274197D01*
X80576934Y-75498752D01*
X80540000Y-75731947D01*
X79300500Y-75731947D01*
X79300500Y-63199983D01*
X100799500Y-63199983D01*
X100799500Y-64800001D01*
X100799501Y-64800018D01*
X100810000Y-64902796D01*
X100810001Y-64902799D01*
X100865185Y-65069331D01*
X100865186Y-65069334D01*
X100957288Y-65218656D01*
X101081344Y-65342712D01*
X101230666Y-65434814D01*
X101397203Y-65489999D01*
X101499991Y-65500500D01*
X103100008Y-65500499D01*
X103202797Y-65489999D01*
X103369334Y-65434814D01*
X103518656Y-65342712D01*
X103642712Y-65218656D01*
X103734814Y-65069334D01*
X103789999Y-64902797D01*
X103800500Y-64800009D01*
X103800499Y-64125441D01*
X117099500Y-64125441D01*
X117099500Y-64374558D01*
X117099501Y-64374575D01*
X117132017Y-64621561D01*
X117196498Y-64862207D01*
X117291830Y-65092361D01*
X117291837Y-65092376D01*
X117416400Y-65308126D01*
X117568060Y-65505774D01*
X117568066Y-65505781D01*
X117744218Y-65681933D01*
X117744225Y-65681939D01*
X117941873Y-65833599D01*
X118157623Y-65958162D01*
X118157638Y-65958169D01*
X118256825Y-65999253D01*
X118387793Y-66053502D01*
X118628435Y-66117982D01*
X118875435Y-66150500D01*
X118875442Y-66150500D01*
X119124558Y-66150500D01*
X119124565Y-66150500D01*
X119371565Y-66117982D01*
X119612207Y-66053502D01*
X119842373Y-65958164D01*
X120058127Y-65833599D01*
X120255776Y-65681938D01*
X120431938Y-65505776D01*
X120583599Y-65308127D01*
X120708164Y-65092373D01*
X120803502Y-64862207D01*
X120867982Y-64621565D01*
X120900500Y-64374565D01*
X120900500Y-64125435D01*
X120867982Y-63878435D01*
X120803502Y-63637793D01*
X120708164Y-63407627D01*
X120583599Y-63191873D01*
X120431938Y-62994224D01*
X120431933Y-62994218D01*
X120255781Y-62818066D01*
X120255774Y-62818060D01*
X120058126Y-62666400D01*
X119842376Y-62541837D01*
X119842361Y-62541830D01*
X119612207Y-62446498D01*
X119371561Y-62382017D01*
X119124575Y-62349501D01*
X119124570Y-62349500D01*
X119124565Y-62349500D01*
X118875435Y-62349500D01*
X118875429Y-62349500D01*
X118875424Y-62349501D01*
X118628438Y-62382017D01*
X118387792Y-62446498D01*
X118157638Y-62541830D01*
X118157623Y-62541837D01*
X117941873Y-62666400D01*
X117744225Y-62818060D01*
X117744218Y-62818066D01*
X117568066Y-62994218D01*
X117568060Y-62994225D01*
X117416400Y-63191873D01*
X117291837Y-63407623D01*
X117291830Y-63407638D01*
X117196498Y-63637792D01*
X117132017Y-63878438D01*
X117099501Y-64125424D01*
X117099500Y-64125441D01*
X103800499Y-64125441D01*
X103800499Y-63878438D01*
X103800499Y-63199998D01*
X103800498Y-63199981D01*
X103789999Y-63097203D01*
X103789998Y-63097200D01*
X103755873Y-62994218D01*
X103734814Y-62930666D01*
X103642712Y-62781344D01*
X103518656Y-62657288D01*
X103369334Y-62565186D01*
X103202797Y-62510001D01*
X103202795Y-62510000D01*
X103100010Y-62499500D01*
X101499998Y-62499500D01*
X101499981Y-62499501D01*
X101397203Y-62510000D01*
X101397200Y-62510001D01*
X101230668Y-62565185D01*
X101230663Y-62565187D01*
X101081342Y-62657289D01*
X100957289Y-62781342D01*
X100865187Y-62930663D01*
X100865186Y-62930666D01*
X100810001Y-63097203D01*
X100810001Y-63097204D01*
X100810000Y-63097204D01*
X100799500Y-63199983D01*
X79300500Y-63199983D01*
X79300500Y-58881947D01*
X100800000Y-58881947D01*
X100800000Y-59118052D01*
X100836934Y-59351247D01*
X100909897Y-59575802D01*
X101017087Y-59786174D01*
X101077338Y-59869104D01*
X101077340Y-59869105D01*
X101817037Y-59129408D01*
X101834075Y-59192993D01*
X101899901Y-59307007D01*
X101992993Y-59400099D01*
X102107007Y-59465925D01*
X102170590Y-59482962D01*
X101430893Y-60222658D01*
X101513828Y-60282914D01*
X101724197Y-60390102D01*
X101948752Y-60463065D01*
X101948751Y-60463065D01*
X102181948Y-60500000D01*
X102418052Y-60500000D01*
X102651247Y-60463065D01*
X102875802Y-60390102D01*
X103086163Y-60282918D01*
X103086169Y-60282914D01*
X103169104Y-60222658D01*
X103169105Y-60222658D01*
X102429408Y-59482962D01*
X102492993Y-59465925D01*
X102607007Y-59400099D01*
X102700099Y-59307007D01*
X102765925Y-59192993D01*
X102782962Y-59129408D01*
X103522658Y-59869105D01*
X103522658Y-59869104D01*
X103582914Y-59786169D01*
X103582918Y-59786163D01*
X103690102Y-59575802D01*
X103743872Y-59410320D01*
X103763065Y-59351248D01*
X103800000Y-59118052D01*
X103800000Y-58881947D01*
X103763065Y-58648752D01*
X103690102Y-58424197D01*
X103582914Y-58213828D01*
X103522658Y-58130894D01*
X103522658Y-58130893D01*
X102782962Y-58870590D01*
X102765925Y-58807007D01*
X102700099Y-58692993D01*
X102607007Y-58599901D01*
X102492993Y-58534075D01*
X102429409Y-58517037D01*
X102896431Y-58050014D01*
X117100000Y-58050014D01*
X117100000Y-59000000D01*
X118399999Y-59000000D01*
X118374979Y-59060402D01*
X118350000Y-59185981D01*
X118350000Y-59314019D01*
X118374979Y-59439598D01*
X118399999Y-59500000D01*
X117100000Y-59500000D01*
X117100000Y-60449985D01*
X117110493Y-60552689D01*
X117110494Y-60552696D01*
X117165641Y-60719118D01*
X117165643Y-60719123D01*
X117257684Y-60868344D01*
X117381655Y-60992315D01*
X117530876Y-61084356D01*
X117530881Y-61084358D01*
X117697303Y-61139505D01*
X117697310Y-61139506D01*
X117800014Y-61149999D01*
X117800027Y-61150000D01*
X118750000Y-61150000D01*
X118750000Y-59850001D01*
X118810402Y-59875021D01*
X118935981Y-59900000D01*
X119064019Y-59900000D01*
X119189598Y-59875021D01*
X119250000Y-59850001D01*
X119250000Y-61150000D01*
X120199973Y-61150000D01*
X120199985Y-61149999D01*
X120302689Y-61139506D01*
X120302696Y-61139505D01*
X120469118Y-61084358D01*
X120469123Y-61084356D01*
X120618344Y-60992315D01*
X120742315Y-60868344D01*
X120834356Y-60719123D01*
X120834358Y-60719118D01*
X120889505Y-60552696D01*
X120889506Y-60552689D01*
X120899999Y-60449985D01*
X120900000Y-60449972D01*
X120900000Y-59500000D01*
X119600001Y-59500000D01*
X119625021Y-59439598D01*
X119650000Y-59314019D01*
X119650000Y-59185981D01*
X119625021Y-59060402D01*
X119600001Y-59000000D01*
X120900000Y-59000000D01*
X120900000Y-58050027D01*
X120899999Y-58050014D01*
X120889506Y-57947310D01*
X120889505Y-57947303D01*
X120834358Y-57780881D01*
X120834356Y-57780876D01*
X120742315Y-57631655D01*
X120618344Y-57507684D01*
X120469123Y-57415643D01*
X120469118Y-57415641D01*
X120302696Y-57360494D01*
X120302689Y-57360493D01*
X120199985Y-57350000D01*
X119250000Y-57350000D01*
X119250000Y-58649998D01*
X119189598Y-58624979D01*
X119064019Y-58600000D01*
X118935981Y-58600000D01*
X118810402Y-58624979D01*
X118750000Y-58649998D01*
X118750000Y-57350000D01*
X117800014Y-57350000D01*
X117697310Y-57360493D01*
X117697303Y-57360494D01*
X117530881Y-57415641D01*
X117530876Y-57415643D01*
X117381655Y-57507684D01*
X117257684Y-57631655D01*
X117165643Y-57780876D01*
X117165641Y-57780881D01*
X117110494Y-57947303D01*
X117110493Y-57947310D01*
X117100000Y-58050014D01*
X102896431Y-58050014D01*
X103169105Y-57777340D01*
X103169104Y-57777338D01*
X103086174Y-57717087D01*
X102875802Y-57609897D01*
X102651247Y-57536934D01*
X102651248Y-57536934D01*
X102418052Y-57500000D01*
X102181948Y-57500000D01*
X101948752Y-57536934D01*
X101724197Y-57609897D01*
X101513830Y-57717084D01*
X101430894Y-57777340D01*
X102170591Y-58517037D01*
X102107007Y-58534075D01*
X101992993Y-58599901D01*
X101899901Y-58692993D01*
X101834075Y-58807007D01*
X101817037Y-58870591D01*
X101077340Y-58130894D01*
X101017084Y-58213830D01*
X100909897Y-58424197D01*
X100836934Y-58648752D01*
X100800000Y-58881947D01*
X79300500Y-58881947D01*
X79300500Y-53424500D01*
X79320185Y-53357461D01*
X79372989Y-53311706D01*
X79424500Y-53300500D01*
X82960438Y-53300500D01*
X134575500Y-53300500D01*
X134642539Y-53320185D01*
G37*
%TD.AperFunction*%
%TD*%
M02*
