M48
; DRILL file {KiCad 9.0.6} date 2026-01-24T10:26:05+0100
; FORMAT={-:-/ absolute / metric / decimal}
; #@! TF.CreationDate,2026-01-24T10:26:05+01:00
; #@! TF.GenerationSoftware,Kicad,Pcbnew,9.0.6
; #@! TF.FileFunction,Plated,1,4,PTH
FMAT,2
METRIC
; #@! TA.AperFunction,Plated,PTH,ViaDrill
T1C0.300
; #@! TA.AperFunction,Plated,PTH,ViaDrill
T2C0.400
; #@! TA.AperFunction,Plated,PTH,ComponentDrill
T3C1.000
; #@! TA.AperFunction,Plated,PTH,ComponentDrill
T4C1.300
%
G90
G05
T1
X83.46Y-82.15
X88.5Y-93.5
X91.75Y-57.25
X92.3Y-62.9
X93.0Y-62.9
X93.5Y-60.5
X94.0Y-89.75
X94.0Y-90.876
X97.25Y-94.5
X99.25Y-91.5
X100.7Y-89.1
X100.7Y-90.1
X100.7Y-91.0
X101.7Y-89.1
X101.7Y-90.1
X101.7Y-91.0
X101.75Y-81.5
X105.0Y-82.25
X105.0Y-94.5
X107.0Y-92.0
X108.25Y-84.25
X108.5Y-88.25
X109.987Y-76.449
X115.0Y-105.5
T2
X81.0Y-55.0
X81.0Y-57.0
X81.0Y-59.0
X81.0Y-61.0
X81.0Y-63.0
X81.0Y-74.0
X81.0Y-90.0
X81.0Y-92.0
X81.0Y-94.0
X81.0Y-96.0
X81.0Y-98.0
X81.0Y-100.0
X81.0Y-102.0
X81.25Y-84.5
X81.25Y-85.5
X81.25Y-86.5
X82.0Y-74.0
X83.0Y-55.0
X83.0Y-57.0
X83.0Y-59.0
X83.0Y-61.0
X83.0Y-63.0
X83.0Y-74.0
X83.0Y-90.0
X83.0Y-92.0
X83.0Y-94.0
X83.0Y-96.0
X83.0Y-98.0
X83.0Y-100.0
X83.0Y-102.0
X85.0Y-55.0
X85.0Y-57.0
X85.0Y-59.0
X85.0Y-61.0
X85.0Y-63.0
X85.0Y-90.0
X85.0Y-92.0
X85.0Y-94.0
X85.0Y-96.0
X85.0Y-98.0
X85.0Y-100.0
X85.0Y-102.0
X87.0Y-55.0
X87.0Y-57.0
X87.0Y-59.0
X87.0Y-61.0
X87.0Y-63.0
X87.0Y-90.0
X87.0Y-92.0
X87.0Y-94.0
X87.0Y-96.0
X87.0Y-98.0
X87.0Y-100.0
X87.0Y-102.0
X89.0Y-55.0
X89.0Y-57.0
X89.0Y-59.0
X89.0Y-61.0
X89.0Y-63.0
X89.0Y-96.0
X89.0Y-98.0
X89.0Y-100.0
X89.0Y-102.0
X91.0Y-96.0
X91.0Y-98.0
X91.0Y-100.0
X91.0Y-102.0
X93.0Y-96.0
X93.0Y-98.0
X93.0Y-100.0
X93.0Y-102.0
X93.0Y-104.0
X93.0Y-106.0
X93.0Y-108.0
X93.0Y-110.0
X93.0Y-112.0
X95.0Y-96.0
X95.0Y-98.0
X95.0Y-100.0
X95.0Y-102.0
X95.0Y-104.0
X95.0Y-106.0
X95.0Y-108.0
X95.0Y-110.0
X95.0Y-112.0
X97.0Y-96.0
X97.0Y-98.0
X97.0Y-100.0
X97.0Y-102.0
X97.0Y-104.0
X97.0Y-106.0
X97.0Y-108.0
X97.0Y-110.0
X97.0Y-112.0
X99.0Y-96.0
X99.0Y-98.0
X99.0Y-100.0
X99.0Y-102.0
X99.0Y-104.0
X99.0Y-106.0
X99.0Y-108.0
X99.0Y-110.0
X99.0Y-112.0
X101.0Y-96.0
X101.0Y-98.0
X101.0Y-100.0
X101.0Y-102.0
X101.0Y-104.0
X101.0Y-106.0
X101.0Y-108.0
X101.0Y-110.0
X101.0Y-112.0
X101.25Y-56.25
X102.25Y-56.25
X103.0Y-98.0
X103.0Y-100.0
X103.0Y-102.0
X103.0Y-104.0
X103.0Y-106.0
X103.0Y-108.0
X103.0Y-110.0
X103.0Y-112.0
X103.25Y-56.25
X108.0Y-70.0
X108.0Y-72.0
X108.0Y-74.0
X110.0Y-70.0
X110.0Y-72.0
X110.0Y-74.0
X110.5Y-57.75
X111.25Y-105.75
X111.25Y-106.75
X111.25Y-107.75
X111.5Y-57.75
X112.0Y-70.0
X112.0Y-72.0
X112.0Y-74.0
X112.5Y-57.75
X113.5Y-76.75
X113.5Y-77.75
X113.5Y-78.75
X114.0Y-70.0
X114.0Y-72.0
X114.0Y-74.0
X116.0Y-70.0
X116.0Y-72.0
X116.0Y-74.0
X116.0Y-76.0
X116.0Y-78.0
X118.0Y-70.0
X118.0Y-72.0
X118.0Y-74.0
X118.0Y-76.0
X118.0Y-78.0
X120.0Y-70.0
X120.0Y-72.0
X120.0Y-74.0
X120.0Y-76.0
X120.0Y-78.0
X120.75Y-108.25
X121.317Y-58.44
X121.317Y-59.44
X121.317Y-60.44
X121.75Y-108.25
X122.0Y-70.0
X122.0Y-72.0
X122.0Y-74.0
X122.0Y-76.0
X122.0Y-78.0
X122.75Y-108.25
X124.0Y-56.0
X124.0Y-58.0
X124.0Y-60.0
X124.0Y-62.0
X124.0Y-64.0
X124.0Y-66.0
X124.0Y-68.0
X124.0Y-70.0
X124.0Y-72.0
X124.0Y-74.0
X124.0Y-76.0
X124.0Y-78.0
X126.0Y-56.0
X126.0Y-58.0
X126.0Y-60.0
X126.0Y-62.0
X126.0Y-64.0
X126.0Y-66.0
X126.0Y-68.0
X126.0Y-70.0
X126.0Y-72.0
X126.0Y-74.0
X126.0Y-76.0
X126.0Y-78.0
X128.0Y-56.0
X128.0Y-58.0
X128.0Y-60.0
X128.0Y-62.0
X128.0Y-64.0
X128.0Y-66.0
X128.0Y-68.0
X128.0Y-70.0
X128.0Y-72.0
X128.0Y-74.0
X128.0Y-76.0
X128.0Y-78.0
X130.0Y-56.0
X130.0Y-58.0
X130.0Y-60.0
X130.0Y-62.0
X130.0Y-64.0
X130.0Y-66.0
X130.0Y-68.0
X130.0Y-70.0
X130.0Y-72.0
X130.0Y-74.0
X130.0Y-76.0
X130.0Y-78.0
X130.0Y-110.0
X131.0Y-110.0
X132.0Y-56.0
X132.0Y-58.0
X132.0Y-60.0
X132.0Y-62.0
X132.0Y-64.0
X132.0Y-66.0
X132.0Y-68.0
X132.0Y-70.0
X132.0Y-72.0
X132.0Y-74.0
X132.0Y-76.0
X132.0Y-78.0
X132.0Y-110.0
X134.0Y-56.0
X134.0Y-58.0
X134.0Y-60.0
X134.0Y-62.0
X134.0Y-64.0
X134.0Y-66.0
X134.0Y-68.0
X134.0Y-70.0
X134.0Y-72.0
X134.0Y-74.0
X134.0Y-76.0
X134.0Y-78.0
T3
X82.04Y-75.85
X87.04Y-75.85
X102.3Y-59.0
X102.3Y-64.0
X108.7Y-77.5
X111.24Y-77.5
X121.75Y-101.382
X121.75Y-106.382
T4
X108.75Y-101.75
X108.75Y-106.75
X119.0Y-59.25
X119.0Y-64.25
M30
