%TF.GenerationSoftware,KiCad,Pcbnew,9.0.6*%
%TF.CreationDate,2026-03-07T17:01:57+01:00*%
%TF.ProjectId,Boost converter,426f6f73-7420-4636-9f6e-766572746572,B*%
%TF.SameCoordinates,Original*%
%TF.FileFunction,Copper,L1,Top*%
%TF.FilePolarity,Positive*%
%FSLAX46Y46*%
G04 Gerber Fmt 4.6, Leading zero omitted, Abs format (unit mm)*
G04 Created by KiCad (PCBNEW 9.0.6) date 2026-03-07 17:01:57*
%MOMM*%
%LPD*%
G01*
G04 APERTURE LIST*
G04 Aperture macros list*
%AMRoundRect*
0 Rectangle with rounded corners*
0 $1 Rounding radius*
0 $2 $3 $4 $5 $6 $7 $8 $9 X,Y pos of 4 corners*
0 Add a 4 corners polygon primitive as box body*
4,1,4,$2,$3,$4,$5,$6,$7,$8,$9,$2,$3,0*
0 Add four circle primitives for the rounded corners*
1,1,$1+$1,$2,$3*
1,1,$1+$1,$4,$5*
1,1,$1+$1,$6,$7*
1,1,$1+$1,$8,$9*
0 Add four rect primitives between the rounded corners*
20,1,$1+$1,$2,$3,$4,$5,0*
20,1,$1+$1,$4,$5,$6,$7,0*
20,1,$1+$1,$6,$7,$8,$9,0*
20,1,$1+$1,$8,$9,$2,$3,0*%
G04 Aperture macros list end*
%TA.AperFunction,SMDPad,CuDef*%
%ADD10R,0.509999X0.860001*%
%TD*%
%TA.AperFunction,SMDPad,CuDef*%
%ADD11RoundRect,0.366000X1.734717X-0.854000X1.734717X0.854000X-1.734717X0.854000X-1.734717X-0.854000X0*%
%TD*%
%TA.AperFunction,SMDPad,CuDef*%
%ADD12R,0.860001X0.509999*%
%TD*%
%TA.AperFunction,SMDPad,CuDef*%
%ADD13RoundRect,0.366000X-0.854000X-1.734717X0.854000X-1.734717X0.854000X1.734717X-0.854000X1.734717X0*%
%TD*%
%TA.AperFunction,SMDPad,CuDef*%
%ADD14RoundRect,0.200000X0.200000X0.275000X-0.200000X0.275000X-0.200000X-0.275000X0.200000X-0.275000X0*%
%TD*%
%TA.AperFunction,SMDPad,CuDef*%
%ADD15RoundRect,0.250000X0.475000X-0.250000X0.475000X0.250000X-0.475000X0.250000X-0.475000X-0.250000X0*%
%TD*%
%TA.AperFunction,ComponentPad*%
%ADD16RoundRect,0.250000X1.000000X-1.000000X1.000000X1.000000X-1.000000X1.000000X-1.000000X-1.000000X0*%
%TD*%
%TA.AperFunction,ComponentPad*%
%ADD17C,2.500000*%
%TD*%
%TA.AperFunction,SMDPad,CuDef*%
%ADD18RoundRect,0.250000X-0.475000X0.250000X-0.475000X-0.250000X0.475000X-0.250000X0.475000X0.250000X0*%
%TD*%
%TA.AperFunction,SMDPad,CuDef*%
%ADD19RoundRect,0.200000X-0.200000X-0.275000X0.200000X-0.275000X0.200000X0.275000X-0.200000X0.275000X0*%
%TD*%
%TA.AperFunction,SMDPad,CuDef*%
%ADD20RoundRect,0.250000X-0.362500X-1.425000X0.362500X-1.425000X0.362500X1.425000X-0.362500X1.425000X0*%
%TD*%
%TA.AperFunction,SMDPad,CuDef*%
%ADD21RoundRect,0.225000X-0.225000X-0.250000X0.225000X-0.250000X0.225000X0.250000X-0.225000X0.250000X0*%
%TD*%
%TA.AperFunction,SMDPad,CuDef*%
%ADD22RoundRect,0.225000X0.225000X0.250000X-0.225000X0.250000X-0.225000X-0.250000X0.225000X-0.250000X0*%
%TD*%
%TA.AperFunction,SMDPad,CuDef*%
%ADD23RoundRect,0.200000X-0.275000X0.200000X-0.275000X-0.200000X0.275000X-0.200000X0.275000X0.200000X0*%
%TD*%
%TA.AperFunction,SMDPad,CuDef*%
%ADD24RoundRect,0.200000X0.275000X-0.200000X0.275000X0.200000X-0.275000X0.200000X-0.275000X-0.200000X0*%
%TD*%
%TA.AperFunction,SMDPad,CuDef*%
%ADD25R,1.422400X0.355600*%
%TD*%
%TA.AperFunction,SMDPad,CuDef*%
%ADD26R,2.997200X4.191000*%
%TD*%
%TA.AperFunction,ComponentPad*%
%ADD27RoundRect,0.250000X-0.750000X0.750000X-0.750000X-0.750000X0.750000X-0.750000X0.750000X0.750000X0*%
%TD*%
%TA.AperFunction,ComponentPad*%
%ADD28C,2.000000*%
%TD*%
%TA.AperFunction,ComponentPad*%
%ADD29R,1.700000X1.700000*%
%TD*%
%TA.AperFunction,ComponentPad*%
%ADD30C,1.700000*%
%TD*%
%TA.AperFunction,SMDPad,CuDef*%
%ADD31RoundRect,0.250000X0.250000X0.475000X-0.250000X0.475000X-0.250000X-0.475000X0.250000X-0.475000X0*%
%TD*%
%TA.AperFunction,SMDPad,CuDef*%
%ADD32RoundRect,0.250000X-0.650000X1.000000X-0.650000X-1.000000X0.650000X-1.000000X0.650000X1.000000X0*%
%TD*%
%TA.AperFunction,SMDPad,CuDef*%
%ADD33RoundRect,0.250000X-0.250000X-0.475000X0.250000X-0.475000X0.250000X0.475000X-0.250000X0.475000X0*%
%TD*%
%TA.AperFunction,SMDPad,CuDef*%
%ADD34R,0.558800X1.270000*%
%TD*%
%TA.AperFunction,ComponentPad*%
%ADD35RoundRect,0.250000X-1.000000X1.000000X-1.000000X-1.000000X1.000000X-1.000000X1.000000X1.000000X0*%
%TD*%
%TA.AperFunction,SMDPad,CuDef*%
%ADD36R,5.334000X5.588000*%
%TD*%
%TA.AperFunction,SMDPad,CuDef*%
%ADD37R,6.350000X5.283200*%
%TD*%
%TA.AperFunction,ViaPad*%
%ADD38C,0.800000*%
%TD*%
%TA.AperFunction,ViaPad*%
%ADD39C,0.500000*%
%TD*%
%TA.AperFunction,Conductor*%
%ADD40C,0.400000*%
%TD*%
%TA.AperFunction,Conductor*%
%ADD41C,0.800000*%
%TD*%
%TA.AperFunction,Conductor*%
%ADD42C,0.200000*%
%TD*%
%TA.AperFunction,Conductor*%
%ADD43C,1.000000*%
%TD*%
G04 APERTURE END LIST*
D10*
%TO.P,Q1,1,Source*%
%TO.N,GND*%
X174595000Y-145569999D03*
%TO.P,Q1,2,Source*%
X175865000Y-145569999D03*
%TO.P,Q1,3,Source*%
X177135000Y-145569999D03*
%TO.P,Q1,4,Gate*%
%TO.N,/LO*%
X178405000Y-145569999D03*
%TO.P,Q1,5,Drain*%
%TO.N,/SW*%
X178405000Y-139930001D03*
%TO.P,Q1,6,Drain*%
X177135000Y-139930001D03*
%TO.P,Q1,7,Drain*%
X175865000Y-139930001D03*
D11*
%TO.P,Q1,8,Drain*%
X176495720Y-141730000D03*
D10*
X174595000Y-139930001D03*
%TD*%
D12*
%TO.P,Q2,1,Source*%
%TO.N,/SW*%
X180250000Y-134690000D03*
%TO.P,Q2,2,Source*%
X180250000Y-135960000D03*
%TO.P,Q2,3,Source*%
X180250000Y-137230000D03*
%TO.P,Q2,4,Gate*%
%TO.N,/HO*%
X180250000Y-138500000D03*
%TO.P,Q2,5,Drain*%
%TO.N,+36V*%
X185889998Y-138500000D03*
%TO.P,Q2,6,Drain*%
X185889998Y-137230000D03*
%TO.P,Q2,7,Drain*%
X185889998Y-135960000D03*
D13*
%TO.P,Q2,8,Drain*%
X184089999Y-136590720D03*
D12*
X185889998Y-134690000D03*
%TD*%
D14*
%TO.P,R14,1*%
%TO.N,Net-(R13-Pad2)*%
X176325000Y-150600000D03*
%TO.P,R14,2*%
%TO.N,GND*%
X174675000Y-150600000D03*
%TD*%
D15*
%TO.P,C18,1*%
%TO.N,+36V*%
X197500000Y-132400000D03*
%TO.P,C18,2*%
%TO.N,GND*%
X197500000Y-130500000D03*
%TD*%
D16*
%TO.P,J2,1,Pin_1*%
%TO.N,+36V*%
X207567500Y-134200000D03*
D17*
%TO.P,J2,2,Pin_2*%
%TO.N,GND*%
X207567500Y-129200000D03*
%TD*%
D18*
%TO.P,C16,1*%
%TO.N,+18V*%
X153800000Y-141550000D03*
%TO.P,C16,2*%
%TO.N,GND*%
X153800000Y-143450000D03*
%TD*%
D19*
%TO.P,R13,1*%
%TO.N,FB*%
X174675000Y-149000000D03*
%TO.P,R13,2*%
%TO.N,Net-(R13-Pad2)*%
X176325000Y-149000000D03*
%TD*%
D20*
%TO.P,R5,1*%
%TO.N,+18V*%
X156037500Y-140250000D03*
%TO.P,R5,2*%
%TO.N,/CSN*%
X161962500Y-140250000D03*
%TD*%
D14*
%TO.P,R6,1*%
%TO.N,GND*%
X163825000Y-155000000D03*
%TO.P,R6,2*%
%TO.N,Net-(MOSFET1-G)*%
X162175000Y-155000000D03*
%TD*%
D15*
%TO.P,C15,1*%
%TO.N,+18V*%
X153800000Y-139950000D03*
%TO.P,C15,2*%
%TO.N,GND*%
X153800000Y-138050000D03*
%TD*%
D19*
%TO.P,R11,1*%
%TO.N,/COMP*%
X171375000Y-152500000D03*
%TO.P,R11,2*%
%TO.N,Net-(C7-Pad1)*%
X173025000Y-152500000D03*
%TD*%
D21*
%TO.P,C3,1*%
%TO.N,GND*%
X160525000Y-146500000D03*
%TO.P,C3,2*%
%TO.N,/SS*%
X162075000Y-146500000D03*
%TD*%
D22*
%TO.P,C1,1*%
%TO.N,/COMP*%
X165500000Y-150000000D03*
%TO.P,C1,2*%
%TO.N,FB*%
X163950000Y-150000000D03*
%TD*%
D19*
%TO.P,R7,1*%
%TO.N,GND*%
X160475000Y-148100000D03*
%TO.P,R7,2*%
%TO.N,/SYNCIN*%
X162125000Y-148100000D03*
%TD*%
D18*
%TO.P,C4,1*%
%TO.N,/BST*%
X172400000Y-140850000D03*
%TO.P,C4,2*%
%TO.N,/SW*%
X172400000Y-142750000D03*
%TD*%
D23*
%TO.P,R15,1*%
%TO.N,+36V*%
X187970000Y-138300000D03*
%TO.P,R15,2*%
%TO.N,FB*%
X187970000Y-139950000D03*
%TD*%
D15*
%TO.P,C19,1*%
%TO.N,+36V*%
X199500000Y-132400000D03*
%TO.P,C19,2*%
%TO.N,GND*%
X199500000Y-130500000D03*
%TD*%
%TO.P,C9,1*%
%TO.N,+36V*%
X195500000Y-132450000D03*
%TO.P,C9,2*%
%TO.N,GND*%
X195500000Y-130550000D03*
%TD*%
D19*
%TO.P,R8,1*%
%TO.N,/SLOPE*%
X171550000Y-147000000D03*
%TO.P,R8,2*%
%TO.N,Net-(R10-Pad1)*%
X173200000Y-147000000D03*
%TD*%
%TO.P,R10,1*%
%TO.N,Net-(R10-Pad1)*%
X174575000Y-147000000D03*
%TO.P,R10,2*%
%TO.N,GND*%
X176225000Y-147000000D03*
%TD*%
D24*
%TO.P,R2,1*%
%TO.N,/UVLO*%
X155600000Y-145725000D03*
%TO.P,R2,2*%
%TO.N,GND*%
X155600000Y-144075000D03*
%TD*%
D23*
%TO.P,R4,1*%
%TO.N,+18V*%
X162000000Y-142975000D03*
%TO.P,R4,2*%
%TO.N,/VIN*%
X162000000Y-144625000D03*
%TD*%
D15*
%TO.P,C14,1*%
%TO.N,+18V*%
X151800000Y-139950000D03*
%TO.P,C14,2*%
%TO.N,GND*%
X151800000Y-138050000D03*
%TD*%
D21*
%TO.P,C5,1*%
%TO.N,/RES*%
X171475000Y-145500000D03*
%TO.P,C5,2*%
%TO.N,GND*%
X173025000Y-145500000D03*
%TD*%
D25*
%TO.P,U1,1,SYNCOUT*%
%TO.N,GND*%
X164000000Y-141750000D03*
%TO.P,U1,2,OPT*%
X164000000Y-142400001D03*
%TO.P,U1,3,CSN*%
%TO.N,/CSN*%
X164000000Y-143049999D03*
%TO.P,U1,4,CSP*%
%TO.N,+18V*%
X164000000Y-143700001D03*
%TO.P,U1,5,VIN*%
%TO.N,/VIN*%
X164000000Y-144349999D03*
%TO.P,U1,6,UVLO*%
%TO.N,/UVLO*%
X164000000Y-144999998D03*
%TO.P,U1,7,SS*%
%TO.N,/SS*%
X164000000Y-145649999D03*
%TO.P,U1,8,SYNCIN/RT*%
%TO.N,/SYNCIN*%
X164000000Y-146299998D03*
%TO.P,U1,9,AGND*%
%TO.N,GND*%
X164000000Y-146949999D03*
%TO.P,U1,10,FB*%
%TO.N,FB*%
X164000000Y-147599998D03*
%TO.P,U1,11,COMP*%
%TO.N,/COMP*%
X169689600Y-147600000D03*
%TO.P,U1,12,SLOPE*%
%TO.N,/SLOPE*%
X169689600Y-146950002D03*
%TO.P,U1,13,MODE*%
%TO.N,GND*%
X169689600Y-146300001D03*
%TO.P,U1,14,RES*%
%TO.N,/RES*%
X169689600Y-145650002D03*
%TO.P,U1,15,PGND*%
%TO.N,GND*%
X169689600Y-145000001D03*
%TO.P,U1,16,LO*%
%TO.N,/LO*%
X169689600Y-144350002D03*
%TO.P,U1,17,VCC*%
%TO.N,/VCC*%
X169689600Y-143700001D03*
%TO.P,U1,18,SW*%
%TO.N,/SW*%
X169689600Y-143050002D03*
%TO.P,U1,19,HO*%
%TO.N,/HO*%
X169689600Y-142400001D03*
%TO.P,U1,20,BST*%
%TO.N,/BST*%
X169689600Y-141750002D03*
D26*
%TO.P,U1,21,EP*%
%TO.N,GND*%
X166844800Y-144675000D03*
%TD*%
D27*
%TO.P,C10,1*%
%TO.N,+36V*%
X195800000Y-139600000D03*
D28*
%TO.P,C10,2*%
%TO.N,GND*%
X195800000Y-144600000D03*
%TD*%
D18*
%TO.P,C13,1*%
%TO.N,+18V*%
X151800000Y-141550000D03*
%TO.P,C13,2*%
%TO.N,GND*%
X151800000Y-143450000D03*
%TD*%
D29*
%TO.P,J4,1,Pin_1*%
%TO.N,Net-(J4-Pin_1)*%
X156000000Y-154540000D03*
D30*
%TO.P,J4,2,Pin_2*%
%TO.N,GND*%
X156000000Y-152000000D03*
%TD*%
D22*
%TO.P,C6,1*%
%TO.N,/COMP*%
X169600000Y-149000000D03*
%TO.P,C6,2*%
%TO.N,FB*%
X168050000Y-149000000D03*
%TD*%
D15*
%TO.P,C2,1*%
%TO.N,GND*%
X158600000Y-149150000D03*
%TO.P,C2,2*%
%TO.N,/VIN*%
X158600000Y-147250000D03*
%TD*%
D14*
%TO.P,R3,1*%
%TO.N,Net-(MOSFET1-G)*%
X160650000Y-155000000D03*
%TO.P,R3,2*%
%TO.N,Net-(J4-Pin_1)*%
X159000000Y-155000000D03*
%TD*%
D31*
%TO.P,C8,1*%
%TO.N,/VCC*%
X181150000Y-148400000D03*
%TO.P,C8,2*%
%TO.N,GND*%
X179250000Y-148400000D03*
%TD*%
D23*
%TO.P,R12,1*%
%TO.N,+36V*%
X189500000Y-138300000D03*
%TO.P,R12,2*%
%TO.N,FB*%
X189500000Y-139950000D03*
%TD*%
D27*
%TO.P,C12,1*%
%TO.N,+18V*%
X147000000Y-148632323D03*
D28*
%TO.P,C12,2*%
%TO.N,GND*%
X147000000Y-153632323D03*
%TD*%
D32*
%TO.P,D1,1,K*%
%TO.N,/BST*%
X181250000Y-141500000D03*
%TO.P,D1,2,A*%
%TO.N,/VCC*%
X181250000Y-145500000D03*
%TD*%
D33*
%TO.P,C17,1*%
%TO.N,+18V*%
X152050000Y-146000000D03*
%TO.P,C17,2*%
%TO.N,GND*%
X153950000Y-146000000D03*
%TD*%
D15*
%TO.P,C11,1*%
%TO.N,+36V*%
X193500000Y-132450000D03*
%TO.P,C11,2*%
%TO.N,GND*%
X193500000Y-130550000D03*
%TD*%
D23*
%TO.P,R1,1*%
%TO.N,+18V*%
X157200000Y-143975000D03*
%TO.P,R1,2*%
%TO.N,/UVLO*%
X157200000Y-145625000D03*
%TD*%
D15*
%TO.P,C7,1*%
%TO.N,Net-(C7-Pad1)*%
X173000000Y-150750000D03*
%TO.P,C7,2*%
%TO.N,FB*%
X173000000Y-148850000D03*
%TD*%
D34*
%TO.P,MOSFET1,1,G*%
%TO.N,Net-(MOSFET1-G)*%
X161047500Y-153000000D03*
%TO.P,MOSFET1,2,S*%
%TO.N,GND*%
X162952500Y-153000000D03*
%TO.P,MOSFET1,3,D*%
%TO.N,/SS*%
X162000000Y-150917200D03*
%TD*%
D35*
%TO.P,J1,1,Pin_1*%
%TO.N,GND*%
X146232500Y-137500000D03*
D17*
%TO.P,J1,2,Pin_2*%
%TO.N,+18V*%
X146232500Y-142500000D03*
%TD*%
D36*
%TO.P,L1,1,1*%
%TO.N,/CSN*%
X163184999Y-135161301D03*
%TO.P,L1,2,2*%
%TO.N,/SW*%
X173614998Y-135161301D03*
D37*
%TO.P,L1,3*%
%TO.N,N/C*%
X168400000Y-113086300D03*
%TD*%
D15*
%TO.P,C20,1*%
%TO.N,+36V*%
X201500000Y-132400000D03*
%TO.P,C20,2*%
%TO.N,GND*%
X201500000Y-130500000D03*
%TD*%
D38*
%TO.N,GND*%
X200000000Y-127000000D03*
X187500000Y-147500000D03*
X152500000Y-120000000D03*
X187500000Y-154500000D03*
X183000000Y-130000000D03*
X183000000Y-114000000D03*
X183000000Y-117000000D03*
X195500000Y-128000000D03*
X167500000Y-152500000D03*
X190000000Y-150000000D03*
X192500000Y-125000000D03*
X200000000Y-154500000D03*
X149000000Y-154500000D03*
X183000000Y-116000000D03*
X145000000Y-122500000D03*
X155500000Y-149000000D03*
X210000000Y-122500000D03*
X197800000Y-146400000D03*
X144500000Y-135000000D03*
X164500000Y-139000000D03*
X177500000Y-154500000D03*
X211000000Y-129500000D03*
X145000000Y-130000000D03*
X192500000Y-147500000D03*
X145000000Y-125000000D03*
X182500000Y-154500000D03*
X193800000Y-143600000D03*
X211000000Y-127500000D03*
X175000000Y-154500000D03*
X158500000Y-131500000D03*
X195000000Y-115000000D03*
X197500000Y-128000000D03*
X200500000Y-129000000D03*
X177500000Y-131500000D03*
X207500000Y-120000000D03*
X152500000Y-122500000D03*
X154500000Y-135500000D03*
X200000000Y-125000000D03*
X201500000Y-128000000D03*
X195500000Y-129000000D03*
X146500000Y-134000000D03*
X159500000Y-134500000D03*
X192500000Y-120000000D03*
X165000000Y-154500000D03*
X195000000Y-117500000D03*
X171000000Y-139000000D03*
X185000000Y-115000000D03*
X153500000Y-131000000D03*
X154500000Y-149000000D03*
X199500000Y-129000000D03*
X200000000Y-115000000D03*
X187500000Y-125000000D03*
X168000000Y-131500000D03*
X148500000Y-138000000D03*
X185000000Y-127000000D03*
X187500000Y-120000000D03*
X174750000Y-151750000D03*
X166500000Y-131500000D03*
X147500000Y-132500000D03*
X152500000Y-148000000D03*
X197800000Y-145400000D03*
X183000000Y-127000000D03*
X183000000Y-131000000D03*
X159500000Y-137500000D03*
X202500000Y-128000000D03*
X192800000Y-144600000D03*
X143500000Y-138500000D03*
X153500000Y-117000000D03*
X198800000Y-145400000D03*
X185000000Y-154500000D03*
X145500000Y-134000000D03*
X190000000Y-120000000D03*
X205000000Y-131000000D03*
X192500000Y-128000000D03*
X152500000Y-117500000D03*
X152500000Y-125000000D03*
X142500000Y-132500000D03*
X205000000Y-152500000D03*
X170000000Y-154500000D03*
X205000000Y-154500000D03*
X152500000Y-149000000D03*
X153500000Y-116000000D03*
X149000000Y-152500000D03*
X195000000Y-152500000D03*
X197500000Y-152500000D03*
X147500000Y-130000000D03*
X192500000Y-152500000D03*
X147500000Y-125000000D03*
X192800000Y-143600000D03*
X183000000Y-123000000D03*
X166500000Y-132500000D03*
X154500000Y-136500000D03*
X205000000Y-120000000D03*
X183000000Y-124000000D03*
X152500000Y-112500000D03*
X144500000Y-153500000D03*
X210000000Y-120000000D03*
X147500000Y-122500000D03*
X179000000Y-151000000D03*
X185000000Y-150000000D03*
X202500000Y-125000000D03*
X202500000Y-117500000D03*
X197500000Y-122500000D03*
X153500000Y-113000000D03*
X195000000Y-127000000D03*
X185000000Y-147500000D03*
X153500000Y-119000000D03*
X183000000Y-129000000D03*
X170000000Y-139000000D03*
X193800000Y-145600000D03*
X145500000Y-135000000D03*
X192500000Y-154500000D03*
X183000000Y-119000000D03*
X153500000Y-122000000D03*
X152500000Y-135500000D03*
X148500000Y-137000000D03*
X167800000Y-144200000D03*
X153500000Y-118000000D03*
X192500000Y-150000000D03*
X149000000Y-155500000D03*
X166500000Y-133500000D03*
X177500000Y-147250000D03*
X197500000Y-154500000D03*
X149500000Y-138000000D03*
X185000000Y-117500000D03*
X197500000Y-129000000D03*
X160000000Y-150500000D03*
X190000000Y-127000000D03*
X190000000Y-147500000D03*
X195000000Y-125000000D03*
X153500000Y-149000000D03*
X145000000Y-120000000D03*
X152500000Y-136500000D03*
X152500000Y-130000000D03*
X143500000Y-137500000D03*
X159500000Y-131500000D03*
X145000000Y-132500000D03*
X153500000Y-130000000D03*
X202500000Y-120000000D03*
X205000000Y-122500000D03*
X197500000Y-115000000D03*
X150000000Y-112500000D03*
X143500000Y-152500000D03*
X198500000Y-128000000D03*
X153500000Y-135500000D03*
X202500000Y-154500000D03*
X170000000Y-132500000D03*
X195000000Y-122500000D03*
X183000000Y-118000000D03*
X181000000Y-151000000D03*
X193800000Y-144600000D03*
X142500000Y-125000000D03*
X181500000Y-131500000D03*
X197500000Y-127000000D03*
X149500000Y-136000000D03*
X180500000Y-131500000D03*
X187500000Y-117500000D03*
X153500000Y-111000000D03*
X170000000Y-135500000D03*
X200000000Y-112500000D03*
X204000000Y-129000000D03*
X183000000Y-121000000D03*
X183000000Y-120000000D03*
X198500000Y-129000000D03*
X202500000Y-115000000D03*
X195000000Y-154500000D03*
X183000000Y-113000000D03*
X153500000Y-136500000D03*
X166500000Y-137500000D03*
X163500000Y-139000000D03*
X190000000Y-115000000D03*
X155500000Y-131500000D03*
X165800000Y-144200000D03*
X152500000Y-115000000D03*
X190000000Y-152500000D03*
X150000000Y-120000000D03*
X150000000Y-154500000D03*
X195000000Y-120000000D03*
X201500000Y-129000000D03*
X185000000Y-120000000D03*
X193500000Y-128000000D03*
X150000000Y-152500000D03*
X205000000Y-129000000D03*
X178000000Y-151000000D03*
X142500000Y-138500000D03*
X165000000Y-152500000D03*
X153500000Y-126000000D03*
X202500000Y-122500000D03*
X183000000Y-112000000D03*
X197500000Y-125000000D03*
X143500000Y-136500000D03*
X150000000Y-117500000D03*
X144500000Y-152500000D03*
X202500000Y-112500000D03*
X150000000Y-153500000D03*
X144500000Y-154500000D03*
X195000000Y-112500000D03*
X145000000Y-127500000D03*
X190000000Y-154500000D03*
X151500000Y-136500000D03*
X157500000Y-131500000D03*
X170000000Y-131500000D03*
X179000000Y-150000000D03*
X159500000Y-132500000D03*
X169000000Y-131500000D03*
X200500000Y-128000000D03*
X153500000Y-114000000D03*
X167800000Y-145200000D03*
X147500000Y-127500000D03*
X195000000Y-150000000D03*
X153500000Y-112000000D03*
X170000000Y-136500000D03*
X197500000Y-120000000D03*
X153500000Y-124000000D03*
X192500000Y-127000000D03*
X180000000Y-150000000D03*
X202500000Y-129000000D03*
X183000000Y-115000000D03*
X205000000Y-128000000D03*
X159500000Y-135500000D03*
X150000000Y-115000000D03*
X191500000Y-129000000D03*
X166800000Y-146200000D03*
X154500000Y-148000000D03*
X200000000Y-120000000D03*
X172500000Y-154500000D03*
X166800000Y-144700000D03*
X143500000Y-155500000D03*
X156500000Y-131500000D03*
X170000000Y-137500000D03*
X185000000Y-122500000D03*
X155500000Y-148000000D03*
X166500000Y-139000000D03*
X199500000Y-128000000D03*
X187500000Y-150000000D03*
X150000000Y-132500000D03*
X159500000Y-133500000D03*
X198800000Y-144400000D03*
X192500000Y-122500000D03*
X187500000Y-122500000D03*
X192500000Y-129000000D03*
X196500000Y-128000000D03*
X192800000Y-145600000D03*
X152500000Y-154500000D03*
X190000000Y-122500000D03*
X191500000Y-128000000D03*
X144500000Y-155500000D03*
X207500000Y-122500000D03*
X144500000Y-134000000D03*
X167500000Y-154500000D03*
X192500000Y-115000000D03*
X165500000Y-139000000D03*
X153500000Y-123000000D03*
X142500000Y-137500000D03*
X187500000Y-127000000D03*
X153500000Y-128000000D03*
X151500000Y-135500000D03*
X211000000Y-128500000D03*
X142500000Y-136500000D03*
X183000000Y-122000000D03*
X211000000Y-130500000D03*
X166500000Y-134500000D03*
X187500000Y-115000000D03*
X192500000Y-112500000D03*
X147500000Y-135000000D03*
X153500000Y-148000000D03*
X153500000Y-115000000D03*
X187500000Y-152500000D03*
X194500000Y-128000000D03*
X172000000Y-139000000D03*
X150000000Y-130000000D03*
X149000000Y-153500000D03*
X183000000Y-111000000D03*
X183000000Y-128000000D03*
X142500000Y-130000000D03*
X146500000Y-135000000D03*
X150000000Y-127500000D03*
X152500000Y-150500000D03*
X198800000Y-143400000D03*
X154100000Y-144075000D03*
X192500000Y-117500000D03*
X204000000Y-130000000D03*
X173000000Y-139000000D03*
X200000000Y-117500000D03*
X204000000Y-131000000D03*
X190000000Y-112500000D03*
X143500000Y-153500000D03*
X180000000Y-151000000D03*
X210000000Y-128500000D03*
X205000000Y-130000000D03*
X170000000Y-134500000D03*
X197500000Y-150000000D03*
X150000000Y-122500000D03*
X142500000Y-122500000D03*
X150000000Y-125000000D03*
X142500000Y-127500000D03*
X153500000Y-121000000D03*
X193800000Y-146600000D03*
X152500000Y-127500000D03*
X180000000Y-154500000D03*
X190000000Y-125000000D03*
X153500000Y-127000000D03*
X185000000Y-152500000D03*
X185000000Y-125000000D03*
X210000000Y-127500000D03*
X204000000Y-128000000D03*
X165800000Y-145200000D03*
X166500000Y-136500000D03*
X143500000Y-139500000D03*
X166800000Y-143200000D03*
X147500000Y-120000000D03*
X200000000Y-152500000D03*
X153500000Y-120000000D03*
X202500000Y-152500000D03*
X196500000Y-129000000D03*
X153500000Y-125000000D03*
X148500000Y-136000000D03*
X154500000Y-131500000D03*
X153500000Y-129000000D03*
X193500000Y-129000000D03*
X152500000Y-132500000D03*
X149500000Y-137000000D03*
X142500000Y-139500000D03*
X190000000Y-117500000D03*
X178000000Y-150000000D03*
X194500000Y-129000000D03*
X187500000Y-112500000D03*
X150000000Y-155500000D03*
X166500000Y-135500000D03*
X185000000Y-112500000D03*
X142500000Y-120000000D03*
X210000000Y-130500000D03*
X152500000Y-152500000D03*
X183000000Y-126000000D03*
X159500000Y-136500000D03*
X143500000Y-154500000D03*
X207500000Y-125000000D03*
X170000000Y-133500000D03*
X147500000Y-134000000D03*
X197500000Y-112500000D03*
X197800000Y-143400000D03*
X200000000Y-122500000D03*
X200000000Y-150000000D03*
X197500000Y-117500000D03*
X205000000Y-125000000D03*
X179500000Y-131500000D03*
X183000000Y-125000000D03*
X178500000Y-131500000D03*
X197800000Y-144400000D03*
X181000000Y-150000000D03*
X210000000Y-129500000D03*
D39*
%TO.N,/HO*%
X170700000Y-142400002D03*
X181000000Y-139500000D03*
D38*
%TO.N,/VIN*%
X158515431Y-146325000D03*
X158600000Y-144800000D03*
D39*
%TO.N,/BST*%
X179800000Y-141750002D03*
X173400000Y-140900000D03*
%TO.N,FB*%
X185100000Y-142100000D03*
X168800000Y-149800000D03*
X175300000Y-148500000D03*
X172000000Y-149100000D03*
%TD*%
D40*
%TO.N,/SW*%
X172199998Y-143050002D02*
X172400000Y-142850000D01*
X172099998Y-143050002D02*
X172400000Y-142750000D01*
X169689600Y-143050002D02*
X172099998Y-143050002D01*
D41*
X173125000Y-142750000D02*
X174730000Y-141145000D01*
X172400000Y-142750000D02*
X173125000Y-142750000D01*
X174730000Y-141145000D02*
X174730000Y-140110002D01*
%TO.N,GND*%
X174575000Y-150600000D02*
X174575000Y-151575000D01*
D40*
X167169801Y-145000001D02*
X166844800Y-144675000D01*
X160475000Y-150025000D02*
X160000000Y-150500000D01*
X160525000Y-148050000D02*
X160475000Y-148100000D01*
D41*
X178100000Y-147250000D02*
X179250000Y-148400000D01*
D40*
X169689600Y-145000001D02*
X167169801Y-145000001D01*
X160525000Y-146500000D02*
X160525000Y-148050000D01*
X169689600Y-146300001D02*
X168469801Y-146300001D01*
X166844800Y-144133601D02*
X165111200Y-142400001D01*
X160475000Y-148100000D02*
X160475000Y-150025000D01*
D41*
X174575000Y-151575000D02*
X174750000Y-151750000D01*
D40*
X165111200Y-142400001D02*
X164000000Y-142400001D01*
X166844800Y-144675000D02*
X166844800Y-144133601D01*
X164000000Y-141750000D02*
X164533400Y-141750000D01*
X164000000Y-146949999D02*
X165111200Y-146949999D01*
X164533400Y-141750000D02*
X166844800Y-144061400D01*
D41*
X177500000Y-147250000D02*
X178100000Y-147250000D01*
D40*
X165111200Y-146949999D02*
X166800000Y-145261199D01*
X166844800Y-144061400D02*
X166844800Y-144675000D01*
X168469801Y-146300001D02*
X166844800Y-144675000D01*
X155800000Y-144075000D02*
X154100000Y-144075000D01*
X166800000Y-145261199D02*
X166800000Y-144700000D01*
%TO.N,/LO*%
X177950002Y-144350002D02*
X178400000Y-144800000D01*
X169689600Y-144350002D02*
X177950002Y-144350002D01*
X178400000Y-144800000D02*
X178400000Y-145610000D01*
%TO.N,/HO*%
X170699999Y-142400001D02*
X170700000Y-142400002D01*
X169689600Y-142400001D02*
X170699999Y-142400001D01*
X181000000Y-139500000D02*
X181000000Y-139250000D01*
X181000000Y-139250000D02*
X180250000Y-138500000D01*
D42*
%TO.N,+18V*%
X157975000Y-143975000D02*
X158975000Y-142975000D01*
X156037500Y-140250000D02*
X154100000Y-140250000D01*
X154100000Y-140250000D02*
X153800000Y-139950000D01*
D43*
X152050000Y-146000000D02*
X148500000Y-146000000D01*
D42*
X158975000Y-142975000D02*
X162000000Y-142975000D01*
X156037500Y-140250000D02*
X156037500Y-142812500D01*
X157200000Y-143975000D02*
X157975000Y-143975000D01*
X156037500Y-142812500D02*
X157200000Y-143975000D01*
D40*
X164000000Y-143700001D02*
X162725001Y-143700001D01*
X162725001Y-143700001D02*
X162000000Y-142975000D01*
%TO.N,/VIN*%
X158515431Y-147165431D02*
X158600000Y-147250000D01*
X158775000Y-144625000D02*
X158600000Y-144800000D01*
X162275001Y-144349999D02*
X162000000Y-144625000D01*
X164000000Y-144349999D02*
X162275001Y-144349999D01*
X158515431Y-146325000D02*
X158515431Y-147165431D01*
D41*
X161975000Y-144600000D02*
X162000000Y-144625000D01*
D40*
X162000000Y-144625000D02*
X158775000Y-144625000D01*
D42*
%TO.N,/SS*%
X161250000Y-150167200D02*
X162000000Y-150917200D01*
X162075000Y-146500000D02*
X161250000Y-147325000D01*
X162075000Y-146500000D02*
X162308998Y-146500000D01*
X162308998Y-146500000D02*
X163158999Y-145649999D01*
X161250000Y-147325000D02*
X161250000Y-150167200D01*
X163158999Y-145649999D02*
X164000000Y-145649999D01*
D40*
%TO.N,/BST*%
X171499998Y-141750002D02*
X172400000Y-140850000D01*
X179800000Y-141750002D02*
X180999998Y-141750002D01*
X172400000Y-140850000D02*
X173350000Y-140850000D01*
X180999998Y-141750002D02*
X181250000Y-141500000D01*
X173350000Y-140850000D02*
X173400000Y-140900000D01*
X169689600Y-141750002D02*
X171499998Y-141750002D01*
%TO.N,/RES*%
X171475000Y-145500000D02*
X171324998Y-145650002D01*
X171324998Y-145650002D02*
X169689600Y-145650002D01*
%TO.N,/COMP*%
X169689600Y-148910400D02*
X169600000Y-149000000D01*
X169600000Y-149920654D02*
X169600000Y-149000000D01*
X165500000Y-150000000D02*
X165951000Y-150451000D01*
X169600000Y-152225000D02*
X169625000Y-152200000D01*
X169689600Y-147600000D02*
X169689600Y-148910400D01*
X169600000Y-149000000D02*
X169600000Y-152225000D01*
X165951000Y-150451000D02*
X169069654Y-150451000D01*
X171075000Y-152200000D02*
X171375000Y-152500000D01*
X169069654Y-150451000D02*
X169600000Y-149920654D01*
X169625000Y-152200000D02*
X171075000Y-152200000D01*
%TO.N,FB*%
X172000000Y-149100000D02*
X172925000Y-149100000D01*
X164000000Y-147599998D02*
X164000000Y-149950000D01*
X186000000Y-139950000D02*
X189500000Y-139950000D01*
X174575000Y-149000000D02*
X174800000Y-149000000D01*
X185100000Y-140850000D02*
X186000000Y-139950000D01*
X173000000Y-149025000D02*
X174550000Y-149025000D01*
X174800000Y-149000000D02*
X175300000Y-148500000D01*
X172925000Y-149100000D02*
X173000000Y-149025000D01*
X174575000Y-149000000D02*
X174700000Y-149000000D01*
X168050000Y-149050000D02*
X168800000Y-149800000D01*
X168050000Y-149000000D02*
X168050000Y-149050000D01*
X185100000Y-142100000D02*
X185100000Y-140850000D01*
X164000000Y-149950000D02*
X163950000Y-150000000D01*
X174550000Y-149025000D02*
X174575000Y-149000000D01*
X166649998Y-147599998D02*
X168050000Y-149000000D01*
X164000000Y-147599998D02*
X166649998Y-147599998D01*
%TO.N,Net-(C7-Pad1)*%
X173000000Y-150575000D02*
X173000000Y-152175000D01*
X173000000Y-152175000D02*
X173025000Y-152200000D01*
%TO.N,/VCC*%
X181150000Y-148400000D02*
X181150000Y-145600000D01*
X181250000Y-145500000D02*
X179450001Y-143700001D01*
X179450001Y-143700001D02*
X169689600Y-143700001D01*
X181150000Y-145600000D02*
X181250000Y-145500000D01*
D42*
%TO.N,/UVLO*%
X157500000Y-145625000D02*
X155900000Y-145625000D01*
X157500000Y-145625000D02*
X162533999Y-145625000D01*
X163159001Y-144999998D02*
X164000000Y-144999998D01*
X162533999Y-145625000D02*
X163159001Y-144999998D01*
X155900000Y-145625000D02*
X155800000Y-145725000D01*
%TO.N,/SYNCIN*%
X162125000Y-148100000D02*
X162826000Y-147399000D01*
X163088800Y-146299998D02*
X164000000Y-146299998D01*
X162826000Y-147399000D02*
X162826000Y-146562798D01*
X162826000Y-146562798D02*
X163088800Y-146299998D01*
D40*
%TO.N,Net-(R10-Pad1)*%
X174575000Y-147000000D02*
X173200000Y-147000000D01*
%TO.N,/SLOPE*%
X171550000Y-147000000D02*
X169739598Y-147000000D01*
X169739598Y-147000000D02*
X169689600Y-146950002D01*
%TO.N,Net-(R13-Pad2)*%
X176325000Y-149100000D02*
X176325000Y-150500000D01*
X176225000Y-149000000D02*
X176325000Y-149100000D01*
X176325000Y-150500000D02*
X176225000Y-150600000D01*
D42*
%TO.N,/CSN*%
X163184999Y-135161301D02*
X161962500Y-136383800D01*
X161962500Y-140250000D02*
X162987800Y-141275300D01*
X163088800Y-143049999D02*
X164000000Y-143049999D01*
X162987800Y-142948999D02*
X163088800Y-143049999D01*
X162987800Y-141275300D02*
X162987800Y-142948999D01*
D43*
X161962500Y-136383800D02*
X161962500Y-140250000D01*
D42*
%TO.N,Net-(J4-Pin_1)*%
X158540000Y-154540000D02*
X159000000Y-155000000D01*
X156000000Y-154540000D02*
X158540000Y-154540000D01*
%TO.N,Net-(MOSFET1-G)*%
X161047500Y-154602500D02*
X160650000Y-155000000D01*
X161047500Y-153000000D02*
X161047500Y-154602500D01*
X160650000Y-155000000D02*
X162175000Y-155000000D01*
%TD*%
%TA.AperFunction,Conductor*%
%TO.N,GND*%
G36*
X177592539Y-145070187D02*
G01*
X177638294Y-145122991D01*
X177649500Y-145174502D01*
X177649500Y-146047870D01*
X177649501Y-146047876D01*
X177655908Y-146107483D01*
X177706202Y-146242328D01*
X177706206Y-146242335D01*
X177750000Y-146300835D01*
X177750000Y-147750000D01*
X175500000Y-147750000D01*
X175500000Y-146250000D01*
X175290658Y-146250000D01*
X175210188Y-146169530D01*
X175107550Y-146107483D01*
X175064606Y-146081522D01*
X174902196Y-146030914D01*
X174902194Y-146030913D01*
X174902192Y-146030913D01*
X174852778Y-146026423D01*
X174831616Y-146024500D01*
X174318384Y-146024500D01*
X174299145Y-146026248D01*
X174247807Y-146030913D01*
X174085393Y-146081522D01*
X174042449Y-146107483D01*
X173951648Y-146162374D01*
X173884096Y-146180210D01*
X173823351Y-146162374D01*
X173689606Y-146081522D01*
X173527196Y-146030914D01*
X173527194Y-146030913D01*
X173527192Y-146030913D01*
X173477778Y-146026423D01*
X173456616Y-146024500D01*
X172943384Y-146024500D01*
X172924145Y-146026248D01*
X172872807Y-146030913D01*
X172710393Y-146081522D01*
X172564806Y-146169533D01*
X172564681Y-146169632D01*
X172564572Y-146169675D01*
X172558396Y-146173409D01*
X172557774Y-146172381D01*
X172499766Y-146195472D01*
X172431185Y-146182115D01*
X172380712Y-146133800D01*
X172364373Y-146065868D01*
X172370514Y-146033012D01*
X172415349Y-145897708D01*
X172425500Y-145798345D01*
X172425499Y-145201656D01*
X172425125Y-145197997D01*
X172424013Y-145187101D01*
X172436784Y-145118408D01*
X172484666Y-145067525D01*
X172547371Y-145050502D01*
X177525500Y-145050502D01*
X177592539Y-145070187D01*
G37*
%TD.AperFunction*%
%TD*%
%TA.AperFunction,Conductor*%
%TO.N,/SW*%
G36*
X180943039Y-134019685D02*
G01*
X180988794Y-134072489D01*
X181000000Y-134124000D01*
X181000000Y-137410625D01*
X180980315Y-137477664D01*
X180927511Y-137523419D01*
X180915212Y-137528262D01*
X180285586Y-137738137D01*
X180246374Y-137744500D01*
X179772128Y-137744500D01*
X179772122Y-137744501D01*
X179712515Y-137750908D01*
X179577670Y-137801202D01*
X179577663Y-137801206D01*
X179462454Y-137887452D01*
X179462451Y-137887455D01*
X179376205Y-138002664D01*
X179376201Y-138002671D01*
X179325909Y-138137513D01*
X179325908Y-138137517D01*
X179319499Y-138197127D01*
X179319499Y-138197134D01*
X179319499Y-138197135D01*
X179319499Y-138802870D01*
X179319500Y-138802876D01*
X179324432Y-138848754D01*
X179322734Y-138886325D01*
X179019936Y-140400318D01*
X178987486Y-140462196D01*
X178926734Y-140496706D01*
X178898344Y-140500000D01*
X174124000Y-140500000D01*
X174056961Y-140480315D01*
X174011206Y-140427511D01*
X174000000Y-140376000D01*
X174000000Y-134124000D01*
X174019685Y-134056961D01*
X174072489Y-134011206D01*
X174124000Y-134000000D01*
X180876000Y-134000000D01*
X180943039Y-134019685D01*
G37*
%TD.AperFunction*%
%TD*%
%TA.AperFunction,Conductor*%
%TO.N,+36V*%
G36*
X192786390Y-131517998D02*
G01*
X192824794Y-131524289D01*
X192872203Y-131539999D01*
X192974991Y-131550500D01*
X194025008Y-131550499D01*
X194025016Y-131550498D01*
X194025019Y-131550498D01*
X194048896Y-131548058D01*
X194127797Y-131539999D01*
X194154999Y-131530984D01*
X194194587Y-131524691D01*
X194815498Y-131527643D01*
X194853902Y-131533934D01*
X194872203Y-131539999D01*
X194974991Y-131550500D01*
X196025008Y-131550499D01*
X196025016Y-131550498D01*
X196025019Y-131550498D01*
X196081302Y-131544748D01*
X196127797Y-131539999D01*
X196130250Y-131539185D01*
X196131966Y-131538618D01*
X196170972Y-131532323D01*
X203207656Y-131532323D01*
X203274695Y-131552008D01*
X203295460Y-131570495D01*
X203296228Y-131569728D01*
X203425961Y-131699461D01*
X203425965Y-131699464D01*
X203573446Y-131798009D01*
X203573459Y-131798016D01*
X203696363Y-131848923D01*
X203737334Y-131865894D01*
X203737336Y-131865894D01*
X203737341Y-131865896D01*
X203911304Y-131900499D01*
X203911307Y-131900500D01*
X203911309Y-131900500D01*
X204088693Y-131900500D01*
X204088694Y-131900499D01*
X204146682Y-131888964D01*
X204262658Y-131865896D01*
X204262661Y-131865894D01*
X204262666Y-131865894D01*
X204426547Y-131798013D01*
X204431107Y-131794965D01*
X204497783Y-131774086D01*
X204565163Y-131792569D01*
X204568867Y-131794948D01*
X204573453Y-131798013D01*
X204573455Y-131798014D01*
X204573457Y-131798015D01*
X204682707Y-131843267D01*
X204737334Y-131865894D01*
X204737336Y-131865894D01*
X204737341Y-131865896D01*
X204911304Y-131900499D01*
X204911307Y-131900500D01*
X204911309Y-131900500D01*
X205088693Y-131900500D01*
X205088694Y-131900499D01*
X205146682Y-131888964D01*
X205262658Y-131865896D01*
X205262661Y-131865894D01*
X205262666Y-131865894D01*
X205426547Y-131798013D01*
X205574035Y-131699464D01*
X205617176Y-131656323D01*
X205703772Y-131569728D01*
X205705541Y-131571497D01*
X205754220Y-131538329D01*
X205792344Y-131532323D01*
X209376000Y-131532323D01*
X209443039Y-131552008D01*
X209488794Y-131604812D01*
X209500000Y-131656323D01*
X209500000Y-141875706D01*
X209480315Y-141942745D01*
X209427511Y-141988500D01*
X209375707Y-141999706D01*
X195821349Y-141967727D01*
X195779894Y-141960488D01*
X190557752Y-140093303D01*
X190501254Y-140052197D01*
X190475948Y-139987071D01*
X190475500Y-139976542D01*
X190475500Y-139693386D01*
X190469086Y-139622807D01*
X190469086Y-139622804D01*
X190418478Y-139460394D01*
X190330472Y-139314815D01*
X190330470Y-139314813D01*
X190330469Y-139314811D01*
X190210188Y-139194530D01*
X190064606Y-139106522D01*
X189902196Y-139055914D01*
X189902194Y-139055913D01*
X189902192Y-139055913D01*
X189852778Y-139051423D01*
X189831616Y-139049500D01*
X189168384Y-139049500D01*
X189149145Y-139051248D01*
X189097807Y-139055913D01*
X188935393Y-139106522D01*
X188799150Y-139188885D01*
X188731595Y-139206721D01*
X188670850Y-139188885D01*
X188534606Y-139106522D01*
X188372196Y-139055914D01*
X188372194Y-139055913D01*
X188372192Y-139055913D01*
X188322778Y-139051423D01*
X188301616Y-139049500D01*
X187659944Y-139049500D01*
X187618196Y-139042261D01*
X187500001Y-139000000D01*
X187500000Y-139000000D01*
X183124000Y-139000000D01*
X183056961Y-138980315D01*
X183011206Y-138927511D01*
X183000000Y-138876000D01*
X183000000Y-135071222D01*
X183019685Y-135004183D01*
X183061519Y-134964113D01*
X188970773Y-131517048D01*
X189033834Y-131500160D01*
X192786390Y-131517998D01*
G37*
%TD.AperFunction*%
%TD*%
%TA.AperFunction,Conductor*%
%TO.N,+18V*%
G36*
X151070488Y-139006294D02*
G01*
X151172203Y-139039999D01*
X151274991Y-139050500D01*
X152325008Y-139050499D01*
X152325016Y-139050498D01*
X152325019Y-139050498D01*
X152381302Y-139044748D01*
X152427797Y-139039999D01*
X152529512Y-139006294D01*
X152568516Y-139000000D01*
X153031484Y-139000000D01*
X153070488Y-139006294D01*
X153172203Y-139039999D01*
X153274991Y-139050500D01*
X154325008Y-139050499D01*
X154325016Y-139050498D01*
X154325019Y-139050498D01*
X154381302Y-139044748D01*
X154427797Y-139039999D01*
X154529512Y-139006294D01*
X154568516Y-139000000D01*
X156876000Y-139000000D01*
X156943039Y-139019685D01*
X156988794Y-139072489D01*
X157000000Y-139124000D01*
X157000000Y-142376000D01*
X156980315Y-142443039D01*
X156927511Y-142488794D01*
X156876000Y-142500000D01*
X154568516Y-142500000D01*
X154529512Y-142493706D01*
X154510495Y-142487404D01*
X154427797Y-142460001D01*
X154427795Y-142460000D01*
X154325010Y-142449500D01*
X153274998Y-142449500D01*
X153274980Y-142449501D01*
X153172203Y-142460000D01*
X153172200Y-142460001D01*
X153070488Y-142493706D01*
X153031484Y-142500000D01*
X152568516Y-142500000D01*
X152529512Y-142493706D01*
X152510495Y-142487404D01*
X152427797Y-142460001D01*
X152427795Y-142460000D01*
X152325010Y-142449500D01*
X151274998Y-142449500D01*
X151274980Y-142449501D01*
X151172203Y-142460000D01*
X151172200Y-142460001D01*
X151077229Y-142491472D01*
X151077226Y-142491473D01*
X151051494Y-142500000D01*
X151000000Y-142500000D01*
X150995737Y-142521310D01*
X150943589Y-142553474D01*
X150943574Y-142553482D01*
X150856344Y-142607287D01*
X150732289Y-142731342D01*
X150640187Y-142880663D01*
X150640186Y-142880666D01*
X150585001Y-143047203D01*
X150585001Y-143047204D01*
X150585000Y-143047204D01*
X150574500Y-143149983D01*
X150574500Y-143750001D01*
X150574501Y-143750019D01*
X150585000Y-143852796D01*
X150585001Y-143852799D01*
X150640185Y-144019331D01*
X150640186Y-144019334D01*
X150640190Y-144019340D01*
X150656807Y-144046282D01*
X150675247Y-144113675D01*
X150672860Y-144135696D01*
X149519936Y-149900318D01*
X149487486Y-149962196D01*
X149426734Y-149996706D01*
X149398344Y-150000000D01*
X144624000Y-150000000D01*
X144556961Y-149980315D01*
X144511206Y-149927511D01*
X144500000Y-149876000D01*
X144500000Y-139128230D01*
X144519685Y-139061191D01*
X144572489Y-139015436D01*
X144641647Y-139005492D01*
X144705203Y-139034517D01*
X144711681Y-139040549D01*
X144763844Y-139092712D01*
X144913166Y-139184814D01*
X145079703Y-139239999D01*
X145182491Y-139250500D01*
X147282508Y-139250499D01*
X147385297Y-139239999D01*
X147551834Y-139184814D01*
X147701156Y-139092712D01*
X147757549Y-139036319D01*
X147818872Y-139002834D01*
X147845230Y-139000000D01*
X151031484Y-139000000D01*
X151070488Y-139006294D01*
G37*
%TD.AperFunction*%
%TD*%
%TA.AperFunction,Conductor*%
%TO.N,GND*%
G36*
X212642539Y-109320185D02*
G01*
X212688294Y-109372989D01*
X212699500Y-109424500D01*
X212699500Y-156575500D01*
X212679815Y-156642539D01*
X212627011Y-156688294D01*
X212575500Y-156699500D01*
X140424500Y-156699500D01*
X140357461Y-156679815D01*
X140311706Y-156627011D01*
X140300500Y-156575500D01*
X140300500Y-153670247D01*
X154949500Y-153670247D01*
X154949500Y-155409752D01*
X154961131Y-155468229D01*
X154961132Y-155468230D01*
X155005447Y-155534552D01*
X155071769Y-155578867D01*
X155071770Y-155578868D01*
X155130247Y-155590499D01*
X155130250Y-155590500D01*
X155130252Y-155590500D01*
X156869750Y-155590500D01*
X156869751Y-155590499D01*
X156884568Y-155587552D01*
X156928229Y-155578868D01*
X156928229Y-155578867D01*
X156928231Y-155578867D01*
X156994552Y-155534552D01*
X157038867Y-155468231D01*
X157038867Y-155468229D01*
X157038868Y-155468229D01*
X157050499Y-155409752D01*
X157050500Y-155409750D01*
X157050500Y-154964500D01*
X157070185Y-154897461D01*
X157122989Y-154851706D01*
X157174500Y-154840500D01*
X158275500Y-154840500D01*
X158342539Y-154860185D01*
X158388294Y-154912989D01*
X158399500Y-154964500D01*
X158399500Y-155306517D01*
X158410028Y-155372989D01*
X158414354Y-155400304D01*
X158471950Y-155513342D01*
X158471952Y-155513344D01*
X158471954Y-155513347D01*
X158561652Y-155603045D01*
X158561654Y-155603046D01*
X158561658Y-155603050D01*
X158674694Y-155660645D01*
X158674698Y-155660647D01*
X158768475Y-155675499D01*
X158768481Y-155675500D01*
X159231518Y-155675499D01*
X159325304Y-155660646D01*
X159438342Y-155603050D01*
X159528050Y-155513342D01*
X159585646Y-155400304D01*
X159585646Y-155400302D01*
X159585647Y-155400301D01*
X159597739Y-155323950D01*
X159600500Y-155306519D01*
X159600499Y-154693482D01*
X159600498Y-154693475D01*
X160049500Y-154693475D01*
X160049500Y-155306517D01*
X160060028Y-155372989D01*
X160064354Y-155400304D01*
X160121950Y-155513342D01*
X160121952Y-155513344D01*
X160121954Y-155513347D01*
X160211652Y-155603045D01*
X160211654Y-155603046D01*
X160211658Y-155603050D01*
X160324694Y-155660645D01*
X160324698Y-155660647D01*
X160418475Y-155675499D01*
X160418481Y-155675500D01*
X160881518Y-155675499D01*
X160975304Y-155660646D01*
X161088342Y-155603050D01*
X161178050Y-155513342D01*
X161235646Y-155400304D01*
X161235646Y-155400302D01*
X161235647Y-155400301D01*
X161238663Y-155391020D01*
X161241174Y-155391836D01*
X161249481Y-155374315D01*
X161263647Y-155343297D01*
X161264424Y-155342797D01*
X161264820Y-155341963D01*
X161293750Y-155323950D01*
X161322425Y-155305523D01*
X161323625Y-155305350D01*
X161324134Y-155305034D01*
X161357360Y-155300500D01*
X161467640Y-155300500D01*
X161534679Y-155320185D01*
X161580434Y-155372989D01*
X161585911Y-155391157D01*
X161586337Y-155391019D01*
X161589352Y-155400300D01*
X161589353Y-155400303D01*
X161589354Y-155400304D01*
X161646950Y-155513342D01*
X161646952Y-155513344D01*
X161646954Y-155513347D01*
X161736652Y-155603045D01*
X161736654Y-155603046D01*
X161736658Y-155603050D01*
X161849694Y-155660645D01*
X161849698Y-155660647D01*
X161943475Y-155675499D01*
X161943481Y-155675500D01*
X162406518Y-155675499D01*
X162500304Y-155660646D01*
X162613342Y-155603050D01*
X162703050Y-155513342D01*
X162760646Y-155400304D01*
X162760646Y-155400302D01*
X162760647Y-155400301D01*
X162772739Y-155323950D01*
X162775500Y-155306519D01*
X162775499Y-154693482D01*
X162760646Y-154599696D01*
X162703050Y-154486658D01*
X162703046Y-154486654D01*
X162703045Y-154486652D01*
X162613347Y-154396954D01*
X162613344Y-154396952D01*
X162613342Y-154396950D01*
X162536517Y-154357805D01*
X162500301Y-154339352D01*
X162406524Y-154324500D01*
X161943482Y-154324500D01*
X161862519Y-154337323D01*
X161849696Y-154339354D01*
X161736658Y-154396950D01*
X161736657Y-154396951D01*
X161736652Y-154396954D01*
X161646954Y-154486652D01*
X161646951Y-154486657D01*
X161584924Y-154608391D01*
X161583328Y-154607577D01*
X161550488Y-154655599D01*
X161486128Y-154682794D01*
X161417282Y-154670875D01*
X161365809Y-154623628D01*
X161348000Y-154559601D01*
X161348000Y-153928320D01*
X161367685Y-153861281D01*
X161403109Y-153825218D01*
X161471452Y-153779552D01*
X161515767Y-153713231D01*
X161515767Y-153713229D01*
X161515768Y-153713229D01*
X161527399Y-153654752D01*
X161527400Y-153654750D01*
X161527400Y-152345249D01*
X161527399Y-152345247D01*
X161515768Y-152286770D01*
X161515767Y-152286769D01*
X161471452Y-152220447D01*
X161405130Y-152176132D01*
X161405129Y-152176131D01*
X161346652Y-152164500D01*
X161346648Y-152164500D01*
X160748352Y-152164500D01*
X160748347Y-152164500D01*
X160689870Y-152176131D01*
X160689869Y-152176132D01*
X160623547Y-152220447D01*
X160579232Y-152286769D01*
X160579231Y-152286770D01*
X160567600Y-152345247D01*
X160567600Y-153654752D01*
X160579231Y-153713229D01*
X160579232Y-153713230D01*
X160623547Y-153779552D01*
X160691891Y-153825218D01*
X160736696Y-153878830D01*
X160747000Y-153928320D01*
X160747000Y-154200500D01*
X160727315Y-154267539D01*
X160674511Y-154313294D01*
X160623001Y-154324500D01*
X160418482Y-154324500D01*
X160337519Y-154337323D01*
X160324696Y-154339354D01*
X160211658Y-154396950D01*
X160211657Y-154396951D01*
X160211652Y-154396954D01*
X160121954Y-154486652D01*
X160121951Y-154486657D01*
X160064352Y-154599698D01*
X160049500Y-154693475D01*
X159600498Y-154693475D01*
X159585646Y-154599696D01*
X159528050Y-154486658D01*
X159528046Y-154486654D01*
X159528045Y-154486652D01*
X159438347Y-154396954D01*
X159438344Y-154396952D01*
X159438342Y-154396950D01*
X159361517Y-154357805D01*
X159325301Y-154339352D01*
X159231524Y-154324500D01*
X158799132Y-154324500D01*
X158732093Y-154304815D01*
X158724942Y-154299788D01*
X158655995Y-154259982D01*
X158655990Y-154259979D01*
X158630513Y-154253152D01*
X158579562Y-154239500D01*
X158579560Y-154239500D01*
X157174500Y-154239500D01*
X157107461Y-154219815D01*
X157061706Y-154167011D01*
X157050500Y-154115500D01*
X157050500Y-153670249D01*
X157050499Y-153670247D01*
X157038868Y-153611770D01*
X157038867Y-153611769D01*
X156994552Y-153545447D01*
X156928230Y-153501132D01*
X156928229Y-153501131D01*
X156869752Y-153489500D01*
X156869748Y-153489500D01*
X155130252Y-153489500D01*
X155130247Y-153489500D01*
X155071770Y-153501131D01*
X155071769Y-153501132D01*
X155005447Y-153545447D01*
X154961132Y-153611769D01*
X154961131Y-153611770D01*
X154949500Y-153670247D01*
X140300500Y-153670247D01*
X140300500Y-139128230D01*
X143994500Y-139128230D01*
X143994500Y-149876000D01*
X144004588Y-149969834D01*
X144006052Y-149983446D01*
X144006054Y-149983462D01*
X144017260Y-150034972D01*
X144051383Y-150137497D01*
X144051386Y-150137503D01*
X144129171Y-150258537D01*
X144129179Y-150258548D01*
X144174923Y-150311340D01*
X144174926Y-150311343D01*
X144174930Y-150311347D01*
X144283664Y-150405567D01*
X144283667Y-150405568D01*
X144283668Y-150405569D01*
X144371606Y-150445730D01*
X144414541Y-150465338D01*
X144481580Y-150485023D01*
X144481584Y-150485024D01*
X144624000Y-150505500D01*
X144624003Y-150505500D01*
X149398342Y-150505500D01*
X149398344Y-150505500D01*
X149398349Y-150505499D01*
X149398366Y-150505499D01*
X149456606Y-150502131D01*
X149462119Y-150501491D01*
X149484995Y-150498837D01*
X149542466Y-150488780D01*
X149676411Y-150436242D01*
X149737163Y-150401732D01*
X149737169Y-150401728D01*
X149850885Y-150313581D01*
X149935162Y-150196966D01*
X149967612Y-150135088D01*
X150015620Y-149999455D01*
X150462542Y-147764844D01*
X150655475Y-146800182D01*
X150687925Y-146738304D01*
X150748677Y-146703794D01*
X150777067Y-146700500D01*
X151343921Y-146700500D01*
X151410960Y-146720185D01*
X151443690Y-146750865D01*
X151444863Y-146752454D01*
X151477848Y-146797148D01*
X151477850Y-146797150D01*
X151587118Y-146877793D01*
X151629845Y-146892744D01*
X151715299Y-146922646D01*
X151745730Y-146925500D01*
X151745734Y-146925500D01*
X152354270Y-146925500D01*
X152384699Y-146922646D01*
X152384701Y-146922646D01*
X152448790Y-146900219D01*
X152512882Y-146877793D01*
X152622150Y-146797150D01*
X152702793Y-146687882D01*
X152733650Y-146599697D01*
X152747646Y-146559701D01*
X152747646Y-146559699D01*
X152750500Y-146529269D01*
X152750500Y-145470730D01*
X152747646Y-145440300D01*
X152747646Y-145440298D01*
X152708228Y-145327650D01*
X152702793Y-145312118D01*
X152622150Y-145202850D01*
X152512882Y-145122207D01*
X152512880Y-145122206D01*
X152384700Y-145077353D01*
X152354270Y-145074500D01*
X152354266Y-145074500D01*
X151745734Y-145074500D01*
X151745730Y-145074500D01*
X151715300Y-145077353D01*
X151715298Y-145077353D01*
X151587119Y-145122206D01*
X151587117Y-145122207D01*
X151477850Y-145202850D01*
X151477848Y-145202851D01*
X151460018Y-145227011D01*
X151447603Y-145243834D01*
X151443692Y-145249133D01*
X151439710Y-145252155D01*
X151437634Y-145256703D01*
X151412158Y-145273075D01*
X151388044Y-145291384D01*
X151381914Y-145292511D01*
X151378856Y-145294477D01*
X151343921Y-145299500D01*
X151106867Y-145299500D01*
X151039828Y-145279815D01*
X150994073Y-145227011D01*
X150984129Y-145157853D01*
X150985275Y-145151182D01*
X151168543Y-144234838D01*
X151170784Y-144220275D01*
X151175416Y-144190171D01*
X151177803Y-144168150D01*
X151180660Y-144123035D01*
X151162825Y-143980265D01*
X151144385Y-143912872D01*
X151117336Y-143850617D01*
X151113359Y-143840208D01*
X151086526Y-143759231D01*
X151080873Y-143732802D01*
X151080636Y-143730483D01*
X151080000Y-143717936D01*
X151080000Y-143182058D01*
X151080637Y-143169501D01*
X151080872Y-143167200D01*
X151086525Y-143140771D01*
X151096887Y-143109501D01*
X151109053Y-143083413D01*
X151123904Y-143059336D01*
X151141757Y-143036756D01*
X151161760Y-143016753D01*
X151184339Y-142998900D01*
X151207133Y-142984841D01*
X151207231Y-142984783D01*
X151208381Y-142984074D01*
X151208616Y-142983964D01*
X151211091Y-142982500D01*
X151211151Y-142982466D01*
X151211292Y-142982715D01*
X151234506Y-142971886D01*
X151239220Y-142970323D01*
X151265762Y-142961528D01*
X151292188Y-142955874D01*
X151294506Y-142955637D01*
X151307063Y-142955000D01*
X152292944Y-142955000D01*
X152305512Y-142955639D01*
X152305873Y-142955675D01*
X152307803Y-142955872D01*
X152334237Y-142961528D01*
X152370505Y-142973547D01*
X152370512Y-142973549D01*
X152429697Y-142988031D01*
X152448982Y-142992750D01*
X152487986Y-142999044D01*
X152510665Y-143000862D01*
X152568507Y-143005500D01*
X152568516Y-143005500D01*
X153031492Y-143005500D01*
X153082906Y-143001377D01*
X153112014Y-142999044D01*
X153151018Y-142992750D01*
X153229496Y-142973546D01*
X153265762Y-142961527D01*
X153292203Y-142955872D01*
X153294501Y-142955638D01*
X153294511Y-142955637D01*
X153307062Y-142955000D01*
X154292944Y-142955000D01*
X154305512Y-142955639D01*
X154305873Y-142955675D01*
X154307803Y-142955872D01*
X154334237Y-142961528D01*
X154370505Y-142973547D01*
X154370512Y-142973549D01*
X154429697Y-142988031D01*
X154448982Y-142992750D01*
X154487986Y-142999044D01*
X154510665Y-143000862D01*
X154568507Y-143005500D01*
X154568516Y-143005500D01*
X155754167Y-143005500D01*
X155821206Y-143025185D01*
X155841848Y-143041819D01*
X156488181Y-143688152D01*
X156521666Y-143749475D01*
X156524500Y-143775833D01*
X156524500Y-144206517D01*
X156531523Y-144250859D01*
X156539354Y-144300304D01*
X156596950Y-144413342D01*
X156596952Y-144413344D01*
X156596954Y-144413347D01*
X156686652Y-144503045D01*
X156686654Y-144503046D01*
X156686658Y-144503050D01*
X156799694Y-144560645D01*
X156799698Y-144560647D01*
X156893475Y-144575499D01*
X156893481Y-144575500D01*
X157506518Y-144575499D01*
X157600304Y-144560646D01*
X157713342Y-144503050D01*
X157803050Y-144413342D01*
X157838787Y-144343203D01*
X157849235Y-144332140D01*
X157855558Y-144318297D01*
X157872738Y-144307255D01*
X157886761Y-144292409D01*
X157902440Y-144288167D01*
X157914336Y-144280523D01*
X157949271Y-144275500D01*
X157994648Y-144275500D01*
X158061687Y-144295185D01*
X158107442Y-144347989D01*
X158117386Y-144417147D01*
X158102035Y-144461500D01*
X158040424Y-144568213D01*
X158040423Y-144568216D01*
X157999500Y-144720943D01*
X157999500Y-144879057D01*
X158038472Y-145024500D01*
X158040423Y-145031783D01*
X158040424Y-145031786D01*
X158102035Y-145138500D01*
X158103466Y-145144401D01*
X158107442Y-145148989D01*
X158111606Y-145177955D01*
X158118508Y-145206401D01*
X158116522Y-145212138D01*
X158117386Y-145218147D01*
X158105227Y-145244770D01*
X158095655Y-145272427D01*
X158090883Y-145276179D01*
X158088361Y-145281703D01*
X158063738Y-145297526D01*
X158040734Y-145315618D01*
X158033383Y-145317034D01*
X158029583Y-145319477D01*
X157994648Y-145324500D01*
X157949272Y-145324500D01*
X157882233Y-145304815D01*
X157838788Y-145256796D01*
X157815871Y-145211820D01*
X157803050Y-145186658D01*
X157803047Y-145186655D01*
X157803045Y-145186652D01*
X157713347Y-145096954D01*
X157713344Y-145096952D01*
X157713342Y-145096950D01*
X157631262Y-145055128D01*
X157600301Y-145039352D01*
X157506524Y-145024500D01*
X156893482Y-145024500D01*
X156812519Y-145037323D01*
X156799696Y-145039354D01*
X156686658Y-145096950D01*
X156686657Y-145096951D01*
X156686652Y-145096954D01*
X156596954Y-145186652D01*
X156596951Y-145186657D01*
X156596950Y-145186658D01*
X156561212Y-145256796D01*
X156550764Y-145267859D01*
X156544442Y-145281703D01*
X156527261Y-145292744D01*
X156513239Y-145307591D01*
X156497559Y-145311832D01*
X156485664Y-145319477D01*
X156450729Y-145324500D01*
X156292255Y-145324500D01*
X156225216Y-145304815D01*
X156204574Y-145288181D01*
X156113347Y-145196954D01*
X156113344Y-145196952D01*
X156113342Y-145196950D01*
X156011191Y-145144901D01*
X156000301Y-145139352D01*
X155906524Y-145124500D01*
X155293482Y-145124500D01*
X155212519Y-145137323D01*
X155199696Y-145139354D01*
X155086658Y-145196950D01*
X155086657Y-145196951D01*
X155086652Y-145196954D01*
X154996954Y-145286652D01*
X154996951Y-145286657D01*
X154996950Y-145286658D01*
X154983977Y-145312119D01*
X154939352Y-145399698D01*
X154924500Y-145493475D01*
X154924500Y-145956517D01*
X154931275Y-145999294D01*
X154939354Y-146050304D01*
X154996950Y-146163342D01*
X154996952Y-146163344D01*
X154996954Y-146163347D01*
X155086652Y-146253045D01*
X155086654Y-146253046D01*
X155086658Y-146253050D01*
X155181352Y-146301299D01*
X155199698Y-146310647D01*
X155293475Y-146325499D01*
X155293481Y-146325500D01*
X155906518Y-146325499D01*
X156000304Y-146310646D01*
X156113342Y-146253050D01*
X156203050Y-146163342D01*
X156260646Y-146050304D01*
X156263845Y-146030102D01*
X156278449Y-145999294D01*
X156292606Y-145968297D01*
X156293379Y-145967799D01*
X156293774Y-145966968D01*
X156322709Y-145948950D01*
X156351384Y-145930523D01*
X156352580Y-145930350D01*
X156353085Y-145930037D01*
X156386319Y-145925500D01*
X156450728Y-145925500D01*
X156517767Y-145945185D01*
X156561212Y-145993204D01*
X156596949Y-146063340D01*
X156596954Y-146063347D01*
X156686652Y-146153045D01*
X156686654Y-146153046D01*
X156686658Y-146153050D01*
X156798426Y-146209999D01*
X156799698Y-146210647D01*
X156893475Y-146225499D01*
X156893481Y-146225500D01*
X157506518Y-146225499D01*
X157600304Y-146210646D01*
X157713342Y-146153050D01*
X157713348Y-146153043D01*
X157718044Y-146149633D01*
X157783850Y-146126152D01*
X157851904Y-146141977D01*
X157900600Y-146192082D01*
X157914931Y-146249950D01*
X157914931Y-146404057D01*
X157929375Y-146457963D01*
X157935795Y-146481923D01*
X157934132Y-146551773D01*
X157894969Y-146609635D01*
X157889654Y-146613786D01*
X157802850Y-146677850D01*
X157722207Y-146787117D01*
X157722206Y-146787119D01*
X157677353Y-146915298D01*
X157677353Y-146915300D01*
X157674500Y-146945730D01*
X157674500Y-147554269D01*
X157677353Y-147584699D01*
X157677353Y-147584701D01*
X157721940Y-147712119D01*
X157722207Y-147712882D01*
X157802850Y-147822150D01*
X157912118Y-147902793D01*
X157936690Y-147911391D01*
X158040299Y-147947646D01*
X158070730Y-147950500D01*
X158070734Y-147950500D01*
X159129270Y-147950500D01*
X159159699Y-147947646D01*
X159159701Y-147947646D01*
X159231991Y-147922350D01*
X159287882Y-147902793D01*
X159397150Y-147822150D01*
X159477793Y-147712882D01*
X159516225Y-147603050D01*
X159522646Y-147584701D01*
X159522646Y-147584699D01*
X159525500Y-147554269D01*
X159525500Y-146945730D01*
X159522646Y-146915300D01*
X159522646Y-146915298D01*
X159481303Y-146797149D01*
X159477793Y-146787118D01*
X159397150Y-146677850D01*
X159287882Y-146597207D01*
X159280080Y-146594477D01*
X159191950Y-146563638D01*
X159135174Y-146522916D01*
X159109428Y-146457963D01*
X159113131Y-146414504D01*
X159115931Y-146404057D01*
X159115931Y-146245943D01*
X159075008Y-146093216D01*
X159075007Y-146093214D01*
X159072904Y-146085365D01*
X159075240Y-146084739D01*
X159069089Y-146027472D01*
X159100370Y-145964996D01*
X159160462Y-145929349D01*
X159191117Y-145925500D01*
X161335442Y-145925500D01*
X161402481Y-145945185D01*
X161448236Y-145997989D01*
X161458180Y-146067147D01*
X161445928Y-146105789D01*
X161440281Y-146116874D01*
X161440279Y-146116878D01*
X161424500Y-146216506D01*
X161424500Y-146674167D01*
X161404815Y-146741206D01*
X161388181Y-146761848D01*
X161009541Y-147140487D01*
X161009535Y-147140495D01*
X160969982Y-147209004D01*
X160969979Y-147209009D01*
X160963462Y-147233331D01*
X160949500Y-147285438D01*
X160949500Y-150206762D01*
X160963152Y-150257713D01*
X160969979Y-150283190D01*
X160969980Y-150283191D01*
X160986232Y-150311340D01*
X160996478Y-150329087D01*
X161009540Y-150351711D01*
X161009542Y-150351713D01*
X161483781Y-150825952D01*
X161517266Y-150887275D01*
X161520100Y-150913633D01*
X161520100Y-151571952D01*
X161531731Y-151630429D01*
X161531732Y-151630430D01*
X161576047Y-151696752D01*
X161642369Y-151741067D01*
X161642370Y-151741068D01*
X161700847Y-151752699D01*
X161700850Y-151752700D01*
X161700852Y-151752700D01*
X162299150Y-151752700D01*
X162299151Y-151752699D01*
X162313968Y-151749752D01*
X162357629Y-151741068D01*
X162357629Y-151741067D01*
X162357631Y-151741067D01*
X162423952Y-151696752D01*
X162468267Y-151630431D01*
X162468267Y-151630429D01*
X162468268Y-151630429D01*
X162479899Y-151571952D01*
X162479900Y-151571950D01*
X162479900Y-150262449D01*
X162479899Y-150262447D01*
X162468268Y-150203970D01*
X162468267Y-150203969D01*
X162423952Y-150137647D01*
X162357630Y-150093332D01*
X162357629Y-150093331D01*
X162299152Y-150081700D01*
X162299148Y-150081700D01*
X161700852Y-150081700D01*
X161700851Y-150081700D01*
X161698689Y-150082130D01*
X161697533Y-150082026D01*
X161694787Y-150082297D01*
X161694735Y-150081776D01*
X161629098Y-150075901D01*
X161573921Y-150033037D01*
X161550678Y-149967147D01*
X161550500Y-149960512D01*
X161550500Y-148836023D01*
X161570185Y-148768984D01*
X161622989Y-148723229D01*
X161692147Y-148713285D01*
X161730793Y-148725538D01*
X161799694Y-148760645D01*
X161799696Y-148760646D01*
X161799698Y-148760647D01*
X161893475Y-148775499D01*
X161893481Y-148775500D01*
X162356518Y-148775499D01*
X162450304Y-148760646D01*
X162563342Y-148703050D01*
X162653050Y-148613342D01*
X162710646Y-148500304D01*
X162710646Y-148500302D01*
X162710647Y-148500301D01*
X162725499Y-148406524D01*
X162725500Y-148406519D01*
X162725499Y-147975831D01*
X162734145Y-147946385D01*
X162740667Y-147916405D01*
X162744419Y-147911391D01*
X162745183Y-147908793D01*
X162761813Y-147888156D01*
X162885128Y-147764842D01*
X162946448Y-147731359D01*
X163016140Y-147736343D01*
X163072073Y-147778215D01*
X163094423Y-147828333D01*
X163099932Y-147856027D01*
X163099932Y-147856028D01*
X163144247Y-147922350D01*
X163210569Y-147966665D01*
X163210570Y-147966666D01*
X163269047Y-147978297D01*
X163269050Y-147978298D01*
X163269052Y-147978298D01*
X163475500Y-147978298D01*
X163542539Y-147997983D01*
X163588294Y-148050787D01*
X163599500Y-148102298D01*
X163599500Y-149260408D01*
X163579815Y-149327447D01*
X163531795Y-149370892D01*
X163471783Y-149401469D01*
X163471774Y-149401476D01*
X163376476Y-149496774D01*
X163376473Y-149496778D01*
X163315279Y-149616878D01*
X163299500Y-149716506D01*
X163299500Y-150283493D01*
X163315279Y-150383121D01*
X163315280Y-150383124D01*
X163315281Y-150383126D01*
X163376472Y-150503220D01*
X163376473Y-150503221D01*
X163376476Y-150503225D01*
X163471774Y-150598523D01*
X163471778Y-150598526D01*
X163471780Y-150598528D01*
X163591874Y-150659719D01*
X163591876Y-150659719D01*
X163591878Y-150659720D01*
X163691507Y-150675500D01*
X163691512Y-150675500D01*
X164208493Y-150675500D01*
X164308121Y-150659720D01*
X164308121Y-150659719D01*
X164308126Y-150659719D01*
X164428220Y-150598528D01*
X164523528Y-150503220D01*
X164584719Y-150383126D01*
X164584720Y-150383121D01*
X164600500Y-150283493D01*
X164600500Y-149716506D01*
X164584720Y-149616878D01*
X164584719Y-149616876D01*
X164584719Y-149616874D01*
X164523528Y-149496780D01*
X164523526Y-149496778D01*
X164523523Y-149496774D01*
X164436819Y-149410070D01*
X164403334Y-149348747D01*
X164400500Y-149322389D01*
X164400500Y-148124498D01*
X164420185Y-148057459D01*
X164472989Y-148011704D01*
X164524500Y-148000498D01*
X166432743Y-148000498D01*
X166499782Y-148020183D01*
X166520424Y-148036817D01*
X167363181Y-148879574D01*
X167396666Y-148940897D01*
X167399500Y-148967255D01*
X167399500Y-149283493D01*
X167415279Y-149383121D01*
X167415280Y-149383124D01*
X167415281Y-149383126D01*
X167476472Y-149503220D01*
X167476473Y-149503221D01*
X167476476Y-149503225D01*
X167571774Y-149598523D01*
X167571778Y-149598526D01*
X167571780Y-149598528D01*
X167691874Y-149659719D01*
X167691876Y-149659719D01*
X167691878Y-149659720D01*
X167791507Y-149675500D01*
X167791512Y-149675500D01*
X168057745Y-149675500D01*
X168087185Y-149684144D01*
X168117172Y-149690668D01*
X168122187Y-149694422D01*
X168124784Y-149695185D01*
X168145426Y-149711819D01*
X168272426Y-149838819D01*
X168305911Y-149900142D01*
X168300927Y-149969834D01*
X168259055Y-150025767D01*
X168193591Y-150050184D01*
X168184745Y-150050500D01*
X166274500Y-150050500D01*
X166207461Y-150030815D01*
X166161706Y-149978011D01*
X166150500Y-149926500D01*
X166150500Y-149716506D01*
X166134720Y-149616878D01*
X166134719Y-149616876D01*
X166134719Y-149616874D01*
X166073528Y-149496780D01*
X166073526Y-149496778D01*
X166073523Y-149496774D01*
X165978225Y-149401476D01*
X165978221Y-149401473D01*
X165978220Y-149401472D01*
X165858126Y-149340281D01*
X165858124Y-149340280D01*
X165858121Y-149340279D01*
X165758493Y-149324500D01*
X165758488Y-149324500D01*
X165241512Y-149324500D01*
X165241507Y-149324500D01*
X165141878Y-149340279D01*
X165141874Y-149340280D01*
X165141874Y-149340281D01*
X165070565Y-149376615D01*
X165021778Y-149401473D01*
X165021774Y-149401476D01*
X164926476Y-149496774D01*
X164926473Y-149496778D01*
X164865279Y-149616878D01*
X164849500Y-149716506D01*
X164849500Y-150283493D01*
X164865279Y-150383121D01*
X164865280Y-150383124D01*
X164865281Y-150383126D01*
X164926472Y-150503220D01*
X164926473Y-150503221D01*
X164926476Y-150503225D01*
X165021774Y-150598523D01*
X165021778Y-150598526D01*
X165021780Y-150598528D01*
X165141874Y-150659719D01*
X165141876Y-150659719D01*
X165141878Y-150659720D01*
X165241507Y-150675500D01*
X165241512Y-150675500D01*
X165557745Y-150675500D01*
X165624784Y-150695185D01*
X165645426Y-150711819D01*
X165705087Y-150771480D01*
X165796413Y-150824207D01*
X165898273Y-150851500D01*
X165898275Y-150851500D01*
X169075500Y-150851500D01*
X169142539Y-150871185D01*
X169188294Y-150923989D01*
X169199500Y-150975500D01*
X169199500Y-152277726D01*
X169226793Y-152379589D01*
X169238964Y-152400669D01*
X169279520Y-152470913D01*
X169354087Y-152545480D01*
X169445412Y-152598207D01*
X169547273Y-152625500D01*
X169547275Y-152625500D01*
X169652725Y-152625500D01*
X169652727Y-152625500D01*
X169706505Y-152611090D01*
X169730263Y-152604725D01*
X169762355Y-152600500D01*
X170650501Y-152600500D01*
X170717540Y-152620185D01*
X170763295Y-152672989D01*
X170774501Y-152724500D01*
X170774501Y-152806518D01*
X170789354Y-152900304D01*
X170846950Y-153013342D01*
X170846952Y-153013344D01*
X170846954Y-153013347D01*
X170936652Y-153103045D01*
X170936654Y-153103046D01*
X170936658Y-153103050D01*
X171049694Y-153160645D01*
X171049698Y-153160647D01*
X171143475Y-153175499D01*
X171143481Y-153175500D01*
X171606518Y-153175499D01*
X171700304Y-153160646D01*
X171813342Y-153103050D01*
X171903050Y-153013342D01*
X171960646Y-152900304D01*
X171960646Y-152900302D01*
X171960647Y-152900301D01*
X171975499Y-152806524D01*
X171975500Y-152806519D01*
X171975499Y-152193482D01*
X171960646Y-152099696D01*
X171903050Y-151986658D01*
X171903046Y-151986654D01*
X171903045Y-151986652D01*
X171813347Y-151896954D01*
X171813344Y-151896952D01*
X171813342Y-151896950D01*
X171736517Y-151857805D01*
X171700301Y-151839352D01*
X171606524Y-151824500D01*
X171606519Y-151824500D01*
X171237357Y-151824500D01*
X171205264Y-151820275D01*
X171127730Y-151799500D01*
X171127727Y-151799500D01*
X170124500Y-151799500D01*
X170057461Y-151779815D01*
X170011706Y-151727011D01*
X170000500Y-151675500D01*
X170000500Y-150445730D01*
X172074500Y-150445730D01*
X172074500Y-151054269D01*
X172077353Y-151084699D01*
X172077353Y-151084701D01*
X172122206Y-151212880D01*
X172122207Y-151212882D01*
X172202850Y-151322150D01*
X172312118Y-151402793D01*
X172354845Y-151417744D01*
X172440299Y-151447646D01*
X172470730Y-151450500D01*
X172470734Y-151450500D01*
X172475500Y-151450500D01*
X172542539Y-151470185D01*
X172588294Y-151522989D01*
X172599500Y-151574500D01*
X172599500Y-151832745D01*
X172579815Y-151899784D01*
X172563181Y-151920426D01*
X172496954Y-151986652D01*
X172496951Y-151986657D01*
X172439352Y-152099698D01*
X172424500Y-152193475D01*
X172424500Y-152806517D01*
X172432115Y-152854596D01*
X172439354Y-152900304D01*
X172496950Y-153013342D01*
X172496952Y-153013344D01*
X172496954Y-153013347D01*
X172586652Y-153103045D01*
X172586654Y-153103046D01*
X172586658Y-153103050D01*
X172699694Y-153160645D01*
X172699698Y-153160647D01*
X172793475Y-153175499D01*
X172793481Y-153175500D01*
X173256518Y-153175499D01*
X173350304Y-153160646D01*
X173463342Y-153103050D01*
X173553050Y-153013342D01*
X173610646Y-152900304D01*
X173614171Y-152878048D01*
X207139500Y-152878048D01*
X207139500Y-153121951D01*
X207166013Y-153323333D01*
X207171334Y-153363744D01*
X207208147Y-153501132D01*
X207234456Y-153599320D01*
X207234459Y-153599330D01*
X207327786Y-153824640D01*
X207327791Y-153824651D01*
X207449727Y-154035848D01*
X207449738Y-154035864D01*
X207598199Y-154229343D01*
X207598205Y-154229350D01*
X207770649Y-154401794D01*
X207770655Y-154401799D01*
X207964144Y-154550268D01*
X207964151Y-154550272D01*
X208175348Y-154672208D01*
X208175353Y-154672210D01*
X208175356Y-154672212D01*
X208400679Y-154765544D01*
X208636256Y-154828666D01*
X208878056Y-154860500D01*
X208878063Y-154860500D01*
X209121937Y-154860500D01*
X209121944Y-154860500D01*
X209363744Y-154828666D01*
X209599321Y-154765544D01*
X209824644Y-154672212D01*
X210035856Y-154550268D01*
X210229345Y-154401799D01*
X210401799Y-154229345D01*
X210550268Y-154035856D01*
X210672212Y-153824644D01*
X210765544Y-153599321D01*
X210828666Y-153363744D01*
X210860500Y-153121944D01*
X210860500Y-152878056D01*
X210828666Y-152636256D01*
X210765544Y-152400679D01*
X210672212Y-152175356D01*
X210672210Y-152175353D01*
X210672208Y-152175348D01*
X210550272Y-151964151D01*
X210550268Y-151964144D01*
X210474139Y-151864930D01*
X210401800Y-151770656D01*
X210401794Y-151770649D01*
X210229350Y-151598205D01*
X210229343Y-151598199D01*
X210035864Y-151449738D01*
X210035862Y-151449736D01*
X210035856Y-151449732D01*
X210035851Y-151449729D01*
X210035848Y-151449727D01*
X209824651Y-151327791D01*
X209824640Y-151327786D01*
X209599330Y-151234459D01*
X209599323Y-151234457D01*
X209599321Y-151234456D01*
X209363744Y-151171334D01*
X209323333Y-151166013D01*
X209121951Y-151139500D01*
X209121944Y-151139500D01*
X208878056Y-151139500D01*
X208878048Y-151139500D01*
X208647896Y-151169801D01*
X208636256Y-151171334D01*
X208517889Y-151203050D01*
X208400679Y-151234456D01*
X208400669Y-151234459D01*
X208175359Y-151327786D01*
X208175348Y-151327791D01*
X207964151Y-151449727D01*
X207964135Y-151449738D01*
X207770656Y-151598199D01*
X207770649Y-151598205D01*
X207598205Y-151770649D01*
X207598199Y-151770656D01*
X207449738Y-151964135D01*
X207449727Y-151964151D01*
X207327791Y-152175348D01*
X207327786Y-152175359D01*
X207234459Y-152400669D01*
X207234456Y-152400679D01*
X207181530Y-152598206D01*
X207171335Y-152636253D01*
X207171333Y-152636264D01*
X207139500Y-152878048D01*
X173614171Y-152878048D01*
X173617886Y-152854598D01*
X173617886Y-152854596D01*
X173625499Y-152806525D01*
X173625499Y-152806524D01*
X173625500Y-152806519D01*
X173625499Y-152193482D01*
X173610646Y-152099696D01*
X173553050Y-151986658D01*
X173553046Y-151986654D01*
X173553045Y-151986652D01*
X173463343Y-151896950D01*
X173455448Y-151891214D01*
X173457089Y-151888954D01*
X173443297Y-151882655D01*
X173432249Y-151865464D01*
X173417396Y-151851431D01*
X173413158Y-151835757D01*
X173405523Y-151823877D01*
X173400500Y-151788942D01*
X173400500Y-151574500D01*
X173420185Y-151507461D01*
X173472989Y-151461706D01*
X173524500Y-151450500D01*
X173529270Y-151450500D01*
X173559699Y-151447646D01*
X173559701Y-151447646D01*
X173623790Y-151425219D01*
X173687882Y-151402793D01*
X173797150Y-151322150D01*
X173877793Y-151212882D01*
X173912622Y-151113347D01*
X173922646Y-151084701D01*
X173922646Y-151084699D01*
X173925500Y-151054269D01*
X173925500Y-150445730D01*
X173922646Y-150415300D01*
X173922646Y-150415298D01*
X173880020Y-150293482D01*
X173877793Y-150287118D01*
X173797150Y-150177850D01*
X173687882Y-150097207D01*
X173687880Y-150097206D01*
X173559700Y-150052353D01*
X173529270Y-150049500D01*
X173529266Y-150049500D01*
X172470734Y-150049500D01*
X172470730Y-150049500D01*
X172440300Y-150052353D01*
X172440298Y-150052353D01*
X172312119Y-150097206D01*
X172312117Y-150097207D01*
X172202850Y-150177850D01*
X172122207Y-150287117D01*
X172122206Y-150287119D01*
X172077353Y-150415298D01*
X172077353Y-150415300D01*
X172074500Y-150445730D01*
X170000500Y-150445730D01*
X170000500Y-149973383D01*
X170000501Y-149973380D01*
X170000501Y-149867927D01*
X170000500Y-149867923D01*
X170000500Y-149714115D01*
X170020185Y-149647076D01*
X170068205Y-149603630D01*
X170078220Y-149598528D01*
X170173528Y-149503220D01*
X170234719Y-149383126D01*
X170241505Y-149340281D01*
X170250500Y-149283493D01*
X170250500Y-149040691D01*
X171549500Y-149040691D01*
X171549500Y-149159309D01*
X171580201Y-149273886D01*
X171639511Y-149376613D01*
X171723387Y-149460489D01*
X171826114Y-149519799D01*
X171940691Y-149550500D01*
X171940694Y-149550500D01*
X172059306Y-149550500D01*
X172059309Y-149550500D01*
X172173886Y-149519799D01*
X172178537Y-149517114D01*
X172194024Y-149512963D01*
X172205603Y-149505523D01*
X172240538Y-149500500D01*
X172284496Y-149500500D01*
X172325451Y-149507459D01*
X172440298Y-149547645D01*
X172440300Y-149547646D01*
X172470730Y-149550500D01*
X172470734Y-149550500D01*
X173529270Y-149550500D01*
X173559699Y-149547646D01*
X173559701Y-149547646D01*
X173639290Y-149519796D01*
X173687882Y-149502793D01*
X173759781Y-149449729D01*
X173780193Y-149442273D01*
X173798478Y-149430523D01*
X173821380Y-149427230D01*
X173825408Y-149425759D01*
X173833413Y-149425500D01*
X174026205Y-149425500D01*
X174093244Y-149445185D01*
X174136689Y-149493204D01*
X174146949Y-149513340D01*
X174146954Y-149513347D01*
X174236652Y-149603045D01*
X174236654Y-149603046D01*
X174236658Y-149603050D01*
X174347877Y-149659719D01*
X174349698Y-149660647D01*
X174443475Y-149675499D01*
X174443481Y-149675500D01*
X174906518Y-149675499D01*
X175000304Y-149660646D01*
X175113342Y-149603050D01*
X175203050Y-149513342D01*
X175260646Y-149400304D01*
X175260646Y-149400302D01*
X175260647Y-149400301D01*
X175275499Y-149306524D01*
X175275500Y-149306519D01*
X175275499Y-149142253D01*
X175284144Y-149112808D01*
X175290667Y-149082826D01*
X175294419Y-149077812D01*
X175295183Y-149075214D01*
X175311813Y-149054577D01*
X175413109Y-148953281D01*
X175468702Y-148921187D01*
X175473886Y-148919799D01*
X175538499Y-148882493D01*
X175606399Y-148866020D01*
X175672426Y-148888872D01*
X175715617Y-148943793D01*
X175724500Y-148989880D01*
X175724500Y-149306517D01*
X175729848Y-149340281D01*
X175739354Y-149400304D01*
X175796950Y-149513342D01*
X175886658Y-149603050D01*
X175886660Y-149603051D01*
X175888181Y-149604572D01*
X175902888Y-149631505D01*
X175919477Y-149657319D01*
X175920368Y-149663518D01*
X175921666Y-149665895D01*
X175924500Y-149692254D01*
X175924500Y-149907745D01*
X175904815Y-149974784D01*
X175888181Y-149995426D01*
X175796954Y-150086652D01*
X175796951Y-150086657D01*
X175796950Y-150086658D01*
X175777751Y-150124337D01*
X175739352Y-150199698D01*
X175724500Y-150293475D01*
X175724500Y-150906517D01*
X175735292Y-150974657D01*
X175739354Y-151000304D01*
X175796950Y-151113342D01*
X175796952Y-151113344D01*
X175796954Y-151113347D01*
X175886652Y-151203045D01*
X175886654Y-151203046D01*
X175886658Y-151203050D01*
X175999694Y-151260645D01*
X175999698Y-151260647D01*
X176093475Y-151275499D01*
X176093481Y-151275500D01*
X176556518Y-151275499D01*
X176650304Y-151260646D01*
X176763342Y-151203050D01*
X176853050Y-151113342D01*
X176910646Y-151000304D01*
X176910646Y-151000302D01*
X176910647Y-151000301D01*
X176925499Y-150906524D01*
X176925500Y-150906519D01*
X176925499Y-150293482D01*
X176910646Y-150199696D01*
X176853050Y-150086658D01*
X176853046Y-150086654D01*
X176853045Y-150086652D01*
X176761819Y-149995426D01*
X176747115Y-149968498D01*
X176730523Y-149942680D01*
X176729631Y-149936479D01*
X176728334Y-149934103D01*
X176725500Y-149907745D01*
X176725500Y-149692254D01*
X176745185Y-149625215D01*
X176761819Y-149604572D01*
X176763339Y-149603051D01*
X176763342Y-149603050D01*
X176853050Y-149513342D01*
X176910646Y-149400304D01*
X176910646Y-149400302D01*
X176910647Y-149400301D01*
X176925499Y-149306524D01*
X176925500Y-149306519D01*
X176925499Y-148693482D01*
X176910646Y-148599696D01*
X176853050Y-148486658D01*
X176853046Y-148486654D01*
X176853045Y-148486652D01*
X176763347Y-148396954D01*
X176763344Y-148396952D01*
X176763342Y-148396950D01*
X176686517Y-148357805D01*
X176650301Y-148339352D01*
X176556524Y-148324500D01*
X176093482Y-148324500D01*
X175999695Y-148339354D01*
X175892626Y-148393908D01*
X175823957Y-148406804D01*
X175759216Y-148380527D01*
X175721768Y-148330869D01*
X175719798Y-148326112D01*
X175697898Y-148288181D01*
X175660489Y-148223387D01*
X175576613Y-148139511D01*
X175473886Y-148080201D01*
X175359309Y-148049500D01*
X175240691Y-148049500D01*
X175126114Y-148080201D01*
X175126112Y-148080201D01*
X175126112Y-148080202D01*
X175023387Y-148139510D01*
X174939510Y-148223387D01*
X174916927Y-148262502D01*
X174866359Y-148310717D01*
X174809541Y-148324500D01*
X174443482Y-148324500D01*
X174362519Y-148337323D01*
X174349696Y-148339354D01*
X174236658Y-148396950D01*
X174236657Y-148396951D01*
X174236652Y-148396954D01*
X174146954Y-148486652D01*
X174146948Y-148486660D01*
X174139734Y-148500819D01*
X174091758Y-148551614D01*
X174023937Y-148568407D01*
X173957803Y-148545868D01*
X173914353Y-148491151D01*
X173912210Y-148485476D01*
X173896539Y-148440691D01*
X173877793Y-148387118D01*
X173797150Y-148277850D01*
X173687882Y-148197207D01*
X173687880Y-148197206D01*
X173559700Y-148152353D01*
X173529270Y-148149500D01*
X173529266Y-148149500D01*
X172470734Y-148149500D01*
X172470730Y-148149500D01*
X172440300Y-148152353D01*
X172440298Y-148152353D01*
X172312119Y-148197206D01*
X172312117Y-148197207D01*
X172202850Y-148277850D01*
X172122207Y-148387117D01*
X172122206Y-148387119D01*
X172077353Y-148515298D01*
X172077353Y-148515300D01*
X172075311Y-148537079D01*
X172049453Y-148601987D01*
X171992607Y-148642612D01*
X171951853Y-148649500D01*
X171940691Y-148649500D01*
X171826114Y-148680201D01*
X171826112Y-148680201D01*
X171826112Y-148680202D01*
X171723387Y-148739511D01*
X171723384Y-148739513D01*
X171639513Y-148823384D01*
X171639511Y-148823387D01*
X171583046Y-148921187D01*
X171580201Y-148926114D01*
X171549500Y-149040691D01*
X170250500Y-149040691D01*
X170250500Y-148716506D01*
X170234720Y-148616878D01*
X170234719Y-148616876D01*
X170234719Y-148616874D01*
X170173528Y-148496780D01*
X170173526Y-148496778D01*
X170173523Y-148496774D01*
X170126419Y-148449670D01*
X170092934Y-148388347D01*
X170090100Y-148361989D01*
X170090100Y-148102300D01*
X170109785Y-148035261D01*
X170162589Y-147989506D01*
X170214100Y-147978300D01*
X170420550Y-147978300D01*
X170420551Y-147978299D01*
X170435368Y-147975352D01*
X170479029Y-147966668D01*
X170479029Y-147966667D01*
X170479031Y-147966667D01*
X170545352Y-147922352D01*
X170589667Y-147856031D01*
X170589667Y-147856029D01*
X170589668Y-147856029D01*
X170601299Y-147797552D01*
X170601300Y-147797550D01*
X170601300Y-147524500D01*
X170603850Y-147515814D01*
X170602562Y-147506853D01*
X170613540Y-147482812D01*
X170620985Y-147457461D01*
X170627825Y-147451533D01*
X170631587Y-147443297D01*
X170653821Y-147429007D01*
X170673789Y-147411706D01*
X170684303Y-147409418D01*
X170690365Y-147405523D01*
X170725300Y-147400500D01*
X170888467Y-147400500D01*
X170955506Y-147420185D01*
X170998950Y-147468203D01*
X171021950Y-147513342D01*
X171021952Y-147513344D01*
X171021954Y-147513347D01*
X171111652Y-147603045D01*
X171111654Y-147603046D01*
X171111658Y-147603050D01*
X171224694Y-147660645D01*
X171224698Y-147660647D01*
X171318475Y-147675499D01*
X171318481Y-147675500D01*
X171781518Y-147675499D01*
X171875304Y-147660646D01*
X171988342Y-147603050D01*
X172078050Y-147513342D01*
X172135646Y-147400304D01*
X172135646Y-147400302D01*
X172135647Y-147400301D01*
X172150499Y-147306524D01*
X172150500Y-147306519D01*
X172150499Y-146693482D01*
X172150498Y-146693475D01*
X172599500Y-146693475D01*
X172599500Y-147306517D01*
X172605432Y-147343969D01*
X172614354Y-147400304D01*
X172671950Y-147513342D01*
X172671952Y-147513344D01*
X172671954Y-147513347D01*
X172761652Y-147603045D01*
X172761654Y-147603046D01*
X172761658Y-147603050D01*
X172874694Y-147660645D01*
X172874698Y-147660647D01*
X172968475Y-147675499D01*
X172968481Y-147675500D01*
X173431518Y-147675499D01*
X173525304Y-147660646D01*
X173638342Y-147603050D01*
X173728050Y-147513342D01*
X173751049Y-147468203D01*
X173761497Y-147457140D01*
X173767820Y-147443297D01*
X173785000Y-147432255D01*
X173799023Y-147417409D01*
X173814702Y-147413167D01*
X173826598Y-147405523D01*
X173861533Y-147400500D01*
X173913467Y-147400500D01*
X173980506Y-147420185D01*
X174023950Y-147468203D01*
X174046950Y-147513342D01*
X174046952Y-147513344D01*
X174046954Y-147513347D01*
X174136652Y-147603045D01*
X174136654Y-147603046D01*
X174136658Y-147603050D01*
X174249694Y-147660645D01*
X174249698Y-147660647D01*
X174343475Y-147675499D01*
X174343481Y-147675500D01*
X174806518Y-147675499D01*
X174900304Y-147660646D01*
X175013342Y-147603050D01*
X175103050Y-147513342D01*
X175160646Y-147400304D01*
X175160646Y-147400302D01*
X175160647Y-147400301D01*
X175175499Y-147306524D01*
X175175500Y-147306519D01*
X175175499Y-146693482D01*
X175160646Y-146599696D01*
X175103050Y-146486658D01*
X175103046Y-146486654D01*
X175103045Y-146486652D01*
X175013347Y-146396954D01*
X175013344Y-146396952D01*
X175013342Y-146396950D01*
X174919773Y-146349274D01*
X174900301Y-146339352D01*
X174806524Y-146324500D01*
X174343482Y-146324500D01*
X174262519Y-146337323D01*
X174249696Y-146339354D01*
X174136658Y-146396950D01*
X174136657Y-146396951D01*
X174136652Y-146396954D01*
X174046954Y-146486652D01*
X174046951Y-146486657D01*
X174046950Y-146486658D01*
X174023950Y-146531796D01*
X174013502Y-146542859D01*
X174007180Y-146556703D01*
X173989999Y-146567744D01*
X173975977Y-146582591D01*
X173960297Y-146586832D01*
X173948402Y-146594477D01*
X173913467Y-146599500D01*
X173861533Y-146599500D01*
X173794494Y-146579815D01*
X173751049Y-146531796D01*
X173728050Y-146486658D01*
X173728046Y-146486654D01*
X173728045Y-146486652D01*
X173638347Y-146396954D01*
X173638344Y-146396952D01*
X173638342Y-146396950D01*
X173544773Y-146349274D01*
X173525301Y-146339352D01*
X173431524Y-146324500D01*
X172968482Y-146324500D01*
X172887519Y-146337323D01*
X172874696Y-146339354D01*
X172761658Y-146396950D01*
X172761657Y-146396951D01*
X172761652Y-146396954D01*
X172671954Y-146486652D01*
X172671951Y-146486657D01*
X172671950Y-146486658D01*
X172653476Y-146522916D01*
X172614352Y-146599698D01*
X172599500Y-146693475D01*
X172150498Y-146693475D01*
X172135646Y-146599696D01*
X172078050Y-146486658D01*
X172078046Y-146486654D01*
X172078045Y-146486652D01*
X171988347Y-146396954D01*
X171988343Y-146396951D01*
X171988342Y-146396950D01*
X171986616Y-146396070D01*
X171894775Y-146349274D01*
X171843979Y-146301299D01*
X171827185Y-146233478D01*
X171849723Y-146167343D01*
X171894776Y-146128306D01*
X171953220Y-146098528D01*
X172048528Y-146003220D01*
X172109719Y-145883126D01*
X172115353Y-145847554D01*
X172125500Y-145783493D01*
X172125500Y-145216506D01*
X172109720Y-145116878D01*
X172109719Y-145116876D01*
X172109719Y-145116874D01*
X172048528Y-144996780D01*
X172048526Y-144996778D01*
X172048523Y-144996774D01*
X172013932Y-144962183D01*
X171980447Y-144900860D01*
X171985431Y-144831168D01*
X172027303Y-144775235D01*
X172092767Y-144750818D01*
X172101613Y-144750502D01*
X172250000Y-144750502D01*
X172250000Y-146250000D01*
X175500000Y-146250000D01*
X175500000Y-147750000D01*
X177750000Y-147750000D01*
X177750000Y-144755567D01*
X177762187Y-144759146D01*
X177792174Y-144765670D01*
X177797189Y-144769424D01*
X177799786Y-144770187D01*
X177820428Y-144786821D01*
X177942944Y-144909337D01*
X177976429Y-144970660D01*
X177971445Y-145040352D01*
X177963883Y-145055128D01*
X177961131Y-145061771D01*
X177949500Y-145120245D01*
X177949500Y-146019752D01*
X177961131Y-146078229D01*
X177961132Y-146078230D01*
X178005447Y-146144552D01*
X178071769Y-146188867D01*
X178071770Y-146188868D01*
X178130247Y-146200499D01*
X178130250Y-146200500D01*
X178130252Y-146200500D01*
X178679750Y-146200500D01*
X178679751Y-146200499D01*
X178694568Y-146197552D01*
X178738229Y-146188868D01*
X178738229Y-146188867D01*
X178738231Y-146188867D01*
X178804552Y-146144552D01*
X178848867Y-146078231D01*
X178848867Y-146078229D01*
X178848868Y-146078229D01*
X178858440Y-146030104D01*
X178860500Y-146019748D01*
X178860500Y-145120250D01*
X178860500Y-145120247D01*
X178860499Y-145120245D01*
X178848868Y-145061768D01*
X178848867Y-145061767D01*
X178821398Y-145020657D01*
X178816073Y-145003754D01*
X178806294Y-144989228D01*
X178801275Y-144956781D01*
X178800528Y-144954408D01*
X178800500Y-144953094D01*
X178800500Y-144747273D01*
X178799614Y-144743967D01*
X178773207Y-144645412D01*
X178720480Y-144554087D01*
X178478575Y-144312182D01*
X178445090Y-144250859D01*
X178450074Y-144181167D01*
X178491946Y-144125234D01*
X178557410Y-144100817D01*
X178566256Y-144100501D01*
X179232746Y-144100501D01*
X179299785Y-144120186D01*
X179320427Y-144136820D01*
X180113181Y-144929574D01*
X180146666Y-144990897D01*
X180149500Y-145017255D01*
X180149500Y-146554269D01*
X180152353Y-146584699D01*
X180152353Y-146584701D01*
X180190590Y-146693972D01*
X180197207Y-146712882D01*
X180277850Y-146822150D01*
X180387118Y-146902793D01*
X180422861Y-146915300D01*
X180515299Y-146947646D01*
X180545730Y-146950500D01*
X180545734Y-146950500D01*
X180625500Y-146950500D01*
X180692539Y-146970185D01*
X180738294Y-147022989D01*
X180749500Y-147074500D01*
X180749500Y-147414520D01*
X180729815Y-147481559D01*
X180693371Y-147515031D01*
X180694595Y-147516689D01*
X180687118Y-147522206D01*
X180687118Y-147522207D01*
X180643675Y-147554269D01*
X180577850Y-147602850D01*
X180497207Y-147712117D01*
X180497206Y-147712119D01*
X180452353Y-147840298D01*
X180452353Y-147840300D01*
X180449500Y-147870730D01*
X180449500Y-148929269D01*
X180452353Y-148959699D01*
X180452353Y-148959701D01*
X180495759Y-149083745D01*
X180497207Y-149087882D01*
X180577850Y-149197150D01*
X180687118Y-149277793D01*
X180703408Y-149283493D01*
X180815299Y-149322646D01*
X180845730Y-149325500D01*
X180845734Y-149325500D01*
X181454270Y-149325500D01*
X181484699Y-149322646D01*
X181484701Y-149322646D01*
X181548790Y-149300219D01*
X181612882Y-149277793D01*
X181722150Y-149197150D01*
X181802793Y-149087882D01*
X181825219Y-149023790D01*
X181847646Y-148959701D01*
X181847646Y-148959699D01*
X181850500Y-148929269D01*
X181850500Y-147870730D01*
X181847646Y-147840300D01*
X181847646Y-147840298D01*
X181803060Y-147712882D01*
X181802793Y-147712118D01*
X181722150Y-147602850D01*
X181612882Y-147522207D01*
X181612881Y-147522206D01*
X181605405Y-147516689D01*
X181606862Y-147514714D01*
X181566485Y-147475420D01*
X181550500Y-147414520D01*
X181550500Y-147074500D01*
X181570185Y-147007461D01*
X181622989Y-146961706D01*
X181674500Y-146950500D01*
X181954270Y-146950500D01*
X181984699Y-146947646D01*
X181984701Y-146947646D01*
X182056145Y-146922646D01*
X182112882Y-146902793D01*
X182222150Y-146822150D01*
X182302793Y-146712882D01*
X182332617Y-146627649D01*
X182347646Y-146584701D01*
X182347646Y-146584699D01*
X182350500Y-146554269D01*
X182350500Y-144445730D01*
X182347646Y-144415300D01*
X182347646Y-144415298D01*
X182307406Y-144300302D01*
X182302793Y-144287118D01*
X182222150Y-144177850D01*
X182112882Y-144097207D01*
X182112880Y-144097206D01*
X181984700Y-144052353D01*
X181954270Y-144049500D01*
X181954266Y-144049500D01*
X180545734Y-144049500D01*
X180545730Y-144049500D01*
X180515305Y-144052353D01*
X180515295Y-144052355D01*
X180480274Y-144064609D01*
X180410496Y-144068170D01*
X180351641Y-144035248D01*
X179695916Y-143379523D01*
X179695914Y-143379521D01*
X179624312Y-143338181D01*
X179604590Y-143326794D01*
X179527397Y-143306111D01*
X179502728Y-143299501D01*
X179502727Y-143299501D01*
X178593848Y-143299501D01*
X178526809Y-143279816D01*
X178481054Y-143227012D01*
X178471110Y-143157854D01*
X178500135Y-143094298D01*
X178518356Y-143077129D01*
X178634469Y-142988032D01*
X178725274Y-142869694D01*
X178782355Y-142731886D01*
X178796937Y-142621127D01*
X178796936Y-141128400D01*
X178816621Y-141061362D01*
X178869424Y-141015607D01*
X178913777Y-141004608D01*
X178956606Y-141002131D01*
X178962119Y-141001491D01*
X178984995Y-140998837D01*
X179042466Y-140988780D01*
X179176411Y-140936242D01*
X179237163Y-140901732D01*
X179237169Y-140901728D01*
X179350885Y-140813581D01*
X179435162Y-140696966D01*
X179467612Y-140635088D01*
X179515620Y-140499455D01*
X179804474Y-139055181D01*
X179819188Y-139027123D01*
X179832353Y-138998297D01*
X179835298Y-138996404D01*
X179836924Y-138993304D01*
X179864473Y-138977654D01*
X179891131Y-138960523D01*
X179895818Y-138959848D01*
X179897676Y-138958794D01*
X179926066Y-138955500D01*
X180087745Y-138955500D01*
X180154784Y-138975185D01*
X180175426Y-138991819D01*
X180514961Y-139331354D01*
X180548446Y-139392677D01*
X180550220Y-139435210D01*
X180549500Y-139440682D01*
X180549500Y-139440691D01*
X180549500Y-139559309D01*
X180580201Y-139673886D01*
X180639511Y-139776613D01*
X180639513Y-139776615D01*
X180700717Y-139837819D01*
X180734202Y-139899142D01*
X180729218Y-139968834D01*
X180687346Y-140024767D01*
X180621882Y-140049184D01*
X180613036Y-140049500D01*
X180545730Y-140049500D01*
X180515300Y-140052353D01*
X180515298Y-140052353D01*
X180387119Y-140097206D01*
X180387117Y-140097207D01*
X180277850Y-140177850D01*
X180197207Y-140287117D01*
X180197206Y-140287119D01*
X180152353Y-140415298D01*
X180152353Y-140415300D01*
X180149500Y-140445730D01*
X180149500Y-141217365D01*
X180129815Y-141284404D01*
X180077011Y-141330159D01*
X180007853Y-141340103D01*
X179978055Y-141331929D01*
X179973893Y-141330205D01*
X179973886Y-141330203D01*
X179859309Y-141299502D01*
X179740691Y-141299502D01*
X179626114Y-141330203D01*
X179626112Y-141330203D01*
X179626112Y-141330204D01*
X179523387Y-141389513D01*
X179523384Y-141389515D01*
X179439513Y-141473386D01*
X179439511Y-141473389D01*
X179391129Y-141557189D01*
X179380201Y-141576116D01*
X179349500Y-141690693D01*
X179349500Y-141809311D01*
X179380201Y-141923888D01*
X179439511Y-142026615D01*
X179523387Y-142110491D01*
X179626114Y-142169801D01*
X179740691Y-142200502D01*
X179740694Y-142200502D01*
X179859306Y-142200502D01*
X179859309Y-142200502D01*
X179973886Y-142169801D01*
X179973897Y-142169794D01*
X179978046Y-142168077D01*
X180047515Y-142160608D01*
X180109995Y-142191882D01*
X180145648Y-142251971D01*
X180149500Y-142282638D01*
X180149500Y-142554269D01*
X180152353Y-142584699D01*
X180152353Y-142584701D01*
X180190646Y-142694133D01*
X180197207Y-142712882D01*
X180277850Y-142822150D01*
X180387118Y-142902793D01*
X180429845Y-142917744D01*
X180515299Y-142947646D01*
X180545730Y-142950500D01*
X180545734Y-142950500D01*
X181954270Y-142950500D01*
X181984699Y-142947646D01*
X181984701Y-142947646D01*
X182048790Y-142925219D01*
X182112882Y-142902793D01*
X182222150Y-142822150D01*
X182302793Y-142712882D01*
X182326728Y-142644479D01*
X182347646Y-142584701D01*
X182347646Y-142584699D01*
X182350500Y-142554269D01*
X182350500Y-140445730D01*
X182347646Y-140415300D01*
X182347646Y-140415298D01*
X182302793Y-140287119D01*
X182302792Y-140287117D01*
X182295953Y-140277850D01*
X182222150Y-140177850D01*
X182112882Y-140097207D01*
X182112880Y-140097206D01*
X181984700Y-140052353D01*
X181954270Y-140049500D01*
X181954266Y-140049500D01*
X181386964Y-140049500D01*
X181319925Y-140029815D01*
X181274170Y-139977011D01*
X181264226Y-139907853D01*
X181293251Y-139844297D01*
X181299283Y-139837819D01*
X181360489Y-139776613D01*
X181419799Y-139673886D01*
X181450500Y-139559309D01*
X181450500Y-139440691D01*
X181419799Y-139326114D01*
X181417111Y-139321458D01*
X181400500Y-139259461D01*
X181400500Y-139197275D01*
X181400499Y-139197271D01*
X181380867Y-139124000D01*
X181373207Y-139095412D01*
X181320480Y-139004087D01*
X180916820Y-138600427D01*
X180883335Y-138539104D01*
X180880501Y-138512746D01*
X180880501Y-138225250D01*
X180873372Y-138189413D01*
X180879599Y-138119821D01*
X180922461Y-138064643D01*
X180955778Y-138047583D01*
X181075068Y-138007820D01*
X181100405Y-137998616D01*
X181100422Y-137998610D01*
X181112721Y-137993767D01*
X181137504Y-137983238D01*
X181258543Y-137905450D01*
X181311347Y-137859695D01*
X181405567Y-137750961D01*
X181465338Y-137620084D01*
X181485023Y-137553045D01*
X181485024Y-137553041D01*
X181505500Y-137410625D01*
X181505500Y-135071222D01*
X182494500Y-135071222D01*
X182494500Y-138876000D01*
X182494501Y-138876009D01*
X182506052Y-138983450D01*
X182506054Y-138983462D01*
X182517260Y-139034972D01*
X182551383Y-139137497D01*
X182551386Y-139137503D01*
X182629171Y-139258537D01*
X182629179Y-139258548D01*
X182674923Y-139311340D01*
X182674926Y-139311343D01*
X182674930Y-139311347D01*
X182783664Y-139405567D01*
X182783667Y-139405568D01*
X182783668Y-139405569D01*
X182848571Y-139435210D01*
X182914541Y-139465338D01*
X182981580Y-139485023D01*
X182981584Y-139485024D01*
X183124000Y-139505500D01*
X185578745Y-139505500D01*
X185645784Y-139525185D01*
X185691539Y-139577989D01*
X185701483Y-139647147D01*
X185672458Y-139710703D01*
X185666426Y-139717181D01*
X184779522Y-140604084D01*
X184779520Y-140604087D01*
X184726793Y-140695412D01*
X184705124Y-140776284D01*
X184705123Y-140776283D01*
X184699500Y-140797268D01*
X184699500Y-141859461D01*
X184682889Y-141921458D01*
X184680202Y-141926111D01*
X184680201Y-141926112D01*
X184675744Y-141942748D01*
X184649500Y-142040691D01*
X184649500Y-142159309D01*
X184680201Y-142273886D01*
X184739511Y-142376613D01*
X184823387Y-142460489D01*
X184926114Y-142519799D01*
X185040691Y-142550500D01*
X185040694Y-142550500D01*
X185159306Y-142550500D01*
X185159309Y-142550500D01*
X185273886Y-142519799D01*
X185376613Y-142460489D01*
X185460489Y-142376613D01*
X185519799Y-142273886D01*
X185550500Y-142159309D01*
X185550500Y-142040691D01*
X185519799Y-141926114D01*
X185517111Y-141921458D01*
X185500500Y-141859461D01*
X185500500Y-141067255D01*
X185520185Y-141000216D01*
X185536819Y-140979574D01*
X186129574Y-140386819D01*
X186190897Y-140353334D01*
X186217255Y-140350500D01*
X187277745Y-140350500D01*
X187344784Y-140370185D01*
X187365426Y-140386819D01*
X187456652Y-140478045D01*
X187456654Y-140478046D01*
X187456658Y-140478050D01*
X187569694Y-140535645D01*
X187569698Y-140535647D01*
X187663475Y-140550499D01*
X187663481Y-140550500D01*
X188276518Y-140550499D01*
X188370304Y-140535646D01*
X188483342Y-140478050D01*
X188527971Y-140433421D01*
X188574574Y-140386819D01*
X188601501Y-140372115D01*
X188627320Y-140355523D01*
X188633520Y-140354631D01*
X188635897Y-140353334D01*
X188662255Y-140350500D01*
X188807745Y-140350500D01*
X188874784Y-140370185D01*
X188895426Y-140386819D01*
X188986652Y-140478045D01*
X188986654Y-140478046D01*
X188986658Y-140478050D01*
X189099694Y-140535645D01*
X189099698Y-140535647D01*
X189193475Y-140550499D01*
X189193481Y-140550500D01*
X189806518Y-140550499D01*
X189900304Y-140535646D01*
X190013342Y-140478050D01*
X190029467Y-140461925D01*
X190029543Y-140461883D01*
X190029586Y-140461806D01*
X190059964Y-140445271D01*
X190090789Y-140428438D01*
X190090878Y-140428444D01*
X190090954Y-140428403D01*
X190125462Y-140430917D01*
X190160481Y-140433421D01*
X190160581Y-140433475D01*
X190160639Y-140433480D01*
X190160953Y-140433679D01*
X190191593Y-140450436D01*
X190197943Y-140455202D01*
X190203855Y-140460956D01*
X190260353Y-140502062D01*
X190260354Y-140502063D01*
X190260395Y-140502085D01*
X190260397Y-140502086D01*
X190285400Y-140515300D01*
X190387561Y-140569292D01*
X194406056Y-142006111D01*
X195442272Y-142376612D01*
X195609703Y-142436477D01*
X195692938Y-142458453D01*
X195734393Y-142465692D01*
X195781463Y-142469827D01*
X195820140Y-142473225D01*
X195820144Y-142473225D01*
X195820156Y-142473226D01*
X209308369Y-142505048D01*
X209374512Y-142505205D01*
X209374512Y-142505204D01*
X209374514Y-142505205D01*
X209482583Y-142493779D01*
X209534387Y-142482573D01*
X209637504Y-142448319D01*
X209758543Y-142370531D01*
X209811347Y-142324776D01*
X209905567Y-142216042D01*
X209965338Y-142085165D01*
X209985023Y-142018126D01*
X209985024Y-142018122D01*
X210005500Y-141875706D01*
X210005500Y-131656323D01*
X209993947Y-131548867D01*
X209982741Y-131497356D01*
X209982637Y-131497045D01*
X209948616Y-131394825D01*
X209948613Y-131394819D01*
X209890939Y-131305078D01*
X209870825Y-131273780D01*
X209866394Y-131268666D01*
X209825076Y-131220982D01*
X209825072Y-131220979D01*
X209825070Y-131220976D01*
X209716336Y-131126756D01*
X209716333Y-131126754D01*
X209716331Y-131126753D01*
X209585465Y-131066987D01*
X209585460Y-131066985D01*
X209585459Y-131066985D01*
X209518420Y-131047300D01*
X209518422Y-131047300D01*
X209518417Y-131047299D01*
X209465820Y-131039737D01*
X209376000Y-131026823D01*
X205792344Y-131026823D01*
X205792336Y-131026823D01*
X205713679Y-131032980D01*
X205713676Y-131032981D01*
X205675556Y-131038986D01*
X205675546Y-131038988D01*
X205598807Y-131057312D01*
X205469577Y-131120584D01*
X205466603Y-131122611D01*
X205461574Y-131126036D01*
X205461513Y-131126060D01*
X205461227Y-131126272D01*
X205459027Y-131127772D01*
X205459008Y-131127787D01*
X205399062Y-131168633D01*
X205397442Y-131171800D01*
X205381758Y-131185762D01*
X205346341Y-131212275D01*
X205346330Y-131212284D01*
X205260433Y-131298180D01*
X205241644Y-131313599D01*
X205197261Y-131343255D01*
X205175822Y-131354714D01*
X205126492Y-131375147D01*
X205103233Y-131382203D01*
X205050880Y-131392617D01*
X205026691Y-131395000D01*
X204973310Y-131395000D01*
X204949118Y-131392617D01*
X204896756Y-131382201D01*
X204873496Y-131375145D01*
X204737587Y-131318850D01*
X204714283Y-131311778D01*
X204698890Y-131305078D01*
X204698887Y-131305077D01*
X204631507Y-131286594D01*
X204613579Y-131284342D01*
X204488749Y-131268666D01*
X204366646Y-131288456D01*
X204346723Y-131291685D01*
X204346721Y-131291685D01*
X204346718Y-131291686D01*
X204282283Y-131311862D01*
X204282237Y-131311878D01*
X204280047Y-131312564D01*
X204279976Y-131312586D01*
X204279255Y-131312931D01*
X204275610Y-131314218D01*
X204273297Y-131314342D01*
X204126492Y-131375147D01*
X204103237Y-131382202D01*
X204081315Y-131386563D01*
X204050879Y-131392617D01*
X204026691Y-131395000D01*
X203973312Y-131395000D01*
X203949119Y-131392617D01*
X203934536Y-131389716D01*
X203896754Y-131382200D01*
X203873497Y-131375145D01*
X203824180Y-131354718D01*
X203802740Y-131343258D01*
X203758360Y-131313604D01*
X203739570Y-131298184D01*
X203664838Y-131223453D01*
X203663869Y-131221679D01*
X203659220Y-131217540D01*
X203653993Y-131212607D01*
X203653677Y-131212291D01*
X203640751Y-131201083D01*
X203639532Y-131200012D01*
X203623526Y-131185762D01*
X203610828Y-131174457D01*
X203610819Y-131174450D01*
X203607730Y-131172105D01*
X203604509Y-131169660D01*
X203599426Y-131165252D01*
X203596837Y-131163836D01*
X203583551Y-131153750D01*
X203547994Y-131126757D01*
X203534477Y-131120584D01*
X203446507Y-131080408D01*
X203417118Y-131066986D01*
X203350073Y-131047299D01*
X203297476Y-131039737D01*
X203207656Y-131026823D01*
X196170972Y-131026823D01*
X196170963Y-131026823D01*
X196090449Y-131033278D01*
X196090420Y-131033282D01*
X196053412Y-131039254D01*
X196046263Y-131040196D01*
X196016911Y-131043195D01*
X196005537Y-131044357D01*
X195992937Y-131044999D01*
X195007064Y-131044999D01*
X194994466Y-131044357D01*
X194982334Y-131043118D01*
X194966918Y-131041543D01*
X194949906Y-131038597D01*
X194935615Y-131035082D01*
X194897222Y-131028793D01*
X194897211Y-131028791D01*
X194817906Y-131022149D01*
X194196992Y-131019196D01*
X194115226Y-131025458D01*
X194075643Y-131031751D01*
X194061963Y-131035082D01*
X194045387Y-131039117D01*
X194028661Y-131041994D01*
X194018027Y-131043080D01*
X194005526Y-131044357D01*
X193992929Y-131044999D01*
X193007062Y-131044999D01*
X192994469Y-131044357D01*
X192984199Y-131043308D01*
X192967190Y-131040362D01*
X192906520Y-131025439D01*
X192868110Y-131019147D01*
X192868103Y-131019146D01*
X192788798Y-131012504D01*
X190912515Y-131003585D01*
X189036237Y-130994666D01*
X189036236Y-130994666D01*
X189036232Y-130994666D01*
X189036220Y-130994667D01*
X188903065Y-131011867D01*
X188840013Y-131028752D01*
X188840010Y-131028753D01*
X188716068Y-131080406D01*
X183240939Y-134274230D01*
X183194644Y-134290060D01*
X183088112Y-134304085D01*
X183088106Y-134304087D01*
X182950307Y-134361164D01*
X182831967Y-134451971D01*
X182741162Y-134570309D01*
X182741161Y-134570311D01*
X182739315Y-134572717D01*
X182715591Y-134596240D01*
X182711863Y-134599050D01*
X182711845Y-134599065D01*
X182670025Y-134639122D01*
X182594434Y-134730884D01*
X182534663Y-134861759D01*
X182534662Y-134861763D01*
X182514977Y-134928802D01*
X182514976Y-134928806D01*
X182494500Y-135071222D01*
X181505500Y-135071222D01*
X181505500Y-134124000D01*
X181493947Y-134016544D01*
X181482741Y-133965033D01*
X181482637Y-133964722D01*
X181448616Y-133862502D01*
X181448613Y-133862496D01*
X181370828Y-133741462D01*
X181370825Y-133741457D01*
X181370820Y-133741451D01*
X181325076Y-133688659D01*
X181325072Y-133688656D01*
X181325070Y-133688653D01*
X181216336Y-133594433D01*
X181216333Y-133594431D01*
X181216331Y-133594430D01*
X181085465Y-133534664D01*
X181085460Y-133534662D01*
X181085459Y-133534662D01*
X181018420Y-133514977D01*
X181018422Y-133514977D01*
X181018417Y-133514976D01*
X180970944Y-133508150D01*
X180876000Y-133494500D01*
X180875998Y-133494500D01*
X176606498Y-133494500D01*
X176539459Y-133474815D01*
X176493704Y-133422011D01*
X176482498Y-133370500D01*
X176482498Y-132347550D01*
X176482497Y-132347548D01*
X176470866Y-132289071D01*
X176470865Y-132289070D01*
X176426550Y-132222748D01*
X176360228Y-132178433D01*
X176360227Y-132178432D01*
X176301750Y-132166801D01*
X176301746Y-132166801D01*
X170928250Y-132166801D01*
X170928245Y-132166801D01*
X170869768Y-132178432D01*
X170869767Y-132178433D01*
X170803445Y-132222748D01*
X170759130Y-132289070D01*
X170759129Y-132289071D01*
X170747498Y-132347548D01*
X170747498Y-137975053D01*
X170759129Y-138033530D01*
X170759130Y-138033531D01*
X170803445Y-138099853D01*
X170869767Y-138144168D01*
X170869768Y-138144169D01*
X170928245Y-138155800D01*
X170928248Y-138155801D01*
X170928250Y-138155801D01*
X173370500Y-138155801D01*
X173437539Y-138175486D01*
X173483294Y-138228290D01*
X173494500Y-138279801D01*
X173494500Y-140303914D01*
X173474815Y-140370953D01*
X173422011Y-140416708D01*
X173352853Y-140426652D01*
X173289297Y-140397627D01*
X173270730Y-140377548D01*
X173254475Y-140355523D01*
X173197150Y-140277850D01*
X173087882Y-140197207D01*
X173087880Y-140197206D01*
X172959700Y-140152353D01*
X172929270Y-140149500D01*
X172929266Y-140149500D01*
X171870734Y-140149500D01*
X171870730Y-140149500D01*
X171840300Y-140152353D01*
X171840298Y-140152353D01*
X171712119Y-140197206D01*
X171712117Y-140197207D01*
X171602850Y-140277850D01*
X171522207Y-140387117D01*
X171522206Y-140387119D01*
X171477353Y-140515298D01*
X171477353Y-140515300D01*
X171474500Y-140545730D01*
X171474500Y-141157165D01*
X171473158Y-141157165D01*
X171466451Y-141184532D01*
X171459358Y-141217142D01*
X171458022Y-141218926D01*
X171457767Y-141219968D01*
X171438208Y-141245397D01*
X171370425Y-141313182D01*
X171309102Y-141346668D01*
X171282742Y-141349502D01*
X169636873Y-141349502D01*
X169569789Y-141367477D01*
X169537696Y-141371702D01*
X168958647Y-141371702D01*
X168900170Y-141383333D01*
X168900169Y-141383334D01*
X168833847Y-141427649D01*
X168789532Y-141493971D01*
X168789531Y-141493972D01*
X168777900Y-141552449D01*
X168777900Y-141947554D01*
X168789531Y-142006031D01*
X168789585Y-142006111D01*
X168789647Y-142006309D01*
X168794206Y-142017315D01*
X168793220Y-142017723D01*
X168810462Y-142072789D01*
X168794047Y-142132622D01*
X168794206Y-142132688D01*
X168793682Y-142133950D01*
X168791977Y-142140169D01*
X168789588Y-142143886D01*
X168789533Y-142143967D01*
X168789531Y-142143971D01*
X168777900Y-142202448D01*
X168777900Y-142597553D01*
X168789531Y-142656030D01*
X168789532Y-142656032D01*
X168789584Y-142656109D01*
X168789644Y-142656301D01*
X168794206Y-142667314D01*
X168793220Y-142667722D01*
X168810463Y-142722786D01*
X168794048Y-142782623D01*
X168794206Y-142782689D01*
X168793685Y-142783946D01*
X168791979Y-142790166D01*
X168789587Y-142793888D01*
X168789534Y-142793966D01*
X168789531Y-142793972D01*
X168777900Y-142852449D01*
X168777900Y-143247554D01*
X168789531Y-143306031D01*
X168789585Y-143306111D01*
X168789647Y-143306309D01*
X168794206Y-143317315D01*
X168793220Y-143317723D01*
X168810462Y-143372789D01*
X168794047Y-143432622D01*
X168794206Y-143432688D01*
X168793682Y-143433950D01*
X168791977Y-143440169D01*
X168789588Y-143443886D01*
X168789533Y-143443967D01*
X168789531Y-143443971D01*
X168777900Y-143502448D01*
X168777900Y-143897553D01*
X168789531Y-143956030D01*
X168789532Y-143956032D01*
X168789584Y-143956109D01*
X168789644Y-143956301D01*
X168794206Y-143967314D01*
X168793220Y-143967722D01*
X168810463Y-144022786D01*
X168794048Y-144082623D01*
X168794206Y-144082689D01*
X168793685Y-144083946D01*
X168791979Y-144090166D01*
X168789587Y-144093888D01*
X168789534Y-144093966D01*
X168789531Y-144093972D01*
X168777900Y-144152449D01*
X168777900Y-144547554D01*
X168789531Y-144606031D01*
X168789532Y-144606032D01*
X168833847Y-144672354D01*
X168900169Y-144716669D01*
X168900170Y-144716670D01*
X168958647Y-144728301D01*
X168958650Y-144728302D01*
X168958652Y-144728302D01*
X169537696Y-144728302D01*
X169569789Y-144732527D01*
X169636873Y-144750502D01*
X170848387Y-144750502D01*
X170915426Y-144770187D01*
X170961181Y-144822991D01*
X170971125Y-144892149D01*
X170942100Y-144955705D01*
X170936068Y-144962183D01*
X170901476Y-144996774D01*
X170901473Y-144996778D01*
X170840279Y-145116878D01*
X170835841Y-145144901D01*
X170805911Y-145208036D01*
X170746599Y-145244966D01*
X170713368Y-145249502D01*
X169636873Y-145249502D01*
X169569789Y-145267477D01*
X169537696Y-145271702D01*
X168958647Y-145271702D01*
X168900170Y-145283333D01*
X168900169Y-145283334D01*
X168833847Y-145327649D01*
X168789532Y-145393971D01*
X168789531Y-145393972D01*
X168777900Y-145452449D01*
X168777900Y-145847554D01*
X168789531Y-145906031D01*
X168789532Y-145906032D01*
X168833847Y-145972354D01*
X168900169Y-146016669D01*
X168900170Y-146016670D01*
X168958647Y-146028301D01*
X168958650Y-146028302D01*
X168958652Y-146028302D01*
X169537696Y-146028302D01*
X169569789Y-146032527D01*
X169636873Y-146050502D01*
X170897391Y-146050502D01*
X170959146Y-146066974D01*
X170973428Y-146075176D01*
X170996780Y-146098528D01*
X171116874Y-146159719D01*
X171122066Y-146160541D01*
X171136713Y-146168953D01*
X171152325Y-146185252D01*
X171170958Y-146197995D01*
X171176029Y-146209999D01*
X171185044Y-146219410D01*
X171189366Y-146241563D01*
X171198151Y-146262356D01*
X171195927Y-146275196D01*
X171198423Y-146287986D01*
X171190081Y-146308959D01*
X171186231Y-146331201D01*
X171177418Y-146340801D01*
X171172603Y-146352910D01*
X171154246Y-146366044D01*
X171138983Y-146382673D01*
X171131254Y-146386965D01*
X171111659Y-146396949D01*
X171111652Y-146396954D01*
X171021954Y-146486652D01*
X171021951Y-146486657D01*
X171021950Y-146486658D01*
X170998950Y-146531796D01*
X170950977Y-146582591D01*
X170888467Y-146599500D01*
X170540839Y-146599500D01*
X170491548Y-146585026D01*
X170490313Y-146588008D01*
X170479029Y-146583333D01*
X170420552Y-146571702D01*
X170420548Y-146571702D01*
X169841505Y-146571702D01*
X169809413Y-146567477D01*
X169742328Y-146549502D01*
X169742327Y-146549502D01*
X169636873Y-146549502D01*
X169636871Y-146549502D01*
X169569787Y-146567477D01*
X169537695Y-146571702D01*
X168958647Y-146571702D01*
X168900170Y-146583333D01*
X168900169Y-146583334D01*
X168833847Y-146627649D01*
X168789532Y-146693971D01*
X168789531Y-146693972D01*
X168777900Y-146752449D01*
X168777900Y-147147554D01*
X168789531Y-147206031D01*
X168789585Y-147206111D01*
X168789647Y-147206309D01*
X168794206Y-147217315D01*
X168793220Y-147217723D01*
X168810462Y-147272789D01*
X168794047Y-147332621D01*
X168794206Y-147332687D01*
X168793683Y-147333947D01*
X168791977Y-147340169D01*
X168789585Y-147343891D01*
X168789532Y-147343970D01*
X168789531Y-147343970D01*
X168777900Y-147402447D01*
X168777900Y-147797552D01*
X168789531Y-147856029D01*
X168789532Y-147856030D01*
X168833847Y-147922352D01*
X168900169Y-147966667D01*
X168900170Y-147966668D01*
X168958647Y-147978299D01*
X168958650Y-147978300D01*
X168958652Y-147978300D01*
X169165100Y-147978300D01*
X169173785Y-147980850D01*
X169182747Y-147979562D01*
X169206787Y-147990540D01*
X169232139Y-147997985D01*
X169238066Y-148004825D01*
X169246303Y-148008587D01*
X169260592Y-148030821D01*
X169277894Y-148050789D01*
X169280181Y-148061303D01*
X169284077Y-148067365D01*
X169289100Y-148102300D01*
X169289100Y-148240230D01*
X169269415Y-148307269D01*
X169221396Y-148350714D01*
X169121781Y-148401471D01*
X169121774Y-148401476D01*
X169026476Y-148496774D01*
X169026473Y-148496778D01*
X168965279Y-148616878D01*
X168949500Y-148716506D01*
X168949500Y-149083745D01*
X168943261Y-149104990D01*
X168941682Y-149127079D01*
X168933609Y-149137862D01*
X168929815Y-149150784D01*
X168913081Y-149165283D01*
X168899810Y-149183012D01*
X168887189Y-149187719D01*
X168877011Y-149196539D01*
X168855093Y-149199690D01*
X168834346Y-149207429D01*
X168821185Y-149204566D01*
X168807853Y-149206483D01*
X168787709Y-149197283D01*
X168766073Y-149192577D01*
X168748347Y-149179308D01*
X168744297Y-149177458D01*
X168737819Y-149171426D01*
X168736819Y-149170426D01*
X168703334Y-149109103D01*
X168700500Y-149082745D01*
X168700500Y-148716506D01*
X168684720Y-148616878D01*
X168684719Y-148616876D01*
X168684719Y-148616874D01*
X168623528Y-148496780D01*
X168623526Y-148496778D01*
X168623523Y-148496774D01*
X168528225Y-148401476D01*
X168528221Y-148401473D01*
X168528220Y-148401472D01*
X168408126Y-148340281D01*
X168408124Y-148340280D01*
X168408121Y-148340279D01*
X168308493Y-148324500D01*
X168308488Y-148324500D01*
X167992255Y-148324500D01*
X167925216Y-148304815D01*
X167904574Y-148288181D01*
X166895913Y-147279520D01*
X166895911Y-147279518D01*
X166815914Y-147233331D01*
X166804587Y-147226791D01*
X166748645Y-147211802D01*
X166702725Y-147199498D01*
X164052727Y-147199498D01*
X163947273Y-147199498D01*
X163880189Y-147217473D01*
X163848096Y-147221698D01*
X163269049Y-147221698D01*
X163262987Y-147222295D01*
X163262716Y-147219545D01*
X163204889Y-147214265D01*
X163149790Y-147171301D01*
X163126666Y-147105369D01*
X163126500Y-147098958D01*
X163126500Y-146801037D01*
X163146185Y-146733998D01*
X163198989Y-146688243D01*
X163262853Y-146679060D01*
X163262987Y-146677701D01*
X163269050Y-146678298D01*
X163269052Y-146678298D01*
X164730950Y-146678298D01*
X164730951Y-146678297D01*
X164751716Y-146674167D01*
X164789429Y-146666666D01*
X164789429Y-146666665D01*
X164789431Y-146666665D01*
X164855752Y-146622350D01*
X164900067Y-146556029D01*
X164900067Y-146556027D01*
X164900068Y-146556027D01*
X164911699Y-146497550D01*
X164911700Y-146497548D01*
X164911700Y-146102447D01*
X164911699Y-146102445D01*
X164900068Y-146043968D01*
X164900067Y-146043966D01*
X164900016Y-146043890D01*
X164899955Y-146043697D01*
X164895394Y-146032685D01*
X164896379Y-146032276D01*
X164879137Y-145977213D01*
X164895551Y-145917377D01*
X164895394Y-145917312D01*
X164895913Y-145916058D01*
X164897621Y-145909833D01*
X164900005Y-145906122D01*
X164900067Y-145906030D01*
X164911700Y-145847547D01*
X164911700Y-145452451D01*
X164911700Y-145452449D01*
X164911700Y-145452448D01*
X164911699Y-145452446D01*
X164900068Y-145393970D01*
X164900016Y-145393892D01*
X164899954Y-145393695D01*
X164895394Y-145382686D01*
X164896378Y-145382277D01*
X164879136Y-145327216D01*
X164895549Y-145267375D01*
X164895394Y-145267311D01*
X164895907Y-145266071D01*
X164897618Y-145259835D01*
X164899988Y-145256147D01*
X164900067Y-145256029D01*
X164911700Y-145197546D01*
X164911700Y-144802450D01*
X164911700Y-144802447D01*
X164911699Y-144802445D01*
X164900068Y-144743968D01*
X164900067Y-144743966D01*
X164900016Y-144743890D01*
X164899955Y-144743697D01*
X164895394Y-144732685D01*
X164896379Y-144732276D01*
X164879137Y-144677213D01*
X164895551Y-144617377D01*
X164895394Y-144617312D01*
X164895913Y-144616058D01*
X164897621Y-144609833D01*
X164900005Y-144606122D01*
X164900067Y-144606030D01*
X164911700Y-144547547D01*
X164911700Y-144152451D01*
X164911700Y-144152449D01*
X164911700Y-144152448D01*
X164911699Y-144152446D01*
X164900068Y-144093970D01*
X164900067Y-144093968D01*
X164900018Y-144093895D01*
X164899960Y-144093709D01*
X164895394Y-144082686D01*
X164896379Y-144082277D01*
X164879137Y-144027221D01*
X164895550Y-143967378D01*
X164895394Y-143967314D01*
X164895908Y-143966072D01*
X164897618Y-143959839D01*
X164900004Y-143956124D01*
X164900067Y-143956032D01*
X164901367Y-143949499D01*
X164911699Y-143897553D01*
X164911700Y-143897551D01*
X164911700Y-143502450D01*
X164911699Y-143502448D01*
X164900068Y-143443972D01*
X164900016Y-143443894D01*
X164899954Y-143443697D01*
X164895394Y-143432688D01*
X164896378Y-143432279D01*
X164879136Y-143377218D01*
X164895549Y-143317376D01*
X164895394Y-143317312D01*
X164895908Y-143316070D01*
X164897618Y-143309837D01*
X164900016Y-143306106D01*
X164900067Y-143306030D01*
X164903165Y-143290459D01*
X164908384Y-143264220D01*
X164911700Y-143247547D01*
X164911700Y-142852451D01*
X164911700Y-142852449D01*
X164911700Y-142852448D01*
X164911699Y-142852446D01*
X164900068Y-142793969D01*
X164900067Y-142793968D01*
X164855752Y-142727646D01*
X164789430Y-142683331D01*
X164789429Y-142683330D01*
X164730952Y-142671699D01*
X164730948Y-142671699D01*
X163412300Y-142671699D01*
X163345261Y-142652014D01*
X163299506Y-142599210D01*
X163288300Y-142547699D01*
X163288300Y-141235739D01*
X163278902Y-141200665D01*
X163267821Y-141159311D01*
X163249975Y-141128401D01*
X163228264Y-141090795D01*
X163228258Y-141090787D01*
X162811819Y-140674348D01*
X162778334Y-140613025D01*
X162775500Y-140586667D01*
X162775500Y-138770730D01*
X162772646Y-138740300D01*
X162772646Y-138740298D01*
X162735243Y-138633409D01*
X162727793Y-138612118D01*
X162727791Y-138612115D01*
X162727790Y-138612113D01*
X162687230Y-138557156D01*
X162679774Y-138536743D01*
X162668023Y-138518458D01*
X162664729Y-138495553D01*
X162663259Y-138491527D01*
X162663000Y-138483523D01*
X162663000Y-138279801D01*
X162682685Y-138212762D01*
X162735489Y-138167007D01*
X162787000Y-138155801D01*
X165871749Y-138155801D01*
X165871750Y-138155800D01*
X165886567Y-138152853D01*
X165930228Y-138144169D01*
X165930228Y-138144168D01*
X165930230Y-138144168D01*
X165996551Y-138099853D01*
X166040866Y-138033532D01*
X166040866Y-138033530D01*
X166040867Y-138033530D01*
X166052498Y-137975053D01*
X166052499Y-137975051D01*
X166052499Y-132347550D01*
X166052498Y-132347548D01*
X166040867Y-132289071D01*
X166040866Y-132289070D01*
X165996551Y-132222748D01*
X165930229Y-132178433D01*
X165930228Y-132178432D01*
X165871751Y-132166801D01*
X165871747Y-132166801D01*
X160498251Y-132166801D01*
X160498246Y-132166801D01*
X160439769Y-132178432D01*
X160439768Y-132178433D01*
X160373446Y-132222748D01*
X160329131Y-132289070D01*
X160329130Y-132289071D01*
X160317499Y-132347548D01*
X160317499Y-137975053D01*
X160329130Y-138033530D01*
X160329131Y-138033531D01*
X160373446Y-138099853D01*
X160439768Y-138144168D01*
X160439769Y-138144169D01*
X160498246Y-138155800D01*
X160498249Y-138155801D01*
X160498251Y-138155801D01*
X161138000Y-138155801D01*
X161146685Y-138158351D01*
X161155647Y-138157063D01*
X161179687Y-138168041D01*
X161205039Y-138175486D01*
X161210966Y-138182326D01*
X161219203Y-138186088D01*
X161233492Y-138208322D01*
X161250794Y-138228290D01*
X161253081Y-138238804D01*
X161256977Y-138244866D01*
X161262000Y-138279801D01*
X161262000Y-138483523D01*
X161242315Y-138550562D01*
X161237770Y-138557156D01*
X161197209Y-138612113D01*
X161197206Y-138612119D01*
X161152353Y-138740298D01*
X161152353Y-138740300D01*
X161149500Y-138770730D01*
X161149500Y-141729269D01*
X161152353Y-141759699D01*
X161152353Y-141759701D01*
X161192946Y-141875706D01*
X161197207Y-141887882D01*
X161277850Y-141997150D01*
X161387118Y-142077793D01*
X161429845Y-142092744D01*
X161515299Y-142122646D01*
X161545730Y-142125500D01*
X161545734Y-142125500D01*
X162379270Y-142125500D01*
X162403696Y-142123209D01*
X162409699Y-142122646D01*
X162522347Y-142083228D01*
X162551778Y-142081726D01*
X162580947Y-142077532D01*
X162586273Y-142079964D01*
X162592123Y-142079666D01*
X162617695Y-142094314D01*
X162644503Y-142106557D01*
X162647669Y-142111484D01*
X162652751Y-142114395D01*
X162666342Y-142140540D01*
X162682277Y-142165335D01*
X162683441Y-142173431D01*
X162684978Y-142176388D01*
X162687300Y-142200270D01*
X162687300Y-142333236D01*
X162667615Y-142400275D01*
X162614811Y-142446030D01*
X162545653Y-142455974D01*
X162507005Y-142443721D01*
X162400301Y-142389352D01*
X162306524Y-142374500D01*
X161693482Y-142374500D01*
X161612519Y-142387323D01*
X161599696Y-142389354D01*
X161486658Y-142446950D01*
X161486657Y-142446951D01*
X161486652Y-142446954D01*
X161396954Y-142536652D01*
X161396951Y-142536657D01*
X161396950Y-142536658D01*
X161361212Y-142606796D01*
X161313239Y-142657591D01*
X161250729Y-142674500D01*
X158935438Y-142674500D01*
X158859010Y-142694978D01*
X158790489Y-142734540D01*
X158790486Y-142734542D01*
X157983391Y-143541636D01*
X157922068Y-143575121D01*
X157852376Y-143570137D01*
X157808029Y-143541636D01*
X157713347Y-143446954D01*
X157713344Y-143446952D01*
X157713342Y-143446950D01*
X157636517Y-143407805D01*
X157600301Y-143389352D01*
X157506524Y-143374500D01*
X157506519Y-143374500D01*
X157075833Y-143374500D01*
X157046392Y-143365855D01*
X157016406Y-143359332D01*
X157011390Y-143355577D01*
X157008794Y-143354815D01*
X156988152Y-143338181D01*
X156860143Y-143210172D01*
X156826658Y-143148849D01*
X156831642Y-143079157D01*
X156873514Y-143023224D01*
X156934564Y-142999203D01*
X156983456Y-142993947D01*
X157034967Y-142982741D01*
X157069197Y-142971347D01*
X157137497Y-142948616D01*
X157137501Y-142948613D01*
X157137504Y-142948613D01*
X157258543Y-142870825D01*
X157311347Y-142825070D01*
X157405567Y-142716336D01*
X157465338Y-142585459D01*
X157485023Y-142518420D01*
X157485024Y-142518416D01*
X157505500Y-142376000D01*
X157505500Y-139124000D01*
X157493947Y-139016544D01*
X157482741Y-138965033D01*
X157479568Y-138955500D01*
X157448616Y-138862502D01*
X157448613Y-138862496D01*
X157400671Y-138787898D01*
X157370825Y-138741457D01*
X157370820Y-138741451D01*
X157325076Y-138688659D01*
X157325072Y-138688656D01*
X157325070Y-138688653D01*
X157216336Y-138594433D01*
X157216333Y-138594431D01*
X157216331Y-138594430D01*
X157085465Y-138534664D01*
X157085460Y-138534662D01*
X157085459Y-138534662D01*
X157030275Y-138518458D01*
X157018417Y-138514976D01*
X156970944Y-138508150D01*
X156876000Y-138494500D01*
X156875998Y-138494500D01*
X156751639Y-138494500D01*
X156684600Y-138474815D01*
X156678006Y-138470270D01*
X156612886Y-138422209D01*
X156612880Y-138422206D01*
X156484700Y-138377353D01*
X156454270Y-138374500D01*
X156454266Y-138374500D01*
X155620734Y-138374500D01*
X155620730Y-138374500D01*
X155590300Y-138377353D01*
X155590298Y-138377353D01*
X155462119Y-138422206D01*
X155462113Y-138422209D01*
X155396994Y-138470270D01*
X155331366Y-138494241D01*
X155323361Y-138494500D01*
X154568507Y-138494500D01*
X154488002Y-138500954D01*
X154487989Y-138500955D01*
X154487986Y-138500956D01*
X154487977Y-138500957D01*
X154487973Y-138500958D01*
X154448987Y-138507249D01*
X154448984Y-138507249D01*
X154448982Y-138507250D01*
X154370508Y-138526452D01*
X154370504Y-138526453D01*
X154370497Y-138526455D01*
X154334236Y-138538470D01*
X154307892Y-138544115D01*
X154305592Y-138544351D01*
X154292935Y-138544999D01*
X153307064Y-138544999D01*
X153294465Y-138544357D01*
X153292164Y-138544122D01*
X153265763Y-138538471D01*
X153229492Y-138526452D01*
X153151018Y-138507250D01*
X153112014Y-138500956D01*
X153112008Y-138500955D01*
X153111997Y-138500954D01*
X153031493Y-138494500D01*
X153031484Y-138494500D01*
X152568516Y-138494500D01*
X152568507Y-138494500D01*
X152488002Y-138500954D01*
X152487989Y-138500955D01*
X152487986Y-138500956D01*
X152487977Y-138500957D01*
X152487973Y-138500958D01*
X152448987Y-138507249D01*
X152448984Y-138507249D01*
X152448982Y-138507250D01*
X152370508Y-138526452D01*
X152370504Y-138526453D01*
X152370497Y-138526455D01*
X152334236Y-138538470D01*
X152307892Y-138544115D01*
X152305592Y-138544351D01*
X152292935Y-138544999D01*
X151307064Y-138544999D01*
X151294465Y-138544357D01*
X151292164Y-138544122D01*
X151265763Y-138538471D01*
X151229492Y-138526452D01*
X151151018Y-138507250D01*
X151112014Y-138500956D01*
X151112008Y-138500955D01*
X151111997Y-138500954D01*
X151031493Y-138494500D01*
X151031484Y-138494500D01*
X147845230Y-138494500D01*
X147845228Y-138494500D01*
X147791179Y-138497397D01*
X147791178Y-138497397D01*
X147764845Y-138500229D01*
X147764818Y-138500232D01*
X147711422Y-138508885D01*
X147711420Y-138508885D01*
X147576615Y-138559166D01*
X147515287Y-138592653D01*
X147515285Y-138592654D01*
X147400120Y-138678866D01*
X147400097Y-138678885D01*
X147395740Y-138683243D01*
X147373160Y-138701096D01*
X147349082Y-138715947D01*
X147322992Y-138728112D01*
X147291738Y-138738469D01*
X147265348Y-138744121D01*
X147263899Y-138744269D01*
X147263048Y-138744356D01*
X147250435Y-138744999D01*
X145214565Y-138744999D01*
X145201956Y-138744356D01*
X145199657Y-138744121D01*
X145173262Y-138738470D01*
X145142007Y-138728113D01*
X145115916Y-138715947D01*
X145091838Y-138701096D01*
X145069979Y-138683810D01*
X145069918Y-138683874D01*
X145069278Y-138683256D01*
X145069256Y-138683239D01*
X145069146Y-138683129D01*
X145064728Y-138678866D01*
X145056161Y-138670598D01*
X145049683Y-138664566D01*
X145036235Y-138652485D01*
X145006539Y-138633401D01*
X144915195Y-138574698D01*
X144915188Y-138574695D01*
X144852132Y-138545898D01*
X144851652Y-138545676D01*
X144851636Y-138545671D01*
X144713583Y-138505137D01*
X144713581Y-138505137D01*
X144569706Y-138505137D01*
X144538846Y-138509574D01*
X144500545Y-138515082D01*
X144500540Y-138515083D01*
X144500536Y-138515084D01*
X144362498Y-138555616D01*
X144362492Y-138555619D01*
X144241462Y-138633401D01*
X144241451Y-138633409D01*
X144188659Y-138679153D01*
X144094433Y-138787894D01*
X144094430Y-138787898D01*
X144034664Y-138918764D01*
X144014976Y-138985812D01*
X144001325Y-139080758D01*
X143994500Y-139128230D01*
X140300500Y-139128230D01*
X140300500Y-113878048D01*
X142139500Y-113878048D01*
X142139500Y-114121951D01*
X142166013Y-114323333D01*
X142171334Y-114363744D01*
X142171335Y-114363746D01*
X142234456Y-114599320D01*
X142234459Y-114599330D01*
X142327786Y-114824640D01*
X142327791Y-114824651D01*
X142449727Y-115035848D01*
X142449738Y-115035864D01*
X142598199Y-115229343D01*
X142598205Y-115229350D01*
X142770649Y-115401794D01*
X142770655Y-115401799D01*
X142964144Y-115550268D01*
X142964151Y-115550272D01*
X143175348Y-115672208D01*
X143175353Y-115672210D01*
X143175356Y-115672212D01*
X143400679Y-115765544D01*
X143636256Y-115828666D01*
X143878056Y-115860500D01*
X143878063Y-115860500D01*
X144121937Y-115860500D01*
X144121944Y-115860500D01*
X144363744Y-115828666D01*
X144599321Y-115765544D01*
X144824644Y-115672212D01*
X145035856Y-115550268D01*
X145229345Y-115401799D01*
X145401799Y-115229345D01*
X145550268Y-115035856D01*
X145672212Y-114824644D01*
X145765544Y-114599321D01*
X145828666Y-114363744D01*
X145860500Y-114121944D01*
X145860500Y-113878056D01*
X145828666Y-113636256D01*
X145765544Y-113400679D01*
X145672212Y-113175356D01*
X145672210Y-113175353D01*
X145672208Y-113175348D01*
X145550272Y-112964151D01*
X145550268Y-112964144D01*
X145401799Y-112770655D01*
X145401794Y-112770649D01*
X145229350Y-112598205D01*
X145229343Y-112598199D01*
X145035864Y-112449738D01*
X145035862Y-112449736D01*
X145035856Y-112449732D01*
X145035851Y-112449729D01*
X145035848Y-112449727D01*
X144824651Y-112327791D01*
X144824640Y-112327786D01*
X144599330Y-112234459D01*
X144599323Y-112234457D01*
X144599321Y-112234456D01*
X144363744Y-112171334D01*
X144323333Y-112166013D01*
X144121951Y-112139500D01*
X144121944Y-112139500D01*
X143878056Y-112139500D01*
X143878048Y-112139500D01*
X143647896Y-112169801D01*
X143636256Y-112171334D01*
X143400679Y-112234456D01*
X143400669Y-112234459D01*
X143175359Y-112327786D01*
X143175348Y-112327791D01*
X142964151Y-112449727D01*
X142964135Y-112449738D01*
X142770656Y-112598199D01*
X142770649Y-112598205D01*
X142598205Y-112770649D01*
X142598199Y-112770656D01*
X142449738Y-112964135D01*
X142449727Y-112964151D01*
X142327791Y-113175348D01*
X142327786Y-113175359D01*
X142234459Y-113400669D01*
X142234456Y-113400679D01*
X142171335Y-113636253D01*
X142171333Y-113636264D01*
X142139500Y-113878048D01*
X140300500Y-113878048D01*
X140300500Y-110424947D01*
X165024500Y-110424947D01*
X165024500Y-115747652D01*
X165036131Y-115806129D01*
X165036132Y-115806130D01*
X165080447Y-115872452D01*
X165146769Y-115916767D01*
X165146770Y-115916768D01*
X165205247Y-115928399D01*
X165205250Y-115928400D01*
X165205252Y-115928400D01*
X171594750Y-115928400D01*
X171594751Y-115928399D01*
X171609568Y-115925452D01*
X171653229Y-115916768D01*
X171653229Y-115916767D01*
X171653231Y-115916767D01*
X171719552Y-115872452D01*
X171763867Y-115806131D01*
X171763867Y-115806129D01*
X171763868Y-115806129D01*
X171775499Y-115747652D01*
X171775500Y-115747650D01*
X171775500Y-113878048D01*
X207139500Y-113878048D01*
X207139500Y-114121951D01*
X207166013Y-114323333D01*
X207171334Y-114363744D01*
X207171335Y-114363746D01*
X207234456Y-114599320D01*
X207234459Y-114599330D01*
X207327786Y-114824640D01*
X207327791Y-114824651D01*
X207449727Y-115035848D01*
X207449738Y-115035864D01*
X207598199Y-115229343D01*
X207598205Y-115229350D01*
X207770649Y-115401794D01*
X207770655Y-115401799D01*
X207964144Y-115550268D01*
X207964151Y-115550272D01*
X208175348Y-115672208D01*
X208175353Y-115672210D01*
X208175356Y-115672212D01*
X208400679Y-115765544D01*
X208636256Y-115828666D01*
X208878056Y-115860500D01*
X208878063Y-115860500D01*
X209121937Y-115860500D01*
X209121944Y-115860500D01*
X209363744Y-115828666D01*
X209599321Y-115765544D01*
X209824644Y-115672212D01*
X210035856Y-115550268D01*
X210229345Y-115401799D01*
X210401799Y-115229345D01*
X210550268Y-115035856D01*
X210672212Y-114824644D01*
X210765544Y-114599321D01*
X210828666Y-114363744D01*
X210860500Y-114121944D01*
X210860500Y-113878056D01*
X210828666Y-113636256D01*
X210765544Y-113400679D01*
X210672212Y-113175356D01*
X210672210Y-113175353D01*
X210672208Y-113175348D01*
X210550272Y-112964151D01*
X210550268Y-112964144D01*
X210401799Y-112770655D01*
X210401794Y-112770649D01*
X210229350Y-112598205D01*
X210229343Y-112598199D01*
X210035864Y-112449738D01*
X210035862Y-112449736D01*
X210035856Y-112449732D01*
X210035851Y-112449729D01*
X210035848Y-112449727D01*
X209824651Y-112327791D01*
X209824640Y-112327786D01*
X209599330Y-112234459D01*
X209599323Y-112234457D01*
X209599321Y-112234456D01*
X209363744Y-112171334D01*
X209323333Y-112166013D01*
X209121951Y-112139500D01*
X209121944Y-112139500D01*
X208878056Y-112139500D01*
X208878048Y-112139500D01*
X208647896Y-112169801D01*
X208636256Y-112171334D01*
X208400679Y-112234456D01*
X208400669Y-112234459D01*
X208175359Y-112327786D01*
X208175348Y-112327791D01*
X207964151Y-112449727D01*
X207964135Y-112449738D01*
X207770656Y-112598199D01*
X207770649Y-112598205D01*
X207598205Y-112770649D01*
X207598199Y-112770656D01*
X207449738Y-112964135D01*
X207449727Y-112964151D01*
X207327791Y-113175348D01*
X207327786Y-113175359D01*
X207234459Y-113400669D01*
X207234456Y-113400679D01*
X207171335Y-113636253D01*
X207171333Y-113636264D01*
X207139500Y-113878048D01*
X171775500Y-113878048D01*
X171775500Y-110424949D01*
X171775499Y-110424947D01*
X171763868Y-110366470D01*
X171763867Y-110366469D01*
X171719552Y-110300147D01*
X171653230Y-110255832D01*
X171653229Y-110255831D01*
X171594752Y-110244200D01*
X171594748Y-110244200D01*
X165205252Y-110244200D01*
X165205247Y-110244200D01*
X165146770Y-110255831D01*
X165146769Y-110255832D01*
X165080447Y-110300147D01*
X165036132Y-110366469D01*
X165036131Y-110366470D01*
X165024500Y-110424947D01*
X140300500Y-110424947D01*
X140300500Y-109424500D01*
X140320185Y-109357461D01*
X140372989Y-109311706D01*
X140424500Y-109300500D01*
X212575500Y-109300500D01*
X212642539Y-109320185D01*
G37*
%TD.AperFunction*%
%TD*%
M02*
