M48
; DRILL file {KiCad 9.0.6} date 2026-02-08T18:04:29+0100
; FORMAT={-:-/ absolute / metric / decimal}
; #@! TF.CreationDate,2026-02-08T18:04:29+01:00
; #@! TF.GenerationSoftware,Kicad,Pcbnew,9.0.6
; #@! TF.FileFunction,Plated,1,4,PTH
FMAT,2
METRIC
; #@! TA.AperFunction,Plated,PTH,ComponentDrill
T1C0.203
; #@! TA.AperFunction,Plated,PTH,ViaDrill
T2C0.300
; #@! TA.AperFunction,Plated,PTH,ViaDrill
T3C0.400
; #@! TA.AperFunction,Plated,PTH,ComponentDrill
T4C1.300
%
G90
G05
T1
X160.75Y-106.25
X161.35Y-105.15
X161.35Y-107.35
X161.95Y-106.25
T2
X153.8Y-104.2
X157.0Y-105.5
X157.8Y-107.2
X158.8Y-105.2
X159.7Y-108.6
X159.8Y-103.8
X163.696Y-106.838
X163.706Y-107.538
X163.773Y-104.86
X165.75Y-107.625
X166.391Y-104.909
T3
X138.0Y-100.5
X138.0Y-101.5
X138.0Y-102.5
X139.0Y-100.5
X139.0Y-101.5
X139.0Y-102.5
X140.0Y-116.0
X140.0Y-117.0
X140.0Y-118.0
X140.0Y-119.0
X140.0Y-120.0
X140.0Y-121.0
X140.0Y-122.0
X140.0Y-123.0
X140.0Y-124.0
X140.0Y-125.0
X140.0Y-126.0
X140.0Y-127.0
X140.0Y-128.0
X140.0Y-129.0
X140.0Y-130.0
X140.0Y-131.0
X140.0Y-132.0
X140.0Y-133.0
X140.0Y-134.0
X140.0Y-135.0
X140.0Y-136.0
X140.0Y-137.0
X140.0Y-138.0
X140.0Y-139.0
X140.0Y-140.0
X140.0Y-141.0
X140.5Y-100.5
X140.5Y-101.5
X141.0Y-116.0
X141.0Y-117.0
X141.0Y-118.0
X141.0Y-119.0
X141.0Y-120.0
X141.0Y-121.0
X141.0Y-122.0
X141.0Y-123.0
X141.0Y-124.0
X141.0Y-125.0
X141.0Y-126.0
X141.0Y-127.0
X141.0Y-128.0
X141.0Y-129.0
X141.0Y-130.0
X141.0Y-131.0
X141.0Y-132.0
X141.0Y-133.0
X141.0Y-134.0
X141.0Y-135.0
X141.0Y-136.0
X141.0Y-137.0
X141.0Y-138.0
X141.0Y-139.0
X141.0Y-140.0
X141.0Y-141.0
X142.0Y-116.0
X142.0Y-117.0
X142.0Y-118.0
X142.0Y-119.0
X142.0Y-120.0
X142.0Y-121.0
X142.0Y-122.0
X142.0Y-123.0
X142.0Y-124.0
X142.0Y-125.0
X142.0Y-126.0
X142.0Y-127.0
X142.0Y-128.0
X142.0Y-129.0
X142.0Y-130.0
X142.0Y-131.0
X142.0Y-132.0
X142.0Y-133.0
X142.0Y-134.0
X142.0Y-135.0
X142.0Y-136.0
X142.0Y-137.0
X142.0Y-138.0
X142.0Y-139.0
X142.0Y-140.0
X142.0Y-141.0
X143.0Y-95.5
X143.0Y-96.5
X143.0Y-97.5
X143.0Y-116.0
X143.0Y-117.0
X143.0Y-118.0
X143.0Y-119.0
X143.0Y-120.0
X143.0Y-121.0
X143.0Y-122.0
X143.0Y-123.0
X143.0Y-124.0
X143.0Y-125.0
X143.0Y-126.0
X143.0Y-127.0
X143.0Y-128.0
X143.0Y-129.0
X143.0Y-130.0
X143.0Y-131.0
X143.0Y-132.0
X143.0Y-133.0
X143.0Y-134.0
X143.0Y-135.0
X143.0Y-136.0
X143.0Y-137.0
X143.0Y-138.0
X143.0Y-139.0
X143.0Y-140.0
X143.0Y-141.0
X144.0Y-95.5
X144.0Y-96.5
X144.0Y-97.5
X144.0Y-116.0
X144.0Y-117.0
X144.0Y-118.0
X144.0Y-119.0
X144.0Y-120.0
X144.0Y-121.0
X144.0Y-122.0
X144.0Y-123.0
X144.0Y-124.0
X144.0Y-125.0
X144.0Y-126.0
X144.0Y-127.0
X144.0Y-128.0
X144.0Y-129.0
X144.0Y-130.0
X144.0Y-131.0
X144.0Y-132.0
X144.0Y-133.0
X144.0Y-134.0
X144.0Y-135.0
X144.0Y-136.0
X144.0Y-137.0
X144.0Y-138.0
X144.0Y-139.0
X144.0Y-140.0
X144.0Y-141.0
X145.0Y-95.5
X145.0Y-96.5
X145.0Y-97.5
X146.0Y-95.5
X146.0Y-96.5
X146.0Y-97.5
X147.0Y-95.5
X147.0Y-96.5
X147.0Y-97.5
X148.5Y-95.5
X148.5Y-96.5
X149.5Y-95.5
X149.5Y-96.5
X150.2Y-104.5
X150.5Y-95.5
X150.5Y-96.5
X151.5Y-95.5
X151.5Y-96.5
X152.5Y-95.5
X152.5Y-96.5
X153.5Y-95.5
X153.5Y-96.5
X153.75Y-103.0
X154.5Y-95.5
X154.5Y-96.5
X155.5Y-95.5
X155.5Y-96.5
X156.3Y-111.5
X156.5Y-95.5
X156.5Y-96.5
X157.5Y-95.5
X157.5Y-96.5
X157.7Y-112.8
X158.5Y-95.5
X158.5Y-96.5
X159.5Y-95.5
X159.5Y-96.5
X160.0Y-139.0
X160.0Y-140.0
X160.0Y-141.0
X160.0Y-142.0
X160.0Y-143.0
X160.0Y-144.0
X160.0Y-145.0
X160.5Y-95.5
X160.5Y-96.5
X161.0Y-139.0
X161.0Y-140.0
X161.0Y-141.0
X161.0Y-142.0
X161.0Y-143.0
X161.0Y-144.0
X161.0Y-145.0
X161.5Y-95.5
X161.5Y-96.5
X162.0Y-139.0
X162.0Y-140.0
X162.0Y-141.0
X162.0Y-142.0
X162.0Y-143.0
X162.0Y-144.0
X162.0Y-145.0
X162.5Y-95.5
X162.5Y-96.5
X162.9Y-108.7
X163.0Y-139.0
X163.0Y-140.0
X163.0Y-141.0
X163.0Y-142.0
X163.0Y-143.0
X163.0Y-144.0
X163.0Y-145.0
X163.5Y-95.5
X163.5Y-96.5
X164.0Y-139.0
X164.0Y-140.0
X164.0Y-141.0
X164.0Y-142.0
X164.0Y-143.0
X164.0Y-144.0
X164.0Y-145.0
X164.5Y-95.5
X164.5Y-96.5
X164.5Y-97.5
X165.0Y-136.0
X165.0Y-137.0
X165.0Y-138.0
X165.0Y-139.0
X165.0Y-140.0
X165.0Y-141.0
X165.0Y-142.0
X165.0Y-143.0
X165.0Y-144.0
X165.0Y-145.0
X165.0Y-146.0
X165.0Y-147.0
X165.0Y-148.0
X165.0Y-149.0
X165.5Y-95.5
X165.5Y-96.5
X165.5Y-97.5
X166.0Y-136.0
X166.0Y-137.0
X166.0Y-138.0
X166.0Y-139.0
X166.0Y-140.0
X166.0Y-141.0
X166.0Y-142.0
X166.0Y-143.0
X166.0Y-144.0
X166.0Y-145.0
X166.0Y-146.0
X166.0Y-147.0
X166.0Y-148.0
X166.0Y-149.0
X166.5Y-95.5
X166.5Y-96.5
X166.5Y-97.5
X167.0Y-136.0
X167.0Y-137.0
X167.0Y-138.0
X167.0Y-139.0
X167.0Y-140.0
X167.0Y-141.0
X167.0Y-142.0
X167.0Y-143.0
X167.0Y-144.0
X167.0Y-145.0
X167.0Y-146.0
X167.0Y-147.0
X167.0Y-148.0
X167.0Y-149.0
X167.5Y-95.5
X167.5Y-96.5
X167.5Y-97.5
X168.0Y-104.25
X168.0Y-105.25
X168.0Y-136.0
X168.0Y-137.0
X168.0Y-138.0
X168.0Y-139.0
X168.0Y-140.0
X168.0Y-141.0
X168.0Y-142.0
X168.0Y-143.0
X168.0Y-144.0
X168.0Y-145.0
X168.0Y-146.0
X168.0Y-147.0
X168.0Y-148.0
X168.0Y-149.0
X168.25Y-106.25
X169.0Y-102.25
X169.0Y-103.25
X169.0Y-104.25
X169.0Y-105.25
X169.0Y-136.0
X169.0Y-137.0
X169.0Y-138.0
X169.0Y-139.0
X169.0Y-140.0
X169.0Y-141.0
X169.0Y-142.0
X169.0Y-143.0
X169.0Y-144.0
X169.0Y-145.0
X169.0Y-146.0
X169.0Y-147.0
X169.0Y-148.0
X169.0Y-149.0
X170.0Y-102.25
X170.0Y-103.25
X170.0Y-104.25
X170.0Y-105.25
X171.0Y-102.25
X171.0Y-103.25
X171.0Y-104.25
X171.0Y-105.25
T4
X142.25Y-107.25
X142.25Y-112.25
X156.0Y-148.0
X161.0Y-148.0
M30
