%TF.GenerationSoftware,KiCad,Pcbnew,9.0.6*%
%TF.CreationDate,2026-02-08T18:04:32+01:00*%
%TF.ProjectId,Buck,4275636b-2e6b-4696-9361-645f70636258,B*%
%TF.SameCoordinates,Original*%
%TF.FileFunction,Soldermask,Top*%
%TF.FilePolarity,Negative*%
%FSLAX46Y46*%
G04 Gerber Fmt 4.6, Leading zero omitted, Abs format (unit mm)*
G04 Created by KiCad (PCBNEW 9.0.6) date 2026-02-08 18:04:32*
%MOMM*%
%LPD*%
G01*
G04 APERTURE LIST*
G04 Aperture macros list*
%AMRoundRect*
0 Rectangle with rounded corners*
0 $1 Rounding radius*
0 $2 $3 $4 $5 $6 $7 $8 $9 X,Y pos of 4 corners*
0 Add a 4 corners polygon primitive as box body*
4,1,4,$2,$3,$4,$5,$6,$7,$8,$9,$2,$3,0*
0 Add four circle primitives for the rounded corners*
1,1,$1+$1,$2,$3*
1,1,$1+$1,$4,$5*
1,1,$1+$1,$6,$7*
1,1,$1+$1,$8,$9*
0 Add four rect primitives between the rounded corners*
20,1,$1+$1,$2,$3,$4,$5,0*
20,1,$1+$1,$4,$5,$6,$7,0*
20,1,$1+$1,$6,$7,$8,$9,0*
20,1,$1+$1,$8,$9,$2,$3,0*%
%AMFreePoly0*
4,1,9,0.000001,0.700000,0.000001,0.000000,0.000000,-0.000001,-0.500000,-0.000001,-0.500001,0.000000,-0.500001,0.700000,-0.500000,0.700001,0.000000,0.700001,0.000001,0.700000,0.000001,0.700000,$1*%
%AMFreePoly1*
4,1,9,0.750001,3.365000,0.750001,0.000000,0.750000,-0.000001,0.000000,-0.000001,-0.000001,0.000000,-0.000001,3.365000,0.000000,3.365001,0.750000,3.365001,0.750001,3.365000,0.750001,3.365000,$1*%
%AMFreePoly2*
4,1,9,0.500001,0.000000,0.500001,-0.700000,0.500000,-0.700001,0.000000,-0.700001,-0.000001,-0.700000,-0.000001,0.000000,0.000000,0.000001,0.500000,0.000001,0.500001,0.000000,0.500001,0.000000,$1*%
%AMFreePoly3*
4,1,9,0.000001,0.000000,0.000001,-4.700000,0.000000,-4.700001,-4.534500,-4.700001,-4.534501,-4.700000,-4.534501,0.000000,-4.534500,0.000001,0.000000,0.000001,0.000001,0.000000,0.000001,0.000000,$1*%
G04 Aperture macros list end*
%ADD10C,0.000000*%
%ADD11RoundRect,0.250000X0.650000X-0.325000X0.650000X0.325000X-0.650000X0.325000X-0.650000X-0.325000X0*%
%ADD12RoundRect,0.250001X-1.149999X1.149999X-1.149999X-1.149999X1.149999X-1.149999X1.149999X1.149999X0*%
%ADD13C,2.800000*%
%ADD14C,3.200000*%
%ADD15RoundRect,0.225000X0.225000X0.250000X-0.225000X0.250000X-0.225000X-0.250000X0.225000X-0.250000X0*%
%ADD16C,2.000000*%
%ADD17RoundRect,0.200000X-0.200000X-0.275000X0.200000X-0.275000X0.200000X0.275000X-0.200000X0.275000X0*%
%ADD18RoundRect,0.250000X-0.250000X-0.475000X0.250000X-0.475000X0.250000X0.475000X-0.250000X0.475000X0*%
%ADD19RoundRect,0.225000X-0.225000X-0.250000X0.225000X-0.250000X0.225000X0.250000X-0.225000X0.250000X0*%
%ADD20RoundRect,0.250000X0.325000X1.100000X-0.325000X1.100000X-0.325000X-1.100000X0.325000X-1.100000X0*%
%ADD21RoundRect,0.250000X1.050000X0.550000X-1.050000X0.550000X-1.050000X-0.550000X1.050000X-0.550000X0*%
%ADD22RoundRect,0.225000X0.250000X-0.225000X0.250000X0.225000X-0.250000X0.225000X-0.250000X-0.225000X0*%
%ADD23RoundRect,0.200000X-0.275000X0.200000X-0.275000X-0.200000X0.275000X-0.200000X0.275000X0.200000X0*%
%ADD24R,4.000000X14.000000*%
%ADD25R,0.431800X0.660400*%
%ADD26R,0.300000X0.400000*%
%ADD27RoundRect,0.218750X-0.256250X0.218750X-0.256250X-0.218750X0.256250X-0.218750X0.256250X0.218750X0*%
%ADD28RoundRect,0.250001X-1.149999X-1.149999X1.149999X-1.149999X1.149999X1.149999X-1.149999X1.149999X0*%
%ADD29R,0.249999X0.599999*%
%ADD30R,0.599999X0.249999*%
%ADD31C,0.499999*%
%ADD32R,1.699999X2.700000*%
%ADD33FreePoly0,270.000000*%
%ADD34R,0.650000X1.250000*%
%ADD35FreePoly1,270.000000*%
%ADD36FreePoly2,270.000000*%
%ADD37FreePoly3,270.000000*%
%ADD38RoundRect,0.200000X0.200000X0.275000X-0.200000X0.275000X-0.200000X-0.275000X0.200000X-0.275000X0*%
%ADD39RoundRect,0.135000X-0.135000X-0.185000X0.135000X-0.185000X0.135000X0.185000X-0.135000X0.185000X0*%
%ADD40RoundRect,0.200000X0.275000X-0.200000X0.275000X0.200000X-0.275000X0.200000X-0.275000X-0.200000X0*%
%ADD41R,4.500000X1.650000*%
G04 APERTURE END LIST*
D10*
%TO.C,Q1*%
G36*
X164765901Y-101449800D02*
G01*
X164984100Y-101449800D01*
X164984100Y-100979800D01*
X165415900Y-100979800D01*
X165415900Y-101449800D01*
X165634102Y-101449800D01*
X165634102Y-100979800D01*
X166065902Y-100979800D01*
X166065902Y-101449800D01*
X166284100Y-101449800D01*
X166284100Y-100979800D01*
X166715900Y-100979800D01*
X166715905Y-102529500D01*
X167254905Y-102529500D01*
X167254905Y-103099500D01*
X166715905Y-103099500D01*
X166715905Y-103279500D01*
X164334097Y-103279500D01*
X164334097Y-103099500D01*
X163795097Y-103099500D01*
X163795097Y-102529500D01*
X164334097Y-102529500D01*
X164334102Y-100979800D01*
X164765901Y-100979800D01*
X164765901Y-101449800D01*
G37*
%TD*%
D11*
%TO.C,C7*%
X159700000Y-100775000D03*
X159700000Y-97825000D03*
%TD*%
D12*
%TO.C,J1*%
X142250000Y-107250000D03*
D13*
X142250000Y-112250000D03*
%TD*%
D14*
%TO.C,H3*%
X171500000Y-98000000D03*
%TD*%
D15*
%TO.C,C13*%
X158375000Y-108150000D03*
X156825000Y-108150000D03*
%TD*%
D16*
%TO.C,FID1*%
X139500000Y-97000000D03*
%TD*%
D11*
%TO.C,C3*%
X151900000Y-100775000D03*
X151900000Y-97825000D03*
%TD*%
D14*
%TO.C,H2*%
X141000000Y-152000000D03*
%TD*%
D17*
%TO.C,R6*%
X162100000Y-111200000D03*
X163750000Y-111200000D03*
%TD*%
D16*
%TO.C,FID3*%
X172750000Y-144750000D03*
%TD*%
D18*
%TO.C,C5*%
X157100000Y-111600000D03*
X159000000Y-111600000D03*
%TD*%
D19*
%TO.C,C11*%
X162025000Y-109500000D03*
X163575000Y-109500000D03*
%TD*%
D20*
%TO.C,C23*%
X148450000Y-135000000D03*
X145500000Y-135000000D03*
%TD*%
D19*
%TO.C,C12*%
X164225000Y-105750000D03*
X165775000Y-105750000D03*
%TD*%
D21*
%TO.C,C1*%
X146050000Y-101000000D03*
X142450000Y-101000000D03*
%TD*%
D22*
%TO.C,C10*%
X149000000Y-103975000D03*
X149000000Y-102425000D03*
%TD*%
D23*
%TO.C,R8*%
X151600000Y-107675000D03*
X151600000Y-109325000D03*
%TD*%
D20*
%TO.C,C18*%
X148375000Y-124000000D03*
X145425000Y-124000000D03*
%TD*%
D19*
%TO.C,R20*%
X154725000Y-104500000D03*
X156275000Y-104500000D03*
%TD*%
D24*
%TO.C,L1*%
X167800000Y-121800000D03*
X151800000Y-121800000D03*
%TD*%
D25*
%TO.C,Q1*%
X164550002Y-104250000D03*
X165200000Y-104250000D03*
X165850002Y-104250000D03*
X166500000Y-104250000D03*
D26*
X166500000Y-101180000D03*
X165850002Y-101180000D03*
X165200000Y-101180000D03*
X164550002Y-101180000D03*
%TD*%
D27*
%TO.C,D1*%
X160500000Y-109212500D03*
X160500000Y-110787500D03*
%TD*%
D23*
%TO.C,R4*%
X152600000Y-103175000D03*
X152600000Y-104825000D03*
%TD*%
D11*
%TO.C,C2*%
X149400000Y-100775000D03*
X149400000Y-97825000D03*
%TD*%
D28*
%TO.C,J2*%
X156000000Y-148000000D03*
D13*
X161000000Y-148000000D03*
%TD*%
D29*
%TO.C,U1*%
X160600000Y-104099999D03*
D30*
X159700002Y-104500001D03*
X159700002Y-105000000D03*
X159700002Y-105500002D03*
X159700002Y-106000000D03*
X159700002Y-106500002D03*
X159700002Y-107000001D03*
X159700002Y-107500000D03*
X159700002Y-107999999D03*
D29*
X160600000Y-108400001D03*
X162100002Y-108400001D03*
D31*
X160750002Y-106250000D03*
X161350001Y-105150000D03*
X161350001Y-107350000D03*
X161950000Y-106250000D03*
D30*
X163000000Y-107999999D03*
X163000000Y-107500000D03*
X163000000Y-106999998D03*
X163000000Y-106500000D03*
X163000000Y-105999998D03*
X163000000Y-105499999D03*
X163000000Y-105000000D03*
X163000000Y-104499998D03*
D29*
X162100002Y-104099999D03*
D32*
X161350001Y-106250000D03*
%TD*%
D33*
%TO.C,Q2*%
X170310400Y-107500000D03*
D34*
X170667000Y-107625000D03*
X169295800Y-107625000D03*
D33*
X167645400Y-107500000D03*
D35*
X167645400Y-107500000D03*
D34*
X168000000Y-107625000D03*
X166755800Y-107625000D03*
X166653800Y-113325000D03*
D36*
X167010400Y-113450000D03*
D34*
X168000000Y-113325000D03*
D36*
X168345400Y-113450000D03*
D34*
X169320800Y-113325000D03*
D36*
X169675400Y-113450000D03*
D34*
X170667000Y-113325000D03*
D36*
X171010400Y-113450000D03*
D37*
X171010400Y-113450000D03*
%TD*%
D38*
%TO.C,R5*%
X158025000Y-109750000D03*
X156375000Y-109750000D03*
%TD*%
D39*
%TO.C,R1*%
X159290000Y-113200000D03*
X160310000Y-113200000D03*
%TD*%
D11*
%TO.C,C9*%
X162200000Y-100775000D03*
X162200000Y-97825000D03*
%TD*%
D20*
%TO.C,C19*%
X148350000Y-131200000D03*
X145400000Y-131200000D03*
%TD*%
D23*
%TO.C,R9*%
X153350000Y-107675000D03*
X153350000Y-109325000D03*
%TD*%
D14*
%TO.C,H1*%
X171750000Y-151750000D03*
%TD*%
D20*
%TO.C,C22*%
X148450000Y-139250000D03*
X145500000Y-139250000D03*
%TD*%
D15*
%TO.C,C17*%
X153575000Y-106225000D03*
X152025000Y-106225000D03*
%TD*%
D20*
%TO.C,C16*%
X148375000Y-120500000D03*
X145425000Y-120500000D03*
%TD*%
D19*
%TO.C,C8*%
X154725000Y-103000000D03*
X156275000Y-103000000D03*
%TD*%
D40*
%TO.C,R7*%
X155200000Y-107825000D03*
X155200000Y-106175000D03*
%TD*%
D16*
%TO.C,FID2*%
X146750000Y-153700000D03*
%TD*%
D20*
%TO.C,C20*%
X148350000Y-127600000D03*
X145400000Y-127600000D03*
%TD*%
D11*
%TO.C,C4*%
X154500000Y-100775000D03*
X154500000Y-97825000D03*
%TD*%
D40*
%TO.C,R3*%
X160800000Y-104025000D03*
X160800000Y-102375000D03*
%TD*%
D11*
%TO.C,C6*%
X157100000Y-100775000D03*
X157100000Y-97825000D03*
%TD*%
D41*
%TO.C,C21*%
X153500000Y-137000000D03*
X161900000Y-137000000D03*
%TD*%
D15*
%TO.C,C14*%
X158575000Y-106600000D03*
X157025000Y-106600000D03*
%TD*%
D20*
%TO.C,C15*%
X148375000Y-117000000D03*
X145425000Y-117000000D03*
%TD*%
D40*
%TO.C,R2*%
X157800000Y-104900000D03*
X157800000Y-103250000D03*
%TD*%
M02*
