%TF.GenerationSoftware,KiCad,Pcbnew,9.0.6*%
%TF.CreationDate,2026-01-24T14:46:46+01:00*%
%TF.ProjectId,Brushless motor test board,42727573-686c-4657-9373-206d6f746f72,rev?*%
%TF.SameCoordinates,Original*%
%TF.FileFunction,Legend,Top*%
%TF.FilePolarity,Positive*%
%FSLAX46Y46*%
G04 Gerber Fmt 4.6, Leading zero omitted, Abs format (unit mm)*
G04 Created by KiCad (PCBNEW 9.0.6) date 2026-01-24 14:46:46*
%MOMM*%
%LPD*%
G01*
G04 APERTURE LIST*
%ADD10C,0.100000*%
%ADD11C,0.300000*%
%ADD12C,0.150000*%
%ADD13C,0.000000*%
%ADD14C,0.120000*%
G04 APERTURE END LIST*
D10*
X109608940Y-89104761D02*
X109227987Y-89371428D01*
X109608940Y-89561904D02*
X108808940Y-89561904D01*
X108808940Y-89561904D02*
X108808940Y-89257142D01*
X108808940Y-89257142D02*
X108847035Y-89180952D01*
X108847035Y-89180952D02*
X108885130Y-89142857D01*
X108885130Y-89142857D02*
X108961321Y-89104761D01*
X108961321Y-89104761D02*
X109075606Y-89104761D01*
X109075606Y-89104761D02*
X109151797Y-89142857D01*
X109151797Y-89142857D02*
X109189892Y-89180952D01*
X109189892Y-89180952D02*
X109227987Y-89257142D01*
X109227987Y-89257142D02*
X109227987Y-89561904D01*
X109189892Y-88761904D02*
X109189892Y-88495238D01*
X109608940Y-88380952D02*
X109608940Y-88761904D01*
X109608940Y-88761904D02*
X108808940Y-88761904D01*
X108808940Y-88761904D02*
X108808940Y-88380952D01*
X108808940Y-88152380D02*
X109608940Y-87885713D01*
X109608940Y-87885713D02*
X108808940Y-87619047D01*
X109380368Y-86780952D02*
X109380368Y-86399999D01*
X109608940Y-86857142D02*
X108808940Y-86590475D01*
X108808940Y-86590475D02*
X109608940Y-86323809D01*
X110173085Y-91771430D02*
X110134990Y-91733334D01*
X110134990Y-91733334D02*
X110096895Y-91657144D01*
X110096895Y-91657144D02*
X110096895Y-91466668D01*
X110096895Y-91466668D02*
X110134990Y-91390477D01*
X110134990Y-91390477D02*
X110173085Y-91352382D01*
X110173085Y-91352382D02*
X110249276Y-91314287D01*
X110249276Y-91314287D02*
X110325466Y-91314287D01*
X110325466Y-91314287D02*
X110439752Y-91352382D01*
X110439752Y-91352382D02*
X110896895Y-91809525D01*
X110896895Y-91809525D02*
X110896895Y-91314287D01*
X110363561Y-90628572D02*
X110896895Y-90628572D01*
X110058800Y-90819048D02*
X110630228Y-91009525D01*
X110630228Y-91009525D02*
X110630228Y-90514286D01*
X110096895Y-89371429D02*
X110668323Y-89371429D01*
X110668323Y-89371429D02*
X110782609Y-89409524D01*
X110782609Y-89409524D02*
X110858800Y-89485715D01*
X110858800Y-89485715D02*
X110896895Y-89600000D01*
X110896895Y-89600000D02*
X110896895Y-89676191D01*
X110896895Y-88647619D02*
X110477847Y-88647619D01*
X110477847Y-88647619D02*
X110401657Y-88685714D01*
X110401657Y-88685714D02*
X110363561Y-88761905D01*
X110363561Y-88761905D02*
X110363561Y-88914286D01*
X110363561Y-88914286D02*
X110401657Y-88990476D01*
X110858800Y-88647619D02*
X110896895Y-88723810D01*
X110896895Y-88723810D02*
X110896895Y-88914286D01*
X110896895Y-88914286D02*
X110858800Y-88990476D01*
X110858800Y-88990476D02*
X110782609Y-89028572D01*
X110782609Y-89028572D02*
X110706419Y-89028572D01*
X110706419Y-89028572D02*
X110630228Y-88990476D01*
X110630228Y-88990476D02*
X110592133Y-88914286D01*
X110592133Y-88914286D02*
X110592133Y-88723810D01*
X110592133Y-88723810D02*
X110554038Y-88647619D01*
X110363561Y-88266666D02*
X110896895Y-88266666D01*
X110439752Y-88266666D02*
X110401657Y-88228571D01*
X110401657Y-88228571D02*
X110363561Y-88152381D01*
X110363561Y-88152381D02*
X110363561Y-88038095D01*
X110363561Y-88038095D02*
X110401657Y-87961904D01*
X110401657Y-87961904D02*
X110477847Y-87923809D01*
X110477847Y-87923809D02*
X110896895Y-87923809D01*
X110173085Y-86971428D02*
X110134990Y-86933332D01*
X110134990Y-86933332D02*
X110096895Y-86857142D01*
X110096895Y-86857142D02*
X110096895Y-86666666D01*
X110096895Y-86666666D02*
X110134990Y-86590475D01*
X110134990Y-86590475D02*
X110173085Y-86552380D01*
X110173085Y-86552380D02*
X110249276Y-86514285D01*
X110249276Y-86514285D02*
X110325466Y-86514285D01*
X110325466Y-86514285D02*
X110439752Y-86552380D01*
X110439752Y-86552380D02*
X110896895Y-87009523D01*
X110896895Y-87009523D02*
X110896895Y-86514285D01*
X110096895Y-86019046D02*
X110096895Y-85942856D01*
X110096895Y-85942856D02*
X110134990Y-85866665D01*
X110134990Y-85866665D02*
X110173085Y-85828570D01*
X110173085Y-85828570D02*
X110249276Y-85790475D01*
X110249276Y-85790475D02*
X110401657Y-85752380D01*
X110401657Y-85752380D02*
X110592133Y-85752380D01*
X110592133Y-85752380D02*
X110744514Y-85790475D01*
X110744514Y-85790475D02*
X110820704Y-85828570D01*
X110820704Y-85828570D02*
X110858800Y-85866665D01*
X110858800Y-85866665D02*
X110896895Y-85942856D01*
X110896895Y-85942856D02*
X110896895Y-86019046D01*
X110896895Y-86019046D02*
X110858800Y-86095237D01*
X110858800Y-86095237D02*
X110820704Y-86133332D01*
X110820704Y-86133332D02*
X110744514Y-86171427D01*
X110744514Y-86171427D02*
X110592133Y-86209523D01*
X110592133Y-86209523D02*
X110401657Y-86209523D01*
X110401657Y-86209523D02*
X110249276Y-86171427D01*
X110249276Y-86171427D02*
X110173085Y-86133332D01*
X110173085Y-86133332D02*
X110134990Y-86095237D01*
X110134990Y-86095237D02*
X110096895Y-86019046D01*
X110173085Y-85447618D02*
X110134990Y-85409522D01*
X110134990Y-85409522D02*
X110096895Y-85333332D01*
X110096895Y-85333332D02*
X110096895Y-85142856D01*
X110096895Y-85142856D02*
X110134990Y-85066665D01*
X110134990Y-85066665D02*
X110173085Y-85028570D01*
X110173085Y-85028570D02*
X110249276Y-84990475D01*
X110249276Y-84990475D02*
X110325466Y-84990475D01*
X110325466Y-84990475D02*
X110439752Y-85028570D01*
X110439752Y-85028570D02*
X110896895Y-85485713D01*
X110896895Y-85485713D02*
X110896895Y-84990475D01*
X110096895Y-84266665D02*
X110096895Y-84647617D01*
X110096895Y-84647617D02*
X110477847Y-84685713D01*
X110477847Y-84685713D02*
X110439752Y-84647617D01*
X110439752Y-84647617D02*
X110401657Y-84571427D01*
X110401657Y-84571427D02*
X110401657Y-84380951D01*
X110401657Y-84380951D02*
X110439752Y-84304760D01*
X110439752Y-84304760D02*
X110477847Y-84266665D01*
X110477847Y-84266665D02*
X110554038Y-84228570D01*
X110554038Y-84228570D02*
X110744514Y-84228570D01*
X110744514Y-84228570D02*
X110820704Y-84266665D01*
X110820704Y-84266665D02*
X110858800Y-84304760D01*
X110858800Y-84304760D02*
X110896895Y-84380951D01*
X110896895Y-84380951D02*
X110896895Y-84571427D01*
X110896895Y-84571427D02*
X110858800Y-84647617D01*
X110858800Y-84647617D02*
X110820704Y-84685713D01*
D11*
X118483082Y-44443685D02*
X118554510Y-44372257D01*
X118554510Y-44372257D02*
X118697368Y-44300828D01*
X118697368Y-44300828D02*
X119054510Y-44300828D01*
X119054510Y-44300828D02*
X119197368Y-44372257D01*
X119197368Y-44372257D02*
X119268796Y-44443685D01*
X119268796Y-44443685D02*
X119340225Y-44586542D01*
X119340225Y-44586542D02*
X119340225Y-44729400D01*
X119340225Y-44729400D02*
X119268796Y-44943685D01*
X119268796Y-44943685D02*
X118411653Y-45800828D01*
X118411653Y-45800828D02*
X119340225Y-45800828D01*
X120625939Y-44800828D02*
X120625939Y-45800828D01*
X120268796Y-44229400D02*
X119911653Y-45300828D01*
X119911653Y-45300828D02*
X120840224Y-45300828D01*
X121197367Y-44300828D02*
X121697367Y-45800828D01*
X121697367Y-45800828D02*
X122197367Y-44300828D01*
X119340225Y-32372257D02*
X119197368Y-32300828D01*
X119197368Y-32300828D02*
X118983082Y-32300828D01*
X118983082Y-32300828D02*
X118768796Y-32372257D01*
X118768796Y-32372257D02*
X118625939Y-32515114D01*
X118625939Y-32515114D02*
X118554510Y-32657971D01*
X118554510Y-32657971D02*
X118483082Y-32943685D01*
X118483082Y-32943685D02*
X118483082Y-33157971D01*
X118483082Y-33157971D02*
X118554510Y-33443685D01*
X118554510Y-33443685D02*
X118625939Y-33586542D01*
X118625939Y-33586542D02*
X118768796Y-33729400D01*
X118768796Y-33729400D02*
X118983082Y-33800828D01*
X118983082Y-33800828D02*
X119125939Y-33800828D01*
X119125939Y-33800828D02*
X119340225Y-33729400D01*
X119340225Y-33729400D02*
X119411653Y-33657971D01*
X119411653Y-33657971D02*
X119411653Y-33157971D01*
X119411653Y-33157971D02*
X119125939Y-33157971D01*
X120054510Y-33800828D02*
X120054510Y-32300828D01*
X120054510Y-32300828D02*
X120911653Y-33800828D01*
X120911653Y-33800828D02*
X120911653Y-32300828D01*
X121625939Y-33800828D02*
X121625939Y-32300828D01*
X121625939Y-32300828D02*
X121983082Y-32300828D01*
X121983082Y-32300828D02*
X122197368Y-32372257D01*
X122197368Y-32372257D02*
X122340225Y-32515114D01*
X122340225Y-32515114D02*
X122411654Y-32657971D01*
X122411654Y-32657971D02*
X122483082Y-32943685D01*
X122483082Y-32943685D02*
X122483082Y-33157971D01*
X122483082Y-33157971D02*
X122411654Y-33443685D01*
X122411654Y-33443685D02*
X122340225Y-33586542D01*
X122340225Y-33586542D02*
X122197368Y-33729400D01*
X122197368Y-33729400D02*
X121983082Y-33800828D01*
X121983082Y-33800828D02*
X121625939Y-33800828D01*
X108340225Y-57372257D02*
X108197368Y-57300828D01*
X108197368Y-57300828D02*
X107983082Y-57300828D01*
X107983082Y-57300828D02*
X107768796Y-57372257D01*
X107768796Y-57372257D02*
X107625939Y-57515114D01*
X107625939Y-57515114D02*
X107554510Y-57657971D01*
X107554510Y-57657971D02*
X107483082Y-57943685D01*
X107483082Y-57943685D02*
X107483082Y-58157971D01*
X107483082Y-58157971D02*
X107554510Y-58443685D01*
X107554510Y-58443685D02*
X107625939Y-58586542D01*
X107625939Y-58586542D02*
X107768796Y-58729400D01*
X107768796Y-58729400D02*
X107983082Y-58800828D01*
X107983082Y-58800828D02*
X108125939Y-58800828D01*
X108125939Y-58800828D02*
X108340225Y-58729400D01*
X108340225Y-58729400D02*
X108411653Y-58657971D01*
X108411653Y-58657971D02*
X108411653Y-58157971D01*
X108411653Y-58157971D02*
X108125939Y-58157971D01*
X109054510Y-58800828D02*
X109054510Y-57300828D01*
X109054510Y-57300828D02*
X109911653Y-58800828D01*
X109911653Y-58800828D02*
X109911653Y-57300828D01*
X110625939Y-58800828D02*
X110625939Y-57300828D01*
X110625939Y-57300828D02*
X110983082Y-57300828D01*
X110983082Y-57300828D02*
X111197368Y-57372257D01*
X111197368Y-57372257D02*
X111340225Y-57515114D01*
X111340225Y-57515114D02*
X111411654Y-57657971D01*
X111411654Y-57657971D02*
X111483082Y-57943685D01*
X111483082Y-57943685D02*
X111483082Y-58157971D01*
X111483082Y-58157971D02*
X111411654Y-58443685D01*
X111411654Y-58443685D02*
X111340225Y-58586542D01*
X111340225Y-58586542D02*
X111197368Y-58729400D01*
X111197368Y-58729400D02*
X110983082Y-58800828D01*
X110983082Y-58800828D02*
X110625939Y-58800828D01*
X106554510Y-71800828D02*
X106554510Y-70300828D01*
X106554510Y-70300828D02*
X107125939Y-70300828D01*
X107125939Y-70300828D02*
X107268796Y-70372257D01*
X107268796Y-70372257D02*
X107340225Y-70443685D01*
X107340225Y-70443685D02*
X107411653Y-70586542D01*
X107411653Y-70586542D02*
X107411653Y-70800828D01*
X107411653Y-70800828D02*
X107340225Y-70943685D01*
X107340225Y-70943685D02*
X107268796Y-71015114D01*
X107268796Y-71015114D02*
X107125939Y-71086542D01*
X107125939Y-71086542D02*
X106554510Y-71086542D01*
X107911653Y-70300828D02*
X108268796Y-71800828D01*
X108268796Y-71800828D02*
X108554510Y-70729400D01*
X108554510Y-70729400D02*
X108840225Y-71800828D01*
X108840225Y-71800828D02*
X109197368Y-70300828D01*
X109768796Y-71800828D02*
X109768796Y-70300828D01*
X109768796Y-70300828D02*
X110268796Y-71372257D01*
X110268796Y-71372257D02*
X110768796Y-70300828D01*
X110768796Y-70300828D02*
X110768796Y-71800828D01*
D12*
X119665714Y-45529104D02*
X120141904Y-45529104D01*
X119570476Y-45814819D02*
X119903809Y-44814819D01*
X119903809Y-44814819D02*
X120237142Y-45814819D01*
X121094285Y-45814819D02*
X120522857Y-45814819D01*
X120808571Y-45814819D02*
X120808571Y-44814819D01*
X120808571Y-44814819D02*
X120713333Y-44957676D01*
X120713333Y-44957676D02*
X120618095Y-45052914D01*
X120618095Y-45052914D02*
X120522857Y-45100533D01*
X119118095Y-85454819D02*
X119118095Y-86264342D01*
X119118095Y-86264342D02*
X119165714Y-86359580D01*
X119165714Y-86359580D02*
X119213333Y-86407200D01*
X119213333Y-86407200D02*
X119308571Y-86454819D01*
X119308571Y-86454819D02*
X119499047Y-86454819D01*
X119499047Y-86454819D02*
X119594285Y-86407200D01*
X119594285Y-86407200D02*
X119641904Y-86359580D01*
X119641904Y-86359580D02*
X119689523Y-86264342D01*
X119689523Y-86264342D02*
X119689523Y-85454819D01*
X120118095Y-86407200D02*
X120260952Y-86454819D01*
X120260952Y-86454819D02*
X120499047Y-86454819D01*
X120499047Y-86454819D02*
X120594285Y-86407200D01*
X120594285Y-86407200D02*
X120641904Y-86359580D01*
X120641904Y-86359580D02*
X120689523Y-86264342D01*
X120689523Y-86264342D02*
X120689523Y-86169104D01*
X120689523Y-86169104D02*
X120641904Y-86073866D01*
X120641904Y-86073866D02*
X120594285Y-86026247D01*
X120594285Y-86026247D02*
X120499047Y-85978628D01*
X120499047Y-85978628D02*
X120308571Y-85931009D01*
X120308571Y-85931009D02*
X120213333Y-85883390D01*
X120213333Y-85883390D02*
X120165714Y-85835771D01*
X120165714Y-85835771D02*
X120118095Y-85740533D01*
X120118095Y-85740533D02*
X120118095Y-85645295D01*
X120118095Y-85645295D02*
X120165714Y-85550057D01*
X120165714Y-85550057D02*
X120213333Y-85502438D01*
X120213333Y-85502438D02*
X120308571Y-85454819D01*
X120308571Y-85454819D02*
X120546666Y-85454819D01*
X120546666Y-85454819D02*
X120689523Y-85502438D01*
X121451428Y-85931009D02*
X121594285Y-85978628D01*
X121594285Y-85978628D02*
X121641904Y-86026247D01*
X121641904Y-86026247D02*
X121689523Y-86121485D01*
X121689523Y-86121485D02*
X121689523Y-86264342D01*
X121689523Y-86264342D02*
X121641904Y-86359580D01*
X121641904Y-86359580D02*
X121594285Y-86407200D01*
X121594285Y-86407200D02*
X121499047Y-86454819D01*
X121499047Y-86454819D02*
X121118095Y-86454819D01*
X121118095Y-86454819D02*
X121118095Y-85454819D01*
X121118095Y-85454819D02*
X121451428Y-85454819D01*
X121451428Y-85454819D02*
X121546666Y-85502438D01*
X121546666Y-85502438D02*
X121594285Y-85550057D01*
X121594285Y-85550057D02*
X121641904Y-85645295D01*
X121641904Y-85645295D02*
X121641904Y-85740533D01*
X121641904Y-85740533D02*
X121594285Y-85835771D01*
X121594285Y-85835771D02*
X121546666Y-85883390D01*
X121546666Y-85883390D02*
X121451428Y-85931009D01*
X121451428Y-85931009D02*
X121118095Y-85931009D01*
X120107319Y-40333333D02*
X120821604Y-40333333D01*
X120821604Y-40333333D02*
X120964461Y-40380952D01*
X120964461Y-40380952D02*
X121059700Y-40476190D01*
X121059700Y-40476190D02*
X121107319Y-40619047D01*
X121107319Y-40619047D02*
X121107319Y-40714285D01*
X120107319Y-39952380D02*
X120107319Y-39333333D01*
X120107319Y-39333333D02*
X120488271Y-39666666D01*
X120488271Y-39666666D02*
X120488271Y-39523809D01*
X120488271Y-39523809D02*
X120535890Y-39428571D01*
X120535890Y-39428571D02*
X120583509Y-39380952D01*
X120583509Y-39380952D02*
X120678747Y-39333333D01*
X120678747Y-39333333D02*
X120916842Y-39333333D01*
X120916842Y-39333333D02*
X121012080Y-39380952D01*
X121012080Y-39380952D02*
X121059700Y-39428571D01*
X121059700Y-39428571D02*
X121107319Y-39523809D01*
X121107319Y-39523809D02*
X121107319Y-39809523D01*
X121107319Y-39809523D02*
X121059700Y-39904761D01*
X121059700Y-39904761D02*
X121012080Y-39952380D01*
X119334819Y-40583333D02*
X120049104Y-40583333D01*
X120049104Y-40583333D02*
X120191961Y-40630952D01*
X120191961Y-40630952D02*
X120287200Y-40726190D01*
X120287200Y-40726190D02*
X120334819Y-40869047D01*
X120334819Y-40869047D02*
X120334819Y-40964285D01*
X119430057Y-40154761D02*
X119382438Y-40107142D01*
X119382438Y-40107142D02*
X119334819Y-40011904D01*
X119334819Y-40011904D02*
X119334819Y-39773809D01*
X119334819Y-39773809D02*
X119382438Y-39678571D01*
X119382438Y-39678571D02*
X119430057Y-39630952D01*
X119430057Y-39630952D02*
X119525295Y-39583333D01*
X119525295Y-39583333D02*
X119620533Y-39583333D01*
X119620533Y-39583333D02*
X119763390Y-39630952D01*
X119763390Y-39630952D02*
X120334819Y-40202380D01*
X120334819Y-40202380D02*
X120334819Y-39583333D01*
X108666666Y-59534819D02*
X108666666Y-60249104D01*
X108666666Y-60249104D02*
X108619047Y-60391961D01*
X108619047Y-60391961D02*
X108523809Y-60487200D01*
X108523809Y-60487200D02*
X108380952Y-60534819D01*
X108380952Y-60534819D02*
X108285714Y-60534819D01*
X109571428Y-59868152D02*
X109571428Y-60534819D01*
X109333333Y-59487200D02*
X109095238Y-60201485D01*
X109095238Y-60201485D02*
X109714285Y-60201485D01*
D13*
%TO.C,G\u002A\u002A\u002A*%
G36*
X107069513Y-87068689D02*
G01*
X107074352Y-87070204D01*
X107083432Y-87072972D01*
X107095816Y-87076711D01*
X107110570Y-87081137D01*
X107126756Y-87085970D01*
X107128228Y-87086408D01*
X107144278Y-87091238D01*
X107158761Y-87095697D01*
X107170799Y-87099504D01*
X107179515Y-87102383D01*
X107184031Y-87104055D01*
X107184243Y-87104159D01*
X107185696Y-87105312D01*
X107186819Y-87107478D01*
X107187653Y-87111291D01*
X107188241Y-87117383D01*
X107188624Y-87126390D01*
X107188845Y-87138943D01*
X107188945Y-87155677D01*
X107188968Y-87175385D01*
X107188892Y-87194015D01*
X107188678Y-87210733D01*
X107188347Y-87224822D01*
X107187920Y-87235565D01*
X107187419Y-87242244D01*
X107186943Y-87244192D01*
X107183889Y-87243469D01*
X107176406Y-87241407D01*
X107165236Y-87238218D01*
X107151121Y-87234116D01*
X107134803Y-87229315D01*
X107123537Y-87225970D01*
X107062155Y-87207684D01*
X107062122Y-87136962D01*
X107062089Y-87066239D01*
X107069513Y-87068689D01*
G37*
G36*
X106843652Y-89512585D02*
G01*
X106847356Y-89519484D01*
X106852555Y-89529876D01*
X106858916Y-89543033D01*
X106866105Y-89558229D01*
X106873790Y-89574735D01*
X106881637Y-89591825D01*
X106889314Y-89608771D01*
X106896486Y-89624845D01*
X106902821Y-89639321D01*
X106907986Y-89651471D01*
X106911647Y-89660568D01*
X106913471Y-89665884D01*
X106913614Y-89666727D01*
X106911045Y-89670839D01*
X106903665Y-89675592D01*
X106899442Y-89677604D01*
X106890442Y-89681647D01*
X106878603Y-89687034D01*
X106865979Y-89692827D01*
X106861271Y-89695002D01*
X106850397Y-89699798D01*
X106840901Y-89703552D01*
X106834140Y-89705752D01*
X106832045Y-89706112D01*
X106830086Y-89705202D01*
X106827400Y-89702186D01*
X106823748Y-89696631D01*
X106818888Y-89688105D01*
X106812578Y-89676176D01*
X106804579Y-89660412D01*
X106794647Y-89640381D01*
X106789479Y-89629849D01*
X106778686Y-89607561D01*
X106769663Y-89588417D01*
X106762555Y-89572748D01*
X106757511Y-89560886D01*
X106754675Y-89553164D01*
X106754163Y-89549961D01*
X106757274Y-89547561D01*
X106764306Y-89543591D01*
X106774263Y-89538508D01*
X106786144Y-89532769D01*
X106798952Y-89526829D01*
X106811688Y-89521145D01*
X106823354Y-89516173D01*
X106832952Y-89512371D01*
X106839482Y-89510194D01*
X106841777Y-89509906D01*
X106843652Y-89512585D01*
G37*
G36*
X107110810Y-89458163D02*
G01*
X107120991Y-89492330D01*
X107129715Y-89521673D01*
X107137084Y-89546538D01*
X107143197Y-89567273D01*
X107148156Y-89584223D01*
X107152059Y-89597735D01*
X107155008Y-89608154D01*
X107157102Y-89615828D01*
X107158441Y-89621103D01*
X107159127Y-89624325D01*
X107159273Y-89625614D01*
X107157752Y-89628638D01*
X107152673Y-89631615D01*
X107143262Y-89634956D01*
X107139701Y-89636026D01*
X107126930Y-89639789D01*
X107112160Y-89644173D01*
X107098559Y-89648239D01*
X107098394Y-89648289D01*
X107087837Y-89651311D01*
X107078922Y-89653592D01*
X107073175Y-89654749D01*
X107072298Y-89654820D01*
X107070635Y-89653584D01*
X107068304Y-89649616D01*
X107065155Y-89642528D01*
X107061040Y-89631929D01*
X107055807Y-89617431D01*
X107049308Y-89598643D01*
X107041394Y-89575178D01*
X107039368Y-89569109D01*
X107032523Y-89548371D01*
X107026267Y-89529021D01*
X107020801Y-89511717D01*
X107016329Y-89497116D01*
X107013052Y-89485876D01*
X107011173Y-89478652D01*
X107010798Y-89476393D01*
X107012555Y-89469439D01*
X107015522Y-89465317D01*
X107020022Y-89462874D01*
X107028523Y-89459418D01*
X107039811Y-89455344D01*
X107052675Y-89451045D01*
X107065901Y-89446913D01*
X107078278Y-89443344D01*
X107088592Y-89440730D01*
X107094965Y-89439536D01*
X107104895Y-89438327D01*
X107110810Y-89458163D01*
G37*
G36*
X107224230Y-87115235D02*
G01*
X107232030Y-87117224D01*
X107244290Y-87120415D01*
X107260633Y-87124708D01*
X107280684Y-87130002D01*
X107304068Y-87136198D01*
X107330409Y-87143193D01*
X107359332Y-87150889D01*
X107390461Y-87159183D01*
X107423421Y-87167977D01*
X107457835Y-87177168D01*
X107493330Y-87186656D01*
X107529529Y-87196341D01*
X107566056Y-87206123D01*
X107602537Y-87215900D01*
X107638596Y-87225572D01*
X107673857Y-87235039D01*
X107707944Y-87244200D01*
X107740483Y-87252954D01*
X107771098Y-87261200D01*
X107799413Y-87268839D01*
X107825053Y-87275770D01*
X107847642Y-87281891D01*
X107866805Y-87287103D01*
X107882166Y-87291304D01*
X107893351Y-87294395D01*
X107899982Y-87296275D01*
X107901750Y-87296833D01*
X107902224Y-87299726D01*
X107902660Y-87307361D01*
X107903057Y-87319078D01*
X107903411Y-87334222D01*
X107903718Y-87352133D01*
X107903975Y-87372154D01*
X107904180Y-87393628D01*
X107904330Y-87415896D01*
X107904420Y-87438300D01*
X107904447Y-87460184D01*
X107904410Y-87480888D01*
X107904303Y-87499756D01*
X107904125Y-87516130D01*
X107903872Y-87529351D01*
X107903541Y-87538762D01*
X107903128Y-87543705D01*
X107902949Y-87544276D01*
X107899961Y-87544146D01*
X107892807Y-87542784D01*
X107882518Y-87540415D01*
X107870127Y-87537262D01*
X107868529Y-87536836D01*
X107853200Y-87532738D01*
X107837192Y-87528467D01*
X107822601Y-87524582D01*
X107813237Y-87522095D01*
X107790966Y-87516191D01*
X107790966Y-87461766D01*
X107790966Y-87407342D01*
X107510888Y-87332388D01*
X107473000Y-87322249D01*
X107436510Y-87312485D01*
X107401763Y-87303189D01*
X107369108Y-87294453D01*
X107338891Y-87286370D01*
X107311458Y-87279033D01*
X107287156Y-87272535D01*
X107266332Y-87266968D01*
X107249332Y-87262425D01*
X107236504Y-87258999D01*
X107228193Y-87256783D01*
X107224747Y-87255868D01*
X107224737Y-87255865D01*
X107218663Y-87254297D01*
X107218663Y-87184423D01*
X107218761Y-87162490D01*
X107219045Y-87144200D01*
X107219501Y-87129947D01*
X107220114Y-87120124D01*
X107220870Y-87115123D01*
X107221264Y-87114550D01*
X107224230Y-87115235D01*
G37*
G36*
X107074912Y-84529702D02*
G01*
X107082277Y-84531768D01*
X107093479Y-84534822D01*
X107107130Y-84538490D01*
X107121843Y-84542397D01*
X107125447Y-84543347D01*
X107139460Y-84547082D01*
X107152020Y-84550521D01*
X107161995Y-84553345D01*
X107168252Y-84555240D01*
X107169315Y-84555609D01*
X107175470Y-84557949D01*
X107175470Y-84746314D01*
X107175470Y-84934679D01*
X107389409Y-84992127D01*
X107422478Y-85001006D01*
X107454129Y-85009504D01*
X107483963Y-85017512D01*
X107511580Y-85024924D01*
X107536579Y-85031631D01*
X107558560Y-85037528D01*
X107577124Y-85042507D01*
X107591871Y-85046459D01*
X107602400Y-85049279D01*
X107608311Y-85050858D01*
X107609403Y-85051147D01*
X107615459Y-85052720D01*
X107616152Y-84863956D01*
X107616845Y-84675192D01*
X107668137Y-84688949D01*
X107684241Y-84693297D01*
X107698764Y-84697271D01*
X107710819Y-84700625D01*
X107719519Y-84703111D01*
X107723976Y-84704482D01*
X107724152Y-84704547D01*
X107724942Y-84705083D01*
X107725640Y-84706250D01*
X107726250Y-84708366D01*
X107726778Y-84711752D01*
X107727231Y-84716727D01*
X107727614Y-84723611D01*
X107727932Y-84732722D01*
X107728193Y-84744382D01*
X107728401Y-84758908D01*
X107728562Y-84776620D01*
X107728683Y-84797839D01*
X107728768Y-84822883D01*
X107728825Y-84852072D01*
X107728857Y-84885725D01*
X107728873Y-84924163D01*
X107728876Y-84964280D01*
X107728863Y-85008969D01*
X107728822Y-85048529D01*
X107728748Y-85083228D01*
X107728639Y-85113337D01*
X107728491Y-85139125D01*
X107728300Y-85160861D01*
X107728063Y-85178815D01*
X107727777Y-85193256D01*
X107727437Y-85204454D01*
X107727040Y-85212678D01*
X107726584Y-85218198D01*
X107726063Y-85221282D01*
X107725502Y-85222203D01*
X107722521Y-85221521D01*
X107714640Y-85219521D01*
X107702173Y-85216289D01*
X107685436Y-85211906D01*
X107664742Y-85206456D01*
X107640407Y-85200023D01*
X107612744Y-85192690D01*
X107582068Y-85184541D01*
X107548694Y-85175657D01*
X107512935Y-85166124D01*
X107475108Y-85156025D01*
X107435525Y-85145442D01*
X107394502Y-85134460D01*
X107392108Y-85133818D01*
X107062089Y-85045402D01*
X107062089Y-84785691D01*
X107062089Y-84525980D01*
X107074912Y-84529702D01*
G37*
G36*
X107224205Y-87420286D02*
G01*
X107232009Y-87422268D01*
X107244146Y-87425428D01*
X107260177Y-87429647D01*
X107279663Y-87434808D01*
X107302167Y-87440791D01*
X107327248Y-87447480D01*
X107354468Y-87454755D01*
X107383388Y-87462500D01*
X107413570Y-87470595D01*
X107444574Y-87478923D01*
X107475961Y-87487365D01*
X107507294Y-87495804D01*
X107538133Y-87504122D01*
X107568039Y-87512200D01*
X107596573Y-87519920D01*
X107623297Y-87527164D01*
X107647772Y-87533814D01*
X107669558Y-87539752D01*
X107688218Y-87544861D01*
X107703312Y-87549021D01*
X107714401Y-87552114D01*
X107721047Y-87554024D01*
X107722802Y-87554585D01*
X107728876Y-87557160D01*
X107728876Y-87802717D01*
X107728855Y-87838647D01*
X107728791Y-87873020D01*
X107728690Y-87905454D01*
X107728553Y-87935569D01*
X107728384Y-87962982D01*
X107728187Y-87987314D01*
X107727963Y-88008181D01*
X107727717Y-88025204D01*
X107727452Y-88038000D01*
X107727170Y-88046189D01*
X107726874Y-88049389D01*
X107726852Y-88049417D01*
X107724013Y-88048892D01*
X107716322Y-88047049D01*
X107704136Y-88043983D01*
X107687814Y-88039787D01*
X107667713Y-88034556D01*
X107644192Y-88028383D01*
X107617609Y-88021364D01*
X107615495Y-88020803D01*
X107588323Y-88013592D01*
X107556691Y-88005161D01*
X107523072Y-87996165D01*
X107487825Y-87986699D01*
X107472420Y-87982551D01*
X107220012Y-87914542D01*
X107219323Y-87667070D01*
X107219304Y-87658305D01*
X107332502Y-87658305D01*
X107332611Y-87683940D01*
X107332687Y-87696413D01*
X107333393Y-87803758D01*
X107474444Y-87842048D01*
X107615495Y-87880338D01*
X107615495Y-87773307D01*
X107615495Y-87666276D01*
X107477144Y-87628894D01*
X107450703Y-87621745D01*
X107425793Y-87614998D01*
X107402909Y-87608790D01*
X107382544Y-87603254D01*
X107365194Y-87598525D01*
X107351354Y-87594739D01*
X107341519Y-87592029D01*
X107336183Y-87590531D01*
X107335387Y-87590290D01*
X107334511Y-87590967D01*
X107333807Y-87593967D01*
X107333265Y-87599704D01*
X107332874Y-87608592D01*
X107332623Y-87621046D01*
X107332503Y-87637479D01*
X107332502Y-87658305D01*
X107219304Y-87658305D01*
X107219231Y-87623878D01*
X107219201Y-87584261D01*
X107219233Y-87548418D01*
X107219326Y-87516545D01*
X107219477Y-87488840D01*
X107219686Y-87465501D01*
X107219951Y-87446724D01*
X107220270Y-87432708D01*
X107220643Y-87423650D01*
X107221067Y-87419746D01*
X107221173Y-87419599D01*
X107224205Y-87420286D01*
G37*
G36*
X107221757Y-87975022D02*
G01*
X107226852Y-87980868D01*
X107234903Y-87990241D01*
X107245651Y-88002835D01*
X107258836Y-88018345D01*
X107274202Y-88036467D01*
X107291489Y-88056897D01*
X107310439Y-88079330D01*
X107330794Y-88103461D01*
X107352296Y-88128985D01*
X107364722Y-88143751D01*
X107508356Y-88314497D01*
X107608493Y-88341997D01*
X107631255Y-88348253D01*
X107652731Y-88354166D01*
X107672282Y-88359557D01*
X107689267Y-88364252D01*
X107703045Y-88368071D01*
X107712976Y-88370839D01*
X107718421Y-88372378D01*
X107718753Y-88372475D01*
X107728876Y-88375454D01*
X107728876Y-88442834D01*
X107728840Y-88463894D01*
X107728706Y-88480150D01*
X107728439Y-88492195D01*
X107728003Y-88500622D01*
X107727363Y-88506026D01*
X107726483Y-88509000D01*
X107725327Y-88510139D01*
X107724823Y-88510214D01*
X107721899Y-88509520D01*
X107714205Y-88507517D01*
X107702178Y-88504325D01*
X107686255Y-88500062D01*
X107666873Y-88494848D01*
X107644468Y-88488801D01*
X107619477Y-88482041D01*
X107592338Y-88474686D01*
X107563487Y-88466855D01*
X107533361Y-88458668D01*
X107502397Y-88450244D01*
X107471031Y-88441701D01*
X107439702Y-88433158D01*
X107408845Y-88424735D01*
X107378897Y-88416551D01*
X107350296Y-88408724D01*
X107323477Y-88401374D01*
X107298880Y-88394619D01*
X107276939Y-88388579D01*
X107258091Y-88383373D01*
X107242775Y-88379119D01*
X107231426Y-88375937D01*
X107224482Y-88373945D01*
X107223387Y-88373617D01*
X107221937Y-88372808D01*
X107220817Y-88370960D01*
X107219983Y-88367449D01*
X107219396Y-88361652D01*
X107219012Y-88352945D01*
X107218790Y-88340705D01*
X107218687Y-88324308D01*
X107218663Y-88303335D01*
X107218663Y-88234497D01*
X107224737Y-88236464D01*
X107231326Y-88238461D01*
X107241349Y-88241329D01*
X107253878Y-88244822D01*
X107267987Y-88248689D01*
X107282750Y-88252682D01*
X107297239Y-88256552D01*
X107310528Y-88260051D01*
X107321689Y-88262931D01*
X107329797Y-88264942D01*
X107333924Y-88265836D01*
X107334252Y-88265845D01*
X107332786Y-88263678D01*
X107328232Y-88257870D01*
X107320984Y-88248904D01*
X107311438Y-88237263D01*
X107299991Y-88223430D01*
X107287036Y-88207890D01*
X107276887Y-88195780D01*
X107218663Y-88126473D01*
X107218663Y-88049739D01*
X107218704Y-88030013D01*
X107218819Y-88012165D01*
X107218998Y-87996872D01*
X107219231Y-87984813D01*
X107219506Y-87976665D01*
X107219812Y-87973106D01*
X107219875Y-87973005D01*
X107221757Y-87975022D01*
G37*
G36*
X107414898Y-89779312D02*
G01*
X107434635Y-89779759D01*
X107438675Y-89779858D01*
X107480675Y-89781407D01*
X107525797Y-89784009D01*
X107573003Y-89787554D01*
X107621255Y-89791930D01*
X107669514Y-89797026D01*
X107716743Y-89802731D01*
X107761902Y-89808934D01*
X107803953Y-89815522D01*
X107841857Y-89822386D01*
X107849006Y-89823814D01*
X107867573Y-89827821D01*
X107889020Y-89832828D01*
X107912031Y-89838495D01*
X107935290Y-89844481D01*
X107957482Y-89850447D01*
X107977291Y-89856053D01*
X107993402Y-89860958D01*
X107996131Y-89861847D01*
X108019077Y-89869434D01*
X108019793Y-89947046D01*
X108019908Y-89966888D01*
X108019879Y-89984856D01*
X108019719Y-90000276D01*
X108019439Y-90012475D01*
X108019051Y-90020778D01*
X108018568Y-90024513D01*
X108018444Y-90024654D01*
X108015297Y-90023689D01*
X108008163Y-90021051D01*
X107998048Y-90017125D01*
X107985958Y-90012295D01*
X107983836Y-90011435D01*
X107952197Y-89999363D01*
X107919850Y-89988648D01*
X107885810Y-89979030D01*
X107849092Y-89970248D01*
X107808714Y-89962041D01*
X107774769Y-89955993D01*
X107725203Y-89948281D01*
X107674763Y-89941704D01*
X107624711Y-89936385D01*
X107576312Y-89932445D01*
X107530829Y-89930009D01*
X107499652Y-89929244D01*
X107483592Y-89929123D01*
X107471818Y-89929223D01*
X107463221Y-89929680D01*
X107456690Y-89930630D01*
X107451113Y-89932209D01*
X107445380Y-89934555D01*
X107441375Y-89936400D01*
X107426688Y-89944409D01*
X107415173Y-89953726D01*
X107404970Y-89965986D01*
X107400814Y-89972121D01*
X107396538Y-89978449D01*
X107392676Y-89982784D01*
X107387913Y-89985926D01*
X107380935Y-89988678D01*
X107370427Y-89991841D01*
X107366744Y-89992889D01*
X107354216Y-89996239D01*
X107345889Y-89997902D01*
X107340879Y-89998002D01*
X107338454Y-89996834D01*
X107337184Y-89993710D01*
X107334706Y-89986086D01*
X107331221Y-89974672D01*
X107326928Y-89960180D01*
X107322028Y-89943322D01*
X107316721Y-89924810D01*
X107311207Y-89905354D01*
X107305686Y-89885666D01*
X107300358Y-89866458D01*
X107295423Y-89848441D01*
X107291081Y-89832327D01*
X107287532Y-89818827D01*
X107284977Y-89808653D01*
X107283615Y-89802516D01*
X107283444Y-89801204D01*
X107284053Y-89799123D01*
X107286316Y-89797235D01*
X107290899Y-89795340D01*
X107298471Y-89793235D01*
X107309700Y-89790721D01*
X107325252Y-89787596D01*
X107334743Y-89785764D01*
X107347302Y-89783399D01*
X107357749Y-89781615D01*
X107367128Y-89780351D01*
X107376486Y-89779548D01*
X107386870Y-89779147D01*
X107399325Y-89779088D01*
X107414898Y-89779312D01*
G37*
G36*
X106930086Y-89699960D02*
G01*
X106931543Y-89702773D01*
X106935105Y-89710311D01*
X106940680Y-89722365D01*
X106948174Y-89738728D01*
X106957495Y-89759195D01*
X106968549Y-89783556D01*
X106981243Y-89811605D01*
X106995483Y-89843135D01*
X107011178Y-89877939D01*
X107028234Y-89915809D01*
X107046557Y-89956539D01*
X107066055Y-89999921D01*
X107086634Y-90045747D01*
X107108202Y-90093812D01*
X107130665Y-90143906D01*
X107153930Y-90195825D01*
X107177904Y-90249359D01*
X107202494Y-90304302D01*
X107227607Y-90360447D01*
X107253150Y-90417587D01*
X107279030Y-90475514D01*
X107305153Y-90534022D01*
X107331427Y-90592903D01*
X107342869Y-90618557D01*
X107357655Y-90651710D01*
X107371953Y-90683761D01*
X107385590Y-90714325D01*
X107398394Y-90743017D01*
X107410194Y-90769453D01*
X107420817Y-90793246D01*
X107430092Y-90814012D01*
X107437847Y-90831367D01*
X107443909Y-90844923D01*
X107448108Y-90854298D01*
X107450207Y-90858966D01*
X107455504Y-90870958D01*
X107458705Y-90879263D01*
X107460104Y-90885032D01*
X107459993Y-90889420D01*
X107458878Y-90893059D01*
X107453614Y-90899703D01*
X107445305Y-90903785D01*
X107435887Y-90904821D01*
X107427298Y-90902326D01*
X107425816Y-90901334D01*
X107423751Y-90898272D01*
X107419605Y-90890845D01*
X107413635Y-90879558D01*
X107406097Y-90864913D01*
X107397249Y-90847413D01*
X107387346Y-90827560D01*
X107376646Y-90805858D01*
X107367576Y-90787278D01*
X107360744Y-90773304D01*
X107351642Y-90754818D01*
X107340426Y-90732131D01*
X107327251Y-90705555D01*
X107312273Y-90675403D01*
X107295647Y-90641985D01*
X107277529Y-90605613D01*
X107258074Y-90566600D01*
X107237438Y-90525256D01*
X107215776Y-90481893D01*
X107193243Y-90436824D01*
X107169996Y-90390359D01*
X107146189Y-90342811D01*
X107121978Y-90294491D01*
X107097519Y-90245710D01*
X107079747Y-90210289D01*
X107056115Y-90163171D01*
X107033148Y-90117313D01*
X107010962Y-90072952D01*
X106989674Y-90030323D01*
X106969400Y-89989660D01*
X106950257Y-89951200D01*
X106932360Y-89915177D01*
X106915827Y-89881826D01*
X106900774Y-89851384D01*
X106887317Y-89824084D01*
X106875573Y-89800163D01*
X106865658Y-89779855D01*
X106857688Y-89763395D01*
X106851781Y-89751020D01*
X106848052Y-89742964D01*
X106846618Y-89739462D01*
X106846607Y-89739348D01*
X106849211Y-89736769D01*
X106855725Y-89732651D01*
X106865163Y-89727462D01*
X106876538Y-89721667D01*
X106888863Y-89715731D01*
X106901151Y-89710121D01*
X106912414Y-89705301D01*
X106921667Y-89701738D01*
X106927921Y-89699897D01*
X106930086Y-89699960D01*
G37*
G36*
X107128080Y-88444388D02*
G01*
X107136091Y-88446115D01*
X107148385Y-88449038D01*
X107164500Y-88453041D01*
X107183977Y-88458005D01*
X107206353Y-88463813D01*
X107231167Y-88470348D01*
X107257958Y-88477490D01*
X107286265Y-88485124D01*
X107287824Y-88485547D01*
X107316477Y-88493321D01*
X107343844Y-88500742D01*
X107369434Y-88507679D01*
X107392757Y-88513998D01*
X107413324Y-88519568D01*
X107430642Y-88524254D01*
X107444223Y-88527925D01*
X107453575Y-88530447D01*
X107458209Y-88531687D01*
X107458214Y-88531689D01*
X107462452Y-88533015D01*
X107466240Y-88534974D01*
X107470167Y-88538214D01*
X107474823Y-88543382D01*
X107480798Y-88551127D01*
X107488681Y-88562098D01*
X107498033Y-88575462D01*
X107526411Y-88616224D01*
X107526411Y-88812851D01*
X107526411Y-89009479D01*
X107540583Y-89013491D01*
X107546718Y-89015181D01*
X107557299Y-89018045D01*
X107571554Y-89021875D01*
X107588709Y-89026464D01*
X107607992Y-89031606D01*
X107628628Y-89037093D01*
X107637092Y-89039339D01*
X107657494Y-89044754D01*
X107676355Y-89049770D01*
X107693003Y-89054205D01*
X107706769Y-89057883D01*
X107716981Y-89060623D01*
X107722969Y-89062247D01*
X107724152Y-89062579D01*
X107725588Y-89063368D01*
X107726701Y-89065186D01*
X107727532Y-89068651D01*
X107728122Y-89074379D01*
X107728510Y-89082987D01*
X107728739Y-89095090D01*
X107728847Y-89111307D01*
X107728876Y-89132252D01*
X107728876Y-89134305D01*
X107728876Y-89204626D01*
X107722802Y-89203042D01*
X107719475Y-89202160D01*
X107711250Y-89199974D01*
X107698447Y-89196569D01*
X107681386Y-89192030D01*
X107660385Y-89186442D01*
X107635765Y-89179890D01*
X107607845Y-89172459D01*
X107576945Y-89164234D01*
X107543383Y-89155301D01*
X107507481Y-89145743D01*
X107469557Y-89135647D01*
X107429930Y-89125098D01*
X107413072Y-89120610D01*
X107389437Y-89114317D01*
X107062146Y-89027176D01*
X107062154Y-88754523D01*
X107062159Y-88594423D01*
X107175470Y-88594423D01*
X107175485Y-88755459D01*
X107175501Y-88916495D01*
X107255797Y-88937772D01*
X107278111Y-88943686D01*
X107300824Y-88949706D01*
X107322833Y-88955542D01*
X107343034Y-88960899D01*
X107360323Y-88965486D01*
X107373599Y-88969010D01*
X107374582Y-88969271D01*
X107413072Y-88979493D01*
X107412376Y-88818444D01*
X107411680Y-88657394D01*
X107327994Y-88635086D01*
X107305607Y-88629118D01*
X107283140Y-88623128D01*
X107261596Y-88617385D01*
X107241980Y-88612156D01*
X107225298Y-88607708D01*
X107212554Y-88604311D01*
X107209889Y-88603600D01*
X107175470Y-88594423D01*
X107062159Y-88594423D01*
X107062163Y-88481869D01*
X107091458Y-88463701D01*
X107102897Y-88456680D01*
X107112920Y-88450662D01*
X107120508Y-88446250D01*
X107124640Y-88444048D01*
X107124814Y-88443976D01*
X107128080Y-88444388D01*
G37*
G36*
X107169514Y-89663642D02*
G01*
X107172218Y-89670922D01*
X107175940Y-89682062D01*
X107180464Y-89696393D01*
X107185574Y-89713245D01*
X107191055Y-89731948D01*
X107191818Y-89734603D01*
X107208195Y-89791684D01*
X107223181Y-89843931D01*
X107236877Y-89891699D01*
X107249386Y-89935340D01*
X107260807Y-89975211D01*
X107271242Y-90011665D01*
X107280793Y-90045057D01*
X107289561Y-90075741D01*
X107297647Y-90104071D01*
X107305153Y-90130403D01*
X107312179Y-90155090D01*
X107318828Y-90178487D01*
X107325199Y-90200949D01*
X107331396Y-90222829D01*
X107336045Y-90239271D01*
X107344798Y-90270213D01*
X107354614Y-90304865D01*
X107365073Y-90341747D01*
X107375754Y-90379376D01*
X107386237Y-90416272D01*
X107396101Y-90450954D01*
X107404926Y-90481941D01*
X107405009Y-90482230D01*
X107412638Y-90509019D01*
X107420309Y-90536003D01*
X107427791Y-90562364D01*
X107434851Y-90587285D01*
X107441259Y-90609948D01*
X107446783Y-90629535D01*
X107451191Y-90645229D01*
X107453166Y-90652301D01*
X107457612Y-90668264D01*
X107463151Y-90688136D01*
X107469421Y-90710627D01*
X107476064Y-90734446D01*
X107482720Y-90758303D01*
X107488454Y-90778849D01*
X107493952Y-90798759D01*
X107498940Y-90817230D01*
X107503235Y-90833553D01*
X107506656Y-90847022D01*
X107509020Y-90856929D01*
X107510145Y-90862567D01*
X107510213Y-90863332D01*
X107508355Y-90869713D01*
X107503855Y-90876213D01*
X107503587Y-90876486D01*
X107495625Y-90881676D01*
X107486796Y-90883314D01*
X107478816Y-90881366D01*
X107474090Y-90877038D01*
X107472572Y-90873430D01*
X107469544Y-90865154D01*
X107465165Y-90852679D01*
X107459594Y-90836472D01*
X107452989Y-90817001D01*
X107445509Y-90794733D01*
X107437312Y-90770137D01*
X107428558Y-90743679D01*
X107419818Y-90717090D01*
X107413254Y-90697100D01*
X107405120Y-90672390D01*
X107395547Y-90643366D01*
X107384670Y-90610430D01*
X107372622Y-90573987D01*
X107359538Y-90534441D01*
X107345552Y-90492195D01*
X107330796Y-90447653D01*
X107315404Y-90401218D01*
X107299512Y-90353296D01*
X107283251Y-90304289D01*
X107266756Y-90254602D01*
X107250161Y-90204637D01*
X107233600Y-90154800D01*
X107225193Y-90129512D01*
X107209643Y-90082723D01*
X107194561Y-90037293D01*
X107180034Y-89993488D01*
X107166150Y-89951575D01*
X107152997Y-89911821D01*
X107140662Y-89874493D01*
X107129234Y-89839858D01*
X107118800Y-89808183D01*
X107109449Y-89779734D01*
X107101269Y-89754778D01*
X107094346Y-89733583D01*
X107088769Y-89716415D01*
X107084627Y-89703540D01*
X107082006Y-89695227D01*
X107080995Y-89691741D01*
X107080986Y-89691666D01*
X107082800Y-89689371D01*
X107088494Y-89686280D01*
X107098447Y-89682232D01*
X107113038Y-89677065D01*
X107123064Y-89673725D01*
X107137357Y-89669150D01*
X107149931Y-89665336D01*
X107159862Y-89662546D01*
X107166227Y-89661045D01*
X107168044Y-89660894D01*
X107169514Y-89663642D01*
G37*
G36*
X107016911Y-90369881D02*
G01*
X107020589Y-90376798D01*
X107026355Y-90387961D01*
X107034060Y-90403073D01*
X107043553Y-90421836D01*
X107054687Y-90443950D01*
X107067310Y-90469118D01*
X107081274Y-90497043D01*
X107096428Y-90527425D01*
X107112624Y-90559968D01*
X107129711Y-90594372D01*
X107147541Y-90630340D01*
X107159209Y-90653917D01*
X107181417Y-90698784D01*
X107201374Y-90739035D01*
X107219202Y-90774904D01*
X107235019Y-90806625D01*
X107248947Y-90834435D01*
X107261106Y-90858566D01*
X107271616Y-90879254D01*
X107280597Y-90896734D01*
X107288169Y-90911239D01*
X107294454Y-90923004D01*
X107299570Y-90932264D01*
X107303638Y-90939254D01*
X107306779Y-90944208D01*
X107309113Y-90947360D01*
X107310256Y-90948556D01*
X107317685Y-90954040D01*
X107327780Y-90960195D01*
X107337315Y-90965171D01*
X107346406Y-90969218D01*
X107354070Y-90971706D01*
X107362213Y-90973005D01*
X107372744Y-90973482D01*
X107380635Y-90973527D01*
X107393365Y-90973341D01*
X107402642Y-90972549D01*
X107410407Y-90970765D01*
X107418601Y-90967603D01*
X107424834Y-90964741D01*
X107436272Y-90958848D01*
X107447839Y-90952109D01*
X107456304Y-90946492D01*
X107471843Y-90937804D01*
X107490159Y-90931655D01*
X107512908Y-90923882D01*
X107531493Y-90913061D01*
X107546298Y-90898793D01*
X107557705Y-90880675D01*
X107566099Y-90858307D01*
X107568262Y-90849969D01*
X107571377Y-90833717D01*
X107571979Y-90820913D01*
X107569992Y-90810187D01*
X107565539Y-90800507D01*
X107562038Y-90793708D01*
X107560534Y-90789035D01*
X107560815Y-90787892D01*
X107564545Y-90787656D01*
X107572602Y-90788162D01*
X107583984Y-90789285D01*
X107597689Y-90790901D01*
X107612714Y-90792886D01*
X107628058Y-90795114D01*
X107642718Y-90797461D01*
X107653979Y-90799473D01*
X107685811Y-90806555D01*
X107714645Y-90815350D01*
X107741904Y-90826465D01*
X107769011Y-90840508D01*
X107797390Y-90858086D01*
X107807857Y-90865167D01*
X107837490Y-90884960D01*
X107864051Y-90901243D01*
X107888281Y-90914326D01*
X107910923Y-90924519D01*
X107932720Y-90932133D01*
X107954413Y-90937477D01*
X107976746Y-90940862D01*
X107992082Y-90942167D01*
X108019077Y-90943852D01*
X108019770Y-91132176D01*
X108020464Y-91320501D01*
X107571646Y-91319795D01*
X107122829Y-91319088D01*
X107107626Y-91311960D01*
X107096095Y-91305091D01*
X107082820Y-91294859D01*
X107069027Y-91282409D01*
X107055943Y-91268887D01*
X107044796Y-91255438D01*
X107040398Y-91249200D01*
X107034048Y-91238144D01*
X107027604Y-91224703D01*
X107022413Y-91211696D01*
X107022210Y-91211107D01*
X107014847Y-91189510D01*
X107014122Y-90778505D01*
X107014053Y-90731851D01*
X107014012Y-90686690D01*
X107013999Y-90643315D01*
X107014013Y-90602018D01*
X107014052Y-90563093D01*
X107014115Y-90526832D01*
X107014202Y-90493529D01*
X107014312Y-90463476D01*
X107014443Y-90436965D01*
X107014595Y-90414291D01*
X107014767Y-90395746D01*
X107014958Y-90381622D01*
X107015167Y-90372213D01*
X107015392Y-90367812D01*
X107015472Y-90367508D01*
X107016911Y-90369881D01*
G37*
G36*
X107223927Y-85933457D02*
G01*
X107228097Y-85934651D01*
X107236244Y-85936879D01*
X107247412Y-85939889D01*
X107260646Y-85943429D01*
X107274990Y-85947243D01*
X107289488Y-85951081D01*
X107303184Y-85954687D01*
X107315123Y-85957809D01*
X107324348Y-85960194D01*
X107329904Y-85961589D01*
X107331085Y-85961845D01*
X107331260Y-85964466D01*
X107331425Y-85972010D01*
X107331576Y-85984003D01*
X107331711Y-85999969D01*
X107331827Y-86019433D01*
X107331921Y-86041920D01*
X107331991Y-86066955D01*
X107332032Y-86094063D01*
X107332043Y-86117976D01*
X107332043Y-86274107D01*
X107446099Y-86304612D01*
X107471217Y-86311330D01*
X107495733Y-86317889D01*
X107518937Y-86324097D01*
X107540114Y-86329764D01*
X107558551Y-86334699D01*
X107573537Y-86338711D01*
X107584358Y-86341610D01*
X107587825Y-86342540D01*
X107615495Y-86349963D01*
X107615495Y-86194107D01*
X107615495Y-86038252D01*
X107667962Y-86052334D01*
X107684206Y-86056717D01*
X107698833Y-86060708D01*
X107710977Y-86064068D01*
X107719775Y-86066556D01*
X107724362Y-86067934D01*
X107724653Y-86068037D01*
X107725412Y-86068738D01*
X107726075Y-86070447D01*
X107726649Y-86073498D01*
X107727141Y-86078231D01*
X107727555Y-86084981D01*
X107727899Y-86094085D01*
X107728179Y-86105881D01*
X107728402Y-86120705D01*
X107728573Y-86138895D01*
X107728698Y-86160787D01*
X107728785Y-86186718D01*
X107728840Y-86217026D01*
X107728868Y-86252046D01*
X107728876Y-86292117D01*
X107728876Y-86293645D01*
X107728852Y-86327934D01*
X107728783Y-86360653D01*
X107728673Y-86391401D01*
X107728524Y-86419778D01*
X107728340Y-86445385D01*
X107728126Y-86467823D01*
X107727885Y-86486691D01*
X107727619Y-86501589D01*
X107727334Y-86512119D01*
X107727032Y-86517880D01*
X107726852Y-86518879D01*
X107724012Y-86518373D01*
X107716317Y-86516558D01*
X107704129Y-86513526D01*
X107687805Y-86509373D01*
X107667705Y-86504190D01*
X107644189Y-86498072D01*
X107617616Y-86491113D01*
X107588346Y-86483406D01*
X107556738Y-86475045D01*
X107523152Y-86466124D01*
X107487947Y-86456735D01*
X107473769Y-86452944D01*
X107438022Y-86443383D01*
X107403753Y-86434228D01*
X107371322Y-86425574D01*
X107341089Y-86417515D01*
X107313412Y-86410149D01*
X107288653Y-86403570D01*
X107267171Y-86397873D01*
X107249324Y-86393155D01*
X107235473Y-86389511D01*
X107225977Y-86387037D01*
X107221196Y-86385827D01*
X107220687Y-86385719D01*
X107220380Y-86383078D01*
X107220086Y-86375432D01*
X107219811Y-86363176D01*
X107219556Y-86346704D01*
X107219326Y-86326410D01*
X107219125Y-86302688D01*
X107218955Y-86275932D01*
X107218821Y-86246538D01*
X107218726Y-86214899D01*
X107218673Y-86181409D01*
X107218663Y-86158730D01*
X107218665Y-86118500D01*
X107218677Y-86083332D01*
X107218706Y-86052889D01*
X107218761Y-86026832D01*
X107218849Y-86004826D01*
X107218979Y-85986532D01*
X107219157Y-85971613D01*
X107219393Y-85959732D01*
X107219693Y-85950551D01*
X107220066Y-85943734D01*
X107220520Y-85938943D01*
X107221062Y-85935840D01*
X107221701Y-85934089D01*
X107222444Y-85933352D01*
X107223299Y-85933291D01*
X107223927Y-85933457D01*
G37*
G36*
X108150005Y-90775070D02*
G01*
X108150005Y-91946732D01*
X108125709Y-91946732D01*
X108101413Y-91946732D01*
X108101413Y-91976427D01*
X108101413Y-92006122D01*
X108094664Y-92006122D01*
X108087915Y-92006122D01*
X108087915Y-90841269D01*
X108087909Y-90732298D01*
X108087890Y-90628654D01*
X108087859Y-90530342D01*
X108087815Y-90437365D01*
X108087759Y-90349726D01*
X108087691Y-90267430D01*
X108087609Y-90190480D01*
X108087516Y-90118879D01*
X108087410Y-90052631D01*
X108087291Y-89991740D01*
X108087160Y-89936209D01*
X108087017Y-89886042D01*
X108086861Y-89841243D01*
X108086693Y-89801814D01*
X108086513Y-89767760D01*
X108086320Y-89739084D01*
X108086114Y-89715790D01*
X108085897Y-89697881D01*
X108085667Y-89685362D01*
X108085424Y-89678234D01*
X108085216Y-89676417D01*
X108084963Y-89679115D01*
X108084723Y-89687210D01*
X108084495Y-89700696D01*
X108084280Y-89719571D01*
X108084077Y-89743830D01*
X108083886Y-89773471D01*
X108083708Y-89808489D01*
X108083542Y-89848881D01*
X108083388Y-89894643D01*
X108083247Y-89945772D01*
X108083118Y-90002264D01*
X108083002Y-90064116D01*
X108082898Y-90131324D01*
X108082807Y-90203884D01*
X108082728Y-90281793D01*
X108082662Y-90365048D01*
X108082608Y-90453644D01*
X108082566Y-90547578D01*
X108082537Y-90646846D01*
X108082521Y-90751445D01*
X108082516Y-90841269D01*
X108082516Y-92006122D01*
X108017727Y-92006122D01*
X107952938Y-92006122D01*
X107952938Y-91767213D01*
X107952930Y-91725468D01*
X107952903Y-91688802D01*
X107952850Y-91656894D01*
X107952767Y-91629424D01*
X107952647Y-91606072D01*
X107952487Y-91586517D01*
X107952279Y-91570439D01*
X107952019Y-91557517D01*
X107951702Y-91547431D01*
X107951322Y-91539860D01*
X107950873Y-91534485D01*
X107950350Y-91530984D01*
X107949747Y-91529038D01*
X107949060Y-91528326D01*
X107948889Y-91528303D01*
X107948181Y-91528776D01*
X107947560Y-91530410D01*
X107947019Y-91533524D01*
X107946554Y-91538439D01*
X107946158Y-91545476D01*
X107945826Y-91554954D01*
X107945554Y-91567195D01*
X107945335Y-91582518D01*
X107945164Y-91601244D01*
X107945036Y-91623694D01*
X107944944Y-91650187D01*
X107944885Y-91681044D01*
X107944852Y-91716586D01*
X107944840Y-91757133D01*
X107944840Y-91767213D01*
X107944840Y-92006122D01*
X107924593Y-92006122D01*
X107904347Y-92006122D01*
X107904347Y-91767213D01*
X107904339Y-91725468D01*
X107904311Y-91688802D01*
X107904258Y-91656894D01*
X107904175Y-91629424D01*
X107904056Y-91606072D01*
X107903895Y-91586517D01*
X107903687Y-91570439D01*
X107903428Y-91557517D01*
X107903110Y-91547431D01*
X107902730Y-91539860D01*
X107902281Y-91534485D01*
X107901758Y-91530984D01*
X107901155Y-91529038D01*
X107900468Y-91528326D01*
X107900297Y-91528303D01*
X107899590Y-91528776D01*
X107898968Y-91530410D01*
X107898427Y-91533524D01*
X107897962Y-91538439D01*
X107897566Y-91545476D01*
X107897235Y-91554954D01*
X107896962Y-91567195D01*
X107896743Y-91582518D01*
X107896572Y-91601244D01*
X107896444Y-91623694D01*
X107896353Y-91650187D01*
X107896293Y-91681044D01*
X107896260Y-91716586D01*
X107896248Y-91757133D01*
X107896248Y-91767213D01*
X107896248Y-92006122D01*
X107830109Y-92006122D01*
X107763970Y-92006122D01*
X107763970Y-91911684D01*
X107763970Y-91817245D01*
X107694457Y-91816525D01*
X107624944Y-91815804D01*
X107624246Y-91669354D01*
X107623548Y-91522904D01*
X107836831Y-91522904D01*
X108050114Y-91522904D01*
X108050793Y-90563891D01*
X108051472Y-89604879D01*
X108100738Y-89604143D01*
X108150005Y-89603407D01*
X108150005Y-90775070D01*
G37*
G36*
X107278268Y-86515382D02*
G01*
X107281611Y-86516092D01*
X107289612Y-86518068D01*
X107301716Y-86521165D01*
X107317369Y-86525240D01*
X107336016Y-86530147D01*
X107357104Y-86535741D01*
X107380078Y-86541877D01*
X107395030Y-86545892D01*
X107507958Y-86576272D01*
X107530007Y-86611226D01*
X107552056Y-86646180D01*
X107553406Y-86789086D01*
X107554756Y-86931992D01*
X107579052Y-86938105D01*
X107590522Y-86940992D01*
X107600579Y-86943523D01*
X107607656Y-86945305D01*
X107609421Y-86945750D01*
X107615495Y-86947281D01*
X107615495Y-86765011D01*
X107615514Y-86727812D01*
X107615575Y-86695694D01*
X107615684Y-86668340D01*
X107615847Y-86645431D01*
X107616069Y-86626649D01*
X107616357Y-86611677D01*
X107616716Y-86600197D01*
X107617153Y-86591890D01*
X107617672Y-86586440D01*
X107618281Y-86583527D01*
X107618870Y-86582810D01*
X107622408Y-86583506D01*
X107630311Y-86585407D01*
X107641737Y-86588300D01*
X107655842Y-86591969D01*
X107671783Y-86596201D01*
X107674885Y-86597034D01*
X107727527Y-86611188D01*
X107728215Y-86864219D01*
X107728303Y-86905946D01*
X107728332Y-86944670D01*
X107728304Y-86980140D01*
X107728221Y-87012107D01*
X107728085Y-87040320D01*
X107727897Y-87064529D01*
X107727660Y-87084486D01*
X107727374Y-87099939D01*
X107727043Y-87110639D01*
X107726667Y-87116336D01*
X107726427Y-87117250D01*
X107723625Y-87116572D01*
X107716043Y-87114616D01*
X107704118Y-87111498D01*
X107688286Y-87107334D01*
X107668983Y-87102241D01*
X107646645Y-87096333D01*
X107621710Y-87089729D01*
X107594613Y-87082542D01*
X107565791Y-87074891D01*
X107535679Y-87066891D01*
X107504715Y-87058657D01*
X107473334Y-87050307D01*
X107441974Y-87041956D01*
X107436651Y-87040537D01*
X107411069Y-87033720D01*
X107381057Y-87025716D01*
X107352374Y-87018059D01*
X107325456Y-87010867D01*
X107300739Y-87004254D01*
X107278660Y-86998337D01*
X107259655Y-86993233D01*
X107244161Y-86989057D01*
X107232613Y-86985925D01*
X107225449Y-86983954D01*
X107223387Y-86983361D01*
X107222527Y-86982860D01*
X107221778Y-86981688D01*
X107221132Y-86979496D01*
X107220582Y-86975934D01*
X107220120Y-86970654D01*
X107219738Y-86963306D01*
X107219429Y-86953542D01*
X107219185Y-86941011D01*
X107218998Y-86925364D01*
X107218862Y-86906253D01*
X107218768Y-86883329D01*
X107218709Y-86856241D01*
X107218677Y-86824642D01*
X107218664Y-86788180D01*
X107218663Y-86767555D01*
X107332043Y-86767555D01*
X107332043Y-86871383D01*
X107342167Y-86874077D01*
X107348326Y-86875723D01*
X107358493Y-86878449D01*
X107371461Y-86881930D01*
X107386025Y-86885843D01*
X107392783Y-86887660D01*
X107406969Y-86891420D01*
X107419433Y-86894621D01*
X107429191Y-86897017D01*
X107435257Y-86898364D01*
X107436651Y-86898568D01*
X107437546Y-86897468D01*
X107438279Y-86893881D01*
X107438864Y-86887397D01*
X107439313Y-86877604D01*
X107439641Y-86864090D01*
X107439860Y-86846444D01*
X107439983Y-86824255D01*
X107440025Y-86797111D01*
X107440025Y-86794758D01*
X107440025Y-86690930D01*
X107429902Y-86688236D01*
X107423743Y-86686590D01*
X107413576Y-86683865D01*
X107400608Y-86680383D01*
X107386043Y-86676470D01*
X107379285Y-86674653D01*
X107365100Y-86670893D01*
X107352636Y-86667693D01*
X107342878Y-86665297D01*
X107336812Y-86663950D01*
X107335418Y-86663745D01*
X107334522Y-86664846D01*
X107333789Y-86668432D01*
X107333205Y-86674916D01*
X107332755Y-86684710D01*
X107332428Y-86698223D01*
X107332209Y-86715869D01*
X107332085Y-86738058D01*
X107332044Y-86765202D01*
X107332043Y-86767555D01*
X107218663Y-86767555D01*
X107218663Y-86766357D01*
X107218663Y-86550805D01*
X107246548Y-86533029D01*
X107257617Y-86526173D01*
X107267268Y-86520568D01*
X107274480Y-86516781D01*
X107278230Y-86515381D01*
X107278268Y-86515382D01*
G37*
G36*
X107223823Y-85443001D02*
G01*
X107231297Y-85444540D01*
X107242245Y-85447113D01*
X107255802Y-85450520D01*
X107269954Y-85454246D01*
X107285653Y-85458457D01*
X107299999Y-85462290D01*
X107311993Y-85465479D01*
X107320634Y-85467758D01*
X107324620Y-85468787D01*
X107332043Y-85470631D01*
X107332043Y-85540768D01*
X107332100Y-85559590D01*
X107332260Y-85576504D01*
X107332507Y-85590799D01*
X107332826Y-85601768D01*
X107333201Y-85608701D01*
X107333583Y-85610905D01*
X107336412Y-85611584D01*
X107343964Y-85613533D01*
X107355749Y-85616623D01*
X107371276Y-85620725D01*
X107390056Y-85625707D01*
X107411596Y-85631439D01*
X107435407Y-85637793D01*
X107460999Y-85644638D01*
X107471119Y-85647349D01*
X107497310Y-85654353D01*
X107521948Y-85660915D01*
X107544539Y-85666904D01*
X107564586Y-85672190D01*
X107581590Y-85676643D01*
X107595057Y-85680131D01*
X107604489Y-85682526D01*
X107609389Y-85683696D01*
X107609956Y-85683792D01*
X107610958Y-85681244D01*
X107611741Y-85673557D01*
X107612306Y-85660669D01*
X107612656Y-85642520D01*
X107612793Y-85619047D01*
X107612796Y-85614954D01*
X107612872Y-85596316D01*
X107613085Y-85579595D01*
X107613416Y-85565505D01*
X107613842Y-85554763D01*
X107614342Y-85548084D01*
X107614821Y-85546135D01*
X107617923Y-85546832D01*
X107625418Y-85548765D01*
X107636501Y-85551719D01*
X107650366Y-85555479D01*
X107666204Y-85559830D01*
X107670372Y-85560983D01*
X107686510Y-85565439D01*
X107700809Y-85569359D01*
X107712479Y-85572529D01*
X107720730Y-85574735D01*
X107724774Y-85575763D01*
X107725038Y-85575811D01*
X107725362Y-85578408D01*
X107725631Y-85585790D01*
X107725847Y-85597345D01*
X107726011Y-85612458D01*
X107726126Y-85630516D01*
X107726193Y-85650907D01*
X107726215Y-85673015D01*
X107726193Y-85696229D01*
X107726129Y-85719934D01*
X107726025Y-85743518D01*
X107725883Y-85766366D01*
X107725706Y-85787866D01*
X107725495Y-85807404D01*
X107725251Y-85824366D01*
X107724978Y-85838140D01*
X107724677Y-85848112D01*
X107724349Y-85853668D01*
X107724152Y-85854624D01*
X107721277Y-85854118D01*
X107713606Y-85852310D01*
X107701554Y-85849309D01*
X107685537Y-85845224D01*
X107665970Y-85840161D01*
X107643270Y-85834230D01*
X107617851Y-85827537D01*
X107590129Y-85820192D01*
X107560519Y-85812302D01*
X107533159Y-85804974D01*
X107502098Y-85796636D01*
X107472463Y-85788685D01*
X107444683Y-85781233D01*
X107419186Y-85774396D01*
X107396398Y-85768289D01*
X107376748Y-85763025D01*
X107360663Y-85758720D01*
X107348571Y-85755488D01*
X107340899Y-85753444D01*
X107338166Y-85752724D01*
X107332141Y-85751203D01*
X107331418Y-85814168D01*
X107330694Y-85877133D01*
X107279402Y-85863375D01*
X107263303Y-85859028D01*
X107248787Y-85855057D01*
X107236743Y-85851707D01*
X107228056Y-85849226D01*
X107223613Y-85847860D01*
X107223437Y-85847795D01*
X107221935Y-85846776D01*
X107220773Y-85844600D01*
X107219898Y-85840613D01*
X107219254Y-85834161D01*
X107218787Y-85824589D01*
X107218441Y-85811243D01*
X107218164Y-85793468D01*
X107218038Y-85783105D01*
X107217313Y-85720236D01*
X107140376Y-85699686D01*
X107063439Y-85679136D01*
X107062719Y-85608380D01*
X107062520Y-85587013D01*
X107062436Y-85570453D01*
X107062499Y-85558109D01*
X107062746Y-85549388D01*
X107063210Y-85543701D01*
X107063926Y-85540455D01*
X107064928Y-85539059D01*
X107066252Y-85538922D01*
X107066768Y-85539053D01*
X107072119Y-85540564D01*
X107081449Y-85543106D01*
X107093951Y-85546464D01*
X107108819Y-85550427D01*
X107125246Y-85554782D01*
X107142423Y-85559317D01*
X107159545Y-85563819D01*
X107175805Y-85568076D01*
X107190394Y-85571875D01*
X107202506Y-85575004D01*
X107211334Y-85577251D01*
X107216072Y-85578402D01*
X107216638Y-85578509D01*
X107217192Y-85575930D01*
X107217688Y-85568677D01*
X107218105Y-85557471D01*
X107218420Y-85543038D01*
X107218612Y-85526100D01*
X107218663Y-85511181D01*
X107218740Y-85492679D01*
X107218959Y-85476028D01*
X107219298Y-85461970D01*
X107219733Y-85451244D01*
X107220244Y-85444591D01*
X107220687Y-85442700D01*
X107223823Y-85443001D01*
G37*
G36*
X107213264Y-84064555D02*
G01*
X107234631Y-84095021D01*
X107255178Y-84124302D01*
X107274685Y-84152087D01*
X107292933Y-84178064D01*
X107309703Y-84201920D01*
X107324776Y-84223346D01*
X107337932Y-84242029D01*
X107348952Y-84257658D01*
X107357617Y-84269921D01*
X107363708Y-84278507D01*
X107367005Y-84283103D01*
X107367487Y-84283747D01*
X107368385Y-84284682D01*
X107369564Y-84285212D01*
X107371314Y-84285142D01*
X107373928Y-84284279D01*
X107377697Y-84282427D01*
X107382912Y-84279392D01*
X107389864Y-84274980D01*
X107398846Y-84268995D01*
X107410148Y-84261244D01*
X107424062Y-84251532D01*
X107440879Y-84239665D01*
X107460891Y-84225447D01*
X107484389Y-84208685D01*
X107511665Y-84189184D01*
X107543010Y-84166749D01*
X107546147Y-84164503D01*
X107573491Y-84144944D01*
X107599622Y-84126286D01*
X107624200Y-84108770D01*
X107646884Y-84092638D01*
X107667336Y-84078129D01*
X107685213Y-84065485D01*
X107700177Y-84054946D01*
X107711887Y-84046754D01*
X107720003Y-84041149D01*
X107724185Y-84038373D01*
X107724643Y-84038118D01*
X107725845Y-84038107D01*
X107726799Y-84039458D01*
X107727531Y-84042710D01*
X107728071Y-84048401D01*
X107728447Y-84057068D01*
X107728687Y-84069250D01*
X107728819Y-84085486D01*
X107728871Y-84106312D01*
X107728876Y-84118648D01*
X107728868Y-84141847D01*
X107728817Y-84160250D01*
X107728680Y-84174459D01*
X107728416Y-84185078D01*
X107727983Y-84192708D01*
X107727339Y-84197953D01*
X107726443Y-84201415D01*
X107725252Y-84203698D01*
X107723725Y-84205403D01*
X107722802Y-84206245D01*
X107719493Y-84208822D01*
X107712218Y-84214223D01*
X107701406Y-84222138D01*
X107687487Y-84232257D01*
X107670890Y-84244267D01*
X107652044Y-84257859D01*
X107631379Y-84272720D01*
X107609323Y-84288541D01*
X107598595Y-84296222D01*
X107576314Y-84312215D01*
X107555461Y-84327278D01*
X107536432Y-84341119D01*
X107519621Y-84353445D01*
X107505424Y-84363965D01*
X107494235Y-84372388D01*
X107486450Y-84378421D01*
X107482464Y-84381772D01*
X107482025Y-84382359D01*
X107484872Y-84383363D01*
X107492417Y-84385611D01*
X107504141Y-84388958D01*
X107519523Y-84393260D01*
X107538045Y-84398374D01*
X107559187Y-84404154D01*
X107582428Y-84410457D01*
X107605557Y-84416683D01*
X107727527Y-84449403D01*
X107728247Y-84518403D01*
X107728364Y-84537144D01*
X107728320Y-84554044D01*
X107728130Y-84568371D01*
X107727806Y-84579393D01*
X107727364Y-84586380D01*
X107726897Y-84588605D01*
X107724079Y-84588070D01*
X107716364Y-84586212D01*
X107704065Y-84583115D01*
X107687499Y-84578862D01*
X107666979Y-84573536D01*
X107642822Y-84567219D01*
X107615341Y-84559994D01*
X107584853Y-84551944D01*
X107551672Y-84543152D01*
X107516113Y-84533700D01*
X107478491Y-84523672D01*
X107439122Y-84513151D01*
X107399532Y-84502543D01*
X107358675Y-84491584D01*
X107319204Y-84480997D01*
X107281440Y-84470870D01*
X107245702Y-84461288D01*
X107212312Y-84452336D01*
X107181589Y-84444101D01*
X107153855Y-84436669D01*
X107129428Y-84430125D01*
X107108630Y-84424555D01*
X107091781Y-84420045D01*
X107079202Y-84416681D01*
X107071212Y-84414549D01*
X107068163Y-84413742D01*
X107062089Y-84412205D01*
X107062089Y-84342068D01*
X107062144Y-84323246D01*
X107062299Y-84306332D01*
X107062539Y-84292037D01*
X107062848Y-84281068D01*
X107063212Y-84274135D01*
X107063583Y-84271931D01*
X107066467Y-84272601D01*
X107073826Y-84274479D01*
X107084923Y-84277370D01*
X107099020Y-84281075D01*
X107115379Y-84285399D01*
X107133263Y-84290145D01*
X107151933Y-84295117D01*
X107170651Y-84300118D01*
X107188682Y-84304951D01*
X107205285Y-84309420D01*
X107219725Y-84313329D01*
X107231262Y-84316480D01*
X107239159Y-84318677D01*
X107241019Y-84319211D01*
X107247994Y-84320872D01*
X107251946Y-84321058D01*
X107252294Y-84320341D01*
X107250537Y-84317690D01*
X107246026Y-84310950D01*
X107239023Y-84300507D01*
X107229789Y-84286750D01*
X107218585Y-84270068D01*
X107205671Y-84250849D01*
X107191309Y-84229483D01*
X107175759Y-84206356D01*
X107159283Y-84181859D01*
X107156340Y-84177485D01*
X107062019Y-84037271D01*
X107062729Y-83944074D01*
X107063439Y-83850878D01*
X107213264Y-84064555D01*
G37*
G36*
X107522361Y-90003068D02*
G01*
X107528862Y-90004050D01*
X107539499Y-90005024D01*
X107553011Y-90005899D01*
X107568137Y-90006585D01*
X107575002Y-90006805D01*
X107602966Y-90008169D01*
X107634910Y-90010732D01*
X107669590Y-90014328D01*
X107705762Y-90018793D01*
X107742184Y-90023959D01*
X107777610Y-90029662D01*
X107810798Y-90035736D01*
X107840503Y-90042014D01*
X107842257Y-90042419D01*
X107868681Y-90049333D01*
X107897365Y-90058181D01*
X107926532Y-90068335D01*
X107954404Y-90079166D01*
X107979204Y-90090046D01*
X107985333Y-90093005D01*
X108019077Y-90109693D01*
X108019800Y-90175157D01*
X108019908Y-90193312D01*
X108019828Y-90209533D01*
X108019578Y-90223087D01*
X108019176Y-90233240D01*
X108018640Y-90239259D01*
X108018180Y-90240621D01*
X108014777Y-90239155D01*
X108008791Y-90235432D01*
X108005310Y-90233002D01*
X107971285Y-90210971D01*
X107932809Y-90190735D01*
X107890612Y-90172566D01*
X107845422Y-90156735D01*
X107797969Y-90143513D01*
X107748981Y-90133173D01*
X107727937Y-90129726D01*
X107711703Y-90127401D01*
X107700075Y-90126015D01*
X107692351Y-90125523D01*
X107687828Y-90125882D01*
X107685804Y-90127046D01*
X107685783Y-90127080D01*
X107684718Y-90130782D01*
X107683340Y-90138251D01*
X107681820Y-90148156D01*
X107680329Y-90159167D01*
X107679038Y-90169955D01*
X107678119Y-90179189D01*
X107677744Y-90185540D01*
X107677973Y-90187674D01*
X107680841Y-90188357D01*
X107688038Y-90189734D01*
X107698565Y-90191622D01*
X107711425Y-90193839D01*
X107715379Y-90194506D01*
X107770873Y-90205607D01*
X107821992Y-90219596D01*
X107868991Y-90236586D01*
X107912126Y-90256689D01*
X107951651Y-90280017D01*
X107987821Y-90306682D01*
X108005295Y-90321817D01*
X108020427Y-90335647D01*
X108020427Y-90420412D01*
X108020360Y-90441186D01*
X108020170Y-90460115D01*
X108019873Y-90476555D01*
X108019487Y-90489860D01*
X108019028Y-90499385D01*
X108018512Y-90504486D01*
X108018232Y-90505176D01*
X108015181Y-90503377D01*
X108010148Y-90498862D01*
X108008109Y-90496775D01*
X107999521Y-90488475D01*
X107987627Y-90478066D01*
X107973586Y-90466470D01*
X107958561Y-90454609D01*
X107943712Y-90443406D01*
X107930200Y-90433784D01*
X107922124Y-90428460D01*
X107876026Y-90402692D01*
X107827462Y-90381679D01*
X107776641Y-90365485D01*
X107723771Y-90354174D01*
X107669063Y-90347812D01*
X107659681Y-90347232D01*
X107645169Y-90346781D01*
X107629423Y-90346852D01*
X107613462Y-90347375D01*
X107598307Y-90348282D01*
X107584977Y-90349504D01*
X107574493Y-90350974D01*
X107567875Y-90352622D01*
X107566330Y-90353495D01*
X107565277Y-90357450D01*
X107564908Y-90366077D01*
X107565236Y-90378693D01*
X107565655Y-90386103D01*
X107567598Y-90416091D01*
X107619754Y-90416091D01*
X107656827Y-90416787D01*
X107689697Y-90418949D01*
X107719387Y-90422687D01*
X107746921Y-90428112D01*
X107758530Y-90431037D01*
X107804102Y-90446028D01*
X107848041Y-90465931D01*
X107889493Y-90490332D01*
X107907603Y-90503037D01*
X107920846Y-90513573D01*
X107936431Y-90527130D01*
X107953211Y-90542606D01*
X107970039Y-90558902D01*
X107985767Y-90574917D01*
X107999249Y-90589550D01*
X108005824Y-90597261D01*
X108020427Y-90615109D01*
X108020427Y-90742362D01*
X108020427Y-90869615D01*
X107999262Y-90869615D01*
X107979595Y-90868548D01*
X107960397Y-90865148D01*
X107940948Y-90859113D01*
X107920529Y-90850144D01*
X107918492Y-90849020D01*
X107898418Y-90837941D01*
X107873896Y-90822202D01*
X107856532Y-90810084D01*
X107841761Y-90799832D01*
X107826119Y-90789520D01*
X107811114Y-90780107D01*
X107798254Y-90772553D01*
X107793665Y-90770066D01*
X107763146Y-90755846D01*
X107730124Y-90743818D01*
X107694041Y-90733848D01*
X107654340Y-90725796D01*
X107610461Y-90719527D01*
X107572482Y-90715744D01*
X107559606Y-90714584D01*
X107548803Y-90713444D01*
X107541147Y-90712449D01*
X107537710Y-90711724D01*
X107537646Y-90711679D01*
X107536737Y-90708932D01*
X107534513Y-90701393D01*
X107531090Y-90689475D01*
X107526583Y-90673592D01*
X107521109Y-90654156D01*
X107514785Y-90631581D01*
X107507726Y-90606280D01*
X107500048Y-90578667D01*
X107491868Y-90549156D01*
X107489662Y-90541174D01*
X107597494Y-90541174D01*
X107597510Y-90544055D01*
X107598271Y-90551161D01*
X107599642Y-90561390D01*
X107601297Y-90572420D01*
X107606047Y-90602717D01*
X107645190Y-90603533D01*
X107684524Y-90606173D01*
X107720648Y-90612568D01*
X107754496Y-90623014D01*
X107787001Y-90637803D01*
X107819096Y-90657230D01*
X107822047Y-90659251D01*
X107837810Y-90671518D01*
X107854918Y-90687152D01*
X107872078Y-90704808D01*
X107888000Y-90723139D01*
X107901393Y-90740801D01*
X107904005Y-90744665D01*
X107918492Y-90766678D01*
X107946513Y-90752742D01*
X107957550Y-90747023D01*
X107966539Y-90741928D01*
X107972519Y-90738033D01*
X107974535Y-90735981D01*
X107973271Y-90732486D01*
X107969901Y-90725594D01*
X107965053Y-90716565D01*
X107962949Y-90712826D01*
X107939969Y-90677864D01*
X107912898Y-90646127D01*
X107882149Y-90617866D01*
X107848134Y-90593330D01*
X107811269Y-90572769D01*
X107771965Y-90556435D01*
X107730638Y-90544577D01*
X107687699Y-90537445D01*
X107670629Y-90535999D01*
X107659668Y-90535678D01*
X107646871Y-90535852D01*
X107633443Y-90536435D01*
X107620588Y-90537344D01*
X107609510Y-90538492D01*
X107601414Y-90539794D01*
X107597504Y-90541165D01*
X107597494Y-90541174D01*
X107489662Y-90541174D01*
X107484384Y-90522081D01*
X107471835Y-90476625D01*
X107460625Y-90436026D01*
X107450658Y-90399936D01*
X107441836Y-90368008D01*
X107434063Y-90339894D01*
X107427242Y-90315245D01*
X107421274Y-90293716D01*
X107416065Y-90274957D01*
X107411516Y-90258622D01*
X107407531Y-90244363D01*
X107404012Y-90231832D01*
X107400863Y-90220681D01*
X107397987Y-90210563D01*
X107395286Y-90201130D01*
X107392664Y-90192034D01*
X107390024Y-90182929D01*
X107387268Y-90173466D01*
X107384300Y-90163297D01*
X107384019Y-90162334D01*
X107377358Y-90139088D01*
X107372340Y-90120359D01*
X107368889Y-90105549D01*
X107366929Y-90094058D01*
X107366382Y-90085285D01*
X107367174Y-90078631D01*
X107369228Y-90073497D01*
X107372223Y-90069538D01*
X107381486Y-90063248D01*
X107394434Y-90059488D01*
X107409862Y-90058493D01*
X107422478Y-90059727D01*
X107431321Y-90061156D01*
X107437875Y-90062138D01*
X107440394Y-90062436D01*
X107441755Y-90060039D01*
X107443293Y-90053924D01*
X107444025Y-90049692D01*
X107447576Y-90035545D01*
X107453368Y-90022840D01*
X107460512Y-90013513D01*
X107460758Y-90013287D01*
X107472795Y-90005786D01*
X107488099Y-90001503D01*
X107505461Y-90000637D01*
X107522361Y-90003068D01*
G37*
G36*
X108276257Y-89528701D02*
G01*
X108292093Y-89529809D01*
X108305115Y-89531535D01*
X108306792Y-89531856D01*
X108333918Y-89539520D01*
X108357014Y-89550725D01*
X108376040Y-89565434D01*
X108390956Y-89583611D01*
X108401721Y-89605218D01*
X108406885Y-89622905D01*
X108407863Y-89630410D01*
X108408680Y-89643206D01*
X108409334Y-89661190D01*
X108409821Y-89684256D01*
X108410138Y-89712300D01*
X108410273Y-89740599D01*
X108410511Y-89843925D01*
X108421309Y-89846647D01*
X108459233Y-89858915D01*
X108494619Y-89875929D01*
X108527296Y-89897592D01*
X108556500Y-89923211D01*
X108582211Y-89952430D01*
X108602957Y-89983748D01*
X108618805Y-90017304D01*
X108629819Y-90053234D01*
X108635841Y-90089447D01*
X108636973Y-90101023D01*
X108637782Y-90110822D01*
X108638157Y-90117425D01*
X108638143Y-90119142D01*
X108637631Y-90124522D01*
X108636910Y-90132093D01*
X108636858Y-90132639D01*
X108630637Y-90173978D01*
X108620182Y-90212515D01*
X108605610Y-90248021D01*
X108587038Y-90280268D01*
X108564585Y-90309026D01*
X108538367Y-90334068D01*
X108530008Y-90340654D01*
X108497580Y-90361721D01*
X108461787Y-90378611D01*
X108422756Y-90391264D01*
X108420634Y-90391807D01*
X108409161Y-90394703D01*
X108409161Y-90769180D01*
X108409161Y-91143657D01*
X108431432Y-91149898D01*
X108467754Y-91162793D01*
X108501415Y-91180203D01*
X108532100Y-91201782D01*
X108559492Y-91227179D01*
X108583275Y-91256049D01*
X108603133Y-91288042D01*
X108618751Y-91322810D01*
X108629811Y-91360006D01*
X108632032Y-91370724D01*
X108634714Y-91391894D01*
X108635663Y-91416129D01*
X108634947Y-91441443D01*
X108632632Y-91465852D01*
X108628785Y-91487374D01*
X108628007Y-91490509D01*
X108616177Y-91525616D01*
X108599416Y-91559530D01*
X108578177Y-91591454D01*
X108555140Y-91618314D01*
X108531396Y-91640353D01*
X108506230Y-91658477D01*
X108478732Y-91673176D01*
X108447994Y-91684938D01*
X108414495Y-91693942D01*
X108407681Y-91695472D01*
X108409915Y-91725943D01*
X108410776Y-91741837D01*
X108411301Y-91760674D01*
X108411512Y-91781568D01*
X108411430Y-91803635D01*
X108411076Y-91825990D01*
X108410473Y-91847747D01*
X108409641Y-91868023D01*
X108408601Y-91885931D01*
X108407377Y-91900587D01*
X108405987Y-91911106D01*
X108405354Y-91914104D01*
X108397755Y-91936122D01*
X108386693Y-91954980D01*
X108371495Y-91972037D01*
X108360029Y-91982150D01*
X108355068Y-91985635D01*
X108348692Y-91990113D01*
X108336643Y-91996164D01*
X108323037Y-92000539D01*
X108307033Y-92003476D01*
X108287786Y-92005212D01*
X108264455Y-92005983D01*
X108250455Y-92006082D01*
X108232504Y-92006038D01*
X108219056Y-92005822D01*
X108209218Y-92005354D01*
X108202095Y-92004557D01*
X108196792Y-92003354D01*
X108192414Y-92001666D01*
X108190810Y-92000882D01*
X108178788Y-91992450D01*
X108167881Y-91980716D01*
X108159957Y-91967725D01*
X108159463Y-91966585D01*
X108159135Y-91965356D01*
X108158825Y-91963185D01*
X108158533Y-91959927D01*
X108158258Y-91955436D01*
X108157999Y-91949565D01*
X108157755Y-91942171D01*
X108157528Y-91933107D01*
X108157315Y-91922228D01*
X108157117Y-91909388D01*
X108156932Y-91894443D01*
X108156761Y-91877245D01*
X108156603Y-91857651D01*
X108156457Y-91835514D01*
X108156323Y-91810689D01*
X108156201Y-91783031D01*
X108156090Y-91752393D01*
X108155989Y-91718631D01*
X108155898Y-91681599D01*
X108155816Y-91641152D01*
X108155743Y-91597143D01*
X108155679Y-91549429D01*
X108155623Y-91497862D01*
X108155574Y-91442298D01*
X108155558Y-91419177D01*
X108244489Y-91419177D01*
X108246884Y-91443507D01*
X108253687Y-91465556D01*
X108264327Y-91485073D01*
X108278232Y-91501808D01*
X108294831Y-91515510D01*
X108313551Y-91525931D01*
X108333820Y-91532818D01*
X108355068Y-91535923D01*
X108376722Y-91534994D01*
X108398211Y-91529782D01*
X108418962Y-91520037D01*
X108438405Y-91505507D01*
X108439467Y-91504524D01*
X108455795Y-91486371D01*
X108467155Y-91466832D01*
X108473814Y-91445251D01*
X108476040Y-91420970D01*
X108475953Y-91414922D01*
X108475285Y-91401620D01*
X108473994Y-91391673D01*
X108471645Y-91383042D01*
X108467802Y-91373687D01*
X108466573Y-91371032D01*
X108453897Y-91349772D01*
X108437972Y-91332269D01*
X108419455Y-91318653D01*
X108399001Y-91309055D01*
X108377266Y-91303606D01*
X108370816Y-91303268D01*
X108354907Y-91302435D01*
X108332580Y-91305673D01*
X108310940Y-91313452D01*
X108290645Y-91325900D01*
X108280986Y-91334124D01*
X108264589Y-91352597D01*
X108253229Y-91372495D01*
X108246624Y-91394480D01*
X108244489Y-91419177D01*
X108155558Y-91419177D01*
X108155532Y-91382590D01*
X108155497Y-91318595D01*
X108155467Y-91250166D01*
X108155443Y-91177157D01*
X108155424Y-91099423D01*
X108155410Y-91016819D01*
X108155399Y-90929199D01*
X108155392Y-90836418D01*
X108155389Y-90774828D01*
X108155386Y-90679061D01*
X108155387Y-90588543D01*
X108155391Y-90503127D01*
X108155399Y-90422662D01*
X108155411Y-90347000D01*
X108155429Y-90275993D01*
X108155452Y-90209490D01*
X108155482Y-90147342D01*
X108155505Y-90109987D01*
X108245224Y-90109987D01*
X108245821Y-90134259D01*
X108251049Y-90156698D01*
X108260355Y-90176977D01*
X108273184Y-90194767D01*
X108288985Y-90209741D01*
X108307201Y-90221571D01*
X108327281Y-90229929D01*
X108348671Y-90234487D01*
X108370816Y-90234919D01*
X108393163Y-90230895D01*
X108415158Y-90222089D01*
X108424949Y-90216378D01*
X108444279Y-90201202D01*
X108458919Y-90183590D01*
X108468984Y-90163308D01*
X108474592Y-90140126D01*
X108475888Y-90114846D01*
X108475412Y-90101851D01*
X108474484Y-90092391D01*
X108472686Y-90084600D01*
X108469598Y-90076614D01*
X108465190Y-90067360D01*
X108451938Y-90046124D01*
X108435064Y-90028864D01*
X108414344Y-90015361D01*
X108409811Y-90013135D01*
X108388152Y-90005833D01*
X108364688Y-90002979D01*
X108340791Y-90004656D01*
X108325993Y-90008118D01*
X108303572Y-90017628D01*
X108284100Y-90031350D01*
X108268036Y-90048701D01*
X108255840Y-90069102D01*
X108247975Y-90091971D01*
X108245224Y-90109987D01*
X108155505Y-90109987D01*
X108155518Y-90089402D01*
X108155561Y-90035519D01*
X108155612Y-89985544D01*
X108155671Y-89939330D01*
X108155740Y-89896725D01*
X108155817Y-89857582D01*
X108155904Y-89821752D01*
X108156002Y-89789085D01*
X108156110Y-89759432D01*
X108156230Y-89732645D01*
X108156362Y-89708573D01*
X108156507Y-89687069D01*
X108156664Y-89667983D01*
X108156835Y-89651166D01*
X108157020Y-89636469D01*
X108157220Y-89623743D01*
X108157435Y-89612839D01*
X108157665Y-89603608D01*
X108157912Y-89595901D01*
X108158176Y-89589568D01*
X108158456Y-89584461D01*
X108158755Y-89580431D01*
X108159072Y-89577329D01*
X108159407Y-89575005D01*
X108159655Y-89573757D01*
X108165075Y-89556905D01*
X108172836Y-89544522D01*
X108183338Y-89536035D01*
X108187673Y-89533907D01*
X108195819Y-89531729D01*
X108208173Y-89530049D01*
X108223564Y-89528885D01*
X108240822Y-89528260D01*
X108258777Y-89528192D01*
X108276257Y-89528701D01*
G37*
G36*
X106619180Y-90189374D02*
G01*
X106640110Y-90189581D01*
X106659365Y-90189918D01*
X106676160Y-90190383D01*
X106689708Y-90190978D01*
X106699223Y-90191703D01*
X106702780Y-90192224D01*
X106719628Y-90198514D01*
X106734220Y-90209345D01*
X106745387Y-90223635D01*
X106748295Y-90228778D01*
X106750348Y-90233393D01*
X106751694Y-90238540D01*
X106752483Y-90245278D01*
X106752862Y-90254667D01*
X106752982Y-90267766D01*
X106752991Y-90277741D01*
X106752991Y-90318910D01*
X106774588Y-90318962D01*
X106803035Y-90320292D01*
X106827534Y-90324351D01*
X106848973Y-90331467D01*
X106868238Y-90341969D01*
X106886219Y-90356185D01*
X106893066Y-90362798D01*
X106902333Y-90372841D01*
X106910943Y-90383314D01*
X106917569Y-90392554D01*
X106919646Y-90396047D01*
X106921837Y-90400098D01*
X106923813Y-90403784D01*
X106925585Y-90407391D01*
X106927163Y-90411204D01*
X106928558Y-90415507D01*
X106929782Y-90420587D01*
X106930845Y-90426728D01*
X106931758Y-90434215D01*
X106932533Y-90443333D01*
X106933179Y-90454368D01*
X106933709Y-90467606D01*
X106934133Y-90483330D01*
X106934462Y-90501826D01*
X106934707Y-90523380D01*
X106934879Y-90548276D01*
X106934988Y-90576800D01*
X106935047Y-90609237D01*
X106935065Y-90645872D01*
X106935054Y-90686990D01*
X106935025Y-90732877D01*
X106934989Y-90783817D01*
X106934981Y-90795269D01*
X106934934Y-90849577D01*
X106934864Y-90898700D01*
X106934769Y-90942856D01*
X106934649Y-90982258D01*
X106934499Y-91017122D01*
X106934319Y-91047663D01*
X106934107Y-91074097D01*
X106933859Y-91096639D01*
X106933575Y-91115504D01*
X106933252Y-91130908D01*
X106932888Y-91143065D01*
X106932481Y-91152192D01*
X106932029Y-91158502D01*
X106931529Y-91162213D01*
X106931461Y-91162515D01*
X106924440Y-91182183D01*
X106913385Y-91202083D01*
X106899358Y-91220791D01*
X106883420Y-91236879D01*
X106867506Y-91248421D01*
X106853425Y-91255860D01*
X106839723Y-91261228D01*
X106824969Y-91264877D01*
X106807731Y-91267162D01*
X106786575Y-91268437D01*
X106786423Y-91268442D01*
X106749666Y-91269816D01*
X106752242Y-91280954D01*
X106753204Y-91288233D01*
X106753802Y-91299267D01*
X106753978Y-91312422D01*
X106753780Y-91323173D01*
X106753093Y-91338018D01*
X106752035Y-91348862D01*
X106750377Y-91357102D01*
X106747889Y-91364135D01*
X106746583Y-91366978D01*
X106737203Y-91381340D01*
X106725269Y-91391280D01*
X106714400Y-91395737D01*
X106708173Y-91396645D01*
X106697353Y-91397488D01*
X106682747Y-91398256D01*
X106665163Y-91398934D01*
X106645406Y-91399511D01*
X106624284Y-91399973D01*
X106602603Y-91400308D01*
X106581169Y-91400503D01*
X106578761Y-91400508D01*
X106560790Y-91400546D01*
X106542271Y-91400424D01*
X106526420Y-91400124D01*
X106514044Y-91399634D01*
X106506425Y-91399005D01*
X106485613Y-91394920D01*
X106468824Y-91388299D01*
X106455803Y-91378772D01*
X106446295Y-91365974D01*
X106440042Y-91349535D01*
X106436789Y-91329090D01*
X106436281Y-91304269D01*
X106436496Y-91298537D01*
X106437810Y-91269887D01*
X106410482Y-91268380D01*
X106383210Y-91265162D01*
X106359481Y-91258490D01*
X106338397Y-91247980D01*
X106319060Y-91233248D01*
X106311616Y-91226089D01*
X106302768Y-91216007D01*
X106294180Y-91204471D01*
X106288079Y-91194617D01*
X106285690Y-91190210D01*
X106283536Y-91186243D01*
X106281604Y-91182430D01*
X106279884Y-91178484D01*
X106278362Y-91174118D01*
X106277026Y-91169045D01*
X106275865Y-91162978D01*
X106274867Y-91155631D01*
X106274018Y-91146715D01*
X106273307Y-91135946D01*
X106272723Y-91123034D01*
X106272251Y-91107694D01*
X106271882Y-91089639D01*
X106271602Y-91068582D01*
X106271399Y-91044235D01*
X106271261Y-91016313D01*
X106271247Y-91011163D01*
X106454888Y-91011163D01*
X106455048Y-91029044D01*
X106458448Y-91045552D01*
X106460104Y-91049915D01*
X106468129Y-91063461D01*
X106479360Y-91075706D01*
X106492112Y-91084936D01*
X106496746Y-91087190D01*
X106502434Y-91088400D01*
X106512572Y-91089397D01*
X106526218Y-91090176D01*
X106542427Y-91090735D01*
X106560256Y-91091069D01*
X106578761Y-91091173D01*
X106596998Y-91091045D01*
X106614023Y-91090679D01*
X106628892Y-91090072D01*
X106640662Y-91089219D01*
X106648388Y-91088117D01*
X106649441Y-91087844D01*
X106662216Y-91081682D01*
X106674477Y-91071638D01*
X106684670Y-91059131D01*
X106688707Y-91051984D01*
X106692003Y-91044279D01*
X106693850Y-91037137D01*
X106694536Y-91028657D01*
X106694348Y-91016937D01*
X106694280Y-91015201D01*
X106693473Y-91002564D01*
X106691988Y-90993447D01*
X106689390Y-90985975D01*
X106685984Y-90979524D01*
X106674324Y-90964531D01*
X106659418Y-90953849D01*
X106647402Y-90949023D01*
X106640495Y-90947808D01*
X106629236Y-90946807D01*
X106614668Y-90946027D01*
X106597833Y-90945478D01*
X106579775Y-90945168D01*
X106573472Y-90945146D01*
X106561536Y-90945104D01*
X106544160Y-90945297D01*
X106528689Y-90945753D01*
X106516166Y-90946482D01*
X106507635Y-90947491D01*
X106505890Y-90947883D01*
X106490781Y-90954240D01*
X106476881Y-90964007D01*
X106466032Y-90975813D01*
X106463871Y-90979163D01*
X106457864Y-90993879D01*
X106454888Y-91011163D01*
X106271247Y-91011163D01*
X106271176Y-90984527D01*
X106271132Y-90948592D01*
X106271116Y-90908220D01*
X106271117Y-90863124D01*
X106271122Y-90813017D01*
X106271123Y-90794027D01*
X106271120Y-90742052D01*
X106271119Y-90695191D01*
X106271132Y-90653157D01*
X106271168Y-90615667D01*
X106271240Y-90582434D01*
X106271319Y-90563097D01*
X106455226Y-90563097D01*
X106455895Y-90583306D01*
X106460408Y-90600217D01*
X106469037Y-90614583D01*
X106476909Y-90622846D01*
X106483158Y-90628324D01*
X106488853Y-90632610D01*
X106494751Y-90635850D01*
X106501609Y-90638190D01*
X106510182Y-90639775D01*
X106521228Y-90640754D01*
X106535501Y-90641270D01*
X106553759Y-90641471D01*
X106573472Y-90641503D01*
X106596447Y-90641439D01*
X106614753Y-90641161D01*
X106629121Y-90640540D01*
X106640278Y-90639450D01*
X106648956Y-90637761D01*
X106655883Y-90635346D01*
X106661790Y-90632077D01*
X106667406Y-90627825D01*
X106671432Y-90624305D01*
X106683061Y-90610354D01*
X106690992Y-90593443D01*
X106694938Y-90574800D01*
X106694612Y-90555650D01*
X106691007Y-90540567D01*
X106682733Y-90524155D01*
X106670467Y-90511087D01*
X106659194Y-90503587D01*
X106645010Y-90495728D01*
X106580292Y-90494871D01*
X106557031Y-90494648D01*
X106538425Y-90494728D01*
X106523734Y-90495212D01*
X106512219Y-90496198D01*
X106503138Y-90497788D01*
X106495753Y-90500080D01*
X106489323Y-90503174D01*
X106483108Y-90507170D01*
X106481739Y-90508149D01*
X106469400Y-90519733D01*
X106461046Y-90534009D01*
X106456360Y-90551631D01*
X106455226Y-90563097D01*
X106271319Y-90563097D01*
X106271359Y-90553174D01*
X106271535Y-90527600D01*
X106271781Y-90505428D01*
X106272107Y-90486372D01*
X106272524Y-90470147D01*
X106273045Y-90456467D01*
X106273679Y-90445047D01*
X106274438Y-90435602D01*
X106275333Y-90427846D01*
X106276376Y-90421494D01*
X106277577Y-90416261D01*
X106278949Y-90411860D01*
X106280501Y-90408008D01*
X106282246Y-90404417D01*
X106284194Y-90400804D01*
X106286357Y-90396883D01*
X106286734Y-90396187D01*
X106292346Y-90387319D01*
X106300152Y-90376846D01*
X106308511Y-90366962D01*
X106308917Y-90366520D01*
X106327636Y-90348924D01*
X106347576Y-90335809D01*
X106369636Y-90326768D01*
X106394712Y-90321398D01*
X106412612Y-90319708D01*
X106439844Y-90318160D01*
X106439844Y-90277366D01*
X106439912Y-90261318D01*
X106440196Y-90249616D01*
X106440816Y-90241209D01*
X106441895Y-90235043D01*
X106443552Y-90230068D01*
X106445825Y-90225389D01*
X106454639Y-90212994D01*
X106466298Y-90202272D01*
X106479115Y-90194624D01*
X106485740Y-90192310D01*
X106491780Y-90191499D01*
X106502431Y-90190814D01*
X106516909Y-90190256D01*
X106534426Y-90189824D01*
X106554198Y-90189520D01*
X106575438Y-90189343D01*
X106597361Y-90189294D01*
X106619180Y-90189374D01*
G37*
D14*
%TO.C,A1*%
X111360000Y-46500000D02*
X111360000Y-49170000D01*
X111360000Y-51710000D02*
X111360000Y-89940000D01*
X111360000Y-89940000D02*
X116440000Y-89940000D01*
X114030000Y-49170000D02*
X111360000Y-49170000D01*
X114030000Y-51710000D02*
X111360000Y-51710000D01*
X114030000Y-51710000D02*
X114030000Y-49170000D01*
X114030000Y-51710000D02*
X114030000Y-87270000D01*
X114030000Y-87270000D02*
X111360000Y-87270000D01*
X116440000Y-82060000D02*
X124320000Y-82060000D01*
X116440000Y-92480000D02*
X116440000Y-82060000D01*
X124320000Y-82060000D02*
X124320000Y-92480000D01*
X124320000Y-92480000D02*
X116440000Y-92480000D01*
X126730000Y-49170000D02*
X126730000Y-87270000D01*
X126730000Y-49170000D02*
X129400000Y-49170000D01*
X126730000Y-87270000D02*
X129400000Y-87270000D01*
X129400000Y-46500000D02*
X111360000Y-46500000D01*
X129400000Y-89940000D02*
X124320000Y-89940000D01*
X129400000Y-89940000D02*
X129400000Y-46500000D01*
%TO.C,J3*%
X111612500Y-34630000D02*
X119652500Y-34630000D01*
X111612500Y-37450000D02*
X111612500Y-34630000D01*
X111612500Y-45370000D02*
X111612500Y-38050000D01*
X113732500Y-34630000D02*
X113732500Y-35870000D01*
X113732500Y-39630000D02*
X113732500Y-42207000D01*
X113732500Y-43293000D02*
X113732500Y-45370000D01*
X115032500Y-34630000D02*
X115032500Y-35870000D01*
X115032500Y-39630000D02*
X115032500Y-40938000D01*
X115032500Y-44562000D02*
X115032500Y-45370000D01*
X116032500Y-34630000D02*
X116032500Y-35870000D01*
X116032500Y-39630000D02*
X116032500Y-40938000D01*
X116032500Y-44562000D02*
X116032500Y-45370000D01*
X119652500Y-34630000D02*
X119652500Y-45370000D01*
X119652500Y-45370000D02*
X111612500Y-45370000D01*
X111612500Y-37750000D02*
X111002500Y-38190000D01*
X111002500Y-37310000D01*
X111612500Y-37750000D01*
G36*
X111612500Y-37750000D02*
G01*
X111002500Y-38190000D01*
X111002500Y-37310000D01*
X111612500Y-37750000D01*
G37*
%TO.C,J2*%
X120880000Y-34880000D02*
X128920000Y-34880000D01*
X120880000Y-45620000D02*
X120880000Y-34880000D01*
X124500000Y-35688000D02*
X124500000Y-34880000D01*
X124500000Y-40620000D02*
X124500000Y-39312000D01*
X124500000Y-45620000D02*
X124500000Y-44380000D01*
X125500000Y-35688000D02*
X125500000Y-34880000D01*
X125500000Y-40620000D02*
X125500000Y-39312000D01*
X125500000Y-45620000D02*
X125500000Y-44380000D01*
X126800000Y-36957000D02*
X126800000Y-34880000D01*
X126800000Y-40620000D02*
X126800000Y-38043000D01*
X126800000Y-45620000D02*
X126800000Y-44380000D01*
X128920000Y-34880000D02*
X128920000Y-42200000D01*
X128920000Y-42800000D02*
X128920000Y-45620000D01*
X128920000Y-45620000D02*
X120880000Y-45620000D01*
X129530000Y-42940000D02*
X128920000Y-42500000D01*
X129530000Y-42060000D01*
X129530000Y-42940000D01*
G36*
X129530000Y-42940000D02*
G01*
X128920000Y-42500000D01*
X129530000Y-42060000D01*
X129530000Y-42940000D01*
G37*
%TO.C,J4*%
X107620000Y-61080000D02*
X109000000Y-61080000D01*
X107620000Y-62460000D02*
X107620000Y-61080000D01*
X107620000Y-63730000D02*
X107620000Y-68920000D01*
X107620000Y-63730000D02*
X110380000Y-63730000D01*
X107620000Y-68920000D02*
X110380000Y-68920000D01*
X110380000Y-63730000D02*
X110380000Y-68920000D01*
%TD*%
M02*
