M48
; DRILL file {KiCad 9.0.6} date 2026-01-24T14:46:44+0100
; FORMAT={-:-/ absolute / metric / decimal}
; #@! TF.CreationDate,2026-01-24T14:46:44+01:00
; #@! TF.GenerationSoftware,Kicad,Pcbnew,9.0.6
; #@! TF.FileFunction,Plated,1,2,PTH
FMAT,2
METRIC
; #@! TA.AperFunction,Plated,PTH,ComponentDrill
T1C1.000
; #@! TA.AperFunction,Plated,PTH,ComponentDrill
T2C1.300
%
G90
G05
T1
X109.0Y-62.46
X109.0Y-65.0
X109.0Y-67.54
X112.76Y-50.44
X112.76Y-52.98
X112.76Y-55.52
X112.76Y-58.06
X112.76Y-60.6
X112.76Y-63.14
X112.76Y-65.68
X112.76Y-68.22
X112.76Y-70.76
X112.76Y-73.3
X112.76Y-75.84
X112.76Y-78.38
X112.76Y-80.92
X112.76Y-83.46
X112.76Y-86.0
X128.0Y-50.44
X128.0Y-52.98
X128.0Y-55.52
X128.0Y-58.06
X128.0Y-60.6
X128.0Y-63.14
X128.0Y-65.68
X128.0Y-68.22
X128.0Y-70.76
X128.0Y-73.3
X128.0Y-75.84
X128.0Y-78.38
X128.0Y-80.92
X128.0Y-83.46
X128.0Y-86.0
T2
X115.532Y-37.75
X115.532Y-42.75
X125.0Y-37.5
X125.0Y-42.5
M30
