%TF.GenerationSoftware,KiCad,Pcbnew,9.0.6*%
%TF.CreationDate,2026-01-21T08:09:24+01:00*%
%TF.ProjectId,Boost converter,426f6f73-7420-4636-9f6e-766572746572,rev?*%
%TF.SameCoordinates,Original*%
%TF.FileFunction,Copper,L3,Inr*%
%TF.FilePolarity,Positive*%
%FSLAX46Y46*%
G04 Gerber Fmt 4.6, Leading zero omitted, Abs format (unit mm)*
G04 Created by KiCad (PCBNEW 9.0.6) date 2026-01-21 08:09:24*
%MOMM*%
%LPD*%
G01*
G04 APERTURE LIST*
G04 Aperture macros list*
%AMRoundRect*
0 Rectangle with rounded corners*
0 $1 Rounding radius*
0 $2 $3 $4 $5 $6 $7 $8 $9 X,Y pos of 4 corners*
0 Add a 4 corners polygon primitive as box body*
4,1,4,$2,$3,$4,$5,$6,$7,$8,$9,$2,$3,0*
0 Add four circle primitives for the rounded corners*
1,1,$1+$1,$2,$3*
1,1,$1+$1,$4,$5*
1,1,$1+$1,$6,$7*
1,1,$1+$1,$8,$9*
0 Add four rect primitives between the rounded corners*
20,1,$1+$1,$2,$3,$4,$5,0*
20,1,$1+$1,$4,$5,$6,$7,0*
20,1,$1+$1,$6,$7,$8,$9,0*
20,1,$1+$1,$8,$9,$2,$3,0*%
G04 Aperture macros list end*
%TA.AperFunction,ComponentPad*%
%ADD10RoundRect,0.250000X1.000000X-1.000000X1.000000X1.000000X-1.000000X1.000000X-1.000000X-1.000000X0*%
%TD*%
%TA.AperFunction,ComponentPad*%
%ADD11C,2.500000*%
%TD*%
%TA.AperFunction,ComponentPad*%
%ADD12RoundRect,0.250000X0.750000X-0.750000X0.750000X0.750000X-0.750000X0.750000X-0.750000X-0.750000X0*%
%TD*%
%TA.AperFunction,ComponentPad*%
%ADD13C,2.000000*%
%TD*%
%TA.AperFunction,ComponentPad*%
%ADD14RoundRect,0.250000X-0.750000X0.750000X-0.750000X-0.750000X0.750000X-0.750000X0.750000X0.750000X0*%
%TD*%
%TA.AperFunction,ComponentPad*%
%ADD15RoundRect,0.250000X-1.000000X1.000000X-1.000000X-1.000000X1.000000X-1.000000X1.000000X1.000000X0*%
%TD*%
%TA.AperFunction,ViaPad*%
%ADD16C,0.800000*%
%TD*%
%TA.AperFunction,ViaPad*%
%ADD17C,0.500000*%
%TD*%
G04 APERTURE END LIST*
D10*
%TO.N,+36V*%
%TO.C,J2*%
X207567500Y-134200000D03*
D11*
%TO.N,GND*%
X207567500Y-129200000D03*
%TD*%
D12*
%TO.N,+36V*%
%TO.C,C9*%
X195800000Y-133900000D03*
D13*
%TO.N,GND*%
X195800000Y-128900000D03*
%TD*%
D14*
%TO.N,+36V*%
%TO.C,C10*%
X195800000Y-139600000D03*
D13*
%TO.N,GND*%
X195800000Y-144600000D03*
%TD*%
D15*
%TO.N,GND*%
%TO.C,J1*%
X146432500Y-137500000D03*
D11*
%TO.N,+24V*%
X146432500Y-142500000D03*
%TD*%
D16*
%TO.N,GND*%
X187500000Y-147500000D03*
X152500000Y-120000000D03*
X162500000Y-130000000D03*
X180000000Y-125000000D03*
X157500000Y-125000000D03*
X210000000Y-117500000D03*
X177500000Y-120000000D03*
X167500000Y-152500000D03*
X190000000Y-150000000D03*
X192500000Y-125000000D03*
X165000000Y-122500000D03*
X145000000Y-122500000D03*
X147500000Y-117500000D03*
X210000000Y-122500000D03*
X145000000Y-112500000D03*
X145000000Y-130000000D03*
X192500000Y-147500000D03*
X145000000Y-125000000D03*
X177500000Y-125000000D03*
X170000000Y-125000000D03*
X195000000Y-115000000D03*
X205000000Y-112500000D03*
X207500000Y-120000000D03*
X152500000Y-122500000D03*
X210000000Y-112500000D03*
X200000000Y-125000000D03*
X162500000Y-117500000D03*
X142500000Y-152500000D03*
X192500000Y-120000000D03*
X195000000Y-117500000D03*
X185000000Y-115000000D03*
X145000000Y-150000000D03*
X157500000Y-117500000D03*
X197500000Y-144750000D03*
X200000000Y-115000000D03*
X146500000Y-135250000D03*
X187500000Y-125000000D03*
X150000000Y-150000000D03*
X187500000Y-120000000D03*
X174750000Y-151750000D03*
X167500000Y-120000000D03*
D17*
X159500000Y-144000000D03*
D16*
X165000000Y-120000000D03*
X154500000Y-137500000D03*
X190000000Y-120000000D03*
X152500000Y-117500000D03*
X205000000Y-115000000D03*
X152500000Y-125000000D03*
X160000000Y-120000000D03*
X195000000Y-152500000D03*
X197500000Y-152500000D03*
X147500000Y-130000000D03*
X192500000Y-152500000D03*
X147500000Y-125000000D03*
X154000000Y-146500000D03*
X145000000Y-152500000D03*
X205000000Y-120000000D03*
X162500000Y-125000000D03*
X152500000Y-112500000D03*
X210000000Y-120000000D03*
X147500000Y-122500000D03*
X185000000Y-150000000D03*
X202500000Y-125000000D03*
X202500000Y-117500000D03*
X197500000Y-122500000D03*
X150000000Y-147500000D03*
X185000000Y-147500000D03*
X144250000Y-137500000D03*
X172500000Y-120000000D03*
X172500000Y-122500000D03*
X177500000Y-127500000D03*
X167800000Y-144200000D03*
X167500000Y-130000000D03*
X147500000Y-115000000D03*
X192500000Y-150000000D03*
X210000000Y-125000000D03*
X177500000Y-147250000D03*
X185000000Y-117500000D03*
X142500000Y-112500000D03*
X167500000Y-122500000D03*
X160000000Y-127500000D03*
X175000000Y-117500000D03*
X190000000Y-147500000D03*
X162500000Y-152500000D03*
X195000000Y-125000000D03*
X145000000Y-120000000D03*
X152500000Y-130000000D03*
X162500000Y-127500000D03*
X202500000Y-120000000D03*
X205000000Y-122500000D03*
X145000000Y-115000000D03*
X197500000Y-115000000D03*
X205000000Y-117500000D03*
X150000000Y-112500000D03*
X195000000Y-122500000D03*
X170000000Y-120000000D03*
X172500000Y-130000000D03*
X142500000Y-125000000D03*
X160000000Y-117500000D03*
X147500000Y-112500000D03*
X162500000Y-120000000D03*
X160000000Y-130000000D03*
X187500000Y-117500000D03*
X200000000Y-112500000D03*
X210000000Y-115000000D03*
X202500000Y-115000000D03*
X162500000Y-122500000D03*
X194000000Y-144750000D03*
X177500000Y-117500000D03*
X167500000Y-127500000D03*
X190000000Y-115000000D03*
X159500000Y-146500000D03*
X165800000Y-144200000D03*
X152500000Y-115000000D03*
X190000000Y-152500000D03*
X150000000Y-120000000D03*
X175000000Y-127500000D03*
X195000000Y-120000000D03*
X185000000Y-120000000D03*
X157500000Y-122500000D03*
X147500000Y-147500000D03*
X147500000Y-150000000D03*
X207500000Y-115000000D03*
X165000000Y-152500000D03*
X202500000Y-122500000D03*
X197500000Y-125000000D03*
X170000000Y-122500000D03*
X150000000Y-117500000D03*
X177500000Y-130000000D03*
X142500000Y-150000000D03*
X175000000Y-120000000D03*
X180000000Y-127500000D03*
X202500000Y-112500000D03*
X195000000Y-112500000D03*
X145000000Y-127500000D03*
X180000000Y-120000000D03*
X160000000Y-125000000D03*
X167800000Y-145200000D03*
X147500000Y-127500000D03*
X195000000Y-150000000D03*
X167500000Y-125000000D03*
X197500000Y-120000000D03*
X160000000Y-152500000D03*
X157500000Y-120000000D03*
X165000000Y-125000000D03*
X150000000Y-115000000D03*
X166800000Y-146200000D03*
X200000000Y-120000000D03*
X166800000Y-144700000D03*
X185000000Y-122500000D03*
X187500000Y-150000000D03*
X192500000Y-122500000D03*
X187500000Y-122500000D03*
X145000000Y-147500000D03*
X190000000Y-122500000D03*
X207500000Y-122500000D03*
X192500000Y-115000000D03*
X167500000Y-117500000D03*
X170000000Y-130000000D03*
X175000000Y-130000000D03*
X172500000Y-117500000D03*
X187500000Y-115000000D03*
X192500000Y-112500000D03*
X187500000Y-152500000D03*
X150000000Y-130000000D03*
X160000000Y-122500000D03*
X142500000Y-130000000D03*
X165000000Y-117500000D03*
X180000000Y-130000000D03*
X150000000Y-127500000D03*
X146500000Y-139500000D03*
X157500000Y-152500000D03*
X192500000Y-117500000D03*
X142500000Y-117500000D03*
X165000000Y-130000000D03*
X180000000Y-122500000D03*
X200000000Y-117500000D03*
X172500000Y-127500000D03*
X145000000Y-117500000D03*
X190000000Y-112500000D03*
X197500000Y-150000000D03*
X150000000Y-122500000D03*
X142500000Y-147500000D03*
X142500000Y-122500000D03*
X150000000Y-125000000D03*
X142500000Y-127500000D03*
X170000000Y-127500000D03*
X152500000Y-127500000D03*
X190000000Y-125000000D03*
X185000000Y-152500000D03*
X185000000Y-125000000D03*
X207500000Y-117500000D03*
X165800000Y-145200000D03*
X142500000Y-115000000D03*
X175000000Y-125000000D03*
X166800000Y-143200000D03*
X150000000Y-152500000D03*
X147500000Y-120000000D03*
X165000000Y-127500000D03*
X155000000Y-152500000D03*
X200000000Y-152500000D03*
X153500000Y-137500000D03*
X157500000Y-130000000D03*
X147500000Y-152500000D03*
X190000000Y-117500000D03*
X180000000Y-117500000D03*
X187500000Y-112500000D03*
X172500000Y-125000000D03*
X185000000Y-112500000D03*
X142500000Y-120000000D03*
X152500000Y-152500000D03*
X207500000Y-112500000D03*
X207500000Y-125000000D03*
X170000000Y-117500000D03*
X197500000Y-112500000D03*
X157500000Y-127500000D03*
X200000000Y-122500000D03*
X195750000Y-146250000D03*
X200000000Y-150000000D03*
X197500000Y-117500000D03*
X205000000Y-125000000D03*
X175000000Y-122500000D03*
X177500000Y-122500000D03*
X156500000Y-148000000D03*
D17*
%TO.N,/HO*%
X170700000Y-142400002D03*
X182500000Y-135100000D03*
D16*
%TO.N,+24V*%
X157500000Y-143975000D03*
D17*
%TO.N,/BST*%
X179800000Y-141750002D03*
X173400000Y-140900000D03*
%TO.N,FB*%
X185100000Y-142100000D03*
X168800000Y-149800000D03*
X175300000Y-148500000D03*
X172000000Y-149100000D03*
%TD*%
%TA.AperFunction,Conductor*%
%TO.N,GND*%
G36*
X212642539Y-110320185D02*
G01*
X212688294Y-110372989D01*
X212699500Y-110424500D01*
X212699500Y-153575500D01*
X212679815Y-153642539D01*
X212627011Y-153688294D01*
X212575500Y-153699500D01*
X140424500Y-153699500D01*
X140357461Y-153679815D01*
X140311706Y-153627011D01*
X140300500Y-153575500D01*
X140300500Y-149873920D01*
X168049499Y-149873920D01*
X168078340Y-150018907D01*
X168078343Y-150018917D01*
X168134912Y-150155488D01*
X168134919Y-150155501D01*
X168217048Y-150278415D01*
X168217051Y-150278419D01*
X168321580Y-150382948D01*
X168321584Y-150382951D01*
X168444498Y-150465080D01*
X168444511Y-150465087D01*
X168581082Y-150521656D01*
X168581087Y-150521658D01*
X168581091Y-150521658D01*
X168581092Y-150521659D01*
X168726079Y-150550500D01*
X168726082Y-150550500D01*
X168873920Y-150550500D01*
X168971462Y-150531096D01*
X169018913Y-150521658D01*
X169155495Y-150465084D01*
X169278416Y-150382951D01*
X169382951Y-150278416D01*
X169465084Y-150155495D01*
X169521658Y-150018913D01*
X169550500Y-149873918D01*
X169550500Y-149726082D01*
X169550500Y-149726079D01*
X169521659Y-149581092D01*
X169521658Y-149581091D01*
X169521658Y-149581087D01*
X169469639Y-149455501D01*
X169465087Y-149444511D01*
X169465080Y-149444498D01*
X169382951Y-149321584D01*
X169382948Y-149321580D01*
X169278419Y-149217051D01*
X169278415Y-149217048D01*
X169213870Y-149173920D01*
X171249499Y-149173920D01*
X171278340Y-149318907D01*
X171278343Y-149318917D01*
X171334912Y-149455488D01*
X171334919Y-149455501D01*
X171417048Y-149578415D01*
X171417051Y-149578419D01*
X171521580Y-149682948D01*
X171521584Y-149682951D01*
X171644498Y-149765080D01*
X171644511Y-149765087D01*
X171781082Y-149821656D01*
X171781087Y-149821658D01*
X171781091Y-149821658D01*
X171781092Y-149821659D01*
X171926079Y-149850500D01*
X171926082Y-149850500D01*
X172073920Y-149850500D01*
X172171462Y-149831096D01*
X172218913Y-149821658D01*
X172355495Y-149765084D01*
X172478416Y-149682951D01*
X172582951Y-149578416D01*
X172665084Y-149455495D01*
X172721658Y-149318913D01*
X172735267Y-149250500D01*
X172750500Y-149173920D01*
X172750500Y-149026079D01*
X172721659Y-148881092D01*
X172721658Y-148881091D01*
X172721658Y-148881087D01*
X172711060Y-148855501D01*
X172665087Y-148744511D01*
X172665080Y-148744498D01*
X172582951Y-148621584D01*
X172582948Y-148621580D01*
X172535288Y-148573920D01*
X174549499Y-148573920D01*
X174578340Y-148718907D01*
X174578343Y-148718917D01*
X174634912Y-148855488D01*
X174634919Y-148855501D01*
X174717048Y-148978415D01*
X174717051Y-148978419D01*
X174821580Y-149082948D01*
X174821584Y-149082951D01*
X174944498Y-149165080D01*
X174944511Y-149165087D01*
X175081082Y-149221656D01*
X175081087Y-149221658D01*
X175081091Y-149221658D01*
X175081092Y-149221659D01*
X175226079Y-149250500D01*
X175226082Y-149250500D01*
X175373920Y-149250500D01*
X175471462Y-149231096D01*
X175518913Y-149221658D01*
X175655495Y-149165084D01*
X175778416Y-149082951D01*
X175882951Y-148978416D01*
X175965084Y-148855495D01*
X176021658Y-148718913D01*
X176031096Y-148671462D01*
X176050500Y-148573920D01*
X176050500Y-148426079D01*
X176021659Y-148281092D01*
X176021658Y-148281091D01*
X176021658Y-148281087D01*
X176021656Y-148281082D01*
X175965087Y-148144511D01*
X175965080Y-148144498D01*
X175882951Y-148021584D01*
X175882948Y-148021580D01*
X175778419Y-147917051D01*
X175778415Y-147917048D01*
X175655501Y-147834919D01*
X175655488Y-147834912D01*
X175518917Y-147778343D01*
X175518907Y-147778340D01*
X175373920Y-147749500D01*
X175373918Y-147749500D01*
X175226082Y-147749500D01*
X175226080Y-147749500D01*
X175081092Y-147778340D01*
X175081082Y-147778343D01*
X174944511Y-147834912D01*
X174944498Y-147834919D01*
X174821584Y-147917048D01*
X174821580Y-147917051D01*
X174717051Y-148021580D01*
X174717048Y-148021584D01*
X174634919Y-148144498D01*
X174634912Y-148144511D01*
X174578343Y-148281082D01*
X174578340Y-148281092D01*
X174549500Y-148426079D01*
X174549500Y-148426082D01*
X174549500Y-148573918D01*
X174549500Y-148573920D01*
X174549499Y-148573920D01*
X172535288Y-148573920D01*
X172478418Y-148517050D01*
X172355501Y-148434919D01*
X172355488Y-148434912D01*
X172218917Y-148378343D01*
X172218907Y-148378340D01*
X172073920Y-148349500D01*
X172073918Y-148349500D01*
X171926082Y-148349500D01*
X171926080Y-148349500D01*
X171781092Y-148378340D01*
X171781082Y-148378343D01*
X171644511Y-148434912D01*
X171644498Y-148434919D01*
X171521584Y-148517048D01*
X171521580Y-148517051D01*
X171417051Y-148621580D01*
X171417048Y-148621584D01*
X171334919Y-148744498D01*
X171334912Y-148744511D01*
X171278343Y-148881082D01*
X171278340Y-148881092D01*
X171249500Y-149026079D01*
X171249500Y-149026082D01*
X171249500Y-149173918D01*
X171249500Y-149173920D01*
X171249499Y-149173920D01*
X169213870Y-149173920D01*
X169155501Y-149134919D01*
X169155494Y-149134915D01*
X169154616Y-149134552D01*
X169154614Y-149134550D01*
X169018917Y-149078343D01*
X169018907Y-149078340D01*
X168873920Y-149049500D01*
X168873918Y-149049500D01*
X168726082Y-149049500D01*
X168726080Y-149049500D01*
X168581092Y-149078340D01*
X168581082Y-149078343D01*
X168444511Y-149134912D01*
X168444498Y-149134919D01*
X168321584Y-149217048D01*
X168321580Y-149217051D01*
X168217051Y-149321580D01*
X168217048Y-149321584D01*
X168134919Y-149444498D01*
X168134912Y-149444511D01*
X168078343Y-149581082D01*
X168078340Y-149581092D01*
X168049500Y-149726079D01*
X168049500Y-149726082D01*
X168049500Y-149873918D01*
X168049500Y-149873920D01*
X168049499Y-149873920D01*
X140300500Y-149873920D01*
X140300500Y-142385258D01*
X144682000Y-142385258D01*
X144682000Y-142614741D01*
X144690981Y-142682951D01*
X144711952Y-142842238D01*
X144721647Y-142878421D01*
X144771342Y-143063887D01*
X144859150Y-143275876D01*
X144859157Y-143275890D01*
X144973892Y-143474617D01*
X145113581Y-143656661D01*
X145113589Y-143656670D01*
X145275830Y-143818911D01*
X145275838Y-143818918D01*
X145457882Y-143958607D01*
X145457885Y-143958608D01*
X145457888Y-143958611D01*
X145656612Y-144073344D01*
X145656617Y-144073346D01*
X145656623Y-144073349D01*
X145720965Y-144100000D01*
X145868613Y-144161158D01*
X146090262Y-144220548D01*
X146317766Y-144250500D01*
X146317773Y-144250500D01*
X146547227Y-144250500D01*
X146547234Y-144250500D01*
X146774738Y-144220548D01*
X146996387Y-144161158D01*
X147208388Y-144073344D01*
X147407112Y-143958611D01*
X147501344Y-143886304D01*
X156599500Y-143886304D01*
X156599500Y-144063695D01*
X156634103Y-144237658D01*
X156634106Y-144237667D01*
X156701983Y-144401540D01*
X156701990Y-144401553D01*
X156800535Y-144549034D01*
X156800538Y-144549038D01*
X156925961Y-144674461D01*
X156925965Y-144674464D01*
X157073446Y-144773009D01*
X157073459Y-144773016D01*
X157196363Y-144823923D01*
X157237334Y-144840894D01*
X157237336Y-144840894D01*
X157237341Y-144840896D01*
X157411304Y-144875499D01*
X157411307Y-144875500D01*
X157411309Y-144875500D01*
X157588693Y-144875500D01*
X157588694Y-144875499D01*
X157646682Y-144863964D01*
X157762658Y-144840896D01*
X157762661Y-144840894D01*
X157762666Y-144840894D01*
X157926547Y-144773013D01*
X158074035Y-144674464D01*
X158199464Y-144549035D01*
X158244290Y-144481947D01*
X194300000Y-144481947D01*
X194300000Y-144718052D01*
X194336934Y-144951247D01*
X194409897Y-145175802D01*
X194517087Y-145386174D01*
X194577338Y-145469104D01*
X194577340Y-145469105D01*
X195317037Y-144729408D01*
X195334075Y-144792993D01*
X195399901Y-144907007D01*
X195492993Y-145000099D01*
X195607007Y-145065925D01*
X195670590Y-145082962D01*
X194930893Y-145822658D01*
X195013828Y-145882914D01*
X195224197Y-145990102D01*
X195448752Y-146063065D01*
X195448751Y-146063065D01*
X195681948Y-146100000D01*
X195918052Y-146100000D01*
X196151247Y-146063065D01*
X196375802Y-145990102D01*
X196586163Y-145882918D01*
X196586169Y-145882914D01*
X196669104Y-145822658D01*
X196669105Y-145822658D01*
X195929408Y-145082962D01*
X195992993Y-145065925D01*
X196107007Y-145000099D01*
X196200099Y-144907007D01*
X196265925Y-144792993D01*
X196282962Y-144729408D01*
X197022658Y-145469105D01*
X197022658Y-145469104D01*
X197082914Y-145386169D01*
X197082918Y-145386163D01*
X197190102Y-145175802D01*
X197263065Y-144951247D01*
X197300000Y-144718052D01*
X197300000Y-144481947D01*
X197263065Y-144248752D01*
X197190102Y-144024197D01*
X197082914Y-143813828D01*
X197022658Y-143730894D01*
X197022658Y-143730893D01*
X196282962Y-144470590D01*
X196265925Y-144407007D01*
X196200099Y-144292993D01*
X196107007Y-144199901D01*
X195992993Y-144134075D01*
X195929409Y-144117037D01*
X196669105Y-143377340D01*
X196669104Y-143377338D01*
X196586174Y-143317087D01*
X196375802Y-143209897D01*
X196151247Y-143136934D01*
X196151248Y-143136934D01*
X195918052Y-143100000D01*
X195681948Y-143100000D01*
X195448752Y-143136934D01*
X195224197Y-143209897D01*
X195013830Y-143317084D01*
X194930894Y-143377340D01*
X195670591Y-144117037D01*
X195607007Y-144134075D01*
X195492993Y-144199901D01*
X195399901Y-144292993D01*
X195334075Y-144407007D01*
X195317037Y-144470590D01*
X194577340Y-143730894D01*
X194517084Y-143813830D01*
X194409897Y-144024197D01*
X194336934Y-144248752D01*
X194300000Y-144481947D01*
X158244290Y-144481947D01*
X158244385Y-144481805D01*
X158293579Y-144408184D01*
X158298009Y-144401553D01*
X158298009Y-144401552D01*
X158298013Y-144401547D01*
X158365894Y-144237666D01*
X158369300Y-144220546D01*
X158400499Y-144063695D01*
X158400500Y-144063693D01*
X158400500Y-143886306D01*
X158400499Y-143886304D01*
X158365896Y-143712341D01*
X158365893Y-143712332D01*
X158298016Y-143548459D01*
X158298014Y-143548455D01*
X158298013Y-143548453D01*
X158199464Y-143400965D01*
X158199461Y-143400961D01*
X158074038Y-143275538D01*
X158074034Y-143275535D01*
X157926553Y-143176990D01*
X157926540Y-143176983D01*
X157762667Y-143109106D01*
X157762658Y-143109103D01*
X157588694Y-143074500D01*
X157588691Y-143074500D01*
X157411309Y-143074500D01*
X157411306Y-143074500D01*
X157237341Y-143109103D01*
X157237332Y-143109106D01*
X157073459Y-143176983D01*
X157073446Y-143176990D01*
X156925965Y-143275535D01*
X156925961Y-143275538D01*
X156800538Y-143400961D01*
X156800535Y-143400965D01*
X156701990Y-143548446D01*
X156701983Y-143548459D01*
X156634106Y-143712332D01*
X156634103Y-143712341D01*
X156599500Y-143886304D01*
X147501344Y-143886304D01*
X147589161Y-143818919D01*
X147589165Y-143818914D01*
X147589170Y-143818911D01*
X147751411Y-143656670D01*
X147751414Y-143656665D01*
X147751419Y-143656661D01*
X147891111Y-143474612D01*
X148005844Y-143275888D01*
X148093658Y-143063887D01*
X148153048Y-142842238D01*
X148183000Y-142614734D01*
X148183000Y-142473922D01*
X169949499Y-142473922D01*
X169978340Y-142618909D01*
X169978343Y-142618919D01*
X170034912Y-142755490D01*
X170034919Y-142755503D01*
X170117048Y-142878417D01*
X170117051Y-142878421D01*
X170221580Y-142982950D01*
X170221584Y-142982953D01*
X170344498Y-143065082D01*
X170344511Y-143065089D01*
X170481082Y-143121658D01*
X170481087Y-143121660D01*
X170481091Y-143121660D01*
X170481092Y-143121661D01*
X170626079Y-143150502D01*
X170626082Y-143150502D01*
X170773920Y-143150502D01*
X170871462Y-143131098D01*
X170918913Y-143121660D01*
X171055495Y-143065086D01*
X171178416Y-142982953D01*
X171282951Y-142878418D01*
X171365084Y-142755497D01*
X171421658Y-142618915D01*
X171431096Y-142571464D01*
X171450500Y-142473922D01*
X171450500Y-142326081D01*
X171421659Y-142181094D01*
X171421658Y-142181093D01*
X171421658Y-142181089D01*
X171411996Y-142157762D01*
X171365087Y-142044513D01*
X171365080Y-142044500D01*
X171282951Y-141921586D01*
X171282948Y-141921582D01*
X171185288Y-141823922D01*
X179049499Y-141823922D01*
X179078340Y-141968909D01*
X179078343Y-141968919D01*
X179134912Y-142105490D01*
X179134919Y-142105503D01*
X179217048Y-142228417D01*
X179217051Y-142228421D01*
X179321580Y-142332950D01*
X179321584Y-142332953D01*
X179444498Y-142415082D01*
X179444511Y-142415089D01*
X179581082Y-142471658D01*
X179581087Y-142471660D01*
X179581091Y-142471660D01*
X179581092Y-142471661D01*
X179726079Y-142500502D01*
X179726082Y-142500502D01*
X179873920Y-142500502D01*
X180007551Y-142473920D01*
X180018913Y-142471660D01*
X180155495Y-142415086D01*
X180278416Y-142332953D01*
X180382951Y-142228418D01*
X180419365Y-142173920D01*
X184349499Y-142173920D01*
X184378340Y-142318907D01*
X184378343Y-142318917D01*
X184434912Y-142455488D01*
X184434919Y-142455501D01*
X184517048Y-142578415D01*
X184517051Y-142578419D01*
X184621580Y-142682948D01*
X184621584Y-142682951D01*
X184744498Y-142765080D01*
X184744511Y-142765087D01*
X184881082Y-142821656D01*
X184881087Y-142821658D01*
X184881091Y-142821658D01*
X184881092Y-142821659D01*
X185026079Y-142850500D01*
X185026082Y-142850500D01*
X185173920Y-142850500D01*
X185271462Y-142831096D01*
X185318913Y-142821658D01*
X185455495Y-142765084D01*
X185578416Y-142682951D01*
X185682951Y-142578416D01*
X185765084Y-142455495D01*
X185821658Y-142318913D01*
X185831096Y-142271462D01*
X185850500Y-142173920D01*
X185850500Y-142026079D01*
X185821659Y-141881092D01*
X185821658Y-141881091D01*
X185821658Y-141881087D01*
X185797979Y-141823920D01*
X185765087Y-141744511D01*
X185765080Y-141744498D01*
X185682951Y-141621584D01*
X185682948Y-141621580D01*
X185578419Y-141517051D01*
X185578415Y-141517048D01*
X185455501Y-141434919D01*
X185455488Y-141434912D01*
X185318917Y-141378343D01*
X185318907Y-141378340D01*
X185173920Y-141349500D01*
X185173918Y-141349500D01*
X185026082Y-141349500D01*
X185026080Y-141349500D01*
X184881092Y-141378340D01*
X184881082Y-141378343D01*
X184744511Y-141434912D01*
X184744498Y-141434919D01*
X184621584Y-141517048D01*
X184621580Y-141517051D01*
X184517051Y-141621580D01*
X184517048Y-141621584D01*
X184434919Y-141744498D01*
X184434912Y-141744511D01*
X184378343Y-141881082D01*
X184378340Y-141881092D01*
X184349500Y-142026079D01*
X184349500Y-142026082D01*
X184349500Y-142173918D01*
X184349500Y-142173920D01*
X184349499Y-142173920D01*
X180419365Y-142173920D01*
X180465084Y-142105497D01*
X180521658Y-141968915D01*
X180539129Y-141881087D01*
X180550500Y-141823922D01*
X180550500Y-141676081D01*
X180521659Y-141531094D01*
X180521658Y-141531093D01*
X180521658Y-141531089D01*
X180515843Y-141517051D01*
X180465087Y-141394513D01*
X180465080Y-141394500D01*
X180382951Y-141271586D01*
X180382948Y-141271582D01*
X180278419Y-141167053D01*
X180278415Y-141167050D01*
X180155501Y-141084921D01*
X180155488Y-141084914D01*
X180018917Y-141028345D01*
X180018907Y-141028342D01*
X179873920Y-140999502D01*
X179873918Y-140999502D01*
X179726082Y-140999502D01*
X179726080Y-140999502D01*
X179581092Y-141028342D01*
X179581082Y-141028345D01*
X179444511Y-141084914D01*
X179444498Y-141084921D01*
X179321584Y-141167050D01*
X179321580Y-141167053D01*
X179217051Y-141271582D01*
X179217048Y-141271586D01*
X179134919Y-141394500D01*
X179134912Y-141394513D01*
X179078343Y-141531084D01*
X179078340Y-141531094D01*
X179049500Y-141676081D01*
X179049500Y-141676084D01*
X179049500Y-141823920D01*
X179049500Y-141823922D01*
X179049499Y-141823922D01*
X171185288Y-141823922D01*
X171178419Y-141817053D01*
X171178415Y-141817050D01*
X171055501Y-141734921D01*
X171055488Y-141734914D01*
X170918917Y-141678345D01*
X170918907Y-141678342D01*
X170773920Y-141649502D01*
X170773918Y-141649502D01*
X170626082Y-141649502D01*
X170626080Y-141649502D01*
X170481092Y-141678342D01*
X170481082Y-141678345D01*
X170344511Y-141734914D01*
X170344498Y-141734921D01*
X170221584Y-141817050D01*
X170221580Y-141817053D01*
X170117051Y-141921582D01*
X170117048Y-141921586D01*
X170034919Y-142044500D01*
X170034912Y-142044513D01*
X169978343Y-142181084D01*
X169978340Y-142181094D01*
X169949500Y-142326081D01*
X169949500Y-142326084D01*
X169949500Y-142473920D01*
X169949500Y-142473922D01*
X169949499Y-142473922D01*
X148183000Y-142473922D01*
X148183000Y-142385266D01*
X148153048Y-142157762D01*
X148093658Y-141936113D01*
X148014291Y-141744505D01*
X148005849Y-141724123D01*
X148005846Y-141724117D01*
X148005844Y-141724112D01*
X147891111Y-141525388D01*
X147891108Y-141525385D01*
X147891107Y-141525382D01*
X147778276Y-141378340D01*
X147751419Y-141343339D01*
X147751418Y-141343338D01*
X147751411Y-141343330D01*
X147589170Y-141181089D01*
X147589161Y-141181081D01*
X147407117Y-141041392D01*
X147290252Y-140973920D01*
X172649499Y-140973920D01*
X172678340Y-141118907D01*
X172678343Y-141118917D01*
X172734912Y-141255488D01*
X172734919Y-141255501D01*
X172817048Y-141378415D01*
X172817051Y-141378419D01*
X172921580Y-141482948D01*
X172921584Y-141482951D01*
X173044498Y-141565080D01*
X173044511Y-141565087D01*
X173180899Y-141621580D01*
X173181087Y-141621658D01*
X173181091Y-141621658D01*
X173181092Y-141621659D01*
X173326079Y-141650500D01*
X173326082Y-141650500D01*
X173473920Y-141650500D01*
X173571462Y-141631096D01*
X173618913Y-141621658D01*
X173755495Y-141565084D01*
X173878416Y-141482951D01*
X173982951Y-141378416D01*
X174065084Y-141255495D01*
X174121658Y-141118913D01*
X174150500Y-140973918D01*
X174150500Y-140826082D01*
X174150500Y-140826079D01*
X174121659Y-140681092D01*
X174121658Y-140681091D01*
X174121658Y-140681087D01*
X174116789Y-140669331D01*
X174065087Y-140544511D01*
X174065080Y-140544498D01*
X173982951Y-140421584D01*
X173982948Y-140421580D01*
X173878419Y-140317051D01*
X173878415Y-140317048D01*
X173755501Y-140234919D01*
X173755488Y-140234912D01*
X173618917Y-140178343D01*
X173618907Y-140178340D01*
X173473920Y-140149500D01*
X173473918Y-140149500D01*
X173326082Y-140149500D01*
X173326080Y-140149500D01*
X173181092Y-140178340D01*
X173181082Y-140178343D01*
X173044511Y-140234912D01*
X173044498Y-140234919D01*
X172921584Y-140317048D01*
X172921580Y-140317051D01*
X172817051Y-140421580D01*
X172817048Y-140421584D01*
X172734919Y-140544498D01*
X172734912Y-140544511D01*
X172678343Y-140681082D01*
X172678340Y-140681092D01*
X172649500Y-140826079D01*
X172649500Y-140826082D01*
X172649500Y-140973918D01*
X172649500Y-140973920D01*
X172649499Y-140973920D01*
X147290252Y-140973920D01*
X147209639Y-140927378D01*
X147208388Y-140926656D01*
X147208386Y-140926655D01*
X147208376Y-140926650D01*
X146996387Y-140838842D01*
X146948754Y-140826079D01*
X146774738Y-140779452D01*
X146736715Y-140774446D01*
X146547241Y-140749500D01*
X146547234Y-140749500D01*
X146317766Y-140749500D01*
X146317758Y-140749500D01*
X146101215Y-140778009D01*
X146090262Y-140779452D01*
X145996576Y-140804554D01*
X145868612Y-140838842D01*
X145656623Y-140926650D01*
X145656609Y-140926657D01*
X145457882Y-141041392D01*
X145275838Y-141181081D01*
X145113581Y-141343338D01*
X144973892Y-141525382D01*
X144859157Y-141724109D01*
X144859150Y-141724123D01*
X144771342Y-141936112D01*
X144711953Y-142157759D01*
X144711951Y-142157770D01*
X144682000Y-142385258D01*
X140300500Y-142385258D01*
X140300500Y-136450013D01*
X144682500Y-136450013D01*
X144682500Y-137250000D01*
X145832499Y-137250000D01*
X145807479Y-137310402D01*
X145782500Y-137435981D01*
X145782500Y-137564019D01*
X145807479Y-137689598D01*
X145832499Y-137750000D01*
X144682501Y-137750000D01*
X144682501Y-138549986D01*
X144692994Y-138652697D01*
X144748141Y-138819119D01*
X144748143Y-138819124D01*
X144840184Y-138968345D01*
X144964154Y-139092315D01*
X145113375Y-139184356D01*
X145113380Y-139184358D01*
X145279802Y-139239505D01*
X145279809Y-139239506D01*
X145382519Y-139249999D01*
X146182499Y-139249999D01*
X146182500Y-139249998D01*
X146182500Y-138100001D01*
X146242902Y-138125021D01*
X146368481Y-138150000D01*
X146496519Y-138150000D01*
X146622098Y-138125021D01*
X146682500Y-138100001D01*
X146682500Y-139249999D01*
X147482472Y-139249999D01*
X147482486Y-139249998D01*
X147585197Y-139239505D01*
X147751619Y-139184358D01*
X147751624Y-139184356D01*
X147900845Y-139092315D01*
X148024815Y-138968345D01*
X148116856Y-138819124D01*
X148116858Y-138819119D01*
X148123199Y-138799983D01*
X194299500Y-138799983D01*
X194299500Y-140400001D01*
X194299501Y-140400018D01*
X194310000Y-140502796D01*
X194310001Y-140502799D01*
X194365185Y-140669331D01*
X194365186Y-140669334D01*
X194457288Y-140818656D01*
X194581344Y-140942712D01*
X194730666Y-141034814D01*
X194897203Y-141089999D01*
X194999991Y-141100500D01*
X196600008Y-141100499D01*
X196702797Y-141089999D01*
X196869334Y-141034814D01*
X197018656Y-140942712D01*
X197142712Y-140818656D01*
X197234814Y-140669334D01*
X197289999Y-140502797D01*
X197300500Y-140400009D01*
X197300499Y-138799992D01*
X197289999Y-138697203D01*
X197234814Y-138530666D01*
X197142712Y-138381344D01*
X197018656Y-138257288D01*
X196869334Y-138165186D01*
X196702797Y-138110001D01*
X196702795Y-138110000D01*
X196600010Y-138099500D01*
X194999998Y-138099500D01*
X194999981Y-138099501D01*
X194897203Y-138110000D01*
X194897200Y-138110001D01*
X194730668Y-138165185D01*
X194730663Y-138165187D01*
X194581342Y-138257289D01*
X194457289Y-138381342D01*
X194365187Y-138530663D01*
X194365186Y-138530666D01*
X194310001Y-138697203D01*
X194310001Y-138697204D01*
X194310000Y-138697204D01*
X194299500Y-138799983D01*
X148123199Y-138799983D01*
X148137168Y-138757830D01*
X148172005Y-138652697D01*
X148172006Y-138652690D01*
X148182499Y-138549986D01*
X148182500Y-138549973D01*
X148182500Y-137750000D01*
X147032501Y-137750000D01*
X147057521Y-137689598D01*
X147082500Y-137564019D01*
X147082500Y-137435981D01*
X147057521Y-137310402D01*
X147032501Y-137250000D01*
X148182499Y-137250000D01*
X148182499Y-136450028D01*
X148182498Y-136450013D01*
X148172005Y-136347302D01*
X148116858Y-136180880D01*
X148116856Y-136180875D01*
X148024815Y-136031654D01*
X147900845Y-135907684D01*
X147751624Y-135815643D01*
X147751619Y-135815641D01*
X147585197Y-135760494D01*
X147585190Y-135760493D01*
X147482486Y-135750000D01*
X146682500Y-135750000D01*
X146682500Y-136899998D01*
X146622098Y-136874979D01*
X146496519Y-136850000D01*
X146368481Y-136850000D01*
X146242902Y-136874979D01*
X146182500Y-136899998D01*
X146182500Y-135750000D01*
X145382528Y-135750000D01*
X145382512Y-135750001D01*
X145279802Y-135760494D01*
X145113380Y-135815641D01*
X145113375Y-135815643D01*
X144964154Y-135907684D01*
X144840184Y-136031654D01*
X144748143Y-136180875D01*
X144748141Y-136180880D01*
X144692994Y-136347302D01*
X144692993Y-136347309D01*
X144682500Y-136450013D01*
X140300500Y-136450013D01*
X140300500Y-135173920D01*
X181749499Y-135173920D01*
X181778340Y-135318907D01*
X181778343Y-135318917D01*
X181834912Y-135455488D01*
X181834919Y-135455501D01*
X181917048Y-135578415D01*
X181917051Y-135578419D01*
X182021580Y-135682948D01*
X182021584Y-135682951D01*
X182144498Y-135765080D01*
X182144511Y-135765087D01*
X182266565Y-135815643D01*
X182281087Y-135821658D01*
X182281091Y-135821658D01*
X182281092Y-135821659D01*
X182426079Y-135850500D01*
X182426082Y-135850500D01*
X182573920Y-135850500D01*
X182671462Y-135831096D01*
X182718913Y-135821658D01*
X182855495Y-135765084D01*
X182978416Y-135682951D01*
X183082951Y-135578416D01*
X183165084Y-135455495D01*
X183221658Y-135318913D01*
X183250500Y-135173918D01*
X183250500Y-135026082D01*
X183250500Y-135026079D01*
X183221659Y-134881092D01*
X183221658Y-134881091D01*
X183221658Y-134881087D01*
X183189230Y-134802799D01*
X183165087Y-134744511D01*
X183165080Y-134744498D01*
X183082951Y-134621584D01*
X183082948Y-134621580D01*
X182978419Y-134517051D01*
X182978415Y-134517048D01*
X182855501Y-134434919D01*
X182855488Y-134434912D01*
X182718917Y-134378343D01*
X182718907Y-134378340D01*
X182573920Y-134349500D01*
X182573918Y-134349500D01*
X182426082Y-134349500D01*
X182426080Y-134349500D01*
X182281092Y-134378340D01*
X182281082Y-134378343D01*
X182144511Y-134434912D01*
X182144498Y-134434919D01*
X182021584Y-134517048D01*
X182021580Y-134517051D01*
X181917051Y-134621580D01*
X181917048Y-134621584D01*
X181834919Y-134744498D01*
X181834912Y-134744511D01*
X181778343Y-134881082D01*
X181778340Y-134881092D01*
X181749500Y-135026079D01*
X181749500Y-135026082D01*
X181749500Y-135173918D01*
X181749500Y-135173920D01*
X181749499Y-135173920D01*
X140300500Y-135173920D01*
X140300500Y-133099983D01*
X194299500Y-133099983D01*
X194299500Y-134700001D01*
X194299501Y-134700018D01*
X194310000Y-134802796D01*
X194310001Y-134802799D01*
X194335945Y-134881092D01*
X194365186Y-134969334D01*
X194457288Y-135118656D01*
X194581344Y-135242712D01*
X194730666Y-135334814D01*
X194897203Y-135389999D01*
X194999991Y-135400500D01*
X196600008Y-135400499D01*
X196702797Y-135389999D01*
X196869334Y-135334814D01*
X197018656Y-135242712D01*
X197142712Y-135118656D01*
X197234814Y-134969334D01*
X197289999Y-134802797D01*
X197300500Y-134700009D01*
X197300499Y-133149983D01*
X205817000Y-133149983D01*
X205817000Y-135250001D01*
X205817001Y-135250018D01*
X205827500Y-135352796D01*
X205827501Y-135352799D01*
X205843308Y-135400500D01*
X205882686Y-135519334D01*
X205974788Y-135668656D01*
X206098844Y-135792712D01*
X206248166Y-135884814D01*
X206414703Y-135939999D01*
X206517491Y-135950500D01*
X208617508Y-135950499D01*
X208720297Y-135939999D01*
X208886834Y-135884814D01*
X209036156Y-135792712D01*
X209160212Y-135668656D01*
X209252314Y-135519334D01*
X209307499Y-135352797D01*
X209318000Y-135250009D01*
X209317999Y-133149992D01*
X209312891Y-133099992D01*
X209307499Y-133047203D01*
X209307498Y-133047200D01*
X209290931Y-132997204D01*
X209252314Y-132880666D01*
X209160212Y-132731344D01*
X209036156Y-132607288D01*
X208886834Y-132515186D01*
X208720297Y-132460001D01*
X208720295Y-132460000D01*
X208617510Y-132449500D01*
X206517498Y-132449500D01*
X206517481Y-132449501D01*
X206414703Y-132460000D01*
X206414700Y-132460001D01*
X206248168Y-132515185D01*
X206248163Y-132515187D01*
X206098842Y-132607289D01*
X205974789Y-132731342D01*
X205882687Y-132880663D01*
X205882686Y-132880666D01*
X205827501Y-133047203D01*
X205827501Y-133047204D01*
X205827500Y-133047204D01*
X205817000Y-133149983D01*
X197300499Y-133149983D01*
X197300499Y-133099992D01*
X197289999Y-132997203D01*
X197234814Y-132830666D01*
X197142712Y-132681344D01*
X197018656Y-132557288D01*
X196869334Y-132465186D01*
X196702797Y-132410001D01*
X196702795Y-132410000D01*
X196600010Y-132399500D01*
X194999998Y-132399500D01*
X194999981Y-132399501D01*
X194897203Y-132410000D01*
X194897200Y-132410001D01*
X194730668Y-132465185D01*
X194730663Y-132465187D01*
X194581342Y-132557289D01*
X194457289Y-132681342D01*
X194365187Y-132830663D01*
X194365185Y-132830668D01*
X194348617Y-132880668D01*
X194310001Y-132997203D01*
X194310001Y-132997204D01*
X194310000Y-132997204D01*
X194299500Y-133099983D01*
X140300500Y-133099983D01*
X140300500Y-128781947D01*
X194300000Y-128781947D01*
X194300000Y-129018052D01*
X194336934Y-129251247D01*
X194409897Y-129475802D01*
X194517087Y-129686174D01*
X194577338Y-129769104D01*
X194577340Y-129769105D01*
X195317037Y-129029408D01*
X195334075Y-129092993D01*
X195399901Y-129207007D01*
X195492993Y-129300099D01*
X195607007Y-129365925D01*
X195670590Y-129382962D01*
X194930893Y-130122658D01*
X195013828Y-130182914D01*
X195224197Y-130290102D01*
X195448752Y-130363065D01*
X195448751Y-130363065D01*
X195681948Y-130400000D01*
X195918052Y-130400000D01*
X196151247Y-130363065D01*
X196375802Y-130290102D01*
X196586163Y-130182918D01*
X196586169Y-130182914D01*
X196669104Y-130122658D01*
X196669105Y-130122658D01*
X195929408Y-129382962D01*
X195992993Y-129365925D01*
X196107007Y-129300099D01*
X196200099Y-129207007D01*
X196265925Y-129092993D01*
X196282962Y-129029408D01*
X197022658Y-129769105D01*
X197022658Y-129769104D01*
X197082914Y-129686169D01*
X197082918Y-129686163D01*
X197190102Y-129475802D01*
X197263065Y-129251248D01*
X197289348Y-129085305D01*
X205817500Y-129085305D01*
X205817500Y-129314694D01*
X205817501Y-129314710D01*
X205847442Y-129542137D01*
X205906818Y-129763730D01*
X205994602Y-129975659D01*
X205994606Y-129975669D01*
X206109299Y-130174324D01*
X206109305Y-130174331D01*
X206165881Y-130248064D01*
X206966458Y-129447487D01*
X206991478Y-129507890D01*
X207062612Y-129614351D01*
X207153149Y-129704888D01*
X207259610Y-129776022D01*
X207320011Y-129801041D01*
X206519434Y-130601617D01*
X206519434Y-130601618D01*
X206593166Y-130658194D01*
X206791830Y-130772893D01*
X206791840Y-130772897D01*
X207003769Y-130860681D01*
X207225362Y-130920057D01*
X207452789Y-130949998D01*
X207452806Y-130950000D01*
X207682194Y-130950000D01*
X207682210Y-130949998D01*
X207909637Y-130920057D01*
X208131230Y-130860681D01*
X208343159Y-130772897D01*
X208343168Y-130772893D01*
X208541827Y-130658197D01*
X208541834Y-130658192D01*
X208615564Y-130601617D01*
X207814988Y-129801041D01*
X207875390Y-129776022D01*
X207981851Y-129704888D01*
X208072388Y-129614351D01*
X208143522Y-129507890D01*
X208168541Y-129447488D01*
X208969117Y-130248064D01*
X209025692Y-130174334D01*
X209025697Y-130174327D01*
X209140393Y-129975668D01*
X209140397Y-129975659D01*
X209228181Y-129763730D01*
X209287557Y-129542137D01*
X209317498Y-129314710D01*
X209317500Y-129314694D01*
X209317500Y-129085305D01*
X209317498Y-129085289D01*
X209287557Y-128857862D01*
X209228181Y-128636269D01*
X209140397Y-128424340D01*
X209140393Y-128424330D01*
X209025694Y-128225666D01*
X208969118Y-128151934D01*
X208969117Y-128151934D01*
X208168541Y-128952510D01*
X208143522Y-128892110D01*
X208072388Y-128785649D01*
X207981851Y-128695112D01*
X207875390Y-128623978D01*
X207814987Y-128598957D01*
X208615564Y-127798381D01*
X208615564Y-127798380D01*
X208541831Y-127741805D01*
X208541824Y-127741799D01*
X208343169Y-127627106D01*
X208343159Y-127627102D01*
X208131230Y-127539318D01*
X207909637Y-127479942D01*
X207682210Y-127450001D01*
X207682194Y-127450000D01*
X207452806Y-127450000D01*
X207452789Y-127450001D01*
X207225362Y-127479942D01*
X207003769Y-127539318D01*
X206791840Y-127627102D01*
X206791830Y-127627106D01*
X206593173Y-127741801D01*
X206593159Y-127741810D01*
X206519434Y-127798380D01*
X207320011Y-128598958D01*
X207259610Y-128623978D01*
X207153149Y-128695112D01*
X207062612Y-128785649D01*
X206991478Y-128892110D01*
X206966458Y-128952511D01*
X206165880Y-128151934D01*
X206109310Y-128225659D01*
X206109301Y-128225673D01*
X205994606Y-128424330D01*
X205994602Y-128424340D01*
X205906818Y-128636269D01*
X205847442Y-128857862D01*
X205817501Y-129085289D01*
X205817500Y-129085305D01*
X197289348Y-129085305D01*
X197293064Y-129061842D01*
X197293064Y-129061841D01*
X197300000Y-129018050D01*
X197300000Y-128781947D01*
X197263065Y-128548752D01*
X197190102Y-128324197D01*
X197082914Y-128113828D01*
X197022658Y-128030894D01*
X197022658Y-128030893D01*
X196282962Y-128770590D01*
X196265925Y-128707007D01*
X196200099Y-128592993D01*
X196107007Y-128499901D01*
X195992993Y-128434075D01*
X195929409Y-128417037D01*
X196587793Y-127758653D01*
X196669105Y-127677340D01*
X196669104Y-127677338D01*
X196586174Y-127617087D01*
X196375802Y-127509897D01*
X196151247Y-127436934D01*
X196151248Y-127436934D01*
X195918052Y-127400000D01*
X195681948Y-127400000D01*
X195448752Y-127436934D01*
X195224197Y-127509897D01*
X195013830Y-127617084D01*
X194930894Y-127677340D01*
X195670591Y-128417037D01*
X195607007Y-128434075D01*
X195492993Y-128499901D01*
X195399901Y-128592993D01*
X195334075Y-128707007D01*
X195317037Y-128770590D01*
X194577340Y-128030894D01*
X194517084Y-128113830D01*
X194409897Y-128324197D01*
X194336934Y-128548752D01*
X194300000Y-128781947D01*
X140300500Y-128781947D01*
X140300500Y-110424500D01*
X140320185Y-110357461D01*
X140372989Y-110311706D01*
X140424500Y-110300500D01*
X212575500Y-110300500D01*
X212642539Y-110320185D01*
G37*
%TD.AperFunction*%
%TD*%
M02*
