M48
; DRILL file {KiCad 9.0.6} date 2026-01-21T08:09:22+0100
; FORMAT={-:-/ absolute / metric / decimal}
; #@! TF.CreationDate,2026-01-21T08:09:22+01:00
; #@! TF.GenerationSoftware,Kicad,Pcbnew,9.0.6
; #@! TF.FileFunction,Plated,1,4,PTH
FMAT,2
METRIC
; #@! TA.AperFunction,Plated,PTH,ViaDrill
T1C0.300
; #@! TA.AperFunction,Plated,PTH,ViaDrill
T2C0.400
; #@! TA.AperFunction,Plated,PTH,ComponentDrill
T3C1.000
; #@! TA.AperFunction,Plated,PTH,ComponentDrill
T4C1.300
%
G90
G05
T1
X159.5Y-144.0
X168.8Y-149.8
X170.7Y-142.4
X172.0Y-149.1
X173.4Y-140.9
X175.3Y-148.5
X179.8Y-141.75
X182.5Y-135.1
X185.1Y-142.1
T2
X142.5Y-112.5
X142.5Y-115.0
X142.5Y-117.5
X142.5Y-120.0
X142.5Y-122.5
X142.5Y-125.0
X142.5Y-127.5
X142.5Y-130.0
X142.5Y-147.5
X142.5Y-150.0
X142.5Y-152.5
X144.25Y-137.5
X145.0Y-112.5
X145.0Y-115.0
X145.0Y-117.5
X145.0Y-120.0
X145.0Y-122.5
X145.0Y-125.0
X145.0Y-127.5
X145.0Y-130.0
X145.0Y-147.5
X145.0Y-150.0
X145.0Y-152.5
X146.5Y-135.25
X146.5Y-139.5
X147.5Y-112.5
X147.5Y-115.0
X147.5Y-117.5
X147.5Y-120.0
X147.5Y-122.5
X147.5Y-125.0
X147.5Y-127.5
X147.5Y-130.0
X147.5Y-147.5
X147.5Y-150.0
X147.5Y-152.5
X150.0Y-112.5
X150.0Y-115.0
X150.0Y-117.5
X150.0Y-120.0
X150.0Y-122.5
X150.0Y-125.0
X150.0Y-127.5
X150.0Y-130.0
X150.0Y-147.5
X150.0Y-150.0
X150.0Y-152.5
X152.5Y-112.5
X152.5Y-115.0
X152.5Y-117.5
X152.5Y-120.0
X152.5Y-122.5
X152.5Y-125.0
X152.5Y-127.5
X152.5Y-130.0
X152.5Y-152.5
X153.5Y-137.5
X154.0Y-146.5
X154.5Y-137.5
X155.0Y-152.5
X156.5Y-148.0
X157.5Y-117.5
X157.5Y-120.0
X157.5Y-122.5
X157.5Y-125.0
X157.5Y-127.5
X157.5Y-130.0
X157.5Y-143.975
X157.5Y-152.5
X159.5Y-146.5
X160.0Y-117.5
X160.0Y-120.0
X160.0Y-122.5
X160.0Y-125.0
X160.0Y-127.5
X160.0Y-130.0
X160.0Y-152.5
X162.5Y-117.5
X162.5Y-120.0
X162.5Y-122.5
X162.5Y-125.0
X162.5Y-127.5
X162.5Y-130.0
X162.5Y-152.5
X165.0Y-117.5
X165.0Y-120.0
X165.0Y-122.5
X165.0Y-125.0
X165.0Y-127.5
X165.0Y-130.0
X165.0Y-152.5
X165.8Y-144.2
X165.8Y-145.2
X166.8Y-143.2
X166.8Y-144.7
X166.8Y-146.2
X167.5Y-117.5
X167.5Y-120.0
X167.5Y-122.5
X167.5Y-125.0
X167.5Y-127.5
X167.5Y-130.0
X167.5Y-152.5
X167.8Y-144.2
X167.8Y-145.2
X170.0Y-117.5
X170.0Y-120.0
X170.0Y-122.5
X170.0Y-125.0
X170.0Y-127.5
X170.0Y-130.0
X172.5Y-117.5
X172.5Y-120.0
X172.5Y-122.5
X172.5Y-125.0
X172.5Y-127.5
X172.5Y-130.0
X174.75Y-151.75
X175.0Y-117.5
X175.0Y-120.0
X175.0Y-122.5
X175.0Y-125.0
X175.0Y-127.5
X175.0Y-130.0
X177.5Y-117.5
X177.5Y-120.0
X177.5Y-122.5
X177.5Y-125.0
X177.5Y-127.5
X177.5Y-130.0
X177.5Y-147.25
X180.0Y-117.5
X180.0Y-120.0
X180.0Y-122.5
X180.0Y-125.0
X180.0Y-127.5
X180.0Y-130.0
X185.0Y-112.5
X185.0Y-115.0
X185.0Y-117.5
X185.0Y-120.0
X185.0Y-122.5
X185.0Y-125.0
X185.0Y-147.5
X185.0Y-150.0
X185.0Y-152.5
X187.5Y-112.5
X187.5Y-115.0
X187.5Y-117.5
X187.5Y-120.0
X187.5Y-122.5
X187.5Y-125.0
X187.5Y-147.5
X187.5Y-150.0
X187.5Y-152.5
X190.0Y-112.5
X190.0Y-115.0
X190.0Y-117.5
X190.0Y-120.0
X190.0Y-122.5
X190.0Y-125.0
X190.0Y-147.5
X190.0Y-150.0
X190.0Y-152.5
X192.5Y-112.5
X192.5Y-115.0
X192.5Y-117.5
X192.5Y-120.0
X192.5Y-122.5
X192.5Y-125.0
X192.5Y-147.5
X192.5Y-150.0
X192.5Y-152.5
X194.0Y-144.75
X195.0Y-112.5
X195.0Y-115.0
X195.0Y-117.5
X195.0Y-120.0
X195.0Y-122.5
X195.0Y-125.0
X195.0Y-150.0
X195.0Y-152.5
X195.75Y-146.25
X197.5Y-112.5
X197.5Y-115.0
X197.5Y-117.5
X197.5Y-120.0
X197.5Y-122.5
X197.5Y-125.0
X197.5Y-144.75
X197.5Y-150.0
X197.5Y-152.5
X200.0Y-112.5
X200.0Y-115.0
X200.0Y-117.5
X200.0Y-120.0
X200.0Y-122.5
X200.0Y-125.0
X200.0Y-150.0
X200.0Y-152.5
X202.5Y-112.5
X202.5Y-115.0
X202.5Y-117.5
X202.5Y-120.0
X202.5Y-122.5
X202.5Y-125.0
X205.0Y-112.5
X205.0Y-115.0
X205.0Y-117.5
X205.0Y-120.0
X205.0Y-122.5
X205.0Y-125.0
X207.5Y-112.5
X207.5Y-115.0
X207.5Y-117.5
X207.5Y-120.0
X207.5Y-122.5
X207.5Y-125.0
X210.0Y-112.5
X210.0Y-115.0
X210.0Y-117.5
X210.0Y-120.0
X210.0Y-122.5
X210.0Y-125.0
T3
X195.8Y-128.9
X195.8Y-133.9
X195.8Y-139.6
X195.8Y-144.6
T4
X146.433Y-137.5
X146.433Y-142.5
X207.567Y-129.2
X207.567Y-134.2
M30
