%TF.GenerationSoftware,KiCad,Pcbnew,9.0.6*%
%TF.CreationDate,2026-01-21T08:09:24+01:00*%
%TF.ProjectId,Boost converter,426f6f73-7420-4636-9f6e-766572746572,rev?*%
%TF.SameCoordinates,Original*%
%TF.FileFunction,Soldermask,Top*%
%TF.FilePolarity,Negative*%
%FSLAX46Y46*%
G04 Gerber Fmt 4.6, Leading zero omitted, Abs format (unit mm)*
G04 Created by KiCad (PCBNEW 9.0.6) date 2026-01-21 08:09:24*
%MOMM*%
%LPD*%
G01*
G04 APERTURE LIST*
G04 Aperture macros list*
%AMRoundRect*
0 Rectangle with rounded corners*
0 $1 Rounding radius*
0 $2 $3 $4 $5 $6 $7 $8 $9 X,Y pos of 4 corners*
0 Add a 4 corners polygon primitive as box body*
4,1,4,$2,$3,$4,$5,$6,$7,$8,$9,$2,$3,0*
0 Add four circle primitives for the rounded corners*
1,1,$1+$1,$2,$3*
1,1,$1+$1,$4,$5*
1,1,$1+$1,$6,$7*
1,1,$1+$1,$8,$9*
0 Add four rect primitives between the rounded corners*
20,1,$1+$1,$2,$3,$4,$5,0*
20,1,$1+$1,$4,$5,$6,$7,0*
20,1,$1+$1,$6,$7,$8,$9,0*
20,1,$1+$1,$8,$9,$2,$3,0*%
G04 Aperture macros list end*
%ADD10RoundRect,0.200000X0.200000X0.275000X-0.200000X0.275000X-0.200000X-0.275000X0.200000X-0.275000X0*%
%ADD11RoundRect,0.250000X1.000000X-1.000000X1.000000X1.000000X-1.000000X1.000000X-1.000000X-1.000000X0*%
%ADD12C,2.500000*%
%ADD13RoundRect,0.200000X-0.200000X-0.275000X0.200000X-0.275000X0.200000X0.275000X-0.200000X0.275000X0*%
%ADD14RoundRect,0.250000X-0.362500X-1.425000X0.362500X-1.425000X0.362500X1.425000X-0.362500X1.425000X0*%
%ADD15R,0.860001X0.509999*%
%ADD16RoundRect,0.200000X-0.275000X0.200000X-0.275000X-0.200000X0.275000X-0.200000X0.275000X0.200000X0*%
%ADD17RoundRect,0.225000X-0.225000X-0.250000X0.225000X-0.250000X0.225000X0.250000X-0.225000X0.250000X0*%
%ADD18RoundRect,0.250000X0.650000X-0.325000X0.650000X0.325000X-0.650000X0.325000X-0.650000X-0.325000X0*%
%ADD19RoundRect,0.250000X-0.475000X0.250000X-0.475000X-0.250000X0.475000X-0.250000X0.475000X0.250000X0*%
%ADD20RoundRect,0.250000X0.750000X-0.750000X0.750000X0.750000X-0.750000X0.750000X-0.750000X-0.750000X0*%
%ADD21C,2.000000*%
%ADD22RoundRect,0.200000X0.275000X-0.200000X0.275000X0.200000X-0.275000X0.200000X-0.275000X-0.200000X0*%
%ADD23R,1.422400X0.355600*%
%ADD24R,2.997200X4.191000*%
%ADD25RoundRect,0.250000X-0.750000X0.750000X-0.750000X-0.750000X0.750000X-0.750000X0.750000X0.750000X0*%
%ADD26RoundRect,0.225000X0.225000X0.250000X-0.225000X0.250000X-0.225000X-0.250000X0.225000X-0.250000X0*%
%ADD27RoundRect,0.250000X0.250000X0.475000X-0.250000X0.475000X-0.250000X-0.475000X0.250000X-0.475000X0*%
%ADD28R,0.509999X0.860001*%
%ADD29RoundRect,0.250000X-0.650000X1.000000X-0.650000X-1.000000X0.650000X-1.000000X0.650000X1.000000X0*%
%ADD30R,5.308600X1.625600*%
%ADD31RoundRect,0.225000X0.250000X-0.225000X0.250000X0.225000X-0.250000X0.225000X-0.250000X-0.225000X0*%
%ADD32RoundRect,0.250000X-1.000000X1.000000X-1.000000X-1.000000X1.000000X-1.000000X1.000000X1.000000X0*%
%ADD33R,5.334000X5.588000*%
%ADD34R,6.350000X5.283200*%
G04 APERTURE END LIST*
D10*
%TO.C,R14*%
X176225000Y-150600000D03*
X174575000Y-150600000D03*
%TD*%
D11*
%TO.C,J2*%
X207567500Y-134200000D03*
D12*
X207567500Y-129200000D03*
%TD*%
D13*
%TO.C,R13*%
X174575000Y-149000000D03*
X176225000Y-149000000D03*
%TD*%
D14*
%TO.C,R5*%
X156037500Y-140250000D03*
X161962500Y-140250000D03*
%TD*%
D13*
%TO.C,R11*%
X171375000Y-152200000D03*
X173025000Y-152200000D03*
%TD*%
D15*
%TO.C,2*%
X183600000Y-138200000D03*
X183600000Y-136930000D03*
X183600000Y-135660000D03*
X183600000Y-134390000D03*
X177960002Y-134390000D03*
X177960002Y-135660000D03*
X177960002Y-136930000D03*
X177960002Y-138200000D03*
%TD*%
D16*
%TO.C,R9*%
X169600000Y-150575000D03*
X169600000Y-152225000D03*
%TD*%
D17*
%TO.C,C3*%
X160525000Y-146500000D03*
X162075000Y-146500000D03*
%TD*%
D16*
%TO.C,R3*%
X154100000Y-144075000D03*
X154100000Y-145725000D03*
%TD*%
D18*
%TO.C,C1*%
X153900000Y-141375000D03*
X153900000Y-138425000D03*
%TD*%
D13*
%TO.C,R7*%
X160475000Y-148100000D03*
X162125000Y-148100000D03*
%TD*%
D19*
%TO.C,C4*%
X172400000Y-140850000D03*
X172400000Y-142750000D03*
%TD*%
D16*
%TO.C,R15*%
X185170000Y-138300000D03*
X185170000Y-139950000D03*
%TD*%
D13*
%TO.C,R6*%
X157375000Y-148100000D03*
X159025000Y-148100000D03*
%TD*%
D20*
%TO.C,C9*%
X195800000Y-133900000D03*
D21*
X195800000Y-128900000D03*
%TD*%
D13*
%TO.C,R8*%
X171550000Y-147000000D03*
X173200000Y-147000000D03*
%TD*%
%TO.C,R10*%
X174575000Y-147000000D03*
X176225000Y-147000000D03*
%TD*%
D22*
%TO.C,R2*%
X155800000Y-145725000D03*
X155800000Y-144075000D03*
%TD*%
D16*
%TO.C,R4*%
X162000000Y-142975000D03*
X162000000Y-144625000D03*
%TD*%
D17*
%TO.C,C5*%
X171475000Y-145500000D03*
X173025000Y-145500000D03*
%TD*%
D23*
%TO.C,U1*%
X164000000Y-141750000D03*
X164000000Y-142400001D03*
X164000000Y-143049999D03*
X164000000Y-143700001D03*
X164000000Y-144349999D03*
X164000000Y-144999998D03*
X164000000Y-145649999D03*
X164000000Y-146299998D03*
X164000000Y-146949999D03*
X164000000Y-147599998D03*
X169689600Y-147600000D03*
X169689600Y-146950002D03*
X169689600Y-146300001D03*
X169689600Y-145650002D03*
X169689600Y-145000001D03*
X169689600Y-144350002D03*
X169689600Y-143700001D03*
X169689600Y-143050002D03*
X169689600Y-142400001D03*
X169689600Y-141750002D03*
D24*
X166844800Y-144675000D03*
%TD*%
D25*
%TO.C,C10*%
X195800000Y-139600000D03*
D21*
X195800000Y-144600000D03*
%TD*%
D26*
%TO.C,C6*%
X169600000Y-149000000D03*
X168050000Y-149000000D03*
%TD*%
D17*
%TO.C,C2*%
X158975000Y-144600000D03*
X160525000Y-144600000D03*
%TD*%
D27*
%TO.C,C8*%
X181150000Y-148400000D03*
X179250000Y-148400000D03*
%TD*%
D28*
%TO.C,1*%
X174730000Y-145750000D03*
X176000000Y-145750000D03*
X177270000Y-145750000D03*
X178540000Y-145750000D03*
X178540000Y-140110002D03*
X177270000Y-140110002D03*
X176000000Y-140110002D03*
X174730000Y-140110002D03*
%TD*%
D16*
%TO.C,R12*%
X186700000Y-138300000D03*
X186700000Y-139950000D03*
%TD*%
D29*
%TO.C,D1*%
X181250000Y-141500000D03*
X181250000Y-145500000D03*
%TD*%
D30*
%TO.C,C11*%
X187400000Y-136290800D03*
X187400000Y-131109200D03*
%TD*%
D16*
%TO.C,R1*%
X157500000Y-143975000D03*
X157500000Y-145625000D03*
%TD*%
D31*
%TO.C,C7*%
X173000000Y-150575000D03*
X173000000Y-149025000D03*
%TD*%
D32*
%TO.C,J1*%
X146432500Y-137500000D03*
D12*
X146432500Y-142500000D03*
%TD*%
D33*
%TO.C,L1*%
X163184999Y-135161301D03*
X173614998Y-135161301D03*
D34*
X168400000Y-113086300D03*
%TD*%
M02*
