%TF.GenerationSoftware,KiCad,Pcbnew,9.0.6*%
%TF.CreationDate,2026-01-21T08:09:24+01:00*%
%TF.ProjectId,Boost converter,426f6f73-7420-4636-9f6e-766572746572,rev?*%
%TF.SameCoordinates,Original*%
%TF.FileFunction,Paste,Top*%
%TF.FilePolarity,Positive*%
%FSLAX46Y46*%
G04 Gerber Fmt 4.6, Leading zero omitted, Abs format (unit mm)*
G04 Created by KiCad (PCBNEW 9.0.6) date 2026-01-21 08:09:24*
%MOMM*%
%LPD*%
G01*
G04 APERTURE LIST*
G04 Aperture macros list*
%AMRoundRect*
0 Rectangle with rounded corners*
0 $1 Rounding radius*
0 $2 $3 $4 $5 $6 $7 $8 $9 X,Y pos of 4 corners*
0 Add a 4 corners polygon primitive as box body*
4,1,4,$2,$3,$4,$5,$6,$7,$8,$9,$2,$3,0*
0 Add four circle primitives for the rounded corners*
1,1,$1+$1,$2,$3*
1,1,$1+$1,$4,$5*
1,1,$1+$1,$6,$7*
1,1,$1+$1,$8,$9*
0 Add four rect primitives between the rounded corners*
20,1,$1+$1,$2,$3,$4,$5,0*
20,1,$1+$1,$4,$5,$6,$7,0*
20,1,$1+$1,$6,$7,$8,$9,0*
20,1,$1+$1,$8,$9,$2,$3,0*%
G04 Aperture macros list end*
%ADD10C,0.000000*%
%ADD11RoundRect,0.200000X0.200000X0.275000X-0.200000X0.275000X-0.200000X-0.275000X0.200000X-0.275000X0*%
%ADD12RoundRect,0.200000X-0.200000X-0.275000X0.200000X-0.275000X0.200000X0.275000X-0.200000X0.275000X0*%
%ADD13RoundRect,0.250000X-0.362500X-1.425000X0.362500X-1.425000X0.362500X1.425000X-0.362500X1.425000X0*%
%ADD14R,0.860001X0.509999*%
%ADD15RoundRect,0.200000X-0.275000X0.200000X-0.275000X-0.200000X0.275000X-0.200000X0.275000X0.200000X0*%
%ADD16RoundRect,0.225000X-0.225000X-0.250000X0.225000X-0.250000X0.225000X0.250000X-0.225000X0.250000X0*%
%ADD17RoundRect,0.250000X0.650000X-0.325000X0.650000X0.325000X-0.650000X0.325000X-0.650000X-0.325000X0*%
%ADD18RoundRect,0.250000X-0.475000X0.250000X-0.475000X-0.250000X0.475000X-0.250000X0.475000X0.250000X0*%
%ADD19RoundRect,0.200000X0.275000X-0.200000X0.275000X0.200000X-0.275000X0.200000X-0.275000X-0.200000X0*%
%ADD20R,1.422400X0.355600*%
%ADD21RoundRect,0.225000X0.225000X0.250000X-0.225000X0.250000X-0.225000X-0.250000X0.225000X-0.250000X0*%
%ADD22RoundRect,0.250000X0.250000X0.475000X-0.250000X0.475000X-0.250000X-0.475000X0.250000X-0.475000X0*%
%ADD23R,0.509999X0.860001*%
%ADD24RoundRect,0.250000X-0.650000X1.000000X-0.650000X-1.000000X0.650000X-1.000000X0.650000X1.000000X0*%
%ADD25R,5.308600X1.625600*%
%ADD26RoundRect,0.225000X0.250000X-0.225000X0.250000X0.225000X-0.250000X0.225000X-0.250000X-0.225000X0*%
%ADD27R,5.334000X5.588000*%
%ADD28R,6.350000X5.283200*%
G04 APERTURE END LIST*
D10*
%TO.C,2*%
G36*
X179979111Y-134190976D02*
G01*
X179988641Y-134193866D01*
X179997424Y-134198563D01*
X180005123Y-134204880D01*
X180011440Y-134212578D01*
X180016134Y-134221359D01*
X180019025Y-134230889D01*
X180020000Y-134240800D01*
X180020000Y-135409200D01*
X180019025Y-135419111D01*
X180016134Y-135428642D01*
X180011440Y-135437422D01*
X180005123Y-135445121D01*
X179997424Y-135451438D01*
X179988641Y-135456135D01*
X179979111Y-135459025D01*
X179969200Y-135460000D01*
X178590800Y-135460000D01*
X178580892Y-135459025D01*
X178571362Y-135456135D01*
X178562578Y-135451438D01*
X178554880Y-135445121D01*
X178548563Y-135437422D01*
X178543869Y-135428642D01*
X178540978Y-135419111D01*
X178540000Y-135409200D01*
X178540000Y-134240800D01*
X178540978Y-134230889D01*
X178543869Y-134221359D01*
X178548563Y-134212578D01*
X178554880Y-134204880D01*
X178562578Y-134198563D01*
X178571362Y-134193866D01*
X178580892Y-134190976D01*
X178590800Y-134190000D01*
X179969200Y-134190000D01*
X179979111Y-134190976D01*
G37*
G36*
X179979111Y-135660975D02*
G01*
X179988641Y-135663866D01*
X179997424Y-135668562D01*
X180005123Y-135674879D01*
X180011440Y-135682578D01*
X180016134Y-135691359D01*
X180019025Y-135700889D01*
X180020000Y-135710800D01*
X180020000Y-136879200D01*
X180019025Y-136889111D01*
X180016134Y-136898641D01*
X180011440Y-136907422D01*
X180005123Y-136915121D01*
X179997424Y-136921438D01*
X179988641Y-136926134D01*
X179979111Y-136929025D01*
X179969200Y-136930000D01*
X178590800Y-136930000D01*
X178580892Y-136929025D01*
X178571362Y-136926134D01*
X178562578Y-136921438D01*
X178554880Y-136915121D01*
X178548563Y-136907422D01*
X178543869Y-136898641D01*
X178540978Y-136889111D01*
X178540000Y-136879200D01*
X178540000Y-135710800D01*
X178540978Y-135700889D01*
X178543869Y-135691359D01*
X178548563Y-135682578D01*
X178554880Y-135674879D01*
X178562578Y-135668562D01*
X178571362Y-135663866D01*
X178580892Y-135660975D01*
X178590800Y-135660000D01*
X179969200Y-135660000D01*
X179979111Y-135660975D01*
G37*
G36*
X179979111Y-137130975D02*
G01*
X179988641Y-137133865D01*
X179997424Y-137138562D01*
X180005123Y-137144879D01*
X180011440Y-137152578D01*
X180016134Y-137161358D01*
X180019025Y-137170889D01*
X180020000Y-137180800D01*
X180020000Y-138349200D01*
X180019025Y-138359111D01*
X180016134Y-138368641D01*
X180011440Y-138377422D01*
X180005123Y-138385120D01*
X179997424Y-138391437D01*
X179988641Y-138396134D01*
X179979111Y-138399024D01*
X179969200Y-138400000D01*
X178590800Y-138400000D01*
X178580892Y-138399024D01*
X178571362Y-138396134D01*
X178562578Y-138391437D01*
X178554880Y-138385120D01*
X178548563Y-138377422D01*
X178543869Y-138368641D01*
X178540978Y-138359111D01*
X178540000Y-138349200D01*
X178540000Y-137180800D01*
X178540978Y-137170889D01*
X178543869Y-137161358D01*
X178548563Y-137152578D01*
X178554880Y-137144879D01*
X178562578Y-137138562D01*
X178571362Y-137133865D01*
X178580892Y-137130975D01*
X178590800Y-137130000D01*
X179969200Y-137130000D01*
X179979111Y-137130975D01*
G37*
G36*
X181659110Y-134190976D02*
G01*
X181668640Y-134193866D01*
X181677424Y-134198563D01*
X181685122Y-134204880D01*
X181691439Y-134212578D01*
X181696133Y-134221359D01*
X181699024Y-134230889D01*
X181700002Y-134240800D01*
X181700002Y-135409200D01*
X181699024Y-135419111D01*
X181696133Y-135428642D01*
X181691439Y-135437422D01*
X181685122Y-135445121D01*
X181677424Y-135451438D01*
X181668640Y-135456135D01*
X181659110Y-135459025D01*
X181649202Y-135460000D01*
X180270802Y-135460000D01*
X180260891Y-135459025D01*
X180251361Y-135456135D01*
X180242578Y-135451438D01*
X180234879Y-135445121D01*
X180228562Y-135437422D01*
X180223868Y-135428642D01*
X180220977Y-135419111D01*
X180220002Y-135409200D01*
X180220002Y-134240800D01*
X180220977Y-134230889D01*
X180223868Y-134221359D01*
X180228562Y-134212578D01*
X180234879Y-134204880D01*
X180242578Y-134198563D01*
X180251361Y-134193866D01*
X180260891Y-134190976D01*
X180270802Y-134190000D01*
X181649202Y-134190000D01*
X181659110Y-134190976D01*
G37*
G36*
X181659110Y-135660975D02*
G01*
X181668640Y-135663866D01*
X181677424Y-135668562D01*
X181685122Y-135674879D01*
X181691439Y-135682578D01*
X181696133Y-135691359D01*
X181699024Y-135700889D01*
X181700002Y-135710800D01*
X181700002Y-136879200D01*
X181699024Y-136889111D01*
X181696133Y-136898641D01*
X181691439Y-136907422D01*
X181685122Y-136915121D01*
X181677424Y-136921438D01*
X181668640Y-136926134D01*
X181659110Y-136929025D01*
X181649202Y-136930000D01*
X180270802Y-136930000D01*
X180260891Y-136929025D01*
X180251361Y-136926134D01*
X180242578Y-136921438D01*
X180234879Y-136915121D01*
X180228562Y-136907422D01*
X180223868Y-136898641D01*
X180220977Y-136889111D01*
X180220002Y-136879200D01*
X180220002Y-135710800D01*
X180220977Y-135700889D01*
X180223868Y-135691359D01*
X180228562Y-135682578D01*
X180234879Y-135674879D01*
X180242578Y-135668562D01*
X180251361Y-135663866D01*
X180260891Y-135660975D01*
X180270802Y-135660000D01*
X181649202Y-135660000D01*
X181659110Y-135660975D01*
G37*
G36*
X181659110Y-137130975D02*
G01*
X181668640Y-137133865D01*
X181677424Y-137138562D01*
X181685122Y-137144879D01*
X181691439Y-137152578D01*
X181696133Y-137161358D01*
X181699024Y-137170889D01*
X181700002Y-137180800D01*
X181700002Y-138349200D01*
X181699024Y-138359111D01*
X181696133Y-138368641D01*
X181691439Y-138377422D01*
X181685122Y-138385120D01*
X181677424Y-138391437D01*
X181668640Y-138396134D01*
X181659110Y-138399024D01*
X181649202Y-138400000D01*
X180270802Y-138400000D01*
X180260891Y-138399024D01*
X180251361Y-138396134D01*
X180242578Y-138391437D01*
X180234879Y-138385120D01*
X180228562Y-138377422D01*
X180223868Y-138368641D01*
X180220977Y-138359111D01*
X180220002Y-138349200D01*
X180220002Y-137180800D01*
X180220977Y-137170889D01*
X180223868Y-137161358D01*
X180228562Y-137152578D01*
X180234879Y-137144879D01*
X180242578Y-137138562D01*
X180251361Y-137133865D01*
X180260891Y-137130975D01*
X180270802Y-137130000D01*
X181649202Y-137130000D01*
X181659110Y-137130975D01*
G37*
%TO.C,U1*%
G36*
X166744800Y-143876500D02*
G01*
X165446200Y-143876500D01*
X165446200Y-142679500D01*
X166744800Y-142679500D01*
X166744800Y-143876500D01*
G37*
G36*
X166744800Y-145273500D02*
G01*
X165446200Y-145273500D01*
X165446200Y-144076500D01*
X166744800Y-144076500D01*
X166744800Y-145273500D01*
G37*
G36*
X166744800Y-146670500D02*
G01*
X165446200Y-146670500D01*
X165446200Y-145473500D01*
X166744800Y-145473500D01*
X166744800Y-146670500D01*
G37*
G36*
X168243400Y-143876500D02*
G01*
X166944800Y-143876500D01*
X166944800Y-142679500D01*
X168243400Y-142679500D01*
X168243400Y-143876500D01*
G37*
G36*
X168243400Y-145273500D02*
G01*
X166944800Y-145273500D01*
X166944800Y-144076500D01*
X168243400Y-144076500D01*
X168243400Y-145273500D01*
G37*
G36*
X168243400Y-146670500D02*
G01*
X166944800Y-146670500D01*
X166944800Y-145473500D01*
X168243400Y-145473500D01*
X168243400Y-146670500D01*
G37*
%TO.C,1*%
G36*
X175759111Y-140690978D02*
G01*
X175768642Y-140693869D01*
X175777422Y-140698563D01*
X175785121Y-140704880D01*
X175791438Y-140712578D01*
X175796135Y-140721362D01*
X175799025Y-140730892D01*
X175800000Y-140740800D01*
X175800000Y-142119200D01*
X175799025Y-142129111D01*
X175796135Y-142138641D01*
X175791438Y-142147424D01*
X175785121Y-142155123D01*
X175777422Y-142161440D01*
X175768642Y-142166134D01*
X175759111Y-142169025D01*
X175749200Y-142170000D01*
X174580800Y-142170000D01*
X174570889Y-142169025D01*
X174561359Y-142166134D01*
X174552578Y-142161440D01*
X174544880Y-142155123D01*
X174538563Y-142147424D01*
X174533866Y-142138641D01*
X174530976Y-142129111D01*
X174530000Y-142119200D01*
X174530000Y-140740800D01*
X174530976Y-140730892D01*
X174533866Y-140721362D01*
X174538563Y-140712578D01*
X174544880Y-140704880D01*
X174552578Y-140698563D01*
X174561359Y-140693869D01*
X174570889Y-140690978D01*
X174580800Y-140690000D01*
X175749200Y-140690000D01*
X175759111Y-140690978D01*
G37*
G36*
X175759111Y-142370977D02*
G01*
X175768642Y-142373868D01*
X175777422Y-142378562D01*
X175785121Y-142384879D01*
X175791438Y-142392578D01*
X175796135Y-142401361D01*
X175799025Y-142410891D01*
X175800000Y-142420802D01*
X175800000Y-143799202D01*
X175799025Y-143809110D01*
X175796135Y-143818640D01*
X175791438Y-143827424D01*
X175785121Y-143835122D01*
X175777422Y-143841439D01*
X175768642Y-143846133D01*
X175759111Y-143849024D01*
X175749200Y-143850002D01*
X174580800Y-143850002D01*
X174570889Y-143849024D01*
X174561359Y-143846133D01*
X174552578Y-143841439D01*
X174544880Y-143835122D01*
X174538563Y-143827424D01*
X174533866Y-143818640D01*
X174530976Y-143809110D01*
X174530000Y-143799202D01*
X174530000Y-142420802D01*
X174530976Y-142410891D01*
X174533866Y-142401361D01*
X174538563Y-142392578D01*
X174544880Y-142384879D01*
X174552578Y-142378562D01*
X174561359Y-142373868D01*
X174570889Y-142370977D01*
X174580800Y-142370002D01*
X175749200Y-142370002D01*
X175759111Y-142370977D01*
G37*
G36*
X177229111Y-140690978D02*
G01*
X177238641Y-140693869D01*
X177247422Y-140698563D01*
X177255121Y-140704880D01*
X177261438Y-140712578D01*
X177266134Y-140721362D01*
X177269025Y-140730892D01*
X177270000Y-140740800D01*
X177270000Y-142119200D01*
X177269025Y-142129111D01*
X177266134Y-142138641D01*
X177261438Y-142147424D01*
X177255121Y-142155123D01*
X177247422Y-142161440D01*
X177238641Y-142166134D01*
X177229111Y-142169025D01*
X177219200Y-142170000D01*
X176050800Y-142170000D01*
X176040889Y-142169025D01*
X176031359Y-142166134D01*
X176022578Y-142161440D01*
X176014879Y-142155123D01*
X176008562Y-142147424D01*
X176003866Y-142138641D01*
X176000975Y-142129111D01*
X176000000Y-142119200D01*
X176000000Y-140740800D01*
X176000975Y-140730892D01*
X176003866Y-140721362D01*
X176008562Y-140712578D01*
X176014879Y-140704880D01*
X176022578Y-140698563D01*
X176031359Y-140693869D01*
X176040889Y-140690978D01*
X176050800Y-140690000D01*
X177219200Y-140690000D01*
X177229111Y-140690978D01*
G37*
G36*
X177229111Y-142370977D02*
G01*
X177238641Y-142373868D01*
X177247422Y-142378562D01*
X177255121Y-142384879D01*
X177261438Y-142392578D01*
X177266134Y-142401361D01*
X177269025Y-142410891D01*
X177270000Y-142420802D01*
X177270000Y-143799202D01*
X177269025Y-143809110D01*
X177266134Y-143818640D01*
X177261438Y-143827424D01*
X177255121Y-143835122D01*
X177247422Y-143841439D01*
X177238641Y-143846133D01*
X177229111Y-143849024D01*
X177219200Y-143850002D01*
X176050800Y-143850002D01*
X176040889Y-143849024D01*
X176031359Y-143846133D01*
X176022578Y-143841439D01*
X176014879Y-143835122D01*
X176008562Y-143827424D01*
X176003866Y-143818640D01*
X176000975Y-143809110D01*
X176000000Y-143799202D01*
X176000000Y-142420802D01*
X176000975Y-142410891D01*
X176003866Y-142401361D01*
X176008562Y-142392578D01*
X176014879Y-142384879D01*
X176022578Y-142378562D01*
X176031359Y-142373868D01*
X176040889Y-142370977D01*
X176050800Y-142370002D01*
X177219200Y-142370002D01*
X177229111Y-142370977D01*
G37*
G36*
X178699111Y-140690978D02*
G01*
X178708641Y-140693869D01*
X178717422Y-140698563D01*
X178725120Y-140704880D01*
X178731437Y-140712578D01*
X178736134Y-140721362D01*
X178739024Y-140730892D01*
X178740000Y-140740800D01*
X178740000Y-142119200D01*
X178739024Y-142129111D01*
X178736134Y-142138641D01*
X178731437Y-142147424D01*
X178725120Y-142155123D01*
X178717422Y-142161440D01*
X178708641Y-142166134D01*
X178699111Y-142169025D01*
X178689200Y-142170000D01*
X177520800Y-142170000D01*
X177510889Y-142169025D01*
X177501358Y-142166134D01*
X177492578Y-142161440D01*
X177484879Y-142155123D01*
X177478562Y-142147424D01*
X177473865Y-142138641D01*
X177470975Y-142129111D01*
X177470000Y-142119200D01*
X177470000Y-140740800D01*
X177470975Y-140730892D01*
X177473865Y-140721362D01*
X177478562Y-140712578D01*
X177484879Y-140704880D01*
X177492578Y-140698563D01*
X177501358Y-140693869D01*
X177510889Y-140690978D01*
X177520800Y-140690000D01*
X178689200Y-140690000D01*
X178699111Y-140690978D01*
G37*
G36*
X178699111Y-142370977D02*
G01*
X178708641Y-142373868D01*
X178717422Y-142378562D01*
X178725120Y-142384879D01*
X178731437Y-142392578D01*
X178736134Y-142401361D01*
X178739024Y-142410891D01*
X178740000Y-142420802D01*
X178740000Y-143799202D01*
X178739024Y-143809110D01*
X178736134Y-143818640D01*
X178731437Y-143827424D01*
X178725120Y-143835122D01*
X178717422Y-143841439D01*
X178708641Y-143846133D01*
X178699111Y-143849024D01*
X178689200Y-143850002D01*
X177520800Y-143850002D01*
X177510889Y-143849024D01*
X177501358Y-143846133D01*
X177492578Y-143841439D01*
X177484879Y-143835122D01*
X177478562Y-143827424D01*
X177473865Y-143818640D01*
X177470975Y-143809110D01*
X177470000Y-143799202D01*
X177470000Y-142420802D01*
X177470975Y-142410891D01*
X177473865Y-142401361D01*
X177478562Y-142392578D01*
X177484879Y-142384879D01*
X177492578Y-142378562D01*
X177501358Y-142373868D01*
X177510889Y-142370977D01*
X177520800Y-142370002D01*
X178689200Y-142370002D01*
X178699111Y-142370977D01*
G37*
%TD*%
D11*
%TO.C,R14*%
X176225000Y-150600000D03*
X174575000Y-150600000D03*
%TD*%
D12*
%TO.C,R13*%
X174575000Y-149000000D03*
X176225000Y-149000000D03*
%TD*%
D13*
%TO.C,R5*%
X156037500Y-140250000D03*
X161962500Y-140250000D03*
%TD*%
D12*
%TO.C,R11*%
X171375000Y-152200000D03*
X173025000Y-152200000D03*
%TD*%
D14*
%TO.C,2*%
X183600000Y-138200000D03*
X183600000Y-136930000D03*
X183600000Y-135660000D03*
X183600000Y-134390000D03*
X177960002Y-134390000D03*
X177960002Y-135660000D03*
X177960002Y-136930000D03*
X177960002Y-138200000D03*
%TD*%
D15*
%TO.C,R9*%
X169600000Y-150575000D03*
X169600000Y-152225000D03*
%TD*%
D16*
%TO.C,C3*%
X160525000Y-146500000D03*
X162075000Y-146500000D03*
%TD*%
D15*
%TO.C,R3*%
X154100000Y-144075000D03*
X154100000Y-145725000D03*
%TD*%
D17*
%TO.C,C1*%
X153900000Y-141375000D03*
X153900000Y-138425000D03*
%TD*%
D12*
%TO.C,R7*%
X160475000Y-148100000D03*
X162125000Y-148100000D03*
%TD*%
D18*
%TO.C,C4*%
X172400000Y-140850000D03*
X172400000Y-142750000D03*
%TD*%
D15*
%TO.C,R15*%
X185170000Y-138300000D03*
X185170000Y-139950000D03*
%TD*%
D12*
%TO.C,R6*%
X157375000Y-148100000D03*
X159025000Y-148100000D03*
%TD*%
%TO.C,R8*%
X171550000Y-147000000D03*
X173200000Y-147000000D03*
%TD*%
%TO.C,R10*%
X174575000Y-147000000D03*
X176225000Y-147000000D03*
%TD*%
D19*
%TO.C,R2*%
X155800000Y-145725000D03*
X155800000Y-144075000D03*
%TD*%
D15*
%TO.C,R4*%
X162000000Y-142975000D03*
X162000000Y-144625000D03*
%TD*%
D16*
%TO.C,C5*%
X171475000Y-145500000D03*
X173025000Y-145500000D03*
%TD*%
D20*
%TO.C,U1*%
X164000000Y-141750000D03*
X164000000Y-142400001D03*
X164000000Y-143049999D03*
X164000000Y-143700001D03*
X164000000Y-144349999D03*
X164000000Y-144999998D03*
X164000000Y-145649999D03*
X164000000Y-146299998D03*
X164000000Y-146949999D03*
X164000000Y-147599998D03*
X169689600Y-147600000D03*
X169689600Y-146950002D03*
X169689600Y-146300001D03*
X169689600Y-145650002D03*
X169689600Y-145000001D03*
X169689600Y-144350002D03*
X169689600Y-143700001D03*
X169689600Y-143050002D03*
X169689600Y-142400001D03*
X169689600Y-141750002D03*
%TD*%
D21*
%TO.C,C6*%
X169600000Y-149000000D03*
X168050000Y-149000000D03*
%TD*%
D16*
%TO.C,C2*%
X158975000Y-144600000D03*
X160525000Y-144600000D03*
%TD*%
D22*
%TO.C,C8*%
X181150000Y-148400000D03*
X179250000Y-148400000D03*
%TD*%
D23*
%TO.C,1*%
X174730000Y-145750000D03*
X176000000Y-145750000D03*
X177270000Y-145750000D03*
X178540000Y-145750000D03*
X178540000Y-140110002D03*
X177270000Y-140110002D03*
X176000000Y-140110002D03*
X174730000Y-140110002D03*
%TD*%
D15*
%TO.C,R12*%
X186700000Y-138300000D03*
X186700000Y-139950000D03*
%TD*%
D24*
%TO.C,D1*%
X181250000Y-141500000D03*
X181250000Y-145500000D03*
%TD*%
D25*
%TO.C,C11*%
X187400000Y-136290800D03*
X187400000Y-131109200D03*
%TD*%
D15*
%TO.C,R1*%
X157500000Y-143975000D03*
X157500000Y-145625000D03*
%TD*%
D26*
%TO.C,C7*%
X173000000Y-150575000D03*
X173000000Y-149025000D03*
%TD*%
D27*
%TO.C,L1*%
X163184999Y-135161301D03*
X173614998Y-135161301D03*
D28*
X168400000Y-113086300D03*
%TD*%
M02*
